<svg preserveAspectRatio="none" overflow="visible" style="display: block;" width="13.4403" height="15.052" viewBox="0 0 13.4403 15.052" fill="none" xmlns="http://www.w3.org/2000/svg">
<g id="Group">
<path id="Vector" d="M10.6608 8.05381C11.295 7.41956 12.3234 7.41956 12.9576 8.05381C13.5996 8.69571 13.6014 9.73601 12.9617 10.3802L8.68847 14.6838L5.95312 15.052L6.34363 12.371L10.6608 8.05381Z" fill="#F08B32"/>
<path id="Vector_2" fill-rule="evenodd" clip-rule="evenodd" d="M3.7071 0.585785C4.0822 0.210715 4.5909 0 5.1213 0H11C12.1046 0 13 0.89543 13 2V6.8609C12.0142 6.35775 10.7766 6.5186 9.9517 7.34355L5.63455 11.6607C5.4822 11.813 5.38315 12.0105 5.3521 12.2237L4.9616 14.9046C4.957 14.9364 4.9539 14.9682 4.95235 15H2C0.89543 15 0 14.1046 0 13V5.1213C0 4.5909 0.210715 4.08218 0.585785 3.70711L3.7071 0.585785ZM5 1V5H1L5 1Z" fill="#F08B32"/>
</g>
</svg>
