<svg preserveAspectRatio="none" overflow="visible" style="display: block;" width="34.22" height="36.6615" viewBox="0 0 34.22 36.6615" fill="none" xmlns="http://www.w3.org/2000/svg">
<g id="Group">
<path id="Vector" d="M29.1667 36.6615C31.4678 36.6615 33.3333 34.796 33.3333 32.4948C33.3333 30.1936 31.4678 28.3281 29.1667 28.3281C26.8655 28.3281 25 30.1936 25 32.4948C25 34.796 26.8655 36.6615 29.1667 36.6615Z" fill="#F08B32"/>
<path id="Vector_2" d="M7.49479 36.6615C9.79596 36.6615 11.6615 34.796 11.6615 32.4948C11.6615 30.1936 9.79596 28.3281 7.49479 28.3281C5.19361 28.3281 3.32812 30.1936 3.32812 32.4948C3.32812 34.796 5.19361 36.6615 7.49479 36.6615Z" fill="#F08B32"/>
<path id="Vector_3" fill-rule="evenodd" clip-rule="evenodd" d="M0 0H2.78812C4.43885 0 5.84096 1.2082 6.08487 2.84082L8.58167 19.5538L5.89639 21.8688C5.31131 22.3732 5.66802 23.3333 6.44052 23.3333H33.75V25.8333H6.44052C3.35054 25.8333 1.92366 21.993 4.264 19.9753L5.9055 18.5602L3.6123 3.2102C3.55133 2.80205 3.2008 2.5 2.78812 2.5H0V0Z" fill="#F08B32"/>
<path id="Vector_4" fill-rule="evenodd" clip-rule="evenodd" d="M34.22 5.82812H5.42188L7.08854 19.9948H25.718C28.0709 19.9948 30.1547 18.4758 30.8747 16.2357L34.22 5.82812ZM14.1719 15.4115V10.4115H11.6719V15.4115H14.1719ZM19.5885 10.4115V15.4115H17.0885V10.4115H19.5885ZM25.0052 10.4115V15.4115H22.5052V10.4115H25.0052Z" fill="#F08B32"/>
</g>
</svg>
