<svg preserveAspectRatio="none" overflow="visible" style="display: block;" width="16" height="16" viewBox="0 0 16 16" fill="none" xmlns="http://www.w3.org/2000/svg">
<g id="Icon">
<path id="Vector" d="M8.39806 14.5314C9.63806 13.4607 13.3307 9.99403 13.3307 6.66536C13.3307 5.25088 12.7688 3.89432 11.7686 2.89413C10.7684 1.89393 9.41188 1.33203 7.9974 1.33203C6.58291 1.33203 5.22635 1.89393 4.22616 2.89413C3.22597 3.89432 2.66406 5.25088 2.66406 6.66536C2.66406 9.99403 6.35673 13.4607 7.59673 14.5314C7.71225 14.6182 7.85286 14.6652 7.9974 14.6652C8.14193 14.6652 8.28255 14.6182 8.39806 14.5314Z" stroke="#F08B32" stroke-width="1.33333" stroke-linecap="round" stroke-linejoin="round"/>
<path id="Vector_2" d="M8 8.66797C9.10457 8.66797 10 7.77254 10 6.66797C10 5.5634 9.10457 4.66797 8 4.66797C6.89543 4.66797 6 5.5634 6 6.66797C6 7.77254 6.89543 8.66797 8 8.66797Z" stroke="#F08B32" stroke-width="1.33333" stroke-linecap="round" stroke-linejoin="round"/>
</g>
</svg>
