<svg width="48" height="48" viewBox="0 0 48 48" fill="none" xmlns="http://www.w3.org/2000/svg">
<rect width="48" height="48" rx="4" fill="white" fill-opacity="0.1"/>
<path d="M38 14C38 11.7909 36.2091 10 34 10H29V23.126C29.6052 23.2818 30.155 23.5757 30.6138 23.972L38 16.5858V14Z" fill="white"/>
<path d="M25.3862 23.972L20 18.5858L10 28.5858V14C10 11.7909 11.7909 10 14 10H27V23.126C26.3948 23.2818 25.845 23.5757 25.3862 23.972Z" fill="white"/>
<path d="M31.7659 25.6484C31.9174 26.0707 32 26.5257 32 27.0001C32 29.2092 30.2091 31.0001 28 31.0001C25.7909 31.0001 24 29.2092 24 27.0001C24 26.5257 24.0826 26.0707 24.2341 25.6484L20 21.4143L10 31.4143V34.0001C10 36.2092 11.7909 38.0001 14 38.0001H27V33.0001H29V38.0001H34C36.2091 38.0001 38 36.2092 38 34.0001V19.4143L31.7659 25.6484Z" fill="white"/>
</svg>
