<svg width="40" height="41" viewBox="0 0 40 41" fill="none" xmlns="http://www.w3.org/2000/svg">
<path d="M3.33496 16.9199H36.6683" stroke="white" stroke-linecap="round"/>
<path d="M5.47212 8.43772C5.79313 7.71547 6.50937 7.25 7.29975 7.25H32.1197C32.6806 7.25 33.2157 7.48555 33.5946 7.89919L36.3582 10.9167L36.5 16.75H3L4 11.75L5.47212 8.43772Z" fill="white"/>
<path d="M20.0016 33.5866H9.68417C6.1776 33.5866 3.33496 30.6018 3.33496 26.9199V13.5866C3.33496 9.90469 6.1776 6.91992 9.68417 6.91992H30.3191C33.8257 6.91992 36.6683 9.90469 36.6683 13.5866V23.5866" stroke="white" stroke-linecap="round"/>
<path d="M36.6704 31.9167H24.7656M36.6704 31.9167L32.7021 27.75M36.6704 31.9167L32.7021 36.0833" stroke="white" stroke-linecap="round" stroke-linejoin="round"/>
</svg>
