<svg width="41" height="40" viewBox="0 0 41 40" fill="none" xmlns="http://www.w3.org/2000/svg">
<rect x="0.333496" y="0.000854492" width="40" height="40" rx="4" fill="white" fill-opacity="0.1"/>
<path d="M20.3334 10.4012C15.0402 10.4012 10.7334 14.708 10.7334 20.0012C10.7334 25.2944 15.0402 29.6012 20.3334 29.6012C25.6266 29.6012 29.9334 25.2944 29.9334 20.0012C29.9334 14.708 25.6266 10.4012 20.3334 10.4012ZM25.4742 17.1464L19.7742 24.3464C19.5546 24.6236 19.2246 24.7904 18.8706 24.8012C18.8586 24.8012 18.8454 24.8012 18.8334 24.8012C18.4938 24.8012 18.1686 24.6572 17.9418 24.404L15.2418 21.404C14.799 20.9108 14.8386 20.1524 15.3306 19.7096C15.8226 19.2656 16.581 19.3064 17.025 19.7984L18.7746 21.7424L23.5926 15.6572C24.0042 15.1388 24.7578 15.05 25.2786 15.4604C25.7982 15.872 25.8858 16.6268 25.4742 17.1464Z" fill="white"/>
</svg>
