<svg width="48" height="48" viewBox="0 0 48 48" fill="none" xmlns="http://www.w3.org/2000/svg">
<path d="M10.0002 21.8787L6.00023 17.8787L3.87891 20L7.87891 24L3.87891 28L6.00023 30.1213L10.0002 26.1213L14.0002 30.1213L16.1215 28L12.1215 24L16.1215 20L14.0002 17.8787L10.0002 21.8787Z" fill="white"/>
<path fill-rule="evenodd" clip-rule="evenodd" d="M21 36.5H44V39.5H21V36.5Z" fill="white"/>
<path fill-rule="evenodd" clip-rule="evenodd" d="M21 22.5H44V25.5H21V22.5Z" fill="white"/>
<path fill-rule="evenodd" clip-rule="evenodd" d="M21 8.5H44V11.5H21V8.5Z" fill="white"/>
<path fill-rule="evenodd" clip-rule="evenodd" d="M4 7.5C4 5.567 5.567 4 7.5 4H12.5C14.433 4 16 5.567 16 7.5V12.5C16 14.433 14.433 16 12.5 16H7.5C5.567 16 4 14.433 4 12.5V7.5Z" fill="white"/>
<path fill-rule="evenodd" clip-rule="evenodd" d="M4 35.5C4 33.567 5.567 32 7.5 32H12.5C14.433 32 16 33.567 16 35.5V40.5C16 42.433 14.433 44 12.5 44H7.5C5.567 44 4 42.433 4 40.5V35.5Z" fill="white"/>
</svg>
