<svg width="40" height="40" viewBox="0 0 40 40" fill="none" xmlns="http://www.w3.org/2000/svg">
<rect y="0.000976562" width="40" height="40" rx="4" fill="white" fill-opacity="0.1"/>
<path d="M18.8001 11.6006H12.8001C12.1374 11.6006 11.6001 12.1378 11.6001 12.8006V17.6006C11.6001 18.2633 12.1374 18.8006 12.8001 18.8006H18.8001C19.4628 18.8006 20.0001 18.2633 20.0001 17.6006V12.8006C20.0001 12.1378 19.4628 11.6006 18.8001 11.6006Z" fill="white" stroke="white" stroke-width="2" stroke-linecap="round" stroke-linejoin="round"/>
<path d="M27.1998 15.2002H25.9998C25.3371 15.2002 24.7998 15.7375 24.7998 16.4002V26.0002C24.7998 26.6629 25.3371 27.2002 25.9998 27.2002H27.1998C27.8625 27.2002 28.3998 26.6629 28.3998 26.0002V16.4002C28.3998 15.7375 27.8625 15.2002 27.1998 15.2002Z" fill="white" stroke="white" stroke-width="2" stroke-linecap="round" stroke-linejoin="round"/>
<path d="M18.8 23.6006H15.2C14.5373 23.6006 14 24.1378 14 24.8006V27.2006C14 27.8633 14.5373 28.4006 15.2 28.4006H18.8C19.4627 28.4006 20 27.8633 20 27.2006V24.8006C20 24.1378 19.4627 23.6006 18.8 23.6006Z" fill="white" stroke="white" stroke-width="2" stroke-linecap="round" stroke-linejoin="round"/>
</svg>
