<svg width="48" height="48" viewBox="0 0 48 48" fill="none" xmlns="http://www.w3.org/2000/svg">
<path fill-rule="evenodd" clip-rule="evenodd" d="M20.2426 2C19.1818 2 18.1644 2.42143 17.4142 3.17157L7.17157 13.4142C6.42153 14.1643 6 15.1812 6 16.2422V40C6 43.3137 8.68629 46 12 46H25.3253C22.967 43.7264 21.5 40.5345 21.5 37C21.5 30.0964 27.0964 24.5 34 24.5C37.0431 24.5 39.8322 25.5874 42 27.3949V7.9991C42 4.68516 39.3135 2 36 2H20.2426ZM20 16V5L9 16H20Z" fill="white"/>
<path fill-rule="evenodd" clip-rule="evenodd" d="M34 46.5C39.2467 46.5 43.5 42.2467 43.5 37C43.5 31.7533 39.2467 27.5 34 27.5C28.7533 27.5 24.5 31.7533 24.5 37C24.5 42.2467 28.7533 46.5 34 46.5ZM35.5 32H32.5V37.7719L37.8487 41.5925L39.5925 39.1513L35.5 36.2281V32Z" fill="white"/>
</svg>
