<svg width="48" height="48" viewBox="0 0 48 48" fill="none" xmlns="http://www.w3.org/2000/svg">
<rect width="48" height="48" rx="4" fill="white" fill-opacity="0.1"/>
<path fill-rule="evenodd" clip-rule="evenodd" d="M19.3742 14.0412L15.3742 18.0412L13.96 16.6269L17.9599 12.627L19.3742 14.0412Z" fill="white"/>
<path fill-rule="evenodd" clip-rule="evenodd" d="M25.293 18.0412L21.293 14.0412L22.7072 12.627L26.7072 16.6269L25.293 18.0412Z" fill="white"/>
<path fill-rule="evenodd" clip-rule="evenodd" d="M34.0402 14.0412L30.0402 18.0412L28.626 16.6269L32.626 12.627L34.0402 14.0412Z" fill="white"/>
<path fill-rule="evenodd" clip-rule="evenodd" d="M13 17.666C12.4477 17.666 12 18.1137 12 18.666C12 19.2183 12.4477 19.666 13 19.666C13.5523 19.666 14 19.2183 14 18.666C14 18.1137 13.5523 17.666 13 17.666ZM10 18.666C10 17.0091 11.3431 15.666 13 15.666C14.6569 15.666 16 17.0091 16 18.666C16 20.3229 14.6569 21.666 13 21.666C11.3431 21.666 10 20.3229 10 18.666Z" fill="white"/>
<path fill-rule="evenodd" clip-rule="evenodd" d="M27.667 17.666C27.1147 17.666 26.667 18.1137 26.667 18.666C26.667 19.2183 27.1147 19.666 27.667 19.666C28.2193 19.666 28.667 19.2183 28.667 18.666C28.667 18.1137 28.2193 17.666 27.667 17.666ZM24.667 18.666C24.667 17.0091 26.0101 15.666 27.667 15.666C29.3239 15.666 30.667 17.0091 30.667 18.666C30.667 20.3229 29.3239 21.666 27.667 21.666C26.0101 21.666 24.667 20.3229 24.667 18.666Z" fill="white"/>
<path fill-rule="evenodd" clip-rule="evenodd" d="M20.333 11C19.7807 11 19.333 11.4477 19.333 12C19.333 12.5523 19.7807 13 20.333 13C20.8853 13 21.333 12.5523 21.333 12C21.333 11.4477 20.8853 11 20.333 11ZM17.333 12C17.333 10.3431 18.6761 9 20.333 9C21.9899 9 23.333 10.3431 23.333 12C23.333 13.6569 21.9899 15 20.333 15C18.6761 15 17.333 13.6569 17.333 12Z" fill="white"/>
<path fill-rule="evenodd" clip-rule="evenodd" d="M35 11C34.4477 11 34 11.4477 34 12C34 12.5523 34.4477 13 35 13C35.5523 13 36 12.5523 36 12C36 11.4477 35.5523 11 35 11ZM32 12C32 10.3431 33.3431 9 35 9C36.6569 9 38 10.3431 38 12C38 13.6569 36.6569 15 35 15C33.3431 15 32 13.6569 32 12Z" fill="white"/>
<path d="M10.667 30.666H15.3337V37.3327H10.667V30.666Z" fill="white"/>
<path d="M25.333 30.666H29.9997V37.3327H25.333V30.666Z" fill="white"/>
<path d="M18 21.334H22.6667V37.334H18V21.334Z" fill="white"/>
<path d="M32.667 21.334H37.3337V37.334H32.667V21.334Z" fill="white"/>
</svg>
