<svg width="24" height="24" viewBox="0 0 24 24" fill="none" xmlns="http://www.w3.org/2000/svg">
<path d="M6 12L18 6" stroke="white" stroke-width="2" stroke-linecap="round" stroke-linejoin="round"/>
<path d="M18 18L6 12" stroke="white" stroke-width="2" stroke-linecap="round" stroke-linejoin="round"/>
<path d="M5.99961 14.3996C7.32509 14.3996 8.39961 13.3251 8.39961 11.9996C8.39961 10.6741 7.32509 9.59961 5.99961 9.59961C4.67413 9.59961 3.59961 10.6741 3.59961 11.9996C3.59961 13.3251 4.67413 14.3996 5.99961 14.3996Z" fill="white" stroke="white" stroke-width="2" stroke-linecap="round" stroke-linejoin="round"/>
<path d="M17.9996 20.3996C19.3251 20.3996 20.3996 19.3251 20.3996 17.9996C20.3996 16.6741 19.3251 15.5996 17.9996 15.5996C16.6741 15.5996 15.5996 16.6741 15.5996 17.9996C15.5996 19.3251 16.6741 20.3996 17.9996 20.3996Z" fill="white" stroke="white" stroke-width="2" stroke-linecap="round" stroke-linejoin="round"/>
<path d="M17.9996 8.39961C19.3251 8.39961 20.3996 7.32509 20.3996 5.99961C20.3996 4.67413 19.3251 3.59961 17.9996 3.59961C16.6741 3.59961 15.5996 4.67413 15.5996 5.99961C15.5996 7.32509 16.6741 8.39961 17.9996 8.39961Z" fill="white" stroke="white" stroke-width="2" stroke-linecap="round" stroke-linejoin="round"/>
</svg>
