<svg width="48" height="48" viewBox="0 0 48 48" fill="none" xmlns="http://www.w3.org/2000/svg">
<path fill-rule="evenodd" clip-rule="evenodd" d="M33.2451 18.9349C34.0817 17.7692 35.4445 17 37 17C38.5555 17 39.9183 17.7692 40.7549 18.9349C42.1708 18.7022 43.6783 19.1219 44.7782 20.2218C45.8781 21.3217 46.2977 22.8292 46.0651 24.2451C47.2308 25.0817 48 26.4445 48 28C48 29.5554 47.2308 30.9182 46.0651 31.7549C46.2978 33.1707 45.8781 34.6783 44.7782 35.7781C43.6783 36.8781 42.1707 37.2978 40.7548 37.0651C39.9182 38.2308 38.5555 39 37 39C35.4445 39 34.0818 38.2308 33.2452 37.0651C31.8293 37.2978 30.3217 36.8781 29.2218 35.7781C28.1219 34.6783 27.7023 33.1707 27.9349 31.7549C26.7692 30.9183 26 29.5554 26 28C26 26.4445 26.7692 25.0817 27.9349 24.2451C27.7023 22.8292 28.1219 21.3217 29.2218 20.2218C30.3217 19.1219 31.8292 18.7023 33.2451 18.9349ZM41 28C41 30.2091 39.2091 32 37 32C34.7909 32 33 30.2091 33 28C33 25.7909 34.7909 24 37 24C39.2091 24 41 25.7909 41 28Z" fill="white"/>
<path d="M30.895 39.9609L29.7891 46.3342L37.0003 44.5314L44.2115 46.3342L43.1055 39.9609C42.7455 40.0372 42.3814 40.0872 42.0166 40.1111C40.6853 41.2787 38.9349 42.0006 37.0003 42.0006C35.0657 42.0006 33.3153 41.2787 31.984 40.1111C31.6192 40.0872 31.2551 40.0372 30.895 39.9609Z" fill="white"/>
<path fill-rule="evenodd" clip-rule="evenodd" d="M12 2C8.68629 2 6 4.68629 6 8V38C6 41.3137 8.68629 44 12 44H27.1464C27.4849 42.017 27.7762 40.2534 28.0258 38.6884C27.7017 38.454 27.392 38.191 27.1005 37.8995C25.7325 36.5314 25.0053 34.7833 24.8896 33.0163C23.7219 31.685 23 29.9346 23 28C23 26.0654 23.7219 24.315 24.8896 22.9836C25.0053 21.2167 25.7325 19.4685 27.1005 18.1005C28.4685 16.7325 30.2167 16.0053 31.9836 15.8896C33.315 14.7219 35.0654 14 37 14C38.9267 14 40.6707 14.716 42 15.8753V8C42 4.68629 39.3137 2 36 2H12ZM12 10V13H22V10H12ZM25 13H30V10H25V13ZM18 16V19H12V16H18Z" fill="white"/>
</svg>
