<svg width="24" height="24" viewBox="0 0 24 24" fill="none" xmlns="http://www.w3.org/2000/svg">
<path fill-rule="evenodd" clip-rule="evenodd" d="M19 23V14H21V23H19Z" fill="white"/>
<path fill-rule="evenodd" clip-rule="evenodd" d="M15 23V14H17V23H15Z" fill="white"/>
<path fill-rule="evenodd" clip-rule="evenodd" d="M11 14H13V23H11V14Z" fill="white"/>
<path d="M16 11.3164L10 13.8348V16.9996H22V13.8348L16 11.3164Z" fill="white"/>
<path fill-rule="evenodd" clip-rule="evenodd" d="M10 21H22V23H10V21Z" fill="white"/>
<path fill-rule="evenodd" clip-rule="evenodd" d="M8 23V13.8352C8 13.0297 8.48322 12.3028 9.22594 11.9911L15.2259 9.47264C15.7211 9.26482 16.2789 9.26482 16.7741 9.47264L21 11.2464V4C21 2.34315 19.6569 1 18 1H6C4.34315 1 3 2.34315 3 4V20C3 21.6569 4.34315 23 6 23H8ZM12.5 5H7V7H12.5V5ZM17 5V7H14.5V5H17Z" fill="white"/>
</svg>
