<svg width="48" height="48" viewBox="0 0 48 48" fill="none" xmlns="http://www.w3.org/2000/svg">
<rect width="48" height="48" rx="4" fill="white" fill-opacity="0.1"/>
<path fill-rule="evenodd" clip-rule="evenodd" d="M11.334 23.668V28.6376C11.334 28.8412 11.5611 29.3522 12.7004 29.87C13.7494 30.3469 15.2689 30.668 17.0007 30.668C18.7325 30.668 20.2519 30.3469 21.3009 29.87C22.4402 29.3522 22.6673 28.8412 22.6673 28.6376V23.668H24.6673V28.6376C24.6673 30.1078 23.4021 31.1119 22.1285 31.6908C20.7646 32.3107 18.9507 32.668 17.0007 32.668C15.0506 32.668 13.2367 32.3107 11.8728 31.6908C10.5992 31.1119 9.33398 30.1078 9.33398 28.6376V23.668H11.334Z" fill="white"/>
<path fill-rule="evenodd" clip-rule="evenodd" d="M25.334 29V33.303C25.334 33.5065 25.5611 34.0175 26.7004 34.5354C27.7495 35.0123 29.2689 35.3333 31.0007 35.3333C32.7325 35.3333 34.2519 35.0123 35.3009 34.5354C36.4402 34.0175 36.6673 33.5065 36.6673 33.303V29H38.6673V33.303C38.6673 34.7731 37.4021 35.7773 36.1285 36.3561C34.7646 36.9761 32.9507 37.3333 31.0007 37.3333C29.0506 37.3333 27.2367 36.9761 25.8728 36.3561C24.5993 35.7773 23.334 34.7731 23.334 33.303V29H25.334Z" fill="white"/>
<path fill-rule="evenodd" clip-rule="evenodd" d="M11.334 29V33.303C11.334 33.5065 11.5611 34.0175 12.7004 34.5354C13.7494 35.0123 15.2689 35.3333 17.0007 35.3333C18.7325 35.3333 20.2519 35.0123 21.3009 34.5354C22.4402 34.0175 22.6673 33.5065 22.6673 33.303V29H24.6673V33.303C24.6673 34.7731 23.4021 35.7773 22.1285 36.3561C20.7646 36.9761 18.9507 37.3333 17.0007 37.3333C15.0506 37.3333 13.2367 36.9761 11.8728 36.3561C10.5992 35.7773 9.33398 34.7731 9.33398 33.303V29H11.334Z" fill="white"/>
<path fill-rule="evenodd" clip-rule="evenodd" d="M25.7643 25.709C27.1389 25.0545 28.991 24.668 31.0007 24.668C33.0103 24.668 34.8624 25.0545 36.2371 25.709C37.5619 26.3399 38.6673 27.3418 38.6673 28.668C38.6673 29.9942 37.5619 30.996 36.2371 31.6269C34.8624 32.2814 33.0103 32.668 31.0007 32.668C28.991 32.668 27.1389 32.2814 25.7643 31.6269C24.4394 30.996 23.334 29.9942 23.334 28.668C23.334 27.3418 24.4394 26.3399 25.7643 25.709ZM28.6673 27.668V29.668H33.334V27.668H28.6673Z" fill="white"/>
<path fill-rule="evenodd" clip-rule="evenodd" d="M11.7643 21.0411C13.1389 20.3865 14.991 20 17.0007 20C19.0103 20 20.8625 20.3865 22.2371 21.0411C23.5619 21.6719 24.6673 22.6738 24.6673 24C24.6673 25.3262 23.5619 26.3281 22.2371 26.9589C20.8625 27.6135 19.0103 28 17.0007 28C14.991 28 13.1389 27.6135 11.7643 26.9589C10.4394 26.3281 9.33398 25.3262 9.33398 24C9.33398 22.6738 10.4394 21.6719 11.7643 21.0411ZM14.6673 23V25H19.334V23H14.6673Z" fill="white"/>
<path fill-rule="evenodd" clip-rule="evenodd" d="M31.0007 13.668H21.334V15.668H31.0007V13.668Z" fill="white"/>
<path fill-rule="evenodd" clip-rule="evenodd" d="M24.6667 13.668H24H22V18.0013H26.6667V13.668H24.6667Z" fill="white"/>
<path fill-rule="evenodd" clip-rule="evenodd" d="M34.0007 10C36.578 10 38.6673 12.0893 38.6673 14.6667C38.6673 17.244 36.578 19.3333 34.0007 19.3333C31.4233 19.3333 29.334 17.244 29.334 14.6667C29.334 12.0893 31.4233 10 34.0007 10ZM33.0007 14.6667C33.0007 15.5871 33.7469 16.3333 34.6673 16.3333C35.5878 16.3333 36.334 15.5871 36.334 14.6667C36.334 13.7462 35.5878 13 34.6673 13C33.7469 13 33.0007 13.7462 33.0007 14.6667Z" fill="white"/>
</svg>
