<svg width="20" height="21" viewBox="0 0 20 21" fill="none" xmlns="http://www.w3.org/2000/svg">
<path d="M18.3327 18.3333H17.9993V12C17.9993 11.448 17.5513 11 16.9993 11C16.4473 11 15.9993 11.448 15.9993 12V18.3333H13.3327V12C13.3327 11.448 12.8847 11 12.3327 11C11.7807 11 11.3327 11.448 11.3327 12V18.3333H8.66602V12C8.66602 11.448 8.21802 11 7.66602 11C7.11402 11 6.66602 11.448 6.66602 12V18.3333H3.99935V12C3.99935 11.448 3.55135 11 2.99935 11C2.44735 11 1.99935 11.448 1.99935 12V18.3333H1.66602C1.11402 18.3333 0.666016 18.7813 0.666016 19.3333C0.666016 19.8853 1.11402 20.3333 1.66602 20.3333H18.3327C18.8847 20.3333 19.3327 19.8853 19.3327 19.3333C19.3327 18.7813 18.8847 18.3333 18.3327 18.3333Z" fill="white"/>
<path d="M18.1393 4.74577L11.1393 0.825774C10.4367 0.431107 9.56335 0.43244 8.85935 0.825774L1.85802 4.74711C1.12202 5.16044 0.666016 5.94044 0.666016 6.78177V7.33377C0.666016 8.62044 1.71268 9.66711 2.99935 9.66711H16.9993C18.286 9.66711 19.3327 8.62044 19.3327 7.33377V6.78177C19.3327 5.93911 18.8767 5.15911 18.1393 4.74577ZM9.99935 6.66711C9.26335 6.66711 8.66602 6.06977 8.66602 5.33377C8.66602 4.59777 9.26335 4.00044 9.99935 4.00044C10.7353 4.00044 11.3327 4.59777 11.3327 5.33377C11.3327 6.06977 10.7353 6.66711 9.99935 6.66711Z" fill="white"/>
</svg>
