<svg width="48" height="48" viewBox="0 0 48 48" fill="none" xmlns="http://www.w3.org/2000/svg">
<path d="M24.0003 19.3353H38.0003C39.4723 19.3353 40.667 18.1406 40.667 16.6686V15.5646C40.667 14.5993 40.1443 13.7086 39.3043 13.2366L25.3043 5.39664C24.4936 4.94331 23.507 4.94331 22.699 5.39664L8.69628 13.2393C7.85362 13.7113 7.33362 14.602 7.33362 15.5673V16.6713C7.33362 18.1433 8.52828 19.338 10.0003 19.338L24.0003 19.3353Z" fill="white"/>
<path d="M7.33362 40.6675H40.6669" stroke="white" stroke-linecap="round" stroke-linejoin="round"/>
<path d="M24.0003 19.3353H38.0003C39.4723 19.3353 40.6669 18.1406 40.6669 16.6686V15.5646C40.6669 14.5993 40.1443 13.7086 39.3043 13.2366L25.3043 5.39664C24.4936 4.94331 23.507 4.94331 22.699 5.39664L8.69628 13.2393C7.85362 13.7113 7.33362 14.602 7.33362 15.5673V16.6713C7.33362 18.1433 8.52828 19.338 10.0003 19.338L24.0003 19.3353Z" stroke="white" stroke-linecap="round" stroke-linejoin="round"/>
<path d="M19.3336 40.6696V26.0029" stroke="white" stroke-linecap="round" stroke-linejoin="round"/>
<path d="M10.0008 40.6696V26.0029" stroke="white" stroke-linecap="round" stroke-linejoin="round"/>
<path d="M28.6664 40.6696V26.0029" stroke="white" stroke-linecap="round" stroke-linejoin="round"/>
<path d="M38.0004 40.6696V26.0029" stroke="white" stroke-linecap="round" stroke-linejoin="round"/>
<path d="M24.0003 15.3353C25.473 15.3353 26.667 14.1414 26.667 12.6686C26.667 11.1959 25.473 10.002 24.0003 10.002C22.5275 10.002 21.3336 11.1959 21.3336 12.6686C21.3336 14.1414 22.5275 15.3353 24.0003 15.3353Z" fill="#121317"/>
</svg>
