<svg width="38" height="46" viewBox="0 0 38 46" fill="none" xmlns="http://www.w3.org/2000/svg">
<path d="M19 45.6667C17.896 45.6667 17 44.7707 17 43.6667V29C17 27.896 17.896 27 19 27C20.104 27 21 27.896 21 29V43.6667C21 44.7707 20.104 45.6667 19 45.6667Z" fill="white"/>
<path d="M3.66601 45.6664C3.37001 45.6664 3.07134 45.5997 2.79401 45.4664C2.17001 45.165 1.74601 44.5624 1.67668 43.8717L0.695342 34.4637C0.402009 31.6504 1.77801 28.8877 4.19934 27.4237L7.48734 25.437C8.42868 24.8664 9.66068 25.1677 10.234 26.1144C10.8047 27.0584 10.5033 28.2877 9.55668 28.861L6.26868 30.8477C5.16734 31.5144 4.54068 32.7677 4.67401 34.0477L5.31934 40.2477L10.9967 36.6424C11.9273 36.053 13.162 36.325 13.7567 37.2584C14.3487 38.1917 14.0713 39.4264 13.1407 40.0184L4.73801 45.3517C4.41268 45.5597 4.03934 45.6664 3.66601 45.6664Z" fill="white"/>
<path d="M34.3325 45.6671C33.9592 45.6671 33.5858 45.5631 33.2605 45.3551L24.8578 40.0218C23.9245 39.4298 23.6498 38.1924 24.2418 37.2618C24.8338 36.3284 26.0712 36.0538 27.0018 36.6458L32.6792 40.2511L33.3245 34.0538C33.4578 32.7738 32.8312 31.5178 31.7298 30.8538L28.4418 28.8671C27.4952 28.2964 27.1938 27.0671 27.7645 26.1204C28.3351 25.1738 29.5672 24.8698 30.5112 25.4431L33.7992 27.4298C36.2232 28.8911 37.5965 31.6564 37.3032 34.4698L36.3218 43.8778C36.2498 44.5658 35.8258 45.1684 35.2045 45.4724C34.9271 45.6058 34.6312 45.6724 34.3325 45.6724V45.6671Z" fill="white"/>
<path d="M30.1334 14.6187C27.808 7.81598 23.472 3.33065 20.2453 0.767984C19.52 0.189318 18.4854 0.189318 17.7574 0.767984C14.528 3.33065 10.192 7.81598 7.86935 14.6187C3.90668 26.2293 8.74402 36.448 10.3227 39.3013C10.6747 39.9386 11.344 40.3333 12.072 40.3333H25.9307C26.6587 40.3333 27.328 39.9386 27.68 39.3013C29.2587 36.448 34.096 26.232 30.1334 14.6187ZM19 23C17.16 23 15.6667 21.5067 15.6667 19.6667C15.6667 17.8267 17.16 16.3333 19 16.3333C20.84 16.3333 22.3334 17.8267 22.3334 19.6667C22.3334 21.5067 20.84 23 19 23Z" fill="white"/>
</svg>
