<svg width="610" height="434" viewBox="0 0 610 434" fill="none" xmlns="http://www.w3.org/2000/svg">
<g filter="url(#filter0_ddd_3550_110856)">
<rect x="7" y="5" width="288" height="132" rx="8" fill="url(#paint0_linear_3550_110856)" fill-opacity="0.1" shape-rendering="crispEdges"/>
<rect x="7.5" y="5.5" width="287" height="131" rx="7.5" stroke="url(#paint1_linear_3550_110856)" stroke-opacity="0.1" shape-rendering="crispEdges"/>
<circle cx="151" cy="55" r="21.5" stroke="#B1B1B1" stroke-opacity="0.2"/>
<path d="M140.599 46.1991C140.435 46.1991 140.275 46.2119 140.116 46.2359C140.423 45.513 140.936 44.8964 141.591 44.4631C142.246 44.0298 143.014 43.7988 143.799 43.7991H158.199C159.26 43.7991 160.278 44.2205 161.028 44.9706C161.778 45.7208 162.199 46.7382 162.199 47.7991V54.3591C161.688 54.0974 161.152 53.8868 160.599 53.7303V47.7991C160.599 47.1626 160.347 46.5521 159.896 46.102C159.446 45.6519 158.836 45.3991 158.199 45.3991H143.799C142.979 45.3991 142.254 45.8119 141.82 46.4391C141.433 46.2797 141.018 46.1982 140.599 46.1991Z" fill="white"/>
<path d="M149.732 64.5991C149.89 65.1575 150.1 65.6919 150.361 66.1991H143.801C142.74 66.1991 141.722 65.7777 140.972 65.0275C140.222 64.2774 139.801 63.26 139.801 62.1991V52.4983C140.326 52.6335 140.876 52.6335 141.401 52.4983V62.1991C141.401 62.8356 141.654 63.4461 142.104 63.8961C142.554 64.3462 143.164 64.5991 143.801 64.5991H149.732Z" fill="white"/>
<path d="M150.359 58.1994C150.652 57.6266 151.006 57.0906 151.41 56.5994H146.999C146.787 56.5994 146.584 56.6837 146.434 56.8337C146.284 56.9837 146.199 57.1872 146.199 57.3994C146.199 57.6115 146.284 57.815 146.434 57.9651C146.584 58.1151 146.787 58.1994 146.999 58.1994H150.359Z" fill="white"/>
<path d="M140.6 47.7987C140.176 47.7987 139.769 47.9673 139.469 48.2673C139.169 48.5674 139 48.9744 139 49.3987C139 49.8231 139.169 50.23 139.469 50.5301C139.769 50.8301 140.176 50.9987 140.6 50.9987C141.024 50.9987 141.431 50.8301 141.731 50.5301C142.031 50.23 142.2 49.8231 142.2 49.3987C142.2 48.9744 142.031 48.5674 141.731 48.2673C141.431 47.9673 141.024 47.7987 140.6 47.7987Z" fill="white"/>
<path d="M146.999 51.7982C146.787 51.7982 146.584 51.8825 146.434 52.0325C146.284 52.1826 146.199 52.386 146.199 52.5982C146.199 52.8104 146.284 53.0139 146.434 53.1639C146.584 53.3139 146.787 53.3982 146.999 53.3982H154.999C155.211 53.3982 155.415 53.3139 155.565 53.1639C155.715 53.0139 155.799 52.8104 155.799 52.5982C155.799 52.386 155.715 52.1826 155.565 52.0325C155.415 51.8825 155.211 51.7982 154.999 51.7982H146.999Z" fill="white"/>
<path d="M158.2 55.35C161.983 55.3501 165.05 58.4175 165.05 62.2006C165.05 65.9836 161.983 69.0501 158.2 69.0502C154.417 69.0502 151.35 65.9836 151.35 62.2006C151.35 58.4174 154.417 55.35 158.2 55.35Z" stroke="white" stroke-width="0.7"/>
<line x1="155.638" y1="62.36" x2="161.158" y2="62.36" stroke="white" stroke-width="0.480002" stroke-linecap="round"/>
<line x1="0.240001" y1="-0.240001" x2="5.76002" y2="-0.240001" transform="matrix(0.0025807 0.999997 -0.999997 0.0026004 157.924 59)" stroke="white" stroke-width="0.480002" stroke-linecap="round"/>
<path d="M77.568 105V93.8H82.336C82.976 93.8 83.5627 93.96 84.096 94.28C84.64 94.5893 85.072 95.016 85.392 95.56C85.712 96.0933 85.872 96.696 85.872 97.368C85.872 97.976 85.712 98.5413 85.392 99.064C85.072 99.5867 84.6453 100.008 84.112 100.328C83.5787 100.637 82.9867 100.792 82.336 100.792H79.296V105H77.568ZM84.224 105L81.376 99.944L83.152 99.544L86.32 105.016L84.224 105ZM79.296 99.128H82.496C82.8053 99.128 83.0827 99.0533 83.328 98.904C83.5733 98.744 83.7653 98.5307 83.904 98.264C84.0427 97.9867 84.112 97.6827 84.112 97.352C84.112 96.9787 84.0213 96.6533 83.84 96.376C83.6693 96.088 83.424 95.864 83.104 95.704C82.7947 95.544 82.4427 95.464 82.048 95.464H79.296V99.128ZM91.8845 105.16C91.0205 105.16 90.2525 104.979 89.5805 104.616C88.9192 104.243 88.3965 103.736 88.0125 103.096C87.6392 102.456 87.4525 101.72 87.4525 100.888C87.4525 100.227 87.5592 99.624 87.7725 99.08C87.9858 98.536 88.2792 98.0667 88.6525 97.672C89.0365 97.2667 89.4898 96.9573 90.0125 96.744C90.5458 96.52 91.1218 96.408 91.7405 96.408C92.2845 96.408 92.7912 96.5147 93.2605 96.728C93.7298 96.9307 94.1352 97.2133 94.4765 97.576C94.8285 97.9387 95.0952 98.3707 95.2765 98.872C95.4685 99.3627 95.5592 99.9013 95.5485 100.488L95.5325 101.192H88.6685L88.3005 99.88H94.1085L93.8685 100.152V99.768C93.8365 99.416 93.7192 99.1013 93.5165 98.824C93.3138 98.5467 93.0578 98.328 92.7485 98.168C92.4392 98.008 92.1032 97.928 91.7405 97.928C91.1645 97.928 90.6792 98.04 90.2845 98.264C89.8898 98.4773 89.5912 98.7973 89.3885 99.224C89.1858 99.64 89.0845 100.157 89.0845 100.776C89.0845 101.363 89.2072 101.875 89.4525 102.312C89.6978 102.739 90.0445 103.069 90.4925 103.304C90.9405 103.539 91.4578 103.656 92.0445 103.656C92.4605 103.656 92.8445 103.587 93.1965 103.448C93.5592 103.309 93.9485 103.059 94.3645 102.696L95.1965 103.864C94.9405 104.12 94.6258 104.344 94.2525 104.536C93.8898 104.728 93.5005 104.883 93.0845 105C92.6792 105.107 92.2792 105.16 91.8845 105.16ZM100.908 105.16C100.129 105.16 99.4302 104.968 98.8115 104.584C98.2035 104.2 97.7182 103.677 97.3555 103.016C97.0035 102.355 96.8275 101.613 96.8275 100.792C96.8275 99.9707 97.0035 99.2293 97.3555 98.568C97.7182 97.9067 98.2035 97.384 98.8115 97C99.4302 96.616 100.129 96.424 100.908 96.424C101.654 96.424 102.332 96.5787 102.94 96.888C103.558 97.1867 104.028 97.5973 104.348 98.12L103.436 99.24C103.265 98.9947 103.046 98.7707 102.78 98.568C102.513 98.3653 102.23 98.2053 101.932 98.088C101.633 97.9707 101.345 97.912 101.068 97.912C100.556 97.912 100.097 98.04 99.6915 98.296C99.2968 98.5413 98.9822 98.8827 98.7475 99.32C98.5128 99.7573 98.3955 100.248 98.3955 100.792C98.3955 101.336 98.5182 101.827 98.7635 102.264C99.0088 102.691 99.3342 103.032 99.7395 103.288C100.145 103.544 100.593 103.672 101.084 103.672C101.372 103.672 101.649 103.624 101.916 103.528C102.193 103.432 102.46 103.288 102.716 103.096C102.972 102.904 103.212 102.669 103.436 102.392L104.348 103.512C104.006 103.992 103.516 104.387 102.876 104.696C102.246 105.005 101.59 105.16 100.908 105.16ZM109.678 105.16C108.857 105.16 108.121 104.973 107.47 104.6C106.83 104.216 106.323 103.699 105.95 103.048C105.577 102.387 105.39 101.635 105.39 100.792C105.39 99.9493 105.577 99.2027 105.95 98.552C106.323 97.8907 106.83 97.3733 107.47 97C108.121 96.616 108.857 96.424 109.678 96.424C110.489 96.424 111.214 96.616 111.854 97C112.505 97.3733 113.017 97.8907 113.39 98.552C113.763 99.2027 113.95 99.9493 113.95 100.792C113.95 101.635 113.763 102.387 113.39 103.048C113.017 103.699 112.505 104.216 111.854 104.6C111.214 104.973 110.489 105.16 109.678 105.16ZM109.678 103.656C110.179 103.656 110.627 103.533 111.022 103.288C111.417 103.032 111.726 102.691 111.95 102.264C112.174 101.827 112.281 101.336 112.27 100.792C112.281 100.237 112.174 99.7467 111.95 99.32C111.726 98.8827 111.417 98.5413 111.022 98.296C110.627 98.0507 110.179 97.928 109.678 97.928C109.177 97.928 108.723 98.056 108.318 98.312C107.923 98.5573 107.614 98.8987 107.39 99.336C107.166 99.7627 107.059 100.248 107.07 100.792C107.059 101.336 107.166 101.827 107.39 102.264C107.614 102.691 107.923 103.032 108.318 103.288C108.723 103.533 109.177 103.656 109.678 103.656ZM115.746 105V96.6H117.41V99.24L117.25 98.6C117.367 98.1947 117.564 97.8267 117.842 97.496C118.13 97.1653 118.455 96.904 118.818 96.712C119.191 96.52 119.575 96.424 119.97 96.424C120.151 96.424 120.322 96.44 120.482 96.472C120.652 96.504 120.786 96.5413 120.882 96.584L120.45 98.376C120.322 98.3227 120.178 98.28 120.018 98.248C119.868 98.2053 119.719 98.184 119.57 98.184C119.282 98.184 119.004 98.2427 118.738 98.36C118.482 98.4667 118.252 98.6213 118.05 98.824C117.858 99.016 117.703 99.2453 117.586 99.512C117.468 99.768 117.41 100.051 117.41 100.36V105H115.746ZM125.344 105.16C124.576 105.16 123.888 104.973 123.28 104.6C122.682 104.216 122.208 103.699 121.856 103.048C121.504 102.387 121.328 101.635 121.328 100.792C121.328 99.9493 121.498 99.2027 121.84 98.552C122.192 97.8907 122.666 97.3733 123.264 97C123.861 96.616 124.538 96.424 125.296 96.424C125.712 96.424 126.112 96.4933 126.496 96.632C126.89 96.76 127.242 96.9413 127.552 97.176C127.861 97.4 128.101 97.6507 128.272 97.928C128.453 98.1947 128.544 98.4667 128.544 98.744L128.064 98.776V93.16H129.712V105H128.064V103H128.384C128.384 103.256 128.298 103.512 128.128 103.768C127.957 104.013 127.728 104.243 127.44 104.456C127.162 104.669 126.837 104.84 126.464 104.968C126.101 105.096 125.728 105.16 125.344 105.16ZM125.568 103.736C126.069 103.736 126.512 103.608 126.896 103.352C127.28 103.096 127.578 102.749 127.792 102.312C128.016 101.864 128.128 101.357 128.128 100.792C128.128 100.227 128.016 99.7253 127.792 99.288C127.578 98.84 127.28 98.488 126.896 98.232C126.512 97.976 126.069 97.848 125.568 97.848C125.066 97.848 124.624 97.976 124.24 98.232C123.856 98.488 123.552 98.84 123.328 99.288C123.114 99.7253 123.008 100.227 123.008 100.792C123.008 101.357 123.114 101.864 123.328 102.312C123.552 102.749 123.856 103.096 124.24 103.352C124.624 103.608 125.066 103.736 125.568 103.736ZM135.713 105L140.049 93.8H141.809L146.113 105H144.273L141.713 98.248C141.681 98.1733 141.617 97.992 141.521 97.704C141.435 97.416 141.334 97.096 141.217 96.744C141.099 96.392 140.993 96.072 140.897 95.784C140.801 95.4853 140.737 95.2933 140.705 95.208L141.073 95.192C141.009 95.3733 140.929 95.6027 140.833 95.88C140.747 96.1573 140.651 96.4507 140.545 96.76C140.449 97.0693 140.353 97.3627 140.257 97.64C140.161 97.9067 140.081 98.1307 140.016 98.312L137.473 105H135.713ZM137.633 102.216L138.273 100.552H143.361L144.097 102.216H137.633ZM147.668 105V96.6H149.316V98.328L149.028 98.52C149.134 98.1467 149.342 97.8053 149.652 97.496C149.961 97.176 150.329 96.92 150.756 96.728C151.182 96.5253 151.62 96.424 152.068 96.424C152.708 96.424 153.241 96.552 153.668 96.808C154.094 97.0533 154.414 97.432 154.628 97.944C154.841 98.456 154.948 99.1013 154.948 99.88V105H153.3V99.992C153.3 99.512 153.236 99.1173 153.108 98.808C152.98 98.488 152.782 98.2587 152.516 98.12C152.249 97.9707 151.918 97.9067 151.524 97.928C151.204 97.928 150.91 97.9813 150.644 98.088C150.377 98.184 150.142 98.3227 149.94 98.504C149.748 98.6853 149.593 98.8987 149.476 99.144C149.369 99.3787 149.316 99.6347 149.316 99.912V105H148.5C148.361 105 148.222 105 148.084 105C147.945 105 147.806 105 147.668 105ZM162.084 105V93.8H169.14V95.464H163.812V103.336H169.14V105H162.084ZM162.868 100.088V98.424H168.26V100.088H162.868ZM177.08 105L174.36 101.464L174.12 101.16L170.584 96.6H172.664L175.336 100.088L175.608 100.44L179.096 105H177.08ZM170.6 105L173.912 100.68L174.888 101.848L172.552 105H170.6ZM175.704 100.936L174.792 99.784L176.856 96.6H178.808L175.704 100.936ZM180.48 108.52V96.6H182.144V98.52L181.888 98.376C181.952 98.056 182.133 97.752 182.432 97.464C182.731 97.1653 183.093 96.9253 183.52 96.744C183.957 96.552 184.405 96.456 184.864 96.456C185.621 96.456 186.293 96.6427 186.88 97.016C187.467 97.3893 187.931 97.9013 188.272 98.552C188.613 99.2027 188.784 99.9493 188.784 100.792C188.784 101.624 188.613 102.371 188.272 103.032C187.941 103.683 187.483 104.2 186.896 104.584C186.309 104.957 185.648 105.144 184.912 105.144C184.421 105.144 183.947 105.048 183.488 104.856C183.029 104.653 182.64 104.397 182.32 104.088C182 103.779 181.803 103.459 181.728 103.128L182.144 102.904V108.52H180.48ZM184.64 103.624C185.131 103.624 185.568 103.501 185.952 103.256C186.336 103.011 186.64 102.675 186.864 102.248C187.088 101.821 187.2 101.336 187.2 100.792C187.2 100.248 187.088 99.768 186.864 99.352C186.651 98.9253 186.352 98.5893 185.968 98.344C185.584 98.0987 185.141 97.976 184.64 97.976C184.139 97.976 183.696 98.0987 183.312 98.344C182.928 98.5787 182.624 98.9093 182.4 99.336C182.176 99.7627 182.064 100.248 182.064 100.792C182.064 101.336 182.176 101.821 182.4 102.248C182.624 102.675 182.928 103.011 183.312 103.256C183.696 103.501 184.139 103.624 184.64 103.624ZM194.494 105.16C193.63 105.16 192.862 104.979 192.19 104.616C191.529 104.243 191.006 103.736 190.622 103.096C190.249 102.456 190.062 101.72 190.062 100.888C190.062 100.227 190.169 99.624 190.382 99.08C190.595 98.536 190.889 98.0667 191.262 97.672C191.646 97.2667 192.099 96.9573 192.622 96.744C193.155 96.52 193.731 96.408 194.35 96.408C194.894 96.408 195.401 96.5147 195.87 96.728C196.339 96.9307 196.745 97.2133 197.086 97.576C197.438 97.9387 197.705 98.3707 197.886 98.872C198.078 99.3627 198.169 99.9013 198.158 100.488L198.142 101.192H191.278L190.91 99.88H196.718L196.478 100.152V99.768C196.446 99.416 196.329 99.1013 196.126 98.824C195.923 98.5467 195.667 98.328 195.358 98.168C195.049 98.008 194.713 97.928 194.35 97.928C193.774 97.928 193.289 98.04 192.894 98.264C192.499 98.4773 192.201 98.7973 191.998 99.224C191.795 99.64 191.694 100.157 191.694 100.776C191.694 101.363 191.817 101.875 192.062 102.312C192.307 102.739 192.654 103.069 193.102 103.304C193.55 103.539 194.067 103.656 194.654 103.656C195.07 103.656 195.454 103.587 195.806 103.448C196.169 103.309 196.558 103.059 196.974 102.696L197.806 103.864C197.55 104.12 197.235 104.344 196.862 104.536C196.499 104.728 196.11 104.883 195.694 105C195.289 105.107 194.889 105.16 194.494 105.16ZM199.949 105V96.6H201.597V98.328L201.309 98.52C201.416 98.1467 201.624 97.8053 201.933 97.496C202.242 97.176 202.61 96.92 203.037 96.728C203.464 96.5253 203.901 96.424 204.349 96.424C204.989 96.424 205.522 96.552 205.949 96.808C206.376 97.0533 206.696 97.432 206.909 97.944C207.122 98.456 207.229 99.1013 207.229 99.88V105H205.581V99.992C205.581 99.512 205.517 99.1173 205.389 98.808C205.261 98.488 205.064 98.2587 204.797 98.12C204.53 97.9707 204.2 97.9067 203.805 97.928C203.485 97.928 203.192 97.9813 202.925 98.088C202.658 98.184 202.424 98.3227 202.221 98.504C202.029 98.6853 201.874 98.8987 201.757 99.144C201.65 99.3787 201.597 99.6347 201.597 99.912V105H200.781C200.642 105 200.504 105 200.365 105C200.226 105 200.088 105 199.949 105ZM212.265 105.16C211.561 105.16 210.926 105.037 210.361 104.792C209.795 104.547 209.326 104.184 208.953 103.704L210.073 102.744C210.393 103.117 210.739 103.389 211.113 103.56C211.497 103.72 211.929 103.8 212.409 103.8C212.601 103.8 212.777 103.779 212.937 103.736C213.107 103.683 213.251 103.608 213.369 103.512C213.497 103.416 213.593 103.304 213.657 103.176C213.721 103.037 213.753 102.888 213.753 102.728C213.753 102.451 213.651 102.227 213.449 102.056C213.342 101.981 213.171 101.901 212.937 101.816C212.713 101.72 212.419 101.624 212.057 101.528C211.438 101.368 210.931 101.187 210.537 100.984C210.142 100.781 209.838 100.552 209.625 100.296C209.465 100.093 209.347 99.8747 209.273 99.64C209.198 99.3947 209.161 99.128 209.161 98.84C209.161 98.488 209.235 98.168 209.385 97.88C209.545 97.5813 209.758 97.3253 210.025 97.112C210.302 96.888 210.622 96.7173 210.985 96.6C211.358 96.4827 211.753 96.424 212.169 96.424C212.563 96.424 212.953 96.4773 213.337 96.584C213.731 96.6907 214.094 96.8453 214.425 97.048C214.755 97.2507 215.033 97.4907 215.257 97.768L214.313 98.808C214.11 98.6053 213.886 98.4293 213.641 98.28C213.406 98.12 213.166 97.9973 212.921 97.912C212.675 97.8267 212.451 97.784 212.249 97.784C212.025 97.784 211.822 97.8053 211.641 97.848C211.459 97.8907 211.305 97.9547 211.177 98.04C211.059 98.1253 210.969 98.232 210.905 98.36C210.841 98.488 210.809 98.632 210.809 98.792C210.819 98.9307 210.851 99.064 210.905 99.192C210.969 99.3093 211.054 99.4107 211.161 99.496C211.278 99.5813 211.454 99.672 211.689 99.768C211.923 99.864 212.222 99.9547 212.585 100.04C213.118 100.179 213.555 100.333 213.897 100.504C214.249 100.664 214.526 100.851 214.729 101.064C214.942 101.267 215.091 101.501 215.177 101.768C215.262 102.035 215.305 102.333 215.305 102.664C215.305 103.144 215.166 103.576 214.889 103.96C214.622 104.333 214.259 104.627 213.801 104.84C213.342 105.053 212.83 105.16 212.265 105.16ZM221.041 105.16C220.177 105.16 219.409 104.979 218.737 104.616C218.075 104.243 217.553 103.736 217.169 103.096C216.795 102.456 216.609 101.72 216.609 100.888C216.609 100.227 216.715 99.624 216.929 99.08C217.142 98.536 217.435 98.0667 217.809 97.672C218.193 97.2667 218.646 96.9573 219.169 96.744C219.702 96.52 220.278 96.408 220.897 96.408C221.441 96.408 221.947 96.5147 222.417 96.728C222.886 96.9307 223.291 97.2133 223.633 97.576C223.985 97.9387 224.251 98.3707 224.433 98.872C224.625 99.3627 224.715 99.9013 224.705 100.488L224.689 101.192H217.825L217.457 99.88H223.265L223.025 100.152V99.768C222.993 99.416 222.875 99.1013 222.673 98.824C222.47 98.5467 222.214 98.328 221.905 98.168C221.595 98.008 221.259 97.928 220.897 97.928C220.321 97.928 219.835 98.04 219.441 98.264C219.046 98.4773 218.747 98.7973 218.545 99.224C218.342 99.64 218.241 100.157 218.241 100.776C218.241 101.363 218.363 101.875 218.609 102.312C218.854 102.739 219.201 103.069 219.649 103.304C220.097 103.539 220.614 103.656 221.201 103.656C221.617 103.656 222.001 103.587 222.353 103.448C222.715 103.309 223.105 103.059 223.521 102.696L224.353 103.864C224.097 104.12 223.782 104.344 223.409 104.536C223.046 104.728 222.657 104.883 222.241 105C221.835 105.107 221.435 105.16 221.041 105.16Z" fill="white"/>
</g>
<g filter="url(#filter1_ddd_3550_110856)">
<rect x="7" y="149" width="288" height="132" rx="8" fill="url(#paint2_linear_3550_110856)" fill-opacity="0.1" shape-rendering="crispEdges"/>
<rect x="7.5" y="149.5" width="287" height="131" rx="7.5" stroke="url(#paint3_linear_3550_110856)" stroke-opacity="0.1" shape-rendering="crispEdges"/>
<circle cx="151" cy="199" r="23.5" stroke="#B1B1B1" stroke-opacity="0.2"/>
<path d="M139.48 200.333H147.48V204.333H155.48V200.333H163.48" stroke="white" stroke-linejoin="round"/>
<path fill-rule="evenodd" clip-rule="evenodd" d="M139.48 200.333L142.147 188.333H160.814L163.48 200.333V209.667H139.48V200.333Z" stroke="white" stroke-linejoin="round"/>
<path d="M144.813 192.333H158.147" stroke="white" stroke-linecap="round" stroke-linejoin="round"/>
<path d="M144.147 196.333H158.814" stroke="white" stroke-linecap="round" stroke-linejoin="round"/>
<path d="M123.568 251V239.8H128.24C128.955 239.8 129.557 239.907 130.048 240.12C130.539 240.333 130.907 240.653 131.152 241.08C131.408 241.496 131.536 242.008 131.536 242.616C131.536 243.224 131.365 243.741 131.024 244.168C130.693 244.595 130.229 244.888 129.632 245.048V244.728C130.133 244.835 130.571 245.027 130.944 245.304C131.317 245.571 131.605 245.907 131.808 246.312C132.021 246.717 132.128 247.181 132.128 247.704C132.128 248.237 132.043 248.712 131.872 249.128C131.712 249.533 131.467 249.875 131.136 250.152C130.816 250.429 130.427 250.643 129.968 250.792C129.509 250.931 128.987 251 128.4 251H123.568ZM125.296 249.336H128.304C128.741 249.336 129.109 249.272 129.408 249.144C129.717 249.016 129.952 248.829 130.112 248.584C130.283 248.328 130.368 248.024 130.368 247.672C130.368 247.341 130.277 247.059 130.096 246.824C129.925 246.589 129.68 246.413 129.36 246.296C129.04 246.168 128.661 246.104 128.224 246.104H125.296V249.336ZM125.296 244.44H128.144C128.464 244.44 128.747 244.376 128.992 244.248C129.248 244.12 129.445 243.944 129.584 243.72C129.733 243.496 129.808 243.24 129.808 242.952C129.808 242.472 129.648 242.104 129.328 241.848C129.008 241.592 128.549 241.464 127.952 241.464H125.296V244.44ZM134.315 251V242.6H135.963V251H134.315ZM135.115 240.744C134.763 240.744 134.491 240.653 134.299 240.472C134.107 240.291 134.011 240.035 134.011 239.704C134.011 239.395 134.107 239.144 134.299 238.952C134.501 238.76 134.773 238.664 135.115 238.664C135.467 238.664 135.739 238.755 135.931 238.936C136.123 239.117 136.219 239.373 136.219 239.704C136.219 240.013 136.117 240.264 135.915 240.456C135.723 240.648 135.456 240.744 135.115 240.744ZM138.528 251V239.16H140.176V251H138.528ZM142.543 251V239.16H144.191V251H142.543ZM151.427 251V239.8H156.099C156.814 239.8 157.417 239.907 157.907 240.12C158.398 240.333 158.766 240.653 159.011 241.08C159.267 241.496 159.395 242.008 159.395 242.616C159.395 243.224 159.225 243.741 158.883 244.168C158.553 244.595 158.089 244.888 157.491 245.048V244.728C157.993 244.835 158.43 245.027 158.803 245.304C159.177 245.571 159.465 245.907 159.667 246.312C159.881 246.717 159.987 247.181 159.987 247.704C159.987 248.237 159.902 248.712 159.731 249.128C159.571 249.533 159.326 249.875 158.995 250.152C158.675 250.429 158.286 250.643 157.827 250.792C157.369 250.931 156.846 251 156.259 251H151.427ZM153.155 249.336H156.163C156.601 249.336 156.969 249.272 157.267 249.144C157.577 249.016 157.811 248.829 157.971 248.584C158.142 248.328 158.227 248.024 158.227 247.672C158.227 247.341 158.137 247.059 157.955 246.824C157.785 246.589 157.539 246.413 157.219 246.296C156.899 246.168 156.521 246.104 156.083 246.104H153.155V249.336ZM153.155 244.44H156.003C156.323 244.44 156.606 244.376 156.851 244.248C157.107 244.12 157.305 243.944 157.443 243.72C157.593 243.496 157.667 243.24 157.667 242.952C157.667 242.472 157.507 242.104 157.187 241.848C156.867 241.592 156.409 241.464 155.811 241.464H153.155V244.44ZM165.662 251.16C164.841 251.16 164.105 250.973 163.454 250.6C162.814 250.216 162.308 249.699 161.934 249.048C161.561 248.387 161.374 247.635 161.374 246.792C161.374 245.949 161.561 245.203 161.934 244.552C162.308 243.891 162.814 243.373 163.454 243C164.105 242.616 164.841 242.424 165.662 242.424C166.473 242.424 167.198 242.616 167.838 243C168.489 243.373 169.001 243.891 169.374 244.552C169.748 245.203 169.934 245.949 169.934 246.792C169.934 247.635 169.748 248.387 169.374 249.048C169.001 249.699 168.489 250.216 167.838 250.6C167.198 250.973 166.473 251.16 165.662 251.16ZM165.662 249.656C166.164 249.656 166.612 249.533 167.006 249.288C167.401 249.032 167.71 248.691 167.934 248.264C168.158 247.827 168.265 247.336 168.254 246.792C168.265 246.237 168.158 245.747 167.934 245.32C167.71 244.883 167.401 244.541 167.006 244.296C166.612 244.051 166.164 243.928 165.662 243.928C165.161 243.928 164.708 244.056 164.302 244.312C163.908 244.557 163.598 244.899 163.374 245.336C163.15 245.763 163.044 246.248 163.054 246.792C163.044 247.336 163.15 247.827 163.374 248.264C163.598 248.691 163.908 249.032 164.302 249.288C164.708 249.533 165.161 249.656 165.662 249.656ZM177.002 251L174.282 247.464L174.042 247.16L170.506 242.6H172.586L175.258 246.088L175.53 246.44L179.018 251H177.002ZM170.522 251L173.834 246.68L174.81 247.848L172.474 251H170.522ZM175.626 246.936L174.714 245.784L176.778 242.6H178.73L175.626 246.936Z" fill="white"/>
</g>
<g filter="url(#filter2_ddd_3550_110856)">
<rect x="7" y="293" width="288" height="132" rx="8" fill="url(#paint4_linear_3550_110856)" fill-opacity="0.1" shape-rendering="crispEdges"/>
<rect x="7.5" y="293.5" width="287" height="131" rx="7.5" stroke="url(#paint5_linear_3550_110856)" stroke-opacity="0.1" shape-rendering="crispEdges"/>
<path d="M151 366.5C138.021 366.5 127.5 355.979 127.5 343C127.5 330.021 138.021 319.5 151 319.5C163.979 319.5 174.5 330.021 174.5 343C174.5 355.979 163.979 366.5 151 366.5Z" stroke="#B1B1B1" stroke-opacity="0.2"/>
<path d="M147.518 342.875H154.482M147.518 347.375H154.482M147.518 338.375H154.482M142.875 333.875C142.875 333.577 142.997 333.29 143.215 333.08C143.433 332.869 143.728 332.75 144.036 332.75H157.964C158.272 332.75 158.567 332.869 158.785 333.08C159.003 333.29 159.125 333.577 159.125 333.875V355.25L155.062 352.438L151 355.25L146.938 352.438L142.875 355.25V333.875Z" stroke="white" stroke-linecap="round" stroke-linejoin="round"/>
<path d="M91.9 395L96.236 383.8H97.996L102.3 395H100.46L97.9 388.248C97.868 388.173 97.804 387.992 97.708 387.704C97.6227 387.416 97.5213 387.096 97.404 386.744C97.2867 386.392 97.18 386.072 97.084 385.784C96.988 385.485 96.924 385.293 96.892 385.208L97.26 385.192C97.196 385.373 97.116 385.603 97.02 385.88C96.9347 386.157 96.8387 386.451 96.732 386.76C96.636 387.069 96.54 387.363 96.444 387.64C96.348 387.907 96.268 388.131 96.204 388.312L93.66 395H91.9ZM93.82 392.216L94.46 390.552H99.548L100.284 392.216H93.82ZM107.111 395.16C106.332 395.16 105.633 394.968 105.015 394.584C104.407 394.2 103.921 393.677 103.559 393.016C103.207 392.355 103.031 391.613 103.031 390.792C103.031 389.971 103.207 389.229 103.559 388.568C103.921 387.907 104.407 387.384 105.015 387C105.633 386.616 106.332 386.424 107.111 386.424C107.857 386.424 108.535 386.579 109.143 386.888C109.761 387.187 110.231 387.597 110.551 388.12L109.639 389.24C109.468 388.995 109.249 388.771 108.983 388.568C108.716 388.365 108.433 388.205 108.135 388.088C107.836 387.971 107.548 387.912 107.271 387.912C106.759 387.912 106.3 388.04 105.895 388.296C105.5 388.541 105.185 388.883 104.951 389.32C104.716 389.757 104.599 390.248 104.599 390.792C104.599 391.336 104.721 391.827 104.967 392.264C105.212 392.691 105.537 393.032 105.943 393.288C106.348 393.544 106.796 393.672 107.287 393.672C107.575 393.672 107.852 393.624 108.119 393.528C108.396 393.432 108.663 393.288 108.919 393.096C109.175 392.904 109.415 392.669 109.639 392.392L110.551 393.512C110.209 393.992 109.719 394.387 109.079 394.696C108.449 395.005 107.793 395.16 107.111 395.16ZM115.673 395.16C114.894 395.16 114.196 394.968 113.577 394.584C112.969 394.2 112.484 393.677 112.121 393.016C111.769 392.355 111.593 391.613 111.593 390.792C111.593 389.971 111.769 389.229 112.121 388.568C112.484 387.907 112.969 387.384 113.577 387C114.196 386.616 114.894 386.424 115.673 386.424C116.42 386.424 117.097 386.579 117.705 386.888C118.324 387.187 118.793 387.597 119.113 388.12L118.201 389.24C118.03 388.995 117.812 388.771 117.545 388.568C117.278 388.365 116.996 388.205 116.697 388.088C116.398 387.971 116.11 387.912 115.833 387.912C115.321 387.912 114.862 388.04 114.457 388.296C114.062 388.541 113.748 388.883 113.513 389.32C113.278 389.757 113.161 390.248 113.161 390.792C113.161 391.336 113.284 391.827 113.529 392.264C113.774 392.691 114.1 393.032 114.505 393.288C114.91 393.544 115.358 393.672 115.849 393.672C116.137 393.672 116.414 393.624 116.681 393.528C116.958 393.432 117.225 393.288 117.481 393.096C117.737 392.904 117.977 392.669 118.201 392.392L119.113 393.512C118.772 393.992 118.281 394.387 117.641 394.696C117.012 395.005 116.356 395.16 115.673 395.16ZM124.444 395.16C123.622 395.16 122.886 394.973 122.236 394.6C121.596 394.216 121.089 393.699 120.716 393.048C120.342 392.387 120.156 391.635 120.156 390.792C120.156 389.949 120.342 389.203 120.716 388.552C121.089 387.891 121.596 387.373 122.236 387C122.886 386.616 123.622 386.424 124.444 386.424C125.254 386.424 125.98 386.616 126.62 387C127.27 387.373 127.782 387.891 128.156 388.552C128.529 389.203 128.716 389.949 128.716 390.792C128.716 391.635 128.529 392.387 128.156 393.048C127.782 393.699 127.27 394.216 126.62 394.6C125.98 394.973 125.254 395.16 124.444 395.16ZM124.444 393.656C124.945 393.656 125.393 393.533 125.788 393.288C126.182 393.032 126.492 392.691 126.716 392.264C126.94 391.827 127.046 391.336 127.036 390.792C127.046 390.237 126.94 389.747 126.716 389.32C126.492 388.883 126.182 388.541 125.788 388.296C125.393 388.051 124.945 387.928 124.444 387.928C123.942 387.928 123.489 388.056 123.084 388.312C122.689 388.557 122.38 388.899 122.156 389.336C121.932 389.763 121.825 390.248 121.836 390.792C121.825 391.336 121.932 391.827 122.156 392.264C122.38 392.691 122.689 393.032 123.084 393.288C123.489 393.533 123.942 393.656 124.444 393.656ZM133.455 395.16C132.858 395.16 132.335 395.021 131.887 394.744C131.45 394.467 131.109 394.077 130.863 393.576C130.629 393.075 130.511 392.477 130.511 391.784V386.6H132.159V391.336C132.159 391.827 132.234 392.253 132.383 392.616C132.543 392.968 132.767 393.24 133.055 393.432C133.354 393.624 133.711 393.72 134.127 393.72C134.437 393.72 134.719 393.672 134.975 393.576C135.231 393.469 135.45 393.325 135.631 393.144C135.823 392.963 135.973 392.744 136.079 392.488C136.186 392.232 136.239 391.955 136.239 391.656V386.6H137.887V395H136.239V393.24L136.527 393.048C136.399 393.443 136.181 393.8 135.871 394.12C135.573 394.44 135.215 394.696 134.799 394.888C134.383 395.069 133.935 395.16 133.455 395.16ZM140.199 395V386.6H141.847V388.328L141.559 388.52C141.666 388.147 141.874 387.805 142.183 387.496C142.492 387.176 142.86 386.92 143.287 386.728C143.714 386.525 144.151 386.424 144.599 386.424C145.239 386.424 145.772 386.552 146.199 386.808C146.626 387.053 146.946 387.432 147.159 387.944C147.372 388.456 147.479 389.101 147.479 389.88V395H145.831V389.992C145.831 389.512 145.767 389.117 145.639 388.808C145.511 388.488 145.314 388.259 145.047 388.12C144.78 387.971 144.45 387.907 144.055 387.928C143.735 387.928 143.442 387.981 143.175 388.088C142.908 388.184 142.674 388.323 142.471 388.504C142.279 388.685 142.124 388.899 142.007 389.144C141.9 389.379 141.847 389.635 141.847 389.912V395H141.031C140.892 395 140.754 395 140.615 395C140.476 395 140.338 395 140.199 395ZM150.755 395V384.456H152.403V395H150.755ZM149.011 388.2V386.6H154.355V388.2H149.011ZM159.697 395.16C158.833 395.16 158.065 394.979 157.393 394.616C156.732 394.243 156.209 393.736 155.825 393.096C155.452 392.456 155.265 391.72 155.265 390.888C155.265 390.227 155.372 389.624 155.585 389.08C155.798 388.536 156.092 388.067 156.465 387.672C156.849 387.267 157.302 386.957 157.825 386.744C158.358 386.52 158.934 386.408 159.553 386.408C160.097 386.408 160.604 386.515 161.073 386.728C161.542 386.931 161.948 387.213 162.289 387.576C162.641 387.939 162.908 388.371 163.089 388.872C163.281 389.363 163.372 389.901 163.361 390.488L163.345 391.192H156.481L156.113 389.88H161.921L161.681 390.152V389.768C161.649 389.416 161.532 389.101 161.329 388.824C161.126 388.547 160.87 388.328 160.561 388.168C160.252 388.008 159.916 387.928 159.553 387.928C158.977 387.928 158.492 388.04 158.097 388.264C157.702 388.477 157.404 388.797 157.201 389.224C156.998 389.64 156.897 390.157 156.897 390.776C156.897 391.363 157.02 391.875 157.265 392.312C157.51 392.739 157.857 393.069 158.305 393.304C158.753 393.539 159.27 393.656 159.857 393.656C160.273 393.656 160.657 393.587 161.009 393.448C161.372 393.309 161.761 393.059 162.177 392.696L163.009 393.864C162.753 394.12 162.438 394.344 162.065 394.536C161.702 394.728 161.313 394.883 160.897 395C160.492 395.107 160.092 395.16 159.697 395.16ZM168.656 395.16C167.888 395.16 167.2 394.973 166.592 394.6C165.995 394.216 165.52 393.699 165.168 393.048C164.816 392.387 164.64 391.635 164.64 390.792C164.64 389.949 164.811 389.203 165.152 388.552C165.504 387.891 165.979 387.373 166.576 387C167.173 386.616 167.851 386.424 168.608 386.424C169.024 386.424 169.424 386.493 169.808 386.632C170.203 386.76 170.555 386.941 170.864 387.176C171.173 387.4 171.413 387.651 171.584 387.928C171.765 388.195 171.856 388.467 171.856 388.744L171.376 388.776V383.16H173.024V395H171.376V393H171.696C171.696 393.256 171.611 393.512 171.44 393.768C171.269 394.013 171.04 394.243 170.752 394.456C170.475 394.669 170.149 394.84 169.776 394.968C169.413 395.096 169.04 395.16 168.656 395.16ZM168.88 393.736C169.381 393.736 169.824 393.608 170.208 393.352C170.592 393.096 170.891 392.749 171.104 392.312C171.328 391.864 171.44 391.357 171.44 390.792C171.44 390.227 171.328 389.725 171.104 389.288C170.891 388.84 170.592 388.488 170.208 388.232C169.824 387.976 169.381 387.848 168.88 387.848C168.379 387.848 167.936 387.976 167.552 388.232C167.168 388.488 166.864 388.84 166.64 389.288C166.427 389.725 166.32 390.227 166.32 390.792C166.32 391.357 166.427 391.864 166.64 392.312C166.864 392.749 167.168 393.096 167.552 393.352C167.936 393.608 168.379 393.736 168.88 393.736ZM180.193 395V383.8H184.865C185.58 383.8 186.182 383.907 186.673 384.12C187.164 384.333 187.532 384.653 187.777 385.08C188.033 385.496 188.161 386.008 188.161 386.616C188.161 387.224 187.99 387.741 187.649 388.168C187.318 388.595 186.854 388.888 186.257 389.048V388.728C186.758 388.835 187.196 389.027 187.569 389.304C187.942 389.571 188.23 389.907 188.433 390.312C188.646 390.717 188.753 391.181 188.753 391.704C188.753 392.237 188.668 392.712 188.497 393.128C188.337 393.533 188.092 393.875 187.761 394.152C187.441 394.429 187.052 394.643 186.593 394.792C186.134 394.931 185.612 395 185.025 395H180.193ZM181.921 393.336H184.929C185.366 393.336 185.734 393.272 186.033 393.144C186.342 393.016 186.577 392.829 186.737 392.584C186.908 392.328 186.993 392.024 186.993 391.672C186.993 391.341 186.902 391.059 186.721 390.824C186.55 390.589 186.305 390.413 185.985 390.296C185.665 390.168 185.286 390.104 184.849 390.104H181.921V393.336ZM181.921 388.44H184.769C185.089 388.44 185.372 388.376 185.617 388.248C185.873 388.12 186.07 387.944 186.209 387.72C186.358 387.496 186.433 387.24 186.433 386.952C186.433 386.472 186.273 386.104 185.953 385.848C185.633 385.592 185.174 385.464 184.577 385.464H181.921V388.44ZM190.94 395V386.6H192.588V395H190.94ZM191.74 384.744C191.388 384.744 191.116 384.653 190.924 384.472C190.732 384.291 190.636 384.035 190.636 383.704C190.636 383.395 190.732 383.144 190.924 382.952C191.126 382.76 191.398 382.664 191.74 382.664C192.092 382.664 192.364 382.755 192.556 382.936C192.748 383.117 192.844 383.373 192.844 383.704C192.844 384.013 192.742 384.264 192.54 384.456C192.348 384.648 192.081 384.744 191.74 384.744ZM195.153 395V383.16H196.801V395H195.153ZM199.168 395V383.16H200.816V395H199.168ZM205.952 395.16C205.248 395.16 204.613 395.037 204.048 394.792C203.483 394.547 203.013 394.184 202.64 393.704L203.76 392.744C204.08 393.117 204.427 393.389 204.8 393.56C205.184 393.72 205.616 393.8 206.096 393.8C206.288 393.8 206.464 393.779 206.624 393.736C206.795 393.683 206.939 393.608 207.056 393.512C207.184 393.416 207.28 393.304 207.344 393.176C207.408 393.037 207.44 392.888 207.44 392.728C207.44 392.451 207.339 392.227 207.136 392.056C207.029 391.981 206.859 391.901 206.624 391.816C206.4 391.72 206.107 391.624 205.744 391.528C205.125 391.368 204.619 391.187 204.224 390.984C203.829 390.781 203.525 390.552 203.312 390.296C203.152 390.093 203.035 389.875 202.96 389.64C202.885 389.395 202.848 389.128 202.848 388.84C202.848 388.488 202.923 388.168 203.072 387.88C203.232 387.581 203.445 387.325 203.712 387.112C203.989 386.888 204.309 386.717 204.672 386.6C205.045 386.483 205.44 386.424 205.856 386.424C206.251 386.424 206.64 386.477 207.024 386.584C207.419 386.691 207.781 386.845 208.112 387.048C208.443 387.251 208.72 387.491 208.944 387.768L208 388.808C207.797 388.605 207.573 388.429 207.328 388.28C207.093 388.12 206.853 387.997 206.608 387.912C206.363 387.827 206.139 387.784 205.936 387.784C205.712 387.784 205.509 387.805 205.328 387.848C205.147 387.891 204.992 387.955 204.864 388.04C204.747 388.125 204.656 388.232 204.592 388.36C204.528 388.488 204.496 388.632 204.496 388.792C204.507 388.931 204.539 389.064 204.592 389.192C204.656 389.309 204.741 389.411 204.848 389.496C204.965 389.581 205.141 389.672 205.376 389.768C205.611 389.864 205.909 389.955 206.272 390.04C206.805 390.179 207.243 390.333 207.584 390.504C207.936 390.664 208.213 390.851 208.416 391.064C208.629 391.267 208.779 391.501 208.864 391.768C208.949 392.035 208.992 392.333 208.992 392.664C208.992 393.144 208.853 393.576 208.576 393.96C208.309 394.333 207.947 394.627 207.488 394.84C207.029 395.053 206.517 395.16 205.952 395.16Z" fill="white"/>
</g>
<g filter="url(#filter3_ddd_3550_110856)">
<rect x="315" y="5" width="288" height="132" rx="8" fill="url(#paint6_linear_3550_110856)" fill-opacity="0.1" shape-rendering="crispEdges"/>
<rect x="315.5" y="5.5" width="287" height="131" rx="7.5" stroke="url(#paint7_linear_3550_110856)" stroke-opacity="0.1" shape-rendering="crispEdges"/>
<circle cx="459" cy="55" r="23.5" transform="rotate(-180 459 55)" stroke="#B1B1B1" stroke-opacity="0.2"/>
<path fill-rule="evenodd" clip-rule="evenodd" d="M452.724 58.6707C452.434 58.6707 452.328 58.4706 452.487 58.2231L461.526 44.1624C461.685 43.9152 461.814 43.9524 461.814 44.2592V52.7848C461.814 53.0855 462.057 53.3293 462.338 53.3293H467.699C467.989 53.3293 468.095 53.5294 467.936 53.7769L458.897 67.8376C458.738 68.0848 458.609 68.0476 458.609 67.7408V59.2152C458.609 58.9145 458.366 58.6707 458.084 58.6707H452.724Z" stroke="white" stroke-linecap="round" stroke-linejoin="round"/>
<path d="M398.024 107.16C397.416 107.16 396.851 107.08 396.328 106.92C395.816 106.76 395.347 106.52 394.92 106.2C394.504 105.869 394.131 105.464 393.8 104.984L394.984 103.624C395.507 104.371 396.008 104.888 396.488 105.176C396.968 105.464 397.539 105.608 398.2 105.608C398.605 105.608 398.973 105.544 399.304 105.416C399.635 105.288 399.896 105.112 400.088 104.888C400.28 104.664 400.376 104.408 400.376 104.12C400.376 103.928 400.344 103.747 400.28 103.576C400.216 103.405 400.115 103.251 399.976 103.112C399.848 102.973 399.677 102.845 399.464 102.728C399.261 102.611 399.021 102.509 398.744 102.424C398.467 102.328 398.147 102.248 397.784 102.184C397.208 102.067 396.707 101.912 396.28 101.72C395.853 101.528 395.496 101.288 395.208 101C394.92 100.712 394.707 100.387 394.568 100.024C394.429 99.6507 394.36 99.2347 394.36 98.776C394.36 98.328 394.456 97.912 394.648 97.528C394.851 97.144 395.123 96.8133 395.464 96.536C395.816 96.248 396.227 96.0293 396.696 95.88C397.165 95.72 397.672 95.64 398.216 95.64C398.792 95.64 399.32 95.7147 399.8 95.864C400.28 96.0133 400.707 96.2373 401.08 96.536C401.453 96.824 401.763 97.1813 402.008 97.608L400.792 98.808C400.579 98.456 400.339 98.1627 400.072 97.928C399.805 97.6827 399.512 97.5013 399.192 97.384C398.872 97.256 398.531 97.192 398.168 97.192C397.752 97.192 397.389 97.256 397.08 97.384C396.771 97.512 396.525 97.6933 396.344 97.928C396.173 98.152 396.088 98.4187 396.088 98.728C396.088 98.952 396.131 99.16 396.216 99.352C396.301 99.5333 396.429 99.6987 396.6 99.848C396.781 99.9867 397.021 100.115 397.32 100.232C397.619 100.339 397.976 100.435 398.392 100.52C398.979 100.648 399.501 100.813 399.96 101.016C400.419 101.208 400.808 101.437 401.128 101.704C401.448 101.971 401.688 102.269 401.848 102.6C402.019 102.931 402.104 103.288 402.104 103.672C402.104 104.387 401.939 105.005 401.608 105.528C401.277 106.051 400.808 106.456 400.2 106.744C399.592 107.021 398.867 107.16 398.024 107.16ZM408.056 107.16C407.192 107.16 406.424 106.979 405.752 106.616C405.091 106.243 404.568 105.736 404.184 105.096C403.811 104.456 403.624 103.72 403.624 102.888C403.624 102.227 403.731 101.624 403.944 101.08C404.158 100.536 404.451 100.067 404.824 99.672C405.208 99.2667 405.662 98.9573 406.184 98.744C406.718 98.52 407.294 98.408 407.912 98.408C408.456 98.408 408.963 98.5147 409.432 98.728C409.902 98.9307 410.307 99.2133 410.648 99.576C411 99.9387 411.267 100.371 411.448 100.872C411.64 101.363 411.731 101.901 411.72 102.488L411.704 103.192H404.84L404.472 101.88H410.28L410.04 102.152V101.768C410.008 101.416 409.891 101.101 409.688 100.824C409.486 100.547 409.23 100.328 408.92 100.168C408.611 100.008 408.275 99.928 407.912 99.928C407.336 99.928 406.851 100.04 406.456 100.264C406.062 100.477 405.763 100.797 405.56 101.224C405.358 101.64 405.256 102.157 405.256 102.776C405.256 103.363 405.379 103.875 405.624 104.312C405.87 104.739 406.216 105.069 406.664 105.304C407.112 105.539 407.63 105.656 408.216 105.656C408.632 105.656 409.016 105.587 409.368 105.448C409.731 105.309 410.12 105.059 410.536 104.696L411.368 105.864C411.112 106.12 410.798 106.344 410.424 106.536C410.062 106.728 409.672 106.883 409.256 107C408.851 107.107 408.451 107.16 408.056 107.16ZM414.551 107V96.456H416.199V107H414.551ZM412.807 100.2V98.6H418.151V100.2H412.807ZM422.596 107.16C421.999 107.16 421.476 107.021 421.028 106.744C420.591 106.467 420.249 106.077 420.004 105.576C419.769 105.075 419.652 104.477 419.652 103.784V98.6H421.3V103.336C421.3 103.827 421.375 104.253 421.524 104.616C421.684 104.968 421.908 105.24 422.196 105.432C422.495 105.624 422.852 105.72 423.268 105.72C423.577 105.72 423.86 105.672 424.116 105.576C424.372 105.469 424.591 105.325 424.772 105.144C424.964 104.963 425.113 104.744 425.22 104.488C425.327 104.232 425.38 103.955 425.38 103.656V98.6H427.028V107H425.38V105.24L425.668 105.048C425.54 105.443 425.321 105.8 425.012 106.12C424.713 106.44 424.356 106.696 423.94 106.888C423.524 107.069 423.076 107.16 422.596 107.16ZM429.34 110.52V98.6H431.004V100.52L430.748 100.376C430.812 100.056 430.993 99.752 431.292 99.464C431.59 99.1653 431.953 98.9253 432.38 98.744C432.817 98.552 433.265 98.456 433.724 98.456C434.481 98.456 435.153 98.6427 435.74 99.016C436.326 99.3893 436.79 99.9013 437.132 100.552C437.473 101.203 437.644 101.949 437.644 102.792C437.644 103.624 437.473 104.371 437.132 105.032C436.801 105.683 436.342 106.2 435.756 106.584C435.169 106.957 434.508 107.144 433.772 107.144C433.281 107.144 432.806 107.048 432.348 106.856C431.889 106.653 431.5 106.397 431.18 106.088C430.86 105.779 430.662 105.459 430.588 105.128L431.004 104.904V110.52H429.34ZM433.5 105.624C433.99 105.624 434.428 105.501 434.812 105.256C435.196 105.011 435.5 104.675 435.724 104.248C435.948 103.821 436.06 103.336 436.06 102.792C436.06 102.248 435.948 101.768 435.724 101.352C435.51 100.925 435.212 100.589 434.828 100.344C434.444 100.099 434.001 99.976 433.5 99.976C432.998 99.976 432.556 100.099 432.172 100.344C431.788 100.579 431.484 100.909 431.26 101.336C431.036 101.763 430.924 102.248 430.924 102.792C430.924 103.336 431.036 103.821 431.26 104.248C431.484 104.675 431.788 105.011 432.172 105.256C432.556 105.501 432.998 105.624 433.5 105.624ZM448.686 107.096C447.822 107.096 447.048 106.909 446.366 106.536C445.683 106.152 445.144 105.629 444.75 104.968C444.366 104.296 444.174 103.539 444.174 102.696V95.784H445.902V102.552C445.902 103.096 446.03 103.587 446.286 104.024C446.542 104.451 446.878 104.792 447.294 105.048C447.72 105.304 448.184 105.432 448.686 105.432C449.219 105.432 449.699 105.304 450.126 105.048C450.563 104.792 450.91 104.451 451.166 104.024C451.422 103.587 451.55 103.096 451.55 102.552V95.784H453.198V102.696C453.198 103.539 453 104.296 452.606 104.968C452.222 105.629 451.688 106.152 451.006 106.536C450.323 106.909 449.55 107.096 448.686 107.096ZM456.801 107V96.456H458.449V107H456.801ZM455.057 100.2V98.6H460.401V100.2H455.057ZM462.174 107V98.6H463.822V107H462.174ZM462.974 96.744C462.622 96.744 462.35 96.6533 462.158 96.472C461.966 96.2907 461.87 96.0347 461.87 95.704C461.87 95.3947 461.966 95.144 462.158 94.952C462.361 94.76 462.633 94.664 462.974 94.664C463.326 94.664 463.598 94.7547 463.79 94.936C463.982 95.1173 464.078 95.3733 464.078 95.704C464.078 96.0133 463.977 96.264 463.774 96.456C463.582 96.648 463.315 96.744 462.974 96.744ZM466.387 107V95.16H468.035V107H466.387ZM470.643 107V98.6H472.291V107H470.643ZM471.443 96.744C471.091 96.744 470.819 96.6533 470.627 96.472C470.435 96.2907 470.339 96.0347 470.339 95.704C470.339 95.3947 470.435 95.144 470.627 94.952C470.829 94.76 471.101 94.664 471.443 94.664C471.795 94.664 472.067 94.7547 472.259 94.936C472.451 95.1173 472.547 95.3733 472.547 95.704C472.547 96.0133 472.445 96.264 472.243 96.456C472.051 96.648 471.784 96.744 471.443 96.744ZM475.864 107V96.456H477.512V107H475.864ZM474.12 100.2V98.6H479.464V100.2H474.12ZM482.373 110.68L484.069 106.76L484.085 108.072L479.893 98.6H481.812L484.437 104.776C484.49 104.883 484.554 105.048 484.629 105.272C484.703 105.485 484.767 105.699 484.821 105.912L484.405 106.008C484.49 105.784 484.57 105.56 484.645 105.336C484.73 105.112 484.81 104.888 484.885 104.664L487.077 98.6H489.029L485.573 107L484.149 110.68H482.373ZM495.162 107V95.8H499.834C500.548 95.8 501.151 95.9067 501.642 96.12C502.132 96.3333 502.5 96.6533 502.746 97.08C503.002 97.496 503.13 98.008 503.13 98.616C503.13 99.224 502.959 99.7413 502.618 100.168C502.287 100.595 501.823 100.888 501.226 101.048V100.728C501.727 100.835 502.164 101.027 502.538 101.304C502.911 101.571 503.199 101.907 503.402 102.312C503.615 102.717 503.722 103.181 503.722 103.704C503.722 104.237 503.636 104.712 503.466 105.128C503.306 105.533 503.06 105.875 502.73 106.152C502.41 106.429 502.02 106.643 501.562 106.792C501.103 106.931 500.58 107 499.994 107H495.162ZM496.89 105.336H499.898C500.335 105.336 500.703 105.272 501.002 105.144C501.311 105.016 501.546 104.829 501.706 104.584C501.876 104.328 501.962 104.024 501.962 103.672C501.962 103.341 501.871 103.059 501.69 102.824C501.519 102.589 501.274 102.413 500.954 102.296C500.634 102.168 500.255 102.104 499.818 102.104H496.89V105.336ZM496.89 100.44H499.738C500.058 100.44 500.34 100.376 500.586 100.248C500.842 100.12 501.039 99.944 501.178 99.72C501.327 99.496 501.402 99.24 501.402 98.952C501.402 98.472 501.242 98.104 500.922 97.848C500.602 97.592 500.143 97.464 499.546 97.464H496.89V100.44ZM505.908 107V98.6H507.556V107H505.908ZM506.708 96.744C506.356 96.744 506.084 96.6533 505.892 96.472C505.7 96.2907 505.604 96.0347 505.604 95.704C505.604 95.3947 505.7 95.144 505.892 94.952C506.095 94.76 506.367 94.664 506.708 94.664C507.06 94.664 507.332 94.7547 507.524 94.936C507.716 95.1173 507.812 95.3733 507.812 95.704C507.812 96.0133 507.711 96.264 507.508 96.456C507.316 96.648 507.05 96.744 506.708 96.744ZM510.122 107V95.16H511.77V107H510.122ZM514.137 107V95.16H515.785V107H514.137ZM520.921 107.16C520.217 107.16 519.582 107.037 519.017 106.792C518.451 106.547 517.982 106.184 517.609 105.704L518.729 104.744C519.049 105.117 519.395 105.389 519.769 105.56C520.153 105.72 520.585 105.8 521.065 105.8C521.257 105.8 521.433 105.779 521.593 105.736C521.763 105.683 521.907 105.608 522.025 105.512C522.153 105.416 522.249 105.304 522.313 105.176C522.377 105.037 522.409 104.888 522.409 104.728C522.409 104.451 522.307 104.227 522.105 104.056C521.998 103.981 521.827 103.901 521.593 103.816C521.369 103.72 521.075 103.624 520.713 103.528C520.094 103.368 519.587 103.187 519.193 102.984C518.798 102.781 518.494 102.552 518.281 102.296C518.121 102.093 518.003 101.875 517.929 101.64C517.854 101.395 517.817 101.128 517.817 100.84C517.817 100.488 517.891 100.168 518.041 99.88C518.201 99.5813 518.414 99.3253 518.681 99.112C518.958 98.888 519.278 98.7173 519.641 98.6C520.014 98.4827 520.409 98.424 520.825 98.424C521.219 98.424 521.609 98.4773 521.993 98.584C522.387 98.6907 522.75 98.8453 523.081 99.048C523.411 99.2507 523.689 99.4907 523.913 99.768L522.969 100.808C522.766 100.605 522.542 100.429 522.297 100.28C522.062 100.12 521.822 99.9973 521.577 99.912C521.331 99.8267 521.107 99.784 520.905 99.784C520.681 99.784 520.478 99.8053 520.297 99.848C520.115 99.8907 519.961 99.9547 519.833 100.04C519.715 100.125 519.625 100.232 519.561 100.36C519.497 100.488 519.465 100.632 519.465 100.792C519.475 100.931 519.507 101.064 519.561 101.192C519.625 101.309 519.71 101.411 519.817 101.496C519.934 101.581 520.11 101.672 520.345 101.768C520.579 101.864 520.878 101.955 521.241 102.04C521.774 102.179 522.211 102.333 522.553 102.504C522.905 102.664 523.182 102.851 523.385 103.064C523.598 103.267 523.747 103.501 523.833 103.768C523.918 104.035 523.961 104.333 523.961 104.664C523.961 105.144 523.822 105.576 523.545 105.96C523.278 106.333 522.915 106.627 522.457 106.84C521.998 107.053 521.486 107.16 520.921 107.16Z" fill="white"/>
</g>
<g filter="url(#filter4_ddd_3550_110856)">
<rect x="315" y="149" width="288" height="132" rx="8" fill="url(#paint8_linear_3550_110856)" fill-opacity="0.1" shape-rendering="crispEdges"/>
<rect x="315.5" y="149.5" width="287" height="131" rx="7.5" stroke="url(#paint9_linear_3550_110856)" stroke-opacity="0.1" shape-rendering="crispEdges"/>
<path d="M459 222.5C446.021 222.5 435.5 211.979 435.5 199C435.5 186.021 446.021 175.5 459 175.5C471.979 175.5 482.5 186.021 482.5 199C482.5 211.979 471.979 222.5 459 222.5Z" stroke="#B1B1B1" stroke-opacity="0.2"/>
<g clip-path="url(#clip0_3550_110856)">
<path d="M456 201H466" stroke="white" stroke-width="0.8" stroke-miterlimit="10" stroke-linecap="square"/>
<path d="M456 205H466" stroke="white" stroke-width="0.8" stroke-miterlimit="10" stroke-linecap="square"/>
<path d="M466 193H456V197H466V193Z" stroke="white" stroke-width="0.8" stroke-miterlimit="10" stroke-linecap="square"/>
<path d="M450 210C449.47 209.998 448.962 209.787 448.588 209.412C448.213 209.038 448.002 208.53 448 208V200H449" stroke="white" stroke-width="0.8" stroke-miterlimit="10" stroke-linecap="square"/>
<path d="M452 188V208C451.998 208.53 451.787 209.038 451.412 209.412C451.038 209.787 450.53 209.998 450 210H468C468.53 209.998 469.038 209.787 469.412 209.412C469.787 209.038 469.998 208.53 470 208V188H452Z" stroke="white" stroke-width="0.8" stroke-miterlimit="10" stroke-linecap="square"/>
</g>
<path d="M395.42 251.096C394.556 251.096 393.783 250.909 393.1 250.536C392.417 250.152 391.879 249.629 391.484 248.968C391.1 248.296 390.908 247.539 390.908 246.696V239.784H392.636V246.552C392.636 247.096 392.764 247.587 393.02 248.024C393.276 248.451 393.612 248.792 394.028 249.048C394.455 249.304 394.919 249.432 395.42 249.432C395.953 249.432 396.433 249.304 396.86 249.048C397.297 248.792 397.644 248.451 397.9 248.024C398.156 247.587 398.284 247.096 398.284 246.552V239.784H399.932V246.696C399.932 247.539 399.735 248.296 399.34 248.968C398.956 249.629 398.423 250.152 397.74 250.536C397.057 250.909 396.284 251.096 395.42 251.096ZM402.496 251V242.6H404.144V244.328L403.856 244.52C403.962 244.147 404.17 243.805 404.48 243.496C404.789 243.176 405.157 242.92 405.584 242.728C406.01 242.525 406.448 242.424 406.896 242.424C407.536 242.424 408.069 242.552 408.496 242.808C408.922 243.053 409.242 243.432 409.456 243.944C409.669 244.456 409.776 245.101 409.776 245.88V251H408.128V245.992C408.128 245.512 408.064 245.117 407.936 244.808C407.808 244.488 407.61 244.259 407.344 244.12C407.077 243.971 406.746 243.907 406.352 243.928C406.032 243.928 405.738 243.981 405.472 244.088C405.205 244.184 404.97 244.323 404.768 244.504C404.576 244.685 404.421 244.899 404.304 245.144C404.197 245.379 404.144 245.635 404.144 245.912V251H403.328C403.189 251 403.05 251 402.912 251C402.773 251 402.634 251 402.496 251ZM415.243 251.16C414.55 251.16 413.915 250.968 413.339 250.584C412.774 250.2 412.321 249.677 411.979 249.016C411.638 248.355 411.467 247.608 411.467 246.776C411.467 245.933 411.638 245.187 411.979 244.536C412.331 243.875 412.801 243.357 413.387 242.984C413.985 242.611 414.651 242.424 415.387 242.424C415.825 242.424 416.225 242.488 416.587 242.616C416.95 242.744 417.265 242.925 417.531 243.16C417.809 243.384 418.033 243.645 418.203 243.944C418.385 244.243 418.497 244.563 418.539 244.904L418.171 244.776V242.6H419.835V251H418.171V249L418.555 248.888C418.491 249.176 418.358 249.459 418.155 249.736C417.963 250.003 417.713 250.243 417.403 250.456C417.105 250.669 416.769 250.84 416.395 250.968C416.033 251.096 415.649 251.16 415.243 251.16ZM415.675 249.64C416.177 249.64 416.619 249.517 417.003 249.272C417.387 249.027 417.686 248.691 417.899 248.264C418.123 247.827 418.235 247.331 418.235 246.776C418.235 246.232 418.123 245.747 417.899 245.32C417.686 244.893 417.387 244.557 417.003 244.312C416.619 244.067 416.177 243.944 415.675 243.944C415.185 243.944 414.747 244.067 414.363 244.312C413.99 244.557 413.691 244.893 413.467 245.32C413.254 245.747 413.147 246.232 413.147 246.776C413.147 247.331 413.254 247.827 413.467 248.264C413.691 248.691 413.99 249.027 414.363 249.272C414.747 249.517 415.185 249.64 415.675 249.64ZM425.704 251.16C424.926 251.16 424.227 250.968 423.608 250.584C423 250.2 422.515 249.677 422.152 249.016C421.8 248.355 421.624 247.613 421.624 246.792C421.624 245.971 421.8 245.229 422.152 244.568C422.515 243.907 423 243.384 423.608 243C424.227 242.616 424.926 242.424 425.704 242.424C426.451 242.424 427.128 242.579 427.736 242.888C428.355 243.187 428.824 243.597 429.144 244.12L428.232 245.24C428.062 244.995 427.843 244.771 427.576 244.568C427.31 244.365 427.027 244.205 426.728 244.088C426.43 243.971 426.142 243.912 425.864 243.912C425.352 243.912 424.894 244.04 424.488 244.296C424.094 244.541 423.779 244.883 423.544 245.32C423.31 245.757 423.192 246.248 423.192 246.792C423.192 247.336 423.315 247.827 423.56 248.264C423.806 248.691 424.131 249.032 424.536 249.288C424.942 249.544 425.39 249.672 425.88 249.672C426.168 249.672 426.446 249.624 426.712 249.528C426.99 249.432 427.256 249.288 427.512 249.096C427.768 248.904 428.008 248.669 428.232 248.392L429.144 249.512C428.803 249.992 428.312 250.387 427.672 250.696C427.043 251.005 426.387 251.16 425.704 251.16ZM434.267 251.16C433.488 251.16 432.79 250.968 432.171 250.584C431.563 250.2 431.078 249.677 430.715 249.016C430.363 248.355 430.187 247.613 430.187 246.792C430.187 245.971 430.363 245.229 430.715 244.568C431.078 243.907 431.563 243.384 432.171 243C432.79 242.616 433.488 242.424 434.267 242.424C435.014 242.424 435.691 242.579 436.299 242.888C436.918 243.187 437.387 243.597 437.707 244.12L436.795 245.24C436.624 244.995 436.406 244.771 436.139 244.568C435.872 244.365 435.59 244.205 435.291 244.088C434.992 243.971 434.704 243.912 434.427 243.912C433.915 243.912 433.456 244.04 433.051 244.296C432.656 244.541 432.342 244.883 432.107 245.32C431.872 245.757 431.755 246.248 431.755 246.792C431.755 247.336 431.878 247.827 432.123 248.264C432.368 248.691 432.694 249.032 433.099 249.288C433.504 249.544 433.952 249.672 434.443 249.672C434.731 249.672 435.008 249.624 435.275 249.528C435.552 249.432 435.819 249.288 436.075 249.096C436.331 248.904 436.571 248.669 436.795 248.392L437.707 249.512C437.366 249.992 436.875 250.387 436.235 250.696C435.606 251.005 434.95 251.16 434.267 251.16ZM443.037 251.16C442.216 251.16 441.48 250.973 440.829 250.6C440.189 250.216 439.683 249.699 439.309 249.048C438.936 248.387 438.749 247.635 438.749 246.792C438.749 245.949 438.936 245.203 439.309 244.552C439.683 243.891 440.189 243.373 440.829 243C441.48 242.616 442.216 242.424 443.037 242.424C443.848 242.424 444.573 242.616 445.213 243C445.864 243.373 446.376 243.891 446.749 244.552C447.123 245.203 447.309 245.949 447.309 246.792C447.309 247.635 447.123 248.387 446.749 249.048C446.376 249.699 445.864 250.216 445.213 250.6C444.573 250.973 443.848 251.16 443.037 251.16ZM443.037 249.656C443.539 249.656 443.987 249.533 444.381 249.288C444.776 249.032 445.085 248.691 445.309 248.264C445.533 247.827 445.64 247.336 445.629 246.792C445.64 246.237 445.533 245.747 445.309 245.32C445.085 244.883 444.776 244.541 444.381 244.296C443.987 244.051 443.539 243.928 443.037 243.928C442.536 243.928 442.083 244.056 441.677 244.312C441.283 244.557 440.973 244.899 440.749 245.336C440.525 245.763 440.419 246.248 440.429 246.792C440.419 247.336 440.525 247.827 440.749 248.264C440.973 248.691 441.283 249.032 441.677 249.288C442.083 249.533 442.536 249.656 443.037 249.656ZM452.049 251.16C451.452 251.16 450.929 251.021 450.481 250.744C450.044 250.467 449.702 250.077 449.457 249.576C449.222 249.075 449.105 248.477 449.105 247.784V242.6H450.753V247.336C450.753 247.827 450.828 248.253 450.977 248.616C451.137 248.968 451.361 249.24 451.649 249.432C451.948 249.624 452.305 249.72 452.721 249.72C453.03 249.72 453.313 249.672 453.569 249.576C453.825 249.469 454.044 249.325 454.225 249.144C454.417 248.963 454.566 248.744 454.673 248.488C454.78 248.232 454.833 247.955 454.833 247.656V242.6H456.481V251H454.833V249.24L455.121 249.048C454.993 249.443 454.774 249.8 454.465 250.12C454.166 250.44 453.809 250.696 453.393 250.888C452.977 251.069 452.529 251.16 452.049 251.16ZM458.793 251V242.6H460.441V244.328L460.153 244.52C460.259 244.147 460.467 243.805 460.777 243.496C461.086 243.176 461.454 242.92 461.881 242.728C462.307 242.525 462.745 242.424 463.193 242.424C463.833 242.424 464.366 242.552 464.793 242.808C465.219 243.053 465.539 243.432 465.753 243.944C465.966 244.456 466.073 245.101 466.073 245.88V251H464.425V245.992C464.425 245.512 464.361 245.117 464.233 244.808C464.105 244.488 463.907 244.259 463.641 244.12C463.374 243.971 463.043 243.907 462.649 243.928C462.329 243.928 462.035 243.981 461.769 244.088C461.502 244.184 461.267 244.323 461.065 244.504C460.873 244.685 460.718 244.899 460.601 245.144C460.494 245.379 460.441 245.635 460.441 245.912V251H459.625C459.486 251 459.347 251 459.209 251C459.07 251 458.931 251 458.793 251ZM469.348 251V240.456H470.996V251H469.348ZM467.604 244.2V242.6H472.948V244.2H467.604ZM478.291 251.16C477.427 251.16 476.659 250.979 475.987 250.616C475.325 250.243 474.803 249.736 474.419 249.096C474.045 248.456 473.859 247.72 473.859 246.888C473.859 246.227 473.965 245.624 474.179 245.08C474.392 244.536 474.685 244.067 475.059 243.672C475.443 243.267 475.896 242.957 476.419 242.744C476.952 242.52 477.528 242.408 478.147 242.408C478.691 242.408 479.197 242.515 479.667 242.728C480.136 242.931 480.541 243.213 480.883 243.576C481.235 243.939 481.501 244.371 481.683 244.872C481.875 245.363 481.965 245.901 481.955 246.488L481.939 247.192H475.075L474.707 245.88H480.515L480.275 246.152V245.768C480.243 245.416 480.125 245.101 479.923 244.824C479.72 244.547 479.464 244.328 479.155 244.168C478.845 244.008 478.509 243.928 478.147 243.928C477.571 243.928 477.085 244.04 476.691 244.264C476.296 244.477 475.997 244.797 475.795 245.224C475.592 245.64 475.491 246.157 475.491 246.776C475.491 247.363 475.613 247.875 475.859 248.312C476.104 248.739 476.451 249.069 476.899 249.304C477.347 249.539 477.864 249.656 478.451 249.656C478.867 249.656 479.251 249.587 479.603 249.448C479.965 249.309 480.355 249.059 480.771 248.696L481.603 249.864C481.347 250.12 481.032 250.344 480.659 250.536C480.296 250.728 479.907 250.883 479.491 251C479.085 251.107 478.685 251.16 478.291 251.16ZM487.25 251.16C486.482 251.16 485.794 250.973 485.186 250.6C484.588 250.216 484.114 249.699 483.762 249.048C483.41 248.387 483.234 247.635 483.234 246.792C483.234 245.949 483.404 245.203 483.746 244.552C484.098 243.891 484.572 243.373 485.17 243C485.767 242.616 486.444 242.424 487.202 242.424C487.618 242.424 488.018 242.493 488.402 242.632C488.796 242.76 489.148 242.941 489.458 243.176C489.767 243.4 490.007 243.651 490.178 243.928C490.359 244.195 490.45 244.467 490.45 244.744L489.97 244.776V239.16H491.618V251H489.97V249H490.29C490.29 249.256 490.204 249.512 490.034 249.768C489.863 250.013 489.634 250.243 489.346 250.456C489.068 250.669 488.743 250.84 488.37 250.968C488.007 251.096 487.634 251.16 487.25 251.16ZM487.474 249.736C487.975 249.736 488.418 249.608 488.802 249.352C489.186 249.096 489.484 248.749 489.698 248.312C489.922 247.864 490.034 247.357 490.034 246.792C490.034 246.227 489.922 245.725 489.698 245.288C489.484 244.84 489.186 244.488 488.802 244.232C488.418 243.976 487.975 243.848 487.474 243.848C486.972 243.848 486.53 243.976 486.146 244.232C485.762 244.488 485.458 244.84 485.234 245.288C485.02 245.725 484.914 246.227 484.914 246.792C484.914 247.357 485.02 247.864 485.234 248.312C485.458 248.749 485.762 249.096 486.146 249.352C486.53 249.608 486.972 249.736 487.474 249.736ZM498.787 251V239.8H503.459C504.173 239.8 504.776 239.907 505.267 240.12C505.757 240.333 506.125 240.653 506.371 241.08C506.627 241.496 506.755 242.008 506.755 242.616C506.755 243.224 506.584 243.741 506.243 244.168C505.912 244.595 505.448 244.888 504.851 245.048V244.728C505.352 244.835 505.789 245.027 506.163 245.304C506.536 245.571 506.824 245.907 507.027 246.312C507.24 246.717 507.347 247.181 507.347 247.704C507.347 248.237 507.261 248.712 507.091 249.128C506.931 249.533 506.685 249.875 506.355 250.152C506.035 250.429 505.645 250.643 505.187 250.792C504.728 250.931 504.205 251 503.619 251H498.787ZM500.515 249.336H503.523C503.96 249.336 504.328 249.272 504.627 249.144C504.936 249.016 505.171 248.829 505.331 248.584C505.501 248.328 505.587 248.024 505.587 247.672C505.587 247.341 505.496 247.059 505.315 246.824C505.144 246.589 504.899 246.413 504.579 246.296C504.259 246.168 503.88 246.104 503.443 246.104H500.515V249.336ZM500.515 244.44H503.363C503.683 244.44 503.965 244.376 504.211 244.248C504.467 244.12 504.664 243.944 504.803 243.72C504.952 243.496 505.027 243.24 505.027 242.952C505.027 242.472 504.867 242.104 504.547 241.848C504.227 241.592 503.768 241.464 503.171 241.464H500.515V244.44ZM509.533 251V242.6H511.181V251H509.533ZM510.333 240.744C509.981 240.744 509.709 240.653 509.517 240.472C509.325 240.291 509.229 240.035 509.229 239.704C509.229 239.395 509.325 239.144 509.517 238.952C509.72 238.76 509.992 238.664 510.333 238.664C510.685 238.664 510.957 238.755 511.149 238.936C511.341 239.117 511.437 239.373 511.437 239.704C511.437 240.013 511.336 240.264 511.133 240.456C510.941 240.648 510.675 240.744 510.333 240.744ZM513.747 251V239.16H515.395V251H513.747ZM517.762 251V239.16H519.41V251H517.762ZM524.546 251.16C523.842 251.16 523.207 251.037 522.642 250.792C522.076 250.547 521.607 250.184 521.234 249.704L522.354 248.744C522.674 249.117 523.02 249.389 523.394 249.56C523.778 249.72 524.21 249.8 524.69 249.8C524.882 249.8 525.058 249.779 525.218 249.736C525.388 249.683 525.532 249.608 525.65 249.512C525.778 249.416 525.874 249.304 525.938 249.176C526.002 249.037 526.034 248.888 526.034 248.728C526.034 248.451 525.932 248.227 525.73 248.056C525.623 247.981 525.452 247.901 525.218 247.816C524.994 247.72 524.7 247.624 524.338 247.528C523.719 247.368 523.212 247.187 522.818 246.984C522.423 246.781 522.119 246.552 521.906 246.296C521.746 246.093 521.628 245.875 521.554 245.64C521.479 245.395 521.442 245.128 521.442 244.84C521.442 244.488 521.516 244.168 521.666 243.88C521.826 243.581 522.039 243.325 522.306 243.112C522.583 242.888 522.903 242.717 523.266 242.6C523.639 242.483 524.034 242.424 524.45 242.424C524.844 242.424 525.234 242.477 525.618 242.584C526.012 242.691 526.375 242.845 526.706 243.048C527.036 243.251 527.314 243.491 527.538 243.768L526.594 244.808C526.391 244.605 526.167 244.429 525.922 244.28C525.687 244.12 525.447 243.997 525.202 243.912C524.956 243.827 524.732 243.784 524.53 243.784C524.306 243.784 524.103 243.805 523.922 243.848C523.74 243.891 523.586 243.955 523.458 244.04C523.34 244.125 523.25 244.232 523.186 244.36C523.122 244.488 523.09 244.632 523.09 244.792C523.1 244.931 523.132 245.064 523.186 245.192C523.25 245.309 523.335 245.411 523.442 245.496C523.559 245.581 523.735 245.672 523.97 245.768C524.204 245.864 524.503 245.955 524.866 246.04C525.399 246.179 525.836 246.333 526.178 246.504C526.53 246.664 526.807 246.851 527.01 247.064C527.223 247.267 527.372 247.501 527.458 247.768C527.543 248.035 527.586 248.333 527.586 248.664C527.586 249.144 527.447 249.576 527.17 249.96C526.903 250.333 526.54 250.627 526.082 250.84C525.623 251.053 525.111 251.16 524.546 251.16Z" fill="white"/>
</g>
<g filter="url(#filter5_ddd_3550_110856)">
<rect x="315" y="293" width="288" height="132" rx="8" fill="url(#paint10_linear_3550_110856)" fill-opacity="0.1" shape-rendering="crispEdges"/>
<rect x="315.5" y="293.5" width="287" height="131" rx="7.5" stroke="url(#paint11_linear_3550_110856)" stroke-opacity="0.1" shape-rendering="crispEdges"/>
<circle cx="459" cy="343" r="23.5" transform="rotate(-180 459 343)" stroke="#B1B1B1" stroke-opacity="0.2"/>
<path d="M459.004 353H452.004C451.739 353 451.484 352.895 451.297 352.707C451.109 352.52 451.004 352.265 451.004 352V334C451.004 333.735 451.109 333.48 451.297 333.293C451.484 333.105 451.739 333 452.004 333H466.004C466.269 333 466.523 333.105 466.711 333.293C466.899 333.48 467.004 333.735 467.004 334V343" stroke="white" stroke-linecap="round" stroke-linejoin="round"/>
<path d="M455.008 339H463.008" stroke="white" stroke-width="0.9375" stroke-linecap="round"/>
<path d="M455.008 343H459.008" stroke="white" stroke-width="0.9375" stroke-linecap="round"/>
<g clip-path="url(#clip1_3550_110856)">
<path d="M465.305 353.301C467.514 353.301 469.305 351.51 469.305 349.301C469.305 347.092 467.514 345.301 465.305 345.301C463.096 345.301 461.305 347.092 461.305 349.301C461.305 351.51 463.096 353.301 465.305 353.301Z" stroke="white" stroke-width="0.7" stroke-linecap="round" stroke-linejoin="round"/>
<path d="M466.512 350.898L465.547 349.933C465.397 349.783 465.313 349.579 465.312 349.367V346.898" stroke="white" stroke-width="0.56" stroke-linecap="round" stroke-linejoin="round"/>
</g>
<path d="M422.068 395V383.8H426.452C427.252 383.8 427.972 383.933 428.612 384.2C429.263 384.467 429.817 384.851 430.276 385.352C430.735 385.853 431.087 386.445 431.332 387.128C431.577 387.811 431.7 388.568 431.7 389.4C431.7 390.232 431.577 390.995 431.332 391.688C431.087 392.371 430.735 392.963 430.276 393.464C429.828 393.955 429.279 394.333 428.628 394.6C427.977 394.867 427.252 395 426.452 395H422.068ZM423.796 393.512L423.748 393.336H426.372C426.937 393.336 427.439 393.245 427.876 393.064C428.324 392.883 428.697 392.627 428.996 392.296C429.305 391.955 429.54 391.539 429.7 391.048C429.86 390.557 429.94 390.008 429.94 389.4C429.94 388.792 429.86 388.248 429.7 387.768C429.54 387.277 429.305 386.861 428.996 386.52C428.687 386.179 428.313 385.917 427.876 385.736C427.439 385.555 426.937 385.464 426.372 385.464H423.7L423.796 385.32V393.512ZM433.621 395V386.6H435.285V389.24L435.125 388.6C435.242 388.195 435.439 387.827 435.717 387.496C436.005 387.165 436.33 386.904 436.693 386.712C437.066 386.52 437.45 386.424 437.845 386.424C438.026 386.424 438.197 386.44 438.357 386.472C438.527 386.504 438.661 386.541 438.757 386.584L438.325 388.376C438.197 388.323 438.053 388.28 437.893 388.248C437.743 388.205 437.594 388.184 437.445 388.184C437.157 388.184 436.879 388.243 436.613 388.36C436.357 388.467 436.127 388.621 435.925 388.824C435.733 389.016 435.578 389.245 435.461 389.512C435.343 389.768 435.285 390.051 435.285 390.36V395H433.621ZM442.947 395.16C442.253 395.16 441.619 394.968 441.043 394.584C440.477 394.2 440.024 393.677 439.683 393.016C439.341 392.355 439.171 391.608 439.171 390.776C439.171 389.933 439.341 389.187 439.683 388.536C440.035 387.875 440.504 387.357 441.091 386.984C441.688 386.611 442.355 386.424 443.091 386.424C443.528 386.424 443.928 386.488 444.291 386.616C444.653 386.744 444.968 386.925 445.235 387.16C445.512 387.384 445.736 387.645 445.907 387.944C446.088 388.243 446.2 388.563 446.243 388.904L445.875 388.776V386.6H447.539V395H445.875V393L446.259 392.888C446.195 393.176 446.061 393.459 445.859 393.736C445.667 394.003 445.416 394.243 445.107 394.456C444.808 394.669 444.472 394.84 444.099 394.968C443.736 395.096 443.352 395.16 442.947 395.16ZM443.379 393.64C443.88 393.64 444.323 393.517 444.707 393.272C445.091 393.027 445.389 392.691 445.603 392.264C445.827 391.827 445.939 391.331 445.939 390.776C445.939 390.232 445.827 389.747 445.603 389.32C445.389 388.893 445.091 388.557 444.707 388.312C444.323 388.067 443.88 387.944 443.379 387.944C442.888 387.944 442.451 388.067 442.067 388.312C441.693 388.557 441.395 388.893 441.171 389.32C440.957 389.747 440.851 390.232 440.851 390.776C440.851 391.331 440.957 391.827 441.171 392.264C441.395 392.691 441.693 393.027 442.067 393.272C442.451 393.517 442.888 393.64 443.379 393.64ZM450.752 395V385.656C450.752 385.176 450.858 384.749 451.072 384.376C451.285 384.003 451.578 383.709 451.952 383.496C452.325 383.283 452.757 383.176 453.248 383.176C453.589 383.176 453.909 383.24 454.208 383.368C454.506 383.496 454.746 383.667 454.928 383.88L454.368 385.144C454.229 385.016 454.074 384.915 453.904 384.84C453.744 384.755 453.589 384.712 453.44 384.712C453.216 384.712 453.024 384.749 452.864 384.824C452.714 384.888 452.602 384.995 452.528 385.144C452.453 385.283 452.416 385.453 452.416 385.656V395H451.584C451.445 395 451.306 395 451.168 395C451.029 395 450.89 395 450.752 395ZM449.408 388.264V386.744H454.4V388.264H449.408ZM457.208 395V384.456H458.856V395H457.208ZM455.464 388.2V386.6H460.808V388.2H455.464ZM467.209 395V383.8H471.881C472.595 383.8 473.198 383.907 473.689 384.12C474.179 384.333 474.547 384.653 474.793 385.08C475.049 385.496 475.177 386.008 475.177 386.616C475.177 387.224 475.006 387.741 474.665 388.168C474.334 388.595 473.87 388.888 473.273 389.048V388.728C473.774 388.835 474.211 389.027 474.585 389.304C474.958 389.571 475.246 389.907 475.449 390.312C475.662 390.717 475.769 391.181 475.769 391.704C475.769 392.237 475.683 392.712 475.513 393.128C475.353 393.533 475.107 393.875 474.777 394.152C474.457 394.429 474.067 394.643 473.609 394.792C473.15 394.931 472.627 395 472.041 395H467.209ZM468.937 393.336H471.945C472.382 393.336 472.75 393.272 473.049 393.144C473.358 393.016 473.593 392.829 473.753 392.584C473.923 392.328 474.009 392.024 474.009 391.672C474.009 391.341 473.918 391.059 473.737 390.824C473.566 390.589 473.321 390.413 473.001 390.296C472.681 390.168 472.302 390.104 471.865 390.104H468.937V393.336ZM468.937 388.44H471.785C472.105 388.44 472.387 388.376 472.633 388.248C472.889 388.12 473.086 387.944 473.225 387.72C473.374 387.496 473.449 387.24 473.449 386.952C473.449 386.472 473.289 386.104 472.969 385.848C472.649 385.592 472.19 385.464 471.593 385.464H468.937V388.44ZM477.955 395V386.6H479.603V395H477.955ZM478.755 384.744C478.403 384.744 478.131 384.653 477.939 384.472C477.747 384.291 477.651 384.035 477.651 383.704C477.651 383.395 477.747 383.144 477.939 382.952C478.142 382.76 478.414 382.664 478.755 382.664C479.107 382.664 479.379 382.755 479.571 382.936C479.763 383.117 479.859 383.373 479.859 383.704C479.859 384.013 479.758 384.264 479.555 384.456C479.363 384.648 479.097 384.744 478.755 384.744ZM482.168 395V383.16H483.816V395H482.168ZM486.184 395V383.16H487.832V395H486.184ZM492.968 395.16C492.264 395.16 491.629 395.037 491.064 394.792C490.498 394.547 490.029 394.184 489.656 393.704L490.776 392.744C491.096 393.117 491.442 393.389 491.816 393.56C492.2 393.72 492.632 393.8 493.112 393.8C493.304 393.8 493.48 393.779 493.64 393.736C493.81 393.683 493.954 393.608 494.072 393.512C494.2 393.416 494.296 393.304 494.36 393.176C494.424 393.037 494.456 392.888 494.456 392.728C494.456 392.451 494.354 392.227 494.152 392.056C494.045 391.981 493.874 391.901 493.64 391.816C493.416 391.72 493.122 391.624 492.76 391.528C492.141 391.368 491.634 391.187 491.24 390.984C490.845 390.781 490.541 390.552 490.328 390.296C490.168 390.093 490.05 389.875 489.976 389.64C489.901 389.395 489.864 389.128 489.864 388.84C489.864 388.488 489.938 388.168 490.088 387.88C490.248 387.581 490.461 387.325 490.728 387.112C491.005 386.888 491.325 386.717 491.688 386.6C492.061 386.483 492.456 386.424 492.872 386.424C493.266 386.424 493.656 386.477 494.04 386.584C494.434 386.691 494.797 386.845 495.128 387.048C495.458 387.251 495.736 387.491 495.96 387.768L495.016 388.808C494.813 388.605 494.589 388.429 494.344 388.28C494.109 388.12 493.869 387.997 493.624 387.912C493.378 387.827 493.154 387.784 492.952 387.784C492.728 387.784 492.525 387.805 492.344 387.848C492.162 387.891 492.008 387.955 491.88 388.04C491.762 388.125 491.672 388.232 491.608 388.36C491.544 388.488 491.512 388.632 491.512 388.792C491.522 388.931 491.554 389.064 491.608 389.192C491.672 389.309 491.757 389.411 491.864 389.496C491.981 389.581 492.157 389.672 492.392 389.768C492.626 389.864 492.925 389.955 493.288 390.04C493.821 390.179 494.258 390.333 494.6 390.504C494.952 390.664 495.229 390.851 495.432 391.064C495.645 391.267 495.794 391.501 495.88 391.768C495.965 392.035 496.008 392.333 496.008 392.664C496.008 393.144 495.869 393.576 495.592 393.96C495.325 394.333 494.962 394.627 494.504 394.84C494.045 395.053 493.533 395.16 492.968 395.16Z" fill="white"/>
</g>
<defs>
<filter id="filter0_ddd_3550_110856" x="0" y="0" width="302" height="146" filterUnits="userSpaceOnUse" color-interpolation-filters="sRGB">
<feFlood flood-opacity="0" result="BackgroundImageFix"/>
<feColorMatrix in="SourceAlpha" type="matrix" values="0 0 0 0 0 0 0 0 0 0 0 0 0 0 0 0 0 0 127 0" result="hardAlpha"/>
<feMorphology radius="1" operator="dilate" in="SourceAlpha" result="effect1_dropShadow_3550_110856"/>
<feOffset/>
<feComposite in2="hardAlpha" operator="out"/>
<feColorMatrix type="matrix" values="0 0 0 0 0.0627451 0 0 0 0 0.0980392 0 0 0 0 0.156863 0 0 0 0.05 0"/>
<feBlend mode="normal" in2="BackgroundImageFix" result="effect1_dropShadow_3550_110856"/>
<feColorMatrix in="SourceAlpha" type="matrix" values="0 0 0 0 0 0 0 0 0 0 0 0 0 0 0 0 0 0 127 0" result="hardAlpha"/>
<feOffset dy="2"/>
<feGaussianBlur stdDeviation="3.5"/>
<feComposite in2="hardAlpha" operator="out"/>
<feColorMatrix type="matrix" values="0 0 0 0 0.0627451 0 0 0 0 0.0980392 0 0 0 0 0.156863 0 0 0 0.05 0"/>
<feBlend mode="normal" in2="effect1_dropShadow_3550_110856" result="effect2_dropShadow_3550_110856"/>
<feColorMatrix in="SourceAlpha" type="matrix" values="0 0 0 0 0 0 0 0 0 0 0 0 0 0 0 0 0 0 127 0" result="hardAlpha"/>
<feMorphology radius="2" operator="erode" in="SourceAlpha" result="effect3_dropShadow_3550_110856"/>
<feOffset dy="2"/>
<feGaussianBlur stdDeviation="2.5"/>
<feComposite in2="hardAlpha" operator="out"/>
<feColorMatrix type="matrix" values="0 0 0 0 0.0627451 0 0 0 0 0.0980392 0 0 0 0 0.156863 0 0 0 0.06 0"/>
<feBlend mode="normal" in2="effect2_dropShadow_3550_110856" result="effect3_dropShadow_3550_110856"/>
<feBlend mode="normal" in="SourceGraphic" in2="effect3_dropShadow_3550_110856" result="shape"/>
</filter>
<filter id="filter1_ddd_3550_110856" x="0" y="144" width="302" height="146" filterUnits="userSpaceOnUse" color-interpolation-filters="sRGB">
<feFlood flood-opacity="0" result="BackgroundImageFix"/>
<feColorMatrix in="SourceAlpha" type="matrix" values="0 0 0 0 0 0 0 0 0 0 0 0 0 0 0 0 0 0 127 0" result="hardAlpha"/>
<feMorphology radius="1" operator="dilate" in="SourceAlpha" result="effect1_dropShadow_3550_110856"/>
<feOffset/>
<feComposite in2="hardAlpha" operator="out"/>
<feColorMatrix type="matrix" values="0 0 0 0 0.0627451 0 0 0 0 0.0980392 0 0 0 0 0.156863 0 0 0 0.05 0"/>
<feBlend mode="normal" in2="BackgroundImageFix" result="effect1_dropShadow_3550_110856"/>
<feColorMatrix in="SourceAlpha" type="matrix" values="0 0 0 0 0 0 0 0 0 0 0 0 0 0 0 0 0 0 127 0" result="hardAlpha"/>
<feOffset dy="2"/>
<feGaussianBlur stdDeviation="3.5"/>
<feComposite in2="hardAlpha" operator="out"/>
<feColorMatrix type="matrix" values="0 0 0 0 0.0627451 0 0 0 0 0.0980392 0 0 0 0 0.156863 0 0 0 0.05 0"/>
<feBlend mode="normal" in2="effect1_dropShadow_3550_110856" result="effect2_dropShadow_3550_110856"/>
<feColorMatrix in="SourceAlpha" type="matrix" values="0 0 0 0 0 0 0 0 0 0 0 0 0 0 0 0 0 0 127 0" result="hardAlpha"/>
<feMorphology radius="2" operator="erode" in="SourceAlpha" result="effect3_dropShadow_3550_110856"/>
<feOffset dy="2"/>
<feGaussianBlur stdDeviation="2.5"/>
<feComposite in2="hardAlpha" operator="out"/>
<feColorMatrix type="matrix" values="0 0 0 0 0.0627451 0 0 0 0 0.0980392 0 0 0 0 0.156863 0 0 0 0.06 0"/>
<feBlend mode="normal" in2="effect2_dropShadow_3550_110856" result="effect3_dropShadow_3550_110856"/>
<feBlend mode="normal" in="SourceGraphic" in2="effect3_dropShadow_3550_110856" result="shape"/>
</filter>
<filter id="filter2_ddd_3550_110856" x="0" y="288" width="302" height="146" filterUnits="userSpaceOnUse" color-interpolation-filters="sRGB">
<feFlood flood-opacity="0" result="BackgroundImageFix"/>
<feColorMatrix in="SourceAlpha" type="matrix" values="0 0 0 0 0 0 0 0 0 0 0 0 0 0 0 0 0 0 127 0" result="hardAlpha"/>
<feMorphology radius="1" operator="dilate" in="SourceAlpha" result="effect1_dropShadow_3550_110856"/>
<feOffset/>
<feComposite in2="hardAlpha" operator="out"/>
<feColorMatrix type="matrix" values="0 0 0 0 0.0627451 0 0 0 0 0.0980392 0 0 0 0 0.156863 0 0 0 0.05 0"/>
<feBlend mode="normal" in2="BackgroundImageFix" result="effect1_dropShadow_3550_110856"/>
<feColorMatrix in="SourceAlpha" type="matrix" values="0 0 0 0 0 0 0 0 0 0 0 0 0 0 0 0 0 0 127 0" result="hardAlpha"/>
<feOffset dy="2"/>
<feGaussianBlur stdDeviation="3.5"/>
<feComposite in2="hardAlpha" operator="out"/>
<feColorMatrix type="matrix" values="0 0 0 0 0.0627451 0 0 0 0 0.0980392 0 0 0 0 0.156863 0 0 0 0.05 0"/>
<feBlend mode="normal" in2="effect1_dropShadow_3550_110856" result="effect2_dropShadow_3550_110856"/>
<feColorMatrix in="SourceAlpha" type="matrix" values="0 0 0 0 0 0 0 0 0 0 0 0 0 0 0 0 0 0 127 0" result="hardAlpha"/>
<feMorphology radius="2" operator="erode" in="SourceAlpha" result="effect3_dropShadow_3550_110856"/>
<feOffset dy="2"/>
<feGaussianBlur stdDeviation="2.5"/>
<feComposite in2="hardAlpha" operator="out"/>
<feColorMatrix type="matrix" values="0 0 0 0 0.0627451 0 0 0 0 0.0980392 0 0 0 0 0.156863 0 0 0 0.06 0"/>
<feBlend mode="normal" in2="effect2_dropShadow_3550_110856" result="effect3_dropShadow_3550_110856"/>
<feBlend mode="normal" in="SourceGraphic" in2="effect3_dropShadow_3550_110856" result="shape"/>
</filter>
<filter id="filter3_ddd_3550_110856" x="308" y="0" width="302" height="146" filterUnits="userSpaceOnUse" color-interpolation-filters="sRGB">
<feFlood flood-opacity="0" result="BackgroundImageFix"/>
<feColorMatrix in="SourceAlpha" type="matrix" values="0 0 0 0 0 0 0 0 0 0 0 0 0 0 0 0 0 0 127 0" result="hardAlpha"/>
<feMorphology radius="1" operator="dilate" in="SourceAlpha" result="effect1_dropShadow_3550_110856"/>
<feOffset/>
<feComposite in2="hardAlpha" operator="out"/>
<feColorMatrix type="matrix" values="0 0 0 0 0.0627451 0 0 0 0 0.0980392 0 0 0 0 0.156863 0 0 0 0.05 0"/>
<feBlend mode="normal" in2="BackgroundImageFix" result="effect1_dropShadow_3550_110856"/>
<feColorMatrix in="SourceAlpha" type="matrix" values="0 0 0 0 0 0 0 0 0 0 0 0 0 0 0 0 0 0 127 0" result="hardAlpha"/>
<feOffset dy="2"/>
<feGaussianBlur stdDeviation="3.5"/>
<feComposite in2="hardAlpha" operator="out"/>
<feColorMatrix type="matrix" values="0 0 0 0 0.0627451 0 0 0 0 0.0980392 0 0 0 0 0.156863 0 0 0 0.05 0"/>
<feBlend mode="normal" in2="effect1_dropShadow_3550_110856" result="effect2_dropShadow_3550_110856"/>
<feColorMatrix in="SourceAlpha" type="matrix" values="0 0 0 0 0 0 0 0 0 0 0 0 0 0 0 0 0 0 127 0" result="hardAlpha"/>
<feMorphology radius="2" operator="erode" in="SourceAlpha" result="effect3_dropShadow_3550_110856"/>
<feOffset dy="2"/>
<feGaussianBlur stdDeviation="2.5"/>
<feComposite in2="hardAlpha" operator="out"/>
<feColorMatrix type="matrix" values="0 0 0 0 0.0627451 0 0 0 0 0.0980392 0 0 0 0 0.156863 0 0 0 0.06 0"/>
<feBlend mode="normal" in2="effect2_dropShadow_3550_110856" result="effect3_dropShadow_3550_110856"/>
<feBlend mode="normal" in="SourceGraphic" in2="effect3_dropShadow_3550_110856" result="shape"/>
</filter>
<filter id="filter4_ddd_3550_110856" x="308" y="144" width="302" height="146" filterUnits="userSpaceOnUse" color-interpolation-filters="sRGB">
<feFlood flood-opacity="0" result="BackgroundImageFix"/>
<feColorMatrix in="SourceAlpha" type="matrix" values="0 0 0 0 0 0 0 0 0 0 0 0 0 0 0 0 0 0 127 0" result="hardAlpha"/>
<feMorphology radius="1" operator="dilate" in="SourceAlpha" result="effect1_dropShadow_3550_110856"/>
<feOffset/>
<feComposite in2="hardAlpha" operator="out"/>
<feColorMatrix type="matrix" values="0 0 0 0 0.0627451 0 0 0 0 0.0980392 0 0 0 0 0.156863 0 0 0 0.05 0"/>
<feBlend mode="normal" in2="BackgroundImageFix" result="effect1_dropShadow_3550_110856"/>
<feColorMatrix in="SourceAlpha" type="matrix" values="0 0 0 0 0 0 0 0 0 0 0 0 0 0 0 0 0 0 127 0" result="hardAlpha"/>
<feOffset dy="2"/>
<feGaussianBlur stdDeviation="3.5"/>
<feComposite in2="hardAlpha" operator="out"/>
<feColorMatrix type="matrix" values="0 0 0 0 0.0627451 0 0 0 0 0.0980392 0 0 0 0 0.156863 0 0 0 0.05 0"/>
<feBlend mode="normal" in2="effect1_dropShadow_3550_110856" result="effect2_dropShadow_3550_110856"/>
<feColorMatrix in="SourceAlpha" type="matrix" values="0 0 0 0 0 0 0 0 0 0 0 0 0 0 0 0 0 0 127 0" result="hardAlpha"/>
<feMorphology radius="2" operator="erode" in="SourceAlpha" result="effect3_dropShadow_3550_110856"/>
<feOffset dy="2"/>
<feGaussianBlur stdDeviation="2.5"/>
<feComposite in2="hardAlpha" operator="out"/>
<feColorMatrix type="matrix" values="0 0 0 0 0.0627451 0 0 0 0 0.0980392 0 0 0 0 0.156863 0 0 0 0.06 0"/>
<feBlend mode="normal" in2="effect2_dropShadow_3550_110856" result="effect3_dropShadow_3550_110856"/>
<feBlend mode="normal" in="SourceGraphic" in2="effect3_dropShadow_3550_110856" result="shape"/>
</filter>
<filter id="filter5_ddd_3550_110856" x="308" y="288" width="302" height="146" filterUnits="userSpaceOnUse" color-interpolation-filters="sRGB">
<feFlood flood-opacity="0" result="BackgroundImageFix"/>
<feColorMatrix in="SourceAlpha" type="matrix" values="0 0 0 0 0 0 0 0 0 0 0 0 0 0 0 0 0 0 127 0" result="hardAlpha"/>
<feMorphology radius="1" operator="dilate" in="SourceAlpha" result="effect1_dropShadow_3550_110856"/>
<feOffset/>
<feComposite in2="hardAlpha" operator="out"/>
<feColorMatrix type="matrix" values="0 0 0 0 0.0627451 0 0 0 0 0.0980392 0 0 0 0 0.156863 0 0 0 0.05 0"/>
<feBlend mode="normal" in2="BackgroundImageFix" result="effect1_dropShadow_3550_110856"/>
<feColorMatrix in="SourceAlpha" type="matrix" values="0 0 0 0 0 0 0 0 0 0 0 0 0 0 0 0 0 0 127 0" result="hardAlpha"/>
<feOffset dy="2"/>
<feGaussianBlur stdDeviation="3.5"/>
<feComposite in2="hardAlpha" operator="out"/>
<feColorMatrix type="matrix" values="0 0 0 0 0.0627451 0 0 0 0 0.0980392 0 0 0 0 0.156863 0 0 0 0.05 0"/>
<feBlend mode="normal" in2="effect1_dropShadow_3550_110856" result="effect2_dropShadow_3550_110856"/>
<feColorMatrix in="SourceAlpha" type="matrix" values="0 0 0 0 0 0 0 0 0 0 0 0 0 0 0 0 0 0 127 0" result="hardAlpha"/>
<feMorphology radius="2" operator="erode" in="SourceAlpha" result="effect3_dropShadow_3550_110856"/>
<feOffset dy="2"/>
<feGaussianBlur stdDeviation="2.5"/>
<feComposite in2="hardAlpha" operator="out"/>
<feColorMatrix type="matrix" values="0 0 0 0 0.0627451 0 0 0 0 0.0980392 0 0 0 0 0.156863 0 0 0 0.06 0"/>
<feBlend mode="normal" in2="effect2_dropShadow_3550_110856" result="effect3_dropShadow_3550_110856"/>
<feBlend mode="normal" in="SourceGraphic" in2="effect3_dropShadow_3550_110856" result="shape"/>
</filter>
<linearGradient id="paint0_linear_3550_110856" x1="-64" y1="-46.2892" x2="245.92" y2="215.672" gradientUnits="userSpaceOnUse">
<stop stop-color="white"/>
<stop offset="1" stop-color="white" stop-opacity="0"/>
</linearGradient>
<linearGradient id="paint1_linear_3550_110856" x1="-313" y1="-141.313" x2="220.152" y2="236.934" gradientUnits="userSpaceOnUse">
<stop stop-color="white"/>
<stop offset="1" stop-color="white" stop-opacity="0"/>
</linearGradient>
<linearGradient id="paint2_linear_3550_110856" x1="-64" y1="97.7108" x2="245.92" y2="359.672" gradientUnits="userSpaceOnUse">
<stop stop-color="white"/>
<stop offset="1" stop-color="white" stop-opacity="0"/>
</linearGradient>
<linearGradient id="paint3_linear_3550_110856" x1="-313" y1="2.68672" x2="220.152" y2="380.934" gradientUnits="userSpaceOnUse">
<stop stop-color="white"/>
<stop offset="1" stop-color="white" stop-opacity="0"/>
</linearGradient>
<linearGradient id="paint4_linear_3550_110856" x1="-64" y1="241.711" x2="245.92" y2="503.672" gradientUnits="userSpaceOnUse">
<stop stop-color="white"/>
<stop offset="1" stop-color="white" stop-opacity="0"/>
</linearGradient>
<linearGradient id="paint5_linear_3550_110856" x1="-313" y1="146.687" x2="220.152" y2="524.934" gradientUnits="userSpaceOnUse">
<stop stop-color="white"/>
<stop offset="1" stop-color="white" stop-opacity="0"/>
</linearGradient>
<linearGradient id="paint6_linear_3550_110856" x1="244" y1="-46.2892" x2="553.92" y2="215.672" gradientUnits="userSpaceOnUse">
<stop stop-color="white"/>
<stop offset="1" stop-color="white" stop-opacity="0"/>
</linearGradient>
<linearGradient id="paint7_linear_3550_110856" x1="-4.99999" y1="-141.313" x2="528.152" y2="236.934" gradientUnits="userSpaceOnUse">
<stop stop-color="white"/>
<stop offset="1" stop-color="white" stop-opacity="0"/>
</linearGradient>
<linearGradient id="paint8_linear_3550_110856" x1="244" y1="97.7108" x2="553.92" y2="359.672" gradientUnits="userSpaceOnUse">
<stop stop-color="white"/>
<stop offset="1" stop-color="white" stop-opacity="0"/>
</linearGradient>
<linearGradient id="paint9_linear_3550_110856" x1="-4.99999" y1="2.68672" x2="528.152" y2="380.934" gradientUnits="userSpaceOnUse">
<stop stop-color="white"/>
<stop offset="1" stop-color="white" stop-opacity="0"/>
</linearGradient>
<linearGradient id="paint10_linear_3550_110856" x1="244" y1="241.711" x2="553.92" y2="503.672" gradientUnits="userSpaceOnUse">
<stop stop-color="white"/>
<stop offset="1" stop-color="white" stop-opacity="0"/>
</linearGradient>
<linearGradient id="paint11_linear_3550_110856" x1="-4.99999" y1="146.687" x2="528.152" y2="524.934" gradientUnits="userSpaceOnUse">
<stop stop-color="white"/>
<stop offset="1" stop-color="white" stop-opacity="0"/>
</linearGradient>
<clipPath id="clip0_3550_110856">
<rect width="24" height="24" fill="white" transform="translate(447 187)"/>
</clipPath>
<clipPath id="clip1_3550_110856">
<rect width="9.6" height="9.6" fill="white" transform="translate(460.5 344.5)"/>
</clipPath>
</defs>
</svg>
