<svg width="25" height="24" viewBox="0 0 25 24" fill="none" xmlns="http://www.w3.org/2000/svg">
<path fill-rule="evenodd" clip-rule="evenodd" d="M15.668 22H2.66797V19C2.66797 17.3432 4.01111 16 5.66797 16H7.16797V2H22.668V20C22.668 21.1045 21.7725 22 20.668 22C19.5634 22 18.668 21.1045 18.668 20V18.5C18.668 17.6761 18.0037 17.0073 17.1814 17C16.3589 17 15.668 17.6719 15.668 18.5V22ZM14.3387 17.5C14.2281 17.8128 14.168 18.1494 14.168 18.5V20.5H4.16797V19C4.16797 18.1716 4.83954 17.5 5.66797 17.5H14.3387ZM10.668 8.25H19.168V9.75H10.668V8.25ZM10.668 5V6.5H15.668V5H10.668ZM17.168 5H19.168V6.5H17.168V5ZM10.668 11.5V13H13.668V11.5H10.668Z" fill="white"/>
</svg>
