<svg width="24" height="24" viewBox="0 0 24 24" fill="none" xmlns="http://www.w3.org/2000/svg">
<path fill-rule="evenodd" clip-rule="evenodd" d="M15 22H2V19C2 17.3432 3.34315 16 5 16H6.5V2H22V20C22 21.1045 21.1045 22 20 22C18.8955 22 18 21.1045 18 20V18.5C18 17.6761 17.3357 17.0073 16.5135 17C15.691 17 15 17.6719 15 18.5V22ZM13.6707 17.5C13.5602 17.8128 13.5 18.1494 13.5 18.5V20.5H3.5V19C3.5 18.1716 4.17158 17.5 5 17.5H13.6707ZM10 8.25H18.5V9.75H10V8.25ZM10 5V6.5H15V5H10ZM16.5 5H18.5V6.5H16.5V5ZM10 11.5V13H13V11.5H10Z" fill="white"/>
</svg>
