<svg width="596" height="260" viewBox="0 0 596 260" fill="none" xmlns="http://www.w3.org/2000/svg">
<path d="M0 8C0 3.58172 3.58172 0 8 0H588C592.418 0 596 3.58172 596 8V252C596 256.418 592.418 260 588 260H8.00002C3.58174 260 0 256.418 0 252V8Z" fill="url(#paint0_linear_3550_114012)" fill-opacity="0.1"/>
<path d="M17.2 34V22.8H18.88V32.4H24.32V34H17.2ZM25.6806 34V26H27.2806V34H25.6806ZM25.6006 24.48V22.8H27.3606V24.48H25.6006ZM31.2081 34L28.4081 26H30.0881L32.2481 32.24H32.5681L34.7281 26H36.4081L33.6081 34H31.2081ZM38.5681 29.36H43.2881C43.2028 28.7093 42.9521 28.1867 42.5361 27.792C42.1201 27.3973 41.5975 27.2 40.9681 27.2C40.3068 27.2 39.7735 27.3973 39.3681 27.792C38.9628 28.176 38.6961 28.6987 38.5681 29.36ZM42.8881 31.68H44.5681C44.3335 32.32 43.9068 32.896 43.2881 33.408C42.6801 33.9093 41.9068 34.16 40.9681 34.16C39.8055 34.16 38.8455 33.776 38.0881 33.008C37.3415 32.24 36.9681 31.2373 36.9681 30C36.9681 28.7627 37.3415 27.76 38.0881 26.992C38.8455 26.224 39.8055 25.84 40.9681 25.84C42.0561 25.84 42.9681 26.2133 43.7041 26.96C44.4401 27.7067 44.8081 28.64 44.8081 29.76C44.8081 29.856 44.7921 30.048 44.7601 30.336L44.7281 30.56H38.5681C38.6535 31.2427 38.9148 31.7867 39.3521 32.192C39.7895 32.5973 40.3281 32.8 40.9681 32.8C41.4161 32.8 41.8108 32.6933 42.1521 32.48C42.5041 32.256 42.7495 31.9893 42.8881 31.68ZM50.4188 34V22.8H52.0988V32.4H57.5388V34H50.4188ZM60.4589 31.984C60.9175 32.4747 61.4935 32.72 62.1869 32.72C62.8802 32.72 63.4509 32.4747 63.8989 31.984C64.3575 31.4827 64.5869 30.8213 64.5869 30C64.5869 29.1787 64.3575 28.5227 63.8989 28.032C63.4509 27.5307 62.8802 27.28 62.1869 27.28C61.4935 27.28 60.9175 27.5307 60.4589 28.032C60.0109 28.5227 59.7869 29.1787 59.7869 30C59.7869 30.8213 60.0109 31.4827 60.4589 31.984ZM65.0509 33.008C64.3042 33.776 63.3495 34.16 62.1869 34.16C61.0242 34.16 60.0642 33.776 59.3069 33.008C58.5602 32.24 58.1869 31.2373 58.1869 30C58.1869 28.7627 58.5602 27.76 59.3069 26.992C60.0642 26.224 61.0242 25.84 62.1869 25.84C63.3495 25.84 64.3042 26.224 65.0509 26.992C65.8082 27.76 66.1869 28.7627 66.1869 30C66.1869 31.2373 65.8082 32.24 65.0509 33.008ZM73.5481 31.2H75.1481C75.0735 31.5307 74.9508 31.856 74.7801 32.176C74.6201 32.496 74.3961 32.8107 74.1081 33.12C73.8308 33.4293 73.4628 33.68 73.0041 33.872C72.5455 34.064 72.0335 34.16 71.4681 34.16C70.3055 34.16 69.3455 33.776 68.5881 33.008C67.8415 32.24 67.4681 31.2373 67.4681 30C67.4681 28.7627 67.8415 27.76 68.5881 26.992C69.3455 26.224 70.3055 25.84 71.4681 25.84C72.5348 25.84 73.3721 26.144 73.9801 26.752C74.5881 27.3493 74.9775 28.0053 75.1481 28.72H73.5481C73.2068 27.76 72.5135 27.28 71.4681 27.28C70.7748 27.28 70.1988 27.5307 69.7401 28.032C69.2921 28.5227 69.0681 29.1787 69.0681 30C69.0681 30.8213 69.2921 31.4827 69.7401 31.984C70.1988 32.4747 70.7748 32.72 71.4681 32.72C72.0441 32.72 72.5081 32.5653 72.8601 32.256C73.2121 31.9467 73.4415 31.5947 73.5481 31.2ZM81.9431 34L81.7831 33.12H81.7031C81.5431 33.3227 81.3511 33.4987 81.1271 33.648C80.6151 33.9893 80.0071 34.16 79.3031 34.16C78.4285 34.16 77.7298 33.9307 77.2071 33.472C76.6845 33.0133 76.4231 32.416 76.4231 31.68C76.4231 30.8587 76.6951 30.2133 77.2391 29.744C77.7938 29.2747 78.6151 29.04 79.7031 29.04H81.7031V28.88C81.7031 28.3573 81.5538 27.9467 81.2551 27.648C80.9565 27.3493 80.5458 27.2 80.0231 27.2C79.5111 27.2 79.1165 27.3173 78.8391 27.552C78.5618 27.776 78.3965 28.032 78.3431 28.32H76.7431C76.7858 27.616 77.1005 27.0293 77.6871 26.56C78.2738 26.08 79.0525 25.84 80.0231 25.84C81.0578 25.84 81.8631 26.112 82.4391 26.656C83.0151 27.2 83.3031 27.9413 83.3031 28.88V34H81.9431ZM81.7031 30.64V30.32H79.7831C79.1965 30.32 78.7538 30.4373 78.4551 30.672C78.1671 30.9067 78.0231 31.216 78.0231 31.6C78.0231 31.9733 78.1458 32.2667 78.3911 32.48C78.6365 32.6933 78.9938 32.8 79.4631 32.8C80.1885 32.8 80.7431 32.6133 81.1271 32.24C81.5111 31.856 81.7031 31.3227 81.7031 30.64ZM85.6331 32.32V27.52H84.3531V26H85.6331V23.76H87.2331V26H89.0731V27.52H87.2331V32.08C87.2331 32.4 87.3931 32.56 87.7131 32.56H89.0731V34H87.3931C86.8278 34 86.3905 33.8507 86.0811 33.552C85.7825 33.2533 85.6331 32.8427 85.6331 32.32ZM90.8369 34V26H92.4369V34H90.8369ZM90.7569 24.48V22.8H92.5169V24.48H90.7569ZM96.3964 31.984C96.855 32.4747 97.431 32.72 98.1244 32.72C98.8177 32.72 99.3884 32.4747 99.8364 31.984C100.295 31.4827 100.524 30.8213 100.524 30C100.524 29.1787 100.295 28.5227 99.8364 28.032C99.3884 27.5307 98.8177 27.28 98.1244 27.28C97.431 27.28 96.855 27.5307 96.3964 28.032C95.9484 28.5227 95.7244 29.1787 95.7244 30C95.7244 30.8213 95.9484 31.4827 96.3964 31.984ZM100.988 33.008C100.242 33.776 99.287 34.16 98.1244 34.16C96.9617 34.16 96.0017 33.776 95.2444 33.008C94.4977 32.24 94.1244 31.2373 94.1244 30C94.1244 28.7627 94.4977 27.76 95.2444 26.992C96.0017 26.224 96.9617 25.84 98.1244 25.84C99.287 25.84 100.242 26.224 100.988 26.992C101.746 27.76 102.124 28.7627 102.124 30C102.124 31.2373 101.746 32.24 100.988 33.008ZM103.806 34V26H105.246L105.406 26.8H105.486C105.667 26.6187 105.864 26.4587 106.078 26.32C106.59 26 107.166 25.84 107.806 25.84C108.776 25.84 109.55 26.144 110.126 26.752C110.712 27.3493 111.006 28.1653 111.006 29.2V34H109.406V29.2C109.406 28.6773 109.219 28.2293 108.846 27.856C108.483 27.472 108.03 27.28 107.486 27.28C106.899 27.28 106.403 27.472 105.998 27.856C105.603 28.2293 105.406 28.6773 105.406 29.2V34H103.806ZM119.25 34L115.33 22.8H117.17L120.37 32.08H120.69L123.89 22.8H125.73L121.81 34H119.25ZM126.853 34V26H128.453V34H126.853ZM126.773 24.48V22.8H128.533V24.48H126.773ZM131.74 29.36H136.46C136.375 28.7093 136.124 28.1867 135.708 27.792C135.292 27.3973 134.769 27.2 134.14 27.2C133.479 27.2 132.945 27.3973 132.54 27.792C132.135 28.176 131.868 28.6987 131.74 29.36ZM136.06 31.68H137.74C137.505 32.32 137.079 32.896 136.46 33.408C135.852 33.9093 135.079 34.16 134.14 34.16C132.977 34.16 132.017 33.776 131.26 33.008C130.513 32.24 130.14 31.2373 130.14 30C130.14 28.7627 130.513 27.76 131.26 26.992C132.017 26.224 132.977 25.84 134.14 25.84C135.228 25.84 136.14 26.2133 136.876 26.96C137.612 27.7067 137.98 28.64 137.98 29.76C137.98 29.856 137.964 30.048 137.932 30.336L137.9 30.56H131.74C131.825 31.2427 132.087 31.7867 132.524 32.192C132.961 32.5973 133.5 32.8 134.14 32.8C134.588 32.8 134.983 32.6933 135.324 32.48C135.676 32.256 135.921 31.9893 136.06 31.68ZM140.789 34L138.629 26H140.309L141.829 31.92H142.149L143.717 26H145.861L147.429 31.92H147.749L149.269 26H150.949L148.789 34H146.469L144.949 28.24H144.629L143.109 34H140.789Z" fill="white"/>
<mask id="path-3-inside-1_3550_114012" fill="white">
<path d="M0 48H596V104H0V48Z"/>
</mask>
<path d="M0 48V49H596V48V47H0V48ZM596 104V103H0V104V105H596V104Z" fill="#B1B1B1" fill-opacity="0.2" mask="url(#path-3-inside-1_3550_114012)"/>
<path d="M30.9993 78.5007C31.4596 78.5007 31.8327 78.1276 31.8327 77.6673C31.8327 77.2071 31.4596 76.834 30.9993 76.834C30.5391 76.834 30.166 77.2071 30.166 77.6673C30.166 78.1276 30.5391 78.5007 30.9993 78.5007Z" fill="white"/>
<path d="M27.6663 78.5007C28.1266 78.5007 28.4997 78.1276 28.4997 77.6673C28.4997 77.2071 28.1266 76.834 27.6663 76.834C27.2061 76.834 26.833 77.2071 26.833 77.6673C26.833 78.1276 27.2061 78.5007 27.6663 78.5007Z" fill="white"/>
<path d="M24.3333 78.5007C24.7936 78.5007 25.1667 78.1276 25.1667 77.6673C25.1667 77.2071 24.7936 76.834 24.3333 76.834C23.8731 76.834 23.5 77.2071 23.5 77.6673C23.5 78.1276 23.8731 78.5007 24.3333 78.5007Z" fill="white"/>
<path d="M20.9993 78.5007C21.4596 78.5007 21.8327 78.1276 21.8327 77.6673C21.8327 77.2071 21.4596 76.834 20.9993 76.834C20.5391 76.834 20.166 77.2071 20.166 77.6673C20.166 78.1276 20.5391 78.5007 20.9993 78.5007Z" fill="white"/>
<path d="M27.6663 81.8346C28.1266 81.8346 28.4997 81.4616 28.4997 81.0013C28.4997 80.5411 28.1266 80.168 27.6663 80.168C27.2061 80.168 26.833 80.5411 26.833 81.0013C26.833 81.4616 27.2061 81.8346 27.6663 81.8346Z" fill="white"/>
<path d="M24.3333 81.8346C24.7936 81.8346 25.1667 81.4616 25.1667 81.0013C25.1667 80.5411 24.7936 80.168 24.3333 80.168C23.8731 80.168 23.5 80.5411 23.5 81.0013C23.5 81.4616 23.8731 81.8346 24.3333 81.8346Z" fill="white"/>
<path d="M20.9993 81.8346C21.4596 81.8346 21.8327 81.4616 21.8327 81.0013C21.8327 80.5411 21.4596 80.168 20.9993 80.168C20.5391 80.168 20.166 80.5411 20.166 81.0013C20.166 81.4616 20.5391 81.8346 20.9993 81.8346Z" fill="white"/>
<path fill-rule="evenodd" clip-rule="evenodd" d="M32.6663 69.752C34.047 69.752 35.1663 70.8712 35.1663 72.252V82.252C35.1663 83.6327 34.047 84.752 32.6663 84.752H19.333C17.9523 84.752 16.833 83.6327 16.833 82.252V72.252C16.833 70.8712 17.9523 69.752 19.333 69.752H32.6663ZM18.083 75.1686V82.252C18.083 82.9423 18.6427 83.502 19.333 83.502H32.6663C33.3567 83.502 33.9163 82.9423 33.9163 82.252V75.1686H18.083ZM31.208 71.002H29.958V73.0853H31.208V71.002ZM22.0413 71.002H20.7913V73.0853H22.0413V71.002Z" fill="white"/>
<path fill-rule="evenodd" clip-rule="evenodd" d="M22.041 67.668V71.0013H20.791V67.668H22.041Z" fill="white"/>
<path fill-rule="evenodd" clip-rule="evenodd" d="M31.208 67.668V71.0013H29.958V67.668H31.208Z" fill="white"/>
<path d="M51.78 72V63.04H48.42V62.2H55.98V63.04H52.62V72H51.78ZM56.6805 69.2V65H57.5205V69.2C57.5205 69.8347 57.7072 70.3433 58.0805 70.726C58.4632 71.1087 58.9532 71.3 59.5505 71.3C60.1852 71.3 60.7032 71.0993 61.1045 70.698C61.5152 70.2967 61.7205 69.7973 61.7205 69.2V65H62.5605V72H61.8605L61.7205 71.09H61.6505C61.5199 71.2953 61.3519 71.4727 61.1465 71.622C60.6892 71.9673 60.1339 72.14 59.4805 72.14C58.6685 72.14 57.9965 71.8693 57.4645 71.328C56.9419 70.7773 56.6805 70.068 56.6805 69.2ZM65.1516 68.08H69.9816C69.9443 67.38 69.7016 66.8107 69.2536 66.372C68.815 65.924 68.2643 65.7 67.6016 65.7C66.9296 65.7 66.3696 65.9147 65.9216 66.344C65.483 66.764 65.2263 67.3427 65.1516 68.08ZM69.7016 70.04H70.6116C70.4063 70.6187 70.0563 71.1133 69.5616 71.524C69.0763 71.9347 68.423 72.14 67.6016 72.14C66.631 72.14 65.8376 71.8087 65.2216 71.146C64.615 70.4833 64.3116 69.6013 64.3116 68.5C64.3116 67.3987 64.615 66.5167 65.2216 65.854C65.8376 65.1913 66.631 64.86 67.6016 64.86C68.5256 64.86 69.291 65.1867 69.8976 65.84C70.5136 66.484 70.8216 67.324 70.8216 68.36C70.8216 68.5 70.8123 68.6353 70.7936 68.766C70.7843 68.8033 70.7796 68.8547 70.7796 68.92H65.1516C65.2263 69.6387 65.4923 70.2173 65.9496 70.656C66.407 71.0853 66.9576 71.3 67.6016 71.3C68.115 71.3 68.549 71.174 68.9036 70.922C69.2583 70.67 69.5243 70.376 69.7016 70.04ZM72.0073 69.97H72.8053C72.8053 70.3433 72.9826 70.6607 73.3373 70.922C73.6919 71.174 74.1586 71.3 74.7373 71.3C75.3346 71.3 75.7873 71.188 76.0953 70.964C76.4033 70.74 76.5573 70.4553 76.5573 70.11C76.5573 69.5407 76.1606 69.1767 75.3673 69.018L73.9673 68.738C73.3606 68.6167 72.9033 68.4067 72.5953 68.108C72.2966 67.8 72.1473 67.3707 72.1473 66.82C72.1473 66.2693 72.3713 65.8073 72.8193 65.434C73.2766 65.0513 73.8926 64.86 74.6673 64.86C75.4793 64.86 76.1233 65.07 76.5993 65.49C77.0846 65.9007 77.3273 66.414 77.3273 67.03H76.4873C76.4873 66.6567 76.3239 66.344 75.9973 66.092C75.6799 65.8307 75.2366 65.7 74.6673 65.7C74.1353 65.7 73.7199 65.812 73.4213 66.036C73.1319 66.26 72.9873 66.5213 72.9873 66.82C72.9873 67.4173 73.3606 67.7907 74.1073 67.94L75.5073 68.22C76.1793 68.3507 76.6599 68.5653 76.9493 68.864C77.2479 69.1627 77.3973 69.578 77.3973 70.11C77.3973 70.698 77.1639 71.1833 76.6973 71.566C76.2306 71.9487 75.5773 72.14 74.7373 72.14C73.9253 72.14 73.2673 71.9253 72.7633 71.496C72.2593 71.0667 72.0073 70.558 72.0073 69.97ZM80.1654 70.544C80.6134 71.048 81.1828 71.3 81.8734 71.3C82.5641 71.3 83.1334 71.048 83.5814 70.544C84.0294 70.04 84.2534 69.3587 84.2534 68.5C84.2534 67.6413 84.0294 66.96 83.5814 66.456C83.1334 65.952 82.5641 65.7 81.8734 65.7C81.1828 65.7 80.6134 65.952 80.1654 66.456C79.7174 66.96 79.4934 67.6413 79.4934 68.5C79.4934 69.3587 79.7174 70.04 80.1654 70.544ZM84.3934 72L84.2534 70.88H84.1834C83.5768 71.72 82.7834 72.14 81.8034 72.14C80.9074 72.14 80.1561 71.8087 79.5494 71.146C78.9521 70.474 78.6534 69.592 78.6534 68.5C78.6534 67.408 78.9521 66.5307 79.5494 65.868C80.1561 65.196 80.9074 64.86 81.8034 64.86C82.7834 64.86 83.5768 65.28 84.1834 66.12H84.2534V62.2H85.0934V72H84.3934ZM91.9513 72L91.8113 71.02H91.7413C91.6013 71.216 91.4099 71.4027 91.1673 71.58C90.6446 71.9533 90.0659 72.14 89.4313 72.14C88.7126 72.14 88.1339 71.9393 87.6953 71.538C87.2659 71.1367 87.0513 70.614 87.0513 69.97C87.0513 69.3073 87.2846 68.78 87.7513 68.388C88.2179 67.996 88.8946 67.8 89.7812 67.8H91.8113V67.52C91.8113 66.3067 91.2046 65.7 89.9913 65.7C89.4406 65.7 88.9973 65.8213 88.6613 66.064C88.3346 66.3067 88.1479 66.6287 88.1013 67.03H87.2613C87.3453 66.4047 87.6206 65.8867 88.0873 65.476C88.5539 65.0653 89.1886 64.86 89.9913 64.86C90.8406 64.86 91.4939 65.0933 91.9513 65.56C92.4179 66.0173 92.6513 66.6707 92.6513 67.52V72H91.9513ZM91.8113 68.92V68.57H89.7812C89.1653 68.57 88.6939 68.7007 88.3673 68.962C88.0499 69.2233 87.8913 69.5593 87.8913 69.97C87.8913 70.3713 88.0266 70.6933 88.2973 70.936C88.5679 71.1787 88.9459 71.3 89.4313 71.3C90.1686 71.3 90.7473 71.09 91.1673 70.67C91.5966 70.2407 91.8113 69.6573 91.8113 68.92ZM94.34 74.8V73.96H95.53C95.6887 73.96 95.8053 73.9227 95.88 73.848C95.964 73.7733 96.034 73.6613 96.09 73.512L96.468 72.448L93.64 65H94.48L96.72 70.95H97L99.1 65H99.94L96.79 73.89C96.566 74.4967 96.146 74.8 95.53 74.8H94.34ZM109.979 63.404C110.698 64.2907 111.057 65.5227 111.057 67.1C111.057 68.6773 110.698 69.914 109.979 70.81C109.26 71.6967 108.383 72.14 107.347 72.14C106.311 72.14 105.434 71.6967 104.715 70.81C103.996 69.914 103.637 68.6773 103.637 67.1C103.637 65.5227 103.996 64.2907 104.715 63.404C105.434 62.508 106.311 62.06 107.347 62.06C108.383 62.06 109.26 62.508 109.979 63.404ZM104.477 67.1C104.477 68.4347 104.757 69.4707 105.317 70.208C105.886 70.936 106.563 71.3 107.347 71.3C108.131 71.3 108.803 70.936 109.363 70.208C109.932 69.4707 110.217 68.4347 110.217 67.1C110.217 65.784 109.932 64.7573 109.363 64.02C108.803 63.2733 108.131 62.9 107.347 62.9C106.563 62.9 105.886 63.2733 105.317 64.02C104.757 64.7573 104.477 65.784 104.477 67.1ZM113.425 72L117.009 63.04H111.899V62.2H117.919V62.9L114.279 72H113.425ZM118.618 68.36V67.59H123.098V68.36H118.618ZM125.057 72V62.2H126.667L129.957 71.16H130.237L133.527 62.2H135.137V72H134.297V63.25H134.017L130.797 72H129.397L126.177 63.25H125.897V72H125.057ZM142.072 72L141.932 71.02H141.862C141.722 71.216 141.531 71.4027 141.288 71.58C140.766 71.9533 140.187 72.14 139.552 72.14C138.834 72.14 138.255 71.9393 137.816 71.538C137.387 71.1367 137.172 70.614 137.172 69.97C137.172 69.3073 137.406 68.78 137.872 68.388C138.339 67.996 139.016 67.8 139.902 67.8H141.932V67.52C141.932 66.3067 141.326 65.7 140.112 65.7C139.562 65.7 139.118 65.8213 138.782 66.064C138.456 66.3067 138.269 66.6287 138.222 67.03H137.382C137.466 66.4047 137.742 65.8867 138.208 65.476C138.675 65.0653 139.31 64.86 140.112 64.86C140.962 64.86 141.615 65.0933 142.072 65.56C142.539 66.0173 142.772 66.6707 142.772 67.52V72H142.072ZM141.932 68.92V68.57H139.902C139.286 68.57 138.815 68.7007 138.488 68.962C138.171 69.2233 138.012 69.5593 138.012 69.97C138.012 70.3713 138.148 70.6933 138.418 70.936C138.689 71.1787 139.067 71.3 139.552 71.3C140.29 71.3 140.868 71.09 141.288 70.67C141.718 70.2407 141.932 69.6573 141.932 68.92ZM144.461 74.8V73.96H145.651C145.81 73.96 145.926 73.9227 146.001 73.848C146.085 73.7733 146.155 73.6613 146.211 73.512L146.589 72.448L143.761 65H144.601L146.841 70.95H147.121L149.221 65H150.061L146.911 73.89C146.687 74.4967 146.267 74.8 145.651 74.8H144.461ZM150.897 68.36V67.59H155.377V68.36H150.897ZM156.916 72V71.23L160.976 66.96C161.583 66.3533 161.886 65.7 161.886 65C161.886 64.3653 161.695 63.8567 161.312 63.474C160.93 63.0913 160.421 62.9 159.786 62.9C159.18 62.9 158.676 63.1147 158.274 63.544C157.882 63.964 157.686 64.5193 157.686 65.21H156.846C156.846 64.2673 157.122 63.5067 157.672 62.928C158.232 62.3493 158.937 62.06 159.786 62.06C160.664 62.06 161.373 62.3307 161.914 62.872C162.456 63.4133 162.726 64.1227 162.726 65C162.726 65.4013 162.661 65.77 162.53 66.106C162.409 66.4327 162.278 66.6847 162.138 66.862C162.008 67.0393 161.807 67.2727 161.536 67.562L158.176 71.09V71.16H162.936V72H156.916ZM170.819 63.404C171.537 64.2907 171.897 65.5227 171.897 67.1C171.897 68.6773 171.537 69.914 170.819 70.81C170.1 71.6967 169.223 72.14 168.187 72.14C167.151 72.14 166.273 71.6967 165.555 70.81C164.836 69.914 164.477 68.6773 164.477 67.1C164.477 65.5227 164.836 64.2907 165.555 63.404C166.273 62.508 167.151 62.06 168.187 62.06C169.223 62.06 170.1 62.508 170.819 63.404ZM165.317 67.1C165.317 68.4347 165.597 69.4707 166.157 70.208C166.726 70.936 167.403 71.3 168.187 71.3C168.971 71.3 169.643 70.936 170.203 70.208C170.772 69.4707 171.057 68.4347 171.057 67.1C171.057 65.784 170.772 64.7573 170.203 64.02C169.643 63.2733 168.971 62.9 168.187 62.9C167.403 62.9 166.726 63.2733 166.157 64.02C165.597 64.7573 165.317 65.784 165.317 67.1ZM173.582 72V71.23L177.642 66.96C178.249 66.3533 178.552 65.7 178.552 65C178.552 64.3653 178.361 63.8567 177.978 63.474C177.596 63.0913 177.087 62.9 176.452 62.9C175.846 62.9 175.342 63.1147 174.94 63.544C174.548 63.964 174.352 64.5193 174.352 65.21H173.512C173.512 64.2673 173.788 63.5067 174.338 62.928C174.898 62.3493 175.603 62.06 176.452 62.06C177.33 62.06 178.039 62.3307 178.58 62.872C179.122 63.4133 179.392 64.1227 179.392 65C179.392 65.4013 179.327 65.77 179.196 66.106C179.075 66.4327 178.944 66.6847 178.804 66.862C178.674 67.0393 178.473 67.2727 178.202 67.562L174.842 71.09V71.16H179.602V72H173.582ZM180.299 69.69V68.99L184.149 62.2H185.689V68.85H187.089V69.69H185.689V72H184.849V69.69H180.299ZM181.419 68.85H184.849V63.18H184.569L181.419 68.78V68.85Z" fill="#E4E4E7"/>
<path d="M53.902 87.959C54.344 87.3697 54.565 86.5333 54.565 85.45C54.565 84.3667 54.344 83.5347 53.902 82.954C53.46 82.3647 52.9227 82.07 52.29 82.07C51.6573 82.07 51.12 82.3647 50.678 82.954C50.236 83.5347 50.015 84.3667 50.015 85.45C50.015 86.5333 50.236 87.3697 50.678 87.959C51.12 88.5397 51.6573 88.83 52.29 88.83C52.9227 88.83 53.46 88.5397 53.902 87.959ZM49.703 82.031C50.405 81.1903 51.2673 80.77 52.29 80.77C53.3127 80.77 54.175 81.1903 54.877 82.031C55.579 82.8717 55.93 84.0113 55.93 85.45C55.93 86.8887 55.579 88.0283 54.877 88.869C54.175 89.7097 53.3127 90.13 52.29 90.13C51.2673 90.13 50.405 89.7097 49.703 88.869C49.001 88.0283 48.65 86.8887 48.65 85.45C48.65 84.0113 49.001 82.8717 49.703 82.031ZM58.987 85.19C59.3337 85.5367 59.767 85.71 60.287 85.71C60.807 85.71 61.2404 85.5367 61.587 85.19C61.9337 84.8433 62.107 84.41 62.107 83.89C62.107 83.37 61.9337 82.9367 61.587 82.59C61.2404 82.2433 60.807 82.07 60.287 82.07C59.767 82.07 59.3337 82.2433 58.987 82.59C58.6404 82.9367 58.467 83.37 58.467 83.89C58.467 84.41 58.6404 84.8433 58.987 85.19ZM58.662 90L60.677 86.88H60.612L60.443 86.919C60.3044 86.9363 60.1657 86.945 60.027 86.945C59.2124 86.945 58.519 86.6503 57.947 86.061C57.3837 85.463 57.102 84.7393 57.102 83.89C57.102 83.006 57.4054 82.265 58.012 81.667C58.6187 81.069 59.377 80.77 60.287 80.77C61.197 80.77 61.9554 81.069 62.562 81.667C63.1687 82.265 63.472 83.006 63.472 83.89C63.472 84.5487 63.2987 85.1553 62.952 85.71L60.222 90H58.662ZM64.7761 90V88.505H66.2711V90H64.7761ZM64.7761 84.995V83.5H66.2711V84.995H64.7761ZM67.5107 87.4H68.8757C68.8757 87.7727 69.0403 88.1063 69.3697 88.401C69.7077 88.687 70.128 88.83 70.6307 88.83C71.168 88.83 71.584 88.7 71.8787 88.44C72.1733 88.18 72.3207 87.8333 72.3207 87.4C72.3207 86.9927 72.1603 86.6547 71.8397 86.386C71.5277 86.1087 71.103 85.97 70.5657 85.97H69.9807V84.735H70.5657C71.0683 84.735 71.4627 84.6093 71.7487 84.358C72.0433 84.098 72.1907 83.7687 72.1907 83.37C72.1907 82.9973 72.0477 82.6897 71.7617 82.447C71.4843 82.1957 71.1073 82.07 70.6307 82.07C70.1453 82.07 69.751 82.1957 69.4477 82.447C69.153 82.6897 69.0057 82.9973 69.0057 83.37H67.6407C67.6407 82.642 67.9137 82.0267 68.4597 81.524C69.0143 81.0213 69.738 80.77 70.6307 80.77C71.4973 80.77 72.1993 81.0213 72.7367 81.524C73.2827 82.0267 73.5557 82.642 73.5557 83.37C73.5557 83.9593 73.339 84.462 72.9057 84.878C72.715 85.06 72.4983 85.2073 72.2557 85.32V85.385C72.5243 85.5063 72.7627 85.658 72.9707 85.84C73.4473 86.282 73.6857 86.8237 73.6857 87.465C73.6857 88.2277 73.3997 88.8647 72.8277 89.376C72.2643 89.8787 71.532 90.13 70.6307 90.13C69.7033 90.13 68.9493 89.87 68.3687 89.35C67.7967 88.8213 67.5107 88.1713 67.5107 87.4ZM80.2321 87.959C80.6741 87.3697 80.8951 86.5333 80.8951 85.45C80.8951 84.3667 80.6741 83.5347 80.2321 82.954C79.7901 82.3647 79.2527 82.07 78.6201 82.07C77.9874 82.07 77.4501 82.3647 77.0081 82.954C76.5661 83.5347 76.3451 84.3667 76.3451 85.45C76.3451 86.5333 76.5661 87.3697 77.0081 87.959C77.4501 88.5397 77.9874 88.83 78.6201 88.83C79.2527 88.83 79.7901 88.5397 80.2321 87.959ZM76.0331 82.031C76.7351 81.1903 77.5974 80.77 78.6201 80.77C79.6427 80.77 80.5051 81.1903 81.2071 82.031C81.9091 82.8717 82.2601 84.0113 82.2601 85.45C82.2601 86.8887 81.9091 88.0283 81.2071 88.869C80.5051 89.7097 79.6427 90.13 78.6201 90.13C77.5974 90.13 76.7351 89.7097 76.0331 88.869C75.3311 88.0283 74.9801 86.8887 74.9801 85.45C74.9801 84.0113 75.3311 82.8717 76.0331 82.031ZM82.9121 90L86.2271 80.9H88.3071L91.6221 90H90.1271L89.3471 87.855H85.1871L84.4071 90H82.9121ZM85.6421 86.62H88.8921L87.3971 82.46H87.1371L85.6421 86.62ZM92.5961 90V80.9H94.9361L97.3411 88.05H97.6011L100.006 80.9H102.346V90H100.981V83.045H100.721L98.3811 90H96.5611L94.2211 83.045H93.9611V90H92.5961Z" fill="white"/>
<mask id="path-17-inside-2_3550_114012" fill="white">
<path d="M0 104H596V152H0V104Z"/>
</mask>
<path d="M596 152V151H0V152V153H596V152Z" fill="#B1B1B1" fill-opacity="0.2" mask="url(#path-17-inside-2_3550_114012)"/>
<g clip-path="url(#clip0_3550_114012)">
<path fill-rule="evenodd" clip-rule="evenodd" d="M26.834 133.001C26.834 131.851 27.7667 130.918 28.9173 130.918C30.0679 130.918 31.0007 131.851 31.0007 133.001C31.0007 134.152 30.0679 135.085 28.9173 135.085C27.7667 135.085 26.834 134.152 26.834 133.001Z" fill="white"/>
<path d="M31.834 130.083C31.834 128.933 32.7667 128 33.9173 128C35.0679 128 36.0007 128.933 36.0007 130.083C36.0007 131.234 35.0679 132.167 33.9173 132.167C32.7667 132.167 31.834 131.234 31.834 130.083Z" fill="white"/>
<path fill-rule="evenodd" clip-rule="evenodd" d="M31.834 135.917C31.834 134.767 32.7667 133.834 33.9173 133.834C35.0679 133.834 36.0007 134.767 36.0007 135.917C36.0007 137.068 35.0679 138.001 33.9173 138.001C32.7667 138.001 31.834 137.068 31.834 135.917Z" fill="white"/>
<path fill-rule="evenodd" clip-rule="evenodd" d="M33.2608 131.432L30.4149 133.092L29.5752 131.652L32.421 129.992L33.2608 131.432Z" fill="white"/>
<path fill-rule="evenodd" clip-rule="evenodd" d="M26.0003 137.437C25.4651 136.973 24.9388 136.504 24.4362 136.004C23.8346 135.406 23.0307 134.555 22.2247 133.548C20.6502 131.581 18.917 128.833 18.917 126.132C18.917 121.496 22.55 118.834 26.0003 118.834C29.4507 118.834 33.0837 121.496 33.0837 126.132C33.0837 126.231 33.0813 126.33 33.0768 126.428C31.6507 126.755 30.5345 127.894 30.2422 129.333L30.0727 129.432C29.7087 129.314 29.3202 129.251 28.917 129.251C26.8459 129.251 25.167 130.93 25.167 133.001C25.167 134.459 25.9995 135.723 27.2151 136.343C26.82 136.718 26.4128 137.079 26.0003 137.437ZM23.0837 125.917C23.0837 124.306 24.3895 123.001 26.0003 123.001C27.6112 123.001 28.917 124.306 28.917 125.917C28.917 127.528 27.6112 128.834 26.0003 128.834C24.3895 128.834 23.0837 127.528 23.0837 125.917Z" fill="white"/>
<path fill-rule="evenodd" clip-rule="evenodd" d="M32.421 136.01L29.5752 134.35L30.4149 132.91L33.2608 134.57L32.421 136.01Z" fill="white"/>
</g>
<path d="M48.975 132.5V123.4H50.34V131.2H54.76V132.5H48.975ZM55.8655 132.5V126H57.1655V132.5H55.8655ZM55.8005 124.765V123.4H57.2305V124.765H55.8005ZM60.3566 132.5L58.0816 126H59.4466L61.2016 131.07H61.4616L63.2166 126H64.5816L62.3066 132.5H60.3566ZM66.3366 128.73H70.1716C70.1023 128.201 69.8986 127.777 69.5606 127.456C69.2226 127.135 68.7979 126.975 68.2866 126.975C67.7493 126.975 67.3159 127.135 66.9866 127.456C66.6573 127.768 66.4406 128.193 66.3366 128.73ZM69.8466 130.615H71.2116C71.0209 131.135 70.6743 131.603 70.1716 132.019C69.6776 132.426 69.0493 132.63 68.2866 132.63C67.3419 132.63 66.5619 132.318 65.9466 131.694C65.3399 131.07 65.0366 130.255 65.0366 129.25C65.0366 128.245 65.3399 127.43 65.9466 126.806C66.5619 126.182 67.3419 125.87 68.2866 125.87C69.1706 125.87 69.9116 126.173 70.5096 126.78C71.1076 127.387 71.4066 128.145 71.4066 129.055C71.4066 129.133 71.3936 129.289 71.3676 129.523L71.3416 129.705H66.3366C66.4059 130.26 66.6183 130.702 66.9736 131.031C67.3289 131.36 67.7666 131.525 68.2866 131.525C68.6506 131.525 68.9713 131.438 69.2486 131.265C69.5346 131.083 69.7339 130.866 69.8466 130.615ZM75.9652 132.5V123.4H77.3302V131.2H81.7502V132.5H75.9652ZM84.1228 130.862C84.4955 131.261 84.9635 131.46 85.5268 131.46C86.0902 131.46 86.5538 131.261 86.9178 130.862C87.2905 130.455 87.4768 129.917 87.4768 129.25C87.4768 128.583 87.2905 128.05 86.9178 127.651C86.5538 127.244 86.0902 127.04 85.5268 127.04C84.9635 127.04 84.4955 127.244 84.1228 127.651C83.7588 128.05 83.5768 128.583 83.5768 129.25C83.5768 129.917 83.7588 130.455 84.1228 130.862ZM87.8538 131.694C87.2472 132.318 86.4715 132.63 85.5268 132.63C84.5822 132.63 83.8022 132.318 83.1868 131.694C82.5802 131.07 82.2768 130.255 82.2768 129.25C82.2768 128.245 82.5802 127.43 83.1868 126.806C83.8022 126.182 84.5822 125.87 85.5268 125.87C86.4715 125.87 87.2472 126.182 87.8538 126.806C88.4692 127.43 88.7768 128.245 88.7768 129.25C88.7768 130.255 88.4692 131.07 87.8538 131.694ZM94.7579 130.225H96.0579C95.9972 130.494 95.8975 130.758 95.7589 131.018C95.6289 131.278 95.4469 131.534 95.2129 131.785C94.9875 132.036 94.6885 132.24 94.3159 132.396C93.9432 132.552 93.5272 132.63 93.0679 132.63C92.1232 132.63 91.3432 132.318 90.7279 131.694C90.1212 131.07 89.8179 130.255 89.8179 129.25C89.8179 128.245 90.1212 127.43 90.7279 126.806C91.3432 126.182 92.1232 125.87 93.0679 125.87C93.9345 125.87 94.6149 126.117 95.1089 126.611C95.6029 127.096 95.9192 127.629 96.0579 128.21H94.7579C94.4805 127.43 93.9172 127.04 93.0679 127.04C92.5045 127.04 92.0365 127.244 91.6639 127.651C91.2999 128.05 91.1179 128.583 91.1179 129.25C91.1179 129.917 91.2999 130.455 91.6639 130.862C92.0365 131.261 92.5045 131.46 93.0679 131.46C93.5359 131.46 93.9129 131.334 94.1989 131.083C94.4849 130.832 94.6712 130.546 94.7579 130.225ZM101.579 132.5L101.449 131.785H101.384C101.254 131.95 101.098 132.093 100.916 132.214C100.5 132.491 100.006 132.63 99.4338 132.63C98.7231 132.63 98.1555 132.444 97.7308 132.071C97.3061 131.698 97.0938 131.213 97.0938 130.615C97.0938 129.948 97.3148 129.423 97.7568 129.042C98.2075 128.661 98.8748 128.47 99.7588 128.47H101.384V128.34C101.384 127.915 101.262 127.582 101.02 127.339C100.777 127.096 100.443 126.975 100.019 126.975C99.6028 126.975 99.2821 127.07 99.0568 127.261C98.8315 127.443 98.6971 127.651 98.6538 127.885H97.3538C97.3885 127.313 97.6441 126.836 98.1208 126.455C98.5975 126.065 99.2301 125.87 100.019 125.87C100.859 125.87 101.514 126.091 101.982 126.533C102.45 126.975 102.684 127.577 102.684 128.34V132.5H101.579ZM101.384 129.77V129.51H99.8238C99.3471 129.51 98.9875 129.605 98.7448 129.796C98.5108 129.987 98.3938 130.238 98.3938 130.55C98.3938 130.853 98.4935 131.092 98.6928 131.265C98.8921 131.438 99.1825 131.525 99.5638 131.525C100.153 131.525 100.604 131.373 100.916 131.07C101.228 130.758 101.384 130.325 101.384 129.77ZM104.577 131.135V127.235H103.537V126H104.577V124.18H105.877V126H107.372V127.235H105.877V130.94C105.877 131.2 106.007 131.33 106.267 131.33H107.372V132.5H106.007C105.548 132.5 105.192 132.379 104.941 132.136C104.698 131.893 104.577 131.56 104.577 131.135ZM108.805 132.5V126H110.105V132.5H108.805ZM108.74 124.765V123.4H110.17V124.765H108.74ZM113.322 130.862C113.695 131.261 114.163 131.46 114.726 131.46C115.289 131.46 115.753 131.261 116.117 130.862C116.49 130.455 116.676 129.917 116.676 129.25C116.676 128.583 116.49 128.05 116.117 127.651C115.753 127.244 115.289 127.04 114.726 127.04C114.163 127.04 113.695 127.244 113.322 127.651C112.958 128.05 112.776 128.583 112.776 129.25C112.776 129.917 112.958 130.455 113.322 130.862ZM117.053 131.694C116.446 132.318 115.671 132.63 114.726 132.63C113.781 132.63 113.001 132.318 112.386 131.694C111.779 131.07 111.476 130.255 111.476 129.25C111.476 128.245 111.779 127.43 112.386 126.806C113.001 126.182 113.781 125.87 114.726 125.87C115.671 125.87 116.446 126.182 117.053 126.806C117.668 127.43 117.976 128.245 117.976 129.25C117.976 130.255 117.668 131.07 117.053 131.694ZM119.342 132.5V126H120.512L120.642 126.65H120.707C120.854 126.503 121.015 126.373 121.188 126.26C121.604 126 122.072 125.87 122.592 125.87C123.381 125.87 124.009 126.117 124.477 126.611C124.954 127.096 125.192 127.759 125.192 128.6V132.5H123.892V128.6C123.892 128.175 123.74 127.811 123.437 127.508C123.142 127.196 122.774 127.04 122.332 127.04C121.855 127.04 121.452 127.196 121.123 127.508C120.802 127.811 120.642 128.175 120.642 128.6V132.5H119.342ZM129.554 129.705H130.919C130.919 130.147 131.123 130.528 131.53 130.849C131.946 131.17 132.479 131.33 133.129 131.33C133.84 131.33 134.364 131.209 134.702 130.966C135.04 130.715 135.209 130.381 135.209 129.965C135.209 129.298 134.689 128.864 133.649 128.665L131.894 128.34C131.184 128.21 130.646 127.937 130.282 127.521C129.927 127.105 129.749 126.576 129.749 125.935C129.749 125.172 130.044 124.54 130.633 124.037C131.223 123.526 132.011 123.27 132.999 123.27C134.091 123.27 134.936 123.547 135.534 124.102C136.141 124.648 136.444 125.346 136.444 126.195H135.079C135.079 125.753 134.889 125.372 134.507 125.051C134.126 124.73 133.623 124.57 132.999 124.57C132.41 124.57 131.946 124.704 131.608 124.973C131.279 125.233 131.114 125.554 131.114 125.935C131.114 126.576 131.569 126.988 132.479 127.17L133.909 127.43C134.828 127.595 135.5 127.881 135.924 128.288C136.358 128.687 136.574 129.246 136.574 129.965C136.574 130.745 136.275 131.386 135.677 131.889C135.079 132.383 134.23 132.63 133.129 132.63C132.029 132.63 131.158 132.353 130.516 131.798C129.875 131.243 129.554 130.546 129.554 129.705ZM138.069 132.5V123.4H139.369V126.65H139.434C139.582 126.503 139.742 126.373 139.915 126.26C140.331 126 140.799 125.87 141.319 125.87C142.108 125.87 142.736 126.117 143.204 126.611C143.681 127.096 143.919 127.759 143.919 128.6V132.5H142.619V128.6C142.619 128.175 142.468 127.811 142.164 127.508C141.87 127.196 141.501 127.04 141.059 127.04C140.583 127.04 140.18 127.196 139.85 127.508C139.53 127.811 139.369 128.175 139.369 128.6V132.5H138.069ZM149.77 132.5L149.64 131.785H149.575C149.445 131.95 149.289 132.093 149.107 132.214C148.691 132.491 148.197 132.63 147.625 132.63C146.915 132.63 146.347 132.444 145.922 132.071C145.498 131.698 145.285 131.213 145.285 130.615C145.285 129.948 145.506 129.423 145.948 129.042C146.399 128.661 147.066 128.47 147.95 128.47H149.575V128.34C149.575 127.915 149.454 127.582 149.211 127.339C148.969 127.096 148.635 126.975 148.21 126.975C147.794 126.975 147.474 127.07 147.248 127.261C147.023 127.443 146.889 127.651 146.845 127.885H145.545C145.58 127.313 145.836 126.836 146.312 126.455C146.789 126.065 147.422 125.87 148.21 125.87C149.051 125.87 149.705 126.091 150.173 126.533C150.641 126.975 150.875 127.577 150.875 128.34V132.5H149.77ZM149.575 129.77V129.51H148.015C147.539 129.51 147.179 129.605 146.936 129.796C146.702 129.987 146.585 130.238 146.585 130.55C146.585 130.853 146.685 131.092 146.884 131.265C147.084 131.438 147.374 131.525 147.755 131.525C148.345 131.525 148.795 131.373 149.107 131.07C149.419 130.758 149.575 130.325 149.575 129.77ZM152.502 132.5V126H153.607L153.737 126.585H153.802C153.811 126.576 153.837 126.546 153.88 126.494C153.932 126.442 153.963 126.407 153.971 126.39C153.989 126.373 154.023 126.342 154.075 126.299C154.127 126.247 154.171 126.212 154.205 126.195C154.24 126.178 154.288 126.156 154.348 126.13C154.409 126.095 154.47 126.074 154.53 126.065C154.6 126.048 154.678 126.035 154.764 126.026C154.851 126.009 154.942 126 155.037 126H156.207V127.17H155.167C154.257 127.17 153.802 127.621 153.802 128.522V132.5H152.502ZM157.187 132.5V126H158.487V132.5H157.187ZM157.122 124.765V123.4H158.552V124.765H157.122ZM160.183 132.5V126H161.353L161.483 126.65H161.548C161.695 126.503 161.856 126.373 162.029 126.26C162.445 126 162.913 125.87 163.433 125.87C164.222 125.87 164.85 126.117 165.318 126.611C165.795 127.096 166.033 127.759 166.033 128.6V132.5H164.733V128.6C164.733 128.175 164.581 127.811 164.278 127.508C163.983 127.196 163.615 127.04 163.173 127.04C162.696 127.04 162.293 127.196 161.964 127.508C161.643 127.811 161.483 128.175 161.483 128.6V132.5H160.183ZM169.142 130.407C169.489 130.762 169.927 130.94 170.455 130.94C170.984 130.94 171.417 130.762 171.755 130.407C172.102 130.043 172.275 129.571 172.275 128.99C172.275 128.409 172.102 127.941 171.755 127.586C171.417 127.222 170.984 127.04 170.455 127.04C169.927 127.04 169.489 127.222 169.142 127.586C168.804 127.941 168.635 128.409 168.635 128.99C168.635 129.571 168.804 130.043 169.142 130.407ZM167.53 132.89H168.83C168.865 133.211 169.03 133.484 169.324 133.709C169.628 133.943 170.026 134.06 170.52 134.06C171.04 134.06 171.461 133.9 171.781 133.579C172.111 133.267 172.275 132.864 172.275 132.37V131.33H172.21C172.063 131.477 171.933 131.594 171.82 131.681C171.708 131.768 171.504 131.863 171.209 131.967C170.915 132.062 170.577 132.11 170.195 132.11C169.372 132.11 168.687 131.824 168.141 131.252C167.604 130.671 167.335 129.917 167.335 128.99C167.335 128.063 167.604 127.313 168.141 126.741C168.687 126.16 169.372 125.87 170.195 125.87C171.062 125.87 171.734 126.152 172.21 126.715H172.275L172.405 126H173.575V132.37C173.575 133.237 173.307 133.93 172.769 134.45C172.232 134.97 171.482 135.23 170.52 135.23C170.018 135.23 169.567 135.152 169.168 134.996C168.77 134.84 168.458 134.636 168.232 134.385C168.016 134.142 167.847 133.891 167.725 133.631C167.613 133.38 167.548 133.133 167.53 132.89Z" fill="white"/>
<rect x="536" y="116" width="44" height="24" rx="12" fill="#F08B32"/>
<rect x="558" y="118" width="20" height="20" rx="10" fill="white"/>
<rect x="198.5" y="168.5" width="199" height="31" rx="1.5" stroke="#F08B32"/>
<path d="M279.04 185.78H280.23C279.95 186.816 279.418 187.637 278.634 188.244C277.859 188.841 276.945 189.14 275.89 189.14C274.574 189.14 273.463 188.669 272.558 187.726C271.653 186.783 271.2 185.575 271.2 184.1C271.2 182.625 271.653 181.417 272.558 180.474C273.463 179.531 274.574 179.06 275.89 179.06C276.935 179.06 277.85 179.359 278.634 179.956C279.418 180.544 279.95 181.342 280.23 182.35H279.04C278.797 181.65 278.396 181.104 277.836 180.712C277.276 180.311 276.627 180.11 275.89 180.11C274.891 180.11 274.047 180.483 273.356 181.23C272.665 181.967 272.32 182.924 272.32 184.1C272.32 185.276 272.665 186.237 273.356 186.984C274.047 187.721 274.891 188.09 275.89 188.09C276.627 188.09 277.276 187.889 277.836 187.488C278.396 187.077 278.797 186.508 279.04 185.78ZM281.777 189V179.2H282.827V182.77H282.897C283.046 182.583 283.219 182.434 283.415 182.322C283.9 182.014 284.427 181.86 284.997 181.86C285.809 181.86 286.476 182.135 286.999 182.686C287.531 183.227 287.797 183.932 287.797 184.8V189H286.747V184.8C286.747 184.24 286.565 183.773 286.201 183.4C285.837 183.027 285.389 182.84 284.857 182.84C284.297 182.84 283.816 183.036 283.415 183.428C283.023 183.811 282.827 184.268 282.827 184.8V189H281.777ZM294.589 187.04H295.709C295.467 187.712 295.084 188.23 294.561 188.594C294.048 188.958 293.427 189.14 292.699 189.14C291.738 189.14 290.935 188.804 290.291 188.132C289.657 187.451 289.339 186.573 289.339 185.5C289.339 184.427 289.657 183.554 290.291 182.882C290.935 182.201 291.738 181.86 292.699 181.86C293.623 181.86 294.389 182.177 294.995 182.812C295.611 183.447 295.919 184.249 295.919 185.22C295.919 185.369 295.905 185.57 295.877 185.822L295.849 185.99H290.389C290.464 186.643 290.716 187.171 291.145 187.572C291.584 187.964 292.102 188.16 292.699 188.16C293.119 188.16 293.493 188.062 293.819 187.866C294.155 187.67 294.412 187.395 294.589 187.04ZM290.389 185.01H294.869C294.832 184.375 294.608 183.857 294.197 183.456C293.796 183.045 293.297 182.84 292.699 182.84C292.074 182.84 291.551 183.041 291.131 183.442C290.711 183.843 290.464 184.366 290.389 185.01ZM302.427 186.69H303.477C303.299 187.465 302.935 188.067 302.385 188.496C301.843 188.925 301.181 189.14 300.397 189.14C299.435 189.14 298.633 188.804 297.989 188.132C297.354 187.451 297.037 186.573 297.037 185.5C297.037 184.427 297.354 183.554 297.989 182.882C298.633 182.201 299.435 181.86 300.397 181.86C301.171 181.86 301.834 182.075 302.385 182.504C302.935 182.924 303.299 183.503 303.477 184.24H302.427C302.287 183.792 302.039 183.447 301.685 183.204C301.33 182.961 300.901 182.84 300.397 182.84C299.743 182.84 299.193 183.087 298.745 183.582C298.306 184.077 298.087 184.716 298.087 185.5C298.087 186.284 298.306 186.923 298.745 187.418C299.193 187.913 299.743 188.16 300.397 188.16C301.47 188.16 302.147 187.67 302.427 186.69ZM304.95 189V179.2H306V185.22L309.15 182H310.48L307.12 185.43L310.62 189H309.29L306 185.64V189H304.95ZM314.974 189V179.2H316.094V189H314.974ZM318.197 189V182H319.107L319.247 182.77H319.317C319.466 182.583 319.639 182.434 319.835 182.322C320.32 182.014 320.847 181.86 321.417 181.86C322.229 181.86 322.896 182.135 323.419 182.686C323.951 183.227 324.217 183.932 324.217 184.8V189H323.167V184.8C323.167 184.24 322.985 183.773 322.621 183.4C322.257 183.027 321.809 182.84 321.277 182.84C320.717 182.84 320.236 183.036 319.835 183.428C319.443 183.811 319.247 184.268 319.247 184.8V189H318.197Z" fill="#F08B32"/>
<path d="M94.9161 228V224.318L91.2761 218.2H92.2141L95.1961 223.24H95.4761L98.4581 218.2H99.3961L95.7561 224.318V228H94.9161ZM104.888 227.118C104.253 227.799 103.474 228.14 102.55 228.14C101.626 228.14 100.847 227.799 100.212 227.118C99.5772 226.437 99.2599 225.564 99.2599 224.5C99.2599 223.436 99.5772 222.563 100.212 221.882C100.847 221.201 101.626 220.86 102.55 220.86C103.474 220.86 104.253 221.201 104.888 221.882C105.523 222.563 105.84 223.436 105.84 224.5C105.84 225.564 105.523 226.437 104.888 227.118ZM104.286 226.516C104.762 225.993 105 225.321 105 224.5C105 223.679 104.762 223.007 104.286 222.484C103.81 221.961 103.231 221.7 102.55 221.7C101.869 221.7 101.29 221.961 100.814 222.484C100.338 223.007 100.1 223.679 100.1 224.5C100.1 225.321 100.338 225.993 100.814 226.516C101.29 227.039 101.869 227.3 102.55 227.3C103.231 227.3 103.81 227.039 104.286 226.516ZM107.584 225.2V221H108.424V225.2C108.424 225.835 108.611 226.343 108.984 226.726C109.367 227.109 109.857 227.3 110.454 227.3C111.089 227.3 111.607 227.099 112.008 226.698C112.419 226.297 112.624 225.797 112.624 225.2V221H113.464V228H112.764L112.624 227.09H112.554C112.423 227.295 112.255 227.473 112.05 227.622C111.593 227.967 111.037 228.14 110.384 228.14C109.572 228.14 108.9 227.869 108.368 227.328C107.845 226.777 107.584 226.068 107.584 225.2ZM123.399 228L123.259 227.02H123.189C123.049 227.216 122.858 227.403 122.615 227.58C122.093 227.953 121.514 228.14 120.879 228.14C120.161 228.14 119.582 227.939 119.143 227.538C118.714 227.137 118.499 226.614 118.499 225.97C118.499 225.307 118.733 224.78 119.199 224.388C119.666 223.996 120.343 223.8 121.229 223.8H123.259V223.52C123.259 222.307 122.653 221.7 121.439 221.7C120.889 221.7 120.445 221.821 120.109 222.064C119.783 222.307 119.596 222.629 119.549 223.03H118.709C118.793 222.405 119.069 221.887 119.535 221.476C120.002 221.065 120.637 220.86 121.439 220.86C122.289 220.86 122.942 221.093 123.399 221.56C123.866 222.017 124.099 222.671 124.099 223.52V228H123.399ZM123.259 224.92V224.57H121.229C120.613 224.57 120.142 224.701 119.815 224.962C119.498 225.223 119.339 225.559 119.339 225.97C119.339 226.371 119.475 226.693 119.745 226.936C120.016 227.179 120.394 227.3 120.879 227.3C121.617 227.3 122.195 227.09 122.615 226.67C123.045 226.241 123.259 225.657 123.259 224.92ZM126.342 228V221H127.042L127.112 221.7H127.182C127.499 221.233 127.966 221 128.582 221H129.842V221.84H128.652C128.194 221.84 127.835 221.975 127.574 222.246C127.312 222.507 127.182 222.885 127.182 223.38V228H126.342ZM131.176 224.08H136.006C135.969 223.38 135.726 222.811 135.278 222.372C134.839 221.924 134.289 221.7 133.626 221.7C132.954 221.7 132.394 221.915 131.946 222.344C131.507 222.764 131.251 223.343 131.176 224.08ZM135.726 226.04H136.636C136.431 226.619 136.081 227.113 135.586 227.524C135.101 227.935 134.447 228.14 133.626 228.14C132.655 228.14 131.862 227.809 131.246 227.146C130.639 226.483 130.336 225.601 130.336 224.5C130.336 223.399 130.639 222.517 131.246 221.854C131.862 221.191 132.655 220.86 133.626 220.86C134.55 220.86 135.315 221.187 135.922 221.84C136.538 222.484 136.846 223.324 136.846 224.36C136.846 224.5 136.837 224.635 136.818 224.766C136.809 224.803 136.804 224.855 136.804 224.92H131.176C131.251 225.639 131.517 226.217 131.974 226.656C132.431 227.085 132.982 227.3 133.626 227.3C134.139 227.3 134.573 227.174 134.928 226.922C135.283 226.67 135.549 226.376 135.726 226.04ZM141.736 228V221H142.436L142.506 221.7H142.576C142.894 221.233 143.36 221 143.976 221H145.236V221.84H144.046C143.589 221.84 143.23 221.975 142.968 222.246C142.707 222.507 142.576 222.885 142.576 223.38V228H141.736ZM146.571 224.08H151.401C151.363 223.38 151.121 222.811 150.673 222.372C150.234 221.924 149.683 221.7 149.021 221.7C148.349 221.7 147.789 221.915 147.341 222.344C146.902 222.764 146.645 223.343 146.571 224.08ZM151.121 226.04H152.031C151.825 226.619 151.475 227.113 150.981 227.524C150.495 227.935 149.842 228.14 149.021 228.14C148.05 228.14 147.257 227.809 146.641 227.146C146.034 226.483 145.731 225.601 145.731 224.5C145.731 223.399 146.034 222.517 146.641 221.854C147.257 221.191 148.05 220.86 149.021 220.86C149.945 220.86 150.71 221.187 151.317 221.84C151.933 222.484 152.241 223.324 152.241 224.36C152.241 224.5 152.231 224.635 152.213 224.766C152.203 224.803 152.199 224.855 152.199 224.92H146.571C146.645 225.639 146.911 226.217 147.369 226.656C147.826 227.085 148.377 227.3 149.021 227.3C149.534 227.3 149.968 227.174 150.323 226.922C150.677 226.67 150.943 226.376 151.121 226.04ZM155.008 226.544C155.456 227.048 156.026 227.3 156.716 227.3C157.407 227.3 157.976 227.048 158.424 226.544C158.872 226.04 159.096 225.359 159.096 224.5C159.096 223.641 158.872 222.96 158.424 222.456C157.976 221.952 157.407 221.7 156.716 221.7C156.026 221.7 155.456 221.952 155.008 222.456C154.56 222.96 154.336 223.641 154.336 224.5C154.336 225.359 154.56 226.04 155.008 226.544ZM159.096 230.8V226.88H159.026C158.42 227.72 157.626 228.14 156.646 228.14C155.75 228.14 154.999 227.809 154.392 227.146C153.795 226.474 153.496 225.592 153.496 224.5C153.496 223.408 153.795 222.531 154.392 221.868C154.999 221.196 155.75 220.86 156.646 220.86C157.626 220.86 158.42 221.28 159.026 222.12H159.096L159.236 221H159.936V230.8H159.096ZM162.176 225.2V221H163.016V225.2C163.016 225.835 163.202 226.343 163.576 226.726C163.958 227.109 164.448 227.3 165.046 227.3C165.68 227.3 166.198 227.099 166.6 226.698C167.01 226.297 167.216 225.797 167.216 225.2V221H168.056V228H167.356L167.216 227.09H167.146C167.015 227.295 166.847 227.473 166.642 227.622C166.184 227.967 165.629 228.14 164.976 228.14C164.164 228.14 163.492 227.869 162.96 227.328C162.437 226.777 162.176 226.068 162.176 225.2ZM170.367 228V221H171.207V228H170.367ZM170.297 219.39V218.41H171.277V219.39H170.297ZM173.523 228V221H174.223L174.293 221.7H174.363C174.681 221.233 175.147 221 175.763 221H177.023V221.84H175.833C175.376 221.84 175.017 221.975 174.755 222.246C174.494 222.507 174.363 222.885 174.363 223.38V228H173.523ZM178.358 224.08H183.188C183.15 223.38 182.908 222.811 182.46 222.372C182.021 221.924 181.47 221.7 180.808 221.7C180.136 221.7 179.576 221.915 179.128 222.344C178.689 222.764 178.432 223.343 178.358 224.08ZM182.908 226.04H183.818C183.612 226.619 183.262 227.113 182.768 227.524C182.282 227.935 181.629 228.14 180.808 228.14C179.837 228.14 179.044 227.809 178.428 227.146C177.821 226.483 177.518 225.601 177.518 224.5C177.518 223.399 177.821 222.517 178.428 221.854C179.044 221.191 179.837 220.86 180.808 220.86C181.732 220.86 182.497 221.187 183.104 221.84C183.72 222.484 184.028 223.324 184.028 224.36C184.028 224.5 184.018 224.635 184 224.766C183.99 224.803 183.986 224.855 183.986 224.92H178.358C178.432 225.639 178.698 226.217 179.156 226.656C179.613 227.085 180.164 227.3 180.808 227.3C181.321 227.3 181.755 227.174 182.11 226.922C182.464 226.67 182.73 226.376 182.908 226.04ZM186.795 226.544C187.243 227.048 187.813 227.3 188.503 227.3C189.194 227.3 189.763 227.048 190.211 226.544C190.659 226.04 190.883 225.359 190.883 224.5C190.883 223.641 190.659 222.96 190.211 222.456C189.763 221.952 189.194 221.7 188.503 221.7C187.813 221.7 187.243 221.952 186.795 222.456C186.347 222.96 186.123 223.641 186.123 224.5C186.123 225.359 186.347 226.04 186.795 226.544ZM191.023 228L190.883 226.88H190.813C190.207 227.72 189.413 228.14 188.433 228.14C187.537 228.14 186.786 227.809 186.179 227.146C185.582 226.474 185.283 225.592 185.283 224.5C185.283 223.408 185.582 222.531 186.179 221.868C186.786 221.196 187.537 220.86 188.433 220.86C189.413 220.86 190.207 221.28 190.813 222.12H190.883V218.2H191.723V228H191.023ZM197.596 226.81V221.84H196.476V221H197.596V219.04H198.436V221H200.186V221.84H198.436V226.67C198.436 226.997 198.599 227.16 198.926 227.16H200.186V228H198.856C198.464 228 198.156 227.893 197.932 227.678C197.708 227.463 197.596 227.174 197.596 226.81ZM206.798 227.118C206.163 227.799 205.384 228.14 204.46 228.14C203.536 228.14 202.757 227.799 202.122 227.118C201.487 226.437 201.17 225.564 201.17 224.5C201.17 223.436 201.487 222.563 202.122 221.882C202.757 221.201 203.536 220.86 204.46 220.86C205.384 220.86 206.163 221.201 206.798 221.882C207.433 222.563 207.75 223.436 207.75 224.5C207.75 225.564 207.433 226.437 206.798 227.118ZM206.196 226.516C206.672 225.993 206.91 225.321 206.91 224.5C206.91 223.679 206.672 223.007 206.196 222.484C205.72 221.961 205.141 221.7 204.46 221.7C203.779 221.7 203.2 221.961 202.724 222.484C202.248 223.007 202.01 223.679 202.01 224.5C202.01 225.321 202.248 225.993 202.724 226.516C203.2 227.039 203.779 227.3 204.46 227.3C205.141 227.3 205.72 227.039 206.196 226.516ZM214.151 226.544C214.599 227.048 215.168 227.3 215.859 227.3C216.549 227.3 217.119 227.048 217.567 226.544C218.015 226.04 218.239 225.359 218.239 224.5C218.239 223.641 218.015 222.96 217.567 222.456C217.119 221.952 216.549 221.7 215.859 221.7C215.168 221.7 214.599 221.952 214.151 222.456C213.703 222.96 213.479 223.641 213.479 224.5C213.479 225.359 213.703 226.04 214.151 226.544ZM212.639 230.8V221H213.339L213.479 222.12H213.549C213.735 221.821 214.034 221.537 214.445 221.266C214.855 220.995 215.35 220.86 215.929 220.86C216.825 220.86 217.571 221.196 218.169 221.868C218.775 222.531 219.079 223.408 219.079 224.5C219.079 225.592 218.775 226.474 218.169 227.146C217.571 227.809 216.825 228.14 215.929 228.14C215.35 228.14 214.855 228.005 214.445 227.734C214.034 227.463 213.735 227.179 213.549 226.88H213.479V230.8H212.639ZM220.828 228V221H221.528L221.598 221.7H221.668C221.985 221.233 222.452 221 223.068 221H224.328V221.84H223.138C222.681 221.84 222.321 221.975 222.06 222.246C221.799 222.507 221.668 222.885 221.668 223.38V228H220.828ZM230.45 227.118C229.816 227.799 229.036 228.14 228.112 228.14C227.188 228.14 226.409 227.799 225.774 227.118C225.14 226.437 224.822 225.564 224.822 224.5C224.822 223.436 225.14 222.563 225.774 221.882C226.409 221.201 227.188 220.86 228.112 220.86C229.036 220.86 229.816 221.201 230.45 221.882C231.085 222.563 231.402 223.436 231.402 224.5C231.402 225.564 231.085 226.437 230.45 227.118ZM229.848 226.516C230.324 225.993 230.562 225.321 230.562 224.5C230.562 223.679 230.324 223.007 229.848 222.484C229.372 221.961 228.794 221.7 228.112 221.7C227.431 221.7 226.852 221.961 226.376 222.484C225.9 223.007 225.662 223.679 225.662 224.5C225.662 225.321 225.9 225.993 226.376 226.516C226.852 227.039 227.431 227.3 228.112 227.3C228.794 227.3 229.372 227.039 229.848 226.516ZM234.62 228L232.03 221H232.87L235.11 227.09H235.39L237.63 221H238.47L235.88 228H234.62ZM239.806 228V221H240.646V228H239.806ZM239.736 219.39V218.41H240.716V219.39H239.736ZM243.985 226.544C244.433 227.048 245.002 227.3 245.693 227.3C246.383 227.3 246.953 227.048 247.401 226.544C247.849 226.04 248.073 225.359 248.073 224.5C248.073 223.641 247.849 222.96 247.401 222.456C246.953 221.952 246.383 221.7 245.693 221.7C245.002 221.7 244.433 221.952 243.985 222.456C243.537 222.96 243.313 223.641 243.313 224.5C243.313 225.359 243.537 226.04 243.985 226.544ZM248.213 228L248.073 226.88H248.003C247.396 227.72 246.603 228.14 245.623 228.14C244.727 228.14 243.975 227.809 243.369 227.146C242.771 226.474 242.473 225.592 242.473 224.5C242.473 223.408 242.771 222.531 243.369 221.868C243.975 221.196 244.727 220.86 245.623 220.86C246.603 220.86 247.396 221.28 248.003 222.12H248.073V218.2H248.913V228H248.213ZM251.571 224.08H256.401C256.363 223.38 256.121 222.811 255.673 222.372C255.234 221.924 254.683 221.7 254.021 221.7C253.349 221.7 252.789 221.915 252.341 222.344C251.902 222.764 251.645 223.343 251.571 224.08ZM256.121 226.04H257.031C256.825 226.619 256.475 227.113 255.981 227.524C255.495 227.935 254.842 228.14 254.021 228.14C253.05 228.14 252.257 227.809 251.641 227.146C251.034 226.483 250.731 225.601 250.731 224.5C250.731 223.399 251.034 222.517 251.641 221.854C252.257 221.191 253.05 220.86 254.021 220.86C254.945 220.86 255.71 221.187 256.317 221.84C256.933 222.484 257.241 223.324 257.241 224.36C257.241 224.5 257.231 224.635 257.213 224.766C257.203 224.803 257.199 224.855 257.199 224.92H251.571C251.645 225.639 251.911 226.217 252.369 226.656C252.826 227.085 253.377 227.3 254.021 227.3C254.534 227.3 254.968 227.174 255.323 226.922C255.677 226.67 255.943 226.376 256.121 226.04ZM261.427 230.8V229.96H262.617C262.776 229.96 262.892 229.923 262.967 229.848C263.051 229.773 263.121 229.661 263.177 229.512L263.555 228.448L260.727 221H261.567L263.807 226.95H264.087L266.187 221H267.027L263.877 229.89C263.653 230.497 263.233 230.8 262.617 230.8H261.427ZM273.284 227.118C272.65 227.799 271.87 228.14 270.946 228.14C270.022 228.14 269.243 227.799 268.608 227.118C267.974 226.437 267.656 225.564 267.656 224.5C267.656 223.436 267.974 222.563 268.608 221.882C269.243 221.201 270.022 220.86 270.946 220.86C271.87 220.86 272.65 221.201 273.284 221.882C273.919 222.563 274.236 223.436 274.236 224.5C274.236 225.564 273.919 226.437 273.284 227.118ZM272.682 226.516C273.158 225.993 273.396 225.321 273.396 224.5C273.396 223.679 273.158 223.007 272.682 222.484C272.206 221.961 271.628 221.7 270.946 221.7C270.265 221.7 269.686 221.961 269.21 222.484C268.734 223.007 268.496 223.679 268.496 224.5C268.496 225.321 268.734 225.993 269.21 226.516C269.686 227.039 270.265 227.3 270.946 227.3C271.628 227.3 272.206 227.039 272.682 226.516ZM275.98 225.2V221H276.82V225.2C276.82 225.835 277.007 226.343 277.38 226.726C277.763 227.109 278.253 227.3 278.85 227.3C279.485 227.3 280.003 227.099 280.404 226.698C280.815 226.297 281.02 225.797 281.02 225.2V221H281.86V228H281.16L281.02 227.09H280.95C280.82 227.295 280.652 227.473 280.446 227.622C279.989 227.967 279.434 228.14 278.78 228.14C277.968 228.14 277.296 227.869 276.764 227.328C276.242 226.777 275.98 226.068 275.98 225.2ZM284.101 228V221H284.801L284.871 221.7H284.941C285.259 221.233 285.725 221 286.341 221H287.601V221.84H286.411C285.954 221.84 285.595 221.975 285.333 222.246C285.072 222.507 284.941 222.885 284.941 223.38V228H284.101ZM296.55 225.69H297.46C297.283 226.465 296.919 227.067 296.368 227.496C295.827 227.925 295.164 228.14 294.38 228.14C293.409 228.14 292.616 227.809 292 227.146C291.393 226.483 291.09 225.601 291.09 224.5C291.09 223.399 291.393 222.517 292 221.854C292.616 221.191 293.409 220.86 294.38 220.86C295.155 220.86 295.817 221.075 296.368 221.504C296.919 221.924 297.283 222.503 297.46 223.24H296.55C296.447 222.867 296.214 222.517 295.85 222.19C295.495 221.863 295.005 221.7 294.38 221.7C293.661 221.7 293.073 221.952 292.616 222.456C292.159 222.96 291.93 223.641 291.93 224.5C291.93 225.359 292.159 226.04 292.616 226.544C293.073 227.048 293.661 227.3 294.38 227.3C294.996 227.3 295.486 227.127 295.85 226.782C296.214 226.437 296.447 226.073 296.55 225.69ZM299.141 225.2V221H299.981V225.2C299.981 225.835 300.167 226.343 300.541 226.726C300.923 227.109 301.413 227.3 302.011 227.3C302.645 227.3 303.163 227.099 303.565 226.698C303.975 226.297 304.181 225.797 304.181 225.2V221H305.021V228H304.321L304.181 227.09H304.111C303.98 227.295 303.812 227.473 303.607 227.622C303.149 227.967 302.594 228.14 301.941 228.14C301.129 228.14 300.457 227.869 299.925 227.328C299.402 226.777 299.141 226.068 299.141 225.2ZM307.262 228V221H307.962L308.032 221.7H308.102C308.419 221.233 308.886 221 309.502 221H310.762V221.84H309.572C309.114 221.84 308.755 221.975 308.494 222.246C308.232 222.507 308.102 222.885 308.102 223.38V228H307.262ZM312.019 228V221H312.719L312.789 221.7H312.859C313.177 221.233 313.643 221 314.259 221H315.519V221.84H314.329C313.872 221.84 313.513 221.975 313.251 222.246C312.99 222.507 312.859 222.885 312.859 223.38V228H312.019ZM316.854 224.08H321.684C321.646 223.38 321.404 222.811 320.956 222.372C320.517 221.924 319.966 221.7 319.304 221.7C318.632 221.7 318.072 221.915 317.624 222.344C317.185 222.764 316.928 223.343 316.854 224.08ZM321.404 226.04H322.314C322.108 226.619 321.758 227.113 321.264 227.524C320.778 227.935 320.125 228.14 319.304 228.14C318.333 228.14 317.54 227.809 316.924 227.146C316.317 226.483 316.014 225.601 316.014 224.5C316.014 223.399 316.317 222.517 316.924 221.854C317.54 221.191 318.333 220.86 319.304 220.86C320.228 220.86 320.993 221.187 321.6 221.84C322.216 222.484 322.524 223.324 322.524 224.36C322.524 224.5 322.514 224.635 322.496 224.766C322.486 224.803 322.482 224.855 322.482 224.92H316.854C316.928 225.639 317.194 226.217 317.652 226.656C318.109 227.085 318.66 227.3 319.304 227.3C319.817 227.3 320.251 227.174 320.606 226.922C320.96 226.67 321.226 226.376 321.404 226.04ZM324.269 228V221H324.969L325.109 221.91H325.179C325.319 221.705 325.487 221.532 325.683 221.392C326.15 221.037 326.705 220.86 327.349 220.86C328.161 220.86 328.829 221.135 329.351 221.686C329.883 222.227 330.149 222.932 330.149 223.8V228H329.309V223.8C329.309 223.165 329.118 222.657 328.735 222.274C328.362 221.891 327.877 221.7 327.279 221.7C326.645 221.7 326.122 221.901 325.711 222.302C325.31 222.703 325.109 223.203 325.109 223.8V228H324.269ZM332.537 226.81V221.84H331.417V221H332.537V219.04H333.377V221H335.127V221.84H333.377V226.67C333.377 226.997 333.54 227.16 333.867 227.16H335.127V228H333.797C333.405 228 333.097 227.893 332.873 227.678C332.649 227.463 332.537 227.174 332.537 226.81ZM340.089 228V218.2H340.929V228H340.089ZM348.384 227.118C347.749 227.799 346.97 228.14 346.046 228.14C345.122 228.14 344.343 227.799 343.708 227.118C343.073 226.437 342.756 225.564 342.756 224.5C342.756 223.436 343.073 222.563 343.708 221.882C344.343 221.201 345.122 220.86 346.046 220.86C346.97 220.86 347.749 221.201 348.384 221.882C349.019 222.563 349.336 223.436 349.336 224.5C349.336 225.564 349.019 226.437 348.384 227.118ZM347.782 226.516C348.258 225.993 348.496 225.321 348.496 224.5C348.496 223.679 348.258 223.007 347.782 222.484C347.306 221.961 346.727 221.7 346.046 221.7C345.365 221.7 344.786 221.961 344.31 222.484C343.834 223.007 343.596 223.679 343.596 224.5C343.596 225.321 343.834 225.993 344.31 226.516C344.786 227.039 345.365 227.3 346.046 227.3C346.727 227.3 347.306 227.039 347.782 226.516ZM356.05 225.69H356.96C356.783 226.465 356.419 227.067 355.868 227.496C355.327 227.925 354.664 228.14 353.88 228.14C352.909 228.14 352.116 227.809 351.5 227.146C350.893 226.483 350.59 225.601 350.59 224.5C350.59 223.399 350.893 222.517 351.5 221.854C352.116 221.191 352.909 220.86 353.88 220.86C354.655 220.86 355.317 221.075 355.868 221.504C356.419 221.924 356.783 222.503 356.96 223.24H356.05C355.947 222.867 355.714 222.517 355.35 222.19C354.995 221.863 354.505 221.7 353.88 221.7C353.161 221.7 352.573 221.952 352.116 222.456C351.659 222.96 351.43 223.641 351.43 224.5C351.43 225.359 351.659 226.04 352.116 226.544C352.573 227.048 353.161 227.3 353.88 227.3C354.496 227.3 354.986 227.127 355.35 226.782C355.714 226.437 355.947 226.073 356.05 225.69ZM363.191 228L363.051 227.02H362.981C362.841 227.216 362.649 227.403 362.407 227.58C361.884 227.953 361.305 228.14 360.671 228.14C359.952 228.14 359.373 227.939 358.935 227.538C358.505 227.137 358.291 226.614 358.291 225.97C358.291 225.307 358.524 224.78 358.991 224.388C359.457 223.996 360.134 223.8 361.021 223.8H363.051V223.52C363.051 222.307 362.444 221.7 361.231 221.7C360.68 221.7 360.237 221.821 359.901 222.064C359.574 222.307 359.387 222.629 359.341 223.03H358.501C358.585 222.405 358.86 221.887 359.327 221.476C359.793 221.065 360.428 220.86 361.231 220.86C362.08 220.86 362.733 221.093 363.191 221.56C363.657 222.017 363.891 222.671 363.891 223.52V228H363.191ZM363.051 224.92V224.57H361.021C360.405 224.57 359.933 224.701 359.607 224.962C359.289 225.223 359.131 225.559 359.131 225.97C359.131 226.371 359.266 226.693 359.537 226.936C359.807 227.179 360.185 227.3 360.671 227.3C361.408 227.3 361.987 227.09 362.407 226.67C362.836 226.241 363.051 225.657 363.051 224.92ZM366.279 226.81V221.84H365.159V221H366.279V219.04H367.119V221H368.869V221.84H367.119V226.67C367.119 226.997 367.283 227.16 367.609 227.16H368.869V228H367.539C367.147 228 366.839 227.893 366.615 227.678C366.391 227.463 366.279 227.174 366.279 226.81ZM370.687 228V221H371.527V228H370.687ZM370.617 219.39V218.41H371.597V219.39H370.617ZM378.982 227.118C378.347 227.799 377.568 228.14 376.644 228.14C375.72 228.14 374.94 227.799 374.306 227.118C373.671 226.437 373.354 225.564 373.354 224.5C373.354 223.436 373.671 222.563 374.306 221.882C374.94 221.201 375.72 220.86 376.644 220.86C377.568 220.86 378.347 221.201 378.982 221.882C379.616 222.563 379.934 223.436 379.934 224.5C379.934 225.564 379.616 226.437 378.982 227.118ZM378.38 226.516C378.856 225.993 379.094 225.321 379.094 224.5C379.094 223.679 378.856 223.007 378.38 222.484C377.904 221.961 377.325 221.7 376.644 221.7C375.962 221.7 375.384 221.961 374.908 222.484C374.432 223.007 374.194 223.679 374.194 224.5C374.194 225.321 374.432 225.993 374.908 226.516C375.384 227.039 375.962 227.3 376.644 227.3C377.325 227.3 377.904 227.039 378.38 226.516ZM381.678 228V221H382.378L382.518 221.91H382.588C382.728 221.705 382.896 221.532 383.092 221.392C383.558 221.037 384.114 220.86 384.758 220.86C385.57 220.86 386.237 221.135 386.76 221.686C387.292 222.227 387.558 222.932 387.558 223.8V228H386.718V223.8C386.718 223.165 386.526 222.657 386.144 222.274C385.77 221.891 385.285 221.7 384.688 221.7C384.053 221.7 383.53 221.901 383.12 222.302C382.718 222.703 382.518 223.203 382.518 223.8V228H381.678ZM393.569 228L391.679 221H392.519L394.129 227.09H394.409L396.019 221H397.419L399.029 227.09H399.309L400.919 221H401.759L399.869 228H398.469L396.859 222.05H396.579L394.955 228H393.569ZM403.226 228V218.2H404.066V221.91H404.136C404.276 221.705 404.444 221.532 404.64 221.392C405.107 221.037 405.662 220.86 406.306 220.86C407.118 220.86 407.785 221.135 408.308 221.686C408.84 222.227 409.106 222.932 409.106 223.8V228H408.266V223.8C408.266 223.165 408.075 222.657 407.692 222.274C407.319 221.891 406.833 221.7 406.236 221.7C405.601 221.7 405.079 221.901 404.668 222.302C404.267 222.703 404.066 223.203 404.066 223.8V228H403.226ZM411.416 228V221H412.256V228H411.416ZM411.346 219.39V218.41H412.326V219.39H411.346ZM414.642 228V218.2H415.482V228H414.642ZM418.149 224.08H422.979C422.941 223.38 422.699 222.811 422.251 222.372C421.812 221.924 421.261 221.7 420.599 221.7C419.927 221.7 419.367 221.915 418.919 222.344C418.48 222.764 418.223 223.343 418.149 224.08ZM422.699 226.04H423.609C423.403 226.619 423.053 227.113 422.559 227.524C422.073 227.935 421.42 228.14 420.599 228.14C419.628 228.14 418.835 227.809 418.219 227.146C417.612 226.483 417.309 225.601 417.309 224.5C417.309 223.399 417.612 222.517 418.219 221.854C418.835 221.191 419.628 220.86 420.599 220.86C421.523 220.86 422.288 221.187 422.895 221.84C423.511 222.484 423.819 223.324 423.819 224.36C423.819 224.5 423.809 224.635 423.791 224.766C423.781 224.803 423.777 224.855 423.777 224.92H418.149C418.223 225.639 418.489 226.217 418.947 226.656C419.404 227.085 419.955 227.3 420.599 227.3C421.112 227.3 421.546 227.174 421.901 226.922C422.255 226.67 422.521 226.376 422.699 226.04ZM428.005 230.8V229.96H429.195C429.354 229.96 429.47 229.923 429.545 229.848C429.629 229.773 429.699 229.661 429.755 229.512L430.133 228.448L427.305 221H428.145L430.385 226.95H430.665L432.765 221H433.605L430.455 229.89C430.231 230.497 429.811 230.8 429.195 230.8H428.005ZM439.862 227.118C439.228 227.799 438.448 228.14 437.524 228.14C436.6 228.14 435.821 227.799 435.186 227.118C434.552 226.437 434.234 225.564 434.234 224.5C434.234 223.436 434.552 222.563 435.186 221.882C435.821 221.201 436.6 220.86 437.524 220.86C438.448 220.86 439.228 221.201 439.862 221.882C440.497 222.563 440.814 223.436 440.814 224.5C440.814 225.564 440.497 226.437 439.862 227.118ZM439.26 226.516C439.736 225.993 439.974 225.321 439.974 224.5C439.974 223.679 439.736 223.007 439.26 222.484C438.784 221.961 438.206 221.7 437.524 221.7C436.843 221.7 436.264 221.961 435.788 222.484C435.312 223.007 435.074 223.679 435.074 224.5C435.074 225.321 435.312 225.993 435.788 226.516C436.264 227.039 436.843 227.3 437.524 227.3C438.206 227.3 438.784 227.039 439.26 226.516ZM442.558 225.2V221H443.398V225.2C443.398 225.835 443.585 226.343 443.958 226.726C444.341 227.109 444.831 227.3 445.428 227.3C446.063 227.3 446.581 227.099 446.982 226.698C447.393 226.297 447.598 225.797 447.598 225.2V221H448.438V228H447.738L447.598 227.09H447.528C447.398 227.295 447.23 227.473 447.024 227.622C446.567 227.967 446.012 228.14 445.358 228.14C444.546 228.14 443.874 227.869 443.342 227.328C442.82 226.777 442.558 226.068 442.558 225.2ZM458.794 225.69H459.704C459.527 226.465 459.163 227.067 458.612 227.496C458.071 227.925 457.408 228.14 456.624 228.14C455.653 228.14 454.86 227.809 454.244 227.146C453.637 226.483 453.334 225.601 453.334 224.5C453.334 223.399 453.637 222.517 454.244 221.854C454.86 221.191 455.653 220.86 456.624 220.86C457.399 220.86 458.061 221.075 458.612 221.504C459.163 221.924 459.527 222.503 459.704 223.24H458.794C458.691 222.867 458.458 222.517 458.094 222.19C457.739 221.863 457.249 221.7 456.624 221.7C455.905 221.7 455.317 221.952 454.86 222.456C454.403 222.96 454.174 223.641 454.174 224.5C454.174 225.359 454.403 226.04 454.86 226.544C455.317 227.048 455.905 227.3 456.624 227.3C457.24 227.3 457.73 227.127 458.094 226.782C458.458 226.437 458.691 226.073 458.794 225.69ZM461.455 228V218.2H462.295V221.91H462.365C462.505 221.705 462.673 221.532 462.869 221.392C463.335 221.037 463.891 220.86 464.535 220.86C465.347 220.86 466.014 221.135 466.537 221.686C467.069 222.227 467.335 222.932 467.335 223.8V228H466.495V223.8C466.495 223.165 466.303 222.657 465.921 222.274C465.547 221.891 465.062 221.7 464.465 221.7C463.83 221.7 463.307 221.901 462.897 222.302C462.495 222.703 462.295 223.203 462.295 223.8V228H461.455ZM469.924 224.08H474.754C474.717 223.38 474.474 222.811 474.026 222.372C473.587 221.924 473.037 221.7 472.374 221.7C471.702 221.7 471.142 221.915 470.694 222.344C470.255 222.764 469.999 223.343 469.924 224.08ZM474.474 226.04H475.384C475.179 226.619 474.829 227.113 474.334 227.524C473.849 227.935 473.195 228.14 472.374 228.14C471.403 228.14 470.61 227.809 469.994 227.146C469.387 226.483 469.084 225.601 469.084 224.5C469.084 223.399 469.387 222.517 469.994 221.854C470.61 221.191 471.403 220.86 472.374 220.86C473.298 220.86 474.063 221.187 474.67 221.84C475.286 222.484 475.594 223.324 475.594 224.36C475.594 224.5 475.585 224.635 475.566 224.766C475.557 224.803 475.552 224.855 475.552 224.92H469.924C469.999 225.639 470.265 226.217 470.722 226.656C471.179 227.085 471.73 227.3 472.374 227.3C472.887 227.3 473.321 227.174 473.676 226.922C474.031 226.67 474.297 226.376 474.474 226.04ZM482.31 225.69H483.22C483.042 226.465 482.678 227.067 482.128 227.496C481.586 227.925 480.924 228.14 480.14 228.14C479.169 228.14 478.376 227.809 477.76 227.146C477.153 226.483 476.85 225.601 476.85 224.5C476.85 223.399 477.153 222.517 477.76 221.854C478.376 221.191 479.169 220.86 480.14 220.86C480.914 220.86 481.577 221.075 482.128 221.504C482.678 221.924 483.042 222.503 483.22 223.24H482.31C482.207 222.867 481.974 222.517 481.61 222.19C481.255 221.863 480.765 221.7 480.14 221.7C479.421 221.7 478.833 221.952 478.376 222.456C477.918 222.96 477.69 223.641 477.69 224.5C477.69 225.359 477.918 226.04 478.376 226.544C478.833 227.048 479.421 227.3 480.14 227.3C480.756 227.3 481.246 227.127 481.61 226.782C481.974 226.437 482.207 226.073 482.31 225.69ZM484.97 228V218.2H485.81V224.22L489.212 221H490.36L486.72 224.43L490.5 228H489.352L485.81 224.64V228H484.97ZM491.697 228V221H492.537V228H491.697ZM491.627 219.39V218.41H492.607V219.39H491.627ZM494.853 228V221H495.553L495.693 221.91H495.763C495.903 221.705 496.071 221.532 496.267 221.392C496.734 221.037 497.289 220.86 497.933 220.86C498.745 220.86 499.413 221.135 499.935 221.686C500.467 222.227 500.733 222.932 500.733 223.8V228H499.893V223.8C499.893 223.165 499.702 222.657 499.319 222.274C498.946 221.891 498.461 221.7 497.863 221.7C497.229 221.7 496.706 221.901 496.295 222.302C495.894 222.703 495.693 223.203 495.693 223.8V228H494.853ZM502.834 228V227.02H503.814V228H502.834ZM159.326 240.544C159.774 241.048 160.344 241.3 161.034 241.3C161.725 241.3 162.294 241.048 162.742 240.544C163.19 240.04 163.414 239.359 163.414 238.5C163.414 237.641 163.19 236.96 162.742 236.456C162.294 235.952 161.725 235.7 161.034 235.7C160.344 235.7 159.774 235.952 159.326 236.456C158.878 236.96 158.654 237.641 158.654 238.5C158.654 239.359 158.878 240.04 159.326 240.544ZM157.814 244.8V235H158.514L158.654 236.12H158.724C158.911 235.821 159.21 235.537 159.62 235.266C160.031 234.995 160.526 234.86 161.104 234.86C162 234.86 162.747 235.196 163.344 235.868C163.951 236.531 164.254 237.408 164.254 238.5C164.254 239.592 163.951 240.474 163.344 241.146C162.747 241.809 162 242.14 161.104 242.14C160.526 242.14 160.031 242.005 159.62 241.734C159.21 241.463 158.911 241.179 158.724 240.88H158.654V244.8H157.814ZM166.074 242V232.2H166.914V242H166.074ZM169.58 238.08H174.41C174.373 237.38 174.13 236.811 173.682 236.372C173.244 235.924 172.693 235.7 172.03 235.7C171.358 235.7 170.798 235.915 170.35 236.344C169.912 236.764 169.655 237.343 169.58 238.08ZM174.13 240.04H175.04C174.835 240.619 174.485 241.113 173.99 241.524C173.505 241.935 172.852 242.14 172.03 242.14C171.06 242.14 170.266 241.809 169.65 241.146C169.044 240.483 168.74 239.601 168.74 238.5C168.74 237.399 169.044 236.517 169.65 235.854C170.266 235.191 171.06 234.86 172.03 234.86C172.954 234.86 173.72 235.187 174.326 235.84C174.942 236.484 175.25 237.324 175.25 238.36C175.25 238.5 175.241 238.635 175.222 238.766C175.213 238.803 175.208 238.855 175.208 238.92H169.58C169.655 239.639 169.921 240.217 170.378 240.656C170.836 241.085 171.386 241.3 172.03 241.3C172.544 241.3 172.978 241.174 173.332 240.922C173.687 240.67 173.953 240.376 174.13 240.04ZM181.546 242L181.406 241.02H181.336C181.196 241.216 181.005 241.403 180.762 241.58C180.239 241.953 179.661 242.14 179.026 242.14C178.307 242.14 177.729 241.939 177.29 241.538C176.861 241.137 176.646 240.614 176.646 239.97C176.646 239.307 176.879 238.78 177.346 238.388C177.813 237.996 178.489 237.8 179.376 237.8H181.406V237.52C181.406 236.307 180.799 235.7 179.586 235.7C179.035 235.7 178.592 235.821 178.256 236.064C177.929 236.307 177.743 236.629 177.696 237.03H176.856C176.94 236.405 177.215 235.887 177.682 235.476C178.149 235.065 178.783 234.86 179.586 234.86C180.435 234.86 181.089 235.093 181.546 235.56C182.013 236.017 182.246 236.671 182.246 237.52V242H181.546ZM181.406 238.92V238.57H179.376C178.76 238.57 178.289 238.701 177.962 238.962C177.645 239.223 177.486 239.559 177.486 239.97C177.486 240.371 177.621 240.693 177.892 240.936C178.163 241.179 178.541 241.3 179.026 241.3C179.763 241.3 180.342 241.09 180.762 240.67C181.191 240.241 181.406 239.657 181.406 238.92ZM183.928 239.97H184.726C184.726 240.343 184.903 240.661 185.258 240.922C185.613 241.174 186.079 241.3 186.658 241.3C187.255 241.3 187.708 241.188 188.016 240.964C188.324 240.74 188.478 240.455 188.478 240.11C188.478 239.541 188.081 239.177 187.288 239.018L185.888 238.738C185.281 238.617 184.824 238.407 184.516 238.108C184.217 237.8 184.068 237.371 184.068 236.82C184.068 236.269 184.292 235.807 184.74 235.434C185.197 235.051 185.813 234.86 186.588 234.86C187.4 234.86 188.044 235.07 188.52 235.49C189.005 235.901 189.248 236.414 189.248 237.03H188.408C188.408 236.657 188.245 236.344 187.918 236.092C187.601 235.831 187.157 235.7 186.588 235.7C186.056 235.7 185.641 235.812 185.342 236.036C185.053 236.26 184.908 236.521 184.908 236.82C184.908 237.417 185.281 237.791 186.028 237.94L187.428 238.22C188.1 238.351 188.581 238.565 188.87 238.864C189.169 239.163 189.318 239.578 189.318 240.11C189.318 240.698 189.085 241.183 188.618 241.566C188.151 241.949 187.498 242.14 186.658 242.14C185.846 242.14 185.188 241.925 184.684 241.496C184.18 241.067 183.928 240.558 183.928 239.97ZM191.414 238.08H196.244C196.207 237.38 195.964 236.811 195.516 236.372C195.078 235.924 194.527 235.7 193.864 235.7C193.192 235.7 192.632 235.915 192.184 236.344C191.746 236.764 191.489 237.343 191.414 238.08ZM195.964 240.04H196.874C196.669 240.619 196.319 241.113 195.824 241.524C195.339 241.935 194.686 242.14 193.864 242.14C192.894 242.14 192.1 241.809 191.484 241.146C190.878 240.483 190.574 239.601 190.574 238.5C190.574 237.399 190.878 236.517 191.484 235.854C192.1 235.191 192.894 234.86 193.864 234.86C194.788 234.86 195.554 235.187 196.16 235.84C196.776 236.484 197.084 237.324 197.084 238.36C197.084 238.5 197.075 238.635 197.056 238.766C197.047 238.803 197.042 238.855 197.042 238.92H191.414C191.489 239.639 191.755 240.217 192.212 240.656C192.67 241.085 193.22 241.3 193.864 241.3C194.378 241.3 194.812 241.174 195.166 240.922C195.521 240.67 195.787 240.376 195.964 240.04ZM202.324 238.08H207.154C207.117 237.38 206.874 236.811 206.426 236.372C205.988 235.924 205.437 235.7 204.774 235.7C204.102 235.7 203.542 235.915 203.094 236.344C202.656 236.764 202.399 237.343 202.324 238.08ZM206.874 240.04H207.784C207.579 240.619 207.229 241.113 206.734 241.524C206.249 241.935 205.596 242.14 204.774 242.14C203.804 242.14 203.01 241.809 202.394 241.146C201.788 240.483 201.484 239.601 201.484 238.5C201.484 237.399 201.788 236.517 202.394 235.854C203.01 235.191 203.804 234.86 204.774 234.86C205.698 234.86 206.464 235.187 207.07 235.84C207.686 236.484 207.994 237.324 207.994 238.36C207.994 238.5 207.985 238.635 207.966 238.766C207.957 238.803 207.952 238.855 207.952 238.92H202.324C202.399 239.639 202.665 240.217 203.122 240.656C203.58 241.085 204.13 241.3 204.774 241.3C205.288 241.3 205.722 241.174 206.076 240.922C206.431 240.67 206.697 240.376 206.874 240.04ZM209.74 242V235H210.44L210.58 235.91H210.65C210.79 235.705 210.958 235.532 211.154 235.392C211.621 235.037 212.176 234.86 212.82 234.86C213.632 234.86 214.299 235.135 214.822 235.686C215.354 236.227 215.62 236.932 215.62 237.8V242H214.78V237.8C214.78 237.165 214.589 236.657 214.206 236.274C213.833 235.891 213.347 235.7 212.75 235.7C212.115 235.7 211.593 235.901 211.182 236.302C210.781 236.703 210.58 237.203 210.58 237.8V242H209.74ZM217.301 239.97H218.099C218.099 240.343 218.277 240.661 218.631 240.922C218.986 241.174 219.453 241.3 220.031 241.3C220.629 241.3 221.081 241.188 221.389 240.964C221.697 240.74 221.851 240.455 221.851 240.11C221.851 239.541 221.455 239.177 220.661 239.018L219.261 238.738C218.655 238.617 218.197 238.407 217.889 238.108C217.591 237.8 217.441 237.371 217.441 236.82C217.441 236.269 217.665 235.807 218.113 235.434C218.571 235.051 219.187 234.86 219.961 234.86C220.773 234.86 221.417 235.07 221.893 235.49C222.379 235.901 222.621 236.414 222.621 237.03H221.781C221.781 236.657 221.618 236.344 221.291 236.092C220.974 235.831 220.531 235.7 219.961 235.7C219.429 235.7 219.014 235.812 218.715 236.036C218.426 236.26 218.281 236.521 218.281 236.82C218.281 237.417 218.655 237.791 219.401 237.94L220.801 238.22C221.473 238.351 221.954 238.565 222.243 238.864C222.542 239.163 222.691 239.578 222.691 240.11C222.691 240.698 222.458 241.183 221.991 241.566C221.525 241.949 220.871 242.14 220.031 242.14C219.219 242.14 218.561 241.925 218.057 241.496C217.553 241.067 217.301 240.558 217.301 239.97ZM224.437 239.2V235H225.277V239.2C225.277 239.835 225.464 240.343 225.837 240.726C226.22 241.109 226.71 241.3 227.307 241.3C227.942 241.3 228.46 241.099 228.861 240.698C229.272 240.297 229.477 239.797 229.477 239.2V235H230.317V242H229.617L229.477 241.09H229.407C229.277 241.295 229.109 241.473 228.903 241.622C228.446 241.967 227.891 242.14 227.237 242.14C226.425 242.14 225.753 241.869 225.221 241.328C224.699 240.777 224.437 240.068 224.437 239.2ZM232.558 242V235H233.258L233.328 235.7H233.398C233.716 235.233 234.182 235 234.798 235H236.058V235.84H234.868C234.411 235.84 234.052 235.975 233.79 236.246C233.529 236.507 233.398 236.885 233.398 237.38V242H232.558ZM237.393 238.08H242.223C242.186 237.38 241.943 236.811 241.495 236.372C241.056 235.924 240.506 235.7 239.843 235.7C239.171 235.7 238.611 235.915 238.163 236.344C237.724 236.764 237.468 237.343 237.393 238.08ZM241.943 240.04H242.853C242.648 240.619 242.298 241.113 241.803 241.524C241.318 241.935 240.664 242.14 239.843 242.14C238.872 242.14 238.079 241.809 237.463 241.146C236.856 240.483 236.553 239.601 236.553 238.5C236.553 237.399 236.856 236.517 237.463 235.854C238.079 235.191 238.872 234.86 239.843 234.86C240.767 234.86 241.532 235.187 242.139 235.84C242.755 236.484 243.063 237.324 243.063 238.36C243.063 238.5 243.054 238.635 243.035 238.766C243.026 238.803 243.021 238.855 243.021 238.92H237.393C237.468 239.639 237.734 240.217 238.191 240.656C238.648 241.085 239.199 241.3 239.843 241.3C240.356 241.3 240.79 241.174 241.145 240.922C241.5 240.67 241.766 240.376 241.943 240.04ZM247.249 244.8V243.96H248.439C248.598 243.96 248.715 243.923 248.789 243.848C248.873 243.773 248.943 243.661 248.999 243.512L249.377 242.448L246.549 235H247.389L249.629 240.95H249.909L252.009 235H252.849L249.699 243.89C249.475 244.497 249.055 244.8 248.439 244.8H247.249ZM259.107 241.118C258.472 241.799 257.693 242.14 256.769 242.14C255.845 242.14 255.065 241.799 254.431 241.118C253.796 240.437 253.479 239.564 253.479 238.5C253.479 237.436 253.796 236.563 254.431 235.882C255.065 235.201 255.845 234.86 256.769 234.86C257.693 234.86 258.472 235.201 259.107 235.882C259.741 236.563 260.059 237.436 260.059 238.5C260.059 239.564 259.741 240.437 259.107 241.118ZM258.505 240.516C258.981 239.993 259.219 239.321 259.219 238.5C259.219 237.679 258.981 237.007 258.505 236.484C258.029 235.961 257.45 235.7 256.769 235.7C256.087 235.7 255.509 235.961 255.033 236.484C254.557 237.007 254.319 237.679 254.319 238.5C254.319 239.321 254.557 239.993 255.033 240.516C255.509 241.039 256.087 241.3 256.769 241.3C257.45 241.3 258.029 241.039 258.505 240.516ZM261.803 239.2V235H262.643V239.2C262.643 239.835 262.829 240.343 263.203 240.726C263.585 241.109 264.075 241.3 264.673 241.3C265.307 241.3 265.825 241.099 266.227 240.698C266.637 240.297 266.843 239.797 266.843 239.2V235H267.683V242H266.983L266.843 241.09H266.773C266.642 241.295 266.474 241.473 266.269 241.622C265.811 241.967 265.256 242.14 264.603 242.14C263.791 242.14 263.119 241.869 262.587 241.328C262.064 240.777 261.803 240.068 261.803 239.2ZM269.924 242V235H270.624L270.694 235.7H270.764C271.081 235.233 271.548 235 272.164 235H273.424V235.84H272.234C271.776 235.84 271.417 235.975 271.156 236.246C270.894 236.507 270.764 236.885 270.764 237.38V242H269.924ZM277.472 242V232.2H278.312V242H277.472ZM285.767 241.118C285.132 241.799 284.353 242.14 283.429 242.14C282.505 242.14 281.725 241.799 281.091 241.118C280.456 240.437 280.139 239.564 280.139 238.5C280.139 237.436 280.456 236.563 281.091 235.882C281.725 235.201 282.505 234.86 283.429 234.86C284.353 234.86 285.132 235.201 285.767 235.882C286.401 236.563 286.719 237.436 286.719 238.5C286.719 239.564 286.401 240.437 285.767 241.118ZM285.165 240.516C285.641 239.993 285.879 239.321 285.879 238.5C285.879 237.679 285.641 237.007 285.165 236.484C284.689 235.961 284.11 235.7 283.429 235.7C282.747 235.7 282.169 235.961 281.693 236.484C281.217 237.007 280.979 237.679 280.979 238.5C280.979 239.321 281.217 239.993 281.693 240.516C282.169 241.039 282.747 241.3 283.429 241.3C284.11 241.3 284.689 241.039 285.165 240.516ZM293.433 239.69H294.343C294.165 240.465 293.801 241.067 293.251 241.496C292.709 241.925 292.047 242.14 291.263 242.14C290.292 242.14 289.499 241.809 288.883 241.146C288.276 240.483 287.973 239.601 287.973 238.5C287.973 237.399 288.276 236.517 288.883 235.854C289.499 235.191 290.292 234.86 291.263 234.86C292.037 234.86 292.7 235.075 293.251 235.504C293.801 235.924 294.165 236.503 294.343 237.24H293.433C293.33 236.867 293.097 236.517 292.733 236.19C292.378 235.863 291.888 235.7 291.263 235.7C290.544 235.7 289.956 235.952 289.499 236.456C289.041 236.96 288.813 237.641 288.813 238.5C288.813 239.359 289.041 240.04 289.499 240.544C289.956 241.048 290.544 241.3 291.263 241.3C291.879 241.3 292.369 241.127 292.733 240.782C293.097 240.437 293.33 240.073 293.433 239.69ZM300.573 242L300.433 241.02H300.363C300.223 241.216 300.032 241.403 299.789 241.58C299.267 241.953 298.688 242.14 298.053 242.14C297.335 242.14 296.756 241.939 296.317 241.538C295.888 241.137 295.673 240.614 295.673 239.97C295.673 239.307 295.907 238.78 296.373 238.388C296.84 237.996 297.517 237.8 298.403 237.8H300.433V237.52C300.433 236.307 299.827 235.7 298.613 235.7C298.063 235.7 297.619 235.821 297.283 236.064C296.957 236.307 296.77 236.629 296.723 237.03H295.883C295.967 236.405 296.243 235.887 296.709 235.476C297.176 235.065 297.811 234.86 298.613 234.86C299.463 234.86 300.116 235.093 300.573 235.56C301.04 236.017 301.273 236.671 301.273 237.52V242H300.573ZM300.433 238.92V238.57H298.403C297.787 238.57 297.316 238.701 296.989 238.962C296.672 239.223 296.513 239.559 296.513 239.97C296.513 240.371 296.649 240.693 296.919 240.936C297.19 241.179 297.568 241.3 298.053 241.3C298.791 241.3 299.369 241.09 299.789 240.67C300.219 240.241 300.433 239.657 300.433 238.92ZM303.662 240.81V235.84H302.542V235H303.662V233.04H304.502V235H306.252V235.84H304.502V240.67C304.502 240.997 304.665 241.16 304.992 241.16H306.252V242H304.922C304.53 242 304.222 241.893 303.998 241.678C303.774 241.463 303.662 241.174 303.662 240.81ZM308.07 242V235H308.91V242H308.07ZM308 233.39V232.41H308.98V233.39H308ZM316.364 241.118C315.73 241.799 314.95 242.14 314.026 242.14C313.102 242.14 312.323 241.799 311.688 241.118C311.054 240.437 310.736 239.564 310.736 238.5C310.736 237.436 311.054 236.563 311.688 235.882C312.323 235.201 313.102 234.86 314.026 234.86C314.95 234.86 315.73 235.201 316.364 235.882C316.999 236.563 317.316 237.436 317.316 238.5C317.316 239.564 316.999 240.437 316.364 241.118ZM315.762 240.516C316.238 239.993 316.476 239.321 316.476 238.5C316.476 237.679 316.238 237.007 315.762 236.484C315.286 235.961 314.708 235.7 314.026 235.7C313.345 235.7 312.766 235.961 312.29 236.484C311.814 237.007 311.576 237.679 311.576 238.5C311.576 239.321 311.814 239.993 312.29 240.516C312.766 241.039 313.345 241.3 314.026 241.3C314.708 241.3 315.286 241.039 315.762 240.516ZM319.06 242V235H319.76L319.9 235.91H319.97C320.11 235.705 320.278 235.532 320.474 235.392C320.941 235.037 321.496 234.86 322.14 234.86C322.952 234.86 323.62 235.135 324.142 235.686C324.674 236.227 324.94 236.932 324.94 237.8V242H324.1V237.8C324.1 237.165 323.909 236.657 323.526 236.274C323.153 235.891 322.668 235.7 322.07 235.7C321.436 235.7 320.913 235.901 320.502 236.302C320.101 236.703 319.9 237.203 319.9 237.8V242H319.06ZM329.766 239.97H330.564C330.564 240.343 330.741 240.661 331.096 240.922C331.451 241.174 331.917 241.3 332.496 241.3C333.093 241.3 333.546 241.188 333.854 240.964C334.162 240.74 334.316 240.455 334.316 240.11C334.316 239.541 333.919 239.177 333.126 239.018L331.726 238.738C331.119 238.617 330.662 238.407 330.354 238.108C330.055 237.8 329.906 237.371 329.906 236.82C329.906 236.269 330.13 235.807 330.578 235.434C331.035 235.051 331.651 234.86 332.426 234.86C333.238 234.86 333.882 235.07 334.358 235.49C334.843 235.901 335.086 236.414 335.086 237.03H334.246C334.246 236.657 334.083 236.344 333.756 236.092C333.439 235.831 332.995 235.7 332.426 235.7C331.894 235.7 331.479 235.812 331.18 236.036C330.891 236.26 330.746 236.521 330.746 236.82C330.746 237.417 331.119 237.791 331.866 237.94L333.266 238.22C333.938 238.351 334.419 238.565 334.708 238.864C335.007 239.163 335.156 239.578 335.156 240.11C335.156 240.698 334.923 241.183 334.456 241.566C333.989 241.949 333.336 242.14 332.496 242.14C331.684 242.14 331.026 241.925 330.522 241.496C330.018 241.067 329.766 240.558 329.766 239.97ZM337.252 238.08H342.082C342.045 237.38 341.802 236.811 341.354 236.372C340.916 235.924 340.365 235.7 339.702 235.7C339.03 235.7 338.47 235.915 338.022 236.344C337.584 236.764 337.327 237.343 337.252 238.08ZM341.802 240.04H342.712C342.507 240.619 342.157 241.113 341.662 241.524C341.177 241.935 340.524 242.14 339.702 242.14C338.732 242.14 337.938 241.809 337.322 241.146C336.716 240.483 336.412 239.601 336.412 238.5C336.412 237.399 336.716 236.517 337.322 235.854C337.938 235.191 338.732 234.86 339.702 234.86C340.626 234.86 341.392 235.187 341.998 235.84C342.614 236.484 342.922 237.324 342.922 238.36C342.922 238.5 342.913 238.635 342.894 238.766C342.885 238.803 342.88 238.855 342.88 238.92H337.252C337.327 239.639 337.593 240.217 338.05 240.656C338.508 241.085 339.058 241.3 339.702 241.3C340.216 241.3 340.65 241.174 341.004 240.922C341.359 240.67 341.625 240.376 341.802 240.04ZM344.814 240.81V235.84H343.694V235H344.814V233.04H345.654V235H347.404V235.84H345.654V240.67C345.654 240.997 345.818 241.16 346.144 241.16H347.404V242H346.074C345.682 242 345.374 241.893 345.15 241.678C344.926 241.463 344.814 241.174 344.814 240.81ZM349.572 240.81V235.84H348.452V235H349.572V233.04H350.412V235H352.162V235.84H350.412V240.67C350.412 240.997 350.576 241.16 350.902 241.16H352.162V242H350.832C350.44 242 350.132 241.893 349.908 241.678C349.684 241.463 349.572 241.174 349.572 240.81ZM353.98 242V235H354.82V242H353.98ZM353.91 233.39V232.41H354.89V233.39H353.91ZM357.137 242V235H357.837L357.977 235.91H358.047C358.187 235.705 358.355 235.532 358.551 235.392C359.017 235.037 359.573 234.86 360.217 234.86C361.029 234.86 361.696 235.135 362.219 235.686C362.751 236.227 363.017 236.932 363.017 237.8V242H362.177V237.8C362.177 237.165 361.985 236.657 361.603 236.274C361.229 235.891 360.744 235.7 360.147 235.7C359.512 235.7 358.989 235.901 358.579 236.302C358.177 236.703 357.977 237.203 357.977 237.8V242H357.137ZM366.28 240.152C366.737 240.637 367.306 240.88 367.988 240.88C368.669 240.88 369.234 240.637 369.682 240.152C370.139 239.667 370.368 239.046 370.368 238.29C370.368 237.534 370.139 236.913 369.682 236.428C369.234 235.943 368.669 235.7 367.988 235.7C367.306 235.7 366.737 235.943 366.28 236.428C365.832 236.913 365.608 237.534 365.608 238.29C365.608 239.046 365.832 239.667 366.28 240.152ZM365.118 242.56H365.958C365.995 243.008 366.2 243.377 366.574 243.666C366.947 243.955 367.465 244.1 368.128 244.1C368.818 244.1 369.364 243.909 369.766 243.526C370.167 243.153 370.368 242.644 370.368 242V240.46H370.298C369.691 241.3 368.898 241.72 367.918 241.72C367.031 241.72 366.284 241.398 365.678 240.754C365.071 240.11 364.768 239.289 364.768 238.29C364.768 237.291 365.071 236.47 365.678 235.826C366.284 235.182 367.031 234.86 367.918 234.86C368.898 234.86 369.691 235.28 370.298 236.12H370.368L370.508 235H371.208V242C371.208 242.877 370.928 243.587 370.368 244.128C369.817 244.669 369.07 244.94 368.128 244.94C367.25 244.94 366.541 244.707 366 244.24C365.468 243.783 365.174 243.223 365.118 242.56ZM376.662 242V235H377.502V242H376.662ZM376.592 233.39V232.41H377.572V233.39H376.592ZM379.258 239.97H380.056C380.056 240.343 380.234 240.661 380.588 240.922C380.943 241.174 381.41 241.3 381.988 241.3C382.586 241.3 383.038 241.188 383.346 240.964C383.654 240.74 383.808 240.455 383.808 240.11C383.808 239.541 383.412 239.177 382.618 239.018L381.218 238.738C380.612 238.617 380.154 238.407 379.846 238.108C379.548 237.8 379.398 237.371 379.398 236.82C379.398 236.269 379.622 235.807 380.07 235.434C380.528 235.051 381.144 234.86 381.918 234.86C382.73 234.86 383.374 235.07 383.85 235.49C384.336 235.901 384.578 236.414 384.578 237.03H383.738C383.738 236.657 383.575 236.344 383.248 236.092C382.931 235.831 382.488 235.7 381.918 235.7C381.386 235.7 380.971 235.812 380.672 236.036C380.383 236.26 380.238 236.521 380.238 236.82C380.238 237.417 380.612 237.791 381.358 237.94L382.758 238.22C383.43 238.351 383.911 238.565 384.2 238.864C384.499 239.163 384.648 239.578 384.648 240.11C384.648 240.698 384.415 241.183 383.948 241.566C383.482 241.949 382.828 242.14 381.988 242.14C381.176 242.14 380.518 241.925 380.014 241.496C379.51 241.067 379.258 240.558 379.258 239.97ZM389.889 238.08H394.719C394.682 237.38 394.439 236.811 393.991 236.372C393.552 235.924 393.002 235.7 392.339 235.7C391.667 235.7 391.107 235.915 390.659 236.344C390.22 236.764 389.964 237.343 389.889 238.08ZM394.439 240.04H395.349C395.144 240.619 394.794 241.113 394.299 241.524C393.814 241.935 393.16 242.14 392.339 242.14C391.368 242.14 390.575 241.809 389.959 241.146C389.352 240.483 389.049 239.601 389.049 238.5C389.049 237.399 389.352 236.517 389.959 235.854C390.575 235.191 391.368 234.86 392.339 234.86C393.263 234.86 394.028 235.187 394.635 235.84C395.251 236.484 395.559 237.324 395.559 238.36C395.559 238.5 395.55 238.635 395.531 238.766C395.522 238.803 395.517 238.855 395.517 238.92H389.889C389.964 239.639 390.23 240.217 390.687 240.656C391.144 241.085 391.695 241.3 392.339 241.3C392.852 241.3 393.286 241.174 393.641 240.922C393.996 240.67 394.262 240.376 394.439 240.04ZM397.305 242V235H398.005L398.145 235.91H398.215C398.355 235.705 398.523 235.532 398.719 235.392C399.185 235.037 399.741 234.86 400.385 234.86C401.197 234.86 401.864 235.135 402.387 235.686C402.919 236.227 403.185 236.932 403.185 237.8V242H402.345V237.8C402.345 237.165 402.153 236.657 401.771 236.274C401.397 235.891 400.912 235.7 400.315 235.7C399.68 235.7 399.157 235.901 398.747 236.302C398.345 236.703 398.145 237.203 398.145 237.8V242H397.305ZM409.976 242L409.836 241.02H409.766C409.626 241.216 409.434 241.403 409.192 241.58C408.669 241.953 408.09 242.14 407.456 242.14C406.737 242.14 406.158 241.939 405.72 241.538C405.29 241.137 405.076 240.614 405.076 239.97C405.076 239.307 405.309 238.78 405.776 238.388C406.242 237.996 406.919 237.8 407.806 237.8H409.836V237.52C409.836 236.307 409.229 235.7 408.016 235.7C407.465 235.7 407.022 235.821 406.686 236.064C406.359 236.307 406.172 236.629 406.126 237.03H405.286C405.37 236.405 405.645 235.887 406.112 235.476C406.578 235.065 407.213 234.86 408.016 234.86C408.865 234.86 409.518 235.093 409.976 235.56C410.442 236.017 410.676 236.671 410.676 237.52V242H409.976ZM409.836 238.92V238.57H407.806C407.19 238.57 406.718 238.701 406.392 238.962C406.074 239.223 405.916 239.559 405.916 239.97C405.916 240.371 406.051 240.693 406.322 240.936C406.592 241.179 406.97 241.3 407.456 241.3C408.193 241.3 408.772 241.09 409.192 240.67C409.621 240.241 409.836 239.657 409.836 238.92ZM414.5 240.544C414.948 241.048 415.517 241.3 416.208 241.3C416.899 241.3 417.468 241.048 417.916 240.544C418.364 240.04 418.588 239.359 418.588 238.5C418.588 237.641 418.364 236.96 417.916 236.456C417.468 235.952 416.899 235.7 416.208 235.7C415.517 235.7 414.948 235.952 414.5 236.456C414.052 236.96 413.828 237.641 413.828 238.5C413.828 239.359 414.052 240.04 414.5 240.544ZM412.988 242V232.2H413.828V236.12H413.898C414.085 235.821 414.383 235.537 414.794 235.266C415.205 234.995 415.699 234.86 416.278 234.86C417.174 234.86 417.921 235.196 418.518 235.868C419.125 236.531 419.428 237.408 419.428 238.5C419.428 239.592 419.125 240.474 418.518 241.146C417.921 241.809 417.174 242.14 416.278 242.14C415.699 242.14 415.205 242.005 414.794 241.734C414.383 241.463 414.085 241.179 413.898 240.88H413.828L413.688 242H412.988ZM421.246 242V232.2H422.086V242H421.246ZM424.752 238.08H429.582C429.545 237.38 429.302 236.811 428.854 236.372C428.416 235.924 427.865 235.7 427.202 235.7C426.53 235.7 425.97 235.915 425.522 236.344C425.084 236.764 424.827 237.343 424.752 238.08ZM429.302 240.04H430.212C430.007 240.619 429.657 241.113 429.162 241.524C428.677 241.935 428.024 242.14 427.202 242.14C426.232 242.14 425.438 241.809 424.822 241.146C424.216 240.483 423.912 239.601 423.912 238.5C423.912 237.399 424.216 236.517 424.822 235.854C425.438 235.191 426.232 234.86 427.202 234.86C428.126 234.86 428.892 235.187 429.498 235.84C430.114 236.484 430.422 237.324 430.422 238.36C430.422 238.5 430.413 238.635 430.394 238.766C430.385 238.803 430.38 238.855 430.38 238.92H424.752C424.827 239.639 425.093 240.217 425.55 240.656C426.008 241.085 426.558 241.3 427.202 241.3C427.716 241.3 428.15 241.174 428.504 240.922C428.859 240.67 429.125 240.376 429.302 240.04ZM433.19 240.544C433.638 241.048 434.207 241.3 434.898 241.3C435.589 241.3 436.158 241.048 436.606 240.544C437.054 240.04 437.278 239.359 437.278 238.5C437.278 237.641 437.054 236.96 436.606 236.456C436.158 235.952 435.589 235.7 434.898 235.7C434.207 235.7 433.638 235.952 433.19 236.456C432.742 236.96 432.518 237.641 432.518 238.5C432.518 239.359 432.742 240.04 433.19 240.544ZM437.418 242L437.278 240.88H437.208C436.601 241.72 435.808 242.14 434.828 242.14C433.932 242.14 433.181 241.809 432.574 241.146C431.977 240.474 431.678 239.592 431.678 238.5C431.678 237.408 431.977 236.531 432.574 235.868C433.181 235.196 433.932 234.86 434.828 234.86C435.808 234.86 436.601 235.28 437.208 236.12H437.278V232.2H438.118V242H437.418Z" fill="#E4E4E7"/>
<defs>
<linearGradient id="paint0_linear_3550_114012" x1="-146.931" y1="-101.024" x2="467.827" y2="444.918" gradientUnits="userSpaceOnUse">
<stop stop-color="white"/>
<stop offset="1" stop-color="white" stop-opacity="0"/>
</linearGradient>
<clipPath id="clip0_3550_114012">
<rect width="20" height="20" fill="white" transform="translate(16 118)"/>
</clipPath>
</defs>
</svg>
