<svg width="48" height="48" viewBox="0 0 48 48" fill="none" xmlns="http://www.w3.org/2000/svg">
<path d="M40.6673 45.3318H12.0007C8.32332 45.3318 5.33398 42.3398 5.33398 38.6651C5.33398 37.5611 6.22998 36.6651 7.33398 36.6651C8.43798 36.6651 9.33398 37.5611 9.33398 38.6651C9.33398 40.1345 10.5287 41.3318 12.0007 41.3318H37.5793C36.8407 38.2731 37.534 34.8171 39.0753 32.7878C39.742 31.9105 40.9953 31.7371 41.878 32.4038C42.758 33.0705 42.9313 34.3265 42.2647 35.2065C41.0967 36.7425 40.862 40.2998 42.254 42.1105C42.7207 42.7131 42.8007 43.5291 42.4647 44.2145C42.1287 44.8998 41.4327 45.3318 40.67 45.3318H40.6673Z" fill="white"/>
<path d="M40.6673 2.66602H12.6673C8.62198 2.66602 5.33398 5.95402 5.33398 9.99935V38.666C5.33398 39.77 6.22998 40.666 7.33398 40.666C8.43798 40.666 9.33398 39.77 9.33398 38.666C9.33398 37.1967 10.5287 35.9994 12.0007 35.9994H40.6673C41.7713 35.9994 42.6673 35.1034 42.6673 33.9993V4.66602C42.6673 3.56202 41.7713 2.66602 40.6673 2.66602ZM26.6673 20.682V26.666C26.6673 28.138 25.4727 29.3327 24.0007 29.3327C22.5287 29.3327 21.334 28.138 21.334 26.666V20.682C19.366 19.698 18.0007 17.6847 18.0007 15.3327C18.0007 12.7247 19.6753 10.5273 22.0007 9.70068V14.666C22.0007 15.402 22.598 15.9993 23.334 15.9993H24.6673C25.4033 15.9993 26.0007 15.402 26.0007 14.666V9.70068C28.326 10.5273 30.0007 12.7247 30.0007 15.3327C30.0007 17.6847 28.6353 19.698 26.6673 20.682Z" fill="white"/>
</svg>
