<svg width="48" height="48" viewBox="0 0 48 48" fill="none" xmlns="http://www.w3.org/2000/svg">
<path fill-rule="evenodd" clip-rule="evenodd" d="M2 22.5H8.5V25.5H2V22.5Z" fill="white"/>
<path fill-rule="evenodd" clip-rule="evenodd" d="M2 10H9V13H2V10Z" fill="white"/>
<path fill-rule="evenodd" clip-rule="evenodd" d="M2 35H9V38H2V35Z" fill="white"/>
<path fill-rule="evenodd" clip-rule="evenodd" d="M36 2C39.3137 2 42 4.68629 42 8V40C42 43.3137 39.3137 46 36 46H12C8.68629 46 6 43.3137 6 40V8C6 4.68629 8.68629 2 12 2H36ZM38 18.5H32.5C29.4624 18.5 27 20.9624 27 24C27 27.0376 29.4624 29.5 32.5 29.5H38V18.5Z" fill="white"/>
<path fill-rule="evenodd" clip-rule="evenodd" d="M32.4996 24.334C32.6837 24.334 32.833 24.1847 32.833 24.0006C32.833 23.8165 32.6837 23.6673 32.4996 23.6673C32.3155 23.6673 32.1663 23.8165 32.1663 24.0006C32.1663 24.1847 32.3155 24.334 32.4996 24.334ZM30.833 24.0006C30.833 23.0801 31.5791 22.334 32.4996 22.334C33.4201 22.334 34.1663 23.0801 34.1663 24.0006C34.1663 24.9211 33.4201 25.6673 32.4996 25.6673C31.5791 25.6673 30.833 24.9211 30.833 24.0006Z" fill="white"/>
<path d="M32.5 26C33.6046 26 34.5 25.1046 34.5 24C34.5 22.8954 33.6046 22 32.5 22C31.3954 22 30.5 22.8954 30.5 24C30.5 25.1046 31.3954 26 32.5 26Z" fill="white"/>
</svg>
