<svg width="25" height="24" viewBox="0 0 25 24" fill="none" xmlns="http://www.w3.org/2000/svg">
<g clip-path="url(#clip0_4403_2723)">
<path d="M12.6621 17.9229C12.8013 18.046 12.9583 18.1503 13.1298 18.2316C13.6703 18.4881 14.2973 18.4891 14.8386 18.2343L22.6621 14.5527V18.6199L12.6621 23.6199L2.66211 18.6199V14.5528L10.4856 18.2344C11.0269 18.4891 11.6539 18.4882 12.1944 18.2317C12.3659 18.1504 12.523 18.046 12.6621 17.9229Z" fill="white"/>
<path fill-rule="evenodd" clip-rule="evenodd" d="M12.6644 0.382812L22.4981 5.29964L24.3698 11.5388L13.9893 16.4238L12.6644 11.124L11.3395 16.4238L0.958984 11.5388L2.83073 5.29964L12.6644 0.382812ZM12.6653 10.382L20.4333 6.50333L12.6644 2.61888L4.88311 6.50952L12.6653 10.382Z" fill="white"/>
</g>
<defs>
<clipPath id="clip0_4403_2723">
<rect width="24" height="24" fill="white" transform="translate(0.666016)"/>
</clipPath>
</defs>
</svg>
