<svg width="40" height="40" viewBox="0 0 40 40" fill="none" xmlns="http://www.w3.org/2000/svg">
<path d="M38.3333 2.50098H1.66659C1.20659 2.50098 0.833252 2.87431 0.833252 3.33431V9.16764C0.833252 9.62764 1.20659 10.001 1.66659 10.001H38.3333C38.7933 10.001 39.1666 9.62764 39.1666 9.16764V3.33431C39.1666 2.87431 38.7933 2.50098 38.3333 2.50098Z" fill="white"/>
<path d="M35.8332 11.6677H4.1665V35.8344C4.1665 36.7552 4.91234 37.5011 5.83317 37.5011H34.1665C35.0873 37.5011 35.8332 36.7552 35.8332 35.8344V11.6677ZM25.8332 23.3344C25.8332 23.7944 25.4598 24.1677 24.9998 24.1677H14.9998C14.5398 24.1677 14.1665 23.7944 14.1665 23.3344V18.3344C14.1665 17.8744 14.5398 17.5011 14.9998 17.5011H24.9998C25.4598 17.5011 25.8332 17.8744 25.8332 18.3344V23.3344Z" fill="white"/>
</svg>
