<svg width="48" height="48" viewBox="0 0 48 48" fill="none" xmlns="http://www.w3.org/2000/svg">
<path fill-rule="evenodd" clip-rule="evenodd" d="M30 7H48V11H30V7Z" fill="white"/>
<path fill-rule="evenodd" clip-rule="evenodd" d="M22 39.2632V31H26V39.2632C26 39.3486 26.1454 40.0286 27.785 40.8052C29.272 41.5096 31.467 42 34 42C36.533 42 38.728 41.5096 40.215 40.8052C41.8546 40.0286 42 39.3486 42 39.2632V31H46V39.2632C46 41.794 43.9072 43.4824 41.9274 44.4202C39.7952 45.4302 36.9902 46 34 46C31.0098 46 28.2048 45.4302 26.0726 44.4202C24.0928 43.4824 22 41.794 22 39.2632Z" fill="white"/>
<path fill-rule="evenodd" clip-rule="evenodd" d="M2 39.1278V23H6V39.1278C6 39.2804 6.1881 39.9874 7.80474 40.7752C9.28664 41.4972 11.4744 42 14 42C16.5256 42 18.7134 41.4972 20.1952 40.7752C21.8118 39.9874 22 39.2804 22 39.1278V23H26V39.1278C26 41.6662 23.9498 43.3954 21.9472 44.371C19.81 45.4124 16.9977 46 14 46C11.0023 46 8.19002 45.4124 6.05276 44.371C4.05022 43.3954 2 41.6662 2 39.1278Z" fill="white"/>
<path fill-rule="evenodd" clip-rule="evenodd" d="M6 29V31C6 31.215 6.22632 31.9482 7.82336 32.7466C9.30076 33.4854 11.4817 34 14 34C16.5183 34 18.6992 33.4854 20.1766 32.7466C21.7736 31.9482 22 31.215 22 31V29H26V31C26 33.5464 23.9878 35.3132 21.9654 36.3244C19.8236 37.3954 17.0046 38 14 38C10.9954 38 8.17638 37.3954 6.0345 36.3244C4.01226 35.3132 2 33.5464 2 31V29H6Z" fill="white"/>
<path d="M34 24C30.9954 24 28.1764 24.6046 26.0346 25.6756C24.0122 26.6868 22 28.4536 22 31C22 33.5464 24.0122 35.3132 26.0346 36.3244C28.1764 37.3954 30.9954 38 34 38C37.0046 38 39.8236 37.3954 41.9654 36.3244C43.9878 35.3132 46 33.5464 46 31C46 28.4536 43.9878 26.6868 41.9654 25.6756C39.8236 24.6046 37.0046 24 34 24Z" fill="white"/>
<path d="M14 16C10.9954 16 8.17638 16.6047 6.0345 17.6756C4.01226 18.6867 2 20.4536 2 23C2 25.5464 4.01226 27.3132 6.0345 28.3244C8.17638 29.3954 10.9954 30 14 30C17.0046 30 19.8236 29.3954 21.9654 28.3244C23.9878 27.3132 26 25.5464 26 23C26 20.4536 23.9878 18.6867 21.9654 17.6756C19.8236 16.6047 17.0046 16 14 16Z" fill="white"/>
</svg>
