<svg width="44" height="41" viewBox="0 0 44 41" fill="none" xmlns="http://www.w3.org/2000/svg">
<path d="M7.99967 14.0001C11.6816 14.0001 14.6663 11.0153 14.6663 7.33341C14.6663 3.65152 11.6816 0.666748 7.99967 0.666748C4.31778 0.666748 1.33301 3.65152 1.33301 7.33341C1.33301 11.0153 4.31778 14.0001 7.99967 14.0001Z" fill="white"/>
<path d="M19.4158 25.6481C17.4532 25.0747 16.1198 24.0107 15.4585 22.4907C14.1998 19.6081 12.3332 16.6641 7.99984 16.6641C3.95717 16.6641 0.666504 19.9521 0.666504 23.9974V35.9974C0.666504 38.5707 2.75984 40.6641 5.33317 40.6641H10.6665C13.2398 40.6641 15.3332 38.5707 15.3332 35.9974V28.1734C16.2052 28.7227 17.1945 29.1627 18.2905 29.4854C19.3598 29.8001 20.4638 29.1894 20.7732 28.1281C21.0825 27.0667 20.4772 25.9574 19.4158 25.6454V25.6481Z" fill="white"/>
<path d="M36 16.6667C31.6666 16.6667 29.8 19.6107 28.5413 22.4934C27.8773 24.0134 26.5466 25.0747 24.584 25.6507C23.5253 25.9601 22.9173 27.0721 23.2266 28.1334C23.536 29.1947 24.64 29.8001 25.7093 29.4907C26.8053 29.1681 27.7946 28.7281 28.6666 28.1787V36.0027C28.6666 38.5761 30.76 40.6694 33.3333 40.6694H38.6666C41.24 40.6694 43.3333 38.5761 43.3333 36.0027V24.0027C43.3333 19.9574 40.0426 16.6667 36 16.6667Z" fill="white"/>
<path d="M35.9997 14.0001C39.6816 14.0001 42.6663 11.0153 42.6663 7.33341C42.6663 3.65152 39.6816 0.666748 35.9997 0.666748C32.3178 0.666748 29.333 3.65152 29.333 7.33341C29.333 11.0153 32.3178 14.0001 35.9997 14.0001Z" fill="white"/>
</svg>
