<svg width="24" height="24" viewBox="0 0 24 24" fill="none" xmlns="http://www.w3.org/2000/svg">
<path d="M0.5 16.5V18.5C0.5 19.6045 1.39543 20.5 2.5 20.5H21.5C22.6045 20.5 23.5 19.6045 23.5 18.5V16.5H16V17.5C16 17.7761 15.7761 18 15.5 18H8.5C8.22385 18 8 17.7761 8 17.5V16.5H0.5Z" fill="white"/>
<path d="M4.75 2.5C2.95508 2.5 1.5 3.95508 1.5 5.75V15H3V5.75C3 4.7835 3.7835 4 4.75 4H11C11 4.55228 11.4477 5 12 5C12.5523 5 13 4.55228 13 4H19.25C20.2165 4 21 4.7835 21 5.75V15H22.5V5.75C22.5 3.95508 21.045 2.5 19.25 2.5H4.75Z" fill="white"/>
<path d="M10.5 15V6.5H13.5V15H10.5Z" fill="white"/>
<path d="M15.5 15V9H18.5V15H15.5Z" fill="white"/>
<path d="M5.5 15V12H8.5V15H5.5Z" fill="white"/>
</svg>
