<svg width="42" height="46" viewBox="0 0 42 46" fill="none" xmlns="http://www.w3.org/2000/svg">
<path d="M41.4139 8L33.7069 0.293C33.5199 0.105 33.2659 0 32.9999 0H8.99994C8.73394 0 8.47994 0.105 8.29294 0.293L0.585938 8H41.4139Z" fill="white"/>
<path d="M0 10V44C0 45.105 0.895 46 2 46H40C41.105 46 42 45.105 42 44V10H0ZM21 30C14.935 30 10 25.065 10 19C10 18.448 10.447 18 11 18C11.553 18 12 18.448 12 19C12 23.962 16.037 28 21 28C25.963 28 30 23.962 30 19C30 18.448 30.447 18 31 18C31.553 18 32 18.448 32 19C32 25.065 27.065 30 21 30Z" fill="white"/>
</svg>
