<svg width="48" height="48" viewBox="0 0 48 48" fill="none" xmlns="http://www.w3.org/2000/svg">
<rect width="48" height="48" rx="4" fill="white" fill-opacity="0.1"/>
<path d="M21 10H11C10.7348 10 10.4804 10.1054 10.2929 10.2929C10.1054 10.4804 10 10.7348 10 11V21C10 21.2652 10.1054 21.5196 10.2929 21.7071C10.4804 21.8946 10.7348 22 11 22H21C21.2652 22 21.5196 21.8946 21.7071 21.7071C21.8946 21.5196 22 21.2652 22 21V11C22 10.7348 21.8946 10.4804 21.7071 10.2929C21.5196 10.1054 21.2652 10 21 10Z" fill="white"/>
<path d="M39.7009 15.293L32.7009 8.29303C32.5134 8.10556 32.2591 8.00024 31.9939 8.00024C31.7288 8.00024 31.4745 8.10556 31.2869 8.29303L24.2869 15.293C24.0995 15.4806 23.9941 15.7349 23.9941 16C23.9941 16.2652 24.0995 16.5195 24.2869 16.707L31.2869 23.707C31.4745 23.8945 31.7288 23.9998 31.9939 23.9998C32.2591 23.9998 32.5134 23.8945 32.7009 23.707L39.7009 16.707C39.8884 16.5195 39.9937 16.2652 39.9937 16C39.9937 15.7349 39.8884 15.4806 39.7009 15.293Z" fill="white"/>
<path d="M37 26H27C26.7348 26 26.4804 26.1054 26.2929 26.2929C26.1054 26.4804 26 26.7348 26 27V37C26 37.2652 26.1054 37.5196 26.2929 37.7071C26.4804 37.8946 26.7348 38 27 38H37C37.2652 38 37.5196 37.8946 37.7071 37.7071C37.8946 37.5196 38 37.2652 38 37V27C38 26.7348 37.8946 26.4804 37.7071 26.2929C37.5196 26.1054 37.2652 26 37 26Z" fill="white"/>
<path d="M21 26H11C10.7348 26 10.4804 26.1054 10.2929 26.2929C10.1054 26.4804 10 26.7348 10 27V37C10 37.2652 10.1054 37.5196 10.2929 37.7071C10.4804 37.8946 10.7348 38 11 38H21C21.2652 38 21.5196 37.8946 21.7071 37.7071C21.8946 37.5196 22 37.2652 22 37V27C22 26.7348 21.8946 26.4804 21.7071 26.2929C21.5196 26.1054 21.2652 26 21 26Z" fill="white"/>
</svg>
