<svg width="24" height="24" viewBox="0 0 24 24" fill="none" xmlns="http://www.w3.org/2000/svg">
<path d="M19.578 7.00076L15.617 0.134766L13.884 1.13476L17.269 7.00076H6.731L10.116 1.13476L8.383 0.134766L4.422 7.00076H0V9.00076H24V7.00076H19.578Z" fill="white"/>
<path fill-rule="evenodd" clip-rule="evenodd" d="M6 17H0L8.74228e-08 15H6V17Z" fill="white"/>
<path fill-rule="evenodd" clip-rule="evenodd" d="M2.60511 13L2.38281 11H21.6169L20.6909 19.331C20.5219 20.853 19.2399 22 17.7099 22H6.28981C4.75981 22 3.47781 20.852 3.30881 19.331L3.27202 19H6.99975V17H3.04971L2.82741 15H14.9998V13H2.60511ZM10.9998 19H8.98975V17H10.9998V19Z" fill="white"/>
</svg>
