<svg width="24" height="25" viewBox="0 0 24 25" fill="none" xmlns="http://www.w3.org/2000/svg">
<path d="M16.8016 5.2334H7.20156C5.21334 5.2334 3.60156 6.84517 3.60156 8.8334V16.0334C3.60156 18.0216 5.21334 19.6334 7.20156 19.6334H16.8016C18.7898 19.6334 20.4016 18.0216 20.4016 16.0334V8.8334C20.4016 6.84517 18.7898 5.2334 16.8016 5.2334Z" stroke="white" stroke-width="2" stroke-linecap="round" stroke-linejoin="round"/>
<path d="M20.4016 8.8334C20.4016 6.84512 18.7898 5.2334 16.8016 5.2334H7.20156C5.21328 5.2334 3.60156 6.84512 3.60156 8.8334H20.4016Z" fill="white"/>
<path d="M7.20312 5.23496V2.83496" stroke="white" stroke-width="2" stroke-linecap="round" stroke-linejoin="round"/>
<path d="M16.8047 5.23496V2.83496" stroke="white" stroke-width="2" stroke-linecap="round" stroke-linejoin="round"/>
<path d="M7.5 13.0303C8.32843 13.0303 9 12.3587 9 11.5303C9 10.7018 8.32843 10.0303 7.5 10.0303C6.67157 10.0303 6 10.7018 6 11.5303C6 12.3587 6.67157 13.0303 7.5 13.0303Z" fill="white"/>
<path d="M16.5 13.0303C17.3284 13.0303 18 12.3587 18 11.5303C18 10.7018 17.3284 10.0303 16.5 10.0303C15.6716 10.0303 15 10.7018 15 11.5303C15 12.3587 15.6716 13.0303 16.5 13.0303Z" fill="white"/>
<path d="M12 13.0303C12.8284 13.0303 13.5 12.3587 13.5 11.5303C13.5 10.7018 12.8284 10.0303 12 10.0303C11.1716 10.0303 10.5 10.7018 10.5 11.5303C10.5 12.3587 11.1716 13.0303 12 13.0303Z" fill="white"/>
<path d="M7.5 17.2334C8.32843 17.2334 9 16.5618 9 15.7334C9 14.905 8.32843 14.2334 7.5 14.2334C6.67157 14.2334 6 14.905 6 15.7334C6 16.5618 6.67157 17.2334 7.5 17.2334Z" fill="white"/>
<path d="M12 17.2334C12.8284 17.2334 13.5 16.5618 13.5 15.7334C13.5 14.905 12.8284 14.2334 12 14.2334C11.1716 14.2334 10.5 14.905 10.5 15.7334C10.5 16.5618 11.1716 17.2334 12 17.2334Z" fill="white"/>
</svg>
