<svg width="24" height="24" viewBox="0 0 24 24" fill="none" xmlns="http://www.w3.org/2000/svg">
<path fill-rule="evenodd" clip-rule="evenodd" d="M5.25 12.5L4.25 4H20.6301L19.1877 10.1817C18.8709 11.5394 17.6604 12.5 16.2662 12.5H5.25ZM12.75 7H11.25V9.5H12.75V7ZM9.25 7V9.5H7.75V7H9.25ZM16.25 7H14.75V9.5H16.25V7Z" fill="white"/>
<path d="M5.5 23C6.8807 23 8 21.8807 8 20.5C8 19.1193 6.8807 18 5.5 18C4.11929 18 3 19.1193 3 20.5C3 21.8807 4.11929 23 5.5 23Z" fill="white"/>
<path d="M18.5 18.25C19.6045 18.25 20.5 17.3545 20.5 16.25C20.5 15.1454 19.6045 14.25 18.5 14.25C17.3954 14.25 16.5 15.1454 16.5 16.25C16.5 17.3545 17.3954 18.25 18.5 18.25Z" fill="white"/>
<path d="M2.67668 1H1V2.5H2.67668C2.92363 2.5 3.13359 2.68029 3.17093 2.92439L4.542 11.8872L3.5584 12.7352C2.1542 13.9458 3.01033 16.25 4.86431 16.25H15C15 15.7132 15.1209 15.2046 15.3368 14.75H4.86431C4.40082 14.75 4.18679 14.174 4.53784 13.8713L6.1503 12.4812L4.65368 2.69757C4.50431 1.72114 3.66447 1 2.67668 1Z" fill="white"/>
<path fill-rule="evenodd" clip-rule="evenodd" d="M14 23.5C14 21.0147 16.0147 19 18.5 19C20.9853 19 23 21.0147 23 23.5H14Z" fill="white"/>
</svg>
