<svg width="24" height="24" viewBox="0 0 24 24" fill="none" xmlns="http://www.w3.org/2000/svg">
<g clip-path="url(#clip0_3988_7059)">
<path d="M4.875 23.25C6.32475 23.25 7.5 22.0747 7.5 20.625C7.5 19.1753 6.32475 18 4.875 18C3.42525 18 2.25 19.1753 2.25 20.625C2.25 22.0747 3.42525 23.25 4.875 23.25Z" fill="white"/>
<path fill-rule="evenodd" clip-rule="evenodd" d="M4.2525 14.7868C4.22175 14.723 4.16475 14.5565 4.2975 14.39L5.61 12.749H13.1838C14.452 11.5852 16.143 10.8748 18 10.8748C18.6071 10.8748 19.1965 10.9507 19.7591 11.0935C19.8352 10.9406 19.8993 10.7794 19.95 10.6108L22.008 3.74902H4.82925L4.6305 2.35927C4.5 1.44127 3.702 0.749023 2.77425 0.749023H0.75V2.24902H2.77425C2.9595 2.24902 3.11925 2.38777 3.1455 2.57152L4.461 11.7845L3.126 13.4533C2.6715 14.021 2.58525 14.7815 2.90025 15.437C3.21525 16.0925 3.86325 16.4998 4.59 16.4998H11.0332C11.1454 15.9761 11.3151 15.4738 11.5355 14.9998H4.59075C4.37775 14.9998 4.28325 14.8513 4.2525 14.7868ZM11.25 6.74976H12.75V9.74976H11.25V6.74976ZM15.75 9.74976V6.74976H14.25V9.74976H15.75ZM8.25 6.74976H9.75V9.74976H8.25V6.74976Z" fill="white"/>
<path fill-rule="evenodd" clip-rule="evenodd" d="M18 23.625C21.1066 23.625 23.625 21.1066 23.625 18C23.625 14.8934 21.1066 12.375 18 12.375C14.8934 12.375 12.375 14.8934 12.375 18C12.375 21.1066 14.8934 23.625 18 23.625ZM18.75 15H17.25V17.25H15V18.75H17.25V21H18.75V18.75H21V17.25H18.75V15Z" fill="white"/>
</g>
<defs>
<clipPath id="clip0_3988_7059">
<rect width="24" height="24" fill="white"/>
</clipPath>
</defs>
</svg>
