<svg width="24" height="24" viewBox="0 0 24 24" fill="none" xmlns="http://www.w3.org/2000/svg">
<path d="M20.3327 19.3333H19.9993V13C19.9993 12.448 19.5513 12 18.9993 12C18.4473 12 17.9993 12.448 17.9993 13V19.3333H15.3327V13C15.3327 12.448 14.8847 12 14.3327 12C13.7807 12 13.3327 12.448 13.3327 13V19.3333H10.666V13C10.666 12.448 10.218 12 9.66602 12C9.11402 12 8.66602 12.448 8.66602 13V19.3333H5.99935V13C5.99935 12.448 5.55135 12 4.99935 12C4.44735 12 3.99935 12.448 3.99935 13V19.3333H3.66602C3.11402 19.3333 2.66602 19.7813 2.66602 20.3333C2.66602 20.8853 3.11402 21.3333 3.66602 21.3333H20.3327C20.8847 21.3333 21.3327 20.8853 21.3327 20.3333C21.3327 19.7813 20.8847 19.3333 20.3327 19.3333Z" fill="white"/>
<path d="M20.1393 5.7448L13.1393 1.8248C12.4367 1.43013 11.5633 1.43146 10.8594 1.8248L3.85802 5.74613C3.12202 6.15946 2.66602 6.93946 2.66602 7.7808V8.3328C2.66602 9.61946 3.71268 10.6661 4.99935 10.6661H18.9993C20.286 10.6661 21.3327 9.61946 21.3327 8.3328V7.7808C21.3327 6.93813 20.8767 6.15813 20.1393 5.7448ZM11.9993 7.66613C11.2633 7.66613 10.666 7.0688 10.666 6.3328C10.666 5.5968 11.2633 4.99946 11.9993 4.99946C12.7353 4.99946 13.3327 5.5968 13.3327 6.3328C13.3327 7.0688 12.7353 7.66613 11.9993 7.66613Z" fill="white"/>
</svg>
