<svg width="24" height="24" viewBox="0 0 24 24" fill="none" xmlns="http://www.w3.org/2000/svg">
<path fill-rule="evenodd" clip-rule="evenodd" d="M12.75 0.991211L13.6088 1.11715C18.3969 1.81925 22.181 5.6034 22.8831 10.3914L23.0091 11.2502H12.75V0.991211ZM14.25 2.76811V9.75025H21.2321C20.397 6.3113 17.689 3.6032 14.25 2.76811Z" fill="white"/>
<path d="M11.25 1.02539V11.6896L3.70949 19.2301C2.02213 17.2968 1 14.7679 1 12.0002C1 6.17715 5.52465 1.4109 11.25 1.02539Z" fill="white"/>
<path d="M11.8987 13.1611L4.76953 20.2904C6.70284 21.9777 9.23174 22.9998 11.9994 22.9998C14.0848 22.9998 16.0347 22.4195 17.6963 21.4115L11.8987 13.1611Z" fill="white"/>
<path d="M22.9745 12.75H13.4434L18.9232 20.5483C21.2285 18.6788 22.7627 15.8956 22.9745 12.75Z" fill="white"/>
</svg>
