<svg width="24" height="24" viewBox="0 0 24 24" fill="none" xmlns="http://www.w3.org/2000/svg">
<path d="M22.5 4.5C22.5 2.84314 21.1568 1.5 19.5 1.5H15.75V11.3445C16.2039 11.4614 16.6163 11.6818 16.9604 11.979L22.5 6.43934V4.5Z" fill="white"/>
<path d="M13.0396 11.979L9 7.93935L1.5 15.4394V4.5C1.5 2.84314 2.84314 1.5 4.5 1.5H14.25V11.3445C13.7961 11.4614 13.3837 11.6818 13.0396 11.979Z" fill="white"/>
<path d="M17.8244 13.2361C17.938 13.5528 18 13.8941 18 14.2499C18 15.9067 16.6568 17.2499 15 17.2499C13.3432 17.2499 12 15.9067 12 14.2499C12 13.8941 12.062 13.5528 12.1756 13.2361L9 10.0605L1.5 17.5605V19.4999C1.5 21.1567 2.84314 22.4999 4.5 22.4999H14.25V18.7499H15.75V22.4999H19.5C21.1568 22.4999 22.5 21.1567 22.5 19.4999V8.56055L17.8244 13.2361Z" fill="white"/>
</svg>
