<svg width="40" height="40" viewBox="0 0 40 40" fill="none" xmlns="http://www.w3.org/2000/svg">
<path d="M19.9999 5.00106C20.9204 5.00106 21.6666 4.25486 21.6666 3.33439C21.6666 2.41392 20.9204 1.66772 19.9999 1.66772C19.0794 1.66772 18.3333 2.41392 18.3333 3.33439C18.3333 4.25486 19.0794 5.00106 19.9999 5.00106Z" fill="white"/>
<path d="M13.2216 6.44271C14.1421 6.44271 14.8883 5.69651 14.8883 4.77604C14.8883 3.85556 14.1421 3.10938 13.2216 3.10938C12.3011 3.10938 11.5549 3.85556 11.5549 4.77604C11.5549 5.69651 12.3011 6.44271 13.2216 6.44271Z" fill="white"/>
<path d="M7.61491 10.5162C8.53538 10.5162 9.28158 9.76999 9.28158 8.84953C9.28158 7.92904 8.53538 7.18286 7.61491 7.18286C6.69443 7.18286 5.94824 7.92904 5.94824 8.84953C5.94824 9.76999 6.69443 10.5162 7.61491 10.5162Z" fill="white"/>
<path d="M4.14836 16.5177C5.06884 16.5177 5.81502 15.7715 5.81502 14.851C5.81502 13.9305 5.06884 13.1843 4.14836 13.1843C3.22789 13.1843 2.48169 13.9305 2.48169 14.851C2.48169 15.7715 3.22789 16.5177 4.14836 16.5177Z" fill="white"/>
<path d="M3.42497 23.4095C4.34545 23.4095 5.09163 22.6633 5.09163 21.7428C5.09163 20.8223 4.34545 20.0762 3.42497 20.0762C2.5045 20.0762 1.7583 20.8223 1.7583 21.7428C1.7583 22.6633 2.5045 23.4095 3.42497 23.4095Z" fill="white"/>
<path d="M5.56681 30.0011C6.48728 30.0011 7.23348 29.2549 7.23348 28.3344C7.23348 27.4139 6.48728 26.6677 5.56681 26.6677C4.64633 26.6677 3.90015 27.4139 3.90015 28.3344C3.90015 29.2549 4.64633 30.0011 5.56681 30.0011Z" fill="white"/>
<path d="M34.4333 30.0011C35.3538 30.0011 36.0999 29.2549 36.0999 28.3344C36.0999 27.4139 35.3538 26.6677 34.4333 26.6677C33.5128 26.6677 32.7666 27.4139 32.7666 28.3344C32.7666 29.2549 33.5128 30.0011 34.4333 30.0011Z" fill="white"/>
<path d="M36.5749 23.4095C37.4954 23.4095 38.2415 22.6633 38.2415 21.7428C38.2415 20.8223 37.4954 20.0762 36.5749 20.0762C35.6544 20.0762 34.9082 20.8223 34.9082 21.7428C34.9082 22.6633 35.6544 23.4095 36.5749 23.4095Z" fill="white"/>
<path d="M35.8517 16.5177C36.7722 16.5177 37.5184 15.7715 37.5184 14.851C37.5184 13.9305 36.7722 13.1843 35.8517 13.1843C34.9312 13.1843 34.1851 13.9305 34.1851 14.851C34.1851 15.7715 34.9312 16.5177 35.8517 16.5177Z" fill="white"/>
<path d="M32.3849 10.5162C33.3054 10.5162 34.0516 9.76999 34.0516 8.84953C34.0516 7.92904 33.3054 7.18286 32.3849 7.18286C31.4644 7.18286 30.7183 7.92904 30.7183 8.84953C30.7183 9.76999 31.4644 10.5162 32.3849 10.5162Z" fill="white"/>
<path d="M26.7782 6.44271C27.6987 6.44271 28.4449 5.69651 28.4449 4.77604C28.4449 3.85556 27.6987 3.10938 26.7782 3.10938C25.8577 3.10938 25.1116 3.85556 25.1116 4.77604C25.1116 5.69651 25.8577 6.44271 26.7782 6.44271Z" fill="white"/>
<path d="M20 22.501C22.7615 22.501 25 20.2625 25 17.501C25 14.7396 22.7615 12.501 20 12.501C17.2385 12.501 15 14.7396 15 17.501C15 20.2625 17.2385 22.501 20 22.501Z" fill="white"/>
<path d="M31.0568 32.9761L30.4854 33.375C27.5136 35.4503 23.8964 36.6676 19.9999 36.6676C16.1033 36.6676 12.4862 35.4503 9.51442 33.375L8.94312 32.9761C10.4854 28.3473 14.8434 25.001 19.9999 25.001C25.1564 25.001 29.5144 28.3473 31.0568 32.9761Z" fill="white"/>
</svg>
