<svg width="24" height="24" viewBox="0 0 24 24" fill="none" xmlns="http://www.w3.org/2000/svg">
<g clip-path="url(#clip0_3988_6816)">
<path d="M19.2061 19.894L18.9969 20.0604C17.0765 21.5872 14.6441 22.5 12.0006 22.5C9.35705 22.5 6.92458 21.5873 5.00416 20.0603L4.79492 19.894L4.82203 19.8472C6.24198 17.3972 8.9282 15.75 12.0005 15.75C15.0729 15.75 17.7591 17.3972 19.1791 19.8472L19.2061 19.894Z" fill="white"/>
<path d="M20.5504 3.44961L19.0879 0.0371094L17.6254 3.44961L14.2129 4.91211L17.6254 6.37461L19.0879 9.78712L20.5504 6.37461L23.9629 4.91211L20.5504 3.44961Z" fill="white"/>
<path fill-rule="evenodd" clip-rule="evenodd" d="M0.75 12C0.75 5.7868 5.7868 0.75 12 0.75H12.75V2.25H12C6.61522 2.25 2.25 6.61522 2.25 12C2.25 15.0927 3.6891 17.8488 5.93714 19.6363C7.6017 20.9597 9.70755 21.75 12 21.75C14.2924 21.75 16.3982 20.9597 18.0628 19.6363C20.3109 17.8489 21.75 15.0927 21.75 12V11.25H23.25V12C23.25 15.5693 21.587 18.7506 18.9964 20.8104C17.0759 22.3372 14.6435 23.25 12 23.25C9.35647 23.25 6.92404 22.3372 5.00361 20.8103C2.41306 18.7506 0.75 15.5693 0.75 12Z" fill="white"/>
<path d="M12 14.25C13.864 14.25 15.375 12.739 15.375 10.875C15.375 9.01102 13.864 7.5 12 7.5C10.136 7.5 8.625 9.01102 8.625 10.875C8.625 12.739 10.136 14.25 12 14.25Z" fill="white"/>
</g>
<defs>
<clipPath id="clip0_3988_6816">
<rect width="24" height="24" fill="white"/>
</clipPath>
</defs>
</svg>
