<svg width="24" height="24" viewBox="0 0 24 24" fill="none" xmlns="http://www.w3.org/2000/svg">
<path d="M12.0004 2.40039C6.70719 2.40039 2.40039 6.70719 2.40039 12.0004C2.40039 17.2936 6.70719 21.6004 12.0004 21.6004C17.2936 21.6004 21.6004 17.2936 21.6004 12.0004C21.6004 6.70719 17.2936 2.40039 12.0004 2.40039ZM12.0004 7.20039C13.654 7.20039 15.0004 8.54679 15.0004 10.2004C15.0004 11.854 13.654 13.2004 12.0004 13.2004C10.3468 13.2004 9.00039 11.854 9.00039 10.2004C9.00039 8.54679 10.3468 7.20039 12.0004 7.20039ZM12.0004 19.2004C10.174 19.2004 8.51079 18.5116 7.23999 17.3872C8.34399 15.9136 10.0732 15.0004 12.0004 15.0004C13.9276 15.0004 15.658 15.9136 16.7608 17.3872C15.49 18.5116 13.8256 19.2004 12.0004 19.2004Z" fill="white"/>
</svg>
