<svg width="25" height="24" viewBox="0 0 25 24" fill="none" xmlns="http://www.w3.org/2000/svg">
<path d="M12.6664 2.40039C7.37309 2.40039 3.06641 6.70707 3.06641 12.0004C3.06641 17.2937 7.37309 21.6004 12.6664 21.6004C17.9597 21.6004 22.2664 17.2937 22.2664 12.0004C22.2664 6.70707 17.9597 2.40039 12.6664 2.40039ZM16.5148 15.8488C16.2804 16.0832 15.9734 16.2004 15.6664 16.2004C15.3594 16.2004 15.0524 16.0832 14.818 15.8488L11.818 12.8488C11.593 12.6238 11.4664 12.3185 11.4664 12.0004V7.80039C11.4664 7.13775 12.0032 6.60039 12.6664 6.60039C13.3296 6.60039 13.8664 7.13775 13.8664 7.80039V11.5035L16.5148 14.1519C16.9835 14.6206 16.9835 15.38 16.5148 15.8488Z" fill="white"/>
</svg>
