<svg width="44" height="42" viewBox="0 0 44 42" fill="none" xmlns="http://www.w3.org/2000/svg">
<path fill-rule="evenodd" clip-rule="evenodd" d="M12.1213 35L5.49998 41.6213L3.37866 39.5L10 32.8787L12.1213 35Z" fill="white"/>
<path fill-rule="evenodd" clip-rule="evenodd" d="M34 32.8787L40.6213 39.5L38.5 41.6213L31.8787 35L34 32.8787Z" fill="white"/>
<path fill-rule="evenodd" clip-rule="evenodd" d="M31.4496 1.33734C35.1823 -1.12335 40.2028 -0.0920885 42.6637 3.64013C44.4454 6.34287 44.4455 9.8478 42.6637 12.5505L41.9888 13.5743L30.4258 2.01229L31.4496 1.33734Z" fill="white"/>
<path fill-rule="evenodd" clip-rule="evenodd" d="M12.5504 1.33734C8.8177 -1.12335 3.79719 -0.0920885 1.33633 3.64013C-0.445417 6.34287 -0.445457 9.8478 1.33629 12.5505L2.01118 13.5743L13.5742 2.01229L12.5504 1.33734Z" fill="white"/>
<path fill-rule="evenodd" clip-rule="evenodd" d="M22 5C12.0589 5 4 13.0589 4 23C4 32.9411 12.0589 41 22 41C31.9411 41 40 32.9411 40 23C40 13.0589 31.9411 5 22 5ZM23.5 22.4088V11.5H20.5V23.5912L28.9269 32.6201L31.1201 30.5731L23.5 22.4088Z" fill="white"/>
</svg>
