<svg width="48" height="48" viewBox="0 0 48 48" fill="none" xmlns="http://www.w3.org/2000/svg">
<rect width="48" height="48" rx="4" fill="white" fill-opacity="0.1"/>
<path d="M36.889 31.1105H33.7779V27.9993C33.7779 27.2632 33.1807 26.666 32.4445 26.666C31.7083 26.666 31.1112 27.2632 31.1112 27.9993V31.1105H28.0001C27.2639 31.1105 26.6667 31.7076 26.6667 32.4438C26.6667 33.18 27.2639 33.7771 28.0001 33.7771H31.1112V36.8882C31.1112 37.6244 31.7083 38.2216 32.4445 38.2216C33.1807 38.2216 33.7779 37.6244 33.7779 36.8882V33.7771H36.889C37.6251 33.7771 38.2223 33.18 38.2223 32.4438C38.2223 31.7076 37.6251 31.1105 36.889 31.1105Z" fill="white"/>
<path d="M24.0001 9.77734C16.1581 9.77734 9.77783 16.1576 9.77783 23.9996C9.77783 31.8415 16.1581 38.2218 24.0001 38.2218C25.5753 38.2218 27.0868 37.9535 28.5042 37.4787C28.4751 37.2847 28.4445 37.0906 28.4445 36.8885V36.444H28.0001C25.7944 36.444 24.0001 34.6497 24.0001 32.444C24.0001 30.2383 25.7944 28.444 28.0001 28.444H28.4445V27.9996C28.4445 25.7939 30.2388 23.9996 32.4445 23.9996C34.6502 23.9996 36.4445 25.7939 36.4445 27.9996V28.444H36.8889C37.0911 28.444 37.285 28.4744 37.4792 28.5039C37.9542 27.0863 38.2223 25.575 38.2223 23.9996C38.2223 16.1576 31.842 9.77734 24.0001 9.77734ZM25.3334 23.9996C25.3334 24.4371 25.119 24.8469 24.7588 25.0959L18.981 29.0959C18.7501 29.2565 18.4854 29.3329 18.2232 29.3329C17.8004 29.3329 17.3846 29.1324 17.1259 28.7583C16.7067 28.1533 16.8577 27.3226 17.4635 26.9032L22.6667 23.3007V16.444C22.6667 15.7078 23.2639 15.1107 24.0001 15.1107C24.7362 15.1107 25.3334 15.7078 25.3334 16.444V23.9996Z" fill="white"/>
</svg>
