<svg width="596" height="260" viewBox="0 0 596 260" fill="none" xmlns="http://www.w3.org/2000/svg">
<path d="M0 8C0 3.58172 3.58172 0 8 0H588C592.418 0 596 3.58172 596 8V252C596 256.418 592.418 260 588 260H8.00002C3.58174 260 0 256.418 0 252V8Z" fill="url(#paint0_linear_3550_113957)" fill-opacity="0.1"/>
<path d="M17.2 34.5V23.3H18.88V32.9H24.32V34.5H17.2ZM25.6806 34.5V26.5H27.2806V34.5H25.6806ZM25.6006 24.98V23.3H27.3606V24.98H25.6006ZM31.2081 34.5L28.4081 26.5H30.0881L32.2481 32.74H32.5681L34.7281 26.5H36.4081L33.6081 34.5H31.2081ZM38.5681 29.86H43.2881C43.2028 29.2093 42.9521 28.6867 42.5361 28.292C42.1201 27.8973 41.5975 27.7 40.9681 27.7C40.3068 27.7 39.7735 27.8973 39.3681 28.292C38.9628 28.676 38.6961 29.1987 38.5681 29.86ZM42.8881 32.18H44.5681C44.3335 32.82 43.9068 33.396 43.2881 33.908C42.6801 34.4093 41.9068 34.66 40.9681 34.66C39.8055 34.66 38.8455 34.276 38.0881 33.508C37.3415 32.74 36.9681 31.7373 36.9681 30.5C36.9681 29.2627 37.3415 28.26 38.0881 27.492C38.8455 26.724 39.8055 26.34 40.9681 26.34C42.0561 26.34 42.9681 26.7133 43.7041 27.46C44.4401 28.2067 44.8081 29.14 44.8081 30.26C44.8081 30.356 44.7921 30.548 44.7601 30.836L44.7281 31.06H38.5681C38.6535 31.7427 38.9148 32.2867 39.3521 32.692C39.7895 33.0973 40.3281 33.3 40.9681 33.3C41.4161 33.3 41.8108 33.1933 42.1521 32.98C42.5041 32.756 42.7495 32.4893 42.8881 32.18ZM50.4188 34.5V23.3H52.0988V32.9H57.5388V34.5H50.4188ZM60.4589 32.484C60.9175 32.9747 61.4935 33.22 62.1869 33.22C62.8802 33.22 63.4509 32.9747 63.8989 32.484C64.3575 31.9827 64.5869 31.3213 64.5869 30.5C64.5869 29.6787 64.3575 29.0227 63.8989 28.532C63.4509 28.0307 62.8802 27.78 62.1869 27.78C61.4935 27.78 60.9175 28.0307 60.4589 28.532C60.0109 29.0227 59.7869 29.6787 59.7869 30.5C59.7869 31.3213 60.0109 31.9827 60.4589 32.484ZM65.0509 33.508C64.3042 34.276 63.3495 34.66 62.1869 34.66C61.0242 34.66 60.0642 34.276 59.3069 33.508C58.5602 32.74 58.1869 31.7373 58.1869 30.5C58.1869 29.2627 58.5602 28.26 59.3069 27.492C60.0642 26.724 61.0242 26.34 62.1869 26.34C63.3495 26.34 64.3042 26.724 65.0509 27.492C65.8082 28.26 66.1869 29.2627 66.1869 30.5C66.1869 31.7373 65.8082 32.74 65.0509 33.508ZM73.5481 31.7H75.1481C75.0735 32.0307 74.9508 32.356 74.7801 32.676C74.6201 32.996 74.3961 33.3107 74.1081 33.62C73.8308 33.9293 73.4628 34.18 73.0041 34.372C72.5455 34.564 72.0335 34.66 71.4681 34.66C70.3055 34.66 69.3455 34.276 68.5881 33.508C67.8415 32.74 67.4681 31.7373 67.4681 30.5C67.4681 29.2627 67.8415 28.26 68.5881 27.492C69.3455 26.724 70.3055 26.34 71.4681 26.34C72.5348 26.34 73.3721 26.644 73.9801 27.252C74.5881 27.8493 74.9775 28.5053 75.1481 29.22H73.5481C73.2068 28.26 72.5135 27.78 71.4681 27.78C70.7748 27.78 70.1988 28.0307 69.7401 28.532C69.2921 29.0227 69.0681 29.6787 69.0681 30.5C69.0681 31.3213 69.2921 31.9827 69.7401 32.484C70.1988 32.9747 70.7748 33.22 71.4681 33.22C72.0441 33.22 72.5081 33.0653 72.8601 32.756C73.2121 32.4467 73.4415 32.0947 73.5481 31.7ZM81.9431 34.5L81.7831 33.62H81.7031C81.5431 33.8227 81.3511 33.9987 81.1271 34.148C80.6151 34.4893 80.0071 34.66 79.3031 34.66C78.4285 34.66 77.7298 34.4307 77.2071 33.972C76.6845 33.5133 76.4231 32.916 76.4231 32.18C76.4231 31.3587 76.6951 30.7133 77.2391 30.244C77.7938 29.7747 78.6151 29.54 79.7031 29.54H81.7031V29.38C81.7031 28.8573 81.5538 28.4467 81.2551 28.148C80.9565 27.8493 80.5458 27.7 80.0231 27.7C79.5111 27.7 79.1165 27.8173 78.8391 28.052C78.5618 28.276 78.3965 28.532 78.3431 28.82H76.7431C76.7858 28.116 77.1005 27.5293 77.6871 27.06C78.2738 26.58 79.0525 26.34 80.0231 26.34C81.0578 26.34 81.8631 26.612 82.4391 27.156C83.0151 27.7 83.3031 28.4413 83.3031 29.38V34.5H81.9431ZM81.7031 31.14V30.82H79.7831C79.1965 30.82 78.7538 30.9373 78.4551 31.172C78.1671 31.4067 78.0231 31.716 78.0231 32.1C78.0231 32.4733 78.1458 32.7667 78.3911 32.98C78.6365 33.1933 78.9938 33.3 79.4631 33.3C80.1885 33.3 80.7431 33.1133 81.1271 32.74C81.5111 32.356 81.7031 31.8227 81.7031 31.14ZM85.6331 32.82V28.02H84.3531V26.5H85.6331V24.26H87.2331V26.5H89.0731V28.02H87.2331V32.58C87.2331 32.9 87.3931 33.06 87.7131 33.06H89.0731V34.5H87.3931C86.8278 34.5 86.3905 34.3507 86.0811 34.052C85.7825 33.7533 85.6331 33.3427 85.6331 32.82ZM90.8369 34.5V26.5H92.4369V34.5H90.8369ZM90.7569 24.98V23.3H92.5169V24.98H90.7569ZM96.3964 32.484C96.855 32.9747 97.431 33.22 98.1244 33.22C98.8177 33.22 99.3884 32.9747 99.8364 32.484C100.295 31.9827 100.524 31.3213 100.524 30.5C100.524 29.6787 100.295 29.0227 99.8364 28.532C99.3884 28.0307 98.8177 27.78 98.1244 27.78C97.431 27.78 96.855 28.0307 96.3964 28.532C95.9484 29.0227 95.7244 29.6787 95.7244 30.5C95.7244 31.3213 95.9484 31.9827 96.3964 32.484ZM100.988 33.508C100.242 34.276 99.287 34.66 98.1244 34.66C96.9617 34.66 96.0017 34.276 95.2444 33.508C94.4977 32.74 94.1244 31.7373 94.1244 30.5C94.1244 29.2627 94.4977 28.26 95.2444 27.492C96.0017 26.724 96.9617 26.34 98.1244 26.34C99.287 26.34 100.242 26.724 100.988 27.492C101.746 28.26 102.124 29.2627 102.124 30.5C102.124 31.7373 101.746 32.74 100.988 33.508ZM103.806 34.5V26.5H105.246L105.406 27.3H105.486C105.667 27.1187 105.864 26.9587 106.078 26.82C106.59 26.5 107.166 26.34 107.806 26.34C108.776 26.34 109.55 26.644 110.126 27.252C110.712 27.8493 111.006 28.6653 111.006 29.7V34.5H109.406V29.7C109.406 29.1773 109.219 28.7293 108.846 28.356C108.483 27.972 108.03 27.78 107.486 27.78C106.899 27.78 106.403 27.972 105.998 28.356C105.603 28.7293 105.406 29.1773 105.406 29.7V34.5H103.806ZM119.25 34.5L115.33 23.3H117.17L120.37 32.58H120.69L123.89 23.3H125.73L121.81 34.5H119.25ZM126.853 34.5V26.5H128.453V34.5H126.853ZM126.773 24.98V23.3H128.533V24.98H126.773ZM131.74 29.86H136.46C136.375 29.2093 136.124 28.6867 135.708 28.292C135.292 27.8973 134.769 27.7 134.14 27.7C133.479 27.7 132.945 27.8973 132.54 28.292C132.135 28.676 131.868 29.1987 131.74 29.86ZM136.06 32.18H137.74C137.505 32.82 137.079 33.396 136.46 33.908C135.852 34.4093 135.079 34.66 134.14 34.66C132.977 34.66 132.017 34.276 131.26 33.508C130.513 32.74 130.14 31.7373 130.14 30.5C130.14 29.2627 130.513 28.26 131.26 27.492C132.017 26.724 132.977 26.34 134.14 26.34C135.228 26.34 136.14 26.7133 136.876 27.46C137.612 28.2067 137.98 29.14 137.98 30.26C137.98 30.356 137.964 30.548 137.932 30.836L137.9 31.06H131.74C131.825 31.7427 132.087 32.2867 132.524 32.692C132.961 33.0973 133.5 33.3 134.14 33.3C134.588 33.3 134.983 33.1933 135.324 32.98C135.676 32.756 135.921 32.4893 136.06 32.18ZM140.789 34.5L138.629 26.5H140.309L141.829 32.42H142.149L143.717 26.5H145.861L147.429 32.42H147.749L149.269 26.5H150.949L148.789 34.5H146.469L144.949 28.74H144.629L143.109 34.5H140.789Z" fill="white"/>
<mask id="path-3-inside-1_3550_113957" fill="white">
<path d="M0 52.5H596V117.5H0V52.5Z"/>
</mask>
<path d="M0 52.5V53.5H596V52.5V51.5H0V52.5ZM596 117.5V116.5H0V117.5V118.5H596V117.5Z" fill="#B1B1B1" fill-opacity="0.2" mask="url(#path-3-inside-1_3550_113957)"/>
<path d="M18.34 77.2H20.16C21.018 77.2 21.7287 76.901 22.292 76.303C22.864 75.6963 23.15 74.912 23.15 73.95C23.15 72.988 22.864 72.208 22.292 71.61C21.7287 71.0033 21.018 70.7 20.16 70.7H18.34V77.2ZM16.975 78.5V69.4H20.16C21.3993 69.4 22.435 69.829 23.267 70.687C24.099 71.545 24.515 72.6327 24.515 73.95C24.515 75.2673 24.099 76.355 23.267 77.213C22.435 78.071 21.3993 78.5 20.16 78.5H16.975ZM30.1725 78.5L30.0425 77.785H29.9775C29.8475 77.9497 29.6915 78.0927 29.5095 78.214C29.0935 78.4913 28.5995 78.63 28.0275 78.63C27.3169 78.63 26.7492 78.4437 26.3245 78.071C25.8999 77.6983 25.6875 77.213 25.6875 76.615C25.6875 75.9477 25.9085 75.4233 26.3505 75.042C26.8012 74.6607 27.4685 74.47 28.3525 74.47H29.9775V74.34C29.9775 73.9153 29.8562 73.5817 29.6135 73.339C29.3709 73.0963 29.0372 72.975 28.6125 72.975C28.1965 72.975 27.8759 73.0703 27.6505 73.261C27.4252 73.443 27.2909 73.651 27.2475 73.885H25.9475C25.9822 73.313 26.2379 72.8363 26.7145 72.455C27.1912 72.065 27.8239 71.87 28.6125 71.87C29.4532 71.87 30.1075 72.091 30.5755 72.533C31.0435 72.975 31.2775 73.5773 31.2775 74.34V78.5H30.1725ZM29.9775 75.77V75.51H28.4175C27.9409 75.51 27.5812 75.6053 27.3385 75.796C27.1045 75.9867 26.9875 76.238 26.9875 76.55C26.9875 76.8533 27.0872 77.0917 27.2865 77.265C27.4859 77.4383 27.7762 77.525 28.1575 77.525C28.7469 77.525 29.1975 77.3733 29.5095 77.07C29.8215 76.758 29.9775 76.3247 29.9775 75.77ZM33.1707 77.135V73.235H32.1307V72H33.1707V70.18H34.4707V72H35.9657V73.235H34.4707V76.94C34.4707 77.2 34.6007 77.33 34.8607 77.33H35.9657V78.5H34.6007C34.1413 78.5 33.786 78.3787 33.5347 78.136C33.292 77.8933 33.1707 77.5597 33.1707 77.135ZM38.1198 74.73H41.9548C41.8855 74.2013 41.6818 73.7767 41.3438 73.456C41.0058 73.1353 40.5811 72.975 40.0698 72.975C39.5325 72.975 39.0991 73.1353 38.7698 73.456C38.4405 73.768 38.2238 74.1927 38.1198 74.73ZM41.6298 76.615H42.9948C42.8041 77.135 42.4575 77.603 41.9548 78.019C41.4608 78.4263 40.8325 78.63 40.0698 78.63C39.1251 78.63 38.3451 78.318 37.7298 77.694C37.1231 77.07 36.8198 76.2553 36.8198 75.25C36.8198 74.2447 37.1231 73.43 37.7298 72.806C38.3451 72.182 39.1251 71.87 40.0698 71.87C40.9538 71.87 41.6948 72.1733 42.2928 72.78C42.8908 73.3867 43.1898 74.145 43.1898 75.055C43.1898 75.133 43.1768 75.289 43.1508 75.523L43.1248 75.705H38.1198C38.1891 76.2597 38.4015 76.7017 38.7568 77.031C39.1121 77.3603 39.5498 77.525 40.0698 77.525C40.4338 77.525 40.7545 77.4383 41.0318 77.265C41.3178 77.083 41.5171 76.8663 41.6298 76.615Z" fill="white"/>
<path d="M23.182 92.904C23.9007 93.7907 24.26 95.0227 24.26 96.6C24.26 98.1773 23.9007 99.414 23.182 100.31C22.4633 101.197 21.586 101.64 20.55 101.64C19.514 101.64 18.6367 101.197 17.918 100.31C17.1993 99.414 16.84 98.1773 16.84 96.6C16.84 95.0227 17.1993 93.7907 17.918 92.904C18.6367 92.008 19.514 91.56 20.55 91.56C21.586 91.56 22.4633 92.008 23.182 92.904ZM17.68 96.6C17.68 97.9347 17.96 98.9707 18.52 99.708C19.0893 100.436 19.766 100.8 20.55 100.8C21.334 100.8 22.006 100.436 22.566 99.708C23.1353 98.9707 23.42 97.9347 23.42 96.6C23.42 95.284 23.1353 94.2573 22.566 93.52C22.006 92.7733 21.334 92.4 20.55 92.4C19.766 92.4 19.0893 92.7733 18.52 93.52C17.96 94.2573 17.68 95.284 17.68 96.6ZM26.6276 101.5L30.2116 92.54H25.1016V91.7H31.1216V92.4L27.4816 101.5H26.6276ZM31.8211 97.86V97.09H36.3011V97.86H31.8211ZM44.182 92.904C44.9007 93.7907 45.26 95.0227 45.26 96.6C45.26 98.1773 44.9007 99.414 44.182 100.31C43.4633 101.197 42.586 101.64 41.55 101.64C40.514 101.64 39.6367 101.197 38.918 100.31C38.1993 99.414 37.84 98.1773 37.84 96.6C37.84 95.0227 38.1993 93.7907 38.918 92.904C39.6367 92.008 40.514 91.56 41.55 91.56C42.586 91.56 43.4633 92.008 44.182 92.904ZM38.68 96.6C38.68 97.9347 38.96 98.9707 39.52 99.708C40.0893 100.436 40.766 100.8 41.55 100.8C42.334 100.8 43.006 100.436 43.566 99.708C44.1353 98.9707 44.42 97.9347 44.42 96.6C44.42 95.284 44.1353 94.2573 43.566 93.52C43.006 92.7733 42.334 92.4 41.55 92.4C40.766 92.4 40.0893 92.7733 39.52 93.52C38.96 94.2573 38.68 95.284 38.68 96.6ZM51.6075 95.508C51.9995 95.144 52.1955 94.7147 52.1955 94.22C52.1955 93.7253 51.9995 93.3007 51.6075 92.946C51.2155 92.582 50.7115 92.4 50.0955 92.4C49.4795 92.4 48.9755 92.582 48.5835 92.946C48.1915 93.3007 47.9955 93.7253 47.9955 94.22C47.9955 94.7147 48.1915 95.144 48.5835 95.508C48.9755 95.8627 49.4795 96.04 50.0955 96.04C50.7115 96.04 51.2155 95.8627 51.6075 95.508ZM48.4295 97.454C48.0001 97.8367 47.7855 98.2987 47.7855 98.84C47.7855 99.3813 48.0001 99.8433 48.4295 100.226C48.8588 100.609 49.4141 100.8 50.0955 100.8C50.7768 100.8 51.3321 100.609 51.7615 100.226C52.1908 99.8433 52.4055 99.3813 52.4055 98.84C52.4055 98.2987 52.1908 97.8367 51.7615 97.454C51.3321 97.0713 50.7768 96.88 50.0955 96.88C49.4141 96.88 48.8588 97.0713 48.4295 97.454ZM48.6255 96.46V96.39C48.3268 96.2593 48.0795 96.1007 47.8835 95.914C47.3981 95.4847 47.1555 94.92 47.1555 94.22C47.1555 93.4733 47.4308 92.8433 47.9815 92.33C48.5321 91.8167 49.2368 91.56 50.0955 91.56C50.9541 91.56 51.6588 91.8167 52.2095 92.33C52.7601 92.8433 53.0355 93.4733 53.0355 94.22C53.0355 94.9107 52.7881 95.4753 52.2935 95.914C52.1068 96.0913 51.8641 96.25 51.5655 96.39V96.46C51.8828 96.5813 52.1628 96.7587 52.4055 96.992C52.9655 97.4773 53.2455 98.0933 53.2455 98.84C53.2455 99.624 52.9515 100.287 52.3635 100.828C51.7848 101.369 51.0288 101.64 50.0955 101.64C49.1621 101.64 48.4015 101.369 47.8135 100.828C47.2348 100.287 46.9455 99.624 46.9455 98.84C46.9455 98.0933 47.2255 97.4773 47.7855 96.992C48.0281 96.7587 48.3081 96.5813 48.6255 96.46ZM54.7898 97.86V97.09H59.2698V97.86H54.7898ZM60.8088 101.5V100.73L64.8688 96.46C65.4754 95.8533 65.7788 95.2 65.7788 94.5C65.7788 93.8653 65.5874 93.3567 65.2048 92.974C64.8221 92.5913 64.3134 92.4 63.6788 92.4C63.0721 92.4 62.5681 92.6147 62.1668 93.044C61.7748 93.464 61.5788 94.0193 61.5788 94.71H60.7388C60.7388 93.7673 61.0141 93.0067 61.5648 92.428C62.1248 91.8493 62.8294 91.56 63.6788 91.56C64.5561 91.56 65.2654 91.8307 65.8068 92.372C66.3481 92.9133 66.6188 93.6227 66.6188 94.5C66.6188 94.9013 66.5534 95.27 66.4228 95.606C66.3014 95.9327 66.1708 96.1847 66.0308 96.362C65.9001 96.5393 65.6994 96.7727 65.4288 97.062L62.0688 100.59V100.66H66.8288V101.5H60.8088ZM74.7113 92.904C75.43 93.7907 75.7893 95.0227 75.7893 96.6C75.7893 98.1773 75.43 99.414 74.7113 100.31C73.9926 101.197 73.1153 101.64 72.0793 101.64C71.0433 101.64 70.166 101.197 69.4473 100.31C68.7286 99.414 68.3693 98.1773 68.3693 96.6C68.3693 95.0227 68.7286 93.7907 69.4473 92.904C70.166 92.008 71.0433 91.56 72.0793 91.56C73.1153 91.56 73.9926 92.008 74.7113 92.904ZM69.2093 96.6C69.2093 97.9347 69.4893 98.9707 70.0493 99.708C70.6186 100.436 71.2953 100.8 72.0793 100.8C72.8633 100.8 73.5353 100.436 74.0953 99.708C74.6646 98.9707 74.9493 97.9347 74.9493 96.6C74.9493 95.284 74.6646 94.2573 74.0953 93.52C73.5353 92.7733 72.8633 92.4 72.0793 92.4C71.2953 92.4 70.6186 92.7733 70.0493 93.52C69.4893 94.2573 69.2093 95.284 69.2093 96.6ZM77.4748 101.5V100.73L81.5348 96.46C82.1414 95.8533 82.4448 95.2 82.4448 94.5C82.4448 93.8653 82.2534 93.3567 81.8708 92.974C81.4881 92.5913 80.9794 92.4 80.3448 92.4C79.7381 92.4 79.2341 92.6147 78.8328 93.044C78.4408 93.464 78.2448 94.0193 78.2448 94.71H77.4048C77.4048 93.7673 77.6801 93.0067 78.2308 92.428C78.7908 91.8493 79.4954 91.56 80.3448 91.56C81.2221 91.56 81.9314 91.8307 82.4728 92.372C83.0141 92.9133 83.2848 93.6227 83.2848 94.5C83.2848 94.9013 83.2194 95.27 83.0888 95.606C82.9674 95.9327 82.8368 96.1847 82.6968 96.362C82.5661 96.5393 82.3654 96.7727 82.0948 97.062L78.7348 100.59V100.66H83.4948V101.5H77.4748ZM84.1915 99.19V98.49L88.0415 91.7H89.5815V98.35H90.9815V99.19H89.5815V101.5H88.7415V99.19H84.1915ZM85.3115 98.35H88.7415V92.68H88.4615L85.3115 98.28V98.35Z" fill="#E4E4E7"/>
<path d="M574 88C574.552 88 575 87.5523 575 87C575 86.4477 574.552 86 574 86C573.448 86 573 86.4477 573 87C573 87.5523 573.448 88 574 88Z" fill="white"/>
<path d="M570 88C570.552 88 571 87.5523 571 87C571 86.4477 570.552 86 570 86C569.448 86 569 86.4477 569 87C569 87.5523 569.448 88 570 88Z" fill="white"/>
<path d="M566 88C566.552 88 567 87.5523 567 87C567 86.4477 566.552 86 566 86C565.448 86 565 86.4477 565 87C565 87.5523 565.448 88 566 88Z" fill="white"/>
<path d="M562 88C562.552 88 563 87.5523 563 87C563 86.4477 562.552 86 562 86C561.448 86 561 86.4477 561 87C561 87.5523 561.448 88 562 88Z" fill="white"/>
<path d="M570 92C570.552 92 571 91.5523 571 91C571 90.4477 570.552 90 570 90C569.448 90 569 90.4477 569 91C569 91.5523 569.448 92 570 92Z" fill="white"/>
<path d="M566 92C566.552 92 567 91.5523 567 91C567 90.4477 566.552 90 566 90C565.448 90 565 90.4477 565 91C565 91.5523 565.448 92 566 92Z" fill="white"/>
<path d="M562 92C562.552 92 563 91.5523 563 91C563 90.4477 562.552 90 562 90C561.448 90 561 90.4477 561 91C561 91.5523 561.448 92 562 92Z" fill="white"/>
<path fill-rule="evenodd" clip-rule="evenodd" d="M576 77.5C577.657 77.5 579 78.8431 579 80.5V92.5C579 94.1569 577.657 95.5 576 95.5H560C558.343 95.5 557 94.1569 557 92.5V80.5C557 78.8431 558.343 77.5 560 77.5H576ZM558.5 84V92.5C558.5 93.3285 559.172 94 560 94H576C576.828 94 577.5 93.3285 577.5 92.5V84H558.5ZM574.25 79H572.75V81.5H574.25V79ZM563.25 79H561.75V81.5H563.25V79Z" fill="white"/>
<path fill-rule="evenodd" clip-rule="evenodd" d="M563.25 75V79H561.75V75H563.25Z" fill="white"/>
<path fill-rule="evenodd" clip-rule="evenodd" d="M574.25 75V79H572.75V75H574.25Z" fill="white"/>
<mask id="path-17-inside-2_3550_113957" fill="white">
<path d="M0 117.5H596V182.5H0V117.5Z"/>
</mask>
<path d="M596 182.5V181.5H0V182.5V183.5H596V182.5Z" fill="#B1B1B1" fill-opacity="0.2" mask="url(#path-17-inside-2_3550_113957)"/>
<path d="M23.995 143.5L23.865 142.33H23.8C23.618 142.555 23.384 142.772 23.098 142.98C22.474 143.413 21.7547 143.63 20.94 143.63C19.718 143.63 18.6867 143.192 17.846 142.317C17.0053 141.442 16.585 140.319 16.585 138.95C16.585 137.581 17.0053 136.458 17.846 135.583C18.6867 134.708 19.718 134.27 20.94 134.27C22.0147 134.27 22.9117 134.578 23.631 135.193C24.359 135.808 24.827 136.541 25.035 137.39H23.605C23.3797 136.809 23.0287 136.363 22.552 136.051C22.084 135.73 21.5467 135.57 20.94 135.57C20.0733 135.57 19.3583 135.878 18.795 136.493C18.2317 137.108 17.95 137.927 17.95 138.95C17.95 139.973 18.2317 140.792 18.795 141.407C19.3583 142.022 20.0733 142.33 20.94 142.33C21.7027 142.33 22.357 142.083 22.903 141.589C23.4577 141.086 23.735 140.532 23.735 139.925V139.86H21.2V138.755H25.1V143.5H23.995ZM26.7854 143.5V137H27.8904L28.0204 137.585H28.0854C28.0941 137.576 28.1201 137.546 28.1634 137.494C28.2154 137.442 28.2458 137.407 28.2544 137.39C28.2718 137.373 28.3064 137.342 28.3584 137.299C28.4104 137.247 28.4538 137.212 28.4884 137.195C28.5231 137.178 28.5708 137.156 28.6314 137.13C28.6921 137.095 28.7528 137.074 28.8134 137.065C28.8828 137.048 28.9608 137.035 29.0474 137.026C29.1341 137.009 29.2251 137 29.3204 137H30.4904V138.17H29.4504C28.5404 138.17 28.0854 138.621 28.0854 139.522V143.5H26.7854ZM32.7371 141.862C33.1098 142.261 33.5778 142.46 34.1411 142.46C34.7044 142.46 35.1681 142.261 35.5321 141.862C35.9048 141.455 36.0911 140.917 36.0911 140.25C36.0911 139.583 35.9048 139.05 35.5321 138.651C35.1681 138.244 34.7044 138.04 34.1411 138.04C33.5778 138.04 33.1098 138.244 32.7371 138.651C32.3731 139.05 32.1911 139.583 32.1911 140.25C32.1911 140.917 32.3731 141.455 32.7371 141.862ZM36.4681 142.694C35.8614 143.318 35.0858 143.63 34.1411 143.63C33.1964 143.63 32.4164 143.318 31.8011 142.694C31.1944 142.07 30.8911 141.255 30.8911 140.25C30.8911 139.245 31.1944 138.43 31.8011 137.806C32.4164 137.182 33.1964 136.87 34.1411 136.87C35.0858 136.87 35.8614 137.182 36.4681 137.806C37.0834 138.43 37.3911 139.245 37.3911 140.25C37.3911 141.255 37.0834 142.07 36.4681 142.694ZM38.7571 140.9V137H40.0571V140.9C40.0571 141.325 40.2044 141.693 40.4991 142.005C40.8024 142.308 41.1751 142.46 41.6171 142.46C42.0938 142.46 42.4924 142.308 42.8131 142.005C43.1424 141.693 43.3071 141.325 43.3071 140.9V137H44.6071V143.5H43.4371L43.3071 142.85H43.2421C43.0948 142.997 42.9344 143.127 42.7611 143.24C42.3451 143.5 41.8771 143.63 41.3571 143.63C40.5684 143.63 39.9358 143.387 39.4591 142.902C38.9911 142.408 38.7571 141.741 38.7571 140.9ZM46.2981 146.1V137H47.4681L47.5981 137.78H47.6631C47.8018 137.624 47.9188 137.503 48.0141 137.416C48.1095 137.321 48.3131 137.208 48.6251 137.078C48.9458 136.939 49.2968 136.87 49.6781 136.87C50.5448 136.87 51.2598 137.178 51.8231 137.793C52.3865 138.408 52.6681 139.227 52.6681 140.25C52.6681 141.273 52.3865 142.092 51.8231 142.707C51.2598 143.322 50.5448 143.63 49.6781 143.63C48.7855 143.63 48.1138 143.327 47.6631 142.72H47.5981V146.1H46.2981ZM48.1311 141.849C48.4951 142.256 48.9458 142.46 49.4831 142.46C50.0205 142.46 50.4668 142.256 50.8221 141.849C51.1861 141.442 51.3681 140.909 51.3681 140.25C51.3681 139.591 51.1861 139.058 50.8221 138.651C50.4668 138.244 50.0205 138.04 49.4831 138.04C48.9458 138.04 48.4951 138.244 48.1311 138.651C47.7758 139.058 47.5981 139.591 47.5981 140.25C47.5981 140.909 47.7758 141.442 48.1311 141.849ZM57.2191 143.5V134.4H61.2491C61.9945 134.4 62.6141 134.647 63.1081 135.141C63.6021 135.626 63.8491 136.224 63.8491 136.935C63.8491 137.507 63.6845 138.001 63.3551 138.417C63.2251 138.582 63.0648 138.738 62.8741 138.885V138.95C63.0821 139.071 63.2641 139.227 63.4201 139.418C63.7928 139.86 63.9791 140.376 63.9791 140.965C63.9791 141.684 63.7321 142.287 63.2381 142.772C62.7528 143.257 62.1461 143.5 61.4181 143.5H57.2191ZM58.5841 138.365H61.1841C61.5481 138.365 61.8558 138.235 62.1071 137.975C62.3585 137.715 62.4841 137.39 62.4841 137C62.4841 136.61 62.3585 136.285 62.1071 136.025C61.8558 135.765 61.5481 135.635 61.1841 135.635H58.5841V138.365ZM58.5841 142.265H61.3141C61.6781 142.265 61.9858 142.135 62.2371 141.875C62.4885 141.615 62.6141 141.29 62.6141 140.9C62.6141 140.51 62.4885 140.185 62.2371 139.925C61.9858 139.665 61.6781 139.535 61.3141 139.535H58.5841V142.265ZM65.4792 146.1V144.93H66.7792C66.8919 144.93 66.9872 144.887 67.0652 144.8C67.1432 144.722 67.1952 144.635 67.2212 144.54L67.4292 143.955L64.7642 137H66.1292L68.0142 141.94H68.2742L69.9642 137H71.3292L68.4692 144.995C68.3306 145.376 68.1399 145.654 67.8972 145.827C67.6632 146.009 67.3122 146.1 66.8442 146.1H65.4792Z" fill="white"/>
<path d="M16.07 166.5L19.78 156.7H21.04L24.75 166.5H23.91L22.902 163.84H17.918L16.91 166.5H16.07ZM18.24 163H22.58L20.55 157.61H20.27L18.24 163ZM26.0084 166.5V156.7H26.8484V166.5H26.0084ZM29.2349 166.5V156.7H30.0749V166.5H29.2349Z" fill="#E4E4E7"/>
<path d="M563.5 147.5L570 154L576.5 147.5" stroke="white" stroke-width="2" stroke-linecap="round" stroke-linejoin="round"/>
<path d="M16 208.5L19.315 199.4H21.395L24.71 208.5H23.215L22.435 206.355H18.275L17.495 208.5H16ZM18.73 205.12H21.98L20.485 200.96H20.225L18.73 205.12ZM25.619 208.5V199.4H26.919V208.5H25.619ZM28.742 208.5V199.4H30.042V208.5H28.742Z" fill="white"/>
<rect x="16" y="219.5" width="73" height="22" rx="2" fill="#16BA84"/>
<path d="M24 234.5L27.06 226.1H28.98L32.04 234.5H30.66L29.94 232.52H26.1L25.38 234.5H24ZM26.52 231.38H29.52L28.14 227.54H27.9L26.52 231.38ZM37.0791 232.4H38.2791C38.2231 232.648 38.1311 232.892 38.0031 233.132C37.8831 233.372 37.7151 233.608 37.4991 233.84C37.2911 234.072 37.0151 234.26 36.6711 234.404C36.3271 234.548 35.9431 234.62 35.5191 234.62C34.6471 234.62 33.9271 234.332 33.3591 233.756C32.7991 233.18 32.5191 232.428 32.5191 231.5C32.5191 230.572 32.7991 229.82 33.3591 229.244C33.9271 228.668 34.6471 228.38 35.5191 228.38C36.3191 228.38 36.9471 228.608 37.4031 229.064C37.8591 229.512 38.1511 230.004 38.2791 230.54H37.0791C36.8231 229.82 36.3031 229.46 35.5191 229.46C34.9991 229.46 34.5671 229.648 34.2231 230.024C33.8871 230.392 33.7191 230.884 33.7191 231.5C33.7191 232.116 33.8871 232.612 34.2231 232.988C34.5671 233.356 34.9991 233.54 35.5191 233.54C35.9511 233.54 36.2991 233.424 36.5631 233.192C36.8271 232.96 36.9991 232.696 37.0791 232.4ZM39.9553 233.24V229.64H38.9953V228.5H39.9553V226.82H41.1553V228.5H42.5353V229.64H41.1553V233.06C41.1553 233.3 41.2753 233.42 41.5153 233.42H42.5353V234.5H41.2753C40.8513 234.5 40.5233 234.388 40.2913 234.164C40.0673 233.94 39.9553 233.632 39.9553 233.24ZM43.8581 234.5V228.5H45.0581V234.5H43.8581ZM43.7981 227.36V226.1H45.1181V227.36H43.7981ZM48.0038 234.5L45.9038 228.5H47.1638L48.7838 233.18H49.0238L50.6438 228.5H51.9037L49.8038 234.5H48.0038ZM53.5238 231.02H57.0638C56.9998 230.532 56.8118 230.14 56.4998 229.844C56.1878 229.548 55.7958 229.4 55.3238 229.4C54.8278 229.4 54.4278 229.548 54.1238 229.844C53.8198 230.132 53.6198 230.524 53.5238 231.02ZM56.7638 232.76H58.0238C57.8478 233.24 57.5278 233.672 57.0638 234.056C56.6078 234.432 56.0278 234.62 55.3238 234.62C54.4518 234.62 53.7318 234.332 53.1638 233.756C52.6038 233.18 52.3238 232.428 52.3238 231.5C52.3238 230.572 52.6038 229.82 53.1638 229.244C53.7318 228.668 54.4518 228.38 55.3238 228.38C56.1398 228.38 56.8238 228.66 57.3758 229.22C57.9278 229.78 58.2038 230.48 58.2038 231.32C58.2038 231.392 58.1918 231.536 58.1678 231.752L58.1438 231.92H53.5238C53.5878 232.432 53.7838 232.84 54.1118 233.144C54.4398 233.448 54.8438 233.6 55.3238 233.6C55.6598 233.6 55.9558 233.52 56.2118 233.36C56.4758 233.192 56.6598 232.992 56.7638 232.76ZM62.0517 231.62V230.54H66.0117V231.62H62.0517ZM71.415 234.5V228.2H69.675V227H71.055C71.295 227 71.415 226.88 71.415 226.64V226.1H72.675V234.5H71.415ZM73.9903 232.1H75.2503C75.2503 232.444 75.4023 232.752 75.7063 233.024C76.0183 233.288 76.4063 233.42 76.8703 233.42C77.3663 233.42 77.7503 233.3 78.0223 233.06C78.2943 232.82 78.4303 232.5 78.4303 232.1C78.4303 231.724 78.2823 231.412 77.9863 231.164C77.6983 230.908 77.3063 230.78 76.8103 230.78H76.2703V229.64H76.8103C77.2743 229.64 77.6383 229.524 77.9023 229.292C78.1743 229.052 78.3103 228.748 78.3103 228.38C78.3103 228.036 78.1783 227.752 77.9143 227.528C77.6583 227.296 77.3103 227.18 76.8703 227.18C76.4223 227.18 76.0583 227.296 75.7783 227.528C75.5063 227.752 75.3703 228.036 75.3703 228.38H74.1103C74.1103 227.708 74.3623 227.14 74.8663 226.676C75.3783 226.212 76.0463 225.98 76.8703 225.98C77.6703 225.98 78.3183 226.212 78.8143 226.676C79.3183 227.14 79.5703 227.708 79.5703 228.38C79.5703 228.924 79.3703 229.388 78.9703 229.772C78.7943 229.94 78.5943 230.076 78.3703 230.18V230.24C78.6183 230.352 78.8383 230.492 79.0303 230.66C79.4703 231.068 79.6903 231.568 79.6903 232.16C79.6903 232.864 79.4263 233.452 78.8983 233.924C78.3783 234.388 77.7023 234.62 76.8703 234.62C76.0143 234.62 75.3183 234.38 74.7823 233.9C74.2543 233.412 73.9903 232.812 73.9903 232.1Z" fill="#E4E4E7"/>
<rect x="97" y="219.5" width="80" height="22" rx="2" fill="#2563EB"/>
<path d="M105.48 231.92H106.74C106.74 232.328 106.928 232.68 107.304 232.976C107.688 233.272 108.18 233.42 108.78 233.42C109.436 233.42 109.92 233.308 110.232 233.084C110.544 232.852 110.7 232.544 110.7 232.16C110.7 231.544 110.22 231.144 109.26 230.96L107.64 230.66C106.984 230.54 106.488 230.288 106.152 229.904C105.824 229.52 105.66 229.032 105.66 228.44C105.66 227.736 105.932 227.152 106.476 226.688C107.02 226.216 107.748 225.98 108.66 225.98C109.668 225.98 110.448 226.236 111 226.748C111.56 227.252 111.84 227.896 111.84 228.68H110.58C110.58 228.272 110.404 227.92 110.052 227.624C109.7 227.328 109.236 227.18 108.66 227.18C108.116 227.18 107.688 227.304 107.376 227.552C107.072 227.792 106.92 228.088 106.92 228.44C106.92 229.032 107.34 229.412 108.18 229.58L109.5 229.82C110.348 229.972 110.968 230.236 111.36 230.612C111.76 230.98 111.96 231.496 111.96 232.16C111.96 232.88 111.684 233.472 111.132 233.936C110.58 234.392 109.796 234.62 108.78 234.62C107.764 234.62 106.96 234.364 106.368 233.852C105.776 233.34 105.48 232.696 105.48 231.92ZM113.526 233.24V229.64H112.566V228.5H113.526V226.82H114.726V228.5H116.106V229.64H114.726V233.06C114.726 233.3 114.846 233.42 115.086 233.42H116.106V234.5H114.846C114.422 234.5 114.094 234.388 113.862 234.164C113.638 233.94 113.526 233.632 113.526 233.24ZM118.598 232.988C118.942 233.356 119.374 233.54 119.894 233.54C120.414 233.54 120.842 233.356 121.178 232.988C121.522 232.612 121.694 232.116 121.694 231.5C121.694 230.884 121.522 230.392 121.178 230.024C120.842 229.648 120.414 229.46 119.894 229.46C119.374 229.46 118.942 229.648 118.598 230.024C118.262 230.392 118.094 230.884 118.094 231.5C118.094 232.116 118.262 232.612 118.598 232.988ZM122.042 233.756C121.482 234.332 120.766 234.62 119.894 234.62C119.022 234.62 118.302 234.332 117.734 233.756C117.174 233.18 116.894 232.428 116.894 231.5C116.894 230.572 117.174 229.82 117.734 229.244C118.302 228.668 119.022 228.38 119.894 228.38C120.766 228.38 121.482 228.668 122.042 229.244C122.61 229.82 122.894 230.572 122.894 231.5C122.894 232.428 122.61 233.18 122.042 233.756ZM124.155 236.9V228.5H125.235L125.355 229.22H125.415C125.543 229.076 125.651 228.964 125.739 228.884C125.827 228.796 126.015 228.692 126.303 228.572C126.599 228.444 126.923 228.38 127.275 228.38C128.075 228.38 128.735 228.664 129.255 229.232C129.775 229.8 130.035 230.556 130.035 231.5C130.035 232.444 129.775 233.2 129.255 233.768C128.735 234.336 128.075 234.62 127.275 234.62C126.451 234.62 125.831 234.34 125.415 233.78H125.355V236.9H124.155ZM125.847 232.976C126.183 233.352 126.599 233.54 127.095 233.54C127.591 233.54 128.003 233.352 128.331 232.976C128.667 232.6 128.835 232.108 128.835 231.5C128.835 230.892 128.667 230.4 128.331 230.024C128.003 229.648 127.591 229.46 127.095 229.46C126.599 229.46 126.183 229.648 125.847 230.024C125.519 230.4 125.355 230.892 125.355 231.5C125.355 232.108 125.519 232.6 125.847 232.976ZM131.292 236.9V228.5H132.372L132.492 229.22H132.552C132.68 229.076 132.788 228.964 132.876 228.884C132.964 228.796 133.152 228.692 133.44 228.572C133.736 228.444 134.06 228.38 134.412 228.38C135.212 228.38 135.872 228.664 136.392 229.232C136.912 229.8 137.172 230.556 137.172 231.5C137.172 232.444 136.912 233.2 136.392 233.768C135.872 234.336 135.212 234.62 134.412 234.62C133.588 234.62 132.968 234.34 132.552 233.78H132.492V236.9H131.292ZM132.984 232.976C133.32 233.352 133.736 233.54 134.232 233.54C134.728 233.54 135.14 233.352 135.468 232.976C135.804 232.6 135.972 232.108 135.972 231.5C135.972 230.892 135.804 230.4 135.468 230.024C135.14 229.648 134.728 229.46 134.232 229.46C133.736 229.46 133.32 229.648 132.984 230.024C132.656 230.4 132.492 230.892 132.492 231.5C132.492 232.108 132.656 232.6 132.984 232.976ZM139.328 231.02H142.868C142.804 230.532 142.616 230.14 142.304 229.844C141.992 229.548 141.6 229.4 141.128 229.4C140.632 229.4 140.232 229.548 139.928 229.844C139.624 230.132 139.424 230.524 139.328 231.02ZM142.568 232.76H143.828C143.652 233.24 143.332 233.672 142.868 234.056C142.412 234.432 141.832 234.62 141.128 234.62C140.256 234.62 139.536 234.332 138.968 233.756C138.408 233.18 138.128 232.428 138.128 231.5C138.128 230.572 138.408 229.82 138.968 229.244C139.536 228.668 140.256 228.38 141.128 228.38C141.944 228.38 142.628 228.66 143.18 229.22C143.732 229.78 144.008 230.48 144.008 231.32C144.008 231.392 143.996 231.536 143.972 231.752L143.948 231.92H139.328C139.392 232.432 139.588 232.84 139.916 233.144C140.244 233.448 140.648 233.6 141.128 233.6C141.464 233.6 141.76 233.52 142.016 233.36C142.28 233.192 142.464 232.992 142.568 232.76ZM149.772 234.5L149.652 233.78H149.592C149.168 234.34 148.548 234.62 147.732 234.62C146.932 234.62 146.272 234.336 145.752 233.768C145.232 233.2 144.972 232.444 144.972 231.5C144.972 230.556 145.232 229.8 145.752 229.232C146.272 228.664 146.932 228.38 147.732 228.38C148.084 228.38 148.404 228.444 148.692 228.572C148.988 228.692 149.18 228.796 149.268 228.884C149.356 228.964 149.464 229.076 149.592 229.22H149.652V226.1H150.852V234.5H149.772ZM146.664 232.976C147 233.352 147.416 233.54 147.912 233.54C148.408 233.54 148.82 233.352 149.148 232.976C149.484 232.6 149.652 232.108 149.652 231.5C149.652 230.892 149.484 230.4 149.148 230.024C148.82 229.648 148.408 229.46 147.912 229.46C147.416 229.46 147 229.648 146.664 230.024C146.336 230.4 146.172 230.892 146.172 231.5C146.172 232.108 146.336 232.6 146.664 232.976ZM155.052 231.62V230.54H159.012V231.62H155.052ZM162.555 232.7V231.68L165.735 226.1H167.715V231.56H168.735V232.7H167.715V234.5H166.455V232.7H162.555ZM164.055 231.56H166.455V227.66H166.215L164.055 231.5V231.56Z" fill="#E4E4E7"/>
<rect x="185" y="219.5" width="94" height="22" rx="2" fill="#FF4A4A"/>
<path d="M193.9 234.5V226.1H195.76L199.18 232.64H199.42V226.1H200.68V234.5H198.82L195.4 227.96H195.16V234.5H193.9ZM203.762 232.988C204.106 233.356 204.538 233.54 205.058 233.54C205.578 233.54 206.006 233.356 206.342 232.988C206.686 232.612 206.858 232.116 206.858 231.5C206.858 230.884 206.686 230.392 206.342 230.024C206.006 229.648 205.578 229.46 205.058 229.46C204.538 229.46 204.106 229.648 203.762 230.024C203.426 230.392 203.258 230.884 203.258 231.5C203.258 232.116 203.426 232.612 203.762 232.988ZM207.206 233.756C206.646 234.332 205.93 234.62 205.058 234.62C204.186 234.62 203.466 234.332 202.898 233.756C202.338 233.18 202.058 232.428 202.058 231.5C202.058 230.572 202.338 229.82 202.898 229.244C203.466 228.668 204.186 228.38 205.058 228.38C205.93 228.38 206.646 228.668 207.206 229.244C207.774 229.82 208.058 230.572 208.058 231.5C208.058 232.428 207.774 233.18 207.206 233.756ZM209.565 233.24V229.64H208.605V228.5H209.565V226.82H210.765V228.5H212.145V229.64H210.765V233.06C210.765 233.3 210.885 233.42 211.125 233.42H212.145V234.5H210.885C210.461 234.5 210.133 234.388 209.901 234.164C209.677 233.94 209.565 233.632 209.565 233.24ZM215.992 231.92H217.252C217.252 232.328 217.44 232.68 217.816 232.976C218.2 233.272 218.692 233.42 219.292 233.42C219.948 233.42 220.432 233.308 220.744 233.084C221.056 232.852 221.212 232.544 221.212 232.16C221.212 231.544 220.732 231.144 219.772 230.96L218.152 230.66C217.496 230.54 217 230.288 216.664 229.904C216.336 229.52 216.172 229.032 216.172 228.44C216.172 227.736 216.444 227.152 216.988 226.688C217.532 226.216 218.26 225.98 219.172 225.98C220.18 225.98 220.96 226.236 221.512 226.748C222.072 227.252 222.352 227.896 222.352 228.68H221.092C221.092 228.272 220.916 227.92 220.564 227.624C220.212 227.328 219.748 227.18 219.172 227.18C218.628 227.18 218.2 227.304 217.888 227.552C217.584 227.792 217.432 228.088 217.432 228.44C217.432 229.032 217.852 229.412 218.692 229.58L220.012 229.82C220.86 229.972 221.48 230.236 221.872 230.612C222.272 230.98 222.472 231.496 222.472 232.16C222.472 232.88 222.196 233.472 221.644 233.936C221.092 234.392 220.308 234.62 219.292 234.62C218.276 234.62 217.472 234.364 216.88 233.852C216.288 233.34 215.992 232.696 215.992 231.92ZM224.037 233.24V229.64H223.077V228.5H224.037V226.82H225.237V228.5H226.617V229.64H225.237V233.06C225.237 233.3 225.357 233.42 225.597 233.42H226.617V234.5H225.357C224.933 234.5 224.605 234.388 224.373 234.164C224.149 233.94 224.037 233.632 224.037 233.24ZM231.606 234.5L231.486 233.84H231.426C231.306 233.992 231.162 234.124 230.994 234.236C230.61 234.492 230.154 234.62 229.626 234.62C228.97 234.62 228.446 234.448 228.054 234.104C227.662 233.76 227.466 233.312 227.466 232.76C227.466 232.144 227.67 231.66 228.078 231.308C228.494 230.956 229.11 230.78 229.926 230.78H231.426V230.66C231.426 230.268 231.314 229.96 231.09 229.736C230.866 229.512 230.558 229.4 230.166 229.4C229.782 229.4 229.486 229.488 229.278 229.664C229.07 229.832 228.946 230.024 228.906 230.24H227.706C227.738 229.712 227.974 229.272 228.414 228.92C228.854 228.56 229.438 228.38 230.166 228.38C230.942 228.38 231.546 228.584 231.978 228.992C232.41 229.4 232.626 229.956 232.626 230.66V234.5H231.606ZM231.426 231.98V231.74H229.986C229.546 231.74 229.214 231.828 228.99 232.004C228.774 232.18 228.666 232.412 228.666 232.7C228.666 232.98 228.758 233.2 228.942 233.36C229.126 233.52 229.394 233.6 229.746 233.6C230.29 233.6 230.706 233.46 230.994 233.18C231.282 232.892 231.426 232.492 231.426 231.98ZM234.128 234.5V228.5H235.148L235.268 229.04H235.328C235.336 229.032 235.36 229.004 235.4 228.956C235.448 228.908 235.476 228.876 235.484 228.86C235.5 228.844 235.532 228.816 235.58 228.776C235.628 228.728 235.668 228.696 235.7 228.68C235.732 228.664 235.776 228.644 235.832 228.62C235.888 228.588 235.944 228.568 236 228.56C236.064 228.544 236.136 228.532 236.216 228.524C236.296 228.508 236.38 228.5 236.468 228.5H237.548V229.58H236.588C235.748 229.58 235.328 229.996 235.328 230.828V234.5H234.128ZM238.932 233.24V229.64H237.972V228.5H238.932V226.82H240.132V228.5H241.512V229.64H240.132V233.06C240.132 233.3 240.252 233.42 240.492 233.42H241.512V234.5H240.252C239.828 234.5 239.5 234.388 239.268 234.164C239.044 233.94 238.932 233.632 238.932 233.24ZM243.5 231.02H247.04C246.976 230.532 246.788 230.14 246.476 229.844C246.164 229.548 245.772 229.4 245.3 229.4C244.804 229.4 244.404 229.548 244.1 229.844C243.796 230.132 243.596 230.524 243.5 231.02ZM246.74 232.76H248C247.824 233.24 247.504 233.672 247.04 234.056C246.584 234.432 246.004 234.62 245.3 234.62C244.428 234.62 243.708 234.332 243.14 233.756C242.58 233.18 242.3 232.428 242.3 231.5C242.3 230.572 242.58 229.82 243.14 229.244C243.708 228.668 244.428 228.38 245.3 228.38C246.116 228.38 246.8 228.66 247.352 229.22C247.904 229.78 248.18 230.48 248.18 231.32C248.18 231.392 248.168 231.536 248.144 231.752L248.12 231.92H243.5C243.564 232.432 243.76 232.84 244.088 233.144C244.416 233.448 244.82 233.6 245.3 233.6C245.636 233.6 245.932 233.52 246.188 233.36C246.452 233.192 246.636 232.992 246.74 232.76ZM253.944 234.5L253.824 233.78H253.764C253.34 234.34 252.72 234.62 251.904 234.62C251.104 234.62 250.444 234.336 249.924 233.768C249.404 233.2 249.144 232.444 249.144 231.5C249.144 230.556 249.404 229.8 249.924 229.232C250.444 228.664 251.104 228.38 251.904 228.38C252.256 228.38 252.576 228.444 252.864 228.572C253.16 228.692 253.352 228.796 253.44 228.884C253.528 228.964 253.636 229.076 253.764 229.22H253.824V226.1H255.024V234.5H253.944ZM250.836 232.976C251.172 233.352 251.588 233.54 252.084 233.54C252.58 233.54 252.992 233.352 253.32 232.976C253.656 232.6 253.824 232.108 253.824 231.5C253.824 230.892 253.656 230.4 253.32 230.024C252.992 229.648 252.58 229.46 252.084 229.46C251.588 229.46 251.172 229.648 250.836 230.024C250.508 230.4 250.344 230.892 250.344 231.5C250.344 232.108 250.508 232.6 250.836 232.976ZM259.224 231.62V230.54H263.184V231.62H259.224ZM268.587 234.5V228.2H266.847V227H268.227C268.467 227 268.587 226.88 268.587 226.64V226.1H269.847V234.5H268.587Z" fill="#E4E4E7"/>
<path d="M567.5 225.5L574 219L567.5 212.5" stroke="white" stroke-width="2" stroke-linecap="round" stroke-linejoin="round"/>
<defs>
<linearGradient id="paint0_linear_3550_113957" x1="-146.931" y1="-101.024" x2="467.827" y2="444.918" gradientUnits="userSpaceOnUse">
<stop stop-color="white"/>
<stop offset="1" stop-color="white" stop-opacity="0"/>
</linearGradient>
</defs>
</svg>
