<svg width="48" height="48" viewBox="0 0 48 48" fill="none" xmlns="http://www.w3.org/2000/svg">
<path fill-rule="evenodd" clip-rule="evenodd" d="M25.8577 19.3154L24.4446 19.8186C23.3194 20.2193 22.2645 20.8629 21.3619 21.751C18.085 24.9753 18.085 30.1927 21.3619 33.4169L27.5212 39.4774C30.8115 42.7149 36.1562 42.7149 39.4466 39.4774C42.7234 36.2531 42.7234 31.0357 39.4466 27.8115L33.4301 21.8915L35.5341 19.7531L41.5507 25.6731C46.0221 30.0727 46.0221 37.2161 41.5507 41.6158C37.0928 46.0021 29.875 46.0021 25.4171 41.6158L19.2578 35.5554C14.7864 31.1557 14.7864 24.0123 19.2578 19.6126C20.4802 18.4098 21.9126 17.5358 23.4382 16.9925L24.8512 16.4893L25.8577 19.3154Z" fill="white"/>
<path fill-rule="evenodd" clip-rule="evenodd" d="M22.0934 28.7312L23.5065 28.228C24.6317 27.8273 25.6866 27.1838 26.5893 26.2956C29.8661 23.0713 29.8661 17.854 26.5893 14.6297L20.43 8.56929C17.1396 5.33172 11.7949 5.33172 8.50453 8.56929C5.22766 11.7935 5.22766 17.0109 8.50453 20.2352L14.5211 26.1551L12.417 28.2935L6.40044 22.3736C1.92902 17.9739 1.92902 10.8305 6.40043 6.43088C10.8584 2.04453 18.0762 2.04453 22.5341 6.43088L28.6933 12.4913C33.1648 16.8909 33.1648 24.0344 28.6933 28.434C27.4709 29.6369 26.0385 30.5108 24.513 31.0541L23.0999 31.5574L22.0934 28.7312Z" fill="white"/>
</svg>
