<svg width="48" height="48" viewBox="0 0 48 48" fill="none" xmlns="http://www.w3.org/2000/svg">
<rect width="48" height="48" rx="4" fill="white" fill-opacity="0.1"/>
<path fill-rule="evenodd" clip-rule="evenodd" d="M27 14H39V16H27V14Z" fill="white"/>
<path d="M31 23C28.9454 23 27.0359 23.4143 25.603 24.1307C24.23 24.8172 23 25.9507 23 27.5C23 29.0493 24.23 30.1828 25.603 30.8693C27.0359 31.5857 28.9454 32 31 32C33.0546 32 34.9641 31.5857 36.397 30.8693C37.77 30.1828 39 29.0493 39 27.5C39 25.9507 37.77 24.8172 36.397 24.1307C34.9641 23.4143 33.0546 23 31 23Z" fill="white"/>
<path d="M17 18C14.9454 18 13.0359 18.4143 11.603 19.1307C10.23 19.8172 9 20.9507 9 22.5C9 24.0493 10.23 25.1828 11.603 25.8693C13.0359 26.5857 14.9454 27 17 27C19.0546 27 20.9641 26.5857 22.397 25.8693C23.77 25.1828 25 24.0493 25 22.5C25 20.9507 23.77 19.8172 22.397 19.1307C20.9641 18.4143 19.0546 18 17 18Z" fill="white"/>
<path fill-rule="evenodd" clip-rule="evenodd" d="M25 27.5V32.5C25 32.8837 25.337 33.5002 26.4975 34.0804C27.5981 34.6308 29.1886 35 31 35C32.8114 35 34.4019 34.6308 35.5025 34.0804C36.663 33.5002 37 32.8837 37 32.5V27.5H39V32.5C39 34.0493 37.77 35.1828 36.397 35.8693C34.9641 36.5857 33.0546 37 31 37C28.9454 37 27.0359 36.5857 25.603 35.8693C24.23 35.1828 23 34.0493 23 32.5V27.5H25Z" fill="white"/>
<path fill-rule="evenodd" clip-rule="evenodd" d="M11 27.5V32.5C11 32.8837 11.337 33.5002 12.4975 34.0804C13.5981 34.6308 15.1886 35 17 35C18.8114 35 20.4019 34.6308 21.5025 34.0804C22.663 33.5002 23 32.8837 23 32.5V27.5H25V32.5C25 34.0493 23.77 35.1828 22.397 35.8693C20.9641 36.5857 19.0546 37 17 37C14.9454 37 13.0359 36.5857 11.603 35.8693C10.23 35.1828 9 34.0493 9 32.5V27.5H11Z" fill="white"/>
<path fill-rule="evenodd" clip-rule="evenodd" d="M11 22.5V27.5C11 27.8837 11.337 28.5002 12.4975 29.0804C13.5981 29.6308 15.1886 30 17 30C18.8114 30 20.4019 29.6308 21.5025 29.0804C22.663 28.5002 23 27.8837 23 27.5V22.5H25V27.5C25 29.0493 23.77 30.1828 22.397 30.8693C20.9641 31.5857 19.0546 32 17 32C14.9454 32 13.0359 31.5857 11.603 30.8693C10.23 30.1828 9 29.0493 9 27.5V22.5H11Z" fill="white"/>
</svg>
