<svg width="48" height="48" viewBox="0 0 48 48" fill="none" xmlns="http://www.w3.org/2000/svg">
<rect width="48" height="48" rx="4" fill="white" fill-opacity="0.1"/>
<path d="M23.1971 25.0098L21 34.0001L24.0001 36.5001L27 34.0001L24.8029 25.0098C26.7622 25.0572 28.707 25.2784 30.531 25.6732C32.4382 26.086 33.7993 27.5725 34.3058 29.3113L36 35.1276L33.2314 36.2308C27.3115 38.5898 20.6884 38.5898 14.7686 36.2308L12 35.1276L13.6942 29.3113C14.2007 27.5724 15.5618 26.086 17.4691 25.6732C19.293 25.2783 21.2378 25.0572 23.1971 25.0098Z" fill="white"/>
<path fill-rule="evenodd" clip-rule="evenodd" d="M18.6096 16.5767C17.9235 13.157 20.5478 10 24 10C27.4522 10 30.0764 13.157 29.3904 16.5767L28.9087 18.9784C28.4375 21.3269 26.3754 23 24 23C21.6246 23 19.5625 21.3269 19.0913 18.9784L18.6096 16.5767Z" fill="white"/>
</svg>
