<svg width="41" height="40" viewBox="0 0 41 40" fill="none" xmlns="http://www.w3.org/2000/svg">
<rect x="0.332031" width="40" height="40" rx="4" fill="white" fill-opacity="0.1"/>
<g clip-path="url(#clip0_4727_2506)">
<path fill-rule="evenodd" clip-rule="evenodd" d="M13.582 25.25H8.33203L8.33203 23.75H13.582V25.25Z" fill="white"/>
<path fill-rule="evenodd" clip-rule="evenodd" d="M18.6302 9.32979L12.3031 18.1142L11.0859 17.2376L17.413 8.45312L18.6302 9.32979Z" fill="white"/>
<path fill-rule="evenodd" clip-rule="evenodd" d="M23.2508 8.45312L29.4311 17.0043L28.2154 17.8829L22.0352 9.33177L23.2508 8.45312Z" fill="white"/>
<path d="M31.582 14H9.08203V18.5H31.582V14Z" fill="white"/>
<path fill-rule="evenodd" clip-rule="evenodd" d="M10.5195 20H30.1497L29.504 27.7491C29.3744 29.304 28.0746 30.5 26.5143 30.5H14.1549C12.5947 30.5 11.2949 29.304 11.1653 27.7491L11.082 26.75H13.5847V25.25H10.957L10.832 23.75H19.5847V22.25H10.707L10.5195 20ZM16.5847 26.75H15.0772V25.25H16.5847V26.75Z" fill="white"/>
</g>
<defs>
<clipPath id="clip0_4727_2506">
<rect width="24" height="24" fill="white" transform="translate(8.33203 8)"/>
</clipPath>
</defs>
</svg>
