<svg width="48" height="48" viewBox="0 0 48 48" fill="none" xmlns="http://www.w3.org/2000/svg">
<g clip-path="url(#clip0_3550_104732)">
<path d="M43.4967 40.6654L47.4167 36.7454C48.198 35.9641 48.198 34.6974 47.4167 33.9161C46.6354 33.1347 45.3687 33.1347 44.5874 33.9161L40.6674 37.8361L36.7474 33.9161C35.966 33.1347 34.6994 33.1347 33.918 33.9161C33.1367 34.6974 33.1367 35.9641 33.918 36.7454L37.838 40.6654L33.918 44.5854C33.1367 45.3667 33.1367 46.6334 33.918 47.4147C34.3074 47.8041 34.8194 48.0014 35.3314 48.0014C35.8434 48.0014 36.3554 47.8067 36.7447 47.4147L40.6647 43.4947L44.5847 47.4147C44.974 47.8041 45.486 48.0014 45.998 48.0014C46.51 48.0014 47.022 47.8067 47.4114 47.4147C48.1927 46.6334 48.1927 45.3667 47.4114 44.5854L43.4914 40.6654H43.4967Z" fill="white"/>
<path d="M31.0913 41.7567L32.182 40.666L31.0913 39.5753C29.958 38.442 29.334 36.9353 29.334 35.3327C29.334 33.73 29.958 32.2234 31.0913 31.09C32.2247 29.9567 33.7313 29.3327 35.334 29.3327C36.9367 29.3327 38.4433 29.9567 39.5767 31.09L40.6673 32.1807L41.758 31.09C42.038 30.81 42.3447 30.5593 42.6673 30.3433V17.77C42.6673 16.5247 42.182 15.3513 41.2993 14.4713L30.862 4.03402C29.9793 3.15135 28.8087 2.66602 27.5633 2.66602H12.6673C8.62198 2.66602 5.33398 5.95402 5.33398 9.99935V37.9994C5.33398 42.0447 8.62198 45.3327 12.6673 45.3327H29.398C29.5473 43.9833 30.118 42.73 31.0913 41.7567ZM28.0007 6.87402C28.0247 6.86335 28.0113 6.87135 28.0353 6.86068L38.494 17.3167C38.494 17.3167 38.4913 17.3247 38.4887 17.33H30.67C29.2033 17.33 28.0033 16.13 28.0033 14.6633V6.87668L28.0007 6.87402ZM15.334 15.9967H20.6673C21.7713 15.9967 22.6673 16.8927 22.6673 17.9967C22.6673 19.1007 21.7713 19.9967 20.6673 19.9967H15.334C14.23 19.9967 13.334 19.1007 13.334 17.9967C13.334 16.8927 14.23 15.9967 15.334 15.9967ZM27.334 27.9967H15.334C14.23 27.9967 13.334 27.1007 13.334 25.9967C13.334 24.8927 14.23 23.9967 15.334 23.9967H27.334C28.438 23.9967 29.334 24.8927 29.334 25.9967C29.334 27.1007 28.438 27.9967 27.334 27.9967Z" fill="white"/>
</g>
<defs>
<clipPath id="clip0_3550_104732">
<rect width="48" height="48" fill="white"/>
</clipPath>
</defs>
</svg>
