<svg width="40" height="40" viewBox="0 0 40 40" fill="none" xmlns="http://www.w3.org/2000/svg">
<rect width="40" height="40" rx="4" fill="white" fill-opacity="0.1"/>
<path d="M30.5 12.5C30.5 10.8431 29.1568 9.5 27.5 9.5H23.75V19.3445C24.2039 19.4614 24.6163 19.6818 24.9604 19.979L30.5 14.4393V12.5Z" fill="white"/>
<path d="M21.0396 19.979L17 15.9394L9.5 23.4394V12.5C9.5 10.8431 10.8431 9.5 12.5 9.5H22.25V19.3445C21.7961 19.4614 21.3837 19.6818 21.0396 19.979Z" fill="white"/>
<path d="M25.8244 21.2361C25.938 21.5528 26 21.8941 26 22.2499C26 23.9067 24.6568 25.2499 23 25.2499C21.3432 25.2499 20 23.9067 20 22.2499C20 21.8941 20.062 21.5528 20.1756 21.2361L17 18.0605L9.5 25.5605V27.4999C9.5 29.1567 10.8431 30.4999 12.5 30.4999H22.25V26.7499H23.75V30.4999H27.5C29.1568 30.4999 30.5 29.1567 30.5 27.4999V16.5605L25.8244 21.2361Z" fill="white"/>
</svg>
