<svg width="25" height="24" viewBox="0 0 25 24" fill="none" xmlns="http://www.w3.org/2000/svg">
<path d="M12.332 21.5H21.332V23.5H12.332V21.5Z" fill="white"/>
<path d="M16.332 9.5088V1.5H3.33203V20.5H10.832V19H4.83203V3H14.832V9.96825C15.2789 9.7097 15.7883 9.54715 16.332 9.5088Z" fill="white"/>
<path d="M17.832 10.5L16.832 14.5V11C15.6612 11 14.5831 11.718 14.582 12.9983V14.5L14.2469 14.9022C13.6558 15.6115 13.332 16.5057 13.332 17.4291C13.332 18.3627 13.6629 19.2661 14.266 19.9788H19.6109L20.3594 14.9107C20.4237 14.4756 20.3915 14.0317 20.2651 13.6104L18.9782 6.34415C18.8937 5.8666 18.4786 5.51855 17.9936 5.51855H17.832V10.5Z" fill="white"/>
<path fill-rule="evenodd" clip-rule="evenodd" d="M13.332 11.6985V5.64705C12.6693 5.64705 12.132 5.1335 12.132 4.5H7.53203C7.53203 5.1335 6.99478 5.64705 6.33203 5.64705V16.3529C6.99478 16.3529 7.53203 16.8665 7.53203 17.5H11.8325C11.8322 17.4764 11.832 17.4528 11.832 17.4291C11.832 16.1614 12.2742 14.9335 13.082 13.957V12.9971C13.0824 12.5382 13.1711 12.1 13.332 11.6985ZM9.83203 13C10.9366 13 11.832 12.1046 11.832 11C11.832 9.89545 10.9366 9 9.83203 9C8.72748 9 7.83203 9.89545 7.83203 11C7.83203 12.1046 8.72748 13 9.83203 13Z" fill="white"/>
</svg>
