<svg width="24" height="24" viewBox="0 0 24 24" fill="none" xmlns="http://www.w3.org/2000/svg">
<path fill-rule="evenodd" clip-rule="evenodd" d="M15.0348 15.0348L17.2022 6.79883L8.96618 8.96618L6.79883 17.2022L15.0348 15.0348ZM13.0005 12.0005C13.0005 12.5528 12.5528 13.0005 12.0005 13.0005C11.4482 13.0005 11.0005 12.5528 11.0005 12.0005C11.0005 11.4482 11.4482 11.0005 12.0005 11.0005C12.5528 11.0005 13.0005 11.4482 13.0005 12.0005Z" fill="white"/>
<path fill-rule="evenodd" clip-rule="evenodd" d="M12 2.5C6.7533 2.5 2.5 6.7533 2.5 12C2.5 17.2467 6.7533 21.5 12 21.5C17.2467 21.5 21.5 17.2467 21.5 12C21.5 6.7533 17.2467 2.5 12 2.5ZM1 12C1 5.92485 5.92485 1 12 1C18.0751 1 23 5.92485 23 12C23 18.0751 18.0751 23 12 23C5.92485 23 1 18.0751 1 12Z" fill="white"/>
</svg>
