<svg width="176" height="48" viewBox="0 0 176 48" fill="none" xmlns="http://www.w3.org/2000/svg">
<mask id="mask0_4167_17544" style="mask-type:luminance" maskUnits="userSpaceOnUse" x="2" y="0" width="48" height="48">
<path d="M2.01953 0.132812H49.5395V47.7799H2.01953V0.132812Z" fill="white"/>
</mask>
<g mask="url(#mask0_4167_17544)">
<path d="M25.8196 1.15625C13.2595 1.15625 3.04229 11.4007 3.04229 23.9926C3.04229 36.5864 13.2595 46.8309 25.8196 46.8309C38.378 46.8309 48.5951 36.5864 48.5951 23.9926C48.5951 11.4007 38.378 1.15625 25.8196 1.15625ZM25.8196 47.8603C19.4598 47.8603 13.4831 45.3768 8.98779 40.8695C4.49062 36.3621 2.01562 30.3676 2.01562 23.9926C2.01562 17.6176 4.49062 11.625 8.98779 7.11581C13.4831 2.60846 19.4598 0.125 25.8196 0.125C32.1776 0.125 38.1543 2.60846 42.6496 7.11581C47.1468 11.625 49.6218 17.6176 49.6218 23.9926C49.6218 30.3676 47.1468 36.3621 42.6496 40.8695C38.1543 45.3768 32.1776 47.8603 25.8196 47.8603Z" fill="white"/>
</g>
<path d="M16.7054 45.2489C16.6155 44.8922 16.632 44.4989 16.7549 44.0099C16.8484 43.6606 16.9859 43.3022 17.1802 42.9106C17.5047 42.2562 17.9227 41.6055 18.4177 40.9713L18.4599 40.918L18.5204 40.8922C18.8834 40.7433 19.228 40.5797 19.5434 40.4088C19.7102 40.3187 19.8697 40.2231 20.02 40.122C20.1942 40.0062 20.3225 39.9033 20.4252 39.7948C20.5352 39.679 20.6085 39.5191 20.6654 39.3794C20.724 39.2342 20.7772 39.0687 20.8285 38.861C20.9147 38.5191 20.9807 38.1569 21.0284 37.7525L21.032 37.7121L21.4225 36.8371L22.6472 36.1441L22.9937 36.1165C23.0762 36.1092 23.1569 36.1 23.2394 36.0908C23.2852 36.0871 23.331 36.0816 23.3769 36.0779C23.4099 36.0724 23.4484 36.0669 23.4869 36.0614L23.584 36.0448C23.6317 36.0375 23.6775 36.0319 23.7142 36.0209C23.8224 35.9915 23.925 35.9511 24.0277 35.8978C24.145 35.8371 24.2514 35.7654 24.332 35.7103C24.772 35.3959 25.1387 34.9933 25.4082 34.679C25.7364 34.2893 26.0407 33.8757 26.3139 33.4529L26.3854 33.3408L26.5192 33.3353C27.0747 33.3114 27.6485 33.3242 28.226 33.3739C28.787 33.4272 29.381 33.5062 29.9365 33.7342L29.9585 33.7452C30.3839 33.9676 30.866 34.1441 31.4747 34.304C31.9605 34.4345 32.4904 34.5485 33.0935 34.6569L33.1797 34.6717C33.2512 34.6845 33.3227 34.6956 33.3942 34.7066L33.6472 34.5209L34.3145 34.0172L34.9727 33.5025C35.0845 33.4198 35.189 33.3297 35.2899 33.2433L35.6107 32.9731C35.6492 32.94 35.684 32.9106 35.7189 32.8812C35.7922 32.8187 35.8674 32.7544 35.9499 32.6937L35.9737 32.6753C35.9975 32.6588 36.0195 32.6404 36.0434 32.6257L36.0617 32.6147L36.2744 32.5007L36.3697 32.4621C36.6264 32.3592 36.9124 32.2875 37.246 32.2452C37.7997 32.179 38.3809 32.1808 38.9785 32.247L39.1014 32.2599L39.1674 32.3628C39.2847 32.5448 39.3984 32.7047 39.5175 32.8536C39.6422 33.0062 39.7632 33.1514 39.908 33.2544C40.0327 33.3463 40.1867 33.3941 40.3444 33.3886C40.4965 33.3849 40.6634 33.3426 40.8522 33.2562C41.1822 33.1036 41.4774 32.8867 41.7909 32.6569L41.8825 32.5908C41.9027 32.5742 41.9412 32.5448 41.9944 32.5246L44.0844 31.7029C44.0899 31.6992 44.0954 31.6974 44.1009 31.6956L44.1247 31.6882C44.231 31.6606 44.3429 31.7011 44.407 31.7948L44.4364 31.8389C44.462 31.8757 44.4859 31.9106 44.5097 31.9456C44.6289 32.122 44.7407 32.3095 44.8489 32.4897L44.858 32.5062L44.9992 32.7893C45.0047 32.7985 45.012 32.8114 45.0175 32.8242C45.0249 32.8371 45.0322 32.8536 45.0377 32.8628C45.0487 32.872 45.056 32.8757 45.0579 32.8757L45.0689 32.8794C45.1184 32.8978 45.1825 32.9033 45.2779 32.8959C45.3567 32.8904 45.4447 32.8775 45.5547 32.8536C45.7545 32.8132 45.9525 32.7544 46.1432 32.6974L46.2752 32.6588C46.4329 32.611 46.5942 32.5614 46.7592 32.5191C46.9755 32.4658 47.2139 32.4069 47.4669 32.4272L47.4229 32.94C47.256 32.9253 47.0764 32.9713 46.8875 33.0172C46.7335 33.0577 46.5759 33.1055 46.4219 33.1514L46.2899 33.1919C46.0974 33.2489 45.8792 33.3132 45.6592 33.3592C45.5254 33.3867 45.4154 33.4033 45.3127 33.4106C45.2009 33.418 45.0542 33.418 44.9039 33.3665C44.8195 33.3408 44.7425 33.293 44.671 33.2231C44.6105 33.1606 44.5794 33.0981 44.5574 33.0522L44.4034 32.747C44.3044 32.5816 44.2035 32.4125 44.0954 32.2507L42.1942 32.9989C42.185 33.0081 42.174 33.0136 42.1649 33.0209L42.0934 33.0724C41.7744 33.3077 41.4444 33.5503 41.0667 33.725C40.81 33.8408 40.579 33.8978 40.3572 33.9033C40.0859 33.9125 39.8219 33.8279 39.6074 33.6717C39.4149 33.5338 39.259 33.3518 39.1197 33.1772C39.0115 33.043 38.907 32.9014 38.8025 32.7452C38.2855 32.6974 37.7832 32.6992 37.3084 32.7562C37.0205 32.793 36.7767 32.8536 36.5622 32.94L36.4797 32.9731L36.3184 33.0614C36.3092 33.0687 36.2982 33.0761 36.2872 33.0834L36.2524 33.111C36.1845 33.1588 36.1204 33.2139 36.0525 33.2728C36.0159 33.3058 35.9774 33.3371 35.9389 33.3683L35.6217 33.6367C35.5172 33.7268 35.4035 33.8206 35.2862 33.9106L34.6262 34.4253L33.5299 35.247L33.4272 35.2323C33.3154 35.2176 33.2035 35.1974 33.0917 35.179L33.0055 35.1643C32.3859 35.054 31.8432 34.9345 31.3445 34.8022C30.7029 34.6349 30.1895 34.4456 29.7312 34.2066C29.2417 34.0081 28.6954 33.9345 28.1802 33.8867C27.6724 33.8426 27.1664 33.8297 26.6714 33.8444C26.4055 34.247 26.1122 34.6386 25.7987 35.0117C25.509 35.35 25.1149 35.7838 24.629 36.1312C24.5319 36.1992 24.4054 36.2838 24.2624 36.3555C24.1304 36.4253 23.9892 36.4805 23.8499 36.5172C23.7875 36.5356 23.7197 36.5448 23.661 36.554L23.5675 36.5687C23.5235 36.5761 23.4795 36.5834 23.4337 36.5889C23.3842 36.5944 23.3384 36.5981 23.2944 36.6036C23.2082 36.6128 23.122 36.622 23.0359 36.6294L22.8012 36.6478L21.8222 37.2029L21.5325 37.8518C21.483 38.2636 21.417 38.6349 21.3272 38.986C21.2685 39.2194 21.2099 39.4051 21.142 39.5742C21.065 39.7599 20.966 39.9731 20.7955 40.1496C20.6672 40.2856 20.5114 40.4143 20.3042 40.5522C20.141 40.6606 19.9669 40.7654 19.7872 40.8628C19.4737 41.0319 19.1364 41.1937 18.7807 41.3426C18.3242 41.9327 17.941 42.5356 17.6385 43.1404C17.4625 43.4989 17.3342 43.8261 17.2517 44.1386C17.1509 44.5393 17.1362 44.8518 17.204 45.1239L16.7054 45.2489Z" fill="white"/>
<mask id="mask1_4167_17544" style="mask-type:luminance" maskUnits="userSpaceOnUse" x="24" y="26" width="26" height="10">
<path d="M24.4062 26.1172H49.5394V35.529H24.4062V26.1172Z" fill="white"/>
</mask>
<g mask="url(#mask1_4167_17544)">
<path d="M25.3789 35.3451L24.8711 35.2642L24.9243 34.9333C24.9298 34.8965 24.9353 34.8635 24.9408 34.8285C24.9536 34.7403 24.9701 34.63 25.0031 34.5087L25.0599 34.2697C25.0654 34.2513 25.0673 34.2385 25.0709 34.2237C25.0783 34.187 25.0874 34.1502 25.1003 34.1135L25.1461 33.9701C25.1589 33.9351 25.1699 33.9021 25.1809 33.869C25.2011 33.801 25.2268 33.7256 25.2579 33.6484L25.3918 33.3212L25.7273 32.5877C25.8409 32.323 25.9528 32.0583 26.0481 31.7697L26.0518 31.7587C26.1673 31.459 26.2516 31.1208 26.3176 30.8285C26.3616 30.6263 26.4019 30.4186 26.4459 30.198C26.4734 30.0546 26.5009 29.9094 26.5303 29.7642C26.6109 29.3855 26.7026 28.9848 26.8823 28.5914C27.0766 28.1557 27.3699 27.7899 27.7293 27.5381C28.0794 27.2918 28.5048 27.1116 28.9979 26.9995C29.3829 26.9076 29.8083 26.8616 30.3693 26.8524C30.6974 26.8506 31.0293 26.8598 31.3519 26.8708C31.4821 26.8745 31.6123 26.8782 31.7424 26.8818C32.5729 26.9021 33.4713 26.8635 34.4851 26.7624C34.9709 26.7164 35.4641 26.6594 35.9408 26.6061C36.3698 26.5583 36.8134 26.5087 37.2479 26.4646C38.3113 26.3598 39.1748 26.3175 39.9649 26.3304C40.8761 26.3396 41.7524 26.4627 42.5023 26.5749L42.8946 26.6337C43.5418 26.7329 44.1523 26.8249 44.7261 26.8892C46.0241 27.0436 47.1919 27.0436 48.0133 26.8892L48.2919 26.8414L48.7448 26.7293C48.7741 26.7201 48.8089 26.709 48.8419 26.698C48.8639 26.6907 48.8823 26.6833 48.9024 26.6778L49.2178 26.573L49.3773 27.062L49.0051 27.1851C48.9648 27.1999 48.9208 27.2146 48.8731 27.2274L48.3891 27.3469L48.1049 27.3965C47.2359 27.5583 46.0131 27.5601 44.6656 27.4002C44.0844 27.334 43.4684 27.2421 42.8176 27.1447L42.4253 27.084C41.6919 26.9737 40.8376 26.8543 39.9576 26.8451C39.1858 26.8322 38.3424 26.8745 37.2993 26.9774C36.8684 27.0215 36.4248 27.0693 35.9976 27.119C35.5191 27.1723 35.0241 27.2274 34.5346 27.2752C33.5006 27.3763 32.5821 27.4168 31.7296 27.3965C31.5976 27.3929 31.4656 27.3892 31.3354 27.3855C31.0036 27.3745 30.6919 27.3635 30.3766 27.3671C29.8541 27.3763 29.4654 27.4168 29.1134 27.5013C28.6844 27.5987 28.3196 27.7532 28.0244 27.959C27.7403 28.1594 27.5074 28.4499 27.3498 28.8028C27.1921 29.1502 27.1078 29.5197 27.0344 29.869C27.0051 30.0124 26.9758 30.1557 26.9501 30.2954C26.9061 30.5197 26.8658 30.7311 26.8181 30.9425C26.7484 31.2513 26.6586 31.6098 26.5339 31.9388C26.4313 32.244 26.3158 32.5179 26.1966 32.7954L25.8409 33.5804L25.7328 33.8432C25.7089 33.9021 25.6888 33.9627 25.6704 34.0252C25.6576 34.0638 25.6448 34.1006 25.6338 34.1355L25.5879 34.2734C25.5806 34.2936 25.5769 34.3175 25.5714 34.3396C25.5678 34.3579 25.5623 34.3763 25.5586 34.3929L25.4999 34.6374C25.4724 34.7366 25.4614 34.8212 25.4486 34.9021C25.4431 34.9443 25.4358 34.9829 25.4303 35.0197L25.3789 35.3451Z" fill="white"/>
</g>
<path d="M30.3454 27.1002H29.832V23.7344H48.675V24.2491H30.3454V27.1002Z" fill="white"/>
<path d="M32.5925 27.1347H32.2845V25.0979H31.4174V27.1347H31.1094V24.7891H32.5925V27.1347Z" fill="white"/>
<path d="M34.9441 27.1347H34.6361V25.0979H33.7689V27.1347H33.4609V24.7891H34.9441V27.1347Z" fill="white"/>
<path d="M37.2975 26.7229H36.9877V25.0979H36.1205V26.7229H35.8125V24.7891H37.2975V26.7229Z" fill="white"/>
<path d="M39.6472 26.7229H39.3392V25.0979H38.4721V26.7229H38.1641V24.7891H39.6472V26.7229Z" fill="white"/>
<path d="M42.0006 26.7229H41.6926V25.0979H40.8236V26.7229H40.5156V24.7891H42.0006V26.7229Z" fill="white"/>
<path d="M44.3504 27.1347H44.0424V25.0979H43.1752V27.1347H42.8672V24.7891H44.3504V27.1347Z" fill="white"/>
<path d="M45.5247 26.9802H46.3918V25.0979H45.5247V26.9802ZM46.6998 27.2891H45.2148V24.7891H46.6998V27.2891Z" fill="white"/>
<path d="M47.8744 27.1347H47.5664V24.7891H48.8956V25.0979H47.8744V27.1347Z" fill="white"/>
<path d="M28.4508 27.5386H27.9375V19.1783L29.1402 18L30.3447 19.1783V27.1103H29.8313V19.3952L29.1402 18.7206L28.4508 19.3952V27.5386Z" fill="white"/>
<path d="M31.979 23.7417H37.2975L36.3148 12.4678H32.9616L31.979 23.7417ZM37.8566 24.2564H31.418L32.4905 11.9531H36.786L37.8566 24.2564Z" fill="white"/>
<path d="M31.9547 11.9517H37.3191V11.2881H31.9547V11.9517ZM37.8342 12.4665H31.4414V10.7734H37.8342V12.4665Z" fill="white"/>
<path d="M32.8791 12.2096H32.5703V11.0312H32.8791V12.2096Z" fill="white"/>
<path d="M34.1526 12.2096H33.8438V11.0312H34.1526V12.2096Z" fill="white"/>
<path d="M35.426 12.2096H35.1172V11.0312H35.426V12.2096Z" fill="white"/>
<path d="M34.7893 9.43382H34.4805V8.09375H34.7893V9.43382Z" fill="white"/>
<path d="M36.6955 12.2096H36.3867V11.0312H36.6955V12.2096Z" fill="white"/>
<path d="M32.8783 10.8773H36.3891V8.25414H32.8783V10.8773ZM36.5431 11.1861H32.7243C32.64 11.1861 32.5703 11.1163 32.5703 11.0317V8.09972C32.5703 8.01517 32.64 7.94531 32.7243 7.94531H36.5431C36.6293 7.94531 36.6971 8.01517 36.6971 8.09972V11.0317C36.6971 11.1163 36.6293 11.1861 36.5431 11.1861Z" fill="white"/>
<path d="M33.1442 7.9421H36.1233L34.6347 6.67739L33.1442 7.9421ZM36.5432 8.25092H32.7243C32.6602 8.25092 32.6015 8.21048 32.5795 8.14982C32.5575 8.08915 32.5758 8.02114 32.6253 7.97886L34.5338 6.35754C34.5925 6.3079 34.6768 6.3079 34.7337 6.35754L36.644 7.97886C36.6917 8.02114 36.71 8.08915 36.688 8.14982C36.666 8.21048 36.6073 8.25092 36.5432 8.25092Z" fill="white"/>
<path d="M34.633 6.47656L32.7227 8.09789H36.5415L34.633 6.47656Z" fill="white"/>
<path d="M32.8783 9.8125H36.3891V9.59007H32.8783V9.8125ZM36.6971 10.1213H32.5703V9.28125H36.6971V10.1213Z" fill="white"/>
<path d="M34.8922 6.4807H34.3789V5.48438H34.8922V6.4807Z" fill="white"/>
<path d="M3.89165 23.313L3.75781 23.0335L9.63181 20.1953L9.76748 20.4729L3.89165 23.313Z" fill="white"/>
<path d="M14.0713 18.3897L13.9375 18.1121L20.8327 14.7812L20.9665 15.0588L14.0713 18.3897Z" fill="white"/>
<path d="M22.3721 14.3819L22.2383 14.1043L24.2806 13.1172L24.4144 13.3948L22.3721 14.3819Z" fill="white"/>
<path d="M27.9737 11.6728L27.8398 11.3952L30.5953 10.0625L30.7292 10.3401L27.9737 11.6728Z" fill="white"/>
<path d="M21.2016 4.14706L17.8008 2.72243L17.9181 2.4375L21.3208 3.86213L21.2016 4.14706Z" fill="white"/>
<path d="M27.6793 6.86305L24.1758 5.3943L24.2931 5.10938L27.7984 6.57629L27.6793 6.86305Z" fill="white"/>
<path d="M30.6464 8.1011L28.8516 7.34743L28.9689 7.0625L30.7656 7.81434L30.6464 8.1011Z" fill="white"/>
<path d="M7.22081 16.5248L7.13281 16.2289L11.8591 14.7969L11.949 15.0928L7.22081 16.5248Z" fill="white"/>
<path d="M16.8927 13.5983L16.8047 13.3024L22.6017 11.5469L22.6915 11.841L16.8927 13.5983Z" fill="white"/>
<path d="M24.9513 11.1553L24.8633 10.8594L30.0241 9.29688L30.1121 9.59283L24.9513 11.1553Z" fill="white"/>
<path d="M21.5994 7.38327L18.7266 6.91452L18.7761 6.60938L21.6489 7.07813L21.5994 7.38327Z" fill="white"/>
<path d="M26.0505 8.11029L23.0273 7.61765L23.0768 7.3125L26.1 7.80515L26.0505 8.11029Z" fill="white"/>
<path d="M30.0431 8.7693L27.8633 8.41452L27.9128 8.10938L30.0926 8.46415L30.0431 8.7693Z" fill="white"/>
<path d="M9.54823 9.83042L9.53906 9.5216L12.5164 9.42969L12.5256 9.73851L9.54823 9.83042Z" fill="white"/>
<path d="M16.0834 9.625L16.0742 9.31618L20.2506 9.1875L20.2597 9.49632L16.0834 9.625Z" fill="white"/>
<path d="M23.4115 9.3943L23.4023 9.08548L26.6877 8.98438L26.6968 9.2932L23.4115 9.3943Z" fill="white"/>
<path d="M3.23471 29.8789C7.22037 30.7723 11.2702 30.037 15.2504 29.5057C16.222 29.3752 17.1992 29.252 18.1782 29.1969C19.2379 29.1362 20.2664 29.2649 21.3004 29.48C23.1319 29.8587 24.9817 30.4064 26.8444 29.9028C27.1634 29.8164 27.0277 29.32 26.7087 29.4064C24.8222 29.9156 22.9229 29.2778 21.0712 28.9083C19.1829 28.5333 17.3385 28.7189 15.4465 28.9653C11.4517 29.4837 7.37437 30.2796 3.37221 29.3825C3.04954 29.309 2.91204 29.8053 3.23471 29.8789Z" fill="white"/>
<path d="M11.1117 37.6811C10.1199 37.6811 9.20321 37.3778 8.54688 36.8208L8.87688 36.4274C9.52587 36.977 10.4847 37.2399 11.5077 37.148C12.5252 37.0561 13.4767 36.659 14.2724 36.2803L14.3512 36.2436C14.6244 36.1131 14.9067 35.9789 15.2165 35.898C15.5649 35.8079 15.9224 35.7969 16.2285 35.7969C16.2285 35.7969 16.2304 35.7969 16.2322 35.7969C16.8904 35.7969 17.5522 35.8557 18.1994 35.9697L18.1095 36.477C17.4917 36.3667 16.8592 36.3116 16.2322 36.3116C16.2304 36.3116 16.2285 36.3116 16.2285 36.3116C15.9554 36.3116 15.6364 36.3208 15.3449 36.398C15.0845 36.4642 14.8352 36.5836 14.573 36.7086L14.4924 36.7454C13.704 37.1204 12.6572 37.5616 11.5535 37.6608C11.405 37.6737 11.2584 37.6811 11.1117 37.6811Z" fill="white"/>
<path d="M20.9635 37.0942L19.8672 36.8203L19.9919 36.3203L21.0882 36.5942L20.9635 37.0942Z" fill="white"/>
<path d="M24.9642 37.6612C24.3519 37.6612 23.7469 37.5564 23.1914 37.4572L23.2812 36.9517C24.0952 37.095 24.9367 37.2421 25.7397 37.0711C26.0514 37.005 26.3557 36.891 26.6784 36.7715C27.2394 36.5619 27.8206 36.3469 28.4512 36.3983L28.4091 36.9112C27.8939 36.8689 27.3897 37.0564 26.8581 37.255C26.5317 37.3763 26.1944 37.5013 25.8461 37.5748C25.5527 37.6373 25.2576 37.6612 24.9642 37.6612Z" fill="white"/>
<path d="M36.0084 37.8309C35.4566 37.8309 34.9029 37.7758 34.3566 37.6453C33.8543 37.5276 33.3574 37.3475 32.8771 37.1729C31.8541 36.8034 30.8861 36.4541 29.9089 36.6637L29.8008 36.16C30.9228 35.9192 32.0044 36.3107 33.0513 36.6894C33.5188 36.8585 34.0009 37.0331 34.4739 37.1453C36.6794 37.6655 39.0518 36.8806 40.9584 36.2501L41.1198 36.739C39.6109 37.2372 37.8198 37.8309 36.0084 37.8309Z" fill="white"/>
<path d="M42.7628 36.3293L42.5703 35.8514C43.5236 35.4635 44.5998 35.3808 45.6008 35.6142L45.4835 36.1161C44.5851 35.9047 43.619 35.9819 42.7628 36.3293Z" fill="white"/>
<path d="M14.4306 40.3835C14.1299 40.3835 13.8751 40.343 13.6954 40.3044C13.3618 40.229 13.1124 40.1243 12.9639 40.0471C12.9053 40.0213 12.8539 39.9919 12.8154 39.9699C12.8008 39.9625 12.7898 39.9551 12.7788 39.9496L12.7109 39.911L12.8631 39.6426L12.9273 39.6776C12.9383 39.6831 12.9529 39.6923 12.9694 39.7033C13.0061 39.7235 13.0464 39.7474 13.0959 39.7695C13.2114 39.8283 13.4424 39.9312 13.7614 40.0029C13.9833 40.0507 14.3353 40.1004 14.7496 40.0581C14.9256 40.0379 15.1108 40.0011 15.2996 39.9478C15.4866 39.889 15.6663 39.8154 15.8313 39.729C15.9046 39.6886 15.9779 39.6445 16.0513 39.6022C16.1503 39.5415 16.2548 39.4809 16.3593 39.4257C16.3904 39.4092 16.4271 39.3926 16.4601 39.3798C16.4748 39.3743 16.4894 39.3687 16.5023 39.3614L16.5188 39.354C16.5628 39.3357 16.6123 39.3136 16.6673 39.2989L16.6819 39.2952C16.7241 39.2824 16.7718 39.2676 16.8213 39.2585L16.8414 39.2548C16.8818 39.2456 16.9276 39.2364 16.9771 39.2327C17.4098 39.1794 17.8039 39.2897 18.0624 39.3779C18.3558 39.4772 18.5941 39.593 18.7499 39.6684L19.0121 39.7989L18.8746 40.0765L18.6234 39.9496C18.4584 39.8706 18.2384 39.764 17.9634 39.6702C17.7343 39.593 17.3841 39.4937 17.0064 39.5397C16.9716 39.5434 16.9386 39.5507 16.9038 39.5581L16.8763 39.5636C16.8414 39.5691 16.8084 39.5783 16.7736 39.5893L16.7498 39.5967C16.7131 39.6059 16.6783 39.6224 16.6416 39.6371L16.6288 39.6445C16.6141 39.65 16.5958 39.6574 16.5774 39.6647C16.5536 39.6757 16.5298 39.6849 16.5078 39.6978C16.4033 39.7511 16.3079 39.8081 16.2071 39.8669C16.1319 39.9129 16.0549 39.957 15.9779 40.0011C15.7928 40.0967 15.5966 40.1794 15.3876 40.2437C15.1786 40.3044 14.9751 40.3449 14.7826 40.3651C14.6598 40.3779 14.5424 40.3835 14.4306 40.3835Z" fill="white"/>
<path d="M23.0747 41.2601C22.9996 41.2601 22.9244 41.2564 22.8529 41.2528C22.4826 41.2215 22.1947 41.1645 21.9711 41.08L21.9142 41.0616C21.8739 41.0487 21.8372 41.0358 21.8006 41.023L21.7877 41.0175L21.5127 40.8851C21.4779 40.8686 21.4504 40.8502 21.4247 40.8336C21.4156 40.8263 21.4064 40.8208 21.3972 40.8153L21.1992 40.6884L21.3661 40.4274L21.5604 40.5524C21.5677 40.5579 21.5806 40.5671 21.5952 40.5763C21.6117 40.5855 21.6282 40.5983 21.6484 40.6075L21.9142 40.7344C21.9454 40.7472 21.9784 40.7583 22.0114 40.7693L22.0737 40.7895C22.2754 40.8649 22.5376 40.9164 22.8749 40.9458C23.1609 40.9623 23.4872 40.9421 23.8117 40.8869C24.1106 40.8281 24.4204 40.7417 24.7284 40.6296C25.0144 40.5193 25.2821 40.4053 25.4984 40.2987C25.7056 40.2013 25.8761 40.1112 26.0026 40.0469L26.2391 39.9219L26.3821 40.1958L26.1437 40.3208C26.0154 40.3869 25.8412 40.477 25.6322 40.5763C25.4067 40.6884 25.1372 40.8024 24.8366 40.9182C24.5102 41.0377 24.1857 41.1278 23.8667 41.1903C23.5972 41.2362 23.3277 41.2601 23.0747 41.2601Z" fill="white"/>
<path d="M32.5338 41.4062C32.3853 41.4062 32.224 41.3952 32.0535 41.3695C31.9655 41.3603 31.883 41.3364 31.8042 41.3143L31.751 41.3015C31.7308 41.2941 31.7162 41.2904 31.7015 41.2868C31.6685 41.2794 31.63 41.2684 31.5915 41.2518L31.454 41.1985C31.4063 41.1801 31.3532 41.1563 31.3018 41.1287L31.1698 41.0625C31.0763 41.011 30.9865 40.9559 30.8967 40.9007C30.7188 40.7868 30.5465 40.6654 30.3815 40.5478C30.2202 40.432 30.068 40.3235 29.9122 40.2243C29.6097 40.0276 29.2998 39.8897 29.0157 39.8254C28.8892 39.796 28.7608 39.7794 28.638 39.7776H28.6362C28.539 39.7776 28.4437 39.7886 28.3557 39.807C28.2567 39.8309 28.2072 39.8493 28.187 39.8585L28.1155 39.8879L28 39.6011L28.0678 39.5735C28.1173 39.5515 28.1925 39.5276 28.286 39.5055C28.3997 39.4816 28.517 39.4688 28.638 39.4688H28.6398C28.7883 39.4706 28.9368 39.489 29.0853 39.5239C29.4025 39.5956 29.7472 39.7482 30.079 39.9651C30.2385 40.0662 30.4017 40.1838 30.5593 40.296C30.7225 40.4118 30.8893 40.5312 31.0598 40.6397C31.1442 40.6912 31.2303 40.7426 31.3147 40.7904L31.443 40.8548C31.4852 40.8768 31.5255 40.8952 31.564 40.9099L31.707 40.9669C31.7308 40.9761 31.7547 40.9816 31.7785 40.989C31.7968 40.9926 31.817 40.9982 31.8353 41.0037L31.8867 41.0184C31.9563 41.0368 32.0242 41.0551 32.0865 41.0607L32.0975 41.0625C32.5063 41.1287 32.8547 41.0882 33.0747 41.0441L33.0857 41.0423C33.1407 41.0349 33.1938 41.0202 33.2488 41.0055L33.28 40.9982C33.3038 40.9926 33.3277 40.9853 33.3515 40.9798C33.39 40.9706 33.4285 40.9614 33.4633 40.9504C33.5 40.9375 33.5403 40.9228 33.5788 40.9099C33.6448 40.8879 33.7035 40.8676 33.7548 40.8474L34.0078 40.7408L34.1288 41.0239L33.8722 41.1342C33.8135 41.1562 33.7475 41.1783 33.676 41.2022C33.6393 41.2151 33.6008 41.2279 33.5587 41.2426C33.5147 41.2574 33.4707 41.2684 33.4267 41.2794C33.4047 41.2849 33.3808 41.2904 33.3588 41.296L33.3277 41.3051C33.269 41.3199 33.203 41.3364 33.1315 41.3474C32.9793 41.3787 32.774 41.4062 32.5338 41.4062Z" fill="white"/>
<path d="M32.8859 39.9792C32.5192 39.9792 32.2057 39.902 31.993 39.8303C31.6465 39.7126 31.4027 39.5619 31.2579 39.4571C31.2047 39.4222 31.157 39.3817 31.1222 39.3523C31.1075 39.3413 31.0965 39.3303 31.0837 39.3211L31.0195 39.2678L31.2139 39.0288L31.2744 39.0766C31.2835 39.0858 31.3019 39.1005 31.322 39.117C31.3532 39.1428 31.388 39.174 31.432 39.2016C31.5439 39.2825 31.7675 39.4259 32.092 39.538C32.323 39.617 32.6897 39.7016 33.1132 39.6593C33.4542 39.6299 33.83 39.5343 34.2957 39.356C34.468 39.2917 34.6404 39.2218 34.8072 39.1538C35.0272 39.0637 35.2564 38.97 35.4782 38.8928C35.8742 38.7531 36.2574 38.6648 36.5874 38.6354C36.9907 38.6023 37.2785 38.6556 37.4142 38.6906C37.5132 38.7163 37.5884 38.7384 37.6434 38.7622L37.7112 38.7861L37.6049 39.0766L37.5334 39.0509C37.4839 39.0306 37.4069 39.0086 37.3372 38.9902C37.1392 38.9387 36.8752 38.9222 36.613 38.9442C36.3087 38.97 35.9512 39.0527 35.579 39.1832C35.3645 39.2586 35.15 39.3468 34.9227 39.4387C34.754 39.5086 34.5799 39.5803 34.4057 39.6446C33.9107 39.8339 33.5092 39.935 33.1425 39.9663C33.0545 39.9755 32.9684 39.9792 32.8859 39.9792Z" fill="white"/>
<path d="M32.366 43.4283C32.1258 43.4283 31.8911 43.4117 31.6656 43.3805C31.3375 43.3272 31.0185 43.2353 30.716 43.1066C30.5216 43.0184 30.3365 42.9173 30.1586 42.818C30.0596 42.7647 29.9625 42.7114 29.8635 42.6599C29.594 42.5147 29.3171 42.4062 29.0421 42.3345C28.5325 42.2003 27.9788 42.1654 27.4838 42.2353C27.1208 42.2794 26.7706 42.375 26.415 42.5294L26.2481 42.6048L26.0355 42.7187L25.8906 42.4467L26.1125 42.3272L26.2903 42.2463C26.6771 42.0809 27.053 41.9761 27.4453 41.9283C27.8193 41.8768 28.417 41.8511 29.1191 42.0349C29.418 42.1121 29.7168 42.2316 30.0083 42.386C30.1073 42.4375 30.2063 42.4926 30.3071 42.5478C30.4795 42.6434 30.6591 42.7408 30.8388 42.8217C31.1175 42.9412 31.4108 43.0257 31.7115 43.0753C31.9938 43.1139 32.2926 43.1287 32.597 43.114C33.0846 43.0845 33.598 42.9926 34.1663 42.8364C34.5935 42.7151 34.9418 42.5974 35.2553 42.4853L35.666 42.3382L35.7705 42.6287L35.358 42.7776C35.0408 42.8897 34.6851 43.011 34.2488 43.1323C33.6603 43.2978 33.125 43.3915 32.6135 43.4228C32.531 43.4265 32.4485 43.4283 32.366 43.4283Z" fill="white"/>
<path d="M21.3681 44.0653C21.3626 44.0653 21.3571 44.0653 21.3534 44.0653L20.9574 44.0616L20.8346 44.0542C20.6183 44.0377 20.4166 44.0248 20.2369 43.9972C20.0591 43.977 19.9033 43.9513 19.7896 43.9311L19.5586 43.8906L19.6099 43.5873L19.8428 43.6259C19.9528 43.6461 20.1031 43.6719 20.2773 43.6903C20.4496 43.7178 20.6458 43.7307 20.8548 43.7454L20.9703 43.7528L21.3553 43.7564C21.4359 43.7583 21.5184 43.7509 21.6046 43.7454C21.6541 43.7417 21.7054 43.7381 21.7549 43.7362C21.8411 43.7344 21.9254 43.7197 22.0134 43.7068C22.0593 43.6994 22.1033 43.6921 22.1473 43.6866C22.1656 43.6829 22.1913 43.6792 22.2169 43.6756C22.2573 43.67 22.2939 43.6645 22.3269 43.6572L22.7009 43.5634C22.7321 43.5579 22.7633 43.545 22.7944 43.5322C22.8164 43.5248 22.8384 43.5156 22.8604 43.5101C22.8953 43.4954 22.9338 43.4825 22.9723 43.4678C23.0401 43.4439 23.1024 43.4219 23.1611 43.398L23.7734 43.1094L23.9036 43.3888L23.2839 43.6811C23.2143 43.7105 23.1464 43.7344 23.0768 43.7583C23.0401 43.773 23.0016 43.7858 22.9613 43.8006C22.9393 43.8079 22.9209 43.8153 22.9044 43.8226C22.8659 43.8373 22.8219 43.8539 22.7724 43.8649L22.4003 43.9568C22.3526 43.9697 22.3049 43.9752 22.2591 43.9825C22.2371 43.9844 22.2151 43.9881 22.1931 43.9917C22.1454 43.9972 22.1033 44.0046 22.0629 44.0119C21.9676 44.0267 21.8686 44.0414 21.7659 44.045C21.7219 44.0469 21.6743 44.0506 21.6266 44.0542C21.5423 44.0597 21.4561 44.0653 21.3681 44.0653Z" fill="white"/>
<path d="M16.4555 42.9467L16.307 42.9246C16.2501 42.921 16.1841 42.9044 16.12 42.8897L15.988 42.8566L15.8945 42.8254C15.7166 42.7721 15.5223 42.682 15.3536 42.6011C15.1666 42.5074 14.9741 42.4007 14.778 42.2923C14.5946 42.1893 14.3985 42.0827 14.2151 41.9945C14.0006 41.8952 13.8448 41.8364 13.7165 41.8015L13.5093 41.7518C13.4543 41.7408 13.3993 41.7298 13.3608 41.7279L13.2031 41.7151L13.2288 41.4062L13.3791 41.421C13.4305 41.421 13.4928 41.432 13.568 41.4485L13.6835 41.4706L13.799 41.5037C13.942 41.5423 14.1125 41.6085 14.3453 41.7151C14.5396 41.807 14.7395 41.9173 14.9265 42.0221C15.1208 42.1287 15.3078 42.2335 15.4893 42.3235C15.6451 42.3989 15.8266 42.4816 15.9861 42.5313L16.131 42.5735L16.1933 42.5882C16.2446 42.6011 16.2996 42.6158 16.3418 42.6195L16.4976 42.6397L16.4555 42.9467Z" fill="white"/>
<path d="M36.1709 40.568L36.0664 40.2776L36.2791 40.2022C36.2919 40.1967 36.3029 40.193 36.3139 40.1893C36.3414 40.1783 36.3726 40.1673 36.4074 40.1581L36.7136 40.0882L36.8877 40.0662C37.1462 40.0276 37.4542 40.0276 37.7476 40.0349C37.9786 40.0441 38.2242 40.0607 38.4589 40.0772L38.7119 40.0938C39.0731 40.1158 39.3792 40.114 39.6469 40.0882C39.9292 40.0643 40.1969 40.0074 40.4261 39.9228C40.6516 39.8419 40.8129 39.739 40.9082 39.6673C40.9486 39.6397 40.9761 39.6158 40.9999 39.5956C41.0127 39.5846 41.0237 39.5754 41.0329 39.568L41.0732 39.5312L41.2749 39.7665L41.2309 39.8051C41.2199 39.8125 41.2126 39.8199 41.2034 39.8272C41.1759 39.8511 41.1374 39.886 41.0861 39.9191C40.9816 40 40.7927 40.1195 40.5306 40.2132C40.2776 40.3051 39.9824 40.3695 39.6744 40.3971C39.3921 40.4228 39.0694 40.4246 38.6936 40.4026L38.4387 40.3842C38.1931 40.3676 37.9621 40.3511 37.7384 40.3438C37.4597 40.3364 37.1682 40.3364 36.9317 40.3713L36.7612 40.3934L36.4771 40.4596C36.4587 40.4632 36.4386 40.4706 36.4221 40.4779C36.4074 40.4835 36.3927 40.489 36.3799 40.4926L36.1709 40.568Z" fill="white"/>
<path d="M10.2532 32.3971C10.244 32.3971 10.2367 32.3971 10.2275 32.3971C9.93418 32.3842 9.71234 32.3585 9.49784 32.3162C9.06518 32.2371 8.61234 32.0974 8.17601 31.9596L8.00918 31.9081C6.95134 31.5882 5.97051 31.3474 5.24818 31.2261L4.96951 31.1728C4.91634 31.1636 4.86318 31.1563 4.81184 31.1489C4.78251 31.1452 4.75318 31.1415 4.72568 31.136L3.96484 31.0239L4.00884 30.7188L4.85584 30.8438C4.91084 30.8511 4.96584 30.8585 5.02451 30.8695L5.30318 30.9228C6.03284 31.0441 7.02834 31.2886 8.09901 31.6121L8.26768 31.6654C8.69484 31.7996 9.13851 31.9375 9.55651 32.0129C9.75634 32.0533 9.96534 32.0772 10.2348 32.0901C10.3247 32.0901 10.4383 32.0882 10.5447 32.0827C10.574 32.079 10.6125 32.0754 10.651 32.0717C10.7133 32.0662 10.772 32.0607 10.8252 32.0515C11.1588 31.9945 11.4595 31.8897 11.6593 31.7629L11.7327 31.7206C11.7418 31.7151 11.7492 31.7077 11.7583 31.7022L11.9435 31.5643L12.1287 31.8125L11.9435 31.9485C11.9288 31.9596 11.9142 31.9706 11.8977 31.9816L11.8885 31.9871L11.817 32.0276C11.5933 32.171 11.2487 32.2923 10.882 32.3548C10.816 32.3676 10.7463 32.375 10.6767 32.3805C10.6418 32.3824 10.607 32.386 10.5722 32.3897C10.4567 32.3971 10.3485 32.3971 10.2532 32.3971Z" fill="white"/>
<path d="M13.5756 31.54L13.5078 31.2385L15.9626 30.6797L16.0305 30.9812L13.5756 31.54Z" fill="white"/>
<path d="M23.4416 31.1116L22.7797 30.9222C22.7486 30.9149 22.7101 30.9075 22.6716 30.8983L22.1894 30.7954C22.1142 30.777 22.0391 30.766 21.9731 30.7586L21.7329 30.7219C21.4964 30.6796 21.2507 30.6612 20.9922 30.6428C20.9024 30.6355 20.8126 30.6281 20.7227 30.6208C20.6329 30.6208 20.5431 30.6189 20.4532 30.6171C20.1947 30.6134 19.9491 30.6079 19.7126 30.6281L19.4669 30.641C19.3991 30.6428 19.3239 30.6483 19.2506 30.6575L18.7537 30.7163C18.7152 30.7219 18.6767 30.7255 18.6419 30.7311L17.9709 30.8561L17.9141 30.5527L18.5906 30.4259C18.6364 30.4186 18.6767 30.4149 18.7189 30.4094L19.2102 30.3524C19.2946 30.3395 19.3844 30.334 19.4522 30.3322L19.6924 30.3193C19.9381 30.2991 20.2039 30.3046 20.4606 30.3083C20.5504 30.3101 20.6402 30.3119 20.7301 30.3119H20.7429C20.8346 30.3211 20.9244 30.3266 21.0142 30.334C21.2709 30.3542 21.5349 30.3744 21.7806 30.4167L22.0171 30.4516C22.0867 30.4608 22.1729 30.4737 22.2591 30.4939L22.7339 30.5969C22.7779 30.6061 22.8182 30.6134 22.8586 30.6244L23.5259 30.8138L23.4416 31.1116Z" fill="white"/>
<path d="M12.1918 33.8989L12.0066 33.8971C11.8801 33.8934 11.7133 33.8989 11.5043 33.886C11.0844 33.8732 10.5363 33.8235 10.0046 33.75C9.47111 33.6691 8.93211 33.5588 8.52145 33.4504C8.39128 33.421 8.27211 33.3842 8.17678 33.3566C8.12728 33.3419 8.08328 33.329 8.04478 33.318L7.86328 33.2665L7.94761 32.9688L8.12728 33.0221C8.16578 33.0312 8.21161 33.0441 8.26478 33.0607C8.36011 33.0882 8.47011 33.1213 8.59478 33.1507C9.00178 33.2574 9.52795 33.364 10.0486 33.4449C10.5674 33.5165 11.1046 33.5643 11.5189 33.5772C11.7243 33.5901 11.8911 33.5846 12.0121 33.5882L12.1954 33.5901L12.1918 33.8989Z" fill="white"/>
<path d="M13.3261 33.9642L13.3242 33.6553H13.6231C13.6946 33.6572 13.7551 33.6535 13.8137 33.648C14.1236 33.6351 14.5122 33.5726 14.8881 33.4789C15.2566 33.3759 15.6251 33.2362 15.8946 33.1002C15.9569 33.0708 16.0101 33.0432 16.0687 33.0083L16.3309 32.8594L16.4831 33.1278L16.2227 33.2767C16.1567 33.3153 16.0926 33.3483 16.0266 33.3778C15.7479 33.5211 15.3574 33.6682 14.9669 33.7785C14.5691 33.8778 14.1584 33.9421 13.8357 33.9568C13.7752 33.9623 13.7019 33.966 13.6212 33.9642H13.3261Z" fill="white"/>
<path d="M16.9801 33.0211L16.8555 32.7381L17.3615 32.5156L17.4843 32.7987L16.9801 33.0211Z" fill="white"/>
<path d="M22.4586 32.6029L21.9306 32.5662C21.7069 32.5459 21.4319 32.5368 21.1386 32.5276C21.0176 32.5221 20.8929 32.5184 20.7701 32.5129C20.6546 32.5147 20.5317 32.5129 20.4107 32.5129C20.1174 32.511 19.8387 32.511 19.6169 32.5221L19.0834 32.5386L19.0742 32.2298L19.6041 32.2132C19.8314 32.2022 20.1137 32.2022 20.4126 32.204C20.5317 32.204 20.6527 32.2059 20.7756 32.2059C20.9057 32.2096 21.0286 32.2151 21.1496 32.2187C21.4466 32.2279 21.7252 32.2371 21.9544 32.2592L22.4806 32.2959L22.4586 32.6029Z" fill="white"/>
<path d="M22.5024 34.7702L21.9396 34.6158C21.7049 34.5404 21.4079 34.4798 21.0944 34.4154C20.9661 34.3879 20.8341 34.3603 20.7021 34.3327C20.5701 34.3143 20.4381 34.2941 20.3079 34.2739C19.9908 34.2261 19.6901 34.1801 19.4499 34.1691L18.8633 34.1195L18.8889 33.8125L19.4701 33.8603C19.7213 33.8732 20.0293 33.9191 20.3538 33.9688C20.4839 33.989 20.6178 34.0092 20.7516 34.0276L20.7626 34.0294C20.8946 34.057 21.0266 34.0846 21.1568 34.1121C21.4776 34.1783 21.7819 34.2426 22.0276 34.318L22.5849 34.4724L22.5024 34.7702Z" fill="white"/>
<path d="M33.9547 39.8961L33.8867 39.6222L34.1864 39.5469L34.2544 39.8208L33.9547 39.8961Z" fill="white"/>
<path d="M37.7144 36.5239L37.6245 36.4724L37.6484 36.432C37.6575 36.4154 37.6759 36.3768 37.6887 36.3199C37.7034 36.2555 37.7052 36.193 37.696 36.1324C37.6869 36.0662 37.6557 35.989 37.6044 35.9044L37.5934 35.886C37.5457 35.8051 37.4907 35.7114 37.465 35.5993C37.4412 35.489 37.4449 35.364 37.4724 35.2243C37.4962 35.1158 37.5347 34.9982 37.5915 34.8529L37.8317 34.3125C37.85 34.2721 37.872 34.2353 37.8922 34.1967C37.9032 34.1765 37.9142 34.1563 37.9234 34.136L38.103 33.7996C38.1837 33.6581 38.268 33.5239 38.3432 33.4062C38.3854 33.3437 38.4239 33.2812 38.4605 33.2224C38.5375 33.1121 38.6054 33.0184 38.664 32.9393C38.6934 32.9007 38.719 32.8658 38.7429 32.8346L38.8492 32.6875L38.9317 32.7482L38.8254 32.8952C38.8034 32.9265 38.7759 32.9614 38.7465 33.0018C38.6897 33.079 38.62 33.1728 38.5449 33.2794C38.5119 33.3364 38.4715 33.3971 38.4312 33.4632C38.3524 33.5846 38.2717 33.7114 38.1929 33.8493L38.015 34.1838C38.004 34.204 37.993 34.2243 37.982 34.2463C37.9619 34.2813 37.9435 34.318 37.927 34.3548L37.6869 34.8934C37.6319 35.0313 37.5952 35.1434 37.5732 35.2463C37.5475 35.3695 37.5457 35.4816 37.5659 35.5772C37.5879 35.6728 37.6355 35.7555 37.6814 35.8346L37.6924 35.8511C37.751 35.9467 37.7877 36.0368 37.7987 36.1176C37.8097 36.1893 37.806 36.2647 37.7895 36.3419C37.773 36.4099 37.7529 36.454 37.7382 36.4816L37.7144 36.5239Z" fill="white"/>
<path d="M38.4823 34.7436L38.3906 34.6958L38.4731 34.5414C38.5116 34.4789 38.5483 34.3943 38.5868 34.3079C38.6015 34.2711 38.618 34.2344 38.6363 34.1958C38.6473 34.1627 38.662 34.1241 38.6766 34.0855C38.7096 33.9972 38.7408 33.9127 38.7591 33.8428L38.8068 33.6719L38.9058 33.7013L38.8581 33.8686C38.8398 33.9421 38.8068 34.0303 38.772 34.1222C38.7591 34.159 38.7445 34.1976 38.7316 34.2362C38.7133 34.2767 38.6968 34.3134 38.6803 34.3502C38.64 34.4403 38.6015 34.5248 38.563 34.591L38.4823 34.7436Z" fill="white"/>
<path d="M38.3752 36.7753L38.366 36.6337C38.3642 36.5749 38.3532 36.5014 38.3421 36.426C38.3385 36.3929 38.3348 36.3617 38.3293 36.3286C38.3238 36.301 38.3164 36.2679 38.3091 36.2367C38.2943 36.1595 38.2796 36.0896 38.2613 36.0345L38.2227 35.8966L38.3219 35.8672L38.3605 36.0032C38.3789 36.062 38.3955 36.1356 38.4102 36.2146C38.4175 36.2459 38.4249 36.279 38.4304 36.3102C38.4359 36.347 38.4396 36.3801 38.4451 36.4113C38.4561 36.4903 38.4671 36.5657 38.469 36.6301L38.4782 36.7679L38.3752 36.7753Z" fill="white"/>
<path d="M38.8054 39.2449L38.7024 39.2376L38.7135 39.0666C38.7208 38.9931 38.7208 38.9049 38.719 38.8093C38.719 38.7707 38.719 38.7302 38.719 38.6898C38.7153 38.653 38.7135 38.6126 38.7098 38.574C38.7043 38.4784 38.6969 38.3902 38.6841 38.3203L38.6602 38.1475L38.7613 38.1328L38.787 38.3038C38.7999 38.3773 38.8072 38.4692 38.8127 38.5666C38.8164 38.6052 38.8182 38.6457 38.8219 38.6843C38.8219 38.7302 38.8219 38.7707 38.8219 38.8093C38.8238 38.9067 38.8238 38.9986 38.8164 39.074L38.8054 39.2449Z" fill="white"/>
<path d="M38.5409 40.2243L38.4453 40.1875L38.471 40.1158C38.4839 40.0882 38.4913 40.0515 38.5005 40.0129C38.5041 39.9945 38.5078 39.9761 38.5115 39.9596C38.5097 39.9504 38.5115 39.932 38.5133 39.9136C38.5152 39.875 38.517 39.8364 38.5133 39.8107L38.5041 39.7298L38.6071 39.7188L38.6144 39.796C38.6218 39.8309 38.6181 39.875 38.6163 39.921C38.6144 39.9375 38.6126 39.954 38.6126 39.9724C38.6071 39.9982 38.6034 40.0165 38.6016 40.0331C38.5924 40.0772 38.5832 40.1213 38.5666 40.1563L38.5409 40.2243Z" fill="white"/>
<path d="M38.0687 43.5662L38.054 43.296C38.0393 43.1801 38.0504 43.0368 38.0596 42.8842C38.0632 42.8217 38.0687 42.761 38.0706 42.6985C38.0835 42.6287 38.0945 42.568 38.1037 42.5074C38.1294 42.3566 38.1533 42.2132 38.1956 42.0993L38.271 41.8438L38.3702 41.8732L38.293 42.1324C38.2526 42.2408 38.2305 42.3787 38.2066 42.5239C38.1956 42.5846 38.1846 42.6471 38.1735 42.7096C38.1717 42.7647 38.1662 42.829 38.1625 42.8897C38.1533 43.0386 38.1441 43.1783 38.157 43.2868L38.1717 43.5607L38.0687 43.5662Z" fill="white"/>
<path d="M43.2698 33.6553L43.1836 33.6002L43.3046 33.4145C43.3578 33.3373 43.4146 33.2362 43.4751 33.1296C43.4989 33.0873 43.5246 33.0414 43.5503 32.9972C43.5723 32.9531 43.5943 32.9072 43.6163 32.8631C43.6713 32.7528 43.7226 32.6498 43.7574 32.5653L43.8436 32.3594L43.9389 32.3998L43.8509 32.6039C43.8179 32.6921 43.7648 32.7969 43.7098 32.909C43.6878 32.9531 43.6639 32.9991 43.6419 33.045C43.6144 33.0928 43.5888 33.1369 43.5649 33.1811C43.5026 33.2895 43.4458 33.3925 43.3889 33.4715L43.2698 33.6553Z" fill="white"/>
<path d="M42.0829 38.829L42.0353 38.2353C42.0334 38.1985 42.0334 38.1636 42.0334 38.1287L42.0316 37.7004C42.0298 37.6287 42.0353 37.557 42.0408 37.4945L42.0554 37.2868C42.0628 37.0754 42.0958 36.8493 42.1269 36.6324C42.1398 36.5551 42.1508 36.4761 42.1618 36.3989C42.1801 36.318 42.1966 36.2408 42.2131 36.1636C42.2589 35.9485 42.3066 35.7261 42.3744 35.5239L42.4349 35.3254C42.4514 35.2665 42.4716 35.1967 42.4991 35.1305L42.6513 34.7316C42.6641 34.6967 42.6769 34.6654 42.6898 34.6342L42.9428 34.0938L43.0363 34.1379L42.7833 34.6765C42.7723 34.704 42.7594 34.7353 42.7484 34.7665L42.5944 35.1673C42.5688 35.2316 42.5486 35.2978 42.5321 35.3529L42.4734 35.5551C42.4056 35.7537 42.3616 35.9632 42.3139 36.1857C42.2956 36.2629 42.2791 36.3401 42.2626 36.4173C42.2516 36.4908 42.2406 36.5699 42.2296 36.6471C42.1966 36.8713 42.1636 37.0846 42.1563 37.2923L42.1416 37.5037C42.1379 37.5625 42.1324 37.6305 42.1343 37.6985L42.1361 38.1287C42.1361 38.1636 42.1361 38.1967 42.1379 38.2279L42.1856 38.8199L42.0829 38.829Z" fill="white"/>
<path d="M34.12 36.8419L34.021 36.8143L34.043 36.7335C34.0503 36.7132 34.0558 36.6857 34.0613 36.6471C34.0705 36.6048 34.0741 36.568 34.0778 36.5313C34.0851 36.4504 34.0815 36.3548 34.065 36.2335C34.0485 36.1287 34.0173 36.0147 33.9715 35.9081C33.9256 35.8015 33.867 35.7004 33.8028 35.6158C33.7276 35.5202 33.6598 35.4522 33.5993 35.4044C33.57 35.3787 33.5406 35.3566 33.5058 35.3327C33.471 35.3088 33.4471 35.296 33.4306 35.2868L33.3555 35.2463L33.4031 35.1562L33.4765 35.1949C33.4985 35.2059 33.5241 35.2206 33.5626 35.2482C33.5993 35.2721 33.6341 35.2978 33.6653 35.3254C33.7295 35.375 33.8028 35.4504 33.8835 35.5515C33.9531 35.6452 34.0173 35.7537 34.0668 35.8676C34.1145 35.9835 34.1493 36.1048 34.1676 36.2188C34.1841 36.3493 34.1878 36.454 34.1786 36.5386C34.1768 36.5772 34.1713 36.6195 34.1621 36.6654C34.1566 36.7077 34.1493 36.739 34.142 36.7647L34.12 36.8419Z" fill="white"/>
<path d="M34.0818 38.9862L33.9844 38.9513L34.0487 38.7748C34.08 38.7031 34.1002 38.6112 34.1204 38.5119C34.1296 38.4697 34.1388 38.4256 34.1498 38.3833C34.1498 38.3483 34.1553 38.3042 34.159 38.2619C34.1682 38.1608 34.1756 38.0653 34.1664 37.9917L34.1572 37.8024L34.2601 37.7969L34.2693 37.9825C34.2803 38.0634 34.2711 38.1645 34.2601 38.2711C34.2564 38.3134 34.2528 38.3557 34.2509 38.398C34.2399 38.4494 34.2307 38.4917 34.2215 38.5322C34.1994 38.6369 34.1792 38.7362 34.1443 38.8134L34.0818 38.9862Z" fill="white"/>
<path d="M34.6183 42.2638L34.5175 42.2491L34.5285 42.1737C34.5303 42.1572 34.5322 42.1388 34.5358 42.1167C34.5432 42.0763 34.5505 42.0322 34.5523 41.9807C34.5707 41.8116 34.5652 41.5947 34.5377 41.3833C34.5047 41.1737 34.4497 40.9642 34.3873 40.8097C34.3708 40.7564 34.3507 40.716 34.3342 40.6792C34.3232 40.659 34.314 40.6406 34.3085 40.6259L34.2773 40.5579L34.3708 40.5156L34.402 40.5836C34.4093 40.6002 34.4167 40.6167 34.4258 40.6351C34.4442 40.6719 34.4662 40.7178 34.4845 40.773C34.5487 40.9329 34.6055 41.1498 34.6403 41.3686C34.6678 41.5892 34.6733 41.8134 34.655 41.9881C34.6532 42.0414 34.644 42.0928 34.6385 42.1333C34.6348 42.1535 34.6312 42.17 34.6293 42.1866L34.6183 42.2638Z" fill="white"/>
<path d="M26.8431 35.4779L26.742 35.4559L26.7548 35.3971C26.7585 35.3842 26.7622 35.3695 26.7659 35.3511C26.7732 35.3217 26.7824 35.2868 26.7879 35.2445C26.8136 35.1121 26.8265 34.9393 26.8228 34.7702C26.8173 34.6029 26.7953 34.4301 26.764 34.3015C26.7548 34.2592 26.7456 34.2224 26.7364 34.193C26.7309 34.1765 26.7254 34.1618 26.7236 34.1471L26.707 34.0919L26.8063 34.0625L26.8228 34.1213C26.8265 34.136 26.8302 34.1489 26.8339 34.1636C26.8449 34.1967 26.8559 34.2353 26.8651 34.2813C26.8964 34.4136 26.9203 34.5919 26.9258 34.7665C26.9295 34.9449 26.9148 35.125 26.889 35.261C26.8835 35.3033 26.8743 35.3437 26.8651 35.3768C26.8614 35.3915 26.8578 35.4063 26.8559 35.4173L26.8431 35.4779Z" fill="white"/>
<path d="M26.4042 36.9205L26.3086 36.8856L26.5292 36.2734L26.6266 36.3084L26.4042 36.9205Z" fill="white"/>
<path d="M25.0716 45.6039L25.0312 45.5083L25.0789 45.4881C25.0991 45.4807 25.1413 45.4605 25.1999 45.42C25.2604 45.3814 25.4108 45.2675 25.5244 45.045C25.6363 44.8318 25.6949 44.5855 25.6913 44.352L25.6931 44.2767C25.6931 44.2325 25.6949 44.1884 25.6949 44.1425L25.6784 43.9347C25.6729 43.841 25.6601 43.7454 25.6473 43.6535C25.6417 43.6039 25.6344 43.5542 25.6289 43.5028L25.6051 43.2638C25.5977 43.1994 25.5904 43.1314 25.5904 43.0653L25.5813 42.6461L25.5868 42.5542C25.6014 42.3134 25.6161 42.0873 25.6436 41.8925C25.6638 41.7086 25.6894 41.5487 25.7059 41.4311L25.7463 41.1719L25.8471 41.1866L25.8086 41.4458C25.7903 41.5689 25.7664 41.7233 25.7463 41.9053C25.7169 42.0983 25.7041 42.3226 25.6894 42.5597L25.6839 42.648L25.6931 43.0634C25.6931 43.1278 25.6986 43.1884 25.7059 43.2528L25.7316 43.4936C25.7371 43.5414 25.7426 43.591 25.7499 43.6406C25.7628 43.7344 25.7737 43.8318 25.7793 43.9274L25.7976 44.1388C25.7976 44.1884 25.7958 44.2344 25.7958 44.2803L25.7939 44.352C25.7976 44.6002 25.7352 44.8649 25.6161 45.0928C25.4914 45.3355 25.3228 45.4642 25.2568 45.5064C25.2072 45.5395 25.1577 45.5671 25.1193 45.5836L25.0716 45.6039Z" fill="white"/>
<path d="M22.7183 38.006L22.6172 38.0005L22.6264 37.8148C22.6282 37.7339 22.6429 37.6347 22.6576 37.5317C22.6631 37.4894 22.6687 37.4472 22.6742 37.4049C22.6852 37.3571 22.6944 37.3148 22.7017 37.2744C22.7238 37.1714 22.7459 37.074 22.7716 36.9968L22.8249 36.8203L22.9242 36.8497L22.8709 37.028C22.8451 37.1016 22.8249 37.1953 22.8028 37.2964C22.7937 37.3369 22.7845 37.3791 22.7753 37.4214C22.7716 37.46 22.7642 37.5041 22.7587 37.5464C22.744 37.6457 22.7312 37.7413 22.7293 37.8185L22.7183 38.006Z" fill="white"/>
<path d="M22.7739 40.4789L22.7188 38.8318L22.8217 38.8281L22.8768 40.477L22.7739 40.4789Z" fill="white"/>
<path d="M21.7621 39.7206L21.6613 39.7169L21.6631 39.6287C21.6631 39.6103 21.665 39.5882 21.6668 39.5625C21.6686 39.5147 21.6723 39.4614 21.6686 39.4007C21.6686 39.204 21.6393 38.9522 21.5898 38.7077C21.533 38.4687 21.4523 38.2279 21.3716 38.0515C21.3478 37.9926 21.324 37.9449 21.302 37.9026C21.2891 37.8805 21.2781 37.8603 21.2708 37.8419L21.2305 37.7665L21.3221 37.7188L21.3625 37.7978C21.3698 37.8162 21.3808 37.8346 21.3918 37.8548C21.4138 37.8971 21.4413 37.9485 21.467 38.011C21.5495 38.1912 21.6301 38.4375 21.6888 38.6857C21.7401 38.9375 21.7713 39.1967 21.7713 39.3989C21.775 39.4614 21.7713 39.5202 21.7695 39.568C21.7676 39.5919 21.7658 39.6121 21.7658 39.6305L21.7621 39.7206Z" fill="white"/>
<path d="M18.9583 43.8015L18.8611 43.7702L18.8941 43.6636C18.9051 43.6305 18.9124 43.5882 18.9198 43.546L18.9344 43.4669L18.9381 43.386C18.9546 43.182 18.9161 42.9063 18.8171 42.5184C18.7309 42.1765 18.6558 41.8732 18.6411 41.6324C18.6374 41.5772 18.6356 41.5221 18.6374 41.4614C18.6356 41.4173 18.6374 41.3676 18.6429 41.3272L18.6539 41.2188L18.7566 41.2298L18.7438 41.3401C18.7401 41.3768 18.7383 41.4228 18.7401 41.4614C18.7383 41.5202 18.7383 41.5717 18.7438 41.6232C18.7584 41.8585 18.8318 42.1563 18.9179 42.4926C19.0188 42.8934 19.0573 43.1783 19.0408 43.3934L19.0316 43.4982L19.0206 43.5625C19.0133 43.6103 19.0059 43.6581 18.9913 43.6967L18.9583 43.8015Z" fill="white"/>
<path d="M19.3022 45.562L18.8164 44.5694L18.9099 44.5234L19.3939 45.5179L19.3022 45.562Z" fill="white"/>
<path d="M29.0253 47.0951L28.9336 47.0492L29.0986 46.7201C29.1059 46.6999 29.1133 46.6815 29.1206 46.6613L29.2123 46.4095C29.2324 46.3617 29.2434 46.312 29.2563 46.2587C29.2618 46.2275 29.2691 46.1962 29.2783 46.165C29.3149 46.04 29.3314 45.9076 29.3498 45.7679C29.3553 45.7183 29.3626 45.6687 29.3699 45.6209C29.3699 45.5786 29.3718 45.5271 29.3736 45.4775C29.3773 45.3378 29.3809 45.2036 29.3644 45.0767C29.3608 45.0437 29.3589 45.0106 29.3553 44.9793C29.3516 44.9242 29.3479 44.8727 29.3369 44.8267L29.2856 44.562C29.2819 44.54 29.2783 44.5198 29.2728 44.4995L29.1609 44.1466L29.2581 44.1172L29.3718 44.472C29.3773 44.4959 29.3828 44.5179 29.3864 44.5418L29.4378 44.8047C29.4506 44.858 29.4543 44.9168 29.4579 44.972C29.4598 45.0032 29.4616 45.0326 29.4653 45.0639C29.4836 45.1981 29.4799 45.3433 29.4763 45.4812C29.4744 45.5308 29.4726 45.5786 29.4726 45.6282C29.4634 45.6834 29.4579 45.733 29.4524 45.7808C29.4341 45.9187 29.4158 46.062 29.3773 46.1926C29.3699 46.222 29.3626 46.2514 29.3553 46.2808C29.3424 46.3359 29.3296 46.3929 29.3094 46.4462L29.2178 46.6962C29.2104 46.7165 29.2013 46.7385 29.1939 46.7587L29.0253 47.0951Z" fill="white"/>
<path d="M30.3823 46.6912L30.2852 46.6599L30.8718 44.8438L30.969 44.875L30.3823 46.6912Z" fill="white"/>
<path d="M45.0483 34.2316L44.9453 34.2298L44.949 34.0386C44.9453 33.9559 44.9619 33.8548 44.9784 33.7482C44.9839 33.7059 44.9913 33.6618 44.9968 33.6176C45.0097 33.568 45.0225 33.5257 45.0335 33.4853C45.0611 33.3805 45.0887 33.2812 45.1273 33.204L45.2008 33.0312L45.2946 33.0717L45.221 33.2482C45.1843 33.318 45.1585 33.4118 45.1328 33.511C45.1218 33.5533 45.1089 33.5974 45.096 33.6397C45.0924 33.6765 45.0869 33.7206 45.0795 33.7629C45.063 33.8658 45.0483 33.9614 45.0519 34.0368L45.0483 34.2316Z" fill="white"/>
<path d="M28.562 35.5506L28.4462 34.852L28.3047 34.1608L28.4058 34.1406L28.5473 34.8336L28.665 35.534L28.562 35.5506Z" fill="white"/>
<path d="M29.689 29.0175L29.5332 28.9421C29.4653 28.9127 29.3865 28.8612 29.304 28.8079C29.2728 28.7877 29.238 28.7656 29.205 28.7454C29.1683 28.716 29.1372 28.6903 29.106 28.6664C29.029 28.6057 28.9575 28.5487 28.9062 28.4899L28.7852 28.3704L28.8585 28.2969L28.9795 28.4182C29.0272 28.4733 29.0968 28.5267 29.1702 28.5855C29.2013 28.6112 29.2343 28.6351 29.2655 28.6608C29.293 28.6774 29.3278 28.7013 29.3608 28.7215C29.4397 28.773 29.513 28.8208 29.5772 28.8483L29.733 28.9256L29.689 29.0175Z" fill="white"/>
<path d="M29.7084 29.0133H29.6055V28.2578H29.7084V29.0133Z" fill="white"/>
<path d="M29.8961 29.0956L29.8008 29.0551L29.8393 28.9688C29.8521 28.9283 29.8814 28.8842 29.9108 28.8364C29.9236 28.8199 29.9346 28.8015 29.9456 28.7831L29.9529 28.7739C29.9676 28.7592 29.9804 28.7426 29.9933 28.7279C30.0318 28.6857 30.0666 28.6452 30.1051 28.6195L30.1748 28.5625L30.2389 28.6415L30.1656 28.7022C30.1344 28.7224 30.1033 28.7574 30.0721 28.796C30.0574 28.8107 30.0446 28.8254 30.0318 28.8419C30.0189 28.8585 30.0098 28.8768 29.9969 28.8934C29.9713 28.9338 29.9456 28.9724 29.9346 29.0055L29.8961 29.0956Z" fill="white"/>
<path d="M29.4171 30.5671L28.7461 30.0009L28.8121 29.9219L29.4831 30.4881L29.4171 30.5671Z" fill="white"/>
<path d="M29.2205 31.0533L29.0573 30.9761C28.9895 30.9412 28.9015 30.9099 28.8098 30.875C28.7713 30.8621 28.731 30.8474 28.6925 30.8309C28.6558 30.8217 28.6155 30.8107 28.5751 30.7978C28.4816 30.7702 28.3918 30.7445 28.3203 30.7316L28.1406 30.6949L28.1626 30.5938L28.3386 30.6305C28.4156 30.6434 28.5073 30.671 28.6045 30.6985C28.643 30.7114 28.6833 30.7224 28.7236 30.7335C28.7676 30.75 28.8061 30.7647 28.8446 30.7794C28.94 30.8143 29.0316 30.8474 29.1013 30.8842L29.2626 30.9596L29.2205 31.0533Z" fill="white"/>
<path d="M27.8367 31.9465L27.7891 31.8546L27.8312 31.8344C27.8404 31.8289 27.8496 31.8234 27.8606 31.8197C27.8826 31.8068 27.9119 31.7921 27.9467 31.7792C28.0402 31.7388 28.1759 31.7057 28.3097 31.691C28.4491 31.6818 28.5866 31.691 28.6911 31.7149C28.7222 31.7186 28.7534 31.7296 28.7772 31.737C28.7882 31.7406 28.7992 31.7443 28.8066 31.7462L28.8542 31.759L28.8249 31.8583L28.7809 31.8454C28.7717 31.8436 28.7607 31.8399 28.7461 31.8344C28.7241 31.8289 28.7002 31.8197 28.6709 31.816C28.5737 31.7939 28.4436 31.7848 28.3189 31.7939C28.1979 31.8068 28.0714 31.8381 27.9834 31.8767C27.9522 31.8859 27.9284 31.8987 27.9082 31.9098C27.8954 31.9171 27.8844 31.9226 27.8752 31.9263L27.8367 31.9465Z" fill="white"/>
<path d="M35.2222 29.0597C35.2112 29.0597 35.2002 29.0597 35.1873 29.0579C35.0993 29.0579 34.9783 29.0267 34.8683 28.9733C34.7583 28.9127 34.663 28.8318 34.6062 28.7546C34.586 28.7344 34.5732 28.7068 34.5622 28.6884C34.5567 28.6792 34.553 28.6737 34.5493 28.6682L34.5273 28.6296L34.6153 28.5781L34.6355 28.6112C34.6392 28.6167 34.6447 28.6259 34.652 28.6388C34.6612 28.6553 34.6703 28.6737 34.685 28.6903C34.7363 28.7601 34.8207 28.83 34.9142 28.8814C35.0095 28.9274 35.114 28.955 35.1947 28.955C35.2222 28.9586 35.2423 28.9568 35.2625 28.9531C35.2753 28.9531 35.2882 28.9513 35.2992 28.9513L35.334 28.9476L35.3432 29.0487L35.3028 29.0542C35.2918 29.0542 35.2827 29.0542 35.2753 29.0561C35.2607 29.0579 35.2423 29.0597 35.2222 29.0597Z" fill="white"/>
<path d="M35.3974 29.1392C35.3699 29.1356 35.3259 29.1301 35.2691 29.1135C35.1884 29.0896 35.0931 29.0253 35.0179 28.9426C34.9446 28.8525 34.8969 28.7495 34.8859 28.665C34.8767 28.6062 34.8786 28.562 34.8804 28.54C34.8804 28.5345 34.8804 28.5547 34.8969 28.5694L34.9666 28.4922C34.9849 28.5087 34.9831 28.529 34.9831 28.5455C34.9812 28.5639 34.9812 28.6006 34.9886 28.6503C34.9959 28.7165 35.0381 28.8028 35.0949 28.8764C35.1554 28.9407 35.2342 28.9959 35.2984 29.0142C35.3461 29.029 35.3846 29.0345 35.4029 29.0363C35.4176 29.0381 35.4377 29.04 35.4506 29.0602L35.3662 29.1172L35.4084 29.0896L35.3974 29.1392Z" fill="white"/>
<path d="M33.0458 29.6705L32.9102 29.5639C32.8497 29.5179 32.78 29.4573 32.7067 29.3911C32.6755 29.3653 32.6462 29.3378 32.615 29.312C32.5838 29.2808 32.5545 29.2532 32.527 29.2256C32.4573 29.1576 32.3895 29.0915 32.34 29.0345L32.2227 28.9058L32.2978 28.8359L32.417 28.9646C32.4647 29.0216 32.5288 29.0841 32.5985 29.1521C32.6278 29.1797 32.6572 29.2073 32.6847 29.2367C32.714 29.2606 32.7452 29.2881 32.7745 29.3139C32.846 29.3782 32.9138 29.4389 32.9707 29.4812L33.11 29.5896L33.0458 29.6705Z" fill="white"/>
<path d="M33.0991 29.654L33.0844 29.6245C33.0808 29.6172 33.0771 29.6098 33.0734 29.6043C33.0624 29.5859 33.0513 29.5639 33.0421 29.54C33.0091 29.4701 32.9796 29.3727 32.9613 29.2734C32.9447 29.1723 32.941 29.0694 32.9502 28.9903C32.9502 28.9665 32.9539 28.9426 32.9576 28.9242C32.9594 28.915 32.9594 28.9095 32.9613 28.9021L32.9668 28.8672L33.0679 28.8819L33.0624 28.915C33.0624 28.9223 33.0605 28.9315 33.0587 28.9407C33.0569 28.9573 33.0532 28.9756 33.0532 28.9977C33.044 29.0712 33.0495 29.1668 33.0624 29.2569C33.0789 29.3433 33.1065 29.4352 33.1359 29.4995C33.1451 29.5234 33.1543 29.54 33.1635 29.5528C33.1671 29.562 33.1727 29.5712 33.1763 29.5786L33.191 29.6062L33.0991 29.654Z" fill="white"/>
<path d="M40.4626 28.4366L40.4259 28.4274C40.4168 28.4237 40.4076 28.4219 40.4003 28.42C40.3783 28.4145 40.3526 28.409 40.3251 28.3943C40.2463 28.3667 40.1473 28.3097 40.0611 28.2381C39.9749 28.1608 39.9016 28.0726 39.8613 27.9936C39.8448 27.9715 39.8338 27.9476 39.8264 27.9274C39.8228 27.9182 39.8209 27.9127 39.8173 27.9053L39.8008 27.8686L39.8943 27.8281L39.9108 27.8612C39.9126 27.8667 39.9163 27.8759 39.9218 27.8869C39.9291 27.9053 39.9364 27.9237 39.9474 27.9403C39.9878 28.0138 40.0538 28.0928 40.1271 28.159C40.2023 28.2215 40.2921 28.2748 40.3636 28.3006C40.3874 28.3116 40.4058 28.3153 40.4241 28.3208C40.4369 28.3226 40.4461 28.3263 40.4553 28.3281L40.4883 28.3373L40.4626 28.4366Z" fill="white"/>
<path d="M40.6477 28.4081L40.5469 28.386L40.5524 28.3566C40.556 28.3493 40.556 28.3437 40.5579 28.3364C40.5615 28.3199 40.5652 28.2996 40.5744 28.2776C40.5909 28.2132 40.6294 28.1342 40.6752 28.0607C40.7265 27.9871 40.787 27.921 40.8402 27.8768C40.8549 27.8621 40.8732 27.8511 40.886 27.8401C40.8934 27.8382 40.897 27.8346 40.9007 27.8309L40.9264 27.8125L40.9869 27.8971L40.963 27.9136C40.9594 27.9154 40.952 27.921 40.9447 27.9265C40.9337 27.9338 40.9209 27.9412 40.908 27.954C40.8585 27.9945 40.8054 28.0533 40.7614 28.1158C40.721 28.1801 40.688 28.2518 40.6715 28.3088C40.6642 28.329 40.6605 28.3437 40.6587 28.3566C40.6569 28.3658 40.655 28.375 40.6532 28.3824L40.6477 28.4081Z" fill="white"/>
<path d="M45.9688 28.9678L45.9102 28.8833L46.3942 28.5469L46.4528 28.6314L45.9688 28.9678Z" fill="white"/>
<path d="M45.8809 29.1397C45.8442 29.1397 45.8075 29.1379 45.7764 29.1324L45.6719 29.1213L45.6829 29.0184L45.791 29.0312C45.835 29.0386 45.89 29.0368 45.9487 29.0349C45.9725 29.0349 46 29.0312 46.0239 29.0349C46.0422 29.0312 46.0679 29.0276 46.0917 29.0239C46.1485 29.0165 46.2035 29.011 46.2439 28.9963L46.352 28.9688L46.3777 29.068L46.2732 29.0956C46.2274 29.1121 46.1669 29.1195 46.1045 29.1268C46.0807 29.1305 46.0569 29.1324 46.0312 29.136C46 29.1379 45.9744 29.1379 45.9505 29.1379C45.9267 29.1397 45.9047 29.1397 45.8809 29.1397Z" fill="white"/>
<path d="M46.0046 28.8378L45.9111 28.7863C45.8726 28.7642 45.8231 28.7422 45.7699 28.7201C45.7479 28.7109 45.7259 28.6999 45.7021 28.6889C45.6837 28.6834 45.6617 28.676 45.6379 28.6668C45.5847 28.6466 45.5334 28.6282 45.4912 28.6209L45.3867 28.5915L45.4142 28.4922L45.5169 28.5198C45.5609 28.5308 45.6159 28.5492 45.6727 28.5694C45.6947 28.5786 45.7186 28.5859 45.7406 28.5933C45.7681 28.6062 45.7901 28.6153 45.8121 28.6245C45.8671 28.6503 45.9202 28.6723 45.9606 28.6981L46.0522 28.7459L46.0046 28.8378Z" fill="white"/>
<path d="M42.7042 30.0423L42.6016 30.0294L42.6052 29.9963C42.6071 29.9871 42.6071 29.9798 42.6089 29.9724C42.6107 29.9522 42.6144 29.9265 42.6199 29.9007C42.6346 29.8254 42.6676 29.7261 42.7134 29.6342C42.7629 29.5423 42.8234 29.4577 42.8802 29.3989C42.8949 29.3824 42.9151 29.3658 42.9297 29.3511C42.9352 29.3474 42.9407 29.3419 42.9462 29.3382L42.9719 29.3125L43.0416 29.3897L43.0159 29.4118C43.0122 29.4154 43.0049 29.4228 42.9976 29.4301C42.9847 29.4412 42.9701 29.4522 42.9572 29.4688C42.9041 29.5221 42.8491 29.6011 42.8051 29.682C42.7647 29.7629 42.7336 29.8529 42.7207 29.9228C42.7134 29.9485 42.7134 29.9669 42.7116 29.9816C42.7097 29.9926 42.7097 30.0037 42.7079 30.011L42.7042 30.0423Z" fill="white"/>
<path d="M43.1769 29.9366L43.1291 29.8814C43.1052 29.8594 43.0832 29.8244 43.0611 29.7858C43.0519 29.773 43.0427 29.7583 43.0335 29.7454C43.0225 29.7215 43.017 29.7068 43.0097 29.6921C42.9913 29.6535 42.9729 29.6149 42.9655 29.5781L42.9453 29.5119L43.0446 29.4844L43.0648 29.5542C43.0722 29.5818 43.0869 29.6149 43.1016 29.6498C43.1108 29.6645 43.1163 29.6811 43.1236 29.6958C43.1291 29.7031 43.1383 29.7178 43.1475 29.7325C43.1677 29.7638 43.1861 29.795 43.2045 29.8116L43.2541 29.8704L43.1769 29.9366Z" fill="white"/>
<path d="M44.8259 30.3667L44.7617 30.2858L45.4437 29.7344L45.5079 29.8134L44.8259 30.3667Z" fill="white"/>
<path d="M37.6464 31.2514L37.4979 31.1852C37.4301 31.1613 37.3568 31.1135 37.2779 31.062C37.2486 31.0418 37.2156 31.0216 37.1844 31.0014C37.1496 30.9701 37.1203 30.9462 37.0928 30.9223C37.0213 30.8617 36.9553 30.8028 36.9113 30.7422L36.8086 30.6209L36.8856 30.5547L36.9919 30.6778C37.0304 30.733 37.0928 30.7863 37.1588 30.8433C37.1881 30.869 37.2174 30.8929 37.2449 30.9187C37.2706 30.9334 37.3036 30.9554 37.3348 30.9756C37.4081 31.0234 37.4759 31.0694 37.5364 31.0896L37.6886 31.1576L37.6464 31.2514Z" fill="white"/>
<path d="M38.0905 31.2114L38.0501 31.1765C38.0355 31.1673 38.019 31.1507 38.0006 31.1324C37.9823 31.1158 37.9621 31.0937 37.9438 31.068C37.8558 30.9669 37.7861 30.8143 37.7568 30.6654C37.7256 30.5147 37.7348 30.3474 37.777 30.2169C37.7843 30.1893 37.7953 30.1618 37.8045 30.1379C37.8136 30.114 37.8246 30.0937 37.8338 30.0772L37.8576 30.0312L37.9475 30.0809L37.9236 30.1268C37.9145 30.1434 37.9071 30.1581 37.8998 30.1783C37.8906 30.1985 37.8815 30.2206 37.876 30.2463C37.8375 30.3621 37.8301 30.5129 37.8576 30.6452C37.8833 30.7757 37.9475 30.9136 38.0226 31.0037C38.041 31.0276 38.0575 31.0441 38.0721 31.0588C38.0886 31.0754 38.1015 31.0882 38.1125 31.0956L38.1546 31.1305L38.0905 31.2114Z" fill="white"/>
<path d="M38.6116 31.2114L38.5785 31.2022C38.5675 31.2004 38.5509 31.1949 38.5325 31.1857C38.5142 31.1783 38.4958 31.1691 38.4792 31.1562C38.4057 31.1121 38.3377 31.0184 38.3046 30.9154C38.2752 30.8125 38.2789 30.6967 38.3175 30.614C38.323 30.5974 38.3322 30.5809 38.345 30.5607C38.3542 30.546 38.3634 30.5331 38.3745 30.5221L38.3947 30.5L38.4719 30.568L38.4498 30.5938C38.4443 30.5974 38.4406 30.6029 38.4333 30.6158C38.4223 30.6305 38.4167 30.6415 38.4131 30.6526C38.3836 30.7151 38.38 30.807 38.4039 30.886C38.4278 30.9632 38.4811 31.0368 38.5381 31.0717C38.5509 31.0809 38.5601 31.0864 38.573 31.0919C38.5914 31.0993 38.5969 31.1011 38.6006 31.1011L38.6373 31.1121L38.6116 31.2114Z" fill="white"/>
<path d="M34.5149 32.1006L33.457 31.6172L33.4992 31.5234L34.557 32.0069L34.5149 32.1006Z" fill="white"/>
<path d="M34.5034 31.8171C34.4869 31.8171 34.4685 31.8171 34.4502 31.8134C34.3585 31.8024 34.254 31.7344 34.1862 31.6406C34.1184 31.5487 34.0854 31.4274 34.1019 31.3355C34.1129 31.2656 34.1422 31.2197 34.1532 31.2031L34.1954 31.227L34.2467 31.2068L34.2394 31.2601C34.232 31.2711 34.2119 31.3024 34.2045 31.352C34.1917 31.42 34.2174 31.5101 34.2687 31.58C34.32 31.6498 34.3989 31.7031 34.4649 31.7123C34.5162 31.7197 34.551 31.7105 34.5657 31.7068L34.5895 31.6994L34.617 31.7142L34.5529 31.795L34.5859 31.7546L34.595 31.8042C34.5785 31.8097 34.5474 31.8171 34.5034 31.8171Z" fill="white"/>
<path d="M34.6273 32.125L34.543 32.0643L34.6236 31.9522C34.6548 31.9026 34.7043 31.8474 34.7593 31.7886C34.7795 31.7665 34.8015 31.7426 34.8216 31.7188C34.851 31.693 34.8748 31.671 34.8986 31.6507C34.9555 31.5974 35.0105 31.5478 35.0655 31.5147L35.1755 31.4375L35.2341 31.5221L35.1223 31.6011C35.0728 31.6305 35.0215 31.6783 34.9665 31.7279C34.9426 31.7482 34.9188 31.7702 34.8931 31.7923C34.8785 31.8107 34.8565 31.8346 34.8345 31.8585C34.785 31.9136 34.7373 31.9651 34.708 32.011L34.6273 32.125Z" fill="white"/>
<path d="M31.158 33.739C31.1396 33.739 31.1195 33.739 31.0956 33.7353C31.0626 33.7335 31.0296 33.7279 30.9985 33.7206C30.938 33.7114 30.8628 33.6875 30.7711 33.6489C30.6923 33.6103 30.6116 33.5607 30.5383 33.5018C30.465 33.4393 30.399 33.3713 30.3476 33.2996C30.2908 33.2169 30.2541 33.1489 30.2303 33.0882C30.2193 33.0607 30.2083 33.0312 30.1991 32.9963C30.19 32.9687 30.1826 32.943 30.1808 32.921L30.168 32.8621L30.2706 32.8438L30.2816 32.9044C30.2835 32.9246 30.2908 32.9449 30.2963 32.9669C30.3055 32.9982 30.3146 33.0239 30.3256 33.0478C30.3458 33.1048 30.3806 33.1673 30.432 33.2408C30.4778 33.3033 30.5383 33.3658 30.6025 33.421C30.6685 33.4743 30.7418 33.5202 30.8133 33.5551C30.8958 33.5901 30.9618 33.6121 31.0186 33.6195C31.0461 33.6268 31.0736 33.6305 31.1048 33.6324C31.1305 33.636 31.1506 33.6379 31.1671 33.636H31.2313L31.2331 33.739H31.1708C31.1671 33.739 31.1616 33.739 31.158 33.739Z" fill="white"/>
<path d="M31.0173 33.6296L30.9971 33.523C30.9842 33.477 30.9787 33.4182 30.9732 33.3557C30.9714 33.3318 30.9677 33.3061 30.9659 33.2822C30.9659 33.2509 30.9659 33.2252 30.9659 33.1994C30.964 33.1369 30.964 33.0781 30.9714 33.0285L30.9806 32.9219L31.0835 32.9329L31.0725 33.0414C31.067 33.0855 31.067 33.1406 31.0688 33.1994C31.0688 33.2252 31.0688 33.2509 31.0688 33.2767C31.0706 33.295 31.0725 33.3208 31.0762 33.3465C31.0817 33.4035 31.0853 33.4586 31.0964 33.5009L31.1184 33.6094L31.0173 33.6296Z" fill="white"/>
<path d="M38.1126 28.7188L37.3555 28.2426L37.4086 28.1562L38.1658 28.6305L38.1126 28.7188Z" fill="white"/>
<path d="M37.9646 28.6448L37.9462 28.6245C37.9407 28.619 37.9389 28.6153 37.9352 28.6117C37.9223 28.6006 37.9076 28.5859 37.8948 28.5602C37.858 28.5142 37.8268 28.4334 37.8139 28.3488C37.8084 28.2606 37.8194 28.1742 37.8451 28.1135C37.8507 28.0933 37.8635 28.0749 37.8709 28.0602C37.8745 28.0565 37.8764 28.0528 37.8782 28.051L37.8929 28.0234L37.983 28.0749L37.9701 28.097C37.9683 28.1006 37.9628 28.108 37.9573 28.1172C37.9518 28.1264 37.9462 28.1356 37.9426 28.1466C37.9205 28.1999 37.9113 28.2698 37.9168 28.3378C37.926 28.4003 37.9518 28.4665 37.9812 28.5051C37.9904 28.5216 37.9977 28.5308 38.0069 28.5381C38.0143 28.5455 38.0198 28.5528 38.0253 28.5584L38.04 28.5731L37.9646 28.6448Z" fill="white"/>
<path d="M42.1779 31.136C42.1522 31.136 42.1265 31.1342 42.1009 31.1305C42.0404 31.125 41.9652 31.1029 41.8772 31.0643C41.7984 31.0276 41.7214 30.9761 41.6517 30.9136C41.5839 30.8474 41.5252 30.7739 41.483 30.7022C41.4372 30.614 41.4097 30.5404 41.3987 30.4779C41.3914 30.4504 41.3859 30.4191 41.3859 30.3824C41.3822 30.3511 41.3822 30.3272 41.384 30.3051L41.3877 30.25L41.4904 30.2555L41.4867 30.3162C41.4848 30.3309 41.4849 30.3493 41.4885 30.375C41.4885 30.4063 41.4922 30.432 41.4995 30.4559C41.5087 30.5129 41.5325 30.5754 41.5729 30.6507C41.6095 30.7151 41.6608 30.7794 41.7214 30.8382C41.7819 30.8915 41.8515 30.9375 41.9194 30.9706C41.9964 31.0037 42.0605 31.0221 42.1137 31.0276C42.143 31.0331 42.1687 31.0349 42.1962 31.0331C42.2237 31.0331 42.242 31.0331 42.2549 31.0312L42.3172 31.0221L42.3319 31.1232L42.2732 31.1324C42.2549 31.136 42.2292 31.136 42.1962 31.136C42.1907 31.136 42.1852 31.136 42.1779 31.136Z" fill="white"/>
<path d="M42.0934 31.0455L42.064 31.029C42.0511 31.0234 42.0345 31.0142 42.018 30.9977C41.9794 30.9701 41.9353 30.9168 41.9022 30.8562C41.8709 30.79 41.8544 30.722 41.8562 30.6668C41.8544 30.6521 41.8562 30.6319 41.8581 30.6209L41.8636 30.5859L41.9647 30.5988L41.9628 30.619C41.9628 30.6209 41.961 30.6282 41.961 30.6374C41.9592 30.6448 41.9573 30.654 41.9592 30.6631C41.9592 30.7073 41.972 30.7624 41.9941 30.8102C42.018 30.8525 42.0529 30.8966 42.0842 30.9187C42.0952 30.9297 42.1026 30.9334 42.1099 30.937C42.1173 30.9407 42.1246 30.9444 42.1301 30.9481L42.1448 30.9573L42.0934 31.0455Z" fill="white"/>
<path d="M36.3888 22.9623L36.1523 20.3888L36.4585 20.3594L36.6968 22.9347L36.3888 22.9623Z" fill="white"/>
<path d="M35.9783 18.483L35.4961 13.2698L35.8041 13.2422L36.2844 18.4536L35.9783 18.483Z" fill="white"/>
<path d="M33.3353 21.46L33.0273 21.4398L33.3335 16.7578L33.6415 16.778L33.3353 21.46Z" fill="white"/>
<path d="M33.7398 15.2353L33.4336 15.2151L33.5619 13.25L33.8681 13.2702L33.7398 15.2353Z" fill="white"/>
<path d="M65.3411 11.8359C66.0781 11.8359 66.8041 11.9885 67.5191 12.2918C68.2322 12.597 68.8391 13.0032 69.3377 13.5124L67.8784 15.2477C67.5594 14.8506 67.1762 14.5381 66.7271 14.3065C66.2761 14.0712 65.8287 13.9536 65.3851 13.9536C64.6022 13.9536 63.9441 14.2312 63.4124 14.7845C62.8844 15.3396 62.6204 16.0253 62.6204 16.8433C62.6204 17.6778 62.8844 18.3727 63.4124 18.9315C63.9441 19.4903 64.6022 19.7698 65.3851 19.7698C65.7994 19.7698 66.2321 19.6668 66.6831 19.4609C67.1322 19.2514 67.5301 18.9646 67.8784 18.6006L69.3524 20.1668C68.8134 20.7165 68.1791 21.1576 67.4457 21.4903C66.7161 21.8194 65.9882 21.983 65.2604 21.983C63.7644 21.983 62.5196 21.4959 61.5277 20.5198C60.5341 19.5455 60.0391 18.3286 60.0391 16.8727C60.0391 15.4426 60.5451 14.2459 61.5571 13.2845C62.5691 12.3194 63.8304 11.8359 65.3411 11.8359Z" fill="white"/>
<path d="M75.2083 11.8359C76.7483 11.8359 78.028 12.3194 79.051 13.2845C80.0722 14.2459 80.5837 15.4462 80.5837 16.8874C80.5837 18.3341 80.0703 19.5455 79.0437 20.5198C78.017 21.4959 76.7373 21.983 75.2083 21.983C73.6775 21.983 72.4015 21.4977 71.3803 20.5271C70.3573 19.5565 69.8477 18.3433 69.8477 16.8874C69.8477 15.437 70.3573 14.233 71.3803 13.2771C72.4015 12.3176 73.6775 11.8359 75.2083 11.8359ZM75.2377 13.9536C74.4603 13.9536 73.7967 14.2367 73.2503 14.7992C72.7022 15.3635 72.429 16.0639 72.429 16.9021C72.429 17.7367 72.704 18.4389 73.2577 19.0124C73.8095 19.5823 74.4695 19.8653 75.2377 19.8653C76.004 19.8653 76.6548 19.5823 77.1883 19.0124C77.72 18.4389 77.9877 17.7367 77.9877 16.9021C77.9877 16.0639 77.72 15.3635 77.1883 14.7992C76.6548 14.2367 76.004 13.9536 75.2377 13.9536Z" fill="white"/>
<path d="M91.0656 21.8704H88.8436L84.2749 15.7454V21.8704H81.9062V11.9219H84.1356L88.7116 18.0616V11.9219H91.0656V21.8704Z" fill="white"/>
<path d="M100.626 13.9504H97.6416V21.8695H95.1189V13.9504H92.1562V11.9062H100.626V13.9504Z" fill="white"/>
<path d="M107.687 21.8704L106.213 19.0689H104.226V21.8704H101.703V11.9219H106.14C107.454 11.9219 108.472 12.2233 109.19 12.8263C109.909 13.4256 110.268 14.2803 110.268 15.3925C110.268 16.9274 109.667 17.9917 108.464 18.5836L110.554 21.8704H107.687ZM104.226 17.0836H106.14C106.686 17.0836 107.111 16.9476 107.416 16.6719C107.718 16.3925 107.87 15.9936 107.87 15.4733C107.87 14.9642 107.718 14.5763 107.416 14.3116C107.111 14.0469 106.686 13.9145 106.14 13.9145H104.226V17.0836Z" fill="white"/>
<path d="M118.554 20.0395H114.22L113.494 21.8704H110.898L115.181 11.9219H117.777L121.957 21.8704H119.266L118.554 20.0395ZM117.821 18.1204L116.398 14.4366L114.954 18.1204H117.821Z" fill="white"/>
<path d="M133.78 21.8695H131.55L131.536 15.3989L129.16 20.8768H127.51L125.134 15.3989V21.8695H122.875V11.9062H125.64L128.338 17.8327L131.03 11.9062H133.78V21.8695Z" fill="white"/>
<path d="M138.292 21.8704H135.77V11.9219H138.292V21.8704Z" fill="white"/>
<path d="M149.437 21.8704H147.215L142.646 15.7454V21.8704H140.277V11.9219H142.507L147.083 18.0616V11.9219H149.437V21.8704Z" fill="white"/>
<path d="M151.414 11.9219H155.682C157.24 11.9219 158.509 12.3833 159.488 13.3042C160.465 14.2215 160.955 15.4182 160.955 16.8925C160.955 18.3631 160.458 19.5616 159.466 20.4881C158.472 21.4108 157.18 21.8704 155.587 21.8704H151.414V11.9219ZM153.937 13.9366V19.8557H155.741C156.513 19.8557 157.145 19.5836 157.64 19.0395C158.139 18.4917 158.388 17.7822 158.388 16.9145C158.388 16.0432 158.128 15.33 157.611 14.7748C157.092 14.216 156.43 13.9366 155.623 13.9366H153.937Z" fill="white"/>
<path d="M166.096 11.8047C167.581 11.8047 168.887 12.176 170.012 12.915L169.059 14.8929C168.54 14.5896 167.983 14.3415 167.387 14.1503C166.789 13.9554 166.289 13.8562 165.884 13.8562C165.154 13.8562 164.791 14.097 164.791 14.5767C164.791 14.8911 164.969 15.1429 165.326 15.3341C165.688 15.5216 166.126 15.6852 166.639 15.8267C167.156 15.9646 167.673 16.1319 168.186 16.3267C168.703 16.5179 169.142 16.8323 169.499 17.2679C169.86 17.7054 170.042 18.2532 170.042 18.915C170.042 19.8709 169.668 20.619 168.92 21.1576C168.172 21.6926 167.22 21.9591 166.067 21.9591C165.246 21.9591 164.434 21.8176 163.632 21.5326C162.829 21.2495 162.131 20.8598 161.535 20.3635L162.51 18.415C163.013 18.8525 163.605 19.2091 164.285 19.4885C164.963 19.7679 165.568 19.9076 166.096 19.9076C166.502 19.9076 166.817 19.8341 167.042 19.687C167.272 19.54 167.387 19.3249 167.387 19.04C167.387 18.7661 167.257 18.5381 166.998 18.3562C166.738 18.1705 166.414 18.0326 166.023 17.9444C165.636 17.8525 165.216 17.7293 164.762 17.5767C164.311 17.426 163.891 17.2606 163.5 17.0841C163.114 16.904 162.791 16.6172 162.532 16.2238C162.272 15.8267 162.144 15.3543 162.144 14.8047C162.144 13.8984 162.505 13.1723 163.229 12.6282C163.951 12.0804 164.908 11.8047 166.096 11.8047Z" fill="white"/>
<path d="M63.2141 34.6434H67.4234V36.761H60.6914V26.8125H63.2141V34.6434Z" fill="white"/>
<path d="M75.2224 34.9301H70.8884L70.1624 36.761H67.5664L71.8491 26.8125H74.4451L78.6251 36.761H75.9337L75.2224 34.9301ZM74.4891 33.011L73.0664 29.3272L71.6217 33.011H74.4891Z" fill="white"/>
<path d="M79.5391 26.8125H84.2324C85.3471 26.8125 86.2307 27.0386 86.8871 27.489C87.5471 27.9412 87.8771 28.5441 87.8771 29.2978C87.8771 29.818 87.7249 30.2757 87.4224 30.6728C87.1181 31.0662 86.7037 31.3382 86.1757 31.489C86.8009 31.6121 87.2977 31.9007 87.6644 32.3566C88.0311 32.8125 88.2144 33.3621 88.2144 34.0037C88.2144 34.8474 87.8716 35.5184 87.1877 36.0184C86.5021 36.5147 85.5744 36.761 84.4011 36.761H79.5391V26.8125ZM82.0471 28.7463V30.7904H84.0931C84.4597 30.7904 84.7494 30.7004 84.9657 30.5184C85.1857 30.3327 85.2957 30.0772 85.2957 29.7537C85.2957 29.4412 85.1857 29.1949 84.9657 29.0184C84.7494 28.8382 84.4597 28.7463 84.0931 28.7463H82.0471ZM82.0471 32.614V34.8125H84.0931C84.5624 34.8125 84.9309 34.7151 85.2004 34.5184C85.4736 34.318 85.6111 34.0404 85.6111 33.6875C85.6111 33.3603 85.4736 33.0993 85.2004 32.9081C84.9309 32.7132 84.5624 32.614 84.0931 32.614H82.0471Z" fill="white"/>
<path d="M93.4832 26.6875C94.9682 26.6875 96.2735 27.0588 97.3992 27.7978L96.4459 29.7757C95.927 29.4724 95.3697 29.2243 94.7739 29.0331C94.1762 28.8382 93.6757 28.739 93.2705 28.739C92.5409 28.739 92.1779 28.9798 92.1779 29.4596C92.1779 29.7739 92.3557 30.0257 92.7132 30.2169C93.0744 30.4044 93.5125 30.568 94.0259 30.7096C94.5429 30.8474 95.0599 31.0147 95.5732 31.2096C96.0902 31.4007 96.5284 31.7151 96.8859 32.1507C97.247 32.5882 97.4285 33.136 97.4285 33.7978C97.4285 34.7537 97.0545 35.5018 96.3065 36.0404C95.5585 36.5754 94.607 36.8419 93.4539 36.8419C92.6325 36.8419 91.8204 36.7004 91.0192 36.4154C90.2162 36.1324 89.5177 35.7426 88.9219 35.2463L89.8972 33.2978C90.3995 33.7353 90.9917 34.0919 91.6719 34.3713C92.3502 34.6507 92.9552 34.7904 93.4832 34.7904C93.8884 34.7904 94.2037 34.7169 94.4292 34.5699C94.6584 34.4228 94.7739 34.2077 94.7739 33.9228C94.7739 33.6489 94.6437 33.421 94.3852 33.239C94.1249 33.0533 93.8004 32.9154 93.4099 32.8272C93.023 32.7353 92.6032 32.6121 92.1485 32.4596C91.6975 32.3088 91.2777 32.1434 90.8872 31.9669C90.5004 31.7868 90.1777 31.5 89.9192 31.1066C89.6589 30.7096 89.5305 30.2371 89.5305 29.6875C89.5305 28.7813 89.8917 28.0551 90.6159 27.511C91.3382 26.9632 92.2952 26.6875 93.4832 26.6875Z" fill="white"/>
</svg>
