<svg width="48" height="48" viewBox="0 0 48 48" fill="none" xmlns="http://www.w3.org/2000/svg">
<rect width="48" height="48" rx="4" fill="white" fill-opacity="0.1"/>
<g clip-path="url(#clip0_3550_109397)">
<path d="M39.0003 23.0004C38.7731 23.0005 38.5527 22.9232 38.3753 22.7814L24.0003 11.2804L9.62529 22.7814C9.52273 22.8635 9.40501 22.9245 9.27884 22.9611C9.15268 22.9977 9.02054 23.0091 8.88998 22.9946C8.75943 22.9801 8.633 22.94 8.51792 22.8767C8.40284 22.8133 8.30137 22.7279 8.21929 22.6254C8.13722 22.5228 8.07615 22.4051 8.03957 22.2789C8.00299 22.1528 7.99161 22.0206 8.0061 21.8901C8.02059 21.7595 8.06065 21.6331 8.12399 21.518C8.18734 21.4029 8.27273 21.3015 8.37529 21.2194L23.3753 9.21938C23.5527 9.07737 23.7731 9 24.0003 9C24.2275 9 24.4479 9.07737 24.6253 9.21938L39.6253 21.2194C39.7872 21.3488 39.9048 21.5254 39.962 21.7246C40.0191 21.9239 40.013 22.1359 39.9443 22.3315C39.8757 22.5271 39.748 22.6965 39.5789 22.8163C39.4097 22.9362 39.2076 23.0005 39.0003 23.0004Z" fill="white"/>
<path d="M24 13.8418L12 23.4418V37.9998C12 38.265 12.1054 38.5194 12.2929 38.7069C12.4804 38.8944 12.7348 38.9998 13 38.9998H35C35.2652 38.9998 35.5196 38.8944 35.7071 38.7069C35.8946 38.5194 36 38.265 36 37.9998V23.4418L24 13.8418ZM32 30.9998L29.707 28.7068L25 33.4138L22 30.4138L17 35.4138L15.586 33.9998L22 27.5858L25 30.5858L28.293 27.2928L26 24.9998H32V30.9998Z" fill="white"/>
</g>
<defs>
<clipPath id="clip0_3550_109397">
<rect width="32" height="32" fill="white" transform="translate(8 8)"/>
</clipPath>
</defs>
</svg>
