<svg width="40" height="40" viewBox="0 0 40 40" fill="none" xmlns="http://www.w3.org/2000/svg">
<path fill-rule="evenodd" clip-rule="evenodd" d="M40 20.001V30.001H30V26.6676H36.6667V20.001H40Z" fill="white"/>
<path fill-rule="evenodd" clip-rule="evenodd" d="M29.9999 24.1676C26.7788 24.1676 24.1666 26.7797 24.1666 30.0009C24.1666 33.2221 26.7788 35.8342 29.9999 35.8342C31.3148 35.8342 32.5241 35.4007 33.4988 34.6684L34.8313 33.6672L36.8336 36.3322L35.5011 37.3334C33.9691 38.4844 32.0618 39.1676 29.9999 39.1676C24.9378 39.1676 20.8333 35.0631 20.8333 30.0009C20.8333 24.9387 24.9378 20.8342 29.9999 20.8342C34.3651 20.8342 38.0138 23.8829 38.9388 27.9661L39.3998 30.0009H34.9999V26.9939C33.9794 25.3002 32.1213 24.1676 29.9999 24.1676Z" fill="white"/>
<path fill-rule="evenodd" clip-rule="evenodd" d="M1.66663 16.6677V30.0011C1.66663 32.7626 3.90521 35.0011 6.66663 35.0011H18.5403C17.8711 33.4699 17.5 31.7787 17.5 30.0011C17.5 23.0979 23.0968 17.5011 30 17.5011V16.6677H1.66663ZM6.66663 28.3344V25.0011H13.3333V28.3344H6.66663Z" fill="white"/>
<path d="M1.66663 10.001C1.66663 7.23956 3.90521 5.00098 6.66663 5.00098H33.3333C36.0948 5.00098 38.3333 7.23956 38.3333 10.001V11.6676H1.66663V10.001Z" fill="white"/>
</svg>
