<svg width="24" height="24" viewBox="0 0 24 24" fill="none" xmlns="http://www.w3.org/2000/svg">
<path d="M22.6673 7.66667C22.6673 5.644 21.0233 4 19.0007 4H5.00065C2.97798 4 1.33398 5.644 1.33398 7.66667V8.66667H22.6673V7.66667Z" fill="white"/>
<path d="M13.3273 19.772C13.2993 18.9706 13.5847 18.2066 14.1327 17.62C14.698 17.0146 15.4967 16.668 16.326 16.668C16.9553 16.668 17.5607 16.8626 18.066 17.224L20.606 13.86C21.1047 13.204 21.858 12.8013 22.6673 12.708V10.668H1.33398V16.3346C1.33398 18.3573 2.97798 20.0013 5.00065 20.0013H13.358C13.35 19.924 13.33 19.8493 13.3273 19.772ZM9.66732 16H5.66732C5.11532 16 4.66732 15.552 4.66732 15C4.66732 14.448 5.11532 14 5.66732 14H9.66732C10.2193 14 10.6673 14.448 10.6673 15C10.6673 15.552 10.2193 16 9.66732 16Z" fill="white"/>
<path d="M22.2012 15.064L18.3398 20.1786L17.0065 18.936C16.6038 18.56 15.9705 18.5813 15.5932 18.9853C15.2158 19.3893 15.2385 20.0213 15.6425 20.3986L17.7878 22.3986C17.9732 22.572 18.2172 22.668 18.4692 22.668C18.4972 22.668 18.5265 22.668 18.5558 22.664C18.8385 22.6386 19.0972 22.4973 19.2678 22.2706L23.7972 16.2706C24.1305 15.8293 24.0425 15.2026 23.6025 14.8693C23.1612 14.5373 22.5345 14.6253 22.2012 15.064Z" fill="white"/>
</svg>
