<svg width="24" height="24" viewBox="0 0 24 24" fill="none" xmlns="http://www.w3.org/2000/svg">
<g clip-path="url(#clip0_4727_2387)">
<path d="M23.2502 11.2503C23.0798 11.2504 22.9145 11.1924 22.7815 11.086L12.0002 2.46028L1.21897 11.086C1.14205 11.1476 1.05375 11.1934 0.959131 11.2208C0.864508 11.2483 0.765408 11.2568 0.667488 11.2459C0.569569 11.2351 0.474748 11.205 0.38844 11.1575C0.302132 11.11 0.226027 11.046 0.16447 10.969C0.102913 10.8921 0.0571091 10.8038 0.0296745 10.7092C0.00223979 10.6146 -0.0062888 10.5155 0.00457566 10.4175C0.0154401 10.3196 0.0454848 10.2248 0.0929944 10.1385C0.140504 10.0522 0.204548 9.97609 0.28147 9.91453L11.5315 0.914531C11.6645 0.808029 11.8298 0.75 12.0002 0.75C12.1706 0.75 12.3359 0.808029 12.469 0.914531L23.719 9.91453C23.8404 10.0116 23.9286 10.144 23.9715 10.2935C24.0144 10.4429 24.0097 10.6019 23.9583 10.7486C23.9068 10.8953 23.811 11.0224 23.6842 11.1122C23.5573 11.2021 23.4057 11.2504 23.2502 11.2503Z" fill="white"/>
<path d="M12 4.38086L3 11.5809V22.4994C3 22.6983 3.07902 22.889 3.21967 23.0297C3.36032 23.1703 3.55109 23.2494 3.75 23.2494H20.25C20.4489 23.2494 20.6397 23.1703 20.7803 23.0297C20.921 22.889 21 22.6983 21 22.4994V11.5809L12 4.38086ZM18 17.2494L16.2803 15.5296L12.75 19.0599L10.5 16.8099L6.75 20.5599L5.6895 19.4994L10.5 14.6889L12.75 16.9389L15.2197 14.4691L13.5 12.7494H18V17.2494Z" fill="white"/>
</g>
<defs>
<clipPath id="clip0_4727_2387">
<rect width="24" height="24" fill="white"/>
</clipPath>
</defs>
</svg>
