<svg width="30" height="36" viewBox="0 0 30 36" fill="none" xmlns="http://www.w3.org/2000/svg">
<path d="M23.3333 0.223145H6.66665C3.29554 0.223145 0.555542 2.96314 0.555542 6.33426V34.112C0.555542 34.7009 0.866653 35.2454 1.3711 35.5454C1.87554 35.8431 2.49999 35.8565 3.01999 35.5743L8.36665 32.6587L14.2533 35.6031C14.7222 35.8365 15.2755 35.8365 15.7444 35.6031L21.6311 32.6587L26.9778 35.5743C27.2267 35.712 27.5022 35.7787 27.7755 35.7787C28.0689 35.7787 28.3644 35.7009 28.6267 35.5454C29.1333 35.2454 29.4422 34.7009 29.4422 34.112V6.33426C29.4422 2.96314 26.7022 0.223145 23.3311 0.223145H23.3333ZM15.5555 24.6676H7.77776C6.85776 24.6676 6.1111 23.9209 6.1111 23.0009C6.1111 22.0809 6.85776 21.3343 7.77776 21.3343H15.5555C16.4755 21.3343 17.2222 22.0809 17.2222 23.0009C17.2222 23.9209 16.4755 24.6676 15.5555 24.6676ZM6.1111 16.3343C6.1111 15.4143 6.85776 14.6676 7.77776 14.6676H12.2222C13.1422 14.6676 13.8889 15.4143 13.8889 16.3343C13.8889 17.2543 13.1422 18.0009 12.2222 18.0009H7.77776C6.85776 18.0009 6.1111 17.2543 6.1111 16.3343ZM15.5555 11.3343H7.77776C6.85776 11.3343 6.1111 10.5876 6.1111 9.66759C6.1111 8.74759 6.85776 8.00092 7.77776 8.00092H15.5555C16.4755 8.00092 17.2222 8.74759 17.2222 9.66759C17.2222 10.5876 16.4755 11.3343 15.5555 11.3343ZM22.2222 24.6676H21.1111C20.1911 24.6676 19.4444 23.9209 19.4444 23.0009C19.4444 22.0809 20.1911 21.3343 21.1111 21.3343H22.2222C23.1422 21.3343 23.8889 22.0809 23.8889 23.0009C23.8889 23.9209 23.1422 24.6676 22.2222 24.6676ZM22.2222 18.0009H21.1111C20.1911 18.0009 19.4444 17.2543 19.4444 16.3343C19.4444 15.4143 20.1911 14.6676 21.1111 14.6676H22.2222C23.1422 14.6676 23.8889 15.4143 23.8889 16.3343C23.8889 17.2543 23.1422 18.0009 22.2222 18.0009ZM22.2222 11.3343H21.1111C20.1911 11.3343 19.4444 10.5876 19.4444 9.66759C19.4444 8.74759 20.1911 8.00092 21.1111 8.00092H22.2222C23.1422 8.00092 23.8889 8.74759 23.8889 9.66759C23.8889 10.5876 23.1422 11.3343 22.2222 11.3343Z" fill="white"/>
</svg>
