<svg width="46" height="46" viewBox="0 0 46 46" fill="none" xmlns="http://www.w3.org/2000/svg">
<path fill-rule="evenodd" clip-rule="evenodd" d="M22 5C11.5066 5 3 13.5066 3 24C3 34.4934 11.5066 43 22 43C32.4934 43 41 34.4934 41 24C41 21.9559 40.6777 19.99 40.0824 18.1487L39.6209 16.7214L42.4754 15.7984L42.9369 17.2257C43.6275 19.3616 44 21.6387 44 24C44 36.1503 34.1503 46 22 46C9.8497 46 0 36.1503 0 24C0 11.8497 9.8497 2 22 2C24.3615 2 26.6389 2.3726 28.7749 3.06334L30.2021 3.52486L29.2791 6.37933L27.8519 5.9178C26.0104 5.32232 24.0443 5 22 5Z" fill="white"/>
<path d="M38.5 7.5L35.5 0.5L32.5 7.5L25.5 10.5L32.5 13.5L35.5 20.5L38.5 13.5L45.5 10.5L38.5 7.5Z" fill="white"/>
<path d="M22 29C25.5899 29 28.5 26.0899 28.5 22.5C28.5 18.9101 25.5899 16 22 16C18.4101 16 15.5 18.9101 15.5 22.5C15.5 26.0899 18.4101 29 22 29Z" fill="white"/>
<path d="M35.0603 39.1481C32.3065 34.8508 27.4872 32 22.0008 32C16.5145 32 11.6952 34.8508 8.94141 39.148C12.4454 42.1716 17.0096 44 22.0009 44C26.9922 44 31.5564 42.1716 35.0603 39.1481Z" fill="white"/>
</svg>
