<svg width="41" height="40" viewBox="0 0 41 40" fill="none" xmlns="http://www.w3.org/2000/svg">
<rect x="0.666992" y="0.000854492" width="40" height="40" rx="4" fill="white" fill-opacity="0.1"/>
<path fill-rule="evenodd" clip-rule="evenodd" d="M21.4168 25.7509V27.2509H16.1201V25.7509H21.4168Z" fill="white"/>
<path fill-rule="evenodd" clip-rule="evenodd" d="M18.0299 14.3544L19.3166 15.1249L16.4809 20.0402L15.1816 19.2906L17.5074 15.2592L17.4789 15.2415L18.0299 14.3544Z" fill="white"/>
<path fill-rule="evenodd" clip-rule="evenodd" d="M25.4973 18.3016L28.3224 23.3869L27.0237 24.137L26.3878 23.0772L26.4228 23.0562L24.186 19.0301L25.4973 18.3016Z" fill="white"/>
<path d="M20.667 9.00085C18.734 9.00085 17.167 10.5679 17.167 12.5009C17.167 14.4339 18.734 16.0009 20.667 16.0009C22.6 16.0009 24.167 14.4339 24.167 12.5009C24.167 10.5679 22.6 9.00085 20.667 9.00085Z" fill="white"/>
<path d="M28.167 23.0009C26.234 23.0009 24.667 24.5679 24.667 26.5009C24.667 28.4339 26.234 30.0009 28.167 30.0009C30.1 30.0009 31.667 28.4339 31.667 26.5009C31.667 24.5679 30.1 23.0009 28.167 23.0009Z" fill="white"/>
<path d="M13.167 23.0009C11.234 23.0009 9.66699 24.5679 9.66699 26.5009C9.66699 28.4339 11.234 30.0009 13.167 30.0009C15.1 30.0009 16.667 28.4339 16.667 26.5009C16.667 24.5679 15.1 23.0009 13.167 23.0009Z" fill="white"/>
</svg>
