<svg width="20" height="23" viewBox="0 0 20 23" fill="none" xmlns="http://www.w3.org/2000/svg">
<path d="M10 16C11.6569 16 13 14.6569 13 13C13 11.3431 11.6569 10 10 10C8.34315 10 7 11.3431 7 13C7 14.6569 8.34315 16 10 16Z" fill="white"/>
<path d="M10 6C11.6569 6 13 4.65685 13 3C13 1.34315 11.6569 0 10 0C8.34315 0 7 1.34315 7 3C7 4.65685 8.34315 6 10 6Z" fill="white"/>
<path d="M3 11C4.65685 11 6 9.65685 6 8C6 6.34315 4.65685 5 3 5C1.34315 5 0 6.34315 0 8C0 9.65685 1.34315 11 3 11Z" fill="white"/>
<path d="M17 11C18.6569 11 20 9.65685 20 8C20 6.34315 18.6569 5 17 5C15.3431 5 14 6.34315 14 8C14 9.65685 15.3431 11 17 11Z" fill="white"/>
<path d="M9.99935 17C7.34435 17 4.94935 18.473 3.74835 20.845C3.51435 21.311 3.53735 21.854 3.81035 22.298C4.08135 22.737 4.55135 23 5.06735 23H14.9324C15.4484 23 15.9174 22.737 16.1894 22.298C16.4614 21.854 16.4854 21.311 16.2503 20.843C15.0504 18.473 12.6554 17 10.0004 17H9.99935Z" fill="white"/>
</svg>
