<svg width="24" height="25" viewBox="0 0 24 25" fill="none" xmlns="http://www.w3.org/2000/svg">
<path fill-rule="evenodd" clip-rule="evenodd" d="M20.8141 10.6051L23.1828 14.795C23.3386 15.0706 23.2129 15.418 22.915 15.535L21.0434 16.2701L20.5501 19.3789C20.3939 20.3629 19.5538 21.1025 18.5415 21.1472L16.5397 21.2359V23.6865H6.97077V20.547L5.23332 19.6158C2.66809 18.241 0.998782 15.6702 0.810659 12.8048L0.772334 12.221C0.380016 6.24525 5.20639 1.18652 11.2999 1.18652C16.339 1.18652 20.5003 5.05499 20.7799 9.99925L20.8141 10.6051ZM13.9883 14.1167C14.1568 13.7152 14.25 13.2743 14.25 12.8115C14.25 10.9475 12.739 9.43652 10.875 9.43652C9.01102 9.43652 7.5 10.9475 7.5 12.8115C7.5 14.6755 9.01102 16.1865 10.875 16.1865C11.7337 16.1865 12.5176 15.8658 13.1133 15.3376L17.3671 18.7406L18.3042 17.5694L13.9883 14.1167Z" fill="white"/>
</svg>
