<svg width="48" height="48" viewBox="0 0 48 48" fill="none" xmlns="http://www.w3.org/2000/svg">
<rect width="48" height="48" rx="4" fill="white" fill-opacity="0.1"/>
<g clip-path="url(#clip0_1997_26155)">
<path d="M32.6279 39.9992C32.2919 39.9992 31.9666 39.873 31.7177 39.6419L28.8573 36.9752C28.3186 36.4721 28.2902 35.6294 28.7915 35.0907C29.2946 34.5503 30.1391 34.5236 30.6777 35.0232L32.4555 36.6819L37.604 29.8623C38.0466 29.2756 38.8804 29.1583 39.4724 29.6027C40.0591 30.0472 40.1764 30.8827 39.732 31.4712L33.6928 39.4712C33.4653 39.7716 33.1204 39.9619 32.7453 39.9956C32.7062 39.9992 32.6671 40.001 32.6297 40.001L32.6279 39.9992Z" fill="white"/>
<path d="M26.8382 33.2725C27.592 32.4636 28.6587 31.9996 29.7645 31.9996C30.6054 31.9996 31.4125 32.2591 32.0862 32.7409L35.4729 28.2556C35.7414 27.9 36.0791 27.6173 36.4436 27.3738V19.8467C36.4436 19.0165 36.12 18.2342 35.5316 17.6476L28.5734 10.6893C27.9849 10.1009 27.2045 9.77734 26.3742 9.77734H16.4436C13.7467 9.77734 11.5547 11.9693 11.5547 14.6662V33.3329C11.5547 36.0298 13.7467 38.2218 16.4436 38.2218H26.4507C25.4409 36.7125 25.5511 34.6538 26.8382 33.2725ZM26.6658 12.5845C26.6818 12.5773 26.6729 12.5827 26.6889 12.5756L33.6614 19.5462C33.6614 19.5462 33.6596 19.5516 33.6578 19.5551H28.4454C27.4676 19.5551 26.6676 18.7551 26.6676 17.7773V12.5845H26.6658ZM18.2214 18.6662H21.7769C22.5129 18.6662 23.1102 19.2636 23.1102 19.9996C23.1102 20.7356 22.5129 21.3329 21.7769 21.3329H18.2214C17.4854 21.3329 16.888 20.7356 16.888 19.9996C16.888 19.2636 17.4854 18.6662 18.2214 18.6662ZM16.888 25.3329C16.888 24.5969 17.4854 23.9996 18.2214 23.9996H26.2214C26.9574 23.9996 27.5547 24.5969 27.5547 25.3329C27.5547 26.0689 26.9574 26.6662 26.2214 26.6662H18.2214C17.4854 26.6662 16.888 26.0689 16.888 25.3329Z" fill="white"/>
</g>
<defs>
<clipPath id="clip0_1997_26155">
<rect width="32" height="32" fill="white" transform="translate(8 8)"/>
</clipPath>
</defs>
</svg>
