<svg width="48" height="48" viewBox="0 0 48 48" fill="none" xmlns="http://www.w3.org/2000/svg">
<path d="M35.5736 30.9584L32.4831 24L28.0173 24.766C26.9335 25.0496 26.2117 26.13 26.3666 27.2399C27.5478 35.6494 34.3484 42.4632 42.7645 43.635C43.9054 43.7921 44.9595 43.0413 45.2462 41.9414L46.0005 37.5172L39.0459 34.4291L37.5438 36.3072L36.3084 37.8736C34.6785 36.7381 33.2612 35.3206 32.126 33.6904L35.5736 30.9584Z" fill="white"/>
<path fill-rule="evenodd" clip-rule="evenodd" d="M16 12C16 7.58172 19.5817 4 24 4C28.4183 4 32 7.58172 32 12C32 16.4183 28.4183 20 24 20C19.5817 20 16 16.4183 16 12Z" fill="white"/>
<path d="M32.2986 42.5301C27.5598 39.0621 24.2532 33.7656 23.3953 27.6572C23.1559 25.9528 23.8058 24.1797 25.0863 23.0306C24.7268 23.0103 24.3646 23 24 23C14.1172 23 6 30.5723 6 40.0375V40.7923L6.73105 40.9647C15.2514 42.9735 23.776 43.4953 32.2986 42.5301Z" fill="white"/>
</svg>
