<svg width="48" height="48" viewBox="0 0 48 48" fill="none" xmlns="http://www.w3.org/2000/svg">
<rect width="48" height="48" rx="4" fill="white" fill-opacity="0.1"/>
<g clip-path="url(#clip0_1997_27025)">
<path d="M39.5425 21.6604L39.5105 21.6351L24.8438 9.63512C24.6056 9.44037 24.3075 9.33398 23.9998 9.33398C23.6922 9.33398 23.394 9.44037 23.1558 9.63512L8.48914 21.6351C8.22157 21.8609 8.05353 22.1828 8.02129 22.5314C7.98906 22.88 8.09521 23.2273 8.31684 23.4983C8.53847 23.7693 8.85779 23.9422 9.20584 23.9798C9.5539 24.0174 9.90278 23.9166 10.1771 23.6991L11.9998 22.2084V37.3338C11.9998 37.6874 12.1403 38.0265 12.3903 38.2766C12.6404 38.5266 12.9795 38.6671 13.3331 38.6671H34.6665C35.0201 38.6671 35.3592 38.5266 35.6093 38.2766C35.8593 38.0265 35.9998 37.6874 35.9998 37.3338V22.2084L37.8225 23.6991C38.0928 23.9272 38.4427 24.0386 38.7951 24.0087C39.1476 23.9788 39.4737 23.8101 39.7018 23.5398C39.9299 23.2694 40.0412 22.9196 40.0114 22.5671C39.9815 22.2147 39.8128 21.8885 39.5425 21.6604ZM31.9998 29.3338L29.6091 26.9431L23.9998 32.5524L21.3331 29.8858L17.3331 33.8858L15.4478 32.0004L21.3331 26.1151L23.9998 28.7818L27.7238 25.0578L25.3331 22.6671H31.9998V29.3338Z" fill="white"/>
</g>
<defs>
<clipPath id="clip0_1997_27025">
<rect width="32" height="32" fill="white" transform="translate(8 8)"/>
</clipPath>
</defs>
</svg>
