<svg width="48" height="48" viewBox="0 0 48 48" fill="none" xmlns="http://www.w3.org/2000/svg">
<g clip-path="url(#clip0_245_962)">
<path d="M26 5.00098H2C1.46957 5.00098 0.960859 5.21169 0.585786 5.58676C0.210714 5.96184 0 6.47054 0 7.00098L0 37.001C0 37.5314 0.210714 38.0401 0.585786 38.4152C0.960859 38.7903 1.46957 39.001 2 39.001H4C4 36.8792 4.84285 34.8444 6.34315 33.3441C7.84344 31.8438 9.87827 31.001 12 31.001C14.1217 31.001 16.1566 31.8438 17.6569 33.3441C19.1571 34.8444 20 36.8792 20 39.001H27C27.2652 39.001 27.5196 38.8956 27.7071 38.7081C27.8946 38.5205 28 38.2662 28 38.001V7.00098C28 6.47054 27.7893 5.96184 27.4142 5.58676C27.0391 5.21169 26.5304 5.00098 26 5.00098Z" fill="white"/>
<path d="M47.878 23.522L41.878 12.522C41.7919 12.3643 41.665 12.2327 41.5105 12.141C41.356 12.0493 41.1797 12.0009 41 12.001H31C30.7348 12.001 30.4804 12.1063 30.2929 12.2939C30.1054 12.4814 30 12.7358 30 13.001V33.722C31.0722 32.4997 32.4917 31.6335 34.069 31.2391C35.6463 30.8446 37.3064 30.9406 38.8278 31.5142C40.3491 32.0879 41.6593 33.1119 42.5834 34.4496C43.5076 35.7873 44.0018 37.3751 44 39.001H47C47.2652 39.001 47.5196 38.8956 47.7071 38.7081C47.8946 38.5205 48 38.2662 48 38.001V24.001C48.0001 23.8336 47.9581 23.6689 47.878 23.522ZM33 24.001V15.001H39.812L44.721 24.001H33Z" fill="white"/>
<path d="M36 45.001C34.8133 45.001 33.6533 44.6491 32.6666 43.9898C31.6799 43.3305 30.9109 42.3934 30.4567 41.2971C30.0026 40.2007 29.8838 38.9943 30.1153 37.8304C30.3468 36.6666 30.9182 35.5975 31.7574 34.7583C32.5965 33.9192 33.6656 33.3478 34.8295 33.1163C35.9933 32.8848 37.1997 33.0036 38.2961 33.4577C39.3925 33.9118 40.3295 34.6809 40.9888 35.6676C41.6481 36.6543 42 37.8143 42 39.001C41.9984 40.5918 41.3658 42.117 40.2409 43.2419C39.116 44.3667 37.5908 44.9994 36 45.001ZM36 37.001C35.6044 37.001 35.2178 37.1183 34.8889 37.338C34.56 37.5578 34.3036 37.8702 34.1522 38.2356C34.0009 38.6011 33.9613 39.0032 34.0384 39.3912C34.1156 39.7791 34.3061 40.1355 34.5858 40.4152C34.8655 40.6949 35.2219 40.8854 35.6098 40.9626C35.9978 41.0397 36.3999 41.0001 36.7654 40.8487C37.1308 40.6974 37.4432 40.441 37.6629 40.1121C37.8827 39.7832 38 39.3965 38 39.001C38 38.4705 37.7893 37.9618 37.4142 37.5868C37.0391 37.2117 36.5304 37.001 36 37.001Z" fill="white"/>
<path d="M12 45.001C10.8133 45.001 9.65328 44.6491 8.66658 43.9898C7.67989 43.3305 6.91085 42.3934 6.45673 41.2971C6.0026 40.2007 5.88378 38.9943 6.11529 37.8304C6.3468 36.6666 6.91825 35.5975 7.75736 34.7583C8.59648 33.9192 9.66558 33.3478 10.8295 33.1163C11.9933 32.8848 13.1997 33.0036 14.2961 33.4577C15.3925 33.9118 16.3295 34.6809 16.9888 35.6676C17.6481 36.6543 18 37.8143 18 39.001C17.9984 40.5918 17.3658 42.117 16.2409 43.2419C15.116 44.3667 13.5908 44.9994 12 45.001ZM12 37.001C11.6044 37.001 11.2178 37.1183 10.8889 37.338C10.56 37.5578 10.3036 37.8702 10.1522 38.2356C10.0009 38.6011 9.96126 39.0032 10.0384 39.3912C10.1156 39.7791 10.3061 40.1355 10.5858 40.4152C10.8655 40.6949 11.2219 40.8854 11.6098 40.9626C11.9978 41.0397 12.3999 41.0001 12.7654 40.8487C13.1308 40.6974 13.4432 40.441 13.6629 40.1121C13.8827 39.7832 14 39.3965 14 39.001C14 38.4705 13.7893 37.9618 13.4142 37.5868C13.0391 37.2117 12.5304 37.001 12 37.001Z" fill="white"/>
</g>
<defs>
<clipPath id="clip0_245_962">
<rect width="48" height="48" fill="white" transform="translate(0 0.000976562)"/>
</clipPath>
</defs>
</svg>
