<svg width="626" height="302" viewBox="0 0 626 302" fill="none" xmlns="http://www.w3.org/2000/svg">
<g filter="url(#filter0_ddd_3550_99512)">
<mask id="path-1-inside-1_3550_99512" fill="white">
<path d="M7 13C7 8.58172 10.5817 5 15 5H611C615.418 5 619 8.58172 619 13V53H7V13Z"/>
</mask>
<path d="M7 13C7 8.58172 10.5817 5 15 5H611C615.418 5 619 8.58172 619 13V53H7V13Z" fill="url(#paint0_linear_3550_99512)" fill-opacity="0.1" shape-rendering="crispEdges"/>
<path d="M6 13C6 8.02944 10.0294 4 15 4H611C615.971 4 620 8.02944 620 13H618C618 9.13401 614.866 6 611 6H15C11.134 6 8 9.13401 8 13H6ZM619 53H7H619ZM6 53V13C6 8.02944 10.0294 4 15 4V6C11.134 6 8 9.13401 8 13V53H6ZM611 4C615.971 4 620 8.02944 620 13V53H618V13C618 9.13401 614.866 6 611 6V4Z" fill="url(#paint1_linear_3550_99512)" fill-opacity="0.1" mask="url(#path-1-inside-1_3550_99512)"/>
<path d="M24.2 35V23.8H29.24C30.1787 23.8 30.9573 24.136 31.576 24.808C32.2053 25.4693 32.52 26.3333 32.52 27.4C32.52 28.4667 32.2053 29.336 31.576 30.008C30.9573 30.6693 30.1787 31 29.24 31H28.84L32.84 35H30.68L26.68 31H25.88V35H24.2ZM25.88 29.4H29.16C29.6187 29.4 30.0133 29.2133 30.344 28.84C30.6747 28.4667 30.84 27.9867 30.84 27.4C30.84 26.8133 30.6747 26.3333 30.344 25.96C30.0133 25.5867 29.6187 25.4 29.16 25.4H25.88V29.4ZM35.3338 30.36H40.0538C39.9684 29.7093 39.7178 29.1867 39.3018 28.792C38.8858 28.3973 38.3631 28.2 37.7338 28.2C37.0724 28.2 36.5391 28.3973 36.1338 28.792C35.7284 29.176 35.4618 29.6987 35.3338 30.36ZM39.6538 32.68H41.3338C41.0991 33.32 40.6724 33.896 40.0538 34.408C39.4458 34.9093 38.6724 35.16 37.7338 35.16C36.5711 35.16 35.6111 34.776 34.8538 34.008C34.1071 33.24 33.7338 32.2373 33.7338 31C33.7338 29.7627 34.1071 28.76 34.8538 27.992C35.6111 27.224 36.5711 26.84 37.7338 26.84C38.8218 26.84 39.7338 27.2133 40.4698 27.96C41.2058 28.7067 41.5738 29.64 41.5738 30.76C41.5738 30.856 41.5578 31.048 41.5258 31.336L41.4938 31.56H35.3338C35.4191 32.2427 35.6804 32.7867 36.1178 33.192C36.5551 33.5973 37.0938 33.8 37.7338 33.8C38.1818 33.8 38.5764 33.6933 38.9178 33.48C39.2698 33.256 39.5151 32.9893 39.6538 32.68ZM48.9388 32.2H50.5388C50.4641 32.5307 50.3414 32.856 50.1708 33.176C50.0108 33.496 49.7868 33.8107 49.4988 34.12C49.2214 34.4293 48.8534 34.68 48.3948 34.872C47.9361 35.064 47.4241 35.16 46.8588 35.16C45.6961 35.16 44.7361 34.776 43.9788 34.008C43.2321 33.24 42.8588 32.2373 42.8588 31C42.8588 29.7627 43.2321 28.76 43.9788 27.992C44.7361 27.224 45.6961 26.84 46.8588 26.84C47.9254 26.84 48.7628 27.144 49.3708 27.752C49.9788 28.3493 50.3681 29.0053 50.5388 29.72H48.9388C48.5974 28.76 47.9041 28.28 46.8588 28.28C46.1654 28.28 45.5894 28.5307 45.1308 29.032C44.6828 29.5227 44.4588 30.1787 44.4588 31C44.4588 31.8213 44.6828 32.4827 45.1308 32.984C45.5894 33.4747 46.1654 33.72 46.8588 33.72C47.4348 33.72 47.8988 33.5653 48.2508 33.256C48.6028 32.9467 48.8321 32.5947 48.9388 32.2ZM53.3338 30.36H58.0538C57.9684 29.7093 57.7178 29.1867 57.3018 28.792C56.8858 28.3973 56.3631 28.2 55.7338 28.2C55.0724 28.2 54.5391 28.3973 54.1338 28.792C53.7284 29.176 53.4618 29.6987 53.3338 30.36ZM57.6538 32.68H59.3338C59.0991 33.32 58.6724 33.896 58.0538 34.408C57.4458 34.9093 56.6724 35.16 55.7338 35.16C54.5711 35.16 53.6111 34.776 52.8538 34.008C52.1071 33.24 51.7338 32.2373 51.7338 31C51.7338 29.7627 52.1071 28.76 52.8538 27.992C53.6111 27.224 54.5711 26.84 55.7338 26.84C56.8218 26.84 57.7338 27.2133 58.4698 27.96C59.2058 28.7067 59.5738 29.64 59.5738 30.76C59.5738 30.856 59.5578 31.048 59.5258 31.336L59.4938 31.56H53.3338C53.4191 32.2427 53.6804 32.7867 54.1178 33.192C54.5551 33.5973 55.0938 33.8 55.7338 33.8C56.1818 33.8 56.5764 33.6933 56.9178 33.48C57.2698 33.256 57.5151 32.9893 57.6538 32.68ZM61.2588 35V27H62.6988L62.8588 27.8H62.9388C63.1201 27.6187 63.3174 27.4587 63.5308 27.32C64.0428 27 64.6188 26.84 65.2588 26.84C66.2294 26.84 67.0028 27.144 67.5788 27.752C68.1654 28.3493 68.4588 29.1653 68.4588 30.2V35H66.8588V30.2C66.8588 29.6773 66.6721 29.2293 66.2988 28.856C65.9361 28.472 65.4828 28.28 64.9388 28.28C64.3521 28.28 63.8561 28.472 63.4508 28.856C63.0561 29.2293 62.8588 29.6773 62.8588 30.2V35H61.2588ZM70.7894 33.32V28.52H69.5094V27H70.7894V24.76H72.3894V27H74.2294V28.52H72.3894V33.08C72.3894 33.4 72.5494 33.56 72.8694 33.56H74.2294V35H72.5494C71.984 35 71.5467 34.8507 71.2374 34.552C70.9387 34.2533 70.7894 33.8427 70.7894 33.32ZM79.3588 31.56H81.0388C81.0388 32.104 81.2894 32.5733 81.7908 32.968C82.3028 33.3627 82.9588 33.56 83.7588 33.56C84.6334 33.56 85.2788 33.4107 85.6948 33.112C86.1108 32.8027 86.3188 32.392 86.3188 31.88C86.3188 31.0587 85.6788 30.5253 84.3988 30.28L82.2388 29.88C81.3641 29.72 80.7028 29.384 80.2548 28.872C79.8174 28.36 79.5988 27.7093 79.5988 26.92C79.5988 25.9813 79.9614 25.2027 80.6868 24.584C81.4121 23.9547 82.3828 23.64 83.5988 23.64C84.9428 23.64 85.9828 23.9813 86.7188 24.664C87.4654 25.336 87.8388 26.1947 87.8388 27.24H86.1588C86.1588 26.696 85.9241 26.2267 85.4548 25.832C84.9854 25.4373 84.3668 25.24 83.5988 25.24C82.8734 25.24 82.3028 25.4053 81.8868 25.736C81.4814 26.056 81.2788 26.4507 81.2788 26.92C81.2788 27.7093 81.8388 28.216 82.9588 28.44L84.7188 28.76C85.8494 28.9627 86.6761 29.3147 87.1988 29.816C87.7321 30.3067 87.9988 30.9947 87.9988 31.88C87.9988 32.84 87.6308 33.6293 86.8948 34.248C86.1588 34.856 85.1134 35.16 83.7588 35.16C82.4041 35.16 81.3321 34.8187 80.5428 34.136C79.7534 33.4533 79.3588 32.5947 79.3588 31.56ZM94.9588 35L94.7988 34.12H94.7188C94.5588 34.3227 94.3668 34.4987 94.1428 34.648C93.6308 34.9893 93.0228 35.16 92.3188 35.16C91.4441 35.16 90.7454 34.9307 90.2228 34.472C89.7001 34.0133 89.4388 33.416 89.4388 32.68C89.4388 31.8587 89.7108 31.2133 90.2548 30.744C90.8094 30.2747 91.6308 30.04 92.7188 30.04H94.7188V29.88C94.7188 29.3573 94.5694 28.9467 94.2708 28.648C93.9721 28.3493 93.5614 28.2 93.0388 28.2C92.5268 28.2 92.1321 28.3173 91.8548 28.552C91.5774 28.776 91.4121 29.032 91.3588 29.32H89.7588C89.8014 28.616 90.1161 28.0293 90.7028 27.56C91.2894 27.08 92.0681 26.84 93.0388 26.84C94.0734 26.84 94.8788 27.112 95.4548 27.656C96.0308 28.2 96.3188 28.9413 96.3188 29.88V35H94.9588ZM94.7188 31.64V31.32H92.7988C92.2121 31.32 91.7694 31.4373 91.4708 31.672C91.1828 31.9067 91.0388 32.216 91.0388 32.6C91.0388 32.9733 91.1614 33.2667 91.4068 33.48C91.6521 33.6933 92.0094 33.8 92.4788 33.8C93.2041 33.8 93.7588 33.6133 94.1428 33.24C94.5268 32.856 94.7188 32.3227 94.7188 31.64ZM98.4013 35V23.8H100.001V35H98.4013ZM103.365 30.36H108.085C108 29.7093 107.749 29.1867 107.333 28.792C106.917 28.3973 106.394 28.2 105.765 28.2C105.104 28.2 104.57 28.3973 104.165 28.792C103.76 29.176 103.493 29.6987 103.365 30.36ZM107.685 32.68H109.365C109.13 33.32 108.704 33.896 108.085 34.408C107.477 34.9093 106.704 35.16 105.765 35.16C104.602 35.16 103.642 34.776 102.885 34.008C102.138 33.24 101.765 32.2373 101.765 31C101.765 29.7627 102.138 28.76 102.885 27.992C103.642 27.224 104.602 26.84 105.765 26.84C106.853 26.84 107.765 27.2133 108.501 27.96C109.237 28.7067 109.605 29.64 109.605 30.76C109.605 30.856 109.589 31.048 109.557 31.336L109.525 31.56H103.365C103.45 32.2427 103.712 32.7867 104.149 33.192C104.586 33.5973 105.125 33.8 105.765 33.8C106.213 33.8 106.608 33.6933 106.949 33.48C107.301 33.256 107.546 32.9893 107.685 32.68ZM110.73 32.6H112.33C112.33 32.888 112.49 33.16 112.81 33.416C113.13 33.672 113.583 33.8 114.17 33.8C114.725 33.8 115.141 33.6987 115.418 33.496C115.706 33.2827 115.85 33.0373 115.85 32.76C115.85 32.472 115.759 32.248 115.578 32.088C115.397 31.9173 115.087 31.7947 114.65 31.72L113.21 31.48C111.663 31.224 110.89 30.4507 110.89 29.16C110.89 28.488 111.162 27.9333 111.706 27.496C112.261 27.0587 113.055 26.84 114.09 26.84C114.634 26.84 115.125 26.9253 115.562 27.096C116.01 27.2667 116.357 27.4853 116.602 27.752C116.858 28.0187 117.05 28.2907 117.178 28.568C117.306 28.8347 117.37 29.0853 117.37 29.32H115.77C115.77 29.0427 115.626 28.7867 115.338 28.552C115.05 28.3173 114.634 28.2 114.09 28.2C113.557 28.2 113.157 28.296 112.89 28.488C112.623 28.6693 112.49 28.8933 112.49 29.16C112.49 29.64 112.89 29.96 113.69 30.12L115.13 30.36C116.677 30.616 117.45 31.416 117.45 32.76C117.45 33.4427 117.167 34.0133 116.602 34.472C116.047 34.9307 115.237 35.16 114.17 35.16C113.573 35.16 113.034 35.0693 112.554 34.888C112.085 34.7067 111.722 34.4773 111.466 34.2C111.221 33.9227 111.034 33.6507 110.906 33.384C110.789 33.1067 110.73 32.8453 110.73 32.6ZM121.781 35L125.861 23.8H128.421L132.501 35H130.661L129.701 32.36H124.581L123.621 35H121.781ZM125.141 30.84H129.141L127.301 25.72H126.981L125.141 30.84ZM139.22 32.2H140.82C140.745 32.5307 140.623 32.856 140.452 33.176C140.292 33.496 140.068 33.8107 139.78 34.12C139.503 34.4293 139.135 34.68 138.676 34.872C138.217 35.064 137.705 35.16 137.14 35.16C135.977 35.16 135.017 34.776 134.26 34.008C133.513 33.24 133.14 32.2373 133.14 31C133.14 29.7627 133.513 28.76 134.26 27.992C135.017 27.224 135.977 26.84 137.14 26.84C138.207 26.84 139.044 27.144 139.652 27.752C140.26 28.3493 140.649 29.0053 140.82 29.72H139.22C138.879 28.76 138.185 28.28 137.14 28.28C136.447 28.28 135.871 28.5307 135.412 29.032C134.964 29.5227 134.74 30.1787 134.74 31C134.74 31.8213 134.964 32.4827 135.412 32.984C135.871 33.4747 136.447 33.72 137.14 33.72C137.716 33.72 138.18 33.5653 138.532 33.256C138.884 32.9467 139.113 32.5947 139.22 32.2ZM143.055 33.32V28.52H141.775V27H143.055V24.76H144.655V27H146.495V28.52H144.655V33.08C144.655 33.4 144.815 33.56 145.135 33.56H146.495V35H144.815C144.25 35 143.812 34.8507 143.503 34.552C143.204 34.2533 143.055 33.8427 143.055 33.32ZM148.259 35V27H149.859V35H148.259ZM148.179 25.48V23.8H149.939V25.48H148.179ZM153.786 35L150.986 27H152.666L154.826 33.24H155.146L157.306 27H158.986L156.186 35H153.786ZM160.103 35V27H161.703V35H160.103ZM160.023 25.48V23.8H161.783V25.48H160.023ZM164.43 33.32V28.52H163.15V27H164.43V24.76H166.03V27H167.87V28.52H166.03V33.08C166.03 33.4 166.19 33.56 166.51 33.56H167.87V35H166.19C165.625 35 165.187 34.8507 164.878 34.552C164.579 34.2533 164.43 33.8427 164.43 33.32ZM169.554 38.2V36.76H171.154C171.292 36.76 171.41 36.7067 171.506 36.6C171.602 36.504 171.666 36.3973 171.698 36.28L171.954 35.56L168.674 27H170.354L172.674 33.08H172.994L175.074 27H176.754L173.234 36.84C173.063 37.3093 172.828 37.6507 172.53 37.864C172.242 38.088 171.81 38.2 171.234 38.2H169.554Z" fill="white"/>
<path d="M559.71 34L556.14 24.2H557.022L560.27 33.16H560.55L563.798 24.2H564.68L561.11 34H559.71ZM566.008 34V27H566.848V34H566.008ZM565.938 25.39V24.41H566.918V25.39H565.938ZM569.515 30.08H574.345C574.308 29.38 574.065 28.8107 573.617 28.372C573.178 27.924 572.628 27.7 571.965 27.7C571.293 27.7 570.733 27.9147 570.285 28.344C569.846 28.764 569.59 29.3427 569.515 30.08ZM574.065 32.04H574.975C574.77 32.6187 574.42 33.1133 573.925 33.524C573.44 33.9347 572.786 34.14 571.965 34.14C570.994 34.14 570.201 33.8087 569.585 33.146C568.978 32.4833 568.675 31.6013 568.675 30.5C568.675 29.3987 568.978 28.5167 569.585 27.854C570.201 27.1913 570.994 26.86 571.965 26.86C572.889 26.86 573.654 27.1867 574.261 27.84C574.877 28.484 575.185 29.324 575.185 30.36C575.185 30.5 575.176 30.6353 575.157 30.766C575.148 30.8033 575.143 30.8547 575.143 30.92H569.515C569.59 31.6387 569.856 32.2173 570.313 32.656C570.77 33.0853 571.321 33.3 571.965 33.3C572.478 33.3 572.912 33.174 573.267 32.922C573.622 32.67 573.888 32.376 574.065 32.04ZM577.844 34L575.954 27H576.794L578.404 33.09H578.684L580.294 27H581.694L583.304 33.09H583.584L585.194 27H586.034L584.144 34H582.744L581.134 28.05H580.854L579.23 34H577.844ZM594.701 34L594.561 33.02H594.491C594.351 33.216 594.16 33.4027 593.917 33.58C593.395 33.9533 592.816 34.14 592.181 34.14C591.463 34.14 590.884 33.9393 590.445 33.538C590.016 33.1367 589.801 32.614 589.801 31.97C589.801 31.3073 590.035 30.78 590.501 30.388C590.968 29.996 591.645 29.8 592.531 29.8H594.561V29.52C594.561 28.3067 593.955 27.7 592.741 27.7C592.191 27.7 591.747 27.8213 591.411 28.064C591.085 28.3067 590.898 28.6287 590.851 29.03H590.011C590.095 28.4047 590.371 27.8867 590.837 27.476C591.304 27.0653 591.939 26.86 592.741 26.86C593.591 26.86 594.244 27.0933 594.701 27.56C595.168 28.0173 595.401 28.6707 595.401 29.52V34H594.701ZM594.561 30.92V30.57H592.531C591.915 30.57 591.444 30.7007 591.117 30.962C590.8 31.2233 590.641 31.5593 590.641 31.97C590.641 32.3713 590.777 32.6933 591.047 32.936C591.318 33.1787 591.696 33.3 592.181 33.3C592.919 33.3 593.497 33.09 593.917 32.67C594.347 32.2407 594.561 31.6573 594.561 30.92ZM597.713 34V24.2H598.553V34H597.713ZM600.94 34V24.2H601.78V34H600.94Z" fill="white"/>
</g>
<g filter="url(#filter1_ddd_3550_99512)">
<path d="M7 53H619V285C619 289.418 615.418 293 611 293H15C10.5817 293 7 289.418 7 285V53Z" fill="url(#paint2_linear_3550_99512)" fill-opacity="0.1" shape-rendering="crispEdges"/>
<path d="M618.5 53.5V285C618.5 289.142 615.142 292.5 611 292.5H15C10.8579 292.5 7.5 289.142 7.5 285V53.5H618.5Z" stroke="url(#paint3_linear_3550_99512)" stroke-opacity="0.1" shape-rendering="crispEdges"/>
<path d="M23 73C23 70.7909 24.7909 69 27 69H51C53.2091 69 55 70.7909 55 73V97C55 99.2091 53.2091 101 51 101H27C24.7909 101 23 99.2091 23 97V73Z" fill="white" fill-opacity="0.1"/>
<g clip-path="url(#clip0_3550_99512)">
<path fill-rule="evenodd" clip-rule="evenodd" d="M42.259 81.2207H35.7408C34.819 81.2207 34.0492 81.9256 33.9692 82.8447L33.3897 89.5114C33.299 90.5496 34.1177 91.4429 35.1603 91.4429H41.8883V90.7763C40.7838 90.7763 39.8883 89.8808 39.8883 88.7763C39.8883 87.6717 40.7838 86.7763 41.8883 86.7763H42.1106V86.554C42.1106 85.4495 43.006 84.554 44.1106 84.554C44.1332 84.554 44.1559 84.5544 44.1784 84.5552L44.0297 82.8447C43.9506 81.9256 43.1808 81.2207 42.259 81.2207Z" fill="#E4E4E7"/>
<path d="M37 81.2216V79.666C37 78.5611 37.8951 77.666 39 77.666C40.1049 77.666 41 78.5611 41 79.666V81.2216" stroke="white" stroke-linecap="round" stroke-linejoin="round"/>
<path d="M41.9337 91.4429H35.1603C34.1177 91.4429 33.299 90.5496 33.3897 89.5114L33.9692 82.8447C34.0492 81.9256 34.8181 81.2207 35.7399 81.2207H42.2581C43.1799 81.2207 43.9497 81.9256 44.0288 82.8447L44.1586 84.3318" stroke="white" stroke-linecap="round" stroke-linejoin="round"/>
<path d="M44.1113 86.5549V90.9994" stroke="white" stroke-linecap="round" stroke-linejoin="round"/>
<path d="M46.3331 88.7771H41.8887" stroke="white" stroke-linecap="round" stroke-linejoin="round"/>
</g>
<path d="M75.034 81.817C74.1933 82.6923 73.162 83.13 71.94 83.13C70.718 83.13 69.6867 82.6923 68.846 81.817C68.0053 80.9417 67.585 79.8193 67.585 78.45C67.585 77.0807 68.0053 75.9583 68.846 75.083C69.6867 74.2077 70.718 73.77 71.94 73.77C73.162 73.77 74.1933 74.2077 75.034 75.083C75.8747 75.9583 76.295 77.0807 76.295 78.45C76.295 79.8193 75.8747 80.9417 75.034 81.817ZM74.085 75.993C73.5217 75.3777 72.8067 75.07 71.94 75.07C71.0733 75.07 70.3583 75.3777 69.795 75.993C69.2317 76.6083 68.95 77.4273 68.95 78.45C68.95 79.4727 69.2317 80.2917 69.795 80.907C70.3583 81.5223 71.0733 81.83 71.94 81.83C72.8067 81.83 73.5217 81.5223 74.085 80.907C74.6483 80.2917 74.93 79.4727 74.93 78.45C74.93 77.4273 74.6483 76.6083 74.085 75.993ZM82.597 83L82.467 82.22H82.402C81.9426 82.8267 81.271 83.13 80.387 83.13C79.5203 83.13 78.8053 82.8223 78.242 82.207C77.6786 81.5917 77.397 80.7727 77.397 79.75C77.397 78.7273 77.6786 77.9083 78.242 77.293C78.8053 76.6777 79.5203 76.37 80.387 76.37C80.7683 76.37 81.115 76.4393 81.427 76.578C81.7476 76.708 81.9556 76.8207 82.051 76.916C82.1463 77.0027 82.2633 77.124 82.402 77.28H82.467V73.9H83.767V83H82.597ZM79.23 81.349C79.594 81.7563 80.0446 81.96 80.582 81.96C81.1193 81.96 81.5656 81.7563 81.921 81.349C82.285 80.9417 82.467 80.4087 82.467 79.75C82.467 79.0913 82.285 78.5583 81.921 78.151C81.5656 77.7437 81.1193 77.54 80.582 77.54C80.0446 77.54 79.594 77.7437 79.23 78.151C78.8746 78.5583 78.697 79.0913 78.697 79.75C78.697 80.4087 78.8746 80.9417 79.23 81.349ZM86.4919 79.23H90.3269C90.2575 78.7013 90.0539 78.2767 89.7159 77.956C89.3779 77.6353 88.9532 77.475 88.4419 77.475C87.9045 77.475 87.4712 77.6353 87.1419 77.956C86.8125 78.268 86.5959 78.6927 86.4919 79.23ZM90.0019 81.115H91.3669C91.1762 81.635 90.8295 82.103 90.3269 82.519C89.8329 82.9263 89.2045 83.13 88.4419 83.13C87.4972 83.13 86.7172 82.818 86.1019 82.194C85.4952 81.57 85.1919 80.7553 85.1919 79.75C85.1919 78.7447 85.4952 77.93 86.1019 77.306C86.7172 76.682 87.4972 76.37 88.4419 76.37C89.3259 76.37 90.0669 76.6733 90.6649 77.28C91.2629 77.8867 91.5619 78.645 91.5619 79.555C91.5619 79.633 91.5489 79.789 91.5229 80.023L91.4969 80.205H86.4919C86.5612 80.7597 86.7735 81.2017 87.1289 81.531C87.4842 81.8603 87.9219 82.025 88.4419 82.025C88.8059 82.025 89.1265 81.9383 89.4039 81.765C89.6899 81.583 89.8892 81.3663 90.0019 81.115ZM92.9309 83V76.5H94.0359L94.1659 77.085H94.2309C94.2396 77.0763 94.2656 77.046 94.3089 76.994C94.3609 76.942 94.3913 76.9073 94.3999 76.89C94.4173 76.8727 94.4519 76.8423 94.5039 76.799C94.5559 76.747 94.5993 76.7123 94.6339 76.695C94.6686 76.6777 94.7163 76.656 94.7769 76.63C94.8376 76.5953 94.8983 76.5737 94.9589 76.565C95.0283 76.5477 95.1063 76.5347 95.1929 76.526C95.2796 76.5087 95.3706 76.5 95.4659 76.5H96.6359V77.67H95.5959C94.6859 77.67 94.2309 78.1207 94.2309 79.022V83H92.9309ZM101.777 78.45H104.442C104.814 78.45 105.135 78.2983 105.404 77.995C105.672 77.6917 105.807 77.3017 105.807 76.825C105.807 76.3483 105.672 75.9583 105.404 75.655C105.135 75.3517 104.814 75.2 104.442 75.2H101.777V78.45ZM100.412 83V73.9H104.507C105.269 73.9 105.902 74.173 106.405 74.719C106.916 75.2563 107.172 75.9583 107.172 76.825C107.172 77.6917 106.916 78.398 106.405 78.944C105.902 79.4813 105.269 79.75 104.507 79.75H101.777V83H100.412ZM108.662 83V73.9H109.962V83H108.662ZM115.945 83L115.815 82.285H115.75C115.62 82.4497 115.464 82.5927 115.282 82.714C114.866 82.9913 114.372 83.13 113.8 83.13C113.089 83.13 112.522 82.9437 112.097 82.571C111.672 82.1983 111.46 81.713 111.46 81.115C111.46 80.4477 111.681 79.9233 112.123 79.542C112.574 79.1607 113.241 78.97 114.125 78.97H115.75V78.84C115.75 78.4153 115.629 78.0817 115.386 77.839C115.143 77.5963 114.81 77.475 114.385 77.475C113.969 77.475 113.648 77.5703 113.423 77.761C113.198 77.943 113.063 78.151 113.02 78.385H111.72C111.755 77.813 112.01 77.3363 112.487 76.955C112.964 76.565 113.596 76.37 114.385 76.37C115.226 76.37 115.88 76.591 116.348 77.033C116.816 77.475 117.05 78.0773 117.05 78.84V83H115.945ZM115.75 80.27V80.01H114.19C113.713 80.01 113.354 80.1053 113.111 80.296C112.877 80.4867 112.76 80.738 112.76 81.05C112.76 81.3533 112.86 81.5917 113.059 81.765C113.258 81.9383 113.549 82.025 113.93 82.025C114.519 82.025 114.97 81.8733 115.282 81.57C115.594 81.258 115.75 80.8247 115.75 80.27ZM123.292 80.725H124.592C124.531 80.9937 124.432 81.258 124.293 81.518C124.163 81.778 123.981 82.0337 123.747 82.285C123.522 82.5363 123.223 82.74 122.85 82.896C122.477 83.052 122.061 83.13 121.602 83.13C120.657 83.13 119.877 82.818 119.262 82.194C118.655 81.57 118.352 80.7553 118.352 79.75C118.352 78.7447 118.655 77.93 119.262 77.306C119.877 76.682 120.657 76.37 121.602 76.37C122.469 76.37 123.149 76.617 123.643 77.111C124.137 77.5963 124.453 78.1293 124.592 78.71H123.292C123.015 77.93 122.451 77.54 121.602 77.54C121.039 77.54 120.571 77.7437 120.198 78.151C119.834 78.5497 119.652 79.0827 119.652 79.75C119.652 80.4173 119.834 80.9547 120.198 81.362C120.571 81.7607 121.039 81.96 121.602 81.96C122.07 81.96 122.447 81.8343 122.733 81.583C123.019 81.3317 123.205 81.0457 123.292 80.725ZM126.863 79.23H130.698C130.629 78.7013 130.425 78.2767 130.087 77.956C129.749 77.6353 129.324 77.475 128.813 77.475C128.276 77.475 127.842 77.6353 127.513 77.956C127.184 78.268 126.967 78.6927 126.863 79.23ZM130.373 81.115H131.738C131.547 81.635 131.201 82.103 130.698 82.519C130.204 82.9263 129.576 83.13 128.813 83.13C127.868 83.13 127.088 82.818 126.473 82.194C125.866 81.57 125.563 80.7553 125.563 79.75C125.563 78.7447 125.866 77.93 126.473 77.306C127.088 76.682 127.868 76.37 128.813 76.37C129.697 76.37 130.438 76.6733 131.036 77.28C131.634 77.8867 131.933 78.645 131.933 79.555C131.933 79.633 131.92 79.789 131.894 80.023L131.868 80.205H126.863C126.932 80.7597 127.145 81.2017 127.5 81.531C127.855 81.8603 128.293 82.025 128.813 82.025C129.177 82.025 129.498 81.9383 129.775 81.765C130.061 81.583 130.26 81.3663 130.373 81.115Z" fill="white"/>
<path d="M67.715 102V101.155L71.42 97.19C71.6973 96.8867 71.8967 96.618 72.018 96.384C72.1393 96.1413 72.2 95.8467 72.2 95.5C72.2 94.98 72.0353 94.5597 71.706 94.239C71.3853 93.9097 70.965 93.745 70.445 93.745C69.951 93.745 69.535 93.927 69.197 94.291C68.859 94.655 68.69 95.123 68.69 95.695H67.65C67.65 94.8457 67.91 94.148 68.43 93.602C68.9587 93.0473 69.6303 92.77 70.445 92.77C71.2597 92.77 71.927 93.0257 72.447 93.537C72.9757 94.0397 73.24 94.694 73.24 95.5C73.24 96.0027 73.149 96.4317 72.967 96.787C72.785 97.1337 72.5077 97.5063 72.135 97.905L69.21 100.96V101.025H73.435V102H67.715ZM75.686 100.895C75.01 100.072 74.672 98.9233 74.672 97.45C74.672 95.9767 75.01 94.8283 75.686 94.005C76.362 93.1817 77.194 92.77 78.182 92.77C79.17 92.77 80.002 93.1817 80.678 94.005C81.354 94.8283 81.692 95.9767 81.692 97.45C81.692 98.9233 81.354 100.072 80.678 100.895C80.002 101.718 79.17 102.13 78.182 102.13C77.194 102.13 76.362 101.718 75.686 100.895ZM79.937 94.72C79.4604 94.07 78.8754 93.745 78.182 93.745C77.4887 93.745 76.9037 94.07 76.427 94.72C75.9504 95.37 75.712 96.28 75.712 97.45C75.712 98.62 75.9504 99.53 76.427 100.18C76.9037 100.83 77.4887 101.155 78.182 101.155C78.8754 101.155 79.4604 100.83 79.937 100.18C80.4137 99.53 80.652 98.62 80.652 97.45C80.652 96.28 80.4137 95.37 79.937 94.72ZM86.4482 102V92.9H87.4882V102H86.4482ZM89.8963 100.895V96.41H88.8563V95.5H89.8963V93.68H90.8713V95.5H92.3663V96.41H90.8713V100.7C90.8713 100.96 91.0013 101.09 91.2613 101.09H92.3663V102H91.0663C90.7023 102 90.4163 101.9 90.2083 101.701C90.0003 101.502 89.8963 101.233 89.8963 100.895ZM98.0903 100.18H99.1303C98.905 100.804 98.5496 101.285 98.0643 101.623C97.5876 101.961 97.0113 102.13 96.3353 102.13C95.4426 102.13 94.6973 101.818 94.0993 101.194C93.51 100.561 93.2153 99.7467 93.2153 98.75C93.2153 97.7533 93.51 96.943 94.0993 96.319C94.6973 95.6863 95.4426 95.37 96.3353 95.37C97.1933 95.37 97.904 95.6647 98.4673 96.254C99.0393 96.8433 99.3253 97.5887 99.3253 98.49C99.3253 98.6287 99.3123 98.815 99.2863 99.049L99.2603 99.205H94.1903C94.2596 99.8117 94.4936 100.301 94.8923 100.674C95.2996 101.038 95.7806 101.22 96.3353 101.22C96.7253 101.22 97.072 101.129 97.3753 100.947C97.6873 100.765 97.9256 100.509 98.0903 100.18ZM94.1903 98.295H98.3503C98.3156 97.7057 98.1076 97.2247 97.7263 96.852C97.3536 96.4707 96.89 96.28 96.3353 96.28C95.7546 96.28 95.2693 96.4663 94.8793 96.839C94.4893 97.2117 94.2596 97.697 94.1903 98.295ZM100.753 102V95.5H101.598L101.728 96.215H101.793C101.923 96.059 102.074 95.9203 102.248 95.799C102.655 95.513 103.067 95.37 103.483 95.37C104.046 95.37 104.531 95.5563 104.939 95.929C105.112 96.085 105.255 96.267 105.368 96.475H105.433C105.58 96.2583 105.758 96.0763 105.966 95.929C106.442 95.5563 106.98 95.37 107.578 95.37C108.254 95.37 108.813 95.6083 109.255 96.085C109.697 96.553 109.918 97.1597 109.918 97.905V102H108.943V97.905C108.943 97.411 108.808 97.0167 108.54 96.722C108.271 96.4273 107.907 96.28 107.448 96.28C107.014 96.28 106.633 96.4403 106.304 96.761C105.983 97.073 105.823 97.4543 105.823 97.905V102H104.848V97.905C104.848 97.411 104.713 97.0167 104.445 96.722C104.176 96.4273 103.812 96.28 103.353 96.28C102.919 96.28 102.538 96.4403 102.209 96.761C101.888 97.073 101.728 97.4543 101.728 97.905V102H100.753Z" fill="white"/>
<path d="M122.182 93.404C122.901 94.2907 123.26 95.5227 123.26 97.1C123.26 98.6773 122.901 99.914 122.182 100.81C121.463 101.697 120.586 102.14 119.55 102.14C118.514 102.14 117.637 101.697 116.918 100.81C116.199 99.914 115.84 98.6773 115.84 97.1C115.84 95.5227 116.199 94.2907 116.918 93.404C117.637 92.508 118.514 92.06 119.55 92.06C120.586 92.06 121.463 92.508 122.182 93.404ZM116.68 97.1C116.68 98.4347 116.96 99.4707 117.52 100.208C118.089 100.936 118.766 101.3 119.55 101.3C120.334 101.3 121.006 100.936 121.566 100.208C122.135 99.4707 122.42 98.4347 122.42 97.1C122.42 95.784 122.135 94.7573 121.566 94.02C121.006 93.2733 120.334 92.9 119.55 92.9C118.766 92.9 118.089 93.2733 117.52 94.02C116.96 94.7573 116.68 95.784 116.68 97.1ZM125.628 102L129.212 93.04H124.102V92.2H130.122V92.9L126.482 102H125.628ZM130.821 98.36V97.59H135.301V98.36H130.821ZM143.182 93.404C143.901 94.2907 144.26 95.5227 144.26 97.1C144.26 98.6773 143.901 99.914 143.182 100.81C142.463 101.697 141.586 102.14 140.55 102.14C139.514 102.14 138.637 101.697 137.918 100.81C137.199 99.914 136.84 98.6773 136.84 97.1C136.84 95.5227 137.199 94.2907 137.918 93.404C138.637 92.508 139.514 92.06 140.55 92.06C141.586 92.06 142.463 92.508 143.182 93.404ZM137.68 97.1C137.68 98.4347 137.96 99.4707 138.52 100.208C139.089 100.936 139.766 101.3 140.55 101.3C141.334 101.3 142.006 100.936 142.566 100.208C143.135 99.4707 143.42 98.4347 143.42 97.1C143.42 95.784 143.135 94.7573 142.566 94.02C142.006 93.2733 141.334 92.9 140.55 92.9C139.766 92.9 139.089 93.2733 138.52 94.02C137.96 94.7573 137.68 95.784 137.68 97.1ZM150.607 96.008C150.999 95.644 151.195 95.2147 151.195 94.72C151.195 94.2253 150.999 93.8007 150.607 93.446C150.215 93.082 149.711 92.9 149.095 92.9C148.479 92.9 147.975 93.082 147.583 93.446C147.191 93.8007 146.995 94.2253 146.995 94.72C146.995 95.2147 147.191 95.644 147.583 96.008C147.975 96.3627 148.479 96.54 149.095 96.54C149.711 96.54 150.215 96.3627 150.607 96.008ZM147.429 97.954C147 98.3367 146.785 98.7987 146.785 99.34C146.785 99.8813 147 100.343 147.429 100.726C147.859 101.109 148.414 101.3 149.095 101.3C149.777 101.3 150.332 101.109 150.761 100.726C151.191 100.343 151.405 99.8813 151.405 99.34C151.405 98.7987 151.191 98.3367 150.761 97.954C150.332 97.5713 149.777 97.38 149.095 97.38C148.414 97.38 147.859 97.5713 147.429 97.954ZM147.625 96.96V96.89C147.327 96.7593 147.079 96.6007 146.883 96.414C146.398 95.9847 146.155 95.42 146.155 94.72C146.155 93.9733 146.431 93.3433 146.981 92.83C147.532 92.3167 148.237 92.06 149.095 92.06C149.954 92.06 150.659 92.3167 151.209 92.83C151.76 93.3433 152.035 93.9733 152.035 94.72C152.035 95.4107 151.788 95.9753 151.293 96.414C151.107 96.5913 150.864 96.75 150.565 96.89V96.96C150.883 97.0813 151.163 97.2587 151.405 97.492C151.965 97.9773 152.245 98.5933 152.245 99.34C152.245 100.124 151.951 100.787 151.363 101.328C150.785 101.869 150.029 102.14 149.095 102.14C148.162 102.14 147.401 101.869 146.813 101.328C146.235 100.787 145.945 100.124 145.945 99.34C145.945 98.5933 146.225 97.9773 146.785 97.492C147.028 97.2587 147.308 97.0813 147.625 96.96ZM153.79 98.36V97.59H158.27V98.36H153.79ZM159.809 102V101.23L163.869 96.96C164.475 96.3533 164.779 95.7 164.779 95C164.779 94.3653 164.587 93.8567 164.205 93.474C163.822 93.0913 163.313 92.9 162.679 92.9C162.072 92.9 161.568 93.1147 161.167 93.544C160.775 93.964 160.579 94.5193 160.579 95.21H159.739C159.739 94.2673 160.014 93.5067 160.565 92.928C161.125 92.3493 161.829 92.06 162.679 92.06C163.556 92.06 164.265 92.3307 164.807 92.872C165.348 93.4133 165.619 94.1227 165.619 95C165.619 95.4013 165.553 95.77 165.423 96.106C165.301 96.4327 165.171 96.6847 165.031 96.862C164.9 97.0393 164.699 97.2727 164.429 97.562L161.069 101.09V101.16H165.829V102H159.809ZM173.711 93.404C174.43 94.2907 174.789 95.5227 174.789 97.1C174.789 98.6773 174.43 99.914 173.711 100.81C172.993 101.697 172.115 102.14 171.079 102.14C170.043 102.14 169.166 101.697 168.447 100.81C167.729 99.914 167.369 98.6773 167.369 97.1C167.369 95.5227 167.729 94.2907 168.447 93.404C169.166 92.508 170.043 92.06 171.079 92.06C172.115 92.06 172.993 92.508 173.711 93.404ZM168.209 97.1C168.209 98.4347 168.489 99.4707 169.049 100.208C169.619 100.936 170.295 101.3 171.079 101.3C171.863 101.3 172.535 100.936 173.095 100.208C173.665 99.4707 173.949 98.4347 173.949 97.1C173.949 95.784 173.665 94.7573 173.095 94.02C172.535 93.2733 171.863 92.9 171.079 92.9C170.295 92.9 169.619 93.2733 169.049 94.02C168.489 94.7573 168.209 95.784 168.209 97.1ZM176.475 102V101.23L180.535 96.96C181.141 96.3533 181.445 95.7 181.445 95C181.445 94.3653 181.253 93.8567 180.871 93.474C180.488 93.0913 179.979 92.9 179.345 92.9C178.738 92.9 178.234 93.1147 177.833 93.544C177.441 93.964 177.245 94.5193 177.245 95.21H176.405C176.405 94.2673 176.68 93.5067 177.231 92.928C177.791 92.3493 178.495 92.06 179.345 92.06C180.222 92.06 180.931 92.3307 181.473 92.872C182.014 93.4133 182.285 94.1227 182.285 95C182.285 95.4013 182.219 95.77 182.089 96.106C181.967 96.4327 181.837 96.6847 181.697 96.862C181.566 97.0393 181.365 97.2727 181.095 97.562L177.735 101.09V101.16H182.495V102H176.475ZM183.191 99.69V98.99L187.041 92.2H188.581V98.85H189.981V99.69H188.581V102H187.741V99.69H183.191ZM184.311 98.85H187.741V93.18H187.461L184.311 98.78V98.85Z" fill="#E4E4E7"/>
<path d="M539.07 78.43V77.1H542.22C542.985 77.1 543.475 76.7267 543.69 75.98H539.07V74.65H543.69C543.475 73.9033 542.985 73.53 542.22 73.53H539.07V72.2H546.07V73.53H544.74C544.796 73.6047 544.847 73.6933 544.894 73.796C544.968 73.936 545.062 74.2207 545.174 74.65H546.07V75.98H545.174C545.024 76.7547 544.702 77.3567 544.208 77.786C543.713 78.2153 543.097 78.43 542.36 78.43H541.94L545.44 82H543.55L540.05 78.43H539.07ZM548.874 82V74.65H546.844V73.25H548.454C548.734 73.25 548.874 73.11 548.874 72.83V72.2H550.344V82H548.874ZM552.019 83.19L552.299 80.39H553.909L553.139 83.19H552.019ZM555.314 79.34H556.784C556.868 79.732 557.068 80.0633 557.386 80.334C557.712 80.6047 558.142 80.74 558.674 80.74C559.271 80.74 559.747 80.5627 560.102 80.208C560.456 79.8533 560.634 79.3773 560.634 78.78C560.634 78.22 560.452 77.7673 560.088 77.422C559.733 77.0673 559.262 76.89 558.674 76.89C557.974 76.89 557.437 77.1233 557.064 77.59H555.524L556.084 72.2H561.544V73.6H557.344L557.064 75.98H557.134C557.638 75.6533 558.221 75.49 558.884 75.49C559.808 75.49 560.573 75.8027 561.18 76.428C561.796 77.044 562.104 77.828 562.104 78.78C562.104 79.76 561.782 80.5673 561.138 81.202C560.503 81.8273 559.682 82.14 558.674 82.14C558.123 82.14 557.628 82.0513 557.19 81.874C556.76 81.6967 556.42 81.4633 556.168 81.174C555.916 80.8847 555.72 80.586 555.58 80.278C555.449 79.97 555.36 79.6573 555.314 79.34ZM569.092 79.802C569.568 79.1673 569.806 78.2667 569.806 77.1C569.806 75.9333 569.568 75.0373 569.092 74.412C568.616 73.7773 568.038 73.46 567.356 73.46C566.675 73.46 566.096 73.7773 565.62 74.412C565.144 75.0373 564.906 75.9333 564.906 77.1C564.906 78.2667 565.144 79.1673 565.62 79.802C566.096 80.4273 566.675 80.74 567.356 80.74C568.038 80.74 568.616 80.4273 569.092 79.802ZM564.57 73.418C565.326 72.5127 566.255 72.06 567.356 72.06C568.458 72.06 569.386 72.5127 570.142 73.418C570.898 74.3233 571.276 75.5507 571.276 77.1C571.276 78.6493 570.898 79.8767 570.142 80.782C569.386 81.6873 568.458 82.14 567.356 82.14C566.255 82.14 565.326 81.6873 564.57 80.782C563.814 79.8767 563.436 78.6493 563.436 77.1C563.436 75.5507 563.814 74.3233 564.57 73.418ZM578.335 79.802C578.811 79.1673 579.049 78.2667 579.049 77.1C579.049 75.9333 578.811 75.0373 578.335 74.412C577.859 73.7773 577.28 73.46 576.599 73.46C575.917 73.46 575.339 73.7773 574.863 74.412C574.387 75.0373 574.149 75.9333 574.149 77.1C574.149 78.2667 574.387 79.1673 574.863 79.802C575.339 80.4273 575.917 80.74 576.599 80.74C577.28 80.74 577.859 80.4273 578.335 79.802ZM573.813 73.418C574.569 72.5127 575.497 72.06 576.599 72.06C577.7 72.06 578.629 72.5127 579.385 73.418C580.141 74.3233 580.519 75.5507 580.519 77.1C580.519 78.6493 580.141 79.8767 579.385 80.782C578.629 81.6873 577.7 82.14 576.599 82.14C575.497 82.14 574.569 81.6873 573.813 80.782C573.057 79.8767 572.679 78.6493 572.679 77.1C572.679 75.5507 573.057 74.3233 573.813 73.418ZM582.061 82V80.39H583.671V82H582.061ZM590.872 79.802C591.348 79.1673 591.586 78.2667 591.586 77.1C591.586 75.9333 591.348 75.0373 590.872 74.412C590.396 73.7773 589.817 73.46 589.136 73.46C588.454 73.46 587.876 73.7773 587.4 74.412C586.924 75.0373 586.686 75.9333 586.686 77.1C586.686 78.2667 586.924 79.1673 587.4 79.802C587.876 80.4273 588.454 80.74 589.136 80.74C589.817 80.74 590.396 80.4273 590.872 79.802ZM586.35 73.418C587.106 72.5127 588.034 72.06 589.136 72.06C590.237 72.06 591.166 72.5127 591.922 73.418C592.678 74.3233 593.056 75.5507 593.056 77.1C593.056 78.6493 592.678 79.8767 591.922 80.782C591.166 81.6873 590.237 82.14 589.136 82.14C588.034 82.14 587.106 81.6873 586.35 80.782C585.594 79.8767 585.216 78.6493 585.216 77.1C585.216 75.5507 585.594 74.3233 586.35 73.418ZM600.114 79.802C600.59 79.1673 600.828 78.2667 600.828 77.1C600.828 75.9333 600.59 75.0373 600.114 74.412C599.638 73.7773 599.059 73.46 598.378 73.46C597.696 73.46 597.118 73.7773 596.642 74.412C596.166 75.0373 595.928 75.9333 595.928 77.1C595.928 78.2667 596.166 79.1673 596.642 79.802C597.118 80.4273 597.696 80.74 598.378 80.74C599.059 80.74 599.638 80.4273 600.114 79.802ZM595.592 73.418C596.348 72.5127 597.276 72.06 598.378 72.06C599.479 72.06 600.408 72.5127 601.164 73.418C601.92 74.3233 602.298 75.5507 602.298 77.1C602.298 78.6493 601.92 79.8767 601.164 80.782C600.408 81.6873 599.479 82.14 598.378 82.14C597.276 82.14 596.348 81.6873 595.592 80.782C594.836 79.8767 594.458 78.6493 594.458 77.1C594.458 75.5507 594.836 74.3233 595.592 73.418Z" fill="white"/>
<path d="M23 130C23 127.791 24.7909 126 27 126H51C53.2091 126 55 127.791 55 130V154C55 156.209 53.2091 158 51 158H27C24.7909 158 23 156.209 23 154V130Z" fill="white" fill-opacity="0.1"/>
<g clip-path="url(#clip1_3550_99512)">
<path fill-rule="evenodd" clip-rule="evenodd" d="M42.259 138.221H35.7408C34.819 138.221 34.0492 138.926 33.9692 139.845L33.3897 146.511C33.299 147.55 34.1177 148.443 35.1603 148.443H41.8883V147.776C40.7838 147.776 39.8883 146.881 39.8883 145.776C39.8883 144.672 40.7838 143.776 41.8883 143.776H42.1106V143.554C42.1106 142.449 43.006 141.554 44.1106 141.554C44.1332 141.554 44.1559 141.554 44.1784 141.555L44.0297 139.845C43.9506 138.926 43.1808 138.221 42.259 138.221Z" fill="#E4E4E7"/>
<path d="M37 138.222V136.666C37 135.561 37.8951 134.666 39 134.666C40.1049 134.666 41 135.561 41 136.666V138.222" stroke="white" stroke-linecap="round" stroke-linejoin="round"/>
<path d="M41.9337 148.443H35.1603C34.1177 148.443 33.299 147.55 33.3897 146.511L33.9692 139.845C34.0492 138.926 34.8181 138.221 35.7399 138.221H42.2581C43.1799 138.221 43.9497 138.926 44.0288 139.845L44.1586 141.332" stroke="white" stroke-linecap="round" stroke-linejoin="round"/>
<path d="M44.1113 143.555V147.999" stroke="white" stroke-linecap="round" stroke-linejoin="round"/>
<path d="M46.3331 145.777H41.8887" stroke="white" stroke-linecap="round" stroke-linejoin="round"/>
</g>
<path d="M75.034 138.817C74.1933 139.692 73.162 140.13 71.94 140.13C70.718 140.13 69.6867 139.692 68.846 138.817C68.0053 137.942 67.585 136.819 67.585 135.45C67.585 134.081 68.0053 132.958 68.846 132.083C69.6867 131.208 70.718 130.77 71.94 130.77C73.162 130.77 74.1933 131.208 75.034 132.083C75.8747 132.958 76.295 134.081 76.295 135.45C76.295 136.819 75.8747 137.942 75.034 138.817ZM74.085 132.993C73.5217 132.378 72.8067 132.07 71.94 132.07C71.0733 132.07 70.3583 132.378 69.795 132.993C69.2317 133.608 68.95 134.427 68.95 135.45C68.95 136.473 69.2317 137.292 69.795 137.907C70.3583 138.522 71.0733 138.83 71.94 138.83C72.8067 138.83 73.5217 138.522 74.085 137.907C74.6483 137.292 74.93 136.473 74.93 135.45C74.93 134.427 74.6483 133.608 74.085 132.993ZM82.597 140L82.467 139.22H82.402C81.9426 139.827 81.271 140.13 80.387 140.13C79.5203 140.13 78.8053 139.822 78.242 139.207C77.6786 138.592 77.397 137.773 77.397 136.75C77.397 135.727 77.6786 134.908 78.242 134.293C78.8053 133.678 79.5203 133.37 80.387 133.37C80.7683 133.37 81.115 133.439 81.427 133.578C81.7476 133.708 81.9556 133.821 82.051 133.916C82.1463 134.003 82.2633 134.124 82.402 134.28H82.467V130.9H83.767V140H82.597ZM79.23 138.349C79.594 138.756 80.0446 138.96 80.582 138.96C81.1193 138.96 81.5656 138.756 81.921 138.349C82.285 137.942 82.467 137.409 82.467 136.75C82.467 136.091 82.285 135.558 81.921 135.151C81.5656 134.744 81.1193 134.54 80.582 134.54C80.0446 134.54 79.594 134.744 79.23 135.151C78.8746 135.558 78.697 136.091 78.697 136.75C78.697 137.409 78.8746 137.942 79.23 138.349ZM86.4919 136.23H90.3269C90.2575 135.701 90.0539 135.277 89.7159 134.956C89.3779 134.635 88.9532 134.475 88.4419 134.475C87.9045 134.475 87.4712 134.635 87.1419 134.956C86.8125 135.268 86.5959 135.693 86.4919 136.23ZM90.0019 138.115H91.3669C91.1762 138.635 90.8295 139.103 90.3269 139.519C89.8329 139.926 89.2045 140.13 88.4419 140.13C87.4972 140.13 86.7172 139.818 86.1019 139.194C85.4952 138.57 85.1919 137.755 85.1919 136.75C85.1919 135.745 85.4952 134.93 86.1019 134.306C86.7172 133.682 87.4972 133.37 88.4419 133.37C89.3259 133.37 90.0669 133.673 90.6649 134.28C91.2629 134.887 91.5619 135.645 91.5619 136.555C91.5619 136.633 91.5489 136.789 91.5229 137.023L91.4969 137.205H86.4919C86.5612 137.76 86.7735 138.202 87.1289 138.531C87.4842 138.86 87.9219 139.025 88.4419 139.025C88.8059 139.025 89.1265 138.938 89.4039 138.765C89.6899 138.583 89.8892 138.366 90.0019 138.115ZM92.9309 140V133.5H94.0359L94.1659 134.085H94.2309C94.2396 134.076 94.2656 134.046 94.3089 133.994C94.3609 133.942 94.3913 133.907 94.3999 133.89C94.4173 133.873 94.4519 133.842 94.5039 133.799C94.5559 133.747 94.5993 133.712 94.6339 133.695C94.6686 133.678 94.7163 133.656 94.7769 133.63C94.8376 133.595 94.8983 133.574 94.9589 133.565C95.0283 133.548 95.1063 133.535 95.1929 133.526C95.2796 133.509 95.3706 133.5 95.4659 133.5H96.6359V134.67H95.5959C94.6859 134.67 94.2309 135.121 94.2309 136.022V140H92.9309ZM107.042 136.88H108.472C108.385 137.261 108.238 137.634 108.03 137.998C107.83 138.362 107.566 138.709 107.237 139.038C106.907 139.367 106.496 139.632 106.002 139.831C105.508 140.03 104.966 140.13 104.377 140.13C103.155 140.13 102.123 139.692 101.283 138.817C100.442 137.942 100.022 136.819 100.022 135.45C100.022 134.081 100.442 132.958 101.283 132.083C102.123 131.208 103.155 130.77 104.377 130.77C105.451 130.77 106.348 131.082 107.068 131.706C107.796 132.321 108.264 133.071 108.472 133.955H107.042C106.816 133.348 106.465 132.885 105.989 132.564C105.512 132.235 104.975 132.07 104.377 132.07C103.51 132.07 102.795 132.378 102.232 132.993C101.668 133.608 101.387 134.427 101.387 135.45C101.387 136.473 101.668 137.292 102.232 137.907C102.795 138.522 103.51 138.83 104.377 138.83C105.07 138.83 105.642 138.644 106.093 138.271C106.552 137.89 106.868 137.426 107.042 136.88ZM111.299 138.362C111.671 138.761 112.139 138.96 112.703 138.96C113.266 138.96 113.73 138.761 114.094 138.362C114.466 137.955 114.653 137.417 114.653 136.75C114.653 136.083 114.466 135.55 114.094 135.151C113.73 134.744 113.266 134.54 112.703 134.54C112.139 134.54 111.671 134.744 111.299 135.151C110.935 135.55 110.753 136.083 110.753 136.75C110.753 137.417 110.935 137.955 111.299 138.362ZM115.03 139.194C114.423 139.818 113.647 140.13 112.703 140.13C111.758 140.13 110.978 139.818 110.363 139.194C109.756 138.57 109.453 137.755 109.453 136.75C109.453 135.745 109.756 134.93 110.363 134.306C110.978 133.682 111.758 133.37 112.703 133.37C113.647 133.37 114.423 133.682 115.03 134.306C115.645 134.93 115.953 135.745 115.953 136.75C115.953 137.755 115.645 138.57 115.03 139.194ZM117.319 140V133.5H118.489L118.619 134.15H118.684C118.831 134.003 118.991 133.873 119.165 133.76C119.581 133.5 120.049 133.37 120.569 133.37C121.357 133.37 121.986 133.617 122.454 134.111C122.93 134.596 123.169 135.259 123.169 136.1V140H121.869V136.1C121.869 135.675 121.717 135.311 121.414 135.008C121.119 134.696 120.751 134.54 120.309 134.54C119.832 134.54 119.429 134.696 119.1 135.008C118.779 135.311 118.619 135.675 118.619 136.1V140H117.319ZM125.316 140V134.735H124.276V133.5H125.316V132.33C125.316 131.94 125.446 131.615 125.706 131.355C125.966 131.095 126.291 130.965 126.681 130.965H127.851V132.135H127.006C126.746 132.135 126.616 132.265 126.616 132.525V133.5H130.061V140H128.761V134.735H126.616V140H125.316ZM128.696 132.33V130.965H130.126V132.33H128.696ZM131.753 140V133.5H132.858L132.988 134.085H133.053C133.062 134.076 133.088 134.046 133.131 133.994C133.183 133.942 133.214 133.907 133.222 133.89C133.24 133.873 133.274 133.842 133.326 133.799C133.378 133.747 133.422 133.712 133.456 133.695C133.491 133.678 133.539 133.656 133.599 133.63C133.66 133.595 133.721 133.574 133.781 133.565C133.851 133.548 133.929 133.535 134.015 133.526C134.102 133.509 134.193 133.5 134.288 133.5H135.458V134.67H134.418C133.508 134.67 133.053 135.121 133.053 136.022V140H131.753ZM136.438 140V133.5H137.608L137.738 134.15H137.803C137.924 134.011 138.076 133.881 138.258 133.76C138.656 133.5 139.068 133.37 139.493 133.37C140.03 133.37 140.485 133.522 140.858 133.825C141.022 133.981 141.152 134.133 141.248 134.28H141.313C141.425 134.133 141.594 133.981 141.82 133.825C142.305 133.522 142.851 133.37 143.458 133.37C144.134 133.37 144.693 133.608 145.135 134.085C145.577 134.553 145.798 135.155 145.798 135.892V140H144.498V135.905C144.498 135.489 144.376 135.16 144.134 134.917C143.9 134.666 143.588 134.54 143.198 134.54C142.799 134.54 142.461 134.67 142.184 134.93C141.906 135.19 141.768 135.515 141.768 135.905V140H140.468V135.905C140.468 135.489 140.346 135.16 140.104 134.917C139.87 134.666 139.558 134.54 139.168 134.54C138.769 134.54 138.431 134.67 138.154 134.93C137.876 135.19 137.738 135.515 137.738 135.905V140H136.438Z" fill="white"/>
<path d="M68.69 159L71.888 150.875H67.325V149.9H73.045V150.745L69.795 159H68.69ZM77.4726 159V149.9H78.5126V159H77.4726ZM80.9207 157.895V153.41H79.8807V152.5H80.9207V150.68H81.8957V152.5H83.3907V153.41H81.8957V157.7C81.8957 157.96 82.0257 158.09 82.2857 158.09H83.3907V159H82.0907C81.7267 159 81.4407 158.9 81.2327 158.701C81.0247 158.502 80.9207 158.233 80.9207 157.895ZM89.1147 157.18H90.1547C89.9294 157.804 89.5741 158.285 89.0887 158.623C88.6121 158.961 88.0357 159.13 87.3597 159.13C86.4671 159.13 85.7217 158.818 85.1237 158.194C84.5344 157.561 84.2397 156.747 84.2397 155.75C84.2397 154.753 84.5344 153.943 85.1237 153.319C85.7217 152.686 86.4671 152.37 87.3597 152.37C88.2177 152.37 88.9284 152.665 89.4917 153.254C90.0637 153.843 90.3497 154.589 90.3497 155.49C90.3497 155.629 90.3367 155.815 90.3107 156.049L90.2847 156.205H85.2147C85.2841 156.812 85.5181 157.301 85.9167 157.674C86.3241 158.038 86.8051 158.22 87.3597 158.22C87.7497 158.22 88.0964 158.129 88.3997 157.947C88.7117 157.765 88.9501 157.509 89.1147 157.18ZM85.2147 155.295H89.3747C89.3401 154.706 89.1321 154.225 88.7507 153.852C88.3781 153.471 87.9144 153.28 87.3597 153.28C86.7791 153.28 86.2937 153.466 85.9037 153.839C85.5137 154.212 85.2841 154.697 85.2147 155.295ZM91.7772 159V152.5H92.6222L92.7522 153.215H92.8172C92.9472 153.059 93.0989 152.92 93.2722 152.799C93.6795 152.513 94.0912 152.37 94.5072 152.37C95.0705 152.37 95.5559 152.556 95.9632 152.929C96.1365 153.085 96.2795 153.267 96.3922 153.475H96.4572C96.6045 153.258 96.7822 153.076 96.9902 152.929C97.4669 152.556 98.0042 152.37 98.6022 152.37C99.2782 152.37 99.8372 152.608 100.279 153.085C100.721 153.553 100.942 154.16 100.942 154.905V159H99.9672V154.905C99.9672 154.411 99.8329 154.017 99.5642 153.722C99.2955 153.427 98.9315 153.28 98.4722 153.28C98.0389 153.28 97.6575 153.44 97.3282 153.761C97.0075 154.073 96.8472 154.454 96.8472 154.905V159H95.8722V154.905C95.8722 154.411 95.7379 154.017 95.4692 153.722C95.2005 153.427 94.8365 153.28 94.3772 153.28C93.9439 153.28 93.5625 153.44 93.2332 153.761C92.9125 154.073 92.7522 154.454 92.7522 154.905V159H91.7772Z" fill="white"/>
<path d="M114.182 150.404C114.901 151.291 115.26 152.523 115.26 154.1C115.26 155.677 114.901 156.914 114.182 157.81C113.463 158.697 112.586 159.14 111.55 159.14C110.514 159.14 109.637 158.697 108.918 157.81C108.199 156.914 107.84 155.677 107.84 154.1C107.84 152.523 108.199 151.291 108.918 150.404C109.637 149.508 110.514 149.06 111.55 149.06C112.586 149.06 113.463 149.508 114.182 150.404ZM108.68 154.1C108.68 155.435 108.96 156.471 109.52 157.208C110.089 157.936 110.766 158.3 111.55 158.3C112.334 158.3 113.006 157.936 113.566 157.208C114.135 156.471 114.42 155.435 114.42 154.1C114.42 152.784 114.135 151.757 113.566 151.02C113.006 150.273 112.334 149.9 111.55 149.9C110.766 149.9 110.089 150.273 109.52 151.02C108.96 151.757 108.68 152.784 108.68 154.1ZM117.628 159L121.212 150.04H116.102V149.2H122.122V149.9L118.482 159H117.628ZM122.821 155.36V154.59H127.301V155.36H122.821ZM135.182 150.404C135.901 151.291 136.26 152.523 136.26 154.1C136.26 155.677 135.901 156.914 135.182 157.81C134.463 158.697 133.586 159.14 132.55 159.14C131.514 159.14 130.637 158.697 129.918 157.81C129.199 156.914 128.84 155.677 128.84 154.1C128.84 152.523 129.199 151.291 129.918 150.404C130.637 149.508 131.514 149.06 132.55 149.06C133.586 149.06 134.463 149.508 135.182 150.404ZM129.68 154.1C129.68 155.435 129.96 156.471 130.52 157.208C131.089 157.936 131.766 158.3 132.55 158.3C133.334 158.3 134.006 157.936 134.566 157.208C135.135 156.471 135.42 155.435 135.42 154.1C135.42 152.784 135.135 151.757 134.566 151.02C134.006 150.273 133.334 149.9 132.55 149.9C131.766 149.9 131.089 150.273 130.52 151.02C129.96 151.757 129.68 152.784 129.68 154.1ZM142.607 153.008C142.999 152.644 143.195 152.215 143.195 151.72C143.195 151.225 142.999 150.801 142.607 150.446C142.215 150.082 141.711 149.9 141.095 149.9C140.479 149.9 139.975 150.082 139.583 150.446C139.191 150.801 138.995 151.225 138.995 151.72C138.995 152.215 139.191 152.644 139.583 153.008C139.975 153.363 140.479 153.54 141.095 153.54C141.711 153.54 142.215 153.363 142.607 153.008ZM139.429 154.954C139 155.337 138.785 155.799 138.785 156.34C138.785 156.881 139 157.343 139.429 157.726C139.859 158.109 140.414 158.3 141.095 158.3C141.777 158.3 142.332 158.109 142.761 157.726C143.191 157.343 143.405 156.881 143.405 156.34C143.405 155.799 143.191 155.337 142.761 154.954C142.332 154.571 141.777 154.38 141.095 154.38C140.414 154.38 139.859 154.571 139.429 154.954ZM139.625 153.96V153.89C139.327 153.759 139.079 153.601 138.883 153.414C138.398 152.985 138.155 152.42 138.155 151.72C138.155 150.973 138.431 150.343 138.981 149.83C139.532 149.317 140.237 149.06 141.095 149.06C141.954 149.06 142.659 149.317 143.209 149.83C143.76 150.343 144.035 150.973 144.035 151.72C144.035 152.411 143.788 152.975 143.293 153.414C143.107 153.591 142.864 153.75 142.565 153.89V153.96C142.883 154.081 143.163 154.259 143.405 154.492C143.965 154.977 144.245 155.593 144.245 156.34C144.245 157.124 143.951 157.787 143.363 158.328C142.785 158.869 142.029 159.14 141.095 159.14C140.162 159.14 139.401 158.869 138.813 158.328C138.235 157.787 137.945 157.124 137.945 156.34C137.945 155.593 138.225 154.977 138.785 154.492C139.028 154.259 139.308 154.081 139.625 153.96ZM145.79 155.36V154.59H150.27V155.36H145.79ZM151.809 159V158.23L155.869 153.96C156.475 153.353 156.779 152.7 156.779 152C156.779 151.365 156.587 150.857 156.205 150.474C155.822 150.091 155.313 149.9 154.679 149.9C154.072 149.9 153.568 150.115 153.167 150.544C152.775 150.964 152.579 151.519 152.579 152.21H151.739C151.739 151.267 152.014 150.507 152.565 149.928C153.125 149.349 153.829 149.06 154.679 149.06C155.556 149.06 156.265 149.331 156.807 149.872C157.348 150.413 157.619 151.123 157.619 152C157.619 152.401 157.553 152.77 157.423 153.106C157.301 153.433 157.171 153.685 157.031 153.862C156.9 154.039 156.699 154.273 156.429 154.562L153.069 158.09V158.16H157.829V159H151.809ZM165.711 150.404C166.43 151.291 166.789 152.523 166.789 154.1C166.789 155.677 166.43 156.914 165.711 157.81C164.993 158.697 164.115 159.14 163.079 159.14C162.043 159.14 161.166 158.697 160.447 157.81C159.729 156.914 159.369 155.677 159.369 154.1C159.369 152.523 159.729 151.291 160.447 150.404C161.166 149.508 162.043 149.06 163.079 149.06C164.115 149.06 164.993 149.508 165.711 150.404ZM160.209 154.1C160.209 155.435 160.489 156.471 161.049 157.208C161.619 157.936 162.295 158.3 163.079 158.3C163.863 158.3 164.535 157.936 165.095 157.208C165.665 156.471 165.949 155.435 165.949 154.1C165.949 152.784 165.665 151.757 165.095 151.02C164.535 150.273 163.863 149.9 163.079 149.9C162.295 149.9 161.619 150.273 161.049 151.02C160.489 151.757 160.209 152.784 160.209 154.1ZM168.475 159V158.23L172.535 153.96C173.141 153.353 173.445 152.7 173.445 152C173.445 151.365 173.253 150.857 172.871 150.474C172.488 150.091 171.979 149.9 171.345 149.9C170.738 149.9 170.234 150.115 169.833 150.544C169.441 150.964 169.245 151.519 169.245 152.21H168.405C168.405 151.267 168.68 150.507 169.231 149.928C169.791 149.349 170.495 149.06 171.345 149.06C172.222 149.06 172.931 149.331 173.473 149.872C174.014 150.413 174.285 151.123 174.285 152C174.285 152.401 174.219 152.77 174.089 153.106C173.967 153.433 173.837 153.685 173.697 153.862C173.566 154.039 173.365 154.273 173.095 154.562L169.735 158.09V158.16H174.495V159H168.475ZM175.191 156.69V155.99L179.041 149.2H180.581V155.85H181.981V156.69H180.581V159H179.741V156.69H175.191ZM176.311 155.85H179.741V150.18H179.461L176.311 155.78V155.85Z" fill="#E4E4E7"/>
<path d="M539.07 135.43V134.1H542.22C542.985 134.1 543.475 133.727 543.69 132.98H539.07V131.65H543.69C543.475 130.903 542.985 130.53 542.22 130.53H539.07V129.2H546.07V130.53H544.74C544.796 130.605 544.847 130.693 544.894 130.796C544.968 130.936 545.062 131.221 545.174 131.65H546.07V132.98H545.174C545.024 133.755 544.702 134.357 544.208 134.786C543.713 135.215 543.097 135.43 542.36 135.43H541.94L545.44 139H543.55L540.05 135.43H539.07ZM548.874 139V131.65H546.844V130.25H548.454C548.734 130.25 548.874 130.11 548.874 129.83V129.2H550.344V139H548.874ZM552.019 140.19L552.299 137.39H553.909L553.139 140.19H552.019ZM555.314 136.34H556.784C556.868 136.732 557.068 137.063 557.386 137.334C557.712 137.605 558.142 137.74 558.674 137.74C559.271 137.74 559.747 137.563 560.102 137.208C560.456 136.853 560.634 136.377 560.634 135.78C560.634 135.22 560.452 134.767 560.088 134.422C559.733 134.067 559.262 133.89 558.674 133.89C557.974 133.89 557.437 134.123 557.064 134.59H555.524L556.084 129.2H561.544V130.6H557.344L557.064 132.98H557.134C557.638 132.653 558.221 132.49 558.884 132.49C559.808 132.49 560.573 132.803 561.18 133.428C561.796 134.044 562.104 134.828 562.104 135.78C562.104 136.76 561.782 137.567 561.138 138.202C560.503 138.827 559.682 139.14 558.674 139.14C558.123 139.14 557.628 139.051 557.19 138.874C556.76 138.697 556.42 138.463 556.168 138.174C555.916 137.885 555.72 137.586 555.58 137.278C555.449 136.97 555.36 136.657 555.314 136.34ZM569.092 136.802C569.568 136.167 569.806 135.267 569.806 134.1C569.806 132.933 569.568 132.037 569.092 131.412C568.616 130.777 568.038 130.46 567.356 130.46C566.675 130.46 566.096 130.777 565.62 131.412C565.144 132.037 564.906 132.933 564.906 134.1C564.906 135.267 565.144 136.167 565.62 136.802C566.096 137.427 566.675 137.74 567.356 137.74C568.038 137.74 568.616 137.427 569.092 136.802ZM564.57 130.418C565.326 129.513 566.255 129.06 567.356 129.06C568.458 129.06 569.386 129.513 570.142 130.418C570.898 131.323 571.276 132.551 571.276 134.1C571.276 135.649 570.898 136.877 570.142 137.782C569.386 138.687 568.458 139.14 567.356 139.14C566.255 139.14 565.326 138.687 564.57 137.782C563.814 136.877 563.436 135.649 563.436 134.1C563.436 132.551 563.814 131.323 564.57 130.418ZM578.335 136.802C578.811 136.167 579.049 135.267 579.049 134.1C579.049 132.933 578.811 132.037 578.335 131.412C577.859 130.777 577.28 130.46 576.599 130.46C575.917 130.46 575.339 130.777 574.863 131.412C574.387 132.037 574.149 132.933 574.149 134.1C574.149 135.267 574.387 136.167 574.863 136.802C575.339 137.427 575.917 137.74 576.599 137.74C577.28 137.74 577.859 137.427 578.335 136.802ZM573.813 130.418C574.569 129.513 575.497 129.06 576.599 129.06C577.7 129.06 578.629 129.513 579.385 130.418C580.141 131.323 580.519 132.551 580.519 134.1C580.519 135.649 580.141 136.877 579.385 137.782C578.629 138.687 577.7 139.14 576.599 139.14C575.497 139.14 574.569 138.687 573.813 137.782C573.057 136.877 572.679 135.649 572.679 134.1C572.679 132.551 573.057 131.323 573.813 130.418ZM582.061 139V137.39H583.671V139H582.061ZM590.872 136.802C591.348 136.167 591.586 135.267 591.586 134.1C591.586 132.933 591.348 132.037 590.872 131.412C590.396 130.777 589.817 130.46 589.136 130.46C588.454 130.46 587.876 130.777 587.4 131.412C586.924 132.037 586.686 132.933 586.686 134.1C586.686 135.267 586.924 136.167 587.4 136.802C587.876 137.427 588.454 137.74 589.136 137.74C589.817 137.74 590.396 137.427 590.872 136.802ZM586.35 130.418C587.106 129.513 588.034 129.06 589.136 129.06C590.237 129.06 591.166 129.513 591.922 130.418C592.678 131.323 593.056 132.551 593.056 134.1C593.056 135.649 592.678 136.877 591.922 137.782C591.166 138.687 590.237 139.14 589.136 139.14C588.034 139.14 587.106 138.687 586.35 137.782C585.594 136.877 585.216 135.649 585.216 134.1C585.216 132.551 585.594 131.323 586.35 130.418ZM600.114 136.802C600.59 136.167 600.828 135.267 600.828 134.1C600.828 132.933 600.59 132.037 600.114 131.412C599.638 130.777 599.059 130.46 598.378 130.46C597.696 130.46 597.118 130.777 596.642 131.412C596.166 132.037 595.928 132.933 595.928 134.1C595.928 135.267 596.166 136.167 596.642 136.802C597.118 137.427 597.696 137.74 598.378 137.74C599.059 137.74 599.638 137.427 600.114 136.802ZM595.592 130.418C596.348 129.513 597.276 129.06 598.378 129.06C599.479 129.06 600.408 129.513 601.164 130.418C601.92 131.323 602.298 132.551 602.298 134.1C602.298 135.649 601.92 136.877 601.164 137.782C600.408 138.687 599.479 139.14 598.378 139.14C597.276 139.14 596.348 138.687 595.592 137.782C594.836 136.877 594.458 135.649 594.458 134.1C594.458 132.551 594.836 131.323 595.592 130.418Z" fill="white"/>
<path d="M23 187C23 184.791 24.7909 183 27 183H51C53.2091 183 55 184.791 55 187V211C55 213.209 53.2091 215 51 215H27C24.7909 215 23 213.209 23 211V187Z" fill="white" fill-opacity="0.1"/>
<g clip-path="url(#clip2_3550_99512)">
<path fill-rule="evenodd" clip-rule="evenodd" d="M42.259 195.219H35.7408C34.819 195.219 34.0492 195.924 33.9692 196.843L33.3897 203.509C33.299 204.548 34.1177 205.441 35.1603 205.441H41.8883V204.774C40.7838 204.774 39.8883 203.879 39.8883 202.774C39.8883 201.67 40.7838 200.774 41.8883 200.774H42.1106V200.552C42.1106 199.448 43.006 198.552 44.1106 198.552C44.1332 198.552 44.1559 198.552 44.1784 198.553L44.0297 196.843C43.9506 195.924 43.1808 195.219 42.259 195.219Z" fill="#E4E4E7"/>
<path d="M37 195.22V193.664C37 192.559 37.8951 191.664 39 191.664C40.1049 191.664 41 192.559 41 193.664V195.22" stroke="white" stroke-linecap="round" stroke-linejoin="round"/>
<path d="M41.9337 205.441H35.1603C34.1177 205.441 33.299 204.548 33.3897 203.509L33.9692 196.843C34.0492 195.924 34.8181 195.219 35.7399 195.219H42.2581C43.1799 195.219 43.9497 195.924 44.0288 196.843L44.1586 198.33" stroke="white" stroke-linecap="round" stroke-linejoin="round"/>
<path d="M44.1094 200.555V204.999" stroke="white" stroke-linecap="round" stroke-linejoin="round"/>
<path d="M46.3331 202.773H41.8887" stroke="white" stroke-linecap="round" stroke-linejoin="round"/>
</g>
<path d="M67.975 197V187.9H69.34V197H67.975ZM71.1585 197V190.5H72.3285L72.4585 191.15H72.5235C72.6708 191.003 72.8311 190.873 73.0045 190.76C73.4205 190.5 73.8885 190.37 74.4085 190.37C75.1971 190.37 75.8255 190.617 76.2935 191.111C76.7701 191.596 77.0085 192.259 77.0085 193.1V197H75.7085V193.1C75.7085 192.675 75.5568 192.311 75.2535 192.008C74.9588 191.696 74.5905 191.54 74.1485 191.54C73.6718 191.54 73.2688 191.696 72.9395 192.008C72.6188 192.311 72.4585 192.675 72.4585 193.1V197H71.1585ZM79.8771 197L77.6021 190.5H78.9671L80.7221 195.57H80.9821L82.7371 190.5H84.1021L81.8271 197H79.8771ZM86.4031 195.362C86.7758 195.761 87.2438 195.96 87.8071 195.96C88.3704 195.96 88.8341 195.761 89.1981 195.362C89.5708 194.955 89.7571 194.417 89.7571 193.75C89.7571 193.083 89.5708 192.55 89.1981 192.151C88.8341 191.744 88.3704 191.54 87.8071 191.54C87.2438 191.54 86.7758 191.744 86.4031 192.151C86.0391 192.55 85.8571 193.083 85.8571 193.75C85.8571 194.417 86.0391 194.955 86.4031 195.362ZM90.1341 196.194C89.5274 196.818 88.7518 197.13 87.8071 197.13C86.8624 197.13 86.0824 196.818 85.4671 196.194C84.8604 195.57 84.5571 194.755 84.5571 193.75C84.5571 192.745 84.8604 191.93 85.4671 191.306C86.0824 190.682 86.8624 190.37 87.8071 190.37C88.7518 190.37 89.5274 190.682 90.1341 191.306C90.7494 191.93 91.0571 192.745 91.0571 193.75C91.0571 194.755 90.7494 195.57 90.1341 196.194ZM92.4231 197V190.5H93.7231V197H92.4231ZM92.3581 189.265V187.9H93.7881V189.265H92.3581ZM100.034 194.725H101.334C101.274 194.994 101.174 195.258 101.035 195.518C100.905 195.778 100.723 196.034 100.489 196.285C100.264 196.536 99.9649 196.74 99.5922 196.896C99.2196 197.052 98.8036 197.13 98.3442 197.13C97.3996 197.13 96.6196 196.818 96.0042 196.194C95.3976 195.57 95.0942 194.755 95.0942 193.75C95.0942 192.745 95.3976 191.93 96.0042 191.306C96.6196 190.682 97.3996 190.37 98.3442 190.37C99.2109 190.37 99.8912 190.617 100.385 191.111C100.879 191.596 101.196 192.129 101.334 192.71H100.034C99.7569 191.93 99.1936 191.54 98.3442 191.54C97.7809 191.54 97.3129 191.744 96.9402 192.151C96.5762 192.55 96.3942 193.083 96.3942 193.75C96.3942 194.417 96.5762 194.955 96.9402 195.362C97.3129 195.761 97.7809 195.96 98.3442 195.96C98.8122 195.96 99.1892 195.834 99.4752 195.583C99.7612 195.332 99.9476 195.046 100.034 194.725ZM103.605 193.23H107.44C107.371 192.701 107.167 192.277 106.829 191.956C106.491 191.635 106.066 191.475 105.555 191.475C105.018 191.475 104.584 191.635 104.255 191.956C103.926 192.268 103.709 192.693 103.605 193.23ZM107.115 195.115H108.48C108.289 195.635 107.943 196.103 107.44 196.519C106.946 196.926 106.318 197.13 105.555 197.13C104.61 197.13 103.83 196.818 103.215 196.194C102.608 195.57 102.305 194.755 102.305 193.75C102.305 192.745 102.608 191.93 103.215 191.306C103.83 190.682 104.61 190.37 105.555 190.37C106.439 190.37 107.18 190.673 107.778 191.28C108.376 191.887 108.675 192.645 108.675 193.555C108.675 193.633 108.662 193.789 108.636 194.023L108.61 194.205H103.605C103.674 194.76 103.887 195.202 104.242 195.531C104.597 195.86 105.035 196.025 105.555 196.025C105.919 196.025 106.24 195.938 106.517 195.765C106.803 195.583 107.002 195.366 107.115 195.115ZM119.864 193.88H121.294C121.207 194.261 121.06 194.634 120.852 194.998C120.652 195.362 120.388 195.709 120.059 196.038C119.729 196.367 119.318 196.632 118.824 196.831C118.33 197.03 117.788 197.13 117.199 197.13C115.977 197.13 114.945 196.692 114.105 195.817C113.264 194.942 112.844 193.819 112.844 192.45C112.844 191.081 113.264 189.958 114.105 189.083C114.945 188.208 115.977 187.77 117.199 187.77C118.273 187.77 119.17 188.082 119.89 188.706C120.618 189.321 121.086 190.071 121.294 190.955H119.864C119.638 190.348 119.287 189.885 118.811 189.564C118.334 189.235 117.797 189.07 117.199 189.07C116.332 189.07 115.617 189.378 115.054 189.993C114.49 190.608 114.209 191.427 114.209 192.45C114.209 193.473 114.49 194.292 115.054 194.907C115.617 195.522 116.332 195.83 117.199 195.83C117.892 195.83 118.464 195.644 118.915 195.271C119.374 194.89 119.69 194.426 119.864 193.88ZM122.6 197V190.5H123.705L123.835 191.085H123.9C123.909 191.076 123.935 191.046 123.978 190.994C124.03 190.942 124.06 190.907 124.069 190.89C124.086 190.873 124.121 190.842 124.173 190.799C124.225 190.747 124.268 190.712 124.303 190.695C124.338 190.678 124.385 190.656 124.446 190.63C124.507 190.595 124.567 190.574 124.628 190.565C124.697 190.548 124.775 190.535 124.862 190.526C124.949 190.509 125.04 190.5 125.135 190.5H126.305V191.67H125.265C124.355 191.67 123.9 192.121 123.9 193.022V197H122.6ZM128.006 193.23H131.841C131.771 192.701 131.568 192.277 131.23 191.956C130.892 191.635 130.467 191.475 129.956 191.475C129.418 191.475 128.985 191.635 128.656 191.956C128.326 192.268 128.11 192.693 128.006 193.23ZM131.516 195.115H132.881C132.69 195.635 132.343 196.103 131.841 196.519C131.347 196.926 130.718 197.13 129.956 197.13C129.011 197.13 128.231 196.818 127.616 196.194C127.009 195.57 126.706 194.755 126.706 193.75C126.706 192.745 127.009 191.93 127.616 191.306C128.231 190.682 129.011 190.37 129.956 190.37C130.84 190.37 131.581 190.673 132.179 191.28C132.777 191.887 133.076 192.645 133.076 193.555C133.076 193.633 133.063 193.789 133.037 194.023L133.011 194.205H128.006C128.075 194.76 128.287 195.202 128.643 195.531C128.998 195.86 129.436 196.025 129.956 196.025C130.32 196.025 130.64 195.938 130.918 195.765C131.204 195.583 131.403 195.366 131.516 195.115ZM138.67 197L138.54 196.285H138.475C138.345 196.45 138.189 196.593 138.007 196.714C137.591 196.991 137.097 197.13 136.525 197.13C135.814 197.13 135.246 196.944 134.822 196.571C134.397 196.198 134.185 195.713 134.185 195.115C134.185 194.448 134.406 193.923 134.848 193.542C135.298 193.161 135.966 192.97 136.85 192.97H138.475V192.84C138.475 192.415 138.353 192.082 138.111 191.839C137.868 191.596 137.534 191.475 137.11 191.475C136.694 191.475 136.373 191.57 136.148 191.761C135.922 191.943 135.788 192.151 135.745 192.385H134.445C134.479 191.813 134.735 191.336 135.212 190.955C135.688 190.565 136.321 190.37 137.11 190.37C137.95 190.37 138.605 190.591 139.073 191.033C139.541 191.475 139.775 192.077 139.775 192.84V197H138.67ZM138.475 194.27V194.01H136.915C136.438 194.01 136.078 194.105 135.836 194.296C135.602 194.487 135.485 194.738 135.485 195.05C135.485 195.353 135.584 195.592 135.784 195.765C135.983 195.938 136.273 196.025 136.655 196.025C137.244 196.025 137.695 195.873 138.007 195.57C138.319 195.258 138.475 194.825 138.475 194.27ZM141.668 195.635V191.735H140.628V190.5H141.668V188.68H142.968V190.5H144.463V191.735H142.968V195.44C142.968 195.7 143.098 195.83 143.358 195.83H144.463V197H143.098C142.638 197 142.283 196.879 142.032 196.636C141.789 196.393 141.668 196.06 141.668 195.635ZM146.617 193.23H150.452C150.383 192.701 150.179 192.277 149.841 191.956C149.503 191.635 149.078 191.475 148.567 191.475C148.03 191.475 147.596 191.635 147.267 191.956C146.938 192.268 146.721 192.693 146.617 193.23ZM150.127 195.115H151.492C151.301 195.635 150.955 196.103 150.452 196.519C149.958 196.926 149.33 197.13 148.567 197.13C147.622 197.13 146.842 196.818 146.227 196.194C145.62 195.57 145.317 194.755 145.317 193.75C145.317 192.745 145.62 191.93 146.227 191.306C146.842 190.682 147.622 190.37 148.567 190.37C149.451 190.37 150.192 190.673 150.79 191.28C151.388 191.887 151.687 192.645 151.687 193.555C151.687 193.633 151.674 193.789 151.648 194.023L151.622 194.205H146.617C146.686 194.76 146.899 195.202 147.254 195.531C147.609 195.86 148.047 196.025 148.567 196.025C148.931 196.025 149.252 195.938 149.529 195.765C149.815 195.583 150.014 195.366 150.127 195.115ZM157.931 197L157.801 196.22H157.736C157.277 196.827 156.605 197.13 155.721 197.13C154.854 197.13 154.139 196.822 153.576 196.207C153.013 195.592 152.731 194.773 152.731 193.75C152.731 192.727 153.013 191.908 153.576 191.293C154.139 190.678 154.854 190.37 155.721 190.37C156.102 190.37 156.449 190.439 156.761 190.578C157.082 190.708 157.29 190.821 157.385 190.916C157.48 191.003 157.597 191.124 157.736 191.28H157.801V187.9H159.101V197H157.931ZM154.564 195.349C154.928 195.756 155.379 195.96 155.916 195.96C156.453 195.96 156.9 195.756 157.255 195.349C157.619 194.942 157.801 194.409 157.801 193.75C157.801 193.091 157.619 192.558 157.255 192.151C156.9 191.744 156.453 191.54 155.916 191.54C155.379 191.54 154.928 191.744 154.564 192.151C154.209 192.558 154.031 193.091 154.031 193.75C154.031 194.409 154.209 194.942 154.564 195.349Z" fill="white"/>
<path d="M67.585 213.595H68.625C68.7203 214.08 68.9413 214.462 69.288 214.739C69.6433 215.016 70.0723 215.155 70.575 215.155C71.1643 215.155 71.6583 214.956 72.057 214.557C72.4557 214.15 72.655 213.643 72.655 213.036C72.655 212.412 72.4687 211.905 72.096 211.515C71.7233 211.125 71.238 210.93 70.64 210.93C69.8773 210.93 69.2923 211.19 68.885 211.71H67.78L68.3 206.9H73.175V207.875H69.171L68.885 210.54H68.95C69.392 210.15 69.9987 209.955 70.77 209.955C71.5673 209.955 72.252 210.254 72.824 210.852C73.4047 211.441 73.695 212.169 73.695 213.036C73.695 213.937 73.4003 214.678 72.811 215.259C72.2303 215.84 71.485 216.13 70.575 216.13C69.795 216.13 69.1277 215.905 68.573 215.454C68.0183 215.003 67.689 214.384 67.585 213.595ZM78.3867 216V206.9H79.4267V216H78.3867ZM81.8347 214.895V210.41H80.7947V209.5H81.8347V207.68H82.8097V209.5H84.3047V210.41H82.8097V214.7C82.8097 214.96 82.9397 215.09 83.1997 215.09H84.3047V216H83.0047C82.6407 216 82.3547 215.9 82.1467 215.701C81.9387 215.502 81.8347 215.233 81.8347 214.895ZM90.0288 214.18H91.0688C90.8435 214.804 90.4881 215.285 90.0028 215.623C89.5261 215.961 88.9498 216.13 88.2738 216.13C87.3811 216.13 86.6358 215.818 86.0378 215.194C85.4485 214.561 85.1538 213.747 85.1538 212.75C85.1538 211.753 85.4485 210.943 86.0378 210.319C86.6358 209.686 87.3811 209.37 88.2738 209.37C89.1318 209.37 89.8425 209.665 90.4058 210.254C90.9778 210.843 91.2638 211.589 91.2638 212.49C91.2638 212.629 91.2508 212.815 91.2248 213.049L91.1988 213.205H86.1288C86.1981 213.812 86.4321 214.301 86.8308 214.674C87.2381 215.038 87.7191 215.22 88.2738 215.22C88.6638 215.22 89.0105 215.129 89.3138 214.947C89.6258 214.765 89.8641 214.509 90.0288 214.18ZM86.1288 212.295H90.2888C90.2541 211.706 90.0461 211.225 89.6648 210.852C89.2921 210.471 88.8285 210.28 88.2738 210.28C87.6931 210.28 87.2078 210.466 86.8178 210.839C86.4278 211.212 86.1981 211.697 86.1288 212.295ZM92.6913 216V209.5H93.5363L93.6663 210.215H93.7313C93.8613 210.059 94.0129 209.92 94.1863 209.799C94.5936 209.513 95.0053 209.37 95.4213 209.37C95.9846 209.37 96.4699 209.556 96.8773 209.929C97.0506 210.085 97.1936 210.267 97.3063 210.475H97.3713C97.5186 210.258 97.6963 210.076 97.9043 209.929C98.3809 209.556 98.9183 209.37 99.5163 209.37C100.192 209.37 100.751 209.608 101.193 210.085C101.635 210.553 101.856 211.16 101.856 211.905V216H100.881V211.905C100.881 211.411 100.747 211.017 100.478 210.722C100.21 210.427 99.8456 210.28 99.3863 210.28C98.9529 210.28 98.5716 210.44 98.2423 210.761C97.9216 211.073 97.7613 211.454 97.7613 211.905V216H96.7863V211.905C96.7863 211.411 96.6519 211.017 96.3833 210.722C96.1146 210.427 95.7506 210.28 95.2913 210.28C94.8579 210.28 94.4766 210.44 94.1473 210.761C93.8266 211.073 93.6663 211.454 93.6663 211.905V216H92.6913Z" fill="white"/>
<path d="M114.182 207.404C114.901 208.291 115.26 209.523 115.26 211.1C115.26 212.677 114.901 213.914 114.182 214.81C113.463 215.697 112.586 216.14 111.55 216.14C110.514 216.14 109.637 215.697 108.918 214.81C108.199 213.914 107.84 212.677 107.84 211.1C107.84 209.523 108.199 208.291 108.918 207.404C109.637 206.508 110.514 206.06 111.55 206.06C112.586 206.06 113.463 206.508 114.182 207.404ZM108.68 211.1C108.68 212.435 108.96 213.471 109.52 214.208C110.089 214.936 110.766 215.3 111.55 215.3C112.334 215.3 113.006 214.936 113.566 214.208C114.135 213.471 114.42 212.435 114.42 211.1C114.42 209.784 114.135 208.757 113.566 208.02C113.006 207.273 112.334 206.9 111.55 206.9C110.766 206.9 110.089 207.273 109.52 208.02C108.96 208.757 108.68 209.784 108.68 211.1ZM117.628 216L121.212 207.04H116.102V206.2H122.122V206.9L118.482 216H117.628ZM122.821 212.36V211.59H127.301V212.36H122.821ZM135.182 207.404C135.901 208.291 136.26 209.523 136.26 211.1C136.26 212.677 135.901 213.914 135.182 214.81C134.463 215.697 133.586 216.14 132.55 216.14C131.514 216.14 130.637 215.697 129.918 214.81C129.199 213.914 128.84 212.677 128.84 211.1C128.84 209.523 129.199 208.291 129.918 207.404C130.637 206.508 131.514 206.06 132.55 206.06C133.586 206.06 134.463 206.508 135.182 207.404ZM129.68 211.1C129.68 212.435 129.96 213.471 130.52 214.208C131.089 214.936 131.766 215.3 132.55 215.3C133.334 215.3 134.006 214.936 134.566 214.208C135.135 213.471 135.42 212.435 135.42 211.1C135.42 209.784 135.135 208.757 134.566 208.02C134.006 207.273 133.334 206.9 132.55 206.9C131.766 206.9 131.089 207.273 130.52 208.02C129.96 208.757 129.68 209.784 129.68 211.1ZM142.607 210.008C142.999 209.644 143.195 209.215 143.195 208.72C143.195 208.225 142.999 207.801 142.607 207.446C142.215 207.082 141.711 206.9 141.095 206.9C140.479 206.9 139.975 207.082 139.583 207.446C139.191 207.801 138.995 208.225 138.995 208.72C138.995 209.215 139.191 209.644 139.583 210.008C139.975 210.363 140.479 210.54 141.095 210.54C141.711 210.54 142.215 210.363 142.607 210.008ZM139.429 211.954C139 212.337 138.785 212.799 138.785 213.34C138.785 213.881 139 214.343 139.429 214.726C139.859 215.109 140.414 215.3 141.095 215.3C141.777 215.3 142.332 215.109 142.761 214.726C143.191 214.343 143.405 213.881 143.405 213.34C143.405 212.799 143.191 212.337 142.761 211.954C142.332 211.571 141.777 211.38 141.095 211.38C140.414 211.38 139.859 211.571 139.429 211.954ZM139.625 210.96V210.89C139.327 210.759 139.079 210.601 138.883 210.414C138.398 209.985 138.155 209.42 138.155 208.72C138.155 207.973 138.431 207.343 138.981 206.83C139.532 206.317 140.237 206.06 141.095 206.06C141.954 206.06 142.659 206.317 143.209 206.83C143.76 207.343 144.035 207.973 144.035 208.72C144.035 209.411 143.788 209.975 143.293 210.414C143.107 210.591 142.864 210.75 142.565 210.89V210.96C142.883 211.081 143.163 211.259 143.405 211.492C143.965 211.977 144.245 212.593 144.245 213.34C144.245 214.124 143.951 214.787 143.363 215.328C142.785 215.869 142.029 216.14 141.095 216.14C140.162 216.14 139.401 215.869 138.813 215.328C138.235 214.787 137.945 214.124 137.945 213.34C137.945 212.593 138.225 211.977 138.785 211.492C139.028 211.259 139.308 211.081 139.625 210.96ZM145.79 212.36V211.59H150.27V212.36H145.79ZM151.809 216V215.23L155.869 210.96C156.475 210.353 156.779 209.7 156.779 209C156.779 208.365 156.587 207.857 156.205 207.474C155.822 207.091 155.313 206.9 154.679 206.9C154.072 206.9 153.568 207.115 153.167 207.544C152.775 207.964 152.579 208.519 152.579 209.21H151.739C151.739 208.267 152.014 207.507 152.565 206.928C153.125 206.349 153.829 206.06 154.679 206.06C155.556 206.06 156.265 206.331 156.807 206.872C157.348 207.413 157.619 208.123 157.619 209C157.619 209.401 157.553 209.77 157.423 210.106C157.301 210.433 157.171 210.685 157.031 210.862C156.9 211.039 156.699 211.273 156.429 211.562L153.069 215.09V215.16H157.829V216H151.809ZM165.711 207.404C166.43 208.291 166.789 209.523 166.789 211.1C166.789 212.677 166.43 213.914 165.711 214.81C164.993 215.697 164.115 216.14 163.079 216.14C162.043 216.14 161.166 215.697 160.447 214.81C159.729 213.914 159.369 212.677 159.369 211.1C159.369 209.523 159.729 208.291 160.447 207.404C161.166 206.508 162.043 206.06 163.079 206.06C164.115 206.06 164.993 206.508 165.711 207.404ZM160.209 211.1C160.209 212.435 160.489 213.471 161.049 214.208C161.619 214.936 162.295 215.3 163.079 215.3C163.863 215.3 164.535 214.936 165.095 214.208C165.665 213.471 165.949 212.435 165.949 211.1C165.949 209.784 165.665 208.757 165.095 208.02C164.535 207.273 163.863 206.9 163.079 206.9C162.295 206.9 161.619 207.273 161.049 208.02C160.489 208.757 160.209 209.784 160.209 211.1ZM168.475 216V215.23L172.535 210.96C173.141 210.353 173.445 209.7 173.445 209C173.445 208.365 173.253 207.857 172.871 207.474C172.488 207.091 171.979 206.9 171.345 206.9C170.738 206.9 170.234 207.115 169.833 207.544C169.441 207.964 169.245 208.519 169.245 209.21H168.405C168.405 208.267 168.68 207.507 169.231 206.928C169.791 206.349 170.495 206.06 171.345 206.06C172.222 206.06 172.931 206.331 173.473 206.872C174.014 207.413 174.285 208.123 174.285 209C174.285 209.401 174.219 209.77 174.089 210.106C173.967 210.433 173.837 210.685 173.697 210.862C173.566 211.039 173.365 211.273 173.095 211.562L169.735 215.09V215.16H174.495V216H168.475ZM175.191 213.69V212.99L179.041 206.2H180.581V212.85H181.981V213.69H180.581V216H179.741V213.69H175.191ZM176.311 212.85H179.741V207.18H179.461L176.311 212.78V212.85Z" fill="#E4E4E7"/>
<path d="M539.07 192.43V191.1H542.22C542.985 191.1 543.475 190.727 543.69 189.98H539.07V188.65H543.69C543.475 187.903 542.985 187.53 542.22 187.53H539.07V186.2H546.07V187.53H544.74C544.796 187.605 544.847 187.693 544.894 187.796C544.968 187.936 545.062 188.221 545.174 188.65H546.07V189.98H545.174C545.024 190.755 544.702 191.357 544.208 191.786C543.713 192.215 543.097 192.43 542.36 192.43H541.94L545.44 196H543.55L540.05 192.43H539.07ZM548.874 196V188.65H546.844V187.25H548.454C548.734 187.25 548.874 187.11 548.874 186.83V186.2H550.344V196H548.874ZM552.019 197.19L552.299 194.39H553.909L553.139 197.19H552.019ZM555.314 193.34H556.784C556.868 193.732 557.068 194.063 557.386 194.334C557.712 194.605 558.142 194.74 558.674 194.74C559.271 194.74 559.747 194.563 560.102 194.208C560.456 193.853 560.634 193.377 560.634 192.78C560.634 192.22 560.452 191.767 560.088 191.422C559.733 191.067 559.262 190.89 558.674 190.89C557.974 190.89 557.437 191.123 557.064 191.59H555.524L556.084 186.2H561.544V187.6H557.344L557.064 189.98H557.134C557.638 189.653 558.221 189.49 558.884 189.49C559.808 189.49 560.573 189.803 561.18 190.428C561.796 191.044 562.104 191.828 562.104 192.78C562.104 193.76 561.782 194.567 561.138 195.202C560.503 195.827 559.682 196.14 558.674 196.14C558.123 196.14 557.628 196.051 557.19 195.874C556.76 195.697 556.42 195.463 556.168 195.174C555.916 194.885 555.72 194.586 555.58 194.278C555.449 193.97 555.36 193.657 555.314 193.34ZM569.092 193.802C569.568 193.167 569.806 192.267 569.806 191.1C569.806 189.933 569.568 189.037 569.092 188.412C568.616 187.777 568.038 187.46 567.356 187.46C566.675 187.46 566.096 187.777 565.62 188.412C565.144 189.037 564.906 189.933 564.906 191.1C564.906 192.267 565.144 193.167 565.62 193.802C566.096 194.427 566.675 194.74 567.356 194.74C568.038 194.74 568.616 194.427 569.092 193.802ZM564.57 187.418C565.326 186.513 566.255 186.06 567.356 186.06C568.458 186.06 569.386 186.513 570.142 187.418C570.898 188.323 571.276 189.551 571.276 191.1C571.276 192.649 570.898 193.877 570.142 194.782C569.386 195.687 568.458 196.14 567.356 196.14C566.255 196.14 565.326 195.687 564.57 194.782C563.814 193.877 563.436 192.649 563.436 191.1C563.436 189.551 563.814 188.323 564.57 187.418ZM578.335 193.802C578.811 193.167 579.049 192.267 579.049 191.1C579.049 189.933 578.811 189.037 578.335 188.412C577.859 187.777 577.28 187.46 576.599 187.46C575.917 187.46 575.339 187.777 574.863 188.412C574.387 189.037 574.149 189.933 574.149 191.1C574.149 192.267 574.387 193.167 574.863 193.802C575.339 194.427 575.917 194.74 576.599 194.74C577.28 194.74 577.859 194.427 578.335 193.802ZM573.813 187.418C574.569 186.513 575.497 186.06 576.599 186.06C577.7 186.06 578.629 186.513 579.385 187.418C580.141 188.323 580.519 189.551 580.519 191.1C580.519 192.649 580.141 193.877 579.385 194.782C578.629 195.687 577.7 196.14 576.599 196.14C575.497 196.14 574.569 195.687 573.813 194.782C573.057 193.877 572.679 192.649 572.679 191.1C572.679 189.551 573.057 188.323 573.813 187.418ZM582.061 196V194.39H583.671V196H582.061ZM590.872 193.802C591.348 193.167 591.586 192.267 591.586 191.1C591.586 189.933 591.348 189.037 590.872 188.412C590.396 187.777 589.817 187.46 589.136 187.46C588.454 187.46 587.876 187.777 587.4 188.412C586.924 189.037 586.686 189.933 586.686 191.1C586.686 192.267 586.924 193.167 587.4 193.802C587.876 194.427 588.454 194.74 589.136 194.74C589.817 194.74 590.396 194.427 590.872 193.802ZM586.35 187.418C587.106 186.513 588.034 186.06 589.136 186.06C590.237 186.06 591.166 186.513 591.922 187.418C592.678 188.323 593.056 189.551 593.056 191.1C593.056 192.649 592.678 193.877 591.922 194.782C591.166 195.687 590.237 196.14 589.136 196.14C588.034 196.14 587.106 195.687 586.35 194.782C585.594 193.877 585.216 192.649 585.216 191.1C585.216 189.551 585.594 188.323 586.35 187.418ZM600.114 193.802C600.59 193.167 600.828 192.267 600.828 191.1C600.828 189.933 600.59 189.037 600.114 188.412C599.638 187.777 599.059 187.46 598.378 187.46C597.696 187.46 597.118 187.777 596.642 188.412C596.166 189.037 595.928 189.933 595.928 191.1C595.928 192.267 596.166 193.167 596.642 193.802C597.118 194.427 597.696 194.74 598.378 194.74C599.059 194.74 599.638 194.427 600.114 193.802ZM595.592 187.418C596.348 186.513 597.276 186.06 598.378 186.06C599.479 186.06 600.408 186.513 601.164 187.418C601.92 188.323 602.298 189.551 602.298 191.1C602.298 192.649 601.92 193.877 601.164 194.782C600.408 195.687 599.479 196.14 598.378 196.14C597.276 196.14 596.348 195.687 595.592 194.782C594.836 193.877 594.458 192.649 594.458 191.1C594.458 189.551 594.836 188.323 595.592 187.418Z" fill="white"/>
<path d="M23 244C23 241.791 24.7909 240 27 240H51C53.2091 240 55 241.791 55 244V268C55 270.209 53.2091 272 51 272H27C24.7909 272 23 270.209 23 268V244Z" fill="white" fill-opacity="0.1"/>
<g clip-path="url(#clip3_3550_99512)">
<path fill-rule="evenodd" clip-rule="evenodd" d="M42.259 252.223H35.7408C34.819 252.223 34.0492 252.928 33.9692 253.847L33.3897 260.513C33.299 261.552 34.1177 262.445 35.1603 262.445H41.8883V261.778C40.7838 261.778 39.8883 260.883 39.8883 259.778C39.8883 258.674 40.7838 257.778 41.8883 257.778H42.1106V257.556C42.1106 256.451 43.006 255.556 44.1106 255.556C44.1332 255.556 44.1559 255.556 44.1784 255.557L44.0297 253.847C43.9506 252.928 43.1808 252.223 42.259 252.223Z" fill="#E4E4E7"/>
<path d="M37 252.224V250.668C37 249.563 37.8951 248.668 39 248.668C40.1049 248.668 41 249.563 41 250.668V252.224" stroke="white" stroke-linecap="round" stroke-linejoin="round"/>
<path d="M41.9337 262.445H35.1603C34.1177 262.445 33.299 261.552 33.3897 260.513L33.9692 253.847C34.0492 252.928 34.8181 252.223 35.7399 252.223H42.2581C43.1799 252.223 43.9497 252.928 44.0288 253.847L44.1586 255.334" stroke="white" stroke-linecap="round" stroke-linejoin="round"/>
<path d="M44.1094 257.559V262.003" stroke="white" stroke-linecap="round" stroke-linejoin="round"/>
<path d="M46.3331 259.777H41.8887" stroke="white" stroke-linecap="round" stroke-linejoin="round"/>
</g>
<path d="M69.34 249.45H72.005C72.3777 249.45 72.6983 249.298 72.967 248.995C73.2357 248.692 73.37 248.302 73.37 247.825C73.37 247.348 73.2357 246.958 72.967 246.655C72.6983 246.352 72.3777 246.2 72.005 246.2H69.34V249.45ZM67.975 254V244.9H72.07C72.8327 244.9 73.4653 245.173 73.968 245.719C74.4793 246.256 74.735 246.958 74.735 247.825C74.735 248.692 74.4793 249.398 73.968 249.944C73.4653 250.481 72.8327 250.75 72.07 250.75H69.34V254H67.975ZM79.8649 254L79.7349 253.285H79.6699C79.5399 253.45 79.3839 253.593 79.2019 253.714C78.7859 253.991 78.2919 254.13 77.7199 254.13C77.0093 254.13 76.4416 253.944 76.0169 253.571C75.5923 253.198 75.3799 252.713 75.3799 252.115C75.3799 251.448 75.6009 250.923 76.0429 250.542C76.4936 250.161 77.1609 249.97 78.0449 249.97H79.6699V249.84C79.6699 249.415 79.5486 249.082 79.3059 248.839C79.0633 248.596 78.7296 248.475 78.3049 248.475C77.8889 248.475 77.5683 248.57 77.3429 248.761C77.1176 248.943 76.9833 249.151 76.9399 249.385H75.6399C75.6746 248.813 75.9303 248.336 76.4069 247.955C76.8836 247.565 77.5163 247.37 78.3049 247.37C79.1456 247.37 79.7999 247.591 80.2679 248.033C80.7359 248.475 80.9699 249.077 80.9699 249.84V254H79.8649ZM79.6699 251.27V251.01H78.1099C77.6333 251.01 77.2736 251.105 77.0309 251.296C76.7969 251.487 76.6799 251.738 76.6799 252.05C76.6799 252.353 76.7796 252.592 76.9789 252.765C77.1783 252.938 77.4686 253.025 77.8499 253.025C78.4393 253.025 78.8899 252.873 79.2019 252.57C79.5139 252.258 79.6699 251.825 79.6699 251.27ZM82.278 256.6V255.43H83.578C83.6907 255.43 83.786 255.387 83.864 255.3C83.942 255.222 83.994 255.135 84.02 255.04L84.228 254.455L81.563 247.5H82.928L84.813 252.44H85.073L86.763 247.5H88.128L85.268 255.495C85.1294 255.876 84.9387 256.154 84.696 256.327C84.462 256.509 84.111 256.6 83.643 256.6H82.278ZM89.0335 254V247.5H90.2035L90.3335 248.15H90.3985C90.5198 248.011 90.6715 247.881 90.8535 247.76C91.2521 247.5 91.6638 247.37 92.0885 247.37C92.6258 247.37 93.0808 247.522 93.4535 247.825C93.6181 247.981 93.7481 248.133 93.8435 248.28H93.9085C94.0211 248.133 94.1901 247.981 94.4155 247.825C94.9008 247.522 95.4468 247.37 96.0535 247.37C96.7295 247.37 97.2885 247.608 97.7305 248.085C98.1725 248.553 98.3935 249.155 98.3935 249.892V254H97.0935V249.905C97.0935 249.489 96.9721 249.16 96.7295 248.917C96.4955 248.666 96.1835 248.54 95.7935 248.54C95.3948 248.54 95.0568 248.67 94.7795 248.93C94.5021 249.19 94.3635 249.515 94.3635 249.905V254H93.0635V249.905C93.0635 249.489 92.9421 249.16 92.6995 248.917C92.4655 248.666 92.1535 248.54 91.7635 248.54C91.3648 248.54 91.0268 248.67 90.7495 248.93C90.4721 249.19 90.3335 249.515 90.3335 249.905V254H89.0335ZM100.99 250.23H104.825C104.756 249.701 104.552 249.277 104.214 248.956C103.876 248.635 103.451 248.475 102.94 248.475C102.403 248.475 101.969 248.635 101.64 248.956C101.311 249.268 101.094 249.693 100.99 250.23ZM104.5 252.115H105.865C105.674 252.635 105.328 253.103 104.825 253.519C104.331 253.926 103.703 254.13 102.94 254.13C101.995 254.13 101.215 253.818 100.6 253.194C99.9933 252.57 99.6899 251.755 99.6899 250.75C99.6899 249.745 99.9933 248.93 100.6 248.306C101.215 247.682 101.995 247.37 102.94 247.37C103.824 247.37 104.565 247.673 105.163 248.28C105.761 248.887 106.06 249.645 106.06 250.555C106.06 250.633 106.047 250.789 106.021 251.023L105.995 251.205H100.99C101.059 251.76 101.272 252.202 101.627 252.531C101.982 252.86 102.42 253.025 102.94 253.025C103.304 253.025 103.625 252.938 103.902 252.765C104.188 252.583 104.387 252.366 104.5 252.115ZM107.429 254V247.5H108.599L108.729 248.15H108.794C108.941 248.003 109.102 247.873 109.275 247.76C109.691 247.5 110.159 247.37 110.679 247.37C111.468 247.37 112.096 247.617 112.564 248.111C113.041 248.596 113.279 249.259 113.279 250.1V254H111.979V250.1C111.979 249.675 111.827 249.311 111.524 249.008C111.229 248.696 110.861 248.54 110.419 248.54C109.942 248.54 109.539 248.696 109.21 249.008C108.889 249.311 108.729 249.675 108.729 250.1V254H107.429ZM115.173 252.635V248.735H114.133V247.5H115.173V245.68H116.473V247.5H117.968V248.735H116.473V252.44C116.473 252.7 116.603 252.83 116.863 252.83H117.968V254H116.603C116.143 254 115.788 253.879 115.537 253.636C115.294 253.393 115.173 253.06 115.173 252.635Z" fill="white"/>
<path d="M68.04 268.32L70.9 263.9H72.07L69.925 267.28H69.99L70.237 267.215C70.4103 267.172 70.6097 267.15 70.835 267.15C71.6583 267.15 72.3517 267.427 72.915 267.982C73.4783 268.537 73.76 269.234 73.76 270.075C73.76 270.924 73.4567 271.648 72.85 272.246C72.252 272.835 71.5153 273.13 70.64 273.13C69.7647 273.13 69.0237 272.835 68.417 272.246C67.819 271.648 67.52 270.924 67.52 270.075C67.52 269.442 67.6933 268.857 68.04 268.32ZM69.158 271.557C69.5567 271.956 70.0507 272.155 70.64 272.155C71.2293 272.155 71.7233 271.956 72.122 271.557C72.5207 271.15 72.72 270.656 72.72 270.075C72.72 269.494 72.5207 269.005 72.122 268.606C71.7233 268.199 71.2293 267.995 70.64 267.995C70.0507 267.995 69.5567 268.199 69.158 268.606C68.7593 269.005 68.56 269.494 68.56 270.075C68.56 270.656 68.7593 271.15 69.158 271.557ZM78.3105 273V263.9H79.3505V273H78.3105ZM81.7586 271.895V267.41H80.7186V266.5H81.7586V264.68H82.7336V266.5H84.2286V267.41H82.7336V271.7C82.7336 271.96 82.8636 272.09 83.1236 272.09H84.2286V273H82.9286C82.5646 273 82.2786 272.9 82.0706 272.701C81.8626 272.502 81.7586 272.233 81.7586 271.895ZM89.9526 271.18H90.9926C90.7673 271.804 90.412 272.285 89.9266 272.623C89.45 272.961 88.8736 273.13 88.1976 273.13C87.305 273.13 86.5596 272.818 85.9616 272.194C85.3723 271.561 85.0776 270.747 85.0776 269.75C85.0776 268.753 85.3723 267.943 85.9616 267.319C86.5596 266.686 87.305 266.37 88.1976 266.37C89.0556 266.37 89.7663 266.665 90.3296 267.254C90.9016 267.843 91.1876 268.589 91.1876 269.49C91.1876 269.629 91.1746 269.815 91.1486 270.049L91.1226 270.205H86.0526C86.122 270.812 86.356 271.301 86.7546 271.674C87.162 272.038 87.643 272.22 88.1976 272.22C88.5876 272.22 88.9343 272.129 89.2376 271.947C89.5496 271.765 89.788 271.509 89.9526 271.18ZM86.0526 269.295H90.2126C90.178 268.706 89.97 268.225 89.5886 267.852C89.216 267.471 88.7523 267.28 88.1976 267.28C87.617 267.28 87.1316 267.466 86.7416 267.839C86.3516 268.212 86.122 268.697 86.0526 269.295ZM92.6151 273V266.5H93.4601L93.5901 267.215H93.6551C93.7851 267.059 93.9367 266.92 94.1101 266.799C94.5174 266.513 94.9291 266.37 95.3451 266.37C95.9084 266.37 96.3937 266.556 96.8011 266.929C96.9744 267.085 97.1174 267.267 97.2301 267.475H97.2951C97.4424 267.258 97.6201 267.076 97.8281 266.929C98.3047 266.556 98.8421 266.37 99.4401 266.37C100.116 266.37 100.675 266.608 101.117 267.085C101.559 267.553 101.78 268.16 101.78 268.905V273H100.805V268.905C100.805 268.411 100.671 268.017 100.402 267.722C100.133 267.427 99.7694 267.28 99.3101 267.28C98.8767 267.28 98.4954 267.44 98.1661 267.761C97.8454 268.073 97.6851 268.454 97.6851 268.905V273H96.7101V268.905C96.7101 268.411 96.5757 268.017 96.3071 267.722C96.0384 267.427 95.6744 267.28 95.2151 267.28C94.7817 267.28 94.4004 267.44 94.0711 267.761C93.7504 268.073 93.5901 268.454 93.5901 268.905V273H92.6151Z" fill="white"/>
<path d="M114.182 264.404C114.901 265.291 115.26 266.523 115.26 268.1C115.26 269.677 114.901 270.914 114.182 271.81C113.463 272.697 112.586 273.14 111.55 273.14C110.514 273.14 109.637 272.697 108.918 271.81C108.199 270.914 107.84 269.677 107.84 268.1C107.84 266.523 108.199 265.291 108.918 264.404C109.637 263.508 110.514 263.06 111.55 263.06C112.586 263.06 113.463 263.508 114.182 264.404ZM108.68 268.1C108.68 269.435 108.96 270.471 109.52 271.208C110.089 271.936 110.766 272.3 111.55 272.3C112.334 272.3 113.006 271.936 113.566 271.208C114.135 270.471 114.42 269.435 114.42 268.1C114.42 266.784 114.135 265.757 113.566 265.02C113.006 264.273 112.334 263.9 111.55 263.9C110.766 263.9 110.089 264.273 109.52 265.02C108.96 265.757 108.68 266.784 108.68 268.1ZM117.628 273L121.212 264.04H116.102V263.2H122.122V263.9L118.482 273H117.628ZM122.821 269.36V268.59H127.301V269.36H122.821ZM135.182 264.404C135.901 265.291 136.26 266.523 136.26 268.1C136.26 269.677 135.901 270.914 135.182 271.81C134.463 272.697 133.586 273.14 132.55 273.14C131.514 273.14 130.637 272.697 129.918 271.81C129.199 270.914 128.84 269.677 128.84 268.1C128.84 266.523 129.199 265.291 129.918 264.404C130.637 263.508 131.514 263.06 132.55 263.06C133.586 263.06 134.463 263.508 135.182 264.404ZM129.68 268.1C129.68 269.435 129.96 270.471 130.52 271.208C131.089 271.936 131.766 272.3 132.55 272.3C133.334 272.3 134.006 271.936 134.566 271.208C135.135 270.471 135.42 269.435 135.42 268.1C135.42 266.784 135.135 265.757 134.566 265.02C134.006 264.273 133.334 263.9 132.55 263.9C131.766 263.9 131.089 264.273 130.52 265.02C129.96 265.757 129.68 266.784 129.68 268.1ZM142.607 267.008C142.999 266.644 143.195 266.215 143.195 265.72C143.195 265.225 142.999 264.801 142.607 264.446C142.215 264.082 141.711 263.9 141.095 263.9C140.479 263.9 139.975 264.082 139.583 264.446C139.191 264.801 138.995 265.225 138.995 265.72C138.995 266.215 139.191 266.644 139.583 267.008C139.975 267.363 140.479 267.54 141.095 267.54C141.711 267.54 142.215 267.363 142.607 267.008ZM139.429 268.954C139 269.337 138.785 269.799 138.785 270.34C138.785 270.881 139 271.343 139.429 271.726C139.859 272.109 140.414 272.3 141.095 272.3C141.777 272.3 142.332 272.109 142.761 271.726C143.191 271.343 143.405 270.881 143.405 270.34C143.405 269.799 143.191 269.337 142.761 268.954C142.332 268.571 141.777 268.38 141.095 268.38C140.414 268.38 139.859 268.571 139.429 268.954ZM139.625 267.96V267.89C139.327 267.759 139.079 267.601 138.883 267.414C138.398 266.985 138.155 266.42 138.155 265.72C138.155 264.973 138.431 264.343 138.981 263.83C139.532 263.317 140.237 263.06 141.095 263.06C141.954 263.06 142.659 263.317 143.209 263.83C143.76 264.343 144.035 264.973 144.035 265.72C144.035 266.411 143.788 266.975 143.293 267.414C143.107 267.591 142.864 267.75 142.565 267.89V267.96C142.883 268.081 143.163 268.259 143.405 268.492C143.965 268.977 144.245 269.593 144.245 270.34C144.245 271.124 143.951 271.787 143.363 272.328C142.785 272.869 142.029 273.14 141.095 273.14C140.162 273.14 139.401 272.869 138.813 272.328C138.235 271.787 137.945 271.124 137.945 270.34C137.945 269.593 138.225 268.977 138.785 268.492C139.028 268.259 139.308 268.081 139.625 267.96ZM145.79 269.36V268.59H150.27V269.36H145.79ZM151.809 273V272.23L155.869 267.96C156.475 267.353 156.779 266.7 156.779 266C156.779 265.365 156.587 264.857 156.205 264.474C155.822 264.091 155.313 263.9 154.679 263.9C154.072 263.9 153.568 264.115 153.167 264.544C152.775 264.964 152.579 265.519 152.579 266.21H151.739C151.739 265.267 152.014 264.507 152.565 263.928C153.125 263.349 153.829 263.06 154.679 263.06C155.556 263.06 156.265 263.331 156.807 263.872C157.348 264.413 157.619 265.123 157.619 266C157.619 266.401 157.553 266.77 157.423 267.106C157.301 267.433 157.171 267.685 157.031 267.862C156.9 268.039 156.699 268.273 156.429 268.562L153.069 272.09V272.16H157.829V273H151.809ZM165.711 264.404C166.43 265.291 166.789 266.523 166.789 268.1C166.789 269.677 166.43 270.914 165.711 271.81C164.993 272.697 164.115 273.14 163.079 273.14C162.043 273.14 161.166 272.697 160.447 271.81C159.729 270.914 159.369 269.677 159.369 268.1C159.369 266.523 159.729 265.291 160.447 264.404C161.166 263.508 162.043 263.06 163.079 263.06C164.115 263.06 164.993 263.508 165.711 264.404ZM160.209 268.1C160.209 269.435 160.489 270.471 161.049 271.208C161.619 271.936 162.295 272.3 163.079 272.3C163.863 272.3 164.535 271.936 165.095 271.208C165.665 270.471 165.949 269.435 165.949 268.1C165.949 266.784 165.665 265.757 165.095 265.02C164.535 264.273 163.863 263.9 163.079 263.9C162.295 263.9 161.619 264.273 161.049 265.02C160.489 265.757 160.209 266.784 160.209 268.1ZM168.475 273V272.23L172.535 267.96C173.141 267.353 173.445 266.7 173.445 266C173.445 265.365 173.253 264.857 172.871 264.474C172.488 264.091 171.979 263.9 171.345 263.9C170.738 263.9 170.234 264.115 169.833 264.544C169.441 264.964 169.245 265.519 169.245 266.21H168.405C168.405 265.267 168.68 264.507 169.231 263.928C169.791 263.349 170.495 263.06 171.345 263.06C172.222 263.06 172.931 263.331 173.473 263.872C174.014 264.413 174.285 265.123 174.285 266C174.285 266.401 174.219 266.77 174.089 267.106C173.967 267.433 173.837 267.685 173.697 267.862C173.566 268.039 173.365 268.273 173.095 268.562L169.735 272.09V272.16H174.495V273H168.475ZM175.191 270.69V269.99L179.041 263.2H180.581V269.85H181.981V270.69H180.581V273H179.741V270.69H175.191ZM176.311 269.85H179.741V264.18H179.461L176.311 269.78V269.85Z" fill="#E4E4E7"/>
<path d="M539.07 249.43V248.1H542.22C542.985 248.1 543.475 247.727 543.69 246.98H539.07V245.65H543.69C543.475 244.903 542.985 244.53 542.22 244.53H539.07V243.2H546.07V244.53H544.74C544.796 244.605 544.847 244.693 544.894 244.796C544.968 244.936 545.062 245.221 545.174 245.65H546.07V246.98H545.174C545.024 247.755 544.702 248.357 544.208 248.786C543.713 249.215 543.097 249.43 542.36 249.43H541.94L545.44 253H543.55L540.05 249.43H539.07ZM548.874 253V245.65H546.844V244.25H548.454C548.734 244.25 548.874 244.11 548.874 243.83V243.2H550.344V253H548.874ZM552.019 254.19L552.299 251.39H553.909L553.139 254.19H552.019ZM555.314 250.34H556.784C556.868 250.732 557.068 251.063 557.386 251.334C557.712 251.605 558.142 251.74 558.674 251.74C559.271 251.74 559.747 251.563 560.102 251.208C560.456 250.853 560.634 250.377 560.634 249.78C560.634 249.22 560.452 248.767 560.088 248.422C559.733 248.067 559.262 247.89 558.674 247.89C557.974 247.89 557.437 248.123 557.064 248.59H555.524L556.084 243.2H561.544V244.6H557.344L557.064 246.98H557.134C557.638 246.653 558.221 246.49 558.884 246.49C559.808 246.49 560.573 246.803 561.18 247.428C561.796 248.044 562.104 248.828 562.104 249.78C562.104 250.76 561.782 251.567 561.138 252.202C560.503 252.827 559.682 253.14 558.674 253.14C558.123 253.14 557.628 253.051 557.19 252.874C556.76 252.697 556.42 252.463 556.168 252.174C555.916 251.885 555.72 251.586 555.58 251.278C555.449 250.97 555.36 250.657 555.314 250.34ZM569.092 250.802C569.568 250.167 569.806 249.267 569.806 248.1C569.806 246.933 569.568 246.037 569.092 245.412C568.616 244.777 568.038 244.46 567.356 244.46C566.675 244.46 566.096 244.777 565.62 245.412C565.144 246.037 564.906 246.933 564.906 248.1C564.906 249.267 565.144 250.167 565.62 250.802C566.096 251.427 566.675 251.74 567.356 251.74C568.038 251.74 568.616 251.427 569.092 250.802ZM564.57 244.418C565.326 243.513 566.255 243.06 567.356 243.06C568.458 243.06 569.386 243.513 570.142 244.418C570.898 245.323 571.276 246.551 571.276 248.1C571.276 249.649 570.898 250.877 570.142 251.782C569.386 252.687 568.458 253.14 567.356 253.14C566.255 253.14 565.326 252.687 564.57 251.782C563.814 250.877 563.436 249.649 563.436 248.1C563.436 246.551 563.814 245.323 564.57 244.418ZM578.335 250.802C578.811 250.167 579.049 249.267 579.049 248.1C579.049 246.933 578.811 246.037 578.335 245.412C577.859 244.777 577.28 244.46 576.599 244.46C575.917 244.46 575.339 244.777 574.863 245.412C574.387 246.037 574.149 246.933 574.149 248.1C574.149 249.267 574.387 250.167 574.863 250.802C575.339 251.427 575.917 251.74 576.599 251.74C577.28 251.74 577.859 251.427 578.335 250.802ZM573.813 244.418C574.569 243.513 575.497 243.06 576.599 243.06C577.7 243.06 578.629 243.513 579.385 244.418C580.141 245.323 580.519 246.551 580.519 248.1C580.519 249.649 580.141 250.877 579.385 251.782C578.629 252.687 577.7 253.14 576.599 253.14C575.497 253.14 574.569 252.687 573.813 251.782C573.057 250.877 572.679 249.649 572.679 248.1C572.679 246.551 573.057 245.323 573.813 244.418ZM582.061 253V251.39H583.671V253H582.061ZM590.872 250.802C591.348 250.167 591.586 249.267 591.586 248.1C591.586 246.933 591.348 246.037 590.872 245.412C590.396 244.777 589.817 244.46 589.136 244.46C588.454 244.46 587.876 244.777 587.4 245.412C586.924 246.037 586.686 246.933 586.686 248.1C586.686 249.267 586.924 250.167 587.4 250.802C587.876 251.427 588.454 251.74 589.136 251.74C589.817 251.74 590.396 251.427 590.872 250.802ZM586.35 244.418C587.106 243.513 588.034 243.06 589.136 243.06C590.237 243.06 591.166 243.513 591.922 244.418C592.678 245.323 593.056 246.551 593.056 248.1C593.056 249.649 592.678 250.877 591.922 251.782C591.166 252.687 590.237 253.14 589.136 253.14C588.034 253.14 587.106 252.687 586.35 251.782C585.594 250.877 585.216 249.649 585.216 248.1C585.216 246.551 585.594 245.323 586.35 244.418ZM600.114 250.802C600.59 250.167 600.828 249.267 600.828 248.1C600.828 246.933 600.59 246.037 600.114 245.412C599.638 244.777 599.059 244.46 598.378 244.46C597.696 244.46 597.118 244.777 596.642 245.412C596.166 246.037 595.928 246.933 595.928 248.1C595.928 249.267 596.166 250.167 596.642 250.802C597.118 251.427 597.696 251.74 598.378 251.74C599.059 251.74 599.638 251.427 600.114 250.802ZM595.592 244.418C596.348 243.513 597.276 243.06 598.378 243.06C599.479 243.06 600.408 243.513 601.164 244.418C601.92 245.323 602.298 246.551 602.298 248.1C602.298 249.649 601.92 250.877 601.164 251.782C600.408 252.687 599.479 253.14 598.378 253.14C597.276 253.14 596.348 252.687 595.592 251.782C594.836 250.877 594.458 249.649 594.458 248.1C594.458 246.551 594.836 245.323 595.592 244.418Z" fill="white"/>
</g>
<defs>
<filter id="filter0_ddd_3550_99512" x="0" y="0" width="626" height="62" filterUnits="userSpaceOnUse" color-interpolation-filters="sRGB">
<feFlood flood-opacity="0" result="BackgroundImageFix"/>
<feColorMatrix in="SourceAlpha" type="matrix" values="0 0 0 0 0 0 0 0 0 0 0 0 0 0 0 0 0 0 127 0" result="hardAlpha"/>
<feMorphology radius="1" operator="dilate" in="SourceAlpha" result="effect1_dropShadow_3550_99512"/>
<feOffset/>
<feComposite in2="hardAlpha" operator="out"/>
<feColorMatrix type="matrix" values="0 0 0 0 0.0627451 0 0 0 0 0.0980392 0 0 0 0 0.156863 0 0 0 0.05 0"/>
<feBlend mode="normal" in2="BackgroundImageFix" result="effect1_dropShadow_3550_99512"/>
<feColorMatrix in="SourceAlpha" type="matrix" values="0 0 0 0 0 0 0 0 0 0 0 0 0 0 0 0 0 0 127 0" result="hardAlpha"/>
<feOffset dy="2"/>
<feGaussianBlur stdDeviation="3.5"/>
<feComposite in2="hardAlpha" operator="out"/>
<feColorMatrix type="matrix" values="0 0 0 0 0.0627451 0 0 0 0 0.0980392 0 0 0 0 0.156863 0 0 0 0.05 0"/>
<feBlend mode="normal" in2="effect1_dropShadow_3550_99512" result="effect2_dropShadow_3550_99512"/>
<feColorMatrix in="SourceAlpha" type="matrix" values="0 0 0 0 0 0 0 0 0 0 0 0 0 0 0 0 0 0 127 0" result="hardAlpha"/>
<feMorphology radius="2" operator="erode" in="SourceAlpha" result="effect3_dropShadow_3550_99512"/>
<feOffset dy="2"/>
<feGaussianBlur stdDeviation="2.5"/>
<feComposite in2="hardAlpha" operator="out"/>
<feColorMatrix type="matrix" values="0 0 0 0 0.0627451 0 0 0 0 0.0980392 0 0 0 0 0.156863 0 0 0 0.06 0"/>
<feBlend mode="normal" in2="effect2_dropShadow_3550_99512" result="effect3_dropShadow_3550_99512"/>
<feBlend mode="normal" in="SourceGraphic" in2="effect3_dropShadow_3550_99512" result="shape"/>
</filter>
<filter id="filter1_ddd_3550_99512" x="0" y="48" width="626" height="254" filterUnits="userSpaceOnUse" color-interpolation-filters="sRGB">
<feFlood flood-opacity="0" result="BackgroundImageFix"/>
<feColorMatrix in="SourceAlpha" type="matrix" values="0 0 0 0 0 0 0 0 0 0 0 0 0 0 0 0 0 0 127 0" result="hardAlpha"/>
<feMorphology radius="1" operator="dilate" in="SourceAlpha" result="effect1_dropShadow_3550_99512"/>
<feOffset/>
<feComposite in2="hardAlpha" operator="out"/>
<feColorMatrix type="matrix" values="0 0 0 0 0.0627451 0 0 0 0 0.0980392 0 0 0 0 0.156863 0 0 0 0.05 0"/>
<feBlend mode="normal" in2="BackgroundImageFix" result="effect1_dropShadow_3550_99512"/>
<feColorMatrix in="SourceAlpha" type="matrix" values="0 0 0 0 0 0 0 0 0 0 0 0 0 0 0 0 0 0 127 0" result="hardAlpha"/>
<feOffset dy="2"/>
<feGaussianBlur stdDeviation="3.5"/>
<feComposite in2="hardAlpha" operator="out"/>
<feColorMatrix type="matrix" values="0 0 0 0 0.0627451 0 0 0 0 0.0980392 0 0 0 0 0.156863 0 0 0 0.05 0"/>
<feBlend mode="normal" in2="effect1_dropShadow_3550_99512" result="effect2_dropShadow_3550_99512"/>
<feColorMatrix in="SourceAlpha" type="matrix" values="0 0 0 0 0 0 0 0 0 0 0 0 0 0 0 0 0 0 127 0" result="hardAlpha"/>
<feMorphology radius="2" operator="erode" in="SourceAlpha" result="effect3_dropShadow_3550_99512"/>
<feOffset dy="2"/>
<feGaussianBlur stdDeviation="2.5"/>
<feComposite in2="hardAlpha" operator="out"/>
<feColorMatrix type="matrix" values="0 0 0 0 0.0627451 0 0 0 0 0.0980392 0 0 0 0 0.156863 0 0 0 0.06 0"/>
<feBlend mode="normal" in2="effect2_dropShadow_3550_99512" result="effect3_dropShadow_3550_99512"/>
<feBlend mode="normal" in="SourceGraphic" in2="effect3_dropShadow_3550_99512" result="shape"/>
</filter>
<linearGradient id="paint0_linear_3550_99512" x1="-143.875" y1="-13.6506" x2="-99.419" y2="205.938" gradientUnits="userSpaceOnUse">
<stop stop-color="white"/>
<stop offset="1" stop-color="white" stop-opacity="0"/>
</linearGradient>
<linearGradient id="paint1_linear_3550_99512" x1="-673" y1="-48.2048" x2="-579.358" y2="340.024" gradientUnits="userSpaceOnUse">
<stop stop-color="white"/>
<stop offset="1" stop-color="white" stop-opacity="0"/>
</linearGradient>
<linearGradient id="paint2_linear_3550_99512" x1="-143.875" y1="-40.253" x2="427.555" y2="524.258" gradientUnits="userSpaceOnUse">
<stop stop-color="white"/>
<stop offset="1" stop-color="white" stop-opacity="0"/>
</linearGradient>
<linearGradient id="paint3_linear_3550_99512" x1="-673" y1="-213.024" x2="336.28" y2="623.845" gradientUnits="userSpaceOnUse">
<stop stop-color="white"/>
<stop offset="1" stop-color="white" stop-opacity="0"/>
</linearGradient>
<clipPath id="clip0_3550_99512">
<rect width="16" height="16" fill="white" transform="translate(31 77)"/>
</clipPath>
<clipPath id="clip1_3550_99512">
<rect width="16" height="16" fill="white" transform="translate(31 134)"/>
</clipPath>
<clipPath id="clip2_3550_99512">
<rect width="16" height="16" fill="white" transform="translate(31 191)"/>
</clipPath>
<clipPath id="clip3_3550_99512">
<rect width="16" height="16" fill="white" transform="translate(31 248)"/>
</clipPath>
</defs>
</svg>
