<svg width="626" height="286" viewBox="0 0 626 286" fill="none" xmlns="http://www.w3.org/2000/svg">
<g filter="url(#filter0_ddd_3550_99715)">
<mask id="path-1-inside-1_3550_99715" fill="white">
<path d="M7 13C7 8.58172 10.5817 5 15 5H611C615.418 5 619 8.58172 619 13V53H7V13Z"/>
</mask>
<path d="M7 13C7 8.58172 10.5817 5 15 5H611C615.418 5 619 8.58172 619 13V53H7V13Z" fill="url(#paint0_linear_3550_99715)" fill-opacity="0.1" shape-rendering="crispEdges"/>
<path d="M6 13C6 8.02944 10.0294 4 15 4H611C615.971 4 620 8.02944 620 13H618C618 9.13401 614.866 6 611 6H15C11.134 6 8 9.13401 8 13H6ZM619 53H7H619ZM6 53V13C6 8.02944 10.0294 4 15 4V6C11.134 6 8 9.13401 8 13V53H6ZM611 4C615.971 4 620 8.02944 620 13V53H618V13C618 9.13401 614.866 6 611 6V4Z" fill="url(#paint1_linear_3550_99715)" fill-opacity="0.1" mask="url(#path-1-inside-1_3550_99715)"/>
<path d="M19.56 22.99H21.03C21.03 23.466 21.2493 23.8767 21.688 24.222C22.136 24.5673 22.71 24.74 23.41 24.74C24.1753 24.74 24.74 24.6093 25.104 24.348C25.468 24.0773 25.65 23.718 25.65 23.27C25.65 22.5513 25.09 22.0847 23.97 21.87L22.08 21.52C21.3147 21.38 20.736 21.086 20.344 20.638C19.9613 20.19 19.77 19.6207 19.77 18.93C19.77 18.1087 20.0873 17.4273 20.722 16.886C21.3567 16.3353 22.206 16.06 23.27 16.06C24.446 16.06 25.356 16.3587 26 16.956C26.6533 17.544 26.98 18.2953 26.98 19.21H25.51C25.51 18.734 25.3047 18.3233 24.894 17.978C24.4833 17.6327 23.942 17.46 23.27 17.46C22.6353 17.46 22.136 17.6047 21.772 17.894C21.4173 18.174 21.24 18.5193 21.24 18.93C21.24 19.6207 21.73 20.064 22.71 20.26L24.25 20.54C25.2393 20.7173 25.9627 21.0253 26.42 21.464C26.8867 21.8933 27.12 22.4953 27.12 23.27C27.12 24.11 26.798 24.8007 26.154 25.342C25.51 25.874 24.5953 26.14 23.41 26.14C22.2247 26.14 21.2867 25.8413 20.596 25.244C19.9053 24.6467 19.56 23.8953 19.56 22.99ZM28.9466 24.53V20.33H27.8266V19H28.9466V17.04H30.3466V19H31.9566V20.33H30.3466V24.32C30.3466 24.6 30.4866 24.74 30.7666 24.74H31.9566V26H30.4866C29.9919 26 29.6092 25.8693 29.3386 25.608C29.0772 25.3467 28.9466 24.9873 28.9466 24.53ZM34.8644 24.236C35.2657 24.6653 35.7697 24.88 36.3764 24.88C36.9831 24.88 37.4824 24.6653 37.8744 24.236C38.2757 23.7973 38.4764 23.2187 38.4764 22.5C38.4764 21.7813 38.2757 21.2073 37.8744 20.778C37.4824 20.3393 36.9831 20.12 36.3764 20.12C35.7697 20.12 35.2657 20.3393 34.8644 20.778C34.4724 21.2073 34.2764 21.7813 34.2764 22.5C34.2764 23.2187 34.4724 23.7973 34.8644 24.236ZM38.8824 25.132C38.2291 25.804 37.3937 26.14 36.3764 26.14C35.3591 26.14 34.5191 25.804 33.8564 25.132C33.2031 24.46 32.8764 23.5827 32.8764 22.5C32.8764 21.4173 33.2031 20.54 33.8564 19.868C34.5191 19.196 35.3591 18.86 36.3764 18.86C37.3937 18.86 38.2291 19.196 38.8824 19.868C39.5451 20.54 39.8764 21.4173 39.8764 22.5C39.8764 23.5827 39.5451 24.46 38.8824 25.132ZM46.3175 23.55H47.7175C47.6522 23.8393 47.5448 24.124 47.3955 24.404C47.2555 24.684 47.0595 24.9593 46.8075 25.23C46.5648 25.5007 46.2428 25.72 45.8415 25.888C45.4402 26.056 44.9922 26.14 44.4975 26.14C43.4802 26.14 42.6402 25.804 41.9775 25.132C41.3242 24.46 40.9975 23.5827 40.9975 22.5C40.9975 21.4173 41.3242 20.54 41.9775 19.868C42.6402 19.196 43.4802 18.86 44.4975 18.86C45.4308 18.86 46.1635 19.126 46.6955 19.658C47.2275 20.1807 47.5682 20.7547 47.7175 21.38H46.3175C46.0188 20.54 45.4122 20.12 44.4975 20.12C43.8908 20.12 43.3868 20.3393 42.9855 20.778C42.5935 21.2073 42.3975 21.7813 42.3975 22.5C42.3975 23.2187 42.5935 23.7973 42.9855 24.236C43.3868 24.6653 43.8908 24.88 44.4975 24.88C45.0015 24.88 45.4075 24.7447 45.7155 24.474C46.0235 24.2033 46.2242 23.8953 46.3175 23.55ZM49.1831 26V16.2H50.5831V22.22L53.5231 19H55.2031L52.0531 22.43L55.3431 26H53.6631L50.5831 22.64V26H49.1831ZM59.1264 22.99H60.5964C60.5964 23.466 60.8157 23.8767 61.2544 24.222C61.7024 24.5673 62.2764 24.74 62.9764 24.74C63.7417 24.74 64.3064 24.6093 64.6704 24.348C65.0344 24.0773 65.2164 23.718 65.2164 23.27C65.2164 22.5513 64.6564 22.0847 63.5364 21.87L61.6464 21.52C60.8811 21.38 60.3024 21.086 59.9104 20.638C59.5277 20.19 59.3364 19.6207 59.3364 18.93C59.3364 18.1087 59.6537 17.4273 60.2884 16.886C60.9231 16.3353 61.7724 16.06 62.8364 16.06C64.0124 16.06 64.9224 16.3587 65.5664 16.956C66.2197 17.544 66.5464 18.2953 66.5464 19.21H65.0764C65.0764 18.734 64.8711 18.3233 64.4604 17.978C64.0497 17.6327 63.5084 17.46 62.8364 17.46C62.2017 17.46 61.7024 17.6047 61.3384 17.894C60.9837 18.174 60.8064 18.5193 60.8064 18.93C60.8064 19.6207 61.2964 20.064 62.2764 20.26L63.8164 20.54C64.8057 20.7173 65.5291 21.0253 65.9864 21.464C66.4531 21.8933 66.6864 22.4953 66.6864 23.27C66.6864 24.11 66.3644 24.8007 65.7204 25.342C65.0764 25.874 64.1617 26.14 62.9764 26.14C61.7911 26.14 60.8531 25.8413 60.1624 25.244C59.4717 24.6467 59.1264 23.8953 59.1264 22.99ZM68.2264 23.2V19H69.6264V23.2C69.6264 23.6573 69.7851 24.054 70.1024 24.39C70.4291 24.7167 70.8304 24.88 71.3064 24.88C71.8197 24.88 72.2491 24.7167 72.5944 24.39C72.9491 24.054 73.1264 23.6573 73.1264 23.2V19H74.5264V26H73.2664L73.1264 25.3H73.0564C72.8977 25.4587 72.7251 25.5987 72.5384 25.72C72.0904 26 71.5864 26.14 71.0264 26.14C70.1771 26.14 69.4957 25.8787 68.9824 25.356C68.4784 24.824 68.2264 24.1053 68.2264 23.2ZM76.3475 26V19H77.6075L77.7475 19.7H77.8175C77.9482 19.5507 78.1115 19.4107 78.3075 19.28C78.7368 19 79.1802 18.86 79.6375 18.86C80.2162 18.86 80.7062 19.0233 81.1075 19.35C81.2848 19.518 81.4248 19.6813 81.5275 19.84H81.5975C81.7188 19.6813 81.9008 19.518 82.1435 19.35C82.6662 19.0233 83.2542 18.86 83.9075 18.86C84.6355 18.86 85.2375 19.1167 85.7135 19.63C86.1895 20.134 86.4275 20.7827 86.4275 21.576V26H85.0275V21.59C85.0275 21.142 84.8968 20.7873 84.6355 20.526C84.3835 20.2553 84.0475 20.12 83.6275 20.12C83.1982 20.12 82.8342 20.26 82.5355 20.54C82.2368 20.82 82.0875 21.17 82.0875 21.59V26H80.6875V21.59C80.6875 21.142 80.5568 20.7873 80.2955 20.526C80.0435 20.2553 79.7075 20.12 79.2875 20.12C78.8582 20.12 78.4942 20.26 78.1955 20.54C77.8968 20.82 77.7475 21.17 77.7475 21.59V26H76.3475ZM88.1737 26V19H89.4337L89.5737 19.7H89.6437C89.7743 19.5507 89.9377 19.4107 90.1337 19.28C90.563 19 91.0063 18.86 91.4637 18.86C92.0423 18.86 92.5323 19.0233 92.9337 19.35C93.111 19.518 93.251 19.6813 93.3537 19.84H93.4237C93.545 19.6813 93.727 19.518 93.9697 19.35C94.4923 19.0233 95.0803 18.86 95.7337 18.86C96.4617 18.86 97.0637 19.1167 97.5397 19.63C98.0157 20.134 98.2537 20.7827 98.2537 21.576V26H96.8537V21.59C96.8537 21.142 96.723 20.7873 96.4617 20.526C96.2097 20.2553 95.8737 20.12 95.4537 20.12C95.0243 20.12 94.6603 20.26 94.3617 20.54C94.063 20.82 93.9137 21.17 93.9137 21.59V26H92.5137V21.59C92.5137 21.142 92.383 20.7873 92.1217 20.526C91.8697 20.2553 91.5337 20.12 91.1137 20.12C90.6843 20.12 90.3203 20.26 90.0217 20.54C89.723 20.82 89.5737 21.17 89.5737 21.59V26H88.1737ZM104.55 26L104.41 25.23H104.34C104.2 25.4073 104.032 25.5613 103.836 25.692C103.388 25.9907 102.856 26.14 102.24 26.14C101.475 26.14 100.863 25.9393 100.406 25.538C99.9485 25.1367 99.7198 24.614 99.7198 23.97C99.7198 23.2513 99.9578 22.6867 100.434 22.276C100.919 21.8653 101.638 21.66 102.59 21.66H104.34V21.52C104.34 21.0627 104.209 20.7033 103.948 20.442C103.687 20.1807 103.327 20.05 102.87 20.05C102.422 20.05 102.077 20.1527 101.834 20.358C101.591 20.554 101.447 20.778 101.4 21.03H99.9998C100.037 20.414 100.313 19.9007 100.826 19.49C101.339 19.07 102.021 18.86 102.87 18.86C103.775 18.86 104.48 19.098 104.984 19.574C105.488 20.05 105.74 20.6987 105.74 21.52V26H104.55ZM104.34 23.06V22.78H102.66C102.147 22.78 101.759 22.8827 101.498 23.088C101.246 23.2933 101.12 23.564 101.12 23.9C101.12 24.2267 101.227 24.4833 101.442 24.67C101.657 24.8567 101.969 24.95 102.38 24.95C103.015 24.95 103.5 24.7867 103.836 24.46C104.172 24.124 104.34 23.6573 104.34 23.06ZM107.492 26V19H108.682L108.822 19.63H108.892C108.901 19.6207 108.929 19.588 108.976 19.532C109.032 19.476 109.065 19.4387 109.074 19.42C109.093 19.4013 109.13 19.3687 109.186 19.322C109.242 19.266 109.289 19.2287 109.326 19.21C109.363 19.1913 109.415 19.168 109.48 19.14C109.545 19.1027 109.611 19.0793 109.676 19.07C109.751 19.0513 109.835 19.0373 109.928 19.028C110.021 19.0093 110.119 19 110.222 19H111.482V20.26H110.362C109.382 20.26 108.892 20.7453 108.892 21.716V26H107.492ZM112.467 28.8V27.54H113.867C113.988 27.54 114.091 27.4933 114.175 27.4C114.259 27.316 114.315 27.2227 114.343 27.12L114.567 26.49L111.697 19H113.167L115.197 24.32H115.477L117.297 19H118.767L115.687 27.61C115.538 28.0207 115.332 28.3193 115.071 28.506C114.819 28.702 114.441 28.8 113.937 28.8H112.467Z" fill="white"/>
<path d="M19.96 43V34.6H20.92V43H19.96ZM23.3828 41.98V37.84H22.4228V37H23.3828V35.32H24.2828V37H25.6628V37.84H24.2828V41.8C24.2828 42.04 24.4028 42.16 24.6428 42.16H25.6628V43H24.4628C24.1268 43 23.8628 42.908 23.6708 42.724C23.4788 42.54 23.3828 42.292 23.3828 41.98ZM31.1866 41.32H32.1466C31.9386 41.896 31.6106 42.34 31.1626 42.652C30.7226 42.964 30.1906 43.12 29.5666 43.12C28.7426 43.12 28.0546 42.832 27.5026 42.256C26.9586 41.672 26.6866 40.92 26.6866 40C26.6866 39.08 26.9586 38.332 27.5026 37.756C28.0546 37.172 28.7426 36.88 29.5666 36.88C30.3586 36.88 31.0146 37.152 31.5346 37.696C32.0626 38.24 32.3266 38.928 32.3266 39.76C32.3266 39.888 32.3146 40.06 32.2906 40.276L32.2666 40.42H27.5866C27.6506 40.98 27.8666 41.432 28.2346 41.776C28.6106 42.112 29.0546 42.28 29.5666 42.28C29.9266 42.28 30.2466 42.196 30.5266 42.028C30.8146 41.86 31.0346 41.624 31.1866 41.32ZM27.5866 39.58H31.4266C31.3946 39.036 31.2026 38.592 30.8506 38.248C30.5066 37.896 30.0786 37.72 29.5666 37.72C29.0306 37.72 28.5826 37.892 28.2226 38.236C27.8626 38.58 27.6506 39.028 27.5866 39.58ZM33.8842 43V37H34.6642L34.7842 37.66H34.8442C34.9642 37.516 35.1042 37.388 35.2642 37.276C35.6402 37.012 36.0202 36.88 36.4042 36.88C36.9242 36.88 37.3722 37.052 37.7482 37.396C37.9082 37.54 38.0402 37.708 38.1442 37.9H38.2042C38.3402 37.7 38.5042 37.532 38.6962 37.396C39.1362 37.052 39.6322 36.88 40.1842 36.88C40.8082 36.88 41.3242 37.1 41.7322 37.54C42.1402 37.972 42.3442 38.532 42.3442 39.22V43H41.4442V39.22C41.4442 38.764 41.3202 38.4 41.0722 38.128C40.8242 37.856 40.4882 37.72 40.0642 37.72C39.6642 37.72 39.3122 37.868 39.0082 38.164C38.7122 38.452 38.5642 38.804 38.5642 39.22V43H37.6642V39.22C37.6642 38.764 37.5402 38.4 37.2922 38.128C37.0442 37.856 36.7082 37.72 36.2842 37.72C35.8842 37.72 35.5322 37.868 35.2282 38.164C34.9322 38.452 34.7842 38.804 34.7842 39.22V43H33.8842ZM43.7809 41.26H44.6809C44.6809 41.54 44.8129 41.78 45.0769 41.98C45.3489 42.18 45.7169 42.28 46.1809 42.28C46.6369 42.28 46.9889 42.196 47.2369 42.028C47.4929 41.852 47.6209 41.636 47.6209 41.38C47.6209 40.908 47.2809 40.608 46.6009 40.48L45.5809 40.3C44.4609 40.116 43.9009 39.556 43.9009 38.62C43.9009 38.116 44.0929 37.7 44.4769 37.372C44.8609 37.044 45.4089 36.88 46.1209 36.88C46.8169 36.88 47.3809 37.064 47.8129 37.432C48.2449 37.8 48.4609 38.236 48.4609 38.74H47.5609C47.5609 38.46 47.4289 38.22 47.1649 38.02C46.9089 37.82 46.5609 37.72 46.1209 37.72C45.6889 37.72 45.3609 37.808 45.1369 37.984C44.9129 38.152 44.8009 38.364 44.8009 38.62C44.8009 39.06 45.1209 39.34 45.7609 39.46L46.7809 39.64C47.3809 39.752 47.8209 39.952 48.1009 40.24C48.3809 40.52 48.5209 40.9 48.5209 41.38C48.5209 41.884 48.3169 42.3 47.9089 42.628C47.5089 42.956 46.9329 43.12 46.1809 43.12C45.4609 43.12 44.8809 42.936 44.4409 42.568C44.0009 42.2 43.7809 41.764 43.7809 41.26ZM53.0261 43V37H53.8061L53.9261 37.6H53.9861C54.1301 37.392 54.2781 37.24 54.4301 37.144C54.5901 37.048 54.8221 37 55.1261 37H56.1461V37.84H55.2461C54.8221 37.84 54.4941 37.956 54.2621 38.188C54.0381 38.412 53.9261 38.736 53.9261 39.16V43H53.0261ZM61.0098 43L60.8898 42.28H60.8298C60.7178 42.44 60.5738 42.58 60.3978 42.7C60.0298 42.98 59.5538 43.12 58.9698 43.12C58.3458 43.12 57.8378 42.948 57.4458 42.604C57.0618 42.26 56.8698 41.812 56.8698 41.26C56.8698 40.66 57.0658 40.192 57.4578 39.856C57.8578 39.512 58.4618 39.34 59.2698 39.34H60.8898V39.16C60.8898 38.704 60.7618 38.352 60.5058 38.104C60.2578 37.848 59.9058 37.72 59.4498 37.72C59.0178 37.72 58.6658 37.82 58.3938 38.02C58.1298 38.212 57.9818 38.452 57.9498 38.74H57.0498C57.0818 38.228 57.3098 37.792 57.7338 37.432C58.1658 37.064 58.7378 36.88 59.4498 36.88C60.1778 36.88 60.7498 37.08 61.1658 37.48C61.5818 37.88 61.7898 38.44 61.7898 39.16V43H61.0098ZM60.8898 40.42V40.18H59.2698C58.7578 40.18 58.3778 40.28 58.1298 40.48C57.8898 40.68 57.7698 40.94 57.7698 41.26C57.7698 41.572 57.8738 41.82 58.0818 42.004C58.2898 42.188 58.5858 42.28 58.9698 42.28C59.5698 42.28 60.0378 42.116 60.3738 41.788C60.7178 41.452 60.8898 40.996 60.8898 40.42ZM63.7131 43V37H64.4931L64.6131 37.66H64.6731C64.8011 37.5 64.9491 37.372 65.1171 37.276C65.5331 37.012 65.9851 36.88 66.4731 36.88C67.1691 36.88 67.7411 37.116 68.1891 37.588C68.6451 38.052 68.8731 38.656 68.8731 39.4V43H67.9731V39.4C67.9731 38.92 67.8171 38.52 67.5051 38.2C67.1931 37.88 66.8091 37.72 66.3531 37.72C65.8731 37.72 65.4611 37.888 65.1171 38.224C64.7811 38.552 64.6131 38.944 64.6131 39.4V43H63.7131ZM70.8569 43V34.6H71.7569V39.76L74.4569 37H75.5969L72.7169 39.94L75.7169 43H74.5769L71.7569 40.12V43H70.8569ZM80.7081 41.32H81.6681C81.4601 41.896 81.1321 42.34 80.6841 42.652C80.2441 42.964 79.7121 43.12 79.0881 43.12C78.2641 43.12 77.5761 42.832 77.0241 42.256C76.4801 41.672 76.2081 40.92 76.2081 40C76.2081 39.08 76.4801 38.332 77.0241 37.756C77.5761 37.172 78.2641 36.88 79.0881 36.88C79.8801 36.88 80.5361 37.152 81.0561 37.696C81.5841 38.24 81.8481 38.928 81.8481 39.76C81.8481 39.888 81.8361 40.06 81.8121 40.276L81.7881 40.42H77.1081C77.1721 40.98 77.3881 41.432 77.7561 41.776C78.1321 42.112 78.5761 42.28 79.0881 42.28C79.4481 42.28 79.7681 42.196 80.0481 42.028C80.3361 41.86 80.5561 41.624 80.7081 41.32ZM77.1081 39.58H80.9481C80.9161 39.036 80.7241 38.592 80.3721 38.248C80.0281 37.896 79.6001 37.72 79.0881 37.72C78.5521 37.72 78.1041 37.892 77.7441 38.236C77.3841 38.58 77.1721 39.028 77.1081 39.58ZM87.9058 43L87.7858 42.16H87.7258C87.2218 42.8 86.5818 43.12 85.8058 43.12C85.0138 43.12 84.3538 42.832 83.8258 42.256C83.3058 41.672 83.0458 40.92 83.0458 40C83.0458 39.08 83.3058 38.332 83.8258 37.756C84.3538 37.172 85.0138 36.88 85.8058 36.88C86.5818 36.88 87.2218 37.2 87.7258 37.84H87.7858V34.6H88.6858V43H87.9058ZM84.5098 41.644C84.8858 42.068 85.3378 42.28 85.8658 42.28C86.3938 42.28 86.8458 42.068 87.2218 41.644C87.5978 41.22 87.7858 40.672 87.7858 40C87.7858 39.328 87.5978 38.78 87.2218 38.356C86.8458 37.932 86.3938 37.72 85.8658 37.72C85.3378 37.72 84.8858 37.932 84.5098 38.356C84.1338 38.78 83.9458 39.328 83.9458 40C83.9458 40.672 84.1338 41.22 84.5098 41.644ZM93.7309 43V34.6H94.6309V37.84H94.6909C95.1949 37.2 95.8349 36.88 96.6109 36.88C97.4029 36.88 98.0589 37.172 98.5789 37.756C99.1069 38.332 99.3709 39.08 99.3709 40C99.3709 40.92 99.1069 41.672 98.5789 42.256C98.0589 42.832 97.4029 43.12 96.6109 43.12C95.8349 43.12 95.1949 42.8 94.6909 42.16H94.6309L94.5109 43H93.7309ZM95.1949 41.644C95.5709 42.068 96.0229 42.28 96.5509 42.28C97.0789 42.28 97.5309 42.068 97.9069 41.644C98.2829 41.22 98.4709 40.672 98.4709 40C98.4709 39.328 98.2829 38.78 97.9069 38.356C97.5309 37.932 97.0789 37.72 96.5509 37.72C96.0229 37.72 95.5709 37.932 95.1949 38.356C94.8189 38.78 94.6309 39.328 94.6309 40C94.6309 40.672 94.8189 41.22 95.1949 41.644ZM100.753 45.4V44.56H101.893C102.093 44.56 102.233 44.44 102.313 44.2L102.553 43.48L100.093 37H101.053L102.913 41.98H103.153L104.833 37H105.793L103.093 44.56C102.989 44.856 102.853 45.068 102.685 45.196C102.517 45.332 102.273 45.4 101.953 45.4H100.753ZM109.637 45.4V37H110.417L110.537 37.84H110.597C111.101 37.2 111.741 36.88 112.517 36.88C113.309 36.88 113.965 37.172 114.485 37.756C115.013 38.332 115.277 39.08 115.277 40C115.277 40.92 115.013 41.672 114.485 42.256C113.965 42.832 113.309 43.12 112.517 43.12C111.741 43.12 111.101 42.8 110.597 42.16H110.537V45.4H109.637ZM111.101 41.644C111.477 42.068 111.929 42.28 112.457 42.28C112.985 42.28 113.437 42.068 113.813 41.644C114.189 41.22 114.377 40.672 114.377 40C114.377 39.328 114.189 38.78 113.813 38.356C113.437 37.932 112.985 37.72 112.457 37.72C111.929 37.72 111.477 37.932 111.101 38.356C110.725 38.78 110.537 39.328 110.537 40C110.537 40.672 110.725 41.22 111.101 41.644ZM116.838 43V37H117.618L117.738 37.6H117.798C117.942 37.392 118.09 37.24 118.242 37.144C118.402 37.048 118.634 37 118.938 37H119.958V37.84H119.058C118.634 37.84 118.306 37.956 118.074 38.188C117.85 38.412 117.738 38.736 117.738 39.16V43H116.838ZM125.494 42.256C124.95 42.832 124.266 43.12 123.442 43.12C122.618 43.12 121.93 42.832 121.378 42.256C120.834 41.672 120.562 40.92 120.562 40C120.562 39.08 120.834 38.332 121.378 37.756C121.93 37.172 122.618 36.88 123.442 36.88C124.266 36.88 124.95 37.172 125.494 37.756C126.046 38.332 126.322 39.08 126.322 40C126.322 40.92 126.046 41.672 125.494 42.256ZM122.026 41.644C122.41 42.068 122.882 42.28 123.442 42.28C124.002 42.28 124.47 42.068 124.846 41.644C125.23 41.22 125.422 40.672 125.422 40C125.422 39.328 125.23 38.78 124.846 38.356C124.47 37.932 124.002 37.72 123.442 37.72C122.882 37.72 122.41 37.932 122.026 38.356C121.65 38.78 121.462 39.328 121.462 40C121.462 40.672 121.65 41.22 122.026 41.644ZM128.297 43V37.84H127.337V37H128.297V35.86C128.297 35.548 128.393 35.3 128.585 35.116C128.777 34.932 129.041 34.84 129.377 34.84H130.337V35.68H129.557C129.317 35.68 129.197 35.8 129.197 36.04V37H132.077V43H131.177V37.84H129.197V43H128.297ZM131.117 35.86V34.84H132.137V35.86H131.117ZM134.478 41.98V37.84H133.518V37H134.478V35.32H135.378V37H136.758V37.84H135.378V41.8C135.378 42.04 135.498 42.16 135.738 42.16H136.758V43H135.558C135.222 43 134.958 42.908 134.766 42.724C134.574 42.54 134.478 42.292 134.478 41.98ZM141.382 43V37H142.162L142.282 37.66H142.342C142.462 37.516 142.602 37.388 142.762 37.276C143.138 37.012 143.518 36.88 143.902 36.88C144.422 36.88 144.87 37.052 145.246 37.396C145.406 37.54 145.538 37.708 145.642 37.9H145.702C145.838 37.7 146.002 37.532 146.194 37.396C146.634 37.052 147.13 36.88 147.682 36.88C148.306 36.88 148.822 37.1 149.23 37.54C149.638 37.972 149.842 38.532 149.842 39.22V43H148.942V39.22C148.942 38.764 148.818 38.4 148.57 38.128C148.322 37.856 147.986 37.72 147.562 37.72C147.162 37.72 146.81 37.868 146.506 38.164C146.21 38.452 146.062 38.804 146.062 39.22V43H145.162V39.22C145.162 38.764 145.038 38.4 144.79 38.128C144.542 37.856 144.206 37.72 143.782 37.72C143.382 37.72 143.03 37.868 142.726 38.164C142.43 38.452 142.282 38.804 142.282 39.22V43H141.382ZM155.658 43L155.538 42.28H155.478C155.366 42.44 155.222 42.58 155.046 42.7C154.678 42.98 154.202 43.12 153.618 43.12C152.994 43.12 152.486 42.948 152.094 42.604C151.71 42.26 151.518 41.812 151.518 41.26C151.518 40.66 151.714 40.192 152.106 39.856C152.506 39.512 153.11 39.34 153.918 39.34H155.538V39.16C155.538 38.704 155.41 38.352 155.154 38.104C154.906 37.848 154.554 37.72 154.098 37.72C153.666 37.72 153.314 37.82 153.042 38.02C152.778 38.212 152.63 38.452 152.598 38.74H151.698C151.73 38.228 151.958 37.792 152.382 37.432C152.814 37.064 153.386 36.88 154.098 36.88C154.826 36.88 155.398 37.08 155.814 37.48C156.23 37.88 156.438 38.44 156.438 39.16V43H155.658ZM155.538 40.42V40.18H153.918C153.406 40.18 153.026 40.28 152.778 40.48C152.538 40.68 152.418 40.94 152.418 41.26C152.418 41.572 152.522 41.82 152.73 42.004C152.938 42.188 153.234 42.28 153.618 42.28C154.218 42.28 154.686 42.116 155.022 41.788C155.366 41.452 155.538 40.996 155.538 40.42ZM158.362 43V37H159.142L159.262 37.6H159.322C159.466 37.392 159.614 37.24 159.766 37.144C159.926 37.048 160.158 37 160.462 37H161.482V37.84H160.582C160.158 37.84 159.83 37.956 159.598 38.188C159.374 38.412 159.262 38.736 159.262 39.16V43H158.362ZM162.325 43.48H163.225C163.257 43.816 163.429 44.1 163.741 44.332C164.053 44.564 164.481 44.68 165.025 44.68C165.569 44.68 166.005 44.528 166.333 44.224C166.661 43.92 166.825 43.512 166.825 43V41.92H166.765C166.269 42.48 165.629 42.76 164.845 42.76C164.053 42.76 163.393 42.488 162.865 41.944C162.345 41.392 162.085 40.684 162.085 39.82C162.085 38.956 162.345 38.252 162.865 37.708C163.393 37.156 164.053 36.88 164.845 36.88C165.229 36.88 165.589 36.964 165.925 37.132C166.269 37.292 166.549 37.508 166.765 37.78H166.825L166.945 37H167.725V43C167.725 43.76 167.481 44.368 166.993 44.824C166.513 45.288 165.857 45.52 165.025 45.52C164.225 45.52 163.581 45.316 163.093 44.908C162.613 44.508 162.357 44.032 162.325 43.48ZM163.525 41.344C163.893 41.728 164.353 41.92 164.905 41.92C165.457 41.92 165.913 41.728 166.273 41.344C166.641 40.952 166.825 40.444 166.825 39.82C166.825 39.196 166.641 38.692 166.273 38.308C165.913 37.916 165.457 37.72 164.905 37.72C164.353 37.72 163.893 37.916 163.525 38.308C163.165 38.692 162.985 39.196 162.985 39.82C162.985 40.444 163.165 40.952 163.525 41.344ZM169.706 43V37H170.606V43H169.706ZM169.646 35.74V34.72H170.666V35.74H169.646ZM172.582 43V37H173.362L173.482 37.66H173.542C173.67 37.5 173.818 37.372 173.986 37.276C174.402 37.012 174.854 36.88 175.342 36.88C176.038 36.88 176.61 37.116 177.058 37.588C177.514 38.052 177.742 38.656 177.742 39.4V43H176.842V39.4C176.842 38.92 176.686 38.52 176.374 38.2C176.062 37.88 175.678 37.72 175.222 37.72C174.742 37.72 174.33 37.888 173.986 38.224C173.65 38.552 173.482 38.944 173.482 39.4V43H172.582ZM183.091 41.98V37.84H182.131V37H183.091V35.32H183.991V37H185.371V37.84H183.991V41.8C183.991 42.04 184.111 42.16 184.351 42.16H185.371V43H184.171C183.835 43 183.571 42.908 183.379 42.724C183.187 42.54 183.091 42.292 183.091 41.98ZM191.327 42.256C190.783 42.832 190.099 43.12 189.275 43.12C188.451 43.12 187.763 42.832 187.211 42.256C186.667 41.672 186.395 40.92 186.395 40C186.395 39.08 186.667 38.332 187.211 37.756C187.763 37.172 188.451 36.88 189.275 36.88C190.099 36.88 190.783 37.172 191.327 37.756C191.879 38.332 192.155 39.08 192.155 40C192.155 40.92 191.879 41.672 191.327 42.256ZM187.859 41.644C188.243 42.068 188.715 42.28 189.275 42.28C189.835 42.28 190.303 42.068 190.679 41.644C191.063 41.22 191.255 40.672 191.255 40C191.255 39.328 191.063 38.78 190.679 38.356C190.303 37.932 189.835 37.72 189.275 37.72C188.715 37.72 188.243 37.932 187.859 38.356C187.483 38.78 187.295 39.328 187.295 40C187.295 40.672 187.483 41.22 187.859 41.644ZM196.775 43V34.6H197.675V37.66H197.735C197.863 37.5 198.011 37.372 198.179 37.276C198.595 37.012 199.047 36.88 199.535 36.88C200.231 36.88 200.803 37.116 201.251 37.588C201.707 38.052 201.935 38.656 201.935 39.4V43H201.035V39.4C201.035 38.92 200.879 38.52 200.567 38.2C200.255 37.88 199.871 37.72 199.415 37.72C198.935 37.72 198.523 37.888 198.179 38.224C197.843 38.552 197.675 38.944 197.675 39.4V43H196.775ZM203.918 43V37H204.818V43H203.918ZM203.858 35.74V34.72H204.878V35.74H203.858ZM206.673 43.48H207.573C207.605 43.816 207.777 44.1 208.089 44.332C208.401 44.564 208.829 44.68 209.373 44.68C209.917 44.68 210.353 44.528 210.681 44.224C211.009 43.92 211.173 43.512 211.173 43V41.92H211.113C210.617 42.48 209.977 42.76 209.193 42.76C208.401 42.76 207.741 42.488 207.213 41.944C206.693 41.392 206.433 40.684 206.433 39.82C206.433 38.956 206.693 38.252 207.213 37.708C207.741 37.156 208.401 36.88 209.193 36.88C209.577 36.88 209.937 36.964 210.273 37.132C210.617 37.292 210.897 37.508 211.113 37.78H211.173L211.293 37H212.073V43C212.073 43.76 211.829 44.368 211.341 44.824C210.861 45.288 210.205 45.52 209.373 45.52C208.573 45.52 207.929 45.316 207.441 44.908C206.961 44.508 206.705 44.032 206.673 43.48ZM207.873 41.344C208.241 41.728 208.701 41.92 209.253 41.92C209.805 41.92 210.261 41.728 210.621 41.344C210.989 40.952 211.173 40.444 211.173 39.82C211.173 39.196 210.989 38.692 210.621 38.308C210.261 37.916 209.805 37.72 209.253 37.72C208.701 37.72 208.241 37.916 207.873 38.308C207.513 38.692 207.333 39.196 207.333 39.82C207.333 40.444 207.513 40.952 207.873 41.344ZM214.054 43V34.6H214.954V37.66H215.014C215.142 37.5 215.29 37.372 215.458 37.276C215.874 37.012 216.326 36.88 216.814 36.88C217.51 36.88 218.082 37.116 218.53 37.588C218.986 38.052 219.214 38.656 219.214 39.4V43H218.314V39.4C218.314 38.92 218.158 38.52 217.846 38.2C217.534 37.88 217.15 37.72 216.694 37.72C216.214 37.72 215.802 37.888 215.458 38.224C215.122 38.552 214.954 38.944 214.954 39.4V43H214.054ZM221.196 43V34.6H222.096V43H221.196ZM224.132 43V37H225.032V43H224.132ZM224.072 35.74V34.72H225.092V35.74H224.072ZM226.887 43.48H227.787C227.819 43.816 227.991 44.1 228.303 44.332C228.615 44.564 229.043 44.68 229.587 44.68C230.131 44.68 230.567 44.528 230.895 44.224C231.223 43.92 231.387 43.512 231.387 43V41.92H231.327C230.831 42.48 230.191 42.76 229.407 42.76C228.615 42.76 227.955 42.488 227.427 41.944C226.907 41.392 226.647 40.684 226.647 39.82C226.647 38.956 226.907 38.252 227.427 37.708C227.955 37.156 228.615 36.88 229.407 36.88C229.791 36.88 230.151 36.964 230.487 37.132C230.831 37.292 231.111 37.508 231.327 37.78H231.387L231.507 37H232.287V43C232.287 43.76 232.043 44.368 231.555 44.824C231.075 45.288 230.419 45.52 229.587 45.52C228.787 45.52 228.143 45.316 227.655 44.908C227.175 44.508 226.919 44.032 226.887 43.48ZM228.087 41.344C228.455 41.728 228.915 41.92 229.467 41.92C230.019 41.92 230.475 41.728 230.835 41.344C231.203 40.952 231.387 40.444 231.387 39.82C231.387 39.196 231.203 38.692 230.835 38.308C230.475 37.916 230.019 37.72 229.467 37.72C228.915 37.72 228.455 37.916 228.087 38.308C227.727 38.692 227.547 39.196 227.547 39.82C227.547 40.444 227.727 40.952 228.087 41.344ZM234.268 43V34.6H235.168V37.66H235.228C235.356 37.5 235.504 37.372 235.672 37.276C236.088 37.012 236.54 36.88 237.028 36.88C237.724 36.88 238.296 37.116 238.744 37.588C239.2 38.052 239.428 38.656 239.428 39.4V43H238.528V39.4C238.528 38.92 238.372 38.52 238.06 38.2C237.748 37.88 237.364 37.72 236.908 37.72C236.428 37.72 236.016 37.888 235.672 38.224C235.336 38.552 235.168 38.944 235.168 39.4V43H234.268ZM241.536 41.98V37.84H240.576V37H241.536V35.32H242.436V37H243.816V37.84H242.436V41.8C242.436 42.04 242.556 42.16 242.796 42.16H243.816V43H242.616C242.28 43 242.016 42.908 241.824 42.724C241.632 42.54 241.536 42.292 241.536 41.98ZM248.44 45.4V37H249.22L249.34 37.84H249.4C249.904 37.2 250.544 36.88 251.32 36.88C252.112 36.88 252.768 37.172 253.288 37.756C253.816 38.332 254.08 39.08 254.08 40C254.08 40.92 253.816 41.672 253.288 42.256C252.768 42.832 252.112 43.12 251.32 43.12C250.544 43.12 249.904 42.8 249.4 42.16H249.34V45.4H248.44ZM249.904 41.644C250.28 42.068 250.732 42.28 251.26 42.28C251.788 42.28 252.24 42.068 252.616 41.644C252.992 41.22 253.18 40.672 253.18 40C253.18 39.328 252.992 38.78 252.616 38.356C252.24 37.932 251.788 37.72 251.26 37.72C250.732 37.72 250.28 37.932 249.904 38.356C249.528 38.78 249.34 39.328 249.34 40C249.34 40.672 249.528 41.22 249.904 41.644ZM255.64 43V37H256.42L256.54 37.6H256.6C256.744 37.392 256.892 37.24 257.044 37.144C257.204 37.048 257.436 37 257.74 37H258.76V37.84H257.86C257.436 37.84 257.108 37.956 256.876 38.188C256.652 38.412 256.54 38.736 256.54 39.16V43H255.64ZM264.296 42.256C263.752 42.832 263.068 43.12 262.244 43.12C261.42 43.12 260.732 42.832 260.18 42.256C259.636 41.672 259.364 40.92 259.364 40C259.364 39.08 259.636 38.332 260.18 37.756C260.732 37.172 261.42 36.88 262.244 36.88C263.068 36.88 263.752 37.172 264.296 37.756C264.848 38.332 265.124 39.08 265.124 40C265.124 40.92 264.848 41.672 264.296 42.256ZM260.828 41.644C261.212 42.068 261.684 42.28 262.244 42.28C262.804 42.28 263.272 42.068 263.648 41.644C264.032 41.22 264.224 40.672 264.224 40C264.224 39.328 264.032 38.78 263.648 38.356C263.272 37.932 262.804 37.72 262.244 37.72C261.684 37.72 261.212 37.932 260.828 38.356C260.452 38.78 260.264 39.328 260.264 40C260.264 40.672 260.452 41.22 260.828 41.644ZM271.179 43L271.059 42.16H270.999C270.495 42.8 269.855 43.12 269.079 43.12C268.287 43.12 267.627 42.832 267.099 42.256C266.579 41.672 266.319 40.92 266.319 40C266.319 39.08 266.579 38.332 267.099 37.756C267.627 37.172 268.287 36.88 269.079 36.88C269.855 36.88 270.495 37.2 270.999 37.84H271.059V34.6H271.959V43H271.179ZM267.783 41.644C268.159 42.068 268.611 42.28 269.139 42.28C269.667 42.28 270.119 42.068 270.495 41.644C270.871 41.22 271.059 40.672 271.059 40C271.059 39.328 270.871 38.78 270.495 38.356C270.119 37.932 269.667 37.72 269.139 37.72C268.611 37.72 268.159 37.932 267.783 38.356C267.407 38.78 267.219 39.328 267.219 40C267.219 40.672 267.407 41.22 267.783 41.644ZM273.939 40.6V37H274.839V40.6C274.839 41.08 274.995 41.48 275.307 41.8C275.619 42.12 276.003 42.28 276.459 42.28C276.939 42.28 277.347 42.116 277.683 41.788C278.027 41.452 278.199 41.056 278.199 40.6V37H279.099V43H278.319L278.199 42.34H278.139C277.995 42.508 277.843 42.64 277.683 42.736C277.283 42.992 276.835 43.12 276.339 43.12C275.643 43.12 275.067 42.888 274.611 42.424C274.163 41.952 273.939 41.344 273.939 40.6ZM285.282 41.02H286.182C286.03 41.684 285.718 42.2 285.246 42.568C284.782 42.936 284.214 43.12 283.542 43.12C282.718 43.12 282.03 42.832 281.478 42.256C280.934 41.672 280.662 40.92 280.662 40C280.662 39.08 280.934 38.332 281.478 37.756C282.03 37.172 282.718 36.88 283.542 36.88C284.206 36.88 284.774 37.064 285.246 37.432C285.718 37.792 286.03 38.288 286.182 38.92H285.282C285.162 38.536 284.95 38.24 284.646 38.032C284.342 37.824 283.974 37.72 283.542 37.72C282.982 37.72 282.51 37.932 282.126 38.356C281.75 38.78 281.562 39.328 281.562 40C281.562 40.672 281.75 41.22 282.126 41.644C282.51 42.068 282.982 42.28 283.542 42.28C284.462 42.28 285.042 41.86 285.282 41.02ZM288.046 41.98V37.84H287.086V37H288.046V35.32H288.946V37H290.326V37.84H288.946V41.8C288.946 42.04 289.066 42.16 289.306 42.16H290.326V43H289.126C288.79 43 288.526 42.908 288.334 42.724C288.142 42.54 288.046 42.292 288.046 41.98ZM291.824 43V41.92H292.904V43H291.824Z" fill="#A3A3A3"/>
</g>
<g filter="url(#filter1_ddd_3550_99715)">
<path d="M7 53H619V269C619 273.418 615.418 277 611 277H15C10.5817 277 7 273.418 7 269V53Z" fill="url(#paint2_linear_3550_99715)" fill-opacity="0.1" shape-rendering="crispEdges"/>
<path d="M618.5 53.5V269C618.5 273.142 615.142 276.5 611 276.5H15C10.8579 276.5 7.5 273.142 7.5 269V53.5H618.5Z" stroke="url(#paint3_linear_3550_99715)" stroke-opacity="0.1" shape-rendering="crispEdges"/>
<path d="M27.652 78.726C26.7467 79.6687 25.636 80.14 24.32 80.14C23.004 80.14 21.8933 79.6687 20.988 78.726C20.0827 77.7833 19.63 76.5747 19.63 75.1C19.63 73.6253 20.0827 72.4167 20.988 71.474C21.8933 70.5313 23.004 70.06 24.32 70.06C25.636 70.06 26.7467 70.5313 27.652 71.474C28.5573 72.4167 29.01 73.6253 29.01 75.1C29.01 76.5747 28.5573 77.7833 27.652 78.726ZM26.63 72.454C26.0233 71.7913 25.2533 71.46 24.32 71.46C23.3867 71.46 22.6167 71.7913 22.01 72.454C21.4033 73.1167 21.1 73.9987 21.1 75.1C21.1 76.2013 21.4033 77.0833 22.01 77.746C22.6167 78.4087 23.3867 78.74 24.32 78.74C25.2533 78.74 26.0233 78.4087 26.63 77.746C27.2367 77.0833 27.54 76.2013 27.54 75.1C27.54 73.9987 27.2367 73.1167 26.63 72.454ZM30.5467 82.8V73H31.8067L31.9467 73.84H32.0167C32.1661 73.672 32.2921 73.5413 32.3947 73.448C32.4974 73.3453 32.7167 73.224 33.0527 73.084C33.3981 72.9347 33.7761 72.86 34.1867 72.86C35.1201 72.86 35.8901 73.1913 36.4967 73.854C37.1034 74.5167 37.4067 75.3987 37.4067 76.5C37.4067 77.6013 37.1034 78.4833 36.4967 79.146C35.8901 79.8087 35.1201 80.14 34.1867 80.14C33.2254 80.14 32.5021 79.8133 32.0167 79.16H31.9467V82.8H30.5467ZM32.5207 78.222C32.9127 78.6607 33.3981 78.88 33.9767 78.88C34.5554 78.88 35.0361 78.6607 35.4187 78.222C35.8107 77.7833 36.0067 77.2093 36.0067 76.5C36.0067 75.7907 35.8107 75.2167 35.4187 74.778C35.0361 74.3393 34.5554 74.12 33.9767 74.12C33.3981 74.12 32.9127 74.3393 32.5207 74.778C32.1381 75.2167 31.9467 75.7907 31.9467 76.5C31.9467 77.2093 32.1381 77.7833 32.5207 78.222ZM39.9229 75.94H44.0529C43.9782 75.3707 43.7589 74.9133 43.3949 74.568C43.0309 74.2227 42.5736 74.05 42.0229 74.05C41.4442 74.05 40.9776 74.2227 40.6229 74.568C40.2682 74.904 40.0349 75.3613 39.9229 75.94ZM43.7029 77.97H45.1729C44.9676 78.53 44.5942 79.034 44.0529 79.482C43.5209 79.9207 42.8442 80.14 42.0229 80.14C41.0056 80.14 40.1656 79.804 39.5029 79.132C38.8496 78.46 38.5229 77.5827 38.5229 76.5C38.5229 75.4173 38.8496 74.54 39.5029 73.868C40.1656 73.196 41.0056 72.86 42.0229 72.86C42.9749 72.86 43.7729 73.1867 44.4169 73.84C45.0609 74.4933 45.3829 75.31 45.3829 76.29C45.3829 76.374 45.3689 76.542 45.3409 76.794L45.3129 76.99H39.9229C39.9976 77.5873 40.2262 78.0633 40.6089 78.418C40.9916 78.7727 41.4629 78.95 42.0229 78.95C42.4149 78.95 42.7602 78.8567 43.0589 78.67C43.3669 78.474 43.5816 78.2407 43.7029 77.97ZM46.8573 80V73H48.1173L48.2573 73.7H48.3273C48.4859 73.5413 48.6586 73.4013 48.8453 73.28C49.2933 73 49.7973 72.86 50.3573 72.86C51.2066 72.86 51.8833 73.126 52.3873 73.658C52.9006 74.1807 53.1573 74.8947 53.1573 75.8V80H51.7573V75.8C51.7573 75.3427 51.5939 74.9507 51.2673 74.624C50.9499 74.288 50.5533 74.12 50.0773 74.12C49.5639 74.12 49.1299 74.288 48.7753 74.624C48.4299 74.9507 48.2573 75.3427 48.2573 75.8V80H46.8573ZM54.91 80V73H56.31V80H54.91ZM54.84 71.67V70.2H56.38V71.67H54.84ZM58.1366 80V73H59.3966L59.5366 73.7H59.6066C59.7652 73.5413 59.9379 73.4013 60.1246 73.28C60.5726 73 61.0766 72.86 61.6366 72.86C62.4859 72.86 63.1626 73.126 63.6666 73.658C64.1799 74.1807 64.4366 74.8947 64.4366 75.8V80H63.0366V75.8C63.0366 75.3427 62.8732 74.9507 62.5466 74.624C62.2292 74.288 61.8326 74.12 61.3566 74.12C60.8432 74.12 60.4092 74.288 60.0546 74.624C59.7092 74.9507 59.5366 75.3427 59.5366 75.8V80H58.1366ZM67.7853 77.746C68.1586 78.1287 68.63 78.32 69.1993 78.32C69.7686 78.32 70.2353 78.1287 70.5993 77.746C70.9726 77.354 71.1593 76.8453 71.1593 76.22C71.1593 75.5947 70.9726 75.0907 70.5993 74.708C70.2353 74.316 69.7686 74.12 69.1993 74.12C68.63 74.12 68.1586 74.316 67.7853 74.708C67.4213 75.0907 67.2393 75.5947 67.2393 76.22C67.2393 76.8453 67.4213 77.354 67.7853 77.746ZM66.0493 80.42H67.4493C67.4866 80.7653 67.664 81.0593 67.9813 81.302C68.308 81.554 68.7373 81.68 69.2693 81.68C69.8293 81.68 70.282 81.5073 70.6273 81.162C70.982 80.826 71.1593 80.392 71.1593 79.86V78.74H71.0893C70.9306 78.8987 70.7906 79.0247 70.6693 79.118C70.548 79.2113 70.3286 79.314 70.0113 79.426C69.694 79.5287 69.33 79.58 68.9193 79.58C68.0326 79.58 67.2953 79.272 66.7073 78.656C66.1286 78.0307 65.8393 77.2187 65.8393 76.22C65.8393 75.2213 66.1286 74.414 66.7073 73.798C67.2953 73.1727 68.0326 72.86 68.9193 72.86C69.8526 72.86 70.576 73.1633 71.0893 73.77H71.1593L71.2993 73H72.5593V79.86C72.5593 80.7933 72.27 81.54 71.6913 82.1C71.1126 82.66 70.3053 82.94 69.2693 82.94C68.728 82.94 68.2426 82.856 67.8133 82.688C67.384 82.52 67.048 82.3007 66.8053 82.03C66.572 81.7687 66.39 81.498 66.2593 81.218C66.138 80.9473 66.068 80.6813 66.0493 80.42ZM77.3237 76.99H78.7937C78.7937 77.466 79.013 77.8767 79.4517 78.222C79.8997 78.5673 80.4737 78.74 81.1737 78.74C81.939 78.74 82.5037 78.6093 82.8677 78.348C83.2317 78.0773 83.4137 77.718 83.4137 77.27C83.4137 76.5513 82.8537 76.0847 81.7337 75.87L79.8437 75.52C79.0783 75.38 78.4997 75.086 78.1077 74.638C77.725 74.19 77.5337 73.6207 77.5337 72.93C77.5337 72.1087 77.851 71.4273 78.4857 70.886C79.1203 70.3353 79.9697 70.06 81.0337 70.06C82.2097 70.06 83.1197 70.3587 83.7637 70.956C84.417 71.544 84.7437 72.2953 84.7437 73.21H83.2737C83.2737 72.734 83.0683 72.3233 82.6577 71.978C82.247 71.6327 81.7057 71.46 81.0337 71.46C80.399 71.46 79.8997 71.6047 79.5357 71.894C79.181 72.174 79.0037 72.5193 79.0037 72.93C79.0037 73.6207 79.4937 74.064 80.4737 74.26L82.0137 74.54C83.003 74.7173 83.7263 75.0253 84.1837 75.464C84.6503 75.8933 84.8837 76.4953 84.8837 77.27C84.8837 78.11 84.5617 78.8007 83.9177 79.342C83.2737 79.874 82.359 80.14 81.1737 80.14C79.9883 80.14 79.0503 79.8413 78.3597 79.244C77.669 78.6467 77.3237 77.8953 77.3237 76.99ZM86.7102 78.53V74.33H85.5902V73H86.7102V71.04H88.1102V73H89.7202V74.33H88.1102V78.32C88.1102 78.6 88.2502 78.74 88.5302 78.74H89.7202V80H88.2502C87.7556 80 87.3729 79.8693 87.1022 79.608C86.8409 79.3467 86.7102 78.9873 86.7102 78.53ZM92.6281 78.236C93.0294 78.6653 93.5334 78.88 94.1401 78.88C94.7467 78.88 95.2461 78.6653 95.6381 78.236C96.0394 77.7973 96.2401 77.2187 96.2401 76.5C96.2401 75.7813 96.0394 75.2073 95.6381 74.778C95.2461 74.3393 94.7467 74.12 94.1401 74.12C93.5334 74.12 93.0294 74.3393 92.6281 74.778C92.2361 75.2073 92.0401 75.7813 92.0401 76.5C92.0401 77.2187 92.2361 77.7973 92.6281 78.236ZM96.6461 79.132C95.9927 79.804 95.1574 80.14 94.1401 80.14C93.1227 80.14 92.2827 79.804 91.6201 79.132C90.9667 78.46 90.6401 77.5827 90.6401 76.5C90.6401 75.4173 90.9667 74.54 91.6201 73.868C92.2827 73.196 93.1227 72.86 94.1401 72.86C95.1574 72.86 95.9927 73.196 96.6461 73.868C97.3087 74.54 97.6401 75.4173 97.6401 76.5C97.6401 77.5827 97.3087 78.46 96.6461 79.132ZM104.081 77.55H105.481C105.416 77.8393 105.309 78.124 105.159 78.404C105.019 78.684 104.823 78.9593 104.571 79.23C104.329 79.5007 104.007 79.72 103.605 79.888C103.204 80.056 102.756 80.14 102.261 80.14C101.244 80.14 100.404 79.804 99.7412 79.132C99.0878 78.46 98.7612 77.5827 98.7612 76.5C98.7612 75.4173 99.0878 74.54 99.7412 73.868C100.404 73.196 101.244 72.86 102.261 72.86C103.195 72.86 103.927 73.126 104.459 73.658C104.991 74.1807 105.332 74.7547 105.481 75.38H104.081C103.783 74.54 103.176 74.12 102.261 74.12C101.655 74.12 101.151 74.3393 100.749 74.778C100.357 75.2073 100.161 75.7813 100.161 76.5C100.161 77.2187 100.357 77.7973 100.749 78.236C101.151 78.6653 101.655 78.88 102.261 78.88C102.765 78.88 103.171 78.7447 103.479 78.474C103.787 78.2033 103.988 77.8953 104.081 77.55ZM106.947 80V70.2H108.347V76.22L111.287 73H112.967L109.817 76.43L113.107 80H111.427L108.347 76.64V80H106.947Z" fill="#D1D1D1"/>
<path d="M532.578 76.92V75.4H536.178C537.052 75.4 537.612 74.9733 537.858 74.12H532.578V72.6H537.858C537.612 71.7467 537.052 71.32 536.178 71.32H532.578V69.8H540.578V71.32H539.058C539.122 71.4053 539.18 71.5067 539.234 71.624C539.319 71.784 539.426 72.1093 539.554 72.6H540.578V74.12H539.554C539.383 75.0053 539.015 75.6933 538.45 76.184C537.884 76.6747 537.18 76.92 536.338 76.92H535.858L539.858 81H537.698L533.698 76.92H532.578ZM543.783 81V72.6H541.463V71H543.303C543.623 71 543.783 70.84 543.783 70.52V69.8H545.463V81H543.783ZM547.376 82.36L547.696 79.16H549.536L548.656 82.36H547.376ZM557.686 78.488C558.23 77.7627 558.502 76.7333 558.502 75.4C558.502 74.0667 558.23 73.0427 557.686 72.328C557.142 71.6027 556.481 71.24 555.702 71.24C554.923 71.24 554.262 71.6027 553.718 72.328C553.174 73.0427 552.902 74.0667 552.902 75.4C552.902 76.7333 553.174 77.7627 553.718 78.488C554.262 79.2027 554.923 79.56 555.702 79.56C556.481 79.56 557.142 79.2027 557.686 78.488ZM552.518 71.192C553.382 70.1573 554.443 69.64 555.702 69.64C556.961 69.64 558.022 70.1573 558.886 71.192C559.75 72.2267 560.182 73.6293 560.182 75.4C560.182 77.1707 559.75 78.5733 558.886 79.608C558.022 80.6427 556.961 81.16 555.702 81.16C554.443 81.16 553.382 80.6427 552.518 79.608C551.654 78.5733 551.222 77.1707 551.222 75.4C551.222 73.6293 551.654 72.2267 552.518 71.192ZM568.248 78.488C568.792 77.7627 569.064 76.7333 569.064 75.4C569.064 74.0667 568.792 73.0427 568.248 72.328C567.704 71.6027 567.043 71.24 566.264 71.24C565.486 71.24 564.824 71.6027 564.28 72.328C563.736 73.0427 563.464 74.0667 563.464 75.4C563.464 76.7333 563.736 77.7627 564.28 78.488C564.824 79.2027 565.486 79.56 566.264 79.56C567.043 79.56 567.704 79.2027 568.248 78.488ZM563.08 71.192C563.944 70.1573 565.006 69.64 566.264 69.64C567.523 69.64 568.584 70.1573 569.448 71.192C570.312 72.2267 570.744 73.6293 570.744 75.4C570.744 77.1707 570.312 78.5733 569.448 79.608C568.584 80.6427 567.523 81.16 566.264 81.16C565.006 81.16 563.944 80.6427 563.08 79.608C562.216 78.5733 561.784 77.1707 561.784 75.4C561.784 73.6293 562.216 72.2267 563.08 71.192ZM572.267 82.36L572.587 79.16H574.427L573.547 82.36H572.267ZM582.577 78.488C583.121 77.7627 583.392 76.7333 583.392 75.4C583.392 74.0667 583.121 73.0427 582.577 72.328C582.033 71.6027 581.371 71.24 580.593 71.24C579.814 71.24 579.153 71.6027 578.609 72.328C578.065 73.0427 577.793 74.0667 577.793 75.4C577.793 76.7333 578.065 77.7627 578.609 78.488C579.153 79.2027 579.814 79.56 580.593 79.56C581.371 79.56 582.033 79.2027 582.577 78.488ZM577.409 71.192C578.273 70.1573 579.334 69.64 580.593 69.64C581.851 69.64 582.913 70.1573 583.777 71.192C584.641 72.2267 585.073 73.6293 585.073 75.4C585.073 77.1707 584.641 78.5733 583.777 79.608C582.913 80.6427 581.851 81.16 580.593 81.16C579.334 81.16 578.273 80.6427 577.409 79.608C576.545 78.5733 576.113 77.1707 576.113 75.4C576.113 73.6293 576.545 72.2267 577.409 71.192ZM593.139 78.488C593.683 77.7627 593.955 76.7333 593.955 75.4C593.955 74.0667 593.683 73.0427 593.139 72.328C592.595 71.6027 591.934 71.24 591.155 71.24C590.376 71.24 589.715 71.6027 589.171 72.328C588.627 73.0427 588.355 74.0667 588.355 75.4C588.355 76.7333 588.627 77.7627 589.171 78.488C589.715 79.2027 590.376 79.56 591.155 79.56C591.934 79.56 592.595 79.2027 593.139 78.488ZM587.971 71.192C588.835 70.1573 589.896 69.64 591.155 69.64C592.414 69.64 593.475 70.1573 594.339 71.192C595.203 72.2267 595.635 73.6293 595.635 75.4C595.635 77.1707 595.203 78.5733 594.339 79.608C593.475 80.6427 592.414 81.16 591.155 81.16C589.896 81.16 588.835 80.6427 587.971 79.608C587.107 78.5733 586.675 77.1707 586.675 75.4C586.675 73.6293 587.107 72.2267 587.971 71.192ZM603.702 78.488C604.246 77.7627 604.517 76.7333 604.517 75.4C604.517 74.0667 604.246 73.0427 603.702 72.328C603.158 71.6027 602.496 71.24 601.718 71.24C600.939 71.24 600.278 71.6027 599.734 72.328C599.19 73.0427 598.918 74.0667 598.918 75.4C598.918 76.7333 599.19 77.7627 599.734 78.488C600.278 79.2027 600.939 79.56 601.718 79.56C602.496 79.56 603.158 79.2027 603.702 78.488ZM598.534 71.192C599.398 70.1573 600.459 69.64 601.718 69.64C602.976 69.64 604.038 70.1573 604.902 71.192C605.766 72.2267 606.198 73.6293 606.198 75.4C606.198 77.1707 605.766 78.5733 604.902 79.608C604.038 80.6427 602.976 81.16 601.718 81.16C600.459 81.16 599.398 80.6427 598.534 79.608C597.67 78.5733 597.238 77.1707 597.238 75.4C597.238 73.6293 597.67 72.2267 598.534 71.192Z" fill="white"/>
<g clip-path="url(#clip0_3550_99715)">
<path opacity="0.3" d="M31.9549 103.686L20.9687 105.348C20.4833 105.421 20.1494 105.874 20.2228 106.359L20.4222 107.678C20.4956 108.163 20.9486 108.497 21.434 108.424L32.4201 106.762C32.9055 106.689 33.2395 106.236 33.1661 105.75L32.9667 104.432C32.8933 103.947 32.4403 103.613 31.9549 103.686Z" fill="#4AA44D" stroke="#4AA44D" stroke-linecap="round" stroke-linejoin="round"/>
<path d="M32.1089 109.003V114.781C32.1089 115.763 31.3134 116.559 30.3312 116.559H23.6645C22.6823 116.559 21.8867 115.763 21.8867 114.781V108.559" stroke="#4AA44D" stroke-linecap="round" stroke-linejoin="round"/>
<path d="M31.9549 103.686L20.9687 105.348C20.4833 105.421 20.1494 105.874 20.2228 106.359L20.4222 107.678C20.4956 108.163 20.9486 108.497 21.434 108.424L32.4201 106.762C32.9055 106.689 33.2395 106.236 33.1661 105.75L32.9667 104.432C32.8933 103.947 32.4403 103.613 31.9549 103.686Z" stroke="#4AA44D" stroke-linecap="round" stroke-linejoin="round"/>
<path d="M29 111.891L27 113.891L25 111.891" stroke="#4AA44D" stroke-linecap="round" stroke-linejoin="round"/>
<path d="M27 113.668V109.891" stroke="#4AA44D" stroke-linecap="round" stroke-linejoin="round"/>
</g>
<path d="M39.56 112.99H41.03C41.03 113.466 41.2493 113.877 41.688 114.222C42.136 114.567 42.71 114.74 43.41 114.74C44.1753 114.74 44.74 114.609 45.104 114.348C45.468 114.077 45.65 113.718 45.65 113.27C45.65 112.551 45.09 112.085 43.97 111.87L42.08 111.52C41.3147 111.38 40.736 111.086 40.344 110.638C39.9613 110.19 39.77 109.621 39.77 108.93C39.77 108.109 40.0873 107.427 40.722 106.886C41.3567 106.335 42.206 106.06 43.27 106.06C44.446 106.06 45.356 106.359 46 106.956C46.6533 107.544 46.98 108.295 46.98 109.21H45.51C45.51 108.734 45.3047 108.323 44.894 107.978C44.4833 107.633 43.942 107.46 43.27 107.46C42.6353 107.46 42.136 107.605 41.772 107.894C41.4173 108.174 41.24 108.519 41.24 108.93C41.24 109.621 41.73 110.064 42.71 110.26L44.25 110.54C45.2393 110.717 45.9627 111.025 46.42 111.464C46.8867 111.893 47.12 112.495 47.12 113.27C47.12 114.11 46.798 114.801 46.154 115.342C45.51 115.874 44.5953 116.14 43.41 116.14C42.2247 116.14 41.2867 115.841 40.596 115.244C39.9053 114.647 39.56 113.895 39.56 112.99ZM48.9466 114.53V110.33H47.8266V109H48.9466V107.04H50.3466V109H51.9566V110.33H50.3466V114.32C50.3466 114.6 50.4866 114.74 50.7666 114.74H51.9566V116H50.4866C49.9919 116 49.6092 115.869 49.3386 115.608C49.0772 115.347 48.9466 114.987 48.9466 114.53ZM54.8644 114.236C55.2657 114.665 55.7697 114.88 56.3764 114.88C56.9831 114.88 57.4824 114.665 57.8744 114.236C58.2757 113.797 58.4764 113.219 58.4764 112.5C58.4764 111.781 58.2757 111.207 57.8744 110.778C57.4824 110.339 56.9831 110.12 56.3764 110.12C55.7697 110.12 55.2657 110.339 54.8644 110.778C54.4724 111.207 54.2764 111.781 54.2764 112.5C54.2764 113.219 54.4724 113.797 54.8644 114.236ZM58.8824 115.132C58.2291 115.804 57.3937 116.14 56.3764 116.14C55.3591 116.14 54.5191 115.804 53.8564 115.132C53.2031 114.46 52.8764 113.583 52.8764 112.5C52.8764 111.417 53.2031 110.54 53.8564 109.868C54.5191 109.196 55.3591 108.86 56.3764 108.86C57.3937 108.86 58.2291 109.196 58.8824 109.868C59.5451 110.54 59.8764 111.417 59.8764 112.5C59.8764 113.583 59.5451 114.46 58.8824 115.132ZM66.3175 113.55H67.7175C67.6522 113.839 67.5448 114.124 67.3955 114.404C67.2555 114.684 67.0595 114.959 66.8075 115.23C66.5648 115.501 66.2428 115.72 65.8415 115.888C65.4402 116.056 64.9922 116.14 64.4975 116.14C63.4802 116.14 62.6402 115.804 61.9775 115.132C61.3242 114.46 60.9975 113.583 60.9975 112.5C60.9975 111.417 61.3242 110.54 61.9775 109.868C62.6402 109.196 63.4802 108.86 64.4975 108.86C65.4308 108.86 66.1635 109.126 66.6955 109.658C67.2275 110.181 67.5682 110.755 67.7175 111.38H66.3175C66.0188 110.54 65.4122 110.12 64.4975 110.12C63.8908 110.12 63.3868 110.339 62.9855 110.778C62.5935 111.207 62.3975 111.781 62.3975 112.5C62.3975 113.219 62.5935 113.797 62.9855 114.236C63.3868 114.665 63.8908 114.88 64.4975 114.88C65.0015 114.88 65.4075 114.745 65.7155 114.474C66.0235 114.203 66.2242 113.895 66.3175 113.55ZM69.1831 116V106.2H70.5831V112.22L73.5231 109H75.2031L72.0531 112.43L75.3431 116H73.6631L70.5831 112.64V116H69.1831ZM79.6164 116V106.2H81.0864V116H79.6164ZM83.1848 116V106.2H85.3548L89.3448 113.83H89.6248V106.2H91.0948V116H88.9248L84.9348 108.37H84.6548V116H83.1848Z" fill="#D1D1D1"/>
<path d="M533.937 112.92V111.4H537.537C538.412 111.4 538.972 110.973 539.217 110.12H533.937V108.6H539.217C538.972 107.747 538.412 107.32 537.537 107.32H533.937V105.8H541.937V107.32H540.417C540.481 107.405 540.54 107.507 540.593 107.624C540.678 107.784 540.785 108.109 540.913 108.6H541.937V110.12H540.913C540.742 111.005 540.374 111.693 539.809 112.184C539.244 112.675 538.54 112.92 537.697 112.92H537.217L541.217 117H539.057L535.057 112.92H533.937ZM545.142 117V108.6H542.822V107H544.662C544.982 107 545.142 106.84 545.142 106.52V105.8H546.822V117H545.142ZM548.736 118.36L549.056 115.16H550.896L550.016 118.36H548.736ZM559.045 114.488C559.589 113.763 559.861 112.733 559.861 111.4C559.861 110.067 559.589 109.043 559.045 108.328C558.501 107.603 557.84 107.24 557.061 107.24C556.283 107.24 555.621 107.603 555.077 108.328C554.533 109.043 554.261 110.067 554.261 111.4C554.261 112.733 554.533 113.763 555.077 114.488C555.621 115.203 556.283 115.56 557.061 115.56C557.84 115.56 558.501 115.203 559.045 114.488ZM553.877 107.192C554.741 106.157 555.803 105.64 557.061 105.64C558.32 105.64 559.381 106.157 560.245 107.192C561.109 108.227 561.541 109.629 561.541 111.4C561.541 113.171 561.109 114.573 560.245 115.608C559.381 116.643 558.32 117.16 557.061 117.16C555.803 117.16 554.741 116.643 553.877 115.608C553.013 114.573 552.581 113.171 552.581 111.4C552.581 109.629 553.013 108.227 553.877 107.192ZM563.064 113.96H564.744C564.84 114.408 565.069 114.787 565.432 115.096C565.805 115.405 566.296 115.56 566.904 115.56C567.586 115.56 568.13 115.357 568.536 114.952C568.941 114.547 569.144 114.003 569.144 113.32C569.144 112.68 568.936 112.163 568.52 111.768C568.114 111.363 567.576 111.16 566.904 111.16C566.104 111.16 565.49 111.427 565.064 111.96H563.304L563.944 105.8H570.184V107.4H565.384L565.064 110.12H565.144C565.72 109.747 566.386 109.56 567.144 109.56C568.2 109.56 569.074 109.917 569.768 110.632C570.472 111.336 570.824 112.232 570.824 113.32C570.824 114.44 570.456 115.363 569.72 116.088C568.994 116.803 568.056 117.16 566.904 117.16C566.274 117.16 565.709 117.059 565.208 116.856C564.717 116.653 564.328 116.387 564.04 116.056C563.752 115.725 563.528 115.384 563.368 115.032C563.218 114.68 563.117 114.323 563.064 113.96ZM572.267 118.36L572.587 115.16H574.427L573.547 118.36H572.267ZM582.577 114.488C583.121 113.763 583.392 112.733 583.392 111.4C583.392 110.067 583.121 109.043 582.577 108.328C582.033 107.603 581.371 107.24 580.593 107.24C579.814 107.24 579.153 107.603 578.609 108.328C578.065 109.043 577.793 110.067 577.793 111.4C577.793 112.733 578.065 113.763 578.609 114.488C579.153 115.203 579.814 115.56 580.593 115.56C581.371 115.56 582.033 115.203 582.577 114.488ZM577.409 107.192C578.273 106.157 579.334 105.64 580.593 105.64C581.851 105.64 582.913 106.157 583.777 107.192C584.641 108.227 585.073 109.629 585.073 111.4C585.073 113.171 584.641 114.573 583.777 115.608C582.913 116.643 581.851 117.16 580.593 117.16C579.334 117.16 578.273 116.643 577.409 115.608C576.545 114.573 576.113 113.171 576.113 111.4C576.113 109.629 576.545 108.227 577.409 107.192ZM593.139 114.488C593.683 113.763 593.955 112.733 593.955 111.4C593.955 110.067 593.683 109.043 593.139 108.328C592.595 107.603 591.934 107.24 591.155 107.24C590.376 107.24 589.715 107.603 589.171 108.328C588.627 109.043 588.355 110.067 588.355 111.4C588.355 112.733 588.627 113.763 589.171 114.488C589.715 115.203 590.376 115.56 591.155 115.56C591.934 115.56 592.595 115.203 593.139 114.488ZM587.971 107.192C588.835 106.157 589.896 105.64 591.155 105.64C592.414 105.64 593.475 106.157 594.339 107.192C595.203 108.227 595.635 109.629 595.635 111.4C595.635 113.171 595.203 114.573 594.339 115.608C593.475 116.643 592.414 117.16 591.155 117.16C589.896 117.16 588.835 116.643 587.971 115.608C587.107 114.573 586.675 113.171 586.675 111.4C586.675 109.629 587.107 108.227 587.971 107.192ZM603.702 114.488C604.246 113.763 604.517 112.733 604.517 111.4C604.517 110.067 604.246 109.043 603.702 108.328C603.158 107.603 602.496 107.24 601.718 107.24C600.939 107.24 600.278 107.603 599.734 108.328C599.19 109.043 598.918 110.067 598.918 111.4C598.918 112.733 599.19 113.763 599.734 114.488C600.278 115.203 600.939 115.56 601.718 115.56C602.496 115.56 603.158 115.203 603.702 114.488ZM598.534 107.192C599.398 106.157 600.459 105.64 601.718 105.64C602.976 105.64 604.038 106.157 604.902 107.192C605.766 108.227 606.198 109.629 606.198 111.4C606.198 113.171 605.766 114.573 604.902 115.608C604.038 116.643 602.976 117.16 601.718 117.16C600.459 117.16 599.398 116.643 598.534 115.608C597.67 114.573 597.238 113.171 597.238 111.4C597.238 109.629 597.67 108.227 598.534 107.192Z" fill="white"/>
<g clip-path="url(#clip1_3550_99715)">
<path opacity="0.3" d="M31.9549 139.686L20.9687 141.348C20.4833 141.421 20.1494 141.874 20.2228 142.359L20.4222 143.678C20.4956 144.163 20.9486 144.497 21.434 144.424L32.4201 142.762C32.9055 142.689 33.2395 142.236 33.1661 141.75L32.9667 140.432C32.8933 139.947 32.4403 139.613 31.9549 139.686Z" fill="#FC4D4D" stroke="#FC4D4D" stroke-linecap="round" stroke-linejoin="round"/>
<path d="M32.1089 145.003V150.781C32.1089 151.763 31.3134 152.559 30.3312 152.559H23.6645C22.6823 152.559 21.8867 151.763 21.8867 150.781V144.559" stroke="#FC4D4D" stroke-linecap="round" stroke-linejoin="round"/>
<path d="M31.9549 139.686L20.9687 141.348C20.4833 141.421 20.1494 141.874 20.2228 142.359L20.4222 143.678C20.4956 144.163 20.9486 144.497 21.434 144.424L32.4201 142.762C32.9055 142.689 33.2395 142.236 33.1661 141.75L32.9667 140.432C32.8933 139.947 32.4403 139.613 31.9549 139.686Z" stroke="#FC4D4D" stroke-linecap="round" stroke-linejoin="round"/>
<path d="M25 147.891L27 145.891L29 147.891" stroke="#FC4D4D" stroke-linecap="round" stroke-linejoin="round"/>
<path d="M27 146.113L27 149.891" stroke="#FC4D4D" stroke-linecap="round" stroke-linejoin="round"/>
</g>
<path d="M39.56 148.99H41.03C41.03 149.466 41.2493 149.877 41.688 150.222C42.136 150.567 42.71 150.74 43.41 150.74C44.1753 150.74 44.74 150.609 45.104 150.348C45.468 150.077 45.65 149.718 45.65 149.27C45.65 148.551 45.09 148.085 43.97 147.87L42.08 147.52C41.3147 147.38 40.736 147.086 40.344 146.638C39.9613 146.19 39.77 145.621 39.77 144.93C39.77 144.109 40.0873 143.427 40.722 142.886C41.3567 142.335 42.206 142.06 43.27 142.06C44.446 142.06 45.356 142.359 46 142.956C46.6533 143.544 46.98 144.295 46.98 145.21H45.51C45.51 144.734 45.3047 144.323 44.894 143.978C44.4833 143.633 43.942 143.46 43.27 143.46C42.6353 143.46 42.136 143.605 41.772 143.894C41.4173 144.174 41.24 144.519 41.24 144.93C41.24 145.621 41.73 146.064 42.71 146.26L44.25 146.54C45.2393 146.717 45.9627 147.025 46.42 147.464C46.8867 147.893 47.12 148.495 47.12 149.27C47.12 150.11 46.798 150.801 46.154 151.342C45.51 151.874 44.5953 152.14 43.41 152.14C42.2247 152.14 41.2867 151.841 40.596 151.244C39.9053 150.647 39.56 149.895 39.56 148.99ZM48.9466 150.53V146.33H47.8266V145H48.9466V143.04H50.3466V145H51.9566V146.33H50.3466V150.32C50.3466 150.6 50.4866 150.74 50.7666 150.74H51.9566V152H50.4866C49.9919 152 49.6092 151.869 49.3386 151.608C49.0772 151.347 48.9466 150.987 48.9466 150.53ZM54.8644 150.236C55.2657 150.665 55.7697 150.88 56.3764 150.88C56.9831 150.88 57.4824 150.665 57.8744 150.236C58.2757 149.797 58.4764 149.219 58.4764 148.5C58.4764 147.781 58.2757 147.207 57.8744 146.778C57.4824 146.339 56.9831 146.12 56.3764 146.12C55.7697 146.12 55.2657 146.339 54.8644 146.778C54.4724 147.207 54.2764 147.781 54.2764 148.5C54.2764 149.219 54.4724 149.797 54.8644 150.236ZM58.8824 151.132C58.2291 151.804 57.3937 152.14 56.3764 152.14C55.3591 152.14 54.5191 151.804 53.8564 151.132C53.2031 150.46 52.8764 149.583 52.8764 148.5C52.8764 147.417 53.2031 146.54 53.8564 145.868C54.5191 145.196 55.3591 144.86 56.3764 144.86C57.3937 144.86 58.2291 145.196 58.8824 145.868C59.5451 146.54 59.8764 147.417 59.8764 148.5C59.8764 149.583 59.5451 150.46 58.8824 151.132ZM66.3175 149.55H67.7175C67.6522 149.839 67.5448 150.124 67.3955 150.404C67.2555 150.684 67.0595 150.959 66.8075 151.23C66.5648 151.501 66.2428 151.72 65.8415 151.888C65.4402 152.056 64.9922 152.14 64.4975 152.14C63.4802 152.14 62.6402 151.804 61.9775 151.132C61.3242 150.46 60.9975 149.583 60.9975 148.5C60.9975 147.417 61.3242 146.54 61.9775 145.868C62.6402 145.196 63.4802 144.86 64.4975 144.86C65.4308 144.86 66.1635 145.126 66.6955 145.658C67.2275 146.181 67.5682 146.755 67.7175 147.38H66.3175C66.0188 146.54 65.4122 146.12 64.4975 146.12C63.8908 146.12 63.3868 146.339 62.9855 146.778C62.5935 147.207 62.3975 147.781 62.3975 148.5C62.3975 149.219 62.5935 149.797 62.9855 150.236C63.3868 150.665 63.8908 150.88 64.4975 150.88C65.0015 150.88 65.4075 150.745 65.7155 150.474C66.0235 150.203 66.2242 149.895 66.3175 149.55ZM69.1831 152V142.2H70.5831V148.22L73.5231 145H75.2031L72.0531 148.43L75.3431 152H73.6631L70.5831 148.64V152H69.1831ZM87.2184 150.726C86.3131 151.669 85.2024 152.14 83.8864 152.14C82.5704 152.14 81.4597 151.669 80.5544 150.726C79.6491 149.783 79.1964 148.575 79.1964 147.1C79.1964 145.625 79.6491 144.417 80.5544 143.474C81.4597 142.531 82.5704 142.06 83.8864 142.06C85.2024 142.06 86.3131 142.531 87.2184 143.474C88.1237 144.417 88.5764 145.625 88.5764 147.1C88.5764 148.575 88.1237 149.783 87.2184 150.726ZM86.1964 144.454C85.5897 143.791 84.8197 143.46 83.8864 143.46C82.9531 143.46 82.1831 143.791 81.5764 144.454C80.9697 145.117 80.6664 145.999 80.6664 147.1C80.6664 148.201 80.9697 149.083 81.5764 149.746C82.1831 150.409 82.9531 150.74 83.8864 150.74C84.8197 150.74 85.5897 150.409 86.1964 149.746C86.8031 149.083 87.1064 148.201 87.1064 147.1C87.1064 145.999 86.8031 145.117 86.1964 144.454ZM90.1131 149.2V145H91.5131V149.2C91.5131 149.657 91.6718 150.054 91.9891 150.39C92.3158 150.717 92.7171 150.88 93.1931 150.88C93.7065 150.88 94.1358 150.717 94.4811 150.39C94.8358 150.054 95.0131 149.657 95.0131 149.2V145H96.4131V152H95.1531L95.0131 151.3H94.9431C94.7845 151.459 94.6118 151.599 94.4251 151.72C93.9771 152 93.4731 152.14 92.9131 152.14C92.0638 152.14 91.3825 151.879 90.8691 151.356C90.3651 150.824 90.1131 150.105 90.1131 149.2ZM98.7942 150.53V146.33H97.6742V145H98.7942V143.04H100.194V145H101.804V146.33H100.194V150.32C100.194 150.6 100.334 150.74 100.614 150.74H101.804V152H100.334C99.8396 152 99.4569 151.869 99.1862 151.608C98.9249 151.347 98.7942 150.987 98.7942 150.53Z" fill="#D1D1D1"/>
<path d="M545.14 148.92V147.4H548.74C549.615 147.4 550.175 146.973 550.42 146.12H545.14V144.6H550.42C550.175 143.747 549.615 143.32 548.74 143.32H545.14V141.8H553.14V143.32H551.62C551.684 143.405 551.743 143.507 551.796 143.624C551.881 143.784 551.988 144.109 552.116 144.6H553.14V146.12H552.116C551.945 147.005 551.577 147.693 551.012 148.184C550.447 148.675 549.743 148.92 548.9 148.92H548.42L552.42 153H550.26L546.26 148.92H545.14ZM553.865 150.6V149.24L558.105 141.8H560.745V149.08H562.105V150.6H560.745V153H559.065V150.6H553.865ZM555.865 149.08H559.065V143.88H558.745L555.865 149V149.08ZM565.382 150.92C565.809 151.347 566.342 151.56 566.982 151.56C567.622 151.56 568.155 151.347 568.582 150.92C569.009 150.493 569.222 149.96 569.222 149.32C569.222 148.68 569.009 148.147 568.582 147.72C568.155 147.293 567.622 147.08 566.982 147.08C566.342 147.08 565.809 147.293 565.382 147.72C564.955 148.147 564.742 148.68 564.742 149.32C564.742 149.96 564.955 150.493 565.382 150.92ZM563.702 147.08L567.062 141.8H568.982L566.502 145.64H566.582L566.79 145.608C567.046 145.576 567.217 145.56 567.302 145.56C568.305 145.56 569.153 145.928 569.846 146.664C570.55 147.389 570.902 148.275 570.902 149.32C570.902 150.408 570.529 151.32 569.782 152.056C569.035 152.792 568.102 153.16 566.982 153.16C565.862 153.16 564.929 152.792 564.182 152.056C563.435 151.32 563.062 150.408 563.062 149.32C563.062 148.509 563.275 147.763 563.702 147.08ZM572.267 154.36L572.587 151.16H574.427L573.547 154.36H572.267ZM582.577 150.488C583.121 149.763 583.392 148.733 583.392 147.4C583.392 146.067 583.121 145.043 582.577 144.328C582.033 143.603 581.371 143.24 580.593 143.24C579.814 143.24 579.153 143.603 578.609 144.328C578.065 145.043 577.793 146.067 577.793 147.4C577.793 148.733 578.065 149.763 578.609 150.488C579.153 151.203 579.814 151.56 580.593 151.56C581.371 151.56 582.033 151.203 582.577 150.488ZM577.409 143.192C578.273 142.157 579.334 141.64 580.593 141.64C581.851 141.64 582.913 142.157 583.777 143.192C584.641 144.227 585.073 145.629 585.073 147.4C585.073 149.171 584.641 150.573 583.777 151.608C582.913 152.643 581.851 153.16 580.593 153.16C579.334 153.16 578.273 152.643 577.409 151.608C576.545 150.573 576.113 149.171 576.113 147.4C576.113 145.629 576.545 144.227 577.409 143.192ZM593.139 150.488C593.683 149.763 593.955 148.733 593.955 147.4C593.955 146.067 593.683 145.043 593.139 144.328C592.595 143.603 591.934 143.24 591.155 143.24C590.376 143.24 589.715 143.603 589.171 144.328C588.627 145.043 588.355 146.067 588.355 147.4C588.355 148.733 588.627 149.763 589.171 150.488C589.715 151.203 590.376 151.56 591.155 151.56C591.934 151.56 592.595 151.203 593.139 150.488ZM587.971 143.192C588.835 142.157 589.896 141.64 591.155 141.64C592.414 141.64 593.475 142.157 594.339 143.192C595.203 144.227 595.635 145.629 595.635 147.4C595.635 149.171 595.203 150.573 594.339 151.608C593.475 152.643 592.414 153.16 591.155 153.16C589.896 153.16 588.835 152.643 587.971 151.608C587.107 150.573 586.675 149.171 586.675 147.4C586.675 145.629 587.107 144.227 587.971 143.192ZM603.702 150.488C604.246 149.763 604.517 148.733 604.517 147.4C604.517 146.067 604.246 145.043 603.702 144.328C603.158 143.603 602.496 143.24 601.718 143.24C600.939 143.24 600.278 143.603 599.734 144.328C599.19 145.043 598.918 146.067 598.918 147.4C598.918 148.733 599.19 149.763 599.734 150.488C600.278 151.203 600.939 151.56 601.718 151.56C602.496 151.56 603.158 151.203 603.702 150.488ZM598.534 143.192C599.398 142.157 600.459 141.64 601.718 141.64C602.976 141.64 604.038 142.157 604.902 143.192C605.766 144.227 606.198 145.629 606.198 147.4C606.198 149.171 605.766 150.573 604.902 151.608C604.038 152.643 602.976 153.16 601.718 153.16C600.459 153.16 599.398 152.643 598.534 151.608C597.67 150.573 597.238 149.171 597.238 147.4C597.238 145.629 597.67 144.227 598.534 143.192Z" fill="white"/>
<path d="M27.19 184.64H28.73C28.6367 185.051 28.478 185.452 28.254 185.844C28.0393 186.236 27.7547 186.609 27.4 186.964C27.0453 187.319 26.602 187.603 26.07 187.818C25.538 188.033 24.9547 188.14 24.32 188.14C23.004 188.14 21.8933 187.669 20.988 186.726C20.0827 185.783 19.63 184.575 19.63 183.1C19.63 181.625 20.0827 180.417 20.988 179.474C21.8933 178.531 23.004 178.06 24.32 178.06C25.4773 178.06 26.4433 178.396 27.218 179.068C28.002 179.731 28.506 180.538 28.73 181.49H27.19C26.9473 180.837 26.5693 180.337 26.056 179.992C25.5427 179.637 24.964 179.46 24.32 179.46C23.3867 179.46 22.6167 179.791 22.01 180.454C21.4033 181.117 21.1 181.999 21.1 183.1C21.1 184.201 21.4033 185.083 22.01 185.746C22.6167 186.409 23.3867 186.74 24.32 186.74C25.0667 186.74 25.6827 186.539 26.168 186.138C26.6627 185.727 27.0033 185.228 27.19 184.64ZM30.2066 188V178.2H31.6066V188H30.2066ZM35.1378 186.236C35.5392 186.665 36.0432 186.88 36.6498 186.88C37.2565 186.88 37.7558 186.665 38.1478 186.236C38.5492 185.797 38.7498 185.219 38.7498 184.5C38.7498 183.781 38.5492 183.207 38.1478 182.778C37.7558 182.339 37.2565 182.12 36.6498 182.12C36.0432 182.12 35.5392 182.339 35.1378 182.778C34.7458 183.207 34.5498 183.781 34.5498 184.5C34.5498 185.219 34.7458 185.797 35.1378 186.236ZM39.1558 187.132C38.5025 187.804 37.6672 188.14 36.6498 188.14C35.6325 188.14 34.7925 187.804 34.1298 187.132C33.4765 186.46 33.1498 185.583 33.1498 184.5C33.1498 183.417 33.4765 182.54 34.1298 181.868C34.7925 181.196 35.6325 180.86 36.6498 180.86C37.6672 180.86 38.5025 181.196 39.1558 181.868C39.8185 182.54 40.1498 183.417 40.1498 184.5C40.1498 185.583 39.8185 186.46 39.1558 187.132ZM41.1309 185.9H42.5309C42.5309 186.152 42.6709 186.39 42.9509 186.614C43.2309 186.838 43.6276 186.95 44.1409 186.95C44.6263 186.95 44.9903 186.861 45.2329 186.684C45.4849 186.497 45.6109 186.283 45.6109 186.04C45.6109 185.788 45.5316 185.592 45.3729 185.452C45.2143 185.303 44.9436 185.195 44.5609 185.13L43.3009 184.92C41.9476 184.696 41.2709 184.019 41.2709 182.89C41.2709 182.302 41.5089 181.817 41.9849 181.434C42.4703 181.051 43.1656 180.86 44.0709 180.86C44.5469 180.86 44.9763 180.935 45.3589 181.084C45.7509 181.233 46.0543 181.425 46.2689 181.658C46.4929 181.891 46.6609 182.129 46.7729 182.372C46.8849 182.605 46.9409 182.825 46.9409 183.03H45.5409C45.5409 182.787 45.4149 182.563 45.1629 182.358C44.9109 182.153 44.5469 182.05 44.0709 182.05C43.6043 182.05 43.2543 182.134 43.0209 182.302C42.7876 182.461 42.6709 182.657 42.6709 182.89C42.6709 183.31 43.0209 183.59 43.7209 183.73L44.9809 183.94C46.3343 184.164 47.0109 184.864 47.0109 186.04C47.0109 186.637 46.7636 187.137 46.2689 187.538C45.7836 187.939 45.0743 188.14 44.1409 188.14C43.6183 188.14 43.1469 188.061 42.7269 187.902C42.3163 187.743 41.9989 187.543 41.7749 187.3C41.5603 187.057 41.3969 186.819 41.2849 186.586C41.1823 186.343 41.1309 186.115 41.1309 185.9ZM48.4159 188V181H49.8159V188H48.4159ZM48.3459 179.67V178.2H49.8859V179.67H48.3459ZM51.6424 188V181H52.9024L53.0424 181.7H53.1124C53.2711 181.541 53.4438 181.401 53.6304 181.28C54.0784 181 54.5824 180.86 55.1424 180.86C55.9918 180.86 56.6684 181.126 57.1724 181.658C57.6858 182.181 57.9424 182.895 57.9424 183.8V188H56.5424V183.8C56.5424 183.343 56.3791 182.951 56.0524 182.624C55.7351 182.288 55.3384 182.12 54.8624 182.12C54.3491 182.12 53.9151 182.288 53.5604 182.624C53.2151 182.951 53.0424 183.343 53.0424 183.8V188H51.6424ZM61.2912 185.746C61.6645 186.129 62.1358 186.32 62.7052 186.32C63.2745 186.32 63.7412 186.129 64.1052 185.746C64.4785 185.354 64.6652 184.845 64.6652 184.22C64.6652 183.595 64.4785 183.091 64.1052 182.708C63.7412 182.316 63.2745 182.12 62.7052 182.12C62.1358 182.12 61.6645 182.316 61.2912 182.708C60.9272 183.091 60.7452 183.595 60.7452 184.22C60.7452 184.845 60.9272 185.354 61.2912 185.746ZM59.5552 188.42H60.9552C60.9925 188.765 61.1698 189.059 61.4872 189.302C61.8138 189.554 62.2432 189.68 62.7752 189.68C63.3352 189.68 63.7878 189.507 64.1332 189.162C64.4878 188.826 64.6652 188.392 64.6652 187.86V186.74H64.5952C64.4365 186.899 64.2965 187.025 64.1752 187.118C64.0538 187.211 63.8345 187.314 63.5172 187.426C63.1998 187.529 62.8358 187.58 62.4252 187.58C61.5385 187.58 60.8012 187.272 60.2132 186.656C59.6345 186.031 59.3452 185.219 59.3452 184.22C59.3452 183.221 59.6345 182.414 60.2132 181.798C60.8012 181.173 61.5385 180.86 62.4252 180.86C63.3585 180.86 64.0818 181.163 64.5952 181.77H64.6652L64.8052 181H66.0652V187.86C66.0652 188.793 65.7758 189.54 65.1972 190.1C64.6185 190.66 63.8112 190.94 62.7752 190.94C62.2338 190.94 61.7485 190.856 61.3192 190.688C60.8898 190.52 60.5538 190.301 60.3112 190.03C60.0778 189.769 59.8958 189.498 59.7652 189.218C59.6438 188.947 59.5738 188.681 59.5552 188.42ZM70.8295 184.99H72.2995C72.2995 185.466 72.5189 185.877 72.9575 186.222C73.4055 186.567 73.9795 186.74 74.6795 186.74C75.4449 186.74 76.0095 186.609 76.3735 186.348C76.7375 186.077 76.9195 185.718 76.9195 185.27C76.9195 184.551 76.3595 184.085 75.2395 183.87L73.3495 183.52C72.5842 183.38 72.0055 183.086 71.6135 182.638C71.2309 182.19 71.0395 181.621 71.0395 180.93C71.0395 180.109 71.3569 179.427 71.9915 178.886C72.6262 178.335 73.4755 178.06 74.5395 178.06C75.7155 178.06 76.6255 178.359 77.2695 178.956C77.9229 179.544 78.2495 180.295 78.2495 181.21H76.7795C76.7795 180.734 76.5742 180.323 76.1635 179.978C75.7529 179.633 75.2115 179.46 74.5395 179.46C73.9049 179.46 73.4055 179.605 73.0415 179.894C72.6869 180.174 72.5095 180.519 72.5095 180.93C72.5095 181.621 72.9995 182.064 73.9795 182.26L75.5195 182.54C76.5089 182.717 77.2322 183.025 77.6895 183.464C78.1562 183.893 78.3895 184.495 78.3895 185.27C78.3895 186.11 78.0675 186.801 77.4235 187.342C76.7795 187.874 75.8649 188.14 74.6795 188.14C73.4942 188.14 72.5562 187.841 71.8655 187.244C71.1749 186.647 70.8295 185.895 70.8295 184.99ZM80.2161 186.53V182.33H79.0961V181H80.2161V179.04H81.6161V181H83.2261V182.33H81.6161V186.32C81.6161 186.6 81.7561 186.74 82.0361 186.74H83.2261V188H81.7561C81.2614 188 80.8788 187.869 80.6081 187.608C80.3468 187.347 80.2161 186.987 80.2161 186.53ZM86.1339 186.236C86.5353 186.665 87.0393 186.88 87.6459 186.88C88.2526 186.88 88.7519 186.665 89.1439 186.236C89.5453 185.797 89.7459 185.219 89.7459 184.5C89.7459 183.781 89.5453 183.207 89.1439 182.778C88.7519 182.339 88.2526 182.12 87.6459 182.12C87.0393 182.12 86.5353 182.339 86.1339 182.778C85.7419 183.207 85.5459 183.781 85.5459 184.5C85.5459 185.219 85.7419 185.797 86.1339 186.236ZM90.1519 187.132C89.4986 187.804 88.6633 188.14 87.6459 188.14C86.6286 188.14 85.7886 187.804 85.1259 187.132C84.4726 186.46 84.1459 185.583 84.1459 184.5C84.1459 183.417 84.4726 182.54 85.1259 181.868C85.7886 181.196 86.6286 180.86 87.6459 180.86C88.6633 180.86 89.4986 181.196 90.1519 181.868C90.8146 182.54 91.1459 183.417 91.1459 184.5C91.1459 185.583 90.8146 186.46 90.1519 187.132ZM97.587 185.55H98.987C98.9217 185.839 98.8144 186.124 98.665 186.404C98.525 186.684 98.329 186.959 98.077 187.23C97.8344 187.501 97.5124 187.72 97.111 187.888C96.7097 188.056 96.2617 188.14 95.767 188.14C94.7497 188.14 93.9097 187.804 93.247 187.132C92.5937 186.46 92.267 185.583 92.267 184.5C92.267 183.417 92.5937 182.54 93.247 181.868C93.9097 181.196 94.7497 180.86 95.767 180.86C96.7004 180.86 97.433 181.126 97.965 181.658C98.497 182.181 98.8377 182.755 98.987 183.38H97.587C97.2884 182.54 96.6817 182.12 95.767 182.12C95.1604 182.12 94.6564 182.339 94.255 182.778C93.863 183.207 93.667 183.781 93.667 184.5C93.667 185.219 93.863 185.797 94.255 186.236C94.6564 186.665 95.1604 186.88 95.767 186.88C96.271 186.88 96.677 186.745 96.985 186.474C97.293 186.203 97.4937 185.895 97.587 185.55ZM100.453 188V178.2H101.853V184.22L104.793 181H106.473L103.323 184.43L106.613 188H104.933L101.853 184.64V188H100.453Z" fill="#D1D1D1"/>
<path d="M535.859 184.92V183.4H539.459C540.333 183.4 540.893 182.973 541.139 182.12H535.859V180.6H541.139C540.893 179.747 540.333 179.32 539.459 179.32H535.859V177.8H543.859V179.32H542.339C542.403 179.405 542.461 179.507 542.515 179.624C542.6 179.784 542.707 180.109 542.835 180.6H543.859V182.12H542.835C542.664 183.005 542.296 183.693 541.731 184.184C541.165 184.675 540.461 184.92 539.619 184.92H539.139L543.139 189H540.979L536.979 184.92H535.859ZM547.064 189V180.6H544.744V179H546.584C546.904 179 547.064 178.84 547.064 178.52V177.8H548.744V189H547.064ZM550.658 190.36L550.978 187.16H552.818L551.938 190.36H550.658ZM554.423 185.96H556.103C556.199 186.408 556.428 186.787 556.791 187.096C557.164 187.405 557.655 187.56 558.263 187.56C558.946 187.56 559.49 187.357 559.895 186.952C560.3 186.547 560.503 186.003 560.503 185.32C560.503 184.68 560.295 184.163 559.879 183.768C559.474 183.363 558.935 183.16 558.263 183.16C557.463 183.16 556.85 183.427 556.423 183.96H554.663L555.303 177.8H561.543V179.4H556.743L556.423 182.12H556.503C557.079 181.747 557.746 181.56 558.503 181.56C559.559 181.56 560.434 181.917 561.127 182.632C561.831 183.336 562.183 184.232 562.183 185.32C562.183 186.44 561.815 187.363 561.079 188.088C560.354 188.803 559.415 189.16 558.263 189.16C557.634 189.16 557.068 189.059 556.567 188.856C556.076 188.653 555.687 188.387 555.399 188.056C555.111 187.725 554.887 187.384 554.727 187.032C554.578 186.68 554.476 186.323 554.423 185.96ZM565.382 183.08C565.809 183.507 566.342 183.72 566.982 183.72C567.622 183.72 568.155 183.507 568.582 183.08C569.009 182.653 569.222 182.12 569.222 181.48C569.222 180.84 569.009 180.307 568.582 179.88C568.155 179.453 567.622 179.24 566.982 179.24C566.342 179.24 565.809 179.453 565.382 179.88C564.955 180.307 564.742 180.84 564.742 181.48C564.742 182.12 564.955 182.653 565.382 183.08ZM564.982 189L567.462 185.16H567.382L567.174 185.208C567.003 185.229 566.833 185.24 566.662 185.24C565.659 185.24 564.806 184.877 564.102 184.152C563.409 183.416 563.062 182.525 563.062 181.48C563.062 180.392 563.435 179.48 564.182 178.744C564.929 178.008 565.862 177.64 566.982 177.64C568.102 177.64 569.035 178.008 569.782 178.744C570.529 179.48 570.902 180.392 570.902 181.48C570.902 182.291 570.689 183.037 570.262 183.72L566.902 189H564.982ZM572.267 190.36L572.587 187.16H574.427L573.547 190.36H572.267ZM582.577 186.488C583.121 185.763 583.392 184.733 583.392 183.4C583.392 182.067 583.121 181.043 582.577 180.328C582.033 179.603 581.371 179.24 580.593 179.24C579.814 179.24 579.153 179.603 578.609 180.328C578.065 181.043 577.793 182.067 577.793 183.4C577.793 184.733 578.065 185.763 578.609 186.488C579.153 187.203 579.814 187.56 580.593 187.56C581.371 187.56 582.033 187.203 582.577 186.488ZM577.409 179.192C578.273 178.157 579.334 177.64 580.593 177.64C581.851 177.64 582.913 178.157 583.777 179.192C584.641 180.227 585.073 181.629 585.073 183.4C585.073 185.171 584.641 186.573 583.777 187.608C582.913 188.643 581.851 189.16 580.593 189.16C579.334 189.16 578.273 188.643 577.409 187.608C576.545 186.573 576.113 185.171 576.113 183.4C576.113 181.629 576.545 180.227 577.409 179.192ZM593.139 186.488C593.683 185.763 593.955 184.733 593.955 183.4C593.955 182.067 593.683 181.043 593.139 180.328C592.595 179.603 591.934 179.24 591.155 179.24C590.376 179.24 589.715 179.603 589.171 180.328C588.627 181.043 588.355 182.067 588.355 183.4C588.355 184.733 588.627 185.763 589.171 186.488C589.715 187.203 590.376 187.56 591.155 187.56C591.934 187.56 592.595 187.203 593.139 186.488ZM587.971 179.192C588.835 178.157 589.896 177.64 591.155 177.64C592.414 177.64 593.475 178.157 594.339 179.192C595.203 180.227 595.635 181.629 595.635 183.4C595.635 185.171 595.203 186.573 594.339 187.608C593.475 188.643 592.414 189.16 591.155 189.16C589.896 189.16 588.835 188.643 587.971 187.608C587.107 186.573 586.675 185.171 586.675 183.4C586.675 181.629 587.107 180.227 587.971 179.192ZM603.702 186.488C604.246 185.763 604.517 184.733 604.517 183.4C604.517 182.067 604.246 181.043 603.702 180.328C603.158 179.603 602.496 179.24 601.718 179.24C600.939 179.24 600.278 179.603 599.734 180.328C599.19 181.043 598.918 182.067 598.918 183.4C598.918 184.733 599.19 185.763 599.734 186.488C600.278 187.203 600.939 187.56 601.718 187.56C602.496 187.56 603.158 187.203 603.702 186.488ZM598.534 179.192C599.398 178.157 600.459 177.64 601.718 177.64C602.976 177.64 604.038 178.157 604.902 179.192C605.766 180.227 606.198 181.629 606.198 183.4C606.198 185.171 605.766 186.573 604.902 187.608C604.038 188.643 602.976 189.16 601.718 189.16C600.459 189.16 599.398 188.643 598.534 187.608C597.67 186.573 597.238 185.171 597.238 183.4C597.238 181.629 597.67 180.227 598.534 179.192Z" fill="white"/>
<g clip-path="url(#clip2_3550_99715)">
<path d="M32.3307 216.555L31.8001 222.924C31.7236 223.846 30.953 224.555 30.0285 224.555H23.9663C23.0418 224.555 22.2712 223.846 22.1947 222.924L21.6641 216.555" fill="#93C5FD"/>
<path d="M23.2227 216.555L25.4449 212.555" stroke="#2563EB" stroke-linecap="round" stroke-linejoin="round"/>
<path d="M30.7769 216.555L28.5547 212.555" stroke="#2563EB" stroke-linecap="round" stroke-linejoin="round"/>
<path d="M32.3307 216.555L31.8001 222.924C31.7236 223.846 30.953 224.555 30.0285 224.555H23.9663C23.0418 224.555 22.2712 223.846 22.1947 222.924L21.6641 216.555" stroke="#2563EB" stroke-linecap="round" stroke-linejoin="round"/>
<path d="M20.5547 216.555H33.4436" stroke="#2563EB" stroke-linecap="round" stroke-linejoin="round"/>
</g>
<path d="M47.652 222.726C46.7467 223.669 45.636 224.14 44.32 224.14C43.004 224.14 41.8933 223.669 40.988 222.726C40.0827 221.783 39.63 220.575 39.63 219.1C39.63 217.625 40.0827 216.417 40.988 215.474C41.8933 214.531 43.004 214.06 44.32 214.06C45.636 214.06 46.7467 214.531 47.652 215.474C48.5573 216.417 49.01 217.625 49.01 219.1C49.01 220.575 48.5573 221.783 47.652 222.726ZM46.63 216.454C46.0233 215.791 45.2533 215.46 44.32 215.46C43.3867 215.46 42.6167 215.791 42.01 216.454C41.4033 217.117 41.1 217.999 41.1 219.1C41.1 220.201 41.4033 221.083 42.01 221.746C42.6167 222.409 43.3867 222.74 44.32 222.74C45.2533 222.74 46.0233 222.409 46.63 221.746C47.2367 221.083 47.54 220.201 47.54 219.1C47.54 217.999 47.2367 217.117 46.63 216.454ZM50.5467 226.8V217H51.8067L51.9467 217.84H52.0167C52.1661 217.672 52.2921 217.541 52.3947 217.448C52.4974 217.345 52.7167 217.224 53.0527 217.084C53.3981 216.935 53.7761 216.86 54.1867 216.86C55.1201 216.86 55.8901 217.191 56.4967 217.854C57.1034 218.517 57.4067 219.399 57.4067 220.5C57.4067 221.601 57.1034 222.483 56.4967 223.146C55.8901 223.809 55.1201 224.14 54.1867 224.14C53.2254 224.14 52.5021 223.813 52.0167 223.16H51.9467V226.8H50.5467ZM52.5207 222.222C52.9127 222.661 53.3981 222.88 53.9767 222.88C54.5554 222.88 55.0361 222.661 55.4187 222.222C55.8107 221.783 56.0067 221.209 56.0067 220.5C56.0067 219.791 55.8107 219.217 55.4187 218.778C55.0361 218.339 54.5554 218.12 53.9767 218.12C53.3981 218.12 52.9127 218.339 52.5207 218.778C52.1381 219.217 51.9467 219.791 51.9467 220.5C51.9467 221.209 52.1381 221.783 52.5207 222.222ZM59.9229 219.94H64.0529C63.9782 219.371 63.7589 218.913 63.3949 218.568C63.0309 218.223 62.5736 218.05 62.0229 218.05C61.4442 218.05 60.9776 218.223 60.6229 218.568C60.2682 218.904 60.0349 219.361 59.9229 219.94ZM63.7029 221.97H65.1729C64.9676 222.53 64.5942 223.034 64.0529 223.482C63.5209 223.921 62.8442 224.14 62.0229 224.14C61.0056 224.14 60.1656 223.804 59.5029 223.132C58.8496 222.46 58.5229 221.583 58.5229 220.5C58.5229 219.417 58.8496 218.54 59.5029 217.868C60.1656 217.196 61.0056 216.86 62.0229 216.86C62.9749 216.86 63.7729 217.187 64.4169 217.84C65.0609 218.493 65.3829 219.31 65.3829 220.29C65.3829 220.374 65.3689 220.542 65.3409 220.794L65.3129 220.99H59.9229C59.9976 221.587 60.2262 222.063 60.6089 222.418C60.9916 222.773 61.4629 222.95 62.0229 222.95C62.4149 222.95 62.7602 222.857 63.0589 222.67C63.3669 222.474 63.5816 222.241 63.7029 221.97ZM66.8573 224V217H68.1173L68.2573 217.7H68.3273C68.4859 217.541 68.6586 217.401 68.8453 217.28C69.2933 217 69.7973 216.86 70.3573 216.86C71.2066 216.86 71.8833 217.126 72.3873 217.658C72.9006 218.181 73.1573 218.895 73.1573 219.8V224H71.7573V219.8C71.7573 219.343 71.5939 218.951 71.2673 218.624C70.9499 218.288 70.5533 218.12 70.0773 218.12C69.5639 218.12 69.1299 218.288 68.7753 218.624C68.4299 218.951 68.2573 219.343 68.2573 219.8V224H66.8573ZM85.9469 222.726C85.0416 223.669 83.9309 224.14 82.6149 224.14C81.2989 224.14 80.1883 223.669 79.2829 222.726C78.3776 221.783 77.9249 220.575 77.9249 219.1C77.9249 217.625 78.3776 216.417 79.2829 215.474C80.1883 214.531 81.2989 214.06 82.6149 214.06C83.9309 214.06 85.0416 214.531 85.9469 215.474C86.8523 216.417 87.3049 217.625 87.3049 219.1C87.3049 220.575 86.8523 221.783 85.9469 222.726ZM84.9249 216.454C84.3183 215.791 83.5483 215.46 82.6149 215.46C81.6816 215.46 80.9116 215.791 80.3049 216.454C79.6983 217.117 79.3949 217.999 79.3949 219.1C79.3949 220.201 79.6983 221.083 80.3049 221.746C80.9116 222.409 81.6816 222.74 82.6149 222.74C83.5483 222.74 84.3183 222.409 84.9249 221.746C85.5316 221.083 85.8349 220.201 85.8349 219.1C85.8349 217.999 85.5316 217.117 84.9249 216.454ZM88.8416 224V217H90.0316L90.1716 217.63H90.2416C90.251 217.621 90.279 217.588 90.3256 217.532C90.3816 217.476 90.4143 217.439 90.4236 217.42C90.4423 217.401 90.4796 217.369 90.5356 217.322C90.5916 217.266 90.6383 217.229 90.6756 217.21C90.713 217.191 90.7643 217.168 90.8296 217.14C90.895 217.103 90.9603 217.079 91.0256 217.07C91.1003 217.051 91.1843 217.037 91.2776 217.028C91.371 217.009 91.469 217 91.5716 217H92.8316V218.26H91.7116C90.7316 218.26 90.2416 218.745 90.2416 219.716V224H88.8416ZM98.8631 224L98.7231 223.16H98.6531C98.1585 223.813 97.4351 224.14 96.4831 224.14C95.5498 224.14 94.7798 223.809 94.1731 223.146C93.5665 222.483 93.2631 221.601 93.2631 220.5C93.2631 219.399 93.5665 218.517 94.1731 217.854C94.7798 217.191 95.5498 216.86 96.4831 216.86C96.8938 216.86 97.2671 216.935 97.6031 217.084C97.9485 217.224 98.1725 217.345 98.2751 217.448C98.3778 217.541 98.5038 217.672 98.6531 217.84H98.7231V214.2H100.123V224H98.8631ZM95.2371 222.222C95.6291 222.661 96.1145 222.88 96.6931 222.88C97.2718 222.88 97.7525 222.661 98.1351 222.222C98.5271 221.783 98.7231 221.209 98.7231 220.5C98.7231 219.791 98.5271 219.217 98.1351 218.778C97.7525 218.339 97.2718 218.12 96.6931 218.12C96.1145 218.12 95.6291 218.339 95.2371 218.778C94.8545 219.217 94.6631 219.791 94.6631 220.5C94.6631 221.209 94.8545 221.783 95.2371 222.222ZM103.058 219.94H107.188C107.113 219.371 106.894 218.913 106.53 218.568C106.166 218.223 105.708 218.05 105.158 218.05C104.579 218.05 104.112 218.223 103.758 218.568C103.403 218.904 103.17 219.361 103.058 219.94ZM106.838 221.97H108.308C108.102 222.53 107.729 223.034 107.188 223.482C106.656 223.921 105.979 224.14 105.158 224.14C104.14 224.14 103.3 223.804 102.638 223.132C101.984 222.46 101.658 221.583 101.658 220.5C101.658 219.417 101.984 218.54 102.638 217.868C103.3 217.196 104.14 216.86 105.158 216.86C106.11 216.86 106.908 217.187 107.552 217.84C108.196 218.493 108.518 219.31 108.518 220.29C108.518 220.374 108.504 220.542 108.476 220.794L108.448 220.99H103.058C103.132 221.587 103.361 222.063 103.744 222.418C104.126 222.773 104.598 222.95 105.158 222.95C105.55 222.95 105.895 222.857 106.194 222.67C106.502 222.474 106.716 222.241 106.838 221.97ZM109.992 224V217H111.182L111.322 217.63H111.392C111.401 217.621 111.429 217.588 111.476 217.532C111.532 217.476 111.565 217.439 111.574 217.42C111.593 217.401 111.63 217.369 111.686 217.322C111.742 217.266 111.789 217.229 111.826 217.21C111.863 217.191 111.915 217.168 111.98 217.14C112.045 217.103 112.111 217.079 112.176 217.07C112.251 217.051 112.335 217.037 112.428 217.028C112.521 217.009 112.619 217 112.722 217H113.982V218.26H112.862C111.882 218.26 111.392 218.745 111.392 219.716V224H109.992ZM114.547 221.9H115.947C115.947 222.152 116.087 222.39 116.367 222.614C116.647 222.838 117.044 222.95 117.557 222.95C118.042 222.95 118.406 222.861 118.649 222.684C118.901 222.497 119.027 222.283 119.027 222.04C119.027 221.788 118.948 221.592 118.789 221.452C118.63 221.303 118.36 221.195 117.977 221.13L116.717 220.92C115.364 220.696 114.687 220.019 114.687 218.89C114.687 218.302 114.925 217.817 115.401 217.434C115.886 217.051 116.582 216.86 117.487 216.86C117.963 216.86 118.392 216.935 118.775 217.084C119.167 217.233 119.47 217.425 119.685 217.658C119.909 217.891 120.077 218.129 120.189 218.372C120.301 218.605 120.357 218.825 120.357 219.03H118.957C118.957 218.787 118.831 218.563 118.579 218.358C118.327 218.153 117.963 218.05 117.487 218.05C117.02 218.05 116.67 218.134 116.437 218.302C116.204 218.461 116.087 218.657 116.087 218.89C116.087 219.31 116.437 219.59 117.137 219.73L118.397 219.94C119.75 220.164 120.427 220.864 120.427 222.04C120.427 222.637 120.18 223.137 119.685 223.538C119.2 223.939 118.49 224.14 117.557 224.14C117.034 224.14 116.563 224.061 116.143 223.902C115.732 223.743 115.415 223.543 115.191 223.3C114.976 223.057 114.813 222.819 114.701 222.586C114.598 222.343 114.547 222.115 114.547 221.9Z" fill="#D1D1D1"/>
<path d="M546.906 220.92V219.4H550.506C551.38 219.4 551.94 218.973 552.186 218.12H546.906V216.6H552.186C551.94 215.747 551.38 215.32 550.506 215.32H546.906V213.8H554.906V215.32H553.386C553.45 215.405 553.508 215.507 553.562 215.624C553.647 215.784 553.754 216.109 553.882 216.6H554.906V218.12H553.882C553.711 219.005 553.343 219.693 552.778 220.184C552.212 220.675 551.508 220.92 550.666 220.92H550.186L554.186 225H552.026L548.026 220.92H546.906ZM558.111 225V216.6H555.791V215H557.631C557.951 215 558.111 214.84 558.111 214.52V213.8H559.791V225H558.111ZM568.248 222.488C568.792 221.763 569.064 220.733 569.064 219.4C569.064 218.067 568.792 217.043 568.248 216.328C567.704 215.603 567.043 215.24 566.264 215.24C565.486 215.24 564.824 215.603 564.28 216.328C563.736 217.043 563.464 218.067 563.464 219.4C563.464 220.733 563.736 221.763 564.28 222.488C564.824 223.203 565.486 223.56 566.264 223.56C567.043 223.56 567.704 223.203 568.248 222.488ZM563.08 215.192C563.944 214.157 565.006 213.64 566.264 213.64C567.523 213.64 568.584 214.157 569.448 215.192C570.312 216.227 570.744 217.629 570.744 219.4C570.744 221.171 570.312 222.573 569.448 223.608C568.584 224.643 567.523 225.16 566.264 225.16C565.006 225.16 563.944 224.643 563.08 223.608C562.216 222.573 561.784 221.171 561.784 219.4C561.784 217.629 562.216 216.227 563.08 215.192ZM572.267 226.36L572.587 223.16H574.427L573.547 226.36H572.267ZM582.577 222.488C583.121 221.763 583.392 220.733 583.392 219.4C583.392 218.067 583.121 217.043 582.577 216.328C582.033 215.603 581.371 215.24 580.593 215.24C579.814 215.24 579.153 215.603 578.609 216.328C578.065 217.043 577.793 218.067 577.793 219.4C577.793 220.733 578.065 221.763 578.609 222.488C579.153 223.203 579.814 223.56 580.593 223.56C581.371 223.56 582.033 223.203 582.577 222.488ZM577.409 215.192C578.273 214.157 579.334 213.64 580.593 213.64C581.851 213.64 582.913 214.157 583.777 215.192C584.641 216.227 585.073 217.629 585.073 219.4C585.073 221.171 584.641 222.573 583.777 223.608C582.913 224.643 581.851 225.16 580.593 225.16C579.334 225.16 578.273 224.643 577.409 223.608C576.545 222.573 576.113 221.171 576.113 219.4C576.113 217.629 576.545 216.227 577.409 215.192ZM593.139 222.488C593.683 221.763 593.955 220.733 593.955 219.4C593.955 218.067 593.683 217.043 593.139 216.328C592.595 215.603 591.934 215.24 591.155 215.24C590.376 215.24 589.715 215.603 589.171 216.328C588.627 217.043 588.355 218.067 588.355 219.4C588.355 220.733 588.627 221.763 589.171 222.488C589.715 223.203 590.376 223.56 591.155 223.56C591.934 223.56 592.595 223.203 593.139 222.488ZM587.971 215.192C588.835 214.157 589.896 213.64 591.155 213.64C592.414 213.64 593.475 214.157 594.339 215.192C595.203 216.227 595.635 217.629 595.635 219.4C595.635 221.171 595.203 222.573 594.339 223.608C593.475 224.643 592.414 225.16 591.155 225.16C589.896 225.16 588.835 224.643 587.971 223.608C587.107 222.573 586.675 221.171 586.675 219.4C586.675 217.629 587.107 216.227 587.971 215.192ZM603.702 222.488C604.246 221.763 604.517 220.733 604.517 219.4C604.517 218.067 604.246 217.043 603.702 216.328C603.158 215.603 602.496 215.24 601.718 215.24C600.939 215.24 600.278 215.603 599.734 216.328C599.19 217.043 598.918 218.067 598.918 219.4C598.918 220.733 599.19 221.763 599.734 222.488C600.278 223.203 600.939 223.56 601.718 223.56C602.496 223.56 603.158 223.203 603.702 222.488ZM598.534 215.192C599.398 214.157 600.459 213.64 601.718 213.64C602.976 213.64 604.038 214.157 604.902 215.192C605.766 216.227 606.198 217.629 606.198 219.4C606.198 221.171 605.766 222.573 604.902 223.608C604.038 224.643 602.976 225.16 601.718 225.16C600.459 225.16 599.398 224.643 598.534 223.608C597.67 222.573 597.238 221.171 597.238 219.4C597.238 217.629 597.67 216.227 598.534 215.192Z" fill="white"/>
<path d="M20.05 260V250.2H22.22L26.21 257.83H26.49V250.2H27.96V260H25.79L21.8 252.37H21.52V260H20.05ZM30.9678 255.94H35.0978C35.0231 255.371 34.8038 254.913 34.4398 254.568C34.0758 254.223 33.6185 254.05 33.0678 254.05C32.4891 254.05 32.0225 254.223 31.6678 254.568C31.3131 254.904 31.0798 255.361 30.9678 255.94ZM34.7478 257.97H36.2178C36.0125 258.53 35.6391 259.034 35.0978 259.482C34.5658 259.921 33.8891 260.14 33.0678 260.14C32.0505 260.14 31.2105 259.804 30.5478 259.132C29.8945 258.46 29.5678 257.583 29.5678 256.5C29.5678 255.417 29.8945 254.54 30.5478 253.868C31.2105 253.196 32.0505 252.86 33.0678 252.86C34.0198 252.86 34.8178 253.187 35.4618 253.84C36.1058 254.493 36.4278 255.31 36.4278 256.29C36.4278 256.374 36.4138 256.542 36.3858 256.794L36.3578 256.99H30.9678C31.0425 257.587 31.2711 258.063 31.6538 258.418C32.0365 258.773 32.5078 258.95 33.0678 258.95C33.4598 258.95 33.8051 258.857 34.1038 258.67C34.4118 258.474 34.6265 258.241 34.7478 257.97ZM38.1888 258.53V254.33H37.0688V253H38.1888V251.04H39.5888V253H41.1988V254.33H39.5888V258.32C39.5888 258.6 39.7288 258.74 40.0088 258.74H41.1988V260H39.7288C39.2341 260 38.8514 259.869 38.5808 259.608C38.3194 259.347 38.1888 258.987 38.1888 258.53ZM45.687 256.99H47.157C47.157 257.466 47.3763 257.877 47.815 258.222C48.263 258.567 48.837 258.74 49.537 258.74C50.3023 258.74 50.867 258.609 51.231 258.348C51.595 258.077 51.777 257.718 51.777 257.27C51.777 256.551 51.217 256.085 50.097 255.87L48.207 255.52C47.4416 255.38 46.863 255.086 46.471 254.638C46.0883 254.19 45.897 253.621 45.897 252.93C45.897 252.109 46.2143 251.427 46.849 250.886C47.4836 250.335 48.333 250.06 49.397 250.06C50.573 250.06 51.483 250.359 52.127 250.956C52.7803 251.544 53.107 252.295 53.107 253.21H51.637C51.637 252.734 51.4316 252.323 51.021 251.978C50.6103 251.633 50.069 251.46 49.397 251.46C48.7623 251.46 48.263 251.605 47.899 251.894C47.5443 252.174 47.367 252.519 47.367 252.93C47.367 253.621 47.857 254.064 48.837 254.26L50.377 254.54C51.3663 254.717 52.0896 255.025 52.547 255.464C53.0136 255.893 53.247 256.495 53.247 257.27C53.247 258.11 52.925 258.801 52.281 259.342C51.637 259.874 50.7223 260.14 49.537 260.14C48.3516 260.14 47.4136 259.841 46.723 259.244C46.0323 258.647 45.687 257.895 45.687 256.99ZM55.0735 258.53V254.33H53.9535V253H55.0735V251.04H56.4735V253H58.0835V254.33H56.4735V258.32C56.4735 258.6 56.6135 258.74 56.8935 258.74H58.0835V260H56.6135C56.1188 260 55.7362 259.869 55.4655 259.608C55.2042 259.347 55.0735 258.987 55.0735 258.53ZM60.9914 258.236C61.3927 258.665 61.8967 258.88 62.5034 258.88C63.11 258.88 63.6094 258.665 64.0014 258.236C64.4027 257.797 64.6034 257.219 64.6034 256.5C64.6034 255.781 64.4027 255.207 64.0014 254.778C63.6094 254.339 63.11 254.12 62.5034 254.12C61.8967 254.12 61.3927 254.339 60.9914 254.778C60.5994 255.207 60.4034 255.781 60.4034 256.5C60.4034 257.219 60.5994 257.797 60.9914 258.236ZM65.0094 259.132C64.356 259.804 63.5207 260.14 62.5034 260.14C61.486 260.14 60.646 259.804 59.9834 259.132C59.33 258.46 59.0034 257.583 59.0034 256.5C59.0034 255.417 59.33 254.54 59.9834 253.868C60.646 253.196 61.486 252.86 62.5034 252.86C63.5207 252.86 64.356 253.196 65.0094 253.868C65.672 254.54 66.0034 255.417 66.0034 256.5C66.0034 257.583 65.672 258.46 65.0094 259.132ZM72.4445 257.55H73.8445C73.7791 257.839 73.6718 258.124 73.5225 258.404C73.3825 258.684 73.1865 258.959 72.9345 259.23C72.6918 259.501 72.3698 259.72 71.9685 259.888C71.5671 260.056 71.1191 260.14 70.6245 260.14C69.6071 260.14 68.7671 259.804 68.1045 259.132C67.4511 258.46 67.1245 257.583 67.1245 256.5C67.1245 255.417 67.4511 254.54 68.1045 253.868C68.7671 253.196 69.6071 252.86 70.6245 252.86C71.5578 252.86 72.2905 253.126 72.8225 253.658C73.3545 254.181 73.6951 254.755 73.8445 255.38H72.4445C72.1458 254.54 71.5391 254.12 70.6245 254.12C70.0178 254.12 69.5138 254.339 69.1125 254.778C68.7205 255.207 68.5245 255.781 68.5245 256.5C68.5245 257.219 68.7205 257.797 69.1125 258.236C69.5138 258.665 70.0178 258.88 70.6245 258.88C71.1285 258.88 71.5345 258.745 71.8425 258.474C72.1505 258.203 72.3511 257.895 72.4445 257.55ZM75.3101 260V250.2H76.7101V256.22L79.6501 253H81.3301L78.1801 256.43L81.4701 260H79.7901L76.7101 256.64V260H75.3101Z" fill="#4AA44D"/>
<path d="M531.328 257.4V255.32H534.848C535.242 255.32 535.536 255.261 535.728 255.144C535.93 255.027 536.112 254.819 536.272 254.52H531.328V252.68H536.272C536.112 252.381 535.93 252.173 535.728 252.056C535.536 251.939 535.242 251.88 534.848 251.88H531.328V249.8H539.808V251.8H538.528C538.549 251.875 538.581 251.944 538.624 252.008C538.634 252.04 538.714 252.264 538.864 252.68H539.808V254.52H538.848C538.496 256.109 537.482 257.016 535.808 257.24L539.248 261H536.048L532.848 257.4H531.328ZM542.923 261V253.4H540.683V251H542.363C542.736 251 542.923 250.813 542.923 250.44V249.8H545.483V261H542.923ZM547.249 262.44L547.649 258.36H550.289L549.169 262.44H547.249ZM551.334 258.92V256.68L555.094 249.8H558.934V256.6H560.134V258.92H558.934V261H556.374V258.92H551.334ZM554.054 256.6H556.374V252.84H556.054L554.054 256.52V256.6ZM562.533 261L564.933 257.4C563.813 257.4 562.88 257.032 562.133 256.296C561.386 255.56 561.013 254.648 561.013 253.56C561.013 252.472 561.408 251.549 562.197 250.792C562.997 250.024 563.989 249.64 565.173 249.64C566.357 249.64 567.344 250.024 568.133 250.792C568.933 251.549 569.333 252.472 569.333 253.56C569.333 254.467 569.093 255.293 568.613 256.04L565.413 261H562.533ZM564.005 252.472C563.717 252.749 563.573 253.112 563.573 253.56C563.573 254.008 563.717 254.376 564.005 254.664C564.304 254.941 564.693 255.08 565.173 255.08C565.653 255.08 566.037 254.941 566.325 254.664C566.624 254.376 566.773 254.008 566.773 253.56C566.773 253.112 566.624 252.749 566.325 252.472C566.037 252.184 565.653 252.04 565.173 252.04C564.693 252.04 564.304 252.184 564.005 252.472ZM570.531 262.44L570.931 258.36H573.571L572.451 262.44H570.531ZM583.191 259.624C582.306 260.648 581.18 261.16 579.815 261.16C578.45 261.16 577.319 260.648 576.423 259.624C575.538 258.589 575.095 257.181 575.095 255.4C575.095 253.619 575.538 252.216 576.423 251.192C577.319 250.157 578.45 249.64 579.815 249.64C581.18 249.64 582.306 250.157 583.191 251.192C584.087 252.216 584.535 253.619 584.535 255.4C584.535 257.181 584.087 258.589 583.191 259.624ZM579.815 258.68C580.412 258.68 580.919 258.397 581.335 257.832C581.762 257.267 581.975 256.456 581.975 255.4C581.975 254.344 581.762 253.533 581.335 252.968C580.919 252.403 580.412 252.12 579.815 252.12C579.207 252.12 578.695 252.403 578.279 252.968C577.863 253.533 577.655 254.344 577.655 255.4C577.655 256.456 577.863 257.267 578.279 257.832C578.695 258.397 579.207 258.68 579.815 258.68ZM594.066 259.624C593.181 260.648 592.055 261.16 590.69 261.16C589.325 261.16 588.194 260.648 587.298 259.624C586.413 258.589 585.97 257.181 585.97 255.4C585.97 253.619 586.413 252.216 587.298 251.192C588.194 250.157 589.325 249.64 590.69 249.64C592.055 249.64 593.181 250.157 594.066 251.192C594.962 252.216 595.41 253.619 595.41 255.4C595.41 257.181 594.962 258.589 594.066 259.624ZM590.69 258.68C591.287 258.68 591.794 258.397 592.21 257.832C592.637 257.267 592.85 256.456 592.85 255.4C592.85 254.344 592.637 253.533 592.21 252.968C591.794 252.403 591.287 252.12 590.69 252.12C590.082 252.12 589.57 252.403 589.154 252.968C588.738 253.533 588.53 254.344 588.53 255.4C588.53 256.456 588.738 257.267 589.154 257.832C589.57 258.397 590.082 258.68 590.69 258.68ZM604.941 259.624C604.056 260.648 602.93 261.16 601.565 261.16C600.2 261.16 599.069 260.648 598.173 259.624C597.288 258.589 596.845 257.181 596.845 255.4C596.845 253.619 597.288 252.216 598.173 251.192C599.069 250.157 600.2 249.64 601.565 249.64C602.93 249.64 604.056 250.157 604.941 251.192C605.837 252.216 606.285 253.619 606.285 255.4C606.285 257.181 605.837 258.589 604.941 259.624ZM601.565 258.68C602.162 258.68 602.669 258.397 603.085 257.832C603.512 257.267 603.725 256.456 603.725 255.4C603.725 254.344 603.512 253.533 603.085 252.968C602.669 252.403 602.162 252.12 601.565 252.12C600.957 252.12 600.445 252.403 600.029 252.968C599.613 253.533 599.405 254.344 599.405 255.4C599.405 256.456 599.613 257.267 600.029 257.832C600.445 258.397 600.957 258.68 601.565 258.68Z" fill="#4AA44D"/>
</g>
<defs>
<filter id="filter0_ddd_3550_99715" x="0" y="0" width="626" height="62" filterUnits="userSpaceOnUse" color-interpolation-filters="sRGB">
<feFlood flood-opacity="0" result="BackgroundImageFix"/>
<feColorMatrix in="SourceAlpha" type="matrix" values="0 0 0 0 0 0 0 0 0 0 0 0 0 0 0 0 0 0 127 0" result="hardAlpha"/>
<feMorphology radius="1" operator="dilate" in="SourceAlpha" result="effect1_dropShadow_3550_99715"/>
<feOffset/>
<feComposite in2="hardAlpha" operator="out"/>
<feColorMatrix type="matrix" values="0 0 0 0 0.0627451 0 0 0 0 0.0980392 0 0 0 0 0.156863 0 0 0 0.05 0"/>
<feBlend mode="normal" in2="BackgroundImageFix" result="effect1_dropShadow_3550_99715"/>
<feColorMatrix in="SourceAlpha" type="matrix" values="0 0 0 0 0 0 0 0 0 0 0 0 0 0 0 0 0 0 127 0" result="hardAlpha"/>
<feOffset dy="2"/>
<feGaussianBlur stdDeviation="3.5"/>
<feComposite in2="hardAlpha" operator="out"/>
<feColorMatrix type="matrix" values="0 0 0 0 0.0627451 0 0 0 0 0.0980392 0 0 0 0 0.156863 0 0 0 0.05 0"/>
<feBlend mode="normal" in2="effect1_dropShadow_3550_99715" result="effect2_dropShadow_3550_99715"/>
<feColorMatrix in="SourceAlpha" type="matrix" values="0 0 0 0 0 0 0 0 0 0 0 0 0 0 0 0 0 0 127 0" result="hardAlpha"/>
<feMorphology radius="2" operator="erode" in="SourceAlpha" result="effect3_dropShadow_3550_99715"/>
<feOffset dy="2"/>
<feGaussianBlur stdDeviation="2.5"/>
<feComposite in2="hardAlpha" operator="out"/>
<feColorMatrix type="matrix" values="0 0 0 0 0.0627451 0 0 0 0 0.0980392 0 0 0 0 0.156863 0 0 0 0.06 0"/>
<feBlend mode="normal" in2="effect2_dropShadow_3550_99715" result="effect3_dropShadow_3550_99715"/>
<feBlend mode="normal" in="SourceGraphic" in2="effect3_dropShadow_3550_99715" result="shape"/>
</filter>
<filter id="filter1_ddd_3550_99715" x="0" y="48" width="626" height="238" filterUnits="userSpaceOnUse" color-interpolation-filters="sRGB">
<feFlood flood-opacity="0" result="BackgroundImageFix"/>
<feColorMatrix in="SourceAlpha" type="matrix" values="0 0 0 0 0 0 0 0 0 0 0 0 0 0 0 0 0 0 127 0" result="hardAlpha"/>
<feMorphology radius="1" operator="dilate" in="SourceAlpha" result="effect1_dropShadow_3550_99715"/>
<feOffset/>
<feComposite in2="hardAlpha" operator="out"/>
<feColorMatrix type="matrix" values="0 0 0 0 0.0627451 0 0 0 0 0.0980392 0 0 0 0 0.156863 0 0 0 0.05 0"/>
<feBlend mode="normal" in2="BackgroundImageFix" result="effect1_dropShadow_3550_99715"/>
<feColorMatrix in="SourceAlpha" type="matrix" values="0 0 0 0 0 0 0 0 0 0 0 0 0 0 0 0 0 0 127 0" result="hardAlpha"/>
<feOffset dy="2"/>
<feGaussianBlur stdDeviation="3.5"/>
<feComposite in2="hardAlpha" operator="out"/>
<feColorMatrix type="matrix" values="0 0 0 0 0.0627451 0 0 0 0 0.0980392 0 0 0 0 0.156863 0 0 0 0.05 0"/>
<feBlend mode="normal" in2="effect1_dropShadow_3550_99715" result="effect2_dropShadow_3550_99715"/>
<feColorMatrix in="SourceAlpha" type="matrix" values="0 0 0 0 0 0 0 0 0 0 0 0 0 0 0 0 0 0 127 0" result="hardAlpha"/>
<feMorphology radius="2" operator="erode" in="SourceAlpha" result="effect3_dropShadow_3550_99715"/>
<feOffset dy="2"/>
<feGaussianBlur stdDeviation="2.5"/>
<feComposite in2="hardAlpha" operator="out"/>
<feColorMatrix type="matrix" values="0 0 0 0 0.0627451 0 0 0 0 0.0980392 0 0 0 0 0.156863 0 0 0 0.06 0"/>
<feBlend mode="normal" in2="effect2_dropShadow_3550_99715" result="effect3_dropShadow_3550_99715"/>
<feBlend mode="normal" in="SourceGraphic" in2="effect3_dropShadow_3550_99715" result="shape"/>
</filter>
<linearGradient id="paint0_linear_3550_99715" x1="-143.875" y1="-13.6506" x2="-99.419" y2="205.938" gradientUnits="userSpaceOnUse">
<stop stop-color="white"/>
<stop offset="1" stop-color="white" stop-opacity="0"/>
</linearGradient>
<linearGradient id="paint1_linear_3550_99715" x1="-673" y1="-48.2048" x2="-579.358" y2="340.024" gradientUnits="userSpaceOnUse">
<stop stop-color="white"/>
<stop offset="1" stop-color="white" stop-opacity="0"/>
</linearGradient>
<linearGradient id="paint2_linear_3550_99715" x1="-143.875" y1="-34.0362" x2="388.639" y2="529.607" gradientUnits="userSpaceOnUse">
<stop stop-color="white"/>
<stop offset="1" stop-color="white" stop-opacity="0"/>
</linearGradient>
<linearGradient id="paint3_linear_3550_99715" x1="-673" y1="-195.289" x2="278.898" y2="650.379" gradientUnits="userSpaceOnUse">
<stop stop-color="white"/>
<stop offset="1" stop-color="white" stop-opacity="0"/>
</linearGradient>
<clipPath id="clip0_3550_99715">
<rect width="16" height="16" fill="white" transform="translate(19 103)"/>
</clipPath>
<clipPath id="clip1_3550_99715">
<rect width="16" height="16" fill="white" transform="translate(19 139)"/>
</clipPath>
<clipPath id="clip2_3550_99715">
<rect width="16" height="16" fill="white" transform="translate(19 211)"/>
</clipPath>
</defs>
</svg>
