<svg width="414" height="317" viewBox="0 0 414 317" fill="none" xmlns="http://www.w3.org/2000/svg">
<g filter="url(#filter0_ddd_3550_99402)">
<rect x="7" y="6" width="240" height="31.3767" rx="4" fill="url(#paint0_linear_3550_99402)" fill-opacity="0.1" shape-rendering="crispEdges"/>
<rect x="7.5" y="6.5" width="239" height="30.3767" rx="3.5" stroke="url(#paint1_linear_3550_99402)" stroke-opacity="0.1" shape-rendering="crispEdges"/>
<g clip-path="url(#clip0_3550_99402)">
<path d="M26.9983 21.0207C28.5938 21.0207 29.8872 19.7273 29.8872 18.1318C29.8872 16.5363 28.5938 15.2429 26.9983 15.2429C25.4028 15.2429 24.1094 16.5363 24.1094 18.1318C24.1094 19.7273 25.4028 21.0207 26.9983 21.0207Z" stroke="white" stroke-linecap="round" stroke-linejoin="round"/>
<path d="M27 25.4647V21.0203" stroke="white" stroke-linecap="round" stroke-linejoin="round"/>
<path d="M29.6658 24.7351C31.8942 25.0151 33.4436 25.6347 33.4436 26.3538C33.4436 27.336 30.5582 28.1316 26.9991 28.1316C23.44 28.1316 20.5547 27.336 20.5547 26.3538C20.5547 25.6347 22.104 25.0142 24.3325 24.7351" stroke="white" stroke-linecap="round" stroke-linejoin="round"/>
</g>
<path d="M41.73 26.6882L39.28 16.8882H40.162L42.388 25.8482H42.682L44.95 16.8882H46.35L48.618 25.8482H48.912L51.138 16.8882H52.02L49.57 26.6882H47.96L45.79 18.0782H45.51L43.34 26.6882H41.73ZM57.9793 26.6882L57.8393 25.7082H57.7693C57.6293 25.9042 57.438 26.0909 57.1953 26.2682C56.6726 26.6416 56.094 26.8282 55.4593 26.8282C54.7406 26.8282 54.162 26.6276 53.7233 26.2262C53.294 25.8249 53.0793 25.3022 53.0793 24.6582C53.0793 23.9956 53.3126 23.4682 53.7793 23.0762C54.246 22.6842 54.9226 22.4882 55.8093 22.4882H57.8393V22.2082C57.8393 20.9949 57.2326 20.3882 56.0193 20.3882C55.4686 20.3882 55.0253 20.5096 54.6893 20.7522C54.3626 20.9949 54.176 21.3169 54.1293 21.7182H53.2893C53.3733 21.0929 53.6486 20.5749 54.1153 20.1642C54.582 19.7536 55.2166 19.5482 56.0193 19.5482C56.8686 19.5482 57.522 19.7816 57.9793 20.2482C58.446 20.7056 58.6793 21.3589 58.6793 22.2082V26.6882H57.9793ZM57.8393 23.6082V23.2582H55.8093C55.1933 23.2582 54.722 23.3889 54.3953 23.6502C54.078 23.9116 53.9193 24.2476 53.9193 24.6582C53.9193 25.0596 54.0546 25.3816 54.3253 25.6242C54.596 25.8669 54.974 25.9882 55.4593 25.9882C56.1966 25.9882 56.7753 25.7782 57.1953 25.3582C57.6246 24.9289 57.8393 24.3456 57.8393 23.6082ZM61.2015 26.6882V19.6882H61.9015L61.9715 20.3882H62.0415C62.3588 19.9216 62.8255 19.6882 63.4415 19.6882H64.7015V20.5282H63.5115C63.0542 20.5282 62.6948 20.6636 62.4335 20.9342C62.1722 21.1956 62.0415 21.5736 62.0415 22.0682V26.6882H61.2015ZM66.3159 22.7682H71.1459C71.1085 22.0682 70.8659 21.4989 70.4179 21.0602C69.9792 20.6122 69.4285 20.3882 68.7659 20.3882C68.0939 20.3882 67.5339 20.6029 67.0859 21.0322C66.6472 21.4522 66.3905 22.0309 66.3159 22.7682ZM70.8659 24.7282H71.7759C71.5705 25.3069 71.2205 25.8016 70.7259 26.2122C70.2405 26.6229 69.5872 26.8282 68.7659 26.8282C67.7952 26.8282 67.0019 26.4969 66.3859 25.8342C65.7792 25.1716 65.4759 24.2896 65.4759 23.1882C65.4759 22.0869 65.7792 21.2049 66.3859 20.5422C67.0019 19.8796 67.7952 19.5482 68.7659 19.5482C69.6899 19.5482 70.4552 19.8749 71.0619 20.5282C71.6779 21.1722 71.9859 22.0122 71.9859 23.0482C71.9859 23.1882 71.9765 23.3236 71.9579 23.4542C71.9485 23.4916 71.9439 23.5429 71.9439 23.6082H66.3159C66.3905 24.3269 66.6565 24.9056 67.1139 25.3442C67.5712 25.7736 68.1219 25.9882 68.7659 25.9882C69.2792 25.9882 69.7132 25.8622 70.0679 25.6102C70.4225 25.3582 70.6885 25.0642 70.8659 24.7282ZM74.0815 26.6882V16.8882H74.9215V20.5982H74.9915C75.1315 20.3929 75.2995 20.2202 75.4955 20.0802C75.9622 19.7256 76.5175 19.5482 77.1615 19.5482C77.9735 19.5482 78.6408 19.8236 79.1635 20.3742C79.6955 20.9156 79.9615 21.6202 79.9615 22.4882V26.6882H79.1215V22.4882C79.1215 21.8536 78.9302 21.3449 78.5475 20.9622C78.1742 20.5796 77.6888 20.3882 77.0915 20.3882C76.4568 20.3882 75.9342 20.5889 75.5235 20.9902C75.1222 21.3916 74.9215 21.8909 74.9215 22.4882V26.6882H74.0815ZM87.6189 25.8062C86.9843 26.4876 86.2049 26.8282 85.2809 26.8282C84.3569 26.8282 83.5776 26.4876 82.9429 25.8062C82.3083 25.1249 81.9909 24.2522 81.9909 23.1882C81.9909 22.1242 82.3083 21.2516 82.9429 20.5702C83.5776 19.8889 84.3569 19.5482 85.2809 19.5482C86.2049 19.5482 86.9843 19.8889 87.6189 20.5702C88.2536 21.2516 88.5709 22.1242 88.5709 23.1882C88.5709 24.2522 88.2536 25.1249 87.6189 25.8062ZM87.0169 25.2042C87.4929 24.6816 87.7309 24.0096 87.7309 23.1882C87.7309 22.3669 87.4929 21.6949 87.0169 21.1722C86.5409 20.6496 85.9623 20.3882 85.2809 20.3882C84.5996 20.3882 84.0209 20.6496 83.5449 21.1722C83.0689 21.6949 82.8309 22.3669 82.8309 23.1882C82.8309 24.0096 83.0689 24.6816 83.5449 25.2042C84.0209 25.7269 84.5996 25.9882 85.2809 25.9882C85.9623 25.9882 86.5409 25.7269 87.0169 25.2042ZM90.5949 23.8882V19.6882H91.4349V23.8882C91.4349 24.5229 91.6216 25.0316 91.9949 25.4142C92.3776 25.7969 92.8676 25.9882 93.4649 25.9882C94.0996 25.9882 94.6176 25.7876 95.0189 25.3862C95.4296 24.9849 95.6349 24.4856 95.6349 23.8882V19.6882H96.4749V26.6882H95.7749L95.6349 25.7782H95.5649C95.4343 25.9836 95.2663 26.1609 95.0609 26.3102C94.6036 26.6556 94.0483 26.8282 93.3949 26.8282C92.5829 26.8282 91.9109 26.5576 91.3789 26.0162C90.8563 25.4656 90.5949 24.7562 90.5949 23.8882ZM98.436 24.6582H99.234C99.234 25.0316 99.4113 25.3489 99.766 25.6102C100.121 25.8622 100.587 25.9882 101.166 25.9882C101.763 25.9882 102.216 25.8762 102.524 25.6522C102.832 25.4282 102.986 25.1436 102.986 24.7982C102.986 24.2289 102.589 23.8649 101.796 23.7062L100.396 23.4262C99.7893 23.3049 99.332 23.0949 99.024 22.7962C98.7253 22.4882 98.576 22.0589 98.576 21.5082C98.576 20.9576 98.8 20.4956 99.248 20.1222C99.7053 19.7396 100.321 19.5482 101.096 19.5482C101.908 19.5482 102.552 19.7582 103.028 20.1782C103.513 20.5889 103.756 21.1022 103.756 21.7182H102.916C102.916 21.3449 102.753 21.0322 102.426 20.7802C102.109 20.5189 101.665 20.3882 101.096 20.3882C100.564 20.3882 100.149 20.5002 99.85 20.7242C99.5607 20.9482 99.416 21.2096 99.416 21.5082C99.416 22.1056 99.7893 22.4789 100.536 22.6282L101.936 22.9082C102.608 23.0389 103.089 23.2536 103.378 23.5522C103.677 23.8509 103.826 24.2662 103.826 24.7982C103.826 25.3862 103.593 25.8716 103.126 26.2542C102.659 26.6369 102.006 26.8282 101.166 26.8282C100.354 26.8282 99.696 26.6136 99.192 26.1842C98.688 25.7549 98.436 25.2462 98.436 24.6582ZM106.202 22.7682H111.032C110.995 22.0682 110.752 21.4989 110.304 21.0602C109.866 20.6122 109.315 20.3882 108.652 20.3882C107.98 20.3882 107.42 20.6029 106.972 21.0322C106.534 21.4522 106.277 22.0309 106.202 22.7682ZM110.752 24.7282H111.662C111.457 25.3069 111.107 25.8016 110.612 26.2122C110.127 26.6229 109.474 26.8282 108.652 26.8282C107.682 26.8282 106.888 26.4969 106.272 25.8342C105.666 25.1716 105.362 24.2896 105.362 23.1882C105.362 22.0869 105.666 21.2049 106.272 20.5422C106.888 19.8796 107.682 19.5482 108.652 19.5482C109.576 19.5482 110.342 19.8749 110.948 20.5282C111.564 21.1722 111.872 22.0122 111.872 23.0482C111.872 23.1882 111.863 23.3236 111.844 23.4542C111.835 23.4916 111.83 23.5429 111.83 23.6082H106.202C106.277 24.3269 106.543 24.9056 107 25.3442C107.458 25.7736 108.008 25.9882 108.652 25.9882C109.166 25.9882 109.6 25.8622 109.954 25.6102C110.309 25.3582 110.575 25.0642 110.752 24.7282ZM113.758 26.6882V25.7082H114.738V26.6882H113.758ZM113.758 20.6682V19.6882H114.738V20.6682H113.758Z" fill="white"/>
<path d="M174.54 23.4682H175.73C175.45 24.5042 174.918 25.3256 174.134 25.9322C173.359 26.5296 172.445 26.8282 171.39 26.8282C170.074 26.8282 168.963 26.3569 168.058 25.4142C167.153 24.4716 166.7 23.2629 166.7 21.7882C166.7 20.3136 167.153 19.1049 168.058 18.1622C168.963 17.2196 170.074 16.7482 171.39 16.7482C172.435 16.7482 173.35 17.0469 174.134 17.6442C174.918 18.2322 175.45 19.0302 175.73 20.0382H174.54C174.297 19.3382 173.896 18.7922 173.336 18.4002C172.776 17.9989 172.127 17.7982 171.39 17.7982C170.391 17.7982 169.547 18.1716 168.856 18.9182C168.165 19.6556 167.82 20.6122 167.82 21.7882C167.82 22.9642 168.165 23.9256 168.856 24.6722C169.547 25.4096 170.391 25.7782 171.39 25.7782C172.127 25.7782 172.776 25.5776 173.336 25.1762C173.896 24.7656 174.297 24.1962 174.54 23.4682ZM177.277 26.6882V16.8882H178.327V20.4582H178.397C178.546 20.2716 178.719 20.1222 178.915 20.0102C179.4 19.7022 179.927 19.5482 180.497 19.5482C181.309 19.5482 181.976 19.8236 182.499 20.3742C183.031 20.9156 183.297 21.6202 183.297 22.4882V26.6882H182.247V22.4882C182.247 21.9282 182.065 21.4616 181.701 21.0882C181.337 20.7149 180.889 20.5282 180.357 20.5282C179.797 20.5282 179.316 20.7242 178.915 21.1162C178.523 21.4989 178.327 21.9562 178.327 22.4882V26.6882H177.277ZM190.089 24.7282H191.209C190.967 25.4002 190.584 25.9182 190.061 26.2822C189.548 26.6462 188.927 26.8282 188.199 26.8282C187.238 26.8282 186.435 26.4922 185.791 25.8202C185.157 25.1389 184.839 24.2616 184.839 23.1882C184.839 22.1149 185.157 21.2422 185.791 20.5702C186.435 19.8889 187.238 19.5482 188.199 19.5482C189.123 19.5482 189.889 19.8656 190.495 20.5002C191.111 21.1349 191.419 21.9376 191.419 22.9082C191.419 23.0576 191.405 23.2582 191.377 23.5102L191.349 23.6782H185.889C185.964 24.3316 186.216 24.8589 186.645 25.2602C187.084 25.6522 187.602 25.8482 188.199 25.8482C188.619 25.8482 188.993 25.7502 189.319 25.5542C189.655 25.3582 189.912 25.0829 190.089 24.7282ZM185.889 22.6982H190.369C190.332 22.0636 190.108 21.5456 189.697 21.1442C189.296 20.7336 188.797 20.5282 188.199 20.5282C187.574 20.5282 187.051 20.7289 186.631 21.1302C186.211 21.5316 185.964 22.0542 185.889 22.6982ZM192.957 26.6882V19.6882H193.867L194.007 20.4582H194.077C194.226 20.2716 194.399 20.1222 194.595 20.0102C195.08 19.7022 195.607 19.5482 196.177 19.5482C196.989 19.5482 197.656 19.8236 198.179 20.3742C198.711 20.9156 198.977 21.6202 198.977 22.4882V26.6882H197.927V22.4882C197.927 21.9282 197.745 21.4616 197.381 21.0882C197.017 20.7149 196.569 20.5282 196.037 20.5282C195.477 20.5282 194.996 20.7242 194.595 21.1162C194.203 21.4989 194.007 21.9562 194.007 22.4882V26.6882H192.957ZM200.941 26.6882V19.6882H201.851L201.991 20.4582H202.061C202.21 20.2716 202.383 20.1222 202.579 20.0102C203.064 19.7022 203.592 19.5482 204.161 19.5482C204.973 19.5482 205.64 19.8236 206.163 20.3742C206.695 20.9156 206.961 21.6202 206.961 22.4882V26.6882H205.911V22.4882C205.911 21.9282 205.729 21.4616 205.365 21.0882C205.001 20.7149 204.553 20.5282 204.021 20.5282C203.461 20.5282 202.98 20.7242 202.579 21.1162C202.187 21.4989 201.991 21.9562 201.991 22.4882V26.6882H200.941ZM213.475 26.6882L213.335 25.8482H213.265C213.135 26.0349 212.967 26.1982 212.761 26.3382C212.332 26.6649 211.777 26.8282 211.095 26.8282C210.367 26.8282 209.775 26.6276 209.317 26.2262C208.869 25.8249 208.645 25.3022 208.645 24.6582C208.645 23.9582 208.874 23.4122 209.331 23.0202C209.798 22.6189 210.503 22.4182 211.445 22.4182H213.335V22.2082C213.335 21.6762 213.186 21.2656 212.887 20.9762C212.598 20.6776 212.187 20.5282 211.655 20.5282C211.151 20.5282 210.741 20.6449 210.423 20.8782C210.115 21.1022 209.943 21.3822 209.905 21.7182H208.855C208.893 21.1209 209.159 20.6122 209.653 20.1922C210.157 19.7629 210.825 19.5482 211.655 19.5482C212.505 19.5482 213.172 19.7816 213.657 20.2482C214.143 20.7149 214.385 21.3682 214.385 22.2082V26.6882H213.475ZM213.335 23.6782V23.3982H211.445C210.848 23.3982 210.405 23.5149 210.115 23.7482C209.835 23.9816 209.695 24.2849 209.695 24.6582C209.695 25.0222 209.817 25.3116 210.059 25.5262C210.302 25.7409 210.647 25.8482 211.095 25.8482C211.795 25.8482 212.341 25.6569 212.733 25.2742C213.135 24.8822 213.335 24.3502 213.335 23.6782ZM216.419 26.6882V19.6882H217.469V26.6882H216.419ZM216.349 18.2182V17.0282H217.539V18.2182H216.349Z" fill="white"/>
<path d="M230 20.1882L233 23.1882L236 20.1882" stroke="#F08B32" stroke-linecap="round" stroke-linejoin="round"/>
</g>
<g filter="url(#filter1_ddd_3550_99402)">
<path d="M157 64.9873C157 60.569 160.582 56.9873 165 56.9873H399C403.418 56.9873 407 60.569 407 64.9873V170.572C407 174.99 403.418 178.572 399 178.572H165C160.582 178.572 157 174.99 157 170.572V64.9873Z" fill="url(#paint2_linear_3550_99402)" fill-opacity="0.1" shape-rendering="crispEdges"/>
<path d="M165 57.4873H399C403.142 57.4873 406.5 60.8452 406.5 64.9873V170.572C406.5 174.714 403.142 178.072 399 178.072H165C160.858 178.072 157.5 174.714 157.5 170.572V64.9873C157.5 60.8452 160.858 57.4873 165 57.4873Z" stroke="url(#paint3_linear_3550_99402)" stroke-opacity="0.1" shape-rendering="crispEdges"/>
<g clip-path="url(#clip1_3550_99402)">
<path d="M183 79.7795H179C178.019 79.7795 177.223 80.5755 177.223 81.5573V85.5573C177.223 86.5392 178.019 87.3351 179 87.3351H183C183.982 87.3351 184.778 86.5392 184.778 85.5573V81.5573C184.778 80.5755 183.982 79.7795 183 79.7795Z" fill="#E4E4E7"/>
<path d="M183 79.7795H179C178.019 79.7795 177.223 80.5755 177.223 81.5573V85.5573C177.223 86.5392 178.019 87.3351 179 87.3351H183C183.982 87.3351 184.778 86.5392 184.778 85.5573V81.5573C184.778 80.5755 183.982 79.7795 183 79.7795Z" stroke="white" stroke-linecap="round" stroke-linejoin="round"/>
<path d="M179 87.3347H175.445C174.709 87.3347 174.111 86.7373 174.111 86.0013V82.8902C174.111 82.1542 174.709 81.5569 175.445 81.5569" stroke="white" stroke-linecap="round" stroke-linejoin="round"/>
<path d="M183 87.3347H186.556C187.292 87.3347 187.889 86.7373 187.889 86.0013V82.8902C187.889 82.1542 187.292 81.5569 186.556 81.5569" stroke="white" stroke-linecap="round" stroke-linejoin="round"/>
<path d="M181 79.7795V82.4462" stroke="white" stroke-linecap="round" stroke-linejoin="round"/>
<path d="M174.557 78.4453L181.001 75.3342L187.446 78.4453" stroke="white" stroke-linecap="round" stroke-linejoin="round"/>
</g>
<path d="M197.424 86.9195C196.855 86.9195 196.332 86.8495 195.856 86.7095C195.38 86.5602 194.951 86.3409 194.568 86.0515C194.185 85.7622 193.845 85.4122 193.546 85.0015L194.736 83.6575C195.193 84.2922 195.641 84.7309 196.08 84.9735C196.519 85.2162 197.013 85.3375 197.564 85.3375C197.881 85.3375 198.171 85.2909 198.432 85.1975C198.693 85.0949 198.899 84.9595 199.048 84.7915C199.197 84.6142 199.272 84.4135 199.272 84.1895C199.272 84.0309 199.239 83.8862 199.174 83.7555C199.118 83.6155 199.029 83.4942 198.908 83.3915C198.787 83.2795 198.637 83.1769 198.46 83.0835C198.283 82.9902 198.082 82.9109 197.858 82.8455C197.634 82.7802 197.387 82.7195 197.116 82.6635C196.603 82.5609 196.155 82.4255 195.772 82.2575C195.389 82.0802 195.067 81.8655 194.806 81.6135C194.545 81.3522 194.353 81.0629 194.232 80.7455C194.111 80.4189 194.05 80.0502 194.05 79.6395C194.05 79.2289 194.139 78.8509 194.316 78.5055C194.503 78.1602 194.755 77.8615 195.072 77.6095C195.389 77.3575 195.758 77.1615 196.178 77.0215C196.598 76.8815 197.051 76.8115 197.536 76.8115C198.087 76.8115 198.577 76.8769 199.006 77.0075C199.445 77.1382 199.827 77.3342 200.154 77.5955C200.49 77.8475 200.765 78.1555 200.98 78.5195L199.776 79.7095C199.589 79.4202 199.379 79.1822 199.146 78.9955C198.913 78.7995 198.661 78.6549 198.39 78.5615C198.119 78.4589 197.835 78.4075 197.536 78.4075C197.2 78.4075 196.906 78.4542 196.654 78.5475C196.411 78.6409 196.22 78.7762 196.08 78.9535C195.94 79.1215 195.87 79.3269 195.87 79.5695C195.87 79.7562 195.912 79.9242 195.996 80.0735C196.08 80.2135 196.197 80.3395 196.346 80.4515C196.505 80.5635 196.705 80.6615 196.948 80.7455C197.191 80.8295 197.466 80.9042 197.774 80.9695C198.287 81.0722 198.749 81.2122 199.16 81.3895C199.571 81.5575 199.921 81.7629 200.21 82.0055C200.499 82.2389 200.719 82.5095 200.868 82.8175C201.017 83.1162 201.092 83.4522 201.092 83.8255C201.092 84.4695 200.938 85.0249 200.63 85.4915C200.331 85.9489 199.907 86.3035 199.356 86.5555C198.805 86.7982 198.161 86.9195 197.424 86.9195ZM203.863 86.7795V77.5255H205.585V86.7795H203.863ZM202.407 80.9975V79.4015H207.195V80.9975H202.407ZM212.092 86.9195C211.355 86.9195 210.697 86.7562 210.118 86.4295C209.54 86.0935 209.082 85.6362 208.746 85.0575C208.41 84.4789 208.242 83.8209 208.242 83.0835C208.242 82.3462 208.41 81.6882 208.746 81.1095C209.082 80.5309 209.54 80.0782 210.118 79.7515C210.697 79.4155 211.355 79.2475 212.092 79.2475C212.82 79.2475 213.474 79.4155 214.052 79.7515C214.631 80.0782 215.084 80.5309 215.41 81.1095C215.746 81.6882 215.914 82.3462 215.914 83.0835C215.914 83.8209 215.746 84.4789 215.41 85.0575C215.084 85.6362 214.631 86.0935 214.052 86.4295C213.474 86.7562 212.82 86.9195 212.092 86.9195ZM212.092 85.3935C212.494 85.3935 212.848 85.2909 213.156 85.0855C213.474 84.8802 213.721 84.6049 213.898 84.2595C214.085 83.9142 214.174 83.5222 214.164 83.0835C214.174 82.6355 214.085 82.2389 213.898 81.8935C213.721 81.5482 213.474 81.2775 213.156 81.0815C212.848 80.8762 212.494 80.7735 212.092 80.7735C211.691 80.7735 211.327 80.8762 211 81.0815C210.683 81.2775 210.436 81.5529 210.258 81.9075C210.081 82.2529 209.992 82.6449 209.992 83.0835C209.992 83.5222 210.081 83.9142 210.258 84.2595C210.436 84.6049 210.683 84.8802 211 85.0855C211.327 85.2909 211.691 85.3935 212.092 85.3935ZM220.899 86.9195C220.208 86.9195 219.587 86.7515 219.037 86.4155C218.486 86.0795 218.052 85.6222 217.735 85.0435C217.417 84.4649 217.259 83.8115 217.259 83.0835C217.259 82.3555 217.417 81.7022 217.735 81.1235C218.052 80.5449 218.486 80.0875 219.037 79.7515C219.587 79.4155 220.208 79.2475 220.899 79.2475C221.561 79.2475 222.163 79.3735 222.705 79.6255C223.246 79.8775 223.666 80.2275 223.965 80.6755L223.013 81.8235C222.873 81.6275 222.695 81.4502 222.481 81.2915C222.266 81.1329 222.037 81.0069 221.795 80.9135C221.552 80.8202 221.309 80.7735 221.067 80.7735C220.656 80.7735 220.287 80.8762 219.961 81.0815C219.643 81.2775 219.391 81.5529 219.205 81.9075C219.018 82.2529 218.925 82.6449 218.925 83.0835C218.925 83.5222 219.018 83.9142 219.205 84.2595C219.401 84.6049 219.662 84.8802 219.989 85.0855C220.315 85.2909 220.679 85.3935 221.081 85.3935C221.323 85.3935 221.557 85.3562 221.781 85.2815C222.014 85.1975 222.233 85.0809 222.439 84.9315C222.644 84.7822 222.835 84.5955 223.013 84.3715L223.965 85.5335C223.647 85.9442 223.209 86.2802 222.649 86.5415C222.098 86.7935 221.515 86.9195 220.899 86.9195ZM227.172 84.5255L226.836 82.9155L230.336 79.4015H232.632L227.172 84.5255ZM225.562 86.7795V76.4195H227.284V86.7795H225.562ZM230.546 86.7795L227.83 83.4895L229.048 82.4535L232.674 86.7795H230.546ZM238.495 86.7795V85.1695H240.105V78.5895H238.495V76.9795H243.535V78.5895H241.925V85.1695H243.535V86.7795H238.495ZM245.829 86.7795V79.4015H247.509L247.537 80.9135L247.215 81.0815C247.309 80.7455 247.491 80.4422 247.761 80.1715C248.032 79.8915 248.354 79.6675 248.727 79.4995C249.101 79.3315 249.483 79.2475 249.875 79.2475C250.435 79.2475 250.902 79.3595 251.275 79.5835C251.658 79.8075 251.943 80.1435 252.129 80.5915C252.325 81.0395 252.423 81.5995 252.423 82.2715V86.7795H250.701V82.3975C250.701 82.0242 250.65 81.7162 250.547 81.4735C250.445 81.2215 250.286 81.0395 250.071 80.9275C249.857 80.8062 249.595 80.7502 249.287 80.7595C249.035 80.7595 248.802 80.8015 248.587 80.8855C248.382 80.9602 248.2 81.0722 248.041 81.2215C247.892 81.3615 247.771 81.5249 247.677 81.7115C247.593 81.8982 247.551 82.1035 247.551 82.3275V86.7795H246.697C246.529 86.7795 246.371 86.7795 246.221 86.7795C246.081 86.7795 245.951 86.7795 245.829 86.7795ZM255.313 86.7795V78.7435C255.313 78.2955 255.411 77.8989 255.607 77.5535C255.803 77.1989 256.073 76.9235 256.419 76.7275C256.764 76.5222 257.165 76.4195 257.623 76.4195C257.94 76.4195 258.234 76.4755 258.505 76.5875C258.775 76.6902 259.004 76.8349 259.191 77.0215L258.659 78.3235C258.537 78.2209 258.407 78.1415 258.267 78.0855C258.136 78.0295 258.01 78.0015 257.889 78.0015C257.702 78.0015 257.543 78.0342 257.413 78.0995C257.291 78.1555 257.198 78.2442 257.133 78.3655C257.077 78.4869 257.049 78.6315 257.049 78.7995V86.7795H256.181C256.013 86.7795 255.854 86.7795 255.705 86.7795C255.565 86.7795 255.434 86.7795 255.313 86.7795ZM254.165 81.0675V79.5555H258.715V81.0675H254.165ZM263.517 86.9195C262.78 86.9195 262.122 86.7562 261.543 86.4295C260.965 86.0935 260.507 85.6362 260.171 85.0575C259.835 84.4789 259.667 83.8209 259.667 83.0835C259.667 82.3462 259.835 81.6882 260.171 81.1095C260.507 80.5309 260.965 80.0782 261.543 79.7515C262.122 79.4155 262.78 79.2475 263.517 79.2475C264.245 79.2475 264.899 79.4155 265.477 79.7515C266.056 80.0782 266.509 80.5309 266.835 81.1095C267.171 81.6882 267.339 82.3462 267.339 83.0835C267.339 83.8209 267.171 84.4789 266.835 85.0575C266.509 85.6362 266.056 86.0935 265.477 86.4295C264.899 86.7562 264.245 86.9195 263.517 86.9195ZM263.517 85.3935C263.919 85.3935 264.273 85.2909 264.581 85.0855C264.899 84.8802 265.146 84.6049 265.323 84.2595C265.51 83.9142 265.599 83.5222 265.589 83.0835C265.599 82.6355 265.51 82.2389 265.323 81.8935C265.146 81.5482 264.899 81.2775 264.581 81.0815C264.273 80.8762 263.919 80.7735 263.517 80.7735C263.116 80.7735 262.752 80.8762 262.425 81.0815C262.108 81.2775 261.861 81.5529 261.683 81.9075C261.506 82.2529 261.417 82.6449 261.417 83.0835C261.417 83.5222 261.506 83.9142 261.683 84.2595C261.861 84.6049 262.108 84.8802 262.425 85.0855C262.752 85.2909 263.116 85.3935 263.517 85.3935Z" fill="white"/>
<path d="M180.93 109.29H182.035C181.775 110.252 181.281 111.014 180.553 111.578C179.834 112.132 178.984 112.41 178.005 112.41C176.783 112.41 175.752 111.972 174.911 111.097C174.07 110.221 173.65 109.099 173.65 107.73C173.65 106.36 174.07 105.238 174.911 104.363C175.752 103.487 176.783 103.05 178.005 103.05C178.976 103.05 179.825 103.327 180.553 103.882C181.281 104.428 181.775 105.169 182.035 106.105H180.93C180.705 105.455 180.332 104.948 179.812 104.584C179.292 104.211 178.69 104.025 178.005 104.025C177.078 104.025 176.293 104.371 175.652 105.065C175.011 105.749 174.69 106.638 174.69 107.73C174.69 108.822 175.011 109.714 175.652 110.408C176.293 111.092 177.078 111.435 178.005 111.435C178.69 111.435 179.292 111.248 179.812 110.876C180.332 110.494 180.705 109.966 180.93 109.29ZM183.731 112.28V103.18H184.706V112.28H183.731ZM191.799 111.474C191.21 112.098 190.469 112.41 189.576 112.41C188.683 112.41 187.938 112.098 187.34 111.474C186.751 110.841 186.456 110.026 186.456 109.03C186.456 108.033 186.751 107.223 187.34 106.599C187.938 105.966 188.683 105.65 189.576 105.65C190.469 105.65 191.21 105.966 191.799 106.599C192.397 107.223 192.696 108.033 192.696 109.03C192.696 110.026 192.397 110.841 191.799 111.474ZM188.042 110.811C188.458 111.27 188.969 111.5 189.576 111.5C190.183 111.5 190.69 111.27 191.097 110.811C191.513 110.351 191.721 109.758 191.721 109.03C191.721 108.302 191.513 107.708 191.097 107.249C190.69 106.789 190.183 106.56 189.576 106.56C188.969 106.56 188.458 106.789 188.042 107.249C187.635 107.708 187.431 108.302 187.431 109.03C187.431 109.758 187.635 110.351 188.042 110.811ZM193.86 110.395H194.835C194.835 110.698 194.978 110.958 195.264 111.175C195.559 111.391 195.958 111.5 196.46 111.5C196.954 111.5 197.336 111.409 197.604 111.227C197.882 111.036 198.02 110.802 198.02 110.525C198.02 110.013 197.652 109.688 196.915 109.55L195.81 109.355C194.597 109.155 193.99 108.549 193.99 107.535C193.99 106.989 194.198 106.538 194.614 106.183C195.03 105.827 195.624 105.65 196.395 105.65C197.149 105.65 197.76 105.849 198.228 106.248C198.696 106.646 198.93 107.119 198.93 107.665H197.955C197.955 107.361 197.812 107.101 197.526 106.885C197.249 106.668 196.872 106.56 196.395 106.56C195.927 106.56 195.572 106.655 195.329 106.846C195.087 107.028 194.965 107.257 194.965 107.535C194.965 108.011 195.312 108.315 196.005 108.445L197.11 108.64C197.76 108.761 198.237 108.978 198.54 109.29C198.844 109.593 198.995 110.005 198.995 110.525C198.995 111.071 198.774 111.521 198.332 111.877C197.899 112.232 197.275 112.41 196.46 112.41C195.68 112.41 195.052 112.21 194.575 111.812C194.099 111.413 193.86 110.941 193.86 110.395ZM200.685 112.28V105.78H201.66V112.28H200.685ZM200.62 104.415V103.31H201.725V104.415H200.62ZM203.8 112.28V105.78H204.645L204.775 106.495H204.84C204.979 106.321 205.139 106.183 205.321 106.079C205.772 105.793 206.261 105.65 206.79 105.65C207.544 105.65 208.164 105.905 208.649 106.417C209.143 106.919 209.39 107.574 209.39 108.38V112.28H208.415V108.38C208.415 107.86 208.246 107.426 207.908 107.08C207.57 106.733 207.154 106.56 206.66 106.56C206.14 106.56 205.694 106.742 205.321 107.106C204.957 107.461 204.775 107.886 204.775 108.38V112.28H203.8ZM211.344 112.8H212.319C212.354 113.164 212.54 113.471 212.878 113.723C213.216 113.974 213.68 114.1 214.269 114.1C214.858 114.1 215.331 113.935 215.686 113.606C216.041 113.276 216.219 112.834 216.219 112.28V111.11H216.154C215.617 111.716 214.923 112.02 214.074 112.02C213.216 112.02 212.501 111.725 211.929 111.136C211.366 110.538 211.084 109.771 211.084 108.835C211.084 107.899 211.366 107.136 211.929 106.547C212.501 105.949 213.216 105.65 214.074 105.65C214.49 105.65 214.88 105.741 215.244 105.923C215.617 106.096 215.92 106.33 216.154 106.625H216.219L216.349 105.78H217.194V112.28C217.194 113.103 216.93 113.762 216.401 114.256C215.881 114.758 215.17 115.01 214.269 115.01C213.402 115.01 212.705 114.789 212.176 114.347C211.656 113.913 211.379 113.398 211.344 112.8ZM212.644 110.486C213.043 110.902 213.541 111.11 214.139 111.11C214.737 111.11 215.231 110.902 215.621 110.486C216.02 110.061 216.219 109.511 216.219 108.835C216.219 108.159 216.02 107.613 215.621 107.197C215.231 106.772 214.737 106.56 214.139 106.56C213.541 106.56 213.043 106.772 212.644 107.197C212.254 107.613 212.059 108.159 212.059 108.835C212.059 109.511 212.254 110.061 212.644 110.486ZM222.206 109.615H223.246C223.246 110.126 223.458 110.559 223.883 110.915C224.316 111.261 224.906 111.435 225.651 111.435C226.414 111.435 226.981 111.287 227.354 110.993C227.735 110.689 227.926 110.295 227.926 109.81C227.926 109.012 227.406 108.514 226.366 108.315L224.611 107.99C223.138 107.712 222.401 106.932 222.401 105.65C222.401 104.887 222.683 104.263 223.246 103.778C223.809 103.292 224.568 103.05 225.521 103.05C226.535 103.05 227.35 103.318 227.965 103.856C228.589 104.384 228.901 105.047 228.901 105.845H227.861C227.861 105.333 227.649 104.904 227.224 104.558C226.808 104.202 226.24 104.025 225.521 104.025C224.862 104.025 224.351 104.176 223.987 104.48C223.623 104.783 223.441 105.173 223.441 105.65C223.441 106.412 223.939 106.889 224.936 107.08L226.366 107.34C227.267 107.504 227.926 107.786 228.342 108.185C228.758 108.583 228.966 109.125 228.966 109.81C228.966 110.581 228.676 111.209 228.095 111.695C227.514 112.171 226.7 112.41 225.651 112.41C224.611 112.41 223.775 112.141 223.142 111.604C222.518 111.058 222.206 110.395 222.206 109.615ZM230.99 111.175V106.69H229.95V105.78H230.99V103.96H231.965V105.78H233.46V106.69H231.965V110.98C231.965 111.24 232.095 111.37 232.355 111.37H233.46V112.28H232.16C231.796 112.28 231.51 112.18 231.302 111.981C231.094 111.781 230.99 111.513 230.99 111.175ZM239.912 111.474C239.323 112.098 238.582 112.41 237.689 112.41C236.797 112.41 236.051 112.098 235.453 111.474C234.864 110.841 234.569 110.026 234.569 109.03C234.569 108.033 234.864 107.223 235.453 106.599C236.051 105.966 236.797 105.65 237.689 105.65C238.582 105.65 239.323 105.966 239.912 106.599C240.51 107.223 240.809 108.033 240.809 109.03C240.809 110.026 240.51 110.841 239.912 111.474ZM236.155 110.811C236.571 111.27 237.083 111.5 237.689 111.5C238.296 111.5 238.803 111.27 239.21 110.811C239.626 110.351 239.834 109.758 239.834 109.03C239.834 108.302 239.626 107.708 239.21 107.249C238.803 106.789 238.296 106.56 237.689 106.56C237.083 106.56 236.571 106.789 236.155 107.249C235.748 107.708 235.544 108.302 235.544 109.03C235.544 109.758 235.748 110.351 236.155 110.811ZM247.109 110.135H248.084C247.919 110.854 247.581 111.413 247.07 111.812C246.567 112.21 245.952 112.41 245.224 112.41C244.331 112.41 243.586 112.098 242.988 111.474C242.398 110.841 242.104 110.026 242.104 109.03C242.104 108.033 242.398 107.223 242.988 106.599C243.586 105.966 244.331 105.65 245.224 105.65C245.943 105.65 246.558 105.849 247.07 106.248C247.581 106.638 247.919 107.175 248.084 107.86H247.109C246.979 107.444 246.749 107.123 246.42 106.898C246.09 106.672 245.692 106.56 245.224 106.56C244.617 106.56 244.106 106.789 243.69 107.249C243.282 107.708 243.079 108.302 243.079 109.03C243.079 109.758 243.282 110.351 243.69 110.811C244.106 111.27 244.617 111.5 245.224 111.5C246.22 111.5 246.849 111.045 247.109 110.135ZM249.712 112.28V103.18H250.687V108.77L253.612 105.78H254.847L251.727 108.965L254.977 112.28H253.742L250.687 109.16V112.28H249.712Z" fill="white"/>
<path d="M292.56 109.21V107.88H295.71C296.475 107.88 296.965 107.506 297.18 106.76H292.56V105.43H297.18C296.965 104.683 296.475 104.31 295.71 104.31H292.56V102.98H299.56V104.31H298.23C298.286 104.384 298.337 104.473 298.384 104.576C298.459 104.716 298.552 105 298.664 105.43H299.56V106.76H298.664C298.515 107.534 298.193 108.136 297.698 108.566C297.203 108.995 296.587 109.21 295.85 109.21H295.43L298.93 112.78H297.04L293.54 109.21H292.56ZM302.644 112.78V105.43H300.614V104.03H302.224C302.504 104.03 302.644 103.89 302.644 103.61V102.98H304.114V112.78H302.644ZM311.795 110.582C312.271 109.947 312.509 109.046 312.509 107.88C312.509 106.713 312.271 105.817 311.795 105.192C311.319 104.557 310.74 104.24 310.059 104.24C309.378 104.24 308.799 104.557 308.323 105.192C307.847 105.817 307.609 106.713 307.609 107.88C307.609 109.046 307.847 109.947 308.323 110.582C308.799 111.207 309.378 111.52 310.059 111.52C310.74 111.52 311.319 111.207 311.795 110.582ZM307.273 104.198C308.029 103.292 308.958 102.84 310.059 102.84C311.16 102.84 312.089 103.292 312.845 104.198C313.601 105.103 313.979 106.33 313.979 107.88C313.979 109.429 313.601 110.656 312.845 111.562C312.089 112.467 311.16 112.92 310.059 112.92C308.958 112.92 308.029 112.467 307.273 111.562C306.517 110.656 306.139 109.429 306.139 107.88C306.139 106.33 306.517 105.103 307.273 104.198ZM321.317 110.582C321.793 109.947 322.031 109.046 322.031 107.88C322.031 106.713 321.793 105.817 321.317 105.192C320.841 104.557 320.262 104.24 319.581 104.24C318.9 104.24 318.321 104.557 317.845 105.192C317.369 105.817 317.131 106.713 317.131 107.88C317.131 109.046 317.369 109.947 317.845 110.582C318.321 111.207 318.9 111.52 319.581 111.52C320.262 111.52 320.841 111.207 321.317 110.582ZM316.795 104.198C317.551 103.292 318.48 102.84 319.581 102.84C320.682 102.84 321.611 103.292 322.367 104.198C323.123 105.103 323.501 106.33 323.501 107.88C323.501 109.429 323.123 110.656 322.367 111.562C321.611 112.467 320.682 112.92 319.581 112.92C318.48 112.92 317.551 112.467 316.795 111.562C316.039 110.656 315.661 109.429 315.661 107.88C315.661 106.33 316.039 105.103 316.795 104.198ZM330.839 110.582C331.315 109.947 331.553 109.046 331.553 107.88C331.553 106.713 331.315 105.817 330.839 105.192C330.363 104.557 329.785 104.24 329.103 104.24C328.422 104.24 327.843 104.557 327.367 105.192C326.891 105.817 326.653 106.713 326.653 107.88C326.653 109.046 326.891 109.947 327.367 110.582C327.843 111.207 328.422 111.52 329.103 111.52C329.785 111.52 330.363 111.207 330.839 110.582ZM326.317 104.198C327.073 103.292 328.002 102.84 329.103 102.84C330.205 102.84 331.133 103.292 331.889 104.198C332.645 105.103 333.023 106.33 333.023 107.88C333.023 109.429 332.645 110.656 331.889 111.562C331.133 112.467 330.205 112.92 329.103 112.92C328.002 112.92 327.073 112.467 326.317 111.562C325.561 110.656 325.183 109.429 325.183 107.88C325.183 106.33 325.561 105.103 326.317 104.198Z" fill="white"/>
<path d="M338 115.58L341.85 102.56H342.9L339.05 115.58H338Z" fill="white"/>
<path d="M347.42 109.56H348.38C348.38 109.968 348.54 110.312 348.86 110.592C349.188 110.864 349.628 111 350.18 111C350.708 111 351.14 110.856 351.476 110.568C351.812 110.28 351.98 109.924 351.98 109.5C351.98 109.036 351.816 108.66 351.488 108.372C351.16 108.084 350.724 107.94 350.18 107.94H349.64V107.04H350.18C350.708 107.04 351.12 106.9 351.416 106.62C351.712 106.34 351.86 105.988 351.86 105.564C351.86 105.18 351.704 104.852 351.392 104.58C351.08 104.3 350.676 104.16 350.18 104.16C349.708 104.16 349.308 104.3 348.98 104.58C348.66 104.852 348.5 105.172 348.5 105.54H347.54C347.54 104.924 347.788 104.392 348.284 103.944C348.78 103.488 349.412 103.26 350.18 103.26C350.956 103.26 351.588 103.484 352.076 103.932C352.572 104.372 352.82 104.924 352.82 105.588C352.82 106.172 352.6 106.66 352.16 107.052C351.96 107.228 351.74 107.364 351.5 107.46V107.52C351.78 107.624 352.02 107.768 352.22 107.952C352.7 108.368 352.94 108.884 352.94 109.5C352.94 110.164 352.68 110.732 352.16 111.204C351.64 111.668 350.98 111.9 350.18 111.9C349.356 111.9 348.688 111.672 348.176 111.216C347.672 110.76 347.42 110.208 347.42 109.56ZM354.078 109.86V109.14L357.378 103.38H358.938V109.02H360.018V109.86H358.938V111.78H357.978V109.86H354.078ZM355.278 109.02H357.978V104.64H357.738L355.278 108.96V109.02ZM361.518 107.46L364.158 103.38H365.238L363.258 106.5H363.318L363.546 106.44C363.706 106.4 363.89 106.38 364.098 106.38C364.858 106.38 365.498 106.636 366.018 107.148C366.538 107.66 366.798 108.304 366.798 109.08C366.798 109.864 366.518 110.532 365.958 111.084C365.406 111.628 364.726 111.9 363.918 111.9C363.11 111.9 362.426 111.628 361.866 111.084C361.314 110.532 361.038 109.864 361.038 109.08C361.038 108.496 361.198 107.956 361.518 107.46ZM362.55 110.448C362.918 110.816 363.374 111 363.918 111C364.462 111 364.918 110.816 365.286 110.448C365.654 110.072 365.838 109.616 365.838 109.08C365.838 108.544 365.654 108.092 365.286 107.724C364.918 107.348 364.462 107.16 363.918 107.16C363.374 107.16 362.918 107.348 362.55 107.724C362.182 108.092 361.998 108.544 361.998 109.08C361.998 109.616 362.182 110.072 362.55 110.448ZM377.959 111.9L377.299 111.24C377.123 111.368 376.927 111.48 376.711 111.576C376.263 111.792 375.739 111.9 375.139 111.9C374.011 111.9 373.059 111.496 372.283 110.688C371.507 109.88 371.119 108.844 371.119 107.58C371.119 106.316 371.507 105.28 372.283 104.472C373.059 103.664 374.011 103.26 375.139 103.26C376.267 103.26 377.219 103.664 377.995 104.472C378.771 105.28 379.159 106.316 379.159 107.58C379.159 108.9 378.759 109.96 377.959 110.76L379.159 111.9H377.959ZM374.599 108.66H375.799L377.299 110.1C377.899 109.444 378.199 108.604 378.199 107.58C378.199 106.572 377.903 105.752 377.311 105.12C376.719 104.48 375.995 104.16 375.139 104.16C374.283 104.16 373.559 104.48 372.967 105.12C372.375 105.752 372.079 106.572 372.079 107.58C372.079 108.588 372.375 109.412 372.967 110.052C373.559 110.684 374.283 111 375.139 111C375.563 111 375.931 110.94 376.243 110.82C376.387 110.772 376.519 110.712 376.639 110.64L374.599 108.66ZM381.253 110.76V106.62H380.293V105.78H381.253V104.1H382.153V105.78H383.533V106.62H382.153V110.58C382.153 110.82 382.273 110.94 382.513 110.94H383.533V111.78H382.333C381.997 111.78 381.733 111.688 381.541 111.504C381.349 111.32 381.253 111.072 381.253 110.76ZM385.091 114.18V113.34H386.231C386.431 113.34 386.571 113.22 386.651 112.98L386.891 112.26L384.431 105.78H385.391L387.251 110.76H387.491L389.171 105.78H390.131L387.431 113.34C387.327 113.636 387.191 113.848 387.023 113.976C386.855 114.112 386.611 114.18 386.291 114.18H385.091Z" fill="#E4E4E7"/>
<path d="M181.099 135.097C180.258 135.972 179.227 136.41 178.005 136.41C176.783 136.41 175.752 135.972 174.911 135.097C174.07 134.221 173.65 133.099 173.65 131.73C173.65 130.36 174.07 129.238 174.911 128.363C175.752 127.487 176.783 127.05 178.005 127.05C179.227 127.05 180.258 127.487 181.099 128.363C181.94 129.238 182.36 130.36 182.36 131.73C182.36 133.099 181.94 134.221 181.099 135.097ZM175.652 134.408C176.293 135.092 177.078 135.435 178.005 135.435C178.932 135.435 179.717 135.092 180.358 134.408C180.999 133.714 181.32 132.822 181.32 131.73C181.32 130.638 180.999 129.749 180.358 129.065C179.717 128.371 178.932 128.025 178.005 128.025C177.078 128.025 176.293 128.371 175.652 129.065C175.011 129.749 174.69 130.638 174.69 131.73C174.69 132.822 175.011 133.714 175.652 134.408ZM184.174 138.88V129.78H185.019L185.149 130.69H185.214C185.76 129.996 186.453 129.65 187.294 129.65C188.152 129.65 188.863 129.966 189.426 130.599C189.998 131.223 190.284 132.033 190.284 133.03C190.284 134.026 189.998 134.841 189.426 135.474C188.863 136.098 188.152 136.41 187.294 136.41C186.453 136.41 185.76 136.063 185.214 135.37H185.149V138.88H184.174ZM185.76 134.811C186.167 135.27 186.657 135.5 187.229 135.5C187.801 135.5 188.291 135.27 188.698 134.811C189.105 134.351 189.309 133.758 189.309 133.03C189.309 132.302 189.105 131.708 188.698 131.249C188.291 130.789 187.801 130.56 187.229 130.56C186.657 130.56 186.167 130.789 185.76 131.249C185.353 131.708 185.149 132.302 185.149 133.03C185.149 133.758 185.353 134.351 185.76 134.811ZM196.46 134.46H197.5C197.275 135.084 196.919 135.565 196.434 135.903C195.957 136.241 195.381 136.41 194.705 136.41C193.812 136.41 193.067 136.098 192.469 135.474C191.88 134.841 191.585 134.026 191.585 133.03C191.585 132.033 191.88 131.223 192.469 130.599C193.067 129.966 193.812 129.65 194.705 129.65C195.563 129.65 196.274 129.944 196.837 130.534C197.409 131.123 197.695 131.868 197.695 132.77C197.695 132.908 197.682 133.095 197.656 133.329L197.63 133.485H192.56C192.629 134.091 192.863 134.581 193.262 134.954C193.669 135.318 194.15 135.5 194.705 135.5C195.095 135.5 195.442 135.409 195.745 135.227C196.057 135.045 196.295 134.789 196.46 134.46ZM192.56 132.575H196.72C196.685 131.985 196.477 131.504 196.096 131.132C195.723 130.75 195.26 130.56 194.705 130.56C194.124 130.56 193.639 130.746 193.249 131.119C192.859 131.491 192.629 131.977 192.56 132.575ZM199.382 136.28V129.78H200.227L200.357 130.495H200.422C200.561 130.321 200.721 130.183 200.903 130.079C201.354 129.793 201.844 129.65 202.372 129.65C203.126 129.65 203.746 129.905 204.231 130.417C204.725 130.919 204.972 131.574 204.972 132.38V136.28H203.997V132.38C203.997 131.86 203.828 131.426 203.49 131.08C203.152 130.733 202.736 130.56 202.242 130.56C201.722 130.56 201.276 130.742 200.903 131.106C200.539 131.461 200.357 131.886 200.357 132.38V136.28H199.382ZM217.502 135.097C216.661 135.972 215.63 136.41 214.408 136.41C213.186 136.41 212.154 135.972 211.314 135.097C210.473 134.221 210.053 133.099 210.053 131.73C210.053 130.36 210.473 129.238 211.314 128.363C212.154 127.487 213.186 127.05 214.408 127.05C215.63 127.05 216.661 127.487 217.502 128.363C218.342 129.238 218.763 130.36 218.763 131.73C218.763 133.099 218.342 134.221 217.502 135.097ZM212.055 134.408C212.696 135.092 213.48 135.435 214.408 135.435C215.335 135.435 216.119 135.092 216.761 134.408C217.402 133.714 217.723 132.822 217.723 131.73C217.723 130.638 217.402 129.749 216.761 129.065C216.119 128.371 215.335 128.025 214.408 128.025C213.48 128.025 212.696 128.371 212.055 129.065C211.413 129.749 211.093 130.638 211.093 131.73C211.093 132.822 211.413 133.714 212.055 134.408ZM220.576 136.28V129.78H221.421L221.551 130.43H221.616C221.772 130.204 221.933 130.04 222.097 129.936C222.271 129.832 222.522 129.78 222.851 129.78H223.956V130.69H222.981C222.522 130.69 222.167 130.815 221.915 131.067C221.673 131.309 221.551 131.66 221.551 132.12V136.28H220.576ZM229.876 136.28L229.746 135.37H229.681C229.135 136.063 228.441 136.41 227.601 136.41C226.743 136.41 226.028 136.098 225.456 135.474C224.892 134.841 224.611 134.026 224.611 133.03C224.611 132.033 224.892 131.223 225.456 130.599C226.028 129.966 226.743 129.65 227.601 129.65C228.441 129.65 229.135 129.996 229.681 130.69H229.746V127.18H230.721V136.28H229.876ZM226.197 134.811C226.604 135.27 227.094 135.5 227.666 135.5C228.238 135.5 228.727 135.27 229.135 134.811C229.542 134.351 229.746 133.758 229.746 133.03C229.746 132.302 229.542 131.708 229.135 131.249C228.727 130.789 228.238 130.56 227.666 130.56C227.094 130.56 226.604 130.789 226.197 131.249C225.789 131.708 225.586 132.302 225.586 133.03C225.586 133.758 225.789 134.351 226.197 134.811ZM237.35 134.46H238.39C238.165 135.084 237.809 135.565 237.324 135.903C236.847 136.241 236.271 136.41 235.595 136.41C234.702 136.41 233.957 136.098 233.359 135.474C232.77 134.841 232.475 134.026 232.475 133.03C232.475 132.033 232.77 131.223 233.359 130.599C233.957 129.966 234.702 129.65 235.595 129.65C236.453 129.65 237.164 129.944 237.727 130.534C238.299 131.123 238.585 131.868 238.585 132.77C238.585 132.908 238.572 133.095 238.546 133.329L238.52 133.485H233.45C233.519 134.091 233.753 134.581 234.152 134.954C234.559 135.318 235.04 135.5 235.595 135.5C235.985 135.5 236.332 135.409 236.635 135.227C236.947 135.045 237.185 134.789 237.35 134.46ZM233.45 132.575H237.61C237.575 131.985 237.367 131.504 236.986 131.132C236.613 130.75 236.15 130.56 235.595 130.56C235.014 130.56 234.529 130.746 234.139 131.119C233.749 131.491 233.519 131.977 233.45 132.575ZM240.272 136.28V129.78H241.117L241.247 130.43H241.312C241.468 130.204 241.629 130.04 241.793 129.936C241.967 129.832 242.218 129.78 242.547 129.78H243.652V130.69H242.677C242.218 130.69 241.863 130.815 241.611 131.067C241.369 131.309 241.247 131.66 241.247 132.12V136.28H240.272ZM244.43 134.395H245.405C245.405 134.698 245.548 134.958 245.834 135.175C246.129 135.391 246.528 135.5 247.03 135.5C247.524 135.5 247.906 135.409 248.174 135.227C248.452 135.036 248.59 134.802 248.59 134.525C248.59 134.013 248.222 133.688 247.485 133.55L246.38 133.355C245.167 133.155 244.56 132.549 244.56 131.535C244.56 130.989 244.768 130.538 245.184 130.183C245.6 129.827 246.194 129.65 246.965 129.65C247.719 129.65 248.33 129.849 248.798 130.248C249.266 130.646 249.5 131.119 249.5 131.665H248.525C248.525 131.361 248.382 131.101 248.096 130.885C247.819 130.668 247.442 130.56 246.965 130.56C246.497 130.56 246.142 130.655 245.899 130.846C245.657 131.028 245.535 131.257 245.535 131.535C245.535 132.011 245.882 132.315 246.575 132.445L247.68 132.64C248.33 132.761 248.807 132.978 249.11 133.29C249.414 133.593 249.565 134.005 249.565 134.525C249.565 135.071 249.344 135.521 248.902 135.877C248.469 136.232 247.845 136.41 247.03 136.41C246.25 136.41 245.622 136.21 245.145 135.812C244.669 135.413 244.43 134.941 244.43 134.395Z" fill="white"/>
<path d="M296.56 133.21V131.88H299.71C300.475 131.88 300.965 131.506 301.18 130.76H296.56V129.43H301.18C300.965 128.683 300.475 128.31 299.71 128.31H296.56V126.98H303.56V128.31H302.23C302.286 128.384 302.337 128.473 302.384 128.576C302.459 128.716 302.552 129 302.664 129.43H303.56V130.76H302.664C302.515 131.534 302.193 132.136 301.698 132.566C301.203 132.995 300.587 133.21 299.85 133.21H299.43L302.93 136.78H301.04L297.54 133.21H296.56ZM306.364 131.74V131.67C306.122 131.539 305.912 131.38 305.734 131.194C305.314 130.755 305.104 130.214 305.104 129.57C305.104 128.804 305.389 128.16 305.958 127.638C306.537 127.106 307.302 126.84 308.254 126.84C309.206 126.84 309.967 127.106 310.536 127.638C311.115 128.16 311.404 128.804 311.404 129.57C311.404 130.214 311.194 130.755 310.774 131.194C310.597 131.38 310.387 131.539 310.144 131.67V131.74C310.424 131.889 310.667 132.066 310.872 132.272C311.367 132.766 311.614 133.359 311.614 134.05C311.614 134.852 311.306 135.534 310.69 136.094C310.074 136.644 309.262 136.92 308.254 136.92C307.246 136.92 306.434 136.644 305.818 136.094C305.202 135.534 304.894 134.852 304.894 134.05C304.894 133.35 305.137 132.757 305.622 132.272C305.837 132.057 306.084 131.88 306.364 131.74ZM307.022 128.59C306.724 128.86 306.574 129.21 306.574 129.64C306.574 130.069 306.724 130.424 307.022 130.704C307.321 130.974 307.732 131.11 308.254 131.11C308.777 131.11 309.188 130.974 309.486 130.704C309.785 130.424 309.934 130.069 309.934 129.64C309.934 129.21 309.785 128.86 309.486 128.59C309.188 128.31 308.777 128.17 308.254 128.17C307.732 128.17 307.321 128.31 307.022 128.59ZM306.896 132.832C306.542 133.14 306.364 133.522 306.364 133.98C306.364 134.437 306.542 134.82 306.896 135.128C307.251 135.436 307.704 135.59 308.254 135.59C308.805 135.59 309.258 135.436 309.612 135.128C309.967 134.82 310.144 134.437 310.144 133.98C310.144 133.522 309.967 133.14 309.612 132.832C309.258 132.524 308.805 132.37 308.254 132.37C307.704 132.37 307.251 132.524 306.896 132.832ZM318.885 134.582C319.361 133.947 319.599 133.046 319.599 131.88C319.599 130.713 319.361 129.817 318.885 129.192C318.409 128.557 317.83 128.24 317.149 128.24C316.467 128.24 315.889 128.557 315.413 129.192C314.937 129.817 314.699 130.713 314.699 131.88C314.699 133.046 314.937 133.947 315.413 134.582C315.889 135.207 316.467 135.52 317.149 135.52C317.83 135.52 318.409 135.207 318.885 134.582ZM314.363 128.198C315.119 127.292 316.047 126.84 317.149 126.84C318.25 126.84 319.179 127.292 319.935 128.198C320.691 129.103 321.069 130.33 321.069 131.88C321.069 133.429 320.691 134.656 319.935 135.562C319.179 136.467 318.25 136.92 317.149 136.92C316.047 136.92 315.119 136.467 314.363 135.562C313.607 134.656 313.229 133.429 313.229 131.88C313.229 130.33 313.607 129.103 314.363 128.198ZM328.407 134.582C328.883 133.947 329.121 133.046 329.121 131.88C329.121 130.713 328.883 129.817 328.407 129.192C327.931 128.557 327.352 128.24 326.671 128.24C325.99 128.24 325.411 128.557 324.935 129.192C324.459 129.817 324.221 130.713 324.221 131.88C324.221 133.046 324.459 133.947 324.935 134.582C325.411 135.207 325.99 135.52 326.671 135.52C327.352 135.52 327.931 135.207 328.407 134.582ZM323.885 128.198C324.641 127.292 325.57 126.84 326.671 126.84C327.772 126.84 328.701 127.292 329.457 128.198C330.213 129.103 330.591 130.33 330.591 131.88C330.591 133.429 330.213 134.656 329.457 135.562C328.701 136.467 327.772 136.92 326.671 136.92C325.57 136.92 324.641 136.467 323.885 135.562C323.129 134.656 322.751 133.429 322.751 131.88C322.751 130.33 323.129 129.103 323.885 128.198Z" fill="white"/>
<path d="M336 139.58L339.85 126.56H340.9L337.05 139.58H336Z" fill="white"/>
<path d="M345.66 135.78V135L349.08 131.34C349.336 131.06 349.52 130.812 349.632 130.596C349.744 130.372 349.8 130.1 349.8 129.78C349.8 129.3 349.648 128.912 349.344 128.616C349.048 128.312 348.66 128.16 348.18 128.16C347.724 128.16 347.34 128.328 347.028 128.664C346.716 129 346.56 129.432 346.56 129.96H345.6C345.6 129.176 345.84 128.532 346.32 128.028C346.808 127.516 347.428 127.26 348.18 127.26C348.932 127.26 349.548 127.496 350.028 127.968C350.516 128.432 350.76 129.036 350.76 129.78C350.76 130.244 350.676 130.64 350.508 130.968C350.34 131.288 350.084 131.632 349.74 132L347.04 134.82V134.88H350.94V135.78H345.66ZM353.258 134.76C352.634 134 352.322 132.94 352.322 131.58C352.322 130.22 352.634 129.16 353.258 128.4C353.882 127.64 354.65 127.26 355.562 127.26C356.474 127.26 357.242 127.64 357.866 128.4C358.49 129.16 358.802 130.22 358.802 131.58C358.802 132.94 358.49 134 357.866 134.76C357.242 135.52 356.474 135.9 355.562 135.9C354.65 135.9 353.882 135.52 353.258 134.76ZM357.182 129.06C356.742 128.46 356.202 128.16 355.562 128.16C354.922 128.16 354.382 128.46 353.942 129.06C353.502 129.66 353.282 130.5 353.282 131.58C353.282 132.66 353.502 133.5 353.942 134.1C354.382 134.7 354.922 135 355.562 135C356.202 135 356.742 134.7 357.182 134.1C357.622 133.5 357.842 132.66 357.842 131.58C357.842 130.5 357.622 129.66 357.182 129.06ZM361.303 134.76C360.679 134 360.367 132.94 360.367 131.58C360.367 130.22 360.679 129.16 361.303 128.4C361.927 127.64 362.695 127.26 363.607 127.26C364.519 127.26 365.287 127.64 365.911 128.4C366.535 129.16 366.847 130.22 366.847 131.58C366.847 132.94 366.535 134 365.911 134.76C365.287 135.52 364.519 135.9 363.607 135.9C362.695 135.9 361.927 135.52 361.303 134.76ZM365.227 129.06C364.787 128.46 364.247 128.16 363.607 128.16C362.967 128.16 362.427 128.46 361.987 129.06C361.547 129.66 361.327 130.5 361.327 131.58C361.327 132.66 361.547 133.5 361.987 134.1C362.427 134.7 362.967 135 363.607 135C364.247 135 364.787 134.7 365.227 134.1C365.667 133.5 365.887 132.66 365.887 131.58C365.887 130.5 365.667 129.66 365.227 129.06ZM378.197 135.9L377.537 135.24C377.361 135.368 377.165 135.48 376.949 135.576C376.501 135.792 375.977 135.9 375.377 135.9C374.249 135.9 373.297 135.496 372.521 134.688C371.745 133.88 371.357 132.844 371.357 131.58C371.357 130.316 371.745 129.28 372.521 128.472C373.297 127.664 374.249 127.26 375.377 127.26C376.505 127.26 377.457 127.664 378.233 128.472C379.009 129.28 379.397 130.316 379.397 131.58C379.397 132.9 378.997 133.96 378.197 134.76L379.397 135.9H378.197ZM374.837 132.66H376.037L377.537 134.1C378.137 133.444 378.437 132.604 378.437 131.58C378.437 130.572 378.141 129.752 377.549 129.12C376.957 128.48 376.233 128.16 375.377 128.16C374.521 128.16 373.797 128.48 373.205 129.12C372.613 129.752 372.317 130.572 372.317 131.58C372.317 132.588 372.613 133.412 373.205 134.052C373.797 134.684 374.521 135 375.377 135C375.801 135 376.169 134.94 376.481 134.82C376.625 134.772 376.757 134.712 376.877 134.64L374.837 132.66ZM381.491 134.76V130.62H380.531V129.78H381.491V128.1H382.391V129.78H383.771V130.62H382.391V134.58C382.391 134.82 382.511 134.94 382.751 134.94H383.771V135.78H382.571C382.235 135.78 381.971 135.688 381.779 135.504C381.587 135.32 381.491 135.072 381.491 134.76ZM385.329 138.18V137.34H386.469C386.669 137.34 386.809 137.22 386.889 136.98L387.129 136.26L384.669 129.78H385.629L387.489 134.76H387.729L389.409 129.78H390.369L387.669 137.34C387.565 137.636 387.429 137.848 387.261 137.976C387.093 138.112 386.849 138.18 386.529 138.18H385.329Z" fill="#E4E4E7"/>
<path d="M174.04 160.28V151.18H175.795L179.89 159.045H180.15V151.18H181.19V160.28H179.435L175.34 152.415H175.08V160.28H174.04ZM187.884 158.46H188.924C188.699 159.084 188.344 159.565 187.858 159.903C187.382 160.241 186.805 160.41 186.129 160.41C185.237 160.41 184.491 160.098 183.893 159.474C183.304 158.841 183.009 158.026 183.009 157.03C183.009 156.033 183.304 155.223 183.893 154.599C184.491 153.966 185.237 153.65 186.129 153.65C186.987 153.65 187.698 153.944 188.261 154.534C188.833 155.123 189.119 155.868 189.119 156.77C189.119 156.908 189.106 157.095 189.08 157.329L189.054 157.485H183.984C184.054 158.091 184.288 158.581 184.686 158.954C185.094 159.318 185.575 159.5 186.129 159.5C186.519 159.5 186.866 159.409 187.169 159.227C187.481 159.045 187.72 158.789 187.884 158.46ZM183.984 156.575H188.144C188.11 155.985 187.902 155.504 187.52 155.132C187.148 154.75 186.684 154.56 186.129 154.56C185.549 154.56 185.063 154.746 184.673 155.119C184.283 155.491 184.054 155.977 183.984 156.575ZM191.008 159.175V154.69H189.968V153.78H191.008V151.96H191.983V153.78H193.478V154.69H191.983V158.98C191.983 159.24 192.113 159.37 192.373 159.37H193.478V160.28H192.178C191.814 160.28 191.528 160.18 191.32 159.981C191.112 159.781 191.008 159.513 191.008 159.175ZM198.162 157.615H199.202C199.202 158.126 199.414 158.559 199.839 158.915C200.272 159.261 200.862 159.435 201.607 159.435C202.37 159.435 202.937 159.287 203.31 158.993C203.691 158.689 203.882 158.295 203.882 157.81C203.882 157.012 203.362 156.514 202.322 156.315L200.567 155.99C199.094 155.712 198.357 154.932 198.357 153.65C198.357 152.887 198.639 152.263 199.202 151.778C199.765 151.292 200.524 151.05 201.477 151.05C202.491 151.05 203.306 151.318 203.921 151.856C204.545 152.384 204.857 153.047 204.857 153.845H203.817C203.817 153.333 203.605 152.904 203.18 152.558C202.764 152.202 202.196 152.025 201.477 152.025C200.818 152.025 200.307 152.176 199.943 152.48C199.579 152.783 199.397 153.173 199.397 153.65C199.397 154.412 199.895 154.889 200.892 155.08L202.322 155.34C203.223 155.504 203.882 155.786 204.298 156.185C204.714 156.583 204.922 157.125 204.922 157.81C204.922 158.581 204.632 159.209 204.051 159.695C203.47 160.171 202.656 160.41 201.607 160.41C200.567 160.41 199.731 160.141 199.098 159.604C198.474 159.058 198.162 158.395 198.162 157.615ZM206.946 159.175V154.69H205.906V153.78H206.946V151.96H207.921V153.78H209.416V154.69H207.921V158.98C207.921 159.24 208.051 159.37 208.311 159.37H209.416V160.28H208.116C207.752 160.28 207.466 160.18 207.258 159.981C207.05 159.781 206.946 159.513 206.946 159.175ZM215.868 159.474C215.279 160.098 214.538 160.41 213.645 160.41C212.753 160.41 212.007 160.098 211.409 159.474C210.82 158.841 210.525 158.026 210.525 157.03C210.525 156.033 210.82 155.223 211.409 154.599C212.007 153.966 212.753 153.65 213.645 153.65C214.538 153.65 215.279 153.966 215.868 154.599C216.466 155.223 216.765 156.033 216.765 157.03C216.765 158.026 216.466 158.841 215.868 159.474ZM212.111 158.811C212.527 159.27 213.039 159.5 213.645 159.5C214.252 159.5 214.759 159.27 215.166 158.811C215.582 158.351 215.79 157.758 215.79 157.03C215.79 156.302 215.582 155.708 215.166 155.249C214.759 154.789 214.252 154.56 213.645 154.56C213.039 154.56 212.527 154.789 212.111 155.249C211.704 155.708 211.5 156.302 211.5 157.03C211.5 157.758 211.704 158.351 212.111 158.811ZM223.065 158.135H224.04C223.875 158.854 223.537 159.413 223.026 159.812C222.523 160.21 221.908 160.41 221.18 160.41C220.287 160.41 219.542 160.098 218.944 159.474C218.354 158.841 218.06 158.026 218.06 157.03C218.06 156.033 218.354 155.223 218.944 154.599C219.542 153.966 220.287 153.65 221.18 153.65C221.899 153.65 222.514 153.849 223.026 154.248C223.537 154.638 223.875 155.175 224.04 155.86H223.065C222.935 155.444 222.705 155.123 222.376 154.898C222.046 154.672 221.648 154.56 221.18 154.56C220.573 154.56 220.062 154.789 219.646 155.249C219.238 155.708 219.035 156.302 219.035 157.03C219.035 157.758 219.238 158.351 219.646 158.811C220.062 159.27 220.573 159.5 221.18 159.5C222.176 159.5 222.805 159.045 223.065 158.135ZM225.668 160.28V151.18H226.643V156.77L229.568 153.78H230.803L227.683 156.965L230.933 160.28H229.698L226.643 157.16V160.28H225.668Z" fill="white"/>
<path d="M302.56 157.21V155.88H305.71C306.475 155.88 306.965 155.506 307.18 154.76H302.56V153.43H307.18C306.965 152.683 306.475 152.31 305.71 152.31H302.56V150.98H309.56V152.31H308.23C308.286 152.384 308.337 152.473 308.384 152.576C308.459 152.716 308.552 153 308.664 153.43H309.56V154.76H308.664C308.515 155.534 308.193 156.136 307.698 156.566C307.203 156.995 306.587 157.21 305.85 157.21H305.43L308.93 160.78H307.04L303.54 157.21H302.56ZM312.854 158.96C313.228 159.333 313.694 159.52 314.254 159.52C314.814 159.52 315.281 159.333 315.654 158.96C316.028 158.586 316.214 158.12 316.214 157.56C316.214 157 316.028 156.533 315.654 156.16C315.281 155.786 314.814 155.6 314.254 155.6C313.694 155.6 313.228 155.786 312.854 156.16C312.481 156.533 312.294 157 312.294 157.56C312.294 158.12 312.481 158.586 312.854 158.96ZM311.384 155.6L314.324 150.98H316.004L313.834 154.34H313.904L314.086 154.312C314.31 154.284 314.46 154.27 314.534 154.27C315.412 154.27 316.154 154.592 316.76 155.236C317.376 155.87 317.684 156.645 317.684 157.56C317.684 158.512 317.358 159.31 316.704 159.954C316.051 160.598 315.234 160.92 314.254 160.92C313.274 160.92 312.458 160.598 311.804 159.954C311.151 159.31 310.824 158.512 310.824 157.56C310.824 156.85 311.011 156.197 311.384 155.6ZM319.159 158.12H320.629C320.713 158.512 320.913 158.843 321.231 159.114C321.557 159.384 321.987 159.52 322.519 159.52C323.116 159.52 323.592 159.342 323.947 158.988C324.301 158.633 324.479 158.157 324.479 157.56C324.479 157 324.297 156.547 323.933 156.202C323.578 155.847 323.107 155.67 322.519 155.67C321.819 155.67 321.282 155.903 320.909 156.37H319.369L319.929 150.98H325.389V152.38H321.189L320.909 154.76H320.979C321.483 154.433 322.066 154.27 322.729 154.27C323.653 154.27 324.418 154.582 325.025 155.208C325.641 155.824 325.949 156.608 325.949 157.56C325.949 158.54 325.627 159.347 324.983 159.982C324.348 160.607 323.527 160.92 322.519 160.92C321.968 160.92 321.473 160.831 321.035 160.654C320.605 160.476 320.265 160.243 320.013 159.954C319.761 159.664 319.565 159.366 319.425 159.058C319.294 158.75 319.205 158.437 319.159 158.12ZM333.217 158.582C333.693 157.947 333.931 157.046 333.931 155.88C333.931 154.713 333.693 153.817 333.217 153.192C332.741 152.557 332.163 152.24 331.481 152.24C330.8 152.24 330.221 152.557 329.745 153.192C329.269 153.817 329.031 154.713 329.031 155.88C329.031 157.046 329.269 157.947 329.745 158.582C330.221 159.207 330.8 159.52 331.481 159.52C332.163 159.52 332.741 159.207 333.217 158.582ZM328.695 152.198C329.451 151.292 330.38 150.84 331.481 150.84C332.583 150.84 333.511 151.292 334.267 152.198C335.023 153.103 335.401 154.33 335.401 155.88C335.401 157.429 335.023 158.656 334.267 159.562C333.511 160.467 332.583 160.92 331.481 160.92C330.38 160.92 329.451 160.467 328.695 159.562C327.939 158.656 327.561 157.429 327.561 155.88C327.561 154.33 327.939 153.103 328.695 152.198Z" fill="white"/>
<path d="M341 163.58L344.85 150.56H345.9L342.05 163.58H341Z" fill="white"/>
<path d="M352.1 159.78V153.18H350.3V152.34H351.74C351.98 152.34 352.1 152.22 352.1 151.98V151.38H353.06V159.78H352.1ZM354.5 157.86V157.14L357.8 151.38H359.36V157.02H360.44V157.86H359.36V159.78H358.4V157.86H354.5ZM355.7 157.02H358.4V152.64H358.16L355.7 156.96V157.02ZM361.94 155.46L364.58 151.38H365.66L363.68 154.5H363.74L363.968 154.44C364.128 154.4 364.312 154.38 364.52 154.38C365.28 154.38 365.92 154.636 366.44 155.148C366.96 155.66 367.22 156.304 367.22 157.08C367.22 157.864 366.94 158.532 366.38 159.084C365.828 159.628 365.148 159.9 364.34 159.9C363.532 159.9 362.848 159.628 362.288 159.084C361.736 158.532 361.46 157.864 361.46 157.08C361.46 156.496 361.62 155.956 361.94 155.46ZM362.972 158.448C363.34 158.816 363.796 159 364.34 159C364.884 159 365.34 158.816 365.708 158.448C366.076 158.072 366.26 157.616 366.26 157.08C366.26 156.544 366.076 156.092 365.708 155.724C365.34 155.348 364.884 155.16 364.34 155.16C363.796 155.16 363.34 155.348 362.972 155.724C362.604 156.092 362.42 156.544 362.42 157.08C362.42 157.616 362.604 158.072 362.972 158.448ZM378.38 159.9L377.72 159.24C377.544 159.368 377.348 159.48 377.132 159.576C376.684 159.792 376.16 159.9 375.56 159.9C374.432 159.9 373.48 159.496 372.704 158.688C371.928 157.88 371.54 156.844 371.54 155.58C371.54 154.316 371.928 153.28 372.704 152.472C373.48 151.664 374.432 151.26 375.56 151.26C376.688 151.26 377.64 151.664 378.416 152.472C379.192 153.28 379.58 154.316 379.58 155.58C379.58 156.9 379.18 157.96 378.38 158.76L379.58 159.9H378.38ZM375.02 156.66H376.22L377.72 158.1C378.32 157.444 378.62 156.604 378.62 155.58C378.62 154.572 378.324 153.752 377.732 153.12C377.14 152.48 376.416 152.16 375.56 152.16C374.704 152.16 373.98 152.48 373.388 153.12C372.796 153.752 372.5 154.572 372.5 155.58C372.5 156.588 372.796 157.412 373.388 158.052C373.98 158.684 374.704 159 375.56 159C375.984 159 376.352 158.94 376.664 158.82C376.808 158.772 376.94 158.712 377.06 158.64L375.02 156.66ZM381.675 158.76V154.62H380.715V153.78H381.675V152.1H382.575V153.78H383.955V154.62H382.575V158.58C382.575 158.82 382.695 158.94 382.935 158.94H383.955V159.78H382.755C382.419 159.78 382.155 159.688 381.963 159.504C381.771 159.32 381.675 159.072 381.675 158.76ZM385.513 162.18V161.34H386.653C386.853 161.34 386.993 161.22 387.073 160.98L387.313 160.26L384.853 153.78H385.813L387.673 158.76H387.913L389.593 153.78H390.553L387.853 161.34C387.749 161.636 387.613 161.848 387.445 161.976C387.277 162.112 387.033 162.18 386.713 162.18H385.513Z" fill="#E4E4E7"/>
</g>
<g filter="url(#filter2_ddd_3550_99402)">
<path d="M7 206.182C7 201.763 10.5817 198.182 15 198.182H249C253.418 198.182 257 201.763 257 206.182V300C257 304.418 253.418 308 249 308H15C10.5817 308 7 304.418 7 300V206.182Z" fill="url(#paint4_linear_3550_99402)" fill-opacity="0.1" shape-rendering="crispEdges"/>
<path d="M15 198.682H249C253.142 198.682 256.5 202.04 256.5 206.182V300C256.5 304.142 253.142 307.5 249 307.5H15C10.8579 307.5 7.5 304.142 7.5 300V206.182C7.5 202.04 10.8579 198.682 15 198.682Z" stroke="url(#paint5_linear_3550_99402)" stroke-opacity="0.1" shape-rendering="crispEdges"/>
<g clip-path="url(#clip2_3550_99402)">
<path d="M37 227.959C36.0178 227.959 35.2222 227.163 35.2222 226.181V221.959C35.2222 219.627 33.3316 217.736 31 217.736C28.6684 217.736 26.7778 219.627 26.7778 221.959V226.181C26.7778 227.163 25.9822 227.959 25 227.959H37Z" fill="#93C5FD"/>
<path d="M24.6934 220.626C24.9671 219.331 25.6302 218.178 26.5547 217.297" stroke="#2563EB" stroke-linecap="round" stroke-linejoin="round"/>
<path d="M37.3047 220.626C37.0309 219.331 36.3678 218.178 35.4434 217.297" stroke="#2563EB" stroke-linecap="round" stroke-linejoin="round"/>
<path d="M37 227.959C36.0178 227.959 35.2222 227.163 35.2222 226.181V221.959C35.2222 219.627 33.3316 217.736 31 217.736C28.6684 217.736 26.7778 219.627 26.7778 221.959V226.181C26.7778 227.163 25.9822 227.959 25 227.959H37Z" stroke="#2563EB" stroke-linecap="round" stroke-linejoin="round"/>
<path d="M32.4098 229.678C32.3254 229.574 32.1991 229.514 32.0649 229.514H29.9325C29.7983 229.514 29.672 229.574 29.5876 229.678C29.5031 229.782 29.4703 229.919 29.4978 230.05C29.6516 230.78 30.2694 231.291 30.9991 231.291C31.7289 231.291 32.3467 230.78 32.5005 230.05C32.528 229.919 32.4942 229.782 32.4098 229.678Z" fill="#2563EB"/>
</g>
<path d="M47 229.182L50.5 219.382H53.16L56.66 229.182H54.63L53.888 227.082H49.772L49.03 229.182H47ZM50.36 225.402H53.3L51.97 221.482H51.69L50.36 225.402ZM57.926 229.182V219.382H59.676V229.182H57.926ZM63.2411 224.982H66.8811C66.7971 224.506 66.6011 224.118 66.2931 223.82C65.9944 223.521 65.6071 223.372 65.1311 223.372C64.6271 223.372 64.2118 223.521 63.8851 223.82C63.5678 224.109 63.3531 224.496 63.2411 224.982ZM66.6011 227.082H68.4211C68.3744 227.259 68.2811 227.46 68.1411 227.684C68.0104 227.898 67.8191 228.141 67.5671 228.412C67.3244 228.673 66.9884 228.892 66.5591 229.07C66.1298 229.238 65.6538 229.322 65.1311 229.322C64.0764 229.322 63.2038 228.976 62.5131 228.286C61.8318 227.586 61.4911 226.694 61.4911 225.612C61.4911 224.529 61.8318 223.642 62.5131 222.952C63.2038 222.252 64.0764 221.902 65.1311 221.902C66.1111 221.902 66.9371 222.247 67.6091 222.938C68.2904 223.619 68.6311 224.464 68.6311 225.472C68.6311 225.556 68.6171 225.724 68.5891 225.976L68.5611 226.172H63.2411C63.3158 226.676 63.5258 227.082 63.8711 227.39C64.2164 227.698 64.6364 227.852 65.1311 227.852C65.5044 227.852 65.8218 227.772 66.0831 227.614C66.3444 227.446 66.5171 227.268 66.6011 227.082ZM70.3789 229.182V222.042H71.8489L71.9889 222.672H72.0589C72.1429 222.56 72.2456 222.457 72.3669 222.364C72.6562 222.149 72.9736 222.042 73.3189 222.042H74.7189V223.722H73.4589C72.5722 223.722 72.1289 224.165 72.1289 225.052V229.182H70.3789ZM76.6056 227.502V223.722H75.4856V222.042H76.6056V220.012H78.3556V222.042H79.9656V223.722H78.3556V227.152C78.3556 227.478 78.519 227.642 78.8456 227.642H79.9656V229.182H78.4256C77.8376 229.182 77.385 229.037 77.0676 228.748C76.7596 228.449 76.6056 228.034 76.6056 227.502ZM81.2907 227.012H82.9707C82.9707 227.226 83.092 227.432 83.3347 227.628C83.5867 227.824 83.932 227.922 84.3707 227.922C85.2574 227.922 85.7007 227.665 85.7007 227.152C85.7007 226.928 85.6307 226.755 85.4907 226.634C85.3507 226.503 85.094 226.41 84.7207 226.354L83.6007 226.172C82.0607 225.92 81.2907 225.243 81.2907 224.142C81.2907 223.516 81.5567 222.989 82.0887 222.56C82.6207 222.121 83.358 221.902 84.3007 221.902C85.2434 221.902 85.9807 222.158 86.5127 222.672C87.0447 223.185 87.3107 223.698 87.3107 224.212H85.6307C85.6307 223.978 85.5094 223.768 85.2667 223.582C85.024 223.395 84.702 223.302 84.3007 223.302C83.8994 223.302 83.5867 223.386 83.3627 223.554C83.148 223.712 83.0407 223.908 83.0407 224.142C83.0407 224.487 83.3674 224.706 84.0207 224.8L85.2107 224.982C86.704 225.206 87.4507 225.929 87.4507 227.152C87.4507 227.777 87.1847 228.295 86.6527 228.706C86.13 229.116 85.3694 229.322 84.3707 229.322C83.8667 229.322 83.4187 229.256 83.0267 229.126C82.644 228.995 82.3454 228.841 82.1307 228.664C81.9254 228.477 81.7527 228.267 81.6127 228.034C81.482 227.8 81.3934 227.604 81.3467 227.446C81.3094 227.278 81.2907 227.133 81.2907 227.012Z" fill="white"/>
<path d="M24.04 260.682V251.582H25.08V259.707H29.63V260.682H24.04ZM35.7626 259.876C35.1733 260.5 34.4323 260.812 33.5396 260.812C32.647 260.812 31.9016 260.5 31.3036 259.876C30.7143 259.243 30.4196 258.428 30.4196 257.432C30.4196 256.435 30.7143 255.625 31.3036 255.001C31.9016 254.368 32.647 254.052 33.5396 254.052C34.4323 254.052 35.1733 254.368 35.7626 255.001C36.3606 255.625 36.6596 256.435 36.6596 257.432C36.6596 258.428 36.3606 259.243 35.7626 259.876ZM32.0056 259.213C32.4216 259.672 32.933 259.902 33.5396 259.902C34.1463 259.902 34.6533 259.672 35.0606 259.213C35.4766 258.753 35.6846 258.16 35.6846 257.432C35.6846 256.704 35.4766 256.11 35.0606 255.651C34.6533 255.191 34.1463 254.962 33.5396 254.962C32.933 254.962 32.4216 255.191 32.0056 255.651C31.5983 256.11 31.3946 256.704 31.3946 257.432C31.3946 258.16 31.5983 258.753 32.0056 259.213ZM39.2571 260.682L37.5021 254.182H38.5421L39.9721 259.642H40.2321L41.6621 254.182H43.2221L44.6521 259.642H44.9121L46.3421 254.182H47.3821L45.6271 260.682H43.9371L42.5721 255.417H42.3121L40.9471 260.682H39.2571ZM51.2852 258.017H52.3252C52.3252 258.528 52.5375 258.961 52.9622 259.317C53.3955 259.663 53.9848 259.837 54.7302 259.837C55.4928 259.837 56.0605 259.689 56.4332 259.395C56.8145 259.091 57.0052 258.697 57.0052 258.212C57.0052 257.414 56.4852 256.916 55.4452 256.717L53.6902 256.392C52.2168 256.114 51.4802 255.334 51.4802 254.052C51.4802 253.289 51.7618 252.665 52.3252 252.18C52.8885 251.694 53.6468 251.452 54.6002 251.452C55.6142 251.452 56.4288 251.72 57.0442 252.258C57.6682 252.786 57.9802 253.449 57.9802 254.247H56.9402C56.9402 253.735 56.7278 253.306 56.3032 252.96C55.8872 252.604 55.3195 252.427 54.6002 252.427C53.9415 252.427 53.4302 252.578 53.0662 252.882C52.7022 253.185 52.5202 253.575 52.5202 254.052C52.5202 254.814 53.0185 255.291 54.0152 255.482L55.4452 255.742C56.3465 255.906 57.0052 256.188 57.4212 256.587C57.8372 256.985 58.0452 257.527 58.0452 258.212C58.0452 258.983 57.7548 259.611 57.1742 260.097C56.5935 260.573 55.7788 260.812 54.7302 260.812C53.6902 260.812 52.8538 260.543 52.2212 260.006C51.5972 259.46 51.2852 258.797 51.2852 258.017ZM60.0693 259.577V255.092H59.0293V254.182H60.0693V252.362H61.0443V254.182H62.5393V255.092H61.0443V259.382C61.0443 259.642 61.1743 259.772 61.4343 259.772H62.5393V260.682H61.2393C60.8753 260.682 60.5893 260.582 60.3813 260.383C60.1733 260.183 60.0693 259.915 60.0693 259.577ZM68.9914 259.876C68.402 260.5 67.661 260.812 66.7684 260.812C65.8757 260.812 65.1304 260.5 64.5324 259.876C63.943 259.243 63.6484 258.428 63.6484 257.432C63.6484 256.435 63.943 255.625 64.5324 255.001C65.1304 254.368 65.8757 254.052 66.7684 254.052C67.661 254.052 68.402 254.368 68.9914 255.001C69.5894 255.625 69.8884 256.435 69.8884 257.432C69.8884 258.428 69.5894 259.243 68.9914 259.876ZM65.2344 259.213C65.6504 259.672 66.1617 259.902 66.7684 259.902C67.375 259.902 67.882 259.672 68.2894 259.213C68.7054 258.753 68.9134 258.16 68.9134 257.432C68.9134 256.704 68.7054 256.11 68.2894 255.651C67.882 255.191 67.375 254.962 66.7684 254.962C66.1617 254.962 65.6504 255.191 65.2344 255.651C64.827 256.11 64.6234 256.704 64.6234 257.432C64.6234 258.16 64.827 258.753 65.2344 259.213ZM76.1878 258.537H77.1628C76.9981 259.256 76.6601 259.815 76.1488 260.214C75.6461 260.612 75.0308 260.812 74.3028 260.812C73.4101 260.812 72.6648 260.5 72.0668 259.876C71.4774 259.243 71.1828 258.428 71.1828 257.432C71.1828 256.435 71.4774 255.625 72.0668 255.001C72.6648 254.368 73.4101 254.052 74.3028 254.052C75.0221 254.052 75.6374 254.251 76.1488 254.65C76.6601 255.04 76.9981 255.577 77.1628 256.262H76.1878C76.0578 255.846 75.8281 255.525 75.4988 255.3C75.1694 255.074 74.7708 254.962 74.3028 254.962C73.6961 254.962 73.1848 255.191 72.7688 255.651C72.3614 256.11 72.1578 256.704 72.1578 257.432C72.1578 258.16 72.3614 258.753 72.7688 259.213C73.1848 259.672 73.6961 259.902 74.3028 259.902C75.2994 259.902 75.9278 259.447 76.1878 258.537ZM78.7913 260.682V251.582H79.7663V257.172L82.6913 254.182H83.9263L80.8063 257.367L84.0563 260.682H82.8213L79.7663 257.562V260.682H78.7913Z" fill="white"/>
<path d="M224.7 261.182V259.922L228.732 255.862C229.003 255.591 229.189 255.353 229.292 255.148C229.404 254.933 229.46 254.658 229.46 254.322C229.46 253.79 229.315 253.379 229.026 253.09C228.746 252.791 228.354 252.642 227.85 252.642C227.355 252.642 226.94 252.819 226.604 253.174C226.268 253.528 226.1 253.981 226.1 254.532H224.63C224.63 253.552 224.929 252.758 225.526 252.152C226.123 251.545 226.898 251.242 227.85 251.242C228.802 251.242 229.563 251.526 230.132 252.096C230.711 252.656 231 253.398 231 254.322C231 254.854 230.879 255.316 230.636 255.708C230.403 256.1 230.057 256.524 229.6 256.982L226.87 259.712V259.782H231.14V261.182H224.7ZM238.053 258.984C238.529 258.349 238.767 257.448 238.767 256.282C238.767 255.115 238.529 254.219 238.053 253.594C237.577 252.959 236.999 252.642 236.317 252.642C235.636 252.642 235.057 252.959 234.581 253.594C234.105 254.219 233.867 255.115 233.867 256.282C233.867 257.448 234.105 258.349 234.581 258.984C235.057 259.609 235.636 259.922 236.317 259.922C236.999 259.922 237.577 259.609 238.053 258.984ZM233.531 252.6C234.287 251.694 235.216 251.242 236.317 251.242C237.419 251.242 238.347 251.694 239.103 252.6C239.859 253.505 240.237 254.732 240.237 256.282C240.237 257.831 239.859 259.058 239.103 259.964C238.347 260.869 237.419 261.322 236.317 261.322C235.216 261.322 234.287 260.869 233.531 259.964C232.775 259.058 232.397 257.831 232.397 256.282C232.397 254.732 232.775 253.505 233.531 252.6Z" fill="white"/>
<path d="M224 263.982H231.7V264.682H224V263.982ZM231.697 263.982H240.937V264.682H231.697V263.982Z" fill="white"/>
<path d="M24.04 290.682V281.582H25.795L29.89 289.447H30.15V281.582H31.19V290.682H29.435L25.34 282.817H25.08V290.682H24.04ZM37.8845 288.862H38.9245C38.6992 289.486 38.3438 289.967 37.8585 290.305C37.3818 290.643 36.8055 290.812 36.1295 290.812C35.2368 290.812 34.4915 290.5 33.8935 289.876C33.3042 289.243 33.0095 288.428 33.0095 287.432C33.0095 286.435 33.3042 285.625 33.8935 285.001C34.4915 284.368 35.2368 284.052 36.1295 284.052C36.9875 284.052 37.6982 284.346 38.2615 284.936C38.8335 285.525 39.1195 286.27 39.1195 287.172C39.1195 287.31 39.1065 287.497 39.0805 287.731L39.0545 287.887H33.9845C34.0538 288.493 34.2878 288.983 34.6865 289.356C35.0938 289.72 35.5748 289.902 36.1295 289.902C36.5195 289.902 36.8662 289.811 37.1695 289.629C37.4815 289.447 37.7198 289.191 37.8845 288.862ZM33.9845 286.977H38.1445C38.1098 286.387 37.9018 285.906 37.5205 285.534C37.1478 285.152 36.6842 284.962 36.1295 284.962C35.5488 284.962 35.0635 285.148 34.6735 285.521C34.2835 285.893 34.0538 286.379 33.9845 286.977ZM40.677 291.202H41.652C41.6866 291.566 41.873 291.873 42.211 292.125C42.549 292.376 43.0126 292.502 43.602 292.502C44.1913 292.502 44.6636 292.337 45.019 292.008C45.3743 291.678 45.552 291.236 45.552 290.682V289.512H45.487C44.9496 290.118 44.2563 290.422 43.407 290.422C42.549 290.422 41.834 290.127 41.262 289.538C40.6986 288.94 40.417 288.173 40.417 287.237C40.417 286.301 40.6986 285.538 41.262 284.949C41.834 284.351 42.549 284.052 43.407 284.052C43.823 284.052 44.213 284.143 44.577 284.325C44.9496 284.498 45.253 284.732 45.487 285.027H45.552L45.682 284.182H46.527V290.682C46.527 291.505 46.2626 292.164 45.734 292.658C45.214 293.16 44.5033 293.412 43.602 293.412C42.7353 293.412 42.0376 293.191 41.509 292.749C40.989 292.315 40.7116 291.8 40.677 291.202ZM41.977 288.888C42.3756 289.304 42.874 289.512 43.472 289.512C44.07 289.512 44.564 289.304 44.954 288.888C45.3526 288.463 45.552 287.913 45.552 287.237C45.552 286.561 45.3526 286.015 44.954 285.599C44.564 285.174 44.07 284.962 43.472 284.962C42.874 284.962 42.3756 285.174 41.977 285.599C41.587 286.015 41.392 286.561 41.392 287.237C41.392 287.913 41.587 288.463 41.977 288.888ZM52.833 290.682L52.703 289.902H52.638C52.5166 290.075 52.3606 290.227 52.17 290.357C51.7713 290.66 51.2556 290.812 50.623 290.812C49.947 290.812 49.3966 290.625 48.972 290.253C48.556 289.88 48.348 289.395 48.348 288.797C48.348 288.147 48.5603 287.64 48.985 287.276C49.4183 286.903 50.0726 286.717 50.948 286.717H52.703V286.522C52.703 286.028 52.5643 285.646 52.287 285.378C52.0183 285.1 51.637 284.962 51.143 284.962C50.675 284.962 50.2936 285.07 49.999 285.287C49.713 285.495 49.5526 285.755 49.518 286.067H48.543C48.5776 285.512 48.8246 285.04 49.284 284.65C49.752 284.251 50.3716 284.052 51.143 284.052C51.9316 284.052 52.5513 284.268 53.002 284.702C53.4526 285.135 53.678 285.742 53.678 286.522V290.682H52.833ZM52.703 287.887V287.627H50.948C50.3933 287.627 49.9816 287.735 49.713 287.952C49.453 288.168 49.323 288.45 49.323 288.797C49.323 289.135 49.4356 289.403 49.661 289.603C49.8863 289.802 50.207 289.902 50.623 289.902C51.273 289.902 51.78 289.724 52.144 289.369C52.5166 289.005 52.703 288.511 52.703 287.887ZM55.9626 289.577V285.092H54.9226V284.182H55.9626V282.362H56.9376V284.182H58.4326V285.092H56.9376V289.382C56.9376 289.642 57.0676 289.772 57.3276 289.772H58.4326V290.682H57.1326C56.7686 290.682 56.4826 290.582 56.2746 290.383C56.0666 290.183 55.9626 289.915 55.9626 289.577ZM60.2506 290.682V284.182H61.2256V290.682H60.2506ZM60.1856 282.817V281.712H61.2906V282.817H60.1856ZM64.9255 290.682L62.5855 284.182H63.6255L65.5755 289.642H65.8355L67.7855 284.182H68.8255L66.4855 290.682H64.9255ZM74.4836 288.862H75.5236C75.2982 289.486 74.9429 289.967 74.4576 290.305C73.9809 290.643 73.4046 290.812 72.7286 290.812C71.8359 290.812 71.0906 290.5 70.4926 289.876C69.9032 289.243 69.6086 288.428 69.6086 287.432C69.6086 286.435 69.9032 285.625 70.4926 285.001C71.0906 284.368 71.8359 284.052 72.7286 284.052C73.5866 284.052 74.2972 284.346 74.8606 284.936C75.4326 285.525 75.7186 286.27 75.7186 287.172C75.7186 287.31 75.7056 287.497 75.6796 287.731L75.6536 287.887H70.5836C70.6529 288.493 70.8869 288.983 71.2856 289.356C71.6929 289.72 72.1739 289.902 72.7286 289.902C73.1186 289.902 73.4652 289.811 73.7686 289.629C74.0806 289.447 74.3189 289.191 74.4836 288.862ZM70.5836 286.977H74.7436C74.7089 286.387 74.5009 285.906 74.1196 285.534C73.7469 285.152 73.2832 284.962 72.7286 284.962C72.1479 284.962 71.6626 285.148 71.2726 285.521C70.8826 285.893 70.6529 286.379 70.5836 286.977ZM80.3371 288.017H81.3771C81.3771 288.528 81.5894 288.961 82.0141 289.317C82.4474 289.663 83.0368 289.837 83.7821 289.837C84.5448 289.837 85.1124 289.689 85.4851 289.395C85.8664 289.091 86.0571 288.697 86.0571 288.212C86.0571 287.414 85.5371 286.916 84.4971 286.717L82.7421 286.392C81.2688 286.114 80.5321 285.334 80.5321 284.052C80.5321 283.289 80.8138 282.665 81.3771 282.18C81.9404 281.694 82.6988 281.452 83.6521 281.452C84.6661 281.452 85.4808 281.72 86.0961 282.258C86.7201 282.786 87.0321 283.449 87.0321 284.247H85.9921C85.9921 283.735 85.7798 283.306 85.3551 282.96C84.9391 282.604 84.3714 282.427 83.6521 282.427C82.9934 282.427 82.4821 282.578 82.1181 282.882C81.7541 283.185 81.5721 283.575 81.5721 284.052C81.5721 284.814 82.0704 285.291 83.0671 285.482L84.4971 285.742C85.3984 285.906 86.0571 286.188 86.4731 286.587C86.8891 286.985 87.0971 287.527 87.0971 288.212C87.0971 288.983 86.8068 289.611 86.2261 290.097C85.6454 290.573 84.8308 290.812 83.7821 290.812C82.7421 290.812 81.9058 290.543 81.2731 290.006C80.6491 289.46 80.3371 288.797 80.3371 288.017ZM89.1212 289.577V285.092H88.0812V284.182H89.1212V282.362H90.0962V284.182H91.5912V285.092H90.0962V289.382C90.0962 289.642 90.2262 289.772 90.4862 289.772H91.5912V290.682H90.2912C89.9272 290.682 89.6412 290.582 89.4332 290.383C89.2252 290.183 89.1212 289.915 89.1212 289.577ZM98.0433 289.876C97.454 290.5 96.713 290.812 95.8203 290.812C94.9276 290.812 94.1823 290.5 93.5843 289.876C92.995 289.243 92.7003 288.428 92.7003 287.432C92.7003 286.435 92.995 285.625 93.5843 285.001C94.1823 284.368 94.9276 284.052 95.8203 284.052C96.713 284.052 97.454 284.368 98.0433 285.001C98.6413 285.625 98.9403 286.435 98.9403 287.432C98.9403 288.428 98.6413 289.243 98.0433 289.876ZM94.2863 289.213C94.7023 289.672 95.2136 289.902 95.8203 289.902C96.427 289.902 96.934 289.672 97.3413 289.213C97.7573 288.753 97.9653 288.16 97.9653 287.432C97.9653 286.704 97.7573 286.11 97.3413 285.651C96.934 285.191 96.427 284.962 95.8203 284.962C95.2136 284.962 94.7023 285.191 94.2863 285.651C93.879 286.11 93.6753 286.704 93.6753 287.432C93.6753 288.16 93.879 288.753 94.2863 289.213ZM105.24 288.537H106.215C106.05 289.256 105.712 289.815 105.201 290.214C104.698 290.612 104.083 290.812 103.355 290.812C102.462 290.812 101.717 290.5 101.119 289.876C100.529 289.243 100.235 288.428 100.235 287.432C100.235 286.435 100.529 285.625 101.119 285.001C101.717 284.368 102.462 284.052 103.355 284.052C104.074 284.052 104.689 284.251 105.201 284.65C105.712 285.04 106.05 285.577 106.215 286.262H105.24C105.11 285.846 104.88 285.525 104.551 285.3C104.221 285.074 103.823 284.962 103.355 284.962C102.748 284.962 102.237 285.191 101.821 285.651C101.413 286.11 101.21 286.704 101.21 287.432C101.21 288.16 101.413 288.753 101.821 289.213C102.237 289.672 102.748 289.902 103.355 289.902C104.351 289.902 104.98 289.447 105.24 288.537ZM107.843 290.682V281.582H108.818V287.172L111.743 284.182H112.978L109.858 287.367L113.108 290.682H111.873L108.818 287.562V290.682H107.843Z" fill="white"/>
<path d="M228.38 291.182V283.832H226.35V282.432H227.96C228.24 282.432 228.38 282.292 228.38 282.012V281.382H229.85V291.182H228.38ZM237.251 288.984C237.727 288.349 237.965 287.448 237.965 286.282C237.965 285.115 237.727 284.219 237.251 283.594C236.775 282.959 236.196 282.642 235.515 282.642C234.833 282.642 234.255 282.959 233.779 283.594C233.303 284.219 233.065 285.115 233.065 286.282C233.065 287.448 233.303 288.349 233.779 288.984C234.255 289.609 234.833 289.922 235.515 289.922C236.196 289.922 236.775 289.609 237.251 288.984ZM232.729 282.6C233.485 281.694 234.413 281.242 235.515 281.242C236.616 281.242 237.545 281.694 238.301 282.6C239.057 283.505 239.435 284.732 239.435 286.282C239.435 287.831 239.057 289.058 238.301 289.964C237.545 290.869 236.616 291.322 235.515 291.322C234.413 291.322 233.485 290.869 232.729 289.964C231.973 289.058 231.595 287.831 231.595 286.282C231.595 284.732 231.973 283.505 232.729 282.6Z" fill="white"/>
<path d="M226 293.982H240.135V294.682H226V293.982Z" fill="white"/>
</g>
<defs>
<filter id="filter0_ddd_3550_99402" x="0" y="0.688232" width="254" height="46" filterUnits="userSpaceOnUse" color-interpolation-filters="sRGB">
<feFlood flood-opacity="0" result="BackgroundImageFix"/>
<feColorMatrix in="SourceAlpha" type="matrix" values="0 0 0 0 0 0 0 0 0 0 0 0 0 0 0 0 0 0 127 0" result="hardAlpha"/>
<feMorphology radius="1" operator="dilate" in="SourceAlpha" result="effect1_dropShadow_3550_99402"/>
<feOffset/>
<feComposite in2="hardAlpha" operator="out"/>
<feColorMatrix type="matrix" values="0 0 0 0 0.0627451 0 0 0 0 0.0980392 0 0 0 0 0.156863 0 0 0 0.05 0"/>
<feBlend mode="normal" in2="BackgroundImageFix" result="effect1_dropShadow_3550_99402"/>
<feColorMatrix in="SourceAlpha" type="matrix" values="0 0 0 0 0 0 0 0 0 0 0 0 0 0 0 0 0 0 127 0" result="hardAlpha"/>
<feOffset dy="2"/>
<feGaussianBlur stdDeviation="3.5"/>
<feComposite in2="hardAlpha" operator="out"/>
<feColorMatrix type="matrix" values="0 0 0 0 0.0627451 0 0 0 0 0.0980392 0 0 0 0 0.156863 0 0 0 0.05 0"/>
<feBlend mode="normal" in2="effect1_dropShadow_3550_99402" result="effect2_dropShadow_3550_99402"/>
<feColorMatrix in="SourceAlpha" type="matrix" values="0 0 0 0 0 0 0 0 0 0 0 0 0 0 0 0 0 0 127 0" result="hardAlpha"/>
<feMorphology radius="2" operator="erode" in="SourceAlpha" result="effect3_dropShadow_3550_99402"/>
<feOffset dy="2"/>
<feGaussianBlur stdDeviation="2.5"/>
<feComposite in2="hardAlpha" operator="out"/>
<feColorMatrix type="matrix" values="0 0 0 0 0.0627451 0 0 0 0 0.0980392 0 0 0 0 0.156863 0 0 0 0.06 0"/>
<feBlend mode="normal" in2="effect2_dropShadow_3550_99402" result="effect3_dropShadow_3550_99402"/>
<feBlend mode="normal" in="SourceGraphic" in2="effect3_dropShadow_3550_99402" result="shape"/>
</filter>
<filter id="filter1_ddd_3550_99402" x="150" y="51.9873" width="264" height="135.585" filterUnits="userSpaceOnUse" color-interpolation-filters="sRGB">
<feFlood flood-opacity="0" result="BackgroundImageFix"/>
<feColorMatrix in="SourceAlpha" type="matrix" values="0 0 0 0 0 0 0 0 0 0 0 0 0 0 0 0 0 0 127 0" result="hardAlpha"/>
<feMorphology radius="1" operator="dilate" in="SourceAlpha" result="effect1_dropShadow_3550_99402"/>
<feOffset/>
<feComposite in2="hardAlpha" operator="out"/>
<feColorMatrix type="matrix" values="0 0 0 0 0.0627451 0 0 0 0 0.0980392 0 0 0 0 0.156863 0 0 0 0.05 0"/>
<feBlend mode="normal" in2="BackgroundImageFix" result="effect1_dropShadow_3550_99402"/>
<feColorMatrix in="SourceAlpha" type="matrix" values="0 0 0 0 0 0 0 0 0 0 0 0 0 0 0 0 0 0 127 0" result="hardAlpha"/>
<feOffset dy="2"/>
<feGaussianBlur stdDeviation="3.5"/>
<feComposite in2="hardAlpha" operator="out"/>
<feColorMatrix type="matrix" values="0 0 0 0 0.0627451 0 0 0 0 0.0980392 0 0 0 0 0.156863 0 0 0 0.05 0"/>
<feBlend mode="normal" in2="effect1_dropShadow_3550_99402" result="effect2_dropShadow_3550_99402"/>
<feColorMatrix in="SourceAlpha" type="matrix" values="0 0 0 0 0 0 0 0 0 0 0 0 0 0 0 0 0 0 127 0" result="hardAlpha"/>
<feMorphology radius="2" operator="erode" in="SourceAlpha" result="effect3_dropShadow_3550_99402"/>
<feOffset dy="2"/>
<feGaussianBlur stdDeviation="2.5"/>
<feComposite in2="hardAlpha" operator="out"/>
<feColorMatrix type="matrix" values="0 0 0 0 0.0627451 0 0 0 0 0.0980392 0 0 0 0 0.156863 0 0 0 0.06 0"/>
<feBlend mode="normal" in2="effect2_dropShadow_3550_99402" result="effect3_dropShadow_3550_99402"/>
<feBlend mode="normal" in="SourceGraphic" in2="effect3_dropShadow_3550_99402" result="shape"/>
</filter>
<filter id="filter2_ddd_3550_99402" x="0" y="193.182" width="264" height="123.818" filterUnits="userSpaceOnUse" color-interpolation-filters="sRGB">
<feFlood flood-opacity="0" result="BackgroundImageFix"/>
<feColorMatrix in="SourceAlpha" type="matrix" values="0 0 0 0 0 0 0 0 0 0 0 0 0 0 0 0 0 0 127 0" result="hardAlpha"/>
<feMorphology radius="1" operator="dilate" in="SourceAlpha" result="effect1_dropShadow_3550_99402"/>
<feOffset/>
<feComposite in2="hardAlpha" operator="out"/>
<feColorMatrix type="matrix" values="0 0 0 0 0.0627451 0 0 0 0 0.0980392 0 0 0 0 0.156863 0 0 0 0.05 0"/>
<feBlend mode="normal" in2="BackgroundImageFix" result="effect1_dropShadow_3550_99402"/>
<feColorMatrix in="SourceAlpha" type="matrix" values="0 0 0 0 0 0 0 0 0 0 0 0 0 0 0 0 0 0 127 0" result="hardAlpha"/>
<feOffset dy="2"/>
<feGaussianBlur stdDeviation="3.5"/>
<feComposite in2="hardAlpha" operator="out"/>
<feColorMatrix type="matrix" values="0 0 0 0 0.0627451 0 0 0 0 0.0980392 0 0 0 0 0.156863 0 0 0 0.05 0"/>
<feBlend mode="normal" in2="effect1_dropShadow_3550_99402" result="effect2_dropShadow_3550_99402"/>
<feColorMatrix in="SourceAlpha" type="matrix" values="0 0 0 0 0 0 0 0 0 0 0 0 0 0 0 0 0 0 127 0" result="hardAlpha"/>
<feMorphology radius="2" operator="erode" in="SourceAlpha" result="effect3_dropShadow_3550_99402"/>
<feOffset dy="2"/>
<feGaussianBlur stdDeviation="2.5"/>
<feComposite in2="hardAlpha" operator="out"/>
<feColorMatrix type="matrix" values="0 0 0 0 0.0627451 0 0 0 0 0.0980392 0 0 0 0 0.156863 0 0 0 0.06 0"/>
<feBlend mode="normal" in2="effect2_dropShadow_3550_99402" result="effect3_dropShadow_3550_99402"/>
<feBlend mode="normal" in="SourceGraphic" in2="effect3_dropShadow_3550_99402" result="shape"/>
</filter>
<linearGradient id="paint0_linear_3550_99402" x1="-52.1667" y1="-6.19155" x2="-6.8969" y2="127.956" gradientUnits="userSpaceOnUse">
<stop stop-color="white"/>
<stop offset="1" stop-color="white" stop-opacity="0"/>
</linearGradient>
<linearGradient id="paint1_linear_3550_99402" x1="-259.667" y1="-28.779" x2="-166.722" y2="202.394" gradientUnits="userSpaceOnUse">
<stop stop-color="white"/>
<stop offset="1" stop-color="white" stop-opacity="0"/>
</linearGradient>
<linearGradient id="paint2_linear_3550_99402" x1="95.3681" y1="9.74506" x2="377.549" y2="234.525" gradientUnits="userSpaceOnUse">
<stop stop-color="white"/>
<stop offset="1" stop-color="white" stop-opacity="0"/>
</linearGradient>
<linearGradient id="paint3_linear_3550_99402" x1="-120.778" y1="-77.7813" x2="360.034" y2="243.69" gradientUnits="userSpaceOnUse">
<stop stop-color="white"/>
<stop offset="1" stop-color="white" stop-opacity="0"/>
</linearGradient>
<linearGradient id="paint4_linear_3550_99402" x1="-54.6319" y1="155.511" x2="204.81" y2="384.321" gradientUnits="userSpaceOnUse">
<stop stop-color="white"/>
<stop offset="1" stop-color="white" stop-opacity="0"/>
</linearGradient>
<linearGradient id="paint5_linear_3550_99402" x1="-270.778" y1="76.4552" x2="178.686" y2="409.165" gradientUnits="userSpaceOnUse">
<stop stop-color="white"/>
<stop offset="1" stop-color="white" stop-opacity="0"/>
</linearGradient>
<clipPath id="clip0_3550_99402">
<rect width="16" height="16" fill="white" transform="translate(19 13.6882)"/>
</clipPath>
<clipPath id="clip1_3550_99402">
<rect width="16" height="16" fill="white" transform="translate(173 73.7795)"/>
</clipPath>
<clipPath id="clip2_3550_99402">
<rect width="16" height="16" fill="white" transform="translate(23 216.182)"/>
</clipPath>
</defs>
</svg>
