<svg width="400" height="274" viewBox="0 0 400 274" fill="none" xmlns="http://www.w3.org/2000/svg">
<path d="M0 8C0 3.58173 3.58172 0 8 0H392C396.418 0 400 3.58172 400 8V266C400 270.418 396.418 274 392 274H7.99999C3.58171 274 0 270.418 0 266V8Z" fill="url(#paint0_linear_3550_99467)" fill-opacity="0.1"/>
<path d="M8 0.5H392C396.142 0.5 399.5 3.85786 399.5 8V266C399.5 270.142 396.142 273.5 392 273.5H8C3.85787 273.5 0.5 270.142 0.5 266V8C0.500003 3.85787 3.85787 0.5 8 0.5Z" stroke="url(#paint1_linear_3550_99467)" stroke-opacity="0.2"/>
<path d="M17.2 36.437V25.237H21.28C22.8053 25.237 24.0907 25.7757 25.136 26.853C26.192 27.9197 26.72 29.2477 26.72 30.837C26.72 32.4263 26.192 33.7597 25.136 34.837C24.0907 35.9037 22.8053 36.437 21.28 36.437H17.2ZM19.28 34.437H21.28C22.2507 34.437 23.0507 34.1063 23.68 33.445C24.32 32.7837 24.64 31.9143 24.64 30.837C24.64 29.7597 24.32 28.8903 23.68 28.229C23.0507 27.5677 22.2507 27.237 21.28 27.237H19.28V34.437ZM28.7975 36.437V25.237H33.8375C34.8935 25.237 35.7415 25.5783 36.3815 26.261C37.0322 26.9437 37.3575 27.8557 37.3575 28.997C37.3575 30.1383 37.0322 31.0503 36.3815 31.733C35.7415 32.4157 34.8935 32.757 33.8375 32.757H30.8775V36.437H28.7975ZM30.8775 30.757H33.7575C34.2162 30.757 34.5842 30.6023 34.8615 30.293C35.1388 29.9837 35.2775 29.5517 35.2775 28.997C35.2775 28.4423 35.1388 28.0103 34.8615 27.701C34.5842 27.3917 34.2162 27.237 33.7575 27.237H30.8775V30.757ZM41.9077 33.573C42.5371 34.2557 43.3424 34.597 44.3238 34.597C45.3051 34.597 46.1104 34.2557 46.7397 33.573C47.3691 32.8797 47.6838 31.9677 47.6838 30.837C47.6838 29.7063 47.3691 28.7997 46.7397 28.117C46.1104 27.4237 45.3051 27.077 44.3238 27.077C43.3424 27.077 42.5371 27.4237 41.9077 28.117C41.2784 28.7997 40.9637 29.7063 40.9637 30.837C40.9637 31.9677 41.2784 32.8797 41.9077 33.573ZM40.4517 26.709C41.4971 25.621 42.7877 25.077 44.3238 25.077C45.8598 25.077 47.1504 25.621 48.1958 26.709C49.2411 27.797 49.7638 29.173 49.7638 30.837C49.7638 32.501 49.2411 33.877 48.1958 34.965C47.1504 36.053 45.8598 36.597 44.3238 36.597C42.7877 36.597 41.4971 36.053 40.4517 34.965C39.4064 33.877 38.8837 32.501 38.8837 30.837C38.8837 29.173 39.4064 27.797 40.4517 26.709ZM57.9919 36.437V27.237H54.6319V25.237H63.4319V27.237H60.0719V36.437H57.9919ZM63.9962 36.437V28.277H65.6762L65.8362 28.997H65.9162C66.0122 28.869 66.1296 28.7517 66.2682 28.645C66.5989 28.3997 66.9616 28.277 67.3562 28.277H68.9562V30.197H67.5162C66.5029 30.197 65.9962 30.7037 65.9962 31.717V36.437H63.9962ZM71.6 31.637H75.76C75.664 31.093 75.44 30.6503 75.088 30.309C74.7467 29.9677 74.304 29.797 73.76 29.797C73.184 29.797 72.7093 29.9677 72.336 30.309C71.9733 30.6397 71.728 31.0823 71.6 31.637ZM75.44 34.037H77.52C77.4667 34.2397 77.36 34.469 77.2 34.725C77.0507 34.9703 76.832 35.2477 76.544 35.557C76.2667 35.8557 75.8827 36.1063 75.392 36.309C74.9013 36.501 74.3573 36.597 73.76 36.597C72.5547 36.597 71.5573 36.2023 70.768 35.413C69.9893 34.613 69.6 33.5943 69.6 32.357C69.6 31.1197 69.9893 30.1063 70.768 29.317C71.5573 28.517 72.5547 28.117 73.76 28.117C74.88 28.117 75.824 28.5117 76.592 29.301C77.3707 30.0797 77.76 31.045 77.76 32.197C77.76 32.293 77.744 32.485 77.712 32.773L77.68 32.997H71.6C71.6853 33.573 71.9253 34.037 72.32 34.389C72.7147 34.741 73.1947 34.917 73.76 34.917C74.1867 34.917 74.5493 34.8263 74.848 34.645C75.1467 34.453 75.344 34.2503 75.44 34.037ZM79.5975 36.437V28.277H81.4375L81.5975 29.077H81.6775C81.8055 28.917 81.9868 28.757 82.2215 28.597C82.7122 28.277 83.2775 28.117 83.9175 28.117C84.8455 28.117 85.6082 28.437 86.2055 29.077C86.8135 29.7063 87.1175 30.533 87.1175 31.557V36.437H85.1175V31.717C85.1175 31.1943 84.9522 30.773 84.6215 30.453C84.3015 30.1223 83.8802 29.957 83.3575 29.957C82.8348 29.957 82.4082 30.1223 82.0775 30.453C81.7575 30.773 81.5975 31.1943 81.5975 31.717V36.437H79.5975ZM91.4491 34.133C91.8331 34.549 92.3345 34.757 92.9531 34.757C93.5718 34.757 94.0731 34.549 94.4571 34.133C94.8411 33.7063 95.0331 33.1143 95.0331 32.357C95.0331 31.5997 94.8411 31.013 94.4571 30.597C94.0731 30.1703 93.5718 29.957 92.9531 29.957C92.3345 29.957 91.8331 30.1703 91.4491 30.597C91.0651 31.013 90.8731 31.5997 90.8731 32.357C90.8731 33.1143 91.0651 33.7063 91.4491 34.133ZM95.2731 36.437L95.1131 35.557H95.0331C94.8731 35.7597 94.6811 35.9357 94.4571 36.085C93.9451 36.4263 93.3371 36.597 92.6331 36.597C91.5665 36.597 90.6705 36.2077 89.9451 35.429C89.2305 34.6397 88.8731 33.6157 88.8731 32.357C88.8731 31.0983 89.2305 30.0797 89.9451 29.301C90.6705 28.5117 91.5665 28.117 92.6331 28.117C93.2731 28.117 93.8598 28.293 94.3931 28.645C94.6171 28.7943 94.8038 28.965 94.9531 29.157H95.0331V25.237H97.0331V36.437H95.2731Z" fill="white"/>
<path d="M18.72 64.437V56.437H16.4V54.437H18.24C18.56 54.437 18.72 54.277 18.72 53.957V53.237H20.8V64.437H18.72ZM24.4 58.677V58.597C24.1227 58.4583 23.8827 58.2823 23.68 58.069C23.2 57.589 22.96 56.9917 22.96 56.277C22.96 55.381 23.3067 54.6237 24 54.005C24.6933 53.3863 25.6 53.077 26.72 53.077C27.84 53.077 28.7467 53.3863 29.44 54.005C30.1333 54.6237 30.48 55.381 30.48 56.277C30.48 56.9917 30.24 57.589 29.76 58.069C29.5573 58.2823 29.3173 58.4583 29.04 58.597V58.677C29.36 58.8477 29.6373 59.0503 29.872 59.285C30.4373 59.8503 30.72 60.5277 30.72 61.317C30.72 62.2343 30.352 63.013 29.616 63.653C28.8907 64.2823 27.9253 64.597 26.72 64.597C25.5147 64.597 24.544 64.2823 23.808 63.653C23.0827 63.013 22.72 62.2343 22.72 61.317C22.72 60.517 22.9973 59.8397 23.552 59.285C23.7973 59.0397 24.08 58.837 24.4 58.677ZM25.488 55.333C25.1893 55.5997 25.04 55.941 25.04 56.357C25.04 56.773 25.1893 57.1197 25.488 57.397C25.7973 57.6637 26.208 57.797 26.72 57.797C27.232 57.797 27.6373 57.6637 27.936 57.397C28.2453 57.1197 28.4 56.773 28.4 56.357C28.4 55.941 28.2453 55.5997 27.936 55.333C27.6373 55.0557 27.232 54.917 26.72 54.917C26.208 54.917 25.7973 55.0557 25.488 55.333ZM25.312 60.021C24.9707 60.3197 24.8 60.6983 24.8 61.157C24.8 61.6157 24.9707 61.9997 25.312 62.309C25.664 62.6077 26.1333 62.757 26.72 62.757C27.3067 62.757 27.7707 62.6077 28.112 62.309C28.464 61.9997 28.64 61.6157 28.64 61.157C28.64 60.6983 28.464 60.3197 28.112 60.021C27.7707 59.7117 27.3067 59.557 26.72 59.557C26.1333 59.557 25.664 59.7117 25.312 60.021ZM34.9735 61.637C35.4642 62.277 36.0722 62.597 36.7975 62.597C37.5228 62.597 38.1308 62.277 38.6215 61.637C39.1122 60.9863 39.3575 60.053 39.3575 58.837C39.3575 57.621 39.1122 56.693 38.6215 56.053C38.1308 55.4023 37.5228 55.077 36.7975 55.077C36.0722 55.077 35.4642 55.4023 34.9735 56.053C34.4828 56.693 34.2375 57.621 34.2375 58.837C34.2375 60.053 34.4828 60.9863 34.9735 61.637ZM33.4855 54.629C34.3708 53.5943 35.4748 53.077 36.7975 53.077C38.1202 53.077 39.2242 53.5943 40.1095 54.629C40.9948 55.653 41.4375 57.0557 41.4375 58.837C41.4375 60.6183 40.9948 62.0263 40.1095 63.061C39.2242 64.085 38.1202 64.597 36.7975 64.597C35.4748 64.597 34.3708 64.085 33.4855 63.061C32.6002 62.0263 32.1575 60.6183 32.1575 58.837C32.1575 57.0557 32.6002 55.653 33.4855 54.629ZM47.3563 64.437V53.237H51.4363C52.9616 53.237 54.2469 53.7757 55.2923 54.853C56.3483 55.9197 56.8763 57.2477 56.8763 58.837C56.8763 60.4263 56.3483 61.7597 55.2923 62.837C54.2469 63.9037 52.9616 64.437 51.4363 64.437H47.3563ZM49.4363 62.437H51.4363C52.4069 62.437 53.2069 62.1063 53.8363 61.445C54.4763 60.7837 54.7963 59.9143 54.7963 58.837C54.7963 57.7597 54.4763 56.8903 53.8363 56.229C53.2069 55.5677 52.4069 55.237 51.4363 55.237H49.4363V62.437ZM63.7538 64.437L63.5938 63.637H63.5138C63.3751 63.8077 63.1884 63.9677 62.9538 64.117C62.4418 64.437 61.8551 64.597 61.1938 64.597C60.2978 64.597 59.5778 64.357 59.0338 63.877C58.5004 63.397 58.2338 62.8103 58.2338 62.117C58.2338 61.285 58.5218 60.6237 59.0978 60.133C59.6738 59.6423 60.5058 59.397 61.5938 59.397H63.4338V59.237C63.4338 58.7783 63.3004 58.4103 63.0338 58.133C62.7778 57.8557 62.4311 57.717 61.9938 57.717C61.5778 57.717 61.2418 57.8237 60.9858 58.037C60.7404 58.2503 60.5964 58.4903 60.5538 58.757H58.5538C58.6498 58.021 58.9911 57.397 59.5778 56.885C60.1644 56.373 60.9698 56.117 61.9938 56.117C63.0178 56.117 63.8444 56.4157 64.4738 57.013C65.1138 57.6103 65.4338 58.3517 65.4338 59.237V64.437H63.7538ZM63.4338 61.157V60.917H61.7538C60.7404 60.917 60.2338 61.2637 60.2338 61.957C60.2338 62.277 60.3458 62.533 60.5698 62.725C60.7938 62.9063 61.1084 62.997 61.5138 62.997C62.1218 62.997 62.5911 62.837 62.9218 62.517C63.2631 62.1863 63.4338 61.733 63.4338 61.157ZM67.0381 67.637V65.797H68.6381C68.9581 65.797 69.1608 65.6637 69.2461 65.397L69.3901 64.997L66.0781 56.277H68.1581L70.2381 61.797H70.5581L72.4781 56.277H74.5581L71.1181 66.037C70.9155 66.6237 70.6435 67.0343 70.3021 67.269C69.9715 67.5143 69.4435 67.637 68.7181 67.637H67.0381ZM75.0425 61.957H76.9625C76.9625 62.2023 77.1012 62.437 77.3785 62.661C77.6665 62.885 78.0612 62.997 78.5625 62.997C79.5758 62.997 80.0825 62.7037 80.0825 62.117C80.0825 61.861 80.0025 61.6637 79.8425 61.525C79.6825 61.3757 79.3892 61.269 78.9625 61.205L77.6825 60.997C75.9225 60.709 75.0425 59.9357 75.0425 58.677C75.0425 57.9623 75.3465 57.3597 75.9545 56.869C76.5625 56.3677 77.4052 56.117 78.4825 56.117C79.5598 56.117 80.4025 56.4103 81.0105 56.997C81.6185 57.5837 81.9225 58.1703 81.9225 58.757H80.0025C80.0025 58.4903 79.8638 58.2503 79.5865 58.037C79.3092 57.8237 78.9412 57.717 78.4825 57.717C78.0238 57.717 77.6665 57.813 77.4105 58.005C77.1652 58.1863 77.0425 58.4103 77.0425 58.677C77.0425 59.0717 77.4158 59.3223 78.1625 59.429L79.5225 59.637C81.2292 59.893 82.0825 60.7197 82.0825 62.117C82.0825 62.8317 81.7785 63.4237 81.1705 63.893C80.5732 64.3623 79.7038 64.597 78.5625 64.597C77.9865 64.597 77.4745 64.5223 77.0265 64.373C76.5892 64.2237 76.2478 64.0477 76.0025 63.845C75.7678 63.6317 75.5705 63.3917 75.4105 63.125C75.2612 62.8583 75.1598 62.6343 75.1065 62.453C75.0638 62.261 75.0425 62.0957 75.0425 61.957Z" fill="#F08B32"/>
<path d="M59.1732 136.152L16 117.585V215.437H384V82.9605L378.86 81.4551L351.106 112.065L339.799 109.054L304.849 137.657L300.737 140.166L265.274 106.545L254.48 112.065L234.95 81.4551H231.352L208.737 106.545H206.168L190.749 125.614L172.76 148.195L168.134 151.206L157.855 139.664L136.268 80.4515L131.129 76.437L122.905 80.4515L108 113.069L102.346 117.585L91.0391 110.56L80.7598 113.069L59.1732 136.152Z" fill="url(#paint2_linear_3550_99467)"/>
<path d="M16 117.659L55.9709 134.9C58.7787 136.111 62.0558 135.031 63.7571 132.49C69.9689 123.214 85.1527 103.793 97.5484 114.182C113.548 127.591 114.481 72.9407 133.161 76.9343C142.452 78.9205 144.409 104.371 152.774 125.605C158.655 140.532 161.405 148.491 168.404 150.121C170.228 150.546 172.021 149.563 173.156 148.074L204.305 107.201C204.935 106.375 206.092 106.171 206.966 106.732V106.732C207.841 107.293 209.001 107.087 209.629 106.259L226.763 83.679C229.365 80.2493 234.626 80.5956 236.757 84.3369L250.093 107.757C251.669 110.525 255.135 111.579 257.985 110.157L262.873 107.718C265.23 106.542 268.079 107.041 269.896 108.948L296.968 137.367C299.173 139.681 302.805 139.86 305.227 137.775L337.213 110.237C338.99 108.707 341.495 108.352 343.627 109.329L346.695 110.735C349.204 111.884 352.174 111.174 353.892 109.013L374.057 83.6387C376.125 81.0365 379.915 80.6114 382.508 82.6908L384 83.8873" stroke="#F08B32" stroke-width="2"/>
<path d="M16 229H384" stroke="#D4D4D8"/>
<path d="M16.9307 252.063V243.663H18.5507L22.3307 250.923H22.5707V243.663H23.5307V252.063H21.9107L18.1307 244.803H17.8907V252.063H16.9307ZM29.9022 251.319C29.3582 251.895 28.6742 252.183 27.8502 252.183C27.0262 252.183 26.3382 251.895 25.7862 251.319C25.2422 250.735 24.9702 249.983 24.9702 249.063C24.9702 248.143 25.2422 247.395 25.7862 246.819C26.3382 246.235 27.0262 245.943 27.8502 245.943C28.6742 245.943 29.3582 246.235 29.9022 246.819C30.4542 247.395 30.7302 248.143 30.7302 249.063C30.7302 249.983 30.4542 250.735 29.9022 251.319ZM26.4342 250.707C26.8182 251.131 27.2902 251.343 27.8502 251.343C28.4102 251.343 28.8782 251.131 29.2542 250.707C29.6382 250.283 29.8302 249.735 29.8302 249.063C29.8302 248.391 29.6382 247.843 29.2542 247.419C28.8782 246.995 28.4102 246.783 27.8502 246.783C27.2902 246.783 26.8182 246.995 26.4342 247.419C26.0582 247.843 25.8702 248.391 25.8702 249.063C25.8702 249.735 26.0582 250.283 26.4342 250.707ZM33.3679 252.063L31.2079 246.063H32.1679L33.9679 251.103H34.2079L36.0079 246.063H36.9679L34.8079 252.063H33.3679ZM40.1502 252.063V251.283L43.5702 247.623C43.8262 247.343 44.0102 247.095 44.1222 246.879C44.2342 246.655 44.2902 246.383 44.2902 246.063C44.2902 245.583 44.1382 245.195 43.8342 244.899C43.5382 244.595 43.1502 244.443 42.6702 244.443C42.2142 244.443 41.8302 244.611 41.5182 244.947C41.2062 245.283 41.0502 245.715 41.0502 246.243H40.0902C40.0902 245.459 40.3302 244.815 40.8102 244.311C41.2982 243.799 41.9182 243.543 42.6702 243.543C43.4222 243.543 44.0382 243.779 44.5182 244.251C45.0062 244.715 45.2502 245.319 45.2502 246.063C45.2502 246.527 45.1662 246.923 44.9982 247.251C44.8302 247.571 44.5742 247.915 44.2302 248.283L41.5302 251.103V251.163H45.4302V252.063H40.1502ZM45.7888 250.143V249.423L49.0888 243.663H50.6488V249.303H51.7288V250.143H50.6488V252.063H49.6888V250.143H45.7888ZM46.9888 249.303H49.6888V244.923H49.4488L46.9888 249.243V249.303Z" fill="white"/>
<path d="M83.0264 252.063V243.663H85.8464C87.0144 243.663 87.9744 244.059 88.7264 244.851C89.4864 245.635 89.8664 246.639 89.8664 247.863C89.8664 249.087 89.4864 250.095 88.7264 250.887C87.9744 251.671 87.0144 252.063 85.8464 252.063H83.0264ZM83.9864 251.163H85.8464C86.7264 251.163 87.4544 250.859 88.0304 250.251C88.6144 249.635 88.9064 248.839 88.9064 247.863C88.9064 246.887 88.6144 246.095 88.0304 245.487C87.4544 244.871 86.7264 244.563 85.8464 244.563H83.9864V251.163ZM95.4488 250.383H96.4088C96.2008 250.959 95.8728 251.403 95.4248 251.715C94.9848 252.027 94.4528 252.183 93.8288 252.183C93.0048 252.183 92.3168 251.895 91.7648 251.319C91.2208 250.735 90.9488 249.983 90.9488 249.063C90.9488 248.143 91.2208 247.395 91.7648 246.819C92.3168 246.235 93.0048 245.943 93.8288 245.943C94.6208 245.943 95.2768 246.215 95.7968 246.759C96.3248 247.303 96.5888 247.991 96.5888 248.823C96.5888 248.951 96.5768 249.123 96.5528 249.339L96.5287 249.483H91.8488C91.9128 250.043 92.1288 250.495 92.4968 250.839C92.8728 251.175 93.3168 251.343 93.8288 251.343C94.1888 251.343 94.5088 251.259 94.7888 251.091C95.0768 250.923 95.2968 250.687 95.4488 250.383ZM91.8488 248.643H95.6888C95.6568 248.099 95.4648 247.655 95.1128 247.311C94.7688 246.959 94.3408 246.783 93.8288 246.783C93.2928 246.783 92.8448 246.955 92.4848 247.299C92.1248 247.643 91.9128 248.091 91.8488 248.643ZM102.166 250.083H103.066C102.914 250.747 102.602 251.263 102.13 251.631C101.666 251.999 101.098 252.183 100.426 252.183C99.6024 252.183 98.9144 251.895 98.3624 251.319C97.8184 250.735 97.5464 249.983 97.5464 249.063C97.5464 248.143 97.8184 247.395 98.3624 246.819C98.9144 246.235 99.6024 245.943 100.426 245.943C101.09 245.943 101.658 246.127 102.13 246.495C102.602 246.855 102.914 247.351 103.066 247.983H102.166C102.046 247.599 101.834 247.303 101.53 247.095C101.226 246.887 100.858 246.783 100.426 246.783C99.8664 246.783 99.3944 246.995 99.0104 247.419C98.6344 247.843 98.4464 248.391 98.4464 249.063C98.4464 249.735 98.6344 250.283 99.0104 250.707C99.3944 251.131 99.8664 251.343 100.426 251.343C101.346 251.343 101.926 250.923 102.166 250.083ZM106.855 252.063V251.283L110.275 247.623C110.531 247.343 110.715 247.095 110.827 246.879C110.939 246.655 110.995 246.383 110.995 246.063C110.995 245.583 110.843 245.195 110.539 244.899C110.243 244.595 109.855 244.443 109.375 244.443C108.919 244.443 108.535 244.611 108.223 244.947C107.911 245.283 107.755 245.715 107.755 246.243H106.795C106.795 245.459 107.035 244.815 107.515 244.311C108.003 243.799 108.623 243.543 109.375 243.543C110.127 243.543 110.743 243.779 111.223 244.251C111.711 244.715 111.955 245.319 111.955 246.063C111.955 246.527 111.871 246.923 111.703 247.251C111.535 247.571 111.279 247.915 110.935 248.283L108.235 251.103V251.163H112.135V252.063H106.855ZM112.494 250.143V249.423L115.794 243.663H117.354V249.303H118.434V250.143H117.354V252.063H116.394V250.143H112.494ZM113.694 249.303H116.394V244.923H116.154L113.694 249.243V249.303Z" fill="white"/>
<path d="M150.022 252.063V251.163H152.062C152.246 251.163 152.39 251.111 152.494 251.007C152.606 250.895 152.662 250.747 152.662 250.563V243.663H153.622V250.683C153.622 251.115 153.498 251.455 153.25 251.703C153.01 251.943 152.654 252.063 152.182 252.063H150.022ZM159.26 252.063L159.14 251.343H159.08C158.968 251.503 158.824 251.643 158.648 251.763C158.28 252.043 157.804 252.183 157.22 252.183C156.596 252.183 156.088 252.011 155.696 251.667C155.312 251.323 155.12 250.875 155.12 250.323C155.12 249.723 155.316 249.255 155.708 248.919C156.108 248.575 156.712 248.403 157.52 248.403H159.14V248.223C159.14 247.767 159.012 247.415 158.756 247.167C158.508 246.911 158.156 246.783 157.7 246.783C157.268 246.783 156.916 246.883 156.644 247.083C156.38 247.275 156.232 247.515 156.2 247.803H155.3C155.332 247.291 155.56 246.855 155.984 246.495C156.416 246.127 156.988 245.943 157.7 245.943C158.428 245.943 159 246.143 159.416 246.543C159.832 246.943 160.04 247.503 160.04 248.223V252.063H159.26ZM159.14 249.483V249.243H157.52C157.008 249.243 156.628 249.343 156.38 249.543C156.14 249.743 156.02 250.003 156.02 250.323C156.02 250.635 156.124 250.883 156.332 251.067C156.54 251.251 156.836 251.343 157.22 251.343C157.82 251.343 158.288 251.179 158.624 250.851C158.968 250.515 159.14 250.059 159.14 249.483ZM161.723 252.063V246.063H162.503L162.623 246.723H162.683C162.811 246.563 162.959 246.435 163.127 246.339C163.543 246.075 163.995 245.943 164.483 245.943C165.179 245.943 165.751 246.179 166.199 246.651C166.655 247.115 166.883 247.719 166.883 248.463V252.063H165.983V248.463C165.983 247.983 165.827 247.583 165.515 247.263C165.203 246.943 164.819 246.783 164.363 246.783C163.883 246.783 163.471 246.951 163.127 247.287C162.791 247.615 162.623 248.007 162.623 248.463V252.063H161.723ZM171.152 252.063V251.283L174.572 247.623C174.828 247.343 175.012 247.095 175.124 246.879C175.236 246.655 175.292 246.383 175.292 246.063C175.292 245.583 175.14 245.195 174.836 244.899C174.54 244.595 174.152 244.443 173.672 244.443C173.216 244.443 172.832 244.611 172.52 244.947C172.208 245.283 172.052 245.715 172.052 246.243H171.092C171.092 245.459 171.332 244.815 171.812 244.311C172.3 243.799 172.92 243.543 173.672 243.543C174.424 243.543 175.04 243.779 175.52 244.251C176.008 244.715 176.252 245.319 176.252 246.063C176.252 246.527 176.168 246.923 176 247.251C175.832 247.571 175.576 247.915 175.232 248.283L172.532 251.103V251.163H176.432V252.063H171.152ZM177.454 249.843H178.414C178.502 250.291 178.706 250.643 179.026 250.899C179.354 251.155 179.75 251.283 180.214 251.283C180.758 251.283 181.214 251.099 181.582 250.731C181.95 250.355 182.134 249.887 182.134 249.327C182.134 248.751 181.962 248.283 181.618 247.923C181.274 247.563 180.826 247.383 180.274 247.383C179.57 247.383 179.03 247.623 178.654 248.103H177.634L178.114 243.663H182.614V244.563H178.918L178.654 247.023H178.714C179.122 246.663 179.682 246.483 180.394 246.483C181.13 246.483 181.762 246.759 182.29 247.311C182.826 247.855 183.094 248.527 183.094 249.327C183.094 250.159 182.822 250.843 182.278 251.379C181.742 251.915 181.054 252.183 180.214 252.183C179.494 252.183 178.878 251.975 178.366 251.559C177.854 251.143 177.55 250.571 177.454 249.843Z" fill="white"/>
<path d="M216.212 252.063V243.663H221.492V244.563H217.172V247.383H221.252V248.283H217.172V252.063H216.212ZM226.537 250.383H227.497C227.289 250.959 226.961 251.403 226.513 251.715C226.073 252.027 225.541 252.183 224.917 252.183C224.093 252.183 223.405 251.895 222.853 251.319C222.309 250.735 222.037 249.983 222.037 249.063C222.037 248.143 222.309 247.395 222.853 246.819C223.405 246.235 224.093 245.943 224.917 245.943C225.709 245.943 226.365 246.215 226.885 246.759C227.413 247.303 227.677 247.991 227.677 248.823C227.677 248.951 227.665 249.123 227.641 249.339L227.617 249.483H222.937C223.001 250.043 223.217 250.495 223.585 250.839C223.961 251.175 224.405 251.343 224.917 251.343C225.277 251.343 225.597 251.259 225.877 251.091C226.165 250.923 226.385 250.687 226.537 250.383ZM222.937 248.643H226.777C226.745 248.099 226.553 247.655 226.201 247.311C225.857 246.959 225.429 246.783 224.917 246.783C224.381 246.783 223.933 246.955 223.573 247.299C223.213 247.643 223.001 248.091 222.937 248.643ZM229.054 252.063V243.663H229.954V246.903H230.014C230.518 246.263 231.158 245.943 231.934 245.943C232.726 245.943 233.382 246.235 233.902 246.819C234.43 247.395 234.694 248.143 234.694 249.063C234.694 249.983 234.43 250.735 233.902 251.319C233.382 251.895 232.726 252.183 231.934 252.183C231.158 252.183 230.518 251.863 230.014 251.223H229.954L229.834 252.063H229.054ZM230.518 250.707C230.894 251.131 231.346 251.343 231.874 251.343C232.402 251.343 232.854 251.131 233.23 250.707C233.606 250.283 233.794 249.735 233.794 249.063C233.794 248.391 233.606 247.843 233.23 247.419C232.854 246.995 232.402 246.783 231.874 246.783C231.346 246.783 230.894 246.995 230.518 247.419C230.142 247.843 229.954 248.391 229.954 249.063C229.954 249.735 230.142 250.283 230.518 250.707ZM238.599 252.063V251.283L242.019 247.623C242.275 247.343 242.459 247.095 242.571 246.879C242.683 246.655 242.739 246.383 242.739 246.063C242.739 245.583 242.587 245.195 242.283 244.899C241.987 244.595 241.599 244.443 241.119 244.443C240.663 244.443 240.279 244.611 239.967 244.947C239.655 245.283 239.499 245.715 239.499 246.243H238.539C238.539 245.459 238.779 244.815 239.259 244.311C239.747 243.799 240.367 243.543 241.119 243.543C241.871 243.543 242.487 243.779 242.967 244.251C243.455 244.715 243.699 245.319 243.699 246.063C243.699 246.527 243.615 246.923 243.447 247.251C243.279 247.571 243.023 247.915 242.679 248.283L239.979 251.103V251.163H243.879V252.063H238.599ZM244.901 249.843H245.861C245.949 250.291 246.153 250.643 246.473 250.899C246.801 251.155 247.197 251.283 247.661 251.283C248.205 251.283 248.661 251.099 249.029 250.731C249.397 250.355 249.581 249.887 249.581 249.327C249.581 248.751 249.409 248.283 249.065 247.923C248.721 247.563 248.273 247.383 247.721 247.383C247.017 247.383 246.477 247.623 246.101 248.103H245.081L245.561 243.663H250.061V244.563H246.365L246.101 247.023H246.161C246.569 246.663 247.129 246.483 247.841 246.483C248.577 246.483 249.209 246.759 249.737 247.311C250.273 247.855 250.541 248.527 250.541 249.327C250.541 250.159 250.269 250.843 249.725 251.379C249.189 251.915 248.501 252.183 247.661 252.183C246.941 252.183 246.325 251.975 245.813 251.559C245.301 251.143 244.997 250.571 244.901 249.843Z" fill="white"/>
<path d="M282.132 252.063V243.663H283.872L286.452 250.983H286.692L289.272 243.663H291.012V252.063H290.052V244.923H289.812L287.292 252.063H285.852L283.332 244.923H283.092V252.063H282.132ZM296.717 252.063L296.597 251.343H296.537C296.425 251.503 296.281 251.643 296.105 251.763C295.737 252.043 295.261 252.183 294.677 252.183C294.053 252.183 293.545 252.011 293.153 251.667C292.769 251.323 292.577 250.875 292.577 250.323C292.577 249.723 292.773 249.255 293.165 248.919C293.565 248.575 294.169 248.403 294.977 248.403H296.597V248.223C296.597 247.767 296.469 247.415 296.213 247.167C295.965 246.911 295.613 246.783 295.157 246.783C294.725 246.783 294.373 246.883 294.101 247.083C293.837 247.275 293.689 247.515 293.657 247.803H292.757C292.789 247.291 293.017 246.855 293.441 246.495C293.873 246.127 294.445 245.943 295.157 245.943C295.885 245.943 296.457 246.143 296.873 246.543C297.289 246.943 297.497 247.503 297.497 248.223V252.063H296.717ZM296.597 249.483V249.243H294.977C294.465 249.243 294.085 249.343 293.837 249.543C293.597 249.743 293.477 250.003 293.477 250.323C293.477 250.635 293.581 250.883 293.789 251.067C293.997 251.251 294.293 251.343 294.677 251.343C295.277 251.343 295.745 251.179 296.081 250.851C296.425 250.515 296.597 250.059 296.597 249.483ZM299.18 252.063V246.063H299.96L300.08 246.663H300.14C300.284 246.455 300.432 246.303 300.584 246.207C300.744 246.111 300.976 246.063 301.28 246.063H302.3V246.903H301.4C300.976 246.903 300.648 247.019 300.416 247.251C300.192 247.475 300.08 247.799 300.08 248.223V252.063H299.18ZM305.48 252.063V251.283L308.9 247.623C309.156 247.343 309.34 247.095 309.452 246.879C309.564 246.655 309.62 246.383 309.62 246.063C309.62 245.583 309.468 245.195 309.164 244.899C308.868 244.595 308.48 244.443 308 244.443C307.544 244.443 307.16 244.611 306.848 244.947C306.536 245.283 306.38 245.715 306.38 246.243H305.42C305.42 245.459 305.66 244.815 306.14 244.311C306.628 243.799 307.248 243.543 308 243.543C308.752 243.543 309.368 243.779 309.848 244.251C310.336 244.715 310.58 245.319 310.58 246.063C310.58 246.527 310.496 246.923 310.328 247.251C310.16 247.571 309.904 247.915 309.56 248.283L306.86 251.103V251.163H310.76V252.063H305.48ZM311.782 249.843H312.742C312.83 250.291 313.034 250.643 313.354 250.899C313.682 251.155 314.078 251.283 314.542 251.283C315.086 251.283 315.542 251.099 315.91 250.731C316.278 250.355 316.462 249.887 316.462 249.327C316.462 248.751 316.29 248.283 315.946 247.923C315.602 247.563 315.154 247.383 314.602 247.383C313.898 247.383 313.358 247.623 312.982 248.103H311.962L312.442 243.663H316.942V244.563H313.246L312.982 247.023H313.042C313.45 246.663 314.01 246.483 314.722 246.483C315.458 246.483 316.09 246.759 316.618 247.311C317.154 247.855 317.422 248.527 317.422 249.327C317.422 250.159 317.15 250.843 316.606 251.379C316.07 251.915 315.382 252.183 314.542 252.183C313.822 252.183 313.206 251.975 312.694 251.559C312.182 251.143 311.878 250.571 311.782 249.843Z" fill="white"/>
<path d="M348.773 252.063L351.953 243.663H353.393L356.573 252.063H355.553L354.773 249.903H350.573L349.793 252.063H348.773ZM350.933 249.003H354.413L352.793 244.683H352.553L350.933 249.003ZM357.418 254.463V246.063H358.198L358.318 246.903H358.378C358.882 246.263 359.522 245.943 360.298 245.943C361.09 245.943 361.746 246.235 362.266 246.819C362.794 247.395 363.058 248.143 363.058 249.063C363.058 249.983 362.794 250.735 362.266 251.319C361.746 251.895 361.09 252.183 360.298 252.183C359.522 252.183 358.882 251.863 358.378 251.223H358.318V254.463H357.418ZM358.882 250.707C359.258 251.131 359.71 251.343 360.238 251.343C360.766 251.343 361.218 251.131 361.594 250.707C361.97 250.283 362.158 249.735 362.158 249.063C362.158 248.391 361.97 247.843 361.594 247.419C361.218 246.995 360.766 246.783 360.238 246.783C359.71 246.783 359.258 246.995 358.882 247.419C358.506 247.843 358.318 248.391 358.318 249.063C358.318 249.735 358.506 250.283 358.882 250.707ZM364.379 252.063V246.063H365.159L365.279 246.663H365.339C365.483 246.455 365.631 246.303 365.783 246.207C365.943 246.111 366.175 246.063 366.479 246.063H367.499V246.903H366.599C366.175 246.903 365.847 247.019 365.615 247.251C365.391 247.475 365.279 247.799 365.279 248.223V252.063H364.379ZM370.68 252.063V251.283L374.1 247.623C374.356 247.343 374.54 247.095 374.652 246.879C374.764 246.655 374.82 246.383 374.82 246.063C374.82 245.583 374.668 245.195 374.364 244.899C374.068 244.595 373.68 244.443 373.2 244.443C372.744 244.443 372.36 244.611 372.048 244.947C371.736 245.283 371.58 245.715 371.58 246.243H370.62C370.62 245.459 370.86 244.815 371.34 244.311C371.828 243.799 372.448 243.543 373.2 243.543C373.952 243.543 374.568 243.779 375.048 244.251C375.536 244.715 375.78 245.319 375.78 246.063C375.78 246.527 375.696 246.923 375.528 247.251C375.36 247.571 375.104 247.915 374.76 248.283L372.06 251.103V251.163H375.96V252.063H370.68ZM376.981 249.843H377.941C378.029 250.291 378.233 250.643 378.553 250.899C378.881 251.155 379.277 251.283 379.741 251.283C380.285 251.283 380.741 251.099 381.109 250.731C381.477 250.355 381.661 249.887 381.661 249.327C381.661 248.751 381.489 248.283 381.145 247.923C380.801 247.563 380.353 247.383 379.801 247.383C379.097 247.383 378.557 247.623 378.181 248.103H377.161L377.641 243.663H382.141V244.563H378.445L378.181 247.023H378.241C378.649 246.663 379.209 246.483 379.921 246.483C380.657 246.483 381.289 246.759 381.817 247.311C382.353 247.855 382.621 248.527 382.621 249.327C382.621 250.159 382.349 250.843 381.805 251.379C381.269 251.915 380.581 252.183 379.741 252.183C379.021 252.183 378.405 251.975 377.893 251.559C377.381 251.143 377.077 250.571 376.981 249.843Z" fill="white"/>
<defs>
<linearGradient id="paint0_linear_3550_99467" x1="-236.923" y1="-141.952" x2="292.378" y2="405.336" gradientUnits="userSpaceOnUse">
<stop stop-color="white"/>
<stop offset="1" stop-color="white" stop-opacity="0"/>
</linearGradient>
<linearGradient id="paint1_linear_3550_99467" x1="-260.513" y1="-244.289" x2="441.369" y2="575.169" gradientUnits="userSpaceOnUse">
<stop stop-color="white"/>
<stop offset="1" stop-color="white" stop-opacity="0"/>
</linearGradient>
<linearGradient id="paint2_linear_3550_99467" x1="200" y1="76.437" x2="200" y2="215.437" gradientUnits="userSpaceOnUse">
<stop stop-color="#F08B32" stop-opacity="0.12"/>
<stop offset="1" stop-color="#F08B32" stop-opacity="0"/>
</linearGradient>
</defs>
</svg>
