<svg width="48" height="49" viewBox="0 0 48 49" fill="none" xmlns="http://www.w3.org/2000/svg">
<rect y="0.5" width="48" height="48" rx="4" fill="white" fill-opacity="0.1"/>
<path fill-rule="evenodd" clip-rule="evenodd" d="M21.4951 9.83203C20.7879 9.83203 20.1096 10.113 19.6095 10.6131L12.781 17.4415C12.281 17.9416 12 18.6195 12 19.3268V35.1654C12 37.3745 13.7909 39.1654 16 39.1654H24.8835C23.3113 37.6496 22.3333 35.5217 22.3333 33.1654C22.3333 28.563 26.0643 24.832 30.6667 24.832C32.6954 24.832 34.5548 25.557 36 26.762V13.8314C36 11.6221 34.209 9.83203 32 9.83203H21.4951ZM21.3333 19.1654V11.832L14 19.1654H21.3333Z" fill="white"/>
<path fill-rule="evenodd" clip-rule="evenodd" d="M30.6673 39.4987C34.1651 39.4987 37.0007 36.6632 37.0007 33.1654C37.0007 29.6676 34.1651 26.832 30.6673 26.832C27.1695 26.832 24.334 29.6676 24.334 33.1654C24.334 36.6632 27.1695 39.4987 30.6673 39.4987ZM31.6673 29.832H29.6673V33.68L33.2331 36.227L34.3957 34.5996L31.6673 32.6508V29.832Z" fill="white"/>
</svg>
