<svg width="45" height="46" viewBox="0 0 45 46" fill="none" xmlns="http://www.w3.org/2000/svg">
<path d="M0 40.001V45.001C0 45.553 0.448 46.001 1 46.001H24C24.552 46.001 25 45.553 25 45.001V40.834C25 38.073 27.239 36.001 30 36.001H4C1.791 36.001 0 37.792 0 40.001Z" fill="white"/>
<path d="M44 0.000976562H12C11.448 0.000976562 11 0.448977 11 1.00098V34.001H31C33.209 34.001 35 35.792 35 38.001V40.786C35 43.397 36.909 45.729 39.509 45.977C42.491 46.262 45 43.924 45 41.001V1.00098C45 0.448977 44.552 0.000976562 44 0.000976562ZM36 26.001H20C19.447 26.001 19 25.554 19 25.001C19 24.448 19.447 24.001 20 24.001H36C36.553 24.001 37 24.448 37 25.001C37 25.554 36.553 26.001 36 26.001ZM36 18.001H20C19.447 18.001 19 17.554 19 17.001C19 16.448 19.447 16.001 20 16.001H36C36.553 16.001 37 16.448 37 17.001C37 17.554 36.553 18.001 36 18.001ZM36 10.001H20C19.447 10.001 19 9.55398 19 9.00098C19 8.44798 19.447 8.00098 20 8.00098H36C36.553 8.00098 37 8.44798 37 9.00098C37 9.55398 36.553 10.001 36 10.001Z" fill="white"/>
</svg>
