<svg width="610" height="522" viewBox="0 0 610 522" fill="none" xmlns="http://www.w3.org/2000/svg">
<g filter="url(#filter0_ddd_3550_105275)">
<rect x="7" y="5" width="596" height="508" rx="8" fill="url(#paint0_linear_3550_105275)" fill-opacity="0.1" shape-rendering="crispEdges"/>
<rect x="7.5" y="5.5" width="595" height="507" rx="7.5" stroke="url(#paint1_linear_3550_105275)" stroke-opacity="0.1" shape-rendering="crispEdges"/>
<path d="M45.04 54.24H47.68C47.52 54.944 47.248 55.632 46.864 56.304C46.496 56.976 46.008 57.616 45.4 58.224C44.792 58.832 44.032 59.32 43.12 59.688C42.208 60.056 41.208 60.24 40.12 60.24C37.864 60.24 35.96 59.432 34.408 57.816C32.856 56.2 32.08 54.128 32.08 51.6C32.08 49.072 32.856 47 34.408 45.384C35.96 43.768 37.864 42.96 40.12 42.96C42.104 42.96 43.76 43.536 45.088 44.688C46.432 45.824 47.296 47.208 47.68 48.84H45.04C44.624 47.72 43.976 46.864 43.096 46.272C42.216 45.664 41.224 45.36 40.12 45.36C38.52 45.36 37.2 45.928 36.16 47.064C35.12 48.2 34.6 49.712 34.6 51.6C34.6 53.488 35.12 55 36.16 56.136C37.2 57.272 38.52 57.84 40.12 57.84C41.4 57.84 42.456 57.496 43.288 56.808C44.136 56.104 44.72 55.248 45.04 54.24ZM52.8993 56.976C53.5873 57.712 54.4513 58.08 55.4913 58.08C56.5313 58.08 57.3873 57.712 58.0593 56.976C58.7473 56.224 59.0913 55.232 59.0913 54C59.0913 52.768 58.7473 51.784 58.0593 51.048C57.3873 50.296 56.5313 49.92 55.4913 49.92C54.4513 49.92 53.5873 50.296 52.8993 51.048C52.2273 51.784 51.8913 52.768 51.8913 54C51.8913 55.232 52.2273 56.224 52.8993 56.976ZM59.7873 58.512C58.6673 59.664 57.2353 60.24 55.4913 60.24C53.7473 60.24 52.3073 59.664 51.1713 58.512C50.0513 57.36 49.4913 55.856 49.4913 54C49.4913 52.144 50.0513 50.64 51.1713 49.488C52.3073 48.336 53.7473 47.76 55.4913 47.76C57.2353 47.76 58.6673 48.336 59.7873 49.488C60.9233 50.64 61.4913 52.144 61.4913 54C61.4913 55.856 60.9233 57.36 59.7873 58.512ZM64.1331 60V43.2H66.5331V60H64.1331ZM69.8988 60V43.2H72.2988V60H69.8988ZM77.3444 53.04H84.4244C84.2964 52.064 83.9204 51.28 83.2964 50.688C82.6724 50.096 81.8884 49.8 80.9444 49.8C79.9524 49.8 79.1524 50.096 78.5444 50.688C77.9364 51.264 77.5364 52.048 77.3444 53.04ZM83.8244 56.52H86.3444C85.9924 57.48 85.3524 58.344 84.4244 59.112C83.5124 59.864 82.3524 60.24 80.9444 60.24C79.2004 60.24 77.7604 59.664 76.6244 58.512C75.5044 57.36 74.9444 55.856 74.9444 54C74.9444 52.144 75.5044 50.64 76.6244 49.488C77.7604 48.336 79.2004 47.76 80.9444 47.76C82.5764 47.76 83.9444 48.32 85.0484 49.44C86.1524 50.56 86.7044 51.96 86.7044 53.64C86.7044 53.784 86.6804 54.072 86.6324 54.504L86.5844 54.84H77.3444C77.4724 55.864 77.8644 56.68 78.5204 57.288C79.1764 57.896 79.9844 58.2 80.9444 58.2C81.6164 58.2 82.2084 58.04 82.7204 57.72C83.2484 57.384 83.6164 56.984 83.8244 56.52ZM97.7519 55.8H100.152C100.04 56.296 99.8559 56.784 99.5999 57.264C99.3599 57.744 99.0239 58.216 98.5919 58.68C98.1759 59.144 97.6239 59.52 96.9359 59.808C96.2479 60.096 95.4799 60.24 94.6319 60.24C92.8879 60.24 91.4479 59.664 90.3119 58.512C89.1919 57.36 88.6319 55.856 88.6319 54C88.6319 52.144 89.1919 50.64 90.3119 49.488C91.4479 48.336 92.8879 47.76 94.6319 47.76C96.2319 47.76 97.4879 48.216 98.3999 49.128C99.3119 50.024 99.8959 51.008 100.152 52.08H97.7519C97.2399 50.64 96.1999 49.92 94.6319 49.92C93.5919 49.92 92.7279 50.296 92.0399 51.048C91.3679 51.784 91.0319 52.768 91.0319 54C91.0319 55.232 91.3679 56.224 92.0399 56.976C92.7279 57.712 93.5919 58.08 94.6319 58.08C95.4959 58.08 96.1919 57.848 96.7199 57.384C97.2479 56.92 97.5919 56.392 97.7519 55.8ZM103.504 57.48V50.28H101.584V48H103.504V44.64H105.904V48H108.664V50.28H105.904V57.12C105.904 57.6 106.144 57.84 106.624 57.84H108.664V60H106.144C105.296 60 104.64 59.776 104.176 59.328C103.728 58.88 103.504 58.264 103.504 57.48ZM111.31 60V48H113.71V60H111.31ZM111.19 45.72V43.2H113.83V45.72H111.19ZM119.649 56.976C120.337 57.712 121.201 58.08 122.241 58.08C123.281 58.08 124.137 57.712 124.809 56.976C125.497 56.224 125.841 55.232 125.841 54C125.841 52.768 125.497 51.784 124.809 51.048C124.137 50.296 123.281 49.92 122.241 49.92C121.201 49.92 120.337 50.296 119.649 51.048C118.977 51.784 118.641 52.768 118.641 54C118.641 55.232 118.977 56.224 119.649 56.976ZM126.537 58.512C125.417 59.664 123.985 60.24 122.241 60.24C120.497 60.24 119.057 59.664 117.921 58.512C116.801 57.36 116.241 55.856 116.241 54C116.241 52.144 116.801 50.64 117.921 49.488C119.057 48.336 120.497 47.76 122.241 47.76C123.985 47.76 125.417 48.336 126.537 49.488C127.673 50.64 128.241 52.144 128.241 54C128.241 55.856 127.673 57.36 126.537 58.512ZM130.763 60V48H132.923L133.163 49.2H133.283C133.555 48.928 133.851 48.688 134.171 48.48C134.939 48 135.803 47.76 136.763 47.76C138.219 47.76 139.379 48.216 140.243 49.128C141.123 50.024 141.563 51.248 141.563 52.8V60H139.163V52.8C139.163 52.016 138.883 51.344 138.323 50.784C137.779 50.208 137.099 49.92 136.283 49.92C135.403 49.92 134.659 50.208 134.051 50.784C133.459 51.344 133.163 52.016 133.163 52.8V60H130.763ZM143.728 56.4H146.128C146.128 56.832 146.368 57.24 146.848 57.624C147.328 58.008 148.008 58.2 148.888 58.2C149.72 58.2 150.344 58.048 150.76 57.744C151.192 57.424 151.408 57.056 151.408 56.64C151.408 56.208 151.272 55.872 151 55.632C150.728 55.376 150.264 55.192 149.608 55.08L147.448 54.72C145.128 54.336 143.968 53.176 143.968 51.24C143.968 50.232 144.376 49.4 145.192 48.744C146.024 48.088 147.216 47.76 148.768 47.76C149.584 47.76 150.32 47.888 150.976 48.144C151.648 48.4 152.168 48.728 152.536 49.128C152.92 49.528 153.208 49.936 153.4 50.352C153.592 50.752 153.688 51.128 153.688 51.48H151.288C151.288 51.064 151.072 50.68 150.64 50.328C150.208 49.976 149.584 49.8 148.768 49.8C147.968 49.8 147.368 49.944 146.968 50.232C146.568 50.504 146.368 50.84 146.368 51.24C146.368 51.96 146.968 52.44 148.168 52.68L150.328 53.04C152.648 53.424 153.808 54.624 153.808 56.64C153.808 57.664 153.384 58.52 152.536 59.208C151.704 59.896 150.488 60.24 148.888 60.24C147.992 60.24 147.184 60.104 146.464 59.832C145.76 59.56 145.216 59.216 144.832 58.8C144.464 58.384 144.184 57.976 143.992 57.576C143.816 57.16 143.728 56.768 143.728 56.4ZM162.105 60V43.2H173.145V45.6H164.625V50.4H172.665V52.8H164.625V57.6H173.145V60H162.105ZM176.981 60V50.28H175.061V48H176.981V45.84C176.981 45.12 177.221 44.52 177.701 44.04C178.181 43.56 178.781 43.32 179.501 43.32H181.901V45.48H180.101C179.621 45.48 179.381 45.72 179.381 46.2V48H183.341V45.84C183.341 45.12 183.581 44.52 184.061 44.04C184.541 43.56 185.141 43.32 185.861 43.32H188.261V45.48H186.461C185.981 45.48 185.741 45.72 185.741 46.2V48H188.261V50.28H185.741V60H183.341V50.28H179.381V60H176.981ZM191.743 53.04H198.823C198.695 52.064 198.319 51.28 197.695 50.688C197.071 50.096 196.287 49.8 195.343 49.8C194.351 49.8 193.551 50.096 192.943 50.688C192.335 51.264 191.935 52.048 191.743 53.04ZM198.223 56.52H200.743C200.391 57.48 199.751 58.344 198.823 59.112C197.911 59.864 196.751 60.24 195.343 60.24C193.599 60.24 192.159 59.664 191.023 58.512C189.903 57.36 189.343 55.856 189.343 54C189.343 52.144 189.903 50.64 191.023 49.488C192.159 48.336 193.599 47.76 195.343 47.76C196.975 47.76 198.343 48.32 199.447 49.44C200.551 50.56 201.103 51.96 201.103 53.64C201.103 53.784 201.079 54.072 201.031 54.504L200.983 54.84H191.743C191.871 55.864 192.263 56.68 192.919 57.288C193.575 57.896 194.383 58.2 195.343 58.2C196.015 58.2 196.607 58.04 197.119 57.72C197.647 57.384 198.015 56.984 198.223 56.52ZM212.15 55.8H214.55C214.438 56.296 214.254 56.784 213.998 57.264C213.758 57.744 213.422 58.216 212.99 58.68C212.574 59.144 212.022 59.52 211.334 59.808C210.646 60.096 209.878 60.24 209.03 60.24C207.286 60.24 205.846 59.664 204.71 58.512C203.59 57.36 203.03 55.856 203.03 54C203.03 52.144 203.59 50.64 204.71 49.488C205.846 48.336 207.286 47.76 209.03 47.76C210.63 47.76 211.886 48.216 212.798 49.128C213.71 50.024 214.294 51.008 214.55 52.08H212.15C211.638 50.64 210.598 49.92 209.03 49.92C207.99 49.92 207.126 50.296 206.438 51.048C205.766 51.784 205.43 52.768 205.43 54C205.43 55.232 205.766 56.224 206.438 56.976C207.126 57.712 207.99 58.08 209.03 58.08C209.894 58.08 210.59 57.848 211.118 57.384C211.646 56.92 211.99 56.392 212.15 55.8ZM217.903 57.48V50.28H215.983V48H217.903V44.64H220.303V48H223.063V50.28H220.303V57.12C220.303 57.6 220.543 57.84 221.023 57.84H223.063V60H220.543C219.695 60 219.039 59.776 218.575 59.328C218.127 58.88 217.903 58.264 217.903 57.48ZM225.708 60V48H228.108V60H225.708ZM225.588 45.72V43.2H228.228V45.72H225.588ZM234 60L229.8 48H232.32L235.56 57.36H236.04L239.28 48H241.8L237.6 60H234ZM245.04 53.04H252.12C251.992 52.064 251.616 51.28 250.992 50.688C250.368 50.096 249.584 49.8 248.64 49.8C247.648 49.8 246.848 50.096 246.24 50.688C245.632 51.264 245.232 52.048 245.04 53.04ZM251.52 56.52H254.04C253.688 57.48 253.048 58.344 252.12 59.112C251.208 59.864 250.048 60.24 248.64 60.24C246.896 60.24 245.456 59.664 244.32 58.512C243.2 57.36 242.64 55.856 242.64 54C242.64 52.144 243.2 50.64 244.32 49.488C245.456 48.336 246.896 47.76 248.64 47.76C250.272 47.76 251.64 48.32 252.744 49.44C253.848 50.56 254.4 51.96 254.4 53.64C254.4 53.784 254.376 54.072 254.328 54.504L254.28 54.84H245.04C245.168 55.864 245.56 56.68 246.216 57.288C246.872 57.896 247.68 58.2 248.64 58.2C249.312 58.2 249.904 58.04 250.416 57.72C250.944 57.384 251.312 56.984 251.52 56.52ZM256.927 60V48H259.087L259.327 49.2H259.447C259.719 48.928 260.015 48.688 260.335 48.48C261.103 48 261.967 47.76 262.927 47.76C264.383 47.76 265.543 48.216 266.407 49.128C267.287 50.024 267.727 51.248 267.727 52.8V60H265.327V52.8C265.327 52.016 265.047 51.344 264.487 50.784C263.943 50.208 263.263 49.92 262.447 49.92C261.567 49.92 260.823 50.208 260.215 50.784C259.623 51.344 259.327 52.016 259.327 52.8V60H256.927ZM272.532 53.04H279.612C279.484 52.064 279.108 51.28 278.484 50.688C277.86 50.096 277.076 49.8 276.132 49.8C275.14 49.8 274.34 50.096 273.732 50.688C273.124 51.264 272.724 52.048 272.532 53.04ZM279.012 56.52H281.532C281.18 57.48 280.54 58.344 279.612 59.112C278.7 59.864 277.54 60.24 276.132 60.24C274.388 60.24 272.948 59.664 271.812 58.512C270.692 57.36 270.132 55.856 270.132 54C270.132 52.144 270.692 50.64 271.812 49.488C272.948 48.336 274.388 47.76 276.132 47.76C277.764 47.76 279.132 48.32 280.236 49.44C281.34 50.56 281.892 51.96 281.892 53.64C281.892 53.784 281.868 54.072 281.82 54.504L281.772 54.84H272.532C272.66 55.864 273.052 56.68 273.708 57.288C274.364 57.896 275.172 58.2 276.132 58.2C276.804 58.2 277.396 58.04 277.908 57.72C278.436 57.384 278.804 56.984 279.012 56.52ZM283.579 56.4H285.979C285.979 56.832 286.219 57.24 286.699 57.624C287.179 58.008 287.859 58.2 288.739 58.2C289.571 58.2 290.195 58.048 290.611 57.744C291.043 57.424 291.259 57.056 291.259 56.64C291.259 56.208 291.123 55.872 290.851 55.632C290.579 55.376 290.115 55.192 289.459 55.08L287.299 54.72C284.979 54.336 283.819 53.176 283.819 51.24C283.819 50.232 284.227 49.4 285.043 48.744C285.875 48.088 287.067 47.76 288.619 47.76C289.435 47.76 290.171 47.888 290.827 48.144C291.499 48.4 292.019 48.728 292.387 49.128C292.771 49.528 293.059 49.936 293.251 50.352C293.443 50.752 293.539 51.128 293.539 51.48H291.139C291.139 51.064 290.923 50.68 290.491 50.328C290.059 49.976 289.435 49.8 288.619 49.8C287.819 49.8 287.219 49.944 286.819 50.232C286.419 50.504 286.219 50.84 286.219 51.24C286.219 51.96 286.819 52.44 288.019 52.68L290.179 53.04C292.499 53.424 293.659 54.624 293.659 56.64C293.659 57.664 293.235 58.52 292.387 59.208C291.555 59.896 290.339 60.24 288.739 60.24C287.843 60.24 287.035 60.104 286.315 59.832C285.611 59.56 285.067 59.216 284.683 58.8C284.315 58.384 284.035 57.976 283.843 57.576C283.667 57.16 283.579 56.768 283.579 56.4ZM295.228 56.4H297.628C297.628 56.832 297.868 57.24 298.348 57.624C298.828 58.008 299.508 58.2 300.388 58.2C301.22 58.2 301.844 58.048 302.26 57.744C302.692 57.424 302.908 57.056 302.908 56.64C302.908 56.208 302.772 55.872 302.5 55.632C302.228 55.376 301.764 55.192 301.108 55.08L298.948 54.72C296.628 54.336 295.468 53.176 295.468 51.24C295.468 50.232 295.876 49.4 296.692 48.744C297.524 48.088 298.716 47.76 300.268 47.76C301.084 47.76 301.82 47.888 302.476 48.144C303.148 48.4 303.668 48.728 304.036 49.128C304.42 49.528 304.708 49.936 304.9 50.352C305.092 50.752 305.188 51.128 305.188 51.48H302.788C302.788 51.064 302.572 50.68 302.14 50.328C301.708 49.976 301.084 49.8 300.268 49.8C299.468 49.8 298.868 49.944 298.468 50.232C298.068 50.504 297.868 50.84 297.868 51.24C297.868 51.96 298.468 52.44 299.668 52.68L301.828 53.04C304.148 53.424 305.308 54.624 305.308 56.64C305.308 57.664 304.884 58.52 304.036 59.208C303.204 59.896 301.988 60.24 300.388 60.24C299.492 60.24 298.684 60.104 297.964 59.832C297.26 59.56 296.716 59.216 296.332 58.8C295.964 58.384 295.684 57.976 295.492 57.576C295.316 57.16 295.228 56.768 295.228 56.4Z" fill="white"/>
<path d="M259.4 138.84V138.56C258.429 138.037 257.589 137.403 256.88 136.656C255.2 134.901 254.36 132.736 254.36 130.16C254.36 127.099 255.499 124.523 257.776 122.432C260.091 120.304 263.152 119.24 266.96 119.24C270.768 119.24 273.811 120.304 276.088 122.432C278.403 124.523 279.56 127.099 279.56 130.16C279.56 132.736 278.72 134.901 277.04 136.656C276.331 137.403 275.491 138.037 274.52 138.56V138.84C275.64 139.437 276.611 140.147 277.432 140.968C279.411 142.947 280.4 145.317 280.4 148.08C280.4 151.291 279.168 154.016 276.704 156.256C274.24 158.459 270.992 159.56 266.96 159.56C262.928 159.56 259.68 158.459 257.216 156.256C254.752 154.016 253.52 151.291 253.52 148.08C253.52 145.28 254.491 142.909 256.432 140.968C257.291 140.109 258.28 139.4 259.4 138.84ZM262.032 126.24C260.837 127.323 260.24 128.723 260.24 130.44C260.24 132.157 260.837 133.576 262.032 134.696C263.227 135.779 264.869 136.32 266.96 136.32C269.051 136.32 270.693 135.779 271.888 134.696C273.083 133.576 273.68 132.157 273.68 130.44C273.68 128.723 273.083 127.323 271.888 126.24C270.693 125.12 269.051 124.56 266.96 124.56C264.869 124.56 263.227 125.12 262.032 126.24ZM261.528 143.208C260.109 144.44 259.4 145.971 259.4 147.8C259.4 149.629 260.109 151.16 261.528 152.392C262.947 153.624 264.757 154.24 266.96 154.24C269.163 154.24 270.973 153.624 272.392 152.392C273.811 151.16 274.52 149.629 274.52 147.8C274.52 145.971 273.811 144.44 272.392 143.208C270.973 141.976 269.163 141.36 266.96 141.36C264.757 141.36 262.947 141.976 261.528 143.208ZM293.298 151.72C294.791 153.213 296.658 153.96 298.898 153.96C301.138 153.96 303.004 153.213 304.498 151.72C305.991 150.227 306.738 148.36 306.738 146.12C306.738 143.88 305.991 142.013 304.498 140.52C303.004 139.027 301.138 138.28 298.898 138.28C296.658 138.28 294.791 139.027 293.298 140.52C291.804 142.013 291.058 143.88 291.058 146.12C291.058 148.36 291.804 150.227 293.298 151.72ZM287.418 138.28L299.178 119.8H305.898L297.218 133.24H297.498L298.226 133.128C299.122 133.016 299.719 132.96 300.018 132.96C303.527 132.96 306.495 134.248 308.922 136.824C311.386 139.363 312.618 142.461 312.618 146.12C312.618 149.928 311.311 153.12 308.698 155.696C306.084 158.272 302.818 159.56 298.898 159.56C294.978 159.56 291.711 158.272 289.098 155.696C286.484 153.12 285.178 149.928 285.178 146.12C285.178 143.283 285.924 140.669 287.418 138.28ZM321.875 159L346.235 119.8H351.835L327.475 159H321.875ZM328.819 124.896C328.072 124.112 327.064 123.72 325.795 123.72C324.526 123.72 323.499 124.112 322.715 124.896C321.968 125.68 321.595 126.781 321.595 128.2C321.595 129.619 321.968 130.72 322.715 131.504C323.499 132.288 324.526 132.68 325.795 132.68C327.064 132.68 328.072 132.288 328.819 131.504C329.603 130.72 329.995 129.619 329.995 128.2C329.995 126.781 329.603 125.68 328.819 124.896ZM319.411 134.584C317.694 132.867 316.835 130.739 316.835 128.2C316.835 125.661 317.694 123.533 319.411 121.816C321.166 120.099 323.294 119.24 325.795 119.24C328.296 119.24 330.406 120.099 332.123 121.816C333.878 123.533 334.755 125.661 334.755 128.2C334.755 130.739 333.878 132.867 332.123 134.584C330.406 136.301 328.296 137.16 325.795 137.16C323.294 137.16 321.166 136.301 319.411 134.584ZM344.835 153.904C345.619 154.688 346.646 155.08 347.915 155.08C349.184 155.08 350.192 154.688 350.939 153.904C351.723 153.12 352.115 152.019 352.115 150.6C352.115 149.181 351.723 148.08 350.939 147.296C350.192 146.512 349.184 146.12 347.915 146.12C346.646 146.12 345.619 146.512 344.835 147.296C344.088 148.08 343.715 149.181 343.715 150.6C343.715 152.019 344.088 153.12 344.835 153.904ZM341.531 156.984C339.814 155.267 338.955 153.139 338.955 150.6C338.955 148.061 339.814 145.933 341.531 144.216C343.248 142.499 345.376 141.64 347.915 141.64C350.454 141.64 352.582 142.499 354.299 144.216C356.016 145.933 356.875 148.061 356.875 150.6C356.875 153.139 356.016 155.267 354.299 156.984C352.582 158.701 350.454 159.56 347.915 159.56C345.376 159.56 343.248 158.701 341.531 156.984Z" fill="#16BA84"/>
<path d="M32.8 236V219.2H36.52L43.36 232.28H43.84V219.2H46.36V236H42.64L35.8 222.92H35.32V236H32.8ZM52.5243 232.976C53.2123 233.712 54.0763 234.08 55.1163 234.08C56.1563 234.08 57.0123 233.712 57.6843 232.976C58.3723 232.224 58.7163 231.232 58.7163 230C58.7163 228.768 58.3723 227.784 57.6843 227.048C57.0123 226.296 56.1563 225.92 55.1163 225.92C54.0763 225.92 53.2123 226.296 52.5243 227.048C51.8523 227.784 51.5163 228.768 51.5163 230C51.5163 231.232 51.8523 232.224 52.5243 232.976ZM59.4123 234.512C58.2923 235.664 56.8603 236.24 55.1163 236.24C53.3723 236.24 51.9323 235.664 50.7963 234.512C49.6763 233.36 49.1163 231.856 49.1163 230C49.1163 228.144 49.6763 226.64 50.7963 225.488C51.9323 224.336 53.3723 223.76 55.1163 223.76C56.8603 223.76 58.2923 224.336 59.4123 225.488C60.5483 226.64 61.1163 228.144 61.1163 230C61.1163 231.856 60.5483 233.36 59.4123 234.512ZM66.1638 236L61.9638 224H64.4838L67.7238 233.36H68.2038L71.4438 224H73.9637L69.7638 236H66.1638ZM80.2 236V233.84L87.112 226.88C87.576 226.416 87.896 226.008 88.072 225.656C88.264 225.288 88.36 224.816 88.36 224.24C88.36 223.328 88.112 222.624 87.616 222.128C87.136 221.616 86.464 221.36 85.6 221.36C84.752 221.36 84.04 221.664 83.464 222.272C82.888 222.88 82.6 223.656 82.6 224.6H80.08C80.08 222.92 80.592 221.56 81.616 220.52C82.64 219.48 83.968 218.96 85.6 218.96C87.232 218.96 88.536 219.448 89.512 220.424C90.504 221.384 91 222.656 91 224.24C91 225.152 90.792 225.944 90.376 226.616C89.976 227.288 89.384 228.016 88.6 228.8L83.92 233.48V233.6H91.24V236H80.2ZM91.8288 232.4V230.36L98.1888 219.2H102.149V230.12H104.189V232.4H102.149V236H99.6288V232.4H91.8288ZM94.8288 230.12H99.6288V222.32H99.1488L94.8288 230V230.12Z" fill="white"/>
<rect x="115" y="223" width="408" height="8" rx="4" fill="#E4E4E7"/>
<rect x="115" y="223" width="300" height="8" rx="4" fill="#6E51E0"/>
<path d="M533.736 236L539.64 221.6H531.6V219.2H542.52V221.36L536.52 236H533.736ZM544.314 231.44H546.834C546.978 232.112 547.322 232.68 547.866 233.144C548.426 233.608 549.162 233.84 550.074 233.84C551.098 233.84 551.914 233.536 552.522 232.928C553.13 232.32 553.434 231.504 553.434 230.48C553.434 229.52 553.122 228.744 552.498 228.152C551.89 227.544 551.082 227.24 550.074 227.24C548.874 227.24 547.954 227.64 547.314 228.44H544.674L545.634 219.2H554.994V221.6H547.794L547.314 225.68H547.434C548.298 225.12 549.298 224.84 550.434 224.84C552.018 224.84 553.33 225.376 554.37 226.448C555.426 227.504 555.954 228.848 555.954 230.48C555.954 232.16 555.402 233.544 554.298 234.632C553.21 235.704 551.802 236.24 550.074 236.24C549.13 236.24 548.282 236.088 547.53 235.784C546.794 235.48 546.21 235.08 545.778 234.584C545.346 234.088 545.01 233.576 544.77 233.048C544.546 232.52 544.394 231.984 544.314 231.44ZM560.039 236L570.479 219.2H572.879L562.439 236H560.039ZM563.015 221.384C562.695 221.048 562.263 220.88 561.719 220.88C561.175 220.88 560.735 221.048 560.399 221.384C560.079 221.72 559.919 222.192 559.919 222.8C559.919 223.408 560.079 223.88 560.399 224.216C560.735 224.552 561.175 224.72 561.719 224.72C562.263 224.72 562.695 224.552 563.015 224.216C563.351 223.88 563.519 223.408 563.519 222.8C563.519 222.192 563.351 221.72 563.015 221.384ZM558.983 225.536C558.247 224.8 557.879 223.888 557.879 222.8C557.879 221.712 558.247 220.8 558.983 220.064C559.735 219.328 560.647 218.96 561.719 218.96C562.791 218.96 563.695 219.328 564.431 220.064C565.183 220.8 565.559 221.712 565.559 222.8C565.559 223.888 565.183 224.8 564.431 225.536C563.695 226.272 562.791 226.64 561.719 226.64C560.647 226.64 559.735 226.272 558.983 225.536ZM569.879 233.816C570.215 234.152 570.655 234.32 571.199 234.32C571.743 234.32 572.175 234.152 572.495 233.816C572.831 233.48 572.999 233.008 572.999 232.4C572.999 231.792 572.831 231.32 572.495 230.984C572.175 230.648 571.743 230.48 571.199 230.48C570.655 230.48 570.215 230.648 569.879 230.984C569.559 231.32 569.399 231.792 569.399 232.4C569.399 233.008 569.559 233.48 569.879 233.816ZM568.463 235.136C567.727 234.4 567.359 233.488 567.359 232.4C567.359 231.312 567.727 230.4 568.463 229.664C569.199 228.928 570.111 228.56 571.199 228.56C572.287 228.56 573.199 228.928 573.935 229.664C574.671 230.4 575.039 231.312 575.039 232.4C575.039 233.488 574.671 234.4 573.935 235.136C573.199 235.872 572.287 236.24 571.199 236.24C570.111 236.24 569.199 235.872 568.463 235.136Z" fill="white"/>
<path d="M35.32 281.6H38.68C40.264 281.6 41.576 281.048 42.616 279.944C43.672 278.824 44.2 277.376 44.2 275.6C44.2 273.824 43.672 272.384 42.616 271.28C41.576 270.16 40.264 269.6 38.68 269.6H35.32V281.6ZM32.8 284V267.2H38.68C40.968 267.2 42.88 267.992 44.416 269.576C45.952 271.16 46.72 273.168 46.72 275.6C46.72 278.032 45.952 280.04 44.416 281.624C42.88 283.208 40.968 284 38.68 284H32.8ZM51.1647 277.04H58.2447C58.1167 276.064 57.7407 275.28 57.1167 274.688C56.4927 274.096 55.7087 273.8 54.7647 273.8C53.7727 273.8 52.9727 274.096 52.3647 274.688C51.7567 275.264 51.3567 276.048 51.1647 277.04ZM57.6447 280.52H60.1647C59.8127 281.48 59.1727 282.344 58.2447 283.112C57.3327 283.864 56.1727 284.24 54.7647 284.24C53.0207 284.24 51.5807 283.664 50.4447 282.512C49.3247 281.36 48.7647 279.856 48.7647 278C48.7647 276.144 49.3247 274.64 50.4447 273.488C51.5807 272.336 53.0207 271.76 54.7647 271.76C56.3967 271.76 57.7647 272.32 58.8687 273.44C59.9727 274.56 60.5247 275.96 60.5247 277.64C60.5247 277.784 60.5007 278.072 60.4527 278.504L60.4047 278.84H51.1647C51.2927 279.864 51.6847 280.68 52.3407 281.288C52.9967 281.896 53.8047 282.2 54.7647 282.2C55.4367 282.2 56.0287 282.04 56.5407 281.72C57.0687 281.384 57.4367 280.984 57.6447 280.52ZM71.5722 279.8H73.9722C73.8602 280.296 73.6762 280.784 73.4202 281.264C73.1802 281.744 72.8442 282.216 72.4122 282.68C71.9962 283.144 71.4442 283.52 70.7562 283.808C70.0682 284.096 69.3002 284.24 68.4522 284.24C66.7082 284.24 65.2682 283.664 64.1322 282.512C63.0122 281.36 62.4522 279.856 62.4522 278C62.4522 276.144 63.0122 274.64 64.1322 273.488C65.2682 272.336 66.7082 271.76 68.4522 271.76C70.0522 271.76 71.3082 272.216 72.2202 273.128C73.1322 274.024 73.7162 275.008 73.9722 276.08H71.5722C71.0602 274.64 70.0202 273.92 68.4522 273.92C67.4122 273.92 66.5482 274.296 65.8602 275.048C65.1882 275.784 64.8522 276.768 64.8522 278C64.8522 279.232 65.1882 280.224 65.8602 280.976C66.5482 281.712 67.4122 282.08 68.4522 282.08C69.3162 282.08 70.0122 281.848 70.5402 281.384C71.0682 280.92 71.4122 280.392 71.5722 279.8ZM81.6531 284V281.84L88.5651 274.88C89.0291 274.416 89.3491 274.008 89.5251 273.656C89.7171 273.288 89.8131 272.816 89.8131 272.24C89.8131 271.328 89.5651 270.624 89.0691 270.128C88.5891 269.616 87.9171 269.36 87.0531 269.36C86.2051 269.36 85.4931 269.664 84.9171 270.272C84.3411 270.88 84.0531 271.656 84.0531 272.6H81.5331C81.5331 270.92 82.0451 269.56 83.0691 268.52C84.0931 267.48 85.4211 266.96 87.0531 266.96C88.6851 266.96 89.9891 267.448 90.9651 268.424C91.9571 269.384 92.4531 270.656 92.4531 272.24C92.4531 273.152 92.2451 273.944 91.8291 274.616C91.4291 275.288 90.8371 276.016 90.0531 276.8L85.3731 281.48V281.6H92.6931V284H81.6531ZM93.2819 280.4V278.36L99.6419 267.2H103.602V278.12H105.642V280.4H103.602V284H101.082V280.4H93.2819ZM96.2819 278.12H101.082V270.32H100.602L96.2819 278V278.12Z" fill="white"/>
<rect x="115" y="271" width="408" height="8" rx="4" fill="#E4E4E7"/>
<rect x="115" y="271" width="280" height="8" rx="4" fill="#6E51E0"/>
<path d="M535.44 280.88C536.08 281.52 536.88 281.84 537.84 281.84C538.8 281.84 539.6 281.52 540.24 280.88C540.88 280.24 541.2 279.44 541.2 278.48C541.2 277.52 540.88 276.72 540.24 276.08C539.6 275.44 538.8 275.12 537.84 275.12C536.88 275.12 536.08 275.44 535.44 276.08C534.8 276.72 534.48 277.52 534.48 278.48C534.48 279.44 534.8 280.24 535.44 280.88ZM532.92 275.12L537.96 267.2H540.84L537.12 272.96H537.24L537.552 272.912C537.936 272.864 538.192 272.84 538.32 272.84C539.824 272.84 541.096 273.392 542.136 274.496C543.192 275.584 543.72 276.912 543.72 278.48C543.72 280.112 543.16 281.48 542.04 282.584C540.92 283.688 539.52 284.24 537.84 284.24C536.16 284.24 534.76 283.688 533.64 282.584C532.52 281.48 531.96 280.112 531.96 278.48C531.96 277.264 532.28 276.144 532.92 275.12ZM545.048 280.4V278.36L551.408 267.2H555.368V278.12H557.408V280.4H555.368V284H552.848V280.4H545.048ZM548.048 278.12H552.848V270.32H552.368L548.048 278V278.12ZM560.883 284L571.323 267.2H573.723L563.283 284H560.883ZM563.859 269.384C563.539 269.048 563.107 268.88 562.563 268.88C562.019 268.88 561.579 269.048 561.243 269.384C560.923 269.72 560.763 270.192 560.763 270.8C560.763 271.408 560.923 271.88 561.243 272.216C561.579 272.552 562.019 272.72 562.563 272.72C563.107 272.72 563.539 272.552 563.859 272.216C564.195 271.88 564.363 271.408 564.363 270.8C564.363 270.192 564.195 269.72 563.859 269.384ZM559.827 273.536C559.091 272.8 558.723 271.888 558.723 270.8C558.723 269.712 559.091 268.8 559.827 268.064C560.579 267.328 561.491 266.96 562.563 266.96C563.635 266.96 564.539 267.328 565.275 268.064C566.027 268.8 566.403 269.712 566.403 270.8C566.403 271.888 566.027 272.8 565.275 273.536C564.539 274.272 563.635 274.64 562.563 274.64C561.491 274.64 560.579 274.272 559.827 273.536ZM570.723 281.816C571.059 282.152 571.499 282.32 572.043 282.32C572.587 282.32 573.019 282.152 573.339 281.816C573.675 281.48 573.843 281.008 573.843 280.4C573.843 279.792 573.675 279.32 573.339 278.984C573.019 278.648 572.587 278.48 572.043 278.48C571.499 278.48 571.059 278.648 570.723 278.984C570.403 279.32 570.243 279.792 570.243 280.4C570.243 281.008 570.403 281.48 570.723 281.816ZM569.307 283.136C568.571 282.4 568.203 281.488 568.203 280.4C568.203 279.312 568.571 278.4 569.307 277.664C570.043 276.928 570.955 276.56 572.043 276.56C573.131 276.56 574.043 276.928 574.779 277.664C575.515 278.4 575.883 279.312 575.883 280.4C575.883 281.488 575.515 282.4 574.779 283.136C574.043 283.872 573.131 284.24 572.043 284.24C570.955 284.24 570.043 283.872 569.307 283.136Z" fill="white"/>
<path d="M31.24 332V329.6H35.176C35.512 329.6 35.776 329.496 35.968 329.288C36.176 329.064 36.28 328.768 36.28 328.4V315.2H38.8V328.88C38.8 330.96 37.76 332 35.68 332H31.24ZM49.8288 332L49.5888 330.68H49.4688C49.2288 330.984 48.9408 331.248 48.6048 331.472C47.8368 331.984 46.9248 332.24 45.8688 332.24C44.5568 332.24 43.5088 331.896 42.7248 331.208C41.9408 330.52 41.5488 329.624 41.5488 328.52C41.5488 327.288 41.9568 326.32 42.7728 325.616C43.6048 324.912 44.8368 324.56 46.4688 324.56H49.4688V324.32C49.4688 323.536 49.2448 322.92 48.7968 322.472C48.3488 322.024 47.7328 321.8 46.9488 321.8C46.1808 321.8 45.5888 321.976 45.1728 322.328C44.7568 322.664 44.5088 323.048 44.4288 323.48H42.0288C42.0928 322.424 42.5648 321.544 43.4448 320.84C44.3248 320.12 45.4928 319.76 46.9488 319.76C48.5008 319.76 49.7088 320.168 50.5728 320.984C51.4368 321.8 51.8688 322.912 51.8688 324.32V332H49.8288ZM49.4688 326.96V326.48H46.5888C45.7088 326.48 45.0448 326.656 44.5968 327.008C44.1648 327.36 43.9488 327.824 43.9488 328.4C43.9488 328.96 44.1328 329.4 44.5008 329.72C44.8688 330.04 45.4048 330.2 46.1088 330.2C47.1968 330.2 48.0288 329.92 48.6048 329.36C49.1808 328.784 49.4688 327.984 49.4688 326.96ZM54.8725 332V320H57.0325L57.2725 321.2H57.3925C57.6645 320.928 57.9605 320.688 58.2805 320.48C59.0485 320 59.9125 319.76 60.8725 319.76C62.3285 319.76 63.4885 320.216 64.3525 321.128C65.2325 322.024 65.6725 323.248 65.6725 324.8V332H63.2725V324.8C63.2725 324.016 62.9925 323.344 62.4325 322.784C61.8885 322.208 61.2085 321.92 60.3925 321.92C59.5125 321.92 58.7685 322.208 58.1605 322.784C57.5685 323.344 57.2725 324.016 57.2725 324.8V332H54.8725ZM73.9656 332V329.84L80.8776 322.88C81.3416 322.416 81.6616 322.008 81.8376 321.656C82.0296 321.288 82.1256 320.816 82.1256 320.24C82.1256 319.328 81.8776 318.624 81.3816 318.128C80.9016 317.616 80.2296 317.36 79.3656 317.36C78.5176 317.36 77.8056 317.664 77.2296 318.272C76.6536 318.88 76.3656 319.656 76.3656 320.6H73.8456C73.8456 318.92 74.3576 317.56 75.3816 316.52C76.4056 315.48 77.7336 314.96 79.3656 314.96C80.9976 314.96 82.3016 315.448 83.2776 316.424C84.2696 317.384 84.7656 318.656 84.7656 320.24C84.7656 321.152 84.5576 321.944 84.1416 322.616C83.7416 323.288 83.1496 324.016 82.3656 324.8L77.6856 329.48V329.6H85.0056V332H73.9656ZM87.0409 327.44H89.5609C89.7049 328.112 90.0489 328.68 90.5929 329.144C91.1529 329.608 91.8889 329.84 92.8009 329.84C93.8249 329.84 94.6409 329.536 95.2489 328.928C95.8569 328.32 96.1609 327.504 96.1609 326.48C96.1609 325.52 95.8489 324.744 95.2249 324.152C94.6169 323.544 93.8089 323.24 92.8009 323.24C91.6009 323.24 90.6809 323.64 90.0409 324.44H87.4009L88.3609 315.2H97.7209V317.6H90.5209L90.0409 321.68H90.1609C91.0249 321.12 92.0249 320.84 93.1609 320.84C94.7449 320.84 96.0569 321.376 97.0969 322.448C98.1529 323.504 98.6809 324.848 98.6809 326.48C98.6809 328.16 98.1289 329.544 97.0249 330.632C95.9369 331.704 94.5289 332.24 92.8009 332.24C91.8569 332.24 91.0089 332.088 90.2569 331.784C89.5209 331.48 88.9369 331.08 88.5049 330.584C88.0729 330.088 87.7369 329.576 87.4969 329.048C87.2729 328.52 87.1209 327.984 87.0409 327.44Z" fill="white"/>
<rect x="115" y="319" width="408" height="8" rx="4" fill="#E4E4E7"/>
<rect x="115" y="319" width="340" height="8" rx="4" fill="#6E51E0"/>
<path d="M534.6 323.36V323.24C534.184 323.016 533.824 322.744 533.52 322.424C532.8 321.672 532.44 320.744 532.44 319.64C532.44 318.328 532.928 317.224 533.904 316.328C534.896 315.416 536.208 314.96 537.84 314.96C539.472 314.96 540.776 315.416 541.752 316.328C542.744 317.224 543.24 318.328 543.24 319.64C543.24 320.744 542.88 321.672 542.16 322.424C541.856 322.744 541.496 323.016 541.08 323.24V323.36C541.56 323.616 541.976 323.92 542.328 324.272C543.176 325.12 543.6 326.136 543.6 327.32C543.6 328.696 543.072 329.864 542.016 330.824C540.96 331.768 539.568 332.24 537.84 332.24C536.112 332.24 534.72 331.768 533.664 330.824C532.608 329.864 532.08 328.696 532.08 327.32C532.08 326.12 532.496 325.104 533.328 324.272C533.696 323.904 534.12 323.6 534.6 323.36ZM535.728 317.96C535.216 318.424 534.96 319.024 534.96 319.76C534.96 320.496 535.216 321.104 535.728 321.584C536.24 322.048 536.944 322.28 537.84 322.28C538.736 322.28 539.44 322.048 539.952 321.584C540.464 321.104 540.72 320.496 540.72 319.76C540.72 319.024 540.464 318.424 539.952 317.96C539.44 317.48 538.736 317.24 537.84 317.24C536.944 317.24 536.24 317.48 535.728 317.96ZM535.512 325.232C534.904 325.76 534.6 326.416 534.6 327.2C534.6 327.984 534.904 328.64 535.512 329.168C536.12 329.696 536.896 329.96 537.84 329.96C538.784 329.96 539.56 329.696 540.168 329.168C540.776 328.64 541.08 327.984 541.08 327.2C541.08 326.416 540.776 325.76 540.168 325.232C539.56 324.704 538.784 324.44 537.84 324.44C536.896 324.44 536.12 324.704 535.512 325.232ZM548.288 323.36V323.24C547.872 323.016 547.512 322.744 547.208 322.424C546.488 321.672 546.128 320.744 546.128 319.64C546.128 318.328 546.616 317.224 547.592 316.328C548.584 315.416 549.896 314.96 551.528 314.96C553.16 314.96 554.464 315.416 555.44 316.328C556.432 317.224 556.928 318.328 556.928 319.64C556.928 320.744 556.568 321.672 555.848 322.424C555.544 322.744 555.184 323.016 554.768 323.24V323.36C555.248 323.616 555.664 323.92 556.016 324.272C556.864 325.12 557.288 326.136 557.288 327.32C557.288 328.696 556.76 329.864 555.704 330.824C554.648 331.768 553.256 332.24 551.528 332.24C549.8 332.24 548.408 331.768 547.352 330.824C546.296 329.864 545.768 328.696 545.768 327.32C545.768 326.12 546.184 325.104 547.016 324.272C547.384 323.904 547.808 323.6 548.288 323.36ZM549.416 317.96C548.904 318.424 548.648 319.024 548.648 319.76C548.648 320.496 548.904 321.104 549.416 321.584C549.928 322.048 550.632 322.28 551.528 322.28C552.424 322.28 553.128 322.048 553.64 321.584C554.152 321.104 554.408 320.496 554.408 319.76C554.408 319.024 554.152 318.424 553.64 317.96C553.128 317.48 552.424 317.24 551.528 317.24C550.632 317.24 549.928 317.48 549.416 317.96ZM549.2 325.232C548.592 325.76 548.288 326.416 548.288 327.2C548.288 327.984 548.592 328.64 549.2 329.168C549.808 329.696 550.584 329.96 551.528 329.96C552.472 329.96 553.248 329.696 553.856 329.168C554.464 328.64 554.768 327.984 554.768 327.2C554.768 326.416 554.464 325.76 553.856 325.232C553.248 324.704 552.472 324.44 551.528 324.44C550.584 324.44 549.808 324.704 549.2 325.232ZM561.375 332L571.815 315.2H574.215L563.775 332H561.375ZM564.351 317.384C564.031 317.048 563.599 316.88 563.055 316.88C562.511 316.88 562.071 317.048 561.735 317.384C561.415 317.72 561.255 318.192 561.255 318.8C561.255 319.408 561.415 319.88 561.735 320.216C562.071 320.552 562.511 320.72 563.055 320.72C563.599 320.72 564.031 320.552 564.351 320.216C564.687 319.88 564.855 319.408 564.855 318.8C564.855 318.192 564.687 317.72 564.351 317.384ZM560.319 321.536C559.583 320.8 559.215 319.888 559.215 318.8C559.215 317.712 559.583 316.8 560.319 316.064C561.071 315.328 561.983 314.96 563.055 314.96C564.127 314.96 565.031 315.328 565.767 316.064C566.519 316.8 566.895 317.712 566.895 318.8C566.895 319.888 566.519 320.8 565.767 321.536C565.031 322.272 564.127 322.64 563.055 322.64C561.983 322.64 561.071 322.272 560.319 321.536ZM571.215 329.816C571.551 330.152 571.991 330.32 572.535 330.32C573.079 330.32 573.511 330.152 573.831 329.816C574.167 329.48 574.335 329.008 574.335 328.4C574.335 327.792 574.167 327.32 573.831 326.984C573.511 326.648 573.079 326.48 572.535 326.48C571.991 326.48 571.551 326.648 571.215 326.984C570.895 327.32 570.735 327.792 570.735 328.4C570.735 329.008 570.895 329.48 571.215 329.816ZM569.799 331.136C569.063 330.4 568.695 329.488 568.695 328.4C568.695 327.312 569.063 326.4 569.799 325.664C570.535 324.928 571.447 324.56 572.535 324.56C573.623 324.56 574.535 324.928 575.271 325.664C576.007 326.4 576.375 327.312 576.375 328.4C576.375 329.488 576.007 330.4 575.271 331.136C574.535 331.872 573.623 332.24 572.535 332.24C571.447 332.24 570.535 331.872 569.799 331.136Z" fill="white"/>
<path d="M32.8 380V363.2H43.6V365.6H35.32V370.4H43.12V372.8H35.32V380H32.8ZM47.0866 373.04H54.1666C54.0386 372.064 53.6626 371.28 53.0386 370.688C52.4146 370.096 51.6306 369.8 50.6866 369.8C49.6946 369.8 48.8946 370.096 48.2866 370.688C47.6786 371.264 47.2786 372.048 47.0866 373.04ZM53.5666 376.52H56.0866C55.7346 377.48 55.0946 378.344 54.1666 379.112C53.2546 379.864 52.0946 380.24 50.6866 380.24C48.9426 380.24 47.5026 379.664 46.3666 378.512C45.2466 377.36 44.6866 375.856 44.6866 374C44.6866 372.144 45.2466 370.64 46.3666 369.488C47.5026 368.336 48.9426 367.76 50.6866 367.76C52.3186 367.76 53.6866 368.32 54.7906 369.44C55.8946 370.56 56.4466 371.96 56.4466 373.64C56.4466 373.784 56.4226 374.072 56.3746 374.504L56.3266 374.84H47.0866C47.2146 375.864 47.6066 376.68 48.2626 377.288C48.9186 377.896 49.7266 378.2 50.6866 378.2C51.3586 378.2 51.9506 378.04 52.4626 377.72C52.9906 377.384 53.3586 376.984 53.5666 376.52ZM59.0941 380V363.2H61.4941V369.44H61.6141C61.8701 369.152 62.0861 368.928 62.2621 368.768C62.4381 368.592 62.8141 368.384 63.3901 368.144C63.9821 367.888 64.6301 367.76 65.3341 367.76C66.9341 367.76 68.2541 368.328 69.2941 369.464C70.3341 370.6 70.8541 372.112 70.8541 374C70.8541 375.888 70.3341 377.4 69.2941 378.536C68.2541 379.672 66.9341 380.24 65.3341 380.24C63.7021 380.24 62.4621 379.68 61.6141 378.56H61.4941L61.2541 380H59.0941ZM62.4781 376.952C63.1501 377.704 63.9821 378.08 64.9741 378.08C65.9661 378.08 66.7901 377.704 67.4461 376.952C68.1181 376.2 68.4541 375.216 68.4541 374C68.4541 372.784 68.1181 371.8 67.4461 371.048C66.7901 370.296 65.9661 369.92 64.9741 369.92C63.9821 369.92 63.1501 370.296 62.4781 371.048C61.8221 371.8 61.4941 372.784 61.4941 374C61.4941 375.216 61.8221 376.2 62.4781 376.952ZM78.6531 380V377.84L85.5651 370.88C86.0291 370.416 86.3491 370.008 86.5251 369.656C86.7171 369.288 86.8131 368.816 86.8131 368.24C86.8131 367.328 86.5651 366.624 86.0691 366.128C85.5891 365.616 84.9171 365.36 84.0531 365.36C83.2051 365.36 82.4931 365.664 81.9171 366.272C81.3411 366.88 81.0531 367.656 81.0531 368.6H78.5331C78.5331 366.92 79.0451 365.56 80.0691 364.52C81.0931 363.48 82.4211 362.96 84.0531 362.96C85.6851 362.96 86.9891 363.448 87.9651 364.424C88.9571 365.384 89.4531 366.656 89.4531 368.24C89.4531 369.152 89.2451 369.944 88.8291 370.616C88.4291 371.288 87.8371 372.016 87.0531 372.8L82.3731 377.48V377.6H89.6931V380H78.6531ZM91.7284 375.44H94.2484C94.3924 376.112 94.7364 376.68 95.2804 377.144C95.8404 377.608 96.5764 377.84 97.4884 377.84C98.5124 377.84 99.3284 377.536 99.9364 376.928C100.544 376.32 100.848 375.504 100.848 374.48C100.848 373.52 100.536 372.744 99.9124 372.152C99.3044 371.544 98.4964 371.24 97.4884 371.24C96.2884 371.24 95.3684 371.64 94.7284 372.44H92.0884L93.0484 363.2H102.408V365.6H95.2084L94.7284 369.68H94.8484C95.7124 369.12 96.7124 368.84 97.8484 368.84C99.4324 368.84 100.744 369.376 101.784 370.448C102.84 371.504 103.368 372.848 103.368 374.48C103.368 376.16 102.816 377.544 101.712 378.632C100.624 379.704 99.2164 380.24 97.4884 380.24C96.5444 380.24 95.6964 380.088 94.9444 379.784C94.2084 379.48 93.6244 379.08 93.1924 378.584C92.7604 378.088 92.4244 377.576 92.1844 377.048C91.9604 376.52 91.8084 375.984 91.7284 375.44Z" fill="white"/>
<rect x="115" y="367" width="408" height="8" rx="4" fill="#E4E4E7"/>
<rect x="115" y="367" width="288" height="8" rx="4" fill="#6E51E0"/>
<path d="M535.44 376.88C536.08 377.52 536.88 377.84 537.84 377.84C538.8 377.84 539.6 377.52 540.24 376.88C540.88 376.24 541.2 375.44 541.2 374.48C541.2 373.52 540.88 372.72 540.24 372.08C539.6 371.44 538.8 371.12 537.84 371.12C536.88 371.12 536.08 371.44 535.44 372.08C534.8 372.72 534.48 373.52 534.48 374.48C534.48 375.44 534.8 376.24 535.44 376.88ZM532.92 371.12L537.96 363.2H540.84L537.12 368.96H537.24L537.552 368.912C537.936 368.864 538.192 368.84 538.32 368.84C539.824 368.84 541.096 369.392 542.136 370.496C543.192 371.584 543.72 372.912 543.72 374.48C543.72 376.112 543.16 377.48 542.04 378.584C540.92 379.688 539.52 380.24 537.84 380.24C536.16 380.24 534.76 379.688 533.64 378.584C532.52 377.48 531.96 376.112 531.96 374.48C531.96 373.264 532.28 372.144 532.92 371.12ZM548.288 371.36V371.24C547.872 371.016 547.512 370.744 547.208 370.424C546.488 369.672 546.128 368.744 546.128 367.64C546.128 366.328 546.616 365.224 547.592 364.328C548.584 363.416 549.896 362.96 551.528 362.96C553.16 362.96 554.464 363.416 555.44 364.328C556.432 365.224 556.928 366.328 556.928 367.64C556.928 368.744 556.568 369.672 555.848 370.424C555.544 370.744 555.184 371.016 554.768 371.24V371.36C555.248 371.616 555.664 371.92 556.016 372.272C556.864 373.12 557.288 374.136 557.288 375.32C557.288 376.696 556.76 377.864 555.704 378.824C554.648 379.768 553.256 380.24 551.528 380.24C549.8 380.24 548.408 379.768 547.352 378.824C546.296 377.864 545.768 376.696 545.768 375.32C545.768 374.12 546.184 373.104 547.016 372.272C547.384 371.904 547.808 371.6 548.288 371.36ZM549.416 365.96C548.904 366.424 548.648 367.024 548.648 367.76C548.648 368.496 548.904 369.104 549.416 369.584C549.928 370.048 550.632 370.28 551.528 370.28C552.424 370.28 553.128 370.048 553.64 369.584C554.152 369.104 554.408 368.496 554.408 367.76C554.408 367.024 554.152 366.424 553.64 365.96C553.128 365.48 552.424 365.24 551.528 365.24C550.632 365.24 549.928 365.48 549.416 365.96ZM549.2 373.232C548.592 373.76 548.288 374.416 548.288 375.2C548.288 375.984 548.592 376.64 549.2 377.168C549.808 377.696 550.584 377.96 551.528 377.96C552.472 377.96 553.248 377.696 553.856 377.168C554.464 376.64 554.768 375.984 554.768 375.2C554.768 374.416 554.464 373.76 553.856 373.232C553.248 372.704 552.472 372.44 551.528 372.44C550.584 372.44 549.808 372.704 549.2 373.232ZM561.375 380L571.815 363.2H574.215L563.775 380H561.375ZM564.351 365.384C564.031 365.048 563.599 364.88 563.055 364.88C562.511 364.88 562.071 365.048 561.735 365.384C561.415 365.72 561.255 366.192 561.255 366.8C561.255 367.408 561.415 367.88 561.735 368.216C562.071 368.552 562.511 368.72 563.055 368.72C563.599 368.72 564.031 368.552 564.351 368.216C564.687 367.88 564.855 367.408 564.855 366.8C564.855 366.192 564.687 365.72 564.351 365.384ZM560.319 369.536C559.583 368.8 559.215 367.888 559.215 366.8C559.215 365.712 559.583 364.8 560.319 364.064C561.071 363.328 561.983 362.96 563.055 362.96C564.127 362.96 565.031 363.328 565.767 364.064C566.519 364.8 566.895 365.712 566.895 366.8C566.895 367.888 566.519 368.8 565.767 369.536C565.031 370.272 564.127 370.64 563.055 370.64C561.983 370.64 561.071 370.272 560.319 369.536ZM571.215 377.816C571.551 378.152 571.991 378.32 572.535 378.32C573.079 378.32 573.511 378.152 573.831 377.816C574.167 377.48 574.335 377.008 574.335 376.4C574.335 375.792 574.167 375.32 573.831 374.984C573.511 374.648 573.079 374.48 572.535 374.48C571.991 374.48 571.551 374.648 571.215 374.984C570.895 375.32 570.735 375.792 570.735 376.4C570.735 377.008 570.895 377.48 571.215 377.816ZM569.799 379.136C569.063 378.4 568.695 377.488 568.695 376.4C568.695 375.312 569.063 374.4 569.799 373.664C570.535 372.928 571.447 372.56 572.535 372.56C573.623 372.56 574.535 372.928 575.271 373.664C576.007 374.4 576.375 375.312 576.375 376.4C576.375 377.488 576.007 378.4 575.271 379.136C574.535 379.872 573.623 380.24 572.535 380.24C571.447 380.24 570.535 379.872 569.799 379.136Z" fill="white"/>
<path d="M32.8 428V411.2H37.12L41.56 424.4H42.04L46.48 411.2H50.8V428H48.28V415.16H47.8L43.48 428H40.12L35.8 415.16H35.32V428H32.8ZM61.9694 428L61.7294 426.68H61.6094C61.3694 426.984 61.0814 427.248 60.7454 427.472C59.9774 427.984 59.0654 428.24 58.0094 428.24C56.6974 428.24 55.6494 427.896 54.8654 427.208C54.0814 426.52 53.6894 425.624 53.6894 424.52C53.6894 423.288 54.0974 422.32 54.9134 421.616C55.7454 420.912 56.9774 420.56 58.6094 420.56H61.6094V420.32C61.6094 419.536 61.3854 418.92 60.9374 418.472C60.4894 418.024 59.8734 417.8 59.0894 417.8C58.3214 417.8 57.7294 417.976 57.3134 418.328C56.8974 418.664 56.6494 419.048 56.5694 419.48H54.1694C54.2334 418.424 54.7054 417.544 55.5854 416.84C56.4654 416.12 57.6334 415.76 59.0894 415.76C60.6414 415.76 61.8494 416.168 62.7134 416.984C63.5774 417.8 64.0094 418.912 64.0094 420.32V428H61.9694ZM61.6094 422.96V422.48H58.7294C57.8494 422.48 57.1854 422.656 56.7374 423.008C56.3054 423.36 56.0894 423.824 56.0894 424.4C56.0894 424.96 56.2734 425.4 56.6414 425.72C57.0094 426.04 57.5454 426.2 58.2494 426.2C59.3374 426.2 60.1694 425.92 60.7454 425.36C61.3214 424.784 61.6094 423.984 61.6094 422.96ZM67.0131 428V416H69.0531L69.2931 417.08H69.4131C69.4291 417.064 69.4771 417.008 69.5571 416.912C69.6531 416.816 69.7091 416.752 69.7251 416.72C69.7571 416.688 69.8211 416.632 69.9171 416.552C70.0131 416.456 70.0931 416.392 70.1571 416.36C70.2211 416.328 70.3091 416.288 70.4211 416.24C70.5331 416.176 70.6451 416.136 70.7571 416.12C70.8851 416.088 71.0291 416.064 71.1891 416.048C71.3491 416.016 71.5171 416 71.6931 416H73.8531V418.16H71.9331C70.2531 418.16 69.4131 418.992 69.4131 420.656V428H67.0131ZM80.2234 428V425.84L87.1354 418.88C87.5994 418.416 87.9194 418.008 88.0954 417.656C88.2874 417.288 88.3834 416.816 88.3834 416.24C88.3834 415.328 88.1354 414.624 87.6394 414.128C87.1594 413.616 86.4874 413.36 85.6234 413.36C84.7754 413.36 84.0634 413.664 83.4874 414.272C82.9114 414.88 82.6234 415.656 82.6234 416.6H80.1034C80.1034 414.92 80.6154 413.56 81.6394 412.52C82.6634 411.48 83.9914 410.96 85.6234 410.96C87.2554 410.96 88.5594 411.448 89.5354 412.424C90.5274 413.384 91.0234 414.656 91.0234 416.24C91.0234 417.152 90.8154 417.944 90.3994 418.616C89.9994 419.288 89.4074 420.016 88.6234 420.8L83.9434 425.48V425.6H91.2634V428H80.2234ZM93.2988 423.44H95.8188C95.9628 424.112 96.3068 424.68 96.8508 425.144C97.4108 425.608 98.1468 425.84 99.0588 425.84C100.083 425.84 100.899 425.536 101.507 424.928C102.115 424.32 102.419 423.504 102.419 422.48C102.419 421.52 102.107 420.744 101.483 420.152C100.875 419.544 100.067 419.24 99.0588 419.24C97.8588 419.24 96.9388 419.64 96.2988 420.44H93.6588L94.6188 411.2H103.979V413.6H96.7788L96.2988 417.68H96.4188C97.2828 417.12 98.2828 416.84 99.4188 416.84C101.003 416.84 102.315 417.376 103.355 418.448C104.411 419.504 104.939 420.848 104.939 422.48C104.939 424.16 104.387 425.544 103.283 426.632C102.195 427.704 100.787 428.24 99.0588 428.24C98.1148 428.24 97.2668 428.088 96.5148 427.784C95.7788 427.48 95.1948 427.08 94.7628 426.584C94.3308 426.088 93.9948 425.576 93.7548 425.048C93.5308 424.52 93.3788 423.984 93.2988 423.44Z" fill="white"/>
<rect x="115" y="415" width="408" height="8" rx="4" fill="#E4E4E7"/>
<rect x="115" y="415" width="300" height="8" rx="4" fill="#6E51E0"/>
<path d="M533.736 428L539.64 413.6H531.6V411.2H542.52V413.36L536.52 428H533.736ZM543.708 428V425.84L550.62 418.88C551.084 418.416 551.404 418.008 551.58 417.656C551.772 417.288 551.868 416.816 551.868 416.24C551.868 415.328 551.62 414.624 551.124 414.128C550.644 413.616 549.972 413.36 549.108 413.36C548.26 413.36 547.548 413.664 546.972 414.272C546.396 414.88 546.108 415.656 546.108 416.6H543.588C543.588 414.92 544.1 413.56 545.124 412.52C546.148 411.48 547.476 410.96 549.108 410.96C550.74 410.96 552.044 411.448 553.02 412.424C554.012 413.384 554.508 414.656 554.508 416.24C554.508 417.152 554.3 417.944 553.884 418.616C553.484 419.288 552.892 420.016 552.108 420.8L547.428 425.48V425.6H554.748V428H543.708ZM558.703 428L569.143 411.2H571.543L561.103 428H558.703ZM561.679 413.384C561.359 413.048 560.927 412.88 560.383 412.88C559.839 412.88 559.399 413.048 559.063 413.384C558.743 413.72 558.583 414.192 558.583 414.8C558.583 415.408 558.743 415.88 559.063 416.216C559.399 416.552 559.839 416.72 560.383 416.72C560.927 416.72 561.359 416.552 561.679 416.216C562.015 415.88 562.183 415.408 562.183 414.8C562.183 414.192 562.015 413.72 561.679 413.384ZM557.647 417.536C556.911 416.8 556.543 415.888 556.543 414.8C556.543 413.712 556.911 412.8 557.647 412.064C558.399 411.328 559.311 410.96 560.383 410.96C561.455 410.96 562.359 411.328 563.095 412.064C563.847 412.8 564.223 413.712 564.223 414.8C564.223 415.888 563.847 416.8 563.095 417.536C562.359 418.272 561.455 418.64 560.383 418.64C559.311 418.64 558.399 418.272 557.647 417.536ZM568.543 425.816C568.879 426.152 569.319 426.32 569.863 426.32C570.407 426.32 570.839 426.152 571.159 425.816C571.495 425.48 571.663 425.008 571.663 424.4C571.663 423.792 571.495 423.32 571.159 422.984C570.839 422.648 570.407 422.48 569.863 422.48C569.319 422.48 568.879 422.648 568.543 422.984C568.223 423.32 568.063 423.792 568.063 424.4C568.063 425.008 568.223 425.48 568.543 425.816ZM567.127 427.136C566.391 426.4 566.023 425.488 566.023 424.4C566.023 423.312 566.391 422.4 567.127 421.664C567.863 420.928 568.775 420.56 569.863 420.56C570.951 420.56 571.863 420.928 572.599 421.664C573.335 422.4 573.703 423.312 573.703 424.4C573.703 425.488 573.335 426.4 572.599 427.136C571.863 427.872 570.951 428.24 569.863 428.24C568.775 428.24 567.863 427.872 567.127 427.136Z" fill="white"/>
<path d="M31 476L37.12 459.2H40.96L47.08 476H44.32L42.88 472.04H35.2L33.76 476H31ZM36.04 469.76H42.04L39.28 462.08H38.8L36.04 469.76ZM48.6381 480.8V464H50.7981L51.0381 465.44H51.1581C51.4141 465.152 51.6301 464.928 51.8061 464.768C51.9821 464.592 52.3581 464.384 52.9341 464.144C53.5261 463.888 54.1741 463.76 54.8781 463.76C56.4781 463.76 57.7981 464.328 58.8381 465.464C59.8781 466.6 60.3981 468.112 60.3981 470C60.3981 471.888 59.8781 473.4 58.8381 474.536C57.7981 475.672 56.4781 476.24 54.8781 476.24C53.2301 476.24 51.9901 475.68 51.1581 474.56H51.0381V480.8H48.6381ZM52.0221 472.952C52.6941 473.704 53.5261 474.08 54.5181 474.08C55.5101 474.08 56.3341 473.704 56.9901 472.952C57.6621 472.2 57.9981 471.216 57.9981 470C57.9981 468.784 57.6621 467.8 56.9901 467.048C56.3341 466.296 55.5101 465.92 54.5181 465.92C53.5261 465.92 52.6941 466.296 52.0221 467.048C51.3661 467.8 51.0381 468.784 51.0381 470C51.0381 471.216 51.3661 472.2 52.0221 472.952ZM62.9116 476V464H64.9516L65.1916 465.08H65.3116C65.3276 465.064 65.3756 465.008 65.4556 464.912C65.5516 464.816 65.6076 464.752 65.6236 464.72C65.6556 464.688 65.7196 464.632 65.8156 464.552C65.9116 464.456 65.9916 464.392 66.0556 464.36C66.1196 464.328 66.2076 464.288 66.3196 464.24C66.4316 464.176 66.5436 464.136 66.6556 464.12C66.7836 464.088 66.9276 464.064 67.0876 464.048C67.2476 464.016 67.4156 464 67.5916 464H69.7516V466.16H67.8316C66.1516 466.16 65.3116 466.992 65.3116 468.656V476H62.9116ZM76.1219 476V473.84L83.0339 466.88C83.4979 466.416 83.8179 466.008 83.9939 465.656C84.1859 465.288 84.2819 464.816 84.2819 464.24C84.2819 463.328 84.0339 462.624 83.5379 462.128C83.0579 461.616 82.3859 461.36 81.5219 461.36C80.6739 461.36 79.9619 461.664 79.3859 462.272C78.8099 462.88 78.5219 463.656 78.5219 464.6H76.0019C76.0019 462.92 76.5139 461.56 77.5379 460.52C78.5619 459.48 79.8899 458.96 81.5219 458.96C83.1539 458.96 84.4579 459.448 85.4339 460.424C86.4259 461.384 86.9219 462.656 86.9219 464.24C86.9219 465.152 86.7139 465.944 86.2979 466.616C85.8979 467.288 85.3059 468.016 84.5219 468.8L79.8419 473.48V473.6H87.1619V476H76.1219ZM89.1972 471.44H91.7172C91.8612 472.112 92.2052 472.68 92.7492 473.144C93.3092 473.608 94.0452 473.84 94.9572 473.84C95.9812 473.84 96.7972 473.536 97.4052 472.928C98.0132 472.32 98.3172 471.504 98.3172 470.48C98.3172 469.52 98.0052 468.744 97.3812 468.152C96.7732 467.544 95.9652 467.24 94.9572 467.24C93.7572 467.24 92.8372 467.64 92.1972 468.44H89.5572L90.5172 459.2H99.8772V461.6H92.6772L92.1972 465.68H92.3172C93.1812 465.12 94.1812 464.84 95.3172 464.84C96.9012 464.84 98.2132 465.376 99.2532 466.448C100.309 467.504 100.837 468.848 100.837 470.48C100.837 472.16 100.285 473.544 99.1812 474.632C98.0932 475.704 96.6852 476.24 94.9572 476.24C94.0132 476.24 93.1652 476.088 92.4132 475.784C91.6772 475.48 91.0932 475.08 90.6612 474.584C90.2292 474.088 89.8932 473.576 89.6532 473.048C89.4292 472.52 89.2772 471.984 89.1972 471.44Z" fill="white"/>
<rect x="115" y="463" width="408" height="8" rx="4" fill="#E4E4E7"/>
<rect x="115" y="463" width="332" height="8" rx="4" fill="#6E51E0"/>
<path d="M534.6 467.36V467.24C534.184 467.016 533.824 466.744 533.52 466.424C532.8 465.672 532.44 464.744 532.44 463.64C532.44 462.328 532.928 461.224 533.904 460.328C534.896 459.416 536.208 458.96 537.84 458.96C539.472 458.96 540.776 459.416 541.752 460.328C542.744 461.224 543.24 462.328 543.24 463.64C543.24 464.744 542.88 465.672 542.16 466.424C541.856 466.744 541.496 467.016 541.08 467.24V467.36C541.56 467.616 541.976 467.92 542.328 468.272C543.176 469.12 543.6 470.136 543.6 471.32C543.6 472.696 543.072 473.864 542.016 474.824C540.96 475.768 539.568 476.24 537.84 476.24C536.112 476.24 534.72 475.768 533.664 474.824C532.608 473.864 532.08 472.696 532.08 471.32C532.08 470.12 532.496 469.104 533.328 468.272C533.696 467.904 534.12 467.6 534.6 467.36ZM535.728 461.96C535.216 462.424 534.96 463.024 534.96 463.76C534.96 464.496 535.216 465.104 535.728 465.584C536.24 466.048 536.944 466.28 537.84 466.28C538.736 466.28 539.44 466.048 539.952 465.584C540.464 465.104 540.72 464.496 540.72 463.76C540.72 463.024 540.464 462.424 539.952 461.96C539.44 461.48 538.736 461.24 537.84 461.24C536.944 461.24 536.24 461.48 535.728 461.96ZM535.512 469.232C534.904 469.76 534.6 470.416 534.6 471.2C534.6 471.984 534.904 472.64 535.512 473.168C536.12 473.696 536.896 473.96 537.84 473.96C538.784 473.96 539.56 473.696 540.168 473.168C540.776 472.64 541.08 471.984 541.08 471.2C541.08 470.416 540.776 469.76 540.168 469.232C539.56 468.704 538.784 468.44 537.84 468.44C536.896 468.44 536.12 468.704 535.512 469.232ZM549.128 472.88C549.768 473.52 550.568 473.84 551.528 473.84C552.488 473.84 553.288 473.52 553.928 472.88C554.568 472.24 554.888 471.44 554.888 470.48C554.888 469.52 554.568 468.72 553.928 468.08C553.288 467.44 552.488 467.12 551.528 467.12C550.568 467.12 549.768 467.44 549.128 468.08C548.488 468.72 548.168 469.52 548.168 470.48C548.168 471.44 548.488 472.24 549.128 472.88ZM546.608 467.12L551.648 459.2H554.528L550.808 464.96H550.928L551.24 464.912C551.624 464.864 551.88 464.84 552.008 464.84C553.512 464.84 554.784 465.392 555.824 466.496C556.88 467.584 557.408 468.912 557.408 470.48C557.408 472.112 556.848 473.48 555.728 474.584C554.608 475.688 553.208 476.24 551.528 476.24C549.848 476.24 548.448 475.688 547.328 474.584C546.208 473.48 545.648 472.112 545.648 470.48C545.648 469.264 545.968 468.144 546.608 467.12ZM561.375 476L571.815 459.2H574.215L563.775 476H561.375ZM564.351 461.384C564.031 461.048 563.599 460.88 563.055 460.88C562.511 460.88 562.071 461.048 561.735 461.384C561.415 461.72 561.255 462.192 561.255 462.8C561.255 463.408 561.415 463.88 561.735 464.216C562.071 464.552 562.511 464.72 563.055 464.72C563.599 464.72 564.031 464.552 564.351 464.216C564.687 463.88 564.855 463.408 564.855 462.8C564.855 462.192 564.687 461.72 564.351 461.384ZM560.319 465.536C559.583 464.8 559.215 463.888 559.215 462.8C559.215 461.712 559.583 460.8 560.319 460.064C561.071 459.328 561.983 458.96 563.055 458.96C564.127 458.96 565.031 459.328 565.767 460.064C566.519 460.8 566.895 461.712 566.895 462.8C566.895 463.888 566.519 464.8 565.767 465.536C565.031 466.272 564.127 466.64 563.055 466.64C561.983 466.64 561.071 466.272 560.319 465.536ZM571.215 473.816C571.551 474.152 571.991 474.32 572.535 474.32C573.079 474.32 573.511 474.152 573.831 473.816C574.167 473.48 574.335 473.008 574.335 472.4C574.335 471.792 574.167 471.32 573.831 470.984C573.511 470.648 573.079 470.48 572.535 470.48C571.991 470.48 571.551 470.648 571.215 470.984C570.895 471.32 570.735 471.792 570.735 472.4C570.735 473.008 570.895 473.48 571.215 473.816ZM569.799 475.136C569.063 474.4 568.695 473.488 568.695 472.4C568.695 471.312 569.063 470.4 569.799 469.664C570.535 468.928 571.447 468.56 572.535 468.56C573.623 468.56 574.535 468.928 575.271 469.664C576.007 470.4 576.375 471.312 576.375 472.4C576.375 473.488 576.007 474.4 575.271 475.136C574.535 475.872 573.623 476.24 572.535 476.24C571.447 476.24 570.535 475.872 569.799 475.136Z" fill="white"/>
</g>
<defs>
<filter id="filter0_ddd_3550_105275" x="0" y="0" width="610" height="522" filterUnits="userSpaceOnUse" color-interpolation-filters="sRGB">
<feFlood flood-opacity="0" result="BackgroundImageFix"/>
<feColorMatrix in="SourceAlpha" type="matrix" values="0 0 0 0 0 0 0 0 0 0 0 0 0 0 0 0 0 0 127 0" result="hardAlpha"/>
<feMorphology radius="1" operator="dilate" in="SourceAlpha" result="effect1_dropShadow_3550_105275"/>
<feOffset/>
<feComposite in2="hardAlpha" operator="out"/>
<feColorMatrix type="matrix" values="0 0 0 0 0.0627451 0 0 0 0 0.0980392 0 0 0 0 0.156863 0 0 0 0.05 0"/>
<feBlend mode="normal" in2="BackgroundImageFix" result="effect1_dropShadow_3550_105275"/>
<feColorMatrix in="SourceAlpha" type="matrix" values="0 0 0 0 0 0 0 0 0 0 0 0 0 0 0 0 0 0 127 0" result="hardAlpha"/>
<feOffset dy="2"/>
<feGaussianBlur stdDeviation="3.5"/>
<feComposite in2="hardAlpha" operator="out"/>
<feColorMatrix type="matrix" values="0 0 0 0 0.0627451 0 0 0 0 0.0980392 0 0 0 0 0.156863 0 0 0 0.05 0"/>
<feBlend mode="normal" in2="effect1_dropShadow_3550_105275" result="effect2_dropShadow_3550_105275"/>
<feColorMatrix in="SourceAlpha" type="matrix" values="0 0 0 0 0 0 0 0 0 0 0 0 0 0 0 0 0 0 127 0" result="hardAlpha"/>
<feMorphology radius="2" operator="erode" in="SourceAlpha" result="effect3_dropShadow_3550_105275"/>
<feOffset dy="2"/>
<feGaussianBlur stdDeviation="2.5"/>
<feComposite in2="hardAlpha" operator="out"/>
<feColorMatrix type="matrix" values="0 0 0 0 0.0627451 0 0 0 0 0.0980392 0 0 0 0 0.156863 0 0 0 0.06 0"/>
<feBlend mode="normal" in2="effect2_dropShadow_3550_105275" result="effect3_dropShadow_3550_105275"/>
<feBlend mode="normal" in="SourceGraphic" in2="effect3_dropShadow_3550_105275" result="shape"/>
</filter>
<linearGradient id="paint0_linear_3550_105275" x1="-139.931" y1="-192.386" x2="771.389" y2="221.827" gradientUnits="userSpaceOnUse">
<stop stop-color="white"/>
<stop offset="1" stop-color="white" stop-opacity="0"/>
</linearGradient>
<linearGradient id="paint1_linear_3550_105275" x1="-655.222" y1="-558.084" x2="792.711" y2="-5.70535" gradientUnits="userSpaceOnUse">
<stop stop-color="white"/>
<stop offset="1" stop-color="white" stop-opacity="0"/>
</linearGradient>
</defs>
</svg>
