<svg width="1309" height="201" viewBox="0 0 1309 201" fill="none" xmlns="http://www.w3.org/2000/svg">
<path opacity="0.4" d="M0.535634 218V12.2H130.19V42.776H32.2876V187.424H130.19V218H0.535634ZM14.9416 127.742V97.166H114.02V127.742H14.9416ZM190.241 218V46.304C190.241 37.484 192.201 29.644 196.121 22.784C200.041 15.924 205.431 10.534 212.291 6.61399C219.151 2.69399 227.089 0.733993 236.105 0.733993C242.377 0.733993 248.257 1.90999 253.745 4.26198C259.233 6.61399 263.643 9.74999 266.975 13.67L256.685 36.896C254.137 34.544 251.295 32.682 248.159 31.31C245.219 29.742 242.377 28.958 239.633 28.958C235.517 28.958 231.989 29.644 229.049 31.016C226.305 32.192 224.247 34.152 222.875 36.896C221.503 39.444 220.817 42.58 220.817 46.304V218H205.529C202.981 218 200.433 218 197.885 218C195.337 218 192.789 218 190.241 218ZM165.545 94.226V66.296H257.273V94.226H165.545ZM305.783 218V46.304C305.783 37.484 307.743 29.644 311.663 22.784C315.583 15.924 320.973 10.534 327.833 6.61399C334.693 2.69399 342.631 0.733993 351.647 0.733993C357.919 0.733993 363.799 1.90999 369.287 4.26198C374.775 6.61399 379.185 9.74999 382.517 13.67L372.227 36.896C369.679 34.544 366.837 32.682 363.701 31.31C360.761 29.742 357.919 28.958 355.175 28.958C351.059 28.958 347.531 29.644 344.591 31.016C341.847 32.192 339.789 34.152 338.417 36.896C337.045 39.444 336.359 42.58 336.359 46.304V218H321.071C318.523 218 315.975 218 313.427 218C310.879 218 308.331 218 305.783 218ZM281.087 94.226V66.296H372.815V94.226H281.087ZM468.248 220.94C453.156 220.94 439.632 217.51 427.676 210.65C415.916 203.594 406.606 194.088 399.746 182.132C392.886 169.98 389.456 156.162 389.456 140.678C389.456 125.194 392.886 111.474 399.746 99.518C406.606 87.366 415.916 77.86 427.676 71C439.632 63.944 453.156 60.416 468.248 60.416C483.144 60.416 496.472 63.944 508.232 71C520.188 77.86 529.596 87.366 536.456 99.518C543.316 111.474 546.746 125.194 546.746 140.678C546.746 156.162 543.316 169.98 536.456 182.132C529.596 194.088 520.188 203.594 508.232 210.65C496.472 217.51 483.144 220.94 468.248 220.94ZM468.248 193.304C477.46 193.304 485.692 191.05 492.944 186.542C500.196 181.838 505.88 175.566 509.996 167.726C514.112 159.69 516.072 150.674 515.876 140.678C516.072 130.486 514.112 121.47 509.996 113.63C505.88 105.594 500.196 99.322 492.944 94.814C485.692 90.306 477.46 88.052 468.248 88.052C459.036 88.052 450.706 90.404 443.258 95.108C436.006 99.616 430.322 105.888 426.206 113.924C422.09 121.764 420.13 130.682 420.326 140.678C420.13 150.674 422.09 159.69 426.206 167.726C430.322 175.566 436.006 181.838 443.258 186.542C450.706 191.05 459.036 193.304 468.248 193.304ZM579.743 218V63.65H610.319V112.16L607.379 100.4C609.535 92.952 613.161 86.19 618.257 80.114C623.549 74.038 629.527 69.236 636.191 65.708C643.051 62.18 650.107 60.416 657.359 60.416C660.691 60.416 663.827 60.71 666.767 61.298C669.903 61.886 672.353 62.572 674.117 63.356L666.179 96.284C663.827 95.304 661.181 94.52 658.241 93.932C655.497 93.148 652.753 92.756 650.009 92.756C644.717 92.756 639.621 93.834 634.721 95.99C630.017 97.95 625.803 100.792 622.079 104.516C618.551 108.044 615.709 112.258 613.553 117.158C611.397 121.862 610.319 127.056 610.319 132.74V218H579.743ZM723.172 218V24.254H753.454V218H723.172ZM691.126 93.05V63.65H789.322V93.05H691.126ZM817.484 218V0.439997H847.766V218H817.484ZM959.842 220.94C943.966 220.94 929.854 217.608 917.506 210.944C905.354 204.084 895.75 194.774 888.694 183.014C881.834 171.254 878.404 157.73 878.404 142.442C878.404 130.29 880.364 119.216 884.284 109.22C888.204 99.224 893.594 90.6 900.454 83.348C907.51 75.9 915.84 70.216 925.444 66.296C935.244 62.18 945.828 60.122 957.196 60.122C967.192 60.122 976.502 62.082 985.126 66.002C993.75 69.726 1001.2 74.92 1007.47 81.584C1013.94 88.248 1018.84 96.186 1022.17 105.398C1025.7 114.414 1027.36 124.312 1027.17 135.092L1026.87 148.028H900.748L893.986 123.92H1000.71L996.298 128.918V121.862C995.71 115.394 993.554 109.612 989.83 104.516C986.106 99.42 981.402 95.402 975.718 92.462C970.034 89.522 963.86 88.052 957.196 88.052C946.612 88.052 937.694 90.11 930.442 94.226C923.19 98.146 917.702 104.026 913.978 111.866C910.254 119.51 908.392 129.016 908.392 140.384C908.392 151.164 910.646 160.572 915.154 168.608C919.662 176.448 926.032 182.524 934.264 186.836C942.496 191.148 952.002 193.304 962.782 193.304C970.426 193.304 977.482 192.03 983.95 189.482C990.614 186.934 997.768 182.328 1005.41 175.664L1020.7 197.126C1016 201.83 1010.21 205.946 1003.35 209.474C996.69 213.002 989.536 215.844 981.892 218C974.444 219.96 967.094 220.94 959.842 220.94ZM1111.53 220.94C1098.59 220.94 1086.93 218.686 1076.54 214.178C1066.15 209.67 1057.53 203.006 1050.67 194.186L1071.25 176.546C1077.13 183.406 1083.5 188.404 1090.36 191.54C1097.42 194.48 1105.35 195.95 1114.17 195.95C1117.7 195.95 1120.94 195.558 1123.88 194.774C1127.01 193.794 1129.66 192.422 1131.81 190.658C1134.17 188.894 1135.93 186.836 1137.11 184.484C1138.28 181.936 1138.87 179.192 1138.87 176.252C1138.87 171.156 1137.01 167.04 1133.28 163.904C1131.32 162.532 1128.19 161.062 1123.88 159.494C1119.76 157.73 1114.37 155.966 1107.71 154.202C1096.34 151.262 1087.03 147.93 1079.78 144.206C1072.52 140.482 1066.94 136.268 1063.02 131.564C1060.08 127.84 1057.92 123.822 1056.55 119.51C1055.18 115.002 1054.49 110.102 1054.49 104.81C1054.49 98.342 1055.86 92.462 1058.61 87.17C1061.55 81.682 1065.47 76.978 1070.37 73.058C1075.46 68.942 1081.34 65.806 1088.01 63.65C1094.87 61.494 1102.12 60.416 1109.76 60.416C1117.02 60.416 1124.17 61.396 1131.23 63.356C1138.48 65.316 1145.14 68.158 1151.22 71.882C1157.29 75.606 1162.39 80.016 1166.51 85.112L1149.16 104.222C1145.44 100.498 1141.32 97.264 1136.81 94.52C1132.5 91.58 1128.09 89.326 1123.58 87.758C1119.07 86.19 1114.96 85.406 1111.23 85.406C1107.12 85.406 1103.39 85.798 1100.06 86.582C1096.73 87.366 1093.89 88.542 1091.54 90.11C1089.38 91.678 1087.71 93.638 1086.54 95.99C1085.36 98.342 1084.77 100.988 1084.77 103.928C1084.97 106.476 1085.56 108.926 1086.54 111.278C1087.71 113.434 1089.28 115.296 1091.24 116.864C1093.4 118.432 1096.63 120.098 1100.94 121.862C1105.26 123.626 1110.74 125.292 1117.41 126.86C1127.21 129.408 1135.24 132.25 1141.52 135.386C1147.98 138.326 1153.08 141.756 1156.8 145.676C1160.72 149.4 1163.47 153.712 1165.04 158.612C1166.6 163.512 1167.39 169 1167.39 175.076C1167.39 183.896 1164.84 191.834 1159.74 198.89C1154.84 205.75 1148.18 211.14 1139.75 215.06C1131.32 218.98 1121.92 220.94 1111.53 220.94ZM1252.21 220.94C1239.27 220.94 1227.61 218.686 1217.22 214.178C1206.84 209.67 1198.21 203.006 1191.35 194.186L1211.93 176.546C1217.81 183.406 1224.18 188.404 1231.04 191.54C1238.1 194.48 1246.04 195.95 1254.86 195.95C1258.38 195.95 1261.62 195.558 1264.56 194.774C1267.69 193.794 1270.34 192.422 1272.5 190.658C1274.85 188.894 1276.61 186.836 1277.79 184.484C1278.96 181.936 1279.55 179.192 1279.55 176.252C1279.55 171.156 1277.69 167.04 1273.97 163.904C1272.01 162.532 1268.87 161.062 1264.56 159.494C1260.44 157.73 1255.05 155.966 1248.39 154.202C1237.02 151.262 1227.71 147.93 1220.46 144.206C1213.21 140.482 1207.62 136.268 1203.7 131.564C1200.76 127.84 1198.6 123.822 1197.23 119.51C1195.86 115.002 1195.17 110.102 1195.17 104.81C1195.17 98.342 1196.55 92.462 1199.29 87.17C1202.23 81.682 1206.15 76.978 1211.05 73.058C1216.15 68.942 1222.03 65.806 1228.69 63.65C1235.55 61.494 1242.8 60.416 1250.45 60.416C1257.7 60.416 1264.85 61.396 1271.91 63.356C1279.16 65.316 1285.82 68.158 1291.9 71.882C1297.98 75.606 1303.07 80.016 1307.19 85.112L1289.84 104.222C1286.12 100.498 1282 97.264 1277.49 94.52C1273.18 91.58 1268.77 89.326 1264.26 87.758C1259.76 86.19 1255.64 85.406 1251.92 85.406C1247.8 85.406 1244.08 85.798 1240.74 86.582C1237.41 87.366 1234.57 88.542 1232.22 90.11C1230.06 91.678 1228.4 93.638 1227.22 95.99C1226.04 98.342 1225.46 100.988 1225.46 103.928C1225.65 106.476 1226.24 108.926 1227.22 111.278C1228.4 113.434 1229.96 115.296 1231.92 116.864C1234.08 118.432 1237.31 120.098 1241.63 121.862C1245.94 123.626 1251.43 125.292 1258.09 126.86C1267.89 129.408 1275.93 132.25 1282.2 135.386C1288.67 138.326 1293.76 141.756 1297.49 145.676C1301.41 149.4 1304.15 153.712 1305.72 158.612C1307.29 163.512 1308.07 169 1308.07 175.076C1308.07 183.896 1305.52 191.834 1300.43 198.89C1295.53 205.75 1288.86 211.14 1280.43 215.06C1272.01 218.98 1262.6 220.94 1252.21 220.94Z" fill="url(#paint0_radial_4037_16094)"/>
<defs>
<radialGradient id="paint0_radial_4037_16094" cx="0" cy="0" r="1" gradientUnits="userSpaceOnUse" gradientTransform="translate(3.80866e-05 10.087) scale(1322 312.899)">
<stop stop-color="#9A9A9A"/>
<stop offset="0.5" stop-color="#484848"/>
<stop offset="1" stop-color="#9A9A9A"/>
</radialGradient>
</defs>
</svg>
