<svg width="73" height="11" viewBox="0 0 73 11" fill="none" xmlns="http://www.w3.org/2000/svg">
<path d="M22.8801 4.49303C22.6787 3.29057 22.0583 2.19672 21.1274 1.40278C20.1964 0.608839 19.0142 0.165337 17.7875 0.149835C16.5608 0.134333 15.3676 0.547818 14.4167 1.31798C13.4657 2.08814 12.8175 3.16596 12.5854 4.36294C12.3533 5.55992 12.5521 6.79989 13.147 7.86598C13.7419 8.93208 14.695 9.75645 15.8397 10.1949C16.9844 10.6334 18.2478 10.6581 19.409 10.2647C20.5702 9.87124 21.5552 9.08473 22.1918 8.0427L20.4035 6.96406C20.0215 7.58928 19.4305 8.06118 18.7338 8.29724C18.0371 8.5333 17.2791 8.51849 16.5922 8.2554C15.9054 7.99231 15.3335 7.49768 14.9766 6.85803C14.6197 6.21837 14.5004 5.47439 14.6397 4.7562C14.7789 4.03801 15.1678 3.39132 15.7384 2.92922C16.309 2.46713 17.0249 2.21904 17.7609 2.22834C18.4969 2.23764 19.2063 2.50374 19.7648 2.98011C20.3234 3.45647 20.6956 4.11278 20.8165 4.83426L22.8801 4.49303Z" fill="url(#paint0_angular_369_626)"/>
<path d="M17.641 4.23771L22.7978 4.41929C22.8943 4.42268 22.9172 4.5547 22.8275 4.59004L18.0881 6.45755C17.9923 6.50321 17.8888 6.53665 17.779 6.55552C17.1392 6.66549 16.5308 6.2393 16.4201 5.60359C16.3094 4.96788 16.7384 4.36338 17.3781 4.25341C17.4347 4.24368 17.4911 4.23815 17.5469 4.23658L17.5465 4.23438L17.6017 4.23632C17.6149 4.23656 17.628 4.23703 17.641 4.23771Z" fill="white"/>
<path d="M27.1141 8.46439C26.6905 8.46439 26.3153 8.36738 25.9886 8.17336C25.667 7.97934 25.4144 7.71603 25.2306 7.38342C25.052 7.04527 24.9626 6.66 24.9626 6.22762C24.9626 5.88392 25.0137 5.57072 25.1158 5.288C25.2179 5.00529 25.3582 4.76138 25.5369 4.55627C25.7206 4.34562 25.9376 4.18486 26.1877 4.07399C26.4429 3.95758 26.7211 3.89937 27.0222 3.89937C27.2877 3.89937 27.5352 3.95481 27.7649 4.06568C27.9946 4.17654 28.1937 4.32899 28.3621 4.52301C28.5306 4.71149 28.6582 4.93877 28.745 5.20485C28.8368 5.46539 28.8802 5.75088 28.8751 6.06131L28.8675 6.41886H25.5981L25.422 5.72039H28.0788L27.9563 5.86175V5.67882C27.941 5.50697 27.89 5.3573 27.8032 5.2298C27.7164 5.09675 27.6041 4.9942 27.4663 4.92214C27.3336 4.84453 27.1856 4.80572 27.0222 4.80572C26.7721 4.80572 26.5603 4.85839 26.3868 4.96371C26.2183 5.06904 26.0907 5.22148 26.0039 5.42105C25.9172 5.61507 25.8738 5.85898 25.8738 6.15278C25.8738 6.43549 25.9274 6.68218 26.0346 6.89283C26.1469 7.10348 26.3025 7.26701 26.5016 7.38342C26.7058 7.49429 26.9431 7.54972 27.2137 7.54972C27.4025 7.54972 27.5761 7.51646 27.7343 7.44994C27.8925 7.38342 28.0635 7.26424 28.2473 7.09239L28.7143 7.79918C28.5765 7.93777 28.4183 8.05695 28.2396 8.15673C28.0661 8.25097 27.8823 8.32581 27.6884 8.38124C27.4944 8.43667 27.303 8.46439 27.1141 8.46439Z" fill="white"/>
<path d="M30.0767 8.38124V3.60834C30.0767 3.34226 30.1303 3.10666 30.2375 2.90155C30.3447 2.6909 30.4927 2.52737 30.6816 2.41096C30.8704 2.28901 31.0899 2.22803 31.34 2.22803C31.5136 2.22803 31.6744 2.26129 31.8224 2.32781C31.9704 2.38879 32.0955 2.47471 32.1976 2.58558L31.9066 3.35889C31.8403 3.29791 31.7688 3.25079 31.6922 3.21753C31.6208 3.18427 31.5519 3.16764 31.4855 3.16764C31.3834 3.16764 31.2967 3.18704 31.2252 3.22585C31.1588 3.25911 31.1078 3.31177 31.0721 3.38383C31.0414 3.4559 31.0261 3.54182 31.0261 3.6416V8.38124H30.5514C30.4595 8.38124 30.3728 8.38124 30.2911 8.38124C30.2145 8.38124 30.1431 8.38124 30.0767 8.38124ZM29.4489 4.98866V4.09062H31.9373V4.98866H29.4489ZM33.0857 8.38124V3.60834C33.0857 3.34226 33.1393 3.10666 33.2465 2.90155C33.3537 2.6909 33.5017 2.52737 33.6906 2.41096C33.8795 2.28901 34.0989 2.22803 34.3491 2.22803C34.5226 2.22803 34.6834 2.26129 34.8314 2.32781C34.9794 2.38879 35.1045 2.47471 35.2066 2.58558L34.9156 3.35889C34.8493 3.29791 34.7778 3.25079 34.7013 3.21753C34.6298 3.18427 34.5609 3.16764 34.4945 3.16764C34.3924 3.16764 34.3057 3.18704 34.2342 3.22585C34.1679 3.25911 34.1168 3.31177 34.0811 3.38383C34.0505 3.4559 34.0351 3.54182 34.0351 3.6416V8.38124H33.5604C33.4686 8.38124 33.3818 8.38124 33.3001 8.38124C33.2236 8.38124 33.1521 8.38124 33.0857 8.38124ZM32.4579 4.98866V4.09062H34.9463V4.98866H32.4579Z" fill="white"/>
<path d="M37.4239 8.46439C37.0207 8.46439 36.6608 8.36738 36.3444 8.17336C36.0279 7.9738 35.7778 7.70217 35.594 7.35848C35.4103 7.01478 35.3184 6.62397 35.3184 6.18604C35.3184 5.74811 35.4103 5.3573 35.594 5.0136C35.7778 4.66991 36.0279 4.40105 36.3444 4.20703C36.6608 4.00747 37.0207 3.90769 37.4239 3.90769C37.8221 3.90769 38.1794 4.00747 38.4958 4.20703C38.8123 4.40105 39.0599 4.66991 39.2385 5.0136C39.4223 5.3573 39.5142 5.74811 39.5142 6.18604C39.5142 6.62397 39.4223 7.01478 39.2385 7.35848C39.0599 7.70217 38.8123 7.9738 38.4958 8.17336C38.1794 8.36738 37.8221 8.46439 37.4239 8.46439ZM37.4239 7.55804C37.6434 7.55804 37.8374 7.49706 38.0058 7.37511C38.1794 7.25315 38.3146 7.08962 38.4116 6.88451C38.5137 6.67941 38.5622 6.44658 38.5571 6.18604C38.5622 5.91996 38.5137 5.68436 38.4116 5.47925C38.3146 5.27414 38.1794 5.11339 38.0058 4.99697C37.8374 4.87502 37.6434 4.81404 37.4239 4.81404C37.2044 4.81404 37.0054 4.87502 36.8267 4.99697C36.6532 5.11339 36.5179 5.27692 36.4209 5.48757C36.3239 5.69267 36.2755 5.9255 36.2755 6.18604C36.2755 6.44658 36.3239 6.67941 36.4209 6.88451C36.5179 7.08962 36.6532 7.25315 36.8267 7.37511C37.0054 7.49706 37.2044 7.55804 37.4239 7.55804Z" fill="white"/>
<path d="M40.3566 8.38124V3.99915H41.283L41.2983 5.3961L41.1681 5.08012C41.2243 4.85839 41.3213 4.65882 41.4591 4.48143C41.5969 4.30404 41.7551 4.16546 41.9338 4.06568C42.1176 3.96035 42.309 3.90769 42.508 3.90769C42.5948 3.90769 42.6765 3.916 42.753 3.93263C42.8347 3.94926 42.9011 3.96867 42.9521 3.99084L42.6994 5.11339C42.6433 5.08012 42.5744 5.05241 42.4927 5.03023C42.4111 5.00806 42.3294 4.99697 42.2477 4.99697C42.1201 4.99697 41.9976 5.02469 41.8802 5.08012C41.7679 5.13002 41.6684 5.20208 41.5816 5.29632C41.4948 5.39056 41.4259 5.50143 41.3749 5.62892C41.3289 5.75088 41.306 5.88947 41.306 6.04468V8.38124H40.3566Z" fill="white"/>
<path d="M44.1651 8.38124V2.88492H45.1069V8.38124H44.1651ZM43.3689 4.94708V3.99915H45.9874V4.94708H43.3689Z" fill="white"/>
<path d="M46.7122 8.38124V2.22803H47.6617V8.38124H46.7122Z" fill="white"/>
<path d="M50.5846 8.46439C50.161 8.46439 49.7858 8.36738 49.4591 8.17336C49.1376 7.97934 48.8849 7.71603 48.7011 7.38342C48.5225 7.04527 48.4332 6.66 48.4332 6.22762C48.4332 5.88392 48.4842 5.57072 48.5863 5.288C48.6884 5.00529 48.8288 4.76138 49.0074 4.55627C49.1912 4.34562 49.4081 4.18486 49.6582 4.07399C49.9134 3.95758 50.1916 3.89937 50.4928 3.89937C50.7582 3.89937 51.0058 3.95481 51.2354 4.06568C51.4651 4.17654 51.6642 4.32899 51.8327 4.52301C52.0011 4.71149 52.1287 4.93877 52.2155 5.20485C52.3074 5.46539 52.3507 5.75088 52.3456 6.06131L52.338 6.41886H49.0687L48.8926 5.72039H51.5494L51.4269 5.86175V5.67882C51.4115 5.50697 51.3605 5.3573 51.2737 5.2298C51.187 5.09675 51.0747 4.9942 50.9368 4.92214C50.8041 4.84453 50.6561 4.80572 50.4928 4.80572C50.2427 4.80572 50.0308 4.85839 49.8573 4.96371C49.6888 5.06904 49.5612 5.22148 49.4745 5.42105C49.3877 5.61507 49.3443 5.85898 49.3443 6.15278C49.3443 6.43549 49.3979 6.68218 49.5051 6.89283C49.6174 7.10348 49.7731 7.26701 49.9721 7.38342C50.1763 7.49429 50.4137 7.54972 50.6842 7.54972C50.873 7.54972 51.0466 7.51646 51.2048 7.44994C51.3631 7.38342 51.5341 7.26424 51.7178 7.09239L52.1849 7.79918C52.047 7.93777 51.8888 8.05695 51.7102 8.15673C51.5366 8.25097 51.3529 8.32581 51.1589 8.38124C50.9649 8.43667 50.7735 8.46439 50.5846 8.46439Z" fill="white"/>
<path d="M54.5273 8.46439C54.17 8.46439 53.8484 8.40064 53.5626 8.27314C53.2818 8.1401 53.0521 7.95162 52.8735 7.70771L53.486 7.13397C53.6391 7.32244 53.8101 7.45826 53.999 7.54141C54.1878 7.62456 54.3869 7.66614 54.5962 7.66614C54.683 7.66614 54.7595 7.65505 54.8259 7.63288C54.8973 7.6107 54.9586 7.57744 55.0096 7.53309C55.0607 7.48875 55.099 7.43886 55.1245 7.38342C55.1551 7.32244 55.1704 7.25592 55.1704 7.18386C55.1704 7.05082 55.1245 6.94549 55.0326 6.86788C54.9816 6.82908 54.8999 6.7875 54.7876 6.74315C54.6804 6.69881 54.54 6.65446 54.3665 6.61011C54.0909 6.5325 53.8612 6.44381 53.6774 6.34403C53.4936 6.2387 53.3507 6.12229 53.2486 5.99479C53.1619 5.88947 53.0955 5.77028 53.0496 5.63724C53.0087 5.5042 52.9883 5.36007 52.9883 5.20485C52.9883 5.01083 53.0266 4.83621 53.1032 4.681C53.1848 4.52024 53.2946 4.38165 53.4324 4.26524C53.5702 4.14883 53.731 4.06013 53.9148 3.99915C54.0985 3.93818 54.2899 3.90769 54.489 3.90769C54.6932 3.90769 54.8897 3.93541 55.0785 3.99084C55.2725 4.04627 55.4512 4.12665 55.6145 4.23198C55.7829 4.33176 55.9259 4.45372 56.0433 4.59785L55.5226 5.22148C55.4256 5.1217 55.3184 5.03301 55.201 4.9554C55.0888 4.87779 54.9739 4.81681 54.8565 4.77246C54.7391 4.72257 54.6294 4.69763 54.5273 4.69763C54.4303 4.69763 54.3435 4.70871 54.267 4.73089C54.1904 4.74752 54.1266 4.77524 54.0755 4.81404C54.0245 4.85284 53.9837 4.90273 53.953 4.96371C53.9275 5.01915 53.9148 5.08567 53.9148 5.16328C53.9199 5.2298 53.9352 5.29355 53.9607 5.35452C53.9913 5.40996 54.0322 5.45708 54.0832 5.49588C54.1393 5.53469 54.2236 5.57903 54.3359 5.62892C54.4482 5.67882 54.5936 5.72593 54.7723 5.77028C55.0224 5.84235 55.2317 5.92273 55.4001 6.01142C55.5686 6.10012 55.7013 6.20267 55.7983 6.31908C55.8952 6.41886 55.9641 6.53528 56.005 6.66832C56.0458 6.80136 56.0662 6.94826 56.0662 7.10902C56.0662 7.36956 55.9973 7.60239 55.8595 7.80749C55.7268 8.0126 55.543 8.17336 55.3082 8.28977C55.0785 8.40619 54.8182 8.46439 54.5273 8.46439Z" fill="white"/>
<path d="M58.2434 8.46439C57.8861 8.46439 57.5645 8.40064 57.2787 8.27314C56.9979 8.1401 56.7682 7.95162 56.5896 7.70771L57.2021 7.13397C57.3552 7.32244 57.5262 7.45826 57.7151 7.54141C57.9039 7.62456 58.103 7.66614 58.3123 7.66614C58.3991 7.66614 58.4756 7.65505 58.542 7.63288C58.6134 7.6107 58.6747 7.57744 58.7257 7.53309C58.7768 7.48875 58.8151 7.43886 58.8406 7.38342C58.8712 7.32244 58.8865 7.25592 58.8865 7.18386C58.8865 7.05082 58.8406 6.94549 58.7487 6.86788C58.6977 6.82908 58.616 6.7875 58.5037 6.74315C58.3965 6.69881 58.2561 6.65446 58.0826 6.61011C57.807 6.5325 57.5773 6.44381 57.3935 6.34403C57.2097 6.2387 57.0668 6.12229 56.9647 5.99479C56.878 5.88947 56.8116 5.77028 56.7657 5.63724C56.7248 5.5042 56.7044 5.36007 56.7044 5.20485C56.7044 5.01083 56.7427 4.83621 56.8193 4.681C56.9009 4.52024 57.0107 4.38165 57.1485 4.26524C57.2863 4.14883 57.4471 4.06013 57.6309 3.99915C57.8146 3.93818 58.006 3.90769 58.2051 3.90769C58.4093 3.90769 58.6058 3.93541 58.7946 3.99084C58.9886 4.04627 59.1673 4.12665 59.3306 4.23198C59.499 4.33176 59.642 4.45372 59.7594 4.59785L59.2387 5.22148C59.1417 5.1217 59.0346 5.03301 58.9172 4.9554C58.8049 4.87779 58.69 4.81681 58.5726 4.77246C58.4552 4.72257 58.3455 4.69763 58.2434 4.69763C58.1464 4.69763 58.0596 4.70871 57.9831 4.73089C57.9065 4.74752 57.8427 4.77524 57.7916 4.81404C57.7406 4.85284 57.6998 4.90273 57.6691 4.96371C57.6436 5.01915 57.6309 5.08567 57.6309 5.16328C57.636 5.2298 57.6513 5.29355 57.6768 5.35452C57.7074 5.40996 57.7483 5.45708 57.7993 5.49588C57.8554 5.53469 57.9397 5.57903 58.052 5.62892C58.1643 5.67882 58.3097 5.72593 58.4884 5.77028C58.7385 5.84235 58.9478 5.92273 59.1162 6.01142C59.2847 6.10012 59.4174 6.20267 59.5144 6.31908C59.6113 6.41886 59.6802 6.53528 59.7211 6.66832C59.7619 6.80136 59.7823 6.94826 59.7823 7.10902C59.7823 7.36956 59.7134 7.60239 59.5756 7.80749C59.4429 8.0126 59.2591 8.17336 59.0243 8.28977C58.7946 8.40619 58.5343 8.46439 58.2434 8.46439Z" fill="white"/>
<defs>
<radialGradient id="paint0_angular_369_626" cx="0" cy="0" r="1" gradientUnits="userSpaceOnUse" gradientTransform="translate(17.5959 5.33522) rotate(35.8821) scale(11.4014 11.3787)">
<stop offset="0.369792" stop-color="#F08B32"/>
<stop offset="0.744792" stop-color="#F08B32"/>
<stop offset="0.989583" stop-color="#F08B32" stop-opacity="0"/>
</radialGradient>
</defs>
</svg>
