<svg width="48" height="48" viewBox="0 0 48 48" fill="none" xmlns="http://www.w3.org/2000/svg">
<rect width="48" height="48" rx="4" fill="white" fill-opacity="0.1"/>
<path fill-rule="evenodd" clip-rule="evenodd" d="M36 14C36 11.7909 34.2091 10 32 10H16C13.7909 10 12 11.7909 12 14V39.9227L18.5 35.3643L24 39.2214L29.5 35.3643L36 39.9227V14ZM17.0001 16H18.0001H23.0001H24.0001V18H23.0001H18.0001H17.0001V16ZM28.0001 16H27.0001V18H28.0001H30.0001H31.0001V16H30.0001H28.0001ZM17 22H18H23H24V24H23H18H17V22ZM28 22H27V24H28H30H31V22H30H28ZM17 28H18H23H24V30H23H18H17V28ZM28 28H27V30H28H30H31V28H30H28Z" fill="white"/>
</svg>
