<svg width="44" height="44" viewBox="0 0 44 44" fill="none" xmlns="http://www.w3.org/2000/svg">
<path fill-rule="evenodd" clip-rule="evenodd" d="M12.5 9.5C12.5 4.25357 16.7536 0 22 0C27.2464 0 31.5 4.25357 31.5 9.5V17H28.5V9.5C28.5 5.91043 25.5896 3 22 3C18.4104 3 15.5 5.91043 15.5 9.5V17H12.5V9.5Z" fill="white"/>
<path fill-rule="evenodd" clip-rule="evenodd" d="M12 14C9.2386 14 7 16.2386 7 19V29C7 31.7614 9.2386 34 12 34H32C34.7614 34 37 31.7614 37 29V19C37 16.2386 34.7614 14 32 14H12ZM23.5 26V22H20.5V26H23.5Z" fill="white"/>
<path fill-rule="evenodd" clip-rule="evenodd" d="M19.5 41.5C19.5 40.1193 20.6193 39 22 39C23.3807 39 24.5 40.1193 24.5 41.5C24.5 42.8807 23.3807 44 22 44C20.6193 44 19.5 42.8807 19.5 41.5Z" fill="white"/>
<path fill-rule="evenodd" clip-rule="evenodd" d="M29 41.5C29 40.1193 30.1193 39 31.5 39C32.8807 39 34 40.1193 34 41.5C34 42.8807 32.8807 44 31.5 44C30.1193 44 29 42.8807 29 41.5Z" fill="white"/>
<path fill-rule="evenodd" clip-rule="evenodd" d="M0.5 41.5C0.5 40.1193 1.61929 39 3 39C4.38071 39 5.5 40.1193 5.5 41.5C5.5 42.8807 4.38071 44 3 44C1.61929 44 0.5 42.8807 0.5 41.5Z" fill="white"/>
<path fill-rule="evenodd" clip-rule="evenodd" d="M38.5 41.5C38.5 40.1193 39.6193 39 41 39C42.3807 39 43.5 40.1193 43.5 41.5C43.5 42.8807 42.3807 44 41 44C39.6193 44 38.5 42.8807 38.5 41.5Z" fill="white"/>
<path fill-rule="evenodd" clip-rule="evenodd" d="M10 41.5C10 40.1193 11.1193 39 12.5 39C13.8807 39 15 40.1193 15 41.5C15 42.8807 13.8807 44 12.5 44C11.1193 44 10 42.8807 10 41.5Z" fill="white"/>
</svg>
