<svg width="40" height="40" viewBox="0 0 40 40" fill="none" xmlns="http://www.w3.org/2000/svg">
<rect y="0.000854492" width="40" height="40" rx="4" fill="white" fill-opacity="0.1"/>
<path d="M29.6002 23.6024H23.9372C23.3865 23.6024 22.9066 23.9772 22.7729 24.5113L22.6275 25.0934C22.4939 25.6275 22.0139 26.0023 21.4632 26.0023H18.537C17.9864 26.0023 17.5065 25.6275 17.3728 25.0934L17.2274 24.5113C17.0938 23.9772 16.6138 23.6024 16.0631 23.6024H10.4002C9.73756 23.6024 9.2002 24.1398 9.2002 24.8024C9.2002 24.9495 9.26812 28.4024 15.2002 28.4024H24.8002C30.7323 28.4024 30.8002 24.9495 30.8002 24.8024C30.8002 24.1398 30.2628 23.6024 29.6002 23.6024Z" fill="white"/>
<path d="M15.2003 24.8016C13.8748 24.8016 12.8003 23.7272 12.8003 22.4016V15.2016C12.8003 13.8761 13.8748 12.8016 15.2003 12.8016H24.8003C26.1258 12.8016 27.2003 13.8761 27.2003 15.2016V22.4016C27.2003 23.7272 26.1258 24.8016 24.8003 24.8016" stroke="white" stroke-width="2" stroke-linecap="round" stroke-linejoin="round"/>
<path d="M20.0001 21.8009C19.5032 21.8009 19.1001 21.3978 19.1001 20.9009V16.4009C19.1001 15.9039 19.5032 15.5009 20.0001 15.5009C20.497 15.5009 20.9001 15.9039 20.9001 16.4009V20.9009C20.9001 21.3978 20.497 21.8009 20.0001 21.8009Z" fill="white"/>
<path d="M16.7003 21.8016C16.2034 21.8016 15.8003 21.3986 15.8003 20.9016V19.7016C15.8003 19.2047 16.2034 18.8016 16.7003 18.8016C17.1972 18.8016 17.6003 19.2047 17.6003 19.7016V20.9016C17.6003 21.3986 17.1972 21.8016 16.7003 21.8016Z" fill="white"/>
<path d="M23.3004 21.8024C22.8035 21.8024 22.4004 21.3993 22.4004 20.9024V18.5024C22.4004 18.0055 22.8035 17.6024 23.3004 17.6024C23.7973 17.6024 24.2004 18.0055 24.2004 18.5024V20.9024C24.2004 21.3993 23.7973 21.8024 23.3004 21.8024Z" fill="white"/>
</svg>
