<svg width="48" height="48" viewBox="0 0 48 48" fill="none" xmlns="http://www.w3.org/2000/svg">
<rect width="48" height="48" rx="4" fill="white" fill-opacity="0.1"/>
<path d="M28.889 39.9987C29.6254 39.9987 30.2223 39.4017 30.2223 38.6654C30.2223 37.929 29.6254 37.332 28.889 37.332C28.1526 37.332 27.5557 37.929 27.5557 38.6654C27.5557 39.4017 28.1526 39.9987 28.889 39.9987Z" fill="white"/>
<path d="M35.5326 17.6476L28.5743 10.6893C27.9859 10.1009 27.2054 9.77734 26.3752 9.77734H16.4446C13.7477 9.77734 11.5557 11.9693 11.5557 14.6662V33.3329C11.5557 36.0298 13.7477 38.2218 16.4446 38.2218H24.9334C24.9974 37.6582 25.1717 37.1338 25.4454 36.6662C25.1006 36.076 24.889 35.3987 24.889 34.6662V29.7773C24.889 27.5711 26.6828 25.7773 28.889 25.7773C31.0952 25.7773 32.889 27.5711 32.889 29.7773V34.6662C32.889 35.3987 32.6774 36.076 32.3326 36.6662C32.5743 37.0822 32.745 37.5409 32.825 38.0333C34.9032 37.4698 36.4446 35.5871 36.4446 33.3329V19.8467C36.4446 19.0165 36.121 18.2342 35.5326 17.6476ZM18.2223 18.6662H21.7779C22.5139 18.6662 23.1112 19.2636 23.1112 19.9996C23.1112 20.7356 22.5139 21.3329 21.7779 21.3329H18.2223C17.4863 21.3329 16.889 20.7356 16.889 19.9996C16.889 19.2636 17.4863 18.6662 18.2223 18.6662ZM24.4446 26.6662H18.2223C17.4863 26.6662 16.889 26.0689 16.889 25.3329C16.889 24.5969 17.4863 23.9996 18.2223 23.9996H24.4446C25.1806 23.9996 25.7779 24.5969 25.7779 25.3329C25.7779 26.0689 25.1806 26.6662 24.4446 26.6662ZM33.657 19.5551H28.4446C27.4668 19.5551 26.6668 18.7551 26.6668 17.7773V12.5845C26.6828 12.5773 26.6739 12.5827 26.6899 12.5756L33.6623 19.5462C33.6623 19.5462 33.6588 19.5516 33.657 19.5551Z" fill="white"/>
<path d="M28.889 28.4434C28.153 28.4434 27.5557 29.0407 27.5557 29.7767V34.6656C27.5557 35.4016 28.153 35.9989 28.889 35.9989C29.625 35.9989 30.2223 35.4016 30.2223 34.6656V29.7767C30.2223 29.0407 29.625 28.4434 28.889 28.4434Z" fill="white"/>
</svg>
