<svg width="48" height="48" viewBox="0 0 48 48" fill="none" xmlns="http://www.w3.org/2000/svg">
<path d="M46 3.00098H2C1.447 3.00098 1 3.44798 1 4.00098V13.001C1 13.554 1.447 14.001 2 14.001H46C46.553 14.001 47 13.554 47 13.001V4.00098C47 3.44798 46.553 3.00098 46 3.00098Z" fill="white"/>
<path d="M28 37.001C28 32.038 32.037 28.001 37 28.001C39.306 28.001 41.406 28.88 43 30.312V16.001H5V42.001C5 43.106 5.895 44.001 7 44.001H31.355C29.312 42.35 28 39.827 28 37.001Z" fill="white"/>
<path d="M46.707 45.294L42.598 41.185C43.474 40.016 44 38.571 44 37.001C44 33.142 40.86 30.001 37 30.001C33.14 30.001 30 33.142 30 37.001C30 40.86 33.14 44.001 37 44.001C38.57 44.001 40.016 43.475 41.185 42.599L45.293 46.708C45.488 46.903 45.744 47.001 46 47.001C46.256 47.001 46.512 46.903 46.707 46.708C47.098 46.317 47.098 45.685 46.707 45.294ZM32 37.001C32 34.244 34.243 32.001 37 32.001C39.757 32.001 42 34.244 42 37.001C42 39.758 39.757 42.001 37 42.001C34.243 42.001 32 39.758 32 37.001Z" fill="white"/>
</svg>
