<svg width="25" height="24" viewBox="0 0 25 24" fill="none" xmlns="http://www.w3.org/2000/svg">
<g clip-path="url(#clip0_5388_15690)">
<path d="M21.5802 11.0643L13.7549 6.94433C13.0735 6.583 12.2602 6.58433 11.5802 6.94433L3.75355 11.0657C3.09488 11.4123 2.68555 12.091 2.68555 12.835C2.68555 13.579 3.09488 14.2577 3.75355 14.6043L11.5789 18.7243C11.9189 18.9043 12.2935 18.995 12.6669 18.995C13.0402 18.995 13.4135 18.9057 13.7535 18.7257L21.5802 14.6043C22.2389 14.2577 22.6482 13.579 22.6482 12.835C22.6482 12.091 22.2389 11.411 21.5802 11.0643Z" fill="white"/>
<path d="M21.6482 16.167C21.0962 16.167 20.6482 16.615 20.6482 17.167L12.8215 21.2883C12.7255 21.339 12.6109 21.339 12.5122 21.2883L4.68555 17.167C4.68555 16.615 4.23755 16.167 3.68555 16.167C3.13355 16.167 2.68555 16.615 2.68555 17.167C2.68555 17.9123 3.09488 18.5897 3.75355 18.9363L11.5789 23.0563C11.9189 23.2363 12.2935 23.327 12.6669 23.327C13.0402 23.327 13.4135 23.2377 13.7535 23.0577L21.5802 18.9363C22.2389 18.5897 22.6482 17.911 22.6482 17.167C22.6482 16.615 22.2002 16.167 21.6482 16.167Z" fill="white"/>
<path d="M23.6667 3.33333H21.3333V1C21.3333 0.448 20.8853 0 20.3333 0C19.7813 0 19.3333 0.448 19.3333 1V3.33333H17C16.448 3.33333 16 3.78133 16 4.33333C16 4.88533 16.448 5.33333 17 5.33333H19.3333V7.66667C19.3333 8.21867 19.7813 8.66667 20.3333 8.66667C20.8853 8.66667 21.3333 8.21867 21.3333 7.66667V5.33333H23.6667C24.2187 5.33333 24.6667 4.88533 24.6667 4.33333C24.6667 3.78133 24.2187 3.33333 23.6667 3.33333Z" fill="white"/>
</g>
<defs>
<clipPath id="clip0_5388_15690">
<rect width="24" height="24" fill="white" transform="translate(0.666016)"/>
</clipPath>
</defs>
</svg>
