<svg width="41" height="40" viewBox="0 0 41 40" fill="none" xmlns="http://www.w3.org/2000/svg">
<rect x="0.332031" width="40" height="40" rx="4" fill="white" fill-opacity="0.1"/>
<path fill-rule="evenodd" clip-rule="evenodd" d="M29.332 12.5C29.332 10.8431 27.9889 9.5 26.332 9.5H14.332C12.6752 9.5 11.332 10.8431 11.332 12.5V31.942L16.207 28.5232L20.332 31.416L24.457 28.5232L29.332 31.942V12.5ZM15.0821 14H15.8321H19.5821H20.3321V15.5H19.5821H15.8321H15.0821V14ZM23.3321 14H22.5821V15.5H23.3321H24.8321H25.5821V14H24.8321H23.3321ZM15.082 18.5H15.832H19.582H20.332V20H19.582H15.832H15.082V18.5ZM23.332 18.5H22.582V20H23.332H24.832H25.582V18.5H24.832H23.332ZM15.082 23H15.832H19.582H20.332V24.5H19.582H15.832H15.082V23ZM23.332 23H22.582V24.5H23.332H24.832H25.582V23H24.832H23.332Z" fill="white"/>
</svg>
