<svg width="42" height="38" viewBox="0 0 42 38" fill="none" xmlns="http://www.w3.org/2000/svg">
<path d="M40.8321 28.3766L26.3655 3.32061C25.2455 1.38194 23.2401 0.224609 21.0001 0.224609C18.7601 0.224609 16.7548 1.38194 15.6348 3.32061L1.16813 28.3766C0.048125 30.3153 0.048125 32.6299 1.16813 34.5686C2.28813 36.5099 4.29346 37.6673 6.53346 37.6673H35.4668C37.7068 37.6673 39.7121 36.5099 40.8321 34.5686C41.9521 32.6299 41.9521 30.3153 40.8321 28.3766ZM19.0001 12.3339C19.0001 11.2299 19.8961 10.3339 21.0001 10.3339C22.1041 10.3339 23.0001 11.2299 23.0001 12.3339V21.6673C23.0001 22.7713 22.1041 23.6673 21.0001 23.6673C19.8961 23.6673 19.0001 22.7713 19.0001 21.6673V12.3339ZM21.0001 31.1846C19.5281 31.1846 18.3335 29.9873 18.3335 28.5179C18.3335 27.0486 19.5281 25.8513 21.0001 25.8513C22.4721 25.8513 23.6668 27.0486 23.6668 28.5179C23.6668 29.9873 22.4721 31.1846 21.0001 31.1846Z" fill="white"/>
</svg>
