<svg width="24" height="24" viewBox="0 0 24 24" fill="none" xmlns="http://www.w3.org/2000/svg">
<g clip-path="url(#clip0_4727_2378)">
<path d="M12 17.921C12.1392 18.0441 12.2962 18.1484 12.4677 18.2297C13.0082 18.4862 13.6352 18.4872 14.1765 18.2324L22 14.5508V18.618L12 23.618L2 18.618V14.5509L9.82346 18.2325C10.3648 18.4872 10.9918 18.4863 11.5323 18.2298C11.7038 18.1485 11.8609 18.0441 12 17.921Z" fill="white"/>
<path fill-rule="evenodd" clip-rule="evenodd" d="M12.0003 0.382812L21.834 5.29964L23.7057 11.5388L13.3252 16.4238L12.0003 11.124L10.6754 16.4238L0.294922 11.5388L2.16667 5.29964L12.0003 0.382812ZM12.0012 10.382L19.7692 6.50333L12.0003 2.61888L4.21905 6.50952L12.0012 10.382Z" fill="white"/>
</g>
<defs>
<clipPath id="clip0_4727_2378">
<rect width="24" height="24" fill="white"/>
</clipPath>
</defs>
</svg>
