<svg width="596" height="304" viewBox="0 0 596 304" fill="none" xmlns="http://www.w3.org/2000/svg">
<mask id="path-1-inside-1_3550_106517" fill="white">
<path d="M0 8.00001C0 3.58173 3.58172 0 8 0H588C592.418 0 596 3.58172 596 8V296C596 300.418 592.418 304 588 304H8.00002C3.58174 304 0 300.418 0 296V8.00001Z"/>
</mask>
<path d="M0 8.00001C0 3.58173 3.58172 0 8 0H588C592.418 0 596 3.58172 596 8V296C596 300.418 592.418 304 588 304H8.00002C3.58174 304 0 300.418 0 296V8.00001Z" fill="url(#paint0_linear_3550_106517)" fill-opacity="0.1"/>
<path d="M8 0V1H588V0V-1H8V0ZM596 8H595V296H596H597V8H596ZM588 304V303H8.00002V304V305H588V304ZM0 296H1V8.00001H0H-1V296H0ZM8.00002 304V303C4.13402 303 1 299.866 1 296H0H-1C-1 300.971 3.02946 305 8.00002 305V304ZM596 296H595C595 299.866 591.866 303 588 303V304V305C592.971 305 597 300.971 597 296H596ZM588 0V1C591.866 1 595 4.13401 595 8H596H597C597 3.02943 592.971 -1 588 -1V0ZM8 0V-1C3.02944 -1 -1 3.02944 -1 8.00001H0H1C1 4.13401 4.13401 1 8 1V0Z" fill="url(#paint1_linear_3550_106517)" fill-opacity="0.2" mask="url(#path-1-inside-1_3550_106517)"/>
<path d="M20.32 40L25.78 26H28.22L33.64 40H30.94L27.94 32.04C27.8733 31.88 27.78 31.6267 27.66 31.28C27.5533 30.9333 27.4333 30.56 27.3 30.16C27.1667 29.7467 27.0467 29.3667 26.94 29.02C26.8333 28.66 26.7533 28.4 26.7 28.24L27.2 28.22C27.12 28.4867 27.0267 28.7867 26.92 29.12C26.8133 29.4533 26.7 29.8 26.58 30.16C26.46 30.52 26.34 30.8667 26.22 31.2C26.1133 31.5333 26.0133 31.8333 25.92 32.1L22.92 40H20.32ZM22.8 36.8L23.7 34.54H30.08L31.04 36.8H22.8ZM39.9495 44.6C39.1629 44.6 38.3762 44.48 37.5895 44.24C36.8162 44 36.1895 43.6867 35.7095 43.3L36.5895 41.48C36.8695 41.68 37.1829 41.8533 37.5295 42C37.8762 42.1467 38.2429 42.26 38.6295 42.34C39.0295 42.42 39.4229 42.46 39.8095 42.46C40.5162 42.46 41.1029 42.3467 41.5695 42.12C42.0495 41.9067 42.4095 41.5733 42.6495 41.12C42.8895 40.68 43.0095 40.1267 43.0095 39.46V37.52L43.3695 37.66C43.2895 38.0733 43.0695 38.4667 42.7095 38.84C42.3495 39.2133 41.8962 39.52 41.3495 39.76C40.8029 39.9867 40.2429 40.1 39.6695 40.1C38.6695 40.1 37.7829 39.8667 37.0095 39.4C36.2495 38.9333 35.6429 38.3 35.1895 37.5C34.7495 36.6867 34.5295 35.7533 34.5295 34.7C34.5295 33.6467 34.7495 32.7133 35.1895 31.9C35.6295 31.0733 36.2295 30.4267 36.9895 29.96C37.7629 29.48 38.6295 29.24 39.5895 29.24C39.9895 29.24 40.3762 29.2867 40.7495 29.38C41.1229 29.4733 41.4629 29.6067 41.7695 29.78C42.0895 29.9533 42.3762 30.1467 42.6295 30.36C42.8829 30.5733 43.0895 30.8 43.2495 31.04C43.4095 31.28 43.5095 31.5133 43.5495 31.74L43.0295 31.9L43.0695 29.46H45.4895V39.28C45.4895 40.1333 45.3629 40.8867 45.1095 41.54C44.8562 42.1933 44.4895 42.7467 44.0095 43.2C43.5295 43.6667 42.9495 44.0133 42.2695 44.24C41.5895 44.48 40.8162 44.6 39.9495 44.6ZM40.0495 38C40.6495 38 41.1762 37.86 41.6295 37.58C42.0962 37.3 42.4562 36.9133 42.7095 36.42C42.9629 35.9267 43.0895 35.36 43.0895 34.72C43.0895 34.0667 42.9562 33.4933 42.6895 33C42.4362 32.4933 42.0829 32.1 41.6295 31.82C41.1762 31.54 40.6495 31.4 40.0495 31.4C39.4495 31.4 38.9229 31.5467 38.4695 31.84C38.0162 32.12 37.6562 32.5133 37.3895 33.02C37.1362 33.5133 37.0095 34.08 37.0095 34.72C37.0095 35.3467 37.1362 35.9133 37.3895 36.42C37.6562 36.9133 38.0162 37.3 38.4695 37.58C38.9229 37.86 39.4495 38 40.0495 38ZM48.3345 40V29.46H50.7545L50.7945 32.82L50.4545 32.06C50.6012 31.5267 50.8545 31.0467 51.2145 30.62C51.5745 30.1933 51.9879 29.86 52.4545 29.62C52.9345 29.3667 53.4345 29.24 53.9545 29.24C54.1812 29.24 54.3945 29.26 54.5945 29.3C54.8079 29.34 54.9812 29.3867 55.1145 29.44L54.4545 32.14C54.3079 32.06 54.1279 31.9933 53.9145 31.94C53.7012 31.8867 53.4879 31.86 53.2745 31.86C52.9412 31.86 52.6212 31.9267 52.3145 32.06C52.0212 32.18 51.7612 32.3533 51.5345 32.58C51.3079 32.8067 51.1279 33.0733 50.9945 33.38C50.8745 33.6733 50.8145 34.0067 50.8145 34.38V40H48.3345ZM61.2433 40.2C60.1366 40.2 59.1566 39.9667 58.3033 39.5C57.4633 39.0333 56.8033 38.4 56.3233 37.6C55.8566 36.7867 55.6233 35.86 55.6233 34.82C55.6233 33.9933 55.7566 33.24 56.0233 32.56C56.2899 31.88 56.6566 31.2933 57.1233 30.8C57.6033 30.2933 58.1699 29.9067 58.8233 29.64C59.4899 29.36 60.2166 29.22 61.0033 29.22C61.6966 29.22 62.3433 29.3533 62.9433 29.62C63.5433 29.8867 64.0633 30.2533 64.5033 30.72C64.9433 31.1733 65.2766 31.72 65.5033 32.36C65.7433 32.9867 65.8566 33.6733 65.8433 34.42L65.8233 35.28H57.2833L56.8233 33.6H63.7633L63.4433 33.94V33.5C63.4033 33.0867 63.2699 32.7267 63.0433 32.42C62.8166 32.1 62.5233 31.8533 62.1633 31.68C61.8166 31.4933 61.4299 31.4 61.0033 31.4C60.3499 31.4 59.7966 31.5267 59.3433 31.78C58.9033 32.0333 58.5699 32.4 58.3433 32.88C58.1166 33.3467 58.0033 33.9333 58.0033 34.64C58.0033 35.32 58.1433 35.9133 58.4233 36.42C58.7166 36.9267 59.1233 37.32 59.6433 37.6C60.1766 37.8667 60.7966 38 61.5033 38C61.9966 38 62.4499 37.92 62.8633 37.76C63.2766 37.6 63.7233 37.3133 64.2033 36.9L65.4233 38.6C65.0633 38.9333 64.6499 39.22 64.1833 39.46C63.7299 39.6867 63.2499 39.8667 62.7433 40C62.2366 40.1333 61.7366 40.2 61.2433 40.2ZM72.962 40.2C71.8554 40.2 70.8754 39.9667 70.022 39.5C69.182 39.0333 68.522 38.4 68.042 37.6C67.5754 36.7867 67.342 35.86 67.342 34.82C67.342 33.9933 67.4754 33.24 67.742 32.56C68.0087 31.88 68.3754 31.2933 68.842 30.8C69.322 30.2933 69.8887 29.9067 70.542 29.64C71.2087 29.36 71.9354 29.22 72.722 29.22C73.4154 29.22 74.062 29.3533 74.662 29.62C75.262 29.8867 75.782 30.2533 76.222 30.72C76.662 31.1733 76.9954 31.72 77.222 32.36C77.462 32.9867 77.5754 33.6733 77.562 34.42L77.542 35.28H69.002L68.542 33.6H75.482L75.162 33.94V33.5C75.122 33.0867 74.9887 32.7267 74.762 32.42C74.5354 32.1 74.242 31.8533 73.882 31.68C73.5354 31.4933 73.1487 31.4 72.722 31.4C72.0687 31.4 71.5154 31.5267 71.062 31.78C70.622 32.0333 70.2887 32.4 70.062 32.88C69.8354 33.3467 69.722 33.9333 69.722 34.64C69.722 35.32 69.862 35.9133 70.142 36.42C70.4354 36.9267 70.842 37.32 71.362 37.6C71.8954 37.8667 72.5154 38 73.222 38C73.7154 38 74.1687 37.92 74.582 37.76C74.9954 37.6 75.442 37.3133 75.922 36.9L77.142 38.6C76.782 38.9333 76.3687 39.22 75.902 39.46C75.4487 39.6867 74.9687 39.8667 74.462 40C73.9554 40.1333 73.4554 40.2 72.962 40.2ZM79.7008 40V29.46H82.1208L82.1608 31.58L81.7608 31.74C81.8808 31.3933 82.0608 31.0733 82.3008 30.78C82.5408 30.4733 82.8274 30.2133 83.1608 30C83.4941 29.7733 83.8474 29.6 84.2208 29.48C84.5941 29.3467 84.9741 29.28 85.3608 29.28C85.9341 29.28 86.4408 29.3733 86.8808 29.56C87.3341 29.7333 87.7074 30.0133 88.0008 30.4C88.3074 30.7867 88.5341 31.28 88.6808 31.88L88.3008 31.8L88.4608 31.48C88.6074 31.16 88.8141 30.8733 89.0808 30.62C89.3474 30.3533 89.6474 30.12 89.9808 29.92C90.3141 29.7067 90.6608 29.5467 91.0208 29.44C91.3941 29.3333 91.7608 29.28 92.1208 29.28C92.9208 29.28 93.5874 29.44 94.1208 29.76C94.6541 30.08 95.0541 30.5667 95.3208 31.22C95.5874 31.8733 95.7208 32.68 95.7208 33.64V40H93.2408V33.8C93.2408 33.2667 93.1674 32.8267 93.0208 32.48C92.8874 32.1333 92.6741 31.88 92.3808 31.72C92.1008 31.5467 91.7474 31.46 91.3208 31.46C90.9874 31.46 90.6674 31.52 90.3608 31.64C90.0674 31.7467 89.8141 31.9067 89.6008 32.12C89.3874 32.32 89.2208 32.5533 89.1008 32.82C88.9808 33.0867 88.9208 33.38 88.9208 33.7V40H86.4408V33.78C86.4408 33.2733 86.3674 32.8533 86.2208 32.52C86.0741 32.1733 85.8608 31.9133 85.5808 31.74C85.3008 31.5533 84.9608 31.46 84.5608 31.46C84.2274 31.46 83.9141 31.52 83.6208 31.64C83.3274 31.7467 83.0741 31.9 82.8608 32.1C82.6474 32.3 82.4808 32.5333 82.3608 32.8C82.2408 33.0667 82.1808 33.36 82.1808 33.68V40H79.7008ZM103.392 40.2C102.285 40.2 101.305 39.9667 100.452 39.5C99.6117 39.0333 98.9517 38.4 98.4717 37.6C98.0051 36.7867 97.7717 35.86 97.7717 34.82C97.7717 33.9933 97.9051 33.24 98.1717 32.56C98.4384 31.88 98.8051 31.2933 99.2717 30.8C99.7517 30.2933 100.318 29.9067 100.972 29.64C101.638 29.36 102.365 29.22 103.152 29.22C103.845 29.22 104.492 29.3533 105.092 29.62C105.692 29.8867 106.212 30.2533 106.652 30.72C107.092 31.1733 107.425 31.72 107.652 32.36C107.892 32.9867 108.005 33.6733 107.992 34.42L107.972 35.28H99.4317L98.9717 33.6H105.912L105.592 33.94V33.5C105.552 33.0867 105.418 32.7267 105.192 32.42C104.965 32.1 104.672 31.8533 104.312 31.68C103.965 31.4933 103.578 31.4 103.152 31.4C102.498 31.4 101.945 31.5267 101.492 31.78C101.052 32.0333 100.718 32.4 100.492 32.88C100.265 33.3467 100.152 33.9333 100.152 34.64C100.152 35.32 100.292 35.9133 100.572 36.42C100.865 36.9267 101.272 37.32 101.792 37.6C102.325 37.8667 102.945 38 103.652 38C104.145 38 104.598 37.92 105.012 37.76C105.425 37.6 105.872 37.3133 106.352 36.9L107.572 38.6C107.212 38.9333 106.798 39.22 106.332 39.46C105.878 39.6867 105.398 39.8667 104.892 40C104.385 40.1333 103.885 40.2 103.392 40.2ZM110.17 40V29.46H112.57L112.61 31.62L112.15 31.86C112.284 31.38 112.544 30.9467 112.93 30.56C113.317 30.16 113.777 29.84 114.31 29.6C114.844 29.36 115.39 29.24 115.95 29.24C116.75 29.24 117.417 29.4 117.95 29.72C118.497 30.04 118.904 30.52 119.17 31.16C119.45 31.8 119.59 32.6 119.59 33.56V40H117.13V33.74C117.13 33.2067 117.057 32.7667 116.91 32.42C116.764 32.06 116.537 31.8 116.23 31.64C115.924 31.4667 115.55 31.3867 115.11 31.4C114.75 31.4 114.417 31.46 114.11 31.58C113.817 31.6867 113.557 31.8467 113.33 32.06C113.117 32.26 112.944 32.4933 112.81 32.76C112.69 33.0267 112.63 33.32 112.63 33.64V40H111.41C111.17 40 110.944 40 110.73 40C110.53 40 110.344 40 110.17 40ZM123.498 40V26.78H125.958V40H123.498ZM121.418 31.74V29.46H128.258V31.74H121.418ZM136.45 40V26H142.27C143.07 26 143.79 26.1933 144.43 26.58C145.084 26.9667 145.604 27.4933 145.99 28.16C146.377 28.8267 146.57 29.5733 146.57 30.4C146.57 31.24 146.377 32 145.99 32.68C145.604 33.3467 145.084 33.88 144.43 34.28C143.79 34.68 143.07 34.88 142.27 34.88H139.05V40H136.45ZM139.05 32.48H142.09C142.424 32.48 142.724 32.3867 142.99 32.2C143.27 32.0133 143.49 31.7667 143.65 31.46C143.824 31.1533 143.91 30.8067 143.91 30.42C143.91 30.0333 143.824 29.6933 143.65 29.4C143.49 29.0933 143.27 28.8533 142.99 28.68C142.724 28.4933 142.424 28.4 142.09 28.4H139.05V32.48ZM153.626 40.2C152.519 40.2 151.539 39.9667 150.686 39.5C149.846 39.0333 149.186 38.4 148.706 37.6C148.239 36.7867 148.006 35.86 148.006 34.82C148.006 33.9933 148.139 33.24 148.406 32.56C148.673 31.88 149.039 31.2933 149.506 30.8C149.986 30.2933 150.553 29.9067 151.206 29.64C151.873 29.36 152.599 29.22 153.386 29.22C154.079 29.22 154.726 29.3533 155.326 29.62C155.926 29.8867 156.446 30.2533 156.886 30.72C157.326 31.1733 157.659 31.72 157.886 32.36C158.126 32.9867 158.239 33.6733 158.226 34.42L158.206 35.28H149.666L149.206 33.6H156.146L155.826 33.94V33.5C155.786 33.0867 155.653 32.7267 155.426 32.42C155.199 32.1 154.906 31.8533 154.546 31.68C154.199 31.4933 153.813 31.4 153.386 31.4C152.733 31.4 152.179 31.5267 151.726 31.78C151.286 32.0333 150.953 32.4 150.726 32.88C150.499 33.3467 150.386 33.9333 150.386 34.64C150.386 35.32 150.526 35.9133 150.806 36.42C151.099 36.9267 151.506 37.32 152.026 37.6C152.559 37.8667 153.179 38 153.886 38C154.379 38 154.833 37.92 155.246 37.76C155.659 37.6 156.106 37.3133 156.586 36.9L157.806 38.6C157.446 38.9333 157.033 39.22 156.566 39.46C156.113 39.6867 155.633 39.8667 155.126 40C154.619 40.1333 154.119 40.2 153.626 40.2ZM160.405 40V29.46H162.825L162.865 32.82L162.525 32.06C162.672 31.5267 162.925 31.0467 163.285 30.62C163.645 30.1933 164.058 29.86 164.525 29.62C165.005 29.3667 165.505 29.24 166.025 29.24C166.252 29.24 166.465 29.26 166.665 29.3C166.878 29.34 167.052 29.3867 167.185 29.44L166.525 32.14C166.378 32.06 166.198 31.9933 165.985 31.94C165.772 31.8867 165.558 31.86 165.345 31.86C165.012 31.86 164.692 31.9267 164.385 32.06C164.092 32.18 163.832 32.3533 163.605 32.58C163.378 32.8067 163.198 33.0733 163.065 33.38C162.945 33.6733 162.885 34.0067 162.885 34.38V40H160.405ZM169.103 40V29.46H171.563V40H169.103ZM170.303 27.22C169.809 27.22 169.423 27.1 169.143 26.86C168.876 26.6067 168.743 26.2533 168.743 25.8C168.743 25.3733 168.883 25.0267 169.163 24.76C169.443 24.4933 169.823 24.36 170.303 24.36C170.809 24.36 171.196 24.4867 171.463 24.74C171.743 24.98 171.883 25.3333 171.883 25.8C171.883 26.2133 171.743 26.5533 171.463 26.82C171.183 27.0867 170.796 27.22 170.303 27.22ZM179.502 40.2C178.449 40.2 177.509 39.9667 176.682 39.5C175.856 39.02 175.202 38.3667 174.722 37.54C174.242 36.7133 174.002 35.7733 174.002 34.72C174.002 33.6667 174.242 32.7267 174.722 31.9C175.202 31.0733 175.856 30.4267 176.682 29.96C177.509 29.48 178.449 29.24 179.502 29.24C180.542 29.24 181.476 29.48 182.302 29.96C183.129 30.4267 183.776 31.0733 184.242 31.9C184.722 32.7267 184.962 33.6667 184.962 34.72C184.962 35.7733 184.722 36.7133 184.242 37.54C183.776 38.3667 183.129 39.02 182.302 39.5C181.476 39.9667 180.542 40.2 179.502 40.2ZM179.502 38.02C180.076 38.02 180.582 37.8733 181.022 37.58C181.476 37.2867 181.829 36.8933 182.082 36.4C182.349 35.9067 182.476 35.3467 182.462 34.72C182.476 34.08 182.349 33.5133 182.082 33.02C181.829 32.5267 181.476 32.14 181.022 31.86C180.582 31.5667 180.076 31.42 179.502 31.42C178.929 31.42 178.409 31.5667 177.942 31.86C177.489 32.14 177.136 32.5333 176.882 33.04C176.629 33.5333 176.502 34.0933 176.502 34.72C176.502 35.3467 176.629 35.9067 176.882 36.4C177.136 36.8933 177.489 37.2867 177.942 37.58C178.409 37.8733 178.929 38.02 179.502 38.02ZM191.403 40.2C190.469 40.2 189.629 39.9667 188.883 39.5C188.149 39.02 187.563 38.3733 187.123 37.56C186.696 36.7333 186.483 35.7867 186.483 34.72C186.483 33.6667 186.696 32.7267 187.123 31.9C187.549 31.0733 188.129 30.4267 188.863 29.96C189.609 29.48 190.449 29.24 191.383 29.24C191.889 29.24 192.376 29.32 192.843 29.48C193.323 29.64 193.749 29.86 194.123 30.14C194.496 30.4067 194.789 30.7067 195.003 31.04C195.229 31.3733 195.356 31.72 195.383 32.08L194.723 32.16V25.2H197.183V40H194.803L194.743 37.52L195.223 37.56C195.209 37.8933 195.089 38.2133 194.863 38.52C194.649 38.8267 194.369 39.1067 194.023 39.36C193.676 39.6133 193.269 39.82 192.803 39.98C192.349 40.1267 191.883 40.2 191.403 40.2ZM191.883 38.12C192.456 38.12 192.963 37.9733 193.403 37.68C193.843 37.3867 194.183 36.9867 194.423 36.48C194.676 35.9733 194.803 35.3867 194.803 34.72C194.803 34.0667 194.676 33.4867 194.423 32.98C194.183 32.46 193.843 32.06 193.403 31.78C192.963 31.4867 192.456 31.34 191.883 31.34C191.309 31.34 190.803 31.4867 190.363 31.78C189.923 32.06 189.576 32.46 189.323 32.98C189.083 33.4867 188.963 34.0667 188.963 34.72C188.963 35.3867 189.083 35.9733 189.323 36.48C189.576 36.9867 189.923 37.3867 190.363 37.68C190.803 37.9733 191.309 38.12 191.883 38.12Z" fill="#F08B32"/>
<path d="M20.715 70.335H21.495C21.495 70.881 21.7333 71.3533 22.21 71.752C22.6867 72.1507 23.315 72.35 24.095 72.35C24.901 72.35 25.512 72.1897 25.928 71.869C26.3527 71.5397 26.565 71.115 26.565 70.595C26.565 69.6937 25.9627 69.139 24.758 68.931L23.315 68.684C22.5003 68.5453 21.8937 68.2853 21.495 67.904C21.105 67.514 20.91 66.981 20.91 66.305C20.91 65.5683 21.183 64.9617 21.729 64.485C22.275 64.0083 23.0203 63.77 23.965 63.77C24.979 63.77 25.785 64.0343 26.383 64.563C26.981 65.0917 27.28 65.759 27.28 66.565H26.5C26.5 65.993 26.2703 65.5163 25.811 65.135C25.3603 64.745 24.745 64.55 23.965 64.55C23.237 64.55 22.6737 64.7147 22.275 65.044C21.885 65.3733 21.69 65.7937 21.69 66.305C21.69 66.7643 21.833 67.124 22.119 67.384C22.405 67.644 22.847 67.826 23.445 67.93L24.758 68.164C25.668 68.3287 26.3267 68.606 26.734 68.996C27.1413 69.3773 27.345 69.9103 27.345 70.595C27.345 71.3403 27.059 71.9513 26.487 72.428C25.9237 72.896 25.1263 73.13 24.095 73.13C23.0897 73.13 22.275 72.857 21.651 72.311C21.027 71.765 20.715 71.1063 20.715 70.335ZM29.3011 71.895V67.28H28.2611V66.5H29.3011V64.68H30.0811V66.5H31.7061V67.28H30.0811V71.765C30.0811 72.0683 30.2328 72.22 30.5361 72.22H31.7061V73H30.4711C30.1071 73 29.8211 72.9003 29.6131 72.701C29.4051 72.5017 29.3011 72.233 29.3011 71.895ZM37.3002 73L37.1702 72.09H37.1052C36.9752 72.272 36.7975 72.4453 36.5722 72.61C36.0868 72.9567 35.5495 73.13 34.9602 73.13C34.2928 73.13 33.7555 72.9437 33.3482 72.571C32.9495 72.1983 32.7502 71.713 32.7502 71.115C32.7502 70.4997 32.9668 70.01 33.4002 69.646C33.8335 69.282 34.4618 69.1 35.2852 69.1H37.1702V68.84C37.1702 67.7133 36.6068 67.15 35.4802 67.15C34.9688 67.15 34.5572 67.2627 34.2452 67.488C33.9418 67.7133 33.7685 68.0123 33.7252 68.385H32.9452C33.0232 67.8043 33.2788 67.3233 33.7122 66.942C34.1455 66.5607 34.7348 66.37 35.4802 66.37C36.2688 66.37 36.8755 66.5867 37.3002 67.02C37.7335 67.4447 37.9502 68.0513 37.9502 68.84V73H37.3002ZM37.1702 70.14V69.815H35.2852C34.7132 69.815 34.2755 69.9363 33.9722 70.179C33.6775 70.4217 33.5302 70.7337 33.5302 71.115C33.5302 71.4877 33.6558 71.7867 33.9072 72.012C34.1585 72.2373 34.5095 72.35 34.9602 72.35C35.6448 72.35 36.1822 72.155 36.5722 71.765C36.9708 71.3663 37.1702 70.8247 37.1702 70.14ZM40.0322 73V66.5H40.6822L40.7472 67.15H40.8122C41.1069 66.7167 41.5402 66.5 42.1122 66.5H43.2822V67.28H42.1772C41.7525 67.28 41.4189 67.4057 41.1762 67.657C40.9335 67.8997 40.8122 68.2507 40.8122 68.71V73H40.0322ZM44.8402 71.895V67.28H43.8002V66.5H44.8402V64.68H45.6202V66.5H47.2452V67.28H45.6202V71.765C45.6202 72.0683 45.7718 72.22 46.0752 72.22H47.2452V73H46.0102C45.6462 73 45.3602 72.9003 45.1522 72.701C44.9442 72.5017 44.8402 72.233 44.8402 71.895ZM52.698 72.22H54.843C55.9177 72.22 56.78 71.882 57.43 71.206C58.0887 70.53 58.418 69.6113 58.418 68.45C58.418 67.2887 58.0887 66.37 57.43 65.694C56.78 65.018 55.9177 64.68 54.843 64.68H52.698V72.22ZM51.918 73V63.9H54.843C56.0824 63.9 57.118 64.329 57.95 65.187C58.782 66.045 59.198 67.1327 59.198 68.45C59.198 69.7673 58.782 70.855 57.95 71.713C57.118 72.571 56.0824 73 54.843 73H51.918ZM65.1791 73L65.0491 72.09H64.9841C64.8541 72.272 64.6764 72.4453 64.4511 72.61C63.9657 72.9567 63.4284 73.13 62.8391 73.13C62.1717 73.13 61.6344 72.9437 61.2271 72.571C60.8284 72.1983 60.6291 71.713 60.6291 71.115C60.6291 70.4997 60.8457 70.01 61.2791 69.646C61.7124 69.282 62.3407 69.1 63.1641 69.1H65.0491V68.84C65.0491 67.7133 64.4857 67.15 63.3591 67.15C62.8477 67.15 62.4361 67.2627 62.1241 67.488C61.8207 67.7133 61.6474 68.0123 61.6041 68.385H60.8241C60.9021 67.8043 61.1577 67.3233 61.5911 66.942C62.0244 66.5607 62.6137 66.37 63.3591 66.37C64.1477 66.37 64.7544 66.5867 65.1791 67.02C65.6124 67.4447 65.8291 68.0513 65.8291 68.84V73H65.1791ZM65.0491 70.14V69.815H63.1641C62.5921 69.815 62.1544 69.9363 61.8511 70.179C61.5564 70.4217 61.4091 70.7337 61.4091 71.115C61.4091 71.4877 61.5347 71.7867 61.7861 72.012C62.0374 72.2373 62.3884 72.35 62.8391 72.35C63.5237 72.35 64.0611 72.155 64.4511 71.765C64.8497 71.3663 65.0491 70.8247 65.0491 70.14ZM68.0472 71.895V67.28H67.0072V66.5H68.0472V64.68H68.8272V66.5H70.4522V67.28H68.8272V71.765C68.8272 72.0683 68.9789 72.22 69.2822 72.22H70.4522V73H69.2172C68.8532 73 68.5672 72.9003 68.3592 72.701C68.1512 72.5017 68.0472 72.233 68.0472 71.895ZM72.1463 69.36H76.6313C76.5966 68.71 76.3713 68.1813 75.9553 67.774C75.5479 67.358 75.0366 67.15 74.4213 67.15C73.7973 67.15 73.2773 67.3493 72.8613 67.748C72.4539 68.138 72.2156 68.6753 72.1463 69.36ZM76.3713 71.18H77.2163C77.0256 71.7173 76.7006 72.1767 76.2413 72.558C75.7906 72.9393 75.1839 73.13 74.4213 73.13C73.5199 73.13 72.7833 72.8223 72.2113 72.207C71.6479 71.5917 71.3663 70.7727 71.3663 69.75C71.3663 68.7273 71.6479 67.9083 72.2113 67.293C72.7833 66.6777 73.5199 66.37 74.4213 66.37C75.2793 66.37 75.9899 66.6733 76.5533 67.28C77.1253 67.878 77.4113 68.658 77.4113 69.62C77.4113 69.75 77.4026 69.8757 77.3853 69.997C77.3766 70.0317 77.3723 70.0793 77.3723 70.14H72.1463C72.2156 70.8073 72.4626 71.3447 72.8873 71.752C73.3119 72.1507 73.8233 72.35 74.4213 72.35C74.8979 72.35 75.3009 72.233 75.6303 71.999C75.9596 71.765 76.2066 71.492 76.3713 71.18Z" fill="white"/>
<path d="M507.21 73V66.175H505.325V64.875H506.82C507.08 64.875 507.21 64.745 507.21 64.485V63.9H508.575V73H507.21ZM515.447 70.959C515.889 70.3697 516.11 69.5333 516.11 68.45C516.11 67.3667 515.889 66.5347 515.447 65.954C515.005 65.3647 514.468 65.07 513.835 65.07C513.202 65.07 512.665 65.3647 512.223 65.954C511.781 66.5347 511.56 67.3667 511.56 68.45C511.56 69.5333 511.781 70.3697 512.223 70.959C512.665 71.5397 513.202 71.83 513.835 71.83C514.468 71.83 515.005 71.5397 515.447 70.959ZM511.248 65.031C511.95 64.1903 512.812 63.77 513.835 63.77C514.858 63.77 515.72 64.1903 516.422 65.031C517.124 65.8717 517.475 67.0113 517.475 68.45C517.475 69.8887 517.124 71.0283 516.422 71.869C515.72 72.7097 514.858 73.13 513.835 73.13C512.812 73.13 511.95 72.7097 511.248 71.869C510.546 71.0283 510.195 69.8887 510.195 68.45C510.195 67.0113 510.546 65.8717 511.248 65.031ZM518.712 69.88V68.71H523.002V69.88H518.712ZM529.488 70.959C529.93 70.3697 530.151 69.5333 530.151 68.45C530.151 67.3667 529.93 66.5347 529.488 65.954C529.046 65.3647 528.509 65.07 527.876 65.07C527.243 65.07 526.706 65.3647 526.264 65.954C525.822 66.5347 525.601 67.3667 525.601 68.45C525.601 69.5333 525.822 70.3697 526.264 70.959C526.706 71.5397 527.243 71.83 527.876 71.83C528.509 71.83 529.046 71.5397 529.488 70.959ZM525.289 65.031C525.991 64.1903 526.853 63.77 527.876 63.77C528.899 63.77 529.761 64.1903 530.463 65.031C531.165 65.8717 531.516 67.0113 531.516 68.45C531.516 69.8887 531.165 71.0283 530.463 71.869C529.761 72.7097 528.899 73.13 527.876 73.13C526.853 73.13 525.991 72.7097 525.289 71.869C524.587 71.0283 524.236 69.8887 524.236 68.45C524.236 67.0113 524.587 65.8717 525.289 65.031ZM532.623 70.4H533.988C533.988 70.7727 534.153 71.1063 534.482 71.401C534.82 71.687 535.24 71.83 535.743 71.83C536.28 71.83 536.696 71.7 536.991 71.44C537.286 71.18 537.433 70.8333 537.433 70.4C537.433 69.9927 537.273 69.6547 536.952 69.386C536.64 69.1087 536.215 68.97 535.678 68.97H535.093V67.735H535.678C536.181 67.735 536.575 67.6093 536.861 67.358C537.156 67.098 537.303 66.7687 537.303 66.37C537.303 65.9973 537.16 65.6897 536.874 65.447C536.597 65.1957 536.22 65.07 535.743 65.07C535.258 65.07 534.863 65.1957 534.56 65.447C534.265 65.6897 534.118 65.9973 534.118 66.37H532.753C532.753 65.642 533.026 65.0267 533.572 64.524C534.127 64.0213 534.85 63.77 535.743 63.77C536.61 63.77 537.312 64.0213 537.849 64.524C538.395 65.0267 538.668 65.642 538.668 66.37C538.668 66.9593 538.451 67.462 538.018 67.878C537.827 68.06 537.611 68.2073 537.368 68.32V68.385C537.637 68.5063 537.875 68.658 538.083 68.84C538.56 69.282 538.798 69.8237 538.798 70.465C538.798 71.2277 538.512 71.8647 537.94 72.376C537.377 72.8787 536.644 73.13 535.743 73.13C534.816 73.13 534.062 72.87 533.481 72.35C532.909 71.8213 532.623 71.1713 532.623 70.4ZM540.027 69.88V68.71H544.317V69.88H540.027ZM545.551 73V71.83L549.295 68.06C549.547 67.8087 549.72 67.5877 549.815 67.397C549.919 67.1977 549.971 66.942 549.971 66.63C549.971 66.136 549.837 65.7547 549.568 65.486C549.308 65.2087 548.944 65.07 548.476 65.07C548.017 65.07 547.631 65.2347 547.319 65.564C547.007 65.8933 546.851 66.3137 546.851 66.825H545.486C545.486 65.915 545.764 65.1783 546.318 64.615C546.873 64.0517 547.592 63.77 548.476 63.77C549.36 63.77 550.067 64.0343 550.595 64.563C551.133 65.083 551.401 65.772 551.401 66.63C551.401 67.124 551.289 67.553 551.063 67.917C550.847 68.281 550.526 68.6753 550.101 69.1L547.566 71.635V71.7H551.531V73H545.551ZM557.951 70.959C558.393 70.3697 558.614 69.5333 558.614 68.45C558.614 67.3667 558.393 66.5347 557.951 65.954C557.509 65.3647 556.971 65.07 556.339 65.07C555.706 65.07 555.169 65.3647 554.727 65.954C554.285 66.5347 554.064 67.3667 554.064 68.45C554.064 69.5333 554.285 70.3697 554.727 70.959C555.169 71.5397 555.706 71.83 556.339 71.83C556.971 71.83 557.509 71.5397 557.951 70.959ZM553.752 65.031C554.454 64.1903 555.316 63.77 556.339 63.77C557.361 63.77 558.224 64.1903 558.926 65.031C559.628 65.8717 559.979 67.0113 559.979 68.45C559.979 69.8887 559.628 71.0283 558.926 71.869C558.224 72.7097 557.361 73.13 556.339 73.13C555.316 73.13 554.454 72.7097 553.752 71.869C553.05 71.0283 552.699 69.8887 552.699 68.45C552.699 67.0113 553.05 65.8717 553.752 65.031ZM561.281 73V71.83L565.025 68.06C565.276 67.8087 565.45 67.5877 565.545 67.397C565.649 67.1977 565.701 66.942 565.701 66.63C565.701 66.136 565.567 65.7547 565.298 65.486C565.038 65.2087 564.674 65.07 564.206 65.07C563.747 65.07 563.361 65.2347 563.049 65.564C562.737 65.8933 562.581 66.3137 562.581 66.825H561.216C561.216 65.915 561.493 65.1783 562.048 64.615C562.603 64.0517 563.322 63.77 564.206 63.77C565.09 63.77 565.796 64.0343 566.325 64.563C566.862 65.083 567.131 65.772 567.131 66.63C567.131 67.124 567.018 67.553 566.793 67.917C566.576 68.281 566.256 68.6753 565.831 69.1L563.296 71.635V71.7H567.261V73H561.281ZM568.363 70.53H569.728C569.806 70.894 569.993 71.2017 570.287 71.453C570.591 71.7043 570.989 71.83 571.483 71.83C572.038 71.83 572.48 71.6653 572.809 71.336C573.139 71.0067 573.303 70.5647 573.303 70.01C573.303 69.49 573.134 69.0697 572.796 68.749C572.467 68.4197 572.029 68.255 571.483 68.255C570.833 68.255 570.335 68.4717 569.988 68.905H568.558L569.078 63.9H574.148V65.2H570.248L569.988 67.41H570.053C570.521 67.1067 571.063 66.955 571.678 66.955C572.536 66.955 573.247 67.2453 573.81 67.826C574.382 68.398 574.668 69.126 574.668 70.01C574.668 70.92 574.369 71.6697 573.771 72.259C573.182 72.8397 572.419 73.13 571.483 73.13C570.972 73.13 570.513 73.0477 570.105 72.883C569.707 72.7183 569.39 72.5017 569.156 72.233C568.922 71.9643 568.74 71.687 568.61 71.401C568.489 71.115 568.407 70.8247 568.363 70.53Z" fill="white"/>
<path d="M21.17 105V95.9H26.89V96.68H21.95V100.06H26.63V100.84H21.95V104.22H26.89V105H21.17ZM28.7714 105V98.5H29.4214L29.5514 99.345H29.6164C29.7464 99.1543 29.9024 98.994 30.0844 98.864C30.5178 98.5347 31.0334 98.37 31.6314 98.37C32.3854 98.37 33.0051 98.6257 33.4904 99.137C33.9844 99.6397 34.2314 100.294 34.2314 101.1V105H33.4514V101.1C33.4514 100.511 33.2738 100.038 32.9184 99.683C32.5718 99.3277 32.1211 99.15 31.5664 99.15C30.9771 99.15 30.4918 99.3363 30.1104 99.709C29.7378 100.082 29.5514 100.545 29.5514 101.1V105H28.7714ZM37.2615 103.648C37.6775 104.116 38.2061 104.35 38.8475 104.35C39.4888 104.35 40.0175 104.116 40.4335 103.648C40.8495 103.18 41.0575 102.547 41.0575 101.75C41.0575 100.953 40.8495 100.32 40.4335 99.852C40.0175 99.384 39.4888 99.15 38.8475 99.15C38.2061 99.15 37.6775 99.384 37.2615 99.852C36.8455 100.32 36.6375 100.953 36.6375 101.75C36.6375 102.547 36.8455 103.18 37.2615 103.648ZM41.1875 105L41.0575 103.96H40.9925C40.4291 104.74 39.6925 105.13 38.7825 105.13C37.9505 105.13 37.2528 104.822 36.6895 104.207C36.1348 103.583 35.8575 102.764 35.8575 101.75C35.8575 100.736 36.1348 99.9213 36.6895 99.306C37.2528 98.682 37.9505 98.37 38.7825 98.37C39.6925 98.37 40.4291 98.76 40.9925 99.54H41.0575V95.9H41.8375V105H41.1875ZM47.8104 104.22H49.9554C51.03 104.22 51.8924 103.882 52.5424 103.206C53.201 102.53 53.5304 101.611 53.5304 100.45C53.5304 99.2887 53.201 98.37 52.5424 97.694C51.8924 97.018 51.03 96.68 49.9554 96.68H47.8104V104.22ZM47.0304 105V95.9H49.9554C51.1947 95.9 52.2304 96.329 53.0624 97.187C53.8944 98.045 54.3104 99.1327 54.3104 100.45C54.3104 101.767 53.8944 102.855 53.0624 103.713C52.2304 104.571 51.1947 105 49.9554 105H47.0304ZM60.2914 105L60.1614 104.09H60.0964C59.9664 104.272 59.7887 104.445 59.5634 104.61C59.078 104.957 58.5407 105.13 57.9514 105.13C57.284 105.13 56.7467 104.944 56.3394 104.571C55.9407 104.198 55.7414 103.713 55.7414 103.115C55.7414 102.5 55.958 102.01 56.3914 101.646C56.8247 101.282 57.453 101.1 58.2764 101.1H60.1614V100.84C60.1614 99.7133 59.598 99.15 58.4714 99.15C57.96 99.15 57.5484 99.2627 57.2364 99.488C56.933 99.7133 56.7597 100.012 56.7164 100.385H55.9364C56.0144 99.8043 56.27 99.3233 56.7034 98.942C57.1367 98.5607 57.726 98.37 58.4714 98.37C59.26 98.37 59.8667 98.5867 60.2914 99.02C60.7247 99.4447 60.9414 100.051 60.9414 100.84V105H60.2914ZM60.1614 102.14V101.815H58.2764C57.7044 101.815 57.2667 101.936 56.9634 102.179C56.6687 102.422 56.5214 102.734 56.5214 103.115C56.5214 103.488 56.647 103.787 56.8984 104.012C57.1497 104.237 57.5007 104.35 57.9514 104.35C58.636 104.35 59.1734 104.155 59.5634 103.765C59.962 103.366 60.1614 102.825 60.1614 102.14ZM63.1595 103.895V99.28H62.1195V98.5H63.1595V96.68H63.9395V98.5H65.5645V99.28H63.9395V103.765C63.9395 104.068 64.0912 104.22 64.3945 104.22H65.5645V105H64.3295C63.9655 105 63.6795 104.9 63.4715 104.701C63.2635 104.502 63.1595 104.233 63.1595 103.895ZM67.2586 101.36H71.7436C71.7089 100.71 71.4836 100.181 71.0676 99.774C70.6602 99.358 70.1489 99.15 69.5336 99.15C68.9096 99.15 68.3896 99.3493 67.9736 99.748C67.5662 100.138 67.3279 100.675 67.2586 101.36ZM71.4836 103.18H72.3286C72.1379 103.717 71.8129 104.177 71.3536 104.558C70.9029 104.939 70.2962 105.13 69.5336 105.13C68.6322 105.13 67.8956 104.822 67.3236 104.207C66.7602 103.592 66.4786 102.773 66.4786 101.75C66.4786 100.727 66.7602 99.9083 67.3236 99.293C67.8956 98.6777 68.6322 98.37 69.5336 98.37C70.3916 98.37 71.1022 98.6733 71.6656 99.28C72.2376 99.878 72.5236 100.658 72.5236 101.62C72.5236 101.75 72.5149 101.876 72.4976 101.997C72.4889 102.032 72.4846 102.079 72.4846 102.14H67.2586C67.3279 102.807 67.5749 103.345 67.9996 103.752C68.4242 104.151 68.9356 104.35 69.5336 104.35C70.0102 104.35 70.4132 104.233 70.7426 103.999C71.0719 103.765 71.3189 103.492 71.4836 103.18Z" fill="white"/>
<path d="M507.902 102.959C508.344 102.37 508.565 101.533 508.565 100.45C508.565 99.3667 508.344 98.5347 507.902 97.954C507.46 97.3647 506.923 97.07 506.29 97.07C505.657 97.07 505.12 97.3647 504.678 97.954C504.236 98.5347 504.015 99.3667 504.015 100.45C504.015 101.533 504.236 102.37 504.678 102.959C505.12 103.54 505.657 103.83 506.29 103.83C506.923 103.83 507.46 103.54 507.902 102.959ZM503.703 97.031C504.405 96.1903 505.267 95.77 506.29 95.77C507.313 95.77 508.175 96.1903 508.877 97.031C509.579 97.8717 509.93 99.0113 509.93 100.45C509.93 101.889 509.579 103.028 508.877 103.869C508.175 104.71 507.313 105.13 506.29 105.13C505.267 105.13 504.405 104.71 503.703 103.869C503.001 103.028 502.65 101.889 502.65 100.45C502.65 99.0113 503.001 97.8717 503.703 97.031ZM512.987 103.31C513.334 103.657 513.767 103.83 514.287 103.83C514.807 103.83 515.24 103.657 515.587 103.31C515.934 102.963 516.107 102.53 516.107 102.01C516.107 101.49 515.934 101.057 515.587 100.71C515.24 100.363 514.807 100.19 514.287 100.19C513.767 100.19 513.334 100.363 512.987 100.71C512.64 101.057 512.467 101.49 512.467 102.01C512.467 102.53 512.64 102.963 512.987 103.31ZM511.622 100.19L514.352 95.9H515.912L513.897 99.02H513.962L514.131 98.994C514.339 98.968 514.478 98.955 514.547 98.955C515.362 98.955 516.051 99.254 516.614 99.852C517.186 100.441 517.472 101.161 517.472 102.01C517.472 102.894 517.169 103.635 516.562 104.233C515.955 104.831 515.197 105.13 514.287 105.13C513.377 105.13 512.619 104.831 512.012 104.233C511.405 103.635 511.102 102.894 511.102 102.01C511.102 101.351 511.275 100.745 511.622 100.19ZM518.581 101.88V100.71H522.871V101.88H518.581ZM529.357 102.959C529.799 102.37 530.02 101.533 530.02 100.45C530.02 99.3667 529.799 98.5347 529.357 97.954C528.915 97.3647 528.378 97.07 527.745 97.07C527.112 97.07 526.575 97.3647 526.133 97.954C525.691 98.5347 525.47 99.3667 525.47 100.45C525.47 101.533 525.691 102.37 526.133 102.959C526.575 103.54 527.112 103.83 527.745 103.83C528.378 103.83 528.915 103.54 529.357 102.959ZM525.158 97.031C525.86 96.1903 526.722 95.77 527.745 95.77C528.768 95.77 529.63 96.1903 530.332 97.031C531.034 97.8717 531.385 99.0113 531.385 100.45C531.385 101.889 531.034 103.028 530.332 103.869C529.63 104.71 528.768 105.13 527.745 105.13C526.722 105.13 525.86 104.71 525.158 103.869C524.456 103.028 524.105 101.889 524.105 100.45C524.105 99.0113 524.456 97.8717 525.158 97.031ZM534.442 100.19C534.789 100.537 535.222 100.71 535.742 100.71C536.262 100.71 536.695 100.537 537.042 100.19C537.389 99.8433 537.562 99.41 537.562 98.89C537.562 98.37 537.389 97.9367 537.042 97.59C536.695 97.2433 536.262 97.07 535.742 97.07C535.222 97.07 534.789 97.2433 534.442 97.59C534.095 97.9367 533.922 98.37 533.922 98.89C533.922 99.41 534.095 99.8433 534.442 100.19ZM534.117 105L536.132 101.88H536.067L535.898 101.919C535.759 101.936 535.621 101.945 535.482 101.945C534.667 101.945 533.974 101.65 533.402 101.061C532.839 100.463 532.557 99.7393 532.557 98.89C532.557 98.006 532.86 97.265 533.467 96.667C534.074 96.069 534.832 95.77 535.742 95.77C536.652 95.77 537.41 96.069 538.017 96.667C538.624 97.265 538.927 98.006 538.927 98.89C538.927 99.5487 538.754 100.155 538.407 100.71L535.677 105H534.117ZM540.036 101.88V100.71H544.326V101.88H540.036ZM545.56 105V103.83L549.304 100.06C549.555 99.8087 549.729 99.5877 549.824 99.397C549.928 99.1977 549.98 98.942 549.98 98.63C549.98 98.136 549.846 97.7547 549.577 97.486C549.317 97.2087 548.953 97.07 548.485 97.07C548.026 97.07 547.64 97.2347 547.328 97.564C547.016 97.8933 546.86 98.3137 546.86 98.825H545.495C545.495 97.915 545.772 97.1783 546.327 96.615C546.882 96.0517 547.601 95.77 548.485 95.77C549.369 95.77 550.075 96.0343 550.604 96.563C551.141 97.083 551.41 97.772 551.41 98.63C551.41 99.124 551.297 99.553 551.072 99.917C550.855 100.281 550.535 100.675 550.11 101.1L547.575 103.635V103.7H551.54V105H545.56ZM557.96 102.959C558.402 102.37 558.623 101.533 558.623 100.45C558.623 99.3667 558.402 98.5347 557.96 97.954C557.518 97.3647 556.98 97.07 556.348 97.07C555.715 97.07 555.178 97.3647 554.736 97.954C554.294 98.5347 554.073 99.3667 554.073 100.45C554.073 101.533 554.294 102.37 554.736 102.959C555.178 103.54 555.715 103.83 556.348 103.83C556.98 103.83 557.518 103.54 557.96 102.959ZM553.761 97.031C554.463 96.1903 555.325 95.77 556.348 95.77C557.37 95.77 558.233 96.1903 558.935 97.031C559.637 97.8717 559.988 99.0113 559.988 100.45C559.988 101.889 559.637 103.028 558.935 103.869C558.233 104.71 557.37 105.13 556.348 105.13C555.325 105.13 554.463 104.71 553.761 103.869C553.059 103.028 552.708 101.889 552.708 100.45C552.708 99.0113 553.059 97.8717 553.761 97.031ZM561.29 105V103.83L565.034 100.06C565.285 99.8087 565.458 99.5877 565.554 99.397C565.658 99.1977 565.71 98.942 565.71 98.63C565.71 98.136 565.575 97.7547 565.307 97.486C565.047 97.2087 564.683 97.07 564.215 97.07C563.755 97.07 563.37 97.2347 563.058 97.564C562.746 97.8933 562.59 98.3137 562.59 98.825H561.225C561.225 97.915 561.502 97.1783 562.057 96.615C562.611 96.0517 563.331 95.77 564.215 95.77C565.099 95.77 565.805 96.0343 566.334 96.563C566.871 97.083 567.14 97.772 567.14 98.63C567.14 99.124 567.027 99.553 566.802 99.917C566.585 100.281 566.264 100.675 565.84 101.1L563.305 103.635V103.7H567.27V105H561.29ZM568.372 102.53H569.737C569.815 102.894 570.001 103.202 570.296 103.453C570.599 103.704 570.998 103.83 571.492 103.83C572.047 103.83 572.489 103.665 572.818 103.336C573.147 103.007 573.312 102.565 573.312 102.01C573.312 101.49 573.143 101.07 572.805 100.749C572.476 100.42 572.038 100.255 571.492 100.255C570.842 100.255 570.344 100.472 569.997 100.905H568.567L569.087 95.9H574.157V97.2H570.257L569.997 99.41H570.062C570.53 99.1067 571.072 98.955 571.687 98.955C572.545 98.955 573.256 99.2453 573.819 99.826C574.391 100.398 574.677 101.126 574.677 102.01C574.677 102.92 574.378 103.67 573.78 104.259C573.191 104.84 572.428 105.13 571.492 105.13C570.981 105.13 570.521 105.048 570.114 104.883C569.715 104.718 569.399 104.502 569.165 104.233C568.931 103.964 568.749 103.687 568.619 103.401C568.498 103.115 568.415 102.825 568.372 102.53Z" fill="white"/>
<path d="M20.065 137L23.51 127.9H24.68L28.125 137H27.345L26.409 134.53H21.781L20.845 137H20.065ZM22.08 133.75H26.11L24.225 128.745H23.965L22.08 133.75ZM29.2285 137V130.5H29.8785L30.0085 131.345H30.0735C30.1948 131.172 30.3421 131.011 30.5155 130.864C30.9141 130.535 31.3518 130.37 31.8285 130.37C32.4525 130.37 32.9638 130.578 33.3625 130.994C33.5358 131.185 33.6745 131.388 33.7785 131.605H33.8435C33.9561 131.388 34.1165 131.185 34.3245 130.994C34.7925 130.578 35.3255 130.37 35.9235 130.37C36.5821 130.37 37.1238 130.604 37.5485 131.072C37.9818 131.531 38.1985 132.142 38.1985 132.905V137H37.4185V132.905C37.4185 132.359 37.2755 131.93 36.9895 131.618C36.7035 131.306 36.3265 131.15 35.8585 131.15C35.3385 131.15 34.9138 131.315 34.5845 131.644C34.2638 131.965 34.1035 132.385 34.1035 132.905V137H33.3235V132.905C33.3235 132.359 33.1805 131.93 32.8945 131.618C32.6085 131.306 32.2315 131.15 31.7635 131.15C31.2781 131.15 30.8621 131.323 30.5155 131.67C30.1775 132.008 30.0085 132.42 30.0085 132.905V137H29.2285ZM45.0444 136.181C44.4551 136.814 43.7314 137.13 42.8734 137.13C42.0154 137.13 41.2917 136.814 40.7024 136.181C40.1131 135.548 39.8184 134.738 39.8184 133.75C39.8184 132.762 40.1131 131.952 40.7024 131.319C41.2917 130.686 42.0154 130.37 42.8734 130.37C43.7314 130.37 44.4551 130.686 45.0444 131.319C45.6337 131.952 45.9284 132.762 45.9284 133.75C45.9284 134.738 45.6337 135.548 45.0444 136.181ZM44.4854 135.622C44.9274 135.137 45.1484 134.513 45.1484 133.75C45.1484 132.987 44.9274 132.363 44.4854 131.878C44.0434 131.393 43.5061 131.15 42.8734 131.15C42.2407 131.15 41.7034 131.393 41.2614 131.878C40.8194 132.363 40.5984 132.987 40.5984 133.75C40.5984 134.513 40.8194 135.137 41.2614 135.622C41.7034 136.107 42.2407 136.35 42.8734 136.35C43.5061 136.35 44.0434 136.107 44.4854 135.622ZM47.5478 134.4V130.5H48.3278V134.4C48.3278 134.989 48.5011 135.462 48.8478 135.817C49.2031 136.172 49.6581 136.35 50.2128 136.35C50.8021 136.35 51.2831 136.164 51.6558 135.791C52.0371 135.418 52.2278 134.955 52.2278 134.4V130.5H53.0078V137H52.3578L52.2278 136.155H52.1628C52.0415 136.346 51.8855 136.51 51.6948 136.649C51.2701 136.97 50.7545 137.13 50.1478 137.13C49.3938 137.13 48.7698 136.879 48.2758 136.376C47.7905 135.865 47.5478 135.206 47.5478 134.4ZM55.0888 137V130.5H55.7388L55.8688 131.345H55.9338C56.0638 131.154 56.2198 130.994 56.4018 130.864C56.8352 130.535 57.3508 130.37 57.9488 130.37C58.7028 130.37 59.3225 130.626 59.8078 131.137C60.3018 131.64 60.5488 132.294 60.5488 133.1V137H59.7688V133.1C59.7688 132.511 59.5912 132.038 59.2358 131.683C58.8892 131.328 58.4385 131.15 57.8838 131.15C57.2945 131.15 56.8092 131.336 56.4278 131.709C56.0552 132.082 55.8688 132.545 55.8688 133.1V137H55.0888ZM62.7659 135.895V131.28H61.7259V130.5H62.7659V128.68H63.5459V130.5H65.1709V131.28H63.5459V135.765C63.5459 136.068 63.6976 136.22 64.0009 136.22H65.1709V137H63.9359C63.5719 137 63.2859 136.9 63.0779 136.701C62.8699 136.502 62.7659 136.233 62.7659 135.895Z" fill="white"/>
<path d="M526.52 133.685V132.45H529.445C530.156 132.45 530.611 132.103 530.81 131.41H526.52V130.175H530.81C530.611 129.482 530.156 129.135 529.445 129.135H526.52V127.9H533.02V129.135H531.785C531.837 129.204 531.885 129.287 531.928 129.382C531.997 129.512 532.084 129.776 532.188 130.175H533.02V131.41H532.188C532.049 132.129 531.75 132.688 531.291 133.087C530.832 133.486 530.26 133.685 529.575 133.685H529.185L532.435 137H530.68L527.43 133.685H526.52ZM535.624 137V130.175H533.739V128.875H535.234C535.494 128.875 535.624 128.745 535.624 128.485V127.9H536.989V137H535.624ZM543.861 134.959C544.303 134.37 544.524 133.533 544.524 132.45C544.524 131.367 544.303 130.535 543.861 129.954C543.419 129.365 542.882 129.07 542.249 129.07C541.616 129.07 541.079 129.365 540.637 129.954C540.195 130.535 539.974 131.367 539.974 132.45C539.974 133.533 540.195 134.37 540.637 134.959C541.079 135.54 541.616 135.83 542.249 135.83C542.882 135.83 543.419 135.54 543.861 134.959ZM539.662 129.031C540.364 128.19 541.226 127.77 542.249 127.77C543.272 127.77 544.134 128.19 544.836 129.031C545.538 129.872 545.889 131.011 545.889 132.45C545.889 133.889 545.538 135.028 544.836 135.869C544.134 136.71 543.272 137.13 542.249 137.13C541.226 137.13 540.364 136.71 539.662 135.869C538.96 135.028 538.609 133.889 538.609 132.45C538.609 131.011 538.96 129.872 539.662 129.031ZM547.126 138.105L547.386 135.505H548.881L548.166 138.105H547.126ZM555.503 134.959C555.945 134.37 556.166 133.533 556.166 132.45C556.166 131.367 555.945 130.535 555.503 129.954C555.061 129.365 554.523 129.07 553.891 129.07C553.258 129.07 552.721 129.365 552.279 129.954C551.837 130.535 551.616 131.367 551.616 132.45C551.616 133.533 551.837 134.37 552.279 134.959C552.721 135.54 553.258 135.83 553.891 135.83C554.523 135.83 555.061 135.54 555.503 134.959ZM551.304 129.031C552.006 128.19 552.868 127.77 553.891 127.77C554.913 127.77 555.776 128.19 556.478 129.031C557.18 129.872 557.531 131.011 557.531 132.45C557.531 133.889 557.18 135.028 556.478 135.869C555.776 136.71 554.913 137.13 553.891 137.13C552.868 137.13 552.006 136.71 551.304 135.869C550.602 135.028 550.251 133.889 550.251 132.45C550.251 131.011 550.602 129.872 551.304 129.031ZM564.085 134.959C564.527 134.37 564.748 133.533 564.748 132.45C564.748 131.367 564.527 130.535 564.085 129.954C563.643 129.365 563.105 129.07 562.473 129.07C561.84 129.07 561.303 129.365 560.861 129.954C560.419 130.535 560.198 131.367 560.198 132.45C560.198 133.533 560.419 134.37 560.861 134.959C561.303 135.54 561.84 135.83 562.473 135.83C563.105 135.83 563.643 135.54 564.085 134.959ZM559.886 129.031C560.588 128.19 561.45 127.77 562.473 127.77C563.495 127.77 564.358 128.19 565.06 129.031C565.762 129.872 566.113 131.011 566.113 132.45C566.113 133.889 565.762 135.028 565.06 135.869C564.358 136.71 563.495 137.13 562.473 137.13C561.45 137.13 560.588 136.71 559.886 135.869C559.184 135.028 558.833 133.889 558.833 132.45C558.833 131.011 559.184 129.872 559.886 129.031ZM572.667 134.959C573.109 134.37 573.33 133.533 573.33 132.45C573.33 131.367 573.109 130.535 572.667 129.954C572.225 129.365 571.687 129.07 571.055 129.07C570.422 129.07 569.885 129.365 569.443 129.954C569.001 130.535 568.78 131.367 568.78 132.45C568.78 133.533 569.001 134.37 569.443 134.959C569.885 135.54 570.422 135.83 571.055 135.83C571.687 135.83 572.225 135.54 572.667 134.959ZM568.468 129.031C569.17 128.19 570.032 127.77 571.055 127.77C572.077 127.77 572.94 128.19 573.642 129.031C574.344 129.872 574.695 131.011 574.695 132.45C574.695 133.889 574.344 135.028 573.642 135.869C572.94 136.71 572.077 137.13 571.055 137.13C570.032 137.13 569.17 136.71 568.468 135.869C567.766 135.028 567.415 133.889 567.415 132.45C567.415 131.011 567.766 129.872 568.468 129.031Z" fill="white"/>
<path d="M21.04 165.425V159.9H21.82V165.425C21.82 166.3 22.0757 167.007 22.587 167.544C23.107 168.081 23.7613 168.35 24.55 168.35C25.3387 168.35 25.9887 168.081 26.5 167.544C27.02 167.007 27.28 166.3 27.28 165.425V159.9H28.06V165.425C28.06 166.526 27.7307 167.418 27.072 168.103C26.4133 168.788 25.5727 169.13 24.55 169.13C23.5273 169.13 22.6867 168.788 22.028 168.103C21.3693 167.418 21.04 166.526 21.04 165.425ZM31.5465 167.648C31.9625 168.116 32.4912 168.35 33.1325 168.35C33.7739 168.35 34.3025 168.116 34.7185 167.648C35.1345 167.18 35.3425 166.547 35.3425 165.75C35.3425 164.953 35.1345 164.32 34.7185 163.852C34.3025 163.384 33.7739 163.15 33.1325 163.15C32.4912 163.15 31.9625 163.384 31.5465 163.852C31.1305 164.32 30.9225 164.953 30.9225 165.75C30.9225 166.547 31.1305 167.18 31.5465 167.648ZM30.1425 171.6V162.5H30.7925L30.9225 163.54H30.9875C31.1609 163.263 31.4382 162.998 31.8195 162.747C32.2009 162.496 32.6602 162.37 33.1975 162.37C34.0295 162.37 34.7229 162.682 35.2775 163.306C35.8409 163.921 36.1225 164.736 36.1225 165.75C36.1225 166.764 35.8409 167.583 35.2775 168.207C34.7229 168.822 34.0295 169.13 33.1975 169.13C32.6602 169.13 32.2009 169.004 31.8195 168.753C31.4382 168.502 31.1609 168.237 30.9875 167.96H30.9225V171.6H30.1425ZM42.362 166.855H43.207C43.0424 167.574 42.7044 168.133 42.193 168.532C41.6904 168.931 41.075 169.13 40.347 169.13C39.4457 169.13 38.709 168.822 38.137 168.207C37.5737 167.592 37.292 166.773 37.292 165.75C37.292 164.727 37.5737 163.908 38.137 163.293C38.709 162.678 39.4457 162.37 40.347 162.37C41.0664 162.37 41.6817 162.569 42.193 162.968C42.7044 163.358 43.0424 163.895 43.207 164.58H42.362C42.2667 164.233 42.05 163.908 41.712 163.605C41.3827 163.302 40.9277 163.15 40.347 163.15C39.6797 163.15 39.1337 163.384 38.709 163.852C38.2844 164.32 38.072 164.953 38.072 165.75C38.072 166.547 38.2844 167.18 38.709 167.648C39.1337 168.116 39.6797 168.35 40.347 168.35C40.919 168.35 41.374 168.19 41.712 167.869C42.05 167.548 42.2667 167.21 42.362 166.855ZM49.5385 168.181C48.9492 168.814 48.2255 169.13 47.3675 169.13C46.5095 169.13 45.7859 168.814 45.1965 168.181C44.6072 167.548 44.3125 166.738 44.3125 165.75C44.3125 164.762 44.6072 163.952 45.1965 163.319C45.7859 162.686 46.5095 162.37 47.3675 162.37C48.2255 162.37 48.9492 162.686 49.5385 163.319C50.1279 163.952 50.4225 164.762 50.4225 165.75C50.4225 166.738 50.1279 167.548 49.5385 168.181ZM48.9795 167.622C49.4215 167.137 49.6425 166.513 49.6425 165.75C49.6425 164.987 49.4215 164.363 48.9795 163.878C48.5375 163.393 48.0002 163.15 47.3675 163.15C46.7349 163.15 46.1975 163.393 45.7555 163.878C45.3135 164.363 45.0925 164.987 45.0925 165.75C45.0925 166.513 45.3135 167.137 45.7555 167.622C46.1975 168.107 46.7349 168.35 47.3675 168.35C48.0002 168.35 48.5375 168.107 48.9795 167.622ZM52.042 169V162.5H52.692L52.822 163.345H52.887C53.0083 163.172 53.1556 163.011 53.329 162.864C53.7276 162.535 54.1653 162.37 54.642 162.37C55.266 162.37 55.7773 162.578 56.176 162.994C56.3493 163.185 56.488 163.388 56.592 163.605H56.657C56.7696 163.388 56.93 163.185 57.138 162.994C57.606 162.578 58.139 162.37 58.737 162.37C59.3956 162.37 59.9373 162.604 60.362 163.072C60.7953 163.531 61.012 164.142 61.012 164.905V169H60.232V164.905C60.232 164.359 60.089 163.93 59.803 163.618C59.517 163.306 59.14 163.15 58.672 163.15C58.152 163.15 57.7273 163.315 57.398 163.644C57.0773 163.965 56.917 164.385 56.917 164.905V169H56.137V164.905C56.137 164.359 55.994 163.93 55.708 163.618C55.422 163.306 55.045 163.15 54.577 163.15C54.0916 163.15 53.6756 163.323 53.329 163.67C52.991 164.008 52.822 164.42 52.822 164.905V169H52.042ZM63.1519 169V162.5H63.9319V169H63.1519ZM63.0869 161.005V160.095H63.9969V161.005H63.0869ZM66.083 169V162.5H66.733L66.863 163.345H66.928C67.058 163.154 67.214 162.994 67.396 162.864C67.8293 162.535 68.345 162.37 68.943 162.37C69.697 162.37 70.3166 162.626 70.802 163.137C71.296 163.64 71.543 164.294 71.543 165.1V169H70.763V165.1C70.763 164.511 70.5853 164.038 70.23 163.683C69.8833 163.328 69.4326 163.15 68.878 163.15C68.2886 163.15 67.8033 163.336 67.422 163.709C67.0493 164.082 66.863 164.545 66.863 165.1V169H66.083ZM74.573 167.284C74.9977 167.735 75.5263 167.96 76.159 167.96C76.7917 167.96 77.316 167.735 77.732 167.284C78.1567 166.833 78.369 166.257 78.369 165.555C78.369 164.853 78.1567 164.277 77.732 163.826C77.316 163.375 76.7917 163.15 76.159 163.15C75.5263 163.15 74.9977 163.375 74.573 163.826C74.157 164.277 73.949 164.853 73.949 165.555C73.949 166.257 74.157 166.833 74.573 167.284ZM73.494 169.52H74.274C74.3087 169.936 74.4993 170.278 74.846 170.547C75.1927 170.816 75.6737 170.95 76.289 170.95C76.9303 170.95 77.4373 170.772 77.81 170.417C78.1827 170.07 78.369 169.598 78.369 169V167.57H78.304C77.7407 168.35 77.004 168.74 76.094 168.74C75.2707 168.74 74.5773 168.441 74.014 167.843C73.4507 167.245 73.169 166.482 73.169 165.555C73.169 164.628 73.4507 163.865 74.014 163.267C74.5773 162.669 75.2707 162.37 76.094 162.37C77.004 162.37 77.7407 162.76 78.304 163.54H78.369L78.499 162.5H79.149V169C79.149 169.815 78.889 170.473 78.369 170.976C77.8577 171.479 77.1643 171.73 76.289 171.73C75.4743 171.73 74.8157 171.513 74.313 171.08C73.819 170.655 73.546 170.135 73.494 169.52ZM84.2784 169V159.9H85.0584V169H84.2784ZM87.2714 169V162.5H87.9214L88.0514 163.345H88.1164C88.2464 163.154 88.4024 162.994 88.5844 162.864C89.0178 162.535 89.5334 162.37 90.1314 162.37C90.8854 162.37 91.5051 162.626 91.9904 163.137C92.4844 163.64 92.7314 164.294 92.7314 165.1V169H91.9514V165.1C91.9514 164.511 91.7738 164.038 91.4184 163.683C91.0718 163.328 90.6211 163.15 90.0664 163.15C89.4771 163.15 88.9918 163.336 88.6104 163.709C88.2378 164.082 88.0514 164.545 88.0514 165.1V169H87.2714ZM96.0536 169L93.6486 162.5H94.4286L96.5086 168.155H96.7686L98.8486 162.5H99.6286L97.2236 169H96.0536ZM105.449 168.181C104.859 168.814 104.136 169.13 103.278 169.13C102.42 169.13 101.696 168.814 101.107 168.181C100.517 167.548 100.223 166.738 100.223 165.75C100.223 164.762 100.517 163.952 101.107 163.319C101.696 162.686 102.42 162.37 103.278 162.37C104.136 162.37 104.859 162.686 105.449 163.319C106.038 163.952 106.333 164.762 106.333 165.75C106.333 166.738 106.038 167.548 105.449 168.181ZM104.89 167.622C105.332 167.137 105.553 166.513 105.553 165.75C105.553 164.987 105.332 164.363 104.89 163.878C104.448 163.393 103.91 163.15 103.278 163.15C102.645 163.15 102.108 163.393 101.666 163.878C101.224 164.363 101.003 164.987 101.003 165.75C101.003 166.513 101.224 167.137 101.666 167.622C102.108 168.107 102.645 168.35 103.278 168.35C103.91 168.35 104.448 168.107 104.89 167.622ZM108.017 169V162.5H108.797V169H108.017ZM107.952 161.005V160.095H108.862V161.005H107.952ZM115.563 166.855H116.408C116.244 167.574 115.906 168.133 115.394 168.532C114.892 168.931 114.276 169.13 113.548 169.13C112.647 169.13 111.91 168.822 111.338 168.207C110.775 167.592 110.493 166.773 110.493 165.75C110.493 164.727 110.775 163.908 111.338 163.293C111.91 162.678 112.647 162.37 113.548 162.37C114.268 162.37 114.883 162.569 115.394 162.968C115.906 163.358 116.244 163.895 116.408 164.58H115.563C115.468 164.233 115.251 163.908 114.913 163.605C114.584 163.302 114.129 163.15 113.548 163.15C112.881 163.15 112.335 163.384 111.91 163.852C111.486 164.32 111.273 164.953 111.273 165.75C111.273 166.547 111.486 167.18 111.91 167.648C112.335 168.116 112.881 168.35 113.548 168.35C114.12 168.35 114.575 168.19 114.913 167.869C115.251 167.548 115.468 167.21 115.563 166.855ZM118.294 165.36H122.779C122.744 164.71 122.519 164.181 122.103 163.774C121.695 163.358 121.184 163.15 120.569 163.15C119.945 163.15 119.425 163.349 119.009 163.748C118.601 164.138 118.363 164.675 118.294 165.36ZM122.519 167.18H123.364C123.173 167.717 122.848 168.177 122.389 168.558C121.938 168.939 121.331 169.13 120.569 169.13C119.667 169.13 118.931 168.822 118.359 168.207C117.795 167.592 117.514 166.773 117.514 165.75C117.514 164.727 117.795 163.908 118.359 163.293C118.931 162.678 119.667 162.37 120.569 162.37C121.427 162.37 122.137 162.673 122.701 163.28C123.273 163.878 123.559 164.658 123.559 165.62C123.559 165.75 123.55 165.876 123.533 165.997C123.524 166.032 123.52 166.079 123.52 166.14H118.294C118.363 166.807 118.61 167.345 119.035 167.752C119.459 168.151 119.971 168.35 120.569 168.35C121.045 168.35 121.448 168.233 121.778 167.999C122.107 167.765 122.354 167.492 122.519 167.18Z" fill="white"/>
<path d="M493.975 169V159.9H498.005C498.75 159.9 499.37 160.147 499.864 160.641C500.358 161.126 500.605 161.724 500.605 162.435C500.605 163.007 500.44 163.501 500.111 163.917C499.981 164.082 499.821 164.238 499.63 164.385V164.45C499.838 164.571 500.02 164.727 500.176 164.918C500.549 165.36 500.735 165.876 500.735 166.465C500.735 167.184 500.488 167.787 499.994 168.272C499.509 168.757 498.902 169 498.174 169H493.975ZM495.34 163.865H497.94C498.304 163.865 498.612 163.735 498.863 163.475C499.114 163.215 499.24 162.89 499.24 162.5C499.24 162.11 499.114 161.785 498.863 161.525C498.612 161.265 498.304 161.135 497.94 161.135H495.34V163.865ZM495.34 167.765H498.07C498.434 167.765 498.742 167.635 498.993 167.375C499.244 167.115 499.37 166.79 499.37 166.4C499.37 166.01 499.244 165.685 498.993 165.425C498.742 165.165 498.434 165.035 498.07 165.035H495.34V167.765ZM502.3 169V162.5H503.6V169H502.3ZM502.235 161.265V159.9H503.665V161.265H502.235ZM505.361 169V159.9H506.661V169H505.361ZM508.484 169V159.9H509.784V169H508.484ZM516.123 167.362C516.496 167.761 516.964 167.96 517.527 167.96C518.09 167.96 518.554 167.761 518.918 167.362C519.291 166.955 519.477 166.417 519.477 165.75C519.477 165.083 519.291 164.55 518.918 164.151C518.554 163.744 518.09 163.54 517.527 163.54C516.964 163.54 516.496 163.744 516.123 164.151C515.759 164.55 515.577 165.083 515.577 165.75C515.577 166.417 515.759 166.955 516.123 167.362ZM519.854 168.194C519.247 168.818 518.472 169.13 517.527 169.13C516.582 169.13 515.802 168.818 515.187 168.194C514.58 167.57 514.277 166.755 514.277 165.75C514.277 164.745 514.58 163.93 515.187 163.306C515.802 162.682 516.582 162.37 517.527 162.37C518.472 162.37 519.247 162.682 519.854 163.306C520.469 163.93 520.777 164.745 520.777 165.75C520.777 166.755 520.469 167.57 519.854 168.194ZM522.143 169V162.5H523.313L523.443 163.15H523.508C523.655 163.003 523.816 162.873 523.989 162.76C524.405 162.5 524.873 162.37 525.393 162.37C526.182 162.37 526.81 162.617 527.278 163.111C527.755 163.596 527.993 164.259 527.993 165.1V169H526.693V165.1C526.693 164.675 526.541 164.311 526.238 164.008C525.943 163.696 525.575 163.54 525.133 163.54C524.656 163.54 524.253 163.696 523.924 164.008C523.603 164.311 523.443 164.675 523.443 165.1V169H522.143ZM532.81 169V159.9H535.15L537.555 167.05H537.815L540.22 159.9H542.56V169H541.195V162.045H540.935L538.595 169H536.775L534.435 162.045H534.175V169H532.81ZM548.61 169L548.48 168.285H548.415C548.285 168.45 548.129 168.593 547.947 168.714C547.531 168.991 547.037 169.13 546.465 169.13C545.754 169.13 545.187 168.944 544.762 168.571C544.337 168.198 544.125 167.713 544.125 167.115C544.125 166.448 544.346 165.923 544.788 165.542C545.239 165.161 545.906 164.97 546.79 164.97H548.415V164.84C548.415 164.415 548.294 164.082 548.051 163.839C547.808 163.596 547.475 163.475 547.05 163.475C546.634 163.475 546.313 163.57 546.088 163.761C545.863 163.943 545.728 164.151 545.685 164.385H544.385C544.42 163.813 544.675 163.336 545.152 162.955C545.629 162.565 546.261 162.37 547.05 162.37C547.891 162.37 548.545 162.591 549.013 163.033C549.481 163.475 549.715 164.077 549.715 164.84V169H548.61ZM548.415 166.27V166.01H546.855C546.378 166.01 546.019 166.105 545.776 166.296C545.542 166.487 545.425 166.738 545.425 167.05C545.425 167.353 545.525 167.592 545.724 167.765C545.923 167.938 546.214 168.025 546.595 168.025C547.184 168.025 547.635 167.873 547.947 167.57C548.259 167.258 548.415 166.825 548.415 166.27ZM551.023 171.6V170.43H552.323C552.436 170.43 552.531 170.387 552.609 170.3C552.687 170.222 552.739 170.135 552.765 170.04L552.973 169.455L550.308 162.5H551.673L553.558 167.44H553.818L555.508 162.5H556.873L554.013 170.495C553.874 170.876 553.684 171.154 553.441 171.327C553.207 171.509 552.856 171.6 552.388 171.6H551.023ZM560.055 166.4H561.42C561.42 166.773 561.584 167.106 561.914 167.401C562.252 167.687 562.672 167.83 563.175 167.83C563.712 167.83 564.128 167.7 564.423 167.44C564.717 167.18 564.865 166.833 564.865 166.4C564.865 165.993 564.704 165.655 564.384 165.386C564.072 165.109 563.647 164.97 563.11 164.97H562.525V163.735H563.11C563.612 163.735 564.007 163.609 564.293 163.358C564.587 163.098 564.735 162.769 564.735 162.37C564.735 161.997 564.592 161.69 564.306 161.447C564.028 161.196 563.651 161.07 563.175 161.07C562.689 161.07 562.295 161.196 561.992 161.447C561.697 161.69 561.55 161.997 561.55 162.37H560.185C560.185 161.642 560.458 161.027 561.004 160.524C561.558 160.021 562.282 159.77 563.175 159.77C564.041 159.77 564.743 160.021 565.281 160.524C565.827 161.027 566.1 161.642 566.1 162.37C566.1 162.959 565.883 163.462 565.45 163.878C565.259 164.06 565.042 164.207 564.8 164.32V164.385C565.068 164.506 565.307 164.658 565.515 164.84C565.991 165.282 566.23 165.824 566.23 166.465C566.23 167.228 565.944 167.865 565.372 168.376C564.808 168.879 564.076 169.13 563.175 169.13C562.247 169.13 561.493 168.87 560.913 168.35C560.341 167.821 560.055 167.171 560.055 166.4ZM572.776 166.959C573.218 166.37 573.439 165.533 573.439 164.45C573.439 163.367 573.218 162.535 572.776 161.954C572.334 161.365 571.797 161.07 571.164 161.07C570.531 161.07 569.994 161.365 569.552 161.954C569.11 162.535 568.889 163.367 568.889 164.45C568.889 165.533 569.11 166.37 569.552 166.959C569.994 167.54 570.531 167.83 571.164 167.83C571.797 167.83 572.334 167.54 572.776 166.959ZM568.577 161.031C569.279 160.19 570.141 159.77 571.164 159.77C572.187 159.77 573.049 160.19 573.751 161.031C574.453 161.872 574.804 163.011 574.804 164.45C574.804 165.889 574.453 167.028 573.751 167.869C573.049 168.71 572.187 169.13 571.164 169.13C570.141 169.13 569.279 168.71 568.577 167.869C567.875 167.028 567.524 165.889 567.524 164.45C567.524 163.011 567.875 161.872 568.577 161.031Z" fill="white"/>
<rect x="20" y="188" width="556" height="40" rx="4" fill="#F08B32"/>
<g clip-path="url(#clip0_3550_106517)">
<path d="M231.771 202.23C230.694 201.152 228.814 201.152 227.738 202.23L221.161 208.807C220.798 209.17 220.537 209.622 220.405 210.118L219.401 213.888C219.347 214.088 219.404 214.303 219.551 214.45C219.662 214.561 219.811 214.62 219.964 214.62C220.014 214.62 220.064 214.615 220.115 214.601L223.884 213.596C224.38 213.464 224.833 213.203 225.195 212.84L231.772 206.264C232.311 205.726 232.607 205.008 232.607 204.246C232.607 203.485 232.311 202.768 231.772 202.229L231.771 202.23Z" fill="white"/>
<path d="M232.124 214.418H227.457C226.974 214.418 226.582 214.026 226.582 213.543C226.582 213.06 226.974 212.668 227.457 212.668H232.124C232.607 212.668 232.999 213.06 232.999 213.543C232.999 214.026 232.607 214.418 232.124 214.418Z" fill="white"/>
</g>
<path d="M238.05 213V203.2H244.49V204.6H239.52V207.4H244.21V208.8H239.52V211.6H244.49V213H238.05ZM251.418 213L251.278 212.16H251.208C250.713 212.813 249.99 213.14 249.038 213.14C248.104 213.14 247.334 212.809 246.728 212.146C246.121 211.483 245.818 210.601 245.818 209.5C245.818 208.399 246.121 207.517 246.728 206.854C247.334 206.191 248.104 205.86 249.038 205.86C249.448 205.86 249.822 205.935 250.158 206.084C250.503 206.224 250.727 206.345 250.83 206.448C250.932 206.541 251.058 206.672 251.208 206.84H251.278V203.2H252.678V213H251.418ZM247.792 211.222C248.184 211.661 248.669 211.88 249.248 211.88C249.826 211.88 250.307 211.661 250.69 211.222C251.082 210.783 251.278 210.209 251.278 209.5C251.278 208.791 251.082 208.217 250.69 207.778C250.307 207.339 249.826 207.12 249.248 207.12C248.669 207.12 248.184 207.339 247.792 207.778C247.409 208.217 247.218 208.791 247.218 209.5C247.218 210.209 247.409 210.783 247.792 211.222ZM254.562 213V206H255.962V213H254.562ZM254.492 204.67V203.2H256.032V204.67H254.492ZM258.349 211.53V207.33H257.229V206H258.349V204.04H259.749V206H261.359V207.33H259.749V211.32C259.749 211.6 259.889 211.74 260.169 211.74H261.359V213H259.889C259.394 213 259.012 212.869 258.741 212.608C258.48 212.347 258.349 211.987 258.349 211.53ZM266.337 213V203.2H270.747C271.568 203.2 272.25 203.494 272.791 204.082C273.342 204.661 273.617 205.417 273.617 206.35C273.617 207.283 273.342 208.044 272.791 208.632C272.25 209.211 271.568 209.5 270.747 209.5H270.397L273.897 213H272.007L268.507 209.5H267.807V213H266.337ZM267.807 208.1H270.677C271.078 208.1 271.424 207.937 271.713 207.61C272.002 207.283 272.147 206.863 272.147 206.35C272.147 205.837 272.002 205.417 271.713 205.09C271.424 204.763 271.078 204.6 270.677 204.6H267.807V208.1ZM276.079 208.94H280.209C280.134 208.371 279.915 207.913 279.551 207.568C279.187 207.223 278.73 207.05 278.179 207.05C277.6 207.05 277.134 207.223 276.779 207.568C276.424 207.904 276.191 208.361 276.079 208.94ZM279.859 210.97H281.329C281.124 211.53 280.75 212.034 280.209 212.482C279.677 212.921 279 213.14 278.179 213.14C277.162 213.14 276.322 212.804 275.659 212.132C275.006 211.46 274.679 210.583 274.679 209.5C274.679 208.417 275.006 207.54 275.659 206.868C276.322 206.196 277.162 205.86 278.179 205.86C279.131 205.86 279.929 206.187 280.573 206.84C281.217 207.493 281.539 208.31 281.539 209.29C281.539 209.374 281.525 209.542 281.497 209.794L281.469 209.99H276.079C276.154 210.587 276.382 211.063 276.765 211.418C277.148 211.773 277.619 211.95 278.179 211.95C278.571 211.95 278.916 211.857 279.215 211.67C279.523 211.474 279.738 211.241 279.859 210.97ZM287.984 210.55H289.384C289.318 210.839 289.211 211.124 289.062 211.404C288.922 211.684 288.726 211.959 288.474 212.23C288.231 212.501 287.909 212.72 287.508 212.888C287.106 213.056 286.658 213.14 286.164 213.14C285.146 213.14 284.306 212.804 283.644 212.132C282.99 211.46 282.664 210.583 282.664 209.5C282.664 208.417 282.99 207.54 283.644 206.868C284.306 206.196 285.146 205.86 286.164 205.86C287.097 205.86 287.83 206.126 288.362 206.658C288.894 207.181 289.234 207.755 289.384 208.38H287.984C287.685 207.54 287.078 207.12 286.164 207.12C285.557 207.12 285.053 207.339 284.652 207.778C284.26 208.207 284.064 208.781 284.064 209.5C284.064 210.219 284.26 210.797 284.652 211.236C285.053 211.665 285.557 211.88 286.164 211.88C286.668 211.88 287.074 211.745 287.382 211.474C287.69 211.203 287.89 210.895 287.984 210.55ZM290.779 210.2V206H292.179V210.2C292.179 210.657 292.338 211.054 292.655 211.39C292.982 211.717 293.383 211.88 293.859 211.88C294.372 211.88 294.802 211.717 295.147 211.39C295.502 211.054 295.679 210.657 295.679 210.2V206H297.079V213H295.819L295.679 212.3H295.609C295.45 212.459 295.278 212.599 295.091 212.72C294.643 213 294.139 213.14 293.579 213.14C292.73 213.14 292.048 212.879 291.535 212.356C291.031 211.824 290.779 211.105 290.779 210.2ZM298.9 213V206H300.09L300.23 206.63H300.3C300.31 206.621 300.338 206.588 300.384 206.532C300.44 206.476 300.473 206.439 300.482 206.42C300.501 206.401 300.538 206.369 300.594 206.322C300.65 206.266 300.697 206.229 300.734 206.21C300.772 206.191 300.823 206.168 300.888 206.14C300.954 206.103 301.019 206.079 301.084 206.07C301.159 206.051 301.243 206.037 301.336 206.028C301.43 206.009 301.528 206 301.63 206H302.89V207.26H301.77C300.79 207.26 300.3 207.745 300.3 208.716V213H298.9ZM303.945 213V206H305.135L305.275 206.63H305.345C305.354 206.621 305.382 206.588 305.429 206.532C305.485 206.476 305.518 206.439 305.527 206.42C305.546 206.401 305.583 206.369 305.639 206.322C305.695 206.266 305.742 206.229 305.779 206.21C305.816 206.191 305.868 206.168 305.933 206.14C305.998 206.103 306.064 206.079 306.129 206.07C306.204 206.051 306.288 206.037 306.381 206.028C306.474 206.009 306.572 206 306.675 206H307.935V207.26H306.815C305.835 207.26 305.345 207.745 305.345 208.716V213H303.945ZM308.99 213V206H310.39V213H308.99ZM308.92 204.67V203.2H310.46V204.67H308.92ZM312.217 213V206H313.477L313.617 206.7H313.687C313.845 206.541 314.018 206.401 314.205 206.28C314.653 206 315.157 205.86 315.717 205.86C316.566 205.86 317.243 206.126 317.747 206.658C318.26 207.181 318.517 207.895 318.517 208.8V213H317.117V208.8C317.117 208.343 316.953 207.951 316.627 207.624C316.309 207.288 315.913 207.12 315.437 207.12C314.923 207.12 314.489 207.288 314.135 207.624C313.789 207.951 313.617 208.343 313.617 208.8V213H312.217ZM321.865 210.746C322.239 211.129 322.71 211.32 323.279 211.32C323.849 211.32 324.315 211.129 324.679 210.746C325.053 210.354 325.239 209.845 325.239 209.22C325.239 208.595 325.053 208.091 324.679 207.708C324.315 207.316 323.849 207.12 323.279 207.12C322.71 207.12 322.239 207.316 321.865 207.708C321.501 208.091 321.319 208.595 321.319 209.22C321.319 209.845 321.501 210.354 321.865 210.746ZM320.129 213.42H321.529C321.567 213.765 321.744 214.059 322.061 214.302C322.388 214.554 322.817 214.68 323.349 214.68C323.909 214.68 324.362 214.507 324.707 214.162C325.062 213.826 325.239 213.392 325.239 212.86V211.74H325.169C325.011 211.899 324.871 212.025 324.749 212.118C324.628 212.211 324.409 212.314 324.091 212.426C323.774 212.529 323.41 212.58 322.999 212.58C322.113 212.58 321.375 212.272 320.787 211.656C320.209 211.031 319.919 210.219 319.919 209.22C319.919 208.221 320.209 207.414 320.787 206.798C321.375 206.173 322.113 205.86 322.999 205.86C323.933 205.86 324.656 206.163 325.169 206.77H325.239L325.379 206H326.639V212.86C326.639 213.793 326.35 214.54 325.771 215.1C325.193 215.66 324.385 215.94 323.349 215.94C322.808 215.94 322.323 215.856 321.893 215.688C321.464 215.52 321.128 215.301 320.885 215.03C320.652 214.769 320.47 214.498 320.339 214.218C320.218 213.947 320.148 213.681 320.129 213.42ZM331.894 213V203.2H333.364V213H331.894ZM335.322 213V206H336.582L336.722 206.7H336.792C336.951 206.541 337.123 206.401 337.31 206.28C337.758 206 338.262 205.86 338.822 205.86C339.671 205.86 340.348 206.126 340.852 206.658C341.365 207.181 341.622 207.895 341.622 208.8V213H340.222V208.8C340.222 208.343 340.059 207.951 339.732 207.624C339.415 207.288 339.018 207.12 338.542 207.12C338.029 207.12 337.595 207.288 337.24 207.624C336.895 207.951 336.722 208.343 336.722 208.8V213H335.322ZM344.711 213L342.261 206H343.731L345.621 211.46H345.901L347.791 206H349.261L346.811 213H344.711ZM351.739 211.236C352.141 211.665 352.645 211.88 353.251 211.88C353.858 211.88 354.357 211.665 354.749 211.236C355.151 210.797 355.351 210.219 355.351 209.5C355.351 208.781 355.151 208.207 354.749 207.778C354.357 207.339 353.858 207.12 353.251 207.12C352.645 207.12 352.141 207.339 351.739 207.778C351.347 208.207 351.151 208.781 351.151 209.5C351.151 210.219 351.347 210.797 351.739 211.236ZM355.757 212.132C355.104 212.804 354.269 213.14 353.251 213.14C352.234 213.14 351.394 212.804 350.731 212.132C350.078 211.46 349.751 210.583 349.751 209.5C349.751 208.417 350.078 207.54 350.731 206.868C351.394 206.196 352.234 205.86 353.251 205.86C354.269 205.86 355.104 206.196 355.757 206.868C356.42 207.54 356.751 208.417 356.751 209.5C356.751 210.583 356.42 211.46 355.757 212.132ZM358.223 213V206H359.623V213H358.223ZM358.153 204.67V203.2H359.693V204.67H358.153ZM366.419 210.55H367.819C367.754 210.839 367.646 211.124 367.497 211.404C367.357 211.684 367.161 211.959 366.909 212.23C366.666 212.501 366.344 212.72 365.943 212.888C365.542 213.056 365.094 213.14 364.599 213.14C363.582 213.14 362.742 212.804 362.079 212.132C361.426 211.46 361.099 210.583 361.099 209.5C361.099 208.417 361.426 207.54 362.079 206.868C362.742 206.196 363.582 205.86 364.599 205.86C365.532 205.86 366.265 206.126 366.797 206.658C367.329 207.181 367.67 207.755 367.819 208.38H366.419C366.12 207.54 365.514 207.12 364.599 207.12C363.992 207.12 363.488 207.339 363.087 207.778C362.695 208.207 362.499 208.781 362.499 209.5C362.499 210.219 362.695 210.797 363.087 211.236C363.488 211.665 363.992 211.88 364.599 211.88C365.103 211.88 365.509 211.745 365.817 211.474C366.125 211.203 366.326 210.895 366.419 210.55ZM370.265 208.94H374.395C374.32 208.371 374.101 207.913 373.737 207.568C373.373 207.223 372.915 207.05 372.365 207.05C371.786 207.05 371.319 207.223 370.965 207.568C370.61 207.904 370.377 208.361 370.265 208.94ZM374.045 210.97H375.515C375.309 211.53 374.936 212.034 374.395 212.482C373.863 212.921 373.186 213.14 372.365 213.14C371.347 213.14 370.507 212.804 369.845 212.132C369.191 211.46 368.865 210.583 368.865 209.5C368.865 208.417 369.191 207.54 369.845 206.868C370.507 206.196 371.347 205.86 372.365 205.86C373.317 205.86 374.115 206.187 374.759 206.84C375.403 207.493 375.725 208.31 375.725 209.29C375.725 209.374 375.711 209.542 375.683 209.794L375.655 209.99H370.265C370.339 210.587 370.568 211.063 370.951 211.418C371.333 211.773 371.805 211.95 372.365 211.95C372.757 211.95 373.102 211.857 373.401 211.67C373.709 211.474 373.923 211.241 374.045 210.97Z" fill="white"/>
<rect x="20" y="244" width="556" height="40" rx="4" fill="#FF5F5F"/>
<path d="M222 266L226 262" stroke="white" stroke-width="1.5" stroke-linecap="round" stroke-linejoin="round"/>
<path d="M222 262L226 266" stroke="white" stroke-width="1.5" stroke-linecap="round" stroke-linejoin="round"/>
<path d="M224 269.6C227.093 269.6 229.6 267.093 229.6 264C229.6 260.908 227.093 258.4 224 258.4C220.908 258.4 218.4 260.908 218.4 264C218.4 267.093 220.908 269.6 224 269.6Z" stroke="white" stroke-width="1.5" stroke-linecap="round" stroke-linejoin="round"/>
<path d="M244.19 265.64H245.73C245.637 266.051 245.478 266.452 245.254 266.844C245.039 267.236 244.755 267.609 244.4 267.964C244.045 268.319 243.602 268.603 243.07 268.818C242.538 269.033 241.955 269.14 241.32 269.14C240.004 269.14 238.893 268.669 237.988 267.726C237.083 266.783 236.63 265.575 236.63 264.1C236.63 262.625 237.083 261.417 237.988 260.474C238.893 259.531 240.004 259.06 241.32 259.06C242.477 259.06 243.443 259.396 244.218 260.068C245.002 260.731 245.506 261.538 245.73 262.49H244.19C243.947 261.837 243.569 261.337 243.056 260.992C242.543 260.637 241.964 260.46 241.32 260.46C240.387 260.46 239.617 260.791 239.01 261.454C238.403 262.117 238.1 262.999 238.1 264.1C238.1 265.201 238.403 266.083 239.01 266.746C239.617 267.409 240.387 267.74 241.32 267.74C242.067 267.74 242.683 267.539 243.168 267.138C243.663 266.727 244.003 266.228 244.19 265.64ZM251.687 269L251.547 268.23H251.477C251.337 268.407 251.169 268.561 250.973 268.692C250.525 268.991 249.993 269.14 249.377 269.14C248.611 269.14 248 268.939 247.543 268.538C247.085 268.137 246.857 267.614 246.857 266.97C246.857 266.251 247.095 265.687 247.571 265.276C248.056 264.865 248.775 264.66 249.727 264.66H251.477V264.52C251.477 264.063 251.346 263.703 251.085 263.442C250.823 263.181 250.464 263.05 250.007 263.05C249.559 263.05 249.213 263.153 248.971 263.358C248.728 263.554 248.583 263.778 248.537 264.03H247.137C247.174 263.414 247.449 262.901 247.963 262.49C248.476 262.07 249.157 261.86 250.007 261.86C250.912 261.86 251.617 262.098 252.121 262.574C252.625 263.05 252.877 263.699 252.877 264.52V269H251.687ZM251.477 266.06V265.78H249.797C249.283 265.78 248.896 265.883 248.635 266.088C248.383 266.293 248.257 266.564 248.257 266.9C248.257 267.227 248.364 267.483 248.579 267.67C248.793 267.857 249.106 267.95 249.517 267.95C250.151 267.95 250.637 267.787 250.973 267.46C251.309 267.124 251.477 266.657 251.477 266.06ZM254.629 269V262H255.889L256.029 262.7H256.099C256.257 262.541 256.43 262.401 256.617 262.28C257.065 262 257.569 261.86 258.129 261.86C258.978 261.86 259.655 262.126 260.159 262.658C260.672 263.181 260.929 263.895 260.929 264.8V269H259.529V264.8C259.529 264.343 259.365 263.951 259.039 263.624C258.721 263.288 258.325 263.12 257.849 263.12C257.335 263.12 256.901 263.288 256.547 263.624C256.201 263.951 256.029 264.343 256.029 264.8V269H254.629ZM267.651 266.55H269.051C268.986 266.839 268.879 267.124 268.729 267.404C268.589 267.684 268.393 267.959 268.141 268.23C267.899 268.501 267.577 268.72 267.175 268.888C266.774 269.056 266.326 269.14 265.831 269.14C264.814 269.14 263.974 268.804 263.311 268.132C262.658 267.46 262.331 266.583 262.331 265.5C262.331 264.417 262.658 263.54 263.311 262.868C263.974 262.196 264.814 261.86 265.831 261.86C266.765 261.86 267.497 262.126 268.029 262.658C268.561 263.181 268.902 263.755 269.051 264.38H267.651C267.353 263.54 266.746 263.12 265.831 263.12C265.225 263.12 264.721 263.339 264.319 263.778C263.927 264.207 263.731 264.781 263.731 265.5C263.731 266.219 263.927 266.797 264.319 267.236C264.721 267.665 265.225 267.88 265.831 267.88C266.335 267.88 266.741 267.745 267.049 267.474C267.357 267.203 267.558 266.895 267.651 266.55ZM271.497 264.94H275.627C275.552 264.371 275.333 263.913 274.969 263.568C274.605 263.223 274.148 263.05 273.597 263.05C273.018 263.05 272.552 263.223 272.197 263.568C271.842 263.904 271.609 264.361 271.497 264.94ZM275.277 266.97H276.747C276.542 267.53 276.168 268.034 275.627 268.482C275.095 268.921 274.418 269.14 273.597 269.14C272.58 269.14 271.74 268.804 271.077 268.132C270.424 267.46 270.097 266.583 270.097 265.5C270.097 264.417 270.424 263.54 271.077 262.868C271.74 262.196 272.58 261.86 273.597 261.86C274.549 261.86 275.347 262.187 275.991 262.84C276.635 263.493 276.957 264.31 276.957 265.29C276.957 265.374 276.943 265.542 276.915 265.794L276.887 265.99H271.497C271.572 266.587 271.8 267.063 272.183 267.418C272.566 267.773 273.037 267.95 273.597 267.95C273.989 267.95 274.334 267.857 274.633 267.67C274.941 267.474 275.156 267.241 275.277 266.97ZM278.501 269V259.2H279.901V269H278.501ZM285.65 267.53V263.33H284.53V262H285.65V260.04H287.05V262H288.66V263.33H287.05V267.32C287.05 267.6 287.19 267.74 287.47 267.74H288.66V269H287.19C286.695 269 286.312 268.869 286.042 268.608C285.78 268.347 285.65 267.987 285.65 267.53ZM290.273 269V259.2H291.673V262.7H291.743C291.902 262.541 292.074 262.401 292.261 262.28C292.709 262 293.213 261.86 293.773 261.86C294.622 261.86 295.299 262.126 295.803 262.658C296.316 263.181 296.573 263.895 296.573 264.8V269H295.173V264.8C295.173 264.343 295.01 263.951 294.683 263.624C294.366 263.288 293.969 263.12 293.493 263.12C292.98 263.12 292.546 263.288 292.191 263.624C291.846 263.951 291.673 264.343 291.673 264.8V269H290.273ZM299.374 264.94H303.504C303.429 264.371 303.21 263.913 302.846 263.568C302.482 263.223 302.025 263.05 301.474 263.05C300.895 263.05 300.429 263.223 300.074 263.568C299.719 263.904 299.486 264.361 299.374 264.94ZM303.154 266.97H304.624C304.419 267.53 304.045 268.034 303.504 268.482C302.972 268.921 302.295 269.14 301.474 269.14C300.457 269.14 299.617 268.804 298.954 268.132C298.301 267.46 297.974 266.583 297.974 265.5C297.974 264.417 298.301 263.54 298.954 262.868C299.617 262.196 300.457 261.86 301.474 261.86C302.426 261.86 303.224 262.187 303.868 262.84C304.512 263.493 304.834 264.31 304.834 265.29C304.834 265.374 304.82 265.542 304.792 265.794L304.764 265.99H299.374C299.449 266.587 299.677 267.063 300.06 267.418C300.443 267.773 300.914 267.95 301.474 267.95C301.866 267.95 302.211 267.857 302.51 267.67C302.818 267.474 303.033 267.241 303.154 266.97ZM308.693 269L312.263 259.2H314.503L318.073 269H316.463L315.623 266.69H311.143L310.303 269H308.693ZM311.633 265.36H315.133L313.523 260.88H313.243L311.633 265.36ZM320.578 266.746C320.952 267.129 321.423 267.32 321.992 267.32C322.562 267.32 323.028 267.129 323.392 266.746C323.766 266.354 323.952 265.845 323.952 265.22C323.952 264.595 323.766 264.091 323.392 263.708C323.028 263.316 322.562 263.12 321.992 263.12C321.423 263.12 320.952 263.316 320.578 263.708C320.214 264.091 320.032 264.595 320.032 265.22C320.032 265.845 320.214 266.354 320.578 266.746ZM318.842 269.42H320.242C320.28 269.765 320.457 270.059 320.774 270.302C321.101 270.554 321.53 270.68 322.062 270.68C322.622 270.68 323.075 270.507 323.42 270.162C323.775 269.826 323.952 269.392 323.952 268.86V267.74H323.882C323.724 267.899 323.584 268.025 323.462 268.118C323.341 268.211 323.122 268.314 322.804 268.426C322.487 268.529 322.123 268.58 321.712 268.58C320.826 268.58 320.088 268.272 319.5 267.656C318.922 267.031 318.632 266.219 318.632 265.22C318.632 264.221 318.922 263.414 319.5 262.798C320.088 262.173 320.826 261.86 321.712 261.86C322.646 261.86 323.369 262.163 323.882 262.77H323.952L324.092 262H325.352V268.86C325.352 269.793 325.063 270.54 324.484 271.1C323.906 271.66 323.098 271.94 322.062 271.94C321.521 271.94 321.036 271.856 320.606 271.688C320.177 271.52 319.841 271.301 319.598 271.03C319.365 270.769 319.183 270.498 319.052 270.218C318.931 269.947 318.861 269.681 318.842 269.42ZM327.172 269V262H328.362L328.502 262.63H328.572C328.581 262.621 328.609 262.588 328.656 262.532C328.712 262.476 328.744 262.439 328.754 262.42C328.772 262.401 328.81 262.369 328.866 262.322C328.922 262.266 328.968 262.229 329.006 262.21C329.043 262.191 329.094 262.168 329.16 262.14C329.225 262.103 329.29 262.079 329.356 262.07C329.43 262.051 329.514 262.037 329.608 262.028C329.701 262.009 329.799 262 329.902 262H331.162V263.26H330.042C329.062 263.26 328.572 263.745 328.572 264.716V269H327.172ZM332.993 264.94H337.123C337.049 264.371 336.829 263.913 336.465 263.568C336.101 263.223 335.644 263.05 335.093 263.05C334.515 263.05 334.048 263.223 333.693 263.568C333.339 263.904 333.105 264.361 332.993 264.94ZM336.773 266.97H338.243C338.038 267.53 337.665 268.034 337.123 268.482C336.591 268.921 335.915 269.14 335.093 269.14C334.076 269.14 333.236 268.804 332.573 268.132C331.92 267.46 331.593 266.583 331.593 265.5C331.593 264.417 331.92 263.54 332.573 262.868C333.236 262.196 334.076 261.86 335.093 261.86C336.045 261.86 336.843 262.187 337.487 262.84C338.131 263.493 338.453 264.31 338.453 265.29C338.453 265.374 338.439 265.542 338.411 265.794L338.383 265.99H332.993C333.068 266.587 333.297 267.063 333.679 267.418C334.062 267.773 334.533 267.95 335.093 267.95C335.485 267.95 335.831 267.857 336.129 267.67C336.437 267.474 336.652 267.241 336.773 266.97ZM340.978 264.94H345.108C345.033 264.371 344.814 263.913 344.45 263.568C344.086 263.223 343.628 263.05 343.078 263.05C342.499 263.05 342.032 263.223 341.678 263.568C341.323 263.904 341.09 264.361 340.978 264.94ZM344.758 266.97H346.228C346.022 267.53 345.649 268.034 345.108 268.482C344.576 268.921 343.899 269.14 343.078 269.14C342.06 269.14 341.22 268.804 340.558 268.132C339.904 267.46 339.578 266.583 339.578 265.5C339.578 264.417 339.904 263.54 340.558 262.868C341.22 262.196 342.06 261.86 343.078 261.86C344.03 261.86 344.828 262.187 345.472 262.84C346.116 263.493 346.438 264.31 346.438 265.29C346.438 265.374 346.424 265.542 346.396 265.794L346.368 265.99H340.978C341.052 266.587 341.281 267.063 341.664 267.418C342.046 267.773 342.518 267.95 343.078 267.95C343.47 267.95 343.815 267.857 344.114 267.67C344.422 267.474 344.636 267.241 344.758 266.97ZM347.912 269V262H349.172L349.312 262.7H349.382C349.513 262.551 349.676 262.411 349.872 262.28C350.301 262 350.745 261.86 351.202 261.86C351.781 261.86 352.271 262.023 352.672 262.35C352.849 262.518 352.989 262.681 353.092 262.84H353.162C353.283 262.681 353.465 262.518 353.708 262.35C354.231 262.023 354.819 261.86 355.472 261.86C356.2 261.86 356.802 262.117 357.278 262.63C357.754 263.134 357.992 263.783 357.992 264.576V269H356.592V264.59C356.592 264.142 356.461 263.787 356.2 263.526C355.948 263.255 355.612 263.12 355.192 263.12C354.763 263.12 354.399 263.26 354.1 263.54C353.801 263.82 353.652 264.17 353.652 264.59V269H352.252V264.59C352.252 264.142 352.121 263.787 351.86 263.526C351.608 263.255 351.272 263.12 350.852 263.12C350.423 263.12 350.059 263.26 349.76 263.54C349.461 263.82 349.312 264.17 349.312 264.59V269H347.912ZM360.788 264.94H364.918C364.843 264.371 364.624 263.913 364.26 263.568C363.896 263.223 363.439 263.05 362.888 263.05C362.309 263.05 361.843 263.223 361.488 263.568C361.133 263.904 360.9 264.361 360.788 264.94ZM364.568 266.97H366.038C365.833 267.53 365.459 268.034 364.918 268.482C364.386 268.921 363.709 269.14 362.888 269.14C361.871 269.14 361.031 268.804 360.368 268.132C359.715 267.46 359.388 266.583 359.388 265.5C359.388 264.417 359.715 263.54 360.368 262.868C361.031 262.196 361.871 261.86 362.888 261.86C363.84 261.86 364.638 262.187 365.282 262.84C365.926 263.493 366.248 264.31 366.248 265.29C366.248 265.374 366.234 265.542 366.206 265.794L366.178 265.99H360.788C360.863 266.587 361.091 267.063 361.474 267.418C361.857 267.773 362.328 267.95 362.888 267.95C363.28 267.95 363.625 267.857 363.924 267.67C364.232 267.474 364.447 267.241 364.568 266.97ZM367.723 269V262H368.983L369.123 262.7H369.193C369.351 262.541 369.524 262.401 369.711 262.28C370.159 262 370.663 261.86 371.223 261.86C372.072 261.86 372.749 262.126 373.253 262.658C373.766 263.181 374.023 263.895 374.023 264.8V269H372.623V264.8C372.623 264.343 372.459 263.951 372.133 263.624C371.815 263.288 371.419 263.12 370.943 263.12C370.429 263.12 369.995 263.288 369.641 263.624C369.295 263.951 369.123 264.343 369.123 264.8V269H367.723ZM376.062 267.53V263.33H374.942V262H376.062V260.04H377.462V262H379.072V263.33H377.462V267.32C377.462 267.6 377.602 267.74 377.882 267.74H379.072V269H377.602C377.107 269 376.724 268.869 376.454 268.608C376.192 268.347 376.062 267.987 376.062 267.53Z" fill="white"/>
<defs>
<linearGradient id="paint0_linear_3550_106517" x1="-269.503" y1="-312" x2="701.943" y2="-50.009" gradientUnits="userSpaceOnUse">
<stop stop-color="white"/>
<stop offset="1" stop-color="white" stop-opacity="0"/>
</linearGradient>
<linearGradient id="paint1_linear_3550_106517" x1="-108.29" y1="-157.333" x2="1187.76" y2="166.014" gradientUnits="userSpaceOnUse">
<stop stop-color="#E5E5E5"/>
<stop offset="1" stop-color="white" stop-opacity="0"/>
</linearGradient>
<clipPath id="clip0_3550_106517">
<rect width="14" height="14" fill="white" transform="translate(219 201)"/>
</clipPath>
</defs>
</svg>
