<svg width="48" height="48" viewBox="0 0 48 48" fill="none" xmlns="http://www.w3.org/2000/svg">
<path d="M24.0003 21.3327C29.155 21.3327 33.3337 17.154 33.3337 11.9993C33.3337 6.84469 29.155 2.66602 24.0003 2.66602C18.8457 2.66602 14.667 6.84469 14.667 11.9993C14.667 17.154 18.8457 21.3327 24.0003 21.3327Z" fill="white"/>
<path d="M19.2538 44.8507C17.7311 42.072 17.8351 38.6987 19.5231 36.032L26.9818 24.256C26.0058 24.0987 25.0138 24 24.0031 24C16.6298 24 9.93913 28.3627 6.9498 35.112C6.26446 36.6587 6.27246 38.432 6.97113 39.9787C7.6858 41.5573 9.04313 42.76 10.7018 43.2827C13.5391 44.176 16.4485 44.752 19.3898 45.0613C19.3471 44.9893 19.2938 44.9227 19.2538 44.8507Z" fill="white"/>
<path d="M46.432 38.1665L38.6106 25.8172C37.7493 24.4598 36.2773 23.6465 34.6666 23.6465C33.056 23.6465 31.584 24.4598 30.7226 25.8172L22.9013 38.1665C21.992 39.6038 21.936 41.4225 22.7546 42.9132C23.5733 44.4038 25.1413 45.3292 26.8426 45.3292H42.4853C44.1866 45.3292 45.7546 44.4038 46.5733 42.9132C47.392 41.4225 47.3386 39.6038 46.4266 38.1665H46.432ZM34.6666 42.6652C33.5626 42.6652 32.6666 41.7692 32.6666 40.6652C32.6666 39.5612 33.5626 38.6652 34.6666 38.6652C35.7706 38.6652 36.6666 39.5612 36.6666 40.6652C36.6666 41.7692 35.7706 42.6652 34.6666 42.6652ZM36.6666 34.6652C36.6666 35.7692 35.7706 36.6652 34.6666 36.6652C33.5626 36.6652 32.6666 35.7692 32.6666 34.6652V29.9985C32.6666 28.8945 33.5626 27.9985 34.6666 27.9985C35.7706 27.9985 36.6666 28.8945 36.6666 29.9985V34.6652Z" fill="white"/>
</svg>
