<svg width="696" height="572" viewBox="0 0 696 572" fill="none" xmlns="http://www.w3.org/2000/svg">
<rect width="696" height="572" rx="12" fill="#15181B"/>
<g filter="url(#filter0_ddd_2463_6566)">
<rect x="32" y="32" width="632" height="508" rx="8" fill="url(#paint0_linear_2463_6566)" fill-opacity="0.1" shape-rendering="crispEdges"/>
<rect x="32.5" y="32.5" width="631" height="507" rx="7.5" stroke="url(#paint1_linear_2463_6566)" stroke-opacity="0.1" shape-rendering="crispEdges"/>
<path d="M70.04 81.24H72.68C72.52 81.944 72.248 82.632 71.864 83.304C71.496 83.976 71.008 84.616 70.4 85.224C69.792 85.832 69.032 86.32 68.12 86.688C67.208 87.056 66.208 87.24 65.12 87.24C62.864 87.24 60.96 86.432 59.408 84.816C57.856 83.2 57.08 81.128 57.08 78.6C57.08 76.072 57.856 74 59.408 72.384C60.96 70.768 62.864 69.96 65.12 69.96C67.104 69.96 68.76 70.536 70.088 71.688C71.432 72.824 72.296 74.208 72.68 75.84H70.04C69.624 74.72 68.976 73.864 68.096 73.272C67.216 72.664 66.224 72.36 65.12 72.36C63.52 72.36 62.2 72.928 61.16 74.064C60.12 75.2 59.6 76.712 59.6 78.6C59.6 80.488 60.12 82 61.16 83.136C62.2 84.272 63.52 84.84 65.12 84.84C66.4 84.84 67.456 84.496 68.288 83.808C69.136 83.104 69.72 82.248 70.04 81.24ZM77.8993 83.976C78.5873 84.712 79.4513 85.08 80.4913 85.08C81.5313 85.08 82.3873 84.712 83.0593 83.976C83.7473 83.224 84.0913 82.232 84.0913 81C84.0913 79.768 83.7473 78.784 83.0593 78.048C82.3873 77.296 81.5313 76.92 80.4913 76.92C79.4513 76.92 78.5873 77.296 77.8993 78.048C77.2273 78.784 76.8913 79.768 76.8913 81C76.8913 82.232 77.2273 83.224 77.8993 83.976ZM84.7873 85.512C83.6673 86.664 82.2353 87.24 80.4913 87.24C78.7473 87.24 77.3073 86.664 76.1713 85.512C75.0513 84.36 74.4913 82.856 74.4913 81C74.4913 79.144 75.0513 77.64 76.1713 76.488C77.3073 75.336 78.7473 74.76 80.4913 74.76C82.2353 74.76 83.6673 75.336 84.7873 76.488C85.9233 77.64 86.4913 79.144 86.4913 81C86.4913 82.856 85.9233 84.36 84.7873 85.512ZM89.1331 87V70.2H91.5331V87H89.1331ZM94.8988 87V70.2H97.2988V87H94.8988ZM102.344 80.04H109.424C109.296 79.064 108.92 78.28 108.296 77.688C107.672 77.096 106.888 76.8 105.944 76.8C104.952 76.8 104.152 77.096 103.544 77.688C102.936 78.264 102.536 79.048 102.344 80.04ZM108.824 83.52H111.344C110.992 84.48 110.352 85.344 109.424 86.112C108.512 86.864 107.352 87.24 105.944 87.24C104.2 87.24 102.76 86.664 101.624 85.512C100.504 84.36 99.9444 82.856 99.9444 81C99.9444 79.144 100.504 77.64 101.624 76.488C102.76 75.336 104.2 74.76 105.944 74.76C107.576 74.76 108.944 75.32 110.048 76.44C111.152 77.56 111.704 78.96 111.704 80.64C111.704 80.784 111.68 81.072 111.632 81.504L111.584 81.84H102.344C102.472 82.864 102.864 83.68 103.52 84.288C104.176 84.896 104.984 85.2 105.944 85.2C106.616 85.2 107.208 85.04 107.72 84.72C108.248 84.384 108.616 83.984 108.824 83.52ZM122.752 82.8H125.152C125.04 83.296 124.856 83.784 124.6 84.264C124.36 84.744 124.024 85.216 123.592 85.68C123.176 86.144 122.624 86.52 121.936 86.808C121.248 87.096 120.48 87.24 119.632 87.24C117.888 87.24 116.448 86.664 115.312 85.512C114.192 84.36 113.632 82.856 113.632 81C113.632 79.144 114.192 77.64 115.312 76.488C116.448 75.336 117.888 74.76 119.632 74.76C121.232 74.76 122.488 75.216 123.4 76.128C124.312 77.024 124.896 78.008 125.152 79.08H122.752C122.24 77.64 121.2 76.92 119.632 76.92C118.592 76.92 117.728 77.296 117.04 78.048C116.368 78.784 116.032 79.768 116.032 81C116.032 82.232 116.368 83.224 117.04 83.976C117.728 84.712 118.592 85.08 119.632 85.08C120.496 85.08 121.192 84.848 121.72 84.384C122.248 83.92 122.592 83.392 122.752 82.8ZM128.504 84.48V77.28H126.584V75H128.504V71.64H130.904V75H133.664V77.28H130.904V84.12C130.904 84.6 131.144 84.84 131.624 84.84H133.664V87H131.144C130.296 87 129.64 86.776 129.176 86.328C128.728 85.88 128.504 85.264 128.504 84.48ZM136.31 87V75H138.71V87H136.31ZM136.19 72.72V70.2H138.83V72.72H136.19ZM144.649 83.976C145.337 84.712 146.201 85.08 147.241 85.08C148.281 85.08 149.137 84.712 149.809 83.976C150.497 83.224 150.841 82.232 150.841 81C150.841 79.768 150.497 78.784 149.809 78.048C149.137 77.296 148.281 76.92 147.241 76.92C146.201 76.92 145.337 77.296 144.649 78.048C143.977 78.784 143.641 79.768 143.641 81C143.641 82.232 143.977 83.224 144.649 83.976ZM151.537 85.512C150.417 86.664 148.985 87.24 147.241 87.24C145.497 87.24 144.057 86.664 142.921 85.512C141.801 84.36 141.241 82.856 141.241 81C141.241 79.144 141.801 77.64 142.921 76.488C144.057 75.336 145.497 74.76 147.241 74.76C148.985 74.76 150.417 75.336 151.537 76.488C152.673 77.64 153.241 79.144 153.241 81C153.241 82.856 152.673 84.36 151.537 85.512ZM155.763 87V75H157.923L158.163 76.2H158.283C158.555 75.928 158.851 75.688 159.171 75.48C159.939 75 160.803 74.76 161.763 74.76C163.219 74.76 164.379 75.216 165.243 76.128C166.123 77.024 166.563 78.248 166.563 79.8V87H164.163V79.8C164.163 79.016 163.883 78.344 163.323 77.784C162.779 77.208 162.099 76.92 161.283 76.92C160.403 76.92 159.659 77.208 159.051 77.784C158.459 78.344 158.163 79.016 158.163 79.8V87H155.763ZM168.728 83.4H171.128C171.128 83.832 171.368 84.24 171.848 84.624C172.328 85.008 173.008 85.2 173.888 85.2C174.72 85.2 175.344 85.048 175.76 84.744C176.192 84.424 176.408 84.056 176.408 83.64C176.408 83.208 176.272 82.872 176 82.632C175.728 82.376 175.264 82.192 174.608 82.08L172.448 81.72C170.128 81.336 168.968 80.176 168.968 78.24C168.968 77.232 169.376 76.4 170.192 75.744C171.024 75.088 172.216 74.76 173.768 74.76C174.584 74.76 175.32 74.888 175.976 75.144C176.648 75.4 177.168 75.728 177.536 76.128C177.92 76.528 178.208 76.936 178.4 77.352C178.592 77.752 178.688 78.128 178.688 78.48H176.288C176.288 78.064 176.072 77.68 175.64 77.328C175.208 76.976 174.584 76.8 173.768 76.8C172.968 76.8 172.368 76.944 171.968 77.232C171.568 77.504 171.368 77.84 171.368 78.24C171.368 78.96 171.968 79.44 173.168 79.68L175.328 80.04C177.648 80.424 178.808 81.624 178.808 83.64C178.808 84.664 178.384 85.52 177.536 86.208C176.704 86.896 175.488 87.24 173.888 87.24C172.992 87.24 172.184 87.104 171.464 86.832C170.76 86.56 170.216 86.216 169.832 85.8C169.464 85.384 169.184 84.976 168.992 84.576C168.816 84.16 168.728 83.768 168.728 83.4ZM187.105 87V70.2H198.145V72.6H189.625V77.4H197.665V79.8H189.625V84.6H198.145V87H187.105ZM201.981 87V77.28H200.061V75H201.981V72.84C201.981 72.12 202.221 71.52 202.701 71.04C203.181 70.56 203.781 70.32 204.501 70.32H206.901V72.48H205.101C204.621 72.48 204.381 72.72 204.381 73.2V75H208.341V72.84C208.341 72.12 208.581 71.52 209.061 71.04C209.541 70.56 210.141 70.32 210.861 70.32H213.261V72.48H211.461C210.981 72.48 210.741 72.72 210.741 73.2V75H213.261V77.28H210.741V87H208.341V77.28H204.381V87H201.981ZM216.743 80.04H223.823C223.695 79.064 223.319 78.28 222.695 77.688C222.071 77.096 221.287 76.8 220.343 76.8C219.351 76.8 218.551 77.096 217.943 77.688C217.335 78.264 216.935 79.048 216.743 80.04ZM223.223 83.52H225.743C225.391 84.48 224.751 85.344 223.823 86.112C222.911 86.864 221.751 87.24 220.343 87.24C218.599 87.24 217.159 86.664 216.023 85.512C214.903 84.36 214.343 82.856 214.343 81C214.343 79.144 214.903 77.64 216.023 76.488C217.159 75.336 218.599 74.76 220.343 74.76C221.975 74.76 223.343 75.32 224.447 76.44C225.551 77.56 226.103 78.96 226.103 80.64C226.103 80.784 226.079 81.072 226.031 81.504L225.983 81.84H216.743C216.871 82.864 217.263 83.68 217.919 84.288C218.575 84.896 219.383 85.2 220.343 85.2C221.015 85.2 221.607 85.04 222.119 84.72C222.647 84.384 223.015 83.984 223.223 83.52ZM237.15 82.8H239.55C239.438 83.296 239.254 83.784 238.998 84.264C238.758 84.744 238.422 85.216 237.99 85.68C237.574 86.144 237.022 86.52 236.334 86.808C235.646 87.096 234.878 87.24 234.03 87.24C232.286 87.24 230.846 86.664 229.71 85.512C228.59 84.36 228.03 82.856 228.03 81C228.03 79.144 228.59 77.64 229.71 76.488C230.846 75.336 232.286 74.76 234.03 74.76C235.63 74.76 236.886 75.216 237.798 76.128C238.71 77.024 239.294 78.008 239.55 79.08H237.15C236.638 77.64 235.598 76.92 234.03 76.92C232.99 76.92 232.126 77.296 231.438 78.048C230.766 78.784 230.43 79.768 230.43 81C230.43 82.232 230.766 83.224 231.438 83.976C232.126 84.712 232.99 85.08 234.03 85.08C234.894 85.08 235.59 84.848 236.118 84.384C236.646 83.92 236.99 83.392 237.15 82.8ZM242.903 84.48V77.28H240.983V75H242.903V71.64H245.303V75H248.063V77.28H245.303V84.12C245.303 84.6 245.543 84.84 246.023 84.84H248.063V87H245.543C244.695 87 244.039 86.776 243.575 86.328C243.127 85.88 242.903 85.264 242.903 84.48ZM250.708 87V75H253.108V87H250.708ZM250.588 72.72V70.2H253.228V72.72H250.588ZM259 87L254.8 75H257.32L260.56 84.36H261.04L264.28 75H266.8L262.6 87H259ZM270.04 80.04H277.12C276.992 79.064 276.616 78.28 275.992 77.688C275.368 77.096 274.584 76.8 273.64 76.8C272.648 76.8 271.848 77.096 271.24 77.688C270.632 78.264 270.232 79.048 270.04 80.04ZM276.52 83.52H279.04C278.688 84.48 278.048 85.344 277.12 86.112C276.208 86.864 275.048 87.24 273.64 87.24C271.896 87.24 270.456 86.664 269.32 85.512C268.2 84.36 267.64 82.856 267.64 81C267.64 79.144 268.2 77.64 269.32 76.488C270.456 75.336 271.896 74.76 273.64 74.76C275.272 74.76 276.64 75.32 277.744 76.44C278.848 77.56 279.4 78.96 279.4 80.64C279.4 80.784 279.376 81.072 279.328 81.504L279.28 81.84H270.04C270.168 82.864 270.56 83.68 271.216 84.288C271.872 84.896 272.68 85.2 273.64 85.2C274.312 85.2 274.904 85.04 275.416 84.72C275.944 84.384 276.312 83.984 276.52 83.52ZM281.927 87V75H284.087L284.327 76.2H284.447C284.719 75.928 285.015 75.688 285.335 75.48C286.103 75 286.967 74.76 287.927 74.76C289.383 74.76 290.543 75.216 291.407 76.128C292.287 77.024 292.727 78.248 292.727 79.8V87H290.327V79.8C290.327 79.016 290.047 78.344 289.487 77.784C288.943 77.208 288.263 76.92 287.447 76.92C286.567 76.92 285.823 77.208 285.215 77.784C284.623 78.344 284.327 79.016 284.327 79.8V87H281.927ZM297.532 80.04H304.612C304.484 79.064 304.108 78.28 303.484 77.688C302.86 77.096 302.076 76.8 301.132 76.8C300.14 76.8 299.34 77.096 298.732 77.688C298.124 78.264 297.724 79.048 297.532 80.04ZM304.012 83.52H306.532C306.18 84.48 305.54 85.344 304.612 86.112C303.7 86.864 302.54 87.24 301.132 87.24C299.388 87.24 297.948 86.664 296.812 85.512C295.692 84.36 295.132 82.856 295.132 81C295.132 79.144 295.692 77.64 296.812 76.488C297.948 75.336 299.388 74.76 301.132 74.76C302.764 74.76 304.132 75.32 305.236 76.44C306.34 77.56 306.892 78.96 306.892 80.64C306.892 80.784 306.868 81.072 306.82 81.504L306.772 81.84H297.532C297.66 82.864 298.052 83.68 298.708 84.288C299.364 84.896 300.172 85.2 301.132 85.2C301.804 85.2 302.396 85.04 302.908 84.72C303.436 84.384 303.804 83.984 304.012 83.52ZM308.579 83.4H310.979C310.979 83.832 311.219 84.24 311.699 84.624C312.179 85.008 312.859 85.2 313.739 85.2C314.571 85.2 315.195 85.048 315.611 84.744C316.043 84.424 316.259 84.056 316.259 83.64C316.259 83.208 316.123 82.872 315.851 82.632C315.579 82.376 315.115 82.192 314.459 82.08L312.299 81.72C309.979 81.336 308.819 80.176 308.819 78.24C308.819 77.232 309.227 76.4 310.043 75.744C310.875 75.088 312.067 74.76 313.619 74.76C314.435 74.76 315.171 74.888 315.827 75.144C316.499 75.4 317.019 75.728 317.387 76.128C317.771 76.528 318.059 76.936 318.251 77.352C318.443 77.752 318.539 78.128 318.539 78.48H316.139C316.139 78.064 315.923 77.68 315.491 77.328C315.059 76.976 314.435 76.8 313.619 76.8C312.819 76.8 312.219 76.944 311.819 77.232C311.419 77.504 311.219 77.84 311.219 78.24C311.219 78.96 311.819 79.44 313.019 79.68L315.179 80.04C317.499 80.424 318.659 81.624 318.659 83.64C318.659 84.664 318.235 85.52 317.387 86.208C316.555 86.896 315.339 87.24 313.739 87.24C312.843 87.24 312.035 87.104 311.315 86.832C310.611 86.56 310.067 86.216 309.683 85.8C309.315 85.384 309.035 84.976 308.843 84.576C308.667 84.16 308.579 83.768 308.579 83.4ZM320.228 83.4H322.628C322.628 83.832 322.868 84.24 323.348 84.624C323.828 85.008 324.508 85.2 325.388 85.2C326.22 85.2 326.844 85.048 327.26 84.744C327.692 84.424 327.908 84.056 327.908 83.64C327.908 83.208 327.772 82.872 327.5 82.632C327.228 82.376 326.764 82.192 326.108 82.08L323.948 81.72C321.628 81.336 320.468 80.176 320.468 78.24C320.468 77.232 320.876 76.4 321.692 75.744C322.524 75.088 323.716 74.76 325.268 74.76C326.084 74.76 326.82 74.888 327.476 75.144C328.148 75.4 328.668 75.728 329.036 76.128C329.42 76.528 329.708 76.936 329.9 77.352C330.092 77.752 330.188 78.128 330.188 78.48H327.788C327.788 78.064 327.572 77.68 327.14 77.328C326.708 76.976 326.084 76.8 325.268 76.8C324.468 76.8 323.868 76.944 323.468 77.232C323.068 77.504 322.868 77.84 322.868 78.24C322.868 78.96 323.468 79.44 324.668 79.68L326.828 80.04C329.148 80.424 330.308 81.624 330.308 83.64C330.308 84.664 329.884 85.52 329.036 86.208C328.204 86.896 326.988 87.24 325.388 87.24C324.492 87.24 323.684 87.104 322.964 86.832C322.26 86.56 321.716 86.216 321.332 85.8C320.964 85.384 320.684 84.976 320.492 84.576C320.316 84.16 320.228 83.768 320.228 83.4Z" fill="white"/>
<path d="M302.4 165.84V165.56C301.429 165.037 300.589 164.403 299.88 163.656C298.2 161.901 297.36 159.736 297.36 157.16C297.36 154.099 298.499 151.523 300.776 149.432C303.091 147.304 306.152 146.24 309.96 146.24C313.768 146.24 316.811 147.304 319.088 149.432C321.403 151.523 322.56 154.099 322.56 157.16C322.56 159.736 321.72 161.901 320.04 163.656C319.331 164.403 318.491 165.037 317.52 165.56V165.84C318.64 166.437 319.611 167.147 320.432 167.968C322.411 169.947 323.4 172.317 323.4 175.08C323.4 178.291 322.168 181.016 319.704 183.256C317.24 185.459 313.992 186.56 309.96 186.56C305.928 186.56 302.68 185.459 300.216 183.256C297.752 181.016 296.52 178.291 296.52 175.08C296.52 172.28 297.491 169.909 299.432 167.968C300.291 167.109 301.28 166.4 302.4 165.84ZM305.032 153.24C303.837 154.323 303.24 155.723 303.24 157.44C303.24 159.157 303.837 160.576 305.032 161.696C306.227 162.779 307.869 163.32 309.96 163.32C312.051 163.32 313.693 162.779 314.888 161.696C316.083 160.576 316.68 159.157 316.68 157.44C316.68 155.723 316.083 154.323 314.888 153.24C313.693 152.12 312.051 151.56 309.96 151.56C307.869 151.56 306.227 152.12 305.032 153.24ZM304.528 170.208C303.109 171.44 302.4 172.971 302.4 174.8C302.4 176.629 303.109 178.16 304.528 179.392C305.947 180.624 307.757 181.24 309.96 181.24C312.163 181.24 313.973 180.624 315.392 179.392C316.811 178.16 317.52 176.629 317.52 174.8C317.52 172.971 316.811 171.44 315.392 170.208C313.973 168.976 312.163 168.36 309.96 168.36C307.757 168.36 305.947 168.976 304.528 170.208ZM336.298 178.72C337.791 180.213 339.658 180.96 341.898 180.96C344.138 180.96 346.004 180.213 347.498 178.72C348.991 177.227 349.738 175.36 349.738 173.12C349.738 170.88 348.991 169.013 347.498 167.52C346.004 166.027 344.138 165.28 341.898 165.28C339.658 165.28 337.791 166.027 336.298 167.52C334.804 169.013 334.058 170.88 334.058 173.12C334.058 175.36 334.804 177.227 336.298 178.72ZM330.418 165.28L342.178 146.8H348.898L340.218 160.24H340.498L341.226 160.128C342.122 160.016 342.719 159.96 343.018 159.96C346.527 159.96 349.495 161.248 351.922 163.824C354.386 166.363 355.618 169.461 355.618 173.12C355.618 176.928 354.311 180.12 351.698 182.696C349.084 185.272 345.818 186.56 341.898 186.56C337.978 186.56 334.711 185.272 332.098 182.696C329.484 180.12 328.178 176.928 328.178 173.12C328.178 170.283 328.924 167.669 330.418 165.28ZM364.875 186L389.235 146.8H394.835L370.475 186H364.875ZM371.819 151.896C371.072 151.112 370.064 150.72 368.795 150.72C367.526 150.72 366.499 151.112 365.715 151.896C364.968 152.68 364.595 153.781 364.595 155.2C364.595 156.619 364.968 157.72 365.715 158.504C366.499 159.288 367.526 159.68 368.795 159.68C370.064 159.68 371.072 159.288 371.819 158.504C372.603 157.72 372.995 156.619 372.995 155.2C372.995 153.781 372.603 152.68 371.819 151.896ZM362.411 161.584C360.694 159.867 359.835 157.739 359.835 155.2C359.835 152.661 360.694 150.533 362.411 148.816C364.166 147.099 366.294 146.24 368.795 146.24C371.296 146.24 373.406 147.099 375.123 148.816C376.878 150.533 377.755 152.661 377.755 155.2C377.755 157.739 376.878 159.867 375.123 161.584C373.406 163.301 371.296 164.16 368.795 164.16C366.294 164.16 364.166 163.301 362.411 161.584ZM387.835 180.904C388.619 181.688 389.646 182.08 390.915 182.08C392.184 182.08 393.192 181.688 393.939 180.904C394.723 180.12 395.115 179.019 395.115 177.6C395.115 176.181 394.723 175.08 393.939 174.296C393.192 173.512 392.184 173.12 390.915 173.12C389.646 173.12 388.619 173.512 387.835 174.296C387.088 175.08 386.715 176.181 386.715 177.6C386.715 179.019 387.088 180.12 387.835 180.904ZM384.531 183.984C382.814 182.267 381.955 180.139 381.955 177.6C381.955 175.061 382.814 172.933 384.531 171.216C386.248 169.499 388.376 168.64 390.915 168.64C393.454 168.64 395.582 169.499 397.299 171.216C399.016 172.933 399.875 175.061 399.875 177.6C399.875 180.139 399.016 182.267 397.299 183.984C395.582 185.701 393.454 186.56 390.915 186.56C388.376 186.56 386.248 185.701 384.531 183.984Z" fill="#16BA84"/>
<path d="M57.8 263V246.2H61.52L68.36 259.28H68.84V246.2H71.36V263H67.64L60.8 249.92H60.32V263H57.8ZM77.5243 259.976C78.2123 260.712 79.0763 261.08 80.1163 261.08C81.1563 261.08 82.0123 260.712 82.6843 259.976C83.3723 259.224 83.7163 258.232 83.7163 257C83.7163 255.768 83.3723 254.784 82.6843 254.048C82.0123 253.296 81.1563 252.92 80.1163 252.92C79.0763 252.92 78.2123 253.296 77.5243 254.048C76.8523 254.784 76.5163 255.768 76.5163 257C76.5163 258.232 76.8523 259.224 77.5243 259.976ZM84.4123 261.512C83.2923 262.664 81.8603 263.24 80.1163 263.24C78.3723 263.24 76.9323 262.664 75.7963 261.512C74.6763 260.36 74.1163 258.856 74.1163 257C74.1163 255.144 74.6763 253.64 75.7963 252.488C76.9323 251.336 78.3723 250.76 80.1163 250.76C81.8603 250.76 83.2923 251.336 84.4123 252.488C85.5483 253.64 86.1163 255.144 86.1163 257C86.1163 258.856 85.5483 260.36 84.4123 261.512ZM91.1638 263L86.9638 251H89.4838L92.7238 260.36H93.2038L96.4438 251H98.9637L94.7638 263H91.1638ZM105.2 263V260.84L112.112 253.88C112.576 253.416 112.896 253.008 113.072 252.656C113.264 252.288 113.36 251.816 113.36 251.24C113.36 250.328 113.112 249.624 112.616 249.128C112.136 248.616 111.464 248.36 110.6 248.36C109.752 248.36 109.04 248.664 108.464 249.272C107.888 249.88 107.6 250.656 107.6 251.6H105.08C105.08 249.92 105.592 248.56 106.616 247.52C107.64 246.48 108.968 245.96 110.6 245.96C112.232 245.96 113.536 246.448 114.512 247.424C115.504 248.384 116 249.656 116 251.24C116 252.152 115.792 252.944 115.376 253.616C114.976 254.288 114.384 255.016 113.6 255.8L108.92 260.48V260.6H116.24V263H105.2ZM116.829 259.4V257.36L123.189 246.2H127.149V257.12H129.189V259.4H127.149V263H124.629V259.4H116.829ZM119.829 257.12H124.629V249.32H124.149L119.829 257V257.12Z" fill="white"/>
<rect x="140" y="250" width="444" height="8" rx="4" fill="#E4E4E7"/>
<rect x="140" y="250" width="300" height="8" rx="4" fill="#6E51E0"/>
<path d="M594.736 263L600.64 248.6H592.6V246.2H603.52V248.36L597.52 263H594.736ZM605.314 258.44H607.834C607.978 259.112 608.322 259.68 608.866 260.144C609.426 260.608 610.162 260.84 611.074 260.84C612.098 260.84 612.914 260.536 613.522 259.928C614.13 259.32 614.434 258.504 614.434 257.48C614.434 256.52 614.122 255.744 613.498 255.152C612.89 254.544 612.082 254.24 611.074 254.24C609.874 254.24 608.954 254.64 608.314 255.44H605.674L606.634 246.2H615.994V248.6H608.794L608.314 252.68H608.434C609.298 252.12 610.298 251.84 611.434 251.84C613.018 251.84 614.33 252.376 615.37 253.448C616.426 254.504 616.954 255.848 616.954 257.48C616.954 259.16 616.402 260.544 615.298 261.632C614.21 262.704 612.802 263.24 611.074 263.24C610.13 263.24 609.282 263.088 608.53 262.784C607.794 262.48 607.21 262.08 606.778 261.584C606.346 261.088 606.01 260.576 605.77 260.048C605.546 259.52 605.394 258.984 605.314 258.44ZM621.039 263L631.479 246.2H633.879L623.439 263H621.039ZM624.015 248.384C623.695 248.048 623.263 247.88 622.719 247.88C622.175 247.88 621.735 248.048 621.399 248.384C621.079 248.72 620.919 249.192 620.919 249.8C620.919 250.408 621.079 250.88 621.399 251.216C621.735 251.552 622.175 251.72 622.719 251.72C623.263 251.72 623.695 251.552 624.015 251.216C624.351 250.88 624.519 250.408 624.519 249.8C624.519 249.192 624.351 248.72 624.015 248.384ZM619.983 252.536C619.247 251.8 618.879 250.888 618.879 249.8C618.879 248.712 619.247 247.8 619.983 247.064C620.735 246.328 621.647 245.96 622.719 245.96C623.791 245.96 624.695 246.328 625.431 247.064C626.183 247.8 626.559 248.712 626.559 249.8C626.559 250.888 626.183 251.8 625.431 252.536C624.695 253.272 623.791 253.64 622.719 253.64C621.647 253.64 620.735 253.272 619.983 252.536ZM630.879 260.816C631.215 261.152 631.655 261.32 632.199 261.32C632.743 261.32 633.175 261.152 633.495 260.816C633.831 260.48 633.999 260.008 633.999 259.4C633.999 258.792 633.831 258.32 633.495 257.984C633.175 257.648 632.743 257.48 632.199 257.48C631.655 257.48 631.215 257.648 630.879 257.984C630.559 258.32 630.399 258.792 630.399 259.4C630.399 260.008 630.559 260.48 630.879 260.816ZM629.463 262.136C628.727 261.4 628.359 260.488 628.359 259.4C628.359 258.312 628.727 257.4 629.463 256.664C630.199 255.928 631.111 255.56 632.199 255.56C633.287 255.56 634.199 255.928 634.935 256.664C635.671 257.4 636.039 258.312 636.039 259.4C636.039 260.488 635.671 261.4 634.935 262.136C634.199 262.872 633.287 263.24 632.199 263.24C631.111 263.24 630.199 262.872 629.463 262.136Z" fill="white"/>
<path d="M60.32 308.6H63.68C65.264 308.6 66.576 308.048 67.616 306.944C68.672 305.824 69.2 304.376 69.2 302.6C69.2 300.824 68.672 299.384 67.616 298.28C66.576 297.16 65.264 296.6 63.68 296.6H60.32V308.6ZM57.8 311V294.2H63.68C65.968 294.2 67.88 294.992 69.416 296.576C70.952 298.16 71.72 300.168 71.72 302.6C71.72 305.032 70.952 307.04 69.416 308.624C67.88 310.208 65.968 311 63.68 311H57.8ZM76.1647 304.04H83.2447C83.1167 303.064 82.7407 302.28 82.1167 301.688C81.4927 301.096 80.7087 300.8 79.7647 300.8C78.7727 300.8 77.9727 301.096 77.3647 301.688C76.7567 302.264 76.3567 303.048 76.1647 304.04ZM82.6447 307.52H85.1647C84.8127 308.48 84.1727 309.344 83.2447 310.112C82.3327 310.864 81.1727 311.24 79.7647 311.24C78.0207 311.24 76.5807 310.664 75.4447 309.512C74.3247 308.36 73.7647 306.856 73.7647 305C73.7647 303.144 74.3247 301.64 75.4447 300.488C76.5807 299.336 78.0207 298.76 79.7647 298.76C81.3967 298.76 82.7647 299.32 83.8687 300.44C84.9727 301.56 85.5247 302.96 85.5247 304.64C85.5247 304.784 85.5007 305.072 85.4527 305.504L85.4047 305.84H76.1647C76.2927 306.864 76.6847 307.68 77.3407 308.288C77.9967 308.896 78.8047 309.2 79.7647 309.2C80.4367 309.2 81.0287 309.04 81.5407 308.72C82.0687 308.384 82.4367 307.984 82.6447 307.52ZM96.5722 306.8H98.9722C98.8602 307.296 98.6762 307.784 98.4202 308.264C98.1802 308.744 97.8442 309.216 97.4122 309.68C96.9962 310.144 96.4442 310.52 95.7562 310.808C95.0682 311.096 94.3002 311.24 93.4522 311.24C91.7082 311.24 90.2682 310.664 89.1322 309.512C88.0122 308.36 87.4522 306.856 87.4522 305C87.4522 303.144 88.0122 301.64 89.1322 300.488C90.2682 299.336 91.7082 298.76 93.4522 298.76C95.0522 298.76 96.3082 299.216 97.2202 300.128C98.1322 301.024 98.7162 302.008 98.9722 303.08H96.5722C96.0602 301.64 95.0202 300.92 93.4522 300.92C92.4122 300.92 91.5482 301.296 90.8602 302.048C90.1882 302.784 89.8522 303.768 89.8522 305C89.8522 306.232 90.1882 307.224 90.8602 307.976C91.5482 308.712 92.4122 309.08 93.4522 309.08C94.3162 309.08 95.0122 308.848 95.5402 308.384C96.0682 307.92 96.4122 307.392 96.5722 306.8ZM106.653 311V308.84L113.565 301.88C114.029 301.416 114.349 301.008 114.525 300.656C114.717 300.288 114.813 299.816 114.813 299.24C114.813 298.328 114.565 297.624 114.069 297.128C113.589 296.616 112.917 296.36 112.053 296.36C111.205 296.36 110.493 296.664 109.917 297.272C109.341 297.88 109.053 298.656 109.053 299.6H106.533C106.533 297.92 107.045 296.56 108.069 295.52C109.093 294.48 110.421 293.96 112.053 293.96C113.685 293.96 114.989 294.448 115.965 295.424C116.957 296.384 117.453 297.656 117.453 299.24C117.453 300.152 117.245 300.944 116.829 301.616C116.429 302.288 115.837 303.016 115.053 303.8L110.373 308.48V308.6H117.693V311H106.653ZM118.282 307.4V305.36L124.642 294.2H128.602V305.12H130.642V307.4H128.602V311H126.082V307.4H118.282ZM121.282 305.12H126.082V297.32H125.602L121.282 305V305.12Z" fill="white"/>
<rect x="140" y="298" width="444" height="8" rx="4" fill="#E4E4E7"/>
<rect x="140" y="298" width="280" height="8" rx="4" fill="#6E51E0"/>
<path d="M596.44 307.88C597.08 308.52 597.88 308.84 598.84 308.84C599.8 308.84 600.6 308.52 601.24 307.88C601.88 307.24 602.2 306.44 602.2 305.48C602.2 304.52 601.88 303.72 601.24 303.08C600.6 302.44 599.8 302.12 598.84 302.12C597.88 302.12 597.08 302.44 596.44 303.08C595.8 303.72 595.48 304.52 595.48 305.48C595.48 306.44 595.8 307.24 596.44 307.88ZM593.92 302.12L598.96 294.2H601.84L598.12 299.96H598.24L598.552 299.912C598.936 299.864 599.192 299.84 599.32 299.84C600.824 299.84 602.096 300.392 603.136 301.496C604.192 302.584 604.72 303.912 604.72 305.48C604.72 307.112 604.16 308.48 603.04 309.584C601.92 310.688 600.52 311.24 598.84 311.24C597.16 311.24 595.76 310.688 594.64 309.584C593.52 308.48 592.96 307.112 592.96 305.48C592.96 304.264 593.28 303.144 593.92 302.12ZM606.048 307.4V305.36L612.408 294.2H616.368V305.12H618.408V307.4H616.368V311H613.848V307.4H606.048ZM609.048 305.12H613.848V297.32H613.368L609.048 305V305.12ZM621.883 311L632.323 294.2H634.723L624.283 311H621.883ZM624.859 296.384C624.539 296.048 624.107 295.88 623.563 295.88C623.019 295.88 622.579 296.048 622.243 296.384C621.923 296.72 621.763 297.192 621.763 297.8C621.763 298.408 621.923 298.88 622.243 299.216C622.579 299.552 623.019 299.72 623.563 299.72C624.107 299.72 624.539 299.552 624.859 299.216C625.195 298.88 625.363 298.408 625.363 297.8C625.363 297.192 625.195 296.72 624.859 296.384ZM620.827 300.536C620.091 299.8 619.723 298.888 619.723 297.8C619.723 296.712 620.091 295.8 620.827 295.064C621.579 294.328 622.491 293.96 623.563 293.96C624.635 293.96 625.539 294.328 626.275 295.064C627.027 295.8 627.403 296.712 627.403 297.8C627.403 298.888 627.027 299.8 626.275 300.536C625.539 301.272 624.635 301.64 623.563 301.64C622.491 301.64 621.579 301.272 620.827 300.536ZM631.723 308.816C632.059 309.152 632.499 309.32 633.043 309.32C633.587 309.32 634.019 309.152 634.339 308.816C634.675 308.48 634.843 308.008 634.843 307.4C634.843 306.792 634.675 306.32 634.339 305.984C634.019 305.648 633.587 305.48 633.043 305.48C632.499 305.48 632.059 305.648 631.723 305.984C631.403 306.32 631.243 306.792 631.243 307.4C631.243 308.008 631.403 308.48 631.723 308.816ZM630.307 310.136C629.571 309.4 629.203 308.488 629.203 307.4C629.203 306.312 629.571 305.4 630.307 304.664C631.043 303.928 631.955 303.56 633.043 303.56C634.131 303.56 635.043 303.928 635.779 304.664C636.515 305.4 636.883 306.312 636.883 307.4C636.883 308.488 636.515 309.4 635.779 310.136C635.043 310.872 634.131 311.24 633.043 311.24C631.955 311.24 631.043 310.872 630.307 310.136Z" fill="white"/>
<path d="M56.24 359V356.6H60.176C60.512 356.6 60.776 356.496 60.968 356.288C61.176 356.064 61.28 355.768 61.28 355.4V342.2H63.8V355.88C63.8 357.96 62.76 359 60.68 359H56.24ZM74.8288 359L74.5888 357.68H74.4688C74.2288 357.984 73.9408 358.248 73.6048 358.472C72.8368 358.984 71.9248 359.24 70.8688 359.24C69.5568 359.24 68.5088 358.896 67.7248 358.208C66.9408 357.52 66.5488 356.624 66.5488 355.52C66.5488 354.288 66.9568 353.32 67.7728 352.616C68.6048 351.912 69.8368 351.56 71.4688 351.56H74.4688V351.32C74.4688 350.536 74.2448 349.92 73.7968 349.472C73.3488 349.024 72.7328 348.8 71.9488 348.8C71.1808 348.8 70.5888 348.976 70.1728 349.328C69.7568 349.664 69.5088 350.048 69.4288 350.48H67.0288C67.0928 349.424 67.5648 348.544 68.4448 347.84C69.3248 347.12 70.4928 346.76 71.9488 346.76C73.5008 346.76 74.7088 347.168 75.5728 347.984C76.4368 348.8 76.8688 349.912 76.8688 351.32V359H74.8288ZM74.4688 353.96V353.48H71.5888C70.7088 353.48 70.0448 353.656 69.5968 354.008C69.1648 354.36 68.9488 354.824 68.9488 355.4C68.9488 355.96 69.1328 356.4 69.5008 356.72C69.8688 357.04 70.4048 357.2 71.1088 357.2C72.1968 357.2 73.0288 356.92 73.6048 356.36C74.1808 355.784 74.4688 354.984 74.4688 353.96ZM79.8725 359V347H82.0325L82.2725 348.2H82.3925C82.6645 347.928 82.9605 347.688 83.2805 347.48C84.0485 347 84.9125 346.76 85.8725 346.76C87.3285 346.76 88.4885 347.216 89.3525 348.128C90.2325 349.024 90.6725 350.248 90.6725 351.8V359H88.2725V351.8C88.2725 351.016 87.9925 350.344 87.4325 349.784C86.8885 349.208 86.2085 348.92 85.3925 348.92C84.5125 348.92 83.7685 349.208 83.1605 349.784C82.5685 350.344 82.2725 351.016 82.2725 351.8V359H79.8725ZM98.9656 359V356.84L105.878 349.88C106.342 349.416 106.662 349.008 106.838 348.656C107.03 348.288 107.126 347.816 107.126 347.24C107.126 346.328 106.878 345.624 106.382 345.128C105.902 344.616 105.23 344.36 104.366 344.36C103.518 344.36 102.806 344.664 102.23 345.272C101.654 345.88 101.366 346.656 101.366 347.6H98.8456C98.8456 345.92 99.3576 344.56 100.382 343.52C101.406 342.48 102.734 341.96 104.366 341.96C105.998 341.96 107.302 342.448 108.278 343.424C109.27 344.384 109.766 345.656 109.766 347.24C109.766 348.152 109.558 348.944 109.142 349.616C108.742 350.288 108.15 351.016 107.366 351.8L102.686 356.48V356.6H110.006V359H98.9656ZM112.041 354.44H114.561C114.705 355.112 115.049 355.68 115.593 356.144C116.153 356.608 116.889 356.84 117.801 356.84C118.825 356.84 119.641 356.536 120.249 355.928C120.857 355.32 121.161 354.504 121.161 353.48C121.161 352.52 120.849 351.744 120.225 351.152C119.617 350.544 118.809 350.24 117.801 350.24C116.601 350.24 115.681 350.64 115.041 351.44H112.401L113.361 342.2H122.721V344.6H115.521L115.041 348.68H115.161C116.025 348.12 117.025 347.84 118.161 347.84C119.745 347.84 121.057 348.376 122.097 349.448C123.153 350.504 123.681 351.848 123.681 353.48C123.681 355.16 123.129 356.544 122.025 357.632C120.937 358.704 119.529 359.24 117.801 359.24C116.857 359.24 116.009 359.088 115.257 358.784C114.521 358.48 113.937 358.08 113.505 357.584C113.073 357.088 112.737 356.576 112.497 356.048C112.273 355.52 112.121 354.984 112.041 354.44Z" fill="white"/>
<rect x="140" y="346" width="444" height="8" rx="4" fill="#E4E4E7"/>
<rect x="140" y="346" width="340" height="8" rx="4" fill="#6E51E0"/>
<path d="M595.6 350.36V350.24C595.184 350.016 594.824 349.744 594.52 349.424C593.8 348.672 593.44 347.744 593.44 346.64C593.44 345.328 593.928 344.224 594.904 343.328C595.896 342.416 597.208 341.96 598.84 341.96C600.472 341.96 601.776 342.416 602.752 343.328C603.744 344.224 604.24 345.328 604.24 346.64C604.24 347.744 603.88 348.672 603.16 349.424C602.856 349.744 602.496 350.016 602.08 350.24V350.36C602.56 350.616 602.976 350.92 603.328 351.272C604.176 352.12 604.6 353.136 604.6 354.32C604.6 355.696 604.072 356.864 603.016 357.824C601.96 358.768 600.568 359.24 598.84 359.24C597.112 359.24 595.72 358.768 594.664 357.824C593.608 356.864 593.08 355.696 593.08 354.32C593.08 353.12 593.496 352.104 594.328 351.272C594.696 350.904 595.12 350.6 595.6 350.36ZM596.728 344.96C596.216 345.424 595.96 346.024 595.96 346.76C595.96 347.496 596.216 348.104 596.728 348.584C597.24 349.048 597.944 349.28 598.84 349.28C599.736 349.28 600.44 349.048 600.952 348.584C601.464 348.104 601.72 347.496 601.72 346.76C601.72 346.024 601.464 345.424 600.952 344.96C600.44 344.48 599.736 344.24 598.84 344.24C597.944 344.24 597.24 344.48 596.728 344.96ZM596.512 352.232C595.904 352.76 595.6 353.416 595.6 354.2C595.6 354.984 595.904 355.64 596.512 356.168C597.12 356.696 597.896 356.96 598.84 356.96C599.784 356.96 600.56 356.696 601.168 356.168C601.776 355.64 602.08 354.984 602.08 354.2C602.08 353.416 601.776 352.76 601.168 352.232C600.56 351.704 599.784 351.44 598.84 351.44C597.896 351.44 597.12 351.704 596.512 352.232ZM609.288 350.36V350.24C608.872 350.016 608.512 349.744 608.208 349.424C607.488 348.672 607.128 347.744 607.128 346.64C607.128 345.328 607.616 344.224 608.592 343.328C609.584 342.416 610.896 341.96 612.528 341.96C614.16 341.96 615.464 342.416 616.44 343.328C617.432 344.224 617.928 345.328 617.928 346.64C617.928 347.744 617.568 348.672 616.848 349.424C616.544 349.744 616.184 350.016 615.768 350.24V350.36C616.248 350.616 616.664 350.92 617.016 351.272C617.864 352.12 618.288 353.136 618.288 354.32C618.288 355.696 617.76 356.864 616.704 357.824C615.648 358.768 614.256 359.24 612.528 359.24C610.8 359.24 609.408 358.768 608.352 357.824C607.296 356.864 606.768 355.696 606.768 354.32C606.768 353.12 607.184 352.104 608.016 351.272C608.384 350.904 608.808 350.6 609.288 350.36ZM610.416 344.96C609.904 345.424 609.648 346.024 609.648 346.76C609.648 347.496 609.904 348.104 610.416 348.584C610.928 349.048 611.632 349.28 612.528 349.28C613.424 349.28 614.128 349.048 614.64 348.584C615.152 348.104 615.408 347.496 615.408 346.76C615.408 346.024 615.152 345.424 614.64 344.96C614.128 344.48 613.424 344.24 612.528 344.24C611.632 344.24 610.928 344.48 610.416 344.96ZM610.2 352.232C609.592 352.76 609.288 353.416 609.288 354.2C609.288 354.984 609.592 355.64 610.2 356.168C610.808 356.696 611.584 356.96 612.528 356.96C613.472 356.96 614.248 356.696 614.856 356.168C615.464 355.64 615.768 354.984 615.768 354.2C615.768 353.416 615.464 352.76 614.856 352.232C614.248 351.704 613.472 351.44 612.528 351.44C611.584 351.44 610.808 351.704 610.2 352.232ZM622.375 359L632.815 342.2H635.215L624.775 359H622.375ZM625.351 344.384C625.031 344.048 624.599 343.88 624.055 343.88C623.511 343.88 623.071 344.048 622.735 344.384C622.415 344.72 622.255 345.192 622.255 345.8C622.255 346.408 622.415 346.88 622.735 347.216C623.071 347.552 623.511 347.72 624.055 347.72C624.599 347.72 625.031 347.552 625.351 347.216C625.687 346.88 625.855 346.408 625.855 345.8C625.855 345.192 625.687 344.72 625.351 344.384ZM621.319 348.536C620.583 347.8 620.215 346.888 620.215 345.8C620.215 344.712 620.583 343.8 621.319 343.064C622.071 342.328 622.983 341.96 624.055 341.96C625.127 341.96 626.031 342.328 626.767 343.064C627.519 343.8 627.895 344.712 627.895 345.8C627.895 346.888 627.519 347.8 626.767 348.536C626.031 349.272 625.127 349.64 624.055 349.64C622.983 349.64 622.071 349.272 621.319 348.536ZM632.215 356.816C632.551 357.152 632.991 357.32 633.535 357.32C634.079 357.32 634.511 357.152 634.831 356.816C635.167 356.48 635.335 356.008 635.335 355.4C635.335 354.792 635.167 354.32 634.831 353.984C634.511 353.648 634.079 353.48 633.535 353.48C632.991 353.48 632.551 353.648 632.215 353.984C631.895 354.32 631.735 354.792 631.735 355.4C631.735 356.008 631.895 356.48 632.215 356.816ZM630.799 358.136C630.063 357.4 629.695 356.488 629.695 355.4C629.695 354.312 630.063 353.4 630.799 352.664C631.535 351.928 632.447 351.56 633.535 351.56C634.623 351.56 635.535 351.928 636.271 352.664C637.007 353.4 637.375 354.312 637.375 355.4C637.375 356.488 637.007 357.4 636.271 358.136C635.535 358.872 634.623 359.24 633.535 359.24C632.447 359.24 631.535 358.872 630.799 358.136Z" fill="white"/>
<path d="M57.8 407V390.2H68.6V392.6H60.32V397.4H68.12V399.8H60.32V407H57.8ZM72.0866 400.04H79.1666C79.0386 399.064 78.6626 398.28 78.0386 397.688C77.4146 397.096 76.6306 396.8 75.6866 396.8C74.6946 396.8 73.8946 397.096 73.2866 397.688C72.6786 398.264 72.2786 399.048 72.0866 400.04ZM78.5666 403.52H81.0866C80.7346 404.48 80.0946 405.344 79.1666 406.112C78.2546 406.864 77.0946 407.24 75.6866 407.24C73.9426 407.24 72.5026 406.664 71.3666 405.512C70.2466 404.36 69.6866 402.856 69.6866 401C69.6866 399.144 70.2466 397.64 71.3666 396.488C72.5026 395.336 73.9426 394.76 75.6866 394.76C77.3186 394.76 78.6866 395.32 79.7906 396.44C80.8946 397.56 81.4466 398.96 81.4466 400.64C81.4466 400.784 81.4226 401.072 81.3746 401.504L81.3266 401.84H72.0866C72.2146 402.864 72.6066 403.68 73.2626 404.288C73.9186 404.896 74.7266 405.2 75.6866 405.2C76.3586 405.2 76.9506 405.04 77.4626 404.72C77.9906 404.384 78.3586 403.984 78.5666 403.52ZM84.0941 407V390.2H86.4941V396.44H86.6141C86.8701 396.152 87.0861 395.928 87.2621 395.768C87.4381 395.592 87.8141 395.384 88.3901 395.144C88.9821 394.888 89.6301 394.76 90.3341 394.76C91.9341 394.76 93.2541 395.328 94.2941 396.464C95.3341 397.6 95.8541 399.112 95.8541 401C95.8541 402.888 95.3341 404.4 94.2941 405.536C93.2541 406.672 91.9341 407.24 90.3341 407.24C88.7021 407.24 87.4621 406.68 86.6141 405.56H86.4941L86.2541 407H84.0941ZM87.4781 403.952C88.1501 404.704 88.9821 405.08 89.9741 405.08C90.9661 405.08 91.7901 404.704 92.4461 403.952C93.1181 403.2 93.4541 402.216 93.4541 401C93.4541 399.784 93.1181 398.8 92.4461 398.048C91.7901 397.296 90.9661 396.92 89.9741 396.92C88.9821 396.92 88.1501 397.296 87.4781 398.048C86.8221 398.8 86.4941 399.784 86.4941 401C86.4941 402.216 86.8221 403.2 87.4781 403.952ZM103.653 407V404.84L110.565 397.88C111.029 397.416 111.349 397.008 111.525 396.656C111.717 396.288 111.813 395.816 111.813 395.24C111.813 394.328 111.565 393.624 111.069 393.128C110.589 392.616 109.917 392.36 109.053 392.36C108.205 392.36 107.493 392.664 106.917 393.272C106.341 393.88 106.053 394.656 106.053 395.6H103.533C103.533 393.92 104.045 392.56 105.069 391.52C106.093 390.48 107.421 389.96 109.053 389.96C110.685 389.96 111.989 390.448 112.965 391.424C113.957 392.384 114.453 393.656 114.453 395.24C114.453 396.152 114.245 396.944 113.829 397.616C113.429 398.288 112.837 399.016 112.053 399.8L107.373 404.48V404.6H114.693V407H103.653ZM116.728 402.44H119.248C119.392 403.112 119.736 403.68 120.28 404.144C120.84 404.608 121.576 404.84 122.488 404.84C123.512 404.84 124.328 404.536 124.936 403.928C125.544 403.32 125.848 402.504 125.848 401.48C125.848 400.52 125.536 399.744 124.912 399.152C124.304 398.544 123.496 398.24 122.488 398.24C121.288 398.24 120.368 398.64 119.728 399.44H117.088L118.048 390.2H127.408V392.6H120.208L119.728 396.68H119.848C120.712 396.12 121.712 395.84 122.848 395.84C124.432 395.84 125.744 396.376 126.784 397.448C127.84 398.504 128.368 399.848 128.368 401.48C128.368 403.16 127.816 404.544 126.712 405.632C125.624 406.704 124.216 407.24 122.488 407.24C121.544 407.24 120.696 407.088 119.944 406.784C119.208 406.48 118.624 406.08 118.192 405.584C117.76 405.088 117.424 404.576 117.184 404.048C116.96 403.52 116.808 402.984 116.728 402.44Z" fill="white"/>
<rect x="140" y="394" width="444" height="8" rx="4" fill="#E4E4E7"/>
<rect x="140" y="394" width="288" height="8" rx="4" fill="#6E51E0"/>
<path d="M596.44 403.88C597.08 404.52 597.88 404.84 598.84 404.84C599.8 404.84 600.6 404.52 601.24 403.88C601.88 403.24 602.2 402.44 602.2 401.48C602.2 400.52 601.88 399.72 601.24 399.08C600.6 398.44 599.8 398.12 598.84 398.12C597.88 398.12 597.08 398.44 596.44 399.08C595.8 399.72 595.48 400.52 595.48 401.48C595.48 402.44 595.8 403.24 596.44 403.88ZM593.92 398.12L598.96 390.2H601.84L598.12 395.96H598.24L598.552 395.912C598.936 395.864 599.192 395.84 599.32 395.84C600.824 395.84 602.096 396.392 603.136 397.496C604.192 398.584 604.72 399.912 604.72 401.48C604.72 403.112 604.16 404.48 603.04 405.584C601.92 406.688 600.52 407.24 598.84 407.24C597.16 407.24 595.76 406.688 594.64 405.584C593.52 404.48 592.96 403.112 592.96 401.48C592.96 400.264 593.28 399.144 593.92 398.12ZM609.288 398.36V398.24C608.872 398.016 608.512 397.744 608.208 397.424C607.488 396.672 607.128 395.744 607.128 394.64C607.128 393.328 607.616 392.224 608.592 391.328C609.584 390.416 610.896 389.96 612.528 389.96C614.16 389.96 615.464 390.416 616.44 391.328C617.432 392.224 617.928 393.328 617.928 394.64C617.928 395.744 617.568 396.672 616.848 397.424C616.544 397.744 616.184 398.016 615.768 398.24V398.36C616.248 398.616 616.664 398.92 617.016 399.272C617.864 400.12 618.288 401.136 618.288 402.32C618.288 403.696 617.76 404.864 616.704 405.824C615.648 406.768 614.256 407.24 612.528 407.24C610.8 407.24 609.408 406.768 608.352 405.824C607.296 404.864 606.768 403.696 606.768 402.32C606.768 401.12 607.184 400.104 608.016 399.272C608.384 398.904 608.808 398.6 609.288 398.36ZM610.416 392.96C609.904 393.424 609.648 394.024 609.648 394.76C609.648 395.496 609.904 396.104 610.416 396.584C610.928 397.048 611.632 397.28 612.528 397.28C613.424 397.28 614.128 397.048 614.64 396.584C615.152 396.104 615.408 395.496 615.408 394.76C615.408 394.024 615.152 393.424 614.64 392.96C614.128 392.48 613.424 392.24 612.528 392.24C611.632 392.24 610.928 392.48 610.416 392.96ZM610.2 400.232C609.592 400.76 609.288 401.416 609.288 402.2C609.288 402.984 609.592 403.64 610.2 404.168C610.808 404.696 611.584 404.96 612.528 404.96C613.472 404.96 614.248 404.696 614.856 404.168C615.464 403.64 615.768 402.984 615.768 402.2C615.768 401.416 615.464 400.76 614.856 400.232C614.248 399.704 613.472 399.44 612.528 399.44C611.584 399.44 610.808 399.704 610.2 400.232ZM622.375 407L632.815 390.2H635.215L624.775 407H622.375ZM625.351 392.384C625.031 392.048 624.599 391.88 624.055 391.88C623.511 391.88 623.071 392.048 622.735 392.384C622.415 392.72 622.255 393.192 622.255 393.8C622.255 394.408 622.415 394.88 622.735 395.216C623.071 395.552 623.511 395.72 624.055 395.72C624.599 395.72 625.031 395.552 625.351 395.216C625.687 394.88 625.855 394.408 625.855 393.8C625.855 393.192 625.687 392.72 625.351 392.384ZM621.319 396.536C620.583 395.8 620.215 394.888 620.215 393.8C620.215 392.712 620.583 391.8 621.319 391.064C622.071 390.328 622.983 389.96 624.055 389.96C625.127 389.96 626.031 390.328 626.767 391.064C627.519 391.8 627.895 392.712 627.895 393.8C627.895 394.888 627.519 395.8 626.767 396.536C626.031 397.272 625.127 397.64 624.055 397.64C622.983 397.64 622.071 397.272 621.319 396.536ZM632.215 404.816C632.551 405.152 632.991 405.32 633.535 405.32C634.079 405.32 634.511 405.152 634.831 404.816C635.167 404.48 635.335 404.008 635.335 403.4C635.335 402.792 635.167 402.32 634.831 401.984C634.511 401.648 634.079 401.48 633.535 401.48C632.991 401.48 632.551 401.648 632.215 401.984C631.895 402.32 631.735 402.792 631.735 403.4C631.735 404.008 631.895 404.48 632.215 404.816ZM630.799 406.136C630.063 405.4 629.695 404.488 629.695 403.4C629.695 402.312 630.063 401.4 630.799 400.664C631.535 399.928 632.447 399.56 633.535 399.56C634.623 399.56 635.535 399.928 636.271 400.664C637.007 401.4 637.375 402.312 637.375 403.4C637.375 404.488 637.007 405.4 636.271 406.136C635.535 406.872 634.623 407.24 633.535 407.24C632.447 407.24 631.535 406.872 630.799 406.136Z" fill="white"/>
<path d="M57.8 455V438.2H62.12L66.56 451.4H67.04L71.48 438.2H75.8V455H73.28V442.16H72.8L68.48 455H65.12L60.8 442.16H60.32V455H57.8ZM86.9694 455L86.7294 453.68H86.6094C86.3694 453.984 86.0814 454.248 85.7454 454.472C84.9774 454.984 84.0654 455.24 83.0094 455.24C81.6974 455.24 80.6494 454.896 79.8654 454.208C79.0814 453.52 78.6894 452.624 78.6894 451.52C78.6894 450.288 79.0974 449.32 79.9134 448.616C80.7454 447.912 81.9774 447.56 83.6094 447.56H86.6094V447.32C86.6094 446.536 86.3854 445.92 85.9374 445.472C85.4894 445.024 84.8734 444.8 84.0894 444.8C83.3214 444.8 82.7294 444.976 82.3134 445.328C81.8974 445.664 81.6494 446.048 81.5694 446.48H79.1694C79.2334 445.424 79.7054 444.544 80.5854 443.84C81.4654 443.12 82.6334 442.76 84.0894 442.76C85.6414 442.76 86.8494 443.168 87.7134 443.984C88.5774 444.8 89.0094 445.912 89.0094 447.32V455H86.9694ZM86.6094 449.96V449.48H83.7294C82.8494 449.48 82.1854 449.656 81.7374 450.008C81.3054 450.36 81.0894 450.824 81.0894 451.4C81.0894 451.96 81.2734 452.4 81.6414 452.72C82.0094 453.04 82.5454 453.2 83.2494 453.2C84.3374 453.2 85.1694 452.92 85.7454 452.36C86.3214 451.784 86.6094 450.984 86.6094 449.96ZM92.0131 455V443H94.0531L94.2931 444.08H94.4131C94.4291 444.064 94.4771 444.008 94.5571 443.912C94.6531 443.816 94.7091 443.752 94.7251 443.72C94.7571 443.688 94.8211 443.632 94.9171 443.552C95.0131 443.456 95.0931 443.392 95.1571 443.36C95.2211 443.328 95.3091 443.288 95.4211 443.24C95.5331 443.176 95.6451 443.136 95.7571 443.12C95.8851 443.088 96.0291 443.064 96.1891 443.048C96.3491 443.016 96.5171 443 96.6931 443H98.8531V445.16H96.9331C95.2531 445.16 94.4131 445.992 94.4131 447.656V455H92.0131ZM105.223 455V452.84L112.135 445.88C112.599 445.416 112.919 445.008 113.095 444.656C113.287 444.288 113.383 443.816 113.383 443.24C113.383 442.328 113.135 441.624 112.639 441.128C112.159 440.616 111.487 440.36 110.623 440.36C109.775 440.36 109.063 440.664 108.487 441.272C107.911 441.88 107.623 442.656 107.623 443.6H105.103C105.103 441.92 105.615 440.56 106.639 439.52C107.663 438.48 108.991 437.96 110.623 437.96C112.255 437.96 113.559 438.448 114.535 439.424C115.527 440.384 116.023 441.656 116.023 443.24C116.023 444.152 115.815 444.944 115.399 445.616C114.999 446.288 114.407 447.016 113.623 447.8L108.943 452.48V452.6H116.263V455H105.223ZM118.299 450.44H120.819C120.963 451.112 121.307 451.68 121.851 452.144C122.411 452.608 123.147 452.84 124.059 452.84C125.083 452.84 125.899 452.536 126.507 451.928C127.115 451.32 127.419 450.504 127.419 449.48C127.419 448.52 127.107 447.744 126.483 447.152C125.875 446.544 125.067 446.24 124.059 446.24C122.859 446.24 121.939 446.64 121.299 447.44H118.659L119.619 438.2H128.979V440.6H121.779L121.299 444.68H121.419C122.283 444.12 123.283 443.84 124.419 443.84C126.003 443.84 127.315 444.376 128.355 445.448C129.411 446.504 129.939 447.848 129.939 449.48C129.939 451.16 129.387 452.544 128.283 453.632C127.195 454.704 125.787 455.24 124.059 455.24C123.115 455.24 122.267 455.088 121.515 454.784C120.779 454.48 120.195 454.08 119.763 453.584C119.331 453.088 118.995 452.576 118.755 452.048C118.531 451.52 118.379 450.984 118.299 450.44Z" fill="white"/>
<rect x="140" y="442" width="444" height="8" rx="4" fill="#E4E4E7"/>
<rect x="140" y="442" width="300" height="8" rx="4" fill="#6E51E0"/>
<path d="M594.736 455L600.64 440.6H592.6V438.2H603.52V440.36L597.52 455H594.736ZM604.708 455V452.84L611.62 445.88C612.084 445.416 612.404 445.008 612.58 444.656C612.772 444.288 612.868 443.816 612.868 443.24C612.868 442.328 612.62 441.624 612.124 441.128C611.644 440.616 610.972 440.36 610.108 440.36C609.26 440.36 608.548 440.664 607.972 441.272C607.396 441.88 607.108 442.656 607.108 443.6H604.588C604.588 441.92 605.1 440.56 606.124 439.52C607.148 438.48 608.476 437.96 610.108 437.96C611.74 437.96 613.044 438.448 614.02 439.424C615.012 440.384 615.508 441.656 615.508 443.24C615.508 444.152 615.3 444.944 614.884 445.616C614.484 446.288 613.892 447.016 613.108 447.8L608.428 452.48V452.6H615.748V455H604.708ZM619.703 455L630.143 438.2H632.543L622.103 455H619.703ZM622.679 440.384C622.359 440.048 621.927 439.88 621.383 439.88C620.839 439.88 620.399 440.048 620.063 440.384C619.743 440.72 619.583 441.192 619.583 441.8C619.583 442.408 619.743 442.88 620.063 443.216C620.399 443.552 620.839 443.72 621.383 443.72C621.927 443.72 622.359 443.552 622.679 443.216C623.015 442.88 623.183 442.408 623.183 441.8C623.183 441.192 623.015 440.72 622.679 440.384ZM618.647 444.536C617.911 443.8 617.543 442.888 617.543 441.8C617.543 440.712 617.911 439.8 618.647 439.064C619.399 438.328 620.311 437.96 621.383 437.96C622.455 437.96 623.359 438.328 624.095 439.064C624.847 439.8 625.223 440.712 625.223 441.8C625.223 442.888 624.847 443.8 624.095 444.536C623.359 445.272 622.455 445.64 621.383 445.64C620.311 445.64 619.399 445.272 618.647 444.536ZM629.543 452.816C629.879 453.152 630.319 453.32 630.863 453.32C631.407 453.32 631.839 453.152 632.159 452.816C632.495 452.48 632.663 452.008 632.663 451.4C632.663 450.792 632.495 450.32 632.159 449.984C631.839 449.648 631.407 449.48 630.863 449.48C630.319 449.48 629.879 449.648 629.543 449.984C629.223 450.32 629.063 450.792 629.063 451.4C629.063 452.008 629.223 452.48 629.543 452.816ZM628.127 454.136C627.391 453.4 627.023 452.488 627.023 451.4C627.023 450.312 627.391 449.4 628.127 448.664C628.863 447.928 629.775 447.56 630.863 447.56C631.951 447.56 632.863 447.928 633.599 448.664C634.335 449.4 634.703 450.312 634.703 451.4C634.703 452.488 634.335 453.4 633.599 454.136C632.863 454.872 631.951 455.24 630.863 455.24C629.775 455.24 628.863 454.872 628.127 454.136Z" fill="white"/>
<path d="M56 503L62.12 486.2H65.96L72.08 503H69.32L67.88 499.04H60.2L58.76 503H56ZM61.04 496.76H67.04L64.28 489.08H63.8L61.04 496.76ZM73.6381 507.8V491H75.7981L76.0381 492.44H76.1581C76.4141 492.152 76.6301 491.928 76.8061 491.768C76.9821 491.592 77.3581 491.384 77.9341 491.144C78.5261 490.888 79.1741 490.76 79.8781 490.76C81.4781 490.76 82.7981 491.328 83.8381 492.464C84.8781 493.6 85.3981 495.112 85.3981 497C85.3981 498.888 84.8781 500.4 83.8381 501.536C82.7981 502.672 81.4781 503.24 79.8781 503.24C78.2301 503.24 76.9901 502.68 76.1581 501.56H76.0381V507.8H73.6381ZM77.0221 499.952C77.6941 500.704 78.5261 501.08 79.5181 501.08C80.5101 501.08 81.3341 500.704 81.9901 499.952C82.6621 499.2 82.9981 498.216 82.9981 497C82.9981 495.784 82.6621 494.8 81.9901 494.048C81.3341 493.296 80.5101 492.92 79.5181 492.92C78.5261 492.92 77.6941 493.296 77.0221 494.048C76.3661 494.8 76.0381 495.784 76.0381 497C76.0381 498.216 76.3661 499.2 77.0221 499.952ZM87.9116 503V491H89.9516L90.1916 492.08H90.3116C90.3276 492.064 90.3756 492.008 90.4556 491.912C90.5516 491.816 90.6076 491.752 90.6236 491.72C90.6556 491.688 90.7196 491.632 90.8156 491.552C90.9116 491.456 90.9916 491.392 91.0556 491.36C91.1196 491.328 91.2076 491.288 91.3196 491.24C91.4316 491.176 91.5436 491.136 91.6556 491.12C91.7836 491.088 91.9276 491.064 92.0876 491.048C92.2476 491.016 92.4156 491 92.5916 491H94.7516V493.16H92.8316C91.1516 493.16 90.3116 493.992 90.3116 495.656V503H87.9116ZM101.122 503V500.84L108.034 493.88C108.498 493.416 108.818 493.008 108.994 492.656C109.186 492.288 109.282 491.816 109.282 491.24C109.282 490.328 109.034 489.624 108.538 489.128C108.058 488.616 107.386 488.36 106.522 488.36C105.674 488.36 104.962 488.664 104.386 489.272C103.81 489.88 103.522 490.656 103.522 491.6H101.002C101.002 489.92 101.514 488.56 102.538 487.52C103.562 486.48 104.89 485.96 106.522 485.96C108.154 485.96 109.458 486.448 110.434 487.424C111.426 488.384 111.922 489.656 111.922 491.24C111.922 492.152 111.714 492.944 111.298 493.616C110.898 494.288 110.306 495.016 109.522 495.8L104.842 500.48V500.6H112.162V503H101.122ZM114.197 498.44H116.717C116.861 499.112 117.205 499.68 117.749 500.144C118.309 500.608 119.045 500.84 119.957 500.84C120.981 500.84 121.797 500.536 122.405 499.928C123.013 499.32 123.317 498.504 123.317 497.48C123.317 496.52 123.005 495.744 122.381 495.152C121.773 494.544 120.965 494.24 119.957 494.24C118.757 494.24 117.837 494.64 117.197 495.44H114.557L115.517 486.2H124.877V488.6H117.677L117.197 492.68H117.317C118.181 492.12 119.181 491.84 120.317 491.84C121.901 491.84 123.213 492.376 124.253 493.448C125.309 494.504 125.837 495.848 125.837 497.48C125.837 499.16 125.285 500.544 124.181 501.632C123.093 502.704 121.685 503.24 119.957 503.24C119.013 503.24 118.165 503.088 117.413 502.784C116.677 502.48 116.093 502.08 115.661 501.584C115.229 501.088 114.893 500.576 114.653 500.048C114.429 499.52 114.277 498.984 114.197 498.44Z" fill="white"/>
<rect x="140" y="490" width="444" height="8" rx="4" fill="#E4E4E7"/>
<rect x="140" y="490" width="332" height="8" rx="4" fill="#6E51E0"/>
<path d="M595.6 494.36V494.24C595.184 494.016 594.824 493.744 594.52 493.424C593.8 492.672 593.44 491.744 593.44 490.64C593.44 489.328 593.928 488.224 594.904 487.328C595.896 486.416 597.208 485.96 598.84 485.96C600.472 485.96 601.776 486.416 602.752 487.328C603.744 488.224 604.24 489.328 604.24 490.64C604.24 491.744 603.88 492.672 603.16 493.424C602.856 493.744 602.496 494.016 602.08 494.24V494.36C602.56 494.616 602.976 494.92 603.328 495.272C604.176 496.12 604.6 497.136 604.6 498.32C604.6 499.696 604.072 500.864 603.016 501.824C601.96 502.768 600.568 503.24 598.84 503.24C597.112 503.24 595.72 502.768 594.664 501.824C593.608 500.864 593.08 499.696 593.08 498.32C593.08 497.12 593.496 496.104 594.328 495.272C594.696 494.904 595.12 494.6 595.6 494.36ZM596.728 488.96C596.216 489.424 595.96 490.024 595.96 490.76C595.96 491.496 596.216 492.104 596.728 492.584C597.24 493.048 597.944 493.28 598.84 493.28C599.736 493.28 600.44 493.048 600.952 492.584C601.464 492.104 601.72 491.496 601.72 490.76C601.72 490.024 601.464 489.424 600.952 488.96C600.44 488.48 599.736 488.24 598.84 488.24C597.944 488.24 597.24 488.48 596.728 488.96ZM596.512 496.232C595.904 496.76 595.6 497.416 595.6 498.2C595.6 498.984 595.904 499.64 596.512 500.168C597.12 500.696 597.896 500.96 598.84 500.96C599.784 500.96 600.56 500.696 601.168 500.168C601.776 499.64 602.08 498.984 602.08 498.2C602.08 497.416 601.776 496.76 601.168 496.232C600.56 495.704 599.784 495.44 598.84 495.44C597.896 495.44 597.12 495.704 596.512 496.232ZM610.128 499.88C610.768 500.52 611.568 500.84 612.528 500.84C613.488 500.84 614.288 500.52 614.928 499.88C615.568 499.24 615.888 498.44 615.888 497.48C615.888 496.52 615.568 495.72 614.928 495.08C614.288 494.44 613.488 494.12 612.528 494.12C611.568 494.12 610.768 494.44 610.128 495.08C609.488 495.72 609.168 496.52 609.168 497.48C609.168 498.44 609.488 499.24 610.128 499.88ZM607.608 494.12L612.648 486.2H615.528L611.808 491.96H611.928L612.24 491.912C612.624 491.864 612.88 491.84 613.008 491.84C614.512 491.84 615.784 492.392 616.824 493.496C617.88 494.584 618.408 495.912 618.408 497.48C618.408 499.112 617.848 500.48 616.728 501.584C615.608 502.688 614.208 503.24 612.528 503.24C610.848 503.24 609.448 502.688 608.328 501.584C607.208 500.48 606.648 499.112 606.648 497.48C606.648 496.264 606.968 495.144 607.608 494.12ZM622.375 503L632.815 486.2H635.215L624.775 503H622.375ZM625.351 488.384C625.031 488.048 624.599 487.88 624.055 487.88C623.511 487.88 623.071 488.048 622.735 488.384C622.415 488.72 622.255 489.192 622.255 489.8C622.255 490.408 622.415 490.88 622.735 491.216C623.071 491.552 623.511 491.72 624.055 491.72C624.599 491.72 625.031 491.552 625.351 491.216C625.687 490.88 625.855 490.408 625.855 489.8C625.855 489.192 625.687 488.72 625.351 488.384ZM621.319 492.536C620.583 491.8 620.215 490.888 620.215 489.8C620.215 488.712 620.583 487.8 621.319 487.064C622.071 486.328 622.983 485.96 624.055 485.96C625.127 485.96 626.031 486.328 626.767 487.064C627.519 487.8 627.895 488.712 627.895 489.8C627.895 490.888 627.519 491.8 626.767 492.536C626.031 493.272 625.127 493.64 624.055 493.64C622.983 493.64 622.071 493.272 621.319 492.536ZM632.215 500.816C632.551 501.152 632.991 501.32 633.535 501.32C634.079 501.32 634.511 501.152 634.831 500.816C635.167 500.48 635.335 500.008 635.335 499.4C635.335 498.792 635.167 498.32 634.831 497.984C634.511 497.648 634.079 497.48 633.535 497.48C632.991 497.48 632.551 497.648 632.215 497.984C631.895 498.32 631.735 498.792 631.735 499.4C631.735 500.008 631.895 500.48 632.215 500.816ZM630.799 502.136C630.063 501.4 629.695 500.488 629.695 499.4C629.695 498.312 630.063 497.4 630.799 496.664C631.535 495.928 632.447 495.56 633.535 495.56C634.623 495.56 635.535 495.928 636.271 496.664C637.007 497.4 637.375 498.312 637.375 499.4C637.375 500.488 637.007 501.4 636.271 502.136C635.535 502.872 634.623 503.24 633.535 503.24C632.447 503.24 631.535 502.872 630.799 502.136Z" fill="white"/>
</g>
<defs>
<filter id="filter0_ddd_2463_6566" x="25" y="27" width="646" height="522" filterUnits="userSpaceOnUse" color-interpolation-filters="sRGB">
<feFlood flood-opacity="0" result="BackgroundImageFix"/>
<feColorMatrix in="SourceAlpha" type="matrix" values="0 0 0 0 0 0 0 0 0 0 0 0 0 0 0 0 0 0 127 0" result="hardAlpha"/>
<feMorphology radius="1" operator="dilate" in="SourceAlpha" result="effect1_dropShadow_2463_6566"/>
<feOffset/>
<feComposite in2="hardAlpha" operator="out"/>
<feColorMatrix type="matrix" values="0 0 0 0 0.0627451 0 0 0 0 0.0980392 0 0 0 0 0.156863 0 0 0 0.05 0"/>
<feBlend mode="normal" in2="BackgroundImageFix" result="effect1_dropShadow_2463_6566"/>
<feColorMatrix in="SourceAlpha" type="matrix" values="0 0 0 0 0 0 0 0 0 0 0 0 0 0 0 0 0 0 127 0" result="hardAlpha"/>
<feOffset dy="2"/>
<feGaussianBlur stdDeviation="3.5"/>
<feComposite in2="hardAlpha" operator="out"/>
<feColorMatrix type="matrix" values="0 0 0 0 0.0627451 0 0 0 0 0.0980392 0 0 0 0 0.156863 0 0 0 0.05 0"/>
<feBlend mode="normal" in2="effect1_dropShadow_2463_6566" result="effect2_dropShadow_2463_6566"/>
<feColorMatrix in="SourceAlpha" type="matrix" values="0 0 0 0 0 0 0 0 0 0 0 0 0 0 0 0 0 0 127 0" result="hardAlpha"/>
<feMorphology radius="2" operator="erode" in="SourceAlpha" result="effect3_dropShadow_2463_6566"/>
<feOffset dy="2"/>
<feGaussianBlur stdDeviation="2.5"/>
<feComposite in2="hardAlpha" operator="out"/>
<feColorMatrix type="matrix" values="0 0 0 0 0.0627451 0 0 0 0 0.0980392 0 0 0 0 0.156863 0 0 0 0.06 0"/>
<feBlend mode="normal" in2="effect2_dropShadow_2463_6566" result="effect3_dropShadow_2463_6566"/>
<feBlend mode="normal" in="SourceGraphic" in2="effect3_dropShadow_2463_6566" result="shape"/>
</filter>
<linearGradient id="paint0_linear_2463_6566" x1="-123.806" y1="-165.386" x2="822.398" y2="290.66" gradientUnits="userSpaceOnUse">
<stop stop-color="white"/>
<stop offset="1" stop-color="white" stop-opacity="0"/>
</linearGradient>
<linearGradient id="paint1_linear_2463_6566" x1="-670.222" y1="-531.084" x2="841.271" y2="80.3722" gradientUnits="userSpaceOnUse">
<stop stop-color="white"/>
<stop offset="1" stop-color="white" stop-opacity="0"/>
</linearGradient>
</defs>
</svg>
