<svg width="626" height="374" viewBox="0 0 626 374" fill="none" xmlns="http://www.w3.org/2000/svg">
<g filter="url(#filter0_ddd_3550_98146)">
<rect x="7" y="5" width="298" height="172" rx="8" fill="url(#paint0_linear_3550_98146)" fill-opacity="0.1" shape-rendering="crispEdges"/>
<rect x="7.5" y="5.5" width="297" height="171" rx="7.5" stroke="url(#paint1_linear_3550_98146)" stroke-opacity="0.1" shape-rendering="crispEdges"/>
<path d="M28.54 39.95V30.6H30.3V39.95C30.3 41.314 30.7033 42.4287 31.51 43.294C32.3313 44.1447 33.358 44.57 34.59 44.57C35.8073 44.57 36.8267 44.1373 37.648 43.272C38.4693 42.4067 38.88 41.2993 38.88 39.95V30.6H40.64V39.95C40.64 41.8127 40.068 43.3233 38.924 44.482C37.78 45.6407 36.3353 46.22 34.59 46.22C32.8447 46.22 31.4 45.6407 30.256 44.482C29.112 43.3233 28.54 41.8127 28.54 39.95ZM43.7295 46V35H45.1595L45.3795 36.21H45.4895C45.7241 35.9167 45.9955 35.682 46.3035 35.506C47.0661 35.022 47.8948 34.78 48.7895 34.78C50.0655 34.78 51.1141 35.2127 51.9355 36.078C52.7715 36.9287 53.1895 38.036 53.1895 39.4V46H51.5395V39.4C51.5395 38.52 51.2535 37.7867 50.6815 37.2C50.1095 36.6133 49.4055 36.32 48.5695 36.32C47.6895 36.32 46.9341 36.628 46.3035 37.244C45.6875 37.8453 45.3795 38.564 45.3795 39.4V46H43.7295ZM63.4263 46L63.2063 44.68H63.0963C62.891 44.9733 62.627 45.23 62.3043 45.45C61.6297 45.9633 60.757 46.22 59.6863 46.22C58.5423 46.22 57.611 45.9047 56.8923 45.274C56.1883 44.6433 55.8363 43.822 55.8363 42.81C55.8363 41.71 56.1957 40.852 56.9143 40.236C57.6477 39.6053 58.755 39.29 60.2363 39.29H63.2063V38.96C63.2063 38.124 62.9717 37.4787 62.5023 37.024C62.0477 36.5547 61.4023 36.32 60.5663 36.32C59.7743 36.32 59.129 36.5033 58.6303 36.87C58.1463 37.222 57.875 37.662 57.8163 38.19H56.1663C56.225 37.2513 56.643 36.452 57.4203 35.792C58.2123 35.1173 59.261 34.78 60.5663 34.78C61.901 34.78 62.9497 35.1467 63.7123 35.88C64.475 36.6133 64.8563 37.64 64.8563 38.96V46H63.4263ZM63.2063 41.27V40.83H60.2363C59.2977 40.83 58.601 41.0133 58.1463 41.38C57.7063 41.7467 57.4863 42.2233 57.4863 42.81C57.4863 43.382 57.677 43.8367 58.0583 44.174C58.4397 44.5113 58.9823 44.68 59.6863 44.68C60.7863 44.68 61.6443 44.3793 62.2603 43.778C62.891 43.162 63.2063 42.326 63.2063 41.27ZM67.9423 50.4V35H69.3723L69.5923 36.54H69.7023C70.6263 35.3667 71.7997 34.78 73.2223 34.78C74.6743 34.78 75.877 35.3153 76.8303 36.386C77.7983 37.442 78.2823 38.8133 78.2823 40.5C78.2823 42.1867 77.7983 43.5653 76.8303 44.636C75.877 45.692 74.6743 46.22 73.2223 46.22C71.7997 46.22 70.6263 45.6333 69.7023 44.46H69.5923V50.4H67.9423ZM70.6263 43.514C71.3157 44.2913 72.1443 44.68 73.1123 44.68C74.0803 44.68 74.909 44.2913 75.5983 43.514C76.2877 42.7367 76.6323 41.732 76.6323 40.5C76.6323 39.268 76.2877 38.2633 75.5983 37.486C74.909 36.7087 74.0803 36.32 73.1123 36.32C72.1443 36.32 71.3157 36.7087 70.6263 37.486C69.937 38.2633 69.5923 39.268 69.5923 40.5C69.5923 41.732 69.937 42.7367 70.6263 43.514ZM80.7041 50.4V35H82.1341L82.3541 36.54H82.4641C83.3881 35.3667 84.5614 34.78 85.9841 34.78C87.4361 34.78 88.6387 35.3153 89.5921 36.386C90.5601 37.442 91.0441 38.8133 91.0441 40.5C91.0441 42.1867 90.5601 43.5653 89.5921 44.636C88.6387 45.692 87.4361 46.22 85.9841 46.22C84.5614 46.22 83.3881 45.6333 82.4641 44.46H82.3541V50.4H80.7041ZM83.3881 43.514C84.0774 44.2913 84.9061 44.68 85.8741 44.68C86.8421 44.68 87.6707 44.2913 88.3601 43.514C89.0494 42.7367 89.3941 41.732 89.3941 40.5C89.3941 39.268 89.0494 38.2633 88.3601 37.486C87.6707 36.7087 86.8421 36.32 85.8741 36.32C84.9061 36.32 84.0774 36.7087 83.3881 37.486C82.6987 38.2633 82.3541 39.268 82.3541 40.5C82.3541 41.732 82.6987 42.7367 83.3881 43.514ZM93.4658 46V35H94.8958L95.1158 36.1H95.2258C95.4898 35.7187 95.7611 35.44 96.0398 35.264C96.3331 35.088 96.7584 35 97.3158 35H99.1858V36.54H97.5358C96.7584 36.54 96.1571 36.7527 95.7318 37.178C95.3211 37.5887 95.1158 38.1827 95.1158 38.96V46H93.4658ZM108.895 44.636C107.897 45.692 106.643 46.22 105.133 46.22C103.622 46.22 102.361 45.692 101.349 44.636C100.351 43.5653 99.8527 42.1867 99.8527 40.5C99.8527 38.8133 100.351 37.442 101.349 36.386C102.361 35.3153 103.622 34.78 105.133 34.78C106.643 34.78 107.897 35.3153 108.895 36.386C109.907 37.442 110.413 38.8133 110.413 40.5C110.413 42.1867 109.907 43.5653 108.895 44.636ZM102.537 43.514C103.241 44.2913 104.106 44.68 105.133 44.68C106.159 44.68 107.017 44.2913 107.707 43.514C108.411 42.7367 108.763 41.732 108.763 40.5C108.763 39.268 108.411 38.2633 107.707 37.486C107.017 36.7087 106.159 36.32 105.133 36.32C104.106 36.32 103.241 36.7087 102.537 37.486C101.847 38.2633 101.503 39.268 101.503 40.5C101.503 41.732 101.847 42.7367 102.537 43.514ZM115.248 46L111.288 35H113.048L116.348 44.24H116.788L120.088 35H121.848L117.888 46H115.248ZM130.984 42.92H132.744C132.362 43.976 131.761 44.79 130.94 45.362C130.133 45.934 129.158 46.22 128.014 46.22C126.503 46.22 125.242 45.692 124.23 44.636C123.232 43.5653 122.734 42.1867 122.734 40.5C122.734 38.8133 123.232 37.442 124.23 36.386C125.242 35.3153 126.503 34.78 128.014 34.78C129.466 34.78 130.668 35.2787 131.622 36.276C132.59 37.2733 133.074 38.5347 133.074 40.06C133.074 40.2947 133.052 40.61 133.008 41.006L132.964 41.27H124.384C124.501 42.2967 124.897 43.1253 125.572 43.756C126.261 44.372 127.075 44.68 128.014 44.68C128.674 44.68 129.26 44.526 129.774 44.218C130.302 43.91 130.705 43.4773 130.984 42.92ZM124.384 39.73H131.424C131.365 38.7327 131.013 37.9187 130.368 37.288C129.737 36.6427 128.952 36.32 128.014 36.32C127.031 36.32 126.21 36.6353 125.55 37.266C124.89 37.8967 124.501 38.718 124.384 39.73ZM143.739 46L143.519 44.46H143.409C142.485 45.6333 141.312 46.22 139.889 46.22C138.437 46.22 137.227 45.692 136.259 44.636C135.306 43.5653 134.829 42.1867 134.829 40.5C134.829 38.8133 135.306 37.442 136.259 36.386C137.227 35.3153 138.437 34.78 139.889 34.78C141.312 34.78 142.485 35.3667 143.409 36.54H143.519V30.6H145.169V46H143.739ZM137.513 43.514C138.203 44.2913 139.031 44.68 139.999 44.68C140.967 44.68 141.796 44.2913 142.485 43.514C143.175 42.7367 143.519 41.732 143.519 40.5C143.519 39.268 143.175 38.2633 142.485 37.486C141.796 36.7087 140.967 36.32 139.999 36.32C139.031 36.32 138.203 36.7087 137.513 37.486C136.824 38.2633 136.479 39.268 136.479 40.5C136.479 41.732 136.824 42.7367 137.513 43.514ZM165.309 40.94H167.179C166.739 42.568 165.903 43.8587 164.671 44.812C163.453 45.7507 162.016 46.22 160.359 46.22C158.291 46.22 156.545 45.4793 155.123 43.998C153.7 42.5167 152.989 40.6173 152.989 38.3C152.989 35.9827 153.7 34.0833 155.123 32.602C156.545 31.1207 158.291 30.38 160.359 30.38C162.001 30.38 163.439 30.8493 164.671 31.788C165.903 32.712 166.739 33.966 167.179 35.55H165.309C164.927 34.45 164.297 33.592 163.417 32.976C162.537 32.3453 161.517 32.03 160.359 32.03C158.789 32.03 157.462 32.6167 156.377 33.79C155.291 34.9487 154.749 36.452 154.749 38.3C154.749 40.148 155.291 41.6587 156.377 42.832C157.462 43.9907 158.789 44.57 160.359 44.57C161.517 44.57 162.537 44.2547 163.417 43.624C164.297 42.9787 164.927 42.084 165.309 40.94ZM169.609 46V30.6H171.259V46H169.609ZM181.59 46L181.37 44.68H181.26C181.055 44.9733 180.791 45.23 180.468 45.45C179.794 45.9633 178.921 46.22 177.85 46.22C176.706 46.22 175.775 45.9047 175.056 45.274C174.352 44.6433 174 43.822 174 42.81C174 41.71 174.36 40.852 175.078 40.236C175.812 39.6053 176.919 39.29 178.4 39.29H181.37V38.96C181.37 38.124 181.136 37.4787 180.666 37.024C180.212 36.5547 179.566 36.32 178.73 36.32C177.938 36.32 177.293 36.5033 176.794 36.87C176.31 37.222 176.039 37.662 175.98 38.19H174.33C174.389 37.2513 174.807 36.452 175.584 35.792C176.376 35.1173 177.425 34.78 178.73 34.78C180.065 34.78 181.114 35.1467 181.876 35.88C182.639 36.6133 183.02 37.64 183.02 38.96V46H181.59ZM181.37 41.27V40.83H178.4C177.462 40.83 176.765 41.0133 176.31 41.38C175.87 41.7467 175.65 42.2233 175.65 42.81C175.65 43.382 175.841 43.8367 176.222 44.174C176.604 44.5113 177.146 44.68 177.85 44.68C178.95 44.68 179.808 44.3793 180.424 43.778C181.055 43.162 181.37 42.326 181.37 41.27ZM186.216 46V35H187.866V46H186.216ZM186.106 32.69V30.82H187.976V32.69H186.106ZM191.048 46V35H192.478L192.698 36.21H192.808C193.028 35.946 193.284 35.7113 193.578 35.506C194.267 35.022 194.964 34.78 195.668 34.78C196.621 34.78 197.442 35.0953 198.132 35.726C198.425 35.99 198.667 36.298 198.858 36.65H198.968C199.217 36.2833 199.518 35.9753 199.87 35.726C200.676 35.0953 201.586 34.78 202.598 34.78C203.742 34.78 204.688 35.1833 205.436 35.99C206.184 36.782 206.558 37.8087 206.558 39.07V46H204.908V39.07C204.908 38.234 204.68 37.5667 204.226 37.068C203.771 36.5693 203.155 36.32 202.378 36.32C201.644 36.32 200.999 36.5913 200.442 37.134C199.899 37.662 199.628 38.3073 199.628 39.07V46H197.978V39.07C197.978 38.234 197.75 37.5667 197.296 37.068C196.841 36.5693 196.225 36.32 195.448 36.32C194.714 36.32 194.069 36.5913 193.512 37.134C192.969 37.662 192.698 38.3073 192.698 39.07V46H191.048ZM208.752 42.81H210.402C210.402 43.3233 210.644 43.7633 211.128 44.13C211.626 44.4967 212.301 44.68 213.152 44.68C213.988 44.68 214.633 44.526 215.088 44.218C215.557 43.8953 215.792 43.4993 215.792 43.03C215.792 42.1647 215.168 41.6147 213.922 41.38L212.052 41.05C209.998 40.7127 208.972 39.686 208.972 37.97C208.972 37.046 209.324 36.2833 210.028 35.682C210.732 35.0807 211.736 34.78 213.042 34.78C214.318 34.78 215.352 35.1173 216.144 35.792C216.936 36.4667 217.332 37.266 217.332 38.19H215.682C215.682 37.6767 215.44 37.2367 214.956 36.87C214.486 36.5033 213.848 36.32 213.042 36.32C212.25 36.32 211.648 36.4813 211.238 36.804C210.827 37.112 210.622 37.5007 210.622 37.97C210.622 38.7767 211.208 39.29 212.382 39.51L214.252 39.84C215.352 40.0453 216.158 40.412 216.672 40.94C217.185 41.4533 217.442 42.15 217.442 43.03C217.442 43.954 217.068 44.7167 216.32 45.318C215.586 45.9193 214.53 46.22 213.152 46.22C211.832 46.22 210.768 45.8827 209.962 45.208C209.155 44.5333 208.752 43.734 208.752 42.81Z" fill="white"/>
<path d="M28.28 89.36V86.96H35.48C36.4187 86.96 37.208 86.672 37.848 86.096C38.488 85.4987 38.9253 84.6667 39.16 83.6H28.28V81.2H39.16C38.904 80.2187 38.456 79.44 37.816 78.864C37.1973 78.288 36.4187 78 35.48 78H28.28V75.6H43.64V78H40.28C40.5787 78.384 40.8027 78.6933 40.952 78.928C41.3787 79.6533 41.6347 80.4107 41.72 81.2H43.64V83.6H41.72C41.464 85.3067 40.7707 86.6933 39.64 87.76C38.5307 88.8267 37.144 89.36 35.48 89.36H33.4L42.36 98H39.16L30.2 89.36H28.28ZM50.5138 86.16C51.3671 87.0133 52.4338 87.44 53.7138 87.44C54.9938 87.44 56.0604 87.0133 56.9138 86.16C57.7671 85.3067 58.1938 84.24 58.1938 82.96C58.1938 81.68 57.7671 80.6133 56.9138 79.76C56.0604 78.9067 54.9938 78.48 53.7138 78.48C52.4338 78.48 51.3671 78.9067 50.5138 79.76C49.6604 80.6133 49.2338 81.68 49.2338 82.96C49.2338 84.24 49.6604 85.3067 50.5138 86.16ZM49.7138 98L54.6738 90.32H54.5138L54.0978 90.416C53.7564 90.4587 53.4151 90.48 53.0738 90.48C51.0684 90.48 49.3618 89.7547 47.9538 88.304C46.5671 86.832 45.8738 85.0507 45.8738 82.96C45.8738 80.784 46.6204 78.96 48.1138 77.488C49.6071 76.016 51.4738 75.28 53.7138 75.28C55.9538 75.28 57.8204 76.016 59.3138 77.488C60.8071 78.96 61.5538 80.784 61.5538 82.96C61.5538 84.5813 61.1271 86.0747 60.2738 87.44L53.5538 98H49.7138ZM64.2838 100.72L64.9238 94.32H68.6038L66.8438 100.72H64.2838ZM84.903 92.976C85.991 91.5253 86.535 89.4667 86.535 86.8C86.535 84.1333 85.991 82.0853 84.903 80.656C83.815 79.2053 82.4923 78.48 80.935 78.48C79.3777 78.48 78.055 79.2053 76.967 80.656C75.879 82.0853 75.335 84.1333 75.335 86.8C75.335 89.4667 75.879 91.5253 76.967 92.976C78.055 94.4053 79.3777 95.12 80.935 95.12C82.4923 95.12 83.815 94.4053 84.903 92.976ZM74.567 78.384C76.295 76.3147 78.4177 75.28 80.935 75.28C83.4523 75.28 85.575 76.3147 87.303 78.384C89.031 80.4533 89.895 83.2587 89.895 86.8C89.895 90.3413 89.031 93.1467 87.303 95.216C85.575 97.2853 83.4523 98.32 80.935 98.32C78.4177 98.32 76.295 97.2853 74.567 95.216C72.839 93.1467 71.975 90.3413 71.975 86.8C71.975 83.2587 72.839 80.4533 74.567 78.384ZM92.94 91.92H96.3C96.492 92.816 96.9507 93.5733 97.676 94.192C98.4227 94.8107 99.404 95.12 100.62 95.12C101.985 95.12 103.073 94.7147 103.884 93.904C104.695 93.0933 105.1 92.0053 105.1 90.64C105.1 89.36 104.684 88.3253 103.852 87.536C103.041 86.7253 101.964 86.32 100.62 86.32C99.02 86.32 97.7933 86.8533 96.94 87.92H93.42L94.7 75.6H107.18V78.8H97.58L96.94 84.24H97.1C98.252 83.4933 99.5853 83.12 101.1 83.12C103.212 83.12 104.961 83.8347 106.348 85.264C107.756 86.672 108.46 88.464 108.46 90.64C108.46 92.88 107.724 94.7253 106.252 96.176C104.801 97.6053 102.924 98.32 100.62 98.32C99.3613 98.32 98.2307 98.1173 97.228 97.712C96.2467 97.3067 95.468 96.7733 94.892 96.112C94.316 95.4507 93.868 94.768 93.548 94.064C93.2493 93.36 93.0467 92.6453 92.94 91.92ZM124.434 92.976C125.522 91.5253 126.066 89.4667 126.066 86.8C126.066 84.1333 125.522 82.0853 124.434 80.656C123.346 79.2053 122.024 78.48 120.466 78.48C118.909 78.48 117.586 79.2053 116.498 80.656C115.41 82.0853 114.866 84.1333 114.866 86.8C114.866 89.4667 115.41 91.5253 116.498 92.976C117.586 94.4053 118.909 95.12 120.466 95.12C122.024 95.12 123.346 94.4053 124.434 92.976ZM114.098 78.384C115.826 76.3147 117.949 75.28 120.466 75.28C122.984 75.28 125.106 76.3147 126.834 78.384C128.562 80.4533 129.426 83.2587 129.426 86.8C129.426 90.3413 128.562 93.1467 126.834 95.216C125.106 97.2853 122.984 98.32 120.466 98.32C117.949 98.32 115.826 97.2853 114.098 95.216C112.37 93.1467 111.506 90.3413 111.506 86.8C111.506 83.2587 112.37 80.4533 114.098 78.384Z" fill="#FF0000"/>
<mask id="path-5-inside-1_3550_98146" fill="white">
<path d="M27 121H285V157H27V121Z"/>
</mask>
<path d="M27 121V122H285V121V120H27V121Z" fill="#B1B1B1" fill-opacity="0.2" mask="url(#path-5-inside-1_3550_98146)"/>
<path d="M105.5 152L110.6 138H113.8L118.9 152H116.6L115.4 148.7H109L107.8 152H105.5ZM109.7 146.8H114.7L112.4 140.4H112L109.7 146.8ZM120.198 156V142H121.998L122.198 143.2H122.298C122.512 142.96 122.692 142.773 122.838 142.64C122.985 142.493 123.298 142.32 123.778 142.12C124.272 141.907 124.812 141.8 125.398 141.8C126.732 141.8 127.832 142.273 128.698 143.22C129.565 144.167 129.998 145.427 129.998 147C129.998 148.573 129.565 149.833 128.698 150.78C127.832 151.727 126.732 152.2 125.398 152.2C124.025 152.2 122.992 151.733 122.298 150.8H122.198V156H120.198ZM123.018 149.46C123.578 150.087 124.272 150.4 125.098 150.4C125.925 150.4 126.612 150.087 127.158 149.46C127.718 148.833 127.998 148.013 127.998 147C127.998 145.987 127.718 145.167 127.158 144.54C126.612 143.913 125.925 143.6 125.098 143.6C124.272 143.6 123.578 143.913 123.018 144.54C122.472 145.167 122.198 145.987 122.198 147C122.198 148.013 122.472 148.833 123.018 149.46ZM132.093 156V142H133.893L134.093 143.2H134.193C134.406 142.96 134.586 142.773 134.733 142.64C134.88 142.493 135.193 142.32 135.673 142.12C136.166 141.907 136.706 141.8 137.293 141.8C138.626 141.8 139.726 142.273 140.593 143.22C141.46 144.167 141.893 145.427 141.893 147C141.893 148.573 141.46 149.833 140.593 150.78C139.726 151.727 138.626 152.2 137.293 152.2C135.92 152.2 134.886 151.733 134.193 150.8H134.093V156H132.093ZM134.913 149.46C135.473 150.087 136.166 150.4 136.993 150.4C137.82 150.4 138.506 150.087 139.053 149.46C139.613 148.833 139.893 148.013 139.893 147C139.893 145.987 139.613 145.167 139.053 144.54C138.506 143.913 137.82 143.6 136.993 143.6C136.166 143.6 135.473 143.913 134.913 144.54C134.366 145.167 134.093 145.987 134.093 147C134.093 148.013 134.366 148.833 134.913 149.46ZM143.988 152V142H145.688L145.888 142.9H145.988C146.001 142.887 146.041 142.84 146.108 142.76C146.188 142.68 146.234 142.627 146.248 142.6C146.274 142.573 146.328 142.527 146.408 142.46C146.488 142.38 146.554 142.327 146.608 142.3C146.661 142.273 146.734 142.24 146.828 142.2C146.921 142.147 147.014 142.113 147.108 142.1C147.214 142.073 147.334 142.053 147.468 142.04C147.601 142.013 147.741 142 147.888 142H149.688V143.8H148.088C146.688 143.8 145.988 144.493 145.988 145.88V152H143.988ZM153.144 149.48C153.717 150.093 154.437 150.4 155.304 150.4C156.171 150.4 156.884 150.093 157.444 149.48C158.017 148.853 158.304 148.027 158.304 147C158.304 145.973 158.017 145.153 157.444 144.54C156.884 143.913 156.171 143.6 155.304 143.6C154.437 143.6 153.717 143.913 153.144 144.54C152.584 145.153 152.304 145.973 152.304 147C152.304 148.027 152.584 148.853 153.144 149.48ZM158.884 150.76C157.951 151.72 156.757 152.2 155.304 152.2C153.851 152.2 152.651 151.72 151.704 150.76C150.771 149.8 150.304 148.547 150.304 147C150.304 145.453 150.771 144.2 151.704 143.24C152.651 142.28 153.851 141.8 155.304 141.8C156.757 141.8 157.951 142.28 158.884 143.24C159.831 144.2 160.304 145.453 160.304 147C160.304 148.547 159.831 149.8 158.884 150.76ZM164.51 152L161.01 142H163.11L165.81 149.8H166.21L168.91 142H171.01L167.51 152H164.51ZM173.71 146.2H179.61C179.503 145.387 179.19 144.733 178.67 144.24C178.15 143.747 177.497 143.5 176.71 143.5C175.883 143.5 175.217 143.747 174.71 144.24C174.203 144.72 173.87 145.373 173.71 146.2ZM179.11 149.1H181.21C180.917 149.9 180.383 150.62 179.61 151.26C178.85 151.887 177.883 152.2 176.71 152.2C175.257 152.2 174.057 151.72 173.11 150.76C172.177 149.8 171.71 148.547 171.71 147C171.71 145.453 172.177 144.2 173.11 143.24C174.057 142.28 175.257 141.8 176.71 141.8C178.07 141.8 179.21 142.267 180.13 143.2C181.05 144.133 181.51 145.3 181.51 146.7C181.51 146.82 181.49 147.06 181.45 147.42L181.41 147.7H173.71C173.817 148.553 174.143 149.233 174.69 149.74C175.237 150.247 175.91 150.5 176.71 150.5C177.27 150.5 177.763 150.367 178.19 150.1C178.63 149.82 178.937 149.487 179.11 149.1Z" fill="#F08B32"/>
<path d="M201.254 144.411L194.31 137.467C193.984 137.141 193.456 137.141 193.131 137.467C192.805 137.792 192.805 138.32 193.131 138.646L199.486 145.001L193.131 151.357C192.805 151.682 192.805 152.21 193.131 152.536C193.293 152.698 193.506 152.78 193.72 152.78C193.933 152.78 194.146 152.699 194.309 152.536L201.253 145.591C201.579 145.266 201.579 144.738 201.253 144.412L201.254 144.411Z" fill="#F08B32"/>
</g>
<g filter="url(#filter1_ddd_3550_98146)">
<rect x="321" y="5" width="298" height="172" rx="8" fill="url(#paint2_linear_3550_98146)" fill-opacity="0.1" shape-rendering="crispEdges"/>
<rect x="321.5" y="5.5" width="297" height="171" rx="7.5" stroke="url(#paint3_linear_3550_98146)" stroke-opacity="0.1" shape-rendering="crispEdges"/>
<path d="M342.76 46V30.6H349.47C350.687 30.6 351.721 31.0547 352.572 31.964C353.437 32.8587 353.87 33.9807 353.87 35.33C353.87 36.6793 353.437 37.8087 352.572 38.718C351.721 39.6127 350.687 40.06 349.47 40.06H344.52V46H342.76ZM344.52 38.41H349.47C350.203 38.41 350.827 38.124 351.34 37.552C351.853 36.98 352.11 36.2393 352.11 35.33C352.11 34.4207 351.853 33.68 351.34 33.108C350.827 32.536 350.203 32.25 349.47 32.25H344.52V38.41ZM363.214 42.92H364.974C364.593 43.976 363.991 44.79 363.17 45.362C362.363 45.934 361.388 46.22 360.244 46.22C358.733 46.22 357.472 45.692 356.46 44.636C355.463 43.5653 354.964 42.1867 354.964 40.5C354.964 38.8133 355.463 37.442 356.46 36.386C357.472 35.3153 358.733 34.78 360.244 34.78C361.696 34.78 362.899 35.2787 363.852 36.276C364.82 37.2733 365.304 38.5347 365.304 40.06C365.304 40.2947 365.282 40.61 365.238 41.006L365.194 41.27H356.614C356.731 42.2967 357.127 43.1253 357.802 43.756C358.491 44.372 359.305 44.68 360.244 44.68C360.904 44.68 361.491 44.526 362.004 44.218C362.532 43.91 362.935 43.4773 363.214 42.92ZM356.614 39.73H363.654C363.595 38.7327 363.243 37.9187 362.598 37.288C361.967 36.6427 361.183 36.32 360.244 36.32C359.261 36.32 358.44 36.6353 357.78 37.266C357.12 37.8967 356.731 38.718 356.614 39.73ZM367.72 46V35H369.15L369.37 36.21H369.48C369.714 35.9167 369.986 35.682 370.294 35.506C371.056 35.022 371.885 34.78 372.78 34.78C374.056 34.78 375.104 35.2127 375.926 36.078C376.762 36.9287 377.18 38.036 377.18 39.4V46H375.53V39.4C375.53 38.52 375.244 37.7867 374.672 37.2C374.1 36.6133 373.396 36.32 372.56 36.32C371.68 36.32 370.924 36.628 370.294 37.244C369.678 37.8453 369.37 38.564 369.37 39.4V46H367.72ZM388.517 46L388.297 44.46H388.187C387.263 45.6333 386.089 46.22 384.667 46.22C383.215 46.22 382.005 45.692 381.037 44.636C380.083 43.5653 379.607 42.1867 379.607 40.5C379.607 38.8133 380.083 37.442 381.037 36.386C382.005 35.3153 383.215 34.78 384.667 34.78C386.089 34.78 387.263 35.3667 388.187 36.54H388.297V30.6H389.947V46H388.517ZM382.291 43.514C382.98 44.2913 383.809 44.68 384.777 44.68C385.745 44.68 386.573 44.2913 387.263 43.514C387.952 42.7367 388.297 41.732 388.297 40.5C388.297 39.268 387.952 38.2633 387.263 37.486C386.573 36.7087 385.745 36.32 384.777 36.32C383.809 36.32 382.98 36.7087 382.291 37.486C381.601 38.2633 381.257 39.268 381.257 40.5C381.257 41.732 381.601 42.7367 382.291 43.514ZM393.246 46V35H394.896V46H393.246ZM393.136 32.69V30.82H395.006V32.69H393.136ZM398.077 46V35H399.507L399.727 36.21H399.837C400.072 35.9167 400.343 35.682 400.651 35.506C401.414 35.022 402.242 34.78 403.137 34.78C404.413 34.78 405.462 35.2127 406.283 36.078C407.119 36.9287 407.537 38.036 407.537 39.4V46H405.887V39.4C405.887 38.52 405.601 37.7867 405.029 37.2C404.457 36.6133 403.753 36.32 402.917 36.32C402.037 36.32 401.282 36.628 400.651 37.244C400.035 37.8453 399.727 38.564 399.727 39.4V46H398.077ZM410.404 46.88H412.054C412.113 47.496 412.428 48.0167 413 48.442C413.572 48.8673 414.357 49.08 415.354 49.08C416.351 49.08 417.151 48.8013 417.752 48.244C418.353 47.6867 418.654 46.9387 418.654 46V44.02H418.544C417.635 45.0467 416.461 45.56 415.024 45.56C413.572 45.56 412.362 45.0613 411.394 44.064C410.441 43.052 409.964 41.754 409.964 40.17C409.964 38.586 410.441 37.2953 411.394 36.298C412.362 35.286 413.572 34.78 415.024 34.78C415.728 34.78 416.388 34.934 417.004 35.242C417.635 35.5353 418.148 35.9313 418.544 36.43H418.654L418.874 35H420.304V46C420.304 47.3933 419.857 48.508 418.962 49.344C418.082 50.1947 416.879 50.62 415.354 50.62C413.887 50.62 412.707 50.246 411.812 49.498C410.932 48.7647 410.463 47.892 410.404 46.88ZM412.604 42.964C413.279 43.668 414.122 44.02 415.134 44.02C416.146 44.02 416.982 43.668 417.642 42.964C418.317 42.2453 418.654 41.314 418.654 40.17C418.654 39.026 418.317 38.102 417.642 37.398C416.982 36.6793 416.146 36.32 415.134 36.32C414.122 36.32 413.279 36.6793 412.604 37.398C411.944 38.102 411.614 39.026 411.614 40.17C411.614 41.314 411.944 42.2453 412.604 42.964ZM428.676 46V30.6H435.386C436.603 30.6 437.637 31.0547 438.488 31.964C439.353 32.8587 439.786 33.9807 439.786 35.33C439.786 36.6793 439.353 37.8087 438.488 38.718C437.637 39.6127 436.603 40.06 435.386 40.06H430.436V46H428.676ZM430.436 38.41H435.386C436.119 38.41 436.743 38.124 437.256 37.552C437.769 36.98 438.026 36.2393 438.026 35.33C438.026 34.4207 437.769 33.68 437.256 33.108C436.743 32.536 436.119 32.25 435.386 32.25H430.436V38.41ZM448.69 46L448.47 44.68H448.36C448.155 44.9733 447.891 45.23 447.568 45.45C446.893 45.9633 446.021 46.22 444.95 46.22C443.806 46.22 442.875 45.9047 442.156 45.274C441.452 44.6433 441.1 43.822 441.1 42.81C441.1 41.71 441.459 40.852 442.178 40.236C442.911 39.6053 444.019 39.29 445.5 39.29H448.47V38.96C448.47 38.124 448.235 37.4787 447.766 37.024C447.311 36.5547 446.666 36.32 445.83 36.32C445.038 36.32 444.393 36.5033 443.894 36.87C443.41 37.222 443.139 37.662 443.08 38.19H441.43C441.489 37.2513 441.907 36.452 442.684 35.792C443.476 35.1173 444.525 34.78 445.83 34.78C447.165 34.78 448.213 35.1467 448.976 35.88C449.739 36.6133 450.12 37.64 450.12 38.96V46H448.69ZM448.47 41.27V40.83H445.5C444.561 40.83 443.865 41.0133 443.41 41.38C442.97 41.7467 442.75 42.2233 442.75 42.81C442.75 43.382 442.941 43.8367 443.322 44.174C443.703 44.5113 444.246 44.68 444.95 44.68C446.05 44.68 446.908 44.3793 447.524 43.778C448.155 43.162 448.47 42.326 448.47 41.27ZM452.666 50.4V48.86H454.756C455.123 48.86 455.38 48.64 455.526 48.2L455.966 46.88L451.456 35H453.216L456.626 44.13H457.066L460.146 35H461.906L456.956 48.86C456.766 49.4027 456.516 49.7913 456.208 50.026C455.9 50.2753 455.453 50.4 454.866 50.4H452.666ZM463.669 46V35H465.099L465.319 36.21H465.429C465.649 35.946 465.906 35.7113 466.199 35.506C466.888 35.022 467.585 34.78 468.289 34.78C469.242 34.78 470.064 35.0953 470.753 35.726C471.046 35.99 471.288 36.298 471.479 36.65H471.589C471.838 36.2833 472.139 35.9753 472.491 35.726C473.298 35.0953 474.207 34.78 475.219 34.78C476.363 34.78 477.309 35.1833 478.057 35.99C478.805 36.782 479.179 37.8087 479.179 39.07V46H477.529V39.07C477.529 38.234 477.302 37.5667 476.847 37.068C476.392 36.5693 475.776 36.32 474.999 36.32C474.266 36.32 473.62 36.5913 473.063 37.134C472.52 37.662 472.249 38.3073 472.249 39.07V46H470.599V39.07C470.599 38.234 470.372 37.5667 469.917 37.068C469.462 36.5693 468.846 36.32 468.069 36.32C467.336 36.32 466.69 36.5913 466.133 37.134C465.59 37.662 465.319 38.3073 465.319 39.07V46H463.669ZM489.843 42.92H491.603C491.222 43.976 490.62 44.79 489.799 45.362C488.992 45.934 488.017 46.22 486.873 46.22C485.362 46.22 484.101 45.692 483.089 44.636C482.092 43.5653 481.593 42.1867 481.593 40.5C481.593 38.8133 482.092 37.442 483.089 36.386C484.101 35.3153 485.362 34.78 486.873 34.78C488.325 34.78 489.528 35.2787 490.481 36.276C491.449 37.2733 491.933 38.5347 491.933 40.06C491.933 40.2947 491.911 40.61 491.867 41.006L491.823 41.27H483.243C483.36 42.2967 483.756 43.1253 484.431 43.756C485.12 44.372 485.934 44.68 486.873 44.68C487.533 44.68 488.12 44.526 488.633 44.218C489.161 43.91 489.564 43.4773 489.843 42.92ZM483.243 39.73H490.283C490.224 38.7327 489.872 37.9187 489.227 37.288C488.596 36.6427 487.812 36.32 486.873 36.32C485.89 36.32 485.069 36.6353 484.409 37.266C483.749 37.8967 483.36 38.718 483.243 39.73ZM494.349 46V35H495.779L495.999 36.21H496.109C496.343 35.9167 496.615 35.682 496.923 35.506C497.685 35.022 498.514 34.78 499.409 34.78C500.685 34.78 501.733 35.2127 502.555 36.078C503.391 36.9287 503.809 38.036 503.809 39.4V46H502.159V39.4C502.159 38.52 501.873 37.7867 501.301 37.2C500.729 36.6133 500.025 36.32 499.189 36.32C498.309 36.32 497.553 36.628 496.923 37.244C496.307 37.8453 495.999 38.564 495.999 39.4V46H494.349ZM507.236 44.13V36.54H505.476V35H507.236V31.92H508.886V35H511.416V36.54H508.886V43.8C508.886 44.24 509.106 44.46 509.546 44.46H511.416V46H509.216C508.6 46 508.116 45.8313 507.764 45.494C507.412 45.1567 507.236 44.702 507.236 44.13Z" fill="white"/>
<path d="M342.28 89.36V86.96H349.48C350.419 86.96 351.208 86.672 351.848 86.096C352.488 85.4987 352.925 84.6667 353.16 83.6H342.28V81.2H353.16C352.904 80.2187 352.456 79.44 351.816 78.864C351.197 78.288 350.419 78 349.48 78H342.28V75.6H357.64V78H354.28C354.579 78.384 354.803 78.6933 354.952 78.928C355.379 79.6533 355.635 80.4107 355.72 81.2H357.64V83.6H355.72C355.464 85.3067 354.771 86.6933 353.64 87.76C352.531 88.8267 351.144 89.36 349.48 89.36H347.4L356.36 98H353.16L344.2 89.36H342.28ZM364.034 98V81.2H359.394V78H363.074C363.714 78 364.034 77.68 364.034 77.04V75.6H367.394V98H364.034ZM371.221 100.72L371.861 94.32H375.541L373.781 100.72H371.221ZM382.113 86.48V86.32C381.558 86.0213 381.078 85.6587 380.673 85.232C379.713 84.2293 379.233 82.992 379.233 81.52C379.233 79.7707 379.883 78.2987 381.185 77.104C382.507 75.888 384.257 75.28 386.433 75.28C388.609 75.28 390.347 75.888 391.649 77.104C392.971 78.2987 393.633 79.7707 393.633 81.52C393.633 82.992 393.153 84.2293 392.193 85.232C391.787 85.6587 391.307 86.0213 390.753 86.32V86.48C391.393 86.8213 391.947 87.2267 392.417 87.696C393.547 88.8267 394.113 90.1813 394.113 91.76C394.113 93.5947 393.409 95.152 392.001 96.432C390.593 97.6907 388.737 98.32 386.433 98.32C384.129 98.32 382.273 97.6907 380.865 96.432C379.457 95.152 378.753 93.5947 378.753 91.76C378.753 90.16 379.307 88.8053 380.417 87.696C380.907 87.2053 381.473 86.8 382.113 86.48ZM383.617 79.28C382.934 79.8987 382.593 80.6987 382.593 81.68C382.593 82.6613 382.934 83.472 383.617 84.112C384.299 84.7307 385.238 85.04 386.433 85.04C387.627 85.04 388.566 84.7307 389.249 84.112C389.931 83.472 390.273 82.6613 390.273 81.68C390.273 80.6987 389.931 79.8987 389.249 79.28C388.566 78.64 387.627 78.32 386.433 78.32C385.238 78.32 384.299 78.64 383.617 79.28ZM383.329 88.976C382.518 89.68 382.113 90.5547 382.113 91.6C382.113 92.6453 382.518 93.52 383.329 94.224C384.139 94.928 385.174 95.28 386.433 95.28C387.691 95.28 388.726 94.928 389.537 94.224C390.347 93.52 390.753 92.6453 390.753 91.6C390.753 90.5547 390.347 89.68 389.537 88.976C388.726 88.272 387.691 87.92 386.433 87.92C385.174 87.92 384.139 88.272 383.329 88.976ZM401.483 86.16C402.336 87.0133 403.403 87.44 404.683 87.44C405.963 87.44 407.029 87.0133 407.883 86.16C408.736 85.3067 409.163 84.24 409.163 82.96C409.163 81.68 408.736 80.6133 407.883 79.76C407.029 78.9067 405.963 78.48 404.683 78.48C403.403 78.48 402.336 78.9067 401.483 79.76C400.629 80.6133 400.203 81.68 400.203 82.96C400.203 84.24 400.629 85.3067 401.483 86.16ZM400.683 98L405.643 90.32H405.483L405.067 90.416C404.725 90.4587 404.384 90.48 404.043 90.48C402.037 90.48 400.331 89.7547 398.923 88.304C397.536 86.832 396.843 85.0507 396.843 82.96C396.843 80.784 397.589 78.96 399.083 77.488C400.576 76.016 402.443 75.28 404.683 75.28C406.923 75.28 408.789 76.016 410.283 77.488C411.776 78.96 412.523 80.784 412.523 82.96C412.523 84.5813 412.096 86.0747 411.243 87.44L404.523 98H400.683ZM415.253 100.72L415.893 94.32H419.573L417.812 100.72H415.253ZM427.264 93.84C428.117 94.6933 429.184 95.12 430.464 95.12C431.744 95.12 432.81 94.6933 433.664 93.84C434.517 92.9867 434.944 91.92 434.944 90.64C434.944 89.36 434.517 88.2933 433.664 87.44C432.81 86.5867 431.744 86.16 430.464 86.16C429.184 86.16 428.117 86.5867 427.264 87.44C426.41 88.2933 425.984 89.36 425.984 90.64C425.984 91.92 426.41 92.9867 427.264 93.84ZM423.904 86.16L430.624 75.6H434.464L429.504 83.28H429.664L430.08 83.216C430.592 83.152 430.933 83.12 431.104 83.12C433.109 83.12 434.805 83.856 436.192 85.328C437.6 86.7787 438.304 88.5493 438.304 90.64C438.304 92.816 437.557 94.64 436.064 96.112C434.57 97.584 432.704 98.32 430.464 98.32C428.224 98.32 426.357 97.584 424.864 96.112C423.37 94.64 422.624 92.816 422.624 90.64C422.624 89.0187 423.05 87.5253 423.904 86.16ZM444.409 98V81.2H439.769V78H443.449C444.089 78 444.409 77.68 444.409 77.04V75.6H447.769V98H444.409ZM451.756 98V95.12L460.972 85.84C461.591 85.2213 462.018 84.6773 462.252 84.208C462.508 83.7173 462.636 83.088 462.636 82.32C462.636 81.104 462.306 80.1653 461.644 79.504C461.004 78.8213 460.108 78.48 458.956 78.48C457.826 78.48 456.876 78.8853 456.108 79.696C455.34 80.5067 454.956 81.5413 454.956 82.8H451.596C451.596 80.56 452.279 78.7467 453.644 77.36C455.01 75.9733 456.78 75.28 458.956 75.28C461.132 75.28 462.871 75.9307 464.172 77.232C465.495 78.512 466.156 80.208 466.156 82.32C466.156 83.536 465.879 84.592 465.324 85.488C464.791 86.384 464.002 87.3547 462.956 88.4L456.716 94.64V94.8H466.476V98H451.756Z" fill="#FF0000"/>
<mask id="path-13-inside-2_3550_98146" fill="white">
<path d="M341 121H599V157H341V121Z"/>
</mask>
<path d="M341 121V122H599V121V120H341V121Z" fill="#B1B1B1" fill-opacity="0.2" mask="url(#path-13-inside-2_3550_98146)"/>
<path d="M422.1 145H426.2C426.773 145 427.267 144.767 427.68 144.3C428.093 143.833 428.3 143.233 428.3 142.5C428.3 141.767 428.093 141.167 427.68 140.7C427.267 140.233 426.773 140 426.2 140H422.1V145ZM420 152V138H426.3C427.473 138 428.447 138.42 429.22 139.26C430.007 140.087 430.4 141.167 430.4 142.5C430.4 143.833 430.007 144.92 429.22 145.76C428.447 146.587 427.473 147 426.3 147H422.1V152H420ZM438.292 152L438.092 150.9H437.992C437.792 151.153 437.552 151.373 437.272 151.56C436.632 151.987 435.872 152.2 434.992 152.2C433.899 152.2 433.026 151.913 432.372 151.34C431.719 150.767 431.392 150.02 431.392 149.1C431.392 148.073 431.732 147.267 432.412 146.68C433.106 146.093 434.132 145.8 435.492 145.8H437.992V145.6C437.992 144.947 437.806 144.433 437.432 144.06C437.059 143.687 436.546 143.5 435.892 143.5C435.252 143.5 434.759 143.647 434.412 143.94C434.066 144.22 433.859 144.54 433.792 144.9H431.792C431.846 144.02 432.239 143.287 432.972 142.7C433.706 142.1 434.679 141.8 435.892 141.8C437.186 141.8 438.192 142.14 438.912 142.82C439.632 143.5 439.992 144.427 439.992 145.6V152H438.292ZM437.992 147.8V147.4H435.592C434.859 147.4 434.306 147.547 433.932 147.84C433.572 148.133 433.392 148.52 433.392 149C433.392 149.467 433.546 149.833 433.852 150.1C434.159 150.367 434.606 150.5 435.192 150.5C436.099 150.5 436.792 150.267 437.272 149.8C437.752 149.32 437.992 148.653 437.992 147.8ZM442.005 156V154.2H444.005C444.178 154.2 444.325 154.133 444.445 154C444.565 153.88 444.645 153.747 444.685 153.6L445.005 152.7L440.905 142H443.005L445.905 149.6H446.305L448.905 142H451.005L446.605 154.3C446.391 154.887 446.098 155.313 445.725 155.58C445.365 155.86 444.825 156 444.105 156H442.005ZM456.699 152V138H459.799L465.499 148.9H465.899V138H467.999V152H464.899L459.199 141.1H458.799V152H456.699ZM473.136 149.48C473.709 150.093 474.429 150.4 475.296 150.4C476.163 150.4 476.876 150.093 477.436 149.48C478.009 148.853 478.296 148.027 478.296 147C478.296 145.973 478.009 145.153 477.436 144.54C476.876 143.913 476.163 143.6 475.296 143.6C474.429 143.6 473.709 143.913 473.136 144.54C472.576 145.153 472.296 145.973 472.296 147C472.296 148.027 472.576 148.853 473.136 149.48ZM478.876 150.76C477.943 151.72 476.749 152.2 475.296 152.2C473.843 152.2 472.643 151.72 471.696 150.76C470.763 149.8 470.296 148.547 470.296 147C470.296 145.453 470.763 144.2 471.696 143.24C472.643 142.28 473.843 141.8 475.296 141.8C476.749 141.8 477.943 142.28 478.876 143.24C479.823 144.2 480.296 145.453 480.296 147C480.296 148.547 479.823 149.8 478.876 150.76ZM483.802 152L481.102 142H483.202L485.102 149.4H485.502L487.462 142H490.142L492.102 149.4H492.502L494.402 142H496.502L493.802 152H490.902L489.002 144.8H488.602L486.702 152H483.802Z" fill="#309682"/>
<path d="M516.254 144.411L509.31 137.467C508.984 137.141 508.456 137.141 508.131 137.467C507.805 137.792 507.805 138.32 508.131 138.646L514.486 145.001L508.131 151.357C507.805 151.682 507.805 152.21 508.131 152.536C508.293 152.698 508.506 152.78 508.72 152.78C508.933 152.78 509.146 152.699 509.309 152.536L516.253 145.591C516.579 145.266 516.579 144.738 516.253 144.412L516.254 144.411Z" fill="#309682"/>
</g>
<g filter="url(#filter2_ddd_3550_98146)">
<rect x="7" y="193" width="298" height="172" rx="8" fill="url(#paint4_linear_3550_98146)" fill-opacity="0.1" shape-rendering="crispEdges"/>
<rect x="7.5" y="193.5" width="297" height="171" rx="7.5" stroke="url(#paint5_linear_3550_98146)" stroke-opacity="0.1" shape-rendering="crispEdges"/>
<path d="M40.42 228.94H42.29C41.85 230.568 41.014 231.859 39.782 232.812C38.5647 233.751 37.1273 234.22 35.47 234.22C33.402 234.22 31.6567 233.479 30.234 231.998C28.8113 230.517 28.1 228.617 28.1 226.3C28.1 223.983 28.8113 222.083 30.234 220.602C31.6567 219.121 33.402 218.38 35.47 218.38C37.1127 218.38 38.55 218.849 39.782 219.788C41.014 220.712 41.85 221.966 42.29 223.55H40.42C40.0387 222.45 39.408 221.592 38.528 220.976C37.648 220.345 36.6287 220.03 35.47 220.03C33.9007 220.03 32.5733 220.617 31.488 221.79C30.4027 222.949 29.86 224.452 29.86 226.3C29.86 228.148 30.4027 229.659 31.488 230.832C32.5733 231.991 33.9007 232.57 35.47 232.57C36.6287 232.57 37.648 232.255 38.528 231.624C39.408 230.979 40.0387 230.084 40.42 228.94ZM44.7203 234V218.6H46.3703V234H44.7203ZM56.7017 234L56.4817 232.68H56.3717C56.1664 232.973 55.9024 233.23 55.5797 233.45C54.9051 233.963 54.0324 234.22 52.9617 234.22C51.8177 234.22 50.8864 233.905 50.1677 233.274C49.4637 232.643 49.1117 231.822 49.1117 230.81C49.1117 229.71 49.4711 228.852 50.1897 228.236C50.9231 227.605 52.0304 227.29 53.5117 227.29H56.4817V226.96C56.4817 226.124 56.2471 225.479 55.7777 225.024C55.3231 224.555 54.6777 224.32 53.8417 224.32C53.0497 224.32 52.4044 224.503 51.9057 224.87C51.4217 225.222 51.1504 225.662 51.0917 226.19H49.4417C49.5004 225.251 49.9184 224.452 50.6957 223.792C51.4877 223.117 52.5364 222.78 53.8417 222.78C55.1764 222.78 56.2251 223.147 56.9877 223.88C57.7504 224.613 58.1317 225.64 58.1317 226.96V234H56.7017ZM56.4817 229.27V228.83H53.5117C52.5731 228.83 51.8764 229.013 51.4217 229.38C50.9817 229.747 50.7617 230.223 50.7617 230.81C50.7617 231.382 50.9524 231.837 51.3337 232.174C51.7151 232.511 52.2577 232.68 52.9617 232.68C54.0617 232.68 54.9197 232.379 55.5357 231.778C56.1664 231.162 56.4817 230.326 56.4817 229.27ZM61.3277 234V223H62.9777V234H61.3277ZM61.2177 220.69V218.82H63.0877V220.69H61.2177ZM66.1591 234V223H67.5891L67.8091 224.21H67.9191C68.1391 223.946 68.3958 223.711 68.6891 223.506C69.3785 223.022 70.0751 222.78 70.7791 222.78C71.7325 222.78 72.5538 223.095 73.2431 223.726C73.5365 223.99 73.7785 224.298 73.9691 224.65H74.0791C74.3285 224.283 74.6291 223.975 74.9811 223.726C75.7878 223.095 76.6971 222.78 77.7091 222.78C78.8531 222.78 79.7991 223.183 80.5471 223.99C81.2951 224.782 81.6691 225.809 81.6691 227.07V234H80.0191V227.07C80.0191 226.234 79.7918 225.567 79.3371 225.068C78.8825 224.569 78.2665 224.32 77.4891 224.32C76.7558 224.32 76.1105 224.591 75.5531 225.134C75.0105 225.662 74.7391 226.307 74.7391 227.07V234H73.0891V227.07C73.0891 226.234 72.8618 225.567 72.4071 225.068C71.9525 224.569 71.3365 224.32 70.5591 224.32C69.8258 224.32 69.1805 224.591 68.6231 225.134C68.0805 225.662 67.8091 226.307 67.8091 227.07V234H66.1591ZM83.8631 230.81H85.5131C85.5131 231.323 85.7551 231.763 86.2391 232.13C86.7378 232.497 87.4125 232.68 88.2631 232.68C89.0991 232.68 89.7445 232.526 90.1991 232.218C90.6685 231.895 90.9031 231.499 90.9031 231.03C90.9031 230.165 90.2798 229.615 89.0331 229.38L87.1631 229.05C85.1098 228.713 84.0831 227.686 84.0831 225.97C84.0831 225.046 84.4351 224.283 85.1391 223.682C85.8431 223.081 86.8478 222.78 88.1531 222.78C89.4291 222.78 90.4631 223.117 91.2551 223.792C92.0471 224.467 92.4431 225.266 92.4431 226.19H90.7931C90.7931 225.677 90.5511 225.237 90.0671 224.87C89.5978 224.503 88.9598 224.32 88.1531 224.32C87.3611 224.32 86.7598 224.481 86.3491 224.804C85.9385 225.112 85.7331 225.501 85.7331 225.97C85.7331 226.777 86.3198 227.29 87.4931 227.51L89.3631 227.84C90.4631 228.045 91.2698 228.412 91.7831 228.94C92.2965 229.453 92.5531 230.15 92.5531 231.03C92.5531 231.954 92.1791 232.717 91.4311 233.318C90.6978 233.919 89.6418 234.22 88.2631 234.22C86.9431 234.22 85.8798 233.883 85.0731 233.208C84.2665 232.533 83.8631 231.734 83.8631 230.81ZM112.099 231.998C110.676 233.479 108.931 234.22 106.863 234.22C104.795 234.22 103.049 233.479 101.627 231.998C100.204 230.517 99.4926 228.617 99.4926 226.3C99.4926 223.983 100.204 222.083 101.627 220.602C103.049 219.121 104.795 218.38 106.863 218.38C108.931 218.38 110.676 219.121 112.099 220.602C113.521 222.083 114.233 223.983 114.233 226.3C114.233 228.617 113.521 230.517 112.099 231.998ZM102.881 230.832C103.966 231.991 105.293 232.57 106.863 232.57C108.432 232.57 109.759 231.991 110.845 230.832C111.93 229.659 112.473 228.148 112.473 226.3C112.473 224.452 111.93 222.949 110.845 221.79C109.759 220.617 108.432 220.03 106.863 220.03C105.293 220.03 103.966 220.617 102.881 221.79C101.795 222.949 101.253 224.452 101.253 226.3C101.253 228.148 101.795 229.659 102.881 230.832ZM116.862 229.6V223H118.512V229.6C118.512 230.48 118.798 231.213 119.37 231.8C119.942 232.387 120.646 232.68 121.482 232.68C122.362 232.68 123.11 232.379 123.726 231.778C124.357 231.162 124.672 230.436 124.672 229.6V223H126.322V234H124.892L124.672 232.79H124.562C124.298 233.098 124.02 233.34 123.726 233.516C122.993 233.985 122.172 234.22 121.262 234.22C119.986 234.22 118.93 233.795 118.094 232.944C117.273 232.079 116.862 230.964 116.862 229.6ZM130.179 232.13V224.54H128.419V223H130.179V219.92H131.829V223H134.359V224.54H131.829V231.8C131.829 232.24 132.049 232.46 132.489 232.46H134.359V234H132.159C131.543 234 131.059 233.831 130.707 233.494C130.355 233.157 130.179 232.702 130.179 232.13ZM136.006 230.81H137.656C137.656 231.323 137.898 231.763 138.382 232.13C138.88 232.497 139.555 232.68 140.406 232.68C141.242 232.68 141.887 232.526 142.342 232.218C142.811 231.895 143.046 231.499 143.046 231.03C143.046 230.165 142.422 229.615 141.176 229.38L139.306 229.05C137.252 228.713 136.226 227.686 136.226 225.97C136.226 225.046 136.578 224.283 137.282 223.682C137.986 223.081 138.99 222.78 140.296 222.78C141.572 222.78 142.606 223.117 143.398 223.792C144.19 224.467 144.586 225.266 144.586 226.19H142.936C142.936 225.677 142.694 225.237 142.21 224.87C141.74 224.503 141.102 224.32 140.296 224.32C139.504 224.32 138.902 224.481 138.492 224.804C138.081 225.112 137.876 225.501 137.876 225.97C137.876 226.777 138.462 227.29 139.636 227.51L141.506 227.84C142.606 228.045 143.412 228.412 143.926 228.94C144.439 229.453 144.696 230.15 144.696 231.03C144.696 231.954 144.322 232.717 143.574 233.318C142.84 233.919 141.784 234.22 140.406 234.22C139.086 234.22 138.022 233.883 137.216 233.208C136.409 232.533 136.006 231.734 136.006 230.81ZM147.345 232.13V224.54H145.585V223H147.345V219.92H148.995V223H151.525V224.54H148.995V231.8C148.995 232.24 149.215 232.46 149.655 232.46H151.525V234H149.325C148.709 234 148.225 233.831 147.873 233.494C147.521 233.157 147.345 232.702 147.345 232.13ZM160.772 234L160.552 232.68H160.442C160.237 232.973 159.973 233.23 159.65 233.45C158.975 233.963 158.103 234.22 157.032 234.22C155.888 234.22 154.957 233.905 154.238 233.274C153.534 232.643 153.182 231.822 153.182 230.81C153.182 229.71 153.541 228.852 154.26 228.236C154.993 227.605 156.101 227.29 157.582 227.29H160.552V226.96C160.552 226.124 160.317 225.479 159.848 225.024C159.393 224.555 158.748 224.32 157.912 224.32C157.12 224.32 156.475 224.503 155.976 224.87C155.492 225.222 155.221 225.662 155.162 226.19H153.512C153.571 225.251 153.989 224.452 154.766 223.792C155.558 223.117 156.607 222.78 157.912 222.78C159.247 222.78 160.295 223.147 161.058 223.88C161.821 224.613 162.202 225.64 162.202 226.96V234H160.772ZM160.552 229.27V228.83H157.582C156.643 228.83 155.947 229.013 155.492 229.38C155.052 229.747 154.832 230.223 154.832 230.81C154.832 231.382 155.023 231.837 155.404 232.174C155.785 232.511 156.328 232.68 157.032 232.68C158.132 232.68 158.99 232.379 159.606 231.778C160.237 231.162 160.552 230.326 160.552 229.27ZM165.288 234V223H166.718L166.938 224.21H167.048C167.283 223.917 167.554 223.682 167.862 223.506C168.625 223.022 169.453 222.78 170.348 222.78C171.624 222.78 172.673 223.213 173.494 224.078C174.33 224.929 174.748 226.036 174.748 227.4V234H173.098V227.4C173.098 226.52 172.812 225.787 172.24 225.2C171.668 224.613 170.964 224.32 170.128 224.32C169.248 224.32 168.493 224.628 167.862 225.244C167.246 225.845 166.938 226.564 166.938 227.4V234H165.288ZM186.085 234L185.865 232.46H185.755C184.831 233.633 183.658 234.22 182.235 234.22C180.783 234.22 179.573 233.692 178.605 232.636C177.652 231.565 177.175 230.187 177.175 228.5C177.175 226.813 177.652 225.442 178.605 224.386C179.573 223.315 180.783 222.78 182.235 222.78C183.658 222.78 184.831 223.367 185.755 224.54H185.865V218.6H187.515V234H186.085ZM179.859 231.514C180.548 232.291 181.377 232.68 182.345 232.68C183.313 232.68 184.142 232.291 184.831 231.514C185.52 230.737 185.865 229.732 185.865 228.5C185.865 227.268 185.52 226.263 184.831 225.486C184.142 224.709 183.313 224.32 182.345 224.32C181.377 224.32 180.548 224.709 179.859 225.486C179.17 226.263 178.825 227.268 178.825 228.5C178.825 229.732 179.17 230.737 179.859 231.514ZM190.814 234V223H192.464V234H190.814ZM190.704 220.69V218.82H192.574V220.69H190.704ZM195.645 234V223H197.075L197.295 224.21H197.405C197.64 223.917 197.911 223.682 198.219 223.506C198.982 223.022 199.811 222.78 200.705 222.78C201.981 222.78 203.03 223.213 203.851 224.078C204.687 224.929 205.105 226.036 205.105 227.4V234H203.455V227.4C203.455 226.52 203.169 225.787 202.597 225.2C202.025 224.613 201.321 224.32 200.485 224.32C199.605 224.32 198.85 224.628 198.219 225.244C197.603 225.845 197.295 226.564 197.295 227.4V234H195.645ZM207.972 234.88H209.622C209.681 235.496 209.996 236.017 210.568 236.442C211.14 236.867 211.925 237.08 212.922 237.08C213.92 237.08 214.719 236.801 215.32 236.244C215.922 235.687 216.222 234.939 216.222 234V232.02H216.112C215.203 233.047 214.03 233.56 212.592 233.56C211.14 233.56 209.93 233.061 208.962 232.064C208.009 231.052 207.532 229.754 207.532 228.17C207.532 226.586 208.009 225.295 208.962 224.298C209.93 223.286 211.14 222.78 212.592 222.78C213.296 222.78 213.956 222.934 214.572 223.242C215.203 223.535 215.716 223.931 216.112 224.43H216.222L216.442 223H217.872V234C217.872 235.393 217.425 236.508 216.53 237.344C215.65 238.195 214.448 238.62 212.922 238.62C211.456 238.62 210.275 238.246 209.38 237.498C208.5 236.765 208.031 235.892 207.972 234.88ZM210.172 230.964C210.847 231.668 211.69 232.02 212.702 232.02C213.714 232.02 214.55 231.668 215.21 230.964C215.885 230.245 216.222 229.314 216.222 228.17C216.222 227.026 215.885 226.102 215.21 225.398C214.55 224.679 213.714 224.32 212.702 224.32C211.69 224.32 210.847 224.679 210.172 225.398C209.512 226.102 209.182 227.026 209.182 228.17C209.182 229.314 209.512 230.245 210.172 230.964Z" fill="white"/>
<path d="M28.28 277.36V274.96H35.48C36.4187 274.96 37.208 274.672 37.848 274.096C38.488 273.499 38.9253 272.667 39.16 271.6H28.28V269.2H39.16C38.904 268.219 38.456 267.44 37.816 266.864C37.1973 266.288 36.4187 266 35.48 266H28.28V263.6H43.64V266H40.28C40.5787 266.384 40.8027 266.693 40.952 266.928C41.3787 267.653 41.6347 268.411 41.72 269.2H43.64V271.6H41.72C41.464 273.307 40.7707 274.693 39.64 275.76C38.5307 276.827 37.144 277.36 35.48 277.36H33.4L42.36 286H39.16L30.2 277.36H28.28ZM50.0338 286V269.2H45.3938V266H49.0738C49.7138 266 50.0338 265.68 50.0338 265.04V263.6H53.3938V286H50.0338ZM57.2213 288.72L57.8613 282.32H61.5413L59.7812 288.72H57.2213ZM68.1125 274.48V274.32C67.5578 274.021 67.0778 273.659 66.6725 273.232C65.7125 272.229 65.2325 270.992 65.2325 269.52C65.2325 267.771 65.8832 266.299 67.1845 265.104C68.5072 263.888 70.2565 263.28 72.4325 263.28C74.6085 263.28 76.3472 263.888 77.6485 265.104C78.9712 266.299 79.6325 267.771 79.6325 269.52C79.6325 270.992 79.1525 272.229 78.1925 273.232C77.7872 273.659 77.3072 274.021 76.7525 274.32V274.48C77.3925 274.821 77.9472 275.227 78.4165 275.696C79.5472 276.827 80.1125 278.181 80.1125 279.76C80.1125 281.595 79.4085 283.152 78.0005 284.432C76.5925 285.691 74.7365 286.32 72.4325 286.32C70.1285 286.32 68.2725 285.691 66.8645 284.432C65.4565 283.152 64.7525 281.595 64.7525 279.76C64.7525 278.16 65.3072 276.805 66.4165 275.696C66.9072 275.205 67.4725 274.8 68.1125 274.48ZM69.6165 267.28C68.9338 267.899 68.5925 268.699 68.5925 269.68C68.5925 270.661 68.9338 271.472 69.6165 272.112C70.2992 272.731 71.2378 273.04 72.4325 273.04C73.6272 273.04 74.5658 272.731 75.2485 272.112C75.9312 271.472 76.2725 270.661 76.2725 269.68C76.2725 268.699 75.9312 267.899 75.2485 267.28C74.5658 266.64 73.6272 266.32 72.4325 266.32C71.2378 266.32 70.2992 266.64 69.6165 267.28ZM69.3285 276.976C68.5178 277.68 68.1125 278.555 68.1125 279.6C68.1125 280.645 68.5178 281.52 69.3285 282.224C70.1392 282.928 71.1738 283.28 72.4325 283.28C73.6912 283.28 74.7258 282.928 75.5365 282.224C76.3472 281.52 76.7525 280.645 76.7525 279.6C76.7525 278.555 76.3472 277.68 75.5365 276.976C74.7258 276.272 73.6912 275.92 72.4325 275.92C71.1738 275.92 70.1392 276.272 69.3285 276.976ZM87.4825 274.16C88.3358 275.013 89.4025 275.44 90.6825 275.44C91.9625 275.44 93.0292 275.013 93.8825 274.16C94.7358 273.307 95.1625 272.24 95.1625 270.96C95.1625 269.68 94.7358 268.613 93.8825 267.76C93.0292 266.907 91.9625 266.48 90.6825 266.48C89.4025 266.48 88.3358 266.907 87.4825 267.76C86.6292 268.613 86.2025 269.68 86.2025 270.96C86.2025 272.24 86.6292 273.307 87.4825 274.16ZM86.6825 286L91.6425 278.32H91.4825L91.0665 278.416C90.7252 278.459 90.3838 278.48 90.0425 278.48C88.0372 278.48 86.3305 277.755 84.9225 276.304C83.5358 274.832 82.8425 273.051 82.8425 270.96C82.8425 268.784 83.5892 266.96 85.0825 265.488C86.5758 264.016 88.4425 263.28 90.6825 263.28C92.9225 263.28 94.7892 264.016 96.2825 265.488C97.7758 266.96 98.5225 268.784 98.5225 270.96C98.5225 272.581 98.0958 274.075 97.2425 275.44L90.5225 286H86.6825ZM101.253 288.72L101.893 282.32H105.573L103.812 288.72H101.253ZM113.264 281.84C114.117 282.693 115.184 283.12 116.464 283.12C117.744 283.12 118.81 282.693 119.664 281.84C120.517 280.987 120.944 279.92 120.944 278.64C120.944 277.36 120.517 276.293 119.664 275.44C118.81 274.587 117.744 274.16 116.464 274.16C115.184 274.16 114.117 274.587 113.264 275.44C112.41 276.293 111.984 277.36 111.984 278.64C111.984 279.92 112.41 280.987 113.264 281.84ZM109.904 274.16L116.624 263.6H120.464L115.504 271.28H115.664L116.08 271.216C116.592 271.152 116.933 271.12 117.104 271.12C119.109 271.12 120.805 271.856 122.192 273.328C123.6 274.779 124.304 276.549 124.304 278.64C124.304 280.816 123.557 282.64 122.064 284.112C120.57 285.584 118.704 286.32 116.464 286.32C114.224 286.32 112.357 285.584 110.864 284.112C109.37 282.64 108.624 280.816 108.624 278.64C108.624 277.019 109.05 275.525 109.904 274.16ZM131.514 281.84C132.367 282.693 133.434 283.12 134.714 283.12C135.994 283.12 137.06 282.693 137.914 281.84C138.767 280.987 139.194 279.92 139.194 278.64C139.194 277.36 138.767 276.293 137.914 275.44C137.06 274.587 135.994 274.16 134.714 274.16C133.434 274.16 132.367 274.587 131.514 275.44C130.66 276.293 130.234 277.36 130.234 278.64C130.234 279.92 130.66 280.987 131.514 281.84ZM128.154 274.16L134.874 263.6H138.714L133.754 271.28H133.914L134.33 271.216C134.842 271.152 135.183 271.12 135.354 271.12C137.359 271.12 139.055 271.856 140.442 273.328C141.85 274.779 142.554 276.549 142.554 278.64C142.554 280.816 141.807 282.64 140.314 284.112C138.82 285.584 136.954 286.32 134.714 286.32C132.474 286.32 130.607 285.584 129.114 284.112C127.62 282.64 126.874 280.816 126.874 278.64C126.874 277.019 127.3 275.525 128.154 274.16ZM144.819 286V283.12L154.035 273.84C154.653 273.221 155.08 272.677 155.315 272.208C155.571 271.717 155.699 271.088 155.699 270.32C155.699 269.104 155.368 268.165 154.707 267.504C154.067 266.821 153.171 266.48 152.019 266.48C150.888 266.48 149.939 266.885 149.171 267.696C148.403 268.507 148.019 269.541 148.019 270.8H144.659C144.659 268.56 145.341 266.747 146.707 265.36C148.072 263.973 149.843 263.28 152.019 263.28C154.195 263.28 155.933 263.931 157.235 265.232C158.557 266.512 159.219 268.208 159.219 270.32C159.219 271.536 158.941 272.592 158.387 273.488C157.853 274.384 157.064 275.355 156.019 276.4L149.779 282.64V282.8H159.539V286H144.819Z" fill="white"/>
<mask id="path-21-inside-3_3550_98146" fill="white">
<path d="M27 309H285V345H27V309Z"/>
</mask>
<path d="M27 309V310H285V309V308H27V309Z" fill="#B1B1B1" fill-opacity="0.2" mask="url(#path-21-inside-3_3550_98146)"/>
<path d="M107 339.5V326.5" stroke="#F08B32" stroke-width="2" stroke-linecap="round" stroke-linejoin="round"/>
<path d="M100.5 333H113.5" stroke="#F08B32" stroke-width="2" stroke-linecap="round" stroke-linejoin="round"/>
<path d="M121 340L126.1 326H129.3L134.4 340H132.1L130.9 336.7H124.5L123.3 340H121ZM125.2 334.8H130.2L127.9 328.4H127.5L125.2 334.8ZM143.198 340L142.998 338.8H142.898C142.192 339.733 141.158 340.2 139.798 340.2C138.465 340.2 137.365 339.727 136.498 338.78C135.632 337.833 135.198 336.573 135.198 335C135.198 333.427 135.632 332.167 136.498 331.22C137.365 330.273 138.465 329.8 139.798 329.8C140.385 329.8 140.918 329.907 141.398 330.12C141.892 330.32 142.212 330.493 142.358 330.64C142.505 330.773 142.685 330.96 142.898 331.2H142.998V326H144.998V340H143.198ZM138.018 337.46C138.578 338.087 139.272 338.4 140.098 338.4C140.925 338.4 141.612 338.087 142.158 337.46C142.718 336.833 142.998 336.013 142.998 335C142.998 333.987 142.718 333.167 142.158 332.54C141.612 331.913 140.925 331.6 140.098 331.6C139.272 331.6 138.578 331.913 138.018 332.54C137.472 333.167 137.198 333.987 137.198 335C137.198 336.013 137.472 336.833 138.018 337.46ZM155.191 340L154.991 338.8H154.891C154.184 339.733 153.151 340.2 151.791 340.2C150.457 340.2 149.357 339.727 148.491 338.78C147.624 337.833 147.191 336.573 147.191 335C147.191 333.427 147.624 332.167 148.491 331.22C149.357 330.273 150.457 329.8 151.791 329.8C152.377 329.8 152.911 329.907 153.391 330.12C153.884 330.32 154.204 330.493 154.351 330.64C154.497 330.773 154.677 330.96 154.891 331.2H154.991V326H156.991V340H155.191ZM150.011 337.46C150.571 338.087 151.264 338.4 152.091 338.4C152.917 338.4 153.604 338.087 154.151 337.46C154.711 336.833 154.991 336.013 154.991 335C154.991 333.987 154.711 333.167 154.151 332.54C153.604 331.913 152.917 331.6 152.091 331.6C151.264 331.6 150.571 331.913 150.011 332.54C149.464 333.167 149.191 333.987 149.191 335C149.191 336.013 149.464 336.833 150.011 337.46ZM174.79 335.2H176.99C176.857 335.787 176.63 336.36 176.31 336.92C176.003 337.48 175.597 338.013 175.09 338.52C174.583 339.027 173.95 339.433 173.19 339.74C172.43 340.047 171.597 340.2 170.69 340.2C168.81 340.2 167.223 339.527 165.93 338.18C164.637 336.833 163.99 335.107 163.99 333C163.99 330.893 164.637 329.167 165.93 327.82C167.223 326.473 168.81 325.8 170.69 325.8C172.343 325.8 173.723 326.28 174.83 327.24C175.95 328.187 176.67 329.34 176.99 330.7H174.79C174.443 329.767 173.903 329.053 173.17 328.56C172.437 328.053 171.61 327.8 170.69 327.8C169.357 327.8 168.257 328.273 167.39 329.22C166.523 330.167 166.09 331.427 166.09 333C166.09 334.573 166.523 335.833 167.39 336.78C168.257 337.727 169.357 338.2 170.69 338.2C171.757 338.2 172.637 337.913 173.33 337.34C174.037 336.753 174.523 336.04 174.79 335.2ZM179.099 340V326H181.099V340H179.099ZM190.304 340L190.104 338.9H190.004C189.804 339.153 189.564 339.373 189.284 339.56C188.644 339.987 187.884 340.2 187.004 340.2C185.911 340.2 185.037 339.913 184.384 339.34C183.731 338.767 183.404 338.02 183.404 337.1C183.404 336.073 183.744 335.267 184.424 334.68C185.117 334.093 186.144 333.8 187.504 333.8H190.004V333.6C190.004 332.947 189.817 332.433 189.444 332.06C189.071 331.687 188.557 331.5 187.904 331.5C187.264 331.5 186.771 331.647 186.424 331.94C186.077 332.22 185.871 332.54 185.804 332.9H183.804C183.857 332.02 184.251 331.287 184.984 330.7C185.717 330.1 186.691 329.8 187.904 329.8C189.197 329.8 190.204 330.14 190.924 330.82C191.644 331.5 192.004 332.427 192.004 333.6V340H190.304ZM190.004 335.8V335.4H187.604C186.871 335.4 186.317 335.547 185.944 335.84C185.584 336.133 185.404 336.52 185.404 337C185.404 337.467 185.557 337.833 185.864 338.1C186.171 338.367 186.617 338.5 187.204 338.5C188.111 338.5 188.804 338.267 189.284 337.8C189.764 337.32 190.004 336.653 190.004 335.8ZM194.507 340V330H196.507V340H194.507ZM194.407 328.1V326H196.607V328.1H194.407ZM199.116 340V330H200.916L201.116 331H201.216C201.403 330.787 201.636 330.587 201.916 330.4C202.53 330 203.163 329.8 203.816 329.8C204.643 329.8 205.343 330.033 205.916 330.5C206.17 330.74 206.37 330.973 206.516 331.2H206.616C206.79 330.973 207.05 330.74 207.396 330.5C208.143 330.033 208.983 329.8 209.916 329.8C210.956 329.8 211.816 330.167 212.496 330.9C213.176 331.62 213.516 332.547 213.516 333.68V340H211.516V333.7C211.516 333.06 211.33 332.553 210.956 332.18C210.596 331.793 210.116 331.6 209.516 331.6C208.903 331.6 208.383 331.8 207.956 332.2C207.53 332.6 207.316 333.1 207.316 333.7V340H205.316V333.7C205.316 333.06 205.13 332.553 204.756 332.18C204.396 331.793 203.916 331.6 203.316 331.6C202.703 331.6 202.183 331.8 201.756 332.2C201.33 332.6 201.116 333.1 201.116 333.7V340H199.116Z" fill="#F08B32"/>
</g>
<g filter="url(#filter3_ddd_3550_98146)">
<rect x="321" y="193" width="298" height="172" rx="8" fill="url(#paint6_linear_3550_98146)" fill-opacity="0.1" shape-rendering="crispEdges"/>
<rect x="321.5" y="193.5" width="297" height="171" rx="7.5" stroke="url(#paint7_linear_3550_98146)" stroke-opacity="0.1" shape-rendering="crispEdges"/>
<path d="M342.54 227.95V218.6H344.3V227.95C344.3 229.314 344.703 230.429 345.51 231.294C346.331 232.145 347.358 232.57 348.59 232.57C349.807 232.57 350.827 232.137 351.648 231.272C352.469 230.407 352.88 229.299 352.88 227.95V218.6H354.64V227.95C354.64 229.813 354.068 231.323 352.924 232.482C351.78 233.641 350.335 234.22 348.59 234.22C346.845 234.22 345.4 233.641 344.256 232.482C343.112 231.323 342.54 229.813 342.54 227.95ZM357.729 234V223H359.159L359.379 224.21H359.489C359.724 223.917 359.995 223.682 360.303 223.506C361.066 223.022 361.895 222.78 362.789 222.78C364.065 222.78 365.114 223.213 365.935 224.078C366.771 224.929 367.189 226.036 367.189 227.4V234H365.539V227.4C365.539 226.52 365.253 225.787 364.681 225.2C364.109 224.613 363.405 224.32 362.569 224.32C361.689 224.32 360.934 224.628 360.303 225.244C359.687 225.845 359.379 226.564 359.379 227.4V234H357.729ZM369.396 230.81H371.046C371.046 231.323 371.288 231.763 371.772 232.13C372.271 232.497 372.946 232.68 373.796 232.68C374.632 232.68 375.278 232.526 375.732 232.218C376.202 231.895 376.436 231.499 376.436 231.03C376.436 230.165 375.813 229.615 374.566 229.38L372.696 229.05C370.643 228.713 369.616 227.686 369.616 225.97C369.616 225.046 369.968 224.283 370.672 223.682C371.376 223.081 372.381 222.78 373.686 222.78C374.962 222.78 375.996 223.117 376.788 223.792C377.58 224.467 377.976 225.266 377.976 226.19H376.326C376.326 225.677 376.084 225.237 375.6 224.87C375.131 224.503 374.493 224.32 373.686 224.32C372.894 224.32 372.293 224.481 371.882 224.804C371.472 225.112 371.266 225.501 371.266 225.97C371.266 226.777 371.853 227.29 373.026 227.51L374.896 227.84C375.996 228.045 376.803 228.412 377.316 228.94C377.83 229.453 378.086 230.15 378.086 231.03C378.086 231.954 377.712 232.717 376.964 233.318C376.231 233.919 375.175 234.22 373.796 234.22C372.476 234.22 371.413 233.883 370.606 233.208C369.8 232.533 369.396 231.734 369.396 230.81ZM387.985 230.92H389.745C389.364 231.976 388.763 232.79 387.941 233.362C387.135 233.934 386.159 234.22 385.015 234.22C383.505 234.22 382.243 233.692 381.231 232.636C380.234 231.565 379.735 230.187 379.735 228.5C379.735 226.813 380.234 225.442 381.231 224.386C382.243 223.315 383.505 222.78 385.015 222.78C386.467 222.78 387.67 223.279 388.623 224.276C389.591 225.273 390.075 226.535 390.075 228.06C390.075 228.295 390.053 228.61 390.009 229.006L389.965 229.27H381.385C381.503 230.297 381.899 231.125 382.573 231.756C383.263 232.372 384.077 232.68 385.015 232.68C385.675 232.68 386.262 232.526 386.775 232.218C387.303 231.91 387.707 231.477 387.985 230.92ZM381.385 227.73H388.425C388.367 226.733 388.015 225.919 387.369 225.288C386.739 224.643 385.954 224.32 385.015 224.32C384.033 224.32 383.211 224.635 382.551 225.266C381.891 225.897 381.503 226.718 381.385 227.73ZM392.831 232.13V224.54H391.071V223H392.831V219.92H394.481V223H397.011V224.54H394.481V231.8C394.481 232.24 394.701 232.46 395.141 232.46H397.011V234H394.811C394.195 234 393.711 233.831 393.359 233.494C393.007 233.157 392.831 232.702 392.831 232.13ZM400.308 232.13V224.54H398.548V223H400.308V219.92H401.958V223H404.488V224.54H401.958V231.8C401.958 232.24 402.178 232.46 402.618 232.46H404.488V234H402.288C401.672 234 401.188 233.831 400.836 233.494C400.484 233.157 400.308 232.702 400.308 232.13ZM407.125 234V218.6H408.775V234H407.125ZM419.546 230.92H421.306C420.925 231.976 420.323 232.79 419.502 233.362C418.695 233.934 417.72 234.22 416.576 234.22C415.065 234.22 413.804 233.692 412.792 232.636C411.795 231.565 411.296 230.187 411.296 228.5C411.296 226.813 411.795 225.442 412.792 224.386C413.804 223.315 415.065 222.78 416.576 222.78C418.028 222.78 419.231 223.279 420.184 224.276C421.152 225.273 421.636 226.535 421.636 228.06C421.636 228.295 421.614 228.61 421.57 229.006L421.526 229.27H412.946C413.063 230.297 413.459 231.125 414.134 231.756C414.823 232.372 415.637 232.68 416.576 232.68C417.236 232.68 417.823 232.526 418.336 232.218C418.864 231.91 419.267 231.477 419.546 230.92ZM412.946 227.73H419.986C419.927 226.733 419.575 225.919 418.93 225.288C418.299 224.643 417.515 224.32 416.576 224.32C415.593 224.32 414.772 224.635 414.112 225.266C413.452 225.897 413.063 226.718 412.946 227.73ZM432.302 234L432.082 232.46H431.972C431.048 233.633 429.874 234.22 428.452 234.22C427 234.22 425.79 233.692 424.822 232.636C423.868 231.565 423.392 230.187 423.392 228.5C423.392 226.813 423.868 225.442 424.822 224.386C425.79 223.315 427 222.78 428.452 222.78C429.874 222.78 431.048 223.367 431.972 224.54H432.082V218.6H433.732V234H432.302ZM426.076 231.514C426.765 232.291 427.594 232.68 428.562 232.68C429.53 232.68 430.358 232.291 431.048 231.514C431.737 230.737 432.082 229.732 432.082 228.5C432.082 227.268 431.737 226.263 431.048 225.486C430.358 224.709 429.53 224.32 428.562 224.32C427.594 224.32 426.765 224.709 426.076 225.486C425.386 226.263 425.042 227.268 425.042 228.5C425.042 229.732 425.386 230.737 426.076 231.514ZM440.451 234L446.281 218.6H448.921L454.751 234H452.881L451.451 230.04H443.751L442.321 234H440.451ZM444.411 228.39H450.791L447.821 220.47H447.381L444.411 228.39ZM464.55 234L464.33 232.46H464.22C463.296 233.633 462.122 234.22 460.7 234.22C459.248 234.22 458.038 233.692 457.07 232.636C456.116 231.565 455.64 230.187 455.64 228.5C455.64 226.813 456.116 225.442 457.07 224.386C458.038 223.315 459.248 222.78 460.7 222.78C462.122 222.78 463.296 223.367 464.22 224.54H464.33V218.6H465.98V234H464.55ZM458.324 231.514C459.013 232.291 459.842 232.68 460.81 232.68C461.778 232.68 462.606 232.291 463.296 231.514C463.985 230.737 464.33 229.732 464.33 228.5C464.33 227.268 463.985 226.263 463.296 225.486C462.606 224.709 461.778 224.32 460.81 224.32C459.842 224.32 459.013 224.709 458.324 225.486C457.634 226.263 457.29 227.268 457.29 228.5C457.29 229.732 457.634 230.737 458.324 231.514ZM471.809 234L467.849 223H469.609L472.909 232.24H473.349L476.649 223H478.409L474.449 234H471.809ZM487.104 234L486.884 232.68H486.774C486.569 232.973 486.305 233.23 485.982 233.45C485.307 233.963 484.435 234.22 483.364 234.22C482.22 234.22 481.289 233.905 480.57 233.274C479.866 232.643 479.514 231.822 479.514 230.81C479.514 229.71 479.873 228.852 480.592 228.236C481.325 227.605 482.433 227.29 483.914 227.29H486.884V226.96C486.884 226.124 486.649 225.479 486.18 225.024C485.725 224.555 485.08 224.32 484.244 224.32C483.452 224.32 482.807 224.503 482.308 224.87C481.824 225.222 481.553 225.662 481.494 226.19H479.844C479.903 225.251 480.321 224.452 481.098 223.792C481.89 223.117 482.939 222.78 484.244 222.78C485.579 222.78 486.627 223.147 487.39 223.88C488.153 224.613 488.534 225.64 488.534 226.96V234H487.104ZM486.884 229.27V228.83H483.914C482.975 228.83 482.279 229.013 481.824 229.38C481.384 229.747 481.164 230.223 481.164 230.81C481.164 231.382 481.355 231.837 481.736 232.174C482.117 232.511 482.66 232.68 483.364 232.68C484.464 232.68 485.322 232.379 485.938 231.778C486.569 231.162 486.884 230.326 486.884 229.27ZM491.62 234V223H493.05L493.27 224.21H493.38C493.615 223.917 493.886 223.682 494.194 223.506C494.957 223.022 495.785 222.78 496.68 222.78C497.956 222.78 499.005 223.213 499.826 224.078C500.662 224.929 501.08 226.036 501.08 227.4V234H499.43V227.4C499.43 226.52 499.144 225.787 498.572 225.2C498 224.613 497.296 224.32 496.46 224.32C495.58 224.32 494.825 224.628 494.194 225.244C493.578 225.845 493.27 226.564 493.27 227.4V234H491.62ZM511.977 230.37H513.627C513.348 231.587 512.776 232.533 511.911 233.208C511.06 233.883 510.019 234.22 508.787 234.22C507.276 234.22 506.015 233.692 505.003 232.636C504.006 231.565 503.507 230.187 503.507 228.5C503.507 226.813 504.006 225.442 505.003 224.386C506.015 223.315 507.276 222.78 508.787 222.78C510.004 222.78 511.046 223.117 511.911 223.792C512.776 224.452 513.348 225.361 513.627 226.52H511.977C511.757 225.816 511.368 225.273 510.811 224.892C510.254 224.511 509.579 224.32 508.787 224.32C507.76 224.32 506.895 224.709 506.191 225.486C505.502 226.263 505.157 227.268 505.157 228.5C505.157 229.732 505.502 230.737 506.191 231.514C506.895 232.291 507.76 232.68 508.787 232.68C510.474 232.68 511.537 231.91 511.977 230.37ZM523.423 230.92H525.183C524.802 231.976 524.2 232.79 523.379 233.362C522.572 233.934 521.597 234.22 520.453 234.22C518.942 234.22 517.681 233.692 516.669 232.636C515.672 231.565 515.173 230.187 515.173 228.5C515.173 226.813 515.672 225.442 516.669 224.386C517.681 223.315 518.942 222.78 520.453 222.78C521.905 222.78 523.108 223.279 524.061 224.276C525.029 225.273 525.513 226.535 525.513 228.06C525.513 228.295 525.491 228.61 525.447 229.006L525.403 229.27H516.823C516.94 230.297 517.336 231.125 518.011 231.756C518.7 232.372 519.514 232.68 520.453 232.68C521.113 232.68 521.7 232.526 522.213 232.218C522.741 231.91 523.144 231.477 523.423 230.92ZM516.823 227.73H523.863C523.804 226.733 523.452 225.919 522.807 225.288C522.176 224.643 521.392 224.32 520.453 224.32C519.47 224.32 518.649 224.635 517.989 225.266C517.329 225.897 516.94 226.718 516.823 227.73Z" fill="white"/>
<path d="M342.28 277.84V274.8H349.48C351.229 274.8 352.349 273.947 352.84 272.24H342.28V269.2H352.84C352.349 267.493 351.229 266.64 349.48 266.64H342.28V263.6H358.28V266.64H355.24C355.368 266.811 355.485 267.013 355.592 267.248C355.763 267.568 355.976 268.219 356.232 269.2H358.28V272.24H356.232C355.891 274.011 355.155 275.387 354.024 276.368C352.893 277.349 351.485 277.84 349.8 277.84H348.84L356.84 286H352.52L344.52 277.84H342.28ZM364.05 274.48V274.32C363.495 274.021 363.015 273.659 362.61 273.232C361.65 272.229 361.17 270.992 361.17 269.52C361.17 267.771 361.821 266.299 363.122 265.104C364.445 263.888 366.194 263.28 368.37 263.28C370.546 263.28 372.285 263.888 373.586 265.104C374.909 266.299 375.57 267.771 375.57 269.52C375.57 270.992 375.09 272.229 374.13 273.232C373.725 273.659 373.245 274.021 372.69 274.32V274.48C373.33 274.821 373.885 275.227 374.354 275.696C375.485 276.827 376.05 278.181 376.05 279.76C376.05 281.595 375.346 283.152 373.938 284.432C372.53 285.691 370.674 286.32 368.37 286.32C366.066 286.32 364.21 285.691 362.802 284.432C361.394 283.152 360.69 281.595 360.69 279.76C360.69 278.16 361.245 276.805 362.354 275.696C362.845 275.205 363.41 274.8 364.05 274.48ZM365.554 267.28C364.871 267.899 364.53 268.699 364.53 269.68C364.53 270.661 364.871 271.472 365.554 272.112C366.237 272.731 367.175 273.04 368.37 273.04C369.565 273.04 370.503 272.731 371.186 272.112C371.869 271.472 372.21 270.661 372.21 269.68C372.21 268.699 371.869 267.899 371.186 267.28C370.503 266.64 369.565 266.32 368.37 266.32C367.175 266.32 366.237 266.64 365.554 267.28ZM365.266 276.976C364.455 277.68 364.05 278.555 364.05 279.6C364.05 280.645 364.455 281.52 365.266 282.224C366.077 282.928 367.111 283.28 368.37 283.28C369.629 283.28 370.663 282.928 371.474 282.224C372.285 281.52 372.69 280.645 372.69 279.6C372.69 278.555 372.285 277.68 371.474 276.976C370.663 276.272 369.629 275.92 368.37 275.92C367.111 275.92 366.077 276.272 365.266 276.976ZM378.94 288.72L379.58 282.32H383.26L381.5 288.72H378.94ZM390.951 281.84C391.805 282.693 392.871 283.12 394.151 283.12C395.431 283.12 396.498 282.693 397.351 281.84C398.205 280.987 398.631 279.92 398.631 278.64C398.631 277.36 398.205 276.293 397.351 275.44C396.498 274.587 395.431 274.16 394.151 274.16C392.871 274.16 391.805 274.587 390.951 275.44C390.098 276.293 389.671 277.36 389.671 278.64C389.671 279.92 390.098 280.987 390.951 281.84ZM387.591 274.16L394.311 263.6H398.151L393.191 271.28H393.351L393.767 271.216C394.279 271.152 394.621 271.12 394.791 271.12C396.797 271.12 398.493 271.856 399.879 273.328C401.287 274.779 401.991 276.549 401.991 278.64C401.991 280.816 401.245 282.64 399.751 284.112C398.258 285.584 396.391 286.32 394.151 286.32C391.911 286.32 390.045 285.584 388.551 284.112C387.058 282.64 386.311 280.816 386.311 278.64C386.311 277.019 386.738 275.525 387.591 274.16ZM404.721 279.92H408.081C408.273 280.816 408.732 281.573 409.457 282.192C410.204 282.811 411.185 283.12 412.401 283.12C413.767 283.12 414.855 282.715 415.665 281.904C416.476 281.093 416.881 280.005 416.881 278.64C416.881 277.36 416.465 276.325 415.633 275.536C414.823 274.725 413.745 274.32 412.401 274.32C410.801 274.32 409.575 274.853 408.721 275.92H405.201L406.481 263.6H418.961V266.8H409.361L408.721 272.24H408.881C410.033 271.493 411.367 271.12 412.881 271.12C414.993 271.12 416.743 271.835 418.129 273.264C419.537 274.672 420.241 276.464 420.241 278.64C420.241 280.88 419.505 282.725 418.033 284.176C416.583 285.605 414.705 286.32 412.401 286.32C411.143 286.32 410.012 286.117 409.009 285.712C408.028 285.307 407.249 284.773 406.673 284.112C406.097 283.451 405.649 282.768 405.329 282.064C405.031 281.36 404.828 280.645 404.721 279.92ZM436.216 280.976C437.304 279.525 437.847 277.467 437.847 274.8C437.847 272.133 437.304 270.085 436.216 268.656C435.128 267.205 433.805 266.48 432.248 266.48C430.69 266.48 429.368 267.205 428.28 268.656C427.192 270.085 426.648 272.133 426.648 274.8C426.648 277.467 427.192 279.525 428.28 280.976C429.368 282.405 430.69 283.12 432.248 283.12C433.805 283.12 435.128 282.405 436.216 280.976ZM425.88 266.384C427.608 264.315 429.73 263.28 432.248 263.28C434.765 263.28 436.888 264.315 438.616 266.384C440.344 268.453 441.208 271.259 441.208 274.8C441.208 278.341 440.344 281.147 438.616 283.216C436.888 285.285 434.765 286.32 432.248 286.32C429.73 286.32 427.608 285.285 425.88 283.216C424.152 281.147 423.288 278.341 423.288 274.8C423.288 271.259 424.152 268.453 425.88 266.384Z" fill="#309682"/>
<mask id="path-30-inside-4_3550_98146" fill="white">
<path d="M341 309H599V345H341V309Z"/>
</mask>
<path d="M341 309V310H599V309V308H341V309Z" fill="#B1B1B1" fill-opacity="0.2" mask="url(#path-30-inside-4_3550_98146)"/>
<path fill-rule="evenodd" clip-rule="evenodd" d="M395.833 337.375H380V336.125H395.833V337.375Z" fill="#309682"/>
<path fill-rule="evenodd" clip-rule="evenodd" d="M383.751 341.383L379.117 336.749L383.751 332.115L384.635 332.999L380.885 336.749L384.635 340.499L383.751 341.383Z" fill="#309682"/>
<path fill-rule="evenodd" clip-rule="evenodd" d="M379.168 329.875H395.001V328.625H379.168V329.875Z" fill="#309682"/>
<path fill-rule="evenodd" clip-rule="evenodd" d="M391.251 333.883L395.885 329.249L391.251 324.615L390.367 325.499L394.117 329.249L390.367 332.999L391.251 333.883Z" fill="#309682"/>
<path d="M403 340V326H409.3C410.473 326 411.447 326.42 412.22 327.26C413.007 328.087 413.4 329.167 413.4 330.5C413.4 331.833 413.007 332.92 412.22 333.76C411.447 334.587 410.473 335 409.3 335H408.8L413.8 340H411.1L406.1 335H405.1V340H403ZM405.1 333H409.2C409.773 333 410.267 332.767 410.68 332.3C411.093 331.833 411.3 331.233 411.3 330.5C411.3 329.767 411.093 329.167 410.68 328.7C410.267 328.233 409.773 328 409.2 328H405.1V333ZM416.917 334.2H422.817C422.711 333.387 422.397 332.733 421.877 332.24C421.357 331.747 420.704 331.5 419.917 331.5C419.091 331.5 418.424 331.747 417.917 332.24C417.411 332.72 417.077 333.373 416.917 334.2ZM422.317 337.1H424.417C424.124 337.9 423.591 338.62 422.817 339.26C422.057 339.887 421.091 340.2 419.917 340.2C418.464 340.2 417.264 339.72 416.317 338.76C415.384 337.8 414.917 336.547 414.917 335C414.917 333.453 415.384 332.2 416.317 331.24C417.264 330.28 418.464 329.8 419.917 329.8C421.277 329.8 422.417 330.267 423.337 331.2C424.257 332.133 424.717 333.3 424.717 334.7C424.717 334.82 424.697 335.06 424.657 335.42L424.617 335.7H416.917C417.024 336.553 417.351 337.233 417.897 337.74C418.444 338.247 419.117 338.5 419.917 338.5C420.477 338.5 420.971 338.367 421.397 338.1C421.837 337.82 422.144 337.487 422.317 337.1ZM434.123 344V338.8H434.023C433.317 339.733 432.283 340.2 430.923 340.2C429.59 340.2 428.49 339.727 427.623 338.78C426.757 337.833 426.323 336.573 426.323 335C426.323 333.427 426.757 332.167 427.623 331.22C428.49 330.273 429.59 329.8 430.923 329.8C431.51 329.8 432.043 329.907 432.523 330.12C433.017 330.32 433.337 330.493 433.483 330.64C433.63 330.773 433.81 330.96 434.023 331.2H434.123L434.323 330H436.123V344H434.123ZM429.143 337.46C429.703 338.087 430.397 338.4 431.223 338.4C432.05 338.4 432.737 338.087 433.283 337.46C433.843 336.833 434.123 336.013 434.123 335C434.123 333.987 433.843 333.167 433.283 332.54C432.737 331.913 432.05 331.6 431.223 331.6C430.397 331.6 429.703 331.913 429.143 332.54C428.597 333.167 428.323 333.987 428.323 335C428.323 336.013 428.597 336.833 429.143 337.46ZM438.718 336V330H440.718V336C440.718 336.653 440.945 337.22 441.398 337.7C441.865 338.167 442.438 338.4 443.118 338.4C443.851 338.4 444.465 338.167 444.958 337.7C445.465 337.22 445.718 336.653 445.718 336V330H447.718V340H445.918L445.718 339H445.618C445.391 339.227 445.145 339.427 444.878 339.6C444.238 340 443.518 340.2 442.718 340.2C441.505 340.2 440.531 339.827 439.798 339.08C439.078 338.32 438.718 337.293 438.718 336ZM451.82 334.2H457.72C457.613 333.387 457.3 332.733 456.78 332.24C456.26 331.747 455.606 331.5 454.82 331.5C453.993 331.5 453.326 331.747 452.82 332.24C452.313 332.72 451.98 333.373 451.82 334.2ZM457.22 337.1H459.32C459.026 337.9 458.493 338.62 457.72 339.26C456.96 339.887 455.993 340.2 454.82 340.2C453.366 340.2 452.166 339.72 451.22 338.76C450.286 337.8 449.82 336.547 449.82 335C449.82 333.453 450.286 332.2 451.22 331.24C452.166 330.28 453.366 329.8 454.82 329.8C456.18 329.8 457.32 330.267 458.24 331.2C459.16 332.133 459.62 333.3 459.62 334.7C459.62 334.82 459.6 335.06 459.56 335.42L459.52 335.7H451.82C451.926 336.553 452.253 337.233 452.8 337.74C453.346 338.247 454.02 338.5 454.82 338.5C455.38 338.5 455.873 338.367 456.3 338.1C456.74 337.82 457.046 337.487 457.22 337.1ZM461.026 337H463.026C463.026 337.36 463.226 337.7 463.626 338.02C464.026 338.34 464.592 338.5 465.326 338.5C466.019 338.5 466.539 338.373 466.886 338.12C467.246 337.853 467.426 337.547 467.426 337.2C467.426 336.84 467.312 336.56 467.086 336.36C466.859 336.147 466.472 335.993 465.926 335.9L464.126 335.6C462.192 335.28 461.226 334.313 461.226 332.7C461.226 331.86 461.566 331.167 462.246 330.62C462.939 330.073 463.932 329.8 465.226 329.8C465.906 329.8 466.519 329.907 467.066 330.12C467.626 330.333 468.059 330.607 468.366 330.94C468.686 331.273 468.926 331.613 469.086 331.96C469.246 332.293 469.326 332.607 469.326 332.9H467.326C467.326 332.553 467.146 332.233 466.786 331.94C466.426 331.647 465.906 331.5 465.226 331.5C464.559 331.5 464.059 331.62 463.726 331.86C463.392 332.087 463.226 332.367 463.226 332.7C463.226 333.3 463.726 333.7 464.726 333.9L466.526 334.2C468.459 334.52 469.426 335.52 469.426 337.2C469.426 338.053 469.072 338.767 468.366 339.34C467.672 339.913 466.659 340.2 465.326 340.2C464.579 340.2 463.906 340.087 463.306 339.86C462.719 339.633 462.266 339.347 461.946 339C461.639 338.653 461.406 338.313 461.246 337.98C461.099 337.633 461.026 337.307 461.026 337ZM471.842 337.9V331.9H470.242V330H471.842V327.2H473.842V330H476.142V331.9H473.842V337.6C473.842 338 474.042 338.2 474.442 338.2H476.142V340H474.042C473.336 340 472.789 339.813 472.402 339.44C472.029 339.067 471.842 338.553 471.842 337.9ZM481.754 340L486.854 326H490.054L495.154 340H492.854L491.654 336.7H485.254L484.054 340H481.754ZM485.954 334.8H490.954L488.654 328.4H488.254L485.954 334.8ZM503.952 340L503.752 338.8H503.652C502.946 339.733 501.912 340.2 500.552 340.2C499.219 340.2 498.119 339.727 497.252 338.78C496.386 337.833 495.952 336.573 495.952 335C495.952 333.427 496.386 332.167 497.252 331.22C498.119 330.273 499.219 329.8 500.552 329.8C501.139 329.8 501.672 329.907 502.152 330.12C502.646 330.32 502.966 330.493 503.112 330.64C503.259 330.773 503.439 330.96 503.652 331.2H503.752V326H505.752V340H503.952ZM498.772 337.46C499.332 338.087 500.026 338.4 500.852 338.4C501.679 338.4 502.366 338.087 502.912 337.46C503.472 336.833 503.752 336.013 503.752 335C503.752 333.987 503.472 333.167 502.912 332.54C502.366 331.913 501.679 331.6 500.852 331.6C500.026 331.6 499.332 331.913 498.772 332.54C498.226 333.167 497.952 333.987 497.952 335C497.952 336.013 498.226 336.833 498.772 337.46ZM510.745 340L507.245 330H509.345L512.045 337.8H512.445L515.145 330H517.245L513.745 340H510.745ZM524.945 340L524.745 338.9H524.645C524.445 339.153 524.205 339.373 523.925 339.56C523.285 339.987 522.525 340.2 521.645 340.2C520.551 340.2 519.678 339.913 519.025 339.34C518.371 338.767 518.045 338.02 518.045 337.1C518.045 336.073 518.385 335.267 519.065 334.68C519.758 334.093 520.785 333.8 522.145 333.8H524.645V333.6C524.645 332.947 524.458 332.433 524.085 332.06C523.711 331.687 523.198 331.5 522.545 331.5C521.905 331.5 521.411 331.647 521.065 331.94C520.718 332.22 520.511 332.54 520.445 332.9H518.445C518.498 332.02 518.891 331.287 519.625 330.7C520.358 330.1 521.331 329.8 522.545 329.8C523.838 329.8 524.845 330.14 525.565 330.82C526.285 331.5 526.645 332.427 526.645 333.6V340H524.945ZM524.645 335.8V335.4H522.245C521.511 335.4 520.958 335.547 520.585 335.84C520.225 336.133 520.045 336.52 520.045 337C520.045 337.467 520.198 337.833 520.505 338.1C520.811 338.367 521.258 338.5 521.845 338.5C522.751 338.5 523.445 338.267 523.925 337.8C524.405 337.32 524.645 336.653 524.645 335.8ZM529.148 340V330H530.948L531.148 331H531.248C531.474 330.773 531.721 330.573 531.988 330.4C532.628 330 533.348 329.8 534.148 329.8C535.361 329.8 536.328 330.18 537.048 330.94C537.781 331.687 538.148 332.707 538.148 334V340H536.148V334C536.148 333.347 535.914 332.787 535.448 332.32C534.994 331.84 534.428 331.6 533.748 331.6C533.014 331.6 532.394 331.84 531.888 332.32C531.394 332.787 531.148 333.347 531.148 334V340H529.148ZM547.752 336.5H549.752C549.658 336.913 549.505 337.32 549.292 337.72C549.092 338.12 548.812 338.513 548.452 338.9C548.105 339.287 547.645 339.6 547.072 339.84C546.498 340.08 545.858 340.2 545.152 340.2C543.698 340.2 542.498 339.72 541.552 338.76C540.618 337.8 540.152 336.547 540.152 335C540.152 333.453 540.618 332.2 541.552 331.24C542.498 330.28 543.698 329.8 545.152 329.8C546.485 329.8 547.532 330.18 548.292 330.94C549.052 331.687 549.538 332.507 549.752 333.4H547.752C547.325 332.2 546.458 331.6 545.152 331.6C544.285 331.6 543.565 331.913 542.992 332.54C542.432 333.153 542.152 333.973 542.152 335C542.152 336.027 542.432 336.853 542.992 337.48C543.565 338.093 544.285 338.4 545.152 338.4C545.872 338.4 546.452 338.207 546.892 337.82C547.332 337.433 547.618 336.993 547.752 336.5ZM553.245 334.2H559.145C559.039 333.387 558.725 332.733 558.205 332.24C557.685 331.747 557.032 331.5 556.245 331.5C555.419 331.5 554.752 331.747 554.245 332.24C553.739 332.72 553.405 333.373 553.245 334.2ZM558.645 337.1H560.745C560.452 337.9 559.919 338.62 559.145 339.26C558.385 339.887 557.419 340.2 556.245 340.2C554.792 340.2 553.592 339.72 552.645 338.76C551.712 337.8 551.245 336.547 551.245 335C551.245 333.453 551.712 332.2 552.645 331.24C553.592 330.28 554.792 329.8 556.245 329.8C557.605 329.8 558.745 330.267 559.665 331.2C560.585 332.133 561.045 333.3 561.045 334.7C561.045 334.82 561.025 335.06 560.985 335.42L560.945 335.7H553.245C553.352 336.553 553.679 337.233 554.225 337.74C554.772 338.247 555.445 338.5 556.245 338.5C556.805 338.5 557.299 338.367 557.725 338.1C558.165 337.82 558.472 337.487 558.645 337.1Z" fill="#309682"/>
</g>
<defs>
<filter id="filter0_ddd_3550_98146" x="0" y="0" width="312" height="186" filterUnits="userSpaceOnUse" color-interpolation-filters="sRGB">
<feFlood flood-opacity="0" result="BackgroundImageFix"/>
<feColorMatrix in="SourceAlpha" type="matrix" values="0 0 0 0 0 0 0 0 0 0 0 0 0 0 0 0 0 0 127 0" result="hardAlpha"/>
<feMorphology radius="1" operator="dilate" in="SourceAlpha" result="effect1_dropShadow_3550_98146"/>
<feOffset/>
<feComposite in2="hardAlpha" operator="out"/>
<feColorMatrix type="matrix" values="0 0 0 0 0.0627451 0 0 0 0 0.0980392 0 0 0 0 0.156863 0 0 0 0.05 0"/>
<feBlend mode="normal" in2="BackgroundImageFix" result="effect1_dropShadow_3550_98146"/>
<feColorMatrix in="SourceAlpha" type="matrix" values="0 0 0 0 0 0 0 0 0 0 0 0 0 0 0 0 0 0 127 0" result="hardAlpha"/>
<feOffset dy="2"/>
<feGaussianBlur stdDeviation="3.5"/>
<feComposite in2="hardAlpha" operator="out"/>
<feColorMatrix type="matrix" values="0 0 0 0 0.0627451 0 0 0 0 0.0980392 0 0 0 0 0.156863 0 0 0 0.05 0"/>
<feBlend mode="normal" in2="effect1_dropShadow_3550_98146" result="effect2_dropShadow_3550_98146"/>
<feColorMatrix in="SourceAlpha" type="matrix" values="0 0 0 0 0 0 0 0 0 0 0 0 0 0 0 0 0 0 127 0" result="hardAlpha"/>
<feMorphology radius="2" operator="erode" in="SourceAlpha" result="effect3_dropShadow_3550_98146"/>
<feOffset dy="2"/>
<feGaussianBlur stdDeviation="2.5"/>
<feComposite in2="hardAlpha" operator="out"/>
<feColorMatrix type="matrix" values="0 0 0 0 0.0627451 0 0 0 0 0.0980392 0 0 0 0 0.156863 0 0 0 0.06 0"/>
<feBlend mode="normal" in2="effect2_dropShadow_3550_98146" result="effect3_dropShadow_3550_98146"/>
<feBlend mode="normal" in="SourceGraphic" in2="effect3_dropShadow_3550_98146" result="shape"/>
</filter>
<filter id="filter1_ddd_3550_98146" x="314" y="0" width="312" height="186" filterUnits="userSpaceOnUse" color-interpolation-filters="sRGB">
<feFlood flood-opacity="0" result="BackgroundImageFix"/>
<feColorMatrix in="SourceAlpha" type="matrix" values="0 0 0 0 0 0 0 0 0 0 0 0 0 0 0 0 0 0 127 0" result="hardAlpha"/>
<feMorphology radius="1" operator="dilate" in="SourceAlpha" result="effect1_dropShadow_3550_98146"/>
<feOffset/>
<feComposite in2="hardAlpha" operator="out"/>
<feColorMatrix type="matrix" values="0 0 0 0 0.0627451 0 0 0 0 0.0980392 0 0 0 0 0.156863 0 0 0 0.05 0"/>
<feBlend mode="normal" in2="BackgroundImageFix" result="effect1_dropShadow_3550_98146"/>
<feColorMatrix in="SourceAlpha" type="matrix" values="0 0 0 0 0 0 0 0 0 0 0 0 0 0 0 0 0 0 127 0" result="hardAlpha"/>
<feOffset dy="2"/>
<feGaussianBlur stdDeviation="3.5"/>
<feComposite in2="hardAlpha" operator="out"/>
<feColorMatrix type="matrix" values="0 0 0 0 0.0627451 0 0 0 0 0.0980392 0 0 0 0 0.156863 0 0 0 0.05 0"/>
<feBlend mode="normal" in2="effect1_dropShadow_3550_98146" result="effect2_dropShadow_3550_98146"/>
<feColorMatrix in="SourceAlpha" type="matrix" values="0 0 0 0 0 0 0 0 0 0 0 0 0 0 0 0 0 0 127 0" result="hardAlpha"/>
<feMorphology radius="2" operator="erode" in="SourceAlpha" result="effect3_dropShadow_3550_98146"/>
<feOffset dy="2"/>
<feGaussianBlur stdDeviation="2.5"/>
<feComposite in2="hardAlpha" operator="out"/>
<feColorMatrix type="matrix" values="0 0 0 0 0.0627451 0 0 0 0 0.0980392 0 0 0 0 0.156863 0 0 0 0.06 0"/>
<feBlend mode="normal" in2="effect2_dropShadow_3550_98146" result="effect3_dropShadow_3550_98146"/>
<feBlend mode="normal" in="SourceGraphic" in2="effect3_dropShadow_3550_98146" result="shape"/>
</filter>
<filter id="filter2_ddd_3550_98146" x="0" y="188" width="312" height="186" filterUnits="userSpaceOnUse" color-interpolation-filters="sRGB">
<feFlood flood-opacity="0" result="BackgroundImageFix"/>
<feColorMatrix in="SourceAlpha" type="matrix" values="0 0 0 0 0 0 0 0 0 0 0 0 0 0 0 0 0 0 127 0" result="hardAlpha"/>
<feMorphology radius="1" operator="dilate" in="SourceAlpha" result="effect1_dropShadow_3550_98146"/>
<feOffset/>
<feComposite in2="hardAlpha" operator="out"/>
<feColorMatrix type="matrix" values="0 0 0 0 0.0627451 0 0 0 0 0.0980392 0 0 0 0 0.156863 0 0 0 0.05 0"/>
<feBlend mode="normal" in2="BackgroundImageFix" result="effect1_dropShadow_3550_98146"/>
<feColorMatrix in="SourceAlpha" type="matrix" values="0 0 0 0 0 0 0 0 0 0 0 0 0 0 0 0 0 0 127 0" result="hardAlpha"/>
<feOffset dy="2"/>
<feGaussianBlur stdDeviation="3.5"/>
<feComposite in2="hardAlpha" operator="out"/>
<feColorMatrix type="matrix" values="0 0 0 0 0.0627451 0 0 0 0 0.0980392 0 0 0 0 0.156863 0 0 0 0.05 0"/>
<feBlend mode="normal" in2="effect1_dropShadow_3550_98146" result="effect2_dropShadow_3550_98146"/>
<feColorMatrix in="SourceAlpha" type="matrix" values="0 0 0 0 0 0 0 0 0 0 0 0 0 0 0 0 0 0 127 0" result="hardAlpha"/>
<feMorphology radius="2" operator="erode" in="SourceAlpha" result="effect3_dropShadow_3550_98146"/>
<feOffset dy="2"/>
<feGaussianBlur stdDeviation="2.5"/>
<feComposite in2="hardAlpha" operator="out"/>
<feColorMatrix type="matrix" values="0 0 0 0 0.0627451 0 0 0 0 0.0980392 0 0 0 0 0.156863 0 0 0 0.06 0"/>
<feBlend mode="normal" in2="effect2_dropShadow_3550_98146" result="effect3_dropShadow_3550_98146"/>
<feBlend mode="normal" in="SourceGraphic" in2="effect3_dropShadow_3550_98146" result="shape"/>
</filter>
<filter id="filter3_ddd_3550_98146" x="314" y="188" width="312" height="186" filterUnits="userSpaceOnUse" color-interpolation-filters="sRGB">
<feFlood flood-opacity="0" result="BackgroundImageFix"/>
<feColorMatrix in="SourceAlpha" type="matrix" values="0 0 0 0 0 0 0 0 0 0 0 0 0 0 0 0 0 0 127 0" result="hardAlpha"/>
<feMorphology radius="1" operator="dilate" in="SourceAlpha" result="effect1_dropShadow_3550_98146"/>
<feOffset/>
<feComposite in2="hardAlpha" operator="out"/>
<feColorMatrix type="matrix" values="0 0 0 0 0.0627451 0 0 0 0 0.0980392 0 0 0 0 0.156863 0 0 0 0.05 0"/>
<feBlend mode="normal" in2="BackgroundImageFix" result="effect1_dropShadow_3550_98146"/>
<feColorMatrix in="SourceAlpha" type="matrix" values="0 0 0 0 0 0 0 0 0 0 0 0 0 0 0 0 0 0 127 0" result="hardAlpha"/>
<feOffset dy="2"/>
<feGaussianBlur stdDeviation="3.5"/>
<feComposite in2="hardAlpha" operator="out"/>
<feColorMatrix type="matrix" values="0 0 0 0 0.0627451 0 0 0 0 0.0980392 0 0 0 0 0.156863 0 0 0 0.05 0"/>
<feBlend mode="normal" in2="effect1_dropShadow_3550_98146" result="effect2_dropShadow_3550_98146"/>
<feColorMatrix in="SourceAlpha" type="matrix" values="0 0 0 0 0 0 0 0 0 0 0 0 0 0 0 0 0 0 127 0" result="hardAlpha"/>
<feMorphology radius="2" operator="erode" in="SourceAlpha" result="effect3_dropShadow_3550_98146"/>
<feOffset dy="2"/>
<feGaussianBlur stdDeviation="2.5"/>
<feComposite in2="hardAlpha" operator="out"/>
<feColorMatrix type="matrix" values="0 0 0 0 0.0627451 0 0 0 0 0.0980392 0 0 0 0 0.156863 0 0 0 0.06 0"/>
<feBlend mode="normal" in2="effect2_dropShadow_3550_98146" result="effect3_dropShadow_3550_98146"/>
<feBlend mode="normal" in="SourceGraphic" in2="effect3_dropShadow_3550_98146" result="shape"/>
</filter>
<linearGradient id="paint0_linear_3550_98146" x1="-66.4653" y1="-61.8313" x2="312.567" y2="192.578" gradientUnits="userSpaceOnUse">
<stop stop-color="white"/>
<stop offset="1" stop-color="white" stop-opacity="0"/>
</linearGradient>
<linearGradient id="paint1_linear_3550_98146" x1="-324.111" y1="-185.651" x2="305.417" y2="169.007" gradientUnits="userSpaceOnUse">
<stop stop-color="white"/>
<stop offset="1" stop-color="white" stop-opacity="0"/>
</linearGradient>
<linearGradient id="paint2_linear_3550_98146" x1="247.535" y1="-61.8313" x2="626.567" y2="192.578" gradientUnits="userSpaceOnUse">
<stop stop-color="white"/>
<stop offset="1" stop-color="white" stop-opacity="0"/>
</linearGradient>
<linearGradient id="paint3_linear_3550_98146" x1="-10.1111" y1="-185.651" x2="619.417" y2="169.007" gradientUnits="userSpaceOnUse">
<stop stop-color="white"/>
<stop offset="1" stop-color="white" stop-opacity="0"/>
</linearGradient>
<linearGradient id="paint4_linear_3550_98146" x1="-66.4653" y1="126.169" x2="312.567" y2="380.578" gradientUnits="userSpaceOnUse">
<stop stop-color="white"/>
<stop offset="1" stop-color="white" stop-opacity="0"/>
</linearGradient>
<linearGradient id="paint5_linear_3550_98146" x1="-324.111" y1="2.34936" x2="305.417" y2="357.007" gradientUnits="userSpaceOnUse">
<stop stop-color="white"/>
<stop offset="1" stop-color="white" stop-opacity="0"/>
</linearGradient>
<linearGradient id="paint6_linear_3550_98146" x1="247.535" y1="126.169" x2="626.567" y2="380.578" gradientUnits="userSpaceOnUse">
<stop stop-color="white"/>
<stop offset="1" stop-color="white" stop-opacity="0"/>
</linearGradient>
<linearGradient id="paint7_linear_3550_98146" x1="-10.1111" y1="2.34936" x2="619.417" y2="357.007" gradientUnits="userSpaceOnUse">
<stop stop-color="white"/>
<stop offset="1" stop-color="white" stop-opacity="0"/>
</linearGradient>
</defs>
</svg>
