<svg width="24" height="24" viewBox="0 0 24 24" fill="none" xmlns="http://www.w3.org/2000/svg">
<path fill-rule="evenodd" clip-rule="evenodd" d="M22.9143 16.0001L15.5001 23.4143L11.0859 19.0001L12.5001 17.5859L15.5001 20.5859L21.5001 14.5859L22.9143 16.0001Z" fill="white"/>
<path fill-rule="evenodd" clip-rule="evenodd" d="M8.95711 1.87868C9.51972 1.31607 10.2828 1 11.0784 1H18C19.6569 1 21 2.34315 21 4V12.6493C20.6569 12.7378 20.3405 12.9168 20.0857 13.1716L15.4999 17.7574L13.9141 16.1716C13.539 15.7965 13.0303 15.5858 12.4999 15.5858C11.9695 15.5858 11.4608 15.7965 11.0857 16.1716L9.67148 17.5858C8.89043 18.3668 8.89043 19.6332 9.67148 20.4142L12.2573 23H6C4.34315 23 3 21.6569 3 20V9.07843C3 8.28278 3.31607 7.51972 3.87868 6.95711L8.95711 1.87868ZM5 9H11V3L5 9Z" fill="white"/>
</svg>
