<svg width="48" height="48" viewBox="0 0 48 48" fill="none" xmlns="http://www.w3.org/2000/svg">
<path fill-rule="evenodd" clip-rule="evenodd" d="M14.25 15V23.25C14.25 28.6348 18.6151 33 24 33C29.3848 33 33.75 28.6348 33.75 23.25V15H36.75V23.25C36.75 30.2916 31.0416 36 24 36C16.9584 36 11.25 30.2916 11.25 23.25V15H14.25Z" fill="white"/>
<path fill-rule="evenodd" clip-rule="evenodd" d="M25.4206 0.334781C24.5207 -0.111199 23.4773 -0.112323 22.5766 0.335786L9.8274 6.88338C7.96675 7.81471 7.43173 10.195 8.47146 11.8897L8.50867 11.9503L11.25 15.5931V16.6041C11.25 18.6732 12.4711 20.5474 14.3638 21.3835C20.5019 24.0946 27.4981 24.0946 33.6362 21.3835C35.5289 20.5474 36.7499 18.6732 36.7499 16.6041V15.5931L39.5275 11.8913C40.5719 10.1939 40.0313 7.81375 38.1727 6.88338L25.4206 0.334781ZM15.5759 18.6393C14.77 18.2833 14.25 17.4852 14.25 16.6041H33.7499C33.7499 17.4852 33.23 18.2833 32.4241 18.6393C27.0581 21.0094 20.9419 21.0094 15.5759 18.6393ZM26.9999 9C26.9999 10.6569 25.6568 12 23.9999 12C22.3432 12 20.9999 10.6569 20.9999 9C20.9999 7.34314 22.3432 6 23.9999 6C25.6568 6 26.9999 7.34314 26.9999 9Z" fill="white"/>
<path fill-rule="evenodd" clip-rule="evenodd" d="M11.25 14.25H36.75V17.25H11.25V14.25Z" fill="white"/>
<path d="M16.3515 37.2578C15.9012 39.2422 14.4603 40.9001 12.4821 41.5924L4.5 44.3861V46.5004H43.5V44.3861L35.5179 41.5924C33.5397 40.9001 32.0988 39.2422 31.6485 37.2578C29.3385 38.3749 26.7391 39.0004 24 39.0004C21.2609 39.0004 18.6615 38.3749 16.3515 37.2578Z" fill="white"/>
</svg>
