<svg width="48" height="48" viewBox="0 0 48 48" fill="none" xmlns="http://www.w3.org/2000/svg">
<rect width="48" height="48" rx="4" fill="white" fill-opacity="0.1"/>
<path fill-rule="evenodd" clip-rule="evenodd" d="M17.6307 18H22.9175L20.5841 20.3333L21.9983 21.7475L23.9983 19.7475L25.9983 21.7476L27.4126 20.3333L25.0792 18H30.3659C31.8787 19.329 33.2457 20.8949 34.3317 22.5447C35.8718 24.8844 36.8871 27.4559 36.8871 29.8068C36.8871 33.0226 35.5086 35.2901 33.1461 36.7148C30.8353 38.1083 27.6359 38.6667 23.9983 38.6667C20.3607 38.6667 17.1613 38.1083 14.8505 36.7148C12.4879 35.2901 11.1094 33.0226 11.1094 29.8068C11.1094 27.4559 12.1247 24.8844 13.6648 22.5447C14.7508 20.8949 16.1179 19.329 17.6307 18Z" fill="white"/>
<path d="M22.24 31.318L21.666 30.548V29.862H23.178C23.5887 29.862 23.9247 29.7127 24.186 29.414C24.4567 29.1153 24.592 28.7467 24.592 28.308C24.592 27.9813 24.5127 27.6967 24.354 27.454C24.2047 27.202 23.99 27.006 23.71 26.866C23.4393 26.726 23.1313 26.656 22.786 26.656H20.952V25.2H27.084V26.656H24.424L23.038 25.76C23.458 25.76 23.8547 25.8253 24.228 25.956C24.6013 26.0867 24.928 26.2687 25.208 26.502C25.4973 26.726 25.7213 26.9967 25.88 27.314C26.048 27.622 26.132 27.958 26.132 28.322C26.132 28.7233 26.048 29.106 25.88 29.47C25.7213 29.8247 25.502 30.142 25.222 30.422C24.942 30.702 24.6107 30.9213 24.228 31.08C23.8547 31.2387 23.458 31.318 23.038 31.318H22.24ZM24.858 35L21.708 30.576L23.262 30.226L26.692 35.014L24.858 35ZM23.388 28.938V27.678H27.14V28.938H23.388Z" fill="#303131"/>
<path d="M23.9984 12.4648L27.8469 9.25781L32.3169 10.5988L29.3166 15.9993H18.6802L15.6799 10.5988L20.15 9.25781L23.9984 12.4648Z" fill="white"/>
</svg>
