<svg width="16" height="16" viewBox="0 0 16 16" fill="none" xmlns="http://www.w3.org/2000/svg">
<path d="M8.00156 1.60156C4.47268 1.60156 1.60156 4.47268 1.60156 8.00156C1.60156 11.5304 4.47268 14.4016 8.00156 14.4016C11.5304 14.4016 14.4016 11.5304 14.4016 8.00156C14.4016 4.47268 11.5304 1.60156 8.00156 1.60156ZM10.5672 10.5672C10.4109 10.7234 10.2062 10.8016 10.0016 10.8016C9.79692 10.8016 9.5922 10.7234 9.43596 10.5672L7.43596 8.56716C7.28596 8.41716 7.20156 8.21364 7.20156 8.00156V5.20156C7.20156 4.7598 7.5594 4.40156 8.00156 4.40156C8.44372 4.40156 8.80156 4.7598 8.80156 5.20156V7.67028L10.5672 9.43588C10.8796 9.74836 10.8796 10.2546 10.5672 10.5672Z" fill="white"/>
</svg>
