<svg width="24" height="24" viewBox="0 0 24 24" fill="none" xmlns="http://www.w3.org/2000/svg">
<path fill-rule="evenodd" clip-rule="evenodd" d="M19.5 8.4819C19.5 11.5083 17.6468 14.3806 15.8799 16.4452C14.9871 17.4884 14.0956 18.3491 13.4278 18.9489C12.9675 19.3623 12.4916 19.7536 12 20.1289C11.508 19.7532 11.0322 19.3609 10.5718 18.9467C9.90405 18.3459 9.01275 17.484 8.12 16.4401C6.35335 14.3741 4.5 11.5018 4.5 8.4819C4.5 3.70547 8.3634 1 12 1C15.6366 1 19.5 3.70547 19.5 8.4819ZM12 5.5C10.3432 5.5 9 6.84315 9 8.5C9 10.1568 10.3432 11.5 12 11.5C13.6568 11.5 15 10.1568 15 8.5C15 6.84315 13.6568 5.5 12 5.5Z" fill="white"/>
<path d="M20.7141 16.4873C21.3487 16.7787 21.8948 17.1184 22.2934 17.5099C22.69 17.8995 23 18.4026 23 18.9995C23 19.7679 22.494 20.374 21.9154 20.8102C21.317 21.2614 20.4945 21.6471 19.5338 21.9628C17.604 22.597 14.9595 22.9995 12 22.9995C9.0412 22.9995 6.39675 22.6003 4.46678 21.9677C3.50601 21.6528 2.683 21.2674 2.08413 20.8152C1.50405 20.3772 1 19.7695 1 18.9995V18.9777L1.00127 18.9559C1.03572 18.3642 1.35151 17.8677 1.76039 17.4765C2.16956 17.085 2.72124 16.7489 3.35858 16.462C4.0316 16.1591 4.8378 15.8945 5.75 15.676L6.1605 17.1203C5.2993 17.3232 4.56335 17.5647 3.97422 17.8299C3.42722 18.0761 3.04043 18.3278 2.79735 18.5603C2.57502 18.773 2.51388 18.9281 2.50114 19.019C2.51066 19.1055 2.58674 19.3151 2.98803 19.6181C3.40494 19.9329 4.05712 20.2549 4.93398 20.5423C6.67925 21.1144 9.15985 21.4995 12 21.4995C14.8396 21.4995 17.32 21.1114 19.0655 20.5378C19.9424 20.2496 20.595 19.9272 21.0124 19.6125C21.4496 19.2829 21.5 19.0655 21.5 18.9995C21.5 18.9502 21.4752 18.8088 21.2423 18.58C21.0113 18.3531 20.6329 18.1006 20.0882 17.8505C19.488 17.575 18.7284 17.3216 17.8325 17.1105L18.25 15.668C19.197 15.8951 20.0279 16.1723 20.7141 16.4873Z" fill="white"/>
</svg>
