<svg width="25" height="24" viewBox="0 0 25 24" fill="none" xmlns="http://www.w3.org/2000/svg">
<path fill-rule="evenodd" clip-rule="evenodd" d="M15.1687 15.1152L15.9135 15.203C18.001 15.4489 19.7728 15.9032 21.0462 16.4878C21.6808 16.7792 22.2268 17.1189 22.6254 17.5103C23.0221 17.8999 23.332 18.4031 23.332 19C23.332 19.7684 22.826 20.3745 22.2475 20.8107C21.649 21.2619 20.8265 21.6476 19.8658 21.9633C17.936 22.5975 15.2915 23 12.332 23C9.37323 23 6.72878 22.6008 4.79881 21.9682C3.83804 21.6533 3.01503 21.2679 2.41616 20.8157C1.83608 20.3777 1.33203 19.77 1.33203 19V18.9782L1.3333 18.9564C1.36775 18.3647 1.68354 17.8682 2.09242 17.477C2.50159 17.0855 3.05327 16.7494 3.69061 16.4625C4.96803 15.8876 6.72523 15.4505 8.77628 15.2056L9.52098 15.1166L9.69883 16.6061L8.95413 16.695C6.99243 16.9293 5.39748 17.3392 4.30625 17.8304C3.75925 18.0765 3.37247 18.3282 3.12939 18.5608C2.90705 18.7735 2.84591 18.9286 2.83317 19.0195C2.84269 19.106 2.91877 19.3156 3.32006 19.6186C3.73697 19.9334 4.38915 20.2554 5.26601 20.5428C7.01128 21.1149 9.49188 21.5 12.332 21.5C15.1716 21.5 17.652 21.1119 19.3975 20.5383C20.2744 20.2501 20.9271 19.9276 21.3444 19.613C21.7817 19.2834 21.832 19.066 21.832 19C21.832 18.9507 21.8072 18.8093 21.5743 18.5805C21.3433 18.3536 20.965 18.1011 20.4203 17.851C19.3351 17.3528 17.7288 16.9272 15.738 16.6927L14.9932 16.6049L15.1687 15.1152Z" fill="white"/>
<path fill-rule="evenodd" clip-rule="evenodd" d="M12.332 1C9.29448 1 6.83203 3.46244 6.83203 6.5C6.83203 8.8492 8.30453 10.8533 10.3758 11.6418L11.3925 19.5H13.2715L14.2882 11.6418C16.3595 10.8533 17.832 8.8492 17.832 6.5C17.832 3.46244 15.3696 1 12.332 1ZM10.582 6.5C10.582 5.5335 11.3655 4.75 12.332 4.75H13.082V3.25H12.332C10.5371 3.25 9.08203 4.70508 9.08203 6.5V7.25H10.582V6.5Z" fill="white"/>
</svg>
