<svg width="48" height="48" viewBox="0 0 48 48" fill="none" xmlns="http://www.w3.org/2000/svg">
<path d="M24 46.0008C24.2651 46.0007 24.5195 45.8954 24.707 45.7078C25.372 45.0428 41 29.2858 41 18.0008C41.0219 15.7622 40.5971 13.5418 39.7505 11.4694C38.904 9.39692 37.6526 7.51413 36.0696 5.93115C34.4866 4.34817 32.6038 3.09679 30.5314 2.25022C28.459 1.40365 26.2385 0.978892 24 1.00081C21.7614 0.978892 19.5409 1.40365 17.4685 2.25022C15.3961 3.09679 13.5133 4.34817 11.9303 5.93115C10.3473 7.51413 9.09593 9.39692 8.24936 11.4694C7.40279 13.5418 6.97804 15.7622 6.99995 18.0008C6.99995 29.2858 22.628 45.0428 23.293 45.7078C23.4804 45.8954 23.7348 46.0007 24 46.0008ZM24 8.00081C25.0728 8.0132 26.0968 8.4511 26.8469 9.21824C27.5969 9.98538 28.0117 11.019 28 12.0918C28 14.3508 26.209 17.0008 24 17.0008C21.791 17.0008 20 14.3508 20 12.0918C19.9882 11.019 20.403 9.98538 21.153 9.21824C21.9031 8.4511 22.9271 8.0132 24 8.00081ZM16 24.0008V22.8698C15.9983 22.2636 16.1809 21.6711 16.5236 21.1711C16.8663 20.671 17.3529 20.287 17.919 20.0698C21.8438 18.6414 26.1472 18.646 30.069 20.0828C30.6374 20.2986 31.1267 20.6824 31.4717 21.1831C31.8167 21.6838 32.0009 22.2778 32 22.8858V24.0008C32 24.266 31.8946 24.5204 31.7071 24.7079C31.5195 24.8955 31.2652 25.0008 31 25.0008H17C16.7347 25.0008 16.4804 24.8955 16.2928 24.7079C16.1053 24.5204 16 24.266 16 24.0008Z" fill="white"/>
</svg>
