<svg width="25" height="24" viewBox="0 0 25 24" fill="none" xmlns="http://www.w3.org/2000/svg">
<path d="M10.2656 20.3998V10.7998" stroke="white" stroke-width="2" stroke-linecap="round" stroke-linejoin="round"/>
<path d="M5.46484 20.3998V10.7998" stroke="white" stroke-width="2" stroke-linecap="round" stroke-linejoin="round"/>
<path d="M15.0664 20.3998V10.7998" stroke="white" stroke-width="2" stroke-linecap="round" stroke-linejoin="round"/>
<path d="M19.8652 20.3998V10.7998" stroke="white" stroke-width="2" stroke-linecap="round" stroke-linejoin="round"/>
<path d="M21.0656 20.4004H4.26562" stroke="white" stroke-width="2" stroke-linecap="round" stroke-linejoin="round"/>
<path d="M4.26562 8.40016L12.0703 3.94036C12.4392 3.72952 12.8921 3.72952 13.2611 3.94036L21.0657 8.40016V10.8002H4.26562V8.40016Z" stroke="white" stroke-width="2" stroke-linecap="round" stroke-linejoin="round"/>
<path d="M13.2609 3.94036C12.8921 3.72952 12.4391 3.72952 12.0702 3.94036L4.26562 8.40016V10.8002H21.0656V8.40016L13.2609 3.94036ZM12.6655 9.00016C11.837 9.00016 11.1655 8.32864 11.1655 7.50016C11.1655 6.67168 11.837 6.00016 12.6655 6.00016C13.494 6.00016 14.1655 6.67168 14.1655 7.50016C14.1655 8.32864 13.494 9.00016 12.6655 9.00016Z" fill="white"/>
</svg>
