<svg width="48" height="49" viewBox="0 0 48 49" fill="none" xmlns="http://www.w3.org/2000/svg">
<rect y="0.5" width="48" height="48" rx="4" fill="white" fill-opacity="0.1"/>
<path fill-rule="evenodd" clip-rule="evenodd" d="M11.334 24.168V29.1376C11.334 29.3412 11.5611 29.8522 12.7004 30.37C13.7494 30.8469 15.2689 31.168 17.0007 31.168C18.7325 31.168 20.2519 30.8469 21.3009 30.37C22.4402 29.8522 22.6673 29.3412 22.6673 29.1376V24.168H24.6673V29.1376C24.6673 30.6078 23.4021 31.6119 22.1285 32.1908C20.7646 32.8107 18.9507 33.168 17.0007 33.168C15.0506 33.168 13.2367 32.8107 11.8728 32.1908C10.5992 31.6119 9.33398 30.6078 9.33398 29.1376V24.168H11.334Z" fill="white"/>
<path fill-rule="evenodd" clip-rule="evenodd" d="M25.334 29.5V33.803C25.334 34.0065 25.5611 34.5175 26.7004 35.0354C27.7495 35.5123 29.2689 35.8333 31.0007 35.8333C32.7325 35.8333 34.2519 35.5123 35.3009 35.0354C36.4402 34.5175 36.6673 34.0065 36.6673 33.803V29.5H38.6673V33.803C38.6673 35.2731 37.4021 36.2773 36.1285 36.8561C34.7646 37.4761 32.9507 37.8333 31.0007 37.8333C29.0506 37.8333 27.2367 37.4761 25.8728 36.8561C24.5993 36.2773 23.334 35.2731 23.334 33.803V29.5H25.334Z" fill="white"/>
<path fill-rule="evenodd" clip-rule="evenodd" d="M11.334 29.5V33.803C11.334 34.0065 11.5611 34.5175 12.7004 35.0354C13.7494 35.5123 15.2689 35.8333 17.0007 35.8333C18.7325 35.8333 20.2519 35.5123 21.3009 35.0354C22.4402 34.5175 22.6673 34.0065 22.6673 33.803V29.5H24.6673V33.803C24.6673 35.2731 23.4021 36.2773 22.1285 36.8561C20.7646 37.4761 18.9507 37.8333 17.0007 37.8333C15.0506 37.8333 13.2367 37.4761 11.8728 36.8561C10.5992 36.2773 9.33398 35.2731 9.33398 33.803V29.5H11.334Z" fill="white"/>
<path fill-rule="evenodd" clip-rule="evenodd" d="M25.7643 26.209C27.1389 25.5545 28.991 25.168 31.0007 25.168C33.0103 25.168 34.8624 25.5545 36.2371 26.209C37.5619 26.8399 38.6673 27.8418 38.6673 29.168C38.6673 30.4942 37.5619 31.496 36.2371 32.1269C34.8624 32.7814 33.0103 33.168 31.0007 33.168C28.991 33.168 27.1389 32.7814 25.7643 32.1269C24.4394 31.496 23.334 30.4942 23.334 29.168C23.334 27.8418 24.4394 26.8399 25.7643 26.209ZM28.6673 28.168V30.168H33.334V28.168H28.6673Z" fill="white"/>
<path fill-rule="evenodd" clip-rule="evenodd" d="M11.7643 21.5411C13.1389 20.8865 14.991 20.5 17.0007 20.5C19.0103 20.5 20.8625 20.8865 22.2371 21.5411C23.5619 22.1719 24.6673 23.1738 24.6673 24.5C24.6673 25.8262 23.5619 26.8281 22.2371 27.4589C20.8625 28.1135 19.0103 28.5 17.0007 28.5C14.991 28.5 13.1389 28.1135 11.7643 27.4589C10.4394 26.8281 9.33398 25.8262 9.33398 24.5C9.33398 23.1738 10.4394 22.1719 11.7643 21.5411ZM14.6673 23.5V25.5H19.334V23.5H14.6673Z" fill="white"/>
<path fill-rule="evenodd" clip-rule="evenodd" d="M31.0007 14.168H21.334V16.168H31.0007V14.168Z" fill="white"/>
<path fill-rule="evenodd" clip-rule="evenodd" d="M24.6667 14.168H24H22V18.5013H26.6667V14.168H24.6667Z" fill="white"/>
<path fill-rule="evenodd" clip-rule="evenodd" d="M34.0007 10.5C36.578 10.5 38.6673 12.5893 38.6673 15.1667C38.6673 17.744 36.578 19.8333 34.0007 19.8333C31.4233 19.8333 29.334 17.744 29.334 15.1667C29.334 12.5893 31.4233 10.5 34.0007 10.5ZM33.0007 15.1667C33.0007 16.0871 33.7469 16.8333 34.6673 16.8333C35.5878 16.8333 36.334 16.0871 36.334 15.1667C36.334 14.2462 35.5878 13.5 34.6673 13.5C33.7469 13.5 33.0007 14.2462 33.0007 15.1667Z" fill="white"/>
</svg>
