<svg width="24" height="24" viewBox="0 0 24 24" fill="none" xmlns="http://www.w3.org/2000/svg">
<path d="M16.5 17.5335V11.5334C14.8431 11.5334 13.5 12.8766 13.5 14.5334V16.0334L12.7564 17.025C12.2654 17.6796 12 18.4758 12 19.294C12 20.3981 12.4824 21.4469 13.3206 22.1654L13.75 22.5334H19.7543L21.6052 17.0552C21.8947 16.042 21.8567 14.9632 21.4966 13.9729L19.2539 5.42818C19.1043 4.85831 18.5892 4.4608 18 4.46094V10.9999C18 10.9999 16.6729 16.1502 16.5 17.5335Z" fill="white"/>
<path fill-rule="evenodd" clip-rule="evenodd" d="M11 22H22V24H11V22Z" fill="white"/>
<path fill-rule="evenodd" clip-rule="evenodd" d="M16 9.55822C13.4733 9.80908 11.5 11.9409 11.5 14.5335V15.3669L11.1564 15.8251C10.4058 16.8259 10 18.0431 10 19.2942C10 19.5315 10.0146 19.7672 10.0432 20H3V1.95106e-06L16 0V9.55822ZM6.5 10C6.5 8.34315 7.84315 7 9.5 7C11.1569 7 12.5 8.34315 12.5 10C12.5 11.6569 11.1569 13 9.5 13C7.84315 13 6.5 11.6569 6.5 10ZM7 15.5V18H5V15.5H7ZM14 4.5H12V2H14V4.5Z" fill="white"/>
</svg>
