<svg width="25" height="24" viewBox="0 0 25 24" fill="none" xmlns="http://www.w3.org/2000/svg">
<g clip-path="url(#clip0_4472_26724)">
<path d="M13.3888 12.1113L7.83203 11V6.5C7.83203 5.67157 7.16046 5 6.33203 5C5.5036 5 4.83203 5.67157 4.83203 6.5V15C4.83203 15.2761 4.60816 15.5 4.33203 15.5C4.05591 15.5 3.83203 15.2761 3.83203 15V13H2.83203C2.27976 13 1.83203 13.4477 1.83203 14V18C1.83203 19.75 4.33203 21.0312 4.33203 23H13.332L14.9612 14.4467C15.1666 13.3687 14.4649 12.3266 13.3888 12.1113Z" fill="white"/>
<path d="M3.83203 10.901V6.5C3.83203 5.12158 4.95361 4 6.33203 4C7.71045 4 8.83203 5.12158 8.83203 6.5V10.1802L9.69559 10.3529C11.0178 9.33493 11.832 7.74936 11.832 6C11.832 2.96728 9.36475 0.5 6.33203 0.5C3.29932 0.5 0.832031 2.96728 0.832031 6C0.832031 8.10437 2.0069 9.97546 3.83203 10.901Z" fill="white"/>
<path d="M18.832 0.5C16.075 0.5 13.832 2.74292 13.832 5.5C13.832 8.25708 16.075 10.5 18.832 10.5C21.5891 10.5 23.832 8.25708 23.832 5.5C23.832 2.74292 21.5891 0.5 18.832 0.5ZM20.832 6H18.832C18.5559 6 18.332 5.77613 18.332 5.5V3.5C18.332 3.22387 18.5559 3 18.832 3C19.1082 3 19.332 3.22387 19.332 3.5V5H20.832C21.1082 5 21.332 5.22387 21.332 5.5C21.332 5.77613 21.1082 6 20.832 6Z" fill="white"/>
</g>
<defs>
<clipPath id="clip0_4472_26724">
<rect width="24" height="24" fill="white" transform="translate(0.332031)"/>
</clipPath>
</defs>
</svg>
