<svg width="48" height="43" viewBox="0 0 48 43" fill="none" xmlns="http://www.w3.org/2000/svg">
<path fill-rule="evenodd" clip-rule="evenodd" d="M26 0.986328V42.9863H22V0.986328H26Z" fill="white"/>
<path fill-rule="evenodd" clip-rule="evenodd" d="M12 38.9863H36V42.9863H12V38.9863Z" fill="white"/>
<path fill-rule="evenodd" clip-rule="evenodd" d="M8.72702 6.98633H39.273L48 23.1475C48 28.6677 43.646 32.9863 38.08 32.9863C32.5176 32.9863 28.16 28.6707 28.16 23.1519L34.6632 10.9863H13.3369L19.84 23.1519C19.84 28.6707 15.4824 32.9863 9.92 32.9863C4.35396 32.9863 0 28.6677 0 23.1475L8.72702 6.98633ZM9.95126 13.1376L4.63298 22.9863H15.2158L9.95126 13.1376ZM32.7842 22.9863H43.367L38.0488 13.1376L32.7842 22.9863Z" fill="white"/>
</svg>
