<svg width="48" height="49" viewBox="0 0 48 49" fill="none" xmlns="http://www.w3.org/2000/svg">
<rect y="0.5" width="48" height="48" rx="4" fill="white" fill-opacity="0.1"/>
<path fill-rule="evenodd" clip-rule="evenodd" d="M33.8724 14.569C31.2534 11.946 27.7694 10.502 24.0584 10.5C16.4104 10.5 10.1854 16.724 10.1834 24.374C10.1824 26.82 10.8214 29.207 12.0354 31.31L10.0664 38.5L17.4214 36.571C19.4474 37.677 21.7294 38.259 24.0514 38.26H24.0574C31.7044 38.26 37.9294 32.036 37.9314 24.386C37.9324 20.678 36.4914 17.193 33.8714 14.571L33.8724 14.569ZM24.0584 35.916H24.0534C21.9844 35.916 19.9544 35.359 18.1834 34.309L17.7624 34.059L13.3974 35.204L14.5624 30.948L14.2884 30.512C13.1344 28.676 12.5244 26.554 12.5254 24.375C12.5284 18.017 17.7014 12.844 24.0624 12.844C27.1424 12.845 30.0374 14.046 32.2154 16.226C34.3924 18.405 35.5914 21.303 35.5894 24.384C35.5864 30.743 30.4144 35.916 24.0584 35.916ZM30.3834 27.28C30.0364 27.106 28.3324 26.268 28.0144 26.152C27.6964 26.036 27.4654 25.978 27.2344 26.326C27.0034 26.673 26.3394 27.454 26.1364 27.685C25.9344 27.917 25.7314 27.945 25.3854 27.771C25.0384 27.597 23.9214 27.231 22.5974 26.051C21.5674 25.132 20.8714 23.997 20.6684 23.649C20.4664 23.302 20.6474 23.114 20.8204 22.942C20.9764 22.786 21.1674 22.537 21.3404 22.335C21.5144 22.133 21.5714 21.988 21.6874 21.757C21.8034 21.525 21.7454 21.323 21.6584 21.15C21.5714 20.976 20.8784 19.27 20.5894 18.576C20.3084 17.9 20.0224 17.992 19.8094 17.981C19.6074 17.971 19.3764 17.969 19.1444 17.969C18.9124 17.969 18.5374 18.055 18.2194 18.403C17.9014 18.75 17.0064 19.589 17.0064 21.295C17.0064 23.001 18.2484 24.65 18.4224 24.882C18.5964 25.114 20.8674 28.615 24.3444 30.117C25.1714 30.474 25.8174 30.688 26.3214 30.847C27.1514 31.111 27.9074 31.074 28.5044 30.985C29.1704 30.885 30.5554 30.146 30.8444 29.336C31.1334 28.526 31.1334 27.832 31.0464 27.687C30.9594 27.542 30.7284 27.455 30.3814 27.282L30.3834 27.28Z" fill="white"/>
</svg>
