<svg width="41" height="40" viewBox="0 0 41 40" fill="none" xmlns="http://www.w3.org/2000/svg">
<path fill-rule="evenodd" clip-rule="evenodd" d="M10 8.00098C10 3.5827 13.5817 0.000976562 18 0.000976562C22.4183 0.000976562 26 3.5827 26 8.00098C26 12.4193 22.4183 16.001 18 16.001C13.5817 16.001 10 12.4193 10 8.00098Z" fill="white"/>
<path d="M40.1497 26.001H21.1547L15.4156 37.001H8V40.001H32.8453L40.1497 26.001Z" fill="white"/>
<path d="M18 19.001C8.1172 19.001 0 26.5733 0 36.0385V36.7933L0.73105 36.9657C2.15392 37.3012 3.57692 37.5952 5 37.8477V37.001C5 35.3441 6.3431 34.001 8 34.001H13.597L18.4949 24.6133C19.0119 23.6224 20.037 23.001 21.1547 23.001H29.5874C26.4482 20.5013 22.399 19.001 18 19.001Z" fill="white"/>
</svg>
