<svg width="226" height="110" viewBox="0 0 226 110" fill="none" xmlns="http://www.w3.org/2000/svg">
<g filter="url(#filter0_ddd_3550_126017)">
<rect x="7" y="5" width="212" height="96" rx="8" fill="url(#paint0_linear_3550_126017)" fill-opacity="0.1" shape-rendering="crispEdges"/>
<rect x="7.5" y="5.5" width="211" height="95" rx="7.5" stroke="url(#paint1_linear_3550_126017)" stroke-opacity="0.1" shape-rendering="crispEdges"/>
<g clip-path="url(#clip0_3550_126017)">
<path fill-rule="evenodd" clip-rule="evenodd" d="M52.158 73.7975C52.7732 73.8358 53.0808 74.2188 53.0808 74.8699C53.0808 75.521 52.7732 75.8274 52.158 75.904V77.053C53.7344 76.9764 54.5034 76.1721 54.5034 74.8699C54.5034 73.5293 53.7729 72.725 52.158 72.6484V73.7975ZM51.2352 73.7975H52.0426C52.0811 73.7975 52.1195 73.7975 52.1964 73.7975V72.6484C52.1195 72.6484 52.0042 72.6484 51.9273 72.6484H49.8125V80.0787H51.1967V77.0913H51.8504C51.9273 77.0913 52.0426 77.0913 52.1195 77.0913V75.9423C52.0811 75.9423 52.0426 75.9423 51.9657 75.9423H51.2352V73.7975Z" fill="white"/>
<path fill-rule="evenodd" clip-rule="evenodd" d="M59.5408 73.7971C60.156 73.7971 60.4636 74.0269 60.4636 74.8312V77.857C60.4636 78.6996 60.156 78.9294 59.5408 78.9294V80.1933C60.925 80.1933 61.9247 79.5422 61.9247 77.7038V75.061C61.9247 73.2609 60.9634 72.6098 59.5408 72.6098V73.7971ZM58.618 74.8312C58.618 73.9886 59.0025 73.7971 59.5408 73.7971V72.5332C58.195 72.5332 57.1953 73.1843 57.1953 74.9844V77.6272C57.1953 79.4656 58.1566 80.1167 59.5408 80.1167V78.8528C58.964 78.8528 58.618 78.623 58.618 77.7804V74.8312Z" fill="white"/>
<path fill-rule="evenodd" clip-rule="evenodd" d="M66.0765 80.0787H67.4222L68.6142 74.9848L69.6139 80.0787H71.0365L72.6514 72.6484H71.3441L70.306 77.4743L69.2678 72.6484H67.8836L66.8839 77.4743L65.8458 72.6484H64.5L66.0765 80.0787Z" fill="white"/>
<path fill-rule="evenodd" clip-rule="evenodd" d="M79.4207 80.0787V78.8148H76.8445V76.8615H78.7286V75.6359H76.8445V73.9124H79.3053V72.6484H75.4219V80.0787H79.4207Z" fill="white"/>
<path fill-rule="evenodd" clip-rule="evenodd" d="M84.7289 73.7974C85.3056 73.8358 85.6132 74.1805 85.6132 74.8316C85.6132 75.521 85.3056 75.7891 84.7289 75.8657V77.5509L85.8055 80.117H87.3435L85.9593 76.8232C86.7667 76.5168 87.0743 75.8657 87.0743 74.9082C87.0743 73.5677 86.3438 72.7633 84.8058 72.6867V73.8358H84.7289V73.7974ZM83.883 73.7974H84.6135C84.652 73.7974 84.6904 73.7974 84.7673 73.7974V72.6484C84.6904 72.6484 84.6135 72.6484 84.5366 72.6484H82.4219V80.0787H83.883V77.053H84.5366L84.7289 77.5126V75.8274C84.6904 75.8274 84.652 75.8274 84.5751 75.8274H83.8445V73.7974H83.883Z" fill="white"/>
<path fill-rule="evenodd" clip-rule="evenodd" d="M97.033 73.7971C97.6097 73.7971 97.9558 74.0269 97.9558 74.8312V77.857C97.9558 78.6996 97.5713 78.9294 97.033 78.9294V80.1933C98.4172 80.1933 99.4169 79.5422 99.4169 77.7038V75.061C99.4169 73.2609 98.4556 72.6098 97.033 72.6098V73.7971ZM96.1102 74.8312C96.1102 73.9886 96.4947 73.7971 97.033 73.7971V72.5332C95.6872 72.5332 94.6875 73.1843 94.6875 74.9844V77.6272C94.6875 79.4656 95.6488 80.1167 97.033 80.1167V78.8528C96.4562 78.8528 96.1102 78.623 96.1102 77.7804V74.8312Z" fill="white"/>
<path fill-rule="evenodd" clip-rule="evenodd" d="M103.836 80.0787V76.8615H105.605V75.6359H103.836V73.9124H106.105V72.6484H102.375V80.0787H103.836Z" fill="white"/>
<path fill-rule="evenodd" clip-rule="evenodd" d="M117.989 74.3724C117.758 73.3 116.951 72.5723 115.72 72.5723C114.221 72.5723 113.49 73.4149 113.49 74.6788C113.49 76.7853 116.72 76.7853 116.72 78.2024C116.72 78.7769 116.336 79.0833 115.874 79.0833C115.413 79.0833 114.913 78.7769 114.759 77.8577L113.375 78.1641C113.76 79.6578 114.644 80.2707 115.797 80.2707C117.297 80.2707 118.181 79.428 118.181 78.1258C118.181 75.7895 115.028 75.7129 115.028 74.6022C115.028 74.1043 115.259 73.7979 115.836 73.7979C116.297 73.7979 116.643 74.066 116.874 74.7554L117.989 74.3724Z" fill="white"/>
<path fill-rule="evenodd" clip-rule="evenodd" d="M122.406 80.0787V72.6484H120.945V80.0787H122.406Z" fill="white"/>
<path fill-rule="evenodd" clip-rule="evenodd" d="M126.527 80.0787V74.2188L128.027 80.0787H129.142L130.641 74.2188H130.68V80.0787H131.872V72.6484H129.872L128.565 77.5126L127.258 72.6484H125.297V80.0787H126.527Z" fill="white"/>
<path fill-rule="evenodd" clip-rule="evenodd" d="M137.016 73.7975C137.631 73.8358 137.939 74.2188 137.939 74.8699C137.939 75.521 137.631 75.8274 137.016 75.904V77.053C138.593 76.9764 139.362 76.1721 139.362 74.8699C139.362 73.5293 138.631 72.725 137.016 72.6484V73.7975ZM136.055 73.7975H136.785C136.824 73.7975 136.862 73.7975 136.939 73.7975V72.6484C136.862 72.6484 136.747 72.6484 136.632 72.6484H134.594V80.0787H135.978V77.0913H136.593C136.67 77.0913 136.785 77.0913 136.901 77.0913V75.9423C136.862 75.9423 136.824 75.9423 136.747 75.9423H136.016V73.7975H136.055Z" fill="white"/>
<path fill-rule="evenodd" clip-rule="evenodd" d="M145.402 80.0787V78.8148H143.095V72.6484H141.672V80.0787H145.402Z" fill="white"/>
<path fill-rule="evenodd" clip-rule="evenodd" d="M149.321 80.0787V72.6484H147.898V80.0787H149.321Z" fill="white"/>
<path fill-rule="evenodd" clip-rule="evenodd" d="M153.398 74.832C153.398 73.9894 153.782 73.7979 154.321 73.7979C154.898 73.7979 155.244 74.0277 155.244 74.832V75.0618H156.628V75.0235C156.628 73.2234 155.667 72.5723 154.244 72.5723C152.898 72.5723 151.898 73.2234 151.898 75.0235V77.6662C151.898 79.5046 152.86 80.1557 154.244 80.1557C155.628 80.1557 156.628 79.5046 156.628 77.6662V77.3981H155.282V77.8577C155.282 78.7003 154.898 78.9301 154.359 78.9301C153.782 78.9301 153.436 78.7003 153.436 77.8577V74.832H153.398Z" fill="white"/>
<path fill-rule="evenodd" clip-rule="evenodd" d="M161.281 80.0787V72.6484H159.82V80.0787H161.281Z" fill="white"/>
<path fill-rule="evenodd" clip-rule="evenodd" d="M163.859 72.6484V73.9124H165.513V80.0787H166.935V73.9124H168.589V72.6484H163.859Z" fill="white"/>
<path fill-rule="evenodd" clip-rule="evenodd" d="M172.203 72.6484H170.703L172.703 77.0913V80.0787H174.125V77.0913L176.201 72.6484H174.702L173.433 75.6742L172.203 72.6484Z" fill="white"/>
<path d="M79.534 28.9829C79.9185 29.3659 80.6106 30.3234 81.5334 29.9021C82.4946 29.4425 87.4547 28.9829 89.0696 28.7531C90.6845 28.5616 92.0687 28.7914 92.0687 28.7914C92.0687 28.7914 87.8008 34.6514 87.1471 35.6089C86.4166 36.5281 82.7638 41.7752 82.0717 42.8477C81.3796 43.9584 79.6493 46.8692 78.8419 48.3246C78.1113 49.78 79.3417 49.6651 79.3417 49.6651C79.3417 49.6651 82.2639 49.7417 82.9176 49.7417C83.5328 49.7034 83.6481 49.2821 83.725 49.0906C83.8788 48.8608 84.0326 48.248 84.6094 47.3288C85.1092 46.4096 86.3781 44.3031 87.7623 42.0051C89.1465 39.7453 90.7614 37.4856 91.9534 35.8004C93.2222 34.0769 94.6449 32.0852 94.9909 31.6256C95.2985 31.166 96.7212 29.2893 97.0288 28.868C97.3364 28.4084 97.4517 28.4467 97.9516 28.4084C98.1054 28.4084 98.5284 28.4084 99.0282 28.4467C100.336 28.485 102.412 28.6765 103.412 28.7531C104.873 28.9063 106.987 28.9446 108.295 29.0595C109.602 29.2127 109.218 28.4467 109.218 28.4467C109.218 28.4467 109.294 27.5658 108.948 26.6466C108.525 25.6891 108.218 25.804 108.218 25.804C106.718 25.3444 101.912 24.9997 99.0282 24.9231C98.2977 24.8848 97.6825 24.8848 97.298 24.8848H96.6827C94.0297 24.9231 87.4932 25.3061 86.0705 25.4593C84.5325 25.6125 79.534 26.57 78.6112 26.7232C77.7268 26.953 78.2267 27.5275 78.2267 27.5275C78.2267 27.5275 79.111 28.5616 79.534 28.9829Z" fill="white"/>
<path d="M149.821 57.5156C149.514 57.3624 145.477 55.9452 144.323 55.6005C143.093 55.2941 138.017 54.2217 137.364 54.1451C136.71 54.0685 138.286 52.5365 138.902 51.7322C139.517 51.0428 142.9 47.3659 144.092 46.2935C145.207 45.1828 148.13 42.5018 149.014 41.6592C149.86 40.8166 148.553 40.4336 148.553 40.4336C148.553 40.4336 148.13 40.2038 146.438 39.8208C144.708 39.3995 144.323 40.3187 144.323 40.3187C144.323 40.3187 141.939 42.5401 140.516 43.8806C139.055 45.2211 137.364 46.3318 136.172 46.9829C135.057 47.634 133.903 48.0936 133.403 47.7872C132.942 47.5191 133.403 46.8297 133.711 46.2169C134.018 45.5658 135.864 43.5359 136.325 42.9614C136.787 42.3869 138.902 40.1272 139.786 39.2463C140.632 38.327 139.132 37.9823 138.402 37.7908C137.71 37.6376 137.248 37.5227 136.479 37.5227C135.787 37.5227 135.518 38.0206 135.518 38.0206C135.518 38.0206 134.249 39.3229 133.903 39.7825C133.595 40.2421 130.135 44.0338 129.058 45.1828C127.943 46.3318 126.444 47.4425 126.021 47.5957C125.559 47.7489 124.675 47.9787 123.906 47.0212C123.137 46.0637 123.752 45.4892 124.752 44.1104C125.79 42.7699 128.405 39.7442 129.674 38.2504C130.981 36.795 135.826 32.8118 136.787 32.1224C137.71 31.433 137.171 31.2032 137.171 31.2032C137.171 31.2032 136.325 30.6287 135.826 30.4755C135.364 30.2457 134.557 30.0925 133.711 30.0925C132.903 30.0925 132.596 30.5521 132.596 30.5521C132.596 30.5521 129.904 32.7735 129.366 33.3097C128.866 33.7693 122.983 39.5144 121.907 40.6251C120.83 41.7358 117.754 44.4934 116.716 45.3743C115.639 46.2552 114.678 46.6765 114.101 46.2935C113.524 45.9105 113.717 45.2594 114.101 44.7232C114.409 44.1487 116.754 41.2762 117.6 40.3187C118.446 39.3612 120.984 36.6801 121.868 35.7609C122.753 34.8417 126.29 31.7777 127.29 30.8968C128.366 30.0542 127.059 29.5179 127.059 29.5179C127.059 29.5179 126.328 29.0583 125.06 28.8285C123.791 28.5604 123.56 28.8668 122.868 29.3264C122.137 29.786 117.446 34.6502 116.985 35.1864C116.524 35.646 110.833 41.3528 109.987 42.272C109.103 43.1146 106.219 45.719 105.604 46.0637C105.104 46.485 103.412 47.634 102.989 46.9063C102.489 46.2169 103.489 45.5658 103.489 45.5658C103.489 45.5658 105.988 43.1529 106.873 42.1188C107.757 41.0847 107.257 39.6293 107.103 39.2463C106.911 38.8249 106.219 37.7142 104.989 36.6801C103.72 35.646 102.489 35.6077 101.605 35.6077C100.874 35.646 99.7978 36.2971 98.9519 36.7184C98.7981 36.7567 98.6827 36.8716 98.5289 36.9099C97.7983 37.4461 95.2991 39.3612 95.2991 39.3612C95.2991 39.3612 93.2997 41.1613 92.0693 42.3869C90.9542 43.6125 90.0314 44.6083 91.2618 47.0595C92.5307 49.5108 94.8377 50.0853 95.8374 50.2002C96.7217 50.3534 97.9521 49.3576 98.3366 48.9746C98.6443 48.6682 98.7981 48.7065 99.0288 49.1278C99.0672 49.1661 99.1057 49.281 99.1826 49.3576C99.4902 49.9704 100.567 50.3917 101.566 50.5832C102.489 50.7364 102.912 50.5066 104.604 50.0087C106.296 49.5108 109.41 47.5957 109.949 47.1744C110.564 46.7148 110.602 47.4042 111.102 48.3235C111.602 49.2427 112.871 49.5874 113.947 49.7023C115.062 49.7789 115.562 49.5108 116.331 49.2044C117.023 48.898 118.946 47.9404 119.561 47.5191C120.138 47.1361 120.215 47.0978 120.445 47.7106C120.676 48.2852 120.715 48.7831 122.445 49.9321C124.137 51.1577 127.02 50.43 127.636 50.2385C128.328 50.0087 129.558 49.3576 129.866 49.1661C130.173 48.9746 130.443 49.4725 131.135 50.2002C131.788 50.8513 133.096 50.813 133.942 50.2768C134.787 49.7023 134.364 50.3151 134.364 50.3151C134.364 50.3151 133.096 52.0769 132.673 52.5365C132.288 52.9961 132.25 53.3408 131.827 53.2259C131.442 53.1493 130.096 53.0344 128.059 52.9195C126.021 52.7663 121.253 52.5365 117.792 52.4982C114.332 52.4599 105.181 52.9578 101.759 53.1493C101.028 53.1876 100.067 53.3025 98.9903 53.3791C95.0684 53.8004 89.6854 54.643 87.6091 54.9111C84.9944 55.3324 76.6892 57.0559 74.9974 57.5922C74.5744 57.7454 74.3822 57.8603 74.3438 58.0518V58.1284C74.4207 58.588 75.6511 59.0859 76.5354 59.5072C77.8043 60.12 79.0347 59.7753 79.0347 59.7753C79.0347 59.7753 81.5339 59.3157 82.8412 59.0859C84.1101 58.8178 93.4535 57.4007 95.7989 56.9793C96.4526 56.9027 97.5676 56.7495 98.9519 56.558C102.528 56.1367 107.603 55.6771 109.333 55.5239C111.756 55.3707 118.485 55.3707 120.369 55.3324C122.253 55.2941 128.751 55.6388 129.097 55.7154C129.404 55.792 130.443 55.6771 129.789 56.2133C129.174 56.8644 127.674 59.9285 127.29 60.6179C126.905 61.3456 127.059 61.3073 127.751 61.6903C128.405 62.0733 130.135 62.1499 130.558 62.1499C130.942 62.1499 131.058 61.6903 131.058 61.6903C131.058 61.6903 133.173 58.4731 133.865 57.4389C134.557 56.3282 134.98 56.5963 134.98 56.5963C134.98 56.5963 138.286 57.2092 139.747 57.4773C141.209 57.7454 146.592 59.1625 147.745 59.6604C148.899 60.1583 149.437 60.12 149.745 60.0434C150.052 59.8902 150.783 58.2816 150.783 58.2816V58.0135C150.744 57.8986 150.052 57.7071 149.821 57.5156ZM100.221 44.4551C99.9516 44.6849 99.4902 44.953 98.9903 45.2977C97.7599 46.1403 96.2988 47.0978 95.8374 47.251C95.1837 47.4425 94.7608 47.6723 94.3763 47.0978C93.9533 46.5233 95.1837 45.4126 95.1837 45.4126C95.1837 45.4126 97.4138 43.421 98.2598 42.655C98.452 42.5018 98.7212 42.272 98.9903 42.0805C100.105 41.1996 101.643 39.974 102.066 39.7442C102.566 39.4761 102.989 39.2463 103.451 39.7059C103.912 40.1655 103.527 40.6251 103.374 40.8549C103.297 41.123 101.22 43.7274 100.221 44.4551Z" fill="white"/>
<path d="M157.55 36.0352C158.204 36.0352 158.819 36.1884 159.396 36.4948C160.011 36.8012 160.472 37.2991 160.78 37.8736C161.087 38.4864 161.28 39.0992 161.28 39.712C161.28 40.3248 161.087 40.9759 160.78 41.5504C160.472 42.1632 159.972 42.6228 159.396 42.9292C158.78 43.2356 158.165 43.4271 157.55 43.4271C156.896 43.4271 156.281 43.2356 155.704 42.9292C155.089 42.6228 154.628 42.1249 154.32 41.5504C154.013 40.9376 153.82 40.3248 153.82 39.712C153.82 39.0992 154.013 38.4481 154.32 37.8736C154.628 37.2608 155.128 36.8012 155.704 36.4948C156.281 36.1501 156.896 36.0352 157.55 36.0352ZM157.55 36.648C157.05 36.648 156.512 36.8012 156.012 37.0693C155.512 37.3374 155.128 37.7204 154.858 38.2183C154.589 38.7162 154.436 39.2524 154.436 39.7886C154.436 40.3631 154.589 40.861 154.858 41.3206C155.128 41.8185 155.512 42.2015 156.012 42.4696C156.512 42.7377 157.05 42.8909 157.55 42.8909C158.127 42.8909 158.627 42.7377 159.088 42.4696C159.549 42.2015 159.972 41.8185 160.241 41.3206C160.511 40.861 160.664 40.2865 160.664 39.7886C160.664 39.2141 160.511 38.7162 160.241 38.2183C159.972 37.7204 159.588 37.3374 159.088 37.0693C158.588 36.7629 158.05 36.648 157.55 36.648ZM155.935 41.7802V37.797H157.319C157.781 37.797 158.127 37.8353 158.357 37.8736C158.588 37.9502 158.742 38.0651 158.857 38.2949C159.011 38.4864 159.05 38.6779 159.05 38.8694C159.05 39.1375 158.973 39.4439 158.742 39.5971C158.511 39.8269 158.281 39.9035 157.896 39.9801C158.05 40.0184 158.127 40.1333 158.204 40.2099C158.357 40.3631 158.588 40.6312 158.819 41.0142L159.28 41.8185H158.473L158.088 41.1674C157.819 40.7078 157.588 40.3631 157.396 40.2482C157.242 40.1716 157.127 40.095 156.896 40.095H156.512V41.8185H155.935V41.7802ZM156.589 39.5588H157.396C157.781 39.5588 158.05 39.5205 158.127 39.3673C158.281 39.2907 158.357 39.0992 158.357 38.9077C158.357 38.7545 158.319 38.6779 158.281 38.6013C158.242 38.5247 158.127 38.4481 158.011 38.3715C157.858 38.3332 157.704 38.3332 157.358 38.3332H156.627V39.5588H156.589Z" fill="white"/>
</g>
</g>
<defs>
<filter id="filter0_ddd_3550_126017" x="0" y="0" width="226" height="110" filterUnits="userSpaceOnUse" color-interpolation-filters="sRGB">
<feFlood flood-opacity="0" result="BackgroundImageFix"/>
<feColorMatrix in="SourceAlpha" type="matrix" values="0 0 0 0 0 0 0 0 0 0 0 0 0 0 0 0 0 0 127 0" result="hardAlpha"/>
<feMorphology radius="1" operator="dilate" in="SourceAlpha" result="effect1_dropShadow_3550_126017"/>
<feOffset/>
<feComposite in2="hardAlpha" operator="out"/>
<feColorMatrix type="matrix" values="0 0 0 0 0.0627451 0 0 0 0 0.0980392 0 0 0 0 0.156863 0 0 0 0.05 0"/>
<feBlend mode="normal" in2="BackgroundImageFix" result="effect1_dropShadow_3550_126017"/>
<feColorMatrix in="SourceAlpha" type="matrix" values="0 0 0 0 0 0 0 0 0 0 0 0 0 0 0 0 0 0 127 0" result="hardAlpha"/>
<feOffset dy="2"/>
<feGaussianBlur stdDeviation="3.5"/>
<feComposite in2="hardAlpha" operator="out"/>
<feColorMatrix type="matrix" values="0 0 0 0 0.0627451 0 0 0 0 0.0980392 0 0 0 0 0.156863 0 0 0 0.05 0"/>
<feBlend mode="normal" in2="effect1_dropShadow_3550_126017" result="effect2_dropShadow_3550_126017"/>
<feColorMatrix in="SourceAlpha" type="matrix" values="0 0 0 0 0 0 0 0 0 0 0 0 0 0 0 0 0 0 127 0" result="hardAlpha"/>
<feMorphology radius="2" operator="erode" in="SourceAlpha" result="effect3_dropShadow_3550_126017"/>
<feOffset dy="2"/>
<feGaussianBlur stdDeviation="2.5"/>
<feComposite in2="hardAlpha" operator="out"/>
<feColorMatrix type="matrix" values="0 0 0 0 0.0627451 0 0 0 0 0.0980392 0 0 0 0 0.156863 0 0 0 0.06 0"/>
<feBlend mode="normal" in2="effect2_dropShadow_3550_126017" result="effect3_dropShadow_3550_126017"/>
<feBlend mode="normal" in="SourceGraphic" in2="effect3_dropShadow_3550_126017" result="shape"/>
</filter>
<linearGradient id="paint0_linear_3550_126017" x1="-45.2639" y1="-32.3012" x2="180.57" y2="160.906" gradientUnits="userSpaceOnUse">
<stop stop-color="white"/>
<stop offset="1" stop-color="white" stop-opacity="0"/>
</linearGradient>
<linearGradient id="paint1_linear_3550_126017" x1="-228.556" y1="-101.41" x2="160.717" y2="178.118" gradientUnits="userSpaceOnUse">
<stop stop-color="white"/>
<stop offset="1" stop-color="white" stop-opacity="0"/>
</linearGradient>
<clipPath id="clip0_3550_126017">
<rect width="130" height="56" fill="white" transform="translate(48 25)"/>
</clipPath>
</defs>
</svg>
