<svg width="24" height="24" viewBox="0 0 24 24" fill="none" xmlns="http://www.w3.org/2000/svg">
<path d="M16 7C16 6.73478 16.1054 6.48043 16.2929 6.29289C16.4804 6.10536 16.7348 6 17 6C17.2652 6 17.5196 6.10536 17.7071 6.29289C17.8946 6.48043 18 6.73478 18 7C18 7.26522 17.8946 7.51957 17.7071 7.70711C17.5196 7.89464 17.2652 8 17 8C16.7348 8 16.4804 7.89464 16.2929 7.70711C16.1054 7.51957 16 7.26522 16 7Z" fill="white"/>
<path fill-rule="evenodd" clip-rule="evenodd" d="M12 7.25C10.7402 7.25 9.53204 7.75045 8.64124 8.64124C7.75045 9.53204 7.25 10.7402 7.25 12C7.25 13.2598 7.75045 14.468 8.64124 15.3588C9.53204 16.2496 10.7402 16.75 12 16.75C13.2598 16.75 14.468 16.2496 15.3588 15.3588C16.2496 14.468 16.75 13.2598 16.75 12C16.75 10.7402 16.2496 9.53204 15.3588 8.64124C14.468 7.75045 13.2598 7.25 12 7.25ZM8.75 12C8.75 11.138 9.09241 10.3114 9.7019 9.7019C10.3114 9.09241 11.138 8.75 12 8.75C12.862 8.75 13.6886 9.09241 14.2981 9.7019C14.9076 10.3114 15.25 11.138 15.25 12C15.25 12.862 14.9076 13.6886 14.2981 14.2981C13.6886 14.9076 12.862 15.25 12 15.25C11.138 15.25 10.3114 14.9076 9.7019 14.2981C9.09241 13.6886 8.75 12.862 8.75 12Z" fill="white"/>
<path fill-rule="evenodd" clip-rule="evenodd" d="M17.2585 2.83743C13.7639 2.45002 10.2372 2.45002 6.74254 2.83743C4.73054 3.06243 3.10554 4.64743 2.86954 6.66943C2.45494 10.214 2.45494 13.7948 2.86954 17.3394C3.10554 19.3614 4.72954 20.9464 6.74254 21.1714C10.2372 21.5584 13.7639 21.5584 17.2585 21.1714C19.2705 20.9464 20.8955 19.3614 21.1315 17.3394C21.5462 13.7948 21.5462 10.214 21.1315 6.66943C20.8955 4.64743 19.2715 3.06243 17.2585 2.83743ZM6.90854 4.32743C10.2928 3.9523 13.7082 3.9523 17.0925 4.32743C18.4225 4.47743 19.4875 5.52643 19.6425 6.84443C20.0435 10.2727 20.0435 13.7361 19.6425 17.1644C19.5624 17.8095 19.2671 18.4086 18.8044 18.8652C18.3417 19.3217 17.7386 19.6089 17.0925 19.6804C13.7082 20.0556 10.2928 20.0556 6.90854 19.6804C6.26248 19.6089 5.6594 19.3217 5.1967 18.8652C4.734 18.4086 4.43872 17.8095 4.35854 17.1644C3.95759 13.7361 3.95759 10.2727 4.35854 6.84443C4.43872 6.19939 4.734 5.60021 5.1967 5.14368C5.6594 4.68715 6.26248 4.39894 6.90854 4.32743Z" fill="white"/>
</svg>
