<svg width="26" height="23" viewBox="0 0 26 23" fill="none" xmlns="http://www.w3.org/2000/svg">
<path d="M9.25706 6.09015L6.24534 7.15642C6.14937 7.1904 6.1109 7.30641 6.16733 7.39169C6.20425 7.4475 6.27228 7.47352 6.33666 7.45645L9.5166 6.61321L13.0384 5.93726C13.1063 5.92423 13.1599 5.87177 13.1749 5.80381L14.1884 1.20823H13.1502L14.2749 0.249286V0.162109H12.0255V0.336463L12.4581 0.859526L11.5264 5.12678C11.514 5.18397 11.4738 5.23103 11.4196 5.25205L9.25706 6.09015Z" fill="white"/>
<path d="M15.1401 0.162109H16.7838L15.5726 4.52096L18.5141 4.25943L22.4073 4.17225C22.4073 4.17225 21.5395 4.84475 21.1096 5.39273C20.743 5.85992 20.5124 6.13361 20.3309 6.70039C20.1232 7.3492 20.2444 7.92087 20.2444 8.44393C20.2444 8.79264 20.1579 9.14135 19.6388 9.3157C19.15 9.4799 8.53266 8.63896 7.29759 8.54045C7.22949 8.53502 7.18071 8.47805 7.18071 8.40921C7.18071 8.3334 7.24227 8.27307 7.3174 8.27729C11.6105 8.51795 18.0682 8.73996 19.3953 8.78453C19.5156 8.78857 19.5998 8.67034 19.5666 8.55373C19.4932 8.29523 19.3888 7.87896 19.3793 7.57216C19.3793 7.57216 19.3194 6.98281 19.3793 6.61321C19.4259 6.32502 19.6448 5.8959 19.806 5.60869C19.8766 5.48298 19.7788 5.32362 19.6359 5.33613L14.247 5.80832C14.1316 5.81844 14.0391 5.71354 14.0626 5.59919L14.967 1.20823H15.9187L15.1401 0.249286V0.162109Z" fill="white"/>
<path d="M3.61471 20.6808V20.8565H3.16206V22.1307H2.96066V20.8565H2.50801V20.6808H3.61471Z" fill="white"/>
<path d="M4.53127 21.524C4.55342 21.5519 4.5811 21.5888 4.61432 21.6349C4.64893 21.6795 4.68423 21.7297 4.72022 21.7855C4.75621 21.8399 4.79151 21.8971 4.82611 21.9571C4.8621 22.017 4.89255 22.0749 4.91747 22.1307H4.69738C4.66969 22.0777 4.63924 22.024 4.60602 21.9696C4.57418 21.9152 4.54165 21.8636 4.50843 21.8148C4.47521 21.7646 4.44199 21.7179 4.40876 21.6746C4.37693 21.6314 4.34786 21.5937 4.32156 21.5616C4.30356 21.563 4.28488 21.5637 4.2655 21.5637C4.2475 21.5637 4.22881 21.5637 4.20943 21.5637H4.02879V22.1307H3.82739V20.7017C3.88414 20.6878 3.94712 20.6787 4.01633 20.6745C4.08693 20.6689 4.1513 20.6662 4.20943 20.6662C4.41153 20.6662 4.56518 20.7045 4.67038 20.7812C4.77697 20.8579 4.83026 20.9723 4.83026 21.1244C4.83026 21.2206 4.80466 21.3029 4.75344 21.3712C4.70361 21.4396 4.62955 21.4905 4.53127 21.524ZM4.22605 20.844C4.14022 20.844 4.07447 20.8461 4.02879 20.8503V21.3963H4.17206C4.24127 21.3963 4.30356 21.3929 4.35893 21.3859C4.4143 21.3789 4.46067 21.3657 4.49805 21.3461C4.53681 21.3266 4.56657 21.2994 4.58733 21.2645C4.60809 21.2283 4.61848 21.1808 4.61848 21.1223C4.61848 21.0679 4.60809 21.0225 4.58733 20.9863C4.56657 20.95 4.53819 20.9214 4.5022 20.9005C4.46759 20.8796 4.42607 20.8649 4.37762 20.8565C4.33056 20.8482 4.28003 20.844 4.22605 20.844Z" fill="white"/>
<path d="M6.15337 22.1307C6.12984 22.068 6.10769 22.0066 6.08693 21.9466C6.06616 21.8852 6.04471 21.8232 6.02256 21.7604H5.37058L5.23977 22.1307H5.03006C5.08543 21.9773 5.13734 21.8357 5.18579 21.706C5.23424 21.5749 5.2813 21.4507 5.32698 21.3336C5.37405 21.2164 5.42042 21.1048 5.4661 20.9988C5.51178 20.8914 5.55953 20.7854 5.60936 20.6808H5.79416C5.84399 20.7854 5.89175 20.8914 5.93743 20.9988C5.98311 21.1048 6.02879 21.2164 6.07447 21.3336C6.12153 21.4507 6.16929 21.5749 6.21774 21.706C6.26618 21.8357 6.31809 21.9773 6.37346 22.1307H6.15337ZM5.96442 21.593C5.92013 21.4717 5.87583 21.3545 5.83153 21.2415C5.78862 21.1271 5.74364 21.0176 5.69657 20.913C5.64812 21.0176 5.60175 21.1271 5.55746 21.2415C5.51454 21.3545 5.47163 21.4717 5.42872 21.593H5.96442Z" fill="white"/>
<path d="M7.75026 21.4047C7.75026 21.5303 7.73088 21.6397 7.69212 21.7332C7.65336 21.8253 7.59869 21.902 7.52809 21.9633C7.4575 22.0233 7.37306 22.0687 7.27478 22.0993C7.1765 22.1286 7.06853 22.1433 6.95087 22.1433C6.89273 22.1433 6.82836 22.1405 6.75777 22.1349C6.68855 22.1307 6.62557 22.1217 6.56882 22.1077V20.7017C6.62557 20.6878 6.68855 20.6787 6.75777 20.6745C6.82836 20.6689 6.89273 20.6662 6.95087 20.6662C7.06853 20.6662 7.1765 20.6815 7.27478 20.7122C7.37306 20.7415 7.4575 20.7868 7.52809 20.8482C7.59869 20.9082 7.65336 20.9849 7.69212 21.0783C7.73088 21.1704 7.75026 21.2792 7.75026 21.4047ZM6.96748 21.9654C7.1585 21.9654 7.30108 21.9166 7.3952 21.819C7.48933 21.7199 7.5364 21.5819 7.5364 21.4047C7.5364 21.2276 7.48933 21.0902 7.3952 20.9925C7.30108 20.8935 7.1585 20.844 6.96748 20.844C6.91072 20.844 6.86643 20.8447 6.83459 20.8461C6.80414 20.8475 6.78268 20.8489 6.77022 20.8503V21.9592C6.78268 21.9606 6.80414 21.962 6.83459 21.9633C6.86643 21.9647 6.91072 21.9654 6.96748 21.9654Z" fill="white"/>
<path d="M8.04903 20.6808H8.25043V22.1307H8.04903V20.6808Z" fill="white"/>
<path d="M9.59291 22.1307C9.56246 22.0791 9.52716 22.0212 9.48701 21.9571C9.44826 21.8929 9.40604 21.8267 9.36036 21.7583C9.31468 21.6886 9.26692 21.6181 9.21709 21.547C9.16864 21.4759 9.12019 21.4075 9.07174 21.3419C9.0233 21.275 8.97623 21.2122 8.93055 21.1536C8.88487 21.0951 8.84265 21.0435 8.80389 20.9988V22.1307H8.60664V20.6808H8.76652C8.83158 20.7505 8.90079 20.8321 8.97416 20.9256C9.0489 21.0176 9.12227 21.1132 9.19425 21.2122C9.26761 21.3099 9.33613 21.4061 9.39981 21.501C9.46487 21.5958 9.51954 21.6802 9.56384 21.7541V20.6808H9.76109V22.1307H9.59291Z" fill="white"/>
<path d="M10.9956 21.4173H11.197V22.0952C11.1804 22.1007 11.1561 22.107 11.1243 22.114C11.0938 22.121 11.0579 22.1279 11.0163 22.1349C10.9762 22.1419 10.9319 22.1475 10.8834 22.1516C10.835 22.1572 10.7859 22.16 10.736 22.16C10.635 22.16 10.5429 22.1433 10.4599 22.1098C10.3768 22.0763 10.3055 22.0275 10.246 21.9633C10.1865 21.8992 10.1401 21.8204 10.1069 21.7269C10.075 21.6335 10.0591 21.5261 10.0591 21.4047C10.0591 21.2834 10.0771 21.176 10.1131 21.0825C10.1505 20.9877 10.2003 20.9082 10.2626 20.844C10.3249 20.7798 10.3976 20.731 10.4806 20.6975C10.5651 20.6641 10.655 20.6473 10.7506 20.6473C10.8156 20.6473 10.8731 20.6515 10.9229 20.6599C10.9741 20.6682 11.0177 20.678 11.0537 20.6892C11.0897 20.7003 11.1188 20.7115 11.1409 20.7226C11.1644 20.7338 11.1804 20.7422 11.1887 20.7477L11.1243 20.9172C11.0842 20.8907 11.0309 20.8691 10.9644 20.8524C10.898 20.8342 10.8301 20.8252 10.7609 20.8252C10.6876 20.8252 10.6204 20.8384 10.5595 20.8649C10.5 20.8914 10.4488 20.9298 10.4059 20.98C10.3644 21.0302 10.3318 21.0916 10.3083 21.1641C10.2848 21.2352 10.273 21.3154 10.273 21.4047C10.273 21.4912 10.2827 21.57 10.3021 21.6411C10.3228 21.7123 10.3533 21.7736 10.3934 21.8253C10.4349 21.8755 10.4855 21.9145 10.545 21.9424C10.6059 21.9703 10.6772 21.9843 10.7589 21.9843C10.817 21.9843 10.8661 21.9815 10.9063 21.9759C10.9478 21.9689 10.9776 21.9626 10.9956 21.9571V21.4173Z" fill="white"/>
<path d="M11.9098 21.7458C11.9098 21.6914 11.9181 21.6432 11.9347 21.6014C11.9513 21.5581 11.9735 21.5198 12.0012 21.4863C12.0303 21.4514 12.0635 21.4215 12.1008 21.3963C12.1382 21.3698 12.177 21.3468 12.2171 21.3273C12.1147 21.2241 12.0635 21.1174 12.0635 21.0072C12.0635 20.9514 12.0725 20.9012 12.0905 20.8565C12.1098 20.8119 12.1355 20.7743 12.1673 20.7436C12.2005 20.7129 12.2393 20.6892 12.2836 20.6724C12.3292 20.6557 12.3791 20.6473 12.4331 20.6473C12.4884 20.6473 12.5376 20.6557 12.5805 20.6724C12.6248 20.6892 12.6615 20.7115 12.6905 20.7394C12.721 20.7673 12.7438 20.8008 12.759 20.8398C12.7743 20.8789 12.7819 20.92 12.7819 20.9633C12.7819 21.0121 12.7736 21.056 12.757 21.0951C12.7417 21.1341 12.7203 21.1697 12.6926 21.2018C12.6663 21.2338 12.6359 21.2631 12.6012 21.2896C12.5666 21.3161 12.53 21.3399 12.4912 21.3608L12.8276 21.706C12.8746 21.6181 12.9051 21.5205 12.9189 21.4131L13.0788 21.434C13.0733 21.4912 13.0587 21.554 13.0352 21.6223C13.0131 21.6893 12.9812 21.7562 12.9397 21.8232C12.9881 21.8762 13.0324 21.9285 13.0726 21.9801C13.1141 22.0317 13.148 22.0819 13.1743 22.1307H12.9708C12.9542 22.1028 12.9335 22.0742 12.9085 22.0449C12.885 22.0157 12.8601 21.9864 12.8338 21.9571C12.777 22.0143 12.7113 22.061 12.6365 22.0972C12.5618 22.1321 12.476 22.1496 12.3791 22.1496C12.2891 22.1496 12.2144 22.137 12.1548 22.1119C12.0953 22.0854 12.0469 22.0526 12.0095 22.0136C11.9735 21.9731 11.9479 21.9292 11.9327 21.8817C11.9174 21.8343 11.9098 21.789 11.9098 21.7458ZM12.1029 21.7416C12.1029 21.7667 12.1078 21.7939 12.1175 21.8232C12.1271 21.8525 12.1431 21.8797 12.1652 21.9048C12.1874 21.9285 12.2157 21.9487 12.2503 21.9654C12.2863 21.9808 12.3306 21.9885 12.3832 21.9885C12.4511 21.9885 12.5133 21.9759 12.5701 21.9508C12.6282 21.9257 12.6795 21.8901 12.7238 21.8441L12.3189 21.4319C12.2939 21.4445 12.2683 21.4591 12.242 21.4759C12.2171 21.4926 12.1943 21.5135 12.1735 21.5386C12.1528 21.5623 12.1355 21.5909 12.1216 21.6244C12.1092 21.6579 12.1029 21.6969 12.1029 21.7416ZM12.6075 20.9695C12.6075 20.9221 12.5916 20.8824 12.5597 20.8503C12.5293 20.8168 12.487 20.8001 12.4331 20.8001C12.3722 20.8001 12.3251 20.8189 12.2919 20.8565C12.26 20.8928 12.2441 20.9381 12.2441 20.9925C12.2441 21.0832 12.2912 21.1718 12.3853 21.2583C12.4158 21.2429 12.4441 21.2262 12.4704 21.208C12.4981 21.1899 12.5217 21.169 12.541 21.1453C12.5618 21.1216 12.5777 21.0958 12.5888 21.0679C12.6012 21.0386 12.6075 21.0058 12.6075 20.9695Z" fill="white"/>
<path d="M14.7222 21.955V22.1307H13.8563V20.6808H14.0577V21.955H14.7222Z" fill="white"/>
<path d="M14.7816 21.4047C14.7816 21.2806 14.7996 21.1711 14.8356 21.0762C14.873 20.9814 14.9228 20.9026 14.9851 20.8398C15.0488 20.7756 15.1221 20.7275 15.2052 20.6954C15.2896 20.6634 15.3789 20.6473 15.473 20.6473C15.5658 20.6473 15.653 20.6634 15.7347 20.6954C15.8177 20.7275 15.8904 20.7756 15.9527 20.8398C16.015 20.9026 16.0641 20.9814 16.1001 21.0762C16.1375 21.1711 16.1562 21.2806 16.1562 21.4047C16.1562 21.5289 16.1375 21.6383 16.1001 21.7332C16.0641 21.828 16.015 21.9076 15.9527 21.9717C15.8904 22.0345 15.8177 22.0819 15.7347 22.114C15.653 22.1461 15.5658 22.1621 15.473 22.1621C15.3789 22.1621 15.2896 22.1461 15.2052 22.114C15.1221 22.0819 15.0488 22.0345 14.9851 21.9717C14.9228 21.9076 14.873 21.828 14.8356 21.7332C14.7996 21.6383 14.7816 21.5289 14.7816 21.4047ZM14.9934 21.4047C14.9934 21.4926 15.0045 21.5728 15.0266 21.6453C15.0488 21.7165 15.0799 21.7771 15.1201 21.8274C15.1616 21.8776 15.2114 21.9166 15.2696 21.9445C15.3291 21.971 15.3955 21.9843 15.4689 21.9843C15.5422 21.9843 15.608 21.971 15.6661 21.9445C15.7243 21.9166 15.7734 21.8776 15.8136 21.8274C15.8551 21.7771 15.8869 21.7165 15.9091 21.6453C15.9312 21.5728 15.9423 21.4926 15.9423 21.4047C15.9423 21.3168 15.9312 21.2373 15.9091 21.1662C15.8869 21.0937 15.8551 21.0323 15.8136 20.9821C15.7734 20.9319 15.7243 20.8935 15.6661 20.867C15.608 20.8391 15.5422 20.8252 15.4689 20.8252C15.3955 20.8252 15.3291 20.8391 15.2696 20.867C15.2114 20.8935 15.1616 20.9319 15.1201 20.9821C15.0799 21.0323 15.0488 21.0937 15.0266 21.1662C15.0045 21.2373 14.9934 21.3168 14.9934 21.4047Z" fill="white"/>
<path d="M17.3341 21.4173H17.5355V22.0952C17.5189 22.1007 17.4947 22.107 17.4628 22.114C17.4324 22.121 17.3964 22.1279 17.3549 22.1349C17.3147 22.1419 17.2704 22.1475 17.222 22.1516C17.1735 22.1572 17.1244 22.16 17.0746 22.16C16.9735 22.16 16.8815 22.1433 16.7984 22.1098C16.7154 22.0763 16.6441 22.0275 16.5845 21.9633C16.525 21.8992 16.4787 21.8204 16.4454 21.7269C16.4136 21.6335 16.3977 21.5261 16.3977 21.4047C16.3977 21.2834 16.4157 21.176 16.4517 21.0825C16.489 20.9877 16.5389 20.9082 16.6012 20.844C16.6634 20.7798 16.7361 20.731 16.8192 20.6975C16.9036 20.6641 16.9936 20.6473 17.0891 20.6473C17.1542 20.6473 17.2116 20.6515 17.2614 20.6599C17.3127 20.6682 17.3563 20.678 17.3922 20.6892C17.4282 20.7003 17.4573 20.7115 17.4795 20.7226C17.503 20.7338 17.5189 20.7422 17.5272 20.7477L17.4628 20.9172C17.4227 20.8907 17.3694 20.8691 17.303 20.8524C17.2365 20.8342 17.1687 20.8252 17.0995 20.8252C17.0261 20.8252 16.959 20.8384 16.8981 20.8649C16.8386 20.8914 16.7873 20.9298 16.7444 20.98C16.7029 21.0302 16.6704 21.0916 16.6468 21.1641C16.6233 21.2352 16.6115 21.3154 16.6115 21.4047C16.6115 21.4912 16.6212 21.57 16.6406 21.6411C16.6614 21.7123 16.6918 21.7736 16.732 21.8253C16.7735 21.8755 16.824 21.9145 16.8835 21.9424C16.9444 21.9703 17.0157 21.9843 17.0974 21.9843C17.1555 21.9843 17.2047 21.9815 17.2448 21.9759C17.2864 21.9689 17.3161 21.9626 17.3341 21.9571V21.4173Z" fill="white"/>
<path d="M17.8509 20.6808H18.0523V22.1307H17.8509V20.6808Z" fill="white"/>
<path d="M18.7428 21.9864C18.9532 21.9864 19.0584 21.9138 19.0584 21.7688C19.0584 21.7241 19.0487 21.6865 19.0293 21.6558C19.0113 21.6237 18.9864 21.5965 18.9546 21.5742C18.9227 21.5505 18.886 21.5303 18.8445 21.5135C18.8044 21.4968 18.7615 21.48 18.7158 21.4633C18.6632 21.4452 18.6133 21.4249 18.5663 21.4026C18.5192 21.3789 18.4784 21.3517 18.4438 21.321C18.4092 21.2889 18.3815 21.2513 18.3607 21.208C18.3413 21.1648 18.3316 21.1125 18.3316 21.0511C18.3316 20.9242 18.3746 20.8252 18.4604 20.754C18.5462 20.6829 18.6646 20.6473 18.8154 20.6473C18.9026 20.6473 18.9815 20.6571 19.0521 20.6766C19.1241 20.6947 19.1767 20.715 19.2099 20.7373L19.1456 20.9026C19.1165 20.8844 19.0729 20.867 19.0148 20.8503C18.958 20.8321 18.8916 20.8231 18.8154 20.8231C18.7767 20.8231 18.7407 20.8273 18.7075 20.8356C18.6742 20.844 18.6452 20.8565 18.6203 20.8733C18.5953 20.89 18.5753 20.9116 18.56 20.9381C18.5462 20.9633 18.5393 20.9932 18.5393 21.0281C18.5393 21.0672 18.5469 21.0999 18.5621 21.1264C18.5773 21.1529 18.5988 21.1767 18.6265 21.1976C18.6542 21.2171 18.686 21.2352 18.722 21.252C18.7594 21.2687 18.8002 21.2855 18.8445 21.3022C18.9068 21.3273 18.9636 21.3524 19.0148 21.3775C19.0674 21.4026 19.1124 21.4326 19.1497 21.4675C19.1885 21.5024 19.2183 21.5442 19.239 21.593C19.2598 21.6404 19.2702 21.6983 19.2702 21.7667C19.2702 21.8936 19.2238 21.9912 19.131 22.0596C19.0397 22.1279 18.9103 22.1621 18.7428 22.1621C18.686 22.1621 18.6334 22.1579 18.585 22.1496C18.5379 22.1426 18.4957 22.1342 18.4583 22.1244C18.4209 22.1133 18.3884 22.1021 18.3607 22.091C18.3344 22.0784 18.3137 22.068 18.2984 22.0596L18.3586 21.8922C18.3905 21.9103 18.4389 21.9306 18.504 21.9529C18.569 21.9752 18.6486 21.9864 18.7428 21.9864Z" fill="white"/>
<path d="M20.4749 20.6808V20.8565H20.0223V22.1307H19.8209V20.8565H19.3682V20.6808H20.4749Z" fill="white"/>
<path d="M20.6876 20.6808H20.889V22.1307H20.6876V20.6808Z" fill="white"/>
<path d="M21.864 22.1621C21.7629 22.1621 21.6709 22.1454 21.5878 22.1119C21.5047 22.0784 21.4335 22.0296 21.3739 21.9654C21.3144 21.9013 21.268 21.8225 21.2348 21.729C21.203 21.6342 21.1871 21.5261 21.1871 21.4047C21.1871 21.2834 21.2051 21.176 21.2411 21.0825C21.2784 20.9877 21.3283 20.9082 21.3906 20.844C21.4528 20.7798 21.5255 20.731 21.6086 20.6975C21.6916 20.6641 21.7802 20.6473 21.8743 20.6473C21.9339 20.6473 21.9872 20.6515 22.0342 20.6599C22.0827 20.6682 22.1242 20.678 22.1588 20.6892C22.1948 20.7003 22.2239 20.7115 22.246 20.7226C22.2682 20.7338 22.2834 20.7422 22.2917 20.7477L22.2335 20.9151C22.2211 20.9068 22.2031 20.8977 22.1796 20.8879C22.156 20.8782 22.129 20.8684 22.0986 20.8586C22.0695 20.8489 22.037 20.8412 22.001 20.8356C21.9664 20.8286 21.9311 20.8252 21.8951 20.8252C21.819 20.8252 21.7505 20.8384 21.6895 20.8649C21.6286 20.8914 21.5767 20.9298 21.5338 20.98C21.4909 21.0302 21.4577 21.0916 21.4342 21.1641C21.412 21.2352 21.4009 21.3154 21.4009 21.4047C21.4009 21.4912 21.4106 21.57 21.43 21.6411C21.4508 21.7123 21.4812 21.7736 21.5214 21.8253C21.5615 21.8755 21.6113 21.9145 21.6709 21.9424C21.7318 21.9703 21.8024 21.9843 21.8826 21.9843C21.9754 21.9843 22.0522 21.9745 22.1131 21.955C22.174 21.9354 22.2197 21.918 22.2502 21.9027L22.3021 22.0701C22.2924 22.077 22.2751 22.0861 22.2502 22.0972C22.2252 22.107 22.1941 22.1168 22.1567 22.1265C22.1194 22.1363 22.0757 22.1447 22.0259 22.1516C21.9761 22.1586 21.9221 22.1621 21.864 22.1621Z" fill="white"/>
<path d="M22.8874 21.9864C23.0978 21.9864 23.203 21.9138 23.203 21.7688C23.203 21.7241 23.1933 21.6865 23.1739 21.6558C23.1559 21.6237 23.131 21.5965 23.0991 21.5742C23.0673 21.5505 23.0306 21.5303 22.9891 21.5135C22.949 21.4968 22.906 21.48 22.8604 21.4633C22.8078 21.4452 22.7579 21.4249 22.7109 21.4026C22.6638 21.3789 22.623 21.3517 22.5884 21.321C22.5538 21.2889 22.5261 21.2513 22.5053 21.208C22.4859 21.1648 22.4762 21.1125 22.4762 21.0511C22.4762 20.9242 22.5191 20.8252 22.605 20.754C22.6908 20.6829 22.8091 20.6473 22.96 20.6473C23.0472 20.6473 23.1261 20.6571 23.1967 20.6766C23.2687 20.6947 23.3213 20.715 23.3545 20.7373L23.2902 20.9026C23.2611 20.8844 23.2175 20.867 23.1594 20.8503C23.1026 20.8321 23.0362 20.8231 22.96 20.8231C22.9213 20.8231 22.8853 20.8273 22.8521 20.8356C22.8188 20.844 22.7898 20.8565 22.7649 20.8733C22.7399 20.89 22.7199 20.9116 22.7046 20.9381C22.6908 20.9633 22.6839 20.9932 22.6839 21.0281C22.6839 21.0672 22.6915 21.0999 22.7067 21.1264C22.7219 21.1529 22.7434 21.1767 22.7711 21.1976C22.7988 21.2171 22.8306 21.2352 22.8666 21.252C22.904 21.2687 22.9448 21.2855 22.9891 21.3022C23.0514 21.3273 23.1081 21.3524 23.1594 21.3775C23.212 21.4026 23.2569 21.4326 23.2943 21.4675C23.3331 21.5024 23.3628 21.5442 23.3836 21.593C23.4044 21.6404 23.4147 21.6983 23.4147 21.7667C23.4147 21.8936 23.3684 21.9912 23.2756 22.0596C23.1843 22.1279 23.0548 22.1621 22.8874 22.1621C22.8306 22.1621 22.778 22.1579 22.7296 22.1496C22.6825 22.1426 22.6403 22.1342 22.6029 22.1244C22.5655 22.1133 22.533 22.1021 22.5053 22.091C22.479 22.0784 22.4582 22.068 22.443 22.0596L22.5032 21.8922C22.5351 21.9103 22.5835 21.9306 22.6486 21.9529C22.7136 21.9752 22.7932 21.9864 22.8874 21.9864Z" fill="white"/>
<path d="M1.55726 16.9001H2.76847V13.8829C2.76847 13.6937 2.84306 13.5122 2.97585 13.3784C3.06659 13.287 3.18029 13.2221 3.30479 13.1907L3.33058 13.1842C3.41594 13.1627 3.50523 13.1627 3.59059 13.1842L3.61638 13.1907C3.74088 13.2221 3.85458 13.287 3.94532 13.3784C4.0781 13.5122 4.1527 13.6937 4.1527 13.8829V16.2696C4.1527 16.45 4.22383 16.6231 4.35045 16.7507C4.44541 16.8463 4.5742 16.9001 4.7085 16.9001H5.3639V13.6394C5.3639 13.4336 5.31267 13.2312 5.21491 13.0506C4.97902 12.6148 4.57293 12.2984 4.09503 12.178L3.89751 12.1283C3.61005 12.0558 3.30994 12.0507 3.0202 12.1133L2.99755 12.1182C2.5178 12.2218 2.0971 12.5099 1.82495 12.9212C1.6504 13.1851 1.55726 13.495 1.55726 13.8121V16.9001Z" fill="white"/>
<path d="M0 11.3515V16.9001H1.2112V10.7977H0.488553C0.344388 10.7977 0.208637 10.8661 0.122138 10.9823C0.042857 11.0888 0 11.2184 0 11.3515Z" fill="white"/>
<path d="M26 11.3515V16.9001H24.7888V10.7977H25.5114C25.6556 10.7977 25.7914 10.8661 25.8779 10.9823C25.9571 11.0888 26 11.2184 26 11.3515Z" fill="white"/>
<path d="M5.70996 16.2027V10.7977H6.22905C6.6113 10.7977 6.92117 11.11 6.92117 11.4951V15.6331C6.92117 15.8946 7.60664 15.854 8.04586 15.854V16.9001H6.92117H6.40208C6.01983 16.9001 5.70996 16.5879 5.70996 16.2027Z" fill="white"/>
<path d="M8.13237 12.1925H6.92117V13.2387H7.50973C7.58622 13.2387 7.66055 13.2131 7.72111 13.1661L8.06503 12.8987C8.1075 12.8657 8.13237 12.8147 8.13237 12.7607V12.1925Z" fill="white"/>
<path d="M11.4199 15.3309H12.5446L12.4161 15.849C12.3866 15.9679 12.3398 16.0817 12.2772 16.1868C12.1686 16.3692 12.0188 16.523 11.8398 16.6357L11.7827 16.6716C11.5456 16.8209 11.2717 16.9001 10.9921 16.9001H10.0715C9.82509 16.9001 9.58679 16.8113 9.39969 16.6497L9.26667 16.5348C8.76637 16.1027 8.47843 15.4718 8.47843 14.8079V13.7865C8.47843 13.3743 8.6111 12.9732 8.85652 12.6435C8.94971 12.5183 9.06508 12.4115 9.1968 12.3286L9.44736 12.1708C9.60755 12.0699 9.78455 11.9991 9.96979 11.9617L10.1815 11.9191C10.4279 11.8694 10.6816 11.8694 10.9281 11.9191L10.946 11.9227C11.257 11.9854 11.5476 12.1254 11.7912 12.33L11.939 12.4541L12.1593 12.7078C12.4077 12.9938 12.5446 13.361 12.5446 13.7411V14.8079H9.68963V15.0642C9.68963 15.2365 9.7496 15.4034 9.85911 15.5358C10.0258 15.7374 10.2728 15.854 10.5332 15.854H10.7035C10.9349 15.854 11.151 15.7374 11.2793 15.5434L11.4199 15.3309Z" fill="white"/>
<path d="M9.68963 13.7617H11.4199V13.5002C11.4199 13.3312 11.3611 13.1676 11.2538 13.0378L11.2313 13.0106C11.0767 12.8237 10.8477 12.7156 10.6062 12.7156H10.5741C10.3402 12.7156 10.1152 12.8098 9.94975 12.9766C9.78357 13.144 9.68963 13.3717 9.68963 13.6085V13.7617Z" fill="#08090A"/>
<path d="M14.4726 16.5363C14.8947 16.6355 15.3748 16.6492 15.8934 16.3814C15.9643 16.3448 16.051 16.4106 16.0292 16.4879L15.9549 16.7518C15.8738 17.0398 15.7362 17.3334 15.4483 17.4072C15.0471 17.5101 14.5092 17.4205 14.4479 17.0503H12.9772C12.9772 17.4561 13.3434 17.9438 13.7428 18.2944C14.015 18.5335 14.3761 18.6461 14.7344 18.6909C15.0566 18.7312 15.4569 18.7505 15.8322 18.6195C16.0393 18.5472 16.2566 18.4384 16.4632 18.3091C17.1704 17.8666 17.4046 17.0089 17.4211 16.1702C17.4406 15.1776 17.4475 14.0295 17.3894 13.3021C17.3098 12.3046 16.3505 11.856 15.8611 11.7229C15.7846 11.7021 15.7059 11.6946 15.627 11.6876L15.6197 11.687C15.3873 11.6664 14.9561 11.6283 14.3614 11.8201C13.8303 11.9914 13.384 12.4987 13.14 12.9356C13.0098 13.1688 12.9646 13.4363 12.9396 13.7027L12.9292 13.8135C12.9036 14.0862 12.9037 14.3607 12.9297 14.6334L12.9321 14.6584C12.9617 14.9705 13.062 15.2716 13.2251 15.5387C13.5128 16.0099 13.9379 16.4106 14.4726 16.5363Z" fill="white"/>
<path d="M16.2647 14.0491C16.2647 14.8195 15.7999 15.444 15.2266 15.444C14.6532 15.444 14.1884 14.8195 14.1884 14.0491C14.1884 13.2788 14.6532 12.6543 15.2266 12.6543C15.7999 12.6543 16.2647 13.2788 16.2647 14.0491Z" fill="#08090A"/>
<path d="M17.7811 16.9001H18.9923V14.2848C18.9923 13.9361 19.0788 13.5002 19.4249 13.5002H20.29V12.3669H19.312C19.1011 12.3669 18.8896 12.4058 18.7032 12.5053C17.7811 12.9973 17.7811 13.5684 17.7811 14.2848V16.9001Z" fill="white"/>
<path d="M20.6361 13.413L21.6526 13.4407C21.915 13.4479 22.0174 13.0643 22.2799 13.0643H23.145V13.8489L21.1442 14.4051C20.844 14.4885 20.6361 14.7637 20.6361 15.0774V15.4704C20.6361 15.8787 20.818 16.2655 21.1316 16.524C21.4266 16.7672 21.796 16.9001 22.1772 16.9001H22.6595C22.9738 16.9001 23.2787 16.7923 23.5242 16.5945L23.7933 16.3775C24.2038 16.0466 24.4427 15.5456 24.4427 15.016V13.827C24.4427 13.3413 24.2394 12.878 23.8827 12.5513C23.6307 12.3204 23.3024 12.1925 22.9619 12.1925H22.0679C21.5142 12.1925 21.0138 12.5251 20.7956 13.0379L20.6361 13.413Z" fill="white"/>
<path d="M21.6979 15.6519L21.7027 15.6641C21.79 15.8841 22.0015 16.0283 22.2366 16.0283H22.5355C22.5954 16.0283 22.6549 16.0186 22.7117 15.9995C22.8249 15.9615 22.9238 15.8896 22.9954 15.7935L23.046 15.7255C23.1112 15.6379 23.1561 15.5367 23.1774 15.4293L23.2063 15.2835C23.2231 15.1991 23.2315 15.1132 23.2315 15.0271V14.7207C23.2315 14.6563 23.1543 14.6241 23.1092 14.6696L22.972 14.8079C22.9151 14.8652 22.8457 14.9084 22.7694 14.934L22.7351 14.9455C22.6625 14.9699 22.5878 14.9877 22.512 14.9986L22.1315 15.0534C22.0579 15.064 21.9864 15.0865 21.9199 15.12L21.8473 15.1566L21.7777 15.2267C21.7115 15.2934 21.6743 15.3839 21.6743 15.4783V15.5284C21.6743 15.5707 21.6823 15.6126 21.6979 15.6519Z" fill="#08090A"/>
</svg>
