<svg width="42" height="45" viewBox="0 0 42 45" fill="none" xmlns="http://www.w3.org/2000/svg">
<path fill-rule="evenodd" clip-rule="evenodd" d="M27.2451 16.9349C28.0817 15.7692 29.4445 15 31 15C32.5555 15 33.9183 15.7692 34.7549 16.9349C36.1708 16.7022 37.6783 17.1219 38.7782 18.2218C39.8781 19.3217 40.2977 20.8292 40.0651 22.2451C41.2308 23.0817 42 24.4445 42 26C42 27.5554 41.2308 28.9182 40.0651 29.7549C40.2978 31.1707 39.8781 32.6783 38.7782 33.7781C37.6783 34.8781 36.1707 35.2978 34.7548 35.0651C33.9182 36.2308 32.5555 37 31 37C29.4445 37 28.0818 36.2308 27.2452 35.0651C25.8293 35.2978 24.3217 34.8781 23.2218 33.7781C22.1219 32.6783 21.7023 31.1707 21.9349 29.7549C20.7692 28.9183 20 27.5554 20 26C20 24.4445 20.7692 23.0817 21.9349 22.2451C21.7023 20.8292 22.1219 19.3217 23.2218 18.2218C24.3217 17.1219 25.8292 16.7023 27.2451 16.9349ZM35 26C35 28.2091 33.2091 30 31 30C28.7909 30 27 28.2091 27 26C27 23.7909 28.7909 22 31 22C33.2091 22 35 23.7909 35 26Z" fill="white"/>
<path d="M24.895 37.96L23.7891 44.3333L31.0003 42.5305L38.2115 44.3333L37.1055 37.96C36.7455 38.0363 36.3814 38.0863 36.0166 38.1102C34.6853 39.2778 32.9349 39.9997 31.0003 39.9997C29.0657 39.9997 27.3153 39.2778 25.984 38.1102C25.6192 38.0863 25.2551 38.0363 24.895 37.96Z" fill="white"/>
<path fill-rule="evenodd" clip-rule="evenodd" d="M6 0C2.68629 0 0 2.68629 0 6V36C0 39.3137 2.68629 42 6 42H21.1464C21.4849 40.017 21.7762 38.2534 22.0258 36.6884C21.7017 36.454 21.392 36.191 21.1005 35.8995C19.7325 34.5314 19.0053 32.7833 18.8896 31.0163C17.7219 29.685 17 27.9346 17 26C17 24.0654 17.7219 22.315 18.8896 20.9836C19.0053 19.2167 19.7325 17.4685 21.1005 16.1005C22.4685 14.7325 24.2167 14.0053 25.9836 13.8896C27.315 12.7219 29.0654 12 31 12C32.9267 12 34.6707 12.716 36 13.8753V6C36 2.68629 33.3137 0 30 0H6ZM6 8V11H16V8H6ZM19 11H24V8H19V11ZM12 14V17H6V14H12Z" fill="white"/>
</svg>
