<svg width="57" height="48" viewBox="0 0 57 48" fill="none" xmlns="http://www.w3.org/2000/svg">
<path d="M20.2943 12.9339L13.6917 15.2603C13.4813 15.3345 13.397 15.5876 13.5207 15.7736C13.6016 15.8954 13.7508 15.9522 13.8919 15.9149L20.8633 14.0751L28.5841 12.6003C28.7329 12.5719 28.8506 12.4574 28.8835 12.3092L31.1053 2.28245H28.8293L31.295 0.190204V0H26.3637V0.380409L27.312 1.52164L25.2695 10.832C25.2421 10.9568 25.1541 11.0595 25.0352 11.1053L20.2943 12.9339Z" fill="white"/>
<path d="M33.1917 0H36.7953L34.14 9.51022L40.5887 8.93961L49.1236 8.74941C49.1236 8.74941 47.2212 10.2167 46.2786 11.4123C45.4751 12.4316 44.9695 13.0287 44.5717 14.2653C44.1162 15.6809 44.382 16.9282 44.382 18.0694C44.382 18.8302 44.1923 19.5911 43.0543 19.9715C41.9826 20.3297 18.7062 18.495 15.9986 18.28C15.8493 18.2682 15.7423 18.1439 15.7423 17.9937C15.7423 17.8283 15.8773 17.6967 16.042 17.7058C25.4538 18.2309 39.6111 18.7153 42.5205 18.8126C42.7842 18.8214 42.9687 18.5634 42.8961 18.309C42.7351 17.745 42.5062 16.8368 42.4853 16.1674C42.4853 16.1674 42.3541 14.8815 42.4853 14.0751C42.5876 13.4464 43.0674 12.5101 43.4209 11.8835C43.5757 11.6092 43.3611 11.2615 43.048 11.2888L31.2339 12.319C30.9807 12.3411 30.778 12.1122 30.8296 11.8627L32.8123 2.28245H34.8987L33.1917 0.190204V0Z" fill="white"/>
<path d="M7.92455 44.768V45.1515H6.93221V47.9315H6.49067V45.1515H5.49833V44.768H7.92455Z" fill="white"/>
<path d="M9.93394 46.6077C9.98249 46.6686 10.0432 46.7492 10.116 46.8496C10.1919 46.947 10.2693 47.0566 10.3482 47.1783C10.4271 47.297 10.5045 47.4218 10.5803 47.5526C10.6592 47.6835 10.726 47.8098 10.7806 47.9315H10.2981C10.2374 47.8159 10.1706 47.6987 10.0978 47.58C10.028 47.4613 9.9567 47.3487 9.88386 47.2422C9.81103 47.1327 9.7382 47.0307 9.66537 46.9364C9.59557 46.842 9.53184 46.7599 9.47418 46.6899C9.43473 46.6929 9.39377 46.6944 9.35128 46.6944C9.31183 46.6944 9.27086 46.6944 9.22838 46.6944H8.83235V47.9315H8.39081V44.8137C8.51523 44.7833 8.65331 44.7635 8.80504 44.7544C8.95981 44.7422 9.10092 44.7361 9.22838 44.7361C9.67144 44.7361 10.0083 44.8198 10.2389 44.9872C10.4726 45.1545 10.5894 45.4041 10.5894 45.7358C10.5894 45.9458 10.5333 46.1253 10.421 46.2745C10.3118 46.4236 10.1494 46.5347 9.93394 46.6077ZM9.26479 45.1241C9.07664 45.1241 8.9325 45.1287 8.83235 45.1378V46.3292H9.14644C9.29817 46.3292 9.43473 46.3216 9.55612 46.3064C9.67751 46.2912 9.77917 46.2623 9.8611 46.2197C9.94608 46.1771 10.0113 46.1177 10.0568 46.0417C10.1024 45.9625 10.1251 45.8591 10.1251 45.7312C10.1251 45.6126 10.1024 45.5136 10.0568 45.4345C10.0113 45.3554 9.94911 45.293 9.87021 45.2474C9.79434 45.2017 9.7033 45.1698 9.59709 45.1515C9.49391 45.1332 9.38314 45.1241 9.26479 45.1241Z" fill="white"/>
<path d="M13.4901 47.9315C13.4385 47.7946 13.3899 47.6607 13.3444 47.5298C13.2989 47.3959 13.2519 47.2605 13.2033 47.1235H11.774L11.4872 47.9315H11.0274C11.1488 47.5968 11.2626 47.2879 11.3688 47.0049C11.4751 46.7188 11.5782 46.4479 11.6784 46.1923C11.7816 45.9367 11.8832 45.6932 11.9834 45.4619C12.0835 45.2276 12.1882 44.9963 12.2975 44.768H12.7026C12.8118 44.9963 12.9165 45.2276 13.0167 45.4619C13.1168 45.6932 13.217 45.9367 13.3171 46.1923C13.4203 46.4479 13.525 46.7188 13.6312 47.0049C13.7374 47.2879 13.8512 47.5968 13.9726 47.9315H13.4901ZM13.0758 46.7583C12.9787 46.4936 12.8816 46.2379 12.7845 45.9914C12.6904 45.7419 12.5918 45.503 12.4886 45.2747C12.3824 45.503 12.2808 45.7419 12.1837 45.9914C12.0896 46.2379 11.9955 46.4936 11.9014 46.7583H13.0758Z" fill="white"/>
<path d="M16.991 46.3475C16.991 46.6214 16.9485 46.8603 16.8635 47.0642C16.7785 47.265 16.6587 47.4324 16.5039 47.5663C16.3491 47.6972 16.164 47.7961 15.9485 47.8631C15.7331 47.927 15.4964 47.9589 15.2384 47.9589C15.111 47.9589 14.9699 47.9528 14.8151 47.9407C14.6634 47.9315 14.5253 47.9117 14.4009 47.8813V44.8137C14.5253 44.7833 14.6634 44.7635 14.8151 44.7544C14.9699 44.7422 15.111 44.7361 15.2384 44.7361C15.4964 44.7361 15.7331 44.7696 15.9485 44.8365C16.164 44.9004 16.3491 44.9993 16.5039 45.1332C16.6587 45.2641 16.7785 45.4315 16.8635 45.6354C16.9485 45.8362 16.991 46.0736 16.991 46.3475ZM15.2749 47.5709C15.6936 47.5709 16.0062 47.4644 16.2126 47.2514C16.4189 47.0353 16.5221 46.734 16.5221 46.3475C16.5221 45.961 16.4189 45.6612 16.2126 45.4482C16.0062 45.2321 15.6936 45.1241 15.2749 45.1241C15.1504 45.1241 15.0533 45.1256 14.9835 45.1287C14.9168 45.1317 14.8697 45.1348 14.8424 45.1378V47.5572C14.8697 47.5602 14.9168 47.5633 14.9835 47.5663C15.0533 47.5694 15.1504 47.5709 15.2749 47.5709Z" fill="white"/>
<path d="M17.6459 44.768H18.0875V47.9315H17.6459V44.768Z" fill="white"/>
<path d="M21.0306 47.9315C20.9638 47.8189 20.8865 47.6926 20.7985 47.5526C20.7135 47.4126 20.6209 47.2681 20.5208 47.119C20.4206 46.9668 20.3159 46.8131 20.2067 46.6579C20.1005 46.5027 19.9943 46.3536 19.8881 46.2106C19.7818 46.0645 19.6787 45.9275 19.5785 45.7997C19.4784 45.6719 19.3858 45.5593 19.3008 45.4619V47.9315H18.8684V44.768H19.2189C19.3615 44.9202 19.5133 45.0982 19.6741 45.3021C19.838 45.503 19.9988 45.7115 20.1566 45.9275C20.3175 46.1406 20.4677 46.3505 20.6073 46.5575C20.7499 46.7644 20.8698 46.9485 20.9669 47.1098V44.768H21.3993V47.9315H21.0306Z" fill="white"/>
<path d="M24.1057 46.3749H24.5472V47.8539C24.5108 47.8661 24.4577 47.8798 24.3879 47.895C24.3211 47.9102 24.2422 47.9254 24.1512 47.9407C24.0632 47.9559 23.9661 47.968 23.8598 47.9772C23.7536 47.9893 23.6459 47.9954 23.5367 47.9954C23.3151 47.9954 23.1133 47.9589 22.9312 47.8859C22.7492 47.8128 22.5929 47.7063 22.4624 47.5663C22.3319 47.4263 22.2302 47.2544 22.1574 47.0505C22.0876 46.8466 22.0527 46.6123 22.0527 46.3475C22.0527 46.0827 22.0922 45.8484 22.1711 45.6445C22.253 45.4376 22.3622 45.2641 22.4988 45.1241C22.6354 44.9841 22.7947 44.8776 22.9768 44.8046C23.1619 44.7315 23.3591 44.695 23.5685 44.695C23.7112 44.695 23.8371 44.7041 23.9463 44.7224C24.0586 44.7407 24.1542 44.762 24.2331 44.7863C24.312 44.8107 24.3757 44.835 24.4243 44.8593C24.4759 44.8837 24.5108 44.902 24.529 44.9141L24.3879 45.2839C24.2999 45.2261 24.183 45.1789 24.0374 45.1424C23.8917 45.1028 23.743 45.083 23.5913 45.083C23.4304 45.083 23.2833 45.1119 23.1497 45.1698C23.0192 45.2276 22.907 45.3113 22.8129 45.4208C22.7219 45.5304 22.6505 45.6643 22.5989 45.8225C22.5474 45.9777 22.5216 46.1527 22.5216 46.3475C22.5216 46.5362 22.5428 46.7081 22.5853 46.8633C22.6308 47.0185 22.6976 47.1524 22.7856 47.265C22.8766 47.3746 22.9874 47.4598 23.1179 47.5207C23.2514 47.5815 23.4077 47.612 23.5867 47.612C23.7142 47.612 23.8219 47.6059 23.9099 47.5937C24.001 47.5785 24.0662 47.5648 24.1057 47.5526V46.3749Z" fill="white"/>
<path d="M26.11 47.0916C26.11 46.9729 26.1282 46.8679 26.1646 46.7766C26.201 46.6823 26.2496 46.5986 26.3103 46.5255C26.374 46.4495 26.4468 46.384 26.5288 46.3292C26.6107 46.2714 26.6957 46.2212 26.7837 46.1786C26.5591 45.9534 26.4468 45.7206 26.4468 45.4802C26.4468 45.3584 26.4666 45.2489 26.506 45.1515C26.5485 45.0541 26.6046 44.9719 26.6744 44.905C26.7473 44.838 26.8322 44.7863 26.9294 44.7498C27.0295 44.7133 27.1387 44.695 27.2571 44.695C27.3785 44.695 27.4862 44.7133 27.5803 44.7498C27.6774 44.7863 27.7578 44.835 27.8215 44.8959C27.8883 44.9567 27.9384 45.0298 27.9718 45.115C28.0051 45.2002 28.0218 45.29 28.0218 45.3843C28.0218 45.4908 28.0036 45.5867 27.9672 45.6719C27.9338 45.7571 27.8868 45.8347 27.8261 45.9047C27.7684 45.9747 27.7017 46.0386 27.6258 46.0964C27.5499 46.1543 27.4695 46.206 27.3846 46.2516L28.122 47.0049C28.2252 46.8131 28.2919 46.6001 28.3223 46.3658L28.6728 46.4114C28.6606 46.5362 28.6288 46.6731 28.5772 46.8223C28.5286 46.9683 28.4588 47.1144 28.3678 47.2605C28.474 47.3761 28.5711 47.4903 28.6591 47.6029C28.7502 47.7155 28.8245 47.825 28.8822 47.9315H28.4361C28.3996 47.8707 28.3541 47.8083 28.2995 47.7444C28.2479 47.6805 28.1933 47.6165 28.1356 47.5526C28.0112 47.6774 27.8671 47.7794 27.7032 47.8585C27.5393 47.9346 27.3512 47.9726 27.1387 47.9726C26.9415 47.9726 26.7776 47.9452 26.6471 47.8904C26.5166 47.8326 26.4104 47.7611 26.3285 47.6759C26.2496 47.5876 26.1934 47.4918 26.1601 47.3883C26.1267 47.2848 26.11 47.1859 26.11 47.0916ZM26.5333 47.0825C26.5333 47.1372 26.544 47.1966 26.5652 47.2605C26.5864 47.3244 26.6213 47.3837 26.6699 47.4385C26.7184 47.4903 26.7807 47.5344 26.8565 47.5709C26.9354 47.6044 27.0325 47.6211 27.1479 47.6211C27.2966 47.6211 27.4331 47.5937 27.5575 47.5389C27.685 47.4842 27.7973 47.4066 27.8944 47.3061L27.0067 46.4068C26.9521 46.4342 26.896 46.4662 26.8383 46.5027C26.7837 46.5392 26.7336 46.5849 26.6881 46.6397C26.6426 46.6914 26.6046 46.7538 26.5743 46.8268C26.547 46.8999 26.5333 46.9851 26.5333 47.0825ZM27.6395 45.398C27.6395 45.2945 27.6046 45.2078 27.5348 45.1378C27.468 45.0648 27.3754 45.0282 27.2571 45.0282C27.1236 45.0282 27.0204 45.0693 26.9476 45.1515C26.8778 45.2306 26.8429 45.3295 26.8429 45.4482C26.8429 45.646 26.946 45.8393 27.1524 46.028C27.2192 45.9945 27.2814 45.958 27.339 45.9184C27.3997 45.8788 27.4513 45.8332 27.4938 45.7815C27.5393 45.7297 27.5742 45.6734 27.5985 45.6126C27.6258 45.5486 27.6395 45.4771 27.6395 45.398Z" fill="white"/>
<path d="M32.2755 47.5481V47.9315H30.3773V44.768H30.8189V47.5481H32.2755Z" fill="white"/>
<path d="M32.4058 46.3475C32.4058 46.0767 32.4453 45.8378 32.5242 45.6308C32.6061 45.4239 32.7154 45.2519 32.8519 45.115C32.9915 44.975 33.1524 44.87 33.3344 44.8C33.5196 44.73 33.7153 44.695 33.9217 44.695C34.125 44.695 34.3162 44.73 34.4952 44.8C34.6773 44.87 34.8366 44.975 34.9732 45.115C35.1097 45.2519 35.2175 45.4239 35.2964 45.6308C35.3783 45.8378 35.4193 46.0767 35.4193 46.3475C35.4193 46.6184 35.3783 46.8573 35.2964 47.0642C35.2175 47.2711 35.1097 47.4446 34.9732 47.5846C34.8366 47.7215 34.6773 47.825 34.4952 47.895C34.3162 47.965 34.125 48 33.9217 48C33.7153 48 33.5196 47.965 33.3344 47.895C33.1524 47.825 32.9915 47.7215 32.8519 47.5846C32.7154 47.4446 32.6061 47.2711 32.5242 47.0642C32.4453 46.8573 32.4058 46.6184 32.4058 46.3475ZM32.8701 46.3475C32.8701 46.5392 32.8944 46.7142 32.943 46.8725C32.9915 47.0277 33.0598 47.1601 33.1478 47.2696C33.2389 47.3792 33.3481 47.4644 33.4756 47.5252C33.606 47.5831 33.7517 47.612 33.9125 47.612C34.0734 47.612 34.2175 47.5831 34.345 47.5252C34.4724 47.4644 34.5802 47.3792 34.6682 47.2696C34.7592 47.1601 34.829 47.0277 34.8776 46.8725C34.9261 46.7142 34.9504 46.5392 34.9504 46.3475C34.9504 46.1558 34.9261 45.9823 34.8776 45.8271C34.829 45.6689 34.7592 45.5349 34.6682 45.4254C34.5802 45.3158 34.4724 45.2321 34.345 45.1743C34.2175 45.1135 34.0734 45.083 33.9125 45.083C33.7517 45.083 33.606 45.1135 33.4756 45.1743C33.3481 45.2321 33.2389 45.3158 33.1478 45.4254C33.0598 45.5349 32.9915 45.6689 32.943 45.8271C32.8944 45.9823 32.8701 46.1558 32.8701 46.3475Z" fill="white"/>
<path d="M38.0017 46.3749H38.4432V47.8539C38.4068 47.8661 38.3537 47.8798 38.2839 47.895C38.2172 47.9102 38.1383 47.9254 38.0472 47.9407C37.9592 47.9559 37.8621 47.968 37.7559 47.9772C37.6497 47.9893 37.5419 47.9954 37.4327 47.9954C37.2112 47.9954 37.0094 47.9589 36.8273 47.8859C36.6452 47.8128 36.4889 47.7063 36.3584 47.5663C36.2279 47.4263 36.1263 47.2544 36.0534 47.0505C35.9836 46.8466 35.9487 46.6123 35.9487 46.3475C35.9487 46.0827 35.9882 45.8484 36.0671 45.6445C36.149 45.4376 36.2583 45.2641 36.3948 45.1241C36.5314 44.9841 36.6907 44.8776 36.8728 44.8046C37.0579 44.7315 37.2552 44.695 37.4646 44.695C37.6072 44.695 37.7331 44.7041 37.8424 44.7224C37.9547 44.7407 38.0503 44.762 38.1292 44.7863C38.2081 44.8107 38.2718 44.835 38.3203 44.8593C38.3719 44.8837 38.4068 44.902 38.425 44.9141L38.2839 45.2839C38.1959 45.2261 38.0791 45.1789 37.9334 45.1424C37.7878 45.1028 37.6391 45.083 37.4873 45.083C37.3265 45.083 37.1793 45.1119 37.0458 45.1698C36.9153 45.2276 36.803 45.3113 36.7089 45.4208C36.6179 45.5304 36.5466 45.6643 36.495 45.8225C36.4434 45.9777 36.4176 46.1527 36.4176 46.3475C36.4176 46.5362 36.4388 46.7081 36.4813 46.8633C36.5269 47.0185 36.5936 47.1524 36.6816 47.265C36.7727 47.3746 36.8834 47.4598 37.0139 47.5207C37.1474 47.5815 37.3037 47.612 37.4828 47.612C37.6102 47.612 37.718 47.6059 37.806 47.5937C37.897 47.5785 37.9623 47.5648 38.0017 47.5526V46.3749Z" fill="white"/>
<path d="M39.1346 44.768H39.5761V47.9315H39.1346V44.768Z" fill="white"/>
<path d="M41.0899 47.6165C41.5512 47.6165 41.7818 47.4583 41.7818 47.1418C41.7818 47.0444 41.7606 46.9622 41.7181 46.8953C41.6786 46.8253 41.624 46.766 41.5542 46.7173C41.4844 46.6655 41.404 46.6214 41.313 46.5849C41.225 46.5484 41.1309 46.5118 41.0307 46.4753C40.9154 46.4358 40.8062 46.3916 40.703 46.3429C40.5998 46.2912 40.5103 46.2319 40.4344 46.1649C40.3586 46.0949 40.2979 46.0127 40.2523 45.9184C40.2099 45.8241 40.1886 45.7099 40.1886 45.576C40.1886 45.2991 40.2827 45.083 40.4708 44.9278C40.659 44.7726 40.9185 44.695 41.2492 44.695C41.4404 44.695 41.6134 44.7163 41.7682 44.7589C41.926 44.7985 42.0413 44.8426 42.1141 44.8913L41.973 45.2519C41.9093 45.2124 41.8137 45.1743 41.6862 45.1378C41.5618 45.0982 41.4161 45.0785 41.2492 45.0785C41.1643 45.0785 41.0854 45.0876 41.0125 45.1059C40.9397 45.1241 40.876 45.1515 40.8213 45.188C40.7667 45.2245 40.7227 45.2717 40.6893 45.3295C40.659 45.3843 40.6438 45.4497 40.6438 45.5258C40.6438 45.611 40.6605 45.6825 40.6939 45.7404C40.7273 45.7982 40.7743 45.8499 40.835 45.8956C40.8957 45.9382 40.9655 45.9777 41.0444 46.0143C41.1263 46.0508 41.2159 46.0873 41.313 46.1238C41.4495 46.1786 41.5739 46.2334 41.6862 46.2882C41.8015 46.3429 41.9002 46.4084 41.9821 46.4845C42.0671 46.5605 42.1323 46.6518 42.1778 46.7583C42.2234 46.8618 42.2461 46.9881 42.2461 47.1372C42.2461 47.4142 42.1445 47.6272 41.9411 47.7763C41.7408 47.9254 41.4571 48 41.0899 48C40.9655 48 40.8502 47.9909 40.744 47.9726C40.6408 47.9574 40.5482 47.9391 40.4663 47.9178C40.3843 47.8935 40.313 47.8691 40.2523 47.8448C40.1947 47.8174 40.1492 47.7946 40.1158 47.7763L40.2478 47.4111C40.3176 47.4507 40.4238 47.4948 40.5664 47.5435C40.7091 47.5922 40.8836 47.6165 41.0899 47.6165Z" fill="white"/>
<path d="M44.8873 44.768V45.1515H43.895V47.9315H43.4534V45.1515H42.4611V44.768H44.8873Z" fill="white"/>
<path d="M45.3536 44.768H45.7951V47.9315H45.3536V44.768Z" fill="white"/>
<path d="M47.9325 48C47.711 48 47.5092 47.9635 47.3271 47.8904C47.145 47.8174 46.9887 47.7109 46.8583 47.5709C46.7278 47.4309 46.6261 47.259 46.5533 47.0551C46.4835 46.8481 46.4486 46.6123 46.4486 46.3475C46.4486 46.0827 46.488 45.8484 46.5669 45.6445C46.6489 45.4376 46.7581 45.2641 46.8947 45.1241C47.0312 44.9841 47.1906 44.8776 47.3726 44.8046C47.5547 44.7315 47.7489 44.695 47.9553 44.695C48.0858 44.695 48.2026 44.7041 48.3058 44.7224C48.412 44.7407 48.503 44.762 48.5789 44.7863C48.6578 44.8107 48.7215 44.835 48.7701 44.8593C48.8186 44.8837 48.852 44.902 48.8702 44.9141L48.7428 45.2793C48.7155 45.2611 48.676 45.2413 48.6244 45.22C48.5728 45.1987 48.5137 45.1774 48.4469 45.1561C48.3832 45.1348 48.3119 45.118 48.233 45.1059C48.1571 45.0906 48.0797 45.083 48.0008 45.083C47.8339 45.083 47.6837 45.1119 47.5502 45.1698C47.4166 45.2276 47.3028 45.3113 47.2088 45.4208C47.1147 45.5304 47.0419 45.6643 46.9903 45.8225C46.9417 45.9777 46.9174 46.1527 46.9174 46.3475C46.9174 46.5362 46.9387 46.7081 46.9812 46.8633C47.0267 47.0185 47.0934 47.1524 47.1814 47.265C47.2695 47.3746 47.3787 47.4598 47.5092 47.5207C47.6427 47.5815 47.7975 47.612 47.9735 47.612C48.1768 47.612 48.3452 47.5907 48.4788 47.5481C48.6123 47.5055 48.7124 47.4674 48.7792 47.434L48.893 47.7991C48.8718 47.8144 48.8338 47.8341 48.7792 47.8585C48.7246 47.8798 48.6563 47.9011 48.5744 47.9224C48.4924 47.9437 48.3968 47.962 48.2876 47.9772C48.1783 47.9924 48.06 48 47.9325 48Z" fill="white"/>
<path d="M50.1761 47.6165C50.6374 47.6165 50.868 47.4583 50.868 47.1418C50.868 47.0444 50.8468 46.9622 50.8043 46.8953C50.7649 46.8253 50.7102 46.766 50.6404 46.7173C50.5706 46.6655 50.4902 46.6214 50.3992 46.5849C50.3112 46.5484 50.2171 46.5118 50.117 46.4753C50.0016 46.4358 49.8924 46.3916 49.7892 46.3429C49.686 46.2912 49.5965 46.2319 49.5206 46.1649C49.4448 46.0949 49.3841 46.0127 49.3386 45.9184C49.2961 45.8241 49.2748 45.7099 49.2748 45.576C49.2748 45.2991 49.3689 45.083 49.5571 44.9278C49.7452 44.7726 50.0047 44.695 50.3354 44.695C50.5266 44.695 50.6996 44.7163 50.8544 44.7589C51.0122 44.7985 51.1275 44.8426 51.2003 44.8913L51.0592 45.2519C50.9955 45.2124 50.8999 45.1743 50.7724 45.1378C50.648 45.0982 50.5024 45.0785 50.3354 45.0785C50.2505 45.0785 50.1716 45.0876 50.0987 45.1059C50.0259 45.1241 49.9622 45.1515 49.9076 45.188C49.8529 45.2245 49.8089 45.2717 49.7756 45.3295C49.7452 45.3843 49.73 45.4497 49.73 45.5258C49.73 45.611 49.7467 45.6825 49.7801 45.7404C49.8135 45.7982 49.8605 45.8499 49.9212 45.8956C49.9819 45.9382 50.0517 45.9777 50.1306 46.0143C50.2125 46.0508 50.3021 46.0873 50.3992 46.1238C50.5357 46.1786 50.6602 46.2334 50.7724 46.2882C50.8878 46.3429 50.9864 46.4084 51.0683 46.4845C51.1533 46.5605 51.2185 46.6518 51.2641 46.7583C51.3096 46.8618 51.3323 46.9881 51.3323 47.1372C51.3323 47.4142 51.2307 47.6272 51.0274 47.7763C50.8271 47.9254 50.5433 48 50.1761 48C50.0517 48 49.9364 47.9909 49.8302 47.9726C49.727 47.9574 49.6344 47.9391 49.5525 47.9178C49.4706 47.8935 49.3993 47.8691 49.3386 47.8448C49.2809 47.8174 49.2354 47.7946 49.202 47.7763L49.334 47.4111C49.4038 47.4507 49.51 47.4948 49.6526 47.5435C49.7953 47.5922 49.9698 47.6165 50.1761 47.6165Z" fill="white"/>
<path d="M3.414 36.5193H6.06933V29.9363C6.06933 29.5234 6.23287 29.1275 6.52398 28.8356C6.72291 28.6361 6.97217 28.4945 7.24511 28.4261L7.30165 28.4119C7.48878 28.365 7.68455 28.365 7.87167 28.4119L7.92822 28.4261C8.20115 28.4945 8.45042 28.6361 8.64935 28.8356C8.94046 29.1275 9.104 29.5234 9.104 29.9363V35.1436C9.104 35.5373 9.25994 35.9148 9.53752 36.1932C9.74571 36.402 10.0281 36.5193 10.3225 36.5193H11.7593V29.405C11.7593 28.9561 11.647 28.5144 11.4327 28.1203C10.9155 27.1695 10.0253 26.4792 8.97756 26.2165L8.54455 26.108C7.91433 25.95 7.25641 25.9388 6.62122 26.0753L6.57155 26.086C5.5198 26.312 4.5975 26.9406 4.00085 27.8381C3.61819 28.4137 3.414 29.09 3.414 29.7818V36.5193Z" fill="white"/>
<path d="M0 24.4133V36.5193H2.65533V23.2049H1.07106C0.755005 23.2049 0.457397 23.3542 0.267765 23.6077C0.0939557 23.8401 0 24.1228 0 24.4133Z" fill="white"/>
<path d="M57 24.4133V36.5193H54.3447V23.2049H55.9289C56.245 23.2049 56.5426 23.3542 56.7322 23.6077C56.906 23.8401 57 24.1228 57 24.4133Z" fill="white"/>
<path d="M12.518 34.9976V23.2049H13.656C14.494 23.2049 15.1733 23.8862 15.1733 24.7266V33.7549C15.1733 34.3255 16.6761 34.2368 17.639 34.2368V36.5193H15.1733H14.0353C13.1973 36.5193 12.518 35.838 12.518 34.9976Z" fill="white"/>
<path d="M17.8287 26.2482H15.1733V28.5307H16.4636C16.6313 28.5307 16.7943 28.475 16.927 28.3723L17.681 27.789C17.7741 27.7169 17.8287 27.6057 17.8287 27.4878V26.2482Z" fill="white"/>
<path d="M25.036 33.0956H27.5017L27.2199 34.2259C27.1552 34.4854 27.0526 34.7338 26.9154 34.9631C26.6774 35.3608 26.3488 35.6964 25.9565 35.9423L25.8313 36.0208C25.3116 36.3465 24.711 36.5193 24.0982 36.5193H22.0799C21.5396 36.5193 21.0172 36.3255 20.607 35.9729L20.3154 35.7222C19.2186 34.7794 18.5873 33.403 18.5873 31.9544V29.7259C18.5873 28.8266 18.8782 27.9516 19.4162 27.2322C19.6205 26.959 19.8734 26.726 20.1622 26.545L20.7115 26.2007C21.0627 25.9806 21.4507 25.8261 21.8568 25.7446L22.321 25.6515C22.8612 25.5432 23.4175 25.5432 23.9577 25.6515L23.997 25.6594C24.6788 25.7962 25.3158 26.1016 25.85 26.548L26.174 26.8188L26.657 27.3724C27.2015 27.9965 27.5017 28.7976 27.5017 29.6269V31.9544H21.2427V32.5136C21.2427 32.8896 21.3741 33.2538 21.6142 33.5427C21.9797 33.9825 22.5211 34.2368 23.092 34.2368H23.4653C23.9726 34.2368 24.4464 33.9825 24.7278 33.5592L25.036 33.0956Z" fill="white"/>
<path d="M21.2427 29.6719H25.036V29.1013C25.036 28.7326 24.9071 28.3756 24.6717 28.0923L24.6225 28.0331C24.2836 27.6253 23.7816 27.3894 23.2522 27.3894H23.1818C22.6688 27.3894 22.1756 27.5951 21.8129 27.9588C21.4486 28.3241 21.2427 28.8209 21.2427 29.3376V29.6719Z" fill="#08090A"/>
<path d="M31.7284 35.7255C32.6538 35.942 33.7063 35.9718 34.8431 35.3876C34.9987 35.3077 35.1887 35.4514 35.141 35.6199L34.9781 36.1957C34.8002 36.8241 34.4986 37.4646 33.8673 37.6257C32.9878 37.8501 31.8086 37.6547 31.6743 36.847H28.45C28.45 37.7324 29.2527 38.7963 30.1284 39.5614C30.7253 40.083 31.5168 40.3287 32.3024 40.4265C33.0087 40.5144 33.8864 40.5566 34.709 40.2707C35.1631 40.1128 35.6394 39.8755 36.0923 39.5934C37.6427 38.6279 38.1562 36.7566 38.1924 34.9267C38.2352 32.761 38.2503 30.2561 38.123 28.669C37.9484 26.4927 35.8454 25.5138 34.7724 25.2236C34.6047 25.1782 34.4323 25.1618 34.2593 25.1466L34.2431 25.1452C33.7337 25.1003 32.7883 25.0171 31.4847 25.4355C30.3202 25.8093 29.3419 26.9163 28.807 27.8695C28.5215 28.3782 28.4224 28.9619 28.3675 29.5431L28.3447 29.785C28.2886 30.3799 28.289 30.9788 28.3458 31.5737L28.351 31.6283C28.4161 32.3092 28.6359 32.9662 28.9934 33.5488C29.6243 34.5769 30.5562 35.4513 31.7284 35.7255Z" fill="white"/>
<path d="M35.6573 30.299C35.6573 31.9797 34.6383 33.3423 33.3813 33.3423C32.1243 33.3423 31.1053 31.9797 31.1053 30.299C31.1053 28.6182 32.1243 27.2557 33.3813 27.2557C34.6383 27.2557 35.6573 28.6182 35.6573 30.299Z" fill="#08090A"/>
<path d="M38.9817 36.5193H41.637V30.8131C41.637 30.0523 41.8267 29.1013 42.5853 29.1013H44.482V26.6286H42.3378C41.8754 26.6286 41.4119 26.7135 41.0033 26.9305C38.9817 28.0041 38.9817 29.25 38.9817 30.8131V36.5193Z" fill="white"/>
<path d="M45.2407 28.9111L47.473 28.9716C48.0461 28.9872 48.271 28.1503 48.8443 28.1503V28.1503H50.741V29.8621L46.3545 31.0756C45.6965 31.2576 45.2407 31.8579 45.2407 32.5424V33.3999C45.2407 34.2908 45.6394 35.1346 46.3269 35.6987C46.9737 36.2293 47.7835 36.5193 48.6192 36.5193H49.6765C50.3656 36.5193 51.0342 36.2841 51.5722 35.8524L52.1623 35.379C53.0622 34.657 53.586 33.5641 53.586 32.4085V29.8144C53.586 28.7545 53.1402 27.7438 52.3581 27.0309C51.8057 26.5273 51.086 26.2482 50.3395 26.2482H48.3797C47.1658 26.2482 46.0686 26.9737 45.5904 28.0927L45.2407 28.9111Z" fill="white"/>
<path d="M47.5684 33.796L47.579 33.8225C47.7705 34.3025 48.234 34.6172 48.7495 34.6172H49.4048C49.5361 34.6172 49.6665 34.596 49.791 34.5544C50.0391 34.4714 50.2561 34.3146 50.413 34.1048L50.5238 33.9566C50.6668 33.7654 50.7653 33.5446 50.812 33.3103L50.8754 32.9921C50.9122 32.8079 50.9307 32.6206 50.9307 32.4327V31.7641C50.9307 31.6238 50.7614 31.5535 50.6624 31.6527L50.3617 31.9544C50.2369 32.0794 50.0849 32.1737 49.9175 32.2296L49.8423 32.2548C49.6831 32.308 49.5194 32.3467 49.3533 32.3705L48.5191 32.49C48.3576 32.5132 48.201 32.5623 48.0551 32.6354L47.896 32.7152L47.7434 32.8682C47.5982 33.0138 47.5167 33.2112 47.5167 33.4171V33.5264C47.5167 33.6187 47.5342 33.7102 47.5684 33.796Z" fill="#08090A"/>
</svg>
