<svg width="40" height="41" viewBox="0 0 40 41" fill="none" xmlns="http://www.w3.org/2000/svg">
<path d="M25.0001 15.25H15.0001C12.5455 15.25 10.5557 17.2398 10.5557 19.6944V29.6944C10.5557 32.1491 12.5455 34.1389 15.0001 34.1389H25.0001C27.4548 34.1389 29.4446 32.1491 29.4446 29.6944V19.6944C29.4446 17.2398 27.4548 15.25 25.0001 15.25Z" fill="white"/>
<path d="M25.0001 15.25H15.0001C12.5455 15.25 10.5557 17.2398 10.5557 19.6944V29.6944C10.5557 32.1491 12.5455 34.1389 15.0001 34.1389H25.0001C27.4548 34.1389 29.4446 32.1491 29.4446 29.6944V19.6944C29.4446 17.2398 27.4548 15.25 25.0001 15.25Z" stroke="white" stroke-linecap="round" stroke-linejoin="round"/>
<path d="M15.0001 34.1389H6.11117C4.27117 34.1389 2.77783 32.6456 2.77783 30.8056V23.0278C2.77783 21.1878 4.27117 19.6945 6.11117 19.6945" stroke="white" stroke-linecap="round" stroke-linejoin="round"/>
<path d="M25 34.1389H33.8889C35.7289 34.1389 37.2222 32.6456 37.2222 30.8056V23.0278C37.2222 21.1878 35.7289 19.6945 33.8889 19.6945" stroke="white" stroke-linecap="round" stroke-linejoin="round"/>
<path d="M20 15.25V21.9167" stroke="#121317" stroke-linecap="square" stroke-linejoin="round"/>
<path d="M3.88892 11.9167L20 4.13892L36.1111 11.9167" stroke="white" stroke-linecap="round" stroke-linejoin="round"/>
</svg>
