<svg width="48" height="48" viewBox="0 0 48 48" fill="none" xmlns="http://www.w3.org/2000/svg">
<path d="M43 1.00098H23C21.9391 1.00098 20.9217 1.4224 20.1716 2.17255C19.4214 2.92269 19 3.94011 19 5.00098V25.001C19 25.2662 19.1054 25.5205 19.2929 25.7081C19.4804 25.8956 19.7348 26.001 20 26.001C20.2085 26.0015 20.4119 25.9361 20.581 25.814L27.32 21.001H43C44.0609 21.001 45.0783 20.5795 45.8284 19.8294C46.5786 19.0793 47 18.0618 47 17.001V5.00098C47 3.94011 46.5786 2.92269 45.8284 2.17255C45.0783 1.4224 44.0609 1.00098 43 1.00098ZM32 15.001H26C25.7348 15.001 25.4804 14.8956 25.2929 14.7081C25.1054 14.5205 25 14.2662 25 14.001C25 13.7358 25.1054 13.4814 25.2929 13.2939C25.4804 13.1063 25.7348 13.001 26 13.001H32C32.2652 13.001 32.5196 13.1063 32.7071 13.2939C32.8946 13.4814 33 13.7358 33 14.001C33 14.2662 32.8946 14.5205 32.7071 14.7081C32.5196 14.8956 32.2652 15.001 32 15.001ZM40 9.00098H26C25.7348 9.00098 25.4804 8.89562 25.2929 8.70808C25.1054 8.52055 25 8.26619 25 8.00098C25 7.73576 25.1054 7.48141 25.2929 7.29387C25.4804 7.10633 25.7348 7.00098 26 7.00098H40C40.2652 7.00098 40.5196 7.10633 40.7071 7.29387C40.8946 7.48141 41 7.73576 41 8.00098C41 8.26619 40.8946 8.52055 40.7071 8.70808C40.5196 8.89562 40.2652 9.00098 40 9.00098Z" fill="white"/>
<path d="M31 23.001V39.001C31 39.2662 30.8946 39.5205 30.7071 39.7081C30.5196 39.8956 30.2652 40.001 30 40.001H7C6.73478 40.001 6.48043 39.8956 6.29289 39.7081C6.10536 39.5205 6 39.2662 6 39.001V11.001C6 10.7358 6.10536 10.4814 6.29289 10.2939C6.48043 10.1063 6.73478 10.001 7 10.001H17V5.00098H8C6.93913 5.00098 5.92172 5.4224 5.17157 6.17255C4.42143 6.92269 4 7.94011 4 9.00098V43.001C4 44.0618 4.42143 45.0793 5.17157 45.8294C5.92172 46.5795 6.93913 47.001 8 47.001H29C30.0609 47.001 31.0783 46.5795 31.8284 45.8294C32.5786 45.0793 33 44.0618 33 43.001V23.001H31Z" fill="white"/>
</svg>
