<svg width="48" height="48" viewBox="0 0 48 48" fill="none" xmlns="http://www.w3.org/2000/svg">
<rect width="48" height="48" rx="4" fill="white" fill-opacity="0.1"/>
<path d="M31.9013 35.74L30.7267 36.1595C26.3768 37.713 21.6232 37.713 17.2732 36.1595L16.0986 35.74C16.703 31.9203 20.0104 29 24 29C27.9895 29 31.297 31.9203 31.9013 35.74Z" fill="white"/>
<path d="M24 28C25.933 28 27.5 26.433 27.5 24.5C27.5 22.567 25.933 21 24 21C22.067 21 20.5 22.567 20.5 24.5C20.5 26.433 22.067 28 24 28Z" fill="white"/>
<path d="M24 15C25.933 15 27.5 13.433 27.5 11.5C27.5 9.567 25.933 8 24 8C22.067 8 20.5 9.567 20.5 11.5C20.5 13.433 22.067 15 24 15Z" fill="white"/>
<path d="M33.5 21.5C35.433 21.5 37 19.933 37 18C37 16.067 35.433 14.5 33.5 14.5C31.567 14.5 30 16.067 30 18C30 19.933 31.567 21.5 33.5 21.5Z" fill="white"/>
<path d="M14.5 21.5C16.433 21.5 18 19.933 18 18C18 16.067 16.433 14.5 14.5 14.5C12.567 14.5 11 16.067 11 18C11 19.933 12.567 21.5 14.5 21.5Z" fill="white"/>
</svg>
