<svg width="40" height="40" viewBox="0 0 40 40" fill="none" xmlns="http://www.w3.org/2000/svg">
<rect y="0.000854492" width="40" height="40" rx="4" fill="white" fill-opacity="0.1"/>
<path fill-rule="evenodd" clip-rule="evenodd" d="M28.5 9.00085H11.5V31.0009L14 29.1259L16 30.6259L18 29.1259L20 30.6259L22 29.1259L24 30.6259L26 29.1259L28.5 31.0009V9.00085ZM20 12.0009C18.067 12.0009 16.5 13.5679 16.5 15.5009C16.5 17.4339 18.067 19.0009 20 19.0009C21.933 19.0009 23.5 17.4339 23.5 15.5009C23.5 13.5679 21.933 12.0009 20 12.0009ZM15.5 22.5009V21.0009H20.5V22.5009H15.5ZM24.5 22.5009H22V21.0009H24.5V22.5009ZM18.5 25.5009V24.0009H15.5V25.5009H18.5Z" fill="white"/>
</svg>
