<svg width="48" height="48" viewBox="0 0 48 48" fill="none" xmlns="http://www.w3.org/2000/svg">
<rect width="48" height="48" rx="4" fill="white" fill-opacity="0.1"/>
<path fill-rule="evenodd" clip-rule="evenodd" d="M19.3752 14.0402L15.3752 18.0402L13.9609 16.626L17.9609 12.626L19.3752 14.0402Z" fill="white"/>
<path fill-rule="evenodd" clip-rule="evenodd" d="M25.293 18.0402L21.293 14.0402L22.7072 12.626L26.7072 16.626L25.293 18.0402Z" fill="white"/>
<path fill-rule="evenodd" clip-rule="evenodd" d="M34.0393 14.0402L30.0393 18.0402L28.625 16.626L32.625 12.626L34.0393 14.0402Z" fill="white"/>
<path fill-rule="evenodd" clip-rule="evenodd" d="M13 17.667C12.4477 17.667 12 18.1147 12 18.667C12 19.2193 12.4477 19.667 13 19.667C13.5523 19.667 14 19.2193 14 18.667C14 18.1147 13.5523 17.667 13 17.667ZM10 18.667C10 17.0101 11.3431 15.667 13 15.667C14.6569 15.667 16 17.0101 16 18.667C16 20.3239 14.6569 21.667 13 21.667C11.3431 21.667 10 20.3239 10 18.667Z" fill="white"/>
<path fill-rule="evenodd" clip-rule="evenodd" d="M27.668 17.667C27.1157 17.667 26.668 18.1147 26.668 18.667C26.668 19.2193 27.1157 19.667 27.668 19.667C28.2202 19.667 28.668 19.2193 28.668 18.667C28.668 18.1147 28.2202 17.667 27.668 17.667ZM24.668 18.667C24.668 17.0101 26.0111 15.667 27.668 15.667C29.3248 15.667 30.668 17.0101 30.668 18.667C30.668 20.3239 29.3248 21.667 27.668 21.667C26.0111 21.667 24.668 20.3239 24.668 18.667Z" fill="white"/>
<path fill-rule="evenodd" clip-rule="evenodd" d="M20.332 11C19.7798 11 19.332 11.4477 19.332 12C19.332 12.5523 19.7798 13 20.332 13C20.8843 13 21.332 12.5523 21.332 12C21.332 11.4477 20.8843 11 20.332 11ZM17.332 12C17.332 10.3431 18.6752 9 20.332 9C21.9889 9 23.332 10.3431 23.332 12C23.332 13.6569 21.9889 15 20.332 15C18.6752 15 17.332 13.6569 17.332 12Z" fill="white"/>
<path fill-rule="evenodd" clip-rule="evenodd" d="M35 11C34.4477 11 34 11.4477 34 12C34 12.5523 34.4477 13 35 13C35.5523 13 36 12.5523 36 12C36 11.4477 35.5523 11 35 11ZM32 12C32 10.3431 33.3431 9 35 9C36.6569 9 38 10.3431 38 12C38 13.6569 36.6569 15 35 15C33.3431 15 32 13.6569 32 12Z" fill="white"/>
<path d="M10.668 30.667H15.3346V37.3337H10.668V30.667Z" fill="white"/>
<path d="M25.332 30.667H29.9987V37.3337H25.332V30.667Z" fill="white"/>
<path d="M18 21.333H22.6667V37.333H18V21.333Z" fill="white"/>
<path d="M32.668 21.333H37.3346V37.333H32.668V21.333Z" fill="white"/>
</svg>
