<svg width="24" height="24" viewBox="0 0 24 24" fill="none" xmlns="http://www.w3.org/2000/svg">
<path d="M0.75 17.25V19.5C0.75 20.3284 1.42157 21 2.25 21H21.75C22.5784 21 23.25 20.3284 23.25 19.5V17.25H16.5C16.5 17.6642 16.1642 18 15.75 18H8.25C7.83577 18 7.5 17.6642 7.5 17.25H0.75Z" fill="white"/>
<path fill-rule="evenodd" clip-rule="evenodd" d="M14.25 6V15.75H12.75V6H14.25Z" fill="white"/>
<path fill-rule="evenodd" clip-rule="evenodd" d="M17.25 9.75V15.75H15.75V9.75H17.25Z" fill="white"/>
<path fill-rule="evenodd" clip-rule="evenodd" d="M11.25 9.75V15.75H9.75V9.75H11.25Z" fill="white"/>
<path fill-rule="evenodd" clip-rule="evenodd" d="M8.25 12.75V15.75H6.75V12.75H8.25Z" fill="white"/>
<path fill-rule="evenodd" clip-rule="evenodd" d="M2.25 5.25C2.25 3.59314 3.59314 2.25 5.25 2.25H18.75C20.4068 2.25 21.75 3.59314 21.75 5.25V15.75H20.25V5.25C20.25 4.42157 19.5784 3.75 18.75 3.75H5.25C4.42157 3.75 3.75 4.42157 3.75 5.25V15.75H2.25V5.25Z" fill="white"/>
</svg>
