<svg width="25" height="24" viewBox="0 0 25 24" fill="none" xmlns="http://www.w3.org/2000/svg">
<g clip-path="url(#clip0_4025_13777)">
<path fill-rule="evenodd" clip-rule="evenodd" d="M22.666 3C22.666 1.89543 21.7706 1 20.666 1H15.166C14.0615 1 13.166 1.89543 13.166 3V13C13.166 14.1046 14.0615 15 15.166 15H20.666C21.7706 15 22.666 14.1046 22.666 13V3ZM15.166 2.5H20.666C20.9422 2.5 21.166 2.72386 21.166 3V13C21.166 13.2761 20.9422 13.5 20.666 13.5H15.166C14.8899 13.5 14.666 13.2761 14.666 13V3C14.666 2.72386 14.8899 2.5 15.166 2.5Z" fill="white"/>
<path fill-rule="evenodd" clip-rule="evenodd" d="M16.416 4.125C16.416 3.77983 16.6958 3.5 17.041 3.5H18.791C19.1362 3.5 19.416 3.77982 19.416 4.125C19.416 4.47018 19.1362 4.75 18.791 4.75H17.041C16.6958 4.75 16.416 4.47018 16.416 4.125Z" fill="white"/>
<path d="M1.16602 16.5V18.5C1.16602 19.6045 2.06145 20.5 3.16602 20.5H22.166C23.2706 20.5 24.166 19.6045 24.166 18.5V16.5H16.666V17.5C16.666 17.7761 16.4422 18 16.166 18H9.16602C8.88987 18 8.66602 17.7761 8.66602 17.5V16.5H1.16602Z" fill="white"/>
<path d="M5.41602 2.5C3.62109 2.5 2.16602 3.95508 2.16602 5.75V15H3.66602V5.75C3.66602 4.7835 4.44952 4 5.41602 4H11.666V2.5H5.41602Z" fill="white"/>
</g>
<defs>
<clipPath id="clip0_4025_13777">
<rect width="24" height="24" fill="white" transform="translate(0.666016)"/>
</clipPath>
</defs>
</svg>
