<svg width="40" height="39" viewBox="0 0 40 39" fill="none" xmlns="http://www.w3.org/2000/svg">
<path d="M11 9V0H33.5V9" fill="white"/>
<path fill-rule="evenodd" clip-rule="evenodd" d="M0.5 8.25C0.5 5.3505 2.8505 3 5.75 3H8V6H5.75C4.50736 6 3.5 7.00736 3.5 8.25C3.5 9.49264 4.50736 10.5 5.75 10.5H35C37.4854 10.5 39.5 12.5147 39.5 15V34.5C39.5 36.9854 37.4854 39 35 39H5C2.51472 39 0.5 36.9854 0.5 34.5V8.25ZM36.5 31.5H31.7856C28.59 31.5 26 28.8139 26 25.5C26 22.1861 28.59 19.5 31.7856 19.5H36.5V31.5Z" fill="white"/>
</svg>
