<svg width="48" height="48" viewBox="0 0 48 48" fill="none" xmlns="http://www.w3.org/2000/svg">
<g clip-path="url(#clip0_3012_1579)">
<path d="M2.437 29.8551C1.737 29.8551 1.112 29.3641 0.967995 28.6521C-0.280005 22.4651 0.967995 16.1721 4.482 10.9301C4.943 10.2421 5.875 10.0581 6.563 10.5191C7.251 10.9801 7.435 11.9131 6.974 12.6001C3.909 17.1721 2.82 22.6621 3.908 28.0581C4.072 28.8701 3.546 29.6621 2.734 29.8261C2.634 29.8451 2.535 29.8551 2.437 29.8551Z" fill="white"/>
<path d="M8.91298 9.50088C8.51498 9.50088 8.11698 9.34288 7.82198 9.02988C7.25298 8.42688 7.28098 7.47788 7.88298 6.90988C11.071 3.90088 15.037 1.85188 19.352 0.980879C24.614 -0.0791206 29.916 0.649879 34.686 3.09088C35.423 3.46788 35.715 4.37188 35.338 5.10988C34.961 5.84788 34.057 6.14088 33.319 5.76088C29.16 3.63188 24.536 2.99588 19.945 3.92188C16.18 4.68088 12.721 6.46888 9.94198 9.09188C9.65198 9.36488 9.28198 9.50088 8.91298 9.50088Z" fill="white"/>
<path d="M45.549 21.1617C44.849 21.1617 44.224 20.6707 44.08 19.9587C43.153 15.3607 40.654 11.1887 37.044 8.21073C36.405 7.68373 36.315 6.73773 36.841 6.09873C37.368 5.45973 38.313 5.36873 38.953 5.89673C43.092 9.31173 45.957 14.0947 47.02 19.3657C47.184 20.1777 46.658 20.9697 45.846 21.1337C45.747 21.1517 45.647 21.1617 45.549 21.1617Z" fill="white"/>
<path d="M18.3169 46.7559C17.9649 46.7559 17.6119 46.6329 17.3269 46.3829C16.7049 45.8359 16.6429 44.8889 17.1899 44.2659C22.0299 38.7569 23.9759 31.4809 22.5289 24.3039C22.3649 23.4919 22.8909 22.6999 23.7029 22.5359C24.5139 22.3749 25.3059 22.8979 25.4699 23.7099C27.1039 31.8139 24.9079 40.0269 19.4439 46.2459C19.1479 46.5829 18.7329 46.7559 18.3169 46.7559Z" fill="white"/>
<path d="M24.695 47.4877C24.403 47.4877 24.109 47.4027 23.849 47.2257C23.165 46.7577 22.991 45.8247 23.458 45.1407C27.789 38.8117 29.586 30.0257 27.932 23.2777C27.341 20.8317 25.53 19.6087 23.201 20.0767C20.989 20.5227 19.648 22.5567 20.083 24.8087C21.463 31.9587 19.152 39.1617 13.901 44.0737C13.296 44.6397 12.346 44.6087 11.781 44.0027C11.215 43.3987 11.246 42.4487 11.851 41.8827C16.344 37.6797 18.321 31.5097 17.138 25.3777C16.394 21.5247 18.797 17.9037 22.609 17.1357C26.499 16.3577 29.886 18.5867 30.848 22.5687C32.692 30.0907 30.719 39.8447 25.935 46.8357C25.644 47.2597 25.174 47.4877 24.695 47.4877Z" fill="white"/>
<path d="M8.44197 41.0551C8.00697 41.0551 7.57697 40.8671 7.27997 40.5051C6.75497 39.8641 6.84897 38.9191 7.48997 38.3951C10.555 35.8841 12.229 32.0371 11.967 28.1011C11.912 27.2751 12.537 26.5601 13.364 26.5041C14.176 26.4561 14.905 27.0741 14.96 27.9011C15.287 32.8011 13.205 37.5911 9.38997 40.7141C9.11297 40.9431 8.77597 41.0551 8.44197 41.0551Z" fill="white"/>
<path d="M35.368 27.501C34.595 27.501 33.939 26.908 33.874 26.124C33.765 24.794 33.574 23.45 33.308 22.131C33.303 22.107 33.299 22.082 33.295 22.058C32.78 19.6 31.347 17.484 29.253 16.093C27.139 14.689 24.607 14.19 22.116 14.693C18.042 15.513 14.923 18.973 14.531 23.106C14.453 23.931 13.715 24.54 12.896 24.458C12.071 24.38 11.466 23.647 11.544 22.823C12.06 17.385 16.164 12.832 21.523 11.752C28.285 10.396 34.888 14.779 36.251 21.537C36.256 21.564 36.261 21.591 36.265 21.617C36.546 23.025 36.747 24.459 36.865 25.879C36.933 26.705 36.319 27.429 35.493 27.497C35.451 27.499 35.409 27.501 35.368 27.501Z" fill="white"/>
<path d="M31.883 46.035C31.662 46.035 31.439 45.986 31.227 45.884C30.482 45.521 30.173 44.623 30.536 43.878C32.527 39.792 33.67 35.43 33.934 30.914C33.982 30.086 34.684 29.447 35.519 29.504C36.346 29.552 36.977 30.262 36.929 31.088C36.642 36.002 35.399 40.747 33.233 45.192C32.973 45.726 32.438 46.035 31.883 46.035Z" fill="white"/>
<path d="M5.06795 36.7117C4.64195 36.7117 4.21895 36.5317 3.92195 36.1817C3.38595 35.5497 3.46495 34.6037 4.09695 34.0677C5.94395 32.5027 6.81395 30.0757 6.38795 27.7047C6.37395 27.6587 6.36195 27.6127 6.35295 27.5657C4.53595 18.5567 9.75995 9.65769 18.503 6.86769C19.291 6.61369 20.136 7.05069 20.388 7.84069C20.639 8.62969 20.204 9.47369 19.415 9.72569C12.179 12.0357 7.83695 19.3677 9.26395 26.8247C9.27895 26.8727 9.29095 26.9217 9.30095 26.9707C10.005 30.4577 8.75295 34.0547 6.03595 36.3577C5.75495 36.5947 5.40995 36.7117 5.06795 36.7117Z" fill="white"/>
<path d="M39.605 40.9978C39.477 40.9978 39.347 40.9818 39.218 40.9468C38.417 40.7338 37.942 39.9118 38.155 39.1108C39.729 33.2058 39.918 27.1568 38.715 21.1288C38.708 21.1008 38.701 21.0718 38.695 21.0438C37.288 14.0678 31.114 9.00781 24.012 9.00781C24.008 9.00781 24.004 9.00781 24 9.00781C23.172 9.00781 22.5 8.33681 22.5 7.50881C22.5 6.68081 23.17 6.00881 23.999 6.00781C24.003 6.00781 24.008 6.00781 24.013 6.00781C32.508 6.00781 39.895 12.0358 41.618 20.3608C41.626 20.3908 41.633 20.4218 41.639 20.4518C42.952 26.9648 42.755 33.5028 41.054 39.8858C40.875 40.5558 40.268 40.9978 39.605 40.9978Z" fill="white"/>
</g>
<defs>
<clipPath id="clip0_3012_1579">
<rect width="48" height="48" fill="white" transform="translate(0 0.000976562)"/>
</clipPath>
</defs>
</svg>
