<svg width="25" height="24" viewBox="0 0 25 24" fill="none" xmlns="http://www.w3.org/2000/svg">
<path d="M16.666 2.5C17.4945 2.5 18.166 3.17158 18.166 4V10.5H19.666V4C19.666 2.34315 18.3229 1 16.666 1H8.66602C7.00917 1 5.66602 2.34315 5.66602 4V20C5.66602 21.6568 7.00917 23 8.66602 23H14.416V21.5H8.66602C7.83757 21.5 7.16602 20.8284 7.16602 20V4C7.16602 3.17157 7.83762 2.5 8.66602 2.5H16.666Z" fill="white"/>
<path fill-rule="evenodd" clip-rule="evenodd" d="M10.666 4.25C10.666 3.83579 11.0018 3.5 11.416 3.5H13.916C14.3302 3.5 14.666 3.83579 14.666 4.25C14.666 4.66421 14.3302 5 13.916 5H11.416C11.0018 5 10.666 4.66421 10.666 4.25Z" fill="white"/>
<path fill-rule="evenodd" clip-rule="evenodd" d="M17.916 12.25C15.4468 12.25 13.416 14.1827 13.416 16.6012C13.416 19.0006 15.2926 20.9523 17.6479 22.5662L17.916 22.75L18.1842 22.5662C20.5394 20.9523 22.416 19.0006 22.416 16.6012C22.416 14.1827 20.3853 12.25 17.916 12.25ZM17.916 15.5C17.2257 15.5 16.666 16.0597 16.666 16.75C16.666 17.4403 17.2257 18 17.916 18C18.6064 18 19.166 17.4403 19.166 16.75C19.166 16.0597 18.6064 15.5 17.916 15.5Z" fill="white"/>
</svg>
