<svg width="20" height="20" viewBox="0 0 20 20" fill="none" xmlns="http://www.w3.org/2000/svg">
<path d="M14.4436 5.55382C14.4436 3.10271 12.4502 1.10938 9.99913 1.10938C7.54802 1.10938 5.55469 3.10271 5.55469 5.55382C5.55469 7.71937 7.11246 9.52271 9.1658 9.91382V14.7205C9.1658 15.1805 9.53913 15.5538 9.99913 15.5538C10.4591 15.5538 10.8325 15.1805 10.8325 14.7205V9.91382C12.8858 9.5216 14.4436 7.71937 14.4436 5.55382Z" fill="white"/>
<path d="M9.99826 18.8888C6.69715 18.8888 1.10938 18.2454 1.10938 15.8332C1.10938 14.0432 4.07382 13.2954 6.5616 12.9832C7.01604 12.9254 7.43493 13.2499 7.4916 13.7066C7.54938 14.1632 7.22493 14.5799 6.76826 14.6366C4.25271 14.9532 3.07715 15.5388 2.81049 15.8343C3.21604 16.2943 5.59049 17.2232 9.99715 17.2232C14.4038 17.2232 16.7783 16.2943 17.1838 15.8343C16.9172 15.5388 15.7427 14.9532 13.226 14.6366C12.7694 14.5788 12.4449 14.1621 12.5027 13.7066C12.5605 13.2499 12.9805 12.9254 13.4327 12.9832C15.9205 13.2954 18.8849 14.0443 18.8849 15.8332C18.8849 18.2454 13.2972 18.8888 9.99604 18.8888H9.99826Z" fill="white"/>
</svg>
