<svg width="16" height="16" viewBox="0 0 16 16" fill="none" xmlns="http://www.w3.org/2000/svg">
<path d="M7.9987 0.335938C5.21336 0.335938 2.33203 2.4556 2.33203 6.0026C2.33203 9.76427 7.54103 15.0166 7.76303 15.2383C7.82536 15.3009 7.91036 15.3359 7.9987 15.3359C8.08703 15.3359 8.17203 15.3009 8.23436 15.2383C8.45637 15.0166 13.6654 9.76427 13.6654 6.0026C13.6654 2.4556 10.784 0.335938 7.9987 0.335938ZM7.9987 8.0026C6.8957 8.0026 5.9987 7.1056 5.9987 6.0026C5.9987 4.8996 6.8957 4.0026 7.9987 4.0026C9.1017 4.0026 9.9987 4.8996 9.9987 6.0026C9.9987 7.1056 9.1017 8.0026 7.9987 8.0026Z" fill="white"/>
</svg>
