<svg width="48" height="48" viewBox="0 0 48 48" fill="none" xmlns="http://www.w3.org/2000/svg">
<rect width="48" height="48" rx="4" fill="white" fill-opacity="0.1"/>
<path d="M24 8.96875L11 12.2188V24.9998C11 34.6097 23.166 38.7757 23.684 38.9487L24 39.0538L24.316 38.9487C24.834 38.7757 37 34.6108 37 24.9998V12.2188L24 8.96875ZM30 27.9998C30 29.1028 29.103 29.9998 28 29.9998H20C18.897 29.9998 18 29.1028 18 27.9998V23.9998C18 22.8968 18.897 21.9998 20 21.9998V18.9998C20 16.7937 21.794 14.9998 24 14.9998C26.206 14.9998 28 16.7937 28 18.9998V21.9998C29.103 21.9998 30 22.8968 30 23.9998V27.9998Z" fill="white"/>
<path d="M26 19C26 17.897 25.103 17 24 17C22.897 17 22 17.897 22 19V22H26V19Z" fill="white"/>
</svg>
