<svg width="110" height="28" viewBox="0 0 110 28" fill="none" xmlns="http://www.w3.org/2000/svg">
<path d="M27.9886 11.7018C27.4461 8.46236 25.7747 5.51551 23.2667 3.3766C20.7588 1.2377 17.5739 0.0428955 14.2691 0.001133C10.9642 -0.0406295 7.74981 1.07331 5.18793 3.14815C2.62605 5.22298 0.879765 8.12665 0.254478 11.3514C-0.370808 14.5761 0.164698 17.9166 1.76735 20.7886C3.37 23.6607 5.93778 25.8816 9.02165 27.0629C12.1055 28.2442 15.5092 28.3107 18.6374 27.2508C21.7656 26.1909 24.4193 24.072 26.1343 21.2647L21.3165 18.3588C20.2875 20.0432 18.6953 21.3145 16.8184 21.9505C14.9415 22.5864 12.8993 22.5465 11.0489 21.8377C9.19862 21.129 7.65795 19.7964 6.69636 18.0732C5.73477 16.3499 5.41347 14.3456 5.78864 12.4108C6.16381 10.476 7.21158 8.73379 8.74871 7.48889C10.2858 6.24399 12.2145 5.57562 14.1974 5.60068C16.1803 5.62574 18.0912 6.34262 19.596 7.62596C21.1007 8.9093 22.1036 10.6774 22.4291 12.6211L27.9886 11.7018Z" fill="url(#paint0_angular_423_2349)"/>
<path d="M13.8746 11.0168L27.7671 11.506C28.0268 11.5151 28.0887 11.8708 27.8471 11.966L15.0788 16.9971C14.821 17.1201 14.5419 17.2102 14.2461 17.261C12.5225 17.5573 10.8835 16.4091 10.5853 14.6965C10.2872 12.9839 11.4427 11.3554 13.1663 11.0591C13.3188 11.0329 13.4706 11.018 13.6209 11.0138L13.6198 11.0078L13.7686 11.0131C13.804 11.0137 13.8393 11.015 13.8746 11.0168Z" fill="#08090A"/>
<path d="M36.3286 21C35.3776 21 34.5353 20.7822 33.802 20.3466C33.0801 19.9111 32.5129 19.32 32.1004 18.5733C31.6993 17.8142 31.4988 16.9493 31.4988 15.9786C31.4988 15.2071 31.6134 14.504 31.8425 13.8693C32.0717 13.2346 32.3868 12.6871 32.7879 12.2267C33.2004 11.7538 33.6874 11.3929 34.2489 11.144C34.8218 10.8827 35.4463 10.752 36.1224 10.752C36.7182 10.752 37.274 10.8764 37.7896 11.1253C38.3053 11.3742 38.7521 11.7164 39.1303 12.152C39.5084 12.5751 39.7949 13.0853 39.9897 13.6826C40.1959 14.2675 40.2933 14.9084 40.2819 15.6053L40.2647 16.408H32.9254L32.5301 14.84H38.4943L38.2193 15.1573V14.7466C38.1849 14.3609 38.0703 14.0249 37.8756 13.7386C37.6808 13.44 37.4287 13.2098 37.1193 13.048C36.8213 12.8738 36.489 12.7867 36.1224 12.7867C35.5609 12.7867 35.0854 12.9049 34.6958 13.1413C34.3176 13.3778 34.0312 13.72 33.8364 14.168C33.6416 14.6035 33.5442 15.1511 33.5442 15.8106C33.5442 16.4453 33.6645 16.9991 33.9051 17.472C34.1572 17.9449 34.5067 18.312 34.9536 18.5733C35.4119 18.8222 35.9448 18.9466 36.5521 18.9466C36.976 18.9466 37.3656 18.872 37.7209 18.7226C38.0761 18.5733 38.4599 18.3057 38.8725 17.92L39.9209 19.5066C39.6115 19.8177 39.2563 20.0853 38.8553 20.3093C38.4657 20.5209 38.0532 20.6889 37.6177 20.8133C37.1823 20.9377 36.7526 21 36.3286 21Z" fill="#08090A"/>
<path d="M42.9793 20.8133V10.0987C42.9793 9.50133 43.0996 8.97244 43.3403 8.512C43.5809 8.03911 43.9132 7.672 44.3372 7.41066C44.7612 7.13689 45.2539 7 45.8154 7C46.205 7 46.5659 7.07467 46.8982 7.224C47.2305 7.36089 47.5112 7.55378 47.7404 7.80266L47.0873 9.53866C46.9383 9.40177 46.7779 9.29599 46.606 9.22133C46.4456 9.14666 46.2909 9.10933 46.1419 9.10933C45.9128 9.10933 45.718 9.15288 45.5575 9.23999C45.4086 9.31466 45.294 9.43288 45.2138 9.59466C45.145 9.75644 45.1106 9.94933 45.1106 10.1733V20.8133H44.045C43.8387 20.8133 43.6439 20.8133 43.4606 20.8133C43.2887 20.8133 43.1283 20.8133 42.9793 20.8133ZM41.5699 13.1973V11.1813H47.156V13.1973H41.5699ZM49.7342 20.8133V10.0987C49.7342 9.50133 49.8546 8.97244 50.0952 8.512C50.3358 8.03911 50.6681 7.672 51.0921 7.41066C51.5161 7.13689 52.0088 7 52.5703 7C52.9599 7 53.3208 7.07467 53.6531 7.224C53.9854 7.36089 54.2662 7.55378 54.4953 7.80266L53.8422 9.53866C53.6932 9.40177 53.5328 9.29599 53.3609 9.22133C53.2005 9.14666 53.0458 9.10933 52.8968 9.10933C52.6677 9.10933 52.4729 9.15288 52.3124 9.23999C52.1635 9.31466 52.0489 9.43288 51.9687 9.59466C51.8999 9.75644 51.8656 9.94933 51.8656 10.1733V20.8133H50.7999C50.5936 20.8133 50.3988 20.8133 50.2155 20.8133C50.0436 20.8133 49.8832 20.8133 49.7342 20.8133ZM48.3248 13.1973V11.1813H53.9109V13.1973H48.3248Z" fill="#08090A"/>
<path d="M59.473 21C58.5678 21 57.7599 20.7822 57.0495 20.3466C56.3391 19.8986 55.7776 19.2889 55.3651 18.5173C54.9526 17.7457 54.7463 16.8684 54.7463 15.8853C54.7463 14.9022 54.9526 14.0249 55.3651 13.2533C55.7776 12.4818 56.3391 11.8782 57.0495 11.4427C57.7599 10.9947 58.5678 10.7707 59.473 10.7707C60.3668 10.7707 61.1689 10.9947 61.8794 11.4427C62.5898 11.8782 63.1455 12.4818 63.5466 13.2533C63.9591 14.0249 64.1654 14.9022 64.1654 15.8853C64.1654 16.8684 63.9591 17.7457 63.5466 18.5173C63.1455 19.2889 62.5898 19.8986 61.8794 20.3466C61.1689 20.7822 60.3668 21 59.473 21ZM59.473 18.9653C59.9657 18.9653 60.4012 18.8284 60.7793 18.5546C61.1689 18.2809 61.4726 17.9137 61.6903 17.4533C61.9195 16.9929 62.0283 16.4702 62.0169 15.8853C62.0283 15.288 61.9195 14.7591 61.6903 14.2986C61.4726 13.8382 61.1689 13.4773 60.7793 13.216C60.4012 12.9422 59.9657 12.8053 59.473 12.8053C58.9803 12.8053 58.5334 12.9422 58.1324 13.216C57.7428 13.4773 57.4391 13.8444 57.2214 14.3173C57.0037 14.7778 56.8948 15.3004 56.8948 15.8853C56.8948 16.4702 57.0037 16.9929 57.2214 17.4533C57.4391 17.9137 57.7428 18.2809 58.1324 18.5546C58.5334 18.8284 58.9803 18.9653 59.473 18.9653Z" fill="#08090A"/>
<path d="M66.0564 20.8133V10.976H68.1362L68.1706 14.112L67.8784 13.4026C68.0044 12.9049 68.2221 12.4569 68.5315 12.0587C68.8409 11.6604 69.1961 11.3493 69.5972 11.1253C70.0097 10.8889 70.4394 10.7707 70.8863 10.7707C71.0811 10.7707 71.2644 10.7893 71.4363 10.8267C71.6197 10.864 71.7686 10.9075 71.8832 10.9573L71.316 13.4773C71.1899 13.4026 71.0353 13.3404 70.8519 13.2906C70.6686 13.2409 70.4852 13.216 70.3019 13.216C70.0154 13.216 69.7404 13.2782 69.4769 13.4026C69.2248 13.5146 69.0013 13.6764 68.8065 13.888C68.6117 14.0995 68.4571 14.3484 68.3425 14.6346C68.2393 14.9084 68.1878 15.2195 68.1878 15.568V20.8133H66.0564Z" fill="#08090A"/>
<path d="M74.6063 20.8133V8.47466H76.7204V20.8133H74.6063ZM72.8187 13.104V10.976H78.6971V13.104H72.8187Z" fill="#08090A"/>
<path d="M80.3243 20.8133V7H82.4556V20.8133H80.3243Z" fill="#08090A"/>
<path d="M89.0174 21C88.0663 21 87.2241 20.7822 86.4908 20.3466C85.7689 19.9111 85.2017 19.32 84.7892 18.5733C84.3881 17.8142 84.1876 16.9493 84.1876 15.9786C84.1876 15.2071 84.3022 14.504 84.5313 13.8693C84.7605 13.2346 85.0756 12.6871 85.4767 12.2267C85.8892 11.7538 86.3762 11.3929 86.9377 11.144C87.5106 10.8827 88.1351 10.752 88.8112 10.752C89.407 10.752 89.9628 10.8764 90.4784 11.1253C90.994 11.3742 91.4409 11.7164 91.8191 12.152C92.1972 12.5751 92.4837 13.0853 92.6785 13.6826C92.8847 14.2675 92.9821 14.9084 92.9707 15.6053L92.9535 16.408H85.6142L85.2189 14.84H91.1831L90.9081 15.1573V14.7466C90.8737 14.3609 90.7591 14.0249 90.5643 13.7386C90.3695 13.44 90.1175 13.2098 89.8081 13.048C89.5101 12.8738 89.1778 12.7867 88.8112 12.7867C88.2497 12.7867 87.7742 12.9049 87.3846 13.1413C87.0064 13.3778 86.72 13.72 86.5252 14.168C86.3304 14.6035 86.233 15.1511 86.233 15.8106C86.233 16.4453 86.3533 16.9991 86.5939 17.472C86.846 17.9449 87.1955 18.312 87.6424 18.5733C88.1007 18.8222 88.6336 18.9466 89.2409 18.9466C89.6648 18.9466 90.0544 18.872 90.4097 18.7226C90.7649 18.5733 91.1487 18.3057 91.5613 17.92L92.6097 19.5066C92.3003 19.8177 91.9451 20.0853 91.5441 20.3093C91.1545 20.5209 90.742 20.6889 90.3065 20.8133C89.8711 20.9377 89.4414 21 89.0174 21Z" fill="#08090A"/>
<path d="M97.8682 21C97.0661 21 96.3442 20.8569 95.7025 20.5706C95.0723 20.272 94.5566 19.8489 94.1556 19.3013L95.5306 18.0133C95.8744 18.4364 96.2582 18.7413 96.6822 18.928C97.1062 19.1146 97.5531 19.208 98.0229 19.208C98.2177 19.208 98.3896 19.1831 98.5385 19.1333C98.699 19.0835 98.8365 19.0089 98.951 18.9093C99.0656 18.8097 99.1516 18.6977 99.2089 18.5733C99.2776 18.4364 99.312 18.2871 99.312 18.1253C99.312 17.8266 99.2089 17.5902 99.0026 17.416C98.888 17.3289 98.7047 17.2355 98.4526 17.136C98.212 17.0364 97.8968 16.9369 97.5072 16.8373C96.8885 16.6631 96.3728 16.464 95.9603 16.24C95.5478 16.0035 95.227 15.7422 94.9978 15.456C94.803 15.2195 94.654 14.952 94.5509 14.6533C94.4592 14.3546 94.4134 14.0311 94.4134 13.6826C94.4134 13.2471 94.4993 12.8551 94.6712 12.5067C94.8546 12.1458 95.1009 11.8347 95.4103 11.5733C95.7197 11.312 96.0806 11.1129 96.4931 10.976C96.9057 10.8391 97.3354 10.7707 97.7823 10.7707C98.2406 10.7707 98.6818 10.8329 99.1057 10.9573C99.5412 11.0818 99.9422 11.2622 100.309 11.4987C100.687 11.7227 101.008 11.9964 101.271 12.32L100.103 13.72C99.8849 13.496 99.6443 13.2969 99.3807 13.1226C99.1287 12.9484 98.8708 12.8115 98.6073 12.712C98.3437 12.6 98.0974 12.544 97.8682 12.544C97.6505 12.544 97.4557 12.5689 97.2838 12.6187C97.1119 12.656 96.9687 12.7182 96.8541 12.8053C96.7395 12.8924 96.6479 13.0044 96.5791 13.1413C96.5218 13.2658 96.4931 13.4151 96.4931 13.5893C96.5046 13.7386 96.539 13.8818 96.5963 14.0186C96.665 14.1431 96.7567 14.2489 96.8713 14.336C96.9973 14.4231 97.1864 14.5226 97.4385 14.6346C97.6906 14.7466 98.0172 14.8524 98.4182 14.952C98.9797 15.1138 99.4495 15.2942 99.8276 15.4933C100.206 15.6924 100.504 15.9226 100.721 16.184C100.939 16.408 101.094 16.6693 101.185 16.968C101.277 17.2666 101.323 17.5964 101.323 17.9573C101.323 18.5422 101.168 19.0649 100.859 19.5253C100.561 19.9857 100.148 20.3466 99.6214 20.608C99.1057 20.8693 98.5213 21 97.8682 21Z" fill="#08090A"/>
<path d="M106.21 21C105.408 21 104.686 20.8569 104.045 20.5706C103.415 20.272 102.899 19.8489 102.498 19.3013L103.873 18.0133C104.217 18.4364 104.601 18.7413 105.024 18.928C105.448 19.1146 105.895 19.208 106.365 19.208C106.56 19.208 106.732 19.1831 106.881 19.1333C107.041 19.0835 107.179 19.0089 107.293 18.9093C107.408 18.8097 107.494 18.6977 107.551 18.5733C107.62 18.4364 107.654 18.2871 107.654 18.1253C107.654 17.8266 107.551 17.5902 107.345 17.416C107.23 17.3289 107.047 17.2355 106.795 17.136C106.554 17.0364 106.239 16.9369 105.849 16.8373C105.231 16.6631 104.715 16.464 104.303 16.24C103.89 16.0035 103.569 15.7422 103.34 15.456C103.145 15.2195 102.996 14.952 102.893 14.6533C102.801 14.3546 102.756 14.0311 102.756 13.6826C102.756 13.2471 102.842 12.8551 103.013 12.5067C103.197 12.1458 103.443 11.8347 103.753 11.5733C104.062 11.312 104.423 11.1129 104.835 10.976C105.248 10.8391 105.678 10.7707 106.125 10.7707C106.583 10.7707 107.024 10.8329 107.448 10.9573C107.883 11.0818 108.284 11.2622 108.651 11.4987C109.029 11.7227 109.35 11.9964 109.614 12.32L108.445 13.72C108.227 13.496 107.987 13.2969 107.723 13.1226C107.471 12.9484 107.213 12.8115 106.95 12.712C106.686 12.6 106.44 12.544 106.21 12.544C105.993 12.544 105.798 12.5689 105.626 12.6187C105.454 12.656 105.311 12.7182 105.196 12.8053C105.082 12.8924 104.99 13.0044 104.921 13.1413C104.864 13.2658 104.835 13.4151 104.835 13.5893C104.847 13.7386 104.881 13.8818 104.939 14.0186C105.007 14.1431 105.099 14.2489 105.214 14.336C105.34 14.4231 105.529 14.5226 105.781 14.6346C106.033 14.7466 106.359 14.8524 106.76 14.952C107.322 15.1138 107.792 15.2942 108.17 15.4933C108.548 15.6924 108.846 15.9226 109.064 16.184C109.281 16.408 109.436 16.6693 109.528 16.968C109.619 17.2666 109.665 17.5964 109.665 17.9573C109.665 18.5422 109.511 19.0649 109.201 19.5253C108.903 19.9857 108.491 20.3466 107.964 20.608C107.448 20.8693 106.864 21 106.21 21Z" fill="#08090A"/>
<defs>
<radialGradient id="paint0_angular_423_2349" cx="0" cy="0" r="1" gradientUnits="userSpaceOnUse" gradientTransform="translate(13.7527 13.9707) rotate(35.8821) scale(30.7158 30.6546)">
<stop offset="0.369792" stop-color="#F08B32"/>
<stop offset="0.744792" stop-color="#F08B32"/>
<stop offset="0.989583" stop-color="#F08B32" stop-opacity="0"/>
</radialGradient>
</defs>
</svg>
