<svg width="149" height="38" viewBox="0 0 149 38" fill="none" xmlns="http://www.w3.org/2000/svg">
<path d="M37.9845 15.8811C37.2482 11.4846 34.9799 7.48533 31.5762 4.58253C28.1726 1.67974 23.8503 0.0582153 19.3652 0.00153764C14.88 -0.0551401 10.5176 1.45664 7.04076 4.27248C3.56392 7.08833 1.19397 11.029 0.345364 15.4054C-0.50324 19.7818 0.223519 24.3153 2.39854 28.2132C4.57357 32.111 8.05842 35.1251 12.2437 36.7282C16.4289 38.3314 21.0482 38.4217 25.2936 36.9832C29.539 35.5447 33.1404 32.6691 35.468 28.8593L28.9296 24.9156C27.5331 27.2015 25.3722 28.9268 22.825 29.7899C20.2777 30.653 17.5061 30.5988 14.995 29.6369C12.4838 28.675 10.3929 26.8666 9.08792 24.5279C7.7829 22.1892 7.34685 19.4691 7.85601 16.8432C8.36517 14.2174 9.78714 11.853 11.8733 10.1635C13.9594 8.47398 16.5768 7.56692 19.2679 7.60092C21.959 7.63493 24.5524 8.60784 26.5945 10.3495C28.6367 12.0912 29.9977 14.4908 30.4395 17.1286L37.9845 15.8811Z" fill="url(#paint0_angular_418_1154)"/>
<path d="M18.8298 14.9516L37.684 15.6155C38.0365 15.6279 38.1204 16.1106 37.7925 16.2398L20.4642 23.0678C20.1142 23.2347 19.7355 23.357 19.3341 23.426C16.9949 23.8281 14.7705 22.2698 14.3659 19.9455C13.9612 17.6213 15.5294 15.4111 17.8686 15.009C18.0756 14.9735 18.2816 14.9532 18.4855 14.9475L18.484 14.9395L18.686 14.9466C18.7341 14.9475 18.782 14.9491 18.8298 14.9516Z" fill="#DDDDDD"/>
<path d="M49.3032 28.4999C48.0125 28.4999 46.8695 28.2044 45.8742 27.6133C44.8945 27.0222 44.1247 26.22 43.5648 25.2066C43.0206 24.1764 42.7484 23.0026 42.7484 21.6853C42.7484 20.6382 42.9039 19.684 43.2149 18.8226C43.526 17.9613 43.9536 17.2182 44.4979 16.5933C45.0578 15.9515 45.7187 15.4618 46.4807 15.124C47.2582 14.7693 48.1058 14.592 49.0233 14.592C49.8319 14.592 50.5862 14.7609 51.286 15.0987C51.9858 15.4364 52.5923 15.9009 53.1054 16.492C53.6186 17.0662 54.0074 17.7586 54.2718 18.5693C54.5517 19.3631 54.6839 20.2329 54.6683 21.1786L54.645 22.268H44.6845L44.148 20.14H52.2424L51.8691 20.5706V20.0133C51.8225 19.4898 51.667 19.0338 51.4026 18.6453C51.1382 18.24 50.7961 17.9275 50.3762 17.708C49.9719 17.4715 49.5209 17.3533 49.0233 17.3533C48.2613 17.3533 47.6159 17.5138 47.0872 17.8346C46.574 18.1555 46.1852 18.62 45.9208 19.228C45.6565 19.8191 45.5243 20.5622 45.5243 21.4573C45.5243 22.3186 45.6876 23.0702 46.0141 23.712C46.3563 24.3537 46.8306 24.852 47.4371 25.2066C48.0591 25.5444 48.7822 25.7133 49.6064 25.7133C50.1818 25.7133 50.7106 25.612 51.1927 25.4093C51.6747 25.2066 52.1957 24.8435 52.7555 24.32L54.1785 26.4733C53.7586 26.8955 53.2765 27.2586 52.7322 27.5626C52.2035 27.8497 51.6436 28.0777 51.0527 28.2466C50.4618 28.4155 49.8786 28.4999 49.3032 28.4999Z" fill="white"/>
<path d="M58.3292 28.2466V13.7053C58.3292 12.8947 58.4924 12.1769 58.819 11.552C59.1456 10.9102 59.5966 10.412 60.172 10.0573C60.7474 9.68578 61.4161 9.5 62.1781 9.5C62.7068 9.5 63.1967 9.60133 63.6476 9.804C64.0986 9.98978 64.4796 10.2516 64.7906 10.5893L63.9042 12.9453C63.7021 12.7595 63.4844 12.616 63.2511 12.5147C63.0334 12.4133 62.8234 12.3627 62.6213 12.3627C62.3102 12.3627 62.0459 12.4218 61.8282 12.54C61.626 12.6413 61.4705 12.8018 61.3616 13.0213C61.2683 13.2409 61.2217 13.5027 61.2217 13.8067V28.2466H59.7754C59.4955 28.2466 59.2311 28.2466 58.9823 28.2466C58.749 28.2466 58.5313 28.2466 58.3292 28.2466ZM56.4164 17.9106V15.1747H63.9975V17.9106H56.4164ZM67.4965 28.2466V13.7053C67.4965 12.8947 67.6598 12.1769 67.9864 11.552C68.313 10.9102 68.7639 10.412 69.3393 10.0573C69.9147 9.68578 70.5834 9.5 71.3454 9.5C71.8742 9.5 72.364 9.60133 72.815 9.804C73.266 9.98978 73.647 10.2516 73.958 10.5893L73.0716 12.9453C72.8694 12.7595 72.6517 12.616 72.4185 12.5147C72.2007 12.4133 71.9908 12.3627 71.7886 12.3627C71.4776 12.3627 71.2132 12.4218 70.9955 12.54C70.7934 12.6413 70.6379 12.8018 70.529 13.0213C70.4357 13.2409 70.389 13.5027 70.389 13.8067V28.2466H68.9428C68.6629 28.2466 68.3985 28.2466 68.1497 28.2466C67.9164 28.2466 67.6987 28.2466 67.4965 28.2466ZM65.5837 17.9106V15.1747H73.1649V17.9106H65.5837Z" fill="white"/>
<path d="M80.7134 28.4999C79.4849 28.4999 78.3886 28.2044 77.4244 27.6133C76.4602 27.0053 75.6982 26.1777 75.1384 25.1306C74.5785 24.0835 74.2986 22.8929 74.2986 21.5586C74.2986 20.2244 74.5785 19.0338 75.1384 17.9866C75.6982 16.9395 76.4602 16.1204 77.4244 15.5293C78.3886 14.9213 79.4849 14.6173 80.7134 14.6173C81.9264 14.6173 83.015 14.9213 83.9792 15.5293C84.9434 16.1204 85.6976 16.9395 86.2419 17.9866C86.8017 19.0338 87.0816 20.2244 87.0816 21.5586C87.0816 22.8929 86.8017 24.0835 86.2419 25.1306C85.6976 26.1777 84.9434 27.0053 83.9792 27.6133C83.015 28.2044 81.9264 28.4999 80.7134 28.4999ZM80.7134 25.7386C81.3821 25.7386 81.9731 25.5528 82.4863 25.1813C83.015 24.8097 83.4271 24.3115 83.7226 23.6866C84.0336 23.0617 84.1813 22.3524 84.1658 21.5586C84.1813 20.748 84.0336 20.0302 83.7226 19.4053C83.4271 18.7804 83.015 18.2906 82.4863 17.936C81.9731 17.5644 81.3821 17.3786 80.7134 17.3786C80.0448 17.3786 79.4383 17.5644 78.894 17.936C78.3652 18.2906 77.9531 18.7889 77.6577 19.4306C77.3622 20.0555 77.2145 20.7649 77.2145 21.5586C77.2145 22.3524 77.3622 23.0617 77.6577 23.6866C77.9531 24.3115 78.3652 24.8097 78.894 25.1813C79.4383 25.5528 80.0448 25.7386 80.7134 25.7386Z" fill="white"/>
<path d="M89.6481 28.2466V14.896H92.4706L92.5173 19.152L92.1207 18.1893C92.2918 17.5138 92.5873 16.9058 93.0071 16.3653C93.427 15.8249 93.9091 15.4027 94.4534 15.0987C95.0132 14.7778 95.5964 14.6173 96.2029 14.6173C96.4673 14.6173 96.7161 14.6427 96.9493 14.6933C97.1982 14.744 97.4003 14.8031 97.5558 14.8707L96.7861 18.2906C96.615 18.1893 96.4051 18.1049 96.1562 18.0373C95.9074 17.9698 95.6586 17.936 95.4098 17.936C95.021 17.936 94.6478 18.0204 94.2901 18.1893C93.948 18.3413 93.6447 18.5609 93.3804 18.848C93.116 19.1351 92.9061 19.4729 92.7505 19.8613C92.6106 20.2329 92.5406 20.6551 92.5406 21.128V28.2466H89.6481Z" fill="white"/>
<path d="M101.251 28.2466V11.5013H104.121V28.2466H101.251ZM98.8255 17.784V14.896H106.803V17.784H98.8255Z" fill="white"/>
<path d="M109.012 28.2466V9.5H111.904V28.2466H109.012Z" fill="white"/>
<path d="M120.809 28.4999C119.519 28.4999 118.376 28.2044 117.38 27.6133C116.401 27.0222 115.631 26.22 115.071 25.2066C114.527 24.1764 114.255 23.0026 114.255 21.6853C114.255 20.6382 114.41 19.684 114.721 18.8226C115.032 17.9613 115.46 17.2182 116.004 16.5933C116.564 15.9515 117.225 15.4618 117.987 15.124C118.764 14.7693 119.612 14.592 120.529 14.592C121.338 14.592 122.092 14.7609 122.792 15.0987C123.492 15.4364 124.098 15.9009 124.612 16.492C125.125 17.0662 125.514 17.7586 125.778 18.5693C126.058 19.3631 126.19 20.2329 126.175 21.1786L126.151 22.268H116.191L115.654 20.14H123.749L123.375 20.5706V20.0133C123.329 19.4898 123.173 19.0338 122.909 18.6453C122.644 18.24 122.302 17.9275 121.882 17.708C121.478 17.4715 121.027 17.3533 120.529 17.3533C119.767 17.3533 119.122 17.5138 118.593 17.8346C118.08 18.1555 117.691 18.62 117.427 19.228C117.163 19.8191 117.03 20.5622 117.03 21.4573C117.03 22.3186 117.194 23.0702 117.52 23.712C117.862 24.3537 118.337 24.852 118.943 25.2066C119.565 25.5444 120.288 25.7133 121.113 25.7133C121.688 25.7133 122.217 25.612 122.699 25.4093C123.181 25.2066 123.702 24.8435 124.262 24.32L125.685 26.4733C125.265 26.8955 124.783 27.2586 124.238 27.5626C123.71 27.8497 123.15 28.0777 122.559 28.2466C121.968 28.4155 121.385 28.4999 120.809 28.4999Z" fill="white"/>
<path d="M132.821 28.4999C131.733 28.4999 130.753 28.3057 129.882 27.9173C129.027 27.512 128.327 26.9377 127.783 26.1946L129.649 24.4466C130.115 25.0208 130.636 25.4346 131.212 25.688C131.787 25.9413 132.394 26.068 133.031 26.068C133.295 26.068 133.529 26.0342 133.731 25.9666C133.949 25.8991 134.135 25.7977 134.291 25.6626C134.446 25.5275 134.563 25.3755 134.641 25.2066C134.734 25.0208 134.781 24.8182 134.781 24.5986C134.781 24.1933 134.641 23.8724 134.361 23.636C134.205 23.5177 133.956 23.3911 133.614 23.256C133.288 23.1209 132.86 22.9857 132.331 22.8506C131.492 22.6142 130.792 22.344 130.232 22.04C129.672 21.7191 129.237 21.3644 128.926 20.976C128.661 20.6551 128.459 20.292 128.319 19.8866C128.195 19.4813 128.133 19.0422 128.133 18.5693C128.133 17.9782 128.249 17.4462 128.482 16.9733C128.731 16.4835 129.066 16.0613 129.485 15.7066C129.905 15.352 130.395 15.0818 130.955 14.896C131.515 14.7102 132.098 14.6173 132.705 14.6173C133.327 14.6173 133.925 14.7018 134.501 14.8707C135.092 15.0395 135.636 15.2844 136.134 15.6053C136.647 15.9093 137.082 16.2809 137.44 16.72L135.854 18.62C135.558 18.316 135.232 18.0458 134.874 17.8093C134.532 17.5729 134.182 17.3871 133.824 17.252C133.467 17.1 133.132 17.024 132.821 17.024C132.526 17.024 132.261 17.0578 132.028 17.1253C131.795 17.176 131.6 17.2604 131.445 17.3786C131.289 17.4969 131.165 17.6489 131.072 17.8346C130.994 18.0035 130.955 18.2062 130.955 18.4426C130.971 18.6453 131.017 18.8395 131.095 19.0253C131.188 19.1942 131.313 19.3378 131.468 19.456C131.639 19.5742 131.896 19.7093 132.238 19.8613C132.58 20.0133 133.023 20.1569 133.568 20.292C134.33 20.5115 134.967 20.7564 135.48 21.0266C135.994 21.2969 136.398 21.6093 136.693 21.964C136.989 22.268 137.199 22.6226 137.323 23.028C137.448 23.4333 137.51 23.8809 137.51 24.3706C137.51 25.1644 137.3 25.8737 136.88 26.4986C136.476 27.1235 135.916 27.6133 135.201 27.968C134.501 28.3226 133.708 28.4999 132.821 28.4999Z" fill="white"/>
<path d="M144.143 28.4999C143.054 28.4999 142.075 28.3057 141.204 27.9173C140.348 27.512 139.649 26.9377 139.104 26.1946L140.97 24.4466C141.437 25.0208 141.958 25.4346 142.533 25.688C143.109 25.9413 143.715 26.068 144.353 26.068C144.617 26.068 144.85 26.0342 145.053 25.9666C145.27 25.8991 145.457 25.7977 145.612 25.6626C145.768 25.5275 145.885 25.3755 145.962 25.2066C146.056 25.0208 146.102 24.8182 146.102 24.5986C146.102 24.1933 145.962 23.8724 145.682 23.636C145.527 23.5177 145.278 23.3911 144.936 23.256C144.609 23.1209 144.182 22.9857 143.653 22.8506C142.813 22.6142 142.113 22.344 141.554 22.04C140.994 21.7191 140.558 21.3644 140.247 20.976C139.983 20.6551 139.781 20.292 139.641 19.8866C139.516 19.4813 139.454 19.0422 139.454 18.5693C139.454 17.9782 139.571 17.4462 139.804 16.9733C140.053 16.4835 140.387 16.0613 140.807 15.7066C141.227 15.352 141.717 15.0818 142.277 14.896C142.837 14.7102 143.42 14.6173 144.026 14.6173C144.648 14.6173 145.247 14.7018 145.822 14.8707C146.413 15.0395 146.958 15.2844 147.455 15.6053C147.968 15.9093 148.404 16.2809 148.761 16.72L147.175 18.62C146.88 18.316 146.553 18.0458 146.196 17.8093C145.853 17.5729 145.504 17.3871 145.146 17.252C144.788 17.1 144.454 17.024 144.143 17.024C143.847 17.024 143.583 17.0578 143.35 17.1253C143.116 17.176 142.922 17.2604 142.767 17.3786C142.611 17.4969 142.487 17.6489 142.393 17.8346C142.316 18.0035 142.277 18.2062 142.277 18.4426C142.292 18.6453 142.339 18.8395 142.417 19.0253C142.51 19.1942 142.634 19.3378 142.79 19.456C142.961 19.5742 143.218 19.7093 143.56 19.8613C143.902 20.0133 144.345 20.1569 144.889 20.292C145.651 20.5115 146.289 20.7564 146.802 21.0266C147.315 21.2969 147.72 21.6093 148.015 21.964C148.311 22.268 148.52 22.6226 148.645 23.028C148.769 23.4333 148.831 23.8809 148.831 24.3706C148.831 25.1644 148.622 25.8737 148.202 26.4986C147.797 27.1235 147.237 27.6133 146.522 27.968C145.822 28.3226 145.029 28.4999 144.143 28.4999Z" fill="white"/>
<defs>
<radialGradient id="paint0_angular_418_1154" cx="0" cy="0" r="1" gradientUnits="userSpaceOnUse" gradientTransform="translate(18.6644 18.9602) rotate(35.8821) scale(41.6857 41.6027)">
<stop offset="0.369792" stop-color="#F08B32"/>
<stop offset="0.744792" stop-color="#F08B32"/>
<stop offset="0.989583" stop-color="#F08B32" stop-opacity="0"/>
</radialGradient>
</defs>
</svg>
