<svg width="46" height="47" viewBox="0 0 46 47" fill="none" xmlns="http://www.w3.org/2000/svg">
<path d="M33.5002 10.5001C33.898 10.5 34.2794 10.3419 34.5607 10.0606L42.0607 2.56062C42.3339 2.27772 42.4851 1.89882 42.4817 1.50552C42.4783 1.11223 42.3205 0.736007 42.0424 0.457894C41.7643 0.179782 41.3881 0.022029 40.9948 0.0186114C40.6015 0.0151938 40.2226 0.166385 39.9397 0.439622L32.4397 7.93962C32.23 8.1494 32.0871 8.41664 32.0293 8.70757C31.9714 8.9985 32.0011 9.30005 32.1147 9.5741C32.2282 9.84815 32.4204 10.0824 32.667 10.2472C32.9136 10.412 33.2035 10.5001 33.5002 10.5001Z" fill="white"/>
<path d="M41.75 19.5H15.761C15.4741 19.5 15.1932 19.4177 14.9517 19.2629C14.7102 19.1081 14.5181 18.8872 14.3982 18.6265C14.2784 18.3659 14.2358 18.0763 14.2756 17.7922C14.3153 17.508 14.4357 17.2413 14.6225 17.0235L20.507 10.158C21.1854 9.36878 21.5406 8.35236 21.5013 7.31236C21.462 6.27237 21.0313 5.28562 20.2952 4.5498C19.5592 3.81399 18.5724 3.38345 17.5324 3.34445C16.4924 3.30545 15.476 3.66087 14.687 4.3395L0.5 16.5V42.378C0.5 42.378 18.0905 46.5 27.365 46.5C28.0025 46.4513 28.6036 46.1836 29.0662 45.7424C29.5289 45.3011 29.8247 44.7133 29.9035 44.0788C29.9822 43.4443 29.8391 42.8021 29.4984 42.2611C29.1576 41.7201 28.6403 41.3136 28.034 41.1105C28.9055 40.9886 29.7045 40.5584 30.2859 39.8979C30.8674 39.2374 31.193 38.3904 31.2035 37.5105C31.2152 36.8146 31.0179 36.1311 30.6371 35.5485C30.2563 34.9658 29.7096 34.5107 29.0675 34.242C29.0675 34.242 32.483 33.642 32.483 30.753C32.5466 29.9049 32.3067 29.0618 31.8061 28.3743C31.3054 27.6869 30.5767 27.1997 29.75 27H41.5355C42.4909 27.0201 43.4204 26.6887 44.1476 26.0688C44.8748 25.4489 45.3491 24.5835 45.4805 23.637C45.5347 23.1147 45.4786 22.5868 45.3158 22.0875C45.153 21.5882 44.8871 21.1287 44.5355 20.7387C44.1838 20.3487 43.7541 20.0369 43.2743 19.8235C42.7944 19.6102 42.2751 19.4999 41.75 19.5Z" fill="white"/>
<path d="M27.1356 8.95508C27.2549 8.98459 27.3772 8.9997 27.5001 9.00008C27.8344 8.99965 28.159 8.88754 28.4224 8.68154C28.6857 8.47555 28.8727 8.18748 28.9536 7.86308L30.4536 1.86308C30.51 1.66925 30.5268 1.46602 30.5028 1.26556C30.4789 1.06511 30.4147 0.871552 30.3141 0.696492C30.2136 0.521433 30.0787 0.368472 29.9177 0.246775C29.7566 0.125079 29.5726 0.0371499 29.3767 -0.0117426C29.1808 -0.060635 28.9771 -0.069485 28.7777 -0.0377624C28.5784 -0.00603973 28.3874 0.0656028 28.2164 0.172873C28.0454 0.280143 27.8978 0.420832 27.7824 0.586513C27.6671 0.752193 27.5863 0.939454 27.5451 1.13708L26.0451 7.13708C25.9489 7.52275 26.0097 7.93085 26.2142 8.27173C26.4186 8.6126 26.75 8.85838 27.1356 8.95508Z" fill="white"/>
<path d="M40.6353 12.0451L34.6353 13.5451C34.2803 13.6341 33.9701 13.8498 33.7631 14.1516C33.556 14.4534 33.4665 14.8205 33.5113 15.1837C33.5561 15.547 33.7322 15.8813 34.0063 16.1237C34.2805 16.3662 34.6339 16.5 34.9998 16.5001C35.1232 16.4998 35.2461 16.4847 35.3658 16.4551L41.3658 14.9551C41.7493 14.8561 42.078 14.6096 42.2803 14.2692C42.4827 13.9288 42.5422 13.5223 42.446 13.1382C42.3498 12.7541 42.1056 12.4236 41.7667 12.2188C41.4278 12.0141 41.0201 11.9516 40.6353 12.0451Z" fill="white"/>
</svg>
