<svg width="48" height="48" viewBox="0 0 48 48" fill="none" xmlns="http://www.w3.org/2000/svg">
<rect width="48" height="48" rx="4" fill="white" fill-opacity="0.1"/>
<path d="M37.3338 15.5556C36.9924 15.5556 36.6511 15.4258 36.3915 15.1645L32.836 11.6089C32.3151 11.088 32.3151 10.2436 32.836 9.7227C33.3569 9.20181 34.2013 9.20181 34.7222 9.7227L38.2778 13.2783C38.7986 13.7991 38.7986 14.6436 38.2778 15.1645C38.0182 15.424 37.6751 15.5556 37.3338 15.5556Z" fill="white"/>
<path d="M10.6669 15.5558C10.3255 15.5558 9.98421 15.426 9.72465 15.1647C9.20376 14.6438 9.20376 13.7993 9.72465 13.2784L13.2802 9.72465C13.8011 9.20376 14.6455 9.20376 15.1664 9.72465C15.6873 10.2455 15.6873 11.09 15.1664 11.6109L11.6109 15.1664C11.3513 15.426 11.01 15.5575 10.6687 15.5575L10.6669 15.5558Z" fill="white"/>
<path d="M33.6837 31.7965C35.4063 29.6614 36.4446 26.9502 36.4446 23.9991C36.4446 17.1369 30.8623 11.5547 24.0001 11.5547C17.1379 11.5547 11.5557 17.1369 11.5557 23.9991C11.5557 26.9502 12.5939 29.6614 14.3166 31.7965L11.9468 34.1662C11.4259 34.6871 11.4259 35.5316 11.9468 36.0525C12.2063 36.312 12.5477 36.4436 12.889 36.4436C13.2303 36.4436 13.5717 36.3138 13.8312 36.0525L16.201 33.6827C18.3361 35.4054 21.0472 36.4436 24.0001 36.4436C26.953 36.4436 29.6623 35.4071 31.7992 33.6827L34.169 36.0525C34.4286 36.312 34.7699 36.4436 35.1112 36.4436C35.4526 36.4436 35.7939 36.3138 36.0534 36.0525C36.5743 35.5316 36.5743 34.6871 36.0534 34.1662L33.6837 31.7965ZM22.6668 18.6658C22.6668 17.9298 23.2641 17.3325 24.0001 17.3325C24.7361 17.3325 25.3334 17.9298 25.3334 18.6658V24.4436C25.3334 25.1796 24.7361 25.7769 24.0001 25.7769C23.2641 25.7769 22.6668 25.1796 22.6668 24.4436V18.6658ZM24.0001 31.1102C23.0188 31.1102 22.2223 30.312 22.2223 29.3325C22.2223 28.3529 23.0188 27.5547 24.0001 27.5547C24.9814 27.5547 25.7779 28.3529 25.7779 29.3325C25.7779 30.312 24.9814 31.1102 24.0001 31.1102Z" fill="white"/>
</svg>
