<svg width="172" height="48" viewBox="0 0 172 48" fill="none" xmlns="http://www.w3.org/2000/svg">
<path d="M34.7908 10.5934H28.7656V23.6539H22.4252V10.5934H16.4V23.6539H10.0898V10.6563C10.0898 10.0518 10.2111 9.48505 10.4535 8.94979C10.696 8.41451 11.0173 7.95481 11.4113 7.55808C11.8113 7.16765 12.272 6.85279 12.7933 6.61979C13.3146 6.38679 13.8723 6.27344 14.4542 6.27344H41.1373V23.6539H34.7969V10.5934H34.7908Z" fill="white"/>
<path d="M68.7489 19.334V23.6539H48.5275C47.9274 23.6539 47.3575 23.5343 46.8242 23.2887C46.2907 23.0494 45.824 22.7219 45.43 22.3063C45.0299 21.8907 44.7148 21.4121 44.4844 20.8579C44.2541 20.3038 44.1328 19.7118 44.1328 19.0884V10.839C44.1328 10.2155 44.248 9.62359 44.4844 9.06943C44.7148 8.51527 45.0299 8.03038 45.43 7.62106C45.8301 7.20544 46.2907 6.87797 46.8242 6.63868C47.3575 6.39938 47.9274 6.27344 48.5275 6.27344H68.7489V10.5934H50.4793V19.3277H68.7489V19.334ZM54.0253 17.004V12.9548H67.4699V17.004H54.0253Z" fill="white"/>
<path d="M71.7188 19.334H80.799V10.5934H71.7491V6.27344H96.2197V10.5934H87.1394V19.3278H96.1893V23.6477H71.7188V19.3278V19.334Z" fill="white"/>
<path d="M105.524 23.6539H99.1836V6.27344H119.466C120.048 6.27344 120.599 6.38679 121.127 6.61979C121.648 6.85279 122.109 7.16135 122.508 7.55808C122.909 7.94852 123.224 8.41451 123.466 8.94979C123.708 9.48505 123.83 10.0518 123.83 10.6563V23.6539H117.513V10.5934H105.524V23.6539Z" fill="white"/>
<path d="M151.409 19.334V23.6539H131.188C130.588 23.6539 130.019 23.5343 129.485 23.2887C128.951 23.0494 128.484 22.7219 128.091 22.3063C127.691 21.8907 127.376 21.4121 127.145 20.8579C126.915 20.3038 126.793 19.7118 126.793 19.0884V10.839C126.793 10.2155 126.908 9.62359 127.145 9.06943C127.376 8.51527 127.691 8.03038 128.091 7.62106C128.49 7.20544 128.951 6.87797 129.485 6.63868C130.019 6.39938 130.588 6.27344 131.188 6.27344H151.409V10.5934H133.14V19.3277H151.409V19.334ZM136.686 17.004V12.9548H150.131V17.004H136.686Z" fill="white"/>
<path d="M26.0925 38.4732V41.2818H12.9448C12.5509 41.2818 12.1872 41.2062 11.8356 41.0488C11.4901 40.8913 11.187 40.6772 10.9263 40.4128C10.6657 40.1483 10.4657 39.8271 10.3141 39.4681C10.1626 39.1092 10.0898 38.7251 10.0898 38.3157V32.9504C10.0898 32.5474 10.1626 32.1633 10.3141 31.798C10.4657 31.4391 10.6718 31.1242 10.9263 30.8535C11.187 30.5826 11.4901 30.3748 11.8356 30.2175C12.1811 30.06 12.5509 29.9844 12.9448 29.9844H26.0863V32.793H14.2117V38.4732H26.0863H26.0925ZM16.5212 36.9618V34.3295H25.2559V36.9618H16.5212Z" fill="white"/>
<path d="M32.1593 38.4732H44.0339V41.2818H28.0312V29.9844H32.1532V38.4732H32.1593Z" fill="white"/>
<path d="M61.9653 38.4732V41.2818H48.8238C48.4298 41.2818 48.0661 41.2062 47.7145 41.0488C47.369 40.8913 47.0659 40.6772 46.8053 40.4128C46.5447 40.1483 46.3446 39.8271 46.1931 39.4681C46.0415 39.1092 45.9688 38.7251 45.9688 38.3157V32.9504C45.9688 32.5474 46.0415 32.1633 46.1931 31.798C46.3446 31.4391 46.5507 31.1242 46.8053 30.8535C47.0659 30.5826 47.369 30.3748 47.7145 30.2175C48.06 30.06 48.4298 29.9844 48.8238 29.9844H61.9653V32.793H50.0907V38.4732H61.9653ZM52.394 36.9618V34.3295H61.1288V36.9618H52.394Z" fill="white"/>
<path d="M68.0398 38.4732H79.9144V41.2818H66.7729C66.3789 41.2818 66.0153 41.2062 65.6637 41.0488C65.3182 40.8913 65.0151 40.6772 64.7544 40.4128C64.4938 40.1483 64.2938 39.8271 64.1422 39.4681C63.9907 39.1092 63.918 38.7251 63.918 38.3157V32.9504C63.918 32.5474 63.9907 32.1633 64.1422 31.798C64.2938 31.4391 64.4998 31.1242 64.7544 30.8535C65.0151 30.5826 65.3182 30.3748 65.6637 30.2175C66.0092 30.06 66.3789 29.9844 66.7729 29.9844H79.9144V32.793H68.0398V38.4732Z" fill="white"/>
<path d="M97.7472 32.793H91.8675V41.2818H87.7455V32.793H81.8477V29.9844H97.7532V32.793H97.7472Z" fill="white"/>
<path d="M111.59 32.793H103.802V41.2818H99.6797V29.9844H112.481C112.882 29.9844 113.276 30.0537 113.664 30.1986C114.046 30.3433 114.391 30.5449 114.694 30.8094C114.997 31.0739 115.239 31.3824 115.422 31.7414C115.603 32.1003 115.694 32.4971 115.694 32.9316V34.2855C115.694 34.6759 115.597 35.0538 115.404 35.4127C115.21 35.7716 114.955 36.0865 114.646 36.3572C114.337 36.6281 113.991 36.8421 113.615 37.0059C113.24 37.1696 112.87 37.2515 112.518 37.2515L115.524 41.2818H111.1L106.22 34.6003H111.59V32.793Z" fill="white"/>
<path d="M117.605 38.4732H123.504V32.793H117.624V29.9844H133.529V32.793H127.632V38.4732H133.511V41.2818H117.605V38.4732Z" fill="white"/>
<path d="M139.585 38.4732H151.459V41.2818H138.318C137.924 41.2818 137.56 41.2062 137.209 41.0488C136.863 40.8913 136.56 40.6772 136.3 40.4128C136.039 40.1419 135.839 39.8271 135.687 39.4681C135.536 39.1092 135.457 38.7251 135.457 38.3157V32.9504C135.457 32.5474 135.53 32.1633 135.687 31.798C135.839 31.4391 136.046 31.1242 136.3 30.8535C136.56 30.5826 136.863 30.3748 137.209 30.2175C137.555 30.06 137.924 29.9844 138.318 29.9844H151.459V32.793H139.585V38.4732Z" fill="white"/>
<path d="M156.181 11.1349V6.91576H154.684V6.27344H158.466V6.91576H156.975V11.1412H156.181V11.1349Z" fill="white"/>
<path d="M159.1 11.1349V6.27344H159.912L161.397 9.42208L162.876 6.27344H163.688V11.1412H162.9V7.60847L161.633 10.2974H161.155L159.882 7.60847V11.1349H159.094H159.1Z" fill="white"/>
</svg>
