<svg width="48" height="48" viewBox="0 0 48 48" fill="none" xmlns="http://www.w3.org/2000/svg">
<rect width="48" height="48" rx="4" fill="white" fill-opacity="0.1"/>
<path d="M22.5 10C15.056 10 9 15.255 9 21.714C9 23.949 9.722 26.105 11.092 27.98L9.727 33.773L16.448 32.19C18.314 33.002 20.399 33.429 22.5 33.429C29.944 33.429 36 28.174 36 21.715C36 15.256 29.944 10 22.5 10Z" fill="white"/>
<path d="M38.3939 38.3436L32.3219 36.9126C29.4319 38.1626 25.9889 38.3506 22.8709 37.3496L21.9189 37.0436L22.5299 35.1396L23.4819 35.4456C26.2419 36.3306 29.2959 36.1236 31.7979 34.9556L32.1119 34.8096L35.7049 35.6556L34.9899 32.6216L35.2909 32.2416C36.4079 30.8346 36.9989 29.1956 36.9989 27.4996C36.9989 27.3186 36.9829 27.1406 36.9679 26.9616L37.9589 26.8076L38.9559 26.7246C38.9809 27.0276 38.9999 27.2616 38.9999 27.4986C38.9999 29.4926 38.3639 31.4156 37.1569 33.0906L38.3939 38.3436Z" fill="white"/>
</svg>
