<svg width="34" height="44" viewBox="0 0 34 44" fill="none" xmlns="http://www.w3.org/2000/svg">
<path fill-rule="evenodd" clip-rule="evenodd" d="M10 6.5C10 5.67157 10.6716 5 11.5 5H16.5C17.3284 5 18 5.67157 18 6.5C18 7.32843 17.3284 8 16.5 8H11.5C10.6716 8 10 7.32843 10 6.5Z" fill="white"/>
<path d="M22 3C23.6569 3 25 4.34315 25 6V21.3137H28V6C28 2.68629 25.3137 0 22 0H6C2.6863 0 0 2.68629 0 6V38C0 41.3137 2.6863 44 6 44H14.2969V41H6C4.3431 41 3 39.6569 3 38V6C3 4.34314 4.3432 3 6 3H22Z" fill="white"/>
<path fill-rule="evenodd" clip-rule="evenodd" d="M33.5 34C33.5 39.2467 29.2467 43.5 24 43.5C18.7533 43.5 14.5 39.2467 14.5 34C14.5 28.7533 18.7533 24.5 24 24.5C29.2467 24.5 33.5 28.7533 33.5 34ZM29.6189 31.3991L27.3991 29.3811L22.4483 34.827L20 32.3787L17.8787 34.5L22.5517 39.173L29.6189 31.3991Z" fill="white"/>
</svg>
