<svg width="24" height="24" viewBox="0 0 24 24" fill="none" xmlns="http://www.w3.org/2000/svg">
<path d="M14.75 3.5C15.1642 3.5 15.5 3.83579 15.5 4.25C15.5 4.66421 15.1642 5 14.75 5C14.3358 5 14 4.66421 14 4.25C14 3.83579 14.3358 3.5 14.75 3.5Z" fill="white"/>
<path fill-rule="evenodd" clip-rule="evenodd" d="M8 21.5H16C16.8285 21.5 17.5 20.8284 17.5 20V4C17.5 3.17158 16.8285 2.5 16 2.5H8C7.1716 2.5 6.5 3.17157 6.5 4V20C6.5 20.8284 7.17155 21.5 8 21.5ZM16 23H8C6.34315 23 5 21.6568 5 20V4C5 2.34315 6.34315 1 8 1H16C17.6569 1 19 2.34315 19 4V20C19 21.6568 17.6569 23 16 23Z" fill="white"/>
<path fill-rule="evenodd" clip-rule="evenodd" d="M10 4.25C10 3.83579 10.3358 3.5 10.75 3.5H12.75C13.1642 3.5 13.5 3.83579 13.5 4.25C13.5 4.66421 13.1642 5 12.75 5H10.75C10.3358 5 10 4.66421 10 4.25Z" fill="white"/>
</svg>
