<svg width="48" height="48" viewBox="0 0 48 48" fill="none" xmlns="http://www.w3.org/2000/svg">
<rect width="48" height="48" rx="4" fill="white" fill-opacity="0.1"/>
<path d="M35.9209 32.2751L26.042 36.1603C25.1419 36.492 24.169 36.5747 23.2258 36.3998L15.3335 34.9363V28.5003L16.0284 27.9123C16.9787 27.1082 18.1832 26.667 19.428 26.667C20.6592 26.667 21.8515 27.0987 22.7973 27.8869L23.3335 28.3337H25.3335C26.8054 28.3337 27.9988 29.5261 28.0002 30.9977V31.3337H22.3335V31.667L27.7972 32.2133C28.4798 32.2816 29.1028 31.8208 29.2373 31.1481L29.3335 30.667L35.4636 30.0672C36.117 30.0309 36.6668 30.551 36.6668 31.2054C36.6668 31.6831 36.3691 32.11 35.9209 32.2751Z" fill="white"/>
<path fill-rule="evenodd" clip-rule="evenodd" d="M21.3335 18.0002C21.3335 13.2137 25.2137 9.3335 30.0002 9.3335C34.7866 9.3335 38.6668 13.2137 38.6668 18.0002C38.6668 22.7866 34.7866 26.6668 30.0002 26.6668C25.2137 26.6668 21.3335 22.7866 21.3335 18.0002Z" fill="white"/>
<path d="M28.31 19.374L27.568 18.506V17.848H29.164C29.5653 17.848 29.8873 17.7127 30.13 17.442C30.382 17.162 30.508 16.812 30.508 16.392C30.508 16.0933 30.438 15.832 30.298 15.608C30.158 15.3747 29.962 15.1973 29.71 15.076C29.458 14.9453 29.1687 14.88 28.842 14.88H26.812V13.228H33.406V14.768H30.578L29.276 13.788C29.6867 13.816 30.074 13.9 30.438 14.04C30.8113 14.1707 31.138 14.348 31.418 14.572C31.698 14.7867 31.9173 15.048 32.076 15.356C32.244 15.664 32.328 16.0047 32.328 16.378C32.328 16.7887 32.244 17.176 32.076 17.54C31.9173 17.8947 31.6933 18.212 31.404 18.492C31.1147 18.772 30.774 18.9913 30.382 19.15C29.9993 19.2993 29.5887 19.374 29.15 19.374H28.31ZM30.704 23.028L27.596 18.52L29.458 18.17L32.86 23.042L30.704 23.028ZM29.094 16.98V15.804H33.448V16.98H29.094Z" fill="#303131"/>
<path d="M13.3334 26.667V36.667H10.6667V26.667H13.3334Z" fill="white"/>
</svg>
