<svg width="596" height="436" viewBox="0 0 596 436" fill="none" xmlns="http://www.w3.org/2000/svg">
<rect x="80" width="140" height="140" rx="4" fill="url(#paint0_linear_3550_105020)" fill-opacity="0.1"/>
<rect x="80.5" y="0.5" width="139" height="139" rx="3.5" stroke="url(#paint1_linear_3550_105020)" stroke-opacity="0.2"/>
<path fill-rule="evenodd" clip-rule="evenodd" d="M139 62V72C139 73.6569 140.343 75 142 75H150V78H142C138.686 78 136 75.3137 136 72V62H139Z" fill="#E5E5E5"/>
<path fill-rule="evenodd" clip-rule="evenodd" d="M147 62.4872C147 55.5504 152.862 50 160 50C167.138 50 173 55.5504 173 62.4872C173 69.3794 167.57 75.0553 160.563 79.8266L160 80.2098L159.437 79.8266C152.43 75.0553 147 69.3794 147 62.4872ZM156 63C156 60.7909 157.791 59 160 59C162.209 59 164 60.7909 164 63C164 65.2091 162.209 67 160 67C157.791 67 156 65.2091 156 63Z" fill="#E5E5E5"/>
<path fill-rule="evenodd" clip-rule="evenodd" d="M127 45.6154C127 40.2645 131.519 36 137 36C142.481 36 147 40.2645 147 45.6154C147 50.9217 142.824 55.2442 137.563 58.8266L137 59.2098L136.437 58.8266C131.176 55.2442 127 50.9217 127 45.6154ZM133.5 46C133.5 44.067 135.067 42.5 137 42.5C138.933 42.5 140.5 44.067 140.5 46C140.5 47.933 138.933 49.5 137 49.5C135.067 49.5 133.5 47.933 133.5 46Z" fill="#E5E5E5"/>
<path d="M130.259 103V93.2H134.529C135.304 93.2 135.962 93.4893 136.503 94.068C137.054 94.6373 137.329 95.3513 137.329 96.21C137.329 97.0687 137.054 97.7873 136.503 98.366C135.962 98.9353 135.304 99.22 134.529 99.22H133.619L137.539 103H136.139L132.219 99.22H131.379V103H130.259ZM131.379 98.17H134.529C134.996 98.17 135.393 97.988 135.719 97.624C136.046 97.26 136.209 96.7887 136.209 96.21C136.209 95.6313 136.046 95.16 135.719 94.796C135.393 94.432 134.996 94.25 134.529 94.25H131.379V98.17ZM143.855 102.132C143.22 102.804 142.422 103.14 141.461 103.14C140.5 103.14 139.697 102.804 139.053 102.132C138.418 101.451 138.101 100.573 138.101 99.5C138.101 98.4267 138.418 97.554 139.053 96.882C139.697 96.2007 140.5 95.86 141.461 95.86C142.422 95.86 143.22 96.2007 143.855 96.882C144.499 97.554 144.821 98.4267 144.821 99.5C144.821 100.573 144.499 101.451 143.855 102.132ZM139.809 101.418C140.257 101.913 140.808 102.16 141.461 102.16C142.114 102.16 142.66 101.913 143.099 101.418C143.547 100.923 143.771 100.284 143.771 99.5C143.771 98.716 143.547 98.0767 143.099 97.582C142.66 97.0873 142.114 96.84 141.461 96.84C140.808 96.84 140.257 97.0873 139.809 97.582C139.37 98.0767 139.151 98.716 139.151 99.5C139.151 100.284 139.37 100.923 139.809 101.418ZM146.075 100.2V96H147.125V100.2C147.125 100.76 147.307 101.227 147.671 101.6C148.035 101.973 148.483 102.16 149.015 102.16C149.575 102.16 150.051 101.969 150.443 101.586C150.844 101.194 151.045 100.732 151.045 100.2V96H152.095V103H151.185L151.045 102.23H150.975C150.807 102.426 150.63 102.58 150.443 102.692C149.976 102.991 149.454 103.14 148.875 103.14C148.063 103.14 147.391 102.869 146.859 102.328C146.336 101.777 146.075 101.068 146.075 100.2ZM154.269 101.81V96.98H153.149V96H154.269V94.04H155.319V96H156.929V96.98H155.319V101.6C155.319 101.88 155.459 102.02 155.739 102.02H156.929V103H155.529C155.137 103 154.829 102.893 154.605 102.678C154.381 102.463 154.269 102.174 154.269 101.81ZM162.814 101.04H163.934C163.691 101.712 163.308 102.23 162.786 102.594C162.272 102.958 161.652 103.14 160.924 103.14C159.962 103.14 159.16 102.804 158.516 102.132C157.881 101.451 157.564 100.573 157.564 99.5C157.564 98.4267 157.881 97.554 158.516 96.882C159.16 96.2007 159.962 95.86 160.924 95.86C161.848 95.86 162.613 96.1773 163.22 96.812C163.836 97.4467 164.144 98.2493 164.144 99.22C164.144 99.3693 164.13 99.57 164.102 99.822L164.074 99.99H158.614C158.688 100.643 158.94 101.171 159.37 101.572C159.808 101.964 160.326 102.16 160.924 102.16C161.344 102.16 161.717 102.062 162.044 101.866C162.38 101.67 162.636 101.395 162.814 101.04ZM158.614 99.01H163.094C163.056 98.3753 162.832 97.8573 162.422 97.456C162.02 97.0453 161.521 96.84 160.924 96.84C160.298 96.84 159.776 97.0407 159.356 97.442C158.936 97.8433 158.688 98.366 158.614 99.01ZM164.841 100.97H165.891C165.891 101.297 166.045 101.577 166.353 101.81C166.67 102.043 167.1 102.16 167.641 102.16C168.173 102.16 168.584 102.062 168.873 101.866C169.172 101.661 169.321 101.409 169.321 101.11C169.321 100.559 168.924 100.209 168.131 100.06L166.941 99.85C165.634 99.6353 164.981 98.982 164.981 97.89C164.981 97.302 165.205 96.8167 165.653 96.434C166.101 96.0513 166.74 95.86 167.571 95.86C168.383 95.86 169.041 96.0747 169.545 96.504C170.049 96.9333 170.301 97.442 170.301 98.03H169.251C169.251 97.7033 169.097 97.4233 168.789 97.19C168.49 96.9567 168.084 96.84 167.571 96.84C167.067 96.84 166.684 96.9427 166.423 97.148C166.162 97.344 166.031 97.5913 166.031 97.89C166.031 98.4033 166.404 98.73 167.151 98.87L168.341 99.08C169.041 99.2107 169.554 99.444 169.881 99.78C170.208 100.107 170.371 100.55 170.371 101.11C170.371 101.698 170.133 102.183 169.657 102.566C169.19 102.949 168.518 103.14 167.641 103.14C166.801 103.14 166.124 102.925 165.611 102.496C165.098 102.067 164.841 101.558 164.841 100.97Z" fill="white"/>
<rect x="80" y="148" width="140" height="140" rx="4" fill="url(#paint2_linear_3550_105020)" fill-opacity="0.1"/>
<rect x="80.5" y="148.5" width="139" height="139" rx="3.5" stroke="url(#paint3_linear_3550_105020)" stroke-opacity="0.2"/>
<path d="M145.334 210H159.501" stroke="#E5E5E5" stroke-width="3" stroke-miterlimit="10" stroke-linecap="square"/>
<path d="M145.334 215H159.501" stroke="#E5E5E5" stroke-width="3" stroke-miterlimit="10" stroke-linecap="square"/>
<path d="M158.666 196.668H146.166V204.168H158.666V196.668Z" stroke="#E5E5E5" stroke-width="3" stroke-miterlimit="10" stroke-linecap="square"/>
<path d="M139.5 190H164.333C164.886 190 165.333 190.448 165.333 191V217.917C165.333 219.988 163.654 221.667 161.583 221.667H135.75H136.167" stroke="#E5E5E5" stroke-width="3" stroke-miterlimit="10" stroke-linecap="square"/>
<path d="M139.5 190V217.917C139.5 219.988 137.821 221.667 135.75 221.667C133.679 221.667 132 219.988 132 217.917V209.167" stroke="#E5E5E5" stroke-width="3" stroke-miterlimit="10" stroke-linecap="square"/>
<path d="M129.941 247V237.2H131.061V247H129.941ZM132.885 247V240H133.795L133.935 240.77H134.005C134.154 240.583 134.327 240.434 134.523 240.322C135.008 240.014 135.535 239.86 136.105 239.86C136.917 239.86 137.584 240.135 138.107 240.686C138.639 241.227 138.905 241.932 138.905 242.8V247H137.855V242.8C137.855 242.24 137.673 241.773 137.309 241.4C136.945 241.027 136.497 240.84 135.965 240.84C135.405 240.84 134.924 241.036 134.523 241.428C134.131 241.811 133.935 242.268 133.935 242.8V247H132.885ZM141.996 247L139.476 240H140.596L142.696 245.88H142.976L145.076 240H146.196L143.676 247H141.996ZM152.233 246.132C151.598 246.804 150.8 247.14 149.839 247.14C148.878 247.14 148.075 246.804 147.431 246.132C146.796 245.451 146.479 244.573 146.479 243.5C146.479 242.427 146.796 241.554 147.431 240.882C148.075 240.201 148.878 239.86 149.839 239.86C150.8 239.86 151.598 240.201 152.233 240.882C152.877 241.554 153.199 242.427 153.199 243.5C153.199 244.573 152.877 245.451 152.233 246.132ZM148.187 245.418C148.635 245.913 149.186 246.16 149.839 246.16C150.492 246.16 151.038 245.913 151.477 245.418C151.925 244.923 152.149 244.284 152.149 243.5C152.149 242.716 151.925 242.077 151.477 241.582C151.038 241.087 150.492 240.84 149.839 240.84C149.186 240.84 148.635 241.087 148.187 241.582C147.748 242.077 147.529 242.716 147.529 243.5C147.529 244.284 147.748 244.923 148.187 245.418ZM154.523 247V240H155.573V247H154.523ZM154.453 238.53V237.34H155.643V238.53H154.453ZM162.287 244.69H163.337C163.16 245.465 162.796 246.067 162.245 246.496C161.704 246.925 161.041 247.14 160.257 247.14C159.296 247.14 158.493 246.804 157.849 246.132C157.215 245.451 156.897 244.573 156.897 243.5C156.897 242.427 157.215 241.554 157.849 240.882C158.493 240.201 159.296 239.86 160.257 239.86C161.032 239.86 161.695 240.075 162.245 240.504C162.796 240.924 163.16 241.503 163.337 242.24H162.287C162.147 241.792 161.9 241.447 161.545 241.204C161.191 240.961 160.761 240.84 160.257 240.84C159.604 240.84 159.053 241.087 158.605 241.582C158.167 242.077 157.947 242.716 157.947 243.5C157.947 244.284 158.167 244.923 158.605 245.418C159.053 245.913 159.604 246.16 160.257 246.16C161.331 246.16 162.007 245.67 162.287 244.69ZM169.291 245.04H170.411C170.169 245.712 169.786 246.23 169.263 246.594C168.75 246.958 168.129 247.14 167.401 247.14C166.44 247.14 165.637 246.804 164.993 246.132C164.359 245.451 164.041 244.573 164.041 243.5C164.041 242.427 164.359 241.554 164.993 240.882C165.637 240.201 166.44 239.86 167.401 239.86C168.325 239.86 169.091 240.177 169.697 240.812C170.313 241.447 170.621 242.249 170.621 243.22C170.621 243.369 170.607 243.57 170.579 243.822L170.551 243.99H165.091C165.166 244.643 165.418 245.171 165.847 245.572C166.286 245.964 166.804 246.16 167.401 246.16C167.821 246.16 168.195 246.062 168.521 245.866C168.857 245.67 169.114 245.395 169.291 245.04ZM165.091 243.01H169.571C169.534 242.375 169.31 241.857 168.899 241.456C168.498 241.045 167.999 240.84 167.401 240.84C166.776 240.84 166.253 241.041 165.833 241.442C165.413 241.843 165.166 242.366 165.091 243.01Z" fill="white"/>
<rect x="80" y="296" width="140" height="140" rx="4" fill="url(#paint4_linear_3550_105020)" fill-opacity="0.1"/>
<rect x="80.5" y="296.5" width="139" height="139" rx="3.5" stroke="url(#paint5_linear_3550_105020)" stroke-opacity="0.2"/>
<path fill-rule="evenodd" clip-rule="evenodd" d="M162.501 349.99C162.501 355.781 159.208 361.298 156.043 365.284C154.447 367.295 152.853 368.954 151.658 370.111C150.855 370.888 150.026 371.628 149.167 372.335C148.308 371.626 147.479 370.885 146.676 370.107C145.482 368.948 143.888 367.286 142.292 365.274C139.127 361.285 135.834 355.769 135.834 349.99C135.834 340.864 142.682 335.668 149.167 335.668C155.652 335.668 162.501 340.864 162.501 349.99ZM149.167 344.779C146.568 344.779 144.461 347.004 144.461 349.749C144.461 352.494 146.568 354.719 149.167 354.719C151.766 354.719 153.873 352.494 153.873 349.749C153.873 347.004 151.766 344.779 149.167 344.779Z" fill="#E5E5E5"/>
<path d="M103.545 395V385.2H107.815C108.59 385.2 109.248 385.489 109.789 386.068C110.34 386.637 110.615 387.351 110.615 388.21C110.615 389.069 110.34 389.787 109.789 390.366C109.248 390.935 108.59 391.22 107.815 391.22H106.905L110.825 395H109.425L105.505 391.22H104.665V395H103.545ZM104.665 390.17H107.815C108.282 390.17 108.678 389.988 109.005 389.624C109.332 389.26 109.495 388.789 109.495 388.21C109.495 387.631 109.332 387.16 109.005 386.796C108.678 386.432 108.282 386.25 107.815 386.25H104.665V390.17ZM116.357 393.04H117.477C117.234 393.712 116.851 394.23 116.329 394.594C115.815 394.958 115.195 395.14 114.467 395.14C113.505 395.14 112.703 394.804 112.059 394.132C111.424 393.451 111.107 392.573 111.107 391.5C111.107 390.427 111.424 389.554 112.059 388.882C112.703 388.201 113.505 387.86 114.467 387.86C115.391 387.86 116.156 388.177 116.763 388.812C117.379 389.447 117.687 390.249 117.687 391.22C117.687 391.369 117.673 391.57 117.645 391.822L117.617 391.99H112.157C112.231 392.643 112.483 393.171 112.913 393.572C113.351 393.964 113.869 394.16 114.467 394.16C114.887 394.16 115.26 394.062 115.587 393.866C115.923 393.67 116.179 393.395 116.357 393.04ZM112.157 391.01H116.637C116.599 390.375 116.375 389.857 115.965 389.456C115.563 389.045 115.064 388.84 114.467 388.84C113.841 388.84 113.319 389.041 112.899 389.442C112.479 389.843 112.231 390.366 112.157 391.01ZM118.664 395V388H119.574L119.714 388.77H119.784C119.924 388.602 120.087 388.453 120.274 388.322C120.713 388.014 121.156 387.86 121.604 387.86C122.211 387.86 122.733 388.061 123.172 388.462C123.359 388.63 123.513 388.826 123.634 389.05H123.704C123.863 388.817 124.054 388.621 124.278 388.462C124.791 388.061 125.37 387.86 126.014 387.86C126.742 387.86 127.344 388.117 127.82 388.63C128.296 389.134 128.534 389.787 128.534 390.59V395H127.484V390.59C127.484 390.058 127.339 389.633 127.05 389.316C126.761 388.999 126.369 388.84 125.874 388.84C125.407 388.84 124.997 389.013 124.642 389.358C124.297 389.694 124.124 390.105 124.124 390.59V395H123.074V390.59C123.074 390.058 122.929 389.633 122.64 389.316C122.351 388.999 121.959 388.84 121.464 388.84C120.997 388.84 120.587 389.013 120.232 389.358C119.887 389.694 119.714 390.105 119.714 390.59V395H118.664ZM135.264 394.132C134.63 394.804 133.832 395.14 132.87 395.14C131.909 395.14 131.106 394.804 130.462 394.132C129.828 393.451 129.51 392.573 129.51 391.5C129.51 390.427 129.828 389.554 130.462 388.882C131.106 388.201 131.909 387.86 132.87 387.86C133.832 387.86 134.63 388.201 135.264 388.882C135.908 389.554 136.23 390.427 136.23 391.5C136.23 392.573 135.908 393.451 135.264 394.132ZM131.218 393.418C131.666 393.913 132.217 394.16 132.87 394.16C133.524 394.16 134.07 393.913 134.508 393.418C134.956 392.923 135.18 392.284 135.18 391.5C135.18 390.716 134.956 390.077 134.508 389.582C134.07 389.087 133.524 388.84 132.87 388.84C132.217 388.84 131.666 389.087 131.218 389.582C130.78 390.077 130.56 390.716 130.56 391.5C130.56 392.284 130.78 392.923 131.218 393.418ZM137.421 393.81V388.98H136.301V388H137.421V386.04H138.471V388H140.081V388.98H138.471V393.6C138.471 393.88 138.611 394.02 138.891 394.02H140.081V395H138.681C138.289 395 137.981 394.893 137.757 394.678C137.533 394.463 137.421 394.174 137.421 393.81ZM145.685 393.04H146.805C146.562 393.712 146.18 394.23 145.657 394.594C145.144 394.958 144.523 395.14 143.795 395.14C142.834 395.14 142.031 394.804 141.387 394.132C140.752 393.451 140.435 392.573 140.435 391.5C140.435 390.427 140.752 389.554 141.387 388.882C142.031 388.201 142.834 387.86 143.795 387.86C144.719 387.86 145.484 388.177 146.091 388.812C146.707 389.447 147.015 390.249 147.015 391.22C147.015 391.369 147.001 391.57 146.973 391.822L146.945 391.99H141.485C141.56 392.643 141.812 393.171 142.241 393.572C142.68 393.964 143.198 394.16 143.795 394.16C144.215 394.16 144.588 394.062 144.915 393.866C145.251 393.67 145.508 393.395 145.685 393.04ZM141.485 391.01H145.965C145.928 390.375 145.704 389.857 145.293 389.456C144.892 389.045 144.392 388.84 143.795 388.84C143.17 388.84 142.647 389.041 142.227 389.442C141.807 389.843 141.56 390.366 141.485 391.01ZM158.219 391.78H159.409C159.129 392.816 158.597 393.637 157.813 394.244C157.038 394.841 156.124 395.14 155.069 395.14C153.753 395.14 152.642 394.669 151.737 393.726C150.832 392.783 150.379 391.575 150.379 390.1C150.379 388.625 150.832 387.417 151.737 386.474C152.642 385.531 153.753 385.06 155.069 385.06C156.114 385.06 157.029 385.359 157.813 385.956C158.597 386.544 159.129 387.342 159.409 388.35H158.219C157.976 387.65 157.575 387.104 157.015 386.712C156.455 386.311 155.806 386.11 155.069 386.11C154.07 386.11 153.226 386.483 152.535 387.23C151.844 387.967 151.499 388.924 151.499 390.1C151.499 391.276 151.844 392.237 152.535 392.984C153.226 393.721 154.07 394.09 155.069 394.09C155.806 394.09 156.455 393.889 157.015 393.488C157.575 393.077 157.976 392.508 158.219 391.78ZM160.396 395V385.2H161.446V388.77H161.516C161.665 388.583 161.838 388.434 162.034 388.322C162.519 388.014 163.046 387.86 163.616 387.86C164.428 387.86 165.095 388.135 165.618 388.686C166.15 389.227 166.416 389.932 166.416 390.8V395H165.366V390.8C165.366 390.24 165.184 389.773 164.82 389.4C164.456 389.027 164.008 388.84 163.476 388.84C162.916 388.84 162.435 389.036 162.034 389.428C161.642 389.811 161.446 390.268 161.446 390.8V395H160.396ZM172.648 393.04H173.768C173.526 393.712 173.143 394.23 172.62 394.594C172.107 394.958 171.486 395.14 170.758 395.14C169.797 395.14 168.994 394.804 168.35 394.132C167.716 393.451 167.398 392.573 167.398 391.5C167.398 390.427 167.716 389.554 168.35 388.882C168.994 388.201 169.797 387.86 170.758 387.86C171.682 387.86 172.448 388.177 173.054 388.812C173.67 389.447 173.978 390.249 173.978 391.22C173.978 391.369 173.964 391.57 173.936 391.822L173.908 391.99H168.448C168.523 392.643 168.775 393.171 169.204 393.572C169.643 393.964 170.161 394.16 170.758 394.16C171.178 394.16 171.552 394.062 171.878 393.866C172.214 393.67 172.471 393.395 172.648 393.04ZM168.448 391.01H172.928C172.891 390.375 172.667 389.857 172.256 389.456C171.855 389.045 171.356 388.84 170.758 388.84C170.133 388.84 169.61 389.041 169.19 389.442C168.77 389.843 168.523 390.366 168.448 391.01ZM179.926 392.69H180.976C180.798 393.465 180.434 394.067 179.884 394.496C179.342 394.925 178.68 395.14 177.896 395.14C176.934 395.14 176.132 394.804 175.488 394.132C174.853 393.451 174.536 392.573 174.536 391.5C174.536 390.427 174.853 389.554 175.488 388.882C176.132 388.201 176.934 387.86 177.896 387.86C178.67 387.86 179.333 388.075 179.884 388.504C180.434 388.924 180.798 389.503 180.976 390.24H179.926C179.786 389.792 179.538 389.447 179.184 389.204C178.829 388.961 178.4 388.84 177.896 388.84C177.242 388.84 176.692 389.087 176.244 389.582C175.805 390.077 175.586 390.716 175.586 391.5C175.586 392.284 175.805 392.923 176.244 393.418C176.692 393.913 177.242 394.16 177.896 394.16C178.969 394.16 179.646 393.67 179.926 392.69ZM181.889 395V385.2H182.939V391.22L186.089 388H187.419L184.059 391.43L187.559 395H186.229L182.939 391.64V395H181.889ZM188.056 395V388H189.106V395H188.056ZM187.986 386.53V385.34H189.176V386.53H187.986ZM190.57 395V388H191.48L191.62 388.77H191.69C191.84 388.583 192.012 388.434 192.208 388.322C192.694 388.014 193.221 387.86 193.79 387.86C194.602 387.86 195.27 388.135 195.792 388.686C196.324 389.227 196.59 389.932 196.59 390.8V395H195.54V390.8C195.54 390.24 195.358 389.773 194.994 389.4C194.63 389.027 194.182 388.84 193.65 388.84C193.09 388.84 192.61 389.036 192.208 389.428C191.816 389.811 191.62 390.268 191.62 390.8V395H190.57Z" fill="white"/>
<rect x="228" width="140" height="140" rx="4" fill="url(#paint6_linear_3550_105020)" fill-opacity="0.1"/>
<rect x="228.5" y="0.5" width="139" height="139" rx="3.5" stroke="url(#paint7_linear_3550_105020)" stroke-opacity="0.2"/>
<path d="M299.969 73.799C298.479 71.9971 297.583 69.6851 297.583 67.1641C297.583 63.1999 299.798 59.753 303.057 57.9926C301.474 57.456 299.771 57.1641 298 57.1641C289.764 57.1641 283 63.4743 283 71.362V71.991L283.609 72.1346C289.061 73.4201 294.516 73.9749 299.969 73.799Z" fill="#E5E5E5"/>
<path fill-rule="evenodd" clip-rule="evenodd" d="M315.917 67.1667C315.917 71.5389 312.373 75.0833 308.001 75.0833C303.628 75.0833 300.084 71.5389 300.084 67.1667C300.084 62.7944 303.628 59.25 308.001 59.25C312.373 59.25 315.917 62.7944 315.917 67.1667ZM309.251 63H306.751V65.9167H303.834V68.4167H306.751V71.3333H309.251V68.4167H312.167V65.9167H309.251V63Z" fill="#E5E5E5"/>
<path fill-rule="evenodd" clip-rule="evenodd" d="M291.334 47.9987C291.334 44.3168 294.319 41.332 298.001 41.332C301.683 41.332 304.667 44.3168 304.667 47.9987C304.667 51.6806 301.683 54.6654 298.001 54.6654C294.319 54.6654 291.334 51.6806 291.334 47.9987Z" fill="#E5E5E5"/>
<path d="M251.03 96.13H252.15C252.15 96.6807 252.379 97.1473 252.836 97.53C253.303 97.9033 253.937 98.09 254.74 98.09C255.561 98.09 256.173 97.9313 256.574 97.614C256.985 97.2873 257.19 96.8627 257.19 96.34C257.19 95.4813 256.63 94.9447 255.51 94.73L253.62 94.38C252.033 94.0813 251.24 93.2413 251.24 91.86C251.24 91.0387 251.543 90.3667 252.15 89.844C252.757 89.3213 253.573 89.06 254.6 89.06C255.692 89.06 256.569 89.3493 257.232 89.928C257.904 90.4973 258.24 91.2113 258.24 92.07H257.12C257.12 91.5193 256.891 91.0573 256.434 90.684C255.986 90.3013 255.375 90.11 254.6 90.11C253.891 90.11 253.34 90.2733 252.948 90.6C252.556 90.9267 252.36 91.3467 252.36 91.86C252.36 92.6813 252.897 93.1947 253.97 93.4L255.51 93.68C256.481 93.8573 257.19 94.1607 257.638 94.59C258.086 95.0193 258.31 95.6027 258.31 96.34C258.31 97.1707 257.997 97.8473 257.372 98.37C256.747 98.8833 255.869 99.14 254.74 99.14C253.62 99.14 252.719 98.8507 252.038 98.272C251.366 97.684 251.03 96.97 251.03 96.13ZM259.573 96.2V92H260.623V96.2C260.623 96.76 260.805 97.2267 261.169 97.6C261.533 97.9733 261.981 98.16 262.513 98.16C263.073 98.16 263.549 97.9687 263.941 97.586C264.343 97.194 264.543 96.732 264.543 96.2V92H265.593V99H264.683L264.543 98.23H264.473C264.305 98.426 264.128 98.58 263.941 98.692C263.475 98.9907 262.952 99.14 262.373 99.14C261.561 99.14 260.889 98.8693 260.357 98.328C259.835 97.7773 259.573 97.068 259.573 96.2ZM267.138 101.8V92H268.048L268.188 92.98H268.258C268.846 92.2333 269.592 91.86 270.498 91.86C271.422 91.86 272.187 92.2007 272.794 92.882C273.41 93.554 273.718 94.4267 273.718 95.5C273.718 96.5733 273.41 97.4507 272.794 98.132C272.187 98.804 271.422 99.14 270.498 99.14C269.592 99.14 268.846 98.7667 268.258 98.02H268.188V101.8H267.138ZM268.846 97.418C269.284 97.9127 269.812 98.16 270.428 98.16C271.044 98.16 271.571 97.9127 272.01 97.418C272.448 96.9233 272.668 96.284 272.668 95.5C272.668 94.716 272.448 94.0767 272.01 93.582C271.571 93.0873 271.044 92.84 270.428 92.84C269.812 92.84 269.284 93.0873 268.846 93.582C268.407 94.0767 268.188 94.716 268.188 95.5C268.188 96.284 268.407 96.9233 268.846 97.418ZM279.669 97.04H280.789C280.546 97.712 280.163 98.23 279.641 98.594C279.127 98.958 278.507 99.14 277.779 99.14C276.817 99.14 276.015 98.804 275.371 98.132C274.736 97.4507 274.419 96.5733 274.419 95.5C274.419 94.4267 274.736 93.554 275.371 92.882C276.015 92.2007 276.817 91.86 277.779 91.86C278.703 91.86 279.468 92.1773 280.075 92.812C280.691 93.4467 280.999 94.2493 280.999 95.22C280.999 95.3693 280.985 95.57 280.957 95.822L280.929 95.99H275.469C275.543 96.6433 275.795 97.1707 276.225 97.572C276.663 97.964 277.181 98.16 277.779 98.16C278.199 98.16 278.572 98.062 278.899 97.866C279.235 97.67 279.491 97.3947 279.669 97.04ZM275.469 95.01H279.949C279.911 94.3753 279.687 93.8573 279.277 93.456C278.875 93.0453 278.376 92.84 277.779 92.84C277.153 92.84 276.631 93.0407 276.211 93.442C275.791 93.8433 275.543 94.366 275.469 95.01ZM282.116 99V92H283.026L283.166 92.7H283.236C283.404 92.4573 283.577 92.28 283.754 92.168C283.941 92.056 284.211 92 284.566 92H285.756V92.98H284.706C284.211 92.98 283.829 93.1153 283.558 93.386C283.297 93.6473 283.166 94.0253 283.166 94.52V99H282.116ZM288.134 99L285.614 92H286.734L288.834 97.88H289.114L291.214 92H292.334L289.814 99H288.134ZM293.104 99V92H294.154V99H293.104ZM293.034 90.53V89.34H294.224V90.53H293.034ZM295.198 96.97H296.248C296.248 97.2967 296.402 97.5767 296.71 97.81C297.028 98.0433 297.457 98.16 297.998 98.16C298.53 98.16 298.941 98.062 299.23 97.866C299.529 97.6607 299.678 97.4087 299.678 97.11C299.678 96.5593 299.282 96.2093 298.488 96.06L297.298 95.85C295.992 95.6353 295.338 94.982 295.338 93.89C295.338 93.302 295.562 92.8167 296.01 92.434C296.458 92.0513 297.098 91.86 297.928 91.86C298.74 91.86 299.398 92.0747 299.902 92.504C300.406 92.9333 300.658 93.442 300.658 94.03H299.608C299.608 93.7033 299.454 93.4233 299.146 93.19C298.848 92.9567 298.442 92.84 297.928 92.84C297.424 92.84 297.042 92.9427 296.78 93.148C296.519 93.344 296.388 93.5913 296.388 93.89C296.388 94.4033 296.762 94.73 297.508 94.87L298.698 95.08C299.398 95.2107 299.912 95.444 300.238 95.78C300.565 96.1067 300.728 96.55 300.728 97.11C300.728 97.698 300.49 98.1833 300.014 98.566C299.548 98.9487 298.876 99.14 297.998 99.14C297.158 99.14 296.482 98.9253 295.968 98.496C295.455 98.0667 295.198 97.558 295.198 96.97ZM307.112 98.132C306.477 98.804 305.679 99.14 304.718 99.14C303.756 99.14 302.954 98.804 302.31 98.132C301.675 97.4507 301.358 96.5733 301.358 95.5C301.358 94.4267 301.675 93.554 302.31 92.882C302.954 92.2007 303.756 91.86 304.718 91.86C305.679 91.86 306.477 92.2007 307.112 92.882C307.756 93.554 308.078 94.4267 308.078 95.5C308.078 96.5733 307.756 97.4507 307.112 98.132ZM303.066 97.418C303.514 97.9127 304.064 98.16 304.718 98.16C305.371 98.16 305.917 97.9127 306.356 97.418C306.804 96.9233 307.028 96.284 307.028 95.5C307.028 94.716 306.804 94.0767 306.356 93.582C305.917 93.0873 305.371 92.84 304.718 92.84C304.064 92.84 303.514 93.0873 303.066 93.582C302.627 94.0767 302.408 94.716 302.408 95.5C302.408 96.284 302.627 96.9233 303.066 97.418ZM309.192 99V92H310.102L310.242 92.7H310.312C310.48 92.4573 310.652 92.28 310.83 92.168C311.016 92.056 311.287 92 311.642 92H312.832V92.98H311.782C311.287 92.98 310.904 93.1153 310.634 93.386C310.372 93.6473 310.242 94.0253 310.242 94.52V99H309.192ZM316.052 99V89.2H322.352V90.25H317.172V93.54H322.072V94.59H317.172V97.95H322.352V99H316.052ZM323.682 99V92H324.592L324.732 92.77H324.802C324.951 92.5833 325.124 92.434 325.32 92.322C325.805 92.014 326.332 91.86 326.902 91.86C327.714 91.86 328.381 92.1353 328.904 92.686C329.436 93.2273 329.702 93.932 329.702 94.8V99H328.652V94.8C328.652 94.24 328.47 93.7733 328.106 93.4C327.742 93.0267 327.294 92.84 326.762 92.84C326.202 92.84 325.721 93.036 325.32 93.428C324.928 93.8107 324.732 94.268 324.732 94.8V99H323.682ZM331.463 97.81V92.98H330.343V92H331.463V90.04H332.513V92H334.123V92.98H332.513V97.6C332.513 97.88 332.653 98.02 332.933 98.02H334.123V99H332.723C332.331 99 332.023 98.8927 331.799 98.678C331.575 98.4633 331.463 98.174 331.463 97.81ZM335.311 99V92H336.221L336.361 92.7H336.431C336.599 92.4573 336.771 92.28 336.949 92.168C337.135 92.056 337.406 92 337.761 92H338.951V92.98H337.901C337.406 92.98 337.023 93.1153 336.753 93.386C336.491 93.6473 336.361 94.0253 336.361 94.52V99H335.311ZM339.578 101.8V100.82H340.908C341.142 100.82 341.305 100.68 341.398 100.4L341.678 99.56L338.808 92H339.928L342.098 97.81H342.378L344.338 92H345.458L342.308 100.82C342.187 101.165 342.028 101.413 341.832 101.562C341.636 101.721 341.352 101.8 340.978 101.8H339.578Z" fill="white"/>
<rect x="228" y="148" width="140" height="140" rx="4" fill="url(#paint8_linear_3550_105020)" fill-opacity="0.1"/>
<rect x="228.5" y="148.5" width="139" height="139" rx="3.5" stroke="url(#paint9_linear_3550_105020)" stroke-opacity="0.2"/>
<path d="M279.728 193.762C276.578 198.461 275.231 204.368 276.438 210.352" stroke="#E5E5E5" stroke-width="3" stroke-miterlimit="10"/>
<path d="M308.002 186.424C303.731 184.238 298.717 183.428 293.648 184.45C289.466 185.293 285.802 187.271 282.912 189.999" stroke="#E5E5E5" stroke-width="3" stroke-miterlimit="10"/>
<path d="M319.551 201.659C318.513 196.512 315.757 192.15 312 189.051" stroke="#E5E5E5" stroke-width="3" stroke-miterlimit="10"/>
<path d="M319.996 206.448C320.027 204.871 319.887 203.266 319.562 201.656" stroke="#E5E5E5" stroke-width="3" stroke-miterlimit="10"/>
<path d="M292.316 227.252C297.243 221.645 299.588 213.885 297.999 206.004" stroke="#E5E5E5" stroke-width="3" stroke-miterlimit="10"/>
<path d="M298.697 227.984C303.149 221.479 305.167 212.164 303.39 204.917C302.584 201.58 299.889 200.001 296.906 200.602C293.923 201.204 292.009 203.97 292.611 207.09C293.938 213.966 291.592 220.563 286.877 224.975" stroke="#E5E5E5" stroke-width="3" stroke-miterlimit="10"/>
<path d="M287.465 210C287.766 214.52 285.808 218.797 282.441 221.554" stroke="#E5E5E5" stroke-width="3" stroke-miterlimit="10"/>
<path d="M309.369 207.999C309.255 206.616 309.059 205.226 308.778 203.832L308.78 203.831C307.579 197.873 301.776 194.018 295.819 195.219C290.949 196.201 287.483 200.259 287.037 204.962" stroke="#E5E5E5" stroke-width="3" stroke-miterlimit="10"/>
<path d="M305.883 226.535C307.917 222.36 309.151 217.77 309.43 213" stroke="#E5E5E5" stroke-width="3" stroke-miterlimit="10"/>
<path d="M292.959 190.293C285.052 192.816 280.144 200.94 281.822 209.265L281.831 209.263C282.447 212.321 281.289 215.324 279.066 217.208" stroke="#E5E5E5" stroke-width="3" stroke-miterlimit="10"/>
<path d="M313.604 221.498C315.187 215.561 315.465 209.178 314.169 202.747L314.166 202.747C312.586 194.912 305.697 189.502 298 189.508" stroke="#E5E5E5" stroke-width="3" stroke-miterlimit="10"/>
<path d="M272.862 251V241.2H277.132C277.907 241.2 278.565 241.489 279.106 242.068C279.657 242.637 279.932 243.351 279.932 244.21C279.932 245.069 279.657 245.787 279.106 246.366C278.565 246.935 277.907 247.22 277.132 247.22H273.982V251H272.862ZM273.982 246.17H277.132C277.599 246.17 277.996 245.988 278.322 245.624C278.649 245.26 278.812 244.789 278.812 244.21C278.812 243.631 278.649 243.16 278.322 242.796C277.996 242.432 277.599 242.25 277.132 242.25H273.982V246.17ZM281.056 248.2V244H282.106V248.2C282.106 248.76 282.288 249.227 282.652 249.6C283.016 249.973 283.464 250.16 283.996 250.16C284.556 250.16 285.032 249.969 285.424 249.586C285.825 249.194 286.026 248.732 286.026 248.2V244H287.076V251H286.166L286.026 250.23H285.956C285.788 250.426 285.61 250.58 285.424 250.692C284.957 250.991 284.434 251.14 283.856 251.14C283.044 251.14 282.372 250.869 281.84 250.328C281.317 249.777 281.056 249.068 281.056 248.2ZM288.76 251V244H289.67L289.81 244.77H289.88C290.029 244.583 290.202 244.434 290.398 244.322C290.883 244.014 291.411 243.86 291.98 243.86C292.792 243.86 293.459 244.135 293.982 244.686C294.514 245.227 294.78 245.932 294.78 246.8V251H293.73V246.8C293.73 246.24 293.548 245.773 293.184 245.4C292.82 245.027 292.372 244.84 291.84 244.84C291.28 244.84 290.799 245.036 290.398 245.428C290.006 245.811 289.81 246.268 289.81 246.8V251H288.76ZM301.434 248.69H302.484C302.307 249.465 301.943 250.067 301.392 250.496C300.851 250.925 300.188 251.14 299.404 251.14C298.443 251.14 297.64 250.804 296.996 250.132C296.362 249.451 296.044 248.573 296.044 247.5C296.044 246.427 296.362 245.554 296.996 244.882C297.64 244.201 298.443 243.86 299.404 243.86C300.179 243.86 300.842 244.075 301.392 244.504C301.943 244.924 302.307 245.503 302.484 246.24H301.434C301.294 245.792 301.047 245.447 300.692 245.204C300.338 244.961 299.908 244.84 299.404 244.84C298.751 244.84 298.2 245.087 297.752 245.582C297.314 246.077 297.094 246.716 297.094 247.5C297.094 248.284 297.314 248.923 297.752 249.418C298.2 249.913 298.751 250.16 299.404 250.16C300.478 250.16 301.154 249.67 301.434 248.69ZM303.678 251V241.2H304.728V244.77H304.798C304.948 244.583 305.12 244.434 305.316 244.322C305.802 244.014 306.329 243.86 306.898 243.86C307.71 243.86 308.378 244.135 308.9 244.686C309.432 245.227 309.698 245.932 309.698 246.8V251H308.648V246.8C308.648 246.24 308.466 245.773 308.102 245.4C307.738 245.027 307.29 244.84 306.758 244.84C306.198 244.84 305.718 245.036 305.316 245.428C304.924 245.811 304.728 246.268 304.728 246.8V251H303.678ZM316.211 249.04H317.331C317.088 249.712 316.706 250.23 316.183 250.594C315.67 250.958 315.049 251.14 314.321 251.14C313.36 251.14 312.557 250.804 311.913 250.132C311.278 249.451 310.961 248.573 310.961 247.5C310.961 246.427 311.278 245.554 311.913 244.882C312.557 244.201 313.36 243.86 314.321 243.86C315.245 243.86 316.01 244.177 316.617 244.812C317.233 245.447 317.541 246.249 317.541 247.22C317.541 247.369 317.527 247.57 317.499 247.822L317.471 247.99H312.011C312.086 248.643 312.338 249.171 312.767 249.572C313.206 249.964 313.724 250.16 314.321 250.16C314.741 250.16 315.114 250.062 315.441 249.866C315.777 249.67 316.034 249.395 316.211 249.04ZM312.011 247.01H316.491C316.454 246.375 316.23 245.857 315.819 245.456C315.418 245.045 314.918 244.84 314.321 244.84C313.696 244.84 313.173 245.041 312.753 245.442C312.333 245.843 312.086 246.366 312.011 247.01ZM318.238 248.97H319.288C319.288 249.297 319.442 249.577 319.75 249.81C320.068 250.043 320.497 250.16 321.038 250.16C321.57 250.16 321.981 250.062 322.27 249.866C322.569 249.661 322.718 249.409 322.718 249.11C322.718 248.559 322.322 248.209 321.528 248.06L320.338 247.85C319.032 247.635 318.378 246.982 318.378 245.89C318.378 245.302 318.602 244.817 319.05 244.434C319.498 244.051 320.138 243.86 320.968 243.86C321.78 243.86 322.438 244.075 322.942 244.504C323.446 244.933 323.698 245.442 323.698 246.03H322.648C322.648 245.703 322.494 245.423 322.186 245.19C321.888 244.957 321.482 244.84 320.968 244.84C320.464 244.84 320.082 244.943 319.82 245.148C319.559 245.344 319.428 245.591 319.428 245.89C319.428 246.403 319.802 246.73 320.548 246.87L321.738 247.08C322.438 247.211 322.952 247.444 323.278 247.78C323.605 248.107 323.768 248.55 323.768 249.11C323.768 249.698 323.53 250.183 323.054 250.566C322.588 250.949 321.916 251.14 321.038 251.14C320.198 251.14 319.522 250.925 319.008 250.496C318.495 250.067 318.238 249.558 318.238 248.97Z" fill="white"/>
<rect x="228" y="296" width="140" height="140" rx="4" fill="url(#paint10_linear_3550_105020)" fill-opacity="0.1"/>
<rect x="228.5" y="296.5" width="139" height="139" rx="3.5" stroke="url(#paint11_linear_3550_105020)" stroke-opacity="0.2"/>
<path fill-rule="evenodd" clip-rule="evenodd" d="M301.961 344.531C300.193 341.599 295.807 341.599 294.04 344.531L280.294 367.347C278.483 370.351 280.784 373.999 284.254 373.999H311.745C315.215 373.999 317.516 370.351 315.706 367.346L301.961 344.531ZM299.25 350.665V362.332H296.75V350.665H299.25ZM298 368.999C299.15 368.999 300.083 368.066 300.083 366.915C300.083 365.765 299.15 364.832 298 364.832C296.849 364.832 295.916 365.765 295.916 366.915C295.916 368.066 296.849 368.999 298 368.999Z" fill="#E5E5E5"/>
<rect x="282" y="342" width="32" height="16" rx="8" fill="#B00000"/>
<path d="M297.67 353.51V347.83L298.04 348.11L296.66 348.84L296.37 347.9L298.24 346.9H298.76V353.51H297.67ZM296.56 354V352.96H299.9V354H296.56Z" fill="white"/>
<path d="M280.749 395L284.459 385.2H286.139L289.849 395H288.659L287.749 392.48H282.849L281.939 395H280.749ZM283.269 391.43H287.329L285.439 386.39H285.159L283.269 391.43ZM290.624 395V385.2H291.674V395H290.624ZM298.249 393.04H299.369C299.126 393.712 298.743 394.23 298.221 394.594C297.707 394.958 297.087 395.14 296.359 395.14C295.397 395.14 294.595 394.804 293.951 394.132C293.316 393.451 292.999 392.573 292.999 391.5C292.999 390.427 293.316 389.554 293.951 388.882C294.595 388.201 295.397 387.86 296.359 387.86C297.283 387.86 298.048 388.177 298.655 388.812C299.271 389.447 299.579 390.249 299.579 391.22C299.579 391.369 299.565 391.57 299.537 391.822L299.509 391.99H294.049C294.123 392.643 294.375 393.171 294.805 393.572C295.243 393.964 295.761 394.16 296.359 394.16C296.779 394.16 297.152 394.062 297.479 393.866C297.815 393.67 298.071 393.395 298.249 393.04ZM294.049 391.01H298.529C298.491 390.375 298.267 389.857 297.857 389.456C297.455 389.045 296.956 388.84 296.359 388.84C295.733 388.84 295.211 389.041 294.791 389.442C294.371 389.843 294.123 390.366 294.049 391.01ZM300.836 395V388H301.746L301.886 388.7H301.956C302.124 388.457 302.297 388.28 302.474 388.168C302.661 388.056 302.931 388 303.286 388H304.476V388.98H303.426C302.931 388.98 302.549 389.115 302.278 389.386C302.017 389.647 301.886 390.025 301.886 390.52V395H300.836ZM305.804 393.81V388.98H304.684V388H305.804V386.04H306.854V388H308.464V388.98H306.854V393.6C306.854 393.88 306.994 394.02 307.274 394.02H308.464V395H307.064C306.672 395 306.364 394.893 306.14 394.678C305.916 394.463 305.804 394.174 305.804 393.81ZM309.232 392.97H310.282C310.282 393.297 310.436 393.577 310.744 393.81C311.061 394.043 311.49 394.16 312.032 394.16C312.564 394.16 312.974 394.062 313.264 393.866C313.562 393.661 313.712 393.409 313.712 393.11C313.712 392.559 313.315 392.209 312.522 392.06L311.332 391.85C310.025 391.635 309.372 390.982 309.372 389.89C309.372 389.302 309.596 388.817 310.044 388.434C310.492 388.051 311.131 387.86 311.962 387.86C312.774 387.86 313.432 388.075 313.936 388.504C314.44 388.933 314.692 389.442 314.692 390.03H313.642C313.642 389.703 313.488 389.423 313.18 389.19C312.881 388.957 312.475 388.84 311.962 388.84C311.458 388.84 311.075 388.943 310.814 389.148C310.552 389.344 310.422 389.591 310.422 389.89C310.422 390.403 310.795 390.73 311.542 390.87L312.732 391.08C313.432 391.211 313.945 391.444 314.272 391.78C314.598 392.107 314.762 392.55 314.762 393.11C314.762 393.698 314.524 394.183 314.048 394.566C313.581 394.949 312.909 395.14 312.032 395.14C311.192 395.14 310.515 394.925 310.002 394.496C309.488 394.067 309.232 393.558 309.232 392.97Z" fill="white"/>
<rect x="376" width="140" height="140" rx="4" fill="url(#paint12_linear_3550_105020)" fill-opacity="0.1"/>
<rect x="376.5" y="0.5" width="139" height="139" rx="3.5" stroke="url(#paint13_linear_3550_105020)" stroke-opacity="0.2"/>
<path fill-rule="evenodd" clip-rule="evenodd" d="M453.084 47.5833C453.084 43.6713 449.913 40.5 446.001 40.5C442.089 40.5 438.917 43.6713 438.917 47.5833C438.917 51.4953 442.089 54.6667 446.001 54.6667C449.913 54.6667 453.084 51.4953 453.084 47.5833Z" fill="white"/>
<path fill-rule="evenodd" clip-rule="evenodd" d="M436.315 59.2482L443.398 66.3316L436.315 73.4149L438.083 75.1826L446.934 66.3316L438.083 57.4805L436.315 59.2482Z" fill="white"/>
<path fill-rule="evenodd" clip-rule="evenodd" d="M445.094 67.582V65.082H426.834V67.582H445.094Z" fill="white"/>
<path d="M441.854 57.7186C443.172 57.3599 444.564 57.168 446 57.168C454.236 57.168 461 63.4782 461 71.3659V71.9949L460.391 72.1386C454.609 73.5017 448.825 74.0431 443.042 73.763L448.702 68.1024C449.678 67.1261 449.678 65.5431 448.702 64.5669L441.854 57.7186Z" fill="white"/>
<path d="M417.996 99L415.546 89.2H416.736L418.836 97.81H419.116L421.356 89.2H423.036L425.276 97.81H425.556L427.656 89.2H428.846L426.396 99H424.436L422.336 90.81H422.056L419.956 99H417.996ZM429.833 99V89.2H430.883V92.77H430.953C431.102 92.5833 431.275 92.434 431.471 92.322C431.956 92.014 432.483 91.86 433.053 91.86C433.865 91.86 434.532 92.1353 435.055 92.686C435.587 93.2273 435.853 93.932 435.853 94.8V99H434.803V94.8C434.803 94.24 434.621 93.7733 434.257 93.4C433.893 93.0267 433.445 92.84 432.913 92.84C432.353 92.84 431.872 93.036 431.471 93.428C431.079 93.8107 430.883 94.268 430.883 94.8V99H429.833ZM442.869 98.132C442.235 98.804 441.437 99.14 440.475 99.14C439.514 99.14 438.711 98.804 438.067 98.132C437.433 97.4507 437.115 96.5733 437.115 95.5C437.115 94.4267 437.433 93.554 438.067 92.882C438.711 92.2007 439.514 91.86 440.475 91.86C441.437 91.86 442.235 92.2007 442.869 92.882C443.513 93.554 443.835 94.4267 443.835 95.5C443.835 96.5733 443.513 97.4507 442.869 98.132ZM438.823 97.418C439.271 97.9127 439.822 98.16 440.475 98.16C441.129 98.16 441.675 97.9127 442.113 97.418C442.561 96.9233 442.785 96.284 442.785 95.5C442.785 94.716 442.561 94.0767 442.113 93.582C441.675 93.0873 441.129 92.84 440.475 92.84C439.822 92.84 439.271 93.0873 438.823 93.582C438.385 94.0767 438.165 94.716 438.165 95.5C438.165 96.284 438.385 96.9233 438.823 97.418ZM448.106 99V92H449.156V99H448.106ZM448.036 90.53V89.34H449.226V90.53H448.036ZM450.341 96.97H451.391C451.391 97.2967 451.545 97.5767 451.853 97.81C452.17 98.0433 452.599 98.16 453.141 98.16C453.673 98.16 454.083 98.062 454.373 97.866C454.671 97.6607 454.821 97.4087 454.821 97.11C454.821 96.5593 454.424 96.2093 453.631 96.06L452.441 95.85C451.134 95.6353 450.481 94.982 450.481 93.89C450.481 93.302 450.705 92.8167 451.153 92.434C451.601 92.0513 452.24 91.86 453.071 91.86C453.883 91.86 454.541 92.0747 455.045 92.504C455.549 92.9333 455.801 93.442 455.801 94.03H454.751C454.751 93.7033 454.597 93.4233 454.289 93.19C453.99 92.9567 453.584 92.84 453.071 92.84C452.567 92.84 452.184 92.9427 451.923 93.148C451.661 93.344 451.531 93.5913 451.531 93.89C451.531 94.4033 451.904 94.73 452.651 94.87L453.841 95.08C454.541 95.2107 455.054 95.444 455.381 95.78C455.707 96.1067 455.871 96.55 455.871 97.11C455.871 97.698 455.633 98.1833 455.157 98.566C454.69 98.9487 454.018 99.14 453.141 99.14C452.301 99.14 451.624 98.9253 451.111 98.496C450.597 98.0667 450.341 97.558 450.341 96.97ZM460.077 99V92H461.127V99H460.077ZM460.007 90.53V89.34H461.197V90.53H460.007ZM462.871 99V92H463.781L463.921 92.77H463.991C464.14 92.5833 464.313 92.434 464.509 92.322C464.994 92.014 465.522 91.86 466.091 91.86C466.903 91.86 467.57 92.1353 468.093 92.686C468.625 93.2273 468.891 93.932 468.891 94.8V99H467.841V94.8C467.841 94.24 467.659 93.7733 467.295 93.4C466.931 93.0267 466.483 92.84 465.951 92.84C465.391 92.84 464.91 93.036 464.509 93.428C464.117 93.8107 463.921 94.268 463.921 94.8V99H462.871ZM472.325 99V97.74H473.585V99H472.325ZM472.395 96.76V95.92C472.395 95.3693 472.507 94.9307 472.731 94.604C472.965 94.268 473.366 93.96 473.935 93.68C474.635 93.3253 474.985 92.742 474.985 91.93C474.985 91.4073 474.799 90.9733 474.425 90.628C474.052 90.2827 473.585 90.11 473.025 90.11C472.447 90.11 471.975 90.2733 471.611 90.6C471.247 90.9267 471.065 91.3233 471.065 91.79H469.945C469.945 91.0153 470.23 90.3667 470.799 89.844C471.378 89.3213 472.12 89.06 473.025 89.06C473.931 89.06 474.668 89.3353 475.237 89.886C475.816 90.4273 476.105 91.1087 476.105 91.93C476.105 93.1247 475.569 93.988 474.495 94.52C474.103 94.7067 473.842 94.9073 473.711 95.122C473.581 95.3367 473.515 95.6027 473.515 95.92V96.76H472.395Z" fill="white"/>
<rect x="376" y="148" width="140" height="140" rx="4" fill="url(#paint14_linear_3550_105020)" fill-opacity="0.1"/>
<rect x="376.5" y="148.5" width="139" height="139" rx="3.5" stroke="url(#paint15_linear_3550_105020)" stroke-opacity="0.2"/>
<path d="M446 223.5C455.665 223.5 463.5 215.665 463.5 206C463.5 196.335 455.665 188.5 446 188.5C436.335 188.5 428.5 196.335 428.5 206C428.5 215.665 436.335 223.5 446 223.5Z" stroke="#E5E5E5" stroke-width="3" stroke-miterlimit="10" stroke-linecap="square"/>
<path d="M446.001 215.999C446.462 215.999 446.835 215.626 446.835 215.165C446.835 214.705 446.462 214.332 446.001 214.332C445.541 214.332 445.168 214.705 445.168 215.165C445.168 215.626 445.541 215.999 446.001 215.999Z" fill="#E5E5E5" stroke="#E5E5E5" stroke-width="3" stroke-miterlimit="10" stroke-linecap="square"/>
<path d="M441 200.475C441.77 197.438 444.161 195.866 446.838 196.009C449.482 196.149 451.943 197.656 451.83 201.15C451.668 206.118 446.571 205.444 446.001 210.167" stroke="#E5E5E5" stroke-width="3" stroke-miterlimit="10" stroke-linecap="square"/>
<path d="M400.702 247L398.252 237.2H399.442L401.542 245.81H401.822L404.062 237.2H405.742L407.982 245.81H408.262L410.362 237.2H411.552L409.102 247H407.142L405.042 238.81H404.762L402.662 247H400.702ZM412.258 247V237.2H413.308V240.77H413.378C413.528 240.583 413.7 240.434 413.896 240.322C414.382 240.014 414.909 239.86 415.478 239.86C416.29 239.86 416.958 240.135 417.48 240.686C418.012 241.227 418.278 241.932 418.278 242.8V247H417.228V242.8C417.228 242.24 417.046 241.773 416.682 241.4C416.318 241.027 415.87 240.84 415.338 240.84C414.778 240.84 414.298 241.036 413.896 241.428C413.504 241.811 413.308 242.268 413.308 242.8V247H412.258ZM425.015 246.132C424.38 246.804 423.582 247.14 422.621 247.14C421.66 247.14 420.857 246.804 420.213 246.132C419.578 245.451 419.261 244.573 419.261 243.5C419.261 242.427 419.578 241.554 420.213 240.882C420.857 240.201 421.66 239.86 422.621 239.86C423.582 239.86 424.38 240.201 425.015 240.882C425.659 241.554 425.981 242.427 425.981 243.5C425.981 244.573 425.659 245.451 425.015 246.132ZM420.969 245.418C421.417 245.913 421.968 246.16 422.621 246.16C423.274 246.16 423.82 245.913 424.259 245.418C424.707 244.923 424.931 244.284 424.931 243.5C424.931 242.716 424.707 242.077 424.259 241.582C423.82 241.087 423.274 240.84 422.621 240.84C421.968 240.84 421.417 241.087 420.969 241.582C420.53 242.077 420.311 242.716 420.311 243.5C420.311 244.284 420.53 244.923 420.969 245.418ZM429.692 247V240H430.742V247H429.692ZM429.622 238.53V237.34H430.812V238.53H429.622ZM431.646 244.97H432.696C432.696 245.297 432.85 245.577 433.158 245.81C433.476 246.043 433.905 246.16 434.446 246.16C434.978 246.16 435.389 246.062 435.678 245.866C435.977 245.661 436.126 245.409 436.126 245.11C436.126 244.559 435.73 244.209 434.936 244.06L433.746 243.85C432.44 243.635 431.786 242.982 431.786 241.89C431.786 241.302 432.01 240.817 432.458 240.434C432.906 240.051 433.546 239.86 434.376 239.86C435.188 239.86 435.846 240.075 436.35 240.504C436.854 240.933 437.106 241.442 437.106 242.03H436.056C436.056 241.703 435.902 241.423 435.594 241.19C435.296 240.957 434.89 240.84 434.376 240.84C433.872 240.84 433.49 240.943 433.228 241.148C432.967 241.344 432.836 241.591 432.836 241.89C432.836 242.403 433.21 242.73 433.956 242.87L435.146 243.08C435.846 243.211 436.36 243.444 436.686 243.78C437.013 244.107 437.176 244.55 437.176 245.11C437.176 245.698 436.938 246.183 436.462 246.566C435.996 246.949 435.324 247.14 434.446 247.14C433.606 247.14 432.93 246.925 432.416 246.496C431.903 246.067 431.646 245.558 431.646 244.97ZM446.086 246.132C445.452 246.804 444.654 247.14 443.692 247.14C442.731 247.14 441.928 246.804 441.284 246.132C440.65 245.451 440.332 244.573 440.332 243.5C440.332 242.427 440.65 241.554 441.284 240.882C441.928 240.201 442.731 239.86 443.692 239.86C444.654 239.86 445.452 240.201 446.086 240.882C446.73 241.554 447.052 242.427 447.052 243.5C447.052 244.573 446.73 245.451 446.086 246.132ZM442.04 245.418C442.488 245.913 443.039 246.16 443.692 246.16C444.346 246.16 444.892 245.913 445.33 245.418C445.778 244.923 446.002 244.284 446.002 243.5C446.002 242.716 445.778 242.077 445.33 241.582C444.892 241.087 444.346 240.84 443.692 240.84C443.039 240.84 442.488 241.087 442.04 241.582C441.602 242.077 441.382 242.716 441.382 243.5C441.382 244.284 441.602 244.923 442.04 245.418ZM448.026 247V240H448.936L449.076 240.77H449.146C449.296 240.583 449.468 240.434 449.664 240.322C450.15 240.014 450.677 239.86 451.246 239.86C452.058 239.86 452.726 240.135 453.248 240.686C453.78 241.227 454.046 241.932 454.046 242.8V247H452.996V242.8C452.996 242.24 452.814 241.773 452.45 241.4C452.086 241.027 451.638 240.84 451.106 240.84C450.546 240.84 450.066 241.036 449.664 241.428C449.272 241.811 449.076 242.268 449.076 242.8V247H448.026ZM458.187 247V237.2H459.237V247H458.187ZM465.532 245.04H466.652C466.409 245.712 466.026 246.23 465.504 246.594C464.99 246.958 464.37 247.14 463.642 247.14C462.68 247.14 461.878 246.804 461.234 246.132C460.599 245.451 460.282 244.573 460.282 243.5C460.282 242.427 460.599 241.554 461.234 240.882C461.878 240.201 462.68 239.86 463.642 239.86C464.566 239.86 465.331 240.177 465.938 240.812C466.554 241.447 466.862 242.249 466.862 243.22C466.862 243.369 466.848 243.57 466.82 243.822L466.792 243.99H461.332C461.406 244.643 461.658 245.171 462.088 245.572C462.526 245.964 463.044 246.16 463.642 246.16C464.062 246.16 464.435 246.062 464.762 245.866C465.098 245.67 465.354 245.395 465.532 245.04ZM461.332 243.01H465.812C465.774 242.375 465.55 241.857 465.14 241.456C464.738 241.045 464.239 240.84 463.642 240.84C463.016 240.84 462.494 241.041 462.074 241.442C461.654 241.843 461.406 242.366 461.332 243.01ZM472.389 247L472.249 246.16H472.179C472.048 246.347 471.88 246.51 471.675 246.65C471.246 246.977 470.69 247.14 470.009 247.14C469.281 247.14 468.688 246.939 468.231 246.538C467.783 246.137 467.559 245.614 467.559 244.97C467.559 244.27 467.788 243.724 468.245 243.332C468.712 242.931 469.416 242.73 470.359 242.73H472.249V242.52C472.249 241.988 472.1 241.577 471.801 241.288C471.512 240.989 471.101 240.84 470.569 240.84C470.065 240.84 469.654 240.957 469.337 241.19C469.029 241.414 468.856 241.694 468.819 242.03H467.769C467.806 241.433 468.072 240.924 468.567 240.504C469.071 240.075 469.738 239.86 470.569 239.86C471.418 239.86 472.086 240.093 472.571 240.56C473.056 241.027 473.299 241.68 473.299 242.52V247H472.389ZM472.249 243.99V243.71H470.359C469.762 243.71 469.318 243.827 469.029 244.06C468.749 244.293 468.609 244.597 468.609 244.97C468.609 245.334 468.73 245.623 468.973 245.838C469.216 246.053 469.561 246.16 470.009 246.16C470.709 246.16 471.255 245.969 471.647 245.586C472.048 245.194 472.249 244.662 472.249 243.99ZM476.109 247L473.589 240H474.709L476.809 245.88H477.089L479.189 240H480.309L477.789 247H476.109ZM485.563 245.04H486.683C486.44 245.712 486.057 246.23 485.535 246.594C485.021 246.958 484.401 247.14 483.673 247.14C482.711 247.14 481.909 246.804 481.265 246.132C480.63 245.451 480.313 244.573 480.313 243.5C480.313 242.427 480.63 241.554 481.265 240.882C481.909 240.201 482.711 239.86 483.673 239.86C484.597 239.86 485.362 240.177 485.969 240.812C486.585 241.447 486.893 242.249 486.893 243.22C486.893 243.369 486.879 243.57 486.851 243.822L486.823 243.99H481.363C481.437 244.643 481.689 245.171 482.119 245.572C482.557 245.964 483.075 246.16 483.673 246.16C484.093 246.16 484.466 246.062 484.793 245.866C485.129 245.67 485.385 245.395 485.563 245.04ZM481.363 243.01H485.843C485.805 242.375 485.581 241.857 485.171 241.456C484.769 241.045 484.27 240.84 483.673 240.84C483.047 240.84 482.525 241.041 482.105 241.442C481.685 241.843 481.437 242.366 481.363 243.01ZM489.62 247V245.74H490.88V247H489.62ZM489.69 244.76V243.92C489.69 243.369 489.802 242.931 490.026 242.604C490.259 242.268 490.661 241.96 491.23 241.68C491.93 241.325 492.28 240.742 492.28 239.93C492.28 239.407 492.093 238.973 491.72 238.628C491.347 238.283 490.88 238.11 490.32 238.11C489.741 238.11 489.27 238.273 488.906 238.6C488.542 238.927 488.36 239.323 488.36 239.79H487.24C487.24 239.015 487.525 238.367 488.094 237.844C488.673 237.321 489.415 237.06 490.32 237.06C491.225 237.06 491.963 237.335 492.532 237.886C493.111 238.427 493.4 239.109 493.4 239.93C493.4 241.125 492.863 241.988 491.79 242.52C491.398 242.707 491.137 242.907 491.006 243.122C490.875 243.337 490.81 243.603 490.81 243.92V244.76H489.69Z" fill="white"/>
<rect x="376" y="296" width="140" height="140" rx="4" fill="url(#paint16_linear_3550_105020)" fill-opacity="0.1"/>
<rect x="376.5" y="296.5" width="139" height="139" rx="3.5" stroke="url(#paint17_linear_3550_105020)" stroke-opacity="0.2"/>
<path d="M456.528 357.685C457.497 357.685 458.282 356.899 458.282 355.93C458.282 354.961 457.497 354.176 456.528 354.176C455.559 354.176 454.773 354.961 454.773 355.93C454.773 356.899 455.559 357.685 456.528 357.685Z" fill="white"/>
<path d="M449.51 357.685C450.479 357.685 451.265 356.899 451.265 355.93C451.265 354.961 450.479 354.176 449.51 354.176C448.541 354.176 447.756 354.961 447.756 355.93C447.756 356.899 448.541 357.685 449.51 357.685Z" fill="white"/>
<path d="M442.493 357.685C443.462 357.685 444.247 356.899 444.247 355.93C444.247 354.961 443.462 354.176 442.493 354.176C441.524 354.176 440.738 354.961 440.738 355.93C440.738 356.899 441.524 357.685 442.493 357.685Z" fill="white"/>
<path d="M435.475 357.685C436.444 357.685 437.229 356.899 437.229 355.93C437.229 354.961 436.444 354.176 435.475 354.176C434.506 354.176 433.721 354.961 433.721 355.93C433.721 356.899 434.506 357.685 435.475 357.685Z" fill="white"/>
<path d="M449.51 364.704C450.479 364.704 451.265 363.919 451.265 362.95C451.265 361.981 450.479 361.195 449.51 361.195C448.541 361.195 447.756 361.981 447.756 362.95C447.756 363.919 448.541 364.704 449.51 364.704Z" fill="white"/>
<path d="M442.493 364.704C443.462 364.704 444.247 363.919 444.247 362.95C444.247 361.981 443.462 361.195 442.493 361.195C441.524 361.195 440.738 361.981 440.738 362.95C440.738 363.919 441.524 364.704 442.493 364.704Z" fill="white"/>
<path d="M435.475 364.704C436.444 364.704 437.229 363.919 437.229 362.95C437.229 361.981 436.444 361.195 435.475 361.195C434.506 361.195 433.721 361.981 433.721 362.95C433.721 363.919 434.506 364.704 435.475 364.704Z" fill="white"/>
<path fill-rule="evenodd" clip-rule="evenodd" d="M460.036 339.266C462.943 339.266 465.3 341.622 465.3 344.529V365.581C465.3 368.488 462.943 370.845 460.036 370.845H431.966C429.06 370.845 426.703 368.488 426.703 365.581V344.529C426.703 341.622 429.06 339.266 431.966 339.266H460.036ZM429.335 350.669V365.581C429.335 367.035 430.513 368.213 431.966 368.213H460.036C461.49 368.213 462.668 367.035 462.668 365.581V350.669H429.335ZM456.966 341.897H454.335V346.283H456.966V341.897ZM437.668 341.897H435.036V346.283H437.668V341.897Z" fill="white"/>
<path fill-rule="evenodd" clip-rule="evenodd" d="M437.669 334.879V341.896H435.037V334.879H437.669Z" fill="white"/>
<path fill-rule="evenodd" clip-rule="evenodd" d="M456.966 334.879V341.896H454.334V334.879H456.966Z" fill="white"/>
<path d="M429.401 395V385.2H430.521V393.95H435.421V395H429.401ZM440.961 393.04H442.081C441.838 393.712 441.456 394.23 440.933 394.594C440.42 394.958 439.799 395.14 439.071 395.14C438.11 395.14 437.307 394.804 436.663 394.132C436.028 393.451 435.711 392.573 435.711 391.5C435.711 390.427 436.028 389.554 436.663 388.882C437.307 388.201 438.11 387.86 439.071 387.86C439.995 387.86 440.76 388.177 441.367 388.812C441.983 389.447 442.291 390.249 442.291 391.22C442.291 391.369 442.277 391.57 442.249 391.822L442.221 391.99H436.761C436.836 392.643 437.088 393.171 437.517 393.572C437.956 393.964 438.474 394.16 439.071 394.16C439.491 394.16 439.864 394.062 440.191 393.866C440.527 393.67 440.784 393.395 440.961 393.04ZM436.761 391.01H441.241C441.204 390.375 440.98 389.857 440.569 389.456C440.168 389.045 439.668 388.84 439.071 388.84C438.446 388.84 437.923 389.041 437.503 389.442C437.083 389.843 436.836 390.366 436.761 391.01ZM448.098 395L447.958 394.16H447.888C447.758 394.347 447.59 394.51 447.384 394.65C446.955 394.977 446.4 395.14 445.718 395.14C444.99 395.14 444.398 394.939 443.94 394.538C443.492 394.137 443.268 393.614 443.268 392.97C443.268 392.27 443.497 391.724 443.954 391.332C444.421 390.931 445.126 390.73 446.068 390.73H447.958V390.52C447.958 389.988 447.809 389.577 447.51 389.288C447.221 388.989 446.81 388.84 446.278 388.84C445.774 388.84 445.364 388.957 445.046 389.19C444.738 389.414 444.566 389.694 444.528 390.03H443.478C443.516 389.433 443.782 388.924 444.276 388.504C444.78 388.075 445.448 387.86 446.278 387.86C447.128 387.86 447.795 388.093 448.28 388.56C448.766 389.027 449.008 389.68 449.008 390.52V395H448.098ZM447.958 391.99V391.71H446.068C445.471 391.71 445.028 391.827 444.738 392.06C444.458 392.293 444.318 392.597 444.318 392.97C444.318 393.334 444.44 393.623 444.682 393.838C444.925 394.053 445.27 394.16 445.718 394.16C446.418 394.16 446.964 393.969 447.356 393.586C447.758 393.194 447.958 392.662 447.958 391.99ZM452.099 395L449.579 388H450.699L452.799 393.88H453.079L455.179 388H456.299L453.779 395H452.099ZM461.832 393.04H462.952C462.709 393.712 462.327 394.23 461.804 394.594C461.291 394.958 460.67 395.14 459.942 395.14C458.981 395.14 458.178 394.804 457.534 394.132C456.899 393.451 456.582 392.573 456.582 391.5C456.582 390.427 456.899 389.554 457.534 388.882C458.178 388.201 458.981 387.86 459.942 387.86C460.866 387.86 461.631 388.177 462.238 388.812C462.854 389.447 463.162 390.249 463.162 391.22C463.162 391.369 463.148 391.57 463.12 391.822L463.092 391.99H457.632C457.707 392.643 457.959 393.171 458.388 393.572C458.827 393.964 459.345 394.16 459.942 394.16C460.362 394.16 460.735 394.062 461.062 393.866C461.398 393.67 461.655 393.395 461.832 393.04ZM457.632 391.01H462.112C462.075 390.375 461.851 389.857 461.44 389.456C461.039 389.045 460.539 388.84 459.942 388.84C459.317 388.84 458.794 389.041 458.374 389.442C457.954 389.843 457.707 390.366 457.632 391.01Z" fill="white"/>
<defs>
<linearGradient id="paint0_linear_3550_105020" x1="30.4167" y1="-29.75" x2="312.167" y2="258.417" gradientUnits="userSpaceOnUse">
<stop stop-color="white"/>
<stop offset="1" stop-color="white" stop-opacity="0"/>
</linearGradient>
<linearGradient id="paint1_linear_3550_105020" x1="9.41666" y1="-31.5" x2="220" y2="188.417" gradientUnits="userSpaceOnUse">
<stop stop-color="white"/>
<stop offset="1" stop-color="white" stop-opacity="0"/>
</linearGradient>
<linearGradient id="paint2_linear_3550_105020" x1="30.4167" y1="118.25" x2="312.167" y2="406.417" gradientUnits="userSpaceOnUse">
<stop stop-color="white"/>
<stop offset="1" stop-color="white" stop-opacity="0"/>
</linearGradient>
<linearGradient id="paint3_linear_3550_105020" x1="9.41666" y1="116.5" x2="220" y2="336.417" gradientUnits="userSpaceOnUse">
<stop stop-color="white"/>
<stop offset="1" stop-color="white" stop-opacity="0"/>
</linearGradient>
<linearGradient id="paint4_linear_3550_105020" x1="30.4167" y1="266.25" x2="312.167" y2="554.417" gradientUnits="userSpaceOnUse">
<stop stop-color="white"/>
<stop offset="1" stop-color="white" stop-opacity="0"/>
</linearGradient>
<linearGradient id="paint5_linear_3550_105020" x1="9.41666" y1="264.5" x2="220" y2="484.417" gradientUnits="userSpaceOnUse">
<stop stop-color="white"/>
<stop offset="1" stop-color="white" stop-opacity="0"/>
</linearGradient>
<linearGradient id="paint6_linear_3550_105020" x1="178.417" y1="-29.75" x2="460.167" y2="258.417" gradientUnits="userSpaceOnUse">
<stop stop-color="white"/>
<stop offset="1" stop-color="white" stop-opacity="0"/>
</linearGradient>
<linearGradient id="paint7_linear_3550_105020" x1="157.417" y1="-31.5" x2="368" y2="188.417" gradientUnits="userSpaceOnUse">
<stop stop-color="white"/>
<stop offset="1" stop-color="white" stop-opacity="0"/>
</linearGradient>
<linearGradient id="paint8_linear_3550_105020" x1="178.417" y1="118.25" x2="460.167" y2="406.417" gradientUnits="userSpaceOnUse">
<stop stop-color="white"/>
<stop offset="1" stop-color="white" stop-opacity="0"/>
</linearGradient>
<linearGradient id="paint9_linear_3550_105020" x1="157.417" y1="116.5" x2="368" y2="336.417" gradientUnits="userSpaceOnUse">
<stop stop-color="white"/>
<stop offset="1" stop-color="white" stop-opacity="0"/>
</linearGradient>
<linearGradient id="paint10_linear_3550_105020" x1="178.417" y1="266.25" x2="460.167" y2="554.417" gradientUnits="userSpaceOnUse">
<stop stop-color="white"/>
<stop offset="1" stop-color="white" stop-opacity="0"/>
</linearGradient>
<linearGradient id="paint11_linear_3550_105020" x1="157.417" y1="264.5" x2="368" y2="484.417" gradientUnits="userSpaceOnUse">
<stop stop-color="white"/>
<stop offset="1" stop-color="white" stop-opacity="0"/>
</linearGradient>
<linearGradient id="paint12_linear_3550_105020" x1="326.417" y1="-29.75" x2="608.167" y2="258.417" gradientUnits="userSpaceOnUse">
<stop stop-color="white"/>
<stop offset="1" stop-color="white" stop-opacity="0"/>
</linearGradient>
<linearGradient id="paint13_linear_3550_105020" x1="305.417" y1="-31.5" x2="516" y2="188.417" gradientUnits="userSpaceOnUse">
<stop stop-color="white"/>
<stop offset="1" stop-color="white" stop-opacity="0"/>
</linearGradient>
<linearGradient id="paint14_linear_3550_105020" x1="326.417" y1="118.25" x2="608.167" y2="406.417" gradientUnits="userSpaceOnUse">
<stop stop-color="white"/>
<stop offset="1" stop-color="white" stop-opacity="0"/>
</linearGradient>
<linearGradient id="paint15_linear_3550_105020" x1="305.417" y1="116.5" x2="516" y2="336.417" gradientUnits="userSpaceOnUse">
<stop stop-color="white"/>
<stop offset="1" stop-color="white" stop-opacity="0"/>
</linearGradient>
<linearGradient id="paint16_linear_3550_105020" x1="326.417" y1="266.25" x2="608.167" y2="554.417" gradientUnits="userSpaceOnUse">
<stop stop-color="white"/>
<stop offset="1" stop-color="white" stop-opacity="0"/>
</linearGradient>
<linearGradient id="paint17_linear_3550_105020" x1="305.417" y1="264.5" x2="516" y2="484.417" gradientUnits="userSpaceOnUse">
<stop stop-color="white"/>
<stop offset="1" stop-color="white" stop-opacity="0"/>
</linearGradient>
</defs>
</svg>
