<svg width="46" height="45" viewBox="0 0 46 45" fill="none" xmlns="http://www.w3.org/2000/svg">
<path fill-rule="evenodd" clip-rule="evenodd" d="M12 26V36C12 37.6569 13.3431 39 15 39H23V42H15C11.6863 42 9 39.3137 9 36V26H12Z" fill="white"/>
<path fill-rule="evenodd" clip-rule="evenodd" d="M20 26.4872C20 19.5504 25.8623 14 33 14C40.1377 14 46 19.5504 46 26.4872C46 33.3794 40.5697 39.0553 33.5628 43.8266L33 44.2098L32.4372 43.8266C25.4303 39.0553 20 33.3794 20 26.4872ZM29 27C29 24.7909 30.7909 23 33 23C35.2091 23 37 24.7909 37 27C37 29.2091 35.2091 31 33 31C30.7909 31 29 29.2091 29 27Z" fill="white"/>
<path fill-rule="evenodd" clip-rule="evenodd" d="M0 9.6154C0 4.26454 4.51908 0 10 0C15.4809 0 20 4.26454 20 9.6154C20 14.9217 15.8237 19.2442 10.5628 22.8266L10 23.2098L9.4372 22.8266C4.17626 19.2442 0 14.9217 0 9.6154ZM6.5 10C6.5 8.067 8.067 6.5 10 6.5C11.933 6.5 13.5 8.067 13.5 10C13.5 11.933 11.933 13.5 10 13.5C8.067 13.5 6.5 11.933 6.5 10Z" fill="white"/>
</svg>
