<svg width="612" height="244" viewBox="0 0 612 244" fill="none" xmlns="http://www.w3.org/2000/svg">
<mask id="path-1-inside-1_3550_100913" fill="white">
<path d="M0 8C0 3.58173 3.58172 0 8 0H604C608.418 0 612 3.58172 612 8V236C612 240.418 608.418 244 604 244H8C3.58172 244 0 240.418 0 236V8Z"/>
</mask>
<path d="M0 8C0 3.58173 3.58172 0 8 0H604C608.418 0 612 3.58172 612 8V236C612 240.418 608.418 244 604 244H8C3.58172 244 0 240.418 0 236V8Z" fill="url(#paint0_linear_3550_100913)" fill-opacity="0.1"/>
<path d="M8 0V1H604V0V-1H8V0ZM612 8H611V236H612H613V8H612ZM604 244V243H8V244V245H604V244ZM0 236H1V8H0H-1V236H0ZM8 244V243C4.13401 243 1 239.866 1 236H0H-1C-1 240.971 3.02944 245 8 245V244ZM612 236H611C611 239.866 607.866 243 604 243V244V245C608.971 245 613 240.971 613 236H612ZM604 0V1C607.866 1 611 4.13401 611 8H612H613C613 3.02944 608.971 -1 604 -1V0ZM8 0V-1C3.02944 -1 -1 3.02944 -1 8H0H1C1 4.13401 4.13401 1 8 1V0Z" fill="url(#paint1_linear_3550_100913)" fill-opacity="0.2" mask="url(#path-1-inside-1_3550_100913)"/>
<path d="M17.2 38V26.8H18.88V38H17.2ZM21.1181 38V30H22.5581L22.7181 30.8H22.7981C22.9795 30.6187 23.1768 30.4587 23.3901 30.32C23.9021 30 24.4781 29.84 25.1181 29.84C26.0888 29.84 26.8621 30.144 27.4381 30.752C28.0248 31.3493 28.3181 32.1653 28.3181 33.2V38H26.7181V33.2C26.7181 32.6773 26.5315 32.2293 26.1581 31.856C25.7955 31.472 25.3421 31.28 24.7981 31.28C24.2115 31.28 23.7155 31.472 23.3101 31.856C22.9155 32.2293 22.7181 32.6773 22.7181 33.2V38H21.1181ZM31.8488 38L29.0488 30H30.7288L32.8888 36.24H33.2088L35.3688 30H37.0487L34.2488 38H31.8488ZM39.2088 33.36H43.9288C43.8434 32.7093 43.5928 32.1867 43.1768 31.792C42.7608 31.3973 42.2381 31.2 41.6088 31.2C40.9474 31.2 40.4141 31.3973 40.0088 31.792C39.6034 32.176 39.3368 32.6987 39.2088 33.36ZM43.5288 35.68H45.2088C44.9741 36.32 44.5474 36.896 43.9288 37.408C43.3208 37.9093 42.5474 38.16 41.6088 38.16C40.4461 38.16 39.4861 37.776 38.7288 37.008C37.9821 36.24 37.6088 35.2373 37.6088 34C37.6088 32.7627 37.9821 31.76 38.7288 30.992C39.4861 30.224 40.4461 29.84 41.6088 29.84C42.6968 29.84 43.6088 30.2133 44.3448 30.96C45.0808 31.7067 45.4488 32.64 45.4488 33.76C45.4488 33.856 45.4328 34.048 45.4008 34.336L45.3688 34.56H39.2088C39.2941 35.2427 39.5554 35.7867 39.9928 36.192C40.4301 36.5973 40.9688 36.8 41.6088 36.8C42.0568 36.8 42.4514 36.6933 42.7928 36.48C43.1448 36.256 43.3901 35.9893 43.5288 35.68ZM47.1338 38V30H48.5738L48.7338 30.8H48.8138C48.9951 30.6187 49.1924 30.4587 49.4058 30.32C49.9178 30 50.4938 29.84 51.1338 29.84C52.1044 29.84 52.8778 30.144 53.4538 30.752C54.0404 31.3493 54.3338 32.1653 54.3338 33.2V38H52.7338V33.2C52.7338 32.6773 52.5471 32.2293 52.1738 31.856C51.8111 31.472 51.3578 31.28 50.8138 31.28C50.2271 31.28 49.7311 31.472 49.3258 31.856C48.9311 32.2293 48.7338 32.6773 48.7338 33.2V38H47.1338ZM56.6644 36.32V31.52H55.3844V30H56.6644V27.76H58.2644V30H60.1044V31.52H58.2644V36.08C58.2644 36.4 58.4244 36.56 58.7444 36.56H60.1044V38H58.4244C57.859 38 57.4217 37.8507 57.1124 37.552C56.8137 37.2533 56.6644 36.8427 56.6644 36.32ZM63.4276 35.984C63.8863 36.4747 64.4623 36.72 65.1556 36.72C65.849 36.72 66.4196 36.4747 66.8676 35.984C67.3263 35.4827 67.5556 34.8213 67.5556 34C67.5556 33.1787 67.3263 32.5227 66.8676 32.032C66.4196 31.5307 65.849 31.28 65.1556 31.28C64.4623 31.28 63.8863 31.5307 63.4276 32.032C62.9796 32.5227 62.7556 33.1787 62.7556 34C62.7556 34.8213 62.9796 35.4827 63.4276 35.984ZM68.0196 37.008C67.273 37.776 66.3183 38.16 65.1556 38.16C63.993 38.16 63.033 37.776 62.2756 37.008C61.529 36.24 61.1556 35.2373 61.1556 34C61.1556 32.7627 61.529 31.76 62.2756 30.992C63.033 30.224 63.993 29.84 65.1556 29.84C66.3183 29.84 67.273 30.224 68.0196 30.992C68.777 31.76 69.1556 32.7627 69.1556 34C69.1556 35.2373 68.777 36.24 68.0196 37.008ZM70.8369 38V30H72.1969L72.3569 30.72H72.4369C72.4475 30.7093 72.4795 30.672 72.5329 30.608C72.5969 30.544 72.6342 30.5013 72.6449 30.48C72.6662 30.4587 72.7089 30.4213 72.7729 30.368C72.8369 30.304 72.8902 30.2613 72.9329 30.24C72.9755 30.2187 73.0342 30.192 73.1089 30.16C73.1835 30.1173 73.2582 30.0907 73.3329 30.08C73.4182 30.0587 73.5142 30.0427 73.6209 30.032C73.7275 30.0107 73.8395 30 73.9569 30H75.3969V31.44H74.1169C72.9969 31.44 72.4369 31.9947 72.4369 33.104V38H70.8369ZM76.5225 41.2V39.76H78.1225C78.2612 39.76 78.3785 39.7067 78.4745 39.6C78.5705 39.504 78.6345 39.3973 78.6665 39.28L78.9225 38.56L75.6425 30H77.3225L79.6425 36.08H79.9625L82.0425 30H83.7225L80.2025 39.84C80.0318 40.3093 79.7972 40.6507 79.4985 40.864C79.2105 41.088 78.7785 41.2 78.2025 41.2H76.5225ZM87.0781 38L91.1581 26.8H93.7181L97.7981 38H95.9581L94.9981 35.36H89.8781L88.9181 38H87.0781ZM90.4381 33.84H94.4381L92.5981 28.72H92.2781L90.4381 33.84ZM100.661 35.424C101.088 35.8613 101.626 36.08 102.277 36.08C102.928 36.08 103.461 35.8613 103.877 35.424C104.304 34.976 104.517 34.3947 104.517 33.68C104.517 32.9653 104.304 32.3893 103.877 31.952C103.461 31.504 102.928 31.28 102.277 31.28C101.626 31.28 101.088 31.504 100.661 31.952C100.245 32.3893 100.037 32.9653 100.037 33.68C100.037 34.3947 100.245 34.976 100.661 35.424ZM98.6769 38.48H100.277C100.32 38.8747 100.522 39.2107 100.885 39.488C101.258 39.776 101.749 39.92 102.357 39.92C102.997 39.92 103.514 39.7227 103.909 39.328C104.314 38.944 104.517 38.448 104.517 37.84V36.56H104.437C104.256 36.7413 104.096 36.8853 103.957 36.992C103.818 37.0987 103.568 37.216 103.205 37.344C102.842 37.4613 102.426 37.52 101.957 37.52C100.944 37.52 100.101 37.168 99.4289 36.464C98.7675 35.7493 98.4369 34.8213 98.4369 33.68C98.4369 32.5387 98.7675 31.616 99.4289 30.912C100.101 30.1973 100.944 29.84 101.957 29.84C103.024 29.84 103.85 30.1867 104.437 30.88H104.517L104.677 30H106.117V37.84C106.117 38.9067 105.786 39.76 105.125 40.4C104.464 41.04 103.541 41.36 102.357 41.36C101.738 41.36 101.184 41.264 100.693 41.072C100.202 40.88 99.8182 40.6293 99.5409 40.32C99.2742 40.0213 99.0662 39.712 98.9169 39.392C98.7782 39.0827 98.6982 38.7787 98.6769 38.48ZM109.396 33.36H114.116C114.031 32.7093 113.78 32.1867 113.364 31.792C112.948 31.3973 112.426 31.2 111.796 31.2C111.135 31.2 110.602 31.3973 110.196 31.792C109.791 32.176 109.524 32.6987 109.396 33.36ZM113.716 35.68H115.396C115.162 36.32 114.735 36.896 114.116 37.408C113.508 37.9093 112.735 38.16 111.796 38.16C110.634 38.16 109.674 37.776 108.916 37.008C108.17 36.24 107.796 35.2373 107.796 34C107.796 32.7627 108.17 31.76 108.916 30.992C109.674 30.224 110.634 29.84 111.796 29.84C112.884 29.84 113.796 30.2133 114.532 30.96C115.268 31.7067 115.636 32.64 115.636 33.76C115.636 33.856 115.62 34.048 115.588 34.336L115.556 34.56H109.396C109.482 35.2427 109.743 35.7867 110.18 36.192C110.618 36.5973 111.156 36.8 111.796 36.8C112.244 36.8 112.639 36.6933 112.98 36.48C113.332 36.256 113.578 35.9893 113.716 35.68ZM117.321 38V30H118.921V38H117.321ZM117.241 28.48V26.8H119.001V28.48H117.241ZM121.009 38V30H122.449L122.609 30.8H122.689C122.87 30.6187 123.067 30.4587 123.281 30.32C123.793 30 124.369 29.84 125.009 29.84C125.979 29.84 126.753 30.144 127.329 30.752C127.915 31.3493 128.209 32.1653 128.209 33.2V38H126.609V33.2C126.609 32.6773 126.422 32.2293 126.049 31.856C125.686 31.472 125.233 31.28 124.689 31.28C124.102 31.28 123.606 31.472 123.201 31.856C122.806 32.2293 122.609 32.6773 122.609 33.2V38H121.009ZM132.036 35.424C132.463 35.8613 133.001 36.08 133.652 36.08C134.303 36.08 134.836 35.8613 135.252 35.424C135.679 34.976 135.892 34.3947 135.892 33.68C135.892 32.9653 135.679 32.3893 135.252 31.952C134.836 31.504 134.303 31.28 133.652 31.28C133.001 31.28 132.463 31.504 132.036 31.952C131.62 32.3893 131.412 32.9653 131.412 33.68C131.412 34.3947 131.62 34.976 132.036 35.424ZM130.052 38.48H131.652C131.695 38.8747 131.897 39.2107 132.26 39.488C132.633 39.776 133.124 39.92 133.732 39.92C134.372 39.92 134.889 39.7227 135.284 39.328C135.689 38.944 135.892 38.448 135.892 37.84V36.56H135.812C135.631 36.7413 135.471 36.8853 135.332 36.992C135.193 37.0987 134.943 37.216 134.58 37.344C134.217 37.4613 133.801 37.52 133.332 37.52C132.319 37.52 131.476 37.168 130.804 36.464C130.143 35.7493 129.812 34.8213 129.812 33.68C129.812 32.5387 130.143 31.616 130.804 30.912C131.476 30.1973 132.319 29.84 133.332 29.84C134.399 29.84 135.225 30.1867 135.812 30.88H135.892L136.052 30H137.492V37.84C137.492 38.9067 137.161 39.76 136.5 40.4C135.839 41.04 134.916 41.36 133.732 41.36C133.113 41.36 132.559 41.264 132.068 41.072C131.577 40.88 131.193 40.6293 130.916 40.32C130.649 40.0213 130.441 39.712 130.292 39.392C130.153 39.0827 130.073 38.7787 130.052 38.48Z" fill="#EEEFFC"/>
<g filter="url(#filter0_ddd_3550_100913)">
<path d="M482 20C482 17.7909 483.791 16 486 16H592C594.209 16 596 17.7909 596 20V44C596 46.2091 594.209 48 592 48H486C483.791 48 482 46.2091 482 44V20Z" fill="url(#paint2_linear_3550_100913)" fill-opacity="0.4" shape-rendering="crispEdges"/>
<path d="M486 16.5H592C593.933 16.5 595.5 18.067 595.5 20V44C595.5 45.933 593.933 47.5 592 47.5H486C484.067 47.5 482.5 45.933 482.5 44V20C482.5 18.067 484.067 16.5 486 16.5Z" stroke="url(#paint3_linear_3550_100913)" stroke-opacity="0.1" shape-rendering="crispEdges"/>
<path d="M491.855 33.0058C491.455 32.3987 491.455 31.5996 491.855 30.9925C492.76 29.6209 494.754 27.332 497.999 27.332C501.243 27.332 503.239 29.62 504.143 30.9925C504.543 31.5996 504.543 32.3987 504.143 33.0058C503.238 34.3774 501.243 36.6663 497.999 36.6663C494.754 36.6663 492.759 34.3783 491.855 33.0058Z" stroke="#F7F8F8" stroke-linecap="round" stroke-linejoin="round"/>
<path d="M497.999 34.4436C499.349 34.4436 500.444 33.3492 500.444 31.9991C500.444 30.6491 499.349 29.5547 497.999 29.5547C496.649 29.5547 495.555 30.6491 495.555 31.9991C495.555 33.3492 496.649 34.4436 497.999 34.4436Z" stroke="#F7F8F8" stroke-linecap="round" stroke-linejoin="round"/>
<path d="M513.71 37L510.14 27.2H511.33L514.41 35.81H514.69L517.77 27.2H518.96L515.39 37H513.71ZM520.155 37V30H521.205V37H520.155ZM520.085 28.53V27.34H521.275V28.53H520.085ZM528.06 35.04H529.18C528.937 35.712 528.555 36.23 528.032 36.594C527.519 36.958 526.898 37.14 526.17 37.14C525.209 37.14 524.406 36.804 523.762 36.132C523.127 35.4507 522.81 34.5733 522.81 33.5C522.81 32.4267 523.127 31.554 523.762 30.882C524.406 30.2007 525.209 29.86 526.17 29.86C527.094 29.86 527.859 30.1773 528.466 30.812C529.082 31.4467 529.39 32.2493 529.39 33.22C529.39 33.3693 529.376 33.57 529.348 33.822L529.32 33.99H523.86C523.935 34.6433 524.187 35.1707 524.616 35.572C525.055 35.964 525.573 36.16 526.17 36.16C526.59 36.16 526.963 36.062 527.29 35.866C527.626 35.67 527.883 35.3947 528.06 35.04ZM523.86 33.01H528.34C528.303 32.3753 528.079 31.8573 527.668 31.456C527.267 31.0453 526.767 30.84 526.17 30.84C525.545 30.84 525.022 31.0407 524.602 31.442C524.182 31.8433 523.935 32.366 523.86 33.01ZM531.911 37L530.021 30H531.141L532.681 35.88H532.961L534.501 30H536.181L537.721 35.88H538.001L539.541 30H540.661L538.771 37H536.951L535.481 31.33H535.201L533.731 37H531.911ZM543.674 37L547.384 27.2H549.064L552.774 37H551.584L550.674 34.48H545.774L544.864 37H543.674ZM546.194 33.43H550.254L548.364 28.39H548.084L546.194 33.43ZM553.619 37.56H554.669C554.707 37.952 554.907 38.2833 555.271 38.554C555.635 38.8247 556.135 38.96 556.769 38.96C557.404 38.96 557.913 38.7827 558.295 38.428C558.678 38.0733 558.869 37.5973 558.869 37V35.74H558.799C558.221 36.3933 557.474 36.72 556.559 36.72C555.635 36.72 554.865 36.4027 554.249 35.768C553.643 35.124 553.339 34.298 553.339 33.29C553.339 32.282 553.643 31.4607 554.249 30.826C554.865 30.182 555.635 29.86 556.559 29.86C557.007 29.86 557.427 29.958 557.819 30.154C558.221 30.3407 558.547 30.5927 558.799 30.91H558.869L559.009 30H559.919V37C559.919 37.8867 559.635 38.596 559.065 39.128C558.505 39.6693 557.74 39.94 556.769 39.94C555.836 39.94 555.085 39.702 554.515 39.226C553.955 38.7593 553.657 38.204 553.619 37.56ZM555.019 35.068C555.449 35.516 555.985 35.74 556.629 35.74C557.273 35.74 557.805 35.516 558.225 35.068C558.655 34.6107 558.869 34.018 558.869 33.29C558.869 32.562 558.655 31.974 558.225 31.526C557.805 31.0687 557.273 30.84 556.629 30.84C555.985 30.84 555.449 31.0687 555.019 31.526C554.599 31.974 554.389 32.562 554.389 33.29C554.389 34.018 554.599 34.6107 555.019 35.068ZM566.71 35.04H567.83C567.588 35.712 567.205 36.23 566.682 36.594C566.169 36.958 565.548 37.14 564.82 37.14C563.859 37.14 563.056 36.804 562.412 36.132C561.778 35.4507 561.46 34.5733 561.46 33.5C561.46 32.4267 561.778 31.554 562.412 30.882C563.056 30.2007 563.859 29.86 564.82 29.86C565.744 29.86 566.51 30.1773 567.116 30.812C567.732 31.4467 568.04 32.2493 568.04 33.22C568.04 33.3693 568.026 33.57 567.998 33.822L567.97 33.99H562.51C562.585 34.6433 562.837 35.1707 563.266 35.572C563.705 35.964 564.223 36.16 564.82 36.16C565.24 36.16 565.614 36.062 565.94 35.866C566.276 35.67 566.533 35.3947 566.71 35.04ZM562.51 33.01H566.99C566.953 32.3753 566.729 31.8573 566.318 31.456C565.917 31.0453 565.418 30.84 564.82 30.84C564.195 30.84 563.672 31.0407 563.252 31.442C562.832 31.8433 562.585 32.366 562.51 33.01ZM569.648 37V30H570.698V37H569.648ZM569.578 28.53V27.34H570.768V28.53H569.578ZM572.722 37V30H573.632L573.772 30.77H573.842C573.992 30.5833 574.164 30.434 574.36 30.322C574.846 30.014 575.373 29.86 575.942 29.86C576.754 29.86 577.422 30.1353 577.944 30.686C578.476 31.2273 578.742 31.932 578.742 32.8V37H577.692V32.8C577.692 32.24 577.51 31.7733 577.146 31.4C576.782 31.0267 576.334 30.84 575.802 30.84C575.242 30.84 574.762 31.036 574.36 31.428C573.968 31.8107 573.772 32.268 573.772 32.8V37H572.722ZM580.567 37.56H581.617C581.654 37.952 581.855 38.2833 582.219 38.554C582.583 38.8247 583.082 38.96 583.717 38.96C584.351 38.96 584.86 38.7827 585.243 38.428C585.625 38.0733 585.817 37.5973 585.817 37V35.74H585.747C585.168 36.3933 584.421 36.72 583.507 36.72C582.583 36.72 581.813 36.4027 581.197 35.768C580.59 35.124 580.287 34.298 580.287 33.29C580.287 32.282 580.59 31.4607 581.197 30.826C581.813 30.182 582.583 29.86 583.507 29.86C583.955 29.86 584.375 29.958 584.767 30.154C585.168 30.3407 585.495 30.5927 585.747 30.91H585.817L585.957 30H586.867V37C586.867 37.8867 586.582 38.596 586.013 39.128C585.453 39.6693 584.687 39.94 583.717 39.94C582.783 39.94 582.032 39.702 581.463 39.226C580.903 38.7593 580.604 38.204 580.567 37.56ZM581.967 35.068C582.396 35.516 582.933 35.74 583.577 35.74C584.221 35.74 584.753 35.516 585.173 35.068C585.602 34.6107 585.817 34.018 585.817 33.29C585.817 32.562 585.602 31.974 585.173 31.526C584.753 31.0687 584.221 30.84 583.577 30.84C582.933 30.84 582.396 31.0687 581.967 31.526C581.547 31.974 581.337 32.562 581.337 33.29C581.337 34.018 581.547 34.6107 581.967 35.068Z" fill="#F7F8F8"/>
</g>
<path d="M161.365 58.2625C161.278 57.1613 162.1 56.1955 163.202 56.1339C174.948 55.4777 186.71 57.2377 197.76 61.3134C208.81 65.3891 218.899 71.6884 227.405 79.8142C228.203 80.5771 228.201 81.8453 227.42 82.6261L208.957 101.074C208.176 101.855 206.912 101.852 206.104 101.099C200.683 96.0489 194.307 92.122 187.344 89.5537C180.381 86.9854 172.982 85.8317 165.581 86.1524C164.477 86.2002 163.514 85.382 163.426 84.2809L161.365 58.2625Z" fill="#3B82F6"/>
<path d="M247.15 170.13C248.191 170.5 248.737 171.644 248.343 172.676C241.697 190.083 229.575 204.863 213.805 214.787C212.87 215.375 211.641 215.064 211.074 214.115L197.69 191.708C197.124 190.76 197.436 189.535 198.363 188.935C208.13 182.617 215.684 173.407 219.969 162.592C220.376 161.565 221.516 161.02 222.557 161.39L247.15 170.13Z" fill="#FFD964"/>
<path d="M209.384 215.098C209.928 216.059 209.591 217.282 208.618 217.804C192.963 226.192 175.077 229.536 157.419 227.347C139.761 225.157 123.233 217.547 110.101 205.59C109.284 204.846 109.255 203.578 110.018 202.779L128.034 183.894C128.796 183.095 130.06 183.068 130.886 183.801C139.336 191.304 149.876 196.081 161.122 197.475C172.368 198.87 183.756 196.811 193.782 191.599C194.762 191.09 195.981 191.424 196.526 192.385L209.384 215.098Z" fill="#F08B32"/>
<path d="M108.603 201.397C107.822 202.178 106.554 202.18 105.791 201.381C96.0162 191.14 88.913 178.637 85.1256 164.975C81.3382 151.313 80.9898 136.936 84.0969 123.125C84.3393 122.047 85.4273 121.396 86.499 121.663L111.823 127.982C112.894 128.249 113.543 129.334 113.314 130.415C111.456 139.182 111.732 148.278 114.132 156.933C116.531 165.589 120.978 173.528 127.084 180.088C127.837 180.896 127.84 182.16 127.059 182.941L108.603 201.397Z" fill="#47CD89"/>
<path d="M86.8612 120.263C85.7943 119.977 85.1588 118.88 85.4694 117.82C90.1699 101.776 99.4505 87.4341 112.193 76.5664C124.935 65.6988 140.561 58.7976 157.146 56.6877C158.242 56.5483 159.225 57.349 159.339 58.4477L162.03 84.4086C162.144 85.5073 161.345 86.4866 160.251 86.6397C149.729 88.1123 139.83 92.556 131.725 99.4682C123.621 106.38 117.671 115.455 114.556 125.612C114.232 126.668 113.139 127.303 112.072 127.017L86.8612 120.263Z" fill="#9747FF"/>
<path d="M228.679 83.9137C229.477 83.1499 230.745 83.1761 231.49 83.9916C241.601 95.0571 248.651 108.583 251.927 123.233C255.203 137.883 254.585 153.124 250.151 167.442C249.824 168.497 248.688 169.061 247.641 168.709L222.895 160.41C221.848 160.059 221.287 158.926 221.601 157.867C224.298 148.756 224.631 139.096 222.553 129.801C220.474 120.507 216.059 111.909 209.738 104.814C209.003 103.989 209.028 102.726 209.825 101.962L228.679 83.9137Z" fill="#DD3AEB"/>
<rect x="310" y="106" width="16" height="16" rx="2" fill="#3B82F6"/>
<path d="M339.862 117.81C339.134 116.923 338.77 115.687 338.77 114.1C338.77 112.513 339.134 111.277 339.862 110.39C340.59 109.503 341.486 109.06 342.55 109.06C343.614 109.06 344.51 109.503 345.238 110.39C345.966 111.277 346.33 112.513 346.33 114.1C346.33 115.687 345.966 116.923 345.238 117.81C344.51 118.697 343.614 119.14 342.55 119.14C341.486 119.14 340.59 118.697 339.862 117.81ZM344.44 111.16C343.927 110.46 343.297 110.11 342.55 110.11C341.803 110.11 341.173 110.46 340.66 111.16C340.147 111.86 339.89 112.84 339.89 114.1C339.89 115.36 340.147 116.34 340.66 117.04C341.173 117.74 341.803 118.09 342.55 118.09C343.297 118.09 343.927 117.74 344.44 117.04C344.953 116.34 345.21 115.36 345.21 114.1C345.21 112.84 344.953 111.86 344.44 111.16ZM347.735 115.5V114.52H352.215V115.5H347.735ZM353.338 116.41H354.458C354.458 116.886 354.644 117.287 355.018 117.614C355.4 117.931 355.914 118.09 356.558 118.09C357.174 118.09 357.678 117.922 358.07 117.586C358.462 117.25 358.658 116.835 358.658 116.34C358.658 115.799 358.466 115.36 358.084 115.024C357.701 114.688 357.192 114.52 356.558 114.52H355.928V113.47H356.558C357.174 113.47 357.654 113.307 358 112.98C358.345 112.653 358.518 112.243 358.518 111.748C358.518 111.3 358.336 110.917 357.972 110.6C357.608 110.273 357.136 110.11 356.558 110.11C356.007 110.11 355.54 110.273 355.158 110.6C354.784 110.917 354.598 111.291 354.598 111.72H353.478C353.478 111.001 353.767 110.381 354.346 109.858C354.924 109.326 355.662 109.06 356.558 109.06C357.463 109.06 358.2 109.321 358.77 109.844C359.348 110.357 359.638 111.001 359.638 111.776C359.638 112.457 359.381 113.027 358.868 113.484C358.634 113.689 358.378 113.848 358.098 113.96V114.03C358.424 114.151 358.704 114.319 358.938 114.534C359.498 115.019 359.778 115.621 359.778 116.34C359.778 117.115 359.474 117.777 358.868 118.328C358.261 118.869 357.491 119.14 356.558 119.14C355.596 119.14 354.817 118.874 354.22 118.342C353.632 117.81 353.338 117.166 353.338 116.41ZM362.407 117.81C361.679 116.923 361.315 115.687 361.315 114.1C361.315 112.513 361.679 111.277 362.407 110.39C363.135 109.503 364.031 109.06 365.095 109.06C366.159 109.06 367.055 109.503 367.783 110.39C368.511 111.277 368.875 112.513 368.875 114.1C368.875 115.687 368.511 116.923 367.783 117.81C367.055 118.697 366.159 119.14 365.095 119.14C364.031 119.14 363.135 118.697 362.407 117.81ZM366.985 111.16C366.472 110.46 365.842 110.11 365.095 110.11C364.348 110.11 363.718 110.46 363.205 111.16C362.692 111.86 362.435 112.84 362.435 114.1C362.435 115.36 362.692 116.34 363.205 117.04C363.718 117.74 364.348 118.09 365.095 118.09C365.842 118.09 366.472 117.74 366.985 117.04C367.498 116.34 367.755 115.36 367.755 114.1C367.755 112.84 367.498 111.86 366.985 111.16ZM379.107 119L378.967 118.02H378.897C378.309 118.767 377.562 119.14 376.657 119.14C375.733 119.14 374.963 118.804 374.347 118.132C373.74 117.451 373.437 116.573 373.437 115.5C373.437 114.427 373.74 113.554 374.347 112.882C374.963 112.201 375.733 111.86 376.657 111.86C377.562 111.86 378.309 112.233 378.897 112.98H378.967V109.2H380.017V119H379.107ZM375.145 117.418C375.584 117.913 376.111 118.16 376.727 118.16C377.343 118.16 377.87 117.913 378.309 117.418C378.748 116.923 378.967 116.284 378.967 115.5C378.967 114.716 378.748 114.077 378.309 113.582C377.87 113.087 377.343 112.84 376.727 112.84C376.111 112.84 375.584 113.087 375.145 113.582C374.706 114.077 374.487 114.716 374.487 115.5C374.487 116.284 374.706 116.923 375.145 117.418ZM386.596 119L386.456 118.16H386.386C386.256 118.347 386.088 118.51 385.882 118.65C385.453 118.977 384.898 119.14 384.216 119.14C383.488 119.14 382.896 118.939 382.438 118.538C381.99 118.137 381.766 117.614 381.766 116.97C381.766 116.27 381.995 115.724 382.452 115.332C382.919 114.931 383.624 114.73 384.566 114.73H386.456V114.52C386.456 113.988 386.307 113.577 386.008 113.288C385.719 112.989 385.308 112.84 384.776 112.84C384.272 112.84 383.862 112.957 383.544 113.19C383.236 113.414 383.064 113.694 383.026 114.03H381.976C382.014 113.433 382.28 112.924 382.774 112.504C383.278 112.075 383.946 111.86 384.776 111.86C385.626 111.86 386.293 112.093 386.778 112.56C387.264 113.027 387.506 113.68 387.506 114.52V119H386.596ZM386.456 115.99V115.71H384.566C383.969 115.71 383.526 115.827 383.236 116.06C382.956 116.293 382.816 116.597 382.816 116.97C382.816 117.334 382.938 117.623 383.18 117.838C383.423 118.053 383.768 118.16 384.216 118.16C384.916 118.16 385.462 117.969 385.854 117.586C386.256 117.194 386.456 116.662 386.456 115.99ZM389.127 121.8V120.82H390.457C390.69 120.82 390.853 120.68 390.947 120.4L391.227 119.56L388.357 112H389.477L391.647 117.81H391.927L393.887 112H395.007L391.857 120.82C391.735 121.165 391.577 121.413 391.381 121.562C391.185 121.721 390.9 121.8 390.527 121.8H389.127ZM395.568 116.97H396.618C396.618 117.297 396.772 117.577 397.08 117.81C397.398 118.043 397.827 118.16 398.368 118.16C398.9 118.16 399.311 118.062 399.6 117.866C399.899 117.661 400.048 117.409 400.048 117.11C400.048 116.559 399.652 116.209 398.858 116.06L397.668 115.85C396.362 115.635 395.708 114.982 395.708 113.89C395.708 113.302 395.932 112.817 396.38 112.434C396.828 112.051 397.468 111.86 398.298 111.86C399.11 111.86 399.768 112.075 400.272 112.504C400.776 112.933 401.028 113.442 401.028 114.03H399.978C399.978 113.703 399.824 113.423 399.516 113.19C399.218 112.957 398.812 112.84 398.298 112.84C397.794 112.84 397.412 112.943 397.15 113.148C396.889 113.344 396.758 113.591 396.758 113.89C396.758 114.403 397.132 114.73 397.878 114.87L399.068 115.08C399.768 115.211 400.282 115.444 400.608 115.78C400.935 116.107 401.098 116.55 401.098 117.11C401.098 117.698 400.86 118.183 400.384 118.566C399.918 118.949 399.246 119.14 398.368 119.14C397.528 119.14 396.852 118.925 396.338 118.496C395.825 118.067 395.568 117.558 395.568 116.97Z" fill="#EEEFFC"/>
<rect x="310" y="134" width="16" height="16" rx="2" fill="#DD3AEB"/>
<path d="M338.49 144.41H339.61C339.61 144.886 339.797 145.287 340.17 145.614C340.553 145.931 341.066 146.09 341.71 146.09C342.326 146.09 342.83 145.922 343.222 145.586C343.614 145.25 343.81 144.835 343.81 144.34C343.81 143.799 343.619 143.36 343.236 143.024C342.853 142.688 342.345 142.52 341.71 142.52H341.08V141.47H341.71C342.326 141.47 342.807 141.307 343.152 140.98C343.497 140.653 343.67 140.243 343.67 139.748C343.67 139.3 343.488 138.917 343.124 138.6C342.76 138.273 342.289 138.11 341.71 138.11C341.159 138.11 340.693 138.273 340.31 138.6C339.937 138.917 339.75 139.291 339.75 139.72H338.63C338.63 139.001 338.919 138.381 339.498 137.858C340.077 137.326 340.814 137.06 341.71 137.06C342.615 137.06 343.353 137.321 343.922 137.844C344.501 138.357 344.79 139.001 344.79 139.776C344.79 140.457 344.533 141.027 344.02 141.484C343.787 141.689 343.53 141.848 343.25 141.96V142.03C343.577 142.151 343.857 142.319 344.09 142.534C344.65 143.019 344.93 143.621 344.93 144.34C344.93 145.115 344.627 145.777 344.02 146.328C343.413 146.869 342.643 147.14 341.71 147.14C340.749 147.14 339.969 146.874 339.372 146.342C338.784 145.81 338.49 145.166 338.49 144.41ZM348.147 147V139.3H346.047V138.32H347.727C348.007 138.32 348.147 138.18 348.147 137.9V137.2H349.267V147H348.147ZM351.017 143.5V142.52H355.497V143.5H351.017ZM357.249 141.96L360.329 137.2H361.589L359.279 140.84H359.349L359.615 140.77C359.802 140.723 360.016 140.7 360.259 140.7C361.146 140.7 361.892 140.999 362.499 141.596C363.106 142.193 363.409 142.945 363.409 143.85C363.409 144.765 363.082 145.544 362.429 146.188C361.785 146.823 360.992 147.14 360.049 147.14C359.106 147.14 358.308 146.823 357.655 146.188C357.011 145.544 356.689 144.765 356.689 143.85C356.689 143.169 356.876 142.539 357.249 141.96ZM358.453 145.446C358.882 145.875 359.414 146.09 360.049 146.09C360.684 146.09 361.216 145.875 361.645 145.446C362.074 145.007 362.289 144.475 362.289 143.85C362.289 143.225 362.074 142.697 361.645 142.268C361.216 141.829 360.684 141.61 360.049 141.61C359.414 141.61 358.882 141.829 358.453 142.268C358.024 142.697 357.809 143.225 357.809 143.85C357.809 144.475 358.024 145.007 358.453 145.446ZM365.825 145.81C365.097 144.923 364.733 143.687 364.733 142.1C364.733 140.513 365.097 139.277 365.825 138.39C366.553 137.503 367.449 137.06 368.513 137.06C369.577 137.06 370.473 137.503 371.201 138.39C371.929 139.277 372.293 140.513 372.293 142.1C372.293 143.687 371.929 144.923 371.201 145.81C370.473 146.697 369.577 147.14 368.513 147.14C367.449 147.14 366.553 146.697 365.825 145.81ZM370.403 139.16C369.89 138.46 369.26 138.11 368.513 138.11C367.766 138.11 367.136 138.46 366.623 139.16C366.11 139.86 365.853 140.84 365.853 142.1C365.853 143.36 366.11 144.34 366.623 145.04C367.136 145.74 367.766 146.09 368.513 146.09C369.26 146.09 369.89 145.74 370.403 145.04C370.916 144.34 371.173 143.36 371.173 142.1C371.173 140.84 370.916 139.86 370.403 139.16ZM382.525 147L382.385 146.02H382.315C381.727 146.767 380.98 147.14 380.075 147.14C379.151 147.14 378.381 146.804 377.765 146.132C377.158 145.451 376.855 144.573 376.855 143.5C376.855 142.427 377.158 141.554 377.765 140.882C378.381 140.201 379.151 139.86 380.075 139.86C380.98 139.86 381.727 140.233 382.315 140.98H382.385V137.2H383.435V147H382.525ZM378.563 145.418C379.002 145.913 379.529 146.16 380.145 146.16C380.761 146.16 381.288 145.913 381.727 145.418C382.166 144.923 382.385 144.284 382.385 143.5C382.385 142.716 382.166 142.077 381.727 141.582C381.288 141.087 380.761 140.84 380.145 140.84C379.529 140.84 379.002 141.087 378.563 141.582C378.124 142.077 377.905 142.716 377.905 143.5C377.905 144.284 378.124 144.923 378.563 145.418ZM390.014 147L389.874 146.16H389.804C389.674 146.347 389.506 146.51 389.3 146.65C388.871 146.977 388.316 147.14 387.634 147.14C386.906 147.14 386.314 146.939 385.856 146.538C385.408 146.137 385.184 145.614 385.184 144.97C385.184 144.27 385.413 143.724 385.87 143.332C386.337 142.931 387.042 142.73 387.984 142.73H389.874V142.52C389.874 141.988 389.725 141.577 389.426 141.288C389.137 140.989 388.726 140.84 388.194 140.84C387.69 140.84 387.28 140.957 386.962 141.19C386.654 141.414 386.482 141.694 386.444 142.03H385.394C385.432 141.433 385.698 140.924 386.192 140.504C386.696 140.075 387.364 139.86 388.194 139.86C389.044 139.86 389.711 140.093 390.196 140.56C390.682 141.027 390.924 141.68 390.924 142.52V147H390.014ZM389.874 143.99V143.71H387.984C387.387 143.71 386.944 143.827 386.654 144.06C386.374 144.293 386.234 144.597 386.234 144.97C386.234 145.334 386.356 145.623 386.598 145.838C386.841 146.053 387.186 146.16 387.634 146.16C388.334 146.16 388.88 145.969 389.272 145.586C389.674 145.194 389.874 144.662 389.874 143.99ZM392.545 149.8V148.82H393.875C394.108 148.82 394.271 148.68 394.365 148.4L394.645 147.56L391.775 140H392.895L395.065 145.81H395.345L397.305 140H398.425L395.275 148.82C395.153 149.165 394.995 149.413 394.799 149.562C394.603 149.721 394.318 149.8 393.945 149.8H392.545ZM398.986 144.97H400.036C400.036 145.297 400.19 145.577 400.498 145.81C400.816 146.043 401.245 146.16 401.786 146.16C402.318 146.16 402.729 146.062 403.018 145.866C403.317 145.661 403.466 145.409 403.466 145.11C403.466 144.559 403.07 144.209 402.276 144.06L401.086 143.85C399.78 143.635 399.126 142.982 399.126 141.89C399.126 141.302 399.35 140.817 399.798 140.434C400.246 140.051 400.886 139.86 401.716 139.86C402.528 139.86 403.186 140.075 403.69 140.504C404.194 140.933 404.446 141.442 404.446 142.03H403.396C403.396 141.703 403.242 141.423 402.934 141.19C402.636 140.957 402.23 140.84 401.716 140.84C401.212 140.84 400.83 140.943 400.568 141.148C400.307 141.344 400.176 141.591 400.176 141.89C400.176 142.403 400.55 142.73 401.296 142.87L402.486 143.08C403.186 143.211 403.7 143.444 404.026 143.78C404.353 144.107 404.516 144.55 404.516 145.11C404.516 145.698 404.278 146.183 403.802 146.566C403.336 146.949 402.664 147.14 401.786 147.14C400.946 147.14 400.27 146.925 399.756 146.496C399.243 146.067 398.986 145.558 398.986 144.97Z" fill="#EEEFFC"/>
<rect x="310" y="162" width="16" height="16" rx="2" fill="#FFD964"/>
<path d="M339.12 169.96L342.2 165.2H343.46L341.15 168.84H341.22L341.486 168.77C341.673 168.723 341.887 168.7 342.13 168.7C343.017 168.7 343.763 168.999 344.37 169.596C344.977 170.193 345.28 170.945 345.28 171.85C345.28 172.765 344.953 173.544 344.3 174.188C343.656 174.823 342.863 175.14 341.92 175.14C340.977 175.14 340.179 174.823 339.526 174.188C338.882 173.544 338.56 172.765 338.56 171.85C338.56 171.169 338.747 170.539 339.12 169.96ZM340.324 173.446C340.753 173.875 341.285 174.09 341.92 174.09C342.555 174.09 343.087 173.875 343.516 173.446C343.945 173.007 344.16 172.475 344.16 171.85C344.16 171.225 343.945 170.697 343.516 170.268C343.087 169.829 342.555 169.61 341.92 169.61C341.285 169.61 340.753 169.829 340.324 170.268C339.895 170.697 339.68 171.225 339.68 171.85C339.68 172.475 339.895 173.007 340.324 173.446ZM348.011 175V167.3H345.911V166.32H347.591C347.871 166.32 348.011 166.18 348.011 165.9V165.2H349.131V175H348.011ZM350.88 171.5V170.52H355.36V171.5H350.88ZM358.018 175V167.3H355.918V166.32H357.598C357.878 166.32 358.018 166.18 358.018 165.9V165.2H359.138V175H358.018ZM361.028 175V174.09L365.018 169.82C365.316 169.493 365.531 169.204 365.662 168.952C365.792 168.691 365.858 168.373 365.858 168C365.858 167.44 365.68 166.987 365.326 166.642C364.98 166.287 364.528 166.11 363.968 166.11C363.436 166.11 362.988 166.306 362.624 166.698C362.26 167.09 362.078 167.594 362.078 168.21H360.958C360.958 167.295 361.238 166.544 361.798 165.956C362.367 165.359 363.09 165.06 363.968 165.06C364.845 165.06 365.564 165.335 366.124 165.886C366.693 166.427 366.978 167.132 366.978 168C366.978 168.541 366.88 169.003 366.684 169.386C366.488 169.759 366.189 170.161 365.788 170.59L362.638 173.88V173.95H367.188V175H361.028ZM369.612 173.81C368.884 172.923 368.52 171.687 368.52 170.1C368.52 168.513 368.884 167.277 369.612 166.39C370.34 165.503 371.236 165.06 372.3 165.06C373.364 165.06 374.26 165.503 374.988 166.39C375.716 167.277 376.08 168.513 376.08 170.1C376.08 171.687 375.716 172.923 374.988 173.81C374.26 174.697 373.364 175.14 372.3 175.14C371.236 175.14 370.34 174.697 369.612 173.81ZM374.19 167.16C373.677 166.46 373.047 166.11 372.3 166.11C371.553 166.11 370.923 166.46 370.41 167.16C369.897 167.86 369.64 168.84 369.64 170.1C369.64 171.36 369.897 172.34 370.41 173.04C370.923 173.74 371.553 174.09 372.3 174.09C373.047 174.09 373.677 173.74 374.19 173.04C374.703 172.34 374.96 171.36 374.96 170.1C374.96 168.84 374.703 167.86 374.19 167.16ZM386.312 175L386.172 174.02H386.102C385.514 174.767 384.767 175.14 383.862 175.14C382.938 175.14 382.168 174.804 381.552 174.132C380.945 173.451 380.642 172.573 380.642 171.5C380.642 170.427 380.945 169.554 381.552 168.882C382.168 168.201 382.938 167.86 383.862 167.86C384.767 167.86 385.514 168.233 386.102 168.98H386.172V165.2H387.222V175H386.312ZM382.35 173.418C382.789 173.913 383.316 174.16 383.932 174.16C384.548 174.16 385.075 173.913 385.514 173.418C385.953 172.923 386.172 172.284 386.172 171.5C386.172 170.716 385.953 170.077 385.514 169.582C385.075 169.087 384.548 168.84 383.932 168.84C383.316 168.84 382.789 169.087 382.35 169.582C381.911 170.077 381.692 170.716 381.692 171.5C381.692 172.284 381.911 172.923 382.35 173.418ZM393.801 175L393.661 174.16H393.591C393.461 174.347 393.293 174.51 393.087 174.65C392.658 174.977 392.103 175.14 391.421 175.14C390.693 175.14 390.101 174.939 389.643 174.538C389.195 174.137 388.971 173.614 388.971 172.97C388.971 172.27 389.2 171.724 389.657 171.332C390.124 170.931 390.829 170.73 391.771 170.73H393.661V170.52C393.661 169.988 393.512 169.577 393.213 169.288C392.924 168.989 392.513 168.84 391.981 168.84C391.477 168.84 391.067 168.957 390.749 169.19C390.441 169.414 390.269 169.694 390.231 170.03H389.181C389.219 169.433 389.485 168.924 389.979 168.504C390.483 168.075 391.151 167.86 391.981 167.86C392.831 167.86 393.498 168.093 393.983 168.56C394.469 169.027 394.711 169.68 394.711 170.52V175H393.801ZM393.661 171.99V171.71H391.771C391.174 171.71 390.731 171.827 390.441 172.06C390.161 172.293 390.021 172.597 390.021 172.97C390.021 173.334 390.143 173.623 390.385 173.838C390.628 174.053 390.973 174.16 391.421 174.16C392.121 174.16 392.667 173.969 393.059 173.586C393.461 173.194 393.661 172.662 393.661 171.99ZM396.332 177.8V176.82H397.662C397.895 176.82 398.059 176.68 398.152 176.4L398.432 175.56L395.562 168H396.682L398.852 173.81H399.132L401.092 168H402.212L399.062 176.82C398.941 177.165 398.782 177.413 398.586 177.562C398.39 177.721 398.105 177.8 397.732 177.8H396.332ZM402.774 172.97H403.824C403.824 173.297 403.978 173.577 404.286 173.81C404.603 174.043 405.032 174.16 405.574 174.16C406.106 174.16 406.516 174.062 406.806 173.866C407.104 173.661 407.254 173.409 407.254 173.11C407.254 172.559 406.857 172.209 406.064 172.06L404.874 171.85C403.567 171.635 402.914 170.982 402.914 169.89C402.914 169.302 403.138 168.817 403.586 168.434C404.034 168.051 404.673 167.86 405.504 167.86C406.316 167.86 406.974 168.075 407.478 168.504C407.982 168.933 408.234 169.442 408.234 170.03H407.184C407.184 169.703 407.03 169.423 406.722 169.19C406.423 168.957 406.017 168.84 405.504 168.84C405 168.84 404.617 168.943 404.356 169.148C404.094 169.344 403.964 169.591 403.964 169.89C403.964 170.403 404.337 170.73 405.084 170.87L406.274 171.08C406.974 171.211 407.487 171.444 407.814 171.78C408.14 172.107 408.304 172.55 408.304 173.11C408.304 173.698 408.066 174.183 407.59 174.566C407.123 174.949 406.451 175.14 405.574 175.14C404.734 175.14 404.057 174.925 403.544 174.496C403.03 174.067 402.774 173.558 402.774 172.97Z" fill="#EEEFFC"/>
<rect x="422" y="106" width="16" height="16" rx="2" fill="#F08B32"/>
<path d="M456.45 119V111.3H454.35V110.32H456.03C456.31 110.32 456.45 110.18 456.45 109.9V109.2H457.57V119H456.45ZM459.459 119V118.09L463.449 113.82C463.748 113.493 463.963 113.204 464.093 112.952C464.224 112.691 464.289 112.373 464.289 112C464.289 111.44 464.112 110.987 463.757 110.642C463.412 110.287 462.959 110.11 462.399 110.11C461.867 110.11 461.419 110.306 461.055 110.698C460.691 111.09 460.509 111.594 460.509 112.21H459.389C459.389 111.295 459.669 110.544 460.229 109.956C460.799 109.359 461.522 109.06 462.399 109.06C463.277 109.06 463.995 109.335 464.555 109.886C465.125 110.427 465.409 111.132 465.409 112C465.409 112.541 465.311 113.003 465.115 113.386C464.919 113.759 464.621 114.161 464.219 114.59L461.069 117.88V117.95H465.619V119H459.459ZM468.632 119V111.3H466.532V110.32H468.212C468.492 110.32 468.632 110.18 468.632 109.9V109.2H469.752V119H468.632ZM471.501 115.5V114.52H475.981V115.5H471.501ZM478.639 119V111.3H476.539V110.32H478.219C478.499 110.32 478.639 110.18 478.639 109.9V109.2H479.759V119H478.639ZM483.119 113.96V113.89C482.867 113.75 482.643 113.582 482.447 113.386C482.008 112.947 481.789 112.415 481.789 111.79C481.789 111.015 482.074 110.367 482.643 109.844C483.212 109.321 483.931 109.06 484.799 109.06C485.667 109.06 486.386 109.321 486.955 109.844C487.524 110.367 487.809 111.015 487.809 111.79C487.809 112.406 487.585 112.938 487.137 113.386C486.95 113.573 486.731 113.741 486.479 113.89V113.96C486.74 114.081 486.997 114.259 487.249 114.492C487.762 115.005 488.019 115.621 488.019 116.34C488.019 117.096 487.716 117.754 487.109 118.314C486.512 118.865 485.742 119.14 484.799 119.14C483.847 119.14 483.072 118.865 482.475 118.314C481.878 117.763 481.579 117.105 481.579 116.34C481.579 115.603 481.836 114.987 482.349 114.492C482.582 114.259 482.839 114.081 483.119 113.96ZM483.413 110.6C483.077 110.917 482.909 111.314 482.909 111.79C482.909 112.266 483.077 112.667 483.413 112.994C483.758 113.311 484.22 113.47 484.799 113.47C485.378 113.47 485.835 113.311 486.171 112.994C486.516 112.667 486.689 112.266 486.689 111.79C486.689 111.314 486.516 110.917 486.171 110.6C485.835 110.273 485.378 110.11 484.799 110.11C484.22 110.11 483.758 110.273 483.413 110.6ZM483.301 114.968C482.9 115.313 482.699 115.747 482.699 116.27C482.699 116.793 482.9 117.227 483.301 117.572C483.702 117.917 484.202 118.09 484.799 118.09C485.396 118.09 485.896 117.917 486.297 117.572C486.698 117.227 486.899 116.793 486.899 116.27C486.899 115.747 486.698 115.313 486.297 114.968C485.896 114.623 485.396 114.45 484.799 114.45C484.202 114.45 483.702 114.623 483.301 114.968ZM490.575 117.81C489.847 116.923 489.483 115.687 489.483 114.1C489.483 112.513 489.847 111.277 490.575 110.39C491.303 109.503 492.199 109.06 493.263 109.06C494.327 109.06 495.223 109.503 495.951 110.39C496.679 111.277 497.043 112.513 497.043 114.1C497.043 115.687 496.679 116.923 495.951 117.81C495.223 118.697 494.327 119.14 493.263 119.14C492.199 119.14 491.303 118.697 490.575 117.81ZM495.153 111.16C494.64 110.46 494.01 110.11 493.263 110.11C492.516 110.11 491.886 110.46 491.373 111.16C490.86 111.86 490.603 112.84 490.603 114.1C490.603 115.36 490.86 116.34 491.373 117.04C491.886 117.74 492.516 118.09 493.263 118.09C494.01 118.09 494.64 117.74 495.153 117.04C495.666 116.34 495.923 115.36 495.923 114.1C495.923 112.84 495.666 111.86 495.153 111.16ZM507.275 119L507.135 118.02H507.065C506.477 118.767 505.73 119.14 504.825 119.14C503.901 119.14 503.131 118.804 502.515 118.132C501.908 117.451 501.605 116.573 501.605 115.5C501.605 114.427 501.908 113.554 502.515 112.882C503.131 112.201 503.901 111.86 504.825 111.86C505.73 111.86 506.477 112.233 507.065 112.98H507.135V109.2H508.185V119H507.275ZM503.313 117.418C503.752 117.913 504.279 118.16 504.895 118.16C505.511 118.16 506.038 117.913 506.477 117.418C506.916 116.923 507.135 116.284 507.135 115.5C507.135 114.716 506.916 114.077 506.477 113.582C506.038 113.087 505.511 112.84 504.895 112.84C504.279 112.84 503.752 113.087 503.313 113.582C502.874 114.077 502.655 114.716 502.655 115.5C502.655 116.284 502.874 116.923 503.313 117.418ZM514.764 119L514.624 118.16H514.554C514.424 118.347 514.256 118.51 514.05 118.65C513.621 118.977 513.066 119.14 512.384 119.14C511.656 119.14 511.064 118.939 510.606 118.538C510.158 118.137 509.934 117.614 509.934 116.97C509.934 116.27 510.163 115.724 510.62 115.332C511.087 114.931 511.792 114.73 512.734 114.73H514.624V114.52C514.624 113.988 514.475 113.577 514.176 113.288C513.887 112.989 513.476 112.84 512.944 112.84C512.44 112.84 512.03 112.957 511.712 113.19C511.404 113.414 511.232 113.694 511.194 114.03H510.144C510.182 113.433 510.448 112.924 510.942 112.504C511.446 112.075 512.114 111.86 512.944 111.86C513.794 111.86 514.461 112.093 514.946 112.56C515.432 113.027 515.674 113.68 515.674 114.52V119H514.764ZM514.624 115.99V115.71H512.734C512.137 115.71 511.694 115.827 511.404 116.06C511.124 116.293 510.984 116.597 510.984 116.97C510.984 117.334 511.106 117.623 511.348 117.838C511.591 118.053 511.936 118.16 512.384 118.16C513.084 118.16 513.63 117.969 514.022 117.586C514.424 117.194 514.624 116.662 514.624 115.99ZM517.295 121.8V120.82H518.625C518.858 120.82 519.021 120.68 519.115 120.4L519.395 119.56L516.525 112H517.645L519.815 117.81H520.095L522.055 112H523.175L520.025 120.82C519.903 121.165 519.745 121.413 519.549 121.562C519.353 121.721 519.068 121.8 518.695 121.8H517.295ZM523.736 116.97H524.786C524.786 117.297 524.94 117.577 525.248 117.81C525.566 118.043 525.995 118.16 526.536 118.16C527.068 118.16 527.479 118.062 527.768 117.866C528.067 117.661 528.216 117.409 528.216 117.11C528.216 116.559 527.82 116.209 527.026 116.06L525.836 115.85C524.53 115.635 523.876 114.982 523.876 113.89C523.876 113.302 524.1 112.817 524.548 112.434C524.996 112.051 525.636 111.86 526.466 111.86C527.278 111.86 527.936 112.075 528.44 112.504C528.944 112.933 529.196 113.442 529.196 114.03H528.146C528.146 113.703 527.992 113.423 527.684 113.19C527.386 112.957 526.98 112.84 526.466 112.84C525.962 112.84 525.58 112.943 525.318 113.148C525.057 113.344 524.926 113.591 524.926 113.89C524.926 114.403 525.3 114.73 526.046 114.87L527.236 115.08C527.936 115.211 528.45 115.444 528.776 115.78C529.103 116.107 529.266 116.55 529.266 117.11C529.266 117.698 529.028 118.183 528.552 118.566C528.086 118.949 527.414 119.14 526.536 119.14C525.696 119.14 525.02 118.925 524.506 118.496C523.993 118.067 523.736 117.558 523.736 116.97Z" fill="#EEEFFC"/>
<rect x="422" y="134" width="16" height="16" rx="2" fill="#47CD89"/>
<path d="M452.45 147V139.3H450.35V138.32H452.03C452.31 138.32 452.45 138.18 452.45 137.9V137.2H453.57V147H452.45ZM456.929 141.96V141.89C456.677 141.75 456.453 141.582 456.257 141.386C455.819 140.947 455.599 140.415 455.599 139.79C455.599 139.015 455.884 138.367 456.453 137.844C457.023 137.321 457.741 137.06 458.609 137.06C459.477 137.06 460.196 137.321 460.765 137.844C461.335 138.367 461.619 139.015 461.619 139.79C461.619 140.406 461.395 140.938 460.947 141.386C460.761 141.573 460.541 141.741 460.289 141.89V141.96C460.551 142.081 460.807 142.259 461.059 142.492C461.573 143.005 461.829 143.621 461.829 144.34C461.829 145.096 461.526 145.754 460.919 146.314C460.322 146.865 459.552 147.14 458.609 147.14C457.657 147.14 456.883 146.865 456.285 146.314C455.688 145.763 455.389 145.105 455.389 144.34C455.389 143.603 455.646 142.987 456.159 142.492C456.393 142.259 456.649 142.081 456.929 141.96ZM457.223 138.6C456.887 138.917 456.719 139.314 456.719 139.79C456.719 140.266 456.887 140.667 457.223 140.994C457.569 141.311 458.031 141.47 458.609 141.47C459.188 141.47 459.645 141.311 459.981 140.994C460.327 140.667 460.499 140.266 460.499 139.79C460.499 139.314 460.327 138.917 459.981 138.6C459.645 138.273 459.188 138.11 458.609 138.11C458.031 138.11 457.569 138.273 457.223 138.6ZM457.111 142.968C456.71 143.313 456.509 143.747 456.509 144.27C456.509 144.793 456.71 145.227 457.111 145.572C457.513 145.917 458.012 146.09 458.609 146.09C459.207 146.09 459.706 145.917 460.107 145.572C460.509 145.227 460.709 144.793 460.709 144.27C460.709 143.747 460.509 143.313 460.107 142.968C459.706 142.623 459.207 142.45 458.609 142.45C458.012 142.45 457.513 142.623 457.111 142.968ZM464.973 147V139.3H462.873V138.32H464.553C464.833 138.32 464.973 138.18 464.973 137.9V137.2H466.093V147H464.973ZM467.843 143.5V142.52H472.323V143.5H467.843ZM473.445 144.41H474.565C474.565 144.886 474.752 145.287 475.125 145.614C475.508 145.931 476.021 146.09 476.665 146.09C477.281 146.09 477.785 145.922 478.177 145.586C478.569 145.25 478.765 144.835 478.765 144.34C478.765 143.799 478.574 143.36 478.191 143.024C477.808 142.688 477.3 142.52 476.665 142.52H476.035V141.47H476.665C477.281 141.47 477.762 141.307 478.107 140.98C478.452 140.653 478.625 140.243 478.625 139.748C478.625 139.3 478.443 138.917 478.079 138.6C477.715 138.273 477.244 138.11 476.665 138.11C476.114 138.11 475.648 138.273 475.265 138.6C474.892 138.917 474.705 139.291 474.705 139.72H473.585C473.585 139.001 473.874 138.381 474.453 137.858C475.032 137.326 475.769 137.06 476.665 137.06C477.57 137.06 478.308 137.321 478.877 137.844C479.456 138.357 479.745 139.001 479.745 139.776C479.745 140.457 479.488 141.027 478.975 141.484C478.742 141.689 478.485 141.848 478.205 141.96V142.03C478.532 142.151 478.812 142.319 479.045 142.534C479.605 143.019 479.885 143.621 479.885 144.34C479.885 145.115 479.582 145.777 478.975 146.328C478.368 146.869 477.598 147.14 476.665 147.14C475.704 147.14 474.924 146.874 474.327 146.342C473.739 145.81 473.445 145.166 473.445 144.41ZM481.772 141.96L484.852 137.2H486.112L483.802 140.84H483.872L484.138 140.77C484.325 140.723 484.54 140.7 484.782 140.7C485.669 140.7 486.416 140.999 487.022 141.596C487.629 142.193 487.932 142.945 487.932 143.85C487.932 144.765 487.606 145.544 486.952 146.188C486.308 146.823 485.515 147.14 484.572 147.14C483.63 147.14 482.832 146.823 482.178 146.188C481.534 145.544 481.212 144.765 481.212 143.85C481.212 143.169 481.399 142.539 481.772 141.96ZM482.976 145.446C483.406 145.875 483.938 146.09 484.572 146.09C485.207 146.09 485.739 145.875 486.168 145.446C486.598 145.007 486.812 144.475 486.812 143.85C486.812 143.225 486.598 142.697 486.168 142.268C485.739 141.829 485.207 141.61 484.572 141.61C483.938 141.61 483.406 141.829 482.976 142.268C482.547 142.697 482.332 143.225 482.332 143.85C482.332 144.475 482.547 145.007 482.976 145.446ZM490.348 145.81C489.62 144.923 489.256 143.687 489.256 142.1C489.256 140.513 489.62 139.277 490.348 138.39C491.076 137.503 491.972 137.06 493.036 137.06C494.1 137.06 494.996 137.503 495.724 138.39C496.452 139.277 496.816 140.513 496.816 142.1C496.816 143.687 496.452 144.923 495.724 145.81C494.996 146.697 494.1 147.14 493.036 147.14C491.972 147.14 491.076 146.697 490.348 145.81ZM494.926 139.16C494.413 138.46 493.783 138.11 493.036 138.11C492.29 138.11 491.66 138.46 491.146 139.16C490.633 139.86 490.376 140.84 490.376 142.1C490.376 143.36 490.633 144.34 491.146 145.04C491.66 145.74 492.29 146.09 493.036 146.09C493.783 146.09 494.413 145.74 494.926 145.04C495.44 144.34 495.696 143.36 495.696 142.1C495.696 140.84 495.44 139.86 494.926 139.16ZM507.048 147L506.908 146.02H506.838C506.25 146.767 505.504 147.14 504.598 147.14C503.674 147.14 502.904 146.804 502.288 146.132C501.682 145.451 501.378 144.573 501.378 143.5C501.378 142.427 501.682 141.554 502.288 140.882C502.904 140.201 503.674 139.86 504.598 139.86C505.504 139.86 506.25 140.233 506.838 140.98H506.908V137.2H507.958V147H507.048ZM503.086 145.418C503.525 145.913 504.052 146.16 504.668 146.16C505.284 146.16 505.812 145.913 506.25 145.418C506.689 144.923 506.908 144.284 506.908 143.5C506.908 142.716 506.689 142.077 506.25 141.582C505.812 141.087 505.284 140.84 504.668 140.84C504.052 140.84 503.525 141.087 503.086 141.582C502.648 142.077 502.428 142.716 502.428 143.5C502.428 144.284 502.648 144.923 503.086 145.418ZM514.538 147L514.398 146.16H514.328C514.197 146.347 514.029 146.51 513.824 146.65C513.394 146.977 512.839 147.14 512.158 147.14C511.43 147.14 510.837 146.939 510.38 146.538C509.932 146.137 509.708 145.614 509.708 144.97C509.708 144.27 509.936 143.724 510.394 143.332C510.86 142.931 511.565 142.73 512.508 142.73H514.398V142.52C514.398 141.988 514.248 141.577 513.95 141.288C513.66 140.989 513.25 140.84 512.718 140.84C512.214 140.84 511.803 140.957 511.486 141.19C511.178 141.414 511.005 141.694 510.968 142.03H509.918C509.955 141.433 510.221 140.924 510.716 140.504C511.22 140.075 511.887 139.86 512.718 139.86C513.567 139.86 514.234 140.093 514.72 140.56C515.205 141.027 515.448 141.68 515.448 142.52V147H514.538ZM514.398 143.99V143.71H512.508C511.91 143.71 511.467 143.827 511.178 144.06C510.898 144.293 510.758 144.597 510.758 144.97C510.758 145.334 510.879 145.623 511.122 145.838C511.364 146.053 511.71 146.16 512.158 146.16C512.858 146.16 513.404 145.969 513.796 145.586C514.197 145.194 514.398 144.662 514.398 143.99ZM517.068 149.8V148.82H518.398C518.632 148.82 518.795 148.68 518.888 148.4L519.168 147.56L516.298 140H517.418L519.588 145.81H519.868L521.828 140H522.948L519.798 148.82C519.677 149.165 519.518 149.413 519.322 149.562C519.126 149.721 518.842 149.8 518.468 149.8H517.068ZM523.51 144.97H524.56C524.56 145.297 524.714 145.577 525.022 145.81C525.339 146.043 525.769 146.16 526.31 146.16C526.842 146.16 527.253 146.062 527.542 145.866C527.841 145.661 527.99 145.409 527.99 145.11C527.99 144.559 527.593 144.209 526.8 144.06L525.61 143.85C524.303 143.635 523.65 142.982 523.65 141.89C523.65 141.302 523.874 140.817 524.322 140.434C524.77 140.051 525.409 139.86 526.24 139.86C527.052 139.86 527.71 140.075 528.214 140.504C528.718 140.933 528.97 141.442 528.97 142.03H527.92C527.92 141.703 527.766 141.423 527.458 141.19C527.159 140.957 526.753 140.84 526.24 140.84C525.736 140.84 525.353 140.943 525.092 141.148C524.831 141.344 524.7 141.591 524.7 141.89C524.7 142.403 525.073 142.73 525.82 142.87L527.01 143.08C527.71 143.211 528.223 143.444 528.55 143.78C528.877 144.107 529.04 144.55 529.04 145.11C529.04 145.698 528.802 146.183 528.326 146.566C527.859 146.949 527.187 147.14 526.31 147.14C525.47 147.14 524.793 146.925 524.28 146.496C523.767 146.067 523.51 145.558 523.51 144.97Z" fill="#EEEFFC"/>
<rect x="422" y="162" width="16" height="16" rx="2" fill="#9747FF"/>
<path d="M450 175L453.71 165.2H455.39L459.1 175H457.91L457 172.48H452.1L451.19 175H450ZM452.52 171.43H456.58L454.69 166.39H454.41L452.52 171.43ZM460.155 175V165.2H461.205V168.98H461.275C461.863 168.233 462.61 167.86 463.515 167.86C464.439 167.86 465.205 168.201 465.811 168.882C466.427 169.554 466.735 170.427 466.735 171.5C466.735 172.573 466.427 173.451 465.811 174.132C465.205 174.804 464.439 175.14 463.515 175.14C462.61 175.14 461.863 174.767 461.275 174.02H461.205L461.065 175H460.155ZM461.863 173.418C462.302 173.913 462.829 174.16 463.445 174.16C464.061 174.16 464.589 173.913 465.027 173.418C465.466 172.923 465.685 172.284 465.685 171.5C465.685 170.716 465.466 170.077 465.027 169.582C464.589 169.087 464.061 168.84 463.445 168.84C462.829 168.84 462.302 169.087 461.863 169.582C461.425 170.077 461.205 170.716 461.205 171.5C461.205 172.284 461.425 172.923 461.863 173.418ZM473.609 174.132C472.974 174.804 472.176 175.14 471.215 175.14C470.254 175.14 469.451 174.804 468.807 174.132C468.172 173.451 467.855 172.573 467.855 171.5C467.855 170.427 468.172 169.554 468.807 168.882C469.451 168.201 470.254 167.86 471.215 167.86C472.176 167.86 472.974 168.201 473.609 168.882C474.253 169.554 474.575 170.427 474.575 171.5C474.575 172.573 474.253 173.451 473.609 174.132ZM469.563 173.418C470.011 173.913 470.562 174.16 471.215 174.16C471.868 174.16 472.414 173.913 472.853 173.418C473.301 172.923 473.525 172.284 473.525 171.5C473.525 170.716 473.301 170.077 472.853 169.582C472.414 169.087 471.868 168.84 471.215 168.84C470.562 168.84 470.011 169.087 469.563 169.582C469.124 170.077 468.905 170.716 468.905 171.5C468.905 172.284 469.124 172.923 469.563 173.418ZM477.652 175L475.132 168H476.252L478.352 173.88H478.632L480.732 168H481.852L479.332 175H477.652ZM487.665 173.04H488.785C488.543 173.712 488.16 174.23 487.637 174.594C487.124 174.958 486.503 175.14 485.775 175.14C484.814 175.14 484.011 174.804 483.367 174.132C482.733 173.451 482.415 172.573 482.415 171.5C482.415 170.427 482.733 169.554 483.367 168.882C484.011 168.201 484.814 167.86 485.775 167.86C486.699 167.86 487.465 168.177 488.071 168.812C488.687 169.447 488.995 170.249 488.995 171.22C488.995 171.369 488.981 171.57 488.953 171.822L488.925 171.99H483.465C483.54 172.643 483.792 173.171 484.221 173.572C484.66 173.964 485.178 174.16 485.775 174.16C486.195 174.16 486.569 174.062 486.895 173.866C487.231 173.67 487.488 173.395 487.665 173.04ZM483.465 171.01H487.945C487.908 170.375 487.684 169.857 487.273 169.456C486.872 169.045 486.373 168.84 485.775 168.84C485.15 168.84 484.627 169.041 484.207 169.442C483.787 169.843 483.54 170.366 483.465 171.01ZM493.269 172.41H494.389C494.389 172.886 494.576 173.287 494.949 173.614C495.332 173.931 495.845 174.09 496.489 174.09C497.105 174.09 497.609 173.922 498.001 173.586C498.393 173.25 498.589 172.835 498.589 172.34C498.589 171.799 498.398 171.36 498.015 171.024C497.633 170.688 497.124 170.52 496.489 170.52H495.859V169.47H496.489C497.105 169.47 497.586 169.307 497.931 168.98C498.277 168.653 498.449 168.243 498.449 167.748C498.449 167.3 498.267 166.917 497.903 166.6C497.539 166.273 497.068 166.11 496.489 166.11C495.939 166.11 495.472 166.273 495.089 166.6C494.716 166.917 494.529 167.291 494.529 167.72H493.409C493.409 167.001 493.699 166.381 494.277 165.858C494.856 165.326 495.593 165.06 496.489 165.06C497.395 165.06 498.132 165.321 498.701 165.844C499.28 166.357 499.569 167.001 499.569 167.776C499.569 168.457 499.313 169.027 498.799 169.484C498.566 169.689 498.309 169.848 498.029 169.96V170.03C498.356 170.151 498.636 170.319 498.869 170.534C499.429 171.019 499.709 171.621 499.709 172.34C499.709 173.115 499.406 173.777 498.799 174.328C498.193 174.869 497.423 175.14 496.489 175.14C495.528 175.14 494.749 174.874 494.151 174.342C493.563 173.81 493.269 173.166 493.269 172.41ZM501.597 169.96L504.677 165.2H505.937L503.627 168.84H503.697L503.963 168.77C504.149 168.723 504.364 168.7 504.607 168.7C505.493 168.7 506.24 168.999 506.847 169.596C507.453 170.193 507.757 170.945 507.757 171.85C507.757 172.765 507.43 173.544 506.777 174.188C506.133 174.823 505.339 175.14 504.397 175.14C503.454 175.14 502.656 174.823 502.003 174.188C501.359 173.544 501.037 172.765 501.037 171.85C501.037 171.169 501.223 170.539 501.597 169.96ZM502.801 173.446C503.23 173.875 503.762 174.09 504.397 174.09C505.031 174.09 505.563 173.875 505.993 173.446C506.422 173.007 506.637 172.475 506.637 171.85C506.637 171.225 506.422 170.697 505.993 170.268C505.563 169.829 505.031 169.61 504.397 169.61C503.762 169.61 503.23 169.829 502.801 170.268C502.371 170.697 502.157 171.225 502.157 171.85C502.157 172.475 502.371 173.007 502.801 173.446ZM510.173 173.81C509.445 172.923 509.081 171.687 509.081 170.1C509.081 168.513 509.445 167.277 510.173 166.39C510.901 165.503 511.797 165.06 512.861 165.06C513.925 165.06 514.821 165.503 515.549 166.39C516.277 167.277 516.641 168.513 516.641 170.1C516.641 171.687 516.277 172.923 515.549 173.81C514.821 174.697 513.925 175.14 512.861 175.14C511.797 175.14 510.901 174.697 510.173 173.81ZM514.751 167.16C514.237 166.46 513.607 166.11 512.861 166.11C512.114 166.11 511.484 166.46 510.971 167.16C510.457 167.86 510.201 168.84 510.201 170.1C510.201 171.36 510.457 172.34 510.971 173.04C511.484 173.74 512.114 174.09 512.861 174.09C513.607 174.09 514.237 173.74 514.751 173.04C515.264 172.34 515.521 171.36 515.521 170.1C515.521 168.84 515.264 167.86 514.751 167.16Z" fill="#EEEFFC"/>
<defs>
<filter id="filter0_ddd_3550_100913" x="475" y="11" width="128" height="46" filterUnits="userSpaceOnUse" color-interpolation-filters="sRGB">
<feFlood flood-opacity="0" result="BackgroundImageFix"/>
<feColorMatrix in="SourceAlpha" type="matrix" values="0 0 0 0 0 0 0 0 0 0 0 0 0 0 0 0 0 0 127 0" result="hardAlpha"/>
<feMorphology radius="1" operator="dilate" in="SourceAlpha" result="effect1_dropShadow_3550_100913"/>
<feOffset/>
<feComposite in2="hardAlpha" operator="out"/>
<feColorMatrix type="matrix" values="0 0 0 0 0.0627451 0 0 0 0 0.0980392 0 0 0 0 0.156863 0 0 0 0.05 0"/>
<feBlend mode="normal" in2="BackgroundImageFix" result="effect1_dropShadow_3550_100913"/>
<feColorMatrix in="SourceAlpha" type="matrix" values="0 0 0 0 0 0 0 0 0 0 0 0 0 0 0 0 0 0 127 0" result="hardAlpha"/>
<feOffset dy="2"/>
<feGaussianBlur stdDeviation="3.5"/>
<feComposite in2="hardAlpha" operator="out"/>
<feColorMatrix type="matrix" values="0 0 0 0 0.0627451 0 0 0 0 0.0980392 0 0 0 0 0.156863 0 0 0 0.05 0"/>
<feBlend mode="normal" in2="effect1_dropShadow_3550_100913" result="effect2_dropShadow_3550_100913"/>
<feColorMatrix in="SourceAlpha" type="matrix" values="0 0 0 0 0 0 0 0 0 0 0 0 0 0 0 0 0 0 127 0" result="hardAlpha"/>
<feMorphology radius="2" operator="erode" in="SourceAlpha" result="effect3_dropShadow_3550_100913"/>
<feOffset dy="2"/>
<feGaussianBlur stdDeviation="2.5"/>
<feComposite in2="hardAlpha" operator="out"/>
<feColorMatrix type="matrix" values="0 0 0 0 0.0627451 0 0 0 0 0.0980392 0 0 0 0 0.156863 0 0 0 0.06 0"/>
<feBlend mode="normal" in2="effect2_dropShadow_3550_100913" result="effect3_dropShadow_3550_100913"/>
<feBlend mode="normal" in="SourceGraphic" in2="effect3_dropShadow_3550_100913" result="shape"/>
</filter>
<linearGradient id="paint0_linear_3550_100913" x1="-280.082" y1="-185.961" x2="546.58" y2="592.349" gradientUnits="userSpaceOnUse">
<stop stop-color="white"/>
<stop offset="1" stop-color="white" stop-opacity="0"/>
</linearGradient>
<linearGradient id="paint1_linear_3550_100913" x1="-196.475" y1="-133.252" x2="597.889" y2="626.65" gradientUnits="userSpaceOnUse">
<stop stop-color="white"/>
<stop offset="1" stop-color="white" stop-opacity="0"/>
</linearGradient>
<linearGradient id="paint2_linear_3550_100913" x1="453.896" y1="3.56626" x2="526.301" y2="103.496" gradientUnits="userSpaceOnUse">
<stop stop-color="white"/>
<stop offset="1" stop-color="white" stop-opacity="0.32"/>
</linearGradient>
<linearGradient id="paint3_linear_3550_100913" x1="355.333" y1="-19.4699" x2="490.805" y2="137.461" gradientUnits="userSpaceOnUse">
<stop stop-color="white"/>
<stop offset="1" stop-color="white" stop-opacity="0"/>
</linearGradient>
</defs>
</svg>
