<svg width="48" height="48" viewBox="0 0 48 48" fill="none" xmlns="http://www.w3.org/2000/svg">
<path d="M23.9993 25.9987C28.0494 25.9987 31.3327 22.7155 31.3327 18.6654C31.3327 14.6153 28.0494 11.332 23.9993 11.332C19.9493 11.332 16.666 14.6153 16.666 18.6654C16.666 22.7155 19.9493 25.9987 23.9993 25.9987Z" fill="white"/>
<path d="M36.3729 38.6153C35.1142 32.85 29.9089 28.666 23.9995 28.666C18.0902 28.666 12.8849 32.85 11.6262 38.6153C11.1222 40.9193 12.5542 43.2793 14.8902 43.9833C17.8449 44.8767 20.9115 45.3327 23.9995 45.3327C27.0875 45.3327 30.1542 44.8793 33.1089 43.9833C35.4449 43.2767 36.8769 40.9193 36.3729 38.6153Z" fill="white"/>
<path d="M11.332 14.666C14.6457 14.666 17.332 11.9797 17.332 8.66602C17.332 5.35231 14.6457 2.66602 11.332 2.66602C8.01832 2.66602 5.33203 5.35231 5.33203 8.66602C5.33203 11.9797 8.01832 14.666 11.332 14.666Z" fill="white"/>
<path d="M16.0471 26.7244C13.9618 24.6684 12.6658 21.8177 12.6658 18.6657C12.6658 18.2231 12.7458 17.8044 12.7964 17.3751C12.4444 17.3564 12.0978 17.3351 11.7138 17.3244L11.3324 17.3164C6.04177 17.3164 1.43377 20.8924 0.132441 26.0177C-0.464892 28.3671 1.01511 30.8444 3.42844 31.5431C5.06311 32.0177 7.25244 32.5377 9.81244 32.6204C11.3458 30.1431 13.5084 28.1137 16.0471 26.7244Z" fill="white"/>
<path d="M36.666 14.666C39.9797 14.666 42.666 11.9797 42.666 8.66602C42.666 5.35231 39.9797 2.66602 36.666 2.66602C33.3523 2.66602 30.666 5.35231 30.666 8.66602C30.666 11.9797 33.3523 14.666 36.666 14.666Z" fill="white"/>
<path d="M31.9512 26.7244C34.0365 24.6684 35.3325 21.8177 35.3325 18.6657C35.3325 18.2231 35.2525 17.8044 35.2018 17.3751C35.5538 17.3564 35.9005 17.3351 36.2845 17.3244L36.6658 17.3164C41.9565 17.3164 46.5645 20.8924 47.8658 26.0177C48.4632 28.3671 46.9832 30.8444 44.5698 31.5431C42.9352 32.0177 40.7458 32.5377 38.1858 32.6204C36.6525 30.1431 34.4898 28.1137 31.9512 26.7244Z" fill="white"/>
</svg>
