<svg width="48" height="48" viewBox="0 0 48 48" fill="none" xmlns="http://www.w3.org/2000/svg">
<rect width="48" height="48" rx="4" fill="white" fill-opacity="0.1"/>
<path d="M14.3337 11C12.3086 11 10.667 12.6416 10.667 14.6667C10.667 16.6917 12.3086 18.3333 14.3337 18.3333C16.3587 18.3333 18.0003 16.6917 18.0003 14.6667C18.0003 14.1311 17.8855 13.6224 17.6792 13.1638L13.9775 16.9812L11.6048 14.2945L12.6042 13.4119L14.0232 15.0187L16.9021 12.0499C16.2406 11.4005 15.3339 11 14.3337 11Z" fill="white"/>
<path d="M14.3337 29.666C12.3086 29.666 10.667 31.3076 10.667 33.3327C10.667 35.3577 12.3086 36.9993 14.3337 36.9993C16.3587 36.9993 18.0003 35.3577 18.0003 33.3327C18.0003 32.7971 17.8855 32.2885 17.6792 31.8298L13.9775 35.6472L11.6048 32.9605L12.6042 32.0779L14.0232 33.6847L16.9021 30.7159C16.2406 30.0665 15.3339 29.666 14.3337 29.666Z" fill="white"/>
<path d="M14.3337 20.334C12.3086 20.334 10.667 21.9756 10.667 24.0007C10.667 26.0257 12.3086 27.6673 14.3337 27.6673C16.3587 27.6673 18.0003 26.0257 18.0003 24.0007C18.0003 23.4651 17.8855 22.9565 17.6792 22.4978L13.9775 26.3152L11.6048 23.6285L12.6042 22.7459L14.0232 24.3527L16.9021 21.3839C16.2406 20.7345 15.3339 20.334 14.3337 20.334Z" fill="white"/>
<path fill-rule="evenodd" clip-rule="evenodd" d="M21.334 32.334H37.334V34.334H21.334V32.334Z" fill="white"/>
<path fill-rule="evenodd" clip-rule="evenodd" d="M21.334 23H37.334V25H21.334V23Z" fill="white"/>
<path fill-rule="evenodd" clip-rule="evenodd" d="M21.334 13.666H37.334V15.666H21.334V13.666Z" fill="white"/>
</svg>
