<svg width="422" height="333" viewBox="0 0 422 333" fill="none" xmlns="http://www.w3.org/2000/svg">
<g filter="url(#filter0_ddd_3550_100836)">
<path d="M7 13C7 8.58172 10.5817 5 15 5H407C411.418 5 415 8.58172 415 13V316C415 320.418 411.418 324 407 324H15C10.5817 324 7 320.418 7 316V13Z" fill="url(#paint0_linear_3550_100836)" fill-opacity="0.1" shape-rendering="crispEdges"/>
<path d="M15 5.5H407C411.142 5.5 414.5 8.85786 414.5 13V316C414.5 320.142 411.142 323.5 407 323.5H15C10.8579 323.5 7.5 320.142 7.5 316V13C7.5 8.85786 10.8579 5.5 15 5.5Z" stroke="url(#paint1_linear_3550_100836)" stroke-opacity="0.1" shape-rendering="crispEdges"/>
<path d="M321 132.5C321 194.08 271.751 244 211 244C150.249 244 101 194.08 101 132.5C101 70.9202 150.249 21 211 21C271.751 21 321 70.9202 321 132.5ZM156 132.5C156 163.29 180.624 188.25 211 188.25C241.376 188.25 266 163.29 266 132.5C266 101.71 241.376 76.75 211 76.75C180.624 76.75 156 101.71 156 132.5Z" fill="#F4F4F4"/>
<path d="M292.926 206.905C276.866 225.073 255.372 237.402 231.737 242.001L221.368 187.25C233.186 184.951 243.933 178.787 251.963 169.702L292.926 206.905Z" fill="#E76E50"/>
<path d="M233.224 241.701C213.117 245.905 192.251 244.322 172.986 237.13C153.721 229.939 136.826 217.426 124.212 201.008L167.606 166.754C173.913 174.963 182.361 181.22 191.993 184.815C201.626 188.411 212.059 189.202 222.112 187.1L233.224 241.701Z" fill="#264753"/>
<path d="M125.434 202.569C115.783 190.46 108.741 176.437 104.76 161.402C100.779 146.368 99.9481 130.655 102.32 115.276C104.693 99.8959 110.216 85.1902 118.534 72.105C126.852 59.0199 137.782 47.8452 150.618 39.3004L180.809 85.9002C174.391 90.1726 168.926 95.7599 164.767 102.303C160.608 108.845 157.846 116.198 156.66 123.888C155.474 131.578 155.89 139.434 157.88 146.951C159.87 154.468 163.391 161.48 168.217 167.534L125.434 202.569Z" fill="#FF8989"/>
<path d="M138.548 48.6024C157.498 31.7881 181.566 22.0744 206.732 21.0839C231.898 20.0935 256.637 27.8864 276.816 43.1608L243.908 87.8304C233.819 80.1932 221.449 76.2968 208.866 76.792C196.283 77.2872 184.249 82.1441 174.774 90.5512L138.548 48.6024Z" fill="#299D90"/>
<path d="M318.47 156.276C314.422 175.075 305.644 192.492 292.988 206.834L251.994 169.667C258.322 162.496 262.711 153.787 264.735 144.388L318.47 156.276Z" fill="#E9C469"/>
<path d="M265.434 35.6091C285.805 47.3677 301.937 65.4155 311.478 87.1205C321.018 108.825 323.469 133.052 318.472 156.268L264.736 144.384C267.234 132.776 266.009 120.663 261.239 109.81C256.468 98.9578 248.402 89.9339 238.217 84.0545L265.434 35.6091Z" fill="#F4A462"/>
<circle cx="75" cy="271" r="4" fill="#264753"/>
<path d="M93.344 273.98C92.72 273.22 92.408 272.16 92.408 270.8C92.408 269.44 92.72 268.38 93.344 267.62C93.968 266.86 94.736 266.48 95.648 266.48C96.56 266.48 97.328 266.86 97.952 267.62C98.576 268.38 98.888 269.44 98.888 270.8C98.888 272.16 98.576 273.22 97.952 273.98C97.328 274.74 96.56 275.12 95.648 275.12C94.736 275.12 93.968 274.74 93.344 273.98ZM97.268 268.28C96.828 267.68 96.288 267.38 95.648 267.38C95.008 267.38 94.468 267.68 94.028 268.28C93.588 268.88 93.368 269.72 93.368 270.8C93.368 271.88 93.588 272.72 94.028 273.32C94.468 273.92 95.008 274.22 95.648 274.22C96.288 274.22 96.828 273.92 97.268 273.32C97.708 272.72 97.928 271.88 97.928 270.8C97.928 269.72 97.708 268.88 97.268 268.28ZM100.093 272V271.16H103.933V272H100.093ZM104.895 272.78H105.855C105.855 273.188 106.015 273.532 106.335 273.812C106.663 274.084 107.103 274.22 107.655 274.22C108.183 274.22 108.615 274.076 108.951 273.788C109.287 273.5 109.455 273.144 109.455 272.72C109.455 272.256 109.291 271.88 108.963 271.592C108.635 271.304 108.199 271.16 107.655 271.16H107.115V270.26H107.655C108.183 270.26 108.595 270.12 108.891 269.84C109.187 269.56 109.335 269.208 109.335 268.784C109.335 268.4 109.179 268.072 108.867 267.8C108.555 267.52 108.151 267.38 107.655 267.38C107.183 267.38 106.783 267.52 106.455 267.8C106.135 268.072 105.975 268.392 105.975 268.76H105.015C105.015 268.144 105.263 267.612 105.759 267.164C106.255 266.708 106.887 266.48 107.655 266.48C108.431 266.48 109.063 266.704 109.551 267.152C110.047 267.592 110.295 268.144 110.295 268.808C110.295 269.392 110.075 269.88 109.635 270.272C109.435 270.448 109.215 270.584 108.975 270.68V270.74C109.255 270.844 109.495 270.988 109.695 271.172C110.175 271.588 110.415 272.104 110.415 272.72C110.415 273.384 110.155 273.952 109.635 274.424C109.115 274.888 108.455 275.12 107.655 275.12C106.831 275.12 106.163 274.892 105.651 274.436C105.147 273.98 104.895 273.428 104.895 272.78ZM112.668 273.98C112.044 273.22 111.732 272.16 111.732 270.8C111.732 269.44 112.044 268.38 112.668 267.62C113.292 266.86 114.06 266.48 114.972 266.48C115.884 266.48 116.652 266.86 117.276 267.62C117.9 268.38 118.212 269.44 118.212 270.8C118.212 272.16 117.9 273.22 117.276 273.98C116.652 274.74 115.884 275.12 114.972 275.12C114.06 275.12 113.292 274.74 112.668 273.98ZM116.592 268.28C116.152 267.68 115.612 267.38 114.972 267.38C114.332 267.38 113.792 267.68 113.352 268.28C112.912 268.88 112.692 269.72 112.692 270.8C112.692 271.88 112.912 272.72 113.352 273.32C113.792 273.92 114.332 274.22 114.972 274.22C115.612 274.22 116.152 273.92 116.592 273.32C117.032 272.72 117.252 271.88 117.252 270.8C117.252 269.72 117.032 268.88 116.592 268.28ZM126.983 275L126.863 274.16H126.803C126.299 274.8 125.659 275.12 124.883 275.12C124.091 275.12 123.431 274.832 122.903 274.256C122.383 273.672 122.123 272.92 122.123 272C122.123 271.08 122.383 270.332 122.903 269.756C123.431 269.172 124.091 268.88 124.883 268.88C125.659 268.88 126.299 269.2 126.803 269.84H126.863V266.6H127.763V275H126.983ZM123.587 273.644C123.963 274.068 124.415 274.28 124.943 274.28C125.471 274.28 125.923 274.068 126.299 273.644C126.675 273.22 126.863 272.672 126.863 272C126.863 271.328 126.675 270.78 126.299 270.356C125.923 269.932 125.471 269.72 124.943 269.72C124.415 269.72 123.963 269.932 123.587 270.356C123.211 270.78 123.023 271.328 123.023 272C123.023 272.672 123.211 273.22 123.587 273.644ZM133.402 275L133.282 274.28H133.222C133.11 274.44 132.966 274.58 132.79 274.7C132.422 274.98 131.946 275.12 131.362 275.12C130.738 275.12 130.23 274.948 129.838 274.604C129.454 274.26 129.262 273.812 129.262 273.26C129.262 272.66 129.458 272.192 129.85 271.856C130.25 271.512 130.854 271.34 131.662 271.34H133.282V271.16C133.282 270.704 133.154 270.352 132.898 270.104C132.65 269.848 132.298 269.72 131.842 269.72C131.41 269.72 131.058 269.82 130.786 270.02C130.522 270.212 130.374 270.452 130.342 270.74H129.442C129.474 270.228 129.702 269.792 130.126 269.432C130.558 269.064 131.13 268.88 131.842 268.88C132.57 268.88 133.142 269.08 133.558 269.48C133.974 269.88 134.182 270.44 134.182 271.16V275H133.402ZM133.282 272.42V272.18H131.662C131.15 272.18 130.77 272.28 130.522 272.48C130.282 272.68 130.162 272.94 130.162 273.26C130.162 273.572 130.266 273.82 130.474 274.004C130.682 274.188 130.978 274.28 131.362 274.28C131.962 274.28 132.43 274.116 132.766 273.788C133.11 273.452 133.282 272.996 133.282 272.42ZM135.571 277.4V276.56H136.711C136.911 276.56 137.051 276.44 137.131 276.2L137.371 275.48L134.911 269H135.871L137.731 273.98H137.971L139.651 269H140.611L137.911 276.56C137.807 276.856 137.671 277.068 137.503 277.196C137.335 277.332 137.091 277.4 136.771 277.4H135.571ZM141.092 273.26H141.992C141.992 273.54 142.124 273.78 142.388 273.98C142.66 274.18 143.028 274.28 143.492 274.28C143.948 274.28 144.3 274.196 144.548 274.028C144.804 273.852 144.932 273.636 144.932 273.38C144.932 272.908 144.592 272.608 143.912 272.48L142.892 272.3C141.772 272.116 141.212 271.556 141.212 270.62C141.212 270.116 141.404 269.7 141.788 269.372C142.172 269.044 142.72 268.88 143.432 268.88C144.128 268.88 144.692 269.064 145.124 269.432C145.556 269.8 145.772 270.236 145.772 270.74H144.872C144.872 270.46 144.74 270.22 144.476 270.02C144.22 269.82 143.872 269.72 143.432 269.72C143 269.72 142.672 269.808 142.448 269.984C142.224 270.152 142.112 270.364 142.112 270.62C142.112 271.06 142.432 271.34 143.072 271.46L144.092 271.64C144.692 271.752 145.132 271.952 145.412 272.24C145.692 272.52 145.832 272.9 145.832 273.38C145.832 273.884 145.628 274.3 145.22 274.628C144.82 274.956 144.244 275.12 143.492 275.12C142.772 275.12 142.192 274.936 141.752 274.568C141.312 274.2 141.092 273.764 141.092 273.26Z" fill="white"/>
<circle cx="171" cy="271" r="4" fill="#FF8989"/>
<path d="M186.703 272.78H187.663C187.663 273.188 187.823 273.532 188.143 273.812C188.471 274.084 188.911 274.22 189.463 274.22C189.991 274.22 190.423 274.076 190.759 273.788C191.095 273.5 191.263 273.144 191.263 272.72C191.263 272.256 191.099 271.88 190.771 271.592C190.443 271.304 190.007 271.16 189.463 271.16H188.923V270.26H189.463C189.991 270.26 190.403 270.12 190.699 269.84C190.995 269.56 191.143 269.208 191.143 268.784C191.143 268.4 190.987 268.072 190.675 267.8C190.363 267.52 189.959 267.38 189.463 267.38C188.991 267.38 188.591 267.52 188.263 267.8C187.943 268.072 187.783 268.392 187.783 268.76H186.823C186.823 268.144 187.071 267.612 187.567 267.164C188.063 266.708 188.695 266.48 189.463 266.48C190.239 266.48 190.871 266.704 191.359 267.152C191.855 267.592 192.103 268.144 192.103 268.808C192.103 269.392 191.883 269.88 191.443 270.272C191.243 270.448 191.023 270.584 190.783 270.68V270.74C191.063 270.844 191.303 270.988 191.503 271.172C191.983 271.588 192.223 272.104 192.223 272.72C192.223 273.384 191.963 273.952 191.443 274.424C190.923 274.888 190.263 275.12 189.463 275.12C188.639 275.12 187.971 274.892 187.459 274.436C186.955 273.98 186.703 273.428 186.703 272.78ZM194.981 275V268.4H193.181V267.56H194.621C194.861 267.56 194.981 267.44 194.981 267.2V266.6H195.941V275H194.981ZM197.44 272V271.16H201.28V272H197.44ZM202.782 270.68L205.422 266.6H206.502L204.522 269.72H204.582L204.81 269.66C204.97 269.62 205.154 269.6 205.362 269.6C206.122 269.6 206.762 269.856 207.282 270.368C207.802 270.88 208.062 271.524 208.062 272.3C208.062 273.084 207.782 273.752 207.222 274.304C206.67 274.848 205.99 275.12 205.182 275.12C204.374 275.12 203.69 274.848 203.13 274.304C202.578 273.752 202.302 273.084 202.302 272.3C202.302 271.716 202.462 271.176 202.782 270.68ZM203.814 273.668C204.182 274.036 204.638 274.22 205.182 274.22C205.726 274.22 206.182 274.036 206.55 273.668C206.918 273.292 207.102 272.836 207.102 272.3C207.102 271.764 206.918 271.312 206.55 270.944C206.182 270.568 205.726 270.38 205.182 270.38C204.638 270.38 204.182 270.568 203.814 270.944C203.446 271.312 203.262 271.764 203.262 272.3C203.262 272.836 203.446 273.292 203.814 273.668ZM210.133 273.98C209.509 273.22 209.197 272.16 209.197 270.8C209.197 269.44 209.509 268.38 210.133 267.62C210.757 266.86 211.525 266.48 212.437 266.48C213.349 266.48 214.117 266.86 214.741 267.62C215.365 268.38 215.677 269.44 215.677 270.8C215.677 272.16 215.365 273.22 214.741 273.98C214.117 274.74 213.349 275.12 212.437 275.12C211.525 275.12 210.757 274.74 210.133 273.98ZM214.057 268.28C213.617 267.68 213.077 267.38 212.437 267.38C211.797 267.38 211.257 267.68 210.817 268.28C210.377 268.88 210.157 269.72 210.157 270.8C210.157 271.88 210.377 272.72 210.817 273.32C211.257 273.92 211.797 274.22 212.437 274.22C213.077 274.22 213.617 273.92 214.057 273.32C214.497 272.72 214.717 271.88 214.717 270.8C214.717 269.72 214.497 268.88 214.057 268.28ZM224.447 275L224.327 274.16H224.267C223.763 274.8 223.123 275.12 222.347 275.12C221.555 275.12 220.895 274.832 220.367 274.256C219.847 273.672 219.587 272.92 219.587 272C219.587 271.08 219.847 270.332 220.367 269.756C220.895 269.172 221.555 268.88 222.347 268.88C223.123 268.88 223.763 269.2 224.267 269.84H224.327V266.6H225.227V275H224.447ZM221.051 273.644C221.427 274.068 221.879 274.28 222.407 274.28C222.935 274.28 223.387 274.068 223.763 273.644C224.139 273.22 224.327 272.672 224.327 272C224.327 271.328 224.139 270.78 223.763 270.356C223.387 269.932 222.935 269.72 222.407 269.72C221.879 269.72 221.427 269.932 221.051 270.356C220.675 270.78 220.487 271.328 220.487 272C220.487 272.672 220.675 273.22 221.051 273.644ZM230.867 275L230.747 274.28H230.687C230.575 274.44 230.431 274.58 230.255 274.7C229.887 274.98 229.411 275.12 228.827 275.12C228.203 275.12 227.695 274.948 227.303 274.604C226.919 274.26 226.727 273.812 226.727 273.26C226.727 272.66 226.923 272.192 227.315 271.856C227.715 271.512 228.319 271.34 229.127 271.34H230.747V271.16C230.747 270.704 230.619 270.352 230.363 270.104C230.115 269.848 229.763 269.72 229.307 269.72C228.875 269.72 228.523 269.82 228.251 270.02C227.987 270.212 227.839 270.452 227.807 270.74H226.907C226.939 270.228 227.167 269.792 227.591 269.432C228.023 269.064 228.595 268.88 229.307 268.88C230.035 268.88 230.607 269.08 231.023 269.48C231.439 269.88 231.647 270.44 231.647 271.16V275H230.867ZM230.747 272.42V272.18H229.127C228.615 272.18 228.235 272.28 227.987 272.48C227.747 272.68 227.627 272.94 227.627 273.26C227.627 273.572 227.731 273.82 227.939 274.004C228.147 274.188 228.443 274.28 228.827 274.28C229.427 274.28 229.895 274.116 230.231 273.788C230.575 273.452 230.747 272.996 230.747 272.42ZM233.036 277.4V276.56H234.176C234.376 276.56 234.516 276.44 234.596 276.2L234.836 275.48L232.376 269H233.336L235.196 273.98H235.436L237.116 269H238.076L235.376 276.56C235.272 276.856 235.136 277.068 234.968 277.196C234.8 277.332 234.556 277.4 234.236 277.4H233.036ZM238.557 273.26H239.457C239.457 273.54 239.589 273.78 239.853 273.98C240.125 274.18 240.493 274.28 240.957 274.28C241.413 274.28 241.765 274.196 242.013 274.028C242.269 273.852 242.397 273.636 242.397 273.38C242.397 272.908 242.057 272.608 241.377 272.48L240.357 272.3C239.237 272.116 238.677 271.556 238.677 270.62C238.677 270.116 238.869 269.7 239.253 269.372C239.637 269.044 240.185 268.88 240.897 268.88C241.593 268.88 242.157 269.064 242.589 269.432C243.021 269.8 243.237 270.236 243.237 270.74H242.337C242.337 270.46 242.205 270.22 241.941 270.02C241.685 269.82 241.337 269.72 240.897 269.72C240.465 269.72 240.137 269.808 239.913 269.984C239.689 270.152 239.577 270.364 239.577 270.62C239.577 271.06 239.897 271.34 240.537 271.46L241.557 271.64C242.157 271.752 242.597 271.952 242.877 272.24C243.157 272.52 243.297 272.9 243.297 273.38C243.297 273.884 243.093 274.3 242.685 274.628C242.285 274.956 241.709 275.12 240.957 275.12C240.237 275.12 239.657 274.936 239.217 274.568C238.777 274.2 238.557 273.764 238.557 273.26Z" fill="white"/>
<circle cx="267" cy="271" r="4" fill="#299D90"/>
<path d="M281.62 270.68L284.26 266.6H285.34L283.36 269.72H283.42L283.648 269.66C283.808 269.62 283.992 269.6 284.2 269.6C284.96 269.6 285.6 269.856 286.12 270.368C286.64 270.88 286.9 271.524 286.9 272.3C286.9 273.084 286.62 273.752 286.06 274.304C285.508 274.848 284.828 275.12 284.02 275.12C283.212 275.12 282.528 274.848 281.968 274.304C281.416 273.752 281.14 273.084 281.14 272.3C281.14 271.716 281.3 271.176 281.62 270.68ZM282.652 273.668C283.02 274.036 283.476 274.22 284.02 274.22C284.564 274.22 285.02 274.036 285.388 273.668C285.756 273.292 285.94 272.836 285.94 272.3C285.94 271.764 285.756 271.312 285.388 270.944C285.02 270.568 284.564 270.38 284.02 270.38C283.476 270.38 283.02 270.568 282.652 270.944C282.284 271.312 282.1 271.764 282.1 272.3C282.1 272.836 282.284 273.292 282.652 273.668ZM289.241 275V268.4H287.441V267.56H288.881C289.121 267.56 289.241 267.44 289.241 267.2V266.6H290.201V275H289.241ZM291.7 272V271.16H295.54V272H291.7ZM297.819 275V268.4H296.019V267.56H297.459C297.699 267.56 297.819 267.44 297.819 267.2V266.6H298.779V275H297.819ZM300.398 275V274.22L303.818 270.56C304.074 270.28 304.258 270.032 304.37 269.816C304.482 269.592 304.538 269.32 304.538 269C304.538 268.52 304.386 268.132 304.082 267.836C303.786 267.532 303.398 267.38 302.918 267.38C302.462 267.38 302.078 267.548 301.766 267.884C301.454 268.22 301.298 268.652 301.298 269.18H300.338C300.338 268.396 300.578 267.752 301.058 267.248C301.546 266.736 302.166 266.48 302.918 266.48C303.67 266.48 304.286 266.716 304.766 267.188C305.254 267.652 305.498 268.256 305.498 269C305.498 269.464 305.414 269.86 305.246 270.188C305.078 270.508 304.822 270.852 304.478 271.22L301.778 274.04V274.1H305.678V275H300.398ZM307.756 273.98C307.132 273.22 306.82 272.16 306.82 270.8C306.82 269.44 307.132 268.38 307.756 267.62C308.38 266.86 309.148 266.48 310.06 266.48C310.972 266.48 311.74 266.86 312.364 267.62C312.988 268.38 313.3 269.44 313.3 270.8C313.3 272.16 312.988 273.22 312.364 273.98C311.74 274.74 310.972 275.12 310.06 275.12C309.148 275.12 308.38 274.74 307.756 273.98ZM311.68 268.28C311.24 267.68 310.7 267.38 310.06 267.38C309.42 267.38 308.88 267.68 308.44 268.28C308 268.88 307.78 269.72 307.78 270.8C307.78 271.88 308 272.72 308.44 273.32C308.88 273.92 309.42 274.22 310.06 274.22C310.7 274.22 311.24 273.92 311.68 273.32C312.12 272.72 312.34 271.88 312.34 270.8C312.34 269.72 312.12 268.88 311.68 268.28ZM322.07 275L321.95 274.16H321.89C321.386 274.8 320.746 275.12 319.97 275.12C319.178 275.12 318.518 274.832 317.99 274.256C317.47 273.672 317.21 272.92 317.21 272C317.21 271.08 317.47 270.332 317.99 269.756C318.518 269.172 319.178 268.88 319.97 268.88C320.746 268.88 321.386 269.2 321.89 269.84H321.95V266.6H322.85V275H322.07ZM318.674 273.644C319.05 274.068 319.502 274.28 320.03 274.28C320.558 274.28 321.01 274.068 321.386 273.644C321.762 273.22 321.95 272.672 321.95 272C321.95 271.328 321.762 270.78 321.386 270.356C321.01 269.932 320.558 269.72 320.03 269.72C319.502 269.72 319.05 269.932 318.674 270.356C318.298 270.78 318.11 271.328 318.11 272C318.11 272.672 318.298 273.22 318.674 273.644ZM328.49 275L328.37 274.28H328.31C328.198 274.44 328.054 274.58 327.878 274.7C327.51 274.98 327.034 275.12 326.45 275.12C325.826 275.12 325.318 274.948 324.926 274.604C324.542 274.26 324.35 273.812 324.35 273.26C324.35 272.66 324.546 272.192 324.938 271.856C325.338 271.512 325.942 271.34 326.75 271.34H328.37V271.16C328.37 270.704 328.242 270.352 327.986 270.104C327.738 269.848 327.386 269.72 326.93 269.72C326.498 269.72 326.146 269.82 325.874 270.02C325.61 270.212 325.462 270.452 325.43 270.74H324.53C324.562 270.228 324.79 269.792 325.214 269.432C325.646 269.064 326.218 268.88 326.93 268.88C327.658 268.88 328.23 269.08 328.646 269.48C329.062 269.88 329.27 270.44 329.27 271.16V275H328.49ZM328.37 272.42V272.18H326.75C326.238 272.18 325.858 272.28 325.61 272.48C325.37 272.68 325.25 272.94 325.25 273.26C325.25 273.572 325.354 273.82 325.562 274.004C325.77 274.188 326.066 274.28 326.45 274.28C327.05 274.28 327.518 274.116 327.854 273.788C328.198 273.452 328.37 272.996 328.37 272.42ZM330.659 277.4V276.56H331.799C331.999 276.56 332.139 276.44 332.219 276.2L332.459 275.48L329.999 269H330.959L332.819 273.98H333.059L334.739 269H335.699L332.999 276.56C332.895 276.856 332.759 277.068 332.591 277.196C332.423 277.332 332.179 277.4 331.859 277.4H330.659ZM336.18 273.26H337.08C337.08 273.54 337.212 273.78 337.476 273.98C337.748 274.18 338.116 274.28 338.58 274.28C339.036 274.28 339.388 274.196 339.636 274.028C339.892 273.852 340.02 273.636 340.02 273.38C340.02 272.908 339.68 272.608 339 272.48L337.98 272.3C336.86 272.116 336.3 271.556 336.3 270.62C336.3 270.116 336.492 269.7 336.876 269.372C337.26 269.044 337.808 268.88 338.52 268.88C339.216 268.88 339.78 269.064 340.212 269.432C340.644 269.8 340.86 270.236 340.86 270.74H339.96C339.96 270.46 339.828 270.22 339.564 270.02C339.308 269.82 338.96 269.72 338.52 269.72C338.088 269.72 337.76 269.808 337.536 269.984C337.312 270.152 337.2 270.364 337.2 270.62C337.2 271.06 337.52 271.34 338.16 271.46L339.18 271.64C339.78 271.752 340.22 271.952 340.5 272.24C340.78 272.52 340.92 272.9 340.92 273.38C340.92 273.884 340.716 274.3 340.308 274.628C339.908 274.956 339.332 275.12 338.58 275.12C337.86 275.12 337.28 274.936 336.84 274.568C336.4 274.2 336.18 273.764 336.18 273.26Z" fill="white"/>
<circle cx="75" cy="301" r="4" fill="#F4A462"/>
<path d="M85.4945 305V298.4H83.6945V297.56H85.1345C85.3745 297.56 85.4945 297.44 85.4945 297.2V296.6H86.4545V305H85.4945ZM88.0741 305V304.22L91.4941 300.56C91.7501 300.28 91.9341 300.032 92.0461 299.816C92.1581 299.592 92.2141 299.32 92.2141 299C92.2141 298.52 92.0621 298.132 91.7581 297.836C91.4621 297.532 91.0741 297.38 90.5941 297.38C90.1381 297.38 89.7541 297.548 89.4421 297.884C89.1301 298.22 88.9741 298.652 88.9741 299.18H88.0141C88.0141 298.396 88.2541 297.752 88.7341 297.248C89.2221 296.736 89.8421 296.48 90.5941 296.48C91.3461 296.48 91.9621 296.716 92.4421 297.188C92.9301 297.652 93.1741 298.256 93.1741 299C93.1741 299.464 93.0901 299.86 92.9221 300.188C92.7541 300.508 92.4981 300.852 92.1541 301.22L89.4541 304.04V304.1H93.3541V305H88.0741ZM95.9359 305V298.4H94.1359V297.56H95.5759C95.8159 297.56 95.9359 297.44 95.9359 297.2V296.6H96.8959V305H95.9359ZM101.161 302V301.16H105.001V302H101.161ZM110.409 305V298.4H108.609V297.56H110.049C110.289 297.56 110.409 297.44 110.409 297.2V296.6H111.369V305H110.409ZM114.248 300.68V300.62C114.032 300.5 113.84 300.356 113.672 300.188C113.296 299.812 113.108 299.356 113.108 298.82C113.108 298.156 113.352 297.6 113.84 297.152C114.328 296.704 114.944 296.48 115.688 296.48C116.432 296.48 117.048 296.704 117.536 297.152C118.024 297.6 118.268 298.156 118.268 298.82C118.268 299.348 118.076 299.804 117.692 300.188C117.532 300.348 117.344 300.492 117.128 300.62V300.68C117.352 300.784 117.572 300.936 117.788 301.136C118.228 301.576 118.448 302.104 118.448 302.72C118.448 303.368 118.188 303.932 117.668 304.412C117.156 304.884 116.496 305.12 115.688 305.12C114.872 305.12 114.208 304.884 113.696 304.412C113.184 303.94 112.928 303.376 112.928 302.72C112.928 302.088 113.148 301.56 113.588 301.136C113.788 300.936 114.008 300.784 114.248 300.68ZM114.5 297.8C114.212 298.072 114.068 298.412 114.068 298.82C114.068 299.228 114.212 299.572 114.5 299.852C114.796 300.124 115.192 300.26 115.688 300.26C116.184 300.26 116.576 300.124 116.864 299.852C117.16 299.572 117.308 299.228 117.308 298.82C117.308 298.412 117.16 298.072 116.864 297.8C116.576 297.52 116.184 297.38 115.688 297.38C115.192 297.38 114.796 297.52 114.5 297.8ZM114.404 301.544C114.06 301.84 113.888 302.212 113.888 302.66C113.888 303.108 114.06 303.48 114.404 303.776C114.748 304.072 115.176 304.22 115.688 304.22C116.2 304.22 116.628 304.072 116.972 303.776C117.316 303.48 117.488 303.108 117.488 302.66C117.488 302.212 117.316 301.84 116.972 301.544C116.628 301.248 116.2 301.1 115.688 301.1C115.176 301.1 114.748 301.248 114.404 301.544ZM120.639 303.98C120.015 303.22 119.703 302.16 119.703 300.8C119.703 299.44 120.015 298.38 120.639 297.62C121.263 296.86 122.031 296.48 122.943 296.48C123.855 296.48 124.623 296.86 125.247 297.62C125.871 298.38 126.183 299.44 126.183 300.8C126.183 302.16 125.871 303.22 125.247 303.98C124.623 304.74 123.855 305.12 122.943 305.12C122.031 305.12 121.263 304.74 120.639 303.98ZM124.563 298.28C124.123 297.68 123.583 297.38 122.943 297.38C122.303 297.38 121.763 297.68 121.323 298.28C120.883 298.88 120.663 299.72 120.663 300.8C120.663 301.88 120.883 302.72 121.323 303.32C121.763 303.92 122.303 304.22 122.943 304.22C123.583 304.22 124.123 303.92 124.563 303.32C125.003 302.72 125.223 301.88 125.223 300.8C125.223 299.72 125.003 298.88 124.563 298.28ZM130.573 305V296.6H133.393C134.561 296.6 135.521 296.996 136.273 297.788C137.033 298.572 137.413 299.576 137.413 300.8C137.413 302.024 137.033 303.032 136.273 303.824C135.521 304.608 134.561 305 133.393 305H130.573ZM131.533 304.1H133.393C134.273 304.1 135.001 303.796 135.577 303.188C136.161 302.572 136.453 301.776 136.453 300.8C136.453 299.824 136.161 299.032 135.577 298.424C135.001 297.808 134.273 297.5 133.393 297.5H131.533V304.1ZM142.756 305L142.636 304.28H142.576C142.464 304.44 142.32 304.58 142.144 304.7C141.776 304.98 141.3 305.12 140.716 305.12C140.092 305.12 139.584 304.948 139.192 304.604C138.808 304.26 138.616 303.812 138.616 303.26C138.616 302.66 138.812 302.192 139.204 301.856C139.604 301.512 140.208 301.34 141.016 301.34H142.636V301.16C142.636 300.704 142.508 300.352 142.252 300.104C142.004 299.848 141.652 299.72 141.196 299.72C140.764 299.72 140.412 299.82 140.14 300.02C139.876 300.212 139.728 300.452 139.696 300.74H138.796C138.828 300.228 139.056 299.792 139.48 299.432C139.912 299.064 140.484 298.88 141.196 298.88C141.924 298.88 142.496 299.08 142.912 299.48C143.328 299.88 143.536 300.44 143.536 301.16V305H142.756ZM142.636 302.42V302.18H141.016C140.504 302.18 140.124 302.28 139.876 302.48C139.636 302.68 139.516 302.94 139.516 303.26C139.516 303.572 139.62 303.82 139.828 304.004C140.036 304.188 140.332 304.28 140.716 304.28C141.316 304.28 141.784 304.116 142.12 303.788C142.464 303.452 142.636 302.996 142.636 302.42ZM144.925 307.4V306.56H146.065C146.265 306.56 146.405 306.44 146.485 306.2L146.725 305.48L144.265 299H145.225L147.085 303.98H147.325L149.005 299H149.965L147.265 306.56C147.161 306.856 147.025 307.068 146.857 307.196C146.689 307.332 146.445 307.4 146.125 307.4H144.925ZM150.446 303.26H151.346C151.346 303.54 151.478 303.78 151.742 303.98C152.014 304.18 152.382 304.28 152.846 304.28C153.302 304.28 153.654 304.196 153.902 304.028C154.158 303.852 154.286 303.636 154.286 303.38C154.286 302.908 153.946 302.608 153.266 302.48L152.246 302.3C151.126 302.116 150.566 301.556 150.566 300.62C150.566 300.116 150.758 299.7 151.142 299.372C151.526 299.044 152.074 298.88 152.786 298.88C153.482 298.88 154.046 299.064 154.478 299.432C154.91 299.8 155.126 300.236 155.126 300.74H154.226C154.226 300.46 154.094 300.22 153.83 300.02C153.574 299.82 153.226 299.72 152.786 299.72C152.354 299.72 152.026 299.808 151.802 299.984C151.578 300.152 151.466 300.364 151.466 300.62C151.466 301.06 151.786 301.34 152.426 301.46L153.446 301.64C154.046 301.752 154.486 301.952 154.766 302.24C155.046 302.52 155.186 302.9 155.186 303.38C155.186 303.884 154.982 304.3 154.574 304.628C154.174 304.956 153.598 305.12 152.846 305.12C152.126 305.12 151.546 304.936 151.106 304.568C150.666 304.2 150.446 303.764 150.446 303.26Z" fill="white"/>
<circle cx="171" cy="301" r="4" fill="#E9C469"/>
<path d="M181.559 305V298.4H179.759V297.56H181.199C181.439 297.56 181.559 297.44 181.559 297.2V296.6H182.519V305H181.559ZM185.399 300.68V300.62C185.183 300.5 184.991 300.356 184.823 300.188C184.447 299.812 184.259 299.356 184.259 298.82C184.259 298.156 184.503 297.6 184.991 297.152C185.479 296.704 186.095 296.48 186.839 296.48C187.583 296.48 188.199 296.704 188.687 297.152C189.175 297.6 189.419 298.156 189.419 298.82C189.419 299.348 189.227 299.804 188.843 300.188C188.683 300.348 188.495 300.492 188.279 300.62V300.68C188.503 300.784 188.723 300.936 188.939 301.136C189.379 301.576 189.599 302.104 189.599 302.72C189.599 303.368 189.339 303.932 188.819 304.412C188.307 304.884 187.647 305.12 186.839 305.12C186.023 305.12 185.359 304.884 184.847 304.412C184.335 303.94 184.079 303.376 184.079 302.72C184.079 302.088 184.299 301.56 184.739 301.136C184.939 300.936 185.159 300.784 185.399 300.68ZM185.651 297.8C185.363 298.072 185.219 298.412 185.219 298.82C185.219 299.228 185.363 299.572 185.651 299.852C185.947 300.124 186.343 300.26 186.839 300.26C187.335 300.26 187.727 300.124 188.015 299.852C188.311 299.572 188.459 299.228 188.459 298.82C188.459 298.412 188.311 298.072 188.015 297.8C187.727 297.52 187.335 297.38 186.839 297.38C186.343 297.38 185.947 297.52 185.651 297.8ZM185.555 301.544C185.211 301.84 185.039 302.212 185.039 302.66C185.039 303.108 185.211 303.48 185.555 303.776C185.899 304.072 186.327 304.22 186.839 304.22C187.351 304.22 187.779 304.072 188.123 303.776C188.467 303.48 188.639 303.108 188.639 302.66C188.639 302.212 188.467 301.84 188.123 301.544C187.779 301.248 187.351 301.1 186.839 301.1C186.327 301.1 185.899 301.248 185.555 301.544ZM192.293 305V298.4H190.493V297.56H191.933C192.173 297.56 192.293 297.44 192.293 297.2V296.6H193.253V305H192.293ZM197.519 302V301.16H201.359V302H197.519ZM205.086 302.78H206.046C206.046 303.188 206.206 303.532 206.526 303.812C206.854 304.084 207.294 304.22 207.846 304.22C208.374 304.22 208.806 304.076 209.142 303.788C209.478 303.5 209.646 303.144 209.646 302.72C209.646 302.256 209.482 301.88 209.154 301.592C208.826 301.304 208.39 301.16 207.846 301.16H207.306V300.26H207.846C208.374 300.26 208.786 300.12 209.082 299.84C209.378 299.56 209.526 299.208 209.526 298.784C209.526 298.4 209.37 298.072 209.058 297.8C208.746 297.52 208.342 297.38 207.846 297.38C207.374 297.38 206.974 297.52 206.646 297.8C206.326 298.072 206.166 298.392 206.166 298.76H205.206C205.206 298.144 205.454 297.612 205.95 297.164C206.446 296.708 207.078 296.48 207.846 296.48C208.622 296.48 209.254 296.704 209.742 297.152C210.238 297.592 210.486 298.144 210.486 298.808C210.486 299.392 210.266 299.88 209.826 300.272C209.626 300.448 209.406 300.584 209.166 300.68V300.74C209.446 300.844 209.686 300.988 209.886 301.172C210.366 301.588 210.606 302.104 210.606 302.72C210.606 303.384 210.346 303.952 209.826 304.424C209.306 304.888 208.646 305.12 207.846 305.12C207.022 305.12 206.354 304.892 205.842 304.436C205.338 303.98 205.086 303.428 205.086 302.78ZM212.224 300.68L214.864 296.6H215.944L213.964 299.72H214.024L214.252 299.66C214.412 299.62 214.596 299.6 214.804 299.6C215.564 299.6 216.204 299.856 216.724 300.368C217.244 300.88 217.504 301.524 217.504 302.3C217.504 303.084 217.224 303.752 216.664 304.304C216.112 304.848 215.432 305.12 214.624 305.12C213.816 305.12 213.132 304.848 212.572 304.304C212.02 303.752 211.744 303.084 211.744 302.3C211.744 301.716 211.904 301.176 212.224 300.68ZM213.256 303.668C213.624 304.036 214.08 304.22 214.624 304.22C215.168 304.22 215.624 304.036 215.992 303.668C216.36 303.292 216.544 302.836 216.544 302.3C216.544 301.764 216.36 301.312 215.992 300.944C215.624 300.568 215.168 300.38 214.624 300.38C214.08 300.38 213.624 300.568 213.256 300.944C212.888 301.312 212.704 301.764 212.704 302.3C212.704 302.836 212.888 303.292 213.256 303.668ZM219.575 303.98C218.951 303.22 218.639 302.16 218.639 300.8C218.639 299.44 218.951 298.38 219.575 297.62C220.199 296.86 220.967 296.48 221.879 296.48C222.791 296.48 223.559 296.86 224.183 297.62C224.807 298.38 225.119 299.44 225.119 300.8C225.119 302.16 224.807 303.22 224.183 303.98C223.559 304.74 222.791 305.12 221.879 305.12C220.967 305.12 220.199 304.74 219.575 303.98ZM223.499 298.28C223.059 297.68 222.519 297.38 221.879 297.38C221.239 297.38 220.699 297.68 220.259 298.28C219.819 298.88 219.599 299.72 219.599 300.8C219.599 301.88 219.819 302.72 220.259 303.32C220.699 303.92 221.239 304.22 221.879 304.22C222.519 304.22 223.059 303.92 223.499 303.32C223.939 302.72 224.159 301.88 224.159 300.8C224.159 299.72 223.939 298.88 223.499 298.28ZM229.509 305V296.6H232.329C233.497 296.6 234.457 296.996 235.209 297.788C235.969 298.572 236.349 299.576 236.349 300.8C236.349 302.024 235.969 303.032 235.209 303.824C234.457 304.608 233.497 305 232.329 305H229.509ZM230.469 304.1H232.329C233.209 304.1 233.937 303.796 234.513 303.188C235.097 302.572 235.389 301.776 235.389 300.8C235.389 299.824 235.097 299.032 234.513 298.424C233.937 297.808 233.209 297.5 232.329 297.5H230.469V304.1ZM241.691 305L241.571 304.28H241.511C241.399 304.44 241.255 304.58 241.079 304.7C240.711 304.98 240.235 305.12 239.651 305.12C239.027 305.12 238.519 304.948 238.127 304.604C237.743 304.26 237.551 303.812 237.551 303.26C237.551 302.66 237.747 302.192 238.139 301.856C238.539 301.512 239.143 301.34 239.951 301.34H241.571V301.16C241.571 300.704 241.443 300.352 241.187 300.104C240.939 299.848 240.587 299.72 240.131 299.72C239.699 299.72 239.347 299.82 239.075 300.02C238.811 300.212 238.663 300.452 238.631 300.74H237.731C237.763 300.228 237.991 299.792 238.415 299.432C238.847 299.064 239.419 298.88 240.131 298.88C240.859 298.88 241.431 299.08 241.847 299.48C242.263 299.88 242.471 300.44 242.471 301.16V305H241.691ZM241.571 302.42V302.18H239.951C239.439 302.18 239.059 302.28 238.811 302.48C238.571 302.68 238.451 302.94 238.451 303.26C238.451 303.572 238.555 303.82 238.763 304.004C238.971 304.188 239.267 304.28 239.651 304.28C240.251 304.28 240.719 304.116 241.055 303.788C241.399 303.452 241.571 302.996 241.571 302.42ZM243.86 307.4V306.56H245C245.2 306.56 245.34 306.44 245.42 306.2L245.66 305.48L243.2 299H244.16L246.02 303.98H246.26L247.94 299H248.9L246.2 306.56C246.096 306.856 245.96 307.068 245.792 307.196C245.624 307.332 245.38 307.4 245.06 307.4H243.86ZM249.381 303.26H250.281C250.281 303.54 250.413 303.78 250.677 303.98C250.949 304.18 251.317 304.28 251.781 304.28C252.237 304.28 252.589 304.196 252.837 304.028C253.093 303.852 253.221 303.636 253.221 303.38C253.221 302.908 252.881 302.608 252.201 302.48L251.181 302.3C250.061 302.116 249.501 301.556 249.501 300.62C249.501 300.116 249.693 299.7 250.077 299.372C250.461 299.044 251.009 298.88 251.721 298.88C252.417 298.88 252.981 299.064 253.413 299.432C253.845 299.8 254.061 300.236 254.061 300.74H253.161C253.161 300.46 253.029 300.22 252.765 300.02C252.509 299.82 252.161 299.72 251.721 299.72C251.289 299.72 250.961 299.808 250.737 299.984C250.513 300.152 250.401 300.364 250.401 300.62C250.401 301.06 250.721 301.34 251.361 301.46L252.381 301.64C252.981 301.752 253.421 301.952 253.701 302.24C253.981 302.52 254.121 302.9 254.121 303.38C254.121 303.884 253.917 304.3 253.509 304.628C253.109 304.956 252.533 305.12 251.781 305.12C251.061 305.12 250.481 304.936 250.041 304.568C249.601 304.2 249.381 303.764 249.381 303.26Z" fill="white"/>
<circle cx="271" cy="301" r="4" fill="#E76E50"/>
<path d="M286.107 305L289.287 296.6H290.727L293.907 305H292.887L292.107 302.84H287.907L287.127 305H286.107ZM288.267 301.94H291.747L290.127 297.62H289.887L288.267 301.94ZM294.812 305V296.6H295.712V299.84H295.772C296.276 299.2 296.916 298.88 297.692 298.88C298.484 298.88 299.14 299.172 299.66 299.756C300.188 300.332 300.452 301.08 300.452 302C300.452 302.92 300.188 303.672 299.66 304.256C299.14 304.832 298.484 305.12 297.692 305.12C296.916 305.12 296.276 304.8 295.772 304.16H295.712L295.592 305H294.812ZM296.276 303.644C296.652 304.068 297.104 304.28 297.632 304.28C298.16 304.28 298.612 304.068 298.988 303.644C299.364 303.22 299.552 302.672 299.552 302C299.552 301.328 299.364 300.78 298.988 300.356C298.612 299.932 298.16 299.72 297.632 299.72C297.104 299.72 296.652 299.932 296.276 300.356C295.9 300.78 295.712 301.328 295.712 302C295.712 302.672 295.9 303.22 296.276 303.644ZM306.344 304.256C305.8 304.832 305.116 305.12 304.292 305.12C303.468 305.12 302.78 304.832 302.228 304.256C301.684 303.672 301.412 302.92 301.412 302C301.412 301.08 301.684 300.332 302.228 299.756C302.78 299.172 303.468 298.88 304.292 298.88C305.116 298.88 305.8 299.172 306.344 299.756C306.896 300.332 307.172 301.08 307.172 302C307.172 302.92 306.896 303.672 306.344 304.256ZM302.876 303.644C303.26 304.068 303.732 304.28 304.292 304.28C304.852 304.28 305.32 304.068 305.696 303.644C306.08 303.22 306.272 302.672 306.272 302C306.272 301.328 306.08 300.78 305.696 300.356C305.32 299.932 304.852 299.72 304.292 299.72C303.732 299.72 303.26 299.932 302.876 300.356C302.5 300.78 302.312 301.328 302.312 302C302.312 302.672 302.5 303.22 302.876 303.644ZM309.809 305L307.649 299H308.609L310.409 304.04H310.649L312.449 299H313.409L311.249 305H309.809ZM318.392 303.32H319.352C319.144 303.896 318.816 304.34 318.368 304.652C317.928 304.964 317.396 305.12 316.772 305.12C315.948 305.12 315.26 304.832 314.708 304.256C314.164 303.672 313.892 302.92 313.892 302C313.892 301.08 314.164 300.332 314.708 299.756C315.26 299.172 315.948 298.88 316.772 298.88C317.564 298.88 318.22 299.152 318.74 299.696C319.268 300.24 319.532 300.928 319.532 301.76C319.532 301.888 319.52 302.06 319.496 302.276L319.472 302.42H314.792C314.856 302.98 315.072 303.432 315.44 303.776C315.816 304.112 316.26 304.28 316.772 304.28C317.132 304.28 317.452 304.196 317.732 304.028C318.02 303.86 318.24 303.624 318.392 303.32ZM314.792 301.58H318.632C318.6 301.036 318.408 300.592 318.056 300.248C317.712 299.896 317.284 299.72 316.772 299.72C316.236 299.72 315.788 299.892 315.428 300.236C315.068 300.58 314.856 301.028 314.792 301.58ZM323.195 302.78H324.155C324.155 303.188 324.315 303.532 324.635 303.812C324.963 304.084 325.403 304.22 325.955 304.22C326.483 304.22 326.915 304.076 327.251 303.788C327.587 303.5 327.755 303.144 327.755 302.72C327.755 302.256 327.591 301.88 327.263 301.592C326.935 301.304 326.499 301.16 325.955 301.16H325.415V300.26H325.955C326.483 300.26 326.895 300.12 327.191 299.84C327.487 299.56 327.635 299.208 327.635 298.784C327.635 298.4 327.479 298.072 327.167 297.8C326.855 297.52 326.451 297.38 325.955 297.38C325.483 297.38 325.083 297.52 324.755 297.8C324.435 298.072 324.275 298.392 324.275 298.76H323.315C323.315 298.144 323.563 297.612 324.059 297.164C324.555 296.708 325.187 296.48 325.955 296.48C326.731 296.48 327.363 296.704 327.851 297.152C328.347 297.592 328.595 298.144 328.595 298.808C328.595 299.392 328.375 299.88 327.935 300.272C327.735 300.448 327.515 300.584 327.275 300.68V300.74C327.555 300.844 327.795 300.988 327.995 301.172C328.475 301.588 328.715 302.104 328.715 302.72C328.715 303.384 328.455 303.952 327.935 304.424C327.415 304.888 326.755 305.12 325.955 305.12C325.131 305.12 324.463 304.892 323.951 304.436C323.447 303.98 323.195 303.428 323.195 302.78ZM330.333 300.68L332.973 296.6H334.053L332.073 299.72H332.133L332.361 299.66C332.521 299.62 332.705 299.6 332.913 299.6C333.673 299.6 334.313 299.856 334.833 300.368C335.353 300.88 335.613 301.524 335.613 302.3C335.613 303.084 335.333 303.752 334.773 304.304C334.221 304.848 333.541 305.12 332.733 305.12C331.925 305.12 331.241 304.848 330.681 304.304C330.129 303.752 329.853 303.084 329.853 302.3C329.853 301.716 330.013 301.176 330.333 300.68ZM331.365 303.668C331.733 304.036 332.189 304.22 332.733 304.22C333.277 304.22 333.733 304.036 334.101 303.668C334.469 303.292 334.653 302.836 334.653 302.3C334.653 301.764 334.469 301.312 334.101 300.944C333.733 300.568 333.277 300.38 332.733 300.38C332.189 300.38 331.733 300.568 331.365 300.944C330.997 301.312 330.813 301.764 330.813 302.3C330.813 302.836 330.997 303.292 331.365 303.668ZM337.684 303.98C337.06 303.22 336.748 302.16 336.748 300.8C336.748 299.44 337.06 298.38 337.684 297.62C338.308 296.86 339.076 296.48 339.988 296.48C340.9 296.48 341.668 296.86 342.292 297.62C342.916 298.38 343.228 299.44 343.228 300.8C343.228 302.16 342.916 303.22 342.292 303.98C341.668 304.74 340.9 305.12 339.988 305.12C339.076 305.12 338.308 304.74 337.684 303.98ZM341.608 298.28C341.168 297.68 340.628 297.38 339.988 297.38C339.348 297.38 338.808 297.68 338.368 298.28C337.928 298.88 337.708 299.72 337.708 300.8C337.708 301.88 337.928 302.72 338.368 303.32C338.808 303.92 339.348 304.22 339.988 304.22C340.628 304.22 341.168 303.92 341.608 303.32C342.048 302.72 342.268 301.88 342.268 300.8C342.268 299.72 342.048 298.88 341.608 298.28Z" fill="white"/>
</g>
<defs>
<filter id="filter0_ddd_3550_100836" x="0" y="0" width="422" height="333" filterUnits="userSpaceOnUse" color-interpolation-filters="sRGB">
<feFlood flood-opacity="0" result="BackgroundImageFix"/>
<feColorMatrix in="SourceAlpha" type="matrix" values="0 0 0 0 0 0 0 0 0 0 0 0 0 0 0 0 0 0 127 0" result="hardAlpha"/>
<feMorphology radius="1" operator="dilate" in="SourceAlpha" result="effect1_dropShadow_3550_100836"/>
<feOffset/>
<feComposite in2="hardAlpha" operator="out"/>
<feColorMatrix type="matrix" values="0 0 0 0 0.0627451 0 0 0 0 0.0980392 0 0 0 0 0.156863 0 0 0 0.05 0"/>
<feBlend mode="normal" in2="BackgroundImageFix" result="effect1_dropShadow_3550_100836"/>
<feColorMatrix in="SourceAlpha" type="matrix" values="0 0 0 0 0 0 0 0 0 0 0 0 0 0 0 0 0 0 127 0" result="hardAlpha"/>
<feOffset dy="2"/>
<feGaussianBlur stdDeviation="3.5"/>
<feComposite in2="hardAlpha" operator="out"/>
<feColorMatrix type="matrix" values="0 0 0 0 0.0627451 0 0 0 0 0.0980392 0 0 0 0 0.156863 0 0 0 0.05 0"/>
<feBlend mode="normal" in2="effect1_dropShadow_3550_100836" result="effect2_dropShadow_3550_100836"/>
<feColorMatrix in="SourceAlpha" type="matrix" values="0 0 0 0 0 0 0 0 0 0 0 0 0 0 0 0 0 0 127 0" result="hardAlpha"/>
<feMorphology radius="2" operator="erode" in="SourceAlpha" result="effect3_dropShadow_3550_100836"/>
<feOffset dy="2"/>
<feGaussianBlur stdDeviation="2.5"/>
<feComposite in2="hardAlpha" operator="out"/>
<feColorMatrix type="matrix" values="0 0 0 0 0.0627451 0 0 0 0 0.0980392 0 0 0 0 0.156863 0 0 0 0.06 0"/>
<feBlend mode="normal" in2="effect2_dropShadow_3550_100836" result="effect3_dropShadow_3550_100836"/>
<feBlend mode="normal" in="SourceGraphic" in2="effect3_dropShadow_3550_100836" result="shape"/>
</filter>
<linearGradient id="paint0_linear_3550_100836" x1="-93.5833" y1="-118.949" x2="510.775" y2="180.508" gradientUnits="userSpaceOnUse">
<stop stop-color="white"/>
<stop offset="1" stop-color="white" stop-opacity="0"/>
</linearGradient>
<linearGradient id="paint1_linear_3550_100836" x1="-446.333" y1="-348.59" x2="521.695" y2="54.0002" gradientUnits="userSpaceOnUse">
<stop stop-color="white"/>
<stop offset="1" stop-color="white" stop-opacity="0"/>
</linearGradient>
</defs>
</svg>
