<svg width="48" height="48" viewBox="0 0 48 48" fill="none" xmlns="http://www.w3.org/2000/svg">
<path d="M40 3H8C5.239 3 3 5.239 3 8V40C3 42.761 5.239 45 8 45H40C42.761 45 45 42.761 45 40V8C45 5.239 42.761 3 40 3ZM40 25H33.618L28.9 34.447C28.654 34.941 28.053 35.142 27.559 34.896C27.365 34.799 27.207 34.642 27.11 34.447L18.11 16.439L14.937 24.371C14.784 24.754 14.412 25.003 14 25H8C7.448 25 7 24.552 7 24C7 23.448 7.448 23 8 23H13.323L17.071 13.629C17.217 13.263 17.564 13.017 17.958 13C18.354 12.972 18.727 13.192 18.895 13.552L28 31.764L32.1 23.553C32.27 23.212 32.619 22.998 33 23H40C40.552 23 41 23.448 41 24C41 24.552 40.552 25 40 25Z" fill="white"/>
</svg>
