<svg width="48" height="48" viewBox="0 0 48 48" fill="none" xmlns="http://www.w3.org/2000/svg">
<rect width="48" height="48" rx="4" fill="white" fill-opacity="0.1"/>
<path d="M28.889 40.0002C29.6254 40.0002 30.2223 39.4032 30.2223 38.6668C30.2223 37.9304 29.6254 37.3335 28.889 37.3335C28.1526 37.3335 27.5557 37.9304 27.5557 38.6668C27.5557 39.4032 28.1526 40.0002 28.889 40.0002Z" fill="white"/>
<path d="M35.5326 17.6481L28.5743 10.6898C27.9859 10.1014 27.2054 9.77783 26.3752 9.77783H16.4446C13.7477 9.77783 11.5557 11.9698 11.5557 14.6667V33.3334C11.5557 36.0303 13.7477 38.2223 16.4446 38.2223H24.9334C24.9974 37.6587 25.1717 37.1343 25.4454 36.6667C25.1006 36.0765 24.889 35.3992 24.889 34.6667V29.7778C24.889 27.5716 26.6828 25.7778 28.889 25.7778C31.0952 25.7778 32.889 27.5716 32.889 29.7778V34.6667C32.889 35.3992 32.6774 36.0765 32.3326 36.6667C32.5743 37.0827 32.745 37.5414 32.825 38.0338C34.9032 37.4703 36.4446 35.5876 36.4446 33.3334V19.8472C36.4446 19.0169 36.121 18.2347 35.5326 17.6481ZM18.2223 18.6667H21.7779C22.5139 18.6667 23.1112 19.2641 23.1112 20.0001C23.1112 20.7361 22.5139 21.3334 21.7779 21.3334H18.2223C17.4863 21.3334 16.889 20.7361 16.889 20.0001C16.889 19.2641 17.4863 18.6667 18.2223 18.6667ZM24.4446 26.6667H18.2223C17.4863 26.6667 16.889 26.0694 16.889 25.3334C16.889 24.5974 17.4863 24.0001 18.2223 24.0001H24.4446C25.1806 24.0001 25.7779 24.5974 25.7779 25.3334C25.7779 26.0694 25.1806 26.6667 24.4446 26.6667ZM33.657 19.5556H28.4446C27.4668 19.5556 26.6668 18.7556 26.6668 17.7778V12.5849C26.6828 12.5778 26.6739 12.5832 26.6899 12.5761L33.6623 19.5467C33.6623 19.5467 33.6588 19.5521 33.657 19.5556Z" fill="white"/>
<path d="M28.889 28.4443C28.153 28.4443 27.5557 29.0417 27.5557 29.7777V34.6666C27.5557 35.4026 28.153 35.9999 28.889 35.9999C29.625 35.9999 30.2223 35.4026 30.2223 34.6666V29.7777C30.2223 29.0417 29.625 28.4443 28.889 28.4443Z" fill="white"/>
</svg>
