<svg width="42" height="42" viewBox="0 0 42 42" fill="none" xmlns="http://www.w3.org/2000/svg">
<path d="M16.5 3C9.04416 3 3 9.04416 3 16.5C3 18.1083 3.28125 19.6509 3.79725 21.0815L12.4258 12.4529L13.4733 11.3522L21 18.8787L39 0.878685L41.1213 3L32.3206 11.8006C32.763 13.2917 33 14.8695 33 16.5002C33 25.6128 25.6126 33.0002 16.5 33.0002C15.1672 33.0002 13.8715 32.8421 12.6306 32.5439C8.15638 31.4687 4.3918 28.5704 2.16645 24.6788L1.64611 23.7794L1.674 23.75C0.60189 21.5618 0 19.1012 0 16.5C0 7.38731 7.3873 0 16.5 0C20.6835 0 24.5067 1.55895 27.4144 4.12539L28.539 5.11799L26.5539 7.36721L25.4292 6.37461C23.0485 4.27334 19.9248 3 16.5 3Z" fill="white"/>
<path d="M33.0998 26.7371C31.5032 29.3205 29.3204 31.5035 26.7368 33.1001L34.3183 40.6815C35.1958 41.559 36.3478 41.997 37.4998 41.997C38.6518 41.997 39.8038 41.559 40.6813 40.6815C41.5303 39.831 41.9998 38.7015 41.9998 37.4985C41.9998 36.2955 41.5303 35.1675 40.6813 34.3185L33.0998 26.7371Z" fill="white"/>
</svg>
