<svg width="32" height="48" viewBox="0 0 32 48" fill="none" xmlns="http://www.w3.org/2000/svg">
<path d="M28.1135 26.2227L17 24V15C17 13.3431 15.6569 12 14 12C12.3431 12 11 13.3431 11 15V32C11 32.5522 10.5522 33 10 33C9.44775 33 9 32.5522 9 32V28H7C5.89545 28 5 28.8954 5 30V38C5 41.5 10 44.0625 10 48H28L31.2584 30.8934C31.6691 28.7374 30.2657 26.6531 28.1135 26.2227Z" fill="white"/>
<path d="M23 14C23 9.0376 18.9624 5 14 5C9.0376 5 5 9.0376 5 14C5 17.0568 6.53326 19.8133 9 21.4604V15C9 12.2432 11.2432 10 14 10C16.7568 10 19 12.2432 19 15V21.4607C21.4668 19.8137 23 17.0568 23 14Z" fill="white"/>
<path d="M7 26H9V24.9081C4.78796 22.991 2 18.7889 2 14C2 7.3833 7.3833 2 14 2C20.6167 2 26 7.3833 26 14C26 17.4436 24.5267 20.6727 21.9641 22.9533L24.3282 23.4261C26.6724 20.8623 28 17.5278 28 14C28 6.28027 21.7197 0 14 0C6.28027 0 0 6.28027 0 14C0 19.0571 2.66791 23.551 6.81769 26.0184C6.87946 26.0156 6.93756 26 7 26Z" fill="white"/>
</svg>
