<svg width="48" height="48" viewBox="0 0 48 48" fill="none" xmlns="http://www.w3.org/2000/svg">
<path d="M31.3327 14.6673C30.2287 14.6673 29.3327 13.7713 29.3327 12.6673V6.00065C29.3327 5.63265 29.034 5.33398 28.666 5.33398H19.3327C18.9647 5.33398 18.666 5.63265 18.666 6.00065V12.6673C18.666 13.7713 17.77 14.6673 16.666 14.6673C15.562 14.6673 14.666 13.7713 14.666 12.6673V6.00065C14.666 3.42732 16.7593 1.33398 19.3327 1.33398H28.666C31.2393 1.33398 33.3327 3.42732 33.3327 6.00065V12.6673C33.3327 13.7713 32.4367 14.6673 31.3327 14.6673Z" fill="white"/>
<path d="M37.9994 10.668H9.99935C5.95402 10.668 2.66602 13.956 2.66602 18.0013V35.3346C2.66602 39.38 5.95402 42.668 9.99935 42.668H29.3327V31.3346C29.3327 28.0253 32.0233 25.3346 35.3327 25.3346C38.642 25.3346 41.3327 28.0253 41.3327 31.3346V41.8306C43.6954 40.612 45.3327 38.1746 45.3327 35.3346V18.0013C45.3327 13.956 42.0447 10.668 37.9994 10.668Z" fill="white"/>
<path d="M35.332 29.334C34.228 29.334 33.332 30.23 33.332 31.334V38.6673C33.332 39.7713 34.228 40.6673 35.332 40.6673C36.436 40.6673 37.332 39.7713 37.332 38.6673V31.334C37.332 30.23 36.436 29.334 35.332 29.334Z" fill="white"/>
<path d="M35.332 46.668C36.4366 46.668 37.332 45.7725 37.332 44.668C37.332 43.5634 36.4366 42.668 35.332 42.668C34.2275 42.668 33.332 43.5634 33.332 44.668C33.332 45.7725 34.2275 46.668 35.332 46.668Z" fill="white"/>
</svg>
