<svg width="48" height="48" viewBox="0 0 48 48" fill="none" xmlns="http://www.w3.org/2000/svg">
<rect width="48" height="48" rx="4" fill="white" fill-opacity="0.1"/>
<path fill-rule="evenodd" clip-rule="evenodd" d="M23 13.3052C18.6103 11.3374 13.7693 11.5948 9.4976 14.0768L9 14.366V36.7375L10.5024 35.8645C14.4816 33.5524 18.9795 33.4603 23 35.5883V13.3052ZM12.7758 18.9277C14.9077 18.4356 17.0928 18.4355 19.2247 18.9277L20.1991 19.1527L19.7492 21.1014L18.7748 20.8765C16.9389 20.4526 15.0616 20.4526 13.2257 20.8765L12.2513 21.1014L11.8014 19.1527L12.7758 18.9277ZM19.2256 25.9279C17.0931 25.4355 14.9075 25.4355 12.775 25.9279L11.8006 26.1529L12.2506 28.1016L13.225 27.8766C15.0614 27.4526 16.9392 27.4526 18.7756 27.8766L19.7499 28.1017L20.1999 26.1529L19.2256 25.9279Z" fill="white"/>
<path fill-rule="evenodd" clip-rule="evenodd" d="M25 35.5884C29.0205 33.4604 33.5184 33.5525 37.4976 35.8646L39 36.7376V14.3659L38.5024 14.0767C34.2306 11.5946 29.3897 11.3375 25 13.3053V35.5884ZM28.775 18.9279C30.9072 18.4355 33.0927 18.4355 35.2249 18.9279L36.1993 19.1528L35.7493 21.1016L34.775 20.8766C32.9388 20.4526 31.0611 20.4526 29.2249 20.8766L28.2506 21.1016L27.8006 19.1528L28.775 18.9279ZM35.2258 25.928C33.093 25.4354 30.907 25.4354 28.7742 25.928L27.7998 26.1531L28.2499 28.1018L29.2243 27.8767C31.0609 27.4525 32.9391 27.4525 34.7757 27.8767L35.7501 28.1018L36.2002 26.1531L35.2258 25.928Z" fill="white"/>
</svg>
