<svg width="48" height="48" viewBox="0 0 48 48" fill="none" xmlns="http://www.w3.org/2000/svg">
<rect width="48" height="48" rx="4" fill="white" fill-opacity="0.1"/>
<g clip-path="url(#clip0_3550_104796)">
<path d="M23.9993 31.8959C24.1849 32.0601 24.3943 32.1991 24.6229 32.3075C25.3436 32.6495 26.1796 32.6509 26.9013 32.3111L37.3327 27.4023V32.8253L23.9993 39.4919L10.666 32.8253V27.4025L21.0973 32.3113C21.8191 32.6509 22.6551 32.6497 23.3757 32.3077C23.6044 32.1993 23.8139 32.0601 23.9993 31.8959Z" fill="white"/>
<path fill-rule="evenodd" clip-rule="evenodd" d="M23.9998 8.50977L37.1114 15.0655L39.607 23.3844L25.7663 29.8977L23.9998 22.8313L22.2333 29.8977L8.39258 23.3844L10.8882 15.0655L23.9998 8.50977ZM24.001 21.842L34.3583 16.6705L23.9998 11.4912L13.6247 16.6787L24.001 21.842Z" fill="white"/>
</g>
<defs>
<clipPath id="clip0_3550_104796">
<rect width="32" height="32" fill="white" transform="translate(8 8)"/>
</clipPath>
</defs>
</svg>
