<svg width="48" height="48" viewBox="0 0 48 48" fill="none" xmlns="http://www.w3.org/2000/svg">
<rect width="48" height="48" rx="4" fill="white" fill-opacity="0.1"/>
<path d="M23.9992 28.8817L29.8812 25.9407L24.4462 23.2227C24.3074 23.1533 24.1544 23.1172 23.9992 23.1172C23.844 23.1172 23.691 23.1533 23.5522 23.2227L18.1172 25.9407L23.9992 28.8817Z" fill="white"/>
<path d="M25 30.6191V38.0011L30.447 35.2771C30.6131 35.1941 30.7528 35.0666 30.8504 34.9087C30.9481 34.7508 30.9999 34.5688 31 34.3831V27.6191L25 30.6191Z" fill="white"/>
<path d="M23 30.6191L17 27.6191V34.3831C17.0001 34.5688 17.0519 34.7508 17.1496 34.9087C17.2472 35.0666 17.3869 35.1941 17.553 35.2771L23 38.0011V30.6191Z" fill="white"/>
<path d="M15.9992 15.1453L21.8812 12.2003L16.4462 9.48633C16.3074 9.41697 16.1544 9.38086 15.9992 9.38086C15.844 9.38086 15.691 9.41697 15.5522 9.48633L10.1172 12.2003L15.9992 15.1453Z" fill="white"/>
<path d="M17 16.8809V24.2629L22.447 21.5389C22.6131 21.4559 22.7528 21.3283 22.8504 21.1704C22.9481 21.0125 22.9999 20.8305 23 20.6449V13.8809L17 16.8809Z" fill="white"/>
<path d="M15 16.8809L9 13.8809V20.6449C9.0001 20.8305 9.05188 21.0125 9.14955 21.1704C9.24722 21.3283 9.38692 21.4559 9.553 21.5389L15 24.2629V16.8809Z" fill="white"/>
<path d="M31.9992 15.1453L37.8812 12.2003L32.4462 9.48633C32.3074 9.41697 32.1544 9.38086 31.9992 9.38086C31.844 9.38086 31.691 9.41697 31.5522 9.48633L26.1172 12.2003L31.9992 15.1453Z" fill="white"/>
<path d="M33 16.8809V24.2629L38.447 21.5389C38.6131 21.4559 38.7528 21.3283 38.8504 21.1704C38.9481 21.0125 38.9999 20.8305 39 20.6449V13.8809L33 16.8809Z" fill="white"/>
<path d="M31 16.8809L25 13.8809V20.6449C25.0001 20.8305 25.0519 21.0125 25.1496 21.1704C25.2472 21.3283 25.3869 21.4559 25.553 21.5389L31 24.2629V16.8809Z" fill="white"/>
</svg>
