<svg width="48" height="48" viewBox="0 0 48 48" fill="none" xmlns="http://www.w3.org/2000/svg">
<rect width="48" height="48" rx="4" fill="white" fill-opacity="0.1"/>
<g clip-path="url(#clip0_2207_12631)">
<path d="M32.444 20.444C30.8778 20.444 29.4467 19.5231 28.8013 18.0973C28.1542 16.6698 28.4031 14.9862 29.436 13.8093L30.364 12.748C29.564 12.2591 28.9685 11.4858 28.668 10.5809C27.2031 10.0689 25.6369 9.77734 24.0013 9.77734C16.1578 9.77734 9.77734 16.1578 9.77734 23.9996C9.77734 31.8413 16.1578 38.2218 23.9996 38.2218C31.8413 38.2218 38.2218 31.8413 38.2218 23.9996C38.2218 22.7693 38.0493 21.5836 37.7542 20.444H32.444ZM30.8742 28.7587C30.6147 29.132 30.2005 29.3329 29.7773 29.3329C29.516 29.3329 29.2511 29.2565 29.02 29.0965L23.2422 25.0965C22.8813 24.8476 22.668 24.4369 22.668 23.9996V16.444C22.668 15.708 23.2653 15.1107 24.0013 15.1107C24.7373 15.1107 25.3347 15.708 25.3347 16.444V23.3009L30.5382 26.9027C31.1445 27.3222 31.2956 28.1525 30.876 28.7569L30.8742 28.7587Z" fill="white"/>
<path d="M38.6663 17.7778H32.4441C31.9214 17.7778 31.445 17.472 31.2299 16.9956C31.0148 16.5191 31.0965 15.9591 31.4414 15.5662L35.7294 10.6667H32.4459C31.7099 10.6667 31.1125 10.0693 31.1125 9.33333C31.1125 8.59733 31.7099 8 32.4459 8H38.6681C39.1908 8 39.6672 8.30578 39.8823 8.78222C40.0974 9.25867 40.0157 9.81867 39.6708 10.2116L35.3828 15.1111H38.6663C39.4023 15.1111 39.9997 15.7084 39.9997 16.4444C39.9997 17.1804 39.4023 17.7778 38.6663 17.7778Z" fill="white"/>
</g>
<defs>
<clipPath id="clip0_2207_12631">
<rect width="32" height="32" fill="white" transform="translate(8 8)"/>
</clipPath>
</defs>
</svg>
