<svg width="41" height="40" viewBox="0 0 41 40" fill="none" xmlns="http://www.w3.org/2000/svg">
<rect x="0.666016" width="40" height="40" rx="4" fill="white" fill-opacity="0.1"/>
<path fill-rule="evenodd" clip-rule="evenodd" d="M26.666 11.75C26.666 10.9216 25.9945 10.25 25.166 10.25H16.166C15.3376 10.25 14.666 10.9216 14.666 11.75V28.25C14.666 29.0785 15.3376 29.75 16.166 29.75H25.166C25.9945 29.75 26.666 29.0785 26.666 28.25V11.75ZM25.166 8.75C26.8228 8.75 28.166 10.0931 28.166 11.75V28.25C28.166 29.9068 26.8228 31.25 25.166 31.25H16.166C14.5092 31.25 13.166 29.9068 13.166 28.25V11.75C13.166 10.0931 14.5092 8.75 16.166 8.75L25.166 8.75Z" fill="white"/>
<path fill-rule="evenodd" clip-rule="evenodd" d="M19.3535 11.75H21.9785C22.4963 11.75 22.916 12.1697 22.916 12.6875C22.916 13.2053 22.4963 13.625 21.9785 13.625H19.3535C18.8357 13.625 18.416 13.2053 18.416 12.6875C18.416 12.1697 18.8357 11.75 19.3535 11.75Z" fill="white"/>
<path d="M18.666 20.7988H22.666" stroke="white" stroke-linecap="round" stroke-linejoin="round"/>
<path d="M19.466 19.1992H19.866C20.7497 19.1992 21.466 19.9156 21.466 20.7992C21.466 21.6829 20.7497 22.3992 19.866 22.3992H18.666L21.226 24.7992" stroke="white" stroke-linecap="round" stroke-linejoin="round"/>
<path d="M18.666 19.1992H22.666" stroke="white" stroke-linecap="round" stroke-linejoin="round"/>
</svg>
