<svg width="48" height="48" viewBox="0 0 48 48" fill="none" xmlns="http://www.w3.org/2000/svg">
<rect width="48" height="48" rx="4" fill="white" fill-opacity="0.1"/>
<path d="M24 36.667H36V39.3337H24V36.667Z" fill="white"/>
<path d="M29.3333 20.6784V10H12V35.3333H22V33.3333H14V12H27.3333V21.291C27.9292 20.9463 28.6084 20.7295 29.3333 20.6784Z" fill="white"/>
<path d="M31.332 22.0003L29.9987 27.3337V22.667C28.4376 22.667 27.0001 23.6243 26.9987 25.3314V27.3337L26.5519 27.8699C25.7637 28.8157 25.332 30.0079 25.332 31.2391C25.332 32.4839 25.7732 33.6885 26.5773 34.6387H33.7039L34.7019 27.8813C34.7876 27.3011 34.7447 26.7092 34.5762 26.1475L32.8603 16.4592C32.7476 15.8225 32.1941 15.3584 31.5474 15.3584H31.332V22.0003Z" fill="white"/>
<path fill-rule="evenodd" clip-rule="evenodd" d="M25.3333 23.5979V15.5294C24.4497 15.5294 23.7333 14.8447 23.7333 14H17.6C17.6 14.8447 16.8837 15.5294 16 15.5294V29.8039C16.8837 29.8039 17.6 30.4887 17.6 31.3333H23.3339C23.3335 31.3019 23.3333 31.2703 23.3333 31.2388C23.3333 29.5485 23.9229 27.9113 25 26.6093V25.3294C25.0005 24.7175 25.1188 24.1333 25.3333 23.5979ZM20.6667 25.3333C22.1394 25.3333 23.3333 24.1394 23.3333 22.6667C23.3333 21.1939 22.1394 20 20.6667 20C19.1939 20 18 21.1939 18 22.6667C18 24.1394 19.1939 25.3333 20.6667 25.3333Z" fill="white"/>
</svg>
