<svg width="24" height="24" viewBox="0 0 24 24" fill="none" xmlns="http://www.w3.org/2000/svg">
<path fill-rule="evenodd" clip-rule="evenodd" d="M12.0009 15.0325L1.87305 9.24512L1.87312 20.6253L3.37598 21.7503L12.0009 22.1253H19.876L22.1289 21.0003V9.24512L12.0009 15.0325Z" fill="white"/>
<path fill-rule="evenodd" clip-rule="evenodd" d="M2.25 8.68545L4.87211 7.18713L4.12789 5.88477L0.75 7.815V9.7503H2.25V8.68545ZM21.75 8.68545L19.1279 7.18713L19.8721 5.88477L23.25 7.815V9.7503H21.75V8.68545Z" fill="white"/>
<path d="M20.25 1.5H3.75V10.3179L5.25 11.1751V3H18.75V11.175L20.25 10.3179V1.5Z" fill="white"/>
<path fill-rule="evenodd" clip-rule="evenodd" d="M2.25 8.25V19.5C2.25 20.3284 2.92157 21 3.75 21H20.25C21.0784 21 21.75 20.3284 21.75 19.5V8.25H23.25V19.5C23.25 21.1568 21.9068 22.5 20.25 22.5H3.75C2.09314 22.5 0.75 21.1568 0.75 19.5V8.25H2.25Z" fill="white"/>
<path fill-rule="evenodd" clip-rule="evenodd" d="M12.75 6.75L7.5 6.75001V5.25001L12.75 5.25V6.75Z" fill="white"/>
<path fill-rule="evenodd" clip-rule="evenodd" d="M16.5 9.75H7.5V8.25H16.5V9.75Z" fill="white"/>
</svg>
