<svg width="48" height="48" viewBox="0 0 48 48" fill="none" xmlns="http://www.w3.org/2000/svg">
<rect width="48" height="48" rx="4" fill="white" fill-opacity="0.1"/>
<path d="M33.6002 24.0008H27.8626L25.1314 21.2696C24.8306 20.9688 24.4242 20.8008 24.0002 20.8008H20.8002C19.917 20.8008 19.2002 21.5176 19.2002 22.4008V32.0008C19.2002 33.7688 20.6322 35.2008 22.4002 35.2008H32.0002C33.7682 35.2008 35.2002 33.7688 35.2002 32.0008V25.6008C35.2002 24.7176 34.4834 24.0008 33.6002 24.0008Z" fill="white" stroke="white" stroke-width="2" stroke-linecap="round" stroke-linejoin="round"/>
<path d="M28.7998 17.6008C28.7998 16.7176 28.083 16.0008 27.1998 16.0008H21.4622L18.731 13.2696C18.4302 12.9688 18.0238 12.8008 17.5998 12.8008H14.3998C13.5166 12.8008 12.7998 13.5176 12.7998 14.4008V24.0008C12.7998 25.1848 13.443 26.2184 14.3998 26.772" stroke="white" stroke-width="2" stroke-linecap="round" stroke-linejoin="round"/>
</svg>
