<svg width="48" height="48" viewBox="0 0 48 48" fill="none" xmlns="http://www.w3.org/2000/svg">
<rect width="48" height="48" rx="4" fill="white" fill-opacity="0.1"/>
<path d="M13 11C10.7909 11 9 12.7909 9 15V33C9 35.2091 10.7909 37 13 37H18V35H13C11.8954 35 11 34.1046 11 33V18H37V33C37 34.1046 36.1046 35 35 35H30V37H35C37.2091 37 39 35.2091 39 33V15C39 12.7909 37.2091 11 35 11H13Z" fill="white"/>
<path fill-rule="evenodd" clip-rule="evenodd" d="M25 37.0001V23H23V37.0001H25Z" fill="white"/>
<path fill-rule="evenodd" clip-rule="evenodd" d="M18.0002 30.4141L24.0001 24.4141L30.0001 30.4141L31.4143 28.9999L24.0001 21.5857L16.5859 28.9999L18.0002 30.4141Z" fill="white"/>
</svg>
