<svg width="48" height="48" viewBox="0 0 48 48" fill="none" xmlns="http://www.w3.org/2000/svg">
<rect width="48" height="48" rx="4" fill="white" fill-opacity="0.1"/>
<path fill-rule="evenodd" clip-rule="evenodd" d="M22.7712 9.33398C21.7104 9.33398 20.693 9.75541 19.9428 10.5056L13.1716 17.2768C12.4214 18.0269 12 19.0444 12 20.1052V34.6673C12 36.8765 13.7909 38.6673 16 38.6673H32C34.2092 38.6673 36 36.8765 36 34.6673V13.334C36 11.1249 34.2092 9.33398 32 9.33398H22.7712ZM22.6667 20.0007H14.6667L22.6667 12.0007V20.0007ZM26.6667 17.334V20.0007H30.6667V17.334H26.6667ZM17.3333 22.6673H30.6667V25.334H17.3333V22.6673ZM17.3333 28.0007V30.6673H30.6667V28.0007H17.3333Z" fill="white"/>
</svg>
