<svg width="48" height="48" viewBox="0 0 48 48" fill="none" xmlns="http://www.w3.org/2000/svg">
<rect width="48" height="48" rx="4" fill="white" fill-opacity="0.1"/>
<path d="M38.1677 22.4045L23.9997 11.2725L9.83171 22.4045L8.5957 20.8325L23.9997 8.72852L39.4037 20.8325L38.1677 22.4045Z" fill="white"/>
<path fill-rule="evenodd" clip-rule="evenodd" d="M12 23.2434L24 13.8145L36 23.2434V33.9994C36 36.2054 34.206 37.9994 32 37.9994H16C13.794 37.9994 12 36.2054 12 33.9994V23.2434ZM20.208 29.3495C21.2418 28.5052 22.5605 27.9995 24 27.9995C25.4395 27.9995 26.7582 28.5052 27.7921 29.3495L28.5666 29.982L29.8317 28.4329L29.0571 27.8004C27.6792 26.6751 25.9172 25.9995 24 25.9995C22.0829 25.9995 20.3208 26.6751 18.9429 27.8004L18.1684 28.4329L19.4334 29.982L20.208 29.3495ZM21.9168 30.5843C22.5242 30.2132 23.2387 29.9995 24 29.9995C24.7613 29.9995 25.4758 30.2132 26.0832 30.5843L27.1672 31.2465L24 34.4137L20.8328 31.2465L21.9168 30.5843ZM17.3983 26.4882C19.1602 24.9383 21.4692 23.9995 24 23.9995C26.5308 23.9995 28.8399 24.9383 30.6017 26.4882L31.3526 27.1486L32.6735 25.647L31.9227 24.9865C29.8098 23.1278 27.0354 21.9995 24 21.9995C20.9646 21.9995 18.1903 23.1278 16.0773 24.9865L15.3265 25.647L16.6475 27.1486L17.3983 26.4882Z" fill="white"/>
</svg>
