<svg width="46" height="32" viewBox="0 0 46 32" fill="none" xmlns="http://www.w3.org/2000/svg">
<path fill-rule="evenodd" clip-rule="evenodd" d="M0 0H46V32H0V0ZM3 3V29H43V3H3Z" fill="white"/>
<path fill-rule="evenodd" clip-rule="evenodd" d="M9 6C9 7.6569 7.65685 9 6 9V23C7.65685 23 9 24.3431 9 26H37C37 24.3431 38.3431 23 40 23V9C38.3431 9 37 7.6569 37 6H9ZM28 16C28 18.7614 25.7614 21 23 21C20.2386 21 18 18.7614 18 16C18 13.2386 20.2386 11 23 11C25.7614 11 28 13.2386 28 16ZM31.5 14.5H36.5V17.5H31.5V14.5ZM9.5 14.5V17.5H14.5V14.5H9.5Z" fill="white"/>
</svg>
