<svg width="48" height="48" viewBox="0 0 48 48" fill="none" xmlns="http://www.w3.org/2000/svg">
<g clip-path="url(#clip0_3012_1464)">
<path d="M33.535 22.501L30.785 22.301C30.6191 21.6322 30.3545 20.9918 30 20.401L31.8 18.318C31.8827 18.2223 31.9261 18.0989 31.9215 17.9726C31.9168 17.8462 31.8645 17.7263 31.775 17.637L30.361 16.223C30.2717 16.1338 30.152 16.0816 30.0259 16.077C29.8998 16.0723 29.7766 16.1156 29.681 16.198L27.6 18.001C27.0092 17.6454 26.3689 17.3795 25.7 17.212L25.5 14.461C25.4899 14.3354 25.4328 14.2183 25.3401 14.133C25.2474 14.0477 25.126 14.0006 25 14.001H23C22.8734 14.0007 22.7514 14.0484 22.6586 14.1345C22.5658 14.2206 22.5091 14.3387 22.5 14.465L22.3 17.216C21.6313 17.3823 20.991 17.6468 20.4 18.001L18.316 16.201C18.2204 16.1186 18.0972 16.0753 17.9711 16.08C17.845 16.0846 17.7253 16.1368 17.636 16.226L16.222 17.64C16.1325 17.7293 16.0802 17.8492 16.0755 17.9756C16.0709 18.1019 16.1143 18.2253 16.197 18.321L18 20.401C17.6441 20.9916 17.3782 21.632 17.211 22.301L14.461 22.501C14.3353 22.5108 14.2179 22.5678 14.1324 22.6605C14.0469 22.7533 13.9996 22.8749 14 23.001V25.001C13.9997 25.1277 14.0475 25.2499 14.1339 25.3427C14.2202 25.4355 14.3386 25.4921 14.465 25.501L17.215 25.701C17.3812 26.3697 17.6458 27.01 18 27.601L16.2 29.685C16.1176 29.7806 16.0743 29.9038 16.079 30.0299C16.0836 30.156 16.1358 30.2757 16.225 30.365L17.639 31.779C17.7283 31.8682 17.848 31.9204 17.9741 31.925C18.1002 31.9296 18.2234 31.8864 18.319 31.804L20.4 30.001C20.9908 30.3566 21.6311 30.6225 22.3 30.79L22.5 33.54C22.5098 33.6657 22.5668 33.7831 22.6596 33.8686C22.7523 33.9541 22.8739 34.0014 23 34.001H25C25.1268 34.0013 25.2489 33.9534 25.3417 33.8671C25.4346 33.7808 25.4911 33.6624 25.5 33.536L25.7 30.786C26.3687 30.6198 27.009 30.3552 27.6 30.001L29.684 31.801C29.7796 31.8834 29.9028 31.9266 30.0289 31.922C30.155 31.9174 30.2747 31.8652 30.364 31.776L31.778 30.362C31.8672 30.2727 31.9194 30.153 31.924 30.0269C31.9287 29.9008 31.8854 29.7776 31.803 29.682L30 27.601C30.3556 27.0102 30.6215 26.3699 30.789 25.701L33.539 25.501C33.6647 25.4911 33.7821 25.4342 33.8676 25.3414C33.9531 25.2487 34.0004 25.1271 34 25.001V23.001C34.0003 22.8742 33.9525 22.7521 33.8661 22.6592C33.7798 22.5664 33.6615 22.5099 33.535 22.501ZM24 27.001C23.4067 27.001 22.8266 26.825 22.3333 26.4954C21.8399 26.1657 21.4554 25.6972 21.2284 25.149C21.0013 24.6009 20.9419 23.9977 21.0576 23.4157C21.1734 22.8338 21.4591 22.2992 21.8787 21.8797C22.2982 21.4601 22.8328 21.1744 23.4147 21.0586C23.9967 20.9429 24.5999 21.0023 25.1481 21.2293C25.6962 21.4564 26.1648 21.8409 26.4944 22.3343C26.8241 22.8276 27 23.4076 27 24.001C27 24.7966 26.6839 25.5597 26.1213 26.1223C25.5587 26.6849 24.7957 27.001 24 27.001Z" fill="white"/>
<path d="M45 5.00082C45.0028 4.25205 44.7953 3.51753 44.4013 2.88083C44.0073 2.24413 43.4424 1.73082 42.771 1.39929C42.0997 1.06776 41.3487 0.931333 40.6036 1.00553C39.8585 1.07972 39.1492 1.36156 38.5564 1.81898C37.9636 2.27639 37.5111 2.89101 37.2504 3.59292C36.9896 4.29482 36.9311 5.05582 37.0815 5.78933C37.2319 6.52284 37.5852 7.1994 38.1011 7.74204C38.6171 8.28469 39.275 8.67162 40 8.85882V13.5868L36.293 17.2938C36.1974 17.3861 36.1213 17.4964 36.0689 17.6184C36.0164 17.7404 35.9889 17.8716 35.9877 18.0044C35.9866 18.1372 36.0119 18.2689 36.0621 18.3918C36.1124 18.5147 36.1867 18.6263 36.2806 18.7202C36.3745 18.8141 36.4861 18.8884 36.609 18.9386C36.7319 18.9889 36.8636 19.0142 36.9964 19.0131C37.1291 19.0119 37.2604 18.9843 37.3824 18.9319C37.5044 18.8795 37.6147 18.8033 37.707 18.7078L41.707 14.7078C41.8945 14.5203 41.9999 14.266 42 14.0008V8.85882C42.8561 8.63777 43.6149 8.13927 44.1577 7.44125C44.7004 6.74323 44.9966 5.88503 45 5.00082Z" fill="white"/>
<path d="M11.707 17.2938L8.00001 13.5868V8.85882C8.94267 8.61543 9.7642 8.03659 10.3106 7.23082C10.857 6.42504 11.0908 5.44764 10.9681 4.48182C10.8455 3.51601 10.3747 2.62809 9.64424 1.9845C8.91374 1.34091 7.97358 0.98584 7.00001 0.98584C6.02644 0.98584 5.08628 1.34091 4.35578 1.9845C3.62527 2.62809 3.15457 3.51601 3.03189 4.48182C2.90922 5.44764 3.143 6.42504 3.68941 7.23082C4.23582 8.03659 5.05735 8.61543 6.00001 8.85882V14.0008C6.00007 14.266 6.10546 14.5203 6.29301 14.7078L10.293 18.7078C10.4816 18.89 10.7342 18.9908 10.9964 18.9885C11.2586 18.9862 11.5094 18.8811 11.6948 18.6956C11.8802 18.5102 11.9854 18.2594 11.9877 17.9972C11.99 17.735 11.8892 17.4824 11.707 17.2938Z" fill="white"/>
<path d="M27 1.00098H21C20.7348 1.00098 20.4804 1.10633 20.2929 1.29387C20.1054 1.48141 20 1.73576 20 2.00098V8.00098C20 8.26619 20.1054 8.52055 20.2929 8.70808C20.4804 8.89562 20.7348 9.00098 21 9.00098H23V11.001C23 11.2662 23.1054 11.5205 23.2929 11.7081C23.4804 11.8956 23.7348 12.001 24 12.001C24.2652 12.001 24.5196 11.8956 24.7071 11.7081C24.8946 11.5205 25 11.2662 25 11.001V9.00098H27C27.2652 9.00098 27.5196 8.89562 27.7071 8.70808C27.8946 8.52055 28 8.26619 28 8.00098V2.00098C28 1.73576 27.8946 1.48141 27.7071 1.29387C27.5196 1.10633 27.2652 1.00098 27 1.00098Z" fill="white"/>
<path d="M44 39.0009H42V34.0009C42 33.7357 41.8946 33.4814 41.707 33.2939L37.707 29.2939C37.5184 29.1117 37.2658 29.0109 37.0036 29.0132C36.7414 29.0155 36.4906 29.1207 36.3052 29.3061C36.1198 29.4915 36.0146 29.7423 36.0124 30.0045C36.0101 30.2667 36.1109 30.5193 36.293 30.7079L40 34.4149V39.0009H38C37.7348 39.0009 37.4805 39.1063 37.2929 39.2938C37.1054 39.4813 37 39.7357 37 40.0009V46.0009C37 46.2661 37.1054 46.5205 37.2929 46.708C37.4805 46.8955 37.7348 47.0009 38 47.0009H44C44.2653 47.0009 44.5196 46.8955 44.7071 46.708C44.8947 46.5205 45 46.2661 45 46.0009V40.0009C45 39.7357 44.8947 39.4813 44.7071 39.2938C44.5196 39.1063 44.2653 39.0009 44 39.0009Z" fill="white"/>
<path d="M11.707 30.7079C11.8892 30.5193 11.99 30.2667 11.9877 30.0045C11.9854 29.7423 11.8802 29.4915 11.6948 29.3061C11.5094 29.1207 11.2586 29.0155 10.9964 29.0132C10.7342 29.0109 10.4816 29.1117 10.293 29.2939L6.293 33.2939C6.10545 33.4814 6.00006 33.7357 6 34.0009V39.0009H4C3.73478 39.0009 3.48043 39.1063 3.29289 39.2938C3.10536 39.4813 3 39.7357 3 40.0009V46.0009C3 46.2661 3.10536 46.5205 3.29289 46.708C3.48043 46.8955 3.73478 47.0009 4 47.0009H10C10.2652 47.0009 10.5196 46.8955 10.7071 46.708C10.8946 46.5205 11 46.2661 11 46.0009V40.0009C11 39.7357 10.8946 39.4813 10.7071 39.2938C10.5196 39.1063 10.2652 39.0009 10 39.0009H8V34.4149L11.707 30.7079Z" fill="white"/>
<path d="M25 39.143V37.001C25 36.7358 24.8947 36.4814 24.7071 36.2939C24.5196 36.1063 24.2652 36.001 24 36.001C23.7348 36.001 23.4804 36.1063 23.2929 36.2939C23.1054 36.4814 23 36.7358 23 37.001V39.143C22.0574 39.3864 21.2358 39.9652 20.6894 40.771C20.143 41.5768 19.9092 42.5542 20.0319 43.52C20.1546 44.4858 20.6253 45.3737 21.3558 46.0173C22.0863 46.6609 23.0264 47.016 24 47.016C24.9736 47.016 25.9137 46.6609 26.6442 46.0173C27.3747 45.3737 27.8455 44.4858 27.9681 43.52C28.0908 42.5542 27.857 41.5768 27.3106 40.771C26.7642 39.9652 25.9427 39.3864 25 39.143Z" fill="white"/>
</g>
<defs>
<clipPath id="clip0_3012_1464">
<rect width="48" height="48" fill="white" transform="translate(0 0.000976562)"/>
</clipPath>
</defs>
</svg>
