<svg width="48" height="48" viewBox="0 0 48 48" fill="none" xmlns="http://www.w3.org/2000/svg">
<rect width="48" height="48" rx="4" fill="white" fill-opacity="0.1"/>
<path d="M38.2223 18.2229C38.2223 15.526 36.0303 13.334 33.3334 13.334H14.6667C11.9698 13.334 9.77783 15.526 9.77783 18.2229V19.5562H38.2223V18.2229Z" fill="white"/>
<path d="M36.4374 23.7869L38.2223 26.6029V22.2207H34.9067C35.497 22.6456 36.0338 23.1487 36.4374 23.7851V23.7869Z" fill="white"/>
<path d="M21.4578 32.0218L26.6738 23.7871C27.0774 23.1507 27.6143 22.6475 28.2045 22.2227H9.77783V29.7782C9.77783 32.4751 11.9698 34.6671 14.6667 34.6671H20.5921C20.6632 33.7427 20.9458 32.8324 21.4578 32.0218ZM14.2223 28.0004C14.2223 27.2644 14.8196 26.6671 15.5556 26.6671H20.8889C21.6249 26.6671 22.2223 27.2644 22.2223 28.0004C22.2223 28.7364 21.6249 29.3338 20.8889 29.3338H15.5556C14.8196 29.3338 14.2223 28.7364 14.2223 28.0004Z" fill="white"/>
<path d="M39.399 33.4456L34.1848 25.2127C33.6105 24.3078 32.6292 23.7656 31.5554 23.7656C30.4816 23.7656 29.5003 24.3078 28.9261 25.2127L23.7119 33.4456C23.1056 34.4038 23.0683 35.6163 23.6141 36.6101C24.1599 37.6038 25.2052 38.2207 26.3394 38.2207H36.7679C37.9021 38.2207 38.9474 37.6038 39.4932 36.6101C40.039 35.6163 40.0034 34.4038 39.3954 33.4456H39.399ZM31.5554 36.4447C30.8194 36.4447 30.2221 35.8474 30.2221 35.1114C30.2221 34.3754 30.8194 33.7781 31.5554 33.7781C32.2914 33.7781 32.8888 34.3754 32.8888 35.1114C32.8888 35.8474 32.2914 36.4447 31.5554 36.4447ZM32.8888 31.1114C32.8888 31.8474 32.2914 32.4447 31.5554 32.4447C30.8194 32.4447 30.2221 31.8474 30.2221 31.1114V28.0003C30.2221 27.2643 30.8194 26.667 31.5554 26.667C32.2914 26.667 32.8888 27.2643 32.8888 28.0003V31.1114Z" fill="white"/>
</svg>
