<svg width="48" height="48" viewBox="0 0 48 48" fill="none" xmlns="http://www.w3.org/2000/svg">
<path fill-rule="evenodd" clip-rule="evenodd" d="M24 1.09326L47.1062 19.2482L45.2528 21.6071L24 4.90851L2.74726 21.6071L0.893799 19.2482L24 1.09326Z" fill="white"/>
<path d="M35.5 31.001C38.2614 31.001 40.5 28.7624 40.5 26.001C40.5 23.2396 38.2614 21.001 35.5 21.001C32.7386 21.001 30.5 23.2396 30.5 26.001C30.5 28.7624 32.7386 31.001 35.5 31.001Z" fill="white"/>
<path d="M12.5 31.001C15.2614 31.001 17.5 28.7624 17.5 26.001C17.5 23.2396 15.2614 21.001 12.5 21.001C9.73858 21.001 7.5 23.2396 7.5 26.001C7.5 28.7624 9.73858 31.001 12.5 31.001Z" fill="white"/>
<path fill-rule="evenodd" clip-rule="evenodd" d="M2.63822 41.3355C3.43181 36.6053 7.54401 33.001 12.5 33.001C17.456 33.001 21.5682 36.6053 22.3618 41.3355L22.5183 42.2686L19.3146 42.9905C14.8278 44.0015 10.1722 44.0015 5.6854 42.9905L2.48169 42.2686L2.63822 41.3355Z" fill="white"/>
<path fill-rule="evenodd" clip-rule="evenodd" d="M25.6199 41.3355C26.4135 36.6053 30.5257 33.001 35.4817 33.001C40.4377 33.001 44.5499 36.6053 45.3435 41.3355L45.5 42.2686L42.2963 42.9905C37.8095 44.0015 33.1539 44.0015 28.6671 42.9905L25.4634 42.2686L25.6199 41.3355Z" fill="white"/>
</svg>
