<svg width="30" height="36" viewBox="0 0 30 36" fill="none" xmlns="http://www.w3.org/2000/svg">
<path d="M15 13.2041C18.3137 13.2041 21 10.5178 21 7.2041C21 3.89039 18.3137 1.2041 15 1.2041C11.6863 1.2041 9 3.89039 9 7.2041C9 10.5178 11.6863 13.2041 15 13.2041Z" fill="white" stroke="white" stroke-width="2" stroke-linecap="round" stroke-linejoin="round"/>
<path d="M26.1941 33.4992C28.4669 32.9688 29.7197 30.372 28.5725 28.3392C25.8989 23.604 20.8277 20.4072 15.0005 20.4072C9.17327 20.4072 4.10207 23.604 1.42847 28.3392C0.281265 30.372 1.53407 32.9688 3.80687 33.4992C11.2709 35.244 18.7325 35.244 26.1965 33.4992H26.1941Z" fill="white" stroke="white" stroke-width="2" stroke-linecap="round" stroke-linejoin="round"/>
</svg>
