<svg width="48" height="48" viewBox="0 0 48 48" fill="none" xmlns="http://www.w3.org/2000/svg">
<path d="M36 34.5C38.8995 34.5 41.25 32.1495 41.25 29.25C41.25 26.3505 38.8995 24 36 24C33.1005 24 30.75 26.3505 30.75 29.25C30.75 32.1495 33.1005 34.5 36 34.5Z" fill="white"/>
<path d="M12 34.5C14.8995 34.5 17.25 32.1495 17.25 29.25C17.25 26.3505 14.8995 24 12 24C9.1005 24 6.75 26.3505 6.75 29.25C6.75 32.1495 9.1005 34.5 12 34.5Z" fill="white"/>
<path d="M46.3419 44.6757L43.0033 45.522C38.4072 46.6872 33.5929 46.6872 28.9966 45.522L25.6582 44.6757C26.5227 39.7461 30.8224 36 36 36C41.1777 36 45.4774 39.7461 46.3419 44.6757Z" fill="white"/>
<path d="M22.1836 44.6757L18.8452 45.522C14.249 46.6872 9.43468 46.6872 4.83847 45.522L1.5 44.6757C2.36443 39.7461 6.6642 36 11.8418 36C17.0194 36 21.3192 39.7461 22.1836 44.6757Z" fill="white"/>
<path d="M27.1237 1.8105C26.4742 0.678 25.3087 0 24.0037 0C22.6987 0 21.5332 0.6765 20.8837 1.8105L12.4793 16.518C11.8358 17.643 11.8403 18.984 12.4928 20.1045C13.1438 21.225 14.3048 21.894 15.5992 21.894H32.4067C33.7012 21.894 34.8637 21.225 35.5132 20.1045C36.1657 18.984 36.1702 17.643 35.5267 16.518L27.1237 1.8105ZM22.5037 6.144H25.5037V12.894H22.5037V6.144ZM24.0037 18.894C22.9687 18.894 22.1287 18.054 22.1287 17.019C22.1287 15.984 22.9687 15.144 24.0037 15.144C25.0387 15.144 25.8787 15.984 25.8787 17.019C25.8787 18.054 25.0387 18.894 24.0037 18.894Z" fill="white"/>
</svg>
