<svg width="48" height="48" viewBox="0 0 48 48" fill="none" xmlns="http://www.w3.org/2000/svg">
<path d="M41 47H7C6.448 47 6 46.552 6 46C6 45.448 6.448 45 7 45H41C41.552 45 42 45.448 42 46C42 46.552 41.552 47 41 47Z" fill="white"/>
<path d="M38 11.999V5H10V11.999C10 18.383 14.607 22.343 17.063 24C14.606 25.656 10 29.615 10 36.001V43H12.393C14.494 38.887 18.788 32 24 32C29.212 32 33.506 38.887 35.607 43H38V36.001C38 29.615 33.393 25.656 30.937 24C33.393 22.343 38 18.383 38 11.999Z" fill="white"/>
<path d="M41 3H7C6.448 3 6 2.552 6 2C6 1.448 6.448 1 7 1H41C41.552 1 42 1.448 42 2C42 2.552 41.552 3 41 3Z" fill="white"/>
</svg>
