<svg width="48" height="48" viewBox="0 0 48 48" fill="none" xmlns="http://www.w3.org/2000/svg">
<g clip-path="url(#clip0_3550_113888)">
<path d="M11.3823 36.6178L17.6358 30.3643C16.0068 28.7353 15.0003 26.4853 15.0003 23.9998C15.0003 19.0288 19.0293 14.9998 24.0003 14.9998C26.4858 14.9998 28.7358 16.0078 30.3648 17.6353L36.6183 11.3818C33.3528 9.14826 29.1918 7.49976 24.0003 7.49976C8.16627 7.49976 1.86777 22.7923 1.60677 23.4418L1.38477 23.9998L1.60677 24.5578C1.78227 24.9943 4.69077 32.0398 11.3823 36.6178Z" fill="white"/>
<path d="M40.1008 14.2634L32.6863 21.6779C32.8843 22.4204 32.9998 23.1959 32.9998 24.0014C32.9998 28.9724 28.9708 33.0014 23.9998 33.0014C23.1958 33.0014 22.4188 32.8859 21.6763 32.6879L15.5098 38.8544C17.9683 39.8654 20.7838 40.5029 23.9983 40.5029C39.8323 40.5029 46.1308 25.2104 46.3918 24.5609L46.6138 24.0029L46.3918 23.4449C46.2508 23.0924 44.3353 18.4499 40.0993 14.2649L40.1008 14.2634Z" fill="white"/>
<path d="M45.0002 0.878413L0.878906 44.9998L3.00023 47.1211L47.1216 2.99973L45.0002 0.878413Z" fill="white"/>
</g>
<defs>
<clipPath id="clip0_3550_113888">
<rect width="48" height="48" fill="white"/>
</clipPath>
</defs>
</svg>
