<svg width="16" height="16" viewBox="0 0 16 16" fill="none" xmlns="http://www.w3.org/2000/svg">
<g clip-path="url(#clip0_4181_19207)">
<path d="M12.7404 15.6594C12.6804 15.6594 12.6204 15.658 12.5591 15.6527C9.4164 15.3994 6.45374 14.0274 4.21774 11.79C1.9804 9.55405 0.608402 6.59005 0.355069 3.44738C0.269735 2.39938 0.928402 1.43271 1.95774 1.09538L4.02707 0.415378C5.05774 0.148711 6.04707 0.626045 6.44974 1.53671L7.20707 3.39271C7.5684 4.20605 7.3284 5.19538 6.60974 5.77005L3.8844 8.11938C4.36707 8.93538 4.9524 9.69405 5.63374 10.3727C6.31374 11.0527 7.0724 11.6394 7.88707 12.122L10.2604 9.37005C10.8124 8.67938 11.8004 8.43671 12.6431 8.81138L14.4431 9.54605C15.3817 9.96205 15.8604 10.9554 15.6097 11.9207L14.9111 14.0527C14.5937 15.0207 13.7164 15.6607 12.7417 15.6607L12.7404 15.6594Z" fill="#F08B32"/>
</g>
<defs>
<clipPath id="clip0_4181_19207">
<rect width="16" height="16" fill="white"/>
</clipPath>
</defs>
</svg>
