<svg width="40" height="41" viewBox="0 0 40 41" fill="none" xmlns="http://www.w3.org/2000/svg">
<path d="M29.4444 6.36108H10.5555C8.10093 6.36108 6.11108 8.35093 6.11108 10.8055V29.6944C6.11108 32.1491 8.10093 34.1389 10.5555 34.1389H29.4444C31.8991 34.1389 33.8889 32.1491 33.8889 29.6944V10.8055C33.8889 8.35093 31.8991 6.36108 29.4444 6.36108Z" fill="white"/>
<path d="M29.4444 6.36108H10.5555C8.10093 6.36108 6.11108 8.35093 6.11108 10.8055V29.6944C6.11108 32.1491 8.10093 34.1389 10.5555 34.1389H29.4444C31.8991 34.1389 33.8889 32.1491 33.8889 29.6944V10.8055C33.8889 8.35093 31.8991 6.36108 29.4444 6.36108Z" stroke="white" stroke-linecap="round" stroke-linejoin="round"/>
<path d="M20 18.0277V27.4722" stroke="#121317" stroke-width="2" stroke-linecap="round" stroke-linejoin="round"/>
<path d="M12.7777 23.0277V27.4722" stroke="#121317" stroke-width="2" stroke-linecap="round" stroke-linejoin="round"/>
<path d="M27.2222 13.0277V27.4722" stroke="#121317" stroke-width="2" stroke-linecap="round" stroke-linejoin="round"/>
</svg>
