<svg width="48" height="48" viewBox="0 0 48 48" fill="none" xmlns="http://www.w3.org/2000/svg">
<rect width="48" height="48" rx="4" fill="white" fill-opacity="0.1"/>
<path d="M34 8H12C11.7348 8 11.4804 8.10536 11.2929 8.29289C11.1054 8.48043 11 8.73478 11 9V39C11 39.2652 11.1054 39.5196 11.2929 39.7071C11.4804 39.8946 11.7348 40 12 40H34C34.2652 40 34.5196 39.8946 34.7071 39.7071C34.8946 39.5196 35 39.2652 35 39V9C35 8.73478 34.8946 8.48043 34.7071 8.29289C34.5196 8.10536 34.2652 8 34 8ZM23 13C23.9889 13 24.9556 13.2932 25.7779 13.8427C26.6001 14.3921 27.241 15.173 27.6194 16.0866C27.9978 17.0002 28.0969 18.0055 27.9039 18.9755C27.711 19.9454 27.2348 20.8363 26.5355 21.5355C25.8363 22.2348 24.9454 22.711 23.9755 22.9039C23.0055 23.0969 22.0002 22.9978 21.0866 22.6194C20.173 22.241 19.3921 21.6001 18.8427 20.7779C18.2932 19.9556 18 18.9889 18 18C18.0016 16.6744 18.5289 15.4036 19.4662 14.4662C20.4036 13.5289 21.6744 13.0016 23 13ZM29 34H17V32H29V34ZM29 29H17V27H29V29Z" fill="white"/>
<path d="M39 12H37V36H39V12Z" fill="white"/>
</svg>
