<svg width="21" height="20" viewBox="0 0 21 20" fill="none" xmlns="http://www.w3.org/2000/svg">
<path d="M20.4927 8.35879C20.1051 6.04479 18.9112 3.93981 17.1198 2.41196C15.3283 0.884109 13.0533 0.0306409 10.6926 0.00080932C8.33192 -0.0290223 6.03581 0.766682 4.20582 2.24877C2.37582 3.73085 1.12843 5.80499 0.681778 8.10844C0.235126 10.4119 0.617647 12.7981 1.76244 14.8496C2.90724 16.9012 4.74145 18.4876 6.9443 19.3314C9.14715 20.1753 11.5784 20.2228 13.813 19.4656C16.0475 18.7085 17.9431 17.195 19.1681 15.1897L15.7267 13.114C14.9917 14.3172 13.8543 15.2253 12.5136 15.6795C11.1729 16.1338 9.71414 16.1053 8.39243 15.599C7.07071 15.0927 5.97019 14.1409 5.28331 12.9099C4.59643 11.679 4.36692 10.2473 4.63491 8.86523C4.9029 7.48316 5.65134 6.23868 6.74933 5.34942C7.84733 4.46017 9.225 3.98275 10.6414 4.00065C12.0578 4.01855 13.4228 4.53063 14.4977 5.44734C15.5726 6.36405 16.2889 7.62704 16.5215 9.01544L20.4927 8.35879Z" fill="url(#paint0_angular_245_515)"/>
<path d="M10.411 7.86822L20.3346 8.21766C20.5202 8.22419 20.5643 8.47825 20.3917 8.54625L11.2712 12.1401C11.087 12.2279 10.8877 12.2923 10.6764 12.3286C9.44518 12.5402 8.27443 11.7201 8.06144 10.4967C7.84845 9.27336 8.67387 8.11007 9.90507 7.89844C10.014 7.87972 10.1224 7.86907 10.2298 7.86606L10.229 7.86182L10.3353 7.86556C10.3606 7.86603 10.3858 7.86692 10.411 7.86822Z" fill="white"/>
<defs>
<radialGradient id="paint0_angular_245_515" cx="0" cy="0" r="1" gradientUnits="userSpaceOnUse" gradientTransform="translate(10.3238 9.97948) rotate(35.8821) scale(21.9408 21.8971)">
<stop offset="0.369792" stop-color="#F08B32"/>
<stop offset="0.744792" stop-color="#F08B32"/>
<stop offset="0.989583" stop-color="#F08B32" stop-opacity="0"/>
</radialGradient>
</defs>
</svg>
