<svg width="158" height="48" viewBox="0 0 158 48" fill="none" xmlns="http://www.w3.org/2000/svg">
<path d="M2.32422 22.593V6.78125H8.50879C9.4267 6.78125 10.2543 6.99961 10.9916 7.43631C11.744 7.85796 12.3384 8.43772 12.7748 9.1756C13.2112 9.91349 13.4294 10.7493 13.4294 11.6829C13.4294 12.5563 13.2187 13.3469 12.7974 14.0547C12.376 14.7624 11.8042 15.3271 11.0819 15.7488C10.3596 16.1554 9.54708 16.3587 8.64422 16.3587H4.08479V22.593H2.32422ZM11.9622 22.593L7.98965 15.6358L9.68251 15.0485L14.0614 22.593H11.9622ZM4.08479 14.642H8.80222C9.35899 14.642 9.84802 14.5139 10.2694 14.258C10.6907 14.002 11.0217 13.6556 11.2625 13.2189C11.5033 12.7671 11.6236 12.2551 11.6236 11.6829C11.6236 11.0655 11.4807 10.5158 11.1948 10.034C10.9089 9.55208 10.5101 9.1756 9.99851 8.90454C9.50193 8.63348 8.93013 8.49795 8.28308 8.49795H4.08479V14.642Z" fill="white"/>
<path d="M21.1602 20.5858L26.4389 5.64844H28.4413L36.2685 28.2367H34.4482H29.5334H24.6187L27.5311 22.0431L29.5334 28.2367H34.4482L27.8952 8.19872H27.1671L23.1625 20.5858H21.1602Z" fill="white"/>
<path d="M48.8416 22.813C48.0442 22.813 47.2917 22.7 46.5845 22.4741C45.8773 22.2482 45.2302 21.9094 44.6434 21.4577C44.0565 21.0059 43.5374 20.4487 43.0859 19.7861L44.3048 18.4308C45.012 19.4398 45.7343 20.1475 46.4717 20.5541C47.224 20.9607 48.0667 21.164 48.9997 21.164C49.6768 21.164 50.2937 21.0511 50.8505 20.8252C51.4073 20.5993 51.8437 20.2831 52.1597 19.8765C52.4757 19.4699 52.6337 19.003 52.6337 18.476C52.6337 18.1297 52.5734 17.821 52.4531 17.5499C52.3477 17.2788 52.1822 17.0378 51.9565 16.8271C51.7308 16.6163 51.4525 16.428 51.1214 16.2624C50.7903 16.0968 50.4066 15.9461 49.9702 15.8106C49.5488 15.6751 49.0748 15.5395 48.5482 15.404C47.7808 15.2233 47.1037 15.0125 46.5168 14.7715C45.945 14.5156 45.4559 14.2068 45.0497 13.8454C44.6585 13.484 44.3574 13.0699 44.1468 12.6031C43.9511 12.1212 43.8534 11.5565 43.8534 10.909C43.8534 10.2915 43.9813 9.7193 44.2371 9.19225C44.5079 8.66519 44.8766 8.21343 45.3431 7.83695C45.8096 7.44543 46.3588 7.14424 46.9908 6.93342C47.6228 6.7226 48.2999 6.61719 49.0222 6.61719C49.8348 6.61719 50.5571 6.73013 51.1891 6.95601C51.8362 7.16683 52.4079 7.48306 52.9045 7.90472C53.4011 8.32637 53.8299 8.83083 54.1911 9.41813L52.9497 10.6379C52.6337 10.141 52.2725 9.71178 51.8662 9.35036C51.475 8.98895 51.0386 8.71789 50.5571 8.53719C50.0906 8.34142 49.5714 8.24354 48.9997 8.24354C48.3376 8.24354 47.7507 8.35648 47.2391 8.58236C46.7425 8.80825 46.3513 9.12448 46.0654 9.53107C45.7794 9.92259 45.6365 10.3744 45.6365 10.8864C45.6365 11.2628 45.7042 11.6017 45.8397 11.9028C45.9751 12.189 46.1857 12.445 46.4717 12.6708C46.7726 12.8817 47.1563 13.0774 47.6228 13.2581C48.1043 13.4238 48.6762 13.5819 49.3382 13.7325C50.1207 13.9132 50.8205 14.1316 51.4374 14.3875C52.0694 14.6435 52.6036 14.9522 53.0399 15.3137C53.4914 15.66 53.8299 16.0666 54.0557 16.5334C54.2965 17.0003 54.4168 17.5348 54.4168 18.1372C54.4168 19.0708 54.1836 19.8916 53.7171 20.5993C53.2506 21.2921 52.596 21.8342 51.7534 22.2257C50.9257 22.6171 49.9551 22.813 48.8416 22.813Z" fill="white"/>
<path d="M68.5916 22.813C67.7942 22.813 67.0417 22.7 66.3345 22.4741C65.6273 22.2482 64.9802 21.9094 64.3934 21.4577C63.8065 21.0059 63.2874 20.4487 62.8359 19.7861L64.0548 18.4308C64.762 19.4398 65.4843 20.1475 66.2217 20.5541C66.974 20.9607 67.8167 21.164 68.7497 21.164C69.4268 21.164 70.0437 21.0511 70.6005 20.8252C71.1573 20.5993 71.5937 20.2831 71.9097 19.8765C72.2257 19.4699 72.3837 19.003 72.3837 18.476C72.3837 18.1297 72.3234 17.821 72.2031 17.5499C72.0977 17.2788 71.9322 17.0378 71.7065 16.8271C71.4808 16.6163 71.2025 16.428 70.8714 16.2624C70.5403 16.0968 70.1566 15.9461 69.7202 15.8106C69.2988 15.6751 68.8248 15.5395 68.2982 15.404C67.5308 15.2233 66.8537 15.0125 66.2668 14.7715C65.695 14.5156 65.2059 14.2068 64.7996 13.8454C64.4085 13.484 64.1074 13.0699 63.8968 12.6031C63.7011 12.1212 63.6034 11.5565 63.6034 10.909C63.6034 10.2915 63.7313 9.7193 63.9871 9.19225C64.2579 8.66519 64.6266 8.21343 65.0931 7.83695C65.5596 7.44543 66.1088 7.14424 66.7408 6.93342C67.3728 6.7226 68.0499 6.61719 68.7722 6.61719C69.5848 6.61719 70.3071 6.73013 70.9391 6.95601C71.5862 7.16683 72.1579 7.48306 72.6545 7.90472C73.1511 8.32637 73.5799 8.83083 73.9411 9.41813L72.6997 10.6379C72.3837 10.141 72.0225 9.71178 71.6162 9.35036C71.225 8.98895 70.7886 8.71789 70.3071 8.53719C69.8406 8.34142 69.3214 8.24354 68.7497 8.24354C68.0876 8.24354 67.5007 8.35648 66.9891 8.58236C66.4925 8.80825 66.1013 9.12448 65.8154 9.53107C65.5294 9.92259 65.3865 10.3744 65.3865 10.8864C65.3865 11.2628 65.4542 11.6017 65.5897 11.9028C65.7251 12.189 65.9357 12.445 66.2217 12.6708C66.5226 12.8817 66.9063 13.0774 67.3728 13.2581C67.8543 13.4238 68.4262 13.5819 69.0882 13.7325C69.8707 13.9132 70.5705 14.1316 71.1874 14.3875C71.8194 14.6435 72.3536 14.9522 72.7899 15.3137C73.2414 15.66 73.5799 16.0666 73.8057 16.5334C74.0465 17.0003 74.1668 17.5348 74.1668 18.1372C74.1668 19.0708 73.9336 19.8916 73.4671 20.5993C73.0006 21.2921 72.346 21.8342 71.5034 22.2257C70.6757 22.6171 69.7051 22.813 68.5916 22.813Z" fill="white"/>
<path d="M83.7344 22.593V6.78125H93.3047V8.49795H85.4949V20.8763H93.2595V22.593H83.7344ZM84.5469 15.3196V13.6029H92.0407V15.3196H84.5469Z" fill="white"/>
<path d="M103.484 22.593V6.78125H105.087L115.425 20.4697L115.109 20.8763C115.064 20.6353 115.026 20.2739 114.996 19.7921C114.981 19.3102 114.958 18.7681 114.928 18.1657C114.913 17.5484 114.898 16.9083 114.883 16.2457C114.868 15.5832 114.853 14.9356 114.838 14.3031C114.838 13.6707 114.838 13.0984 114.838 12.5864V6.78125H116.598V22.593H114.951L104.658 9.08525L104.929 8.6109C104.974 9.21325 105.012 9.80807 105.042 10.3954C105.087 10.9827 105.117 11.5474 105.132 12.0895C105.162 12.6316 105.185 13.1285 105.2 13.5803C105.215 14.0321 105.222 14.4161 105.222 14.7323C105.237 15.0485 105.245 15.2744 105.245 15.41V22.593H103.484Z" fill="white"/>
<path d="M132.072 22.813C131.275 22.813 130.522 22.7 129.815 22.4741C129.108 22.2482 128.461 21.9094 127.874 21.4577C127.287 21.0059 126.768 20.4487 126.316 19.7861L127.535 18.4308C128.242 19.4398 128.965 20.1475 129.702 20.5541C130.454 20.9607 131.297 21.164 132.23 21.164C132.907 21.164 133.524 21.0511 134.081 20.8252C134.638 20.5993 135.074 20.2831 135.39 19.8765C135.706 19.4699 135.864 19.003 135.864 18.476C135.864 18.1297 135.804 17.821 135.684 17.5499C135.578 17.2788 135.413 17.0378 135.187 16.8271C134.961 16.6163 134.683 16.428 134.352 16.2624C134.021 16.0968 133.637 15.9461 133.201 15.8106C132.779 15.6751 132.305 15.5395 131.779 15.404C131.011 15.2233 130.334 15.0125 129.747 14.7715C129.176 14.5156 128.686 14.2068 128.28 13.8454C127.889 13.484 127.588 13.0699 127.377 12.6031C127.182 12.1212 127.084 11.5565 127.084 10.909C127.084 10.2915 127.212 9.7193 127.468 9.19225C127.738 8.66519 128.107 8.21343 128.574 7.83695C129.04 7.44543 129.589 7.14424 130.221 6.93342C130.853 6.7226 131.53 6.61719 132.253 6.61719C133.065 6.61719 133.788 6.73013 134.42 6.95601C135.067 7.16683 135.638 7.48306 136.135 7.90472C136.632 8.32637 137.06 8.83083 137.422 9.41813L136.18 10.6379C135.864 10.141 135.503 9.71178 135.097 9.35036C134.706 8.98895 134.269 8.71789 133.788 8.53719C133.321 8.34142 132.802 8.24354 132.23 8.24354C131.568 8.24354 130.981 8.35648 130.47 8.58236C129.973 8.80825 129.582 9.12448 129.296 9.53107C129.01 9.92259 128.867 10.3744 128.867 10.8864C128.867 11.2628 128.935 11.6017 129.07 11.9028C129.206 12.189 129.416 12.445 129.702 12.6708C130.003 12.8817 130.387 13.0774 130.853 13.2581C131.335 13.4238 131.907 13.5819 132.569 13.7325C133.351 13.9132 134.051 14.1316 134.668 14.3875C135.3 14.6435 135.834 14.9522 136.27 15.3137C136.722 15.66 137.06 16.0666 137.286 16.5334C137.527 17.0003 137.647 17.5348 137.647 18.1372C137.647 19.0708 137.414 19.8916 136.948 20.5993C136.481 21.2921 135.826 21.8342 134.984 22.2257C134.156 22.6171 133.186 22.813 132.072 22.813Z" fill="white"/>
<path d="M147.219 22.593V6.78125H156.789V8.49795H148.979V20.8763H156.744V22.593H147.219ZM148.031 15.3196V13.6029H155.525V15.3196H148.031Z" fill="white"/>
<path d="M16.515 45.1724V38.1249H14.2578V37.2666H19.7427V38.1249H17.3952V45.1724H16.515ZM25.5057 45.2854C24.9489 45.2854 24.4336 45.1875 23.9596 44.9917C23.4931 44.7884 23.0831 44.5061 22.7294 44.1447C22.3834 43.7833 22.1125 43.3579 21.9169 42.8684C21.7288 42.3715 21.6347 41.8294 21.6347 41.2421C21.6347 40.6548 21.7288 40.1165 21.9169 39.627C22.1125 39.1301 22.3834 38.7009 22.7294 38.3395C23.0831 37.9706 23.4931 37.6883 23.9596 37.4924C24.4336 37.2891 24.9489 37.1875 25.5057 37.1875C26.07 37.1875 26.5853 37.2891 27.0519 37.4924C27.5259 37.6883 27.936 37.9706 28.282 38.3395C28.6357 38.7009 28.9065 39.1301 29.0946 39.627C29.2902 40.1165 29.388 40.6548 29.388 41.2421C29.388 41.8219 29.2902 42.3602 29.0946 42.8571C28.9065 43.3466 28.6357 43.7758 28.282 44.1447C27.936 44.5061 27.5259 44.7884 27.0519 44.9917C26.5853 45.1875 26.07 45.2854 25.5057 45.2854ZM25.5057 44.4157C25.9346 44.4157 26.3296 44.3405 26.6907 44.1899C27.0593 44.0317 27.3753 43.8097 27.6387 43.5235C27.9021 43.2373 28.1052 42.9023 28.2482 42.5183C28.3987 42.1268 28.4739 41.7013 28.4739 41.2421C28.4739 40.7752 28.3987 40.3499 28.2482 39.9659C28.1052 39.5744 27.9021 39.2355 27.6387 38.9494C27.3753 38.6632 27.0593 38.4411 26.6907 38.283C26.3296 38.1249 25.9346 38.0459 25.5057 38.0459C25.0769 38.0459 24.6781 38.1249 24.3094 38.283C23.9483 38.4411 23.6361 38.6632 23.3727 38.9494C23.1093 39.2355 22.9062 39.5744 22.7633 39.9659C22.6204 40.3499 22.5489 40.7752 22.5489 41.2421C22.5489 41.7013 22.6204 42.1268 22.7633 42.5183C22.9062 42.9023 23.1093 43.2373 23.3727 43.5235C23.6361 43.8097 23.9483 44.0317 24.3094 44.1899C24.6781 44.3405 25.0769 44.4157 25.5057 44.4157ZM35.958 45.2854C35.3787 45.2854 34.8407 45.1837 34.3441 44.9804C33.8476 44.7771 33.4112 44.4948 33.035 44.1334C32.6589 43.772 32.3655 43.3466 32.1547 42.8571C31.9516 42.3602 31.85 41.8219 31.85 41.2421C31.85 40.6623 31.9516 40.1278 32.1547 39.6383C32.3655 39.1414 32.6513 38.7122 33.0124 38.3508C33.3812 37.9894 33.81 37.7108 34.299 37.515C34.7956 37.3117 35.326 37.2101 35.8903 37.2101C36.2891 37.2101 36.6803 37.2666 37.064 37.3795C37.4553 37.4924 37.8088 37.6506 38.1248 37.8539C38.4408 38.0571 38.6967 38.2868 38.8923 38.5428L38.3054 39.1414C38.0948 38.923 37.8578 38.7348 37.5944 38.5767C37.3312 38.4186 37.0527 38.2943 36.7593 38.204C36.4735 38.1136 36.1875 38.0684 35.9016 38.0684C35.4577 38.0684 35.0438 38.1475 34.6601 38.3056C34.284 38.4637 33.9529 38.6858 33.667 38.972C33.3812 39.2505 33.1591 39.5857 33.0011 39.9771C32.8431 40.3611 32.7641 40.7828 32.7641 41.2421C32.7641 41.6864 32.8431 42.1043 33.0011 42.4957C33.1667 42.8797 33.3961 43.2186 33.6896 43.5122C33.9906 43.7984 34.3367 44.0204 34.7278 44.1786C35.1192 44.3367 35.5404 44.4157 35.9918 44.4157C36.3455 44.4157 36.6766 44.3631 36.985 44.2576C37.301 44.1522 37.5757 44.0053 37.8088 43.8171C38.0422 43.6213 38.2227 43.3955 38.3506 43.1395C38.4785 42.8835 38.5424 42.6087 38.5424 42.315V41.9197L38.723 42.1456H35.9467V41.276H39.4227C39.4303 41.3363 39.4378 41.4077 39.4453 41.4906C39.4529 41.5658 39.4566 41.6449 39.4566 41.7277C39.4642 41.803 39.4678 41.8746 39.4678 41.9423C39.4678 42.4318 39.3776 42.8835 39.197 43.2976C39.0164 43.7042 38.7645 44.0581 38.4408 44.3593C38.1248 44.6529 37.7562 44.8826 37.3348 45.0482C36.9136 45.2063 36.4546 45.2854 35.958 45.2854ZM42.4323 45.1724V37.2666H47.2175V38.1249H43.3126V44.3141H47.1949V45.1724H42.4323ZM42.8386 41.5357V40.6774H46.5855V41.5357H42.8386ZM51.9759 45.1724V38.1249H49.7188V37.2666H55.2037V38.1249H52.8562V45.1724H51.9759ZM63.3285 45.1724V37.2666H64.2088V45.1724H63.3285ZM58.0468 45.1724V37.2666H58.9271V45.1724H58.0468ZM58.4757 41.66V40.8016H63.701V41.66H58.4757ZM67.8874 45.1724V37.2666H72.6725V38.1249H68.7677V44.3141H72.65V45.1724H67.8874ZM68.2937 41.5357V40.6774H72.0405V41.5357H68.2937ZM75.9976 45.1724V37.2666H79.0899C79.5489 37.2666 79.9627 37.3757 80.3313 37.5941C80.7075 37.8049 81.0048 38.0948 81.2229 38.4637C81.4411 38.8326 81.5502 39.2505 81.5502 39.7174C81.5502 40.154 81.4449 40.5493 81.2342 40.9033C81.0235 41.2572 80.7376 41.5395 80.3764 41.7503C80.0153 41.9536 79.609 42.0553 79.1576 42.0553H76.8779V45.1724H75.9976ZM80.8166 45.1724L78.8303 41.6939L79.6767 41.4002L81.8662 45.1724H80.8166ZM76.8779 41.1969H79.2366C79.5151 41.1969 79.7595 41.133 79.9702 41.0049C80.1809 40.8769 80.3464 40.7038 80.4667 40.4854C80.5872 40.2595 80.6473 40.0035 80.6473 39.7174C80.6473 39.4086 80.5759 39.1339 80.4329 38.8929C80.29 38.6519 80.0906 38.4637 79.8347 38.3282C79.5865 38.1927 79.3006 38.1249 78.977 38.1249H76.8779V41.1969ZM88.9473 45.1724V44.3367H90.2225V38.1023H88.9473V37.2666H92.3781V38.1023H91.1028V44.3367H92.3781V45.1724H88.9473ZM97.9909 45.2854C97.5921 45.2854 97.2159 45.2289 96.8623 45.116C96.5087 45.003 96.1852 44.8336 95.8918 44.6077C95.5983 44.3819 95.3388 44.1033 95.1131 43.772L95.7225 43.0943C96.076 43.5987 96.4371 43.9527 96.8059 44.156C97.182 44.3593 97.6034 44.4609 98.0699 44.4609C98.4085 44.4609 98.7169 44.4044 98.9953 44.2915C99.2737 44.1786 99.4919 44.0204 99.6499 43.8171C99.8079 43.6139 99.8869 43.3805 99.8869 43.1169C99.8869 42.9437 99.8567 42.7894 99.7966 42.6539C99.7439 42.5183 99.6612 42.3979 99.5483 42.2924C99.4355 42.187 99.2963 42.093 99.1308 42.0101C98.9652 41.9272 98.7733 41.852 98.5552 41.7842C98.3444 41.7164 98.1074 41.6487 97.8442 41.5809C97.4605 41.4906 97.1219 41.3851 96.8285 41.2647C96.5425 41.1366 96.2981 40.9823 96.0949 40.8016C95.8993 40.6209 95.7487 40.4138 95.6435 40.1804C95.5456 39.9395 95.4968 39.6571 95.4968 39.3334C95.4968 39.0246 95.5607 38.7386 95.6886 38.475C95.8241 38.2115 96.0083 37.9856 96.2416 37.7974C96.4748 37.6016 96.7495 37.4511 97.0655 37.3456C97.3815 37.2402 97.7201 37.1875 98.0812 37.1875C98.4875 37.1875 98.8486 37.244 99.1646 37.3569C99.4881 37.4624 99.7741 37.6205 100.022 37.8313C100.271 38.042 100.485 38.2943 100.666 38.588L100.045 39.1979C99.8869 38.9494 99.7063 38.7348 99.5032 38.5541C99.3075 38.3734 99.0893 38.2379 98.8486 38.1475C98.6153 38.0497 98.3557 38.0007 98.0699 38.0007C97.7388 38.0007 97.4454 38.0571 97.1896 38.1701C96.9413 38.283 96.7457 38.4411 96.6028 38.6444C96.4597 38.8403 96.3883 39.0661 96.3883 39.3221C96.3883 39.5103 96.4222 39.6797 96.4899 39.8303C96.5576 39.9733 96.6629 40.1014 96.8059 40.2143C96.9563 40.3198 97.1482 40.4176 97.3815 40.508C97.6222 40.5908 97.9081 40.6699 98.2392 40.7451C98.6304 40.8355 98.9802 40.9446 99.2888 41.0727C99.6048 41.2007 99.8718 41.355 100.09 41.5357C100.316 41.709 100.485 41.9123 100.598 42.1456C100.718 42.379 100.778 42.6464 100.778 42.9475C100.778 43.4144 100.662 43.8246 100.429 44.1786C100.195 44.5249 99.868 44.7959 99.4468 44.9917C99.0329 45.1875 98.5476 45.2854 97.9909 45.2854ZM108.426 45.1724V37.2666H109.284L112.32 42.2021L111.914 42.1908L114.983 37.2666H115.785V45.1724H114.904V41.5583C114.904 40.8807 114.916 40.2708 114.938 39.7287C114.961 39.1866 115.002 38.6483 115.062 38.1136L115.22 38.4299L112.388 42.8797H111.778L109.025 38.4863L109.149 38.1136C109.209 38.618 109.25 39.1376 109.273 39.6722C109.295 40.1992 109.307 40.828 109.307 41.5583V45.1724H108.426ZM122.73 45.2854C122.173 45.2854 121.658 45.1875 121.184 44.9917C120.717 44.7884 120.307 44.5061 119.954 44.1447C119.608 43.7833 119.337 43.3579 119.141 42.8684C118.953 42.3715 118.859 41.8294 118.859 41.2421C118.859 40.6548 118.953 40.1165 119.141 39.627C119.337 39.1301 119.608 38.7009 119.954 38.3395C120.307 37.9706 120.717 37.6883 121.184 37.4924C121.658 37.2891 122.173 37.1875 122.73 37.1875C123.294 37.1875 123.81 37.2891 124.276 37.4924C124.75 37.6883 125.16 37.9706 125.506 38.3395C125.86 38.7009 126.131 39.1301 126.319 39.627C126.514 40.1165 126.612 40.6548 126.612 41.2421C126.612 41.8219 126.514 42.3602 126.319 42.8571C126.131 43.3466 125.86 43.7758 125.506 44.1447C125.16 44.5061 124.75 44.7884 124.276 44.9917C123.81 45.1875 123.294 45.2854 122.73 45.2854ZM122.73 44.4157C123.159 44.4157 123.554 44.3405 123.915 44.1899C124.284 44.0317 124.6 43.8097 124.863 43.5235C125.126 43.2373 125.329 42.9023 125.472 42.5183C125.623 42.1268 125.698 41.7013 125.698 41.2421C125.698 40.7752 125.623 40.3499 125.472 39.9659C125.329 39.5744 125.126 39.2355 124.863 38.9494C124.6 38.6632 124.284 38.4411 123.915 38.283C123.554 38.1249 123.159 38.0459 122.73 38.0459C122.301 38.0459 121.902 38.1249 121.534 38.283C121.172 38.4411 120.86 38.6632 120.597 38.9494C120.334 39.2355 120.131 39.5744 119.987 39.9659C119.845 40.3499 119.773 40.7752 119.773 41.2421C119.773 41.7013 119.845 42.1268 119.987 42.5183C120.131 42.9023 120.334 43.2373 120.597 43.5235C120.86 43.8097 121.172 44.0317 121.534 44.1899C121.902 44.3405 122.301 44.4157 122.73 44.4157ZM129.684 45.1724V37.2666H132.776C133.235 37.2666 133.649 37.3757 134.017 37.5941C134.394 37.8049 134.691 38.0948 134.909 38.4637C135.127 38.8326 135.236 39.2505 135.236 39.7174C135.236 40.154 135.131 40.5493 134.92 40.9033C134.71 41.2572 134.424 41.5395 134.063 41.7503C133.701 41.9536 133.295 42.0553 132.844 42.0553H130.564V45.1724H129.684ZM134.503 45.1724L132.516 41.6939L133.363 41.4002L135.552 45.1724H134.503ZM130.564 41.1969H132.923C133.201 41.1969 133.446 41.133 133.656 41.0049C133.867 40.8769 134.033 40.7038 134.153 40.4854C134.273 40.2595 134.333 40.0035 134.333 39.7174C134.333 39.4086 134.262 39.1339 134.119 38.8929C133.976 38.6519 133.777 38.4637 133.521 38.3282C133.273 38.1927 132.987 38.1249 132.663 38.1249H130.564V41.1969ZM138.488 45.1724V37.2666H143.274V38.1249H139.369V44.3141H143.252V45.1724H138.488ZM138.895 41.5357V40.6774H142.642V41.5357H138.895Z" fill="#B1B1B1"/>
</svg>
