<svg width="46" height="41" viewBox="0 0 46 41" fill="none" xmlns="http://www.w3.org/2000/svg">
<path fill-rule="evenodd" clip-rule="evenodd" d="M0 34H46V41.0001H36V37.0001H28V41.0001H18V37.0001H10V41.0001H0V34Z" fill="white"/>
<path d="M14 0H9V10.5H21V0H16V4H14V0Z" fill="white"/>
<path d="M14 13.5H9V24H21V13.5H16V17.5H14V13.5Z" fill="white"/>
<path d="M29.5 0H25V10.5H37V0H31.5V4H29.5V0Z" fill="white"/>
<path d="M30 13.5H25V24H37V13.5H32V17.5H30V13.5Z" fill="white"/>
<path d="M46 30L40 7.59766V24C40 25.6568 38.6569 27 37 27H9C7.34315 27 6 25.6568 6 24V7.59766L0 30V31H46V30Z" fill="white"/>
</svg>
