<svg width="596" height="268" viewBox="0 0 596 268" fill="none" xmlns="http://www.w3.org/2000/svg">
<mask id="path-1-inside-1_3550_109522" fill="white">
<path d="M0 18C0 13.5817 3.58172 10 8 10H588C592.418 10 596 13.5817 596 18V114C596 118.418 592.418 122 588 122H8.00002C3.58174 122 0 118.418 0 114V18Z"/>
</mask>
<path d="M0 18C0 13.5817 3.58172 10 8 10H588C592.418 10 596 13.5817 596 18V114C596 118.418 592.418 122 588 122H8.00002C3.58174 122 0 118.418 0 114V18Z" fill="url(#paint0_linear_3550_109522)" fill-opacity="0.1"/>
<path d="M8 10V11H588V10V9H8V10ZM596 18H595V114H596H597V18H596ZM588 122V121H8.00002V122V123H588V122ZM0 114H1V18H0H-1V114H0ZM8.00002 122V121C4.13402 121 1 117.866 1 114H0H-1C-1 118.971 3.02946 123 8.00002 123V122ZM596 114H595C595 117.866 591.866 121 588 121V122V123C592.971 123 597 118.971 597 114H596ZM588 10V11C591.866 11 595 14.134 595 18H596H597C597 13.0294 592.971 9 588 9V10ZM8 10V9C3.02944 9 -1 13.0294 -1 18H0H1C1 14.134 4.13401 11 8 11V10Z" fill="url(#paint1_linear_3550_109522)" fill-opacity="0.2" mask="url(#path-1-inside-1_3550_109522)"/>
<path d="M17.568 54V42.8H22.24C22.9547 42.8 23.5573 42.9067 24.048 43.12C24.5387 43.3333 24.9067 43.6533 25.152 44.08C25.408 44.496 25.536 45.008 25.536 45.616C25.536 46.224 25.3653 46.7413 25.024 47.168C24.6933 47.5947 24.2293 47.888 23.632 48.048V47.728C24.1333 47.8347 24.5707 48.0267 24.944 48.304C25.3173 48.5707 25.6053 48.9067 25.808 49.312C26.0213 49.7173 26.128 50.1813 26.128 50.704C26.128 51.2373 26.0427 51.712 25.872 52.128C25.712 52.5333 25.4667 52.8747 25.136 53.152C24.816 53.4293 24.4267 53.6427 23.968 53.792C23.5093 53.9307 22.9867 54 22.4 54H17.568ZM19.296 52.336H22.304C22.7413 52.336 23.1093 52.272 23.408 52.144C23.7173 52.016 23.952 51.8293 24.112 51.584C24.2827 51.328 24.368 51.024 24.368 50.672C24.368 50.3413 24.2773 50.0587 24.096 49.824C23.9253 49.5893 23.68 49.4133 23.36 49.296C23.04 49.168 22.6613 49.104 22.224 49.104H19.296V52.336ZM19.296 47.44H22.144C22.464 47.44 22.7467 47.376 22.992 47.248C23.248 47.12 23.4453 46.944 23.584 46.72C23.7333 46.496 23.808 46.24 23.808 45.952C23.808 45.472 23.648 45.104 23.328 44.848C23.008 44.592 22.5493 44.464 21.952 44.464H19.296V47.44ZM31.259 54.16C30.5657 54.16 29.931 53.968 29.355 53.584C28.7897 53.2 28.3363 52.6773 27.995 52.016C27.6537 51.3547 27.483 50.608 27.483 49.776C27.483 48.9333 27.6537 48.1867 27.995 47.536C28.347 46.8747 28.8163 46.3573 29.403 45.984C30.0003 45.6107 30.667 45.424 31.403 45.424C31.8403 45.424 32.2403 45.488 32.603 45.616C32.9657 45.744 33.2803 45.9253 33.547 46.16C33.8243 46.384 34.0483 46.6453 34.219 46.944C34.4003 47.2427 34.5123 47.5627 34.555 47.904L34.187 47.776V45.6H35.851V54H34.187V52L34.571 51.888C34.507 52.176 34.3737 52.4587 34.171 52.736C33.979 53.0027 33.7283 53.2427 33.419 53.456C33.1203 53.6693 32.7843 53.84 32.411 53.968C32.0483 54.096 31.6643 54.16 31.259 54.16ZM31.691 52.64C32.1923 52.64 32.635 52.5173 33.019 52.272C33.403 52.0267 33.7017 51.6907 33.915 51.264C34.139 50.8267 34.251 50.3307 34.251 49.776C34.251 49.232 34.139 48.7467 33.915 48.32C33.7017 47.8933 33.403 47.5573 33.019 47.312C32.635 47.0667 32.1923 46.944 31.691 46.944C31.2003 46.944 30.763 47.0667 30.379 47.312C30.0057 47.5573 29.707 47.8933 29.483 48.32C29.2697 48.7467 29.163 49.232 29.163 49.776C29.163 50.3307 29.2697 50.8267 29.483 51.264C29.707 51.6907 30.0057 52.0267 30.379 52.272C30.763 52.5173 31.2003 52.64 31.691 52.64ZM42.568 54.16C42.2053 54.16 41.8427 54.1013 41.48 53.984C41.128 53.8667 40.8027 53.712 40.504 53.52C40.216 53.3173 39.9707 53.0987 39.768 52.864C39.576 52.6187 39.448 52.3733 39.384 52.128L39.8 51.904V53.952H38.152V42.16H39.8V47.52L39.544 47.376C39.5973 47.1307 39.7147 46.896 39.896 46.672C40.0773 46.4373 40.3067 46.2293 40.584 46.048C40.872 45.856 41.1813 45.7067 41.512 45.6C41.8427 45.4827 42.1787 45.424 42.52 45.424C43.2773 45.424 43.9493 45.6107 44.536 45.984C45.1227 46.3573 45.5867 46.8747 45.928 47.536C46.2693 48.1867 46.44 48.9333 46.44 49.776C46.44 50.6187 46.2693 51.3707 45.928 52.032C45.5973 52.6933 45.1387 53.216 44.552 53.6C43.9653 53.9733 43.304 54.16 42.568 54.16ZM42.296 52.656C42.7867 52.656 43.224 52.5333 43.608 52.288C43.992 52.032 44.296 51.6907 44.52 51.264C44.744 50.8267 44.856 50.3307 44.856 49.776C44.856 49.232 44.744 48.7467 44.52 48.32C44.3067 47.8827 44.008 47.5413 43.624 47.296C43.24 47.0507 42.7973 46.928 42.296 46.928C41.7947 46.928 41.352 47.0507 40.968 47.296C40.584 47.5413 40.28 47.8827 40.056 48.32C39.832 48.7467 39.72 49.232 39.72 49.776C39.72 50.3307 39.832 50.8267 40.056 51.264C40.28 51.6907 40.584 52.032 40.968 52.288C41.352 52.5333 41.7947 52.656 42.296 52.656ZM51.1741 54.16C50.5768 54.16 50.0541 54.0213 49.6061 53.744C49.1688 53.4667 48.8275 53.0773 48.5821 52.576C48.3475 52.0747 48.2301 51.4773 48.2301 50.784V45.6H49.8781V50.336C49.8781 50.8267 49.9528 51.2533 50.1021 51.616C50.2621 51.968 50.4861 52.24 50.7741 52.432C51.0728 52.624 51.4301 52.72 51.8461 52.72C52.1555 52.72 52.4381 52.672 52.6941 52.576C52.9501 52.4693 53.1688 52.3253 53.3501 52.144C53.5421 51.9627 53.6915 51.744 53.7981 51.488C53.9048 51.232 53.9581 50.9547 53.9581 50.656V45.6H55.6061V54H53.9581V52.24L54.2461 52.048C54.1181 52.4427 53.8995 52.8 53.5901 53.12C53.2915 53.44 52.9341 53.696 52.5181 53.888C52.1021 54.0693 51.6541 54.16 51.1741 54.16Z" fill="white"/>
<path d="M17.488 90L16.96 88.688L20.384 84.832C20.5653 84.64 20.752 84.4213 20.944 84.176C21.1467 83.92 21.3387 83.6587 21.52 83.392C21.7013 83.1253 21.8453 82.864 21.952 82.608C22.0693 82.3413 22.128 82.0907 22.128 81.856C22.128 81.5147 22.0587 81.2267 21.92 80.992C21.792 80.7467 21.6 80.56 21.344 80.432C21.0987 80.304 20.8 80.24 20.448 80.24C20.1387 80.24 19.8347 80.3307 19.536 80.512C19.2373 80.6933 18.9653 80.9493 18.72 81.28C18.4747 81.6107 18.2827 81.9947 18.144 82.432L16.816 81.6C16.9973 80.9813 17.2693 80.4533 17.632 80.016C18.0053 79.568 18.448 79.2267 18.96 78.992C19.4827 78.7573 20.048 78.64 20.656 78.64C21.2853 78.64 21.8453 78.7733 22.336 79.04C22.8267 79.296 23.2107 79.6587 23.488 80.128C23.7653 80.5867 23.904 81.12 23.904 81.728C23.904 81.9733 23.8773 82.224 23.824 82.48C23.7707 82.736 23.6853 83.0027 23.568 83.28C23.4507 83.5467 23.3013 83.8293 23.12 84.128C22.9387 84.416 22.72 84.72 22.464 85.04C22.2187 85.36 21.936 85.696 21.616 86.048L19.072 88.816L18.752 88.336H24.256V90H17.488ZM28.2376 89.216V80.128L28.8296 80.576L26.6216 81.744L26.1576 80.24L29.1496 78.64H29.9816V89.216H28.2376ZM26.4616 90V88.336H31.8056V90H26.4616ZM36.7176 90.16C36.0136 90.16 35.379 90.0373 34.8136 89.792C34.2483 89.5467 33.779 89.184 33.4056 88.704L34.5256 87.744C34.8456 88.1173 35.1923 88.3893 35.5656 88.56C35.9496 88.72 36.3816 88.8 36.8616 88.8C37.0536 88.8 37.2296 88.7787 37.3896 88.736C37.5603 88.6827 37.7043 88.608 37.8216 88.512C37.9496 88.416 38.0456 88.304 38.1096 88.176C38.1736 88.0373 38.2056 87.888 38.2056 87.728C38.2056 87.4507 38.1043 87.2267 37.9016 87.056C37.795 86.9813 37.6243 86.9013 37.3896 86.816C37.1656 86.72 36.8723 86.624 36.5096 86.528C35.891 86.368 35.3843 86.1867 34.9896 85.984C34.595 85.7813 34.291 85.552 34.0776 85.296C33.9176 85.0933 33.8003 84.8747 33.7256 84.64C33.651 84.3947 33.6136 84.128 33.6136 83.84C33.6136 83.488 33.6883 83.168 33.8376 82.88C33.9976 82.5813 34.211 82.3253 34.4776 82.112C34.755 81.888 35.075 81.7173 35.4376 81.6C35.811 81.4827 36.2056 81.424 36.6216 81.424C37.0163 81.424 37.4056 81.4773 37.7896 81.584C38.1843 81.6907 38.547 81.8453 38.8776 82.048C39.2083 82.2507 39.4856 82.4907 39.7096 82.768L38.7656 83.808C38.563 83.6053 38.339 83.4293 38.0936 83.28C37.859 83.12 37.619 82.9973 37.3736 82.912C37.1283 82.8267 36.9043 82.784 36.7016 82.784C36.4776 82.784 36.275 82.8053 36.0936 82.848C35.9123 82.8907 35.7576 82.9547 35.6296 83.04C35.5123 83.1253 35.4216 83.232 35.3576 83.36C35.2936 83.488 35.2616 83.632 35.2616 83.792C35.2723 83.9307 35.3043 84.064 35.3576 84.192C35.4216 84.3093 35.507 84.4107 35.6136 84.496C35.731 84.5813 35.907 84.672 36.1416 84.768C36.3763 84.864 36.675 84.9547 37.0376 85.04C37.571 85.1787 38.0083 85.3333 38.3496 85.504C38.7016 85.664 38.979 85.8507 39.1816 86.064C39.395 86.2667 39.5443 86.5013 39.6296 86.768C39.715 87.0347 39.7576 87.3333 39.7576 87.664C39.7576 88.144 39.619 88.576 39.3416 88.96C39.075 89.3333 38.7123 89.6267 38.2536 89.84C37.795 90.0533 37.283 90.16 36.7176 90.16ZM42.6139 90V79.456H44.2619V90H42.6139ZM40.8699 83.2V81.6H46.2139V83.2H40.8699ZM55.1429 90.16C54.7802 90.16 54.4335 90.112 54.1029 90.016C53.7722 89.92 53.4629 89.7813 53.1749 89.6C52.8975 89.4187 52.6469 89.2053 52.4229 88.96C52.1989 88.704 52.0069 88.4267 51.8469 88.128L52.9349 86.992C53.1589 87.312 53.3615 87.568 53.5429 87.76C53.7349 87.952 53.9162 88.1013 54.0869 88.208C54.2575 88.3147 54.4282 88.3893 54.5989 88.432C54.7695 88.464 54.9509 88.48 55.1429 88.48C55.5269 88.48 55.8629 88.3947 56.1509 88.224C56.4389 88.0427 56.6629 87.7973 56.8229 87.488C56.9829 87.1787 57.0629 86.8267 57.0629 86.432V80.4H55.0149V78.8H60.5189V80.4H58.7909V86.592C58.7909 87.104 58.7002 87.5787 58.5189 88.016C58.3482 88.4427 58.0975 88.816 57.7669 89.136C57.4469 89.456 57.0629 89.7067 56.6149 89.888C56.1775 90.0693 55.6869 90.16 55.1429 90.16ZM64.6116 90.16C64.0143 90.16 63.4916 90.0213 63.0436 89.744C62.6063 89.4667 62.265 89.0773 62.0196 88.576C61.785 88.0747 61.6676 87.4773 61.6676 86.784V81.6H63.3156V86.336C63.3156 86.8267 63.3903 87.2533 63.5396 87.616C63.6996 87.968 63.9236 88.24 64.2116 88.432C64.5103 88.624 64.8676 88.72 65.2836 88.72C65.593 88.72 65.8756 88.672 66.1316 88.576C66.3876 88.4693 66.6063 88.3253 66.7876 88.144C66.9796 87.9627 67.129 87.744 67.2356 87.488C67.3423 87.232 67.3956 86.9547 67.3956 86.656V81.6H69.0436V90H67.3956V88.24L67.6836 88.048C67.5556 88.4427 67.337 88.8 67.0276 89.12C66.729 89.44 66.3716 89.696 65.9556 89.888C65.5396 90.0693 65.0916 90.16 64.6116 90.16ZM71.3551 90V81.6H73.0031V83.328L72.7151 83.52C72.8218 83.1467 73.0298 82.8053 73.3391 82.496C73.6485 82.176 74.0165 81.92 74.4431 81.728C74.8698 81.5253 75.3071 81.424 75.7551 81.424C76.3951 81.424 76.9285 81.552 77.3551 81.808C77.7818 82.0533 78.1018 82.432 78.3151 82.944C78.5285 83.456 78.6351 84.1013 78.6351 84.88V90H76.9871V84.992C76.9871 84.512 76.9231 84.1173 76.7951 83.808C76.6671 83.488 76.4698 83.2587 76.2031 83.12C75.9365 82.9707 75.6058 82.9067 75.2111 82.928C74.8911 82.928 74.5978 82.9813 74.3311 83.088C74.0645 83.184 73.8298 83.3227 73.6271 83.504C73.4351 83.6853 73.2805 83.8987 73.1631 84.144C73.0565 84.3787 73.0031 84.6347 73.0031 84.912V90H72.1871C72.0485 90 71.9098 90 71.7711 90C71.6325 90 71.4938 90 71.3551 90ZM84.7908 90.16C83.9268 90.16 83.1588 89.9787 82.4868 89.616C81.8254 89.2427 81.3028 88.736 80.9188 88.096C80.5454 87.456 80.3588 86.72 80.3588 85.888C80.3588 85.2267 80.4654 84.624 80.6788 84.08C80.8921 83.536 81.1854 83.0667 81.5588 82.672C81.9428 82.2667 82.3961 81.9573 82.9188 81.744C83.4521 81.52 84.0281 81.408 84.6468 81.408C85.1908 81.408 85.6974 81.5147 86.1668 81.728C86.6361 81.9307 87.0414 82.2133 87.3828 82.576C87.7348 82.9387 88.0014 83.3707 88.1828 83.872C88.3748 84.3627 88.4654 84.9013 88.4548 85.488L88.4388 86.192H81.5748L81.2068 84.88H87.0148L86.7748 85.152V84.768C86.7428 84.416 86.6254 84.1013 86.4228 83.824C86.2201 83.5467 85.9641 83.328 85.6548 83.168C85.3454 83.008 85.0094 82.928 84.6468 82.928C84.0708 82.928 83.5854 83.04 83.1908 83.264C82.7961 83.4773 82.4974 83.7973 82.2948 84.224C82.0921 84.64 81.9908 85.1573 81.9908 85.776C81.9908 86.3627 82.1134 86.8747 82.3588 87.312C82.6041 87.7387 82.9508 88.0693 83.3988 88.304C83.8468 88.5387 84.3641 88.656 84.9508 88.656C85.3668 88.656 85.7508 88.5867 86.1028 88.448C86.4654 88.3093 86.8548 88.0587 87.2708 87.696L88.1028 88.864C87.8468 89.12 87.5321 89.344 87.1588 89.536C86.7961 89.728 86.4068 89.8827 85.9908 90C85.5854 90.1067 85.1854 90.16 84.7908 90.16ZM95.0661 90L94.5381 88.688L97.9621 84.832C98.1435 84.64 98.3301 84.4213 98.5221 84.176C98.7248 83.92 98.9168 83.6587 99.0981 83.392C99.2795 83.1253 99.4235 82.864 99.5301 82.608C99.6475 82.3413 99.7061 82.0907 99.7061 81.856C99.7061 81.5147 99.6368 81.2267 99.4981 80.992C99.3701 80.7467 99.1781 80.56 98.9221 80.432C98.6768 80.304 98.3781 80.24 98.0261 80.24C97.7168 80.24 97.4128 80.3307 97.1141 80.512C96.8155 80.6933 96.5435 80.9493 96.2981 81.28C96.0528 81.6107 95.8608 81.9947 95.7221 82.432L94.3941 81.6C94.5755 80.9813 94.8475 80.4533 95.2101 80.016C95.5835 79.568 96.0261 79.2267 96.5381 78.992C97.0608 78.7573 97.6261 78.64 98.2341 78.64C98.8635 78.64 99.4235 78.7733 99.9141 79.04C100.405 79.296 100.789 79.6587 101.066 80.128C101.343 80.5867 101.482 81.12 101.482 81.728C101.482 81.9733 101.455 82.224 101.402 82.48C101.349 82.736 101.263 83.0027 101.146 83.28C101.029 83.5467 100.879 83.8293 100.698 84.128C100.517 84.416 100.298 84.72 100.042 85.04C99.7968 85.36 99.5141 85.696 99.1941 86.048L96.6501 88.816L96.3301 88.336H101.834V90H95.0661ZM107.192 90.16C106.338 90.16 105.602 89.9253 104.984 89.456C104.376 88.9867 103.906 88.3253 103.576 87.472C103.245 86.608 103.08 85.584 103.08 84.4C103.08 83.216 103.245 82.1973 103.576 81.344C103.906 80.48 104.376 79.8133 104.984 79.344C105.602 78.8747 106.338 78.64 107.192 78.64C108.045 78.64 108.781 78.8747 109.4 79.344C110.018 79.8133 110.493 80.48 110.824 81.344C111.154 82.1973 111.32 83.216 111.32 84.4C111.32 85.584 111.154 86.608 110.824 87.472C110.493 88.3253 110.018 88.9867 109.4 89.456C108.781 89.9253 108.045 90.16 107.192 90.16ZM107.192 88.592C107.97 88.592 108.573 88.2293 109 87.504C109.426 86.768 109.64 85.7333 109.64 84.4C109.64 83.0667 109.426 82.0373 109 81.312C108.573 80.576 107.97 80.208 107.192 80.208C106.413 80.208 105.81 80.576 105.384 81.312C104.957 82.0373 104.744 83.0667 104.744 84.4C104.744 85.7333 104.957 86.768 105.384 87.504C105.81 88.2293 106.413 88.592 107.192 88.592ZM113.551 90L113.023 88.688L116.447 84.832C116.628 84.64 116.815 84.4213 117.007 84.176C117.209 83.92 117.401 83.6587 117.583 83.392C117.764 83.1253 117.908 82.864 118.015 82.608C118.132 82.3413 118.191 82.0907 118.191 81.856C118.191 81.5147 118.121 81.2267 117.983 80.992C117.855 80.7467 117.663 80.56 117.407 80.432C117.161 80.304 116.863 80.24 116.511 80.24C116.201 80.24 115.897 80.3307 115.599 80.512C115.3 80.6933 115.028 80.9493 114.783 81.28C114.537 81.6107 114.345 81.9947 114.207 82.432L112.879 81.6C113.06 80.9813 113.332 80.4533 113.695 80.016C114.068 79.568 114.511 79.2267 115.023 78.992C115.545 78.7573 116.111 78.64 116.719 78.64C117.348 78.64 117.908 78.7733 118.399 79.04C118.889 79.296 119.273 79.6587 119.551 80.128C119.828 80.5867 119.967 81.12 119.967 81.728C119.967 81.9733 119.94 82.224 119.887 82.48C119.833 82.736 119.748 83.0027 119.631 83.28C119.513 83.5467 119.364 83.8293 119.183 84.128C119.001 84.416 118.783 84.72 118.527 85.04C118.281 85.36 117.999 85.696 117.679 86.048L115.135 88.816L114.815 88.336H120.319V90H113.551ZM126.148 90V80.976L126.548 81.072L122.868 85.568L122.804 85.376H129.764V86.96H121.732L120.996 85.52L126.484 78.8H127.812V90H126.148Z" fill="white"/>
<path d="M452.456 54V42.8H457.416C458.109 42.8 458.739 42.96 459.304 43.28C459.869 43.5893 460.312 44.0107 460.632 44.544C460.963 45.0773 461.128 45.6853 461.128 46.368C461.128 47.04 460.963 47.6533 460.632 48.208C460.312 48.752 459.869 49.184 459.304 49.504C458.739 49.824 458.109 49.984 457.416 49.984H454.776V54H452.456ZM458.808 54L455.96 48.944L458.424 48.544L461.592 54.016L458.808 54ZM454.776 48.032H457.304C457.592 48.032 457.843 47.968 458.056 47.84C458.28 47.7013 458.451 47.5147 458.568 47.28C458.685 47.0347 458.744 46.7627 458.744 46.464C458.744 46.144 458.675 45.8667 458.536 45.632C458.397 45.3973 458.195 45.216 457.928 45.088C457.661 44.9493 457.352 44.88 457 44.88H454.776V48.032ZM466.187 54.16C465.398 54.16 464.694 54.032 464.075 53.776C463.467 53.5093 462.976 53.1467 462.603 52.688L464.011 51.472C464.342 51.824 464.71 52.08 465.115 52.24C465.52 52.3893 465.926 52.464 466.331 52.464C466.491 52.464 466.635 52.448 466.763 52.416C466.902 52.3733 467.019 52.32 467.115 52.256C467.211 52.1813 467.28 52.096 467.323 52C467.376 51.8933 467.403 51.7813 467.403 51.664C467.403 51.4293 467.307 51.2427 467.115 51.104C467.008 51.0507 466.843 50.9867 466.619 50.912C466.395 50.8267 466.107 50.736 465.755 50.64C465.211 50.5013 464.747 50.3413 464.363 50.16C463.99 49.968 463.691 49.7547 463.467 49.52C463.275 49.296 463.126 49.056 463.019 48.8C462.923 48.5333 462.875 48.24 462.875 47.92C462.875 47.536 462.96 47.1893 463.131 46.88C463.302 46.56 463.536 46.288 463.835 46.064C464.144 45.84 464.496 45.6693 464.891 45.552C465.286 45.424 465.702 45.36 466.139 45.36C466.576 45.36 467.003 45.4133 467.419 45.52C467.835 45.6267 468.219 45.7813 468.571 45.984C468.934 46.176 469.248 46.4053 469.515 46.672L468.299 48.016C468.107 47.8347 467.888 47.6693 467.643 47.52C467.408 47.3707 467.163 47.2533 466.907 47.168C466.651 47.0827 466.422 47.04 466.219 47.04C466.038 47.04 465.872 47.056 465.723 47.088C465.584 47.12 465.467 47.168 465.371 47.232C465.275 47.296 465.2 47.3813 465.147 47.488C465.104 47.584 465.083 47.6907 465.083 47.808C465.083 47.9253 465.11 48.0373 465.163 48.144C465.227 48.2507 465.312 48.3413 465.419 48.416C465.536 48.48 465.707 48.5547 465.931 48.64C466.166 48.7253 466.48 48.8213 466.875 48.928C467.387 49.0667 467.819 49.2213 468.171 49.392C468.534 49.5627 468.822 49.76 469.035 49.984C469.216 50.176 469.35 50.3947 469.435 50.64C469.52 50.8853 469.563 51.1573 469.563 51.456C469.563 51.9787 469.414 52.448 469.115 52.864C468.827 53.2693 468.427 53.5893 467.915 53.824C467.403 54.048 466.827 54.16 466.187 54.16ZM472.031 54.176C471.615 54.176 471.295 54.0587 471.071 53.824C470.847 53.5893 470.735 53.2533 470.735 52.816C470.735 52.4213 470.852 52.1013 471.087 51.856C471.332 51.6 471.647 51.472 472.031 51.472C472.436 51.472 472.751 51.5893 472.975 51.824C473.199 52.0587 473.311 52.3893 473.311 52.816C473.311 53.2213 473.194 53.552 472.959 53.808C472.724 54.0533 472.415 54.176 472.031 54.176ZM480.026 54L479.498 52.688L482.81 49.024C482.992 48.832 483.184 48.608 483.386 48.352C483.6 48.096 483.802 47.8347 483.994 47.568C484.197 47.2907 484.357 47.024 484.474 46.768C484.592 46.5013 484.65 46.2613 484.65 46.048C484.65 45.8027 484.597 45.5893 484.49 45.408C484.384 45.216 484.229 45.0667 484.026 44.96C483.824 44.8533 483.573 44.8 483.274 44.8C482.997 44.8 482.736 44.8747 482.49 45.024C482.245 45.1627 482.016 45.3707 481.802 45.648C481.589 45.9253 481.402 46.2613 481.242 46.656L479.45 45.648C479.664 45.0293 479.968 44.4907 480.362 44.032C480.757 43.5733 481.226 43.216 481.77 42.96C482.314 42.704 482.896 42.576 483.514 42.576C484.165 42.5867 484.752 42.7253 485.274 42.992C485.797 43.2587 486.208 43.632 486.506 44.112C486.805 44.592 486.954 45.1467 486.954 45.776C486.954 46.0107 486.928 46.2507 486.874 46.496C486.832 46.7413 486.752 46.9973 486.634 47.264C486.528 47.5307 486.384 47.8133 486.202 48.112C486.032 48.4 485.818 48.7093 485.562 49.04C485.317 49.36 485.034 49.696 484.714 50.048L482.17 52.816L481.85 51.84H487.418V54H480.026ZM491.08 53.216V44.128L491.672 45.2L489.336 46.336L488.872 44.208L491.992 42.64H493.448V53.216H491.08ZM489.112 54V51.84H495.464V54H489.112ZM497.72 57.088L497.016 56.24C497.432 56.0373 497.762 55.792 498.008 55.504C498.264 55.216 498.392 54.9653 498.392 54.752C498.392 54.656 498.365 54.5547 498.312 54.448C498.258 54.3413 498.141 54.208 497.96 54.048C497.725 53.8667 497.565 53.696 497.48 53.536C497.405 53.3653 497.368 53.184 497.368 52.992C497.368 52.6827 497.48 52.4373 497.704 52.256C497.928 52.0747 498.216 51.984 498.568 51.984C498.856 51.984 499.117 52.0693 499.352 52.24C499.597 52.4 499.789 52.6293 499.928 52.928C500.066 53.216 500.136 53.552 500.136 53.936C500.136 54.2773 500.077 54.608 499.96 54.928C499.842 55.2587 499.672 55.5627 499.448 55.84C499.234 56.128 498.978 56.3787 498.68 56.592C498.392 56.8053 498.072 56.9707 497.72 57.088ZM505.228 54.112C504.417 54.112 503.681 53.9467 503.02 53.616C502.369 53.2747 501.825 52.784 501.388 52.144L502.684 50.704C503.142 51.216 503.558 51.568 503.932 51.76C504.305 51.9413 504.716 52.032 505.164 52.032C505.537 52.032 505.873 51.952 506.172 51.792C506.47 51.632 506.705 51.4133 506.876 51.136C507.046 50.8587 507.132 50.5493 507.132 50.208C507.132 49.856 507.046 49.5413 506.876 49.264C506.705 48.9867 506.476 48.768 506.188 48.608C505.91 48.4373 505.59 48.352 505.228 48.352C504.993 48.352 504.774 48.3733 504.572 48.416C504.369 48.448 504.145 48.5173 503.9 48.624C503.654 48.72 503.356 48.864 503.004 49.056L501.916 47.616L502.604 42.736H508.908V44.8H503.82L504.412 44.096L503.884 47.648L503.116 47.28C503.276 47.1307 503.494 46.992 503.772 46.864C504.06 46.736 504.369 46.6293 504.7 46.544C505.041 46.4587 505.372 46.416 505.692 46.416C506.396 46.416 507.02 46.576 507.564 46.896C508.118 47.216 508.556 47.664 508.876 48.24C509.206 48.8053 509.372 49.456 509.372 50.192C509.372 50.928 509.19 51.5947 508.828 52.192C508.465 52.7787 507.969 53.248 507.34 53.6C506.71 53.9413 506.006 54.112 505.228 54.112ZM515.45 54.16C514.49 54.16 513.669 53.9307 512.986 53.472C512.314 53.0133 511.797 52.3573 511.434 51.504C511.082 50.64 510.906 49.6053 510.906 48.4C510.906 47.1947 511.082 46.1653 511.434 45.312C511.797 44.448 512.314 43.7867 512.986 43.328C513.669 42.8693 514.49 42.64 515.45 42.64C516.41 42.64 517.232 42.8693 517.914 43.328C518.597 43.7867 519.114 44.448 519.466 45.312C519.829 46.1653 520.01 47.1947 520.01 48.4C520.01 49.6053 519.829 50.64 519.466 51.504C519.114 52.3573 518.597 53.0133 517.914 53.472C517.232 53.9307 516.41 54.16 515.45 54.16ZM515.45 52.096C516.165 52.096 516.72 51.776 517.114 51.136C517.509 50.496 517.706 49.584 517.706 48.4C517.706 47.1947 517.509 46.2667 517.114 45.616C516.72 44.9653 516.165 44.64 515.45 44.64C514.725 44.64 514.165 44.9653 513.77 45.616C513.386 46.2667 513.194 47.1947 513.194 48.4C513.194 49.584 513.386 50.496 513.77 51.136C514.165 51.776 514.725 52.096 515.45 52.096ZM525.904 54.16C524.944 54.16 524.122 53.9307 523.44 53.472C522.768 53.0133 522.25 52.3573 521.888 51.504C521.536 50.64 521.36 49.6053 521.36 48.4C521.36 47.1947 521.536 46.1653 521.888 45.312C522.25 44.448 522.768 43.7867 523.44 43.328C524.122 42.8693 524.944 42.64 525.904 42.64C526.864 42.64 527.685 42.8693 528.368 43.328C529.05 43.7867 529.568 44.448 529.92 45.312C530.282 46.1653 530.464 47.1947 530.464 48.4C530.464 49.6053 530.282 50.64 529.92 51.504C529.568 52.3573 529.05 53.0133 528.368 53.472C527.685 53.9307 526.864 54.16 525.904 54.16ZM525.904 52.096C526.618 52.096 527.173 51.776 527.568 51.136C527.962 50.496 528.16 49.584 528.16 48.4C528.16 47.1947 527.962 46.2667 527.568 45.616C527.173 44.9653 526.618 44.64 525.904 44.64C525.178 44.64 524.618 44.9653 524.224 45.616C523.84 46.2667 523.648 47.1947 523.648 48.4C523.648 49.584 523.84 50.496 524.224 51.136C524.618 51.776 525.178 52.096 525.904 52.096ZM533.125 54.176C532.709 54.176 532.389 54.0587 532.165 53.824C531.941 53.5893 531.829 53.2533 531.829 52.816C531.829 52.4213 531.946 52.1013 532.181 51.856C532.426 51.6 532.741 51.472 533.125 51.472C533.53 51.472 533.845 51.5893 534.069 51.824C534.293 52.0587 534.405 52.3893 534.405 52.816C534.405 53.2213 534.287 53.552 534.053 53.808C533.818 54.0533 533.509 54.176 533.125 54.176ZM540.31 54.16C539.35 54.16 538.528 53.9307 537.846 53.472C537.174 53.0133 536.656 52.3573 536.294 51.504C535.942 50.64 535.766 49.6053 535.766 48.4C535.766 47.1947 535.942 46.1653 536.294 45.312C536.656 44.448 537.174 43.7867 537.846 43.328C538.528 42.8693 539.35 42.64 540.31 42.64C541.27 42.64 542.091 42.8693 542.774 43.328C543.456 43.7867 543.974 44.448 544.326 45.312C544.688 46.1653 544.87 47.1947 544.87 48.4C544.87 49.6053 544.688 50.64 544.326 51.504C543.974 52.3573 543.456 53.0133 542.774 53.472C542.091 53.9307 541.27 54.16 540.31 54.16ZM540.31 52.096C541.024 52.096 541.579 51.776 541.974 51.136C542.368 50.496 542.566 49.584 542.566 48.4C542.566 47.1947 542.368 46.2667 541.974 45.616C541.579 44.9653 541.024 44.64 540.31 44.64C539.584 44.64 539.024 44.9653 538.63 45.616C538.246 46.2667 538.054 47.1947 538.054 48.4C538.054 49.584 538.246 50.496 538.63 51.136C539.024 51.776 539.584 52.096 540.31 52.096ZM550.763 54.16C549.803 54.16 548.982 53.9307 548.299 53.472C547.627 53.0133 547.11 52.3573 546.747 51.504C546.395 50.64 546.219 49.6053 546.219 48.4C546.219 47.1947 546.395 46.1653 546.747 45.312C547.11 44.448 547.627 43.7867 548.299 43.328C548.982 42.8693 549.803 42.64 550.763 42.64C551.723 42.64 552.544 42.8693 553.227 43.328C553.91 43.7867 554.427 44.448 554.779 45.312C555.142 46.1653 555.323 47.1947 555.323 48.4C555.323 49.6053 555.142 50.64 554.779 51.504C554.427 52.3573 553.91 53.0133 553.227 53.472C552.544 53.9307 551.723 54.16 550.763 54.16ZM550.763 52.096C551.478 52.096 552.032 51.776 552.427 51.136C552.822 50.496 553.019 49.584 553.019 48.4C553.019 47.1947 552.822 46.2667 552.427 45.616C552.032 44.9653 551.478 44.64 550.763 44.64C550.038 44.64 549.478 44.9653 549.083 45.616C548.699 46.2667 548.507 47.1947 548.507 48.4C548.507 49.584 548.699 50.496 549.083 51.136C549.478 51.776 550.038 52.096 550.763 52.096Z" fill="white"/>
<path d="M562.75 43.25L564.75 41.25" stroke="#F08B32" stroke-width="2" stroke-linecap="round" stroke-linejoin="round"/>
<path d="M577.25 43.25L575.25 41.25" stroke="#F08B32" stroke-width="2" stroke-linecap="round" stroke-linejoin="round"/>
<path d="M564 54.5L566.5 52" stroke="#F08B32" stroke-width="2" stroke-linecap="round" stroke-linejoin="round"/>
<path d="M576 54.5L573.5 52" stroke="#F08B32" stroke-width="2" stroke-linecap="round" stroke-linejoin="round"/>
<path d="M570 42C566.416 42 563.5 44.916 563.5 48.5C563.5 52.084 566.416 55 570 55C573.584 55 576.5 52.084 576.5 48.5C576.5 44.916 573.584 42 570 42ZM572.707 50.707C572.512 50.9023 572.256 51 572 51C571.744 51 571.488 50.9023 571.293 50.707L569.293 48.707C569.106 48.5195 569 48.2651 569 48V45C569 44.4478 569.448 44 570 44C570.552 44 571 44.4478 571 45V47.5859L572.707 49.2929C573.098 49.6835 573.098 50.3163 572.707 50.707Z" fill="#F08B32"/>
<path d="M435.415 90V80.464H432.279V78.8H440.375V80.464H437.143V90H435.415ZM442.09 90V78.16H443.738V83.328L443.45 83.52C443.556 83.1467 443.764 82.8053 444.074 82.496C444.383 82.176 444.751 81.92 445.178 81.728C445.604 81.5253 446.042 81.424 446.49 81.424C447.13 81.424 447.663 81.552 448.09 81.808C448.516 82.0533 448.836 82.432 449.05 82.944C449.263 83.456 449.37 84.1013 449.37 84.88V90H447.722V84.992C447.722 84.512 447.658 84.1173 447.53 83.808C447.402 83.488 447.204 83.2587 446.938 83.12C446.671 82.9707 446.34 82.9067 445.946 82.928C445.626 82.928 445.332 82.9813 445.066 83.088C444.799 83.184 444.564 83.3227 444.362 83.504C444.17 83.6853 444.015 83.8987 443.898 84.144C443.791 84.3787 443.738 84.6347 443.738 84.912V90H442.922C442.783 90 442.644 90 442.506 90C442.367 90 442.228 90 442.09 90ZM451.877 90V81.6H453.525V90H451.877ZM452.677 79.744C452.325 79.744 452.053 79.6533 451.861 79.472C451.669 79.2907 451.573 79.0347 451.573 78.704C451.573 78.3947 451.669 78.144 451.861 77.952C452.064 77.76 452.336 77.664 452.677 77.664C453.029 77.664 453.301 77.7547 453.493 77.936C453.685 78.1173 453.781 78.3733 453.781 78.704C453.781 79.0133 453.68 79.264 453.477 79.456C453.285 79.648 453.018 79.744 452.677 79.744ZM458.858 90.16C458.154 90.16 457.52 90.0373 456.954 89.792C456.389 89.5467 455.92 89.184 455.546 88.704L456.666 87.744C456.986 88.1173 457.333 88.3893 457.706 88.56C458.09 88.72 458.522 88.8 459.002 88.8C459.194 88.8 459.37 88.7787 459.53 88.736C459.701 88.6827 459.845 88.608 459.962 88.512C460.09 88.416 460.186 88.304 460.25 88.176C460.314 88.0373 460.346 87.888 460.346 87.728C460.346 87.4507 460.245 87.2267 460.042 87.056C459.936 86.9813 459.765 86.9013 459.53 86.816C459.306 86.72 459.013 86.624 458.65 86.528C458.032 86.368 457.525 86.1867 457.13 85.984C456.736 85.7813 456.432 85.552 456.218 85.296C456.058 85.0933 455.941 84.8747 455.866 84.64C455.792 84.3947 455.754 84.128 455.754 83.84C455.754 83.488 455.829 83.168 455.978 82.88C456.138 82.5813 456.352 82.3253 456.618 82.112C456.896 81.888 457.216 81.7173 457.578 81.6C457.952 81.4827 458.346 81.424 458.762 81.424C459.157 81.424 459.546 81.4773 459.93 81.584C460.325 81.6907 460.688 81.8453 461.018 82.048C461.349 82.2507 461.626 82.4907 461.85 82.768L460.906 83.808C460.704 83.6053 460.48 83.4293 460.234 83.28C460 83.12 459.76 82.9973 459.514 82.912C459.269 82.8267 459.045 82.784 458.842 82.784C458.618 82.784 458.416 82.8053 458.234 82.848C458.053 82.8907 457.898 82.9547 457.77 83.04C457.653 83.1253 457.562 83.232 457.498 83.36C457.434 83.488 457.402 83.632 457.402 83.792C457.413 83.9307 457.445 84.064 457.498 84.192C457.562 84.3093 457.648 84.4107 457.754 84.496C457.872 84.5813 458.048 84.672 458.282 84.768C458.517 84.864 458.816 84.9547 459.178 85.04C459.712 85.1787 460.149 85.3333 460.49 85.504C460.842 85.664 461.12 85.8507 461.322 86.064C461.536 86.2667 461.685 86.5013 461.77 86.768C461.856 87.0347 461.898 87.3333 461.898 87.664C461.898 88.144 461.76 88.576 461.482 88.96C461.216 89.3333 460.853 89.6267 460.394 89.84C459.936 90.0533 459.424 90.16 458.858 90.16ZM472.615 90.16C472.252 90.16 471.89 90.1013 471.527 89.984C471.175 89.8667 470.85 89.712 470.551 89.52C470.263 89.3173 470.018 89.0987 469.815 88.864C469.623 88.6187 469.495 88.3733 469.431 88.128L469.847 87.904V89.952H468.199V78.16H469.847V83.52L469.591 83.376C469.644 83.1307 469.762 82.896 469.943 82.672C470.124 82.4373 470.354 82.2293 470.631 82.048C470.919 81.856 471.228 81.7067 471.559 81.6C471.89 81.4827 472.226 81.424 472.567 81.424C473.324 81.424 473.996 81.6107 474.583 81.984C475.17 82.3573 475.634 82.8747 475.975 83.536C476.316 84.1867 476.487 84.9333 476.487 85.776C476.487 86.6187 476.316 87.3707 475.975 88.032C475.644 88.6933 475.186 89.216 474.599 89.6C474.012 89.9733 473.351 90.16 472.615 90.16ZM472.343 88.656C472.834 88.656 473.271 88.5333 473.655 88.288C474.039 88.032 474.343 87.6907 474.567 87.264C474.791 86.8267 474.903 86.3307 474.903 85.776C474.903 85.232 474.791 84.7467 474.567 84.32C474.354 83.8827 474.055 83.5413 473.671 83.296C473.287 83.0507 472.844 82.928 472.343 82.928C471.842 82.928 471.399 83.0507 471.015 83.296C470.631 83.5413 470.327 83.8827 470.103 84.32C469.879 84.7467 469.767 85.232 469.767 85.776C469.767 86.3307 469.879 86.8267 470.103 87.264C470.327 87.6907 470.631 88.032 471.015 88.288C471.399 88.5333 471.842 88.656 472.343 88.656ZM478.549 90V81.6H480.197V90H478.549ZM479.349 79.744C478.997 79.744 478.725 79.6533 478.533 79.472C478.341 79.2907 478.245 79.0347 478.245 78.704C478.245 78.3947 478.341 78.144 478.533 77.952C478.736 77.76 479.008 77.664 479.349 77.664C479.701 77.664 479.973 77.7547 480.165 77.936C480.357 78.1173 480.453 78.3733 480.453 78.704C480.453 79.0133 480.352 79.264 480.149 79.456C479.957 79.648 479.69 79.744 479.349 79.744ZM482.762 90V78.16H484.41V90H482.762ZM486.778 90V78.16H488.426V90H486.778ZM495.518 90V81.6H497.166V90H495.518ZM496.318 79.744C495.966 79.744 495.694 79.6533 495.502 79.472C495.31 79.2907 495.214 79.0347 495.214 78.704C495.214 78.3947 495.31 78.144 495.502 77.952C495.704 77.76 495.976 77.664 496.318 77.664C496.67 77.664 496.942 77.7547 497.134 77.936C497.326 78.1173 497.422 78.3733 497.422 78.704C497.422 79.0133 497.32 79.264 497.118 79.456C496.926 79.648 496.659 79.744 496.318 79.744ZM502.499 90.16C501.795 90.16 501.16 90.0373 500.595 89.792C500.03 89.5467 499.56 89.184 499.187 88.704L500.307 87.744C500.627 88.1173 500.974 88.3893 501.347 88.56C501.731 88.72 502.163 88.8 502.643 88.8C502.835 88.8 503.011 88.7787 503.171 88.736C503.342 88.6827 503.486 88.608 503.603 88.512C503.731 88.416 503.827 88.304 503.891 88.176C503.955 88.0373 503.987 87.888 503.987 87.728C503.987 87.4507 503.886 87.2267 503.683 87.056C503.576 86.9813 503.406 86.9013 503.171 86.816C502.947 86.72 502.654 86.624 502.291 86.528C501.672 86.368 501.166 86.1867 500.771 85.984C500.376 85.7813 500.072 85.552 499.859 85.296C499.699 85.0933 499.582 84.8747 499.507 84.64C499.432 84.3947 499.395 84.128 499.395 83.84C499.395 83.488 499.47 83.168 499.619 82.88C499.779 82.5813 499.992 82.3253 500.259 82.112C500.536 81.888 500.856 81.7173 501.219 81.6C501.592 81.4827 501.987 81.424 502.403 81.424C502.798 81.424 503.187 81.4773 503.571 81.584C503.966 81.6907 504.328 81.8453 504.659 82.048C504.99 82.2507 505.267 82.4907 505.491 82.768L504.547 83.808C504.344 83.6053 504.12 83.4293 503.875 83.28C503.64 83.12 503.4 82.9973 503.155 82.912C502.91 82.8267 502.686 82.784 502.483 82.784C502.259 82.784 502.056 82.8053 501.875 82.848C501.694 82.8907 501.539 82.9547 501.411 83.04C501.294 83.1253 501.203 83.232 501.139 83.36C501.075 83.488 501.043 83.632 501.043 83.792C501.054 83.9307 501.086 84.064 501.139 84.192C501.203 84.3093 501.288 84.4107 501.395 84.496C501.512 84.5813 501.688 84.672 501.923 84.768C502.158 84.864 502.456 84.9547 502.819 85.04C503.352 85.1787 503.79 85.3333 504.131 85.504C504.483 85.664 504.76 85.8507 504.963 86.064C505.176 86.2667 505.326 86.5013 505.411 86.768C505.496 87.0347 505.539 87.3333 505.539 87.664C505.539 88.144 505.4 88.576 505.123 88.96C504.856 89.3333 504.494 89.6267 504.035 89.84C503.576 90.0533 503.064 90.16 502.499 90.16ZM515.072 90.16C514.378 90.16 513.744 89.968 513.168 89.584C512.602 89.2 512.149 88.6773 511.808 88.016C511.466 87.3547 511.296 86.608 511.296 85.776C511.296 84.9333 511.466 84.1867 511.808 83.536C512.16 82.8747 512.629 82.3573 513.216 81.984C513.813 81.6107 514.48 81.424 515.216 81.424C515.653 81.424 516.053 81.488 516.416 81.616C516.778 81.744 517.093 81.9253 517.36 82.16C517.637 82.384 517.861 82.6453 518.032 82.944C518.213 83.2427 518.325 83.5627 518.368 83.904L518 83.776V81.6H519.664V90H518V88L518.384 87.888C518.32 88.176 518.186 88.4587 517.984 88.736C517.792 89.0027 517.541 89.2427 517.232 89.456C516.933 89.6693 516.597 89.84 516.224 89.968C515.861 90.096 515.477 90.16 515.072 90.16ZM515.504 88.64C516.005 88.64 516.448 88.5173 516.832 88.272C517.216 88.0267 517.514 87.6907 517.728 87.264C517.952 86.8267 518.064 86.3307 518.064 85.776C518.064 85.232 517.952 84.7467 517.728 84.32C517.514 83.8933 517.216 83.5573 516.832 83.312C516.448 83.0667 516.005 82.944 515.504 82.944C515.013 82.944 514.576 83.0667 514.192 83.312C513.818 83.5573 513.52 83.8933 513.296 84.32C513.082 84.7467 512.976 85.232 512.976 85.776C512.976 86.3307 513.082 86.8267 513.296 87.264C513.52 87.6907 513.818 88.0267 514.192 88.272C514.576 88.5173 515.013 88.64 515.504 88.64ZM524.765 90.16C524.061 90.16 523.426 90.0373 522.861 89.792C522.295 89.5467 521.826 89.184 521.453 88.704L522.573 87.744C522.893 88.1173 523.239 88.3893 523.613 88.56C523.997 88.72 524.429 88.8 524.909 88.8C525.101 88.8 525.277 88.7787 525.437 88.736C525.607 88.6827 525.751 88.608 525.869 88.512C525.997 88.416 526.093 88.304 526.157 88.176C526.221 88.0373 526.253 87.888 526.253 87.728C526.253 87.4507 526.151 87.2267 525.949 87.056C525.842 86.9813 525.671 86.9013 525.437 86.816C525.213 86.72 524.919 86.624 524.557 86.528C523.938 86.368 523.431 86.1867 523.037 85.984C522.642 85.7813 522.338 85.552 522.125 85.296C521.965 85.0933 521.847 84.8747 521.773 84.64C521.698 84.3947 521.661 84.128 521.661 83.84C521.661 83.488 521.735 83.168 521.885 82.88C522.045 82.5813 522.258 82.3253 522.525 82.112C522.802 81.888 523.122 81.7173 523.485 81.6C523.858 81.4827 524.253 81.424 524.669 81.424C525.063 81.424 525.453 81.4773 525.837 81.584C526.231 81.6907 526.594 81.8453 526.925 82.048C527.255 82.2507 527.533 82.4907 527.757 82.768L526.813 83.808C526.61 83.6053 526.386 83.4293 526.141 83.28C525.906 83.12 525.666 82.9973 525.421 82.912C525.175 82.8267 524.951 82.784 524.749 82.784C524.525 82.784 524.322 82.8053 524.141 82.848C523.959 82.8907 523.805 82.9547 523.677 83.04C523.559 83.1253 523.469 83.232 523.405 83.36C523.341 83.488 523.309 83.632 523.309 83.792C523.319 83.9307 523.351 84.064 523.405 84.192C523.469 84.3093 523.554 84.4107 523.661 84.496C523.778 84.5813 523.954 84.672 524.189 84.768C524.423 84.864 524.722 84.9547 525.085 85.04C525.618 85.1787 526.055 85.3333 526.397 85.504C526.749 85.664 527.026 85.8507 527.229 86.064C527.442 86.2667 527.591 86.5013 527.677 86.768C527.762 87.0347 527.805 87.3333 527.805 87.664C527.805 88.144 527.666 88.576 527.389 88.96C527.122 89.3333 526.759 89.6267 526.301 89.84C525.842 90.0533 525.33 90.16 524.765 90.16ZM532.421 90.16C531.717 90.16 531.082 90.0373 530.517 89.792C529.951 89.5467 529.482 89.184 529.109 88.704L530.229 87.744C530.549 88.1173 530.895 88.3893 531.269 88.56C531.653 88.72 532.085 88.8 532.565 88.8C532.757 88.8 532.933 88.7787 533.093 88.736C533.263 88.6827 533.407 88.608 533.525 88.512C533.653 88.416 533.749 88.304 533.813 88.176C533.877 88.0373 533.909 87.888 533.909 87.728C533.909 87.4507 533.807 87.2267 533.605 87.056C533.498 86.9813 533.327 86.9013 533.093 86.816C532.869 86.72 532.575 86.624 532.213 86.528C531.594 86.368 531.087 86.1867 530.693 85.984C530.298 85.7813 529.994 85.552 529.781 85.296C529.621 85.0933 529.503 84.8747 529.429 84.64C529.354 84.3947 529.317 84.128 529.317 83.84C529.317 83.488 529.391 83.168 529.541 82.88C529.701 82.5813 529.914 82.3253 530.181 82.112C530.458 81.888 530.778 81.7173 531.141 81.6C531.514 81.4827 531.909 81.424 532.325 81.424C532.719 81.424 533.109 81.4773 533.493 81.584C533.887 81.6907 534.25 81.8453 534.581 82.048C534.911 82.2507 535.189 82.4907 535.413 82.768L534.469 83.808C534.266 83.6053 534.042 83.4293 533.797 83.28C533.562 83.12 533.322 82.9973 533.077 82.912C532.831 82.8267 532.607 82.784 532.405 82.784C532.181 82.784 531.978 82.8053 531.797 82.848C531.615 82.8907 531.461 82.9547 531.333 83.04C531.215 83.1253 531.125 83.232 531.061 83.36C530.997 83.488 530.965 83.632 530.965 83.792C530.975 83.9307 531.007 84.064 531.061 84.192C531.125 84.3093 531.21 84.4107 531.317 84.496C531.434 84.5813 531.61 84.672 531.845 84.768C532.079 84.864 532.378 84.9547 532.741 85.04C533.274 85.1787 533.711 85.3333 534.053 85.504C534.405 85.664 534.682 85.8507 534.885 86.064C535.098 86.2667 535.247 86.5013 535.333 86.768C535.418 87.0347 535.461 87.3333 535.461 87.664C535.461 88.144 535.322 88.576 535.045 88.96C534.778 89.3333 534.415 89.6267 533.957 89.84C533.498 90.0533 532.986 90.16 532.421 90.16ZM537.549 90V81.6H539.197V90H537.549ZM538.349 79.744C537.997 79.744 537.725 79.6533 537.533 79.472C537.341 79.2907 537.245 79.0347 537.245 78.704C537.245 78.3947 537.341 78.144 537.533 77.952C537.736 77.76 538.008 77.664 538.349 77.664C538.701 77.664 538.973 77.7547 539.165 77.936C539.357 78.1173 539.453 78.3733 539.453 78.704C539.453 79.0133 539.352 79.264 539.149 79.456C538.957 79.648 538.69 79.744 538.349 79.744ZM545.49 93.68C544.893 93.68 544.295 93.584 543.698 93.392C543.111 93.2107 542.637 92.9707 542.274 92.672L542.882 91.392C543.095 91.552 543.346 91.6907 543.634 91.808C543.922 91.936 544.226 92.032 544.546 92.096C544.866 92.1707 545.181 92.208 545.49 92.208C546.077 92.208 546.567 92.112 546.962 91.92C547.357 91.728 547.655 91.4453 547.858 91.072C548.061 90.6987 548.162 90.2347 548.162 89.68V88.064L548.338 88.176C548.285 88.5067 548.109 88.8267 547.81 89.136C547.522 89.4347 547.159 89.68 546.722 89.872C546.285 90.064 545.837 90.16 545.378 90.16C544.578 90.16 543.863 89.9733 543.234 89.6C542.615 89.216 542.125 88.6987 541.762 88.048C541.399 87.3867 541.218 86.6347 541.218 85.792C541.218 84.9493 541.394 84.2027 541.746 83.552C542.109 82.8907 542.599 82.3733 543.218 82C543.847 81.616 544.551 81.424 545.33 81.424C545.65 81.424 545.959 81.4667 546.258 81.552C546.557 81.6267 546.834 81.7387 547.09 81.888C547.346 82.0267 547.575 82.1813 547.778 82.352C547.981 82.5227 548.146 82.704 548.274 82.896C548.402 83.088 548.482 83.2693 548.514 83.44L548.162 83.568V81.6H549.81V89.488C549.81 90.16 549.709 90.752 549.506 91.264C549.314 91.7867 549.031 92.224 548.658 92.576C548.285 92.9387 547.831 93.2107 547.298 93.392C546.765 93.584 546.162 93.68 545.49 93.68ZM545.554 88.64C546.077 88.64 546.541 88.5173 546.946 88.272C547.351 88.0267 547.666 87.6907 547.89 87.264C548.114 86.8373 548.226 86.3467 548.226 85.792C548.226 85.2373 548.109 84.7467 547.874 84.32C547.65 83.8827 547.335 83.5413 546.93 83.296C546.535 83.0507 546.077 82.928 545.554 82.928C545.042 82.928 544.583 83.056 544.178 83.312C543.783 83.5573 543.469 83.8987 543.234 84.336C543.01 84.7627 542.898 85.248 542.898 85.792C542.898 86.336 543.01 86.8267 543.234 87.264C543.469 87.6907 543.783 88.0267 544.178 88.272C544.583 88.5173 545.042 88.64 545.554 88.64ZM552.121 90V81.6H553.769V83.328L553.481 83.52C553.587 83.1467 553.795 82.8053 554.105 82.496C554.414 82.176 554.782 81.92 555.209 81.728C555.635 81.5253 556.073 81.424 556.521 81.424C557.161 81.424 557.694 81.552 558.121 81.808C558.547 82.0533 558.867 82.432 559.081 82.944C559.294 83.456 559.401 84.1013 559.401 84.88V90H557.753V84.992C557.753 84.512 557.689 84.1173 557.561 83.808C557.433 83.488 557.235 83.2587 556.969 83.12C556.702 82.9707 556.371 82.9067 555.977 82.928C555.657 82.928 555.363 82.9813 555.097 83.088C554.83 83.184 554.595 83.3227 554.393 83.504C554.201 83.6853 554.046 83.8987 553.929 84.144C553.822 84.3787 553.769 84.6347 553.769 84.912V90H552.953C552.814 90 552.675 90 552.537 90C552.398 90 552.259 90 552.121 90ZM565.556 90.16C564.692 90.16 563.924 89.9787 563.252 89.616C562.591 89.2427 562.068 88.736 561.684 88.096C561.311 87.456 561.124 86.72 561.124 85.888C561.124 85.2267 561.231 84.624 561.444 84.08C561.658 83.536 561.951 83.0667 562.324 82.672C562.708 82.2667 563.162 81.9573 563.684 81.744C564.218 81.52 564.794 81.408 565.412 81.408C565.956 81.408 566.463 81.5147 566.932 81.728C567.402 81.9307 567.807 82.2133 568.148 82.576C568.5 82.9387 568.767 83.3707 568.948 83.872C569.14 84.3627 569.231 84.9013 569.22 85.488L569.204 86.192H562.34L561.972 84.88H567.78L567.54 85.152V84.768C567.508 84.416 567.391 84.1013 567.188 83.824C566.986 83.5467 566.73 83.328 566.42 83.168C566.111 83.008 565.775 82.928 565.412 82.928C564.836 82.928 564.351 83.04 563.956 83.264C563.562 83.4773 563.263 83.7973 563.06 84.224C562.858 84.64 562.756 85.1573 562.756 85.776C562.756 86.3627 562.879 86.8747 563.124 87.312C563.37 87.7387 563.716 88.0693 564.164 88.304C564.612 88.5387 565.13 88.656 565.716 88.656C566.132 88.656 566.516 88.5867 566.868 88.448C567.231 88.3093 567.62 88.0587 568.036 87.696L568.868 88.864C568.612 89.12 568.298 89.344 567.924 89.536C567.562 89.728 567.172 89.8827 566.756 90C566.351 90.1067 565.951 90.16 565.556 90.16ZM574.515 90.16C573.747 90.16 573.059 89.9733 572.451 89.6C571.854 89.216 571.379 88.6987 571.027 88.048C570.675 87.3867 570.499 86.6347 570.499 85.792C570.499 84.9493 570.67 84.2027 571.011 83.552C571.363 82.8907 571.838 82.3733 572.435 82C573.033 81.616 573.71 81.424 574.467 81.424C574.883 81.424 575.283 81.4933 575.667 81.632C576.062 81.76 576.414 81.9413 576.723 82.176C577.033 82.4 577.273 82.6507 577.443 82.928C577.625 83.1947 577.715 83.4667 577.715 83.744L577.235 83.776V78.16H578.883V90H577.235V88H577.555C577.555 88.256 577.47 88.512 577.299 88.768C577.129 89.0133 576.899 89.2427 576.611 89.456C576.334 89.6693 576.009 89.84 575.635 89.968C575.273 90.096 574.899 90.16 574.515 90.16ZM574.739 88.736C575.241 88.736 575.683 88.608 576.067 88.352C576.451 88.096 576.75 87.7493 576.963 87.312C577.187 86.864 577.299 86.3573 577.299 85.792C577.299 85.2267 577.187 84.7253 576.963 84.288C576.75 83.84 576.451 83.488 576.067 83.232C575.683 82.976 575.241 82.848 574.739 82.848C574.238 82.848 573.795 82.976 573.411 83.232C573.027 83.488 572.723 83.84 572.499 84.288C572.286 84.7253 572.179 85.2267 572.179 85.792C572.179 86.3573 572.286 86.864 572.499 87.312C572.723 87.7493 573.027 88.096 573.411 88.352C573.795 88.608 574.238 88.736 574.739 88.736Z" fill="white"/>
<mask id="path-12-inside-2_3550_109522" fill="white">
<path d="M0 154C0 149.582 3.58172 146 8 146H588C592.418 146 596 149.582 596 154V250C596 254.418 592.418 258 588 258H8.00002C3.58174 258 0 254.418 0 250V154Z"/>
</mask>
<path d="M0 154C0 149.582 3.58172 146 8 146H588C592.418 146 596 149.582 596 154V250C596 254.418 592.418 258 588 258H8.00002C3.58174 258 0 254.418 0 250V154Z" fill="url(#paint2_linear_3550_109522)" fill-opacity="0.1"/>
<path d="M8 146V147H588V146V145H8V146ZM596 154H595V250H596H597V154H596ZM588 258V257H8.00002V258V259H588V258ZM0 250H1V154H0H-1V250H0ZM8.00002 258V257C4.13402 257 1 253.866 1 250H0H-1C-1 254.971 3.02946 259 8.00002 259V258ZM596 250H595C595 253.866 591.866 257 588 257V258V259C592.971 259 597 254.971 597 250H596ZM588 146V147C591.866 147 595 150.134 595 154H596H597C597 149.029 592.971 145 588 145V146ZM8 146V145C3.02944 145 -1 149.029 -1 154H0H1C1 150.134 4.13401 147 8 147V146Z" fill="url(#paint3_linear_3550_109522)" fill-opacity="0.2" mask="url(#path-12-inside-2_3550_109522)"/>
<path d="M16.4 190L20.736 178.8H22.496L26.8 190H24.96L22.4 183.248C22.368 183.173 22.304 182.992 22.208 182.704C22.1227 182.416 22.0213 182.096 21.904 181.744C21.7867 181.392 21.68 181.072 21.584 180.784C21.488 180.485 21.424 180.293 21.392 180.208L21.76 180.192C21.696 180.373 21.616 180.603 21.52 180.88C21.4347 181.157 21.3387 181.451 21.232 181.76C21.136 182.069 21.04 182.363 20.944 182.64C20.848 182.907 20.768 183.131 20.704 183.312L18.16 190H16.4ZM18.32 187.216L18.96 185.552H24.048L24.784 187.216H18.32ZM28.7711 190V178.8H30.4671L34.5471 185.44L33.7311 185.424L37.8591 178.8H39.4591V190H37.7311V185.408C37.7311 184.448 37.7525 183.584 37.7951 182.816C37.8485 182.048 37.9338 181.285 38.0511 180.528L38.2751 181.12L34.6111 186.784H33.5551L30.0031 181.184L30.1791 180.528C30.2965 181.243 30.3765 181.979 30.4191 182.736C30.4725 183.483 30.4991 184.373 30.4991 185.408V190H28.7711ZM42.5993 190V178.8H47.1593C47.7673 178.8 48.3166 178.955 48.8073 179.264C49.3086 179.563 49.7086 179.973 50.0073 180.496C50.3059 181.019 50.4553 181.6 50.4553 182.24C50.4553 182.88 50.3059 183.461 50.0073 183.984C49.7086 184.507 49.3086 184.928 48.8073 185.248C48.3166 185.557 47.7673 185.712 47.1593 185.712H44.3273V190H42.5993ZM44.3273 184.048H47.1273C47.4153 184.048 47.6766 183.968 47.9113 183.808C48.1459 183.637 48.3326 183.419 48.4713 183.152C48.6206 182.875 48.6953 182.571 48.6953 182.24C48.6953 181.909 48.6206 181.611 48.4713 181.344C48.3326 181.077 48.1459 180.864 47.9113 180.704C47.6766 180.544 47.4153 180.464 47.1273 180.464H44.3273V184.048ZM60.0519 190V178.8H61.7799V190H60.0519ZM52.7399 190V178.8H54.4679V190H52.7399ZM53.4919 185.248V183.584H60.8199V185.248H53.4919ZM64.9118 190V178.8H71.9678V180.464H66.6398V188.336H71.9678V190H64.9118ZM65.6957 185.088V183.424H71.0878V185.088H65.6957ZM74.7399 190V178.8H76.2919L83.1399 187.968L82.8839 188.112C82.8412 187.845 82.8039 187.557 82.7719 187.248C82.7399 186.928 82.7079 186.592 82.6759 186.24C82.6545 185.877 82.6332 185.499 82.6119 185.104C82.6012 184.699 82.5905 184.277 82.5799 183.84C82.5692 183.403 82.5639 182.949 82.5639 182.48V178.8H84.2919V190H82.7079L75.9719 181.168L76.1479 180.944C76.2012 181.595 76.2439 182.149 76.2759 182.608C76.3185 183.056 76.3505 183.44 76.3719 183.76C76.4039 184.069 76.4252 184.325 76.4359 184.528C76.4465 184.72 76.4519 184.88 76.4519 185.008C76.4625 185.136 76.4679 185.248 76.4679 185.344V190H74.7399ZM92.1154 190.16C91.326 190.16 90.5954 190.016 89.9234 189.728C89.262 189.44 88.6807 189.04 88.1794 188.528C87.6887 188.005 87.3047 187.397 87.0274 186.704C86.7607 186 86.6274 185.232 86.6274 184.4C86.6274 183.568 86.7607 182.805 87.0274 182.112C87.3047 181.408 87.6887 180.8 88.1794 180.288C88.6807 179.765 89.262 179.36 89.9234 179.072C90.5954 178.784 91.326 178.64 92.1154 178.64C92.9047 178.64 93.63 178.784 94.2914 179.072C94.9634 179.36 95.5447 179.765 96.0354 180.288C96.5367 180.811 96.9207 181.424 97.1874 182.128C97.4647 182.821 97.6034 183.579 97.6034 184.4C97.6034 185.221 97.4647 185.984 97.1874 186.688C96.9207 187.381 96.5367 187.989 96.0354 188.512C95.5447 189.035 94.9634 189.44 94.2914 189.728C93.63 190.016 92.9047 190.16 92.1154 190.16ZM92.1154 188.48C92.6594 188.48 93.1554 188.379 93.6034 188.176C94.062 187.973 94.4567 187.691 94.7874 187.328C95.118 186.955 95.374 186.523 95.5554 186.032C95.7474 185.531 95.8434 184.987 95.8434 184.4C95.8434 183.813 95.7474 183.275 95.5554 182.784C95.374 182.283 95.118 181.851 94.7874 181.488C94.4567 181.115 94.062 180.827 93.6034 180.624C93.1554 180.421 92.6594 180.32 92.1154 180.32C91.5714 180.32 91.07 180.421 90.6114 180.624C90.1634 180.827 89.7687 181.109 89.4274 181.472C89.0967 181.835 88.8407 182.267 88.6594 182.768C88.478 183.259 88.3874 183.803 88.3874 184.4C88.3874 184.987 88.478 185.531 88.6594 186.032C88.8407 186.533 89.0967 186.965 89.4274 187.328C89.7687 187.691 90.1634 187.973 90.6114 188.176C91.07 188.379 91.5714 188.48 92.1154 188.48ZM99.943 190V178.8H101.671V188.336H106.919V190H99.943ZM118.694 190.16C117.904 190.16 117.174 190.016 116.502 189.728C115.84 189.44 115.259 189.04 114.758 188.528C114.267 188.005 113.883 187.397 113.606 186.704C113.339 186 113.206 185.232 113.206 184.4C113.206 183.568 113.339 182.805 113.606 182.112C113.883 181.408 114.267 180.8 114.758 180.288C115.259 179.765 115.84 179.36 116.502 179.072C117.174 178.784 117.904 178.64 118.694 178.64C119.483 178.64 120.208 178.784 120.87 179.072C121.542 179.36 122.123 179.765 122.614 180.288C123.115 180.811 123.499 181.424 123.766 182.128C124.043 182.821 124.182 183.579 124.182 184.4C124.182 185.221 124.043 185.984 123.766 186.688C123.499 187.381 123.115 187.989 122.614 188.512C122.123 189.035 121.542 189.44 120.87 189.728C120.208 190.016 119.483 190.16 118.694 190.16ZM118.694 188.48C119.238 188.48 119.734 188.379 120.182 188.176C120.64 187.973 121.035 187.691 121.366 187.328C121.696 186.955 121.952 186.523 122.134 186.032C122.326 185.531 122.422 184.987 122.422 184.4C122.422 183.813 122.326 183.275 122.134 182.784C121.952 182.283 121.696 181.851 121.366 181.488C121.035 181.115 120.64 180.827 120.182 180.624C119.734 180.421 119.238 180.32 118.694 180.32C118.15 180.32 117.648 180.421 117.19 180.624C116.742 180.827 116.347 181.109 116.006 181.472C115.675 181.835 115.419 182.267 115.238 182.768C115.056 183.259 114.966 183.803 114.966 184.4C114.966 184.987 115.056 185.531 115.238 186.032C115.419 186.533 115.675 186.965 116.006 187.328C116.347 187.691 116.742 187.973 117.19 188.176C117.648 188.379 118.15 188.48 118.694 188.48ZM126.521 190V178.8H128.217L132.297 185.44L131.481 185.424L135.609 178.8H137.209V190H135.481V185.408C135.481 184.448 135.502 183.584 135.545 182.816C135.598 182.048 135.684 181.285 135.801 180.528L136.025 181.12L132.361 186.784H131.305L127.753 181.184L127.929 180.528C128.046 181.243 128.126 181.979 128.169 182.736C128.222 183.483 128.249 184.373 128.249 185.408V190H126.521ZM140.349 190V178.8H141.901L148.749 187.968L148.493 188.112C148.451 187.845 148.413 187.557 148.381 187.248C148.349 186.928 148.317 186.592 148.285 186.24C148.264 185.877 148.243 185.499 148.221 185.104C148.211 184.699 148.2 184.277 148.189 183.84C148.179 183.403 148.173 182.949 148.173 182.48V178.8H149.901V190H148.317L141.581 181.168L141.757 180.944C141.811 181.595 141.853 182.149 141.885 182.608C141.928 183.056 141.96 183.44 141.981 183.76C142.013 184.069 142.035 184.325 142.045 184.528C142.056 184.72 142.061 184.88 142.061 185.008C142.072 185.136 142.077 185.248 142.077 185.344V190H140.349ZM152.621 190V188.4H154.429V180.4H152.621V178.8H157.965V180.4H156.157V188.4H157.965V190H152.621ZM164.987 190.16C164.208 190.16 163.494 190.021 162.843 189.744C162.192 189.467 161.627 189.072 161.147 188.56C160.667 188.037 160.294 187.424 160.027 186.72C159.771 186.016 159.643 185.243 159.643 184.4C159.643 183.6 159.782 182.859 160.059 182.176C160.347 181.483 160.742 180.875 161.243 180.352C161.744 179.829 162.326 179.424 162.987 179.136C163.648 178.848 164.363 178.704 165.131 178.704C165.675 178.704 166.203 178.789 166.715 178.96C167.238 179.12 167.707 179.349 168.123 179.648C168.55 179.936 168.896 180.267 169.163 180.64L168.011 181.84C167.702 181.531 167.387 181.275 167.067 181.072C166.758 180.859 166.438 180.699 166.107 180.592C165.787 180.485 165.462 180.432 165.131 180.432C164.608 180.432 164.118 180.533 163.659 180.736C163.211 180.928 162.816 181.2 162.475 181.552C162.144 181.904 161.883 182.325 161.691 182.816C161.499 183.296 161.403 183.824 161.403 184.4C161.403 185.008 161.494 185.563 161.675 186.064C161.867 186.555 162.134 186.976 162.475 187.328C162.816 187.68 163.222 187.952 163.691 188.144C164.171 188.325 164.699 188.416 165.275 188.416C165.627 188.416 165.974 188.368 166.315 188.272C166.656 188.176 166.976 188.037 167.275 187.856C167.574 187.675 167.846 187.461 168.091 187.216L168.955 188.624C168.71 188.912 168.374 189.173 167.947 189.408C167.531 189.643 167.062 189.829 166.539 189.968C166.027 190.096 165.51 190.16 164.987 190.16ZM175.99 190.16C175.201 190.16 174.47 190.016 173.798 189.728C173.137 189.44 172.556 189.04 172.054 188.528C171.564 188.005 171.18 187.397 170.902 186.704C170.636 186 170.502 185.232 170.502 184.4C170.502 183.568 170.636 182.805 170.902 182.112C171.18 181.408 171.564 180.8 172.054 180.288C172.556 179.765 173.137 179.36 173.798 179.072C174.47 178.784 175.201 178.64 175.99 178.64C176.78 178.64 177.505 178.784 178.166 179.072C178.838 179.36 179.42 179.765 179.91 180.288C180.412 180.811 180.796 181.424 181.062 182.128C181.34 182.821 181.478 183.579 181.478 184.4C181.478 185.221 181.34 185.984 181.062 186.688C180.796 187.381 180.412 187.989 179.91 188.512C179.42 189.035 178.838 189.44 178.166 189.728C177.505 190.016 176.78 190.16 175.99 190.16ZM175.99 188.48C176.534 188.48 177.03 188.379 177.478 188.176C177.937 187.973 178.332 187.691 178.662 187.328C178.993 186.955 179.249 186.523 179.43 186.032C179.622 185.531 179.718 184.987 179.718 184.4C179.718 183.813 179.622 183.275 179.43 182.784C179.249 182.283 178.993 181.851 178.662 181.488C178.332 181.115 177.937 180.827 177.478 180.624C177.03 180.421 176.534 180.32 175.99 180.32C175.446 180.32 174.945 180.421 174.486 180.624C174.038 180.827 173.644 181.109 173.302 181.472C172.972 181.835 172.716 182.267 172.534 182.768C172.353 183.259 172.262 183.803 172.262 184.4C172.262 184.987 172.353 185.531 172.534 186.032C172.716 186.533 172.972 186.965 173.302 187.328C173.644 187.691 174.038 187.973 174.486 188.176C174.945 188.379 175.446 188.48 175.99 188.48ZM183.818 190V178.8H185.37L192.218 187.968L191.962 188.112C191.919 187.845 191.882 187.557 191.85 187.248C191.818 186.928 191.786 186.592 191.754 186.24C191.733 185.877 191.711 185.499 191.69 185.104C191.679 184.699 191.669 184.277 191.658 183.84C191.647 183.403 191.642 182.949 191.642 182.48V178.8H193.37V190H191.786L185.05 181.168L185.226 180.944C185.279 181.595 185.322 182.149 185.354 182.608C185.397 183.056 185.429 183.44 185.45 183.76C185.482 184.069 185.503 184.325 185.514 184.528C185.525 184.72 185.53 184.88 185.53 185.008C185.541 185.136 185.546 185.248 185.546 185.344V190H183.818ZM196.506 190V178.8H198.058L204.906 187.968L204.65 188.112C204.607 187.845 204.57 187.557 204.538 187.248C204.506 186.928 204.474 186.592 204.442 186.24C204.42 185.877 204.399 185.499 204.378 185.104C204.367 184.699 204.356 184.277 204.345 183.84C204.335 183.403 204.33 182.949 204.33 182.48V178.8H206.058V190H204.474L197.738 181.168L197.914 180.944C197.967 181.595 198.01 182.149 198.042 182.608C198.084 183.056 198.116 183.44 198.138 183.76C198.17 184.069 198.191 184.325 198.202 184.528C198.212 184.72 198.218 184.88 198.218 185.008C198.228 185.136 198.234 185.248 198.234 185.344V190H196.506ZM209.193 190V178.8H216.249V180.464H210.921V188.336H216.249V190H209.193ZM209.977 185.088V183.424H215.369V185.088H209.977ZM223.565 190.16C222.786 190.16 222.072 190.021 221.421 189.744C220.77 189.467 220.205 189.072 219.725 188.56C219.245 188.037 218.872 187.424 218.605 186.72C218.349 186.016 218.221 185.243 218.221 184.4C218.221 183.6 218.36 182.859 218.637 182.176C218.925 181.483 219.32 180.875 219.821 180.352C220.322 179.829 220.904 179.424 221.565 179.136C222.226 178.848 222.941 178.704 223.709 178.704C224.253 178.704 224.781 178.789 225.293 178.96C225.816 179.12 226.285 179.349 226.701 179.648C227.128 179.936 227.474 180.267 227.741 180.64L226.589 181.84C226.28 181.531 225.965 181.275 225.645 181.072C225.336 180.859 225.016 180.699 224.685 180.592C224.365 180.485 224.04 180.432 223.709 180.432C223.186 180.432 222.696 180.533 222.237 180.736C221.789 180.928 221.394 181.2 221.053 181.552C220.722 181.904 220.461 182.325 220.269 182.816C220.077 183.296 219.981 183.824 219.981 184.4C219.981 185.008 220.072 185.563 220.253 186.064C220.445 186.555 220.712 186.976 221.053 187.328C221.394 187.68 221.8 187.952 222.269 188.144C222.749 188.325 223.277 188.416 223.853 188.416C224.205 188.416 224.552 188.368 224.893 188.272C225.234 188.176 225.554 188.037 225.853 187.856C226.152 187.675 226.424 187.461 226.669 187.216L227.533 188.624C227.288 188.912 226.952 189.173 226.525 189.408C226.109 189.643 225.64 189.829 225.117 189.968C224.605 190.096 224.088 190.16 223.565 190.16ZM232.009 190V180.464H228.873V178.8H236.969V180.464H233.737V190H232.009ZM243.168 190V188.4H244.976V180.4H243.168V178.8H248.512V180.4H246.704V188.4H248.512V190H243.168ZM251.224 190V178.8H252.776L259.624 187.968L259.368 188.112C259.326 187.845 259.288 187.557 259.256 187.248C259.224 186.928 259.192 186.592 259.16 186.24C259.139 185.877 259.118 185.499 259.096 185.104C259.086 184.699 259.075 184.277 259.064 183.84C259.054 183.403 259.048 182.949 259.048 182.48V178.8H260.776V190H259.192L252.456 181.168L252.632 180.944C252.686 181.595 252.728 182.149 252.76 182.608C252.803 183.056 252.835 183.44 252.856 183.76C252.888 184.069 252.91 184.325 252.92 184.528C252.931 184.72 252.936 184.88 252.936 185.008C252.947 185.136 252.952 185.248 252.952 185.344V190H251.224ZM263.912 190V178.8H268.296C269.096 178.8 269.816 178.933 270.456 179.2C271.106 179.467 271.661 179.851 272.12 180.352C272.578 180.853 272.93 181.445 273.176 182.128C273.421 182.811 273.544 183.568 273.544 184.4C273.544 185.232 273.421 185.995 273.176 186.688C272.93 187.371 272.578 187.963 272.12 188.464C271.672 188.955 271.122 189.333 270.472 189.6C269.821 189.867 269.096 190 268.296 190H263.912ZM265.64 188.512L265.592 188.336H268.216C268.781 188.336 269.282 188.245 269.72 188.064C270.168 187.883 270.541 187.627 270.84 187.296C271.149 186.955 271.384 186.539 271.544 186.048C271.704 185.557 271.784 185.008 271.784 184.4C271.784 183.792 271.704 183.248 271.544 182.768C271.384 182.277 271.149 181.861 270.84 181.52C270.53 181.179 270.157 180.917 269.72 180.736C269.282 180.555 268.781 180.464 268.216 180.464H265.544L265.64 180.32V188.512ZM275.23 190V188.4H277.038V180.4H275.23V178.8H280.574V180.4H278.766V188.4H280.574V190H275.23ZM282.119 190L286.455 178.8H288.215L292.519 190H290.679L288.119 183.248C288.087 183.173 288.023 182.992 287.927 182.704C287.841 182.416 287.74 182.096 287.623 181.744C287.505 181.392 287.399 181.072 287.303 180.784C287.207 180.485 287.143 180.293 287.111 180.208L287.479 180.192C287.415 180.373 287.335 180.603 287.239 180.88C287.153 181.157 287.057 181.451 286.951 181.76C286.855 182.069 286.759 182.363 286.663 182.64C286.567 182.907 286.487 183.131 286.423 183.312L283.879 190H282.119ZM284.039 187.216L284.679 185.552H289.767L290.503 187.216H284.039ZM298.974 190V178.8H303.534C304.142 178.8 304.692 178.955 305.182 179.264C305.684 179.563 306.084 179.973 306.382 180.496C306.681 181.019 306.83 181.6 306.83 182.24C306.83 182.88 306.681 183.461 306.382 183.984C306.084 184.507 305.684 184.928 305.182 185.248C304.692 185.557 304.142 185.712 303.534 185.712H300.702V190H298.974ZM300.702 184.048H303.502C303.79 184.048 304.052 183.968 304.286 183.808C304.521 183.637 304.708 183.419 304.846 183.152C304.996 182.875 305.07 182.571 305.07 182.24C305.07 181.909 304.996 181.611 304.846 181.344C304.708 181.077 304.521 180.864 304.286 180.704C304.052 180.544 303.79 180.464 303.502 180.464H300.702V184.048ZM312.411 190L307.931 178.8H309.899L312.571 185.6C312.699 185.931 312.811 186.229 312.907 186.496C313.014 186.763 313.104 187.008 313.179 187.232C313.254 187.445 313.323 187.648 313.387 187.84C313.451 188.032 313.515 188.224 313.579 188.416L313.163 188.432C313.238 188.176 313.318 187.909 313.403 187.632C313.488 187.355 313.584 187.051 313.691 186.72C313.808 186.389 313.947 186.016 314.107 185.6L316.587 178.8H318.603L314.091 190H312.411ZM322.837 190V180.464H319.701V178.8H327.797V180.464H324.565V190H322.837ZM334.412 190V178.8H336.14V188.336H341.388V190H334.412ZM344.774 190V180.464H341.638V178.8H349.734V180.464H346.502V190H344.774ZM351.865 190V178.8H356.249C357.049 178.8 357.769 178.933 358.409 179.2C359.06 179.467 359.614 179.851 360.073 180.352C360.532 180.853 360.884 181.445 361.129 182.128C361.374 182.811 361.497 183.568 361.497 184.4C361.497 185.232 361.374 185.995 361.129 186.688C360.884 187.371 360.532 187.963 360.073 188.464C359.625 188.955 359.076 189.333 358.425 189.6C357.774 189.867 357.049 190 356.249 190H351.865ZM353.593 188.512L353.545 188.336H356.169C356.734 188.336 357.236 188.245 357.673 188.064C358.121 187.883 358.494 187.627 358.793 187.296C359.102 186.955 359.337 186.539 359.497 186.048C359.657 185.557 359.737 185.008 359.737 184.4C359.737 183.792 359.657 183.248 359.497 182.768C359.337 182.277 359.102 181.861 358.793 181.52C358.484 181.179 358.11 180.917 357.673 180.736C357.236 180.555 356.734 180.464 356.169 180.464H353.497L353.593 180.32V188.512Z" fill="white"/>
<path d="M19.312 225.456V215.792L19.776 216.144L17.696 217.392L17.328 216.272L20.096 214.64H20.576V225.456H19.312ZM17.664 226V224.784H22.256V226H17.664ZM25.0401 226L29.7441 215.536L29.9521 215.968H23.9521V214.8H30.7041L30.9121 215.776L26.4001 226H25.0401ZM33.8981 226V215.456H35.0981V226H33.8981ZM32.0101 218.8V217.648H37.2101V218.8H32.0101ZM38.6836 226V214.16H39.8836V219.472L39.6436 219.712C39.761 219.275 39.9796 218.891 40.2996 218.56C40.6196 218.219 40.993 217.952 41.4196 217.76C41.857 217.568 42.2996 217.472 42.7476 217.472C43.3876 217.472 43.921 217.595 44.3476 217.84C44.7743 218.085 45.089 218.464 45.2916 218.976C45.505 219.488 45.6116 220.139 45.6116 220.928V226H44.3956V220.992C44.3956 220.437 44.321 219.984 44.1716 219.632C44.033 219.269 43.8143 219.003 43.5156 218.832C43.217 218.661 42.8436 218.581 42.3956 218.592C42.0436 218.592 41.713 218.656 41.4036 218.784C41.0943 218.901 40.8276 219.067 40.6036 219.28C40.3796 219.493 40.2036 219.739 40.0756 220.016C39.9476 220.293 39.8836 220.592 39.8836 220.912V226H39.2916C39.217 226 39.1316 226 39.0356 226C38.9396 226 38.8223 226 38.6836 226ZM55.4268 226.16C55.0641 226.16 54.7228 226.112 54.4028 226.016C54.0828 225.931 53.7841 225.803 53.5068 225.632C53.2294 225.451 52.9788 225.232 52.7548 224.976C52.5308 224.72 52.3334 224.437 52.1628 224.128L52.9948 223.264C53.1868 223.584 53.3788 223.851 53.5707 224.064C53.7734 224.277 53.9708 224.448 54.1628 224.576C54.3654 224.704 54.5681 224.795 54.7708 224.848C54.9841 224.901 55.2028 224.928 55.4268 224.928C55.8641 224.928 56.2481 224.827 56.5788 224.624C56.9201 224.411 57.1814 224.123 57.3628 223.76C57.5548 223.387 57.6508 222.965 57.6508 222.496V215.984H55.6188V214.8H60.5788V215.984H58.9308V222.592C58.9308 223.104 58.8454 223.579 58.6748 224.016C58.5041 224.453 58.2641 224.832 57.9548 225.152C57.6454 225.472 57.2774 225.723 56.8508 225.904C56.4241 226.075 55.9494 226.16 55.4268 226.16ZM64.6593 226.16C64.0193 226.16 63.4753 226.032 63.0273 225.776C62.5899 225.509 62.2539 225.125 62.0193 224.624C61.7953 224.123 61.6833 223.499 61.6833 222.752V217.648H62.8993V222.512C62.8993 223.077 62.9739 223.552 63.1233 223.936C63.2833 224.309 63.5179 224.592 63.8273 224.784C64.1473 224.976 64.5366 225.072 64.9953 225.072C65.3473 225.072 65.6726 225.013 65.9713 224.896C66.2699 224.768 66.5313 224.597 66.7553 224.384C66.9793 224.171 67.1553 223.92 67.2833 223.632C67.4113 223.344 67.4753 223.04 67.4753 222.72V217.648H68.6753V226H67.4913L67.4433 224.24L67.6353 224.144C67.5073 224.517 67.2939 224.859 66.9953 225.168C66.6966 225.467 66.3393 225.707 65.9233 225.888C65.5179 226.069 65.0966 226.16 64.6593 226.16ZM71.0118 226V217.648H72.1957L72.2438 219.392L72.0518 219.472C72.1584 219.109 72.3664 218.779 72.6758 218.48C72.9851 218.181 73.3531 217.941 73.7798 217.76C74.2171 217.568 74.6651 217.472 75.1238 217.472C75.7424 217.472 76.2598 217.595 76.6758 217.84C77.0918 218.085 77.4064 218.464 77.6198 218.976C77.8331 219.488 77.9398 220.139 77.9398 220.928V226H76.7238V220.992C76.7238 220.437 76.6491 219.984 76.4998 219.632C76.3611 219.269 76.1424 219.003 75.8438 218.832C75.5451 218.661 75.1771 218.581 74.7398 218.592C74.3771 218.592 74.0411 218.656 73.7318 218.784C73.4224 218.901 73.1558 219.067 72.9318 219.28C72.7078 219.493 72.5318 219.739 72.4038 220.016C72.2758 220.293 72.2118 220.592 72.2118 220.912V226H71.6198C71.5451 226 71.4598 226 71.3638 226C71.2678 226 71.1504 226 71.0118 226ZM83.9105 226.16C83.0785 226.16 82.3372 225.979 81.6865 225.616C81.0465 225.253 80.5452 224.747 80.1825 224.096C79.8198 223.445 79.6385 222.699 79.6385 221.856C79.6385 221.205 79.7398 220.619 79.9425 220.096C80.1452 219.563 80.4278 219.099 80.7905 218.704C81.1638 218.309 81.6065 218.005 82.1185 217.792C82.6305 217.568 83.1852 217.456 83.7825 217.456C84.3478 217.456 84.8598 217.557 85.3185 217.76C85.7878 217.963 86.1878 218.245 86.5185 218.608C86.8598 218.96 87.1158 219.381 87.2865 219.872C87.4572 220.363 87.5318 220.901 87.5105 221.488L87.4945 222.048H80.5345L80.3585 221.04H86.5825L86.2945 221.312V220.928C86.2732 220.544 86.1612 220.176 85.9585 219.824C85.7558 219.461 85.4678 219.168 85.0945 218.944C84.7318 218.72 84.2945 218.608 83.7825 218.608C83.1852 218.608 82.6678 218.731 82.2305 218.976C81.7932 219.211 81.4572 219.563 81.2225 220.032C80.9878 220.501 80.8705 221.083 80.8705 221.776C80.8705 222.437 80.9985 223.013 81.2545 223.504C81.5105 223.984 81.8732 224.357 82.3425 224.624C82.8225 224.891 83.3985 225.024 84.0705 225.024C84.4652 225.024 84.8545 224.96 85.2385 224.832C85.6332 224.693 86.0652 224.427 86.5345 224.032L87.1585 224.896C86.9132 225.141 86.6198 225.36 86.2785 225.552C85.9372 225.733 85.5638 225.883 85.1585 226C84.7532 226.107 84.3372 226.16 83.9105 226.16ZM94.0193 226L93.6353 225.072L97.4113 220.832C97.5926 220.629 97.7793 220.4 97.9713 220.144C98.1739 219.888 98.3606 219.621 98.5313 219.344C98.7126 219.056 98.8566 218.773 98.9633 218.496C99.0699 218.219 99.1233 217.947 99.1233 217.68C99.1233 217.285 99.0379 216.955 98.8673 216.688C98.6966 216.411 98.4513 216.197 98.1313 216.048C97.8219 215.899 97.4593 215.824 97.0433 215.824C96.6806 215.824 96.3233 215.909 95.9713 216.08C95.6193 216.251 95.2993 216.512 95.0113 216.864C94.7233 217.216 94.4993 217.664 94.3393 218.208L93.3473 217.616C93.5393 216.965 93.8219 216.421 94.1953 215.984C94.5686 215.536 95.0113 215.2 95.5233 214.976C96.0353 214.752 96.5846 214.64 97.1713 214.64C97.7899 214.64 98.3446 214.768 98.8353 215.024C99.3259 215.269 99.7153 215.621 100.003 216.08C100.291 216.528 100.435 217.045 100.435 217.632C100.435 217.888 100.403 218.144 100.339 218.4C100.286 218.656 100.201 218.912 100.083 219.168C99.9659 219.424 99.8219 219.685 99.6513 219.952C99.4913 220.219 99.2993 220.491 99.0753 220.768C98.8619 221.045 98.6219 221.333 98.3553 221.632L95.1393 225.216L94.9473 224.8H100.787V226H94.0193ZM106.193 226.16C105.318 226.16 104.572 225.931 103.953 225.472C103.345 225.013 102.876 224.357 102.545 223.504C102.225 222.64 102.065 221.605 102.065 220.4C102.065 219.195 102.225 218.165 102.545 217.312C102.876 216.448 103.345 215.787 103.953 215.328C104.572 214.869 105.318 214.64 106.193 214.64C107.057 214.64 107.798 214.869 108.417 215.328C109.036 215.787 109.505 216.448 109.825 217.312C110.156 218.165 110.321 219.195 110.321 220.4C110.321 221.605 110.156 222.64 109.825 223.504C109.505 224.357 109.036 225.013 108.417 225.472C107.798 225.931 107.057 226.16 106.193 226.16ZM106.193 224.992C107.11 224.992 107.814 224.592 108.305 223.792C108.806 222.992 109.057 221.861 109.057 220.4C109.057 218.939 108.806 217.808 108.305 217.008C107.814 216.208 107.11 215.808 106.193 215.808C105.265 215.808 104.55 216.208 104.049 217.008C103.558 217.808 103.313 218.939 103.313 220.4C103.313 221.861 103.558 222.992 104.049 223.792C104.55 224.592 105.265 224.992 106.193 224.992ZM112.582 226L112.198 225.072L115.974 220.832C116.155 220.629 116.342 220.4 116.534 220.144C116.736 219.888 116.923 219.621 117.094 219.344C117.275 219.056 117.419 218.773 117.526 218.496C117.632 218.219 117.686 217.947 117.686 217.68C117.686 217.285 117.6 216.955 117.43 216.688C117.259 216.411 117.014 216.197 116.694 216.048C116.384 215.899 116.022 215.824 115.606 215.824C115.243 215.824 114.886 215.909 114.534 216.08C114.182 216.251 113.862 216.512 113.574 216.864C113.286 217.216 113.062 217.664 112.902 218.208L111.91 217.616C112.102 216.965 112.384 216.421 112.758 215.984C113.131 215.536 113.574 215.2 114.086 214.976C114.598 214.752 115.147 214.64 115.734 214.64C116.352 214.64 116.907 214.768 117.398 215.024C117.888 215.269 118.278 215.621 118.566 216.08C118.854 216.528 118.998 217.045 118.998 217.632C118.998 217.888 118.966 218.144 118.902 218.4C118.848 218.656 118.763 218.912 118.646 219.168C118.528 219.424 118.384 219.685 118.214 219.952C118.054 220.219 117.862 220.491 117.638 220.768C117.424 221.045 117.184 221.333 116.918 221.632L113.702 225.216L113.51 224.8H119.35V226H112.582ZM125.627 226V216.288L125.979 216.4L121.339 222.064L121.211 221.776H128.795V222.96H120.747L120.155 221.776L125.867 214.8H126.843V226H125.627Z" fill="white"/>
<path d="M452.456 190V178.8H457.416C458.109 178.8 458.739 178.96 459.304 179.28C459.869 179.589 460.312 180.011 460.632 180.544C460.963 181.077 461.128 181.685 461.128 182.368C461.128 183.04 460.963 183.653 460.632 184.208C460.312 184.752 459.869 185.184 459.304 185.504C458.739 185.824 458.109 185.984 457.416 185.984H454.776V190H452.456ZM458.808 190L455.96 184.944L458.424 184.544L461.592 190.016L458.808 190ZM454.776 184.032H457.304C457.592 184.032 457.843 183.968 458.056 183.84C458.28 183.701 458.451 183.515 458.568 183.28C458.685 183.035 458.744 182.763 458.744 182.464C458.744 182.144 458.675 181.867 458.536 181.632C458.397 181.397 458.195 181.216 457.928 181.088C457.661 180.949 457.352 180.88 457 180.88H454.776V184.032ZM466.187 190.16C465.398 190.16 464.694 190.032 464.075 189.776C463.467 189.509 462.976 189.147 462.603 188.688L464.011 187.472C464.342 187.824 464.71 188.08 465.115 188.24C465.52 188.389 465.926 188.464 466.331 188.464C466.491 188.464 466.635 188.448 466.763 188.416C466.902 188.373 467.019 188.32 467.115 188.256C467.211 188.181 467.28 188.096 467.323 188C467.376 187.893 467.403 187.781 467.403 187.664C467.403 187.429 467.307 187.243 467.115 187.104C467.008 187.051 466.843 186.987 466.619 186.912C466.395 186.827 466.107 186.736 465.755 186.64C465.211 186.501 464.747 186.341 464.363 186.16C463.99 185.968 463.691 185.755 463.467 185.52C463.275 185.296 463.126 185.056 463.019 184.8C462.923 184.533 462.875 184.24 462.875 183.92C462.875 183.536 462.96 183.189 463.131 182.88C463.302 182.56 463.536 182.288 463.835 182.064C464.144 181.84 464.496 181.669 464.891 181.552C465.286 181.424 465.702 181.36 466.139 181.36C466.576 181.36 467.003 181.413 467.419 181.52C467.835 181.627 468.219 181.781 468.571 181.984C468.934 182.176 469.248 182.405 469.515 182.672L468.299 184.016C468.107 183.835 467.888 183.669 467.643 183.52C467.408 183.371 467.163 183.253 466.907 183.168C466.651 183.083 466.422 183.04 466.219 183.04C466.038 183.04 465.872 183.056 465.723 183.088C465.584 183.12 465.467 183.168 465.371 183.232C465.275 183.296 465.2 183.381 465.147 183.488C465.104 183.584 465.083 183.691 465.083 183.808C465.083 183.925 465.11 184.037 465.163 184.144C465.227 184.251 465.312 184.341 465.419 184.416C465.536 184.48 465.707 184.555 465.931 184.64C466.166 184.725 466.48 184.821 466.875 184.928C467.387 185.067 467.819 185.221 468.171 185.392C468.534 185.563 468.822 185.76 469.035 185.984C469.216 186.176 469.35 186.395 469.435 186.64C469.52 186.885 469.563 187.157 469.563 187.456C469.563 187.979 469.414 188.448 469.115 188.864C468.827 189.269 468.427 189.589 467.915 189.824C467.403 190.048 466.827 190.16 466.187 190.16ZM472.031 190.176C471.615 190.176 471.295 190.059 471.071 189.824C470.847 189.589 470.735 189.253 470.735 188.816C470.735 188.421 470.852 188.101 471.087 187.856C471.332 187.6 471.647 187.472 472.031 187.472C472.436 187.472 472.751 187.589 472.975 187.824C473.199 188.059 473.311 188.389 473.311 188.816C473.311 189.221 473.194 189.552 472.959 189.808C472.724 190.053 472.415 190.176 472.031 190.176ZM482.314 189.216V180.128L482.906 181.2L480.57 182.336L480.106 180.208L483.226 178.64H484.682V189.216H482.314ZM480.346 190V187.84H486.698V190H480.346ZM491.962 190.112C491.151 190.112 490.415 189.947 489.754 189.616C489.103 189.275 488.559 188.784 488.122 188.144L489.418 186.704C489.877 187.216 490.293 187.568 490.666 187.76C491.039 187.941 491.45 188.032 491.898 188.032C492.271 188.032 492.607 187.952 492.906 187.792C493.205 187.632 493.439 187.413 493.61 187.136C493.781 186.859 493.866 186.549 493.866 186.208C493.866 185.856 493.781 185.541 493.61 185.264C493.439 184.987 493.21 184.768 492.922 184.608C492.645 184.437 492.325 184.352 491.962 184.352C491.727 184.352 491.509 184.373 491.306 184.416C491.103 184.448 490.879 184.517 490.634 184.624C490.389 184.72 490.09 184.864 489.738 185.056L488.65 183.616L489.338 178.736H495.642V180.8H490.554L491.146 180.096L490.618 183.648L489.85 183.28C490.01 183.131 490.229 182.992 490.506 182.864C490.794 182.736 491.103 182.629 491.434 182.544C491.775 182.459 492.106 182.416 492.426 182.416C493.13 182.416 493.754 182.576 494.298 182.896C494.853 183.216 495.29 183.664 495.61 184.24C495.941 184.805 496.106 185.456 496.106 186.192C496.106 186.928 495.925 187.595 495.562 188.192C495.199 188.779 494.703 189.248 494.074 189.6C493.445 189.941 492.741 190.112 491.962 190.112ZM498.345 193.088L497.641 192.24C498.057 192.037 498.387 191.792 498.633 191.504C498.889 191.216 499.017 190.965 499.017 190.752C499.017 190.656 498.99 190.555 498.937 190.448C498.883 190.341 498.766 190.208 498.585 190.048C498.35 189.867 498.19 189.696 498.105 189.536C498.03 189.365 497.993 189.184 497.993 188.992C497.993 188.683 498.105 188.437 498.329 188.256C498.553 188.075 498.841 187.984 499.193 187.984C499.481 187.984 499.742 188.069 499.977 188.24C500.222 188.4 500.414 188.629 500.553 188.928C500.691 189.216 500.761 189.552 500.761 189.936C500.761 190.277 500.702 190.608 500.585 190.928C500.467 191.259 500.297 191.563 500.073 191.84C499.859 192.128 499.603 192.379 499.305 192.592C499.017 192.805 498.697 192.971 498.345 193.088ZM506.663 190V180.944L507.783 181.008L503.847 185.824L503.575 185.424H510.839V187.456H502.407L501.415 185.568L507.063 178.736H508.983V190H506.663ZM516.078 190C515.512 190 514.979 189.899 514.478 189.696C513.987 189.493 513.555 189.211 513.182 188.848C512.819 188.485 512.531 188.059 512.318 187.568C512.115 187.077 512.014 186.549 512.014 185.984C512.014 185.632 512.056 185.275 512.142 184.912C512.227 184.539 512.344 184.155 512.493 183.76C512.654 183.365 512.846 182.955 513.07 182.528C513.294 182.101 513.544 181.659 513.822 181.2L515.358 178.624H517.598L517.662 178.784L515.63 182.064C515.342 182.533 515.086 182.981 514.862 183.408C514.648 183.835 514.456 184.245 514.286 184.64C514.126 185.035 513.976 185.435 513.838 185.84L513.374 184.56C513.512 184.197 513.699 183.872 513.934 183.584C514.168 183.285 514.435 183.035 514.734 182.832C515.032 182.619 515.347 182.459 515.678 182.352C516.008 182.235 516.334 182.176 516.654 182.176C517.283 182.176 517.859 182.347 518.382 182.688C518.915 183.019 519.336 183.461 519.646 184.016C519.966 184.571 520.126 185.179 520.126 185.84C520.126 186.64 519.95 187.355 519.598 187.984C519.256 188.603 518.776 189.093 518.158 189.456C517.55 189.819 516.856 190 516.078 190ZM516.11 187.968C516.472 187.968 516.792 187.888 517.07 187.728C517.358 187.557 517.582 187.323 517.742 187.024C517.902 186.725 517.982 186.384 517.982 186C517.982 185.669 517.896 185.36 517.726 185.072C517.566 184.773 517.342 184.533 517.054 184.352C516.776 184.171 516.467 184.08 516.126 184.08C515.752 184.08 515.416 184.171 515.118 184.352C514.83 184.523 514.6 184.752 514.43 185.04C514.27 185.317 514.19 185.632 514.19 185.984C514.19 186.368 514.27 186.709 514.43 187.008C514.6 187.296 514.83 187.531 515.118 187.712C515.406 187.883 515.736 187.968 516.11 187.968ZM525.81 190.16C524.85 190.16 524.028 189.931 523.346 189.472C522.674 189.013 522.156 188.357 521.794 187.504C521.442 186.64 521.266 185.605 521.266 184.4C521.266 183.195 521.442 182.165 521.794 181.312C522.156 180.448 522.674 179.787 523.346 179.328C524.028 178.869 524.85 178.64 525.81 178.64C526.77 178.64 527.591 178.869 528.274 179.328C528.956 179.787 529.474 180.448 529.826 181.312C530.188 182.165 530.37 183.195 530.37 184.4C530.37 185.605 530.188 186.64 529.826 187.504C529.474 188.357 528.956 189.013 528.274 189.472C527.591 189.931 526.77 190.16 525.81 190.16ZM525.81 188.096C526.524 188.096 527.079 187.776 527.474 187.136C527.868 186.496 528.066 185.584 528.066 184.4C528.066 183.195 527.868 182.267 527.474 181.616C527.079 180.965 526.524 180.64 525.81 180.64C525.084 180.64 524.524 180.965 524.13 181.616C523.746 182.267 523.554 183.195 523.554 184.4C523.554 185.584 523.746 186.496 524.13 187.136C524.524 187.776 525.084 188.096 525.81 188.096ZM533.031 190.176C532.615 190.176 532.295 190.059 532.071 189.824C531.847 189.589 531.735 189.253 531.735 188.816C531.735 188.421 531.852 188.101 532.087 187.856C532.332 187.6 532.647 187.472 533.031 187.472C533.436 187.472 533.751 187.589 533.975 187.824C534.199 188.059 534.311 188.389 534.311 188.816C534.311 189.221 534.194 189.552 533.959 189.808C533.724 190.053 533.415 190.176 533.031 190.176ZM540.216 190.16C539.256 190.16 538.435 189.931 537.752 189.472C537.08 189.013 536.563 188.357 536.2 187.504C535.848 186.64 535.672 185.605 535.672 184.4C535.672 183.195 535.848 182.165 536.2 181.312C536.563 180.448 537.08 179.787 537.752 179.328C538.435 178.869 539.256 178.64 540.216 178.64C541.176 178.64 541.997 178.869 542.68 179.328C543.363 179.787 543.88 180.448 544.232 181.312C544.595 182.165 544.776 183.195 544.776 184.4C544.776 185.605 544.595 186.64 544.232 187.504C543.88 188.357 543.363 189.013 542.68 189.472C541.997 189.931 541.176 190.16 540.216 190.16ZM540.216 188.096C540.931 188.096 541.485 187.776 541.88 187.136C542.275 186.496 542.472 185.584 542.472 184.4C542.472 183.195 542.275 182.267 541.88 181.616C541.485 180.965 540.931 180.64 540.216 180.64C539.491 180.64 538.931 180.965 538.536 181.616C538.152 182.267 537.96 183.195 537.96 184.4C537.96 185.584 538.152 186.496 538.536 187.136C538.931 187.776 539.491 188.096 540.216 188.096ZM550.669 190.16C549.709 190.16 548.888 189.931 548.205 189.472C547.533 189.013 547.016 188.357 546.653 187.504C546.301 186.64 546.125 185.605 546.125 184.4C546.125 183.195 546.301 182.165 546.653 181.312C547.016 180.448 547.533 179.787 548.205 179.328C548.888 178.869 549.709 178.64 550.669 178.64C551.629 178.64 552.45 178.869 553.133 179.328C553.816 179.787 554.333 180.448 554.685 181.312C555.048 182.165 555.229 183.195 555.229 184.4C555.229 185.605 555.048 186.64 554.685 187.504C554.333 188.357 553.816 189.013 553.133 189.472C552.45 189.931 551.629 190.16 550.669 190.16ZM550.669 188.096C551.384 188.096 551.938 187.776 552.333 187.136C552.728 186.496 552.925 185.584 552.925 184.4C552.925 183.195 552.728 182.267 552.333 181.616C551.938 180.965 551.384 180.64 550.669 180.64C549.944 180.64 549.384 180.965 548.989 181.616C548.605 182.267 548.413 183.195 548.413 184.4C548.413 185.584 548.605 186.496 548.989 187.136C549.384 187.776 549.944 188.096 550.669 188.096Z" fill="white"/>
<path d="M562.75 179.25L564.75 177.25" stroke="#F08B32" stroke-width="2" stroke-linecap="round" stroke-linejoin="round"/>
<path d="M577.25 179.25L575.25 177.25" stroke="#F08B32" stroke-width="2" stroke-linecap="round" stroke-linejoin="round"/>
<path d="M564 190.5L566.5 188" stroke="#F08B32" stroke-width="2" stroke-linecap="round" stroke-linejoin="round"/>
<path d="M576 190.5L573.5 188" stroke="#F08B32" stroke-width="2" stroke-linecap="round" stroke-linejoin="round"/>
<path d="M570 178C566.416 178 563.5 180.916 563.5 184.5C563.5 188.084 566.416 191 570 191C573.584 191 576.5 188.084 576.5 184.5C576.5 180.916 573.584 178 570 178ZM572.707 186.707C572.512 186.902 572.256 187 572 187C571.744 187 571.488 186.902 571.293 186.707L569.293 184.707C569.106 184.519 569 184.265 569 184V181C569 180.448 569.448 180 570 180C570.552 180 571 180.448 571 181V183.586L572.707 185.293C573.098 185.684 573.098 186.316 572.707 186.707Z" fill="#F08B32"/>
<path d="M439.883 226V216.016H436.683V214.8H444.459V216.016H441.131V226H439.883ZM446.09 226V214.16H447.29V219.472L447.05 219.712C447.167 219.275 447.386 218.891 447.706 218.56C448.026 218.219 448.399 217.952 448.826 217.76C449.263 217.568 449.706 217.472 450.154 217.472C450.794 217.472 451.327 217.595 451.754 217.84C452.181 218.085 452.495 218.464 452.698 218.976C452.911 219.488 453.018 220.139 453.018 220.928V226H451.802V220.992C451.802 220.437 451.727 219.984 451.578 219.632C451.439 219.269 451.221 219.003 450.922 218.832C450.623 218.661 450.25 218.581 449.802 218.592C449.45 218.592 449.119 218.656 448.81 218.784C448.501 218.901 448.234 219.067 448.01 219.28C447.786 219.493 447.61 219.739 447.482 220.016C447.354 220.293 447.29 220.592 447.29 220.912V226H446.698C446.623 226 446.538 226 446.442 226C446.346 226 446.229 226 446.09 226ZM455.629 226V217.648H456.829V226H455.629ZM456.221 215.84C455.922 215.84 455.693 215.765 455.533 215.616C455.383 215.456 455.309 215.243 455.309 214.976C455.309 214.709 455.389 214.496 455.549 214.336C455.709 214.176 455.933 214.096 456.221 214.096C456.509 214.096 456.733 214.176 456.893 214.336C457.053 214.485 457.133 214.699 457.133 214.976C457.133 215.232 457.053 215.44 456.893 215.6C456.733 215.76 456.509 215.84 456.221 215.84ZM462.185 226.16C461.471 226.16 460.831 226.027 460.265 225.76C459.7 225.493 459.252 225.141 458.921 224.704L459.769 223.968C460.079 224.341 460.441 224.624 460.857 224.816C461.284 225.008 461.759 225.104 462.281 225.104C462.548 225.104 462.788 225.077 463.001 225.024C463.215 224.96 463.401 224.869 463.561 224.752C463.721 224.635 463.844 224.496 463.929 224.336C464.015 224.176 464.057 224 464.057 223.808C464.057 223.456 463.903 223.163 463.593 222.928C463.455 222.832 463.257 222.736 463.001 222.64C462.745 222.533 462.436 222.432 462.073 222.336C461.476 222.165 460.98 221.995 460.585 221.824C460.191 221.643 459.881 221.435 459.657 221.2C459.497 221.008 459.375 220.8 459.289 220.576C459.215 220.352 459.177 220.107 459.177 219.84C459.177 219.499 459.247 219.184 459.385 218.896C459.535 218.608 459.737 218.357 459.993 218.144C460.26 217.92 460.569 217.755 460.921 217.648C461.284 217.531 461.673 217.472 462.089 217.472C462.484 217.472 462.873 217.525 463.257 217.632C463.641 217.739 463.999 217.893 464.329 218.096C464.66 218.299 464.943 218.539 465.177 218.816L464.441 219.616C464.239 219.403 464.015 219.211 463.769 219.04C463.524 218.869 463.263 218.736 462.985 218.64C462.719 218.544 462.441 218.496 462.153 218.496C461.897 218.496 461.657 218.528 461.433 218.592C461.22 218.656 461.033 218.747 460.873 218.864C460.724 218.971 460.607 219.104 460.521 219.264C460.447 219.424 460.409 219.6 460.409 219.792C460.409 219.952 460.441 220.096 460.505 220.224C460.569 220.352 460.66 220.464 460.777 220.56C460.927 220.677 461.135 220.789 461.401 220.896C461.679 220.992 462.02 221.093 462.425 221.2C462.895 221.328 463.289 221.461 463.609 221.6C463.94 221.728 464.212 221.883 464.425 222.064C464.713 222.277 464.916 222.523 465.033 222.8C465.161 223.077 465.225 223.392 465.225 223.744C465.225 224.213 465.092 224.629 464.825 224.992C464.569 225.355 464.212 225.643 463.753 225.856C463.295 226.059 462.772 226.16 462.185 226.16ZM475.83 226.16C475.435 226.16 475.051 226.101 474.678 225.984C474.305 225.856 473.963 225.685 473.654 225.472C473.355 225.259 473.099 225.013 472.886 224.736C472.683 224.459 472.545 224.171 472.47 223.872L472.822 223.888L472.774 225.984H471.59V214.16H472.79V219.648L472.55 219.712C472.625 219.413 472.758 219.131 472.95 218.864C473.153 218.587 473.403 218.347 473.702 218.144C474.001 217.931 474.326 217.765 474.678 217.648C475.041 217.531 475.414 217.472 475.798 217.472C476.545 217.472 477.211 217.659 477.798 218.032C478.395 218.405 478.87 218.917 479.222 219.568C479.574 220.219 479.75 220.965 479.75 221.808C479.75 222.651 479.579 223.403 479.238 224.064C478.897 224.715 478.427 225.227 477.83 225.6C477.243 225.973 476.577 226.16 475.83 226.16ZM475.638 225.024C476.203 225.024 476.705 224.885 477.142 224.608C477.579 224.32 477.921 223.936 478.166 223.456C478.422 222.965 478.55 222.416 478.55 221.808C478.55 221.189 478.422 220.64 478.166 220.16C477.921 219.68 477.579 219.301 477.142 219.024C476.705 218.747 476.203 218.608 475.638 218.608C475.073 218.608 474.571 218.747 474.134 219.024C473.697 219.301 473.35 219.68 473.094 220.16C472.849 220.64 472.726 221.189 472.726 221.808C472.726 222.427 472.849 222.981 473.094 223.472C473.35 223.952 473.697 224.331 474.134 224.608C474.571 224.885 475.073 225.024 475.638 225.024ZM481.816 226V217.648H483.016V226H481.816ZM482.408 215.84C482.109 215.84 481.88 215.765 481.72 215.616C481.571 215.456 481.496 215.243 481.496 214.976C481.496 214.709 481.576 214.496 481.736 214.336C481.896 214.176 482.12 214.096 482.408 214.096C482.696 214.096 482.92 214.176 483.08 214.336C483.24 214.485 483.32 214.699 483.32 214.976C483.32 215.232 483.24 215.44 483.08 215.6C482.92 215.76 482.696 215.84 482.408 215.84ZM485.669 226V214.16H486.869V226H485.669ZM489.263 226V214.16H490.463V226H489.263ZM497.629 226V217.648H498.829V226H497.629ZM498.221 215.84C497.922 215.84 497.693 215.765 497.533 215.616C497.383 215.456 497.309 215.243 497.309 214.976C497.309 214.709 497.389 214.496 497.549 214.336C497.709 214.176 497.933 214.096 498.221 214.096C498.509 214.096 498.733 214.176 498.893 214.336C499.053 214.485 499.133 214.699 499.133 214.976C499.133 215.232 499.053 215.44 498.893 215.6C498.733 215.76 498.509 215.84 498.221 215.84ZM504.185 226.16C503.471 226.16 502.831 226.027 502.265 225.76C501.7 225.493 501.252 225.141 500.921 224.704L501.769 223.968C502.079 224.341 502.441 224.624 502.857 224.816C503.284 225.008 503.759 225.104 504.281 225.104C504.548 225.104 504.788 225.077 505.001 225.024C505.215 224.96 505.401 224.869 505.561 224.752C505.721 224.635 505.844 224.496 505.929 224.336C506.015 224.176 506.057 224 506.057 223.808C506.057 223.456 505.903 223.163 505.593 222.928C505.455 222.832 505.257 222.736 505.001 222.64C504.745 222.533 504.436 222.432 504.073 222.336C503.476 222.165 502.98 221.995 502.585 221.824C502.191 221.643 501.881 221.435 501.657 221.2C501.497 221.008 501.375 220.8 501.289 220.576C501.215 220.352 501.177 220.107 501.177 219.84C501.177 219.499 501.247 219.184 501.385 218.896C501.535 218.608 501.737 218.357 501.993 218.144C502.26 217.92 502.569 217.755 502.921 217.648C503.284 217.531 503.673 217.472 504.089 217.472C504.484 217.472 504.873 217.525 505.257 217.632C505.641 217.739 505.999 217.893 506.329 218.096C506.66 218.299 506.943 218.539 507.177 218.816L506.441 219.616C506.239 219.403 506.015 219.211 505.769 219.04C505.524 218.869 505.263 218.736 504.985 218.64C504.719 218.544 504.441 218.496 504.153 218.496C503.897 218.496 503.657 218.528 503.433 218.592C503.22 218.656 503.033 218.747 502.873 218.864C502.724 218.971 502.607 219.104 502.521 219.264C502.447 219.424 502.409 219.6 502.409 219.792C502.409 219.952 502.441 220.096 502.505 220.224C502.569 220.352 502.66 220.464 502.777 220.56C502.927 220.677 503.135 220.789 503.401 220.896C503.679 220.992 504.02 221.093 504.425 221.2C504.895 221.328 505.289 221.461 505.609 221.6C505.94 221.728 506.212 221.883 506.425 222.064C506.713 222.277 506.916 222.523 507.033 222.8C507.161 223.077 507.225 223.392 507.225 223.744C507.225 224.213 507.092 224.629 506.825 224.992C506.569 225.355 506.212 225.643 505.753 225.856C505.295 226.059 504.772 226.16 504.185 226.16ZM516.854 226.16C516.129 226.16 515.473 225.973 514.886 225.6C514.299 225.216 513.835 224.699 513.494 224.048C513.153 223.387 512.982 222.64 512.982 221.808C512.982 220.965 513.158 220.219 513.51 219.568C513.862 218.917 514.331 218.405 514.918 218.032C515.515 217.659 516.182 217.472 516.918 217.472C517.355 217.472 517.761 217.536 518.134 217.664C518.507 217.792 518.838 217.973 519.126 218.208C519.425 218.432 519.67 218.699 519.862 219.008C520.065 219.307 520.203 219.632 520.278 219.984L519.926 219.808L519.974 217.648H521.174V226H519.958V223.952L520.278 223.744C520.203 224.064 520.059 224.373 519.846 224.672C519.633 224.96 519.371 225.216 519.062 225.44C518.763 225.664 518.422 225.84 518.038 225.968C517.665 226.096 517.27 226.16 516.854 226.16ZM517.126 225.008C517.681 225.008 518.177 224.875 518.614 224.608C519.051 224.331 519.393 223.952 519.638 223.472C519.894 222.981 520.022 222.427 520.022 221.808C520.022 221.189 519.894 220.64 519.638 220.16C519.393 219.68 519.051 219.301 518.614 219.024C518.177 218.747 517.681 218.608 517.126 218.608C516.561 218.608 516.059 218.747 515.622 219.024C515.195 219.301 514.854 219.68 514.598 220.16C514.353 220.64 514.23 221.189 514.23 221.808C514.23 222.416 514.353 222.965 514.598 223.456C514.843 223.936 515.185 224.315 515.622 224.592C516.059 224.869 516.561 225.008 517.126 225.008ZM526.248 226.16C525.533 226.16 524.893 226.027 524.328 225.76C523.762 225.493 523.314 225.141 522.984 224.704L523.832 223.968C524.141 224.341 524.504 224.624 524.92 224.816C525.346 225.008 525.821 225.104 526.344 225.104C526.61 225.104 526.85 225.077 527.064 225.024C527.277 224.96 527.464 224.869 527.624 224.752C527.784 224.635 527.906 224.496 527.992 224.336C528.077 224.176 528.12 224 528.12 223.808C528.12 223.456 527.965 223.163 527.656 222.928C527.517 222.832 527.32 222.736 527.064 222.64C526.808 222.533 526.498 222.432 526.136 222.336C525.538 222.165 525.042 221.995 524.648 221.824C524.253 221.643 523.944 221.435 523.72 221.2C523.56 221.008 523.437 220.8 523.352 220.576C523.277 220.352 523.24 220.107 523.24 219.84C523.24 219.499 523.309 219.184 523.448 218.896C523.597 218.608 523.8 218.357 524.056 218.144C524.322 217.92 524.632 217.755 524.984 217.648C525.346 217.531 525.736 217.472 526.152 217.472C526.546 217.472 526.936 217.525 527.32 217.632C527.704 217.739 528.061 217.893 528.392 218.096C528.722 218.299 529.005 218.539 529.24 218.816L528.504 219.616C528.301 219.403 528.077 219.211 527.832 219.04C527.586 218.869 527.325 218.736 527.048 218.64C526.781 218.544 526.504 218.496 526.216 218.496C525.96 218.496 525.72 218.528 525.496 218.592C525.282 218.656 525.096 218.747 524.936 218.864C524.786 218.971 524.669 219.104 524.584 219.264C524.509 219.424 524.472 219.6 524.472 219.792C524.472 219.952 524.504 220.096 524.568 220.224C524.632 220.352 524.722 220.464 524.84 220.56C524.989 220.677 525.197 220.789 525.464 220.896C525.741 220.992 526.082 221.093 526.488 221.2C526.957 221.328 527.352 221.461 527.672 221.6C528.002 221.728 528.274 221.883 528.488 222.064C528.776 222.277 528.978 222.523 529.096 222.8C529.224 223.077 529.288 223.392 529.288 223.744C529.288 224.213 529.154 224.629 528.888 224.992C528.632 225.355 528.274 225.643 527.816 225.856C527.357 226.059 526.834 226.16 526.248 226.16ZM533.904 226.16C533.189 226.16 532.549 226.027 531.984 225.76C531.419 225.493 530.971 225.141 530.64 224.704L531.488 223.968C531.797 224.341 532.16 224.624 532.576 224.816C533.003 225.008 533.477 225.104 534 225.104C534.267 225.104 534.507 225.077 534.72 225.024C534.933 224.96 535.12 224.869 535.28 224.752C535.44 224.635 535.563 224.496 535.648 224.336C535.733 224.176 535.776 224 535.776 223.808C535.776 223.456 535.621 223.163 535.312 222.928C535.173 222.832 534.976 222.736 534.72 222.64C534.464 222.533 534.155 222.432 533.792 222.336C533.195 222.165 532.699 221.995 532.304 221.824C531.909 221.643 531.6 221.435 531.376 221.2C531.216 221.008 531.093 220.8 531.008 220.576C530.933 220.352 530.896 220.107 530.896 219.84C530.896 219.499 530.965 219.184 531.104 218.896C531.253 218.608 531.456 218.357 531.712 218.144C531.979 217.92 532.288 217.755 532.64 217.648C533.003 217.531 533.392 217.472 533.808 217.472C534.203 217.472 534.592 217.525 534.976 217.632C535.36 217.739 535.717 217.893 536.048 218.096C536.379 218.299 536.661 218.539 536.896 218.816L536.16 219.616C535.957 219.403 535.733 219.211 535.488 219.04C535.243 218.869 534.981 218.736 534.704 218.64C534.437 218.544 534.16 218.496 533.872 218.496C533.616 218.496 533.376 218.528 533.152 218.592C532.939 218.656 532.752 218.747 532.592 218.864C532.443 218.971 532.325 219.104 532.24 219.264C532.165 219.424 532.128 219.6 532.128 219.792C532.128 219.952 532.16 220.096 532.224 220.224C532.288 220.352 532.379 220.464 532.496 220.56C532.645 220.677 532.853 220.789 533.12 220.896C533.397 220.992 533.739 221.093 534.144 221.2C534.613 221.328 535.008 221.461 535.328 221.6C535.659 221.728 535.931 221.883 536.144 222.064C536.432 222.277 536.635 222.523 536.752 222.8C536.88 223.077 536.944 223.392 536.944 223.744C536.944 224.213 536.811 224.629 536.544 224.992C536.288 225.355 535.931 225.643 535.472 225.856C535.013 226.059 534.491 226.16 533.904 226.16ZM539.144 226V217.648H540.344V226H539.144ZM539.736 215.84C539.438 215.84 539.208 215.765 539.048 215.616C538.899 215.456 538.824 215.243 538.824 214.976C538.824 214.709 538.904 214.496 539.064 214.336C539.224 214.176 539.448 214.096 539.736 214.096C540.024 214.096 540.248 214.176 540.408 214.336C540.568 214.485 540.648 214.699 540.648 214.976C540.648 215.232 540.568 215.44 540.408 215.6C540.248 215.76 540.024 215.84 539.736 215.84ZM546.565 229.68C545.946 229.68 545.36 229.584 544.805 229.392C544.25 229.2 543.792 228.96 543.429 228.672L543.909 227.664C544.122 227.835 544.368 227.984 544.645 228.112C544.933 228.251 545.242 228.357 545.573 228.432C545.904 228.517 546.24 228.56 546.581 228.56C547.2 228.56 547.722 228.443 548.149 228.208C548.586 227.984 548.917 227.648 549.141 227.2C549.376 226.752 549.493 226.197 549.493 225.536V223.936L549.685 223.888C549.589 224.293 549.381 224.672 549.061 225.024C548.741 225.365 548.352 225.643 547.893 225.856C547.434 226.059 546.949 226.16 546.437 226.16C545.658 226.16 544.96 225.973 544.341 225.6C543.733 225.227 543.253 224.715 542.901 224.064C542.549 223.403 542.373 222.656 542.373 221.824C542.373 220.981 542.549 220.235 542.901 219.584C543.264 218.923 543.749 218.405 544.357 218.032C544.965 217.659 545.648 217.472 546.405 217.472C546.736 217.472 547.056 217.515 547.365 217.6C547.674 217.675 547.957 217.787 548.213 217.936C548.48 218.085 548.72 218.256 548.933 218.448C549.146 218.64 549.322 218.848 549.461 219.072C549.61 219.296 549.717 219.525 549.781 219.76L549.445 219.712L549.493 217.648H550.693V225.488C550.693 226.16 550.597 226.752 550.405 227.264C550.213 227.787 549.93 228.224 549.557 228.576C549.194 228.939 548.757 229.211 548.245 229.392C547.744 229.584 547.184 229.68 546.565 229.68ZM546.581 225.008C547.146 225.008 547.648 224.875 548.085 224.608C548.533 224.331 548.885 223.952 549.141 223.472C549.397 222.992 549.525 222.437 549.525 221.808C549.525 221.189 549.397 220.64 549.141 220.16C548.896 219.68 548.549 219.301 548.101 219.024C547.653 218.747 547.146 218.608 546.581 218.608C546.005 218.608 545.493 218.747 545.045 219.024C544.608 219.301 544.261 219.68 544.005 220.16C543.749 220.64 543.621 221.189 543.621 221.808C543.621 222.416 543.744 222.965 543.989 223.456C544.245 223.936 544.592 224.315 545.029 224.592C545.477 224.869 545.994 225.008 546.581 225.008ZM553.027 226V217.648H554.211L554.259 219.392L554.067 219.472C554.174 219.109 554.382 218.779 554.691 218.48C555.001 218.181 555.369 217.941 555.795 217.76C556.233 217.568 556.681 217.472 557.139 217.472C557.758 217.472 558.275 217.595 558.691 217.84C559.107 218.085 559.422 218.464 559.635 218.976C559.849 219.488 559.955 220.139 559.955 220.928V226H558.739V220.992C558.739 220.437 558.665 219.984 558.515 219.632C558.377 219.269 558.158 219.003 557.859 218.832C557.561 218.661 557.193 218.581 556.755 218.592C556.393 218.592 556.057 218.656 555.747 218.784C555.438 218.901 555.171 219.067 554.947 219.28C554.723 219.493 554.547 219.739 554.419 220.016C554.291 220.293 554.227 220.592 554.227 220.912V226H553.635C553.561 226 553.475 226 553.379 226C553.283 226 553.166 226 553.027 226ZM565.926 226.16C565.094 226.16 564.353 225.979 563.702 225.616C563.062 225.253 562.561 224.747 562.198 224.096C561.835 223.445 561.654 222.699 561.654 221.856C561.654 221.205 561.755 220.619 561.958 220.096C562.161 219.563 562.443 219.099 562.806 218.704C563.179 218.309 563.622 218.005 564.134 217.792C564.646 217.568 565.201 217.456 565.798 217.456C566.363 217.456 566.875 217.557 567.334 217.76C567.803 217.963 568.203 218.245 568.534 218.608C568.875 218.96 569.131 219.381 569.302 219.872C569.473 220.363 569.547 220.901 569.526 221.488L569.51 222.048H562.55L562.374 221.04H568.598L568.31 221.312V220.928C568.289 220.544 568.177 220.176 567.974 219.824C567.771 219.461 567.483 219.168 567.11 218.944C566.747 218.72 566.31 218.608 565.798 218.608C565.201 218.608 564.683 218.731 564.246 218.976C563.809 219.211 563.473 219.563 563.238 220.032C563.003 220.501 562.886 221.083 562.886 221.776C562.886 222.437 563.014 223.013 563.27 223.504C563.526 223.984 563.889 224.357 564.358 224.624C564.838 224.891 565.414 225.024 566.086 225.024C566.481 225.024 566.87 224.96 567.254 224.832C567.649 224.693 568.081 224.427 568.55 224.032L569.174 224.896C568.929 225.141 568.635 225.36 568.294 225.552C567.953 225.733 567.579 225.883 567.174 226C566.769 226.107 566.353 226.16 565.926 226.16ZM574.623 226.16C573.865 226.16 573.183 225.973 572.575 225.6C571.977 225.227 571.503 224.715 571.151 224.064C570.809 223.403 570.639 222.656 570.639 221.824C570.639 220.981 570.815 220.235 571.167 219.584C571.519 218.923 571.993 218.405 572.591 218.032C573.188 217.659 573.86 217.472 574.607 217.472C575.023 217.472 575.423 217.536 575.807 217.664C576.201 217.792 576.553 217.973 576.863 218.208C577.172 218.432 577.428 218.693 577.631 218.992C577.833 219.28 577.956 219.584 577.999 219.904L577.631 219.776V214.16H578.831V226H577.647L577.615 223.92L577.919 223.808C577.876 224.107 577.753 224.4 577.551 224.688C577.359 224.965 577.113 225.216 576.815 225.44C576.516 225.664 576.175 225.84 575.791 225.968C575.417 226.096 575.028 226.16 574.623 226.16ZM574.799 225.056C575.353 225.056 575.849 224.917 576.287 224.64C576.724 224.363 577.065 223.979 577.311 223.488C577.567 222.997 577.695 222.437 577.695 221.808C577.695 221.179 577.567 220.624 577.311 220.144C577.065 219.653 576.724 219.269 576.287 218.992C575.849 218.704 575.353 218.56 574.799 218.56C574.223 218.56 573.716 218.704 573.279 218.992C572.852 219.269 572.511 219.653 572.255 220.144C572.009 220.624 571.887 221.179 571.887 221.808C571.887 222.427 572.009 222.981 572.255 223.472C572.5 223.963 572.841 224.352 573.279 224.64C573.716 224.917 574.223 225.056 574.799 225.056Z" fill="white"/>
<defs>
<linearGradient id="paint0_linear_3550_109522" x1="-269.503" y1="-104.947" x2="409.013" y2="391.741" gradientUnits="userSpaceOnUse">
<stop stop-color="white"/>
<stop offset="1" stop-color="white" stop-opacity="0"/>
</linearGradient>
<linearGradient id="paint1_linear_3550_109522" x1="-108.29" y1="-47.9649" x2="835.588" y2="591.212" gradientUnits="userSpaceOnUse">
<stop stop-color="#E5E5E5"/>
<stop offset="1" stop-color="white" stop-opacity="0"/>
</linearGradient>
<linearGradient id="paint2_linear_3550_109522" x1="-269.503" y1="31.0526" x2="409.013" y2="527.741" gradientUnits="userSpaceOnUse">
<stop stop-color="white"/>
<stop offset="1" stop-color="white" stop-opacity="0"/>
</linearGradient>
<linearGradient id="paint3_linear_3550_109522" x1="-108.29" y1="88.0351" x2="835.588" y2="727.212" gradientUnits="userSpaceOnUse">
<stop stop-color="#E5E5E5"/>
<stop offset="1" stop-color="white" stop-opacity="0"/>
</linearGradient>
</defs>
</svg>
