<svg width="25" height="24" viewBox="0 0 25 24" fill="none" xmlns="http://www.w3.org/2000/svg">
<path fill-rule="evenodd" clip-rule="evenodd" d="M21.332 4.5C21.332 2.84314 19.9889 1.5 18.332 1.5H6.33203C4.67518 1.5 3.33203 2.84314 3.33203 4.5V23.942L8.20703 20.5232L12.332 23.416L16.457 20.5232L21.332 23.942V4.5ZM7.08208 6H7.83211H11.5821H12.3321V7.5H11.5821H7.83211H7.08208V6ZM15.3321 6H14.5821V7.5H15.3321H16.8321H17.5821V6H16.8321H15.3321ZM7.08203 10.5H7.83203H11.582H12.332V12H11.582H7.83203H7.08203V10.5ZM15.332 10.5H14.582V12H15.332H16.832H17.582V10.5H16.832H15.332ZM7.08203 15H7.83203H11.582H12.332V16.5H11.582H7.83203H7.08203V15ZM15.332 15H14.582V16.5H15.332H16.832H17.582V15H16.832H15.332Z" fill="white"/>
</svg>
