<svg width="48" height="48" viewBox="0 0 48 48" fill="none" xmlns="http://www.w3.org/2000/svg">
<rect width="48" height="48" rx="4" fill="white" fill-opacity="0.1"/>
<path fill-rule="evenodd" clip-rule="evenodd" d="M33.8724 14.069C31.2534 11.446 27.7694 10.002 24.0584 10C16.4104 10 10.1854 16.224 10.1834 23.874C10.1824 26.32 10.8214 28.707 12.0354 30.81L10.0664 38L17.4214 36.071C19.4474 37.177 21.7294 37.759 24.0514 37.76H24.0574C31.7044 37.76 37.9294 31.536 37.9314 23.886C37.9324 20.178 36.4914 16.693 33.8714 14.071L33.8724 14.069ZM24.0584 35.416H24.0534C21.9844 35.416 19.9544 34.859 18.1834 33.809L17.7624 33.559L13.3974 34.704L14.5624 30.448L14.2884 30.012C13.1344 28.176 12.5244 26.054 12.5254 23.875C12.5284 17.517 17.7014 12.344 24.0624 12.344C27.1424 12.345 30.0374 13.546 32.2154 15.726C34.3924 17.905 35.5914 20.803 35.5894 23.884C35.5864 30.243 30.4144 35.416 24.0584 35.416ZM30.3834 26.78C30.0364 26.606 28.3324 25.768 28.0144 25.652C27.6964 25.536 27.4654 25.478 27.2344 25.826C27.0034 26.173 26.3394 26.954 26.1364 27.185C25.9344 27.417 25.7314 27.445 25.3854 27.271C25.0384 27.097 23.9214 26.731 22.5974 25.551C21.5674 24.632 20.8714 23.497 20.6684 23.149C20.4664 22.802 20.6474 22.614 20.8204 22.442C20.9764 22.286 21.1674 22.037 21.3404 21.835C21.5144 21.633 21.5714 21.488 21.6874 21.257C21.8034 21.025 21.7454 20.823 21.6584 20.65C21.5714 20.476 20.8784 18.77 20.5894 18.076C20.3084 17.4 20.0224 17.492 19.8094 17.481C19.6074 17.471 19.3764 17.469 19.1444 17.469C18.9124 17.469 18.5374 17.555 18.2194 17.903C17.9014 18.25 17.0064 19.089 17.0064 20.795C17.0064 22.501 18.2484 24.15 18.4224 24.382C18.5964 24.614 20.8674 28.115 24.3444 29.617C25.1714 29.974 25.8174 30.188 26.3214 30.347C27.1514 30.611 27.9074 30.574 28.5044 30.485C29.1704 30.385 30.5554 29.646 30.8444 28.836C31.1334 28.026 31.1334 27.332 31.0464 27.187C30.9594 27.042 30.7284 26.955 30.3814 26.782L30.3834 26.78Z" fill="white"/>
</svg>
