<svg width="48" height="48" viewBox="0 0 48 48" fill="none" xmlns="http://www.w3.org/2000/svg">
<path d="M7.83865 8.76546C8.21776 8.28165 8.79827 7.99902 9.41292 7.99902H38.8765C39.5035 7.99902 40.0942 8.29306 40.4722 8.79332L43.4989 12.799L44.1034 19.999H3.60339L4.20787 13.399L7.83865 8.76546Z" fill="white"/>
<path d="M4.00195 19.999H44.002" stroke="white" stroke-linecap="round"/>
<path d="M24.002 39.999H11.621C7.41312 39.999 4.00195 36.4173 4.00195 31.999V15.999C4.00195 11.5807 7.41312 7.99902 11.621 7.99902H36.3829C40.5908 7.99902 44.002 11.5807 44.002 15.999V27.999" stroke="white" stroke-linecap="round"/>
<path d="M28.998 38.001H43.998M28.998 38.001L33.998 33.001M28.998 38.001L33.998 43.001" stroke="white" stroke-linecap="round" stroke-linejoin="round"/>
</svg>
