<svg width="628" height="202" viewBox="0 0 628 202" fill="none" xmlns="http://www.w3.org/2000/svg">
<g filter="url(#filter0_d_3550_108085)">
<mask id="path-1-inside-1_3550_108085" fill="white">
<path d="M16 22C16 17.5817 19.5817 14 24 14H604C608.418 14 612 17.5817 612 22V176C612 180.418 608.418 184 604 184H24C19.5817 184 16 180.418 16 176V22Z"/>
</mask>
<path d="M16 22C16 17.5817 19.5817 14 24 14H604C608.418 14 612 17.5817 612 22V176C612 180.418 608.418 184 604 184H24C19.5817 184 16 180.418 16 176V22Z" fill="url(#paint0_linear_3550_108085)" fill-opacity="0.1"/>
<path d="M24 14V15H604V14V13H24V14ZM612 22H611V176H612H613V22H612ZM604 184V183H24V184V185H604V184ZM16 176H17V22H16H15V176H16ZM24 184V183C20.134 183 17 179.866 17 176H16H15C15 180.971 19.0295 185 24 185V184ZM612 176H611C611 179.866 607.866 183 604 183V184V185C608.971 185 613 180.971 613 176H612ZM604 14V15C607.866 15 611 18.134 611 22H612H613C613 17.0294 608.971 13 604 13V14ZM24 14V13C19.0294 13 15 17.0294 15 22H16H17C17 18.134 20.134 15 24 15V14Z" fill="url(#paint1_linear_3550_108085)" fill-opacity="0.2" mask="url(#path-1-inside-1_3550_108085)"/>
<path d="M33.233 87V76.8182H36.7926C37.5019 76.8182 38.0869 76.9408 38.5476 77.1861C39.0083 77.428 39.3513 77.7545 39.5767 78.1655C39.8021 78.5732 39.9148 79.0256 39.9148 79.5227C39.9148 79.9602 39.8369 80.3215 39.6811 80.6065C39.5286 80.8916 39.3265 81.117 39.0746 81.2827C38.826 81.4484 38.5559 81.571 38.2642 81.6506V81.75C38.5758 81.7699 38.889 81.8793 39.2038 82.0781C39.5187 82.277 39.7822 82.562 39.9943 82.9332C40.2064 83.3045 40.3125 83.7585 40.3125 84.2955C40.3125 84.8059 40.1965 85.2649 39.9645 85.6726C39.7325 86.0803 39.3662 86.4034 38.8658 86.642C38.3653 86.8807 37.714 87 36.9119 87H33.233ZM34.4659 85.9062H36.9119C37.7173 85.9062 38.2891 85.7505 38.6271 85.4389C38.9685 85.1241 39.1392 84.7429 39.1392 84.2955C39.1392 83.9508 39.0514 83.6326 38.8757 83.3409C38.7 83.0459 38.4498 82.8106 38.125 82.6349C37.8002 82.456 37.4157 82.3665 36.9716 82.3665H34.4659V85.9062ZM34.4659 81.2926H36.7528C37.1241 81.2926 37.4588 81.2197 37.7571 81.0739C38.0587 80.928 38.2973 80.7225 38.473 80.4574C38.652 80.1922 38.7415 79.8807 38.7415 79.5227C38.7415 79.0753 38.5857 78.6958 38.2741 78.3842C37.9626 78.0694 37.4688 77.9119 36.7926 77.9119H34.4659V81.2926ZM44.4265 87.179C43.9426 87.179 43.5034 87.0878 43.109 86.9055C42.7146 86.7199 42.4014 86.4531 42.1694 86.1051C41.9374 85.7538 41.8214 85.3295 41.8214 84.8324C41.8214 84.3949 41.9076 84.0402 42.0799 83.7685C42.2522 83.4934 42.4826 83.2779 42.771 83.1222C43.0593 82.9664 43.3775 82.8504 43.7255 82.7741C44.0768 82.6946 44.4298 82.6316 44.7844 82.5852C45.2485 82.5256 45.6246 82.4808 45.913 82.451C46.2047 82.4179 46.4168 82.3632 46.5494 82.2869C46.6853 82.2107 46.7532 82.0781 46.7532 81.8892V81.8494C46.7532 81.3589 46.619 80.9777 46.3505 80.706C46.0853 80.4342 45.6826 80.2983 45.1424 80.2983C44.5823 80.2983 44.1431 80.4209 43.8249 80.6662C43.5067 80.9115 43.283 81.1733 43.1538 81.4517L42.0401 81.054C42.239 80.59 42.5041 80.2287 42.8356 79.9702C43.1703 79.7083 43.5349 79.526 43.9293 79.4233C44.3271 79.3172 44.7182 79.2642 45.1026 79.2642C45.3479 79.2642 45.6296 79.294 45.9478 79.3537C46.2693 79.41 46.5792 79.5277 46.8775 79.7067C47.1791 79.8857 47.4293 80.1558 47.6282 80.517C47.8271 80.8783 47.9265 81.3622 47.9265 81.9688V87H46.7532V85.9659H46.6935C46.614 86.1316 46.4814 86.3089 46.2958 86.4979C46.1102 86.6868 45.8633 86.8475 45.555 86.9801C45.2468 87.1127 44.8706 87.179 44.4265 87.179ZM44.6055 86.125C45.0695 86.125 45.4606 86.0339 45.7788 85.8516C46.1003 85.6693 46.3422 85.4339 46.5046 85.1456C46.6703 84.8572 46.7532 84.554 46.7532 84.2358V83.1619C46.7035 83.2216 46.5941 83.2763 46.4251 83.326C46.2594 83.3724 46.0671 83.4138 45.8484 83.4503C45.6329 83.4834 45.4225 83.5133 45.217 83.5398C45.0148 83.563 44.8507 83.5829 44.7248 83.5994C44.4199 83.6392 44.1348 83.7038 43.8697 83.7933C43.6078 83.8795 43.3957 84.0104 43.2333 84.1861C43.0742 84.3584 42.9947 84.5937 42.9947 84.892C42.9947 85.2997 43.1455 85.608 43.4471 85.8168C43.752 86.0223 44.1381 86.125 44.6055 86.125ZM51.2413 82.4062V87H50.068V79.3636H51.2015V80.5568H51.301C51.4799 80.169 51.7517 79.8575 52.1163 79.6222C52.4809 79.3835 52.9515 79.2642 53.5282 79.2642C54.0453 79.2642 54.4977 79.3703 54.8855 79.5824C55.2733 79.7912 55.5749 80.1094 55.7903 80.5369C56.0057 80.9612 56.1135 81.4981 56.1135 82.1477V87H54.9402V82.2273C54.9402 81.6274 54.7844 81.16 54.4728 80.8253C54.1613 80.4872 53.7337 80.3182 53.1902 80.3182C52.8156 80.3182 52.4809 80.3994 52.1859 80.5618C51.8942 80.7242 51.6639 80.9612 51.4949 81.2727C51.3258 81.5843 51.2413 81.9621 51.2413 82.4062ZM59.3512 84.2159L59.3313 82.7642H59.57L62.9109 79.3636H64.3626L60.8029 82.9631H60.7035L59.3512 84.2159ZM58.2575 87V76.8182H59.4308V87H58.2575ZM63.1097 87L60.1268 83.2216L60.962 82.4062L64.6012 87H63.1097ZM69.9693 87V76.8182H71.1426V80.5767H71.242C71.3282 80.4441 71.4475 80.2751 71.6 80.0696C71.7557 79.8608 71.9778 79.6752 72.2662 79.5128C72.5578 79.3471 72.9522 79.2642 73.4494 79.2642C74.0924 79.2642 74.6592 79.425 75.1497 79.7464C75.6402 80.0679 76.023 80.5237 76.2981 81.1136C76.5732 81.7036 76.7108 82.3996 76.7108 83.2017C76.7108 84.0104 76.5732 84.7114 76.2981 85.3047C76.023 85.8946 75.6419 86.352 75.1547 86.6768C74.6674 86.9983 74.1056 87.1591 73.4693 87.1591C72.9788 87.1591 72.586 87.0779 72.291 86.9155C71.996 86.7498 71.769 86.5625 71.6099 86.3537C71.4508 86.1416 71.3282 85.9659 71.242 85.8267H71.1028V87H69.9693ZM71.1227 83.1818C71.1227 83.7585 71.2072 84.2673 71.3762 84.7081C71.5453 85.1456 71.7922 85.4886 72.117 85.7372C72.4418 85.9825 72.8395 86.1051 73.3102 86.1051C73.8007 86.1051 74.21 85.9759 74.5382 85.7173C74.8696 85.4555 75.1182 85.1042 75.2839 84.6634C75.4529 84.2192 75.5375 83.7254 75.5375 83.1818C75.5375 82.6449 75.4546 82.161 75.2889 81.7301C75.1265 81.2959 74.8796 80.9529 74.5481 80.701C74.22 80.4458 73.8074 80.3182 73.3102 80.3182C72.8329 80.3182 72.4319 80.4392 72.1071 80.6811C71.7823 80.9197 71.537 81.2545 71.3713 81.6854C71.2056 82.1129 71.1227 82.6117 71.1227 83.1818ZM80.7527 87.179C80.2688 87.179 79.8296 87.0878 79.4352 86.9055C79.0408 86.7199 78.7276 86.4531 78.4956 86.1051C78.2636 85.7538 78.1475 85.3295 78.1475 84.8324C78.1475 84.3949 78.2337 84.0402 78.4061 83.7685C78.5784 83.4934 78.8088 83.2779 79.0971 83.1222C79.3855 82.9664 79.7037 82.8504 80.0517 82.7741C80.403 82.6946 80.756 82.6316 81.1106 82.5852C81.5746 82.5256 81.9508 82.4808 82.2392 82.451C82.5308 82.4179 82.743 82.3632 82.8755 82.2869C83.0114 82.2107 83.0794 82.0781 83.0794 81.8892V81.8494C83.0794 81.3589 82.9451 80.9777 82.6767 80.706C82.4115 80.4342 82.0088 80.2983 81.4686 80.2983C80.9084 80.2983 80.4693 80.4209 80.1511 80.6662C79.8329 80.9115 79.6092 81.1733 79.4799 81.4517L78.3663 81.054C78.5652 80.59 78.8303 80.2287 79.1618 79.9702C79.4965 79.7083 79.8611 79.526 80.2555 79.4233C80.6532 79.3172 81.0443 79.2642 81.4288 79.2642C81.6741 79.2642 81.9558 79.294 82.274 79.3537C82.5955 79.41 82.9054 79.5277 83.2037 79.7067C83.5053 79.8857 83.7555 80.1558 83.9544 80.517C84.1532 80.8783 84.2527 81.3622 84.2527 81.9688V87H83.0794V85.9659H83.0197C82.9402 86.1316 82.8076 86.3089 82.622 86.4979C82.4364 86.6868 82.1895 86.8475 81.8812 86.9801C81.573 87.1127 81.1968 87.179 80.7527 87.179ZM80.9316 86.125C81.3957 86.125 81.7868 86.0339 82.1049 85.8516C82.4264 85.6693 82.6684 85.4339 82.8308 85.1456C82.9965 84.8572 83.0794 84.554 83.0794 84.2358V83.1619C83.0297 83.2216 82.9203 83.2763 82.7512 83.326C82.5855 83.3724 82.3933 83.4138 82.1745 83.4503C81.9591 83.4834 81.7486 83.5133 81.5431 83.5398C81.341 83.563 81.1769 83.5829 81.051 83.5994C80.746 83.6392 80.461 83.7038 80.1958 83.7933C79.934 83.8795 79.7219 84.0104 79.5595 84.1861C79.4004 84.3584 79.3208 84.5937 79.3208 84.892C79.3208 85.2997 79.4717 85.608 79.7733 85.8168C80.0782 86.0223 80.4643 86.125 80.9316 86.125ZM87.5675 76.8182V87H86.3942V76.8182H87.5675ZM91.9636 87.179C91.4797 87.179 91.0405 87.0878 90.6461 86.9055C90.2517 86.7199 89.9385 86.4531 89.7065 86.1051C89.4745 85.7538 89.3585 85.3295 89.3585 84.8324C89.3585 84.3949 89.4447 84.0402 89.617 83.7685C89.7894 83.4934 90.0197 83.2779 90.3081 83.1222C90.5964 82.9664 90.9146 82.8504 91.2626 82.7741C91.6139 82.6946 91.9669 82.6316 92.3216 82.5852C92.7856 82.5256 93.1618 82.4808 93.4501 82.451C93.7418 82.4179 93.9539 82.3632 94.0865 82.2869C94.2224 82.2107 94.2903 82.0781 94.2903 81.8892V81.8494C94.2903 81.3589 94.1561 80.9777 93.8876 80.706C93.6225 80.4342 93.2198 80.2983 92.6795 80.2983C92.1194 80.2983 91.6802 80.4209 91.362 80.6662C91.0439 80.9115 90.8201 81.1733 90.6909 81.4517L89.5772 81.054C89.7761 80.59 90.0413 80.2287 90.3727 79.9702C90.7074 79.7083 91.072 79.526 91.4664 79.4233C91.8642 79.3172 92.2553 79.2642 92.6397 79.2642C92.885 79.2642 93.1667 79.294 93.4849 79.3537C93.8064 79.41 94.1163 79.5277 94.4146 79.7067C94.7162 79.8857 94.9664 80.1558 95.1653 80.517C95.3642 80.8783 95.4636 81.3622 95.4636 81.9688V87H94.2903V85.9659H94.2306C94.1511 86.1316 94.0185 86.3089 93.8329 86.4979C93.6473 86.6868 93.4004 86.8475 93.0922 86.9801C92.7839 87.1127 92.4077 87.179 91.9636 87.179ZM92.1426 86.125C92.6066 86.125 92.9977 86.0339 93.3159 85.8516C93.6374 85.6693 93.8793 85.4339 94.0417 85.1456C94.2074 84.8572 94.2903 84.554 94.2903 84.2358V83.1619C94.2406 83.2216 94.1312 83.2763 93.9622 83.326C93.7965 83.3724 93.6042 83.4138 93.3855 83.4503C93.17 83.4834 92.9596 83.5133 92.7541 83.5398C92.5519 83.563 92.3878 83.5829 92.2619 83.5994C91.957 83.6392 91.6719 83.7038 91.4068 83.7933C91.1449 83.8795 90.9328 84.0104 90.7704 84.1861C90.6113 84.3584 90.5318 84.5937 90.5318 84.892C90.5318 85.2997 90.6826 85.608 90.9842 85.8168C91.2891 86.0223 91.6752 86.125 92.1426 86.125ZM98.7784 82.4062V87H97.6051V79.3636H98.7386V80.5568H98.8381C99.017 80.169 99.2888 79.8575 99.6534 79.6222C100.018 79.3835 100.489 79.2642 101.065 79.2642C101.582 79.2642 102.035 79.3703 102.423 79.5824C102.81 79.7912 103.112 80.1094 103.327 80.5369C103.543 80.9612 103.651 81.4981 103.651 82.1477V87H102.477V82.2273C102.477 81.6274 102.321 81.16 102.01 80.8253C101.698 80.4872 101.271 80.3182 100.727 80.3182C100.353 80.3182 100.018 80.3994 99.723 80.5618C99.4313 80.7242 99.201 80.9612 99.032 81.2727C98.8629 81.5843 98.7784 81.9621 98.7784 82.4062ZM108.897 87.1591C108.181 87.1591 107.564 86.9901 107.047 86.652C106.53 86.3139 106.133 85.8482 105.854 85.255C105.576 84.6617 105.437 83.9839 105.437 83.2216C105.437 82.446 105.579 81.7616 105.864 81.1683C106.153 80.5717 106.554 80.1061 107.067 79.7713C107.584 79.4332 108.188 79.2642 108.877 79.2642C109.414 79.2642 109.898 79.3636 110.329 79.5625C110.76 79.7614 111.113 80.0398 111.388 80.3977C111.663 80.7557 111.833 81.1733 111.9 81.6506H110.726C110.637 81.3026 110.438 80.9943 110.13 80.7259C109.825 80.4541 109.414 80.3182 108.897 80.3182C108.439 80.3182 108.038 80.4375 107.694 80.6761C107.352 80.9115 107.086 81.2446 106.893 81.6754C106.704 82.103 106.61 82.6051 106.61 83.1818C106.61 83.7718 106.703 84.2855 106.888 84.723C107.077 85.1605 107.342 85.5002 107.684 85.7422C108.028 85.9841 108.433 86.1051 108.897 86.1051C109.202 86.1051 109.479 86.0521 109.727 85.946C109.976 85.84 110.186 85.6875 110.358 85.4886C110.531 85.2898 110.653 85.0511 110.726 84.7727H111.9C111.833 85.2235 111.669 85.6295 111.407 85.9908C111.149 86.3487 110.806 86.6338 110.378 86.8459C109.954 87.0547 109.46 87.1591 108.897 87.1591ZM116.817 87.1591C116.081 87.1591 115.446 86.9967 114.912 86.6719C114.382 86.3438 113.973 85.8864 113.684 85.2997C113.399 84.7098 113.257 84.0237 113.257 83.2415C113.257 82.4593 113.399 81.7699 113.684 81.1733C113.973 80.5734 114.374 80.1061 114.888 79.7713C115.405 79.4332 116.008 79.2642 116.697 79.2642C117.095 79.2642 117.488 79.3305 117.876 79.4631C118.263 79.5956 118.616 79.8111 118.934 80.1094C119.253 80.4044 119.506 80.7955 119.695 81.2827C119.884 81.7699 119.979 82.3698 119.979 83.0824V83.5795H114.092V82.5653H118.785C118.785 82.1345 118.699 81.75 118.527 81.4119C118.358 81.0739 118.116 80.8071 117.801 80.6115C117.489 80.416 117.122 80.3182 116.697 80.3182C116.23 80.3182 115.826 80.4342 115.484 80.6662C115.146 80.8949 114.886 81.1932 114.704 81.5611C114.521 81.929 114.43 82.3234 114.43 82.7443V83.4205C114.43 83.9972 114.53 84.486 114.729 84.8871C114.931 85.2848 115.211 85.5881 115.569 85.7969C115.927 86.0024 116.343 86.1051 116.817 86.1051C117.125 86.1051 117.403 86.062 117.652 85.9759C117.904 85.8864 118.121 85.7538 118.303 85.5781C118.485 85.3991 118.626 85.1771 118.726 84.9119L119.859 85.2301C119.74 85.6146 119.539 85.9527 119.258 86.2443C118.976 86.5327 118.628 86.758 118.214 86.9205C117.799 87.0795 117.334 87.1591 116.817 87.1591Z" fill="white"/>
<path d="M33.233 125V114.818H36.7926C37.5019 114.818 38.0869 114.941 38.5476 115.186C39.0083 115.428 39.3513 115.754 39.5767 116.165C39.8021 116.573 39.9148 117.026 39.9148 117.523C39.9148 117.96 39.8369 118.321 39.6811 118.607C39.5286 118.892 39.3265 119.117 39.0746 119.283C38.826 119.448 38.5559 119.571 38.2642 119.651V119.75C38.5758 119.77 38.889 119.879 39.2038 120.078C39.5187 120.277 39.7822 120.562 39.9943 120.933C40.2064 121.304 40.3125 121.759 40.3125 122.295C40.3125 122.806 40.1965 123.265 39.9645 123.673C39.7325 124.08 39.3662 124.403 38.8658 124.642C38.3653 124.881 37.714 125 36.9119 125H33.233ZM34.4659 123.906H36.9119C37.7173 123.906 38.2891 123.75 38.6271 123.439C38.9685 123.124 39.1392 122.743 39.1392 122.295C39.1392 121.951 39.0514 121.633 38.8757 121.341C38.7 121.046 38.4498 120.811 38.125 120.635C37.8002 120.456 37.4157 120.366 36.9716 120.366H34.4659V123.906ZM34.4659 119.293H36.7528C37.1241 119.293 37.4588 119.22 37.7571 119.074C38.0587 118.928 38.2973 118.723 38.473 118.457C38.652 118.192 38.7415 117.881 38.7415 117.523C38.7415 117.075 38.5857 116.696 38.2741 116.384C37.9626 116.069 37.4688 115.912 36.7926 115.912H34.4659V119.293ZM45.2816 125.159C44.5922 125.159 43.9873 124.995 43.467 124.667C42.9499 124.339 42.5456 123.88 42.2539 123.29C41.9656 122.7 41.8214 122.01 41.8214 121.222C41.8214 120.426 41.9656 119.732 42.2539 119.138C42.5456 118.545 42.9499 118.085 43.467 117.756C43.9873 117.428 44.5922 117.264 45.2816 117.264C45.971 117.264 46.5742 117.428 47.0913 117.756C47.6116 118.085 48.016 118.545 48.3043 119.138C48.596 119.732 48.7418 120.426 48.7418 121.222C48.7418 122.01 48.596 122.7 48.3043 123.29C48.016 123.88 47.6116 124.339 47.0913 124.667C46.5742 124.995 45.971 125.159 45.2816 125.159ZM45.2816 124.105C45.8053 124.105 46.2362 123.971 46.5742 123.702C46.9123 123.434 47.1625 123.081 47.3249 122.643C47.4873 122.206 47.5685 121.732 47.5685 121.222C47.5685 120.711 47.4873 120.236 47.3249 119.795C47.1625 119.354 46.9123 118.998 46.5742 118.726C46.2362 118.454 45.8053 118.318 45.2816 118.318C44.7579 118.318 44.3271 118.454 43.989 118.726C43.6509 118.998 43.4007 119.354 43.2383 119.795C43.0759 120.236 42.9947 120.711 42.9947 121.222C42.9947 121.732 43.0759 122.206 43.2383 122.643C43.4007 123.081 43.6509 123.434 43.989 123.702C44.3271 123.971 44.7579 124.105 45.2816 124.105ZM53.6351 125.159C52.9457 125.159 52.3409 124.995 51.8205 124.667C51.3034 124.339 50.8991 123.88 50.6074 123.29C50.3191 122.7 50.1749 122.01 50.1749 121.222C50.1749 120.426 50.3191 119.732 50.6074 119.138C50.8991 118.545 51.3034 118.085 51.8205 117.756C52.3409 117.428 52.9457 117.264 53.6351 117.264C54.3245 117.264 54.9277 117.428 55.4448 117.756C55.9651 118.085 56.3695 118.545 56.6578 119.138C56.9495 119.732 57.0953 120.426 57.0953 121.222C57.0953 122.01 56.9495 122.7 56.6578 123.29C56.3695 123.88 55.9651 124.339 55.4448 124.667C54.9277 124.995 54.3245 125.159 53.6351 125.159ZM53.6351 124.105C54.1588 124.105 54.5897 123.971 54.9277 123.702C55.2658 123.434 55.516 123.081 55.6784 122.643C55.8409 122.206 55.9221 121.732 55.9221 121.222C55.9221 120.711 55.8409 120.236 55.6784 119.795C55.516 119.354 55.2658 118.998 54.9277 118.726C54.5897 118.454 54.1588 118.318 53.6351 118.318C53.1114 118.318 52.6806 118.454 52.3425 118.726C52.0044 118.998 51.7542 119.354 51.5918 119.795C51.4294 120.236 51.3482 120.711 51.3482 121.222C51.3482 121.732 51.4294 122.206 51.5918 122.643C51.7542 123.081 52.0044 123.434 52.3425 123.702C52.6806 123.971 53.1114 124.105 53.6351 124.105ZM59.9801 122.216L59.9602 120.764H60.1989L63.5398 117.364H64.9915L61.4318 120.963H61.3324L59.9801 122.216ZM58.8864 125V114.818H60.0597V125H58.8864ZM63.7386 125L60.7557 121.222L61.5909 120.406L65.2301 125H63.7386ZM70.5982 125V114.818H71.7715V118.577H71.8709C71.9571 118.444 72.0764 118.275 72.2289 118.07C72.3846 117.861 72.6067 117.675 72.8951 117.513C73.1867 117.347 73.5811 117.264 74.0783 117.264C74.7213 117.264 75.2881 117.425 75.7786 117.746C76.2691 118.068 76.6519 118.524 76.927 119.114C77.2021 119.704 77.3397 120.4 77.3397 121.202C77.3397 122.01 77.2021 122.711 76.927 123.305C76.6519 123.895 76.2708 124.352 75.7836 124.677C75.2963 124.998 74.7346 125.159 74.0982 125.159C73.6077 125.159 73.2149 125.078 72.9199 124.915C72.6249 124.75 72.3979 124.562 72.2388 124.354C72.0797 124.142 71.9571 123.966 71.8709 123.827H71.7317V125H70.5982ZM71.7516 121.182C71.7516 121.759 71.8361 122.267 72.0051 122.708C72.1742 123.146 72.4211 123.489 72.7459 123.737C73.0707 123.982 73.4685 124.105 73.9391 124.105C74.4296 124.105 74.839 123.976 75.1671 123.717C75.4985 123.455 75.7471 123.104 75.9128 122.663C76.0819 122.219 76.1664 121.725 76.1664 121.182C76.1664 120.645 76.0835 120.161 75.9178 119.73C75.7554 119.296 75.5085 118.953 75.177 118.701C74.8489 118.446 74.4363 118.318 73.9391 118.318C73.4618 118.318 73.0608 118.439 72.736 118.681C72.4112 118.92 72.1659 119.254 72.0002 119.685C71.8345 120.113 71.7516 120.612 71.7516 121.182ZM81.3816 125.179C80.8977 125.179 80.4585 125.088 80.0641 124.906C79.6697 124.72 79.3565 124.453 79.1245 124.105C78.8925 123.754 78.7765 123.33 78.7765 122.832C78.7765 122.395 78.8626 122.04 79.035 121.768C79.2073 121.493 79.4377 121.278 79.726 121.122C80.0144 120.966 80.3326 120.85 80.6806 120.774C81.0319 120.695 81.3849 120.632 81.7395 120.585C82.2035 120.526 82.5797 120.481 82.8681 120.451C83.1597 120.418 83.3719 120.363 83.5044 120.287C83.6403 120.211 83.7083 120.078 83.7083 119.889V119.849C83.7083 119.359 83.574 118.978 83.3056 118.706C83.0404 118.434 82.6377 118.298 82.0975 118.298C81.5373 118.298 81.0982 118.421 80.78 118.666C80.4618 118.911 80.2381 119.173 80.1088 119.452L78.9952 119.054C79.1941 118.59 79.4592 118.229 79.7907 117.97C80.1254 117.708 80.49 117.526 80.8844 117.423C81.2821 117.317 81.6732 117.264 82.0577 117.264C82.303 117.264 82.5847 117.294 82.9029 117.354C83.2244 117.41 83.5343 117.528 83.8326 117.707C84.1342 117.886 84.3844 118.156 84.5833 118.517C84.7821 118.878 84.8816 119.362 84.8816 119.969V125H83.7083V123.966H83.6486C83.5691 124.132 83.4365 124.309 83.2509 124.498C83.0653 124.687 82.8184 124.848 82.5101 124.98C82.2019 125.113 81.8257 125.179 81.3816 125.179ZM81.5605 124.125C82.0246 124.125 82.4157 124.034 82.7338 123.852C83.0553 123.669 83.2973 123.434 83.4597 123.146C83.6254 122.857 83.7083 122.554 83.7083 122.236V121.162C83.6586 121.222 83.5492 121.276 83.3801 121.326C83.2144 121.372 83.0222 121.414 82.8034 121.45C82.588 121.483 82.3775 121.513 82.1721 121.54C81.9699 121.563 81.8058 121.583 81.6799 121.599C81.3749 121.639 81.0899 121.704 80.8248 121.793C80.5629 121.879 80.3508 122.01 80.1884 122.186C80.0293 122.358 79.9498 122.594 79.9498 122.892C79.9498 123.3 80.1006 123.608 80.4022 123.817C80.7071 124.022 81.0932 124.125 81.5605 124.125ZM88.1964 114.818V125H87.0231V114.818H88.1964ZM92.5925 125.179C92.1086 125.179 91.6694 125.088 91.275 124.906C90.8806 124.72 90.5674 124.453 90.3354 124.105C90.1034 123.754 89.9874 123.33 89.9874 122.832C89.9874 122.395 90.0736 122.04 90.2459 121.768C90.4183 121.493 90.6486 121.278 90.937 121.122C91.2253 120.966 91.5435 120.85 91.8915 120.774C92.2428 120.695 92.5958 120.632 92.9505 120.585C93.4145 120.526 93.7907 120.481 94.079 120.451C94.3707 120.418 94.5828 120.363 94.7154 120.287C94.8513 120.211 94.9192 120.078 94.9192 119.889V119.849C94.9192 119.359 94.785 118.978 94.5165 118.706C94.2514 118.434 93.8487 118.298 93.3084 118.298C92.7483 118.298 92.3091 118.421 91.9909 118.666C91.6728 118.911 91.449 119.173 91.3198 119.452L90.2061 119.054C90.405 118.59 90.6702 118.229 91.0016 117.97C91.3364 117.708 91.7009 117.526 92.0953 117.423C92.4931 117.317 92.8842 117.264 93.2686 117.264C93.5139 117.264 93.7956 117.294 94.1138 117.354C94.4353 117.41 94.7452 117.528 95.0435 117.707C95.3451 117.886 95.5953 118.156 95.7942 118.517C95.9931 118.878 96.0925 119.362 96.0925 119.969V125H94.9192V123.966H94.8596C94.78 124.132 94.6474 124.309 94.4618 124.498C94.2762 124.687 94.0293 124.848 93.7211 124.98C93.4128 125.113 93.0366 125.179 92.5925 125.179ZM92.7715 124.125C93.2355 124.125 93.6266 124.034 93.9448 123.852C94.2663 123.669 94.5082 123.434 94.6706 123.146C94.8364 122.857 94.9192 122.554 94.9192 122.236V121.162C94.8695 121.222 94.7601 121.276 94.5911 121.326C94.4254 121.372 94.2331 121.414 94.0144 121.45C93.7989 121.483 93.5885 121.513 93.383 121.54C93.1808 121.563 93.0167 121.583 92.8908 121.599C92.5859 121.639 92.3008 121.704 92.0357 121.793C91.7739 121.879 91.5617 122.01 91.3993 122.186C91.2402 122.358 91.1607 122.594 91.1607 122.892C91.1607 123.3 91.3115 123.608 91.6131 123.817C91.918 124.022 92.3042 124.125 92.7715 124.125ZM99.4073 120.406V125H98.234V117.364H99.3675V118.557H99.467C99.646 118.169 99.9177 117.857 100.282 117.622C100.647 117.384 101.118 117.264 101.694 117.264C102.211 117.264 102.664 117.37 103.051 117.582C103.439 117.791 103.741 118.109 103.956 118.537C104.172 118.961 104.279 119.498 104.279 120.148V125H103.106V120.227C103.106 119.627 102.95 119.16 102.639 118.825C102.327 118.487 101.9 118.318 101.356 118.318C100.982 118.318 100.647 118.399 100.352 118.562C100.06 118.724 99.8299 118.961 99.6609 119.273C99.4918 119.584 99.4073 119.962 99.4073 120.406ZM109.526 125.159C108.81 125.159 108.193 124.99 107.676 124.652C107.159 124.314 106.762 123.848 106.483 123.255C106.205 122.662 106.066 121.984 106.066 121.222C106.066 120.446 106.208 119.762 106.493 119.168C106.781 118.572 107.182 118.106 107.696 117.771C108.213 117.433 108.816 117.264 109.506 117.264C110.043 117.264 110.527 117.364 110.958 117.562C111.388 117.761 111.741 118.04 112.017 118.398C112.292 118.756 112.462 119.173 112.529 119.651H111.355C111.266 119.303 111.067 118.994 110.759 118.726C110.454 118.454 110.043 118.318 109.526 118.318C109.068 118.318 108.667 118.437 108.323 118.676C107.981 118.911 107.714 119.245 107.522 119.675C107.333 120.103 107.239 120.605 107.239 121.182C107.239 121.772 107.332 122.286 107.517 122.723C107.706 123.161 107.971 123.5 108.313 123.742C108.657 123.984 109.062 124.105 109.526 124.105C109.831 124.105 110.107 124.052 110.356 123.946C110.605 123.84 110.815 123.688 110.987 123.489C111.16 123.29 111.282 123.051 111.355 122.773H112.529C112.462 123.223 112.298 123.629 112.036 123.991C111.778 124.349 111.435 124.634 111.007 124.846C110.583 125.055 110.089 125.159 109.526 125.159ZM117.445 125.159C116.71 125.159 116.075 124.997 115.541 124.672C115.011 124.344 114.602 123.886 114.313 123.3C114.028 122.71 113.886 122.024 113.886 121.241C113.886 120.459 114.028 119.77 114.313 119.173C114.602 118.573 115.003 118.106 115.517 117.771C116.034 117.433 116.637 117.264 117.326 117.264C117.724 117.264 118.117 117.33 118.504 117.463C118.892 117.596 119.245 117.811 119.563 118.109C119.882 118.404 120.135 118.795 120.324 119.283C120.513 119.77 120.607 120.37 120.607 121.082V121.58H114.721V120.565H119.414C119.414 120.134 119.328 119.75 119.156 119.412C118.987 119.074 118.745 118.807 118.43 118.612C118.118 118.416 117.75 118.318 117.326 118.318C116.859 118.318 116.454 118.434 116.113 118.666C115.775 118.895 115.515 119.193 115.333 119.561C115.15 119.929 115.059 120.323 115.059 120.744V121.42C115.059 121.997 115.159 122.486 115.357 122.887C115.56 123.285 115.84 123.588 116.198 123.797C116.556 124.002 116.972 124.105 117.445 124.105C117.754 124.105 118.032 124.062 118.281 123.976C118.533 123.886 118.75 123.754 118.932 123.578C119.114 123.399 119.255 123.177 119.355 122.912L120.488 123.23C120.369 123.615 120.168 123.953 119.887 124.244C119.605 124.533 119.257 124.758 118.843 124.92C118.428 125.08 117.963 125.159 117.445 125.159Z" fill="white"/>
<path d="M36.375 159H33.233V148.818H36.5142C37.5019 148.818 38.3471 149.022 39.0497 149.43C39.7524 149.834 40.291 150.416 40.6655 151.175C41.04 151.93 41.2273 152.835 41.2273 153.889C41.2273 154.95 41.0384 155.863 40.6605 156.629C40.2827 157.391 39.7325 157.978 39.0099 158.388C38.2874 158.796 37.4091 159 36.375 159ZM34.4659 157.906H36.2955C37.1373 157.906 37.835 157.744 38.3885 157.419C38.942 157.094 39.3546 156.632 39.6264 156.032C39.8982 155.432 40.0341 154.718 40.0341 153.889C40.0341 153.067 39.8999 152.36 39.6314 151.766C39.3629 151.17 38.9619 150.712 38.4283 150.394C37.8946 150.073 37.2301 149.912 36.4347 149.912H34.4659V157.906ZM43.1364 159V151.364H44.3097V159H43.1364ZM43.733 150.091C43.5043 150.091 43.3071 150.013 43.1413 149.857C42.9789 149.701 42.8977 149.514 42.8977 149.295C42.8977 149.077 42.9789 148.889 43.1413 148.734C43.3071 148.578 43.5043 148.5 43.733 148.5C43.9616 148.5 44.1572 148.578 44.3196 148.734C44.4853 148.889 44.5682 149.077 44.5682 149.295C44.5682 149.514 44.4853 149.701 44.3196 149.857C44.1572 150.013 43.9616 150.091 43.733 150.091ZM49.8592 151.364V152.358H45.7427V151.364H49.8592ZM46.9757 159V150.31C46.9757 149.872 47.0784 149.508 47.2839 149.216C47.4894 148.924 47.7562 148.705 48.0843 148.56C48.4125 148.414 48.7588 148.341 49.1234 148.341C49.4118 148.341 49.6471 148.364 49.8294 148.411C50.0117 148.457 50.1475 148.5 50.237 148.54L49.899 149.554C49.8393 149.534 49.7565 149.509 49.6504 149.479C49.5476 149.45 49.4118 149.435 49.2427 149.435C48.8549 149.435 48.5749 149.532 48.4025 149.728C48.2335 149.924 48.149 150.21 48.149 150.588V159H46.9757ZM54.9041 151.364V152.358H50.7876V151.364H54.9041ZM52.0206 159V150.31C52.0206 149.872 52.1233 149.508 52.3288 149.216C52.5343 148.924 52.8011 148.705 53.1293 148.56C53.4574 148.414 53.8037 148.341 54.1683 148.341C54.4567 148.341 54.692 148.364 54.8743 148.411C55.0566 148.457 55.1925 148.5 55.282 148.54L54.9439 149.554C54.8842 149.534 54.8014 149.509 54.6953 149.479C54.5926 149.45 54.4567 149.435 54.2876 149.435C53.8999 149.435 53.6198 149.532 53.4474 149.728C53.2784 149.924 53.1939 150.21 53.1939 150.588V159H52.0206ZM59.4357 159.159C58.6999 159.159 58.0652 158.997 57.5316 158.672C57.0013 158.344 56.592 157.886 56.3036 157.3C56.0186 156.71 55.8761 156.024 55.8761 155.241C55.8761 154.459 56.0186 153.77 56.3036 153.173C56.592 152.573 56.993 152.106 57.5067 151.771C58.0238 151.433 58.627 151.264 59.3164 151.264C59.7141 151.264 60.1069 151.33 60.4947 151.463C60.8825 151.596 61.2354 151.811 61.5536 152.109C61.8718 152.404 62.1254 152.795 62.3143 153.283C62.5032 153.77 62.5977 154.37 62.5977 155.082V155.58H56.7113V154.565H61.4045C61.4045 154.134 61.3183 153.75 61.146 153.412C60.9769 153.074 60.735 152.807 60.4201 152.612C60.1085 152.416 59.7406 152.318 59.3164 152.318C58.8491 152.318 58.4447 152.434 58.1033 152.666C57.7653 152.895 57.5051 153.193 57.3228 153.561C57.1405 153.929 57.0494 154.323 57.0494 154.744V155.42C57.0494 155.997 57.1488 156.486 57.3477 156.887C57.5498 157.285 57.8299 157.588 58.1879 157.797C58.5458 158.002 58.9618 158.105 59.4357 158.105C59.744 158.105 60.0224 158.062 60.271 157.976C60.5228 157.886 60.7399 157.754 60.9222 157.578C61.1045 157.399 61.2454 157.177 61.3448 156.912L62.4783 157.23C62.359 157.615 62.1585 157.953 61.8768 158.244C61.5951 158.533 61.247 158.758 60.8327 158.92C60.4184 159.08 59.9528 159.159 59.4357 159.159ZM64.3825 159V151.364H65.516V152.517H65.5955C65.7347 152.139 65.9866 151.833 66.3512 151.597C66.7158 151.362 67.1268 151.244 67.5842 151.244C67.6703 151.244 67.7781 151.246 67.9073 151.249C68.0366 151.253 68.1344 151.258 68.2006 151.264V152.457C68.1609 152.447 68.0697 152.433 67.9272 152.413C67.788 152.389 67.6405 152.378 67.4847 152.378C67.1135 152.378 66.7821 152.456 66.4904 152.612C66.2021 152.764 65.9734 152.976 65.8043 153.248C65.6386 153.516 65.5558 153.823 65.5558 154.168V159H64.3825ZM72.5607 159.159C71.8249 159.159 71.1902 158.997 70.6566 158.672C70.1263 158.344 69.717 157.886 69.4286 157.3C69.1436 156.71 69.0011 156.024 69.0011 155.241C69.0011 154.459 69.1436 153.77 69.4286 153.173C69.717 152.573 70.118 152.106 70.6317 151.771C71.1488 151.433 71.752 151.264 72.4414 151.264C72.8391 151.264 73.2319 151.33 73.6197 151.463C74.0075 151.596 74.3604 151.811 74.6786 152.109C74.9968 152.404 75.2504 152.795 75.4393 153.283C75.6282 153.77 75.7227 154.37 75.7227 155.082V155.58H69.8363V154.565H74.5295C74.5295 154.134 74.4433 153.75 74.271 153.412C74.1019 153.074 73.86 152.807 73.5451 152.612C73.2335 152.416 72.8656 152.318 72.4414 152.318C71.9741 152.318 71.5697 152.434 71.2283 152.666C70.8903 152.895 70.6301 153.193 70.4478 153.561C70.2655 153.929 70.1744 154.323 70.1744 154.744V155.42C70.1744 155.997 70.2738 156.486 70.4727 156.887C70.6748 157.285 70.9549 157.588 71.3129 157.797C71.6708 158.002 72.0868 158.105 72.5607 158.105C72.869 158.105 73.1474 158.062 73.396 157.976C73.6478 157.886 73.8649 157.754 74.0472 157.578C74.2295 157.399 74.3704 157.177 74.4698 156.912L75.6033 157.23C75.484 157.615 75.2835 157.953 75.0018 158.244C74.7201 158.533 74.372 158.758 73.9577 158.92C73.5434 159.08 73.0778 159.159 72.5607 159.159ZM78.6808 154.406V159H77.5075V151.364H78.641V152.557H78.7404C78.9194 152.169 79.1912 151.857 79.5558 151.622C79.9203 151.384 80.391 151.264 80.9677 151.264C81.4847 151.264 81.9371 151.37 82.3249 151.582C82.7127 151.791 83.0143 152.109 83.2298 152.537C83.4452 152.961 83.5529 153.498 83.5529 154.148V159H82.3796V154.227C82.3796 153.627 82.2238 153.16 81.9123 152.825C81.6007 152.487 81.1732 152.318 80.6296 152.318C80.2551 152.318 79.9203 152.399 79.6254 152.562C79.3337 152.724 79.1033 152.961 78.9343 153.273C78.7653 153.584 78.6808 153.962 78.6808 154.406ZM88.7992 159.159C88.0833 159.159 87.4668 158.99 86.9498 158.652C86.4327 158.314 86.035 157.848 85.7566 157.255C85.4782 156.662 85.339 155.984 85.339 155.222C85.339 154.446 85.4815 153.762 85.7665 153.168C86.0549 152.572 86.4559 152.106 86.9696 151.771C87.4867 151.433 88.0899 151.264 88.7793 151.264C89.3162 151.264 89.8001 151.364 90.231 151.562C90.6619 151.761 91.0149 152.04 91.29 152.398C91.565 152.756 91.7357 153.173 91.802 153.651H90.6287C90.5392 153.303 90.3404 152.994 90.0321 152.726C89.7272 152.454 89.3162 152.318 88.7992 152.318C88.3418 152.318 87.9408 152.437 87.5961 152.676C87.2547 152.911 86.9879 153.245 86.7956 153.675C86.6067 154.103 86.5123 154.605 86.5123 155.182C86.5123 155.772 86.6051 156.286 86.7907 156.723C86.9796 157.161 87.2447 157.5 87.5861 157.742C87.9308 157.984 88.3352 158.105 88.7992 158.105C89.1041 158.105 89.3809 158.052 89.6294 157.946C89.878 157.84 90.0885 157.688 90.2608 157.489C90.4332 157.29 90.5558 157.051 90.6287 156.773H91.802C91.7357 157.223 91.5717 157.629 91.3098 157.991C91.0513 158.349 90.7083 158.634 90.2807 158.846C89.8565 159.055 89.3626 159.159 88.7992 159.159ZM96.7189 159.159C95.9831 159.159 95.3484 158.997 94.8148 158.672C94.2845 158.344 93.8752 157.886 93.5868 157.3C93.3018 156.71 93.1593 156.024 93.1593 155.241C93.1593 154.459 93.3018 153.77 93.5868 153.173C93.8752 152.573 94.2762 152.106 94.79 151.771C95.307 151.433 95.9102 151.264 96.5996 151.264C96.9973 151.264 97.3901 151.33 97.7779 151.463C98.1657 151.596 98.5186 151.811 98.8368 152.109C99.155 152.404 99.4086 152.795 99.5975 153.283C99.7864 153.77 99.8809 154.37 99.8809 155.082V155.58H93.9945V154.565H98.6877C98.6877 154.134 98.6015 153.75 98.4292 153.412C98.2601 153.074 98.0182 152.807 97.7033 152.612C97.3917 152.416 97.0239 152.318 96.5996 152.318C96.1323 152.318 95.7279 152.434 95.3865 152.666C95.0485 152.895 94.7883 153.193 94.606 153.561C94.4237 153.929 94.3326 154.323 94.3326 154.744V155.42C94.3326 155.997 94.432 156.486 94.6309 156.887C94.833 157.285 95.1131 157.588 95.4711 157.797C95.829 158.002 96.245 158.105 96.7189 158.105C97.0272 158.105 97.3056 158.062 97.5542 157.976C97.806 157.886 98.0231 157.754 98.2054 157.578C98.3877 157.399 98.5286 157.177 98.628 156.912L99.7615 157.23C99.6422 157.615 99.4417 157.953 99.16 158.244C98.8783 158.533 98.5302 158.758 98.1159 158.92C97.7016 159.08 97.236 159.159 96.7189 159.159Z" fill="white"/>
<path d="M531.485 86L527.208 82.646V81.658H529.483C529.968 81.658 530.358 81.5497 530.653 81.333C530.956 81.1077 531.143 80.7827 531.212 80.358H527.208V79.539H531.212C531.143 79.123 530.956 78.8067 530.653 78.59C530.358 78.3647 529.968 78.252 529.483 78.252L527.208 78.239V77.42H533.383V78.265L531.303 78.252C531.528 78.3387 531.715 78.499 531.862 78.733C532.009 78.9583 532.109 79.227 532.161 79.539H533.383V80.358H532.161C532.109 80.7827 531.966 81.1553 531.732 81.476C531.498 81.788 531.19 82.035 530.809 82.217C530.428 82.3903 529.986 82.477 529.483 82.477H528.43L533.045 86H531.485ZM538.513 86V83.751H534.327V82.984L538.24 77.42H539.553V82.854H541.074V83.751H539.553V86H538.513ZM535.432 82.854H538.513V79.643C538.513 79.4177 538.517 79.188 538.526 78.954C538.543 78.72 538.556 78.4903 538.565 78.265H538.539C538.435 78.4817 538.301 78.7243 538.136 78.993C537.971 79.2617 537.82 79.4957 537.681 79.695L535.432 82.854ZM545.901 77.29C546.36 77.29 546.759 77.355 547.097 77.485C547.444 77.6063 547.743 77.8013 547.994 78.07C548.245 78.33 548.458 78.6723 548.631 79.097L547.669 79.552C547.539 79.1533 547.327 78.8413 547.032 78.616C546.746 78.382 546.347 78.265 545.836 78.265C545.463 78.265 545.134 78.3603 544.848 78.551C544.562 78.733 544.319 78.9887 544.12 79.318C543.921 79.6473 543.769 80.033 543.665 80.475C543.57 80.917 543.522 81.3937 543.522 81.905C543.522 81.9223 543.522 81.9483 543.522 81.983C543.522 82.0177 543.522 82.0697 543.522 82.139H543.574C543.669 81.7663 543.843 81.4673 544.094 81.242C544.354 81.008 544.644 80.839 544.965 80.735C545.294 80.6223 545.615 80.566 545.927 80.566C546.508 80.566 547.015 80.6787 547.448 80.904C547.881 81.1293 548.215 81.45 548.449 81.866C548.692 82.282 548.813 82.776 548.813 83.348C548.813 83.9113 548.692 84.4053 548.449 84.83C548.206 85.246 547.864 85.5667 547.422 85.792C546.989 86.0173 546.469 86.13 545.862 86.13C545.143 86.13 544.536 85.9393 544.042 85.558C543.548 85.1767 543.175 84.6567 542.924 83.998C542.673 83.3307 542.547 82.568 542.547 81.71C542.547 80.748 542.694 79.942 542.989 79.292C543.284 78.6333 543.682 78.135 544.185 77.797C544.696 77.459 545.268 77.29 545.901 77.29ZM545.849 81.567C545.476 81.567 545.147 81.645 544.861 81.801C544.584 81.9483 544.367 82.1563 544.211 82.425C544.055 82.685 543.977 82.9883 543.977 83.335C543.977 83.6643 544.059 83.9677 544.224 84.245C544.389 84.5137 544.61 84.7303 544.887 84.895C545.173 85.051 545.494 85.129 545.849 85.129C546.438 85.129 546.898 84.973 547.227 84.661C547.556 84.3403 547.721 83.8983 547.721 83.335C547.721 82.971 547.647 82.659 547.5 82.399C547.353 82.1303 547.14 81.9267 546.863 81.788C546.586 81.6407 546.248 81.567 545.849 81.567ZM551.34 84.44C551.548 84.44 551.722 84.4963 551.86 84.609C552.008 84.713 552.12 84.8603 552.198 85.051C552.276 85.233 552.315 85.4497 552.315 85.701C552.315 85.987 552.263 86.2687 552.159 86.546C552.064 86.8233 551.912 87.079 551.704 87.313C551.496 87.547 551.228 87.742 550.898 87.898L550.352 87.391C550.586 87.313 550.79 87.2047 550.963 87.066C551.145 86.9273 551.293 86.7713 551.405 86.598C551.518 86.4247 551.592 86.247 551.626 86.065L551.574 86.039C551.54 86.065 551.496 86.0867 551.444 86.104C551.392 86.1213 551.314 86.13 551.21 86.13C551.106 86.13 550.998 86.0997 550.885 86.039C550.781 85.9783 550.69 85.8917 550.612 85.779C550.534 85.6577 550.495 85.5017 550.495 85.311C550.495 85.155 550.534 85.012 550.612 84.882C550.69 84.7433 550.79 84.635 550.911 84.557C551.041 84.479 551.184 84.44 551.34 84.44ZM556.79 86.13C555.819 86.13 555.044 85.753 554.463 84.999C553.882 84.245 553.592 83.1487 553.592 81.71C553.592 80.2713 553.882 79.175 554.463 78.421C555.044 77.667 555.819 77.29 556.79 77.29C557.769 77.29 558.545 77.667 559.117 78.421C559.698 79.175 559.988 80.2713 559.988 81.71C559.988 83.1487 559.698 84.245 559.117 84.999C558.545 85.753 557.769 86.13 556.79 86.13ZM556.79 85.194C557.249 85.194 557.635 85.064 557.947 84.804C558.268 84.5353 558.506 84.141 558.662 83.621C558.827 83.101 558.909 82.464 558.909 81.71C558.909 80.956 558.827 80.319 558.662 79.799C558.506 79.279 558.268 78.889 557.947 78.629C557.635 78.3603 557.249 78.226 556.79 78.226C556.331 78.226 555.941 78.3603 555.62 78.629C555.308 78.889 555.07 79.279 554.905 79.799C554.749 80.319 554.671 80.956 554.671 81.71C554.671 82.464 554.749 83.101 554.905 83.621C555.07 84.141 555.308 84.5353 555.62 84.804C555.941 85.064 556.331 85.194 556.79 85.194ZM564.877 86.13C563.906 86.13 563.131 85.753 562.55 84.999C561.969 84.245 561.679 83.1487 561.679 81.71C561.679 80.2713 561.969 79.175 562.55 78.421C563.131 77.667 563.906 77.29 564.877 77.29C565.856 77.29 566.632 77.667 567.204 78.421C567.785 79.175 568.075 80.2713 568.075 81.71C568.075 83.1487 567.785 84.245 567.204 84.999C566.632 85.753 565.856 86.13 564.877 86.13ZM564.877 85.194C565.336 85.194 565.722 85.064 566.034 84.804C566.355 84.5353 566.593 84.141 566.749 83.621C566.914 83.101 566.996 82.464 566.996 81.71C566.996 80.956 566.914 80.319 566.749 79.799C566.593 79.279 566.355 78.889 566.034 78.629C565.722 78.3603 565.336 78.226 564.877 78.226C564.418 78.226 564.028 78.3603 563.707 78.629C563.395 78.889 563.157 79.279 562.992 79.799C562.836 80.319 562.758 80.956 562.758 81.71C562.758 82.464 562.836 83.101 562.992 83.621C563.157 84.141 563.395 84.5353 563.707 84.804C564.028 85.064 564.418 85.194 564.877 85.194ZM572.964 86.13C571.993 86.13 571.218 85.753 570.637 84.999C570.056 84.245 569.766 83.1487 569.766 81.71C569.766 80.2713 570.056 79.175 570.637 78.421C571.218 77.667 571.993 77.29 572.964 77.29C573.943 77.29 574.719 77.667 575.291 78.421C575.872 79.175 576.162 80.2713 576.162 81.71C576.162 83.1487 575.872 84.245 575.291 84.999C574.719 85.753 573.943 86.13 572.964 86.13ZM572.964 85.194C573.423 85.194 573.809 85.064 574.121 84.804C574.442 84.5353 574.68 84.141 574.836 83.621C575.001 83.101 575.083 82.464 575.083 81.71C575.083 80.956 575.001 80.319 574.836 79.799C574.68 79.279 574.442 78.889 574.121 78.629C573.809 78.3603 573.423 78.226 572.964 78.226C572.505 78.226 572.115 78.3603 571.794 78.629C571.482 78.889 571.244 79.279 571.079 79.799C570.923 80.319 570.845 80.956 570.845 81.71C570.845 82.464 570.923 83.101 571.079 83.621C571.244 84.141 571.482 84.5353 571.794 84.804C572.115 85.064 572.505 85.194 572.964 85.194ZM578.419 84.44C578.671 84.44 578.874 84.518 579.03 84.674C579.186 84.83 579.264 85.0337 579.264 85.285C579.264 85.5363 579.186 85.74 579.03 85.896C578.874 86.052 578.671 86.13 578.419 86.13C578.168 86.13 577.964 86.052 577.808 85.896C577.652 85.74 577.574 85.5363 577.574 85.285C577.574 85.0337 577.652 84.83 577.808 84.674C577.964 84.518 578.168 84.44 578.419 84.44ZM583.869 86.13C582.899 86.13 582.123 85.753 581.542 84.999C580.962 84.245 580.671 83.1487 580.671 81.71C580.671 80.2713 580.962 79.175 581.542 78.421C582.123 77.667 582.899 77.29 583.869 77.29C584.849 77.29 585.624 77.667 586.196 78.421C586.777 79.175 587.067 80.2713 587.067 81.71C587.067 83.1487 586.777 84.245 586.196 84.999C585.624 85.753 584.849 86.13 583.869 86.13ZM583.869 85.194C584.329 85.194 584.714 85.064 585.026 84.804C585.347 84.5353 585.585 84.141 585.741 83.621C585.906 83.101 585.988 82.464 585.988 81.71C585.988 80.956 585.906 80.319 585.741 79.799C585.585 79.279 585.347 78.889 585.026 78.629C584.714 78.3603 584.329 78.226 583.869 78.226C583.41 78.226 583.02 78.3603 582.699 78.629C582.387 78.889 582.149 79.279 581.984 79.799C581.828 80.319 581.75 80.956 581.75 81.71C581.75 82.464 581.828 83.101 581.984 83.621C582.149 84.141 582.387 84.5353 582.699 84.804C583.02 85.064 583.41 85.194 583.869 85.194ZM591.956 86.13C590.985 86.13 590.21 85.753 589.629 84.999C589.048 84.245 588.758 83.1487 588.758 81.71C588.758 80.2713 589.048 79.175 589.629 78.421C590.21 77.667 590.985 77.29 591.956 77.29C592.935 77.29 593.711 77.667 594.283 78.421C594.864 79.175 595.154 80.2713 595.154 81.71C595.154 83.1487 594.864 84.245 594.283 84.999C593.711 85.753 592.935 86.13 591.956 86.13ZM591.956 85.194C592.415 85.194 592.801 85.064 593.113 84.804C593.434 84.5353 593.672 84.141 593.828 83.621C593.993 83.101 594.075 82.464 594.075 81.71C594.075 80.956 593.993 80.319 593.828 79.799C593.672 79.279 593.434 78.889 593.113 78.629C592.801 78.3603 592.415 78.226 591.956 78.226C591.497 78.226 591.107 78.3603 590.786 78.629C590.474 78.889 590.236 79.279 590.071 79.799C589.915 80.319 589.837 80.956 589.837 81.71C589.837 82.464 589.915 83.101 590.071 83.621C590.236 84.141 590.474 84.5353 590.786 84.804C591.107 85.064 591.497 85.194 591.956 85.194Z" fill="white"/>
<path d="M532.323 124L528.046 120.646V119.658H530.321C530.806 119.658 531.196 119.55 531.491 119.333C531.794 119.108 531.98 118.783 532.05 118.358H528.046V117.539H532.05C531.98 117.123 531.794 116.807 531.491 116.59C531.196 116.365 530.806 116.252 530.321 116.252L528.046 116.239V115.42H534.221V116.265L532.141 116.252C532.366 116.339 532.552 116.499 532.7 116.733C532.847 116.958 532.947 117.227 532.999 117.539H534.221V118.358H532.999C532.947 118.783 532.804 119.155 532.57 119.476C532.336 119.788 532.028 120.035 531.647 120.217C531.265 120.39 530.823 120.477 530.321 120.477H529.268L533.883 124H532.323ZM538.363 124.13C537.6 124.13 536.924 123.952 536.335 123.597C535.754 123.233 535.36 122.735 535.152 122.102L536.192 121.569C536.296 121.89 536.439 122.171 536.621 122.414C536.803 122.648 537.041 122.83 537.336 122.96C537.639 123.09 538.016 123.155 538.467 123.155C538.848 123.155 539.169 123.086 539.429 122.947C539.689 122.808 539.888 122.622 540.027 122.388C540.165 122.145 540.235 121.868 540.235 121.556C540.235 121.244 540.174 120.984 540.053 120.776C539.94 120.568 539.758 120.416 539.507 120.321C539.255 120.217 538.926 120.165 538.519 120.165C538.423 120.165 538.319 120.169 538.207 120.178C538.094 120.178 537.977 120.187 537.856 120.204V119.164C537.934 119.173 538.007 119.177 538.077 119.177C538.155 119.177 538.224 119.177 538.285 119.177C538.917 119.177 539.368 119.056 539.637 118.813C539.905 118.562 540.04 118.172 540.04 117.643C540.04 117.192 539.901 116.85 539.624 116.616C539.346 116.382 538.952 116.265 538.441 116.265C537.895 116.265 537.479 116.386 537.193 116.629C536.907 116.863 536.681 117.184 536.517 117.591L535.529 117.123C535.667 116.759 535.875 116.438 536.153 116.161C536.43 115.884 536.764 115.667 537.154 115.511C537.552 115.355 537.99 115.277 538.467 115.277C539.065 115.277 539.559 115.381 539.949 115.589C540.339 115.788 540.629 116.057 540.82 116.395C541.019 116.733 541.119 117.106 541.119 117.513C541.119 117.825 541.075 118.107 540.989 118.358C540.902 118.601 540.781 118.813 540.625 118.995C540.477 119.177 540.308 119.324 540.118 119.437C539.927 119.541 539.723 119.61 539.507 119.645V119.671C539.793 119.68 540.044 119.736 540.261 119.84C540.486 119.944 540.677 120.083 540.833 120.256C540.989 120.429 541.106 120.629 541.184 120.854C541.27 121.071 541.314 121.3 541.314 121.543C541.314 122.046 541.188 122.492 540.937 122.882C540.694 123.272 540.352 123.58 539.91 123.805C539.468 124.022 538.952 124.13 538.363 124.13ZM543.134 124V123.155C543.992 122.522 544.707 121.968 545.279 121.491C545.86 121.014 546.323 120.581 546.67 120.191C547.017 119.801 547.264 119.433 547.411 119.086C547.558 118.731 547.632 118.362 547.632 117.981C547.632 117.47 547.467 117.058 547.138 116.746C546.817 116.425 546.375 116.265 545.812 116.265C545.223 116.265 544.75 116.46 544.395 116.85C544.04 117.231 543.832 117.743 543.771 118.384L542.861 117.838C542.939 117.335 543.099 116.893 543.342 116.512C543.593 116.131 543.927 115.832 544.343 115.615C544.768 115.398 545.27 115.29 545.851 115.29C546.293 115.29 546.687 115.355 547.034 115.485C547.389 115.615 547.693 115.801 547.944 116.044C548.195 116.278 548.386 116.56 548.516 116.889C548.655 117.218 548.724 117.582 548.724 117.981C548.724 118.518 548.594 119.047 548.334 119.567C548.074 120.078 547.645 120.616 547.047 121.179C546.449 121.742 545.639 122.366 544.616 123.051V123.064C544.711 123.055 544.841 123.051 545.006 123.051C545.179 123.042 545.348 123.038 545.513 123.038C545.686 123.029 545.816 123.025 545.903 123.025H548.906V124H543.134ZM551.48 122.44C551.688 122.44 551.861 122.496 552 122.609C552.147 122.713 552.26 122.86 552.338 123.051C552.416 123.233 552.455 123.45 552.455 123.701C552.455 123.987 552.403 124.269 552.299 124.546C552.204 124.823 552.052 125.079 551.844 125.313C551.636 125.547 551.367 125.742 551.038 125.898L550.492 125.391C550.726 125.313 550.93 125.205 551.103 125.066C551.285 124.927 551.432 124.771 551.545 124.598C551.658 124.425 551.731 124.247 551.766 124.065L551.714 124.039C551.679 124.065 551.636 124.087 551.584 124.104C551.532 124.121 551.454 124.13 551.35 124.13C551.246 124.13 551.138 124.1 551.025 124.039C550.921 123.978 550.83 123.892 550.752 123.779C550.674 123.658 550.635 123.502 550.635 123.311C550.635 123.155 550.674 123.012 550.752 122.882C550.83 122.743 550.93 122.635 551.051 122.557C551.181 122.479 551.324 122.44 551.48 122.44ZM556.93 124.13C555.959 124.13 555.183 123.753 554.603 122.999C554.022 122.245 553.732 121.149 553.732 119.71C553.732 118.271 554.022 117.175 554.603 116.421C555.183 115.667 555.959 115.29 556.93 115.29C557.909 115.29 558.685 115.667 559.257 116.421C559.837 117.175 560.128 118.271 560.128 119.71C560.128 121.149 559.837 122.245 559.257 122.999C558.685 123.753 557.909 124.13 556.93 124.13ZM556.93 123.194C557.389 123.194 557.775 123.064 558.087 122.804C558.407 122.535 558.646 122.141 558.802 121.621C558.966 121.101 559.049 120.464 559.049 119.71C559.049 118.956 558.966 118.319 558.802 117.799C558.646 117.279 558.407 116.889 558.087 116.629C557.775 116.36 557.389 116.226 556.93 116.226C556.47 116.226 556.08 116.36 555.76 116.629C555.448 116.889 555.209 117.279 555.045 117.799C554.889 118.319 554.811 118.956 554.811 119.71C554.811 120.464 554.889 121.101 555.045 121.621C555.209 122.141 555.448 122.535 555.76 122.804C556.08 123.064 556.47 123.194 556.93 123.194ZM565.732 124V121.751H561.546V120.984L565.459 115.42H566.772V120.854H568.293V121.751H566.772V124H565.732ZM562.651 120.854H565.732V117.643C565.732 117.418 565.736 117.188 565.745 116.954C565.762 116.72 565.775 116.49 565.784 116.265H565.758C565.654 116.482 565.519 116.724 565.355 116.993C565.19 117.262 565.038 117.496 564.9 117.695L562.651 120.854ZM572.964 124.13C571.993 124.13 571.218 123.753 570.637 122.999C570.056 122.245 569.766 121.149 569.766 119.71C569.766 118.271 570.056 117.175 570.637 116.421C571.218 115.667 571.993 115.29 572.964 115.29C573.943 115.29 574.719 115.667 575.291 116.421C575.872 117.175 576.162 118.271 576.162 119.71C576.162 121.149 575.872 122.245 575.291 122.999C574.719 123.753 573.943 124.13 572.964 124.13ZM572.964 123.194C573.423 123.194 573.809 123.064 574.121 122.804C574.442 122.535 574.68 122.141 574.836 121.621C575.001 121.101 575.083 120.464 575.083 119.71C575.083 118.956 575.001 118.319 574.836 117.799C574.68 117.279 574.442 116.889 574.121 116.629C573.809 116.36 573.423 116.226 572.964 116.226C572.505 116.226 572.115 116.36 571.794 116.629C571.482 116.889 571.244 117.279 571.079 117.799C570.923 118.319 570.845 118.956 570.845 119.71C570.845 120.464 570.923 121.101 571.079 121.621C571.244 122.141 571.482 122.535 571.794 122.804C572.115 123.064 572.505 123.194 572.964 123.194ZM578.419 122.44C578.671 122.44 578.874 122.518 579.03 122.674C579.186 122.83 579.264 123.034 579.264 123.285C579.264 123.536 579.186 123.74 579.03 123.896C578.874 124.052 578.671 124.13 578.419 124.13C578.168 124.13 577.964 124.052 577.808 123.896C577.652 123.74 577.574 123.536 577.574 123.285C577.574 123.034 577.652 122.83 577.808 122.674C577.964 122.518 578.168 122.44 578.419 122.44ZM583.869 124.13C582.899 124.13 582.123 123.753 581.542 122.999C580.962 122.245 580.671 121.149 580.671 119.71C580.671 118.271 580.962 117.175 581.542 116.421C582.123 115.667 582.899 115.29 583.869 115.29C584.849 115.29 585.624 115.667 586.196 116.421C586.777 117.175 587.067 118.271 587.067 119.71C587.067 121.149 586.777 122.245 586.196 122.999C585.624 123.753 584.849 124.13 583.869 124.13ZM583.869 123.194C584.329 123.194 584.714 123.064 585.026 122.804C585.347 122.535 585.585 122.141 585.741 121.621C585.906 121.101 585.988 120.464 585.988 119.71C585.988 118.956 585.906 118.319 585.741 117.799C585.585 117.279 585.347 116.889 585.026 116.629C584.714 116.36 584.329 116.226 583.869 116.226C583.41 116.226 583.02 116.36 582.699 116.629C582.387 116.889 582.149 117.279 581.984 117.799C581.828 118.319 581.75 118.956 581.75 119.71C581.75 120.464 581.828 121.101 581.984 121.621C582.149 122.141 582.387 122.535 582.699 122.804C583.02 123.064 583.41 123.194 583.869 123.194ZM591.956 124.13C590.985 124.13 590.21 123.753 589.629 122.999C589.048 122.245 588.758 121.149 588.758 119.71C588.758 118.271 589.048 117.175 589.629 116.421C590.21 115.667 590.985 115.29 591.956 115.29C592.935 115.29 593.711 115.667 594.283 116.421C594.864 117.175 595.154 118.271 595.154 119.71C595.154 121.149 594.864 122.245 594.283 122.999C593.711 123.753 592.935 124.13 591.956 124.13ZM591.956 123.194C592.415 123.194 592.801 123.064 593.113 122.804C593.434 122.535 593.672 122.141 593.828 121.621C593.993 121.101 594.075 120.464 594.075 119.71C594.075 118.956 593.993 118.319 593.828 117.799C593.672 117.279 593.434 116.889 593.113 116.629C592.801 116.36 592.415 116.226 591.956 116.226C591.497 116.226 591.107 116.36 590.786 116.629C590.474 116.889 590.236 117.279 590.071 117.799C589.915 118.319 589.837 118.956 589.837 119.71C589.837 120.464 589.915 121.101 590.071 121.621C590.236 122.141 590.474 122.535 590.786 122.804C591.107 123.064 591.497 123.194 591.956 123.194Z" fill="white"/>
<path d="M532.539 158L528.262 154.646V153.658H530.537C531.022 153.658 531.412 153.55 531.707 153.333C532.01 153.108 532.196 152.783 532.266 152.358H528.262V151.539H532.266C532.196 151.123 532.01 150.807 531.707 150.59C531.412 150.365 531.022 150.252 530.537 150.252L528.262 150.239V149.42H534.437V150.265L532.357 150.252C532.582 150.339 532.768 150.499 532.916 150.733C533.063 150.958 533.163 151.227 533.215 151.539H534.437V152.358H533.215C533.163 152.783 533.02 153.155 532.786 153.476C532.552 153.788 532.244 154.035 531.863 154.217C531.481 154.39 531.039 154.477 530.537 154.477H529.484L534.099 158H532.539ZM535.329 149.42H541.647V150.395C540.927 151.158 540.338 151.942 539.879 152.748C539.428 153.545 539.099 154.377 538.891 155.244C538.683 156.111 538.579 157.029 538.579 158H537.513C537.513 157.038 537.63 156.098 537.864 155.179C538.106 154.252 538.47 153.363 538.956 152.514C539.441 151.665 540.043 150.872 540.763 150.135L540.932 150.395H535.329V149.42ZM545.885 158.13C544.914 158.13 544.138 157.753 543.558 156.999C542.977 156.245 542.687 155.149 542.687 153.71C542.687 152.271 542.977 151.175 543.558 150.421C544.138 149.667 544.914 149.29 545.885 149.29C546.864 149.29 547.64 149.667 548.212 150.421C548.792 151.175 549.083 152.271 549.083 153.71C549.083 155.149 548.792 156.245 548.212 156.999C547.64 157.753 546.864 158.13 545.885 158.13ZM545.885 157.194C546.344 157.194 546.73 157.064 547.042 156.804C547.362 156.535 547.601 156.141 547.757 155.621C547.921 155.101 548.004 154.464 548.004 153.71C548.004 152.956 547.921 152.319 547.757 151.799C547.601 151.279 547.362 150.889 547.042 150.629C546.73 150.36 546.344 150.226 545.885 150.226C545.425 150.226 545.035 150.36 544.715 150.629C544.403 150.889 544.164 151.279 544 151.799C543.844 152.319 543.766 152.956 543.766 153.71C543.766 154.464 543.844 155.101 544 155.621C544.164 156.141 544.403 156.535 544.715 156.804C545.035 157.064 545.425 157.194 545.885 157.194ZM551.34 156.44C551.548 156.44 551.722 156.496 551.86 156.609C552.008 156.713 552.12 156.86 552.198 157.051C552.276 157.233 552.315 157.45 552.315 157.701C552.315 157.987 552.263 158.269 552.159 158.546C552.064 158.823 551.912 159.079 551.704 159.313C551.496 159.547 551.228 159.742 550.898 159.898L550.352 159.391C550.586 159.313 550.79 159.205 550.963 159.066C551.145 158.927 551.293 158.771 551.405 158.598C551.518 158.425 551.592 158.247 551.626 158.065L551.574 158.039C551.54 158.065 551.496 158.087 551.444 158.104C551.392 158.121 551.314 158.13 551.21 158.13C551.106 158.13 550.998 158.1 550.885 158.039C550.781 157.978 550.69 157.892 550.612 157.779C550.534 157.658 550.495 157.502 550.495 157.311C550.495 157.155 550.534 157.012 550.612 156.882C550.69 156.743 550.79 156.635 550.911 156.557C551.041 156.479 551.184 156.44 551.34 156.44ZM556.79 158.13C555.819 158.13 555.044 157.753 554.463 156.999C553.882 156.245 553.592 155.149 553.592 153.71C553.592 152.271 553.882 151.175 554.463 150.421C555.044 149.667 555.819 149.29 556.79 149.29C557.769 149.29 558.545 149.667 559.117 150.421C559.698 151.175 559.988 152.271 559.988 153.71C559.988 155.149 559.698 156.245 559.117 156.999C558.545 157.753 557.769 158.13 556.79 158.13ZM556.79 157.194C557.249 157.194 557.635 157.064 557.947 156.804C558.268 156.535 558.506 156.141 558.662 155.621C558.827 155.101 558.909 154.464 558.909 153.71C558.909 152.956 558.827 152.319 558.662 151.799C558.506 151.279 558.268 150.889 557.947 150.629C557.635 150.36 557.249 150.226 556.79 150.226C556.331 150.226 555.941 150.36 555.62 150.629C555.308 150.889 555.07 151.279 554.905 151.799C554.749 152.319 554.671 152.956 554.671 153.71C554.671 154.464 554.749 155.101 554.905 155.621C555.07 156.141 555.308 156.535 555.62 156.804C555.941 157.064 556.331 157.194 556.79 157.194ZM564.877 158.13C563.906 158.13 563.131 157.753 562.55 156.999C561.969 156.245 561.679 155.149 561.679 153.71C561.679 152.271 561.969 151.175 562.55 150.421C563.131 149.667 563.906 149.29 564.877 149.29C565.856 149.29 566.632 149.667 567.204 150.421C567.785 151.175 568.075 152.271 568.075 153.71C568.075 155.149 567.785 156.245 567.204 156.999C566.632 157.753 565.856 158.13 564.877 158.13ZM564.877 157.194C565.336 157.194 565.722 157.064 566.034 156.804C566.355 156.535 566.593 156.141 566.749 155.621C566.914 155.101 566.996 154.464 566.996 153.71C566.996 152.956 566.914 152.319 566.749 151.799C566.593 151.279 566.355 150.889 566.034 150.629C565.722 150.36 565.336 150.226 564.877 150.226C564.418 150.226 564.028 150.36 563.707 150.629C563.395 150.889 563.157 151.279 562.992 151.799C562.836 152.319 562.758 152.956 562.758 153.71C562.758 154.464 562.836 155.101 562.992 155.621C563.157 156.141 563.395 156.535 563.707 156.804C564.028 157.064 564.418 157.194 564.877 157.194ZM572.964 158.13C571.993 158.13 571.218 157.753 570.637 156.999C570.056 156.245 569.766 155.149 569.766 153.71C569.766 152.271 570.056 151.175 570.637 150.421C571.218 149.667 571.993 149.29 572.964 149.29C573.943 149.29 574.719 149.667 575.291 150.421C575.872 151.175 576.162 152.271 576.162 153.71C576.162 155.149 575.872 156.245 575.291 156.999C574.719 157.753 573.943 158.13 572.964 158.13ZM572.964 157.194C573.423 157.194 573.809 157.064 574.121 156.804C574.442 156.535 574.68 156.141 574.836 155.621C575.001 155.101 575.083 154.464 575.083 153.71C575.083 152.956 575.001 152.319 574.836 151.799C574.68 151.279 574.442 150.889 574.121 150.629C573.809 150.36 573.423 150.226 572.964 150.226C572.505 150.226 572.115 150.36 571.794 150.629C571.482 150.889 571.244 151.279 571.079 151.799C570.923 152.319 570.845 152.956 570.845 153.71C570.845 154.464 570.923 155.101 571.079 155.621C571.244 156.141 571.482 156.535 571.794 156.804C572.115 157.064 572.505 157.194 572.964 157.194ZM578.419 156.44C578.671 156.44 578.874 156.518 579.03 156.674C579.186 156.83 579.264 157.034 579.264 157.285C579.264 157.536 579.186 157.74 579.03 157.896C578.874 158.052 578.671 158.13 578.419 158.13C578.168 158.13 577.964 158.052 577.808 157.896C577.652 157.74 577.574 157.536 577.574 157.285C577.574 157.034 577.652 156.83 577.808 156.674C577.964 156.518 578.168 156.44 578.419 156.44ZM583.869 158.13C582.899 158.13 582.123 157.753 581.542 156.999C580.962 156.245 580.671 155.149 580.671 153.71C580.671 152.271 580.962 151.175 581.542 150.421C582.123 149.667 582.899 149.29 583.869 149.29C584.849 149.29 585.624 149.667 586.196 150.421C586.777 151.175 587.067 152.271 587.067 153.71C587.067 155.149 586.777 156.245 586.196 156.999C585.624 157.753 584.849 158.13 583.869 158.13ZM583.869 157.194C584.329 157.194 584.714 157.064 585.026 156.804C585.347 156.535 585.585 156.141 585.741 155.621C585.906 155.101 585.988 154.464 585.988 153.71C585.988 152.956 585.906 152.319 585.741 151.799C585.585 151.279 585.347 150.889 585.026 150.629C584.714 150.36 584.329 150.226 583.869 150.226C583.41 150.226 583.02 150.36 582.699 150.629C582.387 150.889 582.149 151.279 581.984 151.799C581.828 152.319 581.75 152.956 581.75 153.71C581.75 154.464 581.828 155.101 581.984 155.621C582.149 156.141 582.387 156.535 582.699 156.804C583.02 157.064 583.41 157.194 583.869 157.194ZM591.956 158.13C590.985 158.13 590.21 157.753 589.629 156.999C589.048 156.245 588.758 155.149 588.758 153.71C588.758 152.271 589.048 151.175 589.629 150.421C590.21 149.667 590.985 149.29 591.956 149.29C592.935 149.29 593.711 149.667 594.283 150.421C594.864 151.175 595.154 152.271 595.154 153.71C595.154 155.149 594.864 156.245 594.283 156.999C593.711 157.753 592.935 158.13 591.956 158.13ZM591.956 157.194C592.415 157.194 592.801 157.064 593.113 156.804C593.434 156.535 593.672 156.141 593.828 155.621C593.993 155.101 594.075 154.464 594.075 153.71C594.075 152.956 593.993 152.319 593.828 151.799C593.672 151.279 593.434 150.889 593.113 150.629C592.801 150.36 592.415 150.226 591.956 150.226C591.497 150.226 591.107 150.36 590.786 150.629C590.474 150.889 590.236 151.279 590.071 151.799C589.915 152.319 589.837 152.956 589.837 153.71C589.837 154.464 589.915 155.101 590.071 155.621C590.236 156.141 590.474 156.535 590.786 156.804C591.107 157.064 591.497 157.194 591.956 157.194Z" fill="white"/>
<path d="M65.2784 48V36.3636H69.4261C70.3277 36.3636 71.0758 36.5189 71.6705 36.8295C72.2689 37.1402 72.7159 37.5701 73.0114 38.1193C73.3068 38.6648 73.4545 39.2955 73.4545 40.0114C73.4545 40.7235 73.3049 41.3504 73.0057 41.892C72.7102 42.4299 72.2633 42.8485 71.6648 43.1477C71.0701 43.447 70.322 43.5966 69.4205 43.5966H66.2784V42.0852H69.2614C69.8295 42.0852 70.2917 42.0038 70.6477 41.8409C71.0076 41.678 71.2708 41.4413 71.4375 41.1307C71.6042 40.8201 71.6875 40.447 71.6875 40.0114C71.6875 39.572 71.6023 39.1913 71.4318 38.8693C71.2652 38.5473 71.0019 38.3011 70.642 38.1307C70.286 37.9564 69.8182 37.8693 69.2386 37.8693H67.0341V48H65.2784ZM71.0227 42.75L73.8977 48H71.8977L69.0795 42.75H71.0227ZM79.1065 48.1761C78.2467 48.1761 77.5062 47.9924 76.8849 47.625C76.2675 47.2538 75.7902 46.733 75.4531 46.0625C75.1198 45.3883 74.9531 44.5985 74.9531 43.6932C74.9531 42.7992 75.1198 42.0114 75.4531 41.3295C75.7902 40.6477 76.2599 40.1155 76.8622 39.733C77.4683 39.3504 78.1766 39.1591 78.9872 39.1591C79.4796 39.1591 79.9569 39.2405 80.419 39.4034C80.8812 39.5663 81.2959 39.822 81.6634 40.1705C82.0308 40.5189 82.3205 40.9716 82.5327 41.5284C82.7448 42.0814 82.8509 42.7538 82.8509 43.5455V44.1477H75.9134V42.875H81.1861C81.1861 42.428 81.0952 42.0322 80.9134 41.6875C80.7315 41.339 80.4759 41.0644 80.1463 40.8636C79.8205 40.6629 79.438 40.5625 78.9986 40.5625C78.5213 40.5625 78.1046 40.6799 77.7486 40.9148C77.3963 41.1458 77.1236 41.4489 76.9304 41.8239C76.741 42.1951 76.6463 42.5985 76.6463 43.0341V44.0284C76.6463 44.6117 76.7486 45.108 76.9531 45.517C77.1615 45.9261 77.4512 46.2386 77.8224 46.4545C78.1937 46.6667 78.6274 46.7727 79.1236 46.7727C79.4455 46.7727 79.7391 46.7273 80.0043 46.6364C80.2694 46.5417 80.4986 46.4015 80.6918 46.2159C80.8849 46.0303 81.0327 45.8011 81.1349 45.5284L82.7429 45.8182C82.6141 46.2917 82.383 46.7064 82.0497 47.0625C81.7202 47.4148 81.3054 47.6894 80.8054 47.8864C80.3092 48.0795 79.7429 48.1761 79.1065 48.1761ZM88.4119 48.1761C87.5672 48.1761 86.84 47.9848 86.2301 47.6023C85.6241 47.2159 85.1581 46.6837 84.8324 46.0057C84.5066 45.3277 84.3438 44.5511 84.3438 43.6761C84.3438 42.7898 84.5104 42.0076 84.8438 41.3295C85.1771 40.6477 85.6468 40.1155 86.2528 39.733C86.8589 39.3504 87.5729 39.1591 88.3949 39.1591C89.0578 39.1591 89.6487 39.2822 90.1676 39.5284C90.6866 39.7708 91.1051 40.1117 91.4233 40.5511C91.7453 40.9905 91.9366 41.5038 91.9972 42.0909H90.3438C90.2528 41.6818 90.0445 41.3295 89.7188 41.0341C89.3968 40.7386 88.965 40.5909 88.4233 40.5909C87.9498 40.5909 87.535 40.7159 87.179 40.9659C86.8267 41.2121 86.5521 41.5644 86.3551 42.0227C86.1581 42.4773 86.0597 43.0152 86.0597 43.6364C86.0597 44.2727 86.1563 44.822 86.3494 45.2841C86.5426 45.7462 86.8153 46.1042 87.1676 46.358C87.5237 46.6117 87.9422 46.7386 88.4233 46.7386C88.7453 46.7386 89.0369 46.6799 89.2983 46.5625C89.5634 46.4413 89.785 46.2689 89.9631 46.0455C90.1449 45.822 90.2718 45.553 90.3438 45.2386H91.9972C91.9366 45.803 91.7528 46.3068 91.446 46.75C91.1392 47.1932 90.7282 47.5417 90.2131 47.7955C89.7017 48.0492 89.1013 48.1761 88.4119 48.1761ZM97.4901 48.1761C96.6719 48.1761 95.9579 47.9886 95.348 47.6136C94.7382 47.2386 94.2647 46.714 93.9276 46.0398C93.5904 45.3655 93.4219 44.5777 93.4219 43.6761C93.4219 42.7708 93.5904 41.9792 93.9276 41.3011C94.2647 40.6231 94.7382 40.0966 95.348 39.7216C95.9579 39.3466 96.6719 39.1591 97.4901 39.1591C98.3082 39.1591 99.0223 39.3466 99.6321 39.7216C100.242 40.0966 100.715 40.6231 101.053 41.3011C101.39 41.9792 101.558 42.7708 101.558 43.6761C101.558 44.5777 101.39 45.3655 101.053 46.0398C100.715 46.714 100.242 47.2386 99.6321 47.6136C99.0223 47.9886 98.3082 48.1761 97.4901 48.1761ZM97.4957 46.75C98.026 46.75 98.4654 46.6098 98.8139 46.3295C99.1624 46.0492 99.42 45.6761 99.5866 45.2102C99.7571 44.7443 99.8423 44.2311 99.8423 43.6705C99.8423 43.1136 99.7571 42.6023 99.5866 42.1364C99.42 41.6667 99.1624 41.2898 98.8139 41.0057C98.4654 40.7216 98.026 40.5795 97.4957 40.5795C96.9616 40.5795 96.5185 40.7216 96.1662 41.0057C95.8177 41.2898 95.5582 41.6667 95.3878 42.1364C95.2211 42.6023 95.1378 43.1136 95.1378 43.6705C95.1378 44.2311 95.2211 44.7443 95.3878 45.2102C95.5582 45.6761 95.8177 46.0492 96.1662 46.3295C96.5185 46.6098 96.9616 46.75 97.4957 46.75ZM105.153 42.8182V48H103.455V39.2727H105.085V40.6932H105.193C105.394 40.2311 105.708 39.8598 106.136 39.5795C106.568 39.2992 107.112 39.1591 107.767 39.1591C108.362 39.1591 108.883 39.2841 109.33 39.5341C109.777 39.7803 110.123 40.1477 110.369 40.6364C110.616 41.125 110.739 41.7292 110.739 42.4489V48H109.04V42.6534C109.04 42.0208 108.875 41.5265 108.545 41.1705C108.216 40.8106 107.763 40.6307 107.188 40.6307C106.794 40.6307 106.443 40.7159 106.136 40.8864C105.833 41.0568 105.593 41.3068 105.415 41.6364C105.241 41.9621 105.153 42.3561 105.153 42.8182ZM116.693 48.1761C115.848 48.1761 115.121 47.9848 114.511 47.6023C113.905 47.2159 113.439 46.6837 113.114 46.0057C112.788 45.3277 112.625 44.5511 112.625 43.6761C112.625 42.7898 112.792 42.0076 113.125 41.3295C113.458 40.6477 113.928 40.1155 114.534 39.733C115.14 39.3504 115.854 39.1591 116.676 39.1591C117.339 39.1591 117.93 39.2822 118.449 39.5284C118.968 39.7708 119.386 40.1117 119.705 40.5511C120.027 40.9905 120.218 41.5038 120.278 42.0909H118.625C118.534 41.6818 118.326 41.3295 118 41.0341C117.678 40.7386 117.246 40.5909 116.705 40.5909C116.231 40.5909 115.816 40.7159 115.46 40.9659C115.108 41.2121 114.833 41.5644 114.636 42.0227C114.439 42.4773 114.341 43.0152 114.341 43.6364C114.341 44.2727 114.438 44.822 114.631 45.2841C114.824 45.7462 115.097 46.1042 115.449 46.358C115.805 46.6117 116.223 46.7386 116.705 46.7386C117.027 46.7386 117.318 46.6799 117.58 46.5625C117.845 46.4413 118.066 46.2689 118.244 46.0455C118.426 45.822 118.553 45.553 118.625 45.2386H120.278C120.218 45.803 120.034 46.3068 119.727 46.75C119.42 47.1932 119.009 47.5417 118.494 47.7955C117.983 48.0492 117.383 48.1761 116.693 48.1761ZM122.095 48V39.2727H123.794V48H122.095ZM122.953 37.9261C122.658 37.9261 122.404 37.8277 122.192 37.6307C121.983 37.4299 121.879 37.1913 121.879 36.9148C121.879 36.6345 121.983 36.3958 122.192 36.1989C122.404 35.9981 122.658 35.8977 122.953 35.8977C123.249 35.8977 123.5 35.9981 123.709 36.1989C123.921 36.3958 124.027 36.6345 124.027 36.9148C124.027 37.1913 123.921 37.4299 123.709 37.6307C123.5 37.8277 123.249 37.9261 122.953 37.9261ZM127.778 36.3636V48H126.08V36.3636H127.778ZM130.064 48V39.2727H131.763V48H130.064ZM130.922 37.9261C130.626 37.9261 130.373 37.8277 130.161 37.6307C129.952 37.4299 129.848 37.1913 129.848 36.9148C129.848 36.6345 129.952 36.3958 130.161 36.1989C130.373 35.9981 130.626 35.8977 130.922 35.8977C131.217 35.8977 131.469 35.9981 131.678 36.1989C131.89 36.3958 131.996 36.6345 131.996 36.9148C131.996 37.1913 131.89 37.4299 131.678 37.6307C131.469 37.8277 131.217 37.9261 130.922 37.9261ZM136.588 48.1932C136.035 48.1932 135.535 48.0909 135.088 47.8864C134.641 47.678 134.287 47.3769 134.026 46.983C133.768 46.589 133.639 46.1061 133.639 45.5341C133.639 45.0417 133.734 44.6364 133.923 44.3182C134.113 44 134.368 43.7481 134.69 43.5625C135.012 43.3769 135.372 43.2367 135.77 43.142C136.168 43.0473 136.573 42.9754 136.986 42.9261C137.509 42.8655 137.933 42.8163 138.259 42.7784C138.584 42.7367 138.821 42.6705 138.969 42.5795C139.116 42.4886 139.19 42.3409 139.19 42.1364V42.0966C139.19 41.6004 139.05 41.2159 138.77 40.9432C138.493 40.6705 138.08 40.5341 137.531 40.5341C136.959 40.5341 136.509 40.661 136.179 40.9148C135.853 41.1648 135.628 41.4432 135.503 41.75L133.906 41.3864C134.096 40.8561 134.372 40.428 134.736 40.1023C135.103 39.7727 135.526 39.5341 136.003 39.3864C136.48 39.2348 136.982 39.1591 137.509 39.1591C137.857 39.1591 138.226 39.2008 138.616 39.2841C139.01 39.3636 139.378 39.5114 139.719 39.7273C140.063 39.9432 140.346 40.2519 140.565 40.6534C140.785 41.0511 140.895 41.5682 140.895 42.2045V48H139.236V46.8068H139.168C139.058 47.0265 138.893 47.2424 138.673 47.4545C138.454 47.6667 138.171 47.8428 137.827 47.983C137.482 48.1231 137.069 48.1932 136.588 48.1932ZM136.957 46.8295C137.427 46.8295 137.829 46.7367 138.162 46.5511C138.499 46.3655 138.755 46.1231 138.929 45.8239C139.107 45.5208 139.196 45.197 139.196 44.8523V43.7273C139.135 43.7879 139.018 43.8447 138.844 43.8977C138.673 43.947 138.478 43.9905 138.259 44.0284C138.039 44.0625 137.825 44.0947 137.616 44.125C137.408 44.1515 137.234 44.1742 137.094 44.1932C136.764 44.2348 136.463 44.3049 136.19 44.4034C135.921 44.5019 135.705 44.6439 135.543 44.8295C135.384 45.0114 135.304 45.2538 135.304 45.5568C135.304 45.9773 135.459 46.2955 135.77 46.5114C136.08 46.7235 136.476 46.8295 136.957 46.8295ZM147.232 39.2727V40.6364H142.464V39.2727H147.232ZM143.743 37.1818H145.442V45.4375C145.442 45.767 145.491 46.0152 145.589 46.1818C145.688 46.3447 145.815 46.4564 145.97 46.517C146.129 46.5739 146.302 46.6023 146.487 46.6023C146.624 46.6023 146.743 46.5928 146.845 46.5739C146.947 46.5549 147.027 46.5398 147.084 46.5284L147.391 47.9318C147.292 47.9697 147.152 48.0076 146.97 48.0455C146.788 48.0871 146.561 48.1098 146.288 48.1136C145.841 48.1212 145.425 48.0417 145.038 47.875C144.652 47.7083 144.339 47.4508 144.101 47.1023C143.862 46.7538 143.743 46.3163 143.743 45.7898V37.1818ZM149.111 48V39.2727H150.81V48H149.111ZM149.969 37.9261C149.673 37.9261 149.42 37.8277 149.207 37.6307C148.999 37.4299 148.895 37.1913 148.895 36.9148C148.895 36.6345 148.999 36.3958 149.207 36.1989C149.42 35.9981 149.673 35.8977 149.969 35.8977C150.264 35.8977 150.516 35.9981 150.724 36.1989C150.937 36.3958 151.043 36.6345 151.043 36.9148C151.043 37.1913 150.937 37.4299 150.724 37.6307C150.516 37.8277 150.264 37.9261 149.969 37.9261ZM156.771 48.1761C155.953 48.1761 155.239 47.9886 154.629 47.6136C154.019 47.2386 153.546 46.714 153.209 46.0398C152.872 45.3655 152.703 44.5777 152.703 43.6761C152.703 42.7708 152.872 41.9792 153.209 41.3011C153.546 40.6231 154.019 40.0966 154.629 39.7216C155.239 39.3466 155.953 39.1591 156.771 39.1591C157.589 39.1591 158.304 39.3466 158.913 39.7216C159.523 40.0966 159.997 40.6231 160.334 41.3011C160.671 41.9792 160.839 42.7708 160.839 43.6761C160.839 44.5777 160.671 45.3655 160.334 46.0398C159.997 46.714 159.523 47.2386 158.913 47.6136C158.304 47.9886 157.589 48.1761 156.771 48.1761ZM156.777 46.75C157.307 46.75 157.747 46.6098 158.095 46.3295C158.444 46.0492 158.701 45.6761 158.868 45.2102C159.038 44.7443 159.124 44.2311 159.124 43.6705C159.124 43.1136 159.038 42.6023 158.868 42.1364C158.701 41.6667 158.444 41.2898 158.095 41.0057C157.747 40.7216 157.307 40.5795 156.777 40.5795C156.243 40.5795 155.8 40.7216 155.447 41.0057C155.099 41.2898 154.839 41.6667 154.669 42.1364C154.502 42.6023 154.419 43.1136 154.419 43.6705C154.419 44.2311 154.502 44.7443 154.669 45.2102C154.839 45.6761 155.099 46.0492 155.447 46.3295C155.8 46.6098 156.243 46.75 156.777 46.75ZM164.435 42.8182V48H162.736V39.2727H164.366V40.6932H164.474C164.675 40.2311 164.99 39.8598 165.418 39.5795C165.849 39.2992 166.393 39.1591 167.048 39.1591C167.643 39.1591 168.164 39.2841 168.611 39.5341C169.058 39.7803 169.404 40.1477 169.651 40.6364C169.897 41.125 170.02 41.7292 170.02 42.4489V48H168.321V42.6534C168.321 42.0208 168.156 41.5265 167.827 41.1705C167.497 40.8106 167.045 40.6307 166.469 40.6307C166.075 40.6307 165.724 40.7159 165.418 40.8864C165.115 41.0568 164.874 41.3068 164.696 41.6364C164.522 41.9621 164.435 42.3561 164.435 42.8182Z" fill="white"/>
<rect x="32" y="30" width="24" height="24" rx="2" fill="#F4F4F5"/>
<g clip-path="url(#clip0_3550_108085)">
<path d="M43.9997 35.332C40.3197 35.332 37.333 38.3187 37.333 41.9987C37.333 45.6787 40.3197 48.6654 43.9997 48.6654C47.6797 48.6654 50.6663 45.6787 50.6663 41.9987C50.6663 38.3187 47.6797 35.332 43.9997 35.332ZM43.9997 47.332C41.0597 47.332 38.6663 44.9387 38.6663 41.9987C38.6663 39.0587 41.0597 36.6654 43.9997 36.6654C46.9397 36.6654 49.333 39.0587 49.333 41.9987C49.333 44.9387 46.9397 47.332 43.9997 47.332Z" fill="#212121"/>
<path d="M41.3333 44.6667C41.687 44.6667 42.0261 44.5262 42.2761 44.2761C42.5262 44.0261 42.6667 43.687 42.6667 43.3333C42.6667 42.9797 42.5262 42.6406 42.2761 42.3905C42.0261 42.1405 41.687 42 41.3333 42C40.9797 42 40.6406 42.1405 40.3905 42.3905C40.1405 42.6406 40 42.9797 40 43.3333C40 43.687 40.1405 44.0261 40.3905 44.2761C40.6406 44.5262 40.9797 44.6667 41.3333 44.6667Z" fill="#212121"/>
<path d="M43.9993 40.6667C44.353 40.6667 44.6921 40.5262 44.9422 40.2761C45.1922 40.0261 45.3327 39.687 45.3327 39.3333C45.3327 38.9797 45.1922 38.6406 44.9422 38.3905C44.6921 38.1405 44.353 38 43.9993 38C43.6457 38 43.3066 38.1405 43.0565 38.3905C42.8065 38.6406 42.666 38.9797 42.666 39.3333C42.666 39.687 42.8065 40.0261 43.0565 40.2761C43.3066 40.5262 43.6457 40.6667 43.9993 40.6667Z" fill="#212121"/>
<path d="M46.6663 44.6667C47.02 44.6667 47.3591 44.5262 47.6091 44.2761C47.8592 44.0261 47.9997 43.687 47.9997 43.3333C47.9997 42.9797 47.8592 42.6406 47.6091 42.3905C47.3591 42.1405 47.02 42 46.6663 42C46.3127 42 45.9736 42.1405 45.7235 42.3905C45.4735 42.6406 45.333 42.9797 45.333 43.3333C45.333 43.687 45.4735 44.0261 45.7235 44.2761C45.9736 44.5262 46.3127 44.6667 46.6663 44.6667Z" fill="#212121"/>
</g>
</g>
<defs>
<filter id="filter0_d_3550_108085" x="0" y="0" width="628" height="202" filterUnits="userSpaceOnUse" color-interpolation-filters="sRGB">
<feFlood flood-opacity="0" result="BackgroundImageFix"/>
<feColorMatrix in="SourceAlpha" type="matrix" values="0 0 0 0 0 0 0 0 0 0 0 0 0 0 0 0 0 0 127 0" result="hardAlpha"/>
<feOffset dy="2"/>
<feGaussianBlur stdDeviation="8"/>
<feComposite in2="hardAlpha" operator="out"/>
<feColorMatrix type="matrix" values="0 0 0 0 0.0352941 0 0 0 0 0.0352941 0 0 0 0 0.0431373 0 0 0 0.08 0"/>
<feBlend mode="normal" in2="BackgroundImageFix" result="effect1_dropShadow_3550_108085"/>
<feBlend mode="normal" in="SourceGraphic" in2="effect1_dropShadow_3550_108085" result="shape"/>
</filter>
<linearGradient id="paint0_linear_3550_108085" x1="-256.76" y1="-115.563" x2="299.148" y2="616.018" gradientUnits="userSpaceOnUse">
<stop stop-color="white"/>
<stop offset="1" stop-color="white" stop-opacity="0"/>
</linearGradient>
<linearGradient id="paint1_linear_3550_108085" x1="-175.339" y1="-78.8398" x2="356.071" y2="631.725" gradientUnits="userSpaceOnUse">
<stop stop-color="white"/>
<stop offset="1" stop-color="white" stop-opacity="0"/>
</linearGradient>
<clipPath id="clip0_3550_108085">
<rect width="16" height="16" fill="white" transform="translate(36 34)"/>
</clipPath>
</defs>
</svg>
