<svg width="44" height="44" viewBox="0 0 44 44" fill="none" xmlns="http://www.w3.org/2000/svg">
<path fill-rule="evenodd" clip-rule="evenodd" d="M23.5 8.5V35.5H20.5V8.5H23.5Z" fill="white"/>
<path fill-rule="evenodd" clip-rule="evenodd" d="M7.05327 11.3153C4.8181 14.3508 3.5 18.0898 3.5 22.138C3.5 32.2693 11.7729 40.5001 22 40.5001C23.9373 40.5001 25.8023 40.205 27.5533 39.6588L28.9853 39.2122L29.8786 42.0761L28.4467 42.5227C26.4096 43.1581 24.2435 43.5001 22 43.5001C10.1357 43.5001 0.5 33.9457 0.5 22.138C0.5 17.9619 1.70737 14.0634 3.793 10.7716L4.63953 9.53381C4.71116 9.43651 7.18809 11.133 7.05327 11.3153Z" fill="white"/>
<path d="M16.4492 4.34668L15.0181 4.79615L14.1191 1.934L15.5502 1.48453C17.5881 0.84448 19.7551 0.5 21.9997 0.5C33.8738 0.5 43.4997 10.1259 43.4997 22C43.4997 26.5529 41.9941 30.7305 39.507 34.4824L39.4753 34.5267L37.0384 32.777C39.3701 29.5298 40.4997 26.0034 40.4997 22C40.4997 9.6685 28.0371 0.70712 16.4492 4.34668Z" fill="white"/>
<path d="M43.1034 35.3564L34.5989 39.5614L33.9883 30.0938L43.1034 35.3564Z" fill="white"/>
<path d="M0.896484 8.64356L9.40104 4.43848L10.0116 13.9062L0.896484 8.64356Z" fill="white"/>
<path fill-rule="evenodd" clip-rule="evenodd" d="M13.5 17.75C13.5 14.5744 16.0744 12 19.25 12H28V15H19.25C17.7312 15 16.5 16.2312 16.5 17.75C16.5 19.2688 17.7312 20.5 19.25 20.5H24.75C27.9256 20.5 30.5 23.0744 30.5 26.25C30.5 29.4256 27.9256 32 24.75 32H16V29H24.75C26.2688 29 27.5 27.7688 27.5 26.25C27.5 24.7312 26.2688 23.5 24.75 23.5H19.25C16.0744 23.5 13.5 20.9256 13.5 17.75Z" fill="white"/>
</svg>
