<svg width="48" height="48" viewBox="0 0 48 48" fill="none" xmlns="http://www.w3.org/2000/svg">
<rect width="48" height="48" rx="4" fill="white" fill-opacity="0.1"/>
<path fill-rule="evenodd" clip-rule="evenodd" d="M26 30V34.6363C26 34.8399 26.2271 35.3509 27.3664 35.8687C28.4155 36.3456 29.9349 36.6667 31.6667 36.6667C33.3985 36.6667 34.9179 36.3456 35.9669 35.8687C37.1062 35.3509 37.3333 34.8399 37.3333 34.6363V30H39.3333V34.6363C39.3333 36.1065 38.0681 37.1106 36.7945 37.6895C35.4307 38.3094 33.6167 38.6667 31.6667 38.6667C29.7166 38.6667 27.9027 38.3094 26.5388 37.6895C25.2653 37.1106 24 36.1065 24 34.6363V30H26Z" fill="white"/>
<path fill-rule="evenodd" clip-rule="evenodd" d="M31.6667 26C29.657 26 27.8049 26.3865 26.4303 27.0411C25.1054 27.6719 24 28.6738 24 30C24 31.3262 25.1054 32.3281 26.4303 32.9589C27.8049 33.6135 29.657 34 31.6667 34C33.6763 34 35.5285 33.6135 36.9031 32.9589C38.2279 32.3281 39.3333 31.3262 39.3333 30C39.3333 28.6738 38.2279 27.6719 36.9031 27.0411C35.5285 26.3865 33.6763 26 31.6667 26ZM29.3333 29V31H34V29H29.3333Z" fill="white"/>
<path d="M39.3337 10.666H8.66699V31.9993H22.0031C22.0019 31.3351 22.0003 30.6705 22.0003 29.9993H10.667V12.666H37.3337V25.0423C37.4799 25.1038 37.6231 25.1679 37.7633 25.2347C38.2545 25.4686 38.8099 25.7891 39.3337 26.2049V10.666Z" fill="white"/>
<path fill-rule="evenodd" clip-rule="evenodd" d="M12.667 16.666C13.7716 16.666 14.667 15.7706 14.667 14.666H33.3337C33.3337 15.7706 34.2291 16.666 35.3337 16.666V24.4037C34.1839 24.1369 32.9385 23.9993 31.667 23.9993C29.4273 23.9993 27.2689 24.4261 25.5707 25.2347C24.5226 25.7338 23.1828 26.6267 22.48 27.9993H14.667C14.667 26.8947 13.7716 25.9993 12.667 25.9993V16.666ZM24.0003 24.666C25.8413 24.666 27.3337 23.1736 27.3337 21.3327C27.3337 19.4917 25.8413 17.9993 24.0003 17.9993C22.1594 17.9993 20.667 19.4917 20.667 21.3327C20.667 23.1736 22.1594 24.666 24.0003 24.666ZM33.0003 20.3327H29.667V22.3327H33.0003V20.3327ZM15.0003 22.3327V20.3327H18.3337V22.3327H15.0003Z" fill="white"/>
</svg>
