<svg width="48" height="48" viewBox="0 0 48 48" fill="none" xmlns="http://www.w3.org/2000/svg">
<rect width="48" height="48" rx="4" fill="white" fill-opacity="0.1"/>
<path d="M17.3333 18.0007C19.1743 18.0007 20.6667 16.5083 20.6667 14.6673C20.6667 12.8264 19.1743 11.334 17.3333 11.334C15.4924 11.334 14 12.8264 14 14.6673C14 16.5083 15.4924 18.0007 17.3333 18.0007Z" fill="white"/>
<path d="M30.6668 28.6667C32.5078 28.6667 34.0002 27.1743 34.0002 25.3333C34.0002 23.4924 32.5078 22 30.6668 22C28.8259 22 27.3335 23.4924 27.3335 25.3333C27.3335 27.1743 28.8259 28.6667 30.6668 28.6667Z" fill="white"/>
<path fill-rule="evenodd" clip-rule="evenodd" d="M31.7476 16.3341L28.7476 13.3341L31.7476 10.3341L30.3334 8.91992L25.9192 13.3341L30.3334 17.7483L31.7476 16.3341Z" fill="white"/>
<path fill-rule="evenodd" clip-rule="evenodd" d="M17.6666 39.0823L22.0808 34.6681L17.6666 30.2539L16.2524 31.6681L19.2524 34.6681L16.2524 37.6681L17.6666 39.0823Z" fill="white"/>
<path fill-rule="evenodd" clip-rule="evenodd" d="M37.3335 18.0007V16.0007C37.3335 13.9756 35.6919 12.334 33.6668 12.334H27.3335V14.334H33.6668C34.5873 14.334 35.3335 15.0802 35.3335 16.0007V18.0007H37.3335Z" fill="white"/>
<path fill-rule="evenodd" clip-rule="evenodd" d="M10.6667 30V32C10.6667 34.0251 12.3084 35.6667 14.3334 35.6667H20.6667V33.6667H14.3334C13.4129 33.6667 12.6667 32.9205 12.6667 32V30H10.6667Z" fill="white"/>
<path fill-rule="evenodd" clip-rule="evenodd" d="M24.0921 35.5563C24.6212 32.4029 27.3627 30 30.6667 30C33.9707 30 36.7121 32.4029 37.2412 35.5563L37.3455 36.1784L35.2097 36.6597C32.2185 37.3337 29.1148 37.3337 26.1236 36.6597L23.9878 36.1784L24.0921 35.5563Z" fill="white"/>
<path fill-rule="evenodd" clip-rule="evenodd" d="M10.7711 24.8903C11.3002 21.7369 14.0416 19.334 17.3456 19.334C20.6496 19.334 23.3911 21.7369 23.9201 24.8903L24.0245 25.5124L21.8887 25.9937C18.8975 26.6677 15.7937 26.6677 12.8026 25.9937L10.6667 25.5124L10.7711 24.8903Z" fill="white"/>
</svg>
