<svg width="48" height="48" viewBox="0 0 48 48" fill="none" xmlns="http://www.w3.org/2000/svg">
<path d="M9.99479 15.9993C13.6767 15.9993 16.6615 13.0146 16.6615 9.33268C16.6615 5.65078 13.6767 2.66602 9.99479 2.66602C6.31289 2.66602 3.32812 5.65078 3.32812 9.33268C3.32812 13.0146 6.31289 15.9993 9.99479 15.9993Z" fill="white"/>
<path d="M21.4134 27.6481C19.4507 27.0747 18.1174 26.0107 17.4561 24.4907C16.1974 21.6081 14.3307 18.6641 9.99739 18.6641C5.95473 18.6641 2.66406 21.9521 2.66406 25.9974V37.9974C2.66406 40.5707 4.7574 42.6641 7.33073 42.6641H12.6641C15.2374 42.6641 17.3307 40.5707 17.3307 37.9974V30.1734C18.2027 30.7227 19.1921 31.1627 20.2881 31.4854C21.3574 31.8001 22.4614 31.1894 22.7707 30.1281C23.0801 29.0667 22.4747 27.9574 21.4134 27.6454V27.6481Z" fill="white"/>
<path d="M37.9946 18.666C33.6613 18.666 31.7946 21.61 30.5359 24.4927C29.8719 26.0127 28.5413 27.074 26.5786 27.65C25.5199 27.9593 24.9119 29.0713 25.2213 30.1327C25.5306 31.194 26.6346 31.7993 27.7039 31.49C28.7999 31.1673 29.7893 30.7273 30.6613 30.178V38.002C30.6613 40.5753 32.7546 42.6687 35.3279 42.6687H40.6613C43.2346 42.6687 45.3279 40.5753 45.3279 38.002V26.002C45.3279 21.9567 42.0373 18.666 37.9946 18.666Z" fill="white"/>
<path d="M37.9948 15.9993C41.6767 15.9993 44.6615 13.0146 44.6615 9.33268C44.6615 5.65078 41.6767 2.66602 37.9948 2.66602C34.3129 2.66602 31.3281 5.65078 31.3281 9.33268C31.3281 13.0146 34.3129 15.9993 37.9948 15.9993Z" fill="white"/>
</svg>
