<svg width="44" height="46" viewBox="0 0 44 46" fill="none" xmlns="http://www.w3.org/2000/svg">
<path d="M11 39V39.5C11 43.084 8.584 46 5 46C8.976 46 35.682 46 36 46C38.761 46 41 43.761 41 41V39H11Z" fill="white"/>
<path d="M36 23C33.747 23 31.674 22.242 30 20.981V30C30 30.36 30.194 30.693 30.507 30.87C30.82 31.048 31.205 31.044 31.514 30.857L36 28.166L40.485 30.857C40.793 31.043 41.18 31.048 41.492 30.87C41.806 30.692 42 30.36 42 30V20.981C40.326 22.242 38.253 23 36 23Z" fill="white"/>
<path d="M29.52 32.609C28.583 32.08 28 31.079 28 30V18.974C26.75 17.305 26 15.241 26 12.999C26 7.485 30.486 2.999 36 2.999V1C36 0.448 35.552 0 35 0H1C0.448 0 0 0.448 0 1V39.5C0 41.985 2.015 44 4.5 44C6.985 44 9 41.985 9 39.5V37H36V30.498L32.543 32.572C31.621 33.129 30.461 33.143 29.52 32.609ZM17 28H8C7.448 28 7 27.552 7 27C7 26.448 7.448 26 8 26H17C17.552 26 18 26.448 18 27C18 27.552 17.552 28 17 28ZM21 20H8C7.448 20 7 19.552 7 19C7 18.448 7.448 18 8 18H21C21.552 18 22 18.448 22 19C22 19.552 21.552 20 21 20ZM21 12H8C7.448 12 7 11.552 7 11C7 10.448 7.448 10 8 10H21C21.552 10 22 10.448 22 11C22 11.552 21.552 12 21 12Z" fill="white"/>
<path d="M36 21C40.4183 21 44 17.4183 44 13C44 8.58172 40.4183 5 36 5C31.5817 5 28 8.58172 28 13C28 17.4183 31.5817 21 36 21Z" fill="white"/>
</svg>
