<svg width="41" height="40" viewBox="0 0 41 40" fill="none" xmlns="http://www.w3.org/2000/svg">
<rect x="0.333496" y="0.000854492" width="40" height="40" rx="4" fill="white" fill-opacity="0.1"/>
<g clip-path="url(#clip0_2081_38135)">
<path fill-rule="evenodd" clip-rule="evenodd" d="M14.8335 22.0009V27.0009C14.8335 27.8293 15.505 28.5009 16.3335 28.5009H20.3335V30.0009H16.3335C14.6766 30.0009 13.3335 28.6577 13.3335 27.0009V22.0009H14.8335Z" fill="white"/>
<path fill-rule="evenodd" clip-rule="evenodd" d="M18.8335 22.2445C18.8335 18.7761 21.7646 16.0009 25.3335 16.0009C28.9023 16.0009 31.8335 18.7761 31.8335 22.2445C31.8335 25.6906 29.1183 28.5285 25.6149 30.9142L25.3335 31.1058L25.0521 30.9142C21.5486 28.5285 18.8335 25.6906 18.8335 22.2445ZM23.3335 22.5009C23.3335 21.3963 24.2289 20.5009 25.3335 20.5009C26.438 20.5009 27.3335 21.3963 27.3335 22.5009C27.3335 23.6054 26.438 24.5009 25.3335 24.5009C24.2289 24.5009 23.3335 23.6054 23.3335 22.5009Z" fill="white"/>
<path fill-rule="evenodd" clip-rule="evenodd" d="M8.8335 13.8086C8.8335 11.1331 11.093 9.00085 13.8335 9.00085C16.5739 9.00085 18.8335 11.1331 18.8335 13.8086C18.8335 16.4617 16.7453 18.623 14.1149 20.4142L13.8335 20.6058L13.5521 20.4142C10.9216 18.623 8.8335 16.4617 8.8335 13.8086ZM12.0835 14.0009C12.0835 13.0344 12.867 12.2509 13.8335 12.2509C14.8 12.2509 15.5835 13.0344 15.5835 14.0009C15.5835 14.9674 14.8 15.7509 13.8335 15.7509C12.867 15.7509 12.0835 14.9674 12.0835 14.0009Z" fill="white"/>
</g>
<defs>
<clipPath id="clip0_2081_38135">
<rect width="24" height="24" fill="white" transform="translate(8.3335 8.00085)"/>
</clipPath>
</defs>
</svg>
