<svg width="390" height="440" viewBox="0 0 390 440" fill="none" xmlns="http://www.w3.org/2000/svg">
<g clip-path="url(#clip0_1323_6010)">
<path d="M0 8.00097C0 3.58269 3.58172 0.000976562 8 0.000976562H382C386.418 0.000976562 390 3.5827 390 8.00098V432.001C390 436.419 386.418 440.001 382 440.001H8C3.58172 440.001 0 436.419 0 432.001V8.00097Z" fill="url(#paint0_linear_1323_6010)" fill-opacity="0.1"/>
<path d="M0 8.00098C0 3.5827 3.58172 0.000976562 8 0.000976562H382C386.418 0.000976562 390 3.5827 390 8.00098V55.001H0V8.00098Z" fill="url(#paint1_linear_1323_6010)" fill-opacity="0.1"/>
<path d="M24 33.001L20.08 21.801H21.92L25.12 31.081H25.44L28.64 21.801H30.48L26.56 33.001H24ZM31.6025 33.001V25.001H33.2025V33.001H31.6025ZM31.5225 23.481V21.801H33.2825V23.481H31.5225ZM36.49 28.361H41.21C41.1247 27.7103 40.874 27.1876 40.458 26.793C40.042 26.3983 39.5193 26.201 38.89 26.201C38.2287 26.201 37.6953 26.3983 37.29 26.793C36.8847 27.177 36.618 27.6996 36.49 28.361ZM40.81 30.681H42.49C42.2553 31.321 41.8287 31.897 41.21 32.409C40.602 32.9103 39.8287 33.161 38.89 33.161C37.7273 33.161 36.7673 32.777 36.01 32.009C35.2633 31.241 34.89 30.2383 34.89 29.001C34.89 27.7636 35.2633 26.761 36.01 25.993C36.7673 25.225 37.7273 24.841 38.89 24.841C39.978 24.841 40.89 25.2143 41.626 25.961C42.362 26.7076 42.73 27.641 42.73 28.761C42.73 28.857 42.714 29.049 42.682 29.337L42.65 29.561H36.49C36.5753 30.2436 36.8367 30.7876 37.274 31.193C37.7113 31.5983 38.25 31.801 38.89 31.801C39.338 31.801 39.7327 31.6943 40.074 31.481C40.426 31.257 40.6713 30.9903 40.81 30.681ZM45.5388 33.001L43.3788 25.001H45.0588L46.5788 30.921H46.8988L48.4668 25.001H50.6108L52.1788 30.921H52.4988L54.0188 25.001H55.6988L53.5388 33.001H51.2188L49.6988 27.241H49.3788L47.8588 33.001H45.5388ZM62.0206 31.401H64.2606C65.3166 31.401 66.1913 31.033 66.8846 30.297C67.5886 29.5503 67.9406 28.585 67.9406 27.401C67.9406 26.217 67.5886 25.257 66.8846 24.521C66.1913 23.7743 65.3166 23.401 64.2606 23.401H62.0206V31.401ZM60.3406 33.001V21.801H64.2606C65.786 21.801 67.0606 22.329 68.0846 23.385C69.1086 24.441 69.6206 25.7796 69.6206 27.401C69.6206 29.0223 69.1086 30.361 68.0846 31.417C67.0606 32.473 65.786 33.001 64.2606 33.001H60.3406ZM72.5838 28.361H77.3038C77.2184 27.7103 76.9678 27.1876 76.5518 26.793C76.1358 26.3983 75.6131 26.201 74.9838 26.201C74.3224 26.201 73.7891 26.3983 73.3838 26.793C72.9784 27.177 72.7118 27.6996 72.5838 28.361ZM76.9038 30.681H78.5838C78.3491 31.321 77.9224 31.897 77.3038 32.409C76.6958 32.9103 75.9224 33.161 74.9838 33.161C73.8211 33.161 72.8611 32.777 72.1038 32.009C71.3571 31.241 70.9838 30.2383 70.9838 29.001C70.9838 27.7636 71.3571 26.761 72.1038 25.993C72.8611 25.225 73.8211 24.841 74.9838 24.841C76.0718 24.841 76.9838 25.2143 77.7198 25.961C78.4558 26.7076 78.8238 27.641 78.8238 28.761C78.8238 28.857 78.8078 29.049 78.7758 29.337L78.7438 29.561H72.5838C72.6691 30.2436 72.9304 30.7876 73.3678 31.193C73.8051 31.5983 74.3438 31.801 74.9838 31.801C75.4318 31.801 75.8264 31.6943 76.1678 31.481C76.5198 31.257 76.7651 30.9903 76.9038 30.681ZM80.8363 31.321V26.521H79.5563V25.001H80.8363V22.761H82.4363V25.001H84.2763V26.521H82.4363V31.081C82.4363 31.401 82.5963 31.561 82.9163 31.561H84.2763V33.001H82.5963C82.0309 33.001 81.5936 32.8516 81.2843 32.553C80.9856 32.2543 80.8363 31.8436 80.8363 31.321ZM90.9275 33.001L90.7675 32.121H90.6875C90.5275 32.3236 90.3355 32.4996 90.1115 32.649C89.5995 32.9903 88.9915 33.161 88.2875 33.161C87.4128 33.161 86.7142 32.9316 86.1915 32.473C85.6688 32.0143 85.4075 31.417 85.4075 30.681C85.4075 29.8596 85.6795 29.2143 86.2235 28.745C86.7782 28.2756 87.5995 28.041 88.6875 28.041H90.6875V27.881C90.6875 27.3583 90.5382 26.9476 90.2395 26.649C89.9408 26.3503 89.5302 26.201 89.0075 26.201C88.4955 26.201 88.1008 26.3183 87.8235 26.553C87.5462 26.777 87.3808 27.033 87.3275 27.321H85.7275C85.7702 26.617 86.0848 26.0303 86.6715 25.561C87.2582 25.081 88.0368 24.841 89.0075 24.841C90.0422 24.841 90.8475 25.113 91.4235 25.657C91.9995 26.201 92.2875 26.9423 92.2875 27.881V33.001H90.9275ZM90.6875 29.641V29.321H88.7675C88.1808 29.321 87.7382 29.4383 87.4395 29.673C87.1515 29.9076 87.0075 30.217 87.0075 30.601C87.0075 30.9743 87.1302 31.2676 87.3755 31.481C87.6208 31.6943 87.9782 31.801 88.4475 31.801C89.1728 31.801 89.7275 31.6143 90.1115 31.241C90.4955 30.857 90.6875 30.3236 90.6875 29.641ZM94.29 33.001V25.001H95.89V33.001H94.29ZM94.21 23.481V21.801H95.97V23.481H94.21ZM98.0575 33.001V21.801H99.6575V33.001H98.0575ZM101.261 30.601H102.861C102.861 30.889 103.021 31.161 103.341 31.417C103.661 31.673 104.115 31.801 104.701 31.801C105.256 31.801 105.672 31.6996 105.949 31.497C106.237 31.2836 106.381 31.0383 106.381 30.761C106.381 30.473 106.291 30.249 106.109 30.089C105.928 29.9183 105.619 29.7956 105.181 29.721L103.741 29.481C102.195 29.225 101.421 28.4516 101.421 27.161C101.421 26.489 101.693 25.9343 102.237 25.497C102.792 25.0596 103.587 24.841 104.621 24.841C105.165 24.841 105.656 24.9263 106.093 25.097C106.541 25.2676 106.888 25.4863 107.133 25.753C107.389 26.0196 107.581 26.2916 107.709 26.569C107.837 26.8356 107.901 27.0863 107.901 27.321H106.301C106.301 27.0436 106.157 26.7876 105.869 26.553C105.581 26.3183 105.165 26.201 104.621 26.201C104.088 26.201 103.688 26.297 103.421 26.489C103.155 26.6703 103.021 26.8943 103.021 27.161C103.021 27.641 103.421 27.961 104.221 28.121L105.661 28.361C107.208 28.617 107.981 29.417 107.981 30.761C107.981 31.4436 107.699 32.0143 107.133 32.473C106.579 32.9316 105.768 33.161 104.701 33.161C104.104 33.161 103.565 33.0703 103.085 32.889C102.616 32.7076 102.253 32.4783 101.997 32.201C101.752 31.9236 101.565 31.6516 101.437 31.385C101.32 31.1076 101.261 30.8463 101.261 30.601Z" fill="#E4E4E7"/>
<g clip-path="url(#clip1_1323_6010)">
<path d="M366.444 23.0557L357.555 31.9446" stroke="#E4E4E7" stroke-width="1.5" stroke-linecap="round" stroke-linejoin="round"/>
<path d="M357.555 23.0557L366.444 31.9446" stroke="#E4E4E7" stroke-width="1.5" stroke-linecap="round" stroke-linejoin="round"/>
</g>
<path d="M95.3438 86.001L99.4238 74.801H101.984L106.064 86.001H104.224L103.264 83.361H98.1438L97.1838 86.001H95.3438ZM98.7038 81.841H102.704L100.864 76.721H100.544L98.7038 81.841ZM108.927 83.425C109.353 83.8623 109.892 84.081 110.543 84.081C111.193 84.081 111.727 83.8623 112.143 83.425C112.569 82.977 112.783 82.3956 112.783 81.681C112.783 80.9663 112.569 80.3903 112.143 79.953C111.727 79.505 111.193 79.281 110.543 79.281C109.892 79.281 109.353 79.505 108.927 79.953C108.511 80.3903 108.303 80.9663 108.303 81.681C108.303 82.3956 108.511 82.977 108.927 83.425ZM106.943 86.481H108.543C108.585 86.8756 108.788 87.2116 109.151 87.489C109.524 87.777 110.015 87.921 110.623 87.921C111.263 87.921 111.78 87.7236 112.175 87.329C112.58 86.945 112.783 86.449 112.783 85.841V84.561H112.703C112.521 84.7423 112.361 84.8863 112.223 84.993C112.084 85.0996 111.833 85.217 111.471 85.345C111.108 85.4623 110.692 85.521 110.223 85.521C109.209 85.521 108.367 85.169 107.695 84.465C107.033 83.7503 106.703 82.8223 106.703 81.681C106.703 80.5396 107.033 79.617 107.695 78.913C108.367 78.1983 109.209 77.841 110.223 77.841C111.289 77.841 112.116 78.1876 112.703 78.881H112.783L112.943 78.001H114.383V85.841C114.383 86.9076 114.052 87.761 113.391 88.401C112.729 89.041 111.807 89.361 110.623 89.361C110.004 89.361 109.449 89.265 108.959 89.073C108.468 88.881 108.084 88.6303 107.807 88.321C107.54 88.0223 107.332 87.713 107.183 87.393C107.044 87.0836 106.964 86.7796 106.943 86.481ZM116.462 86.001V78.001H117.902L118.062 78.801H118.142C118.323 78.6196 118.521 78.4596 118.734 78.321C119.246 78.001 119.822 77.841 120.462 77.841C121.433 77.841 122.206 78.145 122.782 78.753C123.369 79.3503 123.662 80.1663 123.662 81.201V86.001H122.062V81.201C122.062 80.6783 121.875 80.2303 121.502 79.857C121.139 79.473 120.686 79.281 120.142 79.281C119.555 79.281 119.059 79.473 118.654 79.857C118.259 80.2303 118.062 80.6783 118.062 81.201V86.001H116.462ZM125.665 86.001V78.001H127.265V86.001H125.665ZM125.585 76.481V74.801H127.345V76.481H125.585ZM128.793 83.601H130.393C130.393 83.889 130.553 84.161 130.873 84.417C131.193 84.673 131.646 84.801 132.233 84.801C132.787 84.801 133.203 84.6996 133.481 84.497C133.769 84.2836 133.913 84.0383 133.913 83.761C133.913 83.473 133.822 83.249 133.641 83.089C133.459 82.9183 133.15 82.7956 132.713 82.721L131.273 82.481C129.726 82.225 128.953 81.4516 128.953 80.161C128.953 79.489 129.225 78.9343 129.769 78.497C130.323 78.0596 131.118 77.841 132.153 77.841C132.697 77.841 133.187 77.9263 133.625 78.097C134.073 78.2676 134.419 78.4863 134.665 78.753C134.921 79.0196 135.113 79.2916 135.241 79.569C135.369 79.8356 135.433 80.0863 135.433 80.321H133.833C133.833 80.0436 133.689 79.7876 133.401 79.553C133.113 79.3183 132.697 79.201 132.153 79.201C131.619 79.201 131.219 79.297 130.953 79.489C130.686 79.6703 130.553 79.8943 130.553 80.161C130.553 80.641 130.953 80.961 131.753 81.121L133.193 81.361C134.739 81.617 135.513 82.417 135.513 83.761C135.513 84.4436 135.23 85.0143 134.665 85.473C134.11 85.9316 133.299 86.161 132.233 86.161C131.635 86.161 131.097 86.0703 130.617 85.889C130.147 85.7076 129.785 85.4783 129.529 85.201C129.283 84.9236 129.097 84.6516 128.969 84.385C128.851 84.1076 128.793 83.8463 128.793 83.601ZM137.198 86.001V74.801H138.798V78.801H138.878C139.059 78.6196 139.257 78.4596 139.47 78.321C139.982 78.001 140.558 77.841 141.198 77.841C142.169 77.841 142.942 78.145 143.518 78.753C144.105 79.3503 144.398 80.1663 144.398 81.201V86.001H142.798V81.201C142.798 80.6783 142.611 80.2303 142.238 79.857C141.875 79.473 141.422 79.281 140.878 79.281C140.291 79.281 139.795 79.473 139.39 79.857C138.995 80.2303 138.798 80.6783 138.798 81.201V86.001H137.198ZM158.485 82.161H160.245C160.138 82.6303 159.957 83.089 159.701 83.537C159.456 83.985 159.13 84.4116 158.725 84.817C158.32 85.2223 157.813 85.5476 157.205 85.793C156.597 86.0383 155.93 86.161 155.205 86.161C153.701 86.161 152.432 85.6223 151.397 84.545C150.362 83.4676 149.845 82.0863 149.845 80.401C149.845 78.7156 150.362 77.3343 151.397 76.257C152.432 75.1796 153.701 74.641 155.205 74.641C156.528 74.641 157.632 75.025 158.517 75.793C159.413 76.5503 159.989 77.473 160.245 78.561H158.485C158.208 77.8143 157.776 77.2436 157.189 76.849C156.602 76.4436 155.941 76.241 155.205 76.241C154.138 76.241 153.258 76.6196 152.565 77.377C151.872 78.1343 151.525 79.1423 151.525 80.401C151.525 81.6596 151.872 82.6676 152.565 83.425C153.258 84.1823 154.138 84.561 155.205 84.561C156.058 84.561 156.762 84.3316 157.317 83.873C157.882 83.4036 158.272 82.833 158.485 82.161ZM163.725 83.985C164.183 84.4756 164.759 84.721 165.453 84.721C166.146 84.721 166.717 84.4756 167.165 83.985C167.623 83.4836 167.853 82.8223 167.853 82.001C167.853 81.1796 167.623 80.5236 167.165 80.033C166.717 79.5316 166.146 79.281 165.453 79.281C164.759 79.281 164.183 79.5316 163.725 80.033C163.277 80.5236 163.053 81.1796 163.053 82.001C163.053 82.8223 163.277 83.4836 163.725 83.985ZM168.317 85.009C167.57 85.777 166.615 86.161 165.453 86.161C164.29 86.161 163.33 85.777 162.573 85.009C161.826 84.241 161.453 83.2383 161.453 82.001C161.453 80.7636 161.826 79.761 162.573 78.993C163.33 78.225 164.29 77.841 165.453 77.841C166.615 77.841 167.57 78.225 168.317 78.993C169.074 79.761 169.453 80.7636 169.453 82.001C169.453 83.2383 169.074 84.241 168.317 85.009ZM171.134 86.001V78.001H172.574L172.734 78.801H172.814C172.995 78.6196 173.192 78.4596 173.406 78.321C173.918 78.001 174.494 77.841 175.134 77.841C176.104 77.841 176.878 78.145 177.454 78.753C178.04 79.3503 178.334 80.1663 178.334 81.201V86.001H176.734V81.201C176.734 80.6783 176.547 80.2303 176.174 79.857C175.811 79.473 175.358 79.281 174.814 79.281C174.227 79.281 173.731 79.473 173.326 79.857C172.931 80.2303 172.734 80.6783 172.734 81.201V86.001H171.134ZM179.777 83.601H181.377C181.377 83.889 181.537 84.161 181.857 84.417C182.177 84.673 182.63 84.801 183.217 84.801C183.772 84.801 184.188 84.6996 184.465 84.497C184.753 84.2836 184.897 84.0383 184.897 83.761C184.897 83.473 184.806 83.249 184.625 83.089C184.444 82.9183 184.134 82.7956 183.697 82.721L182.257 82.481C180.71 82.225 179.937 81.4516 179.937 80.161C179.937 79.489 180.209 78.9343 180.753 78.497C181.308 78.0596 182.102 77.841 183.137 77.841C183.681 77.841 184.172 77.9263 184.609 78.097C185.057 78.2676 185.404 78.4863 185.649 78.753C185.905 79.0196 186.097 79.2916 186.225 79.569C186.353 79.8356 186.417 80.0863 186.417 80.321H184.817C184.817 80.0436 184.673 79.7876 184.385 79.553C184.097 79.3183 183.681 79.201 183.137 79.201C182.604 79.201 182.204 79.297 181.937 79.489C181.67 79.6703 181.537 79.8943 181.537 80.161C181.537 80.641 181.937 80.961 182.737 81.121L184.177 81.361C185.724 81.617 186.497 82.417 186.497 83.761C186.497 84.4436 186.214 85.0143 185.649 85.473C185.094 85.9316 184.284 86.161 183.217 86.161C182.62 86.161 182.081 86.0703 181.601 85.889C181.132 85.7076 180.769 85.4783 180.513 85.201C180.268 84.9236 180.081 84.6516 179.953 84.385C179.836 84.1076 179.777 83.8463 179.777 83.601ZM188.103 82.801V78.001H189.703V82.801C189.703 83.3236 189.884 83.777 190.247 84.161C190.62 84.5343 191.079 84.721 191.623 84.721C192.209 84.721 192.7 84.5343 193.095 84.161C193.5 83.777 193.703 83.3236 193.703 82.801V78.001H195.303V86.001H193.863L193.703 85.201H193.623C193.441 85.3823 193.244 85.5423 193.031 85.681C192.519 86.001 191.943 86.161 191.303 86.161C190.332 86.161 189.553 85.8623 188.967 85.265C188.391 84.657 188.103 83.8356 188.103 82.801ZM197.464 86.001V74.801H199.064V86.001H197.464ZM201.868 84.321V79.521H200.588V78.001H201.868V75.761H203.468V78.001H205.308V79.521H203.468V84.081C203.468 84.401 203.628 84.561 203.948 84.561H205.308V86.001H203.628C203.062 86.001 202.625 85.8516 202.316 85.553C202.017 85.2543 201.868 84.8436 201.868 84.321ZM207.071 86.001V78.001H208.671V86.001H207.071ZM206.991 76.481V74.801H208.751V76.481H206.991ZM210.759 86.001V78.001H212.199L212.359 78.801H212.439C212.62 78.6196 212.817 78.4596 213.031 78.321C213.543 78.001 214.119 77.841 214.759 77.841C215.729 77.841 216.503 78.145 217.079 78.753C217.665 79.3503 217.959 80.1663 217.959 81.201V86.001H216.359V81.201C216.359 80.6783 216.172 80.2303 215.799 79.857C215.436 79.473 214.983 79.281 214.439 79.281C213.852 79.281 213.356 79.473 212.951 79.857C212.556 80.2303 212.359 80.6783 212.359 81.201V86.001H210.759ZM221.786 83.425C222.213 83.8623 222.751 84.081 223.402 84.081C224.053 84.081 224.586 83.8623 225.002 83.425C225.429 82.977 225.642 82.3956 225.642 81.681C225.642 80.9663 225.429 80.3903 225.002 79.953C224.586 79.505 224.053 79.281 223.402 79.281C222.751 79.281 222.213 79.505 221.786 79.953C221.37 80.3903 221.162 80.9663 221.162 81.681C221.162 82.3956 221.37 82.977 221.786 83.425ZM219.802 86.481H221.402C221.445 86.8756 221.647 87.2116 222.01 87.489C222.383 87.777 222.874 87.921 223.482 87.921C224.122 87.921 224.639 87.7236 225.034 87.329C225.439 86.945 225.642 86.449 225.642 85.841V84.561H225.562C225.381 84.7423 225.221 84.8863 225.082 84.993C224.943 85.0996 224.693 85.217 224.33 85.345C223.967 85.4623 223.551 85.521 223.082 85.521C222.069 85.521 221.226 85.169 220.554 84.465C219.893 83.7503 219.562 82.8223 219.562 81.681C219.562 80.5396 219.893 79.617 220.554 78.913C221.226 78.1983 222.069 77.841 223.082 77.841C224.149 77.841 224.975 78.1876 225.562 78.881H225.642L225.802 78.001H227.242V85.841C227.242 86.9076 226.911 87.761 226.25 88.401C225.589 89.041 224.666 89.361 223.482 89.361C222.863 89.361 222.309 89.265 221.818 89.073C221.327 88.881 220.943 88.6303 220.666 88.321C220.399 88.0223 220.191 87.713 220.042 87.393C219.903 87.0836 219.823 86.7796 219.802 86.481ZM233.247 86.001V74.801H234.927V84.401H240.367V86.001H233.247ZM241.888 86.001V74.801H243.568V84.401H249.008V86.001H241.888ZM250.368 89.201V78.001H251.808L251.968 78.961H252.048C252.219 78.769 252.363 78.6196 252.48 78.513C252.597 78.3956 252.848 78.257 253.232 78.097C253.627 77.9263 254.059 77.841 254.528 77.841C255.595 77.841 256.475 78.2196 257.168 78.977C257.861 79.7343 258.208 80.7423 258.208 82.001C258.208 83.2596 257.861 84.2676 257.168 85.025C256.475 85.7823 255.595 86.161 254.528 86.161C253.429 86.161 252.603 85.7876 252.048 85.041H251.968V89.201H250.368ZM252.624 83.969C253.072 84.4703 253.627 84.721 254.288 84.721C254.949 84.721 255.499 84.4703 255.936 83.969C256.384 83.4676 256.608 82.8116 256.608 82.001C256.608 81.1903 256.384 80.5343 255.936 80.033C255.499 79.5316 254.949 79.281 254.288 79.281C253.627 79.281 253.072 79.5316 252.624 80.033C252.187 80.5343 251.968 81.1903 251.968 82.001C251.968 82.8116 252.187 83.4676 252.624 83.969ZM263.809 86.001V74.801H266.289L270.849 83.521H271.169V74.801H272.849V86.001H270.369L265.809 77.281H265.489V86.001H263.809ZM276.287 81.361H281.007C280.922 80.7103 280.671 80.1876 280.255 79.793C279.839 79.3983 279.316 79.201 278.687 79.201C278.026 79.201 277.492 79.3983 277.087 79.793C276.682 80.177 276.415 80.6996 276.287 81.361ZM280.607 83.681H282.287C282.052 84.321 281.626 84.897 281.007 85.409C280.399 85.9103 279.626 86.161 278.687 86.161C277.524 86.161 276.564 85.777 275.807 85.009C275.06 84.241 274.687 83.2383 274.687 82.001C274.687 80.7636 275.06 79.761 275.807 78.993C276.564 78.225 277.524 77.841 278.687 77.841C279.775 77.841 280.687 78.2143 281.423 78.961C282.159 79.7076 282.527 80.641 282.527 81.761C282.527 81.857 282.511 82.049 282.479 82.337L282.447 82.561H276.287C276.372 83.2436 276.634 83.7876 277.071 84.193C277.508 84.5983 278.047 84.801 278.687 84.801C279.135 84.801 279.53 84.6943 279.871 84.481C280.223 84.257 280.468 83.9903 280.607 83.681ZM285.336 86.001L283.176 78.001H284.856L286.376 83.921H286.696L288.264 78.001H290.408L291.976 83.921H292.296L293.816 78.001H295.496L293.336 86.001H291.016L289.496 80.241H289.176L287.656 86.001H285.336Z" fill="white"/>
<path d="M159.962 116.501V113.901H164.362C164.855 113.901 165.222 113.828 165.462 113.681C165.715 113.534 165.942 113.274 166.142 112.901H159.962V110.601H166.142C165.942 110.228 165.715 109.968 165.462 109.821C165.222 109.674 164.855 109.601 164.362 109.601H159.962V107.001H170.562V109.501H168.962C168.989 109.594 169.029 109.681 169.082 109.761C169.095 109.801 169.195 110.081 169.382 110.601H170.562V112.901H169.362C168.922 114.888 167.655 116.021 165.562 116.301L169.862 121.001H165.862L161.862 116.501H159.962ZM178.247 121.001L182.947 110.101H177.047V107.001H186.647V109.801L181.847 121.001H178.247ZM188.048 122.801L188.548 117.701H191.848L190.448 122.801H188.048ZM193.754 116.901H196.954C197.007 117.154 197.12 117.374 197.294 117.561C197.694 117.988 198.214 118.201 198.854 118.201C199.414 118.201 199.867 118.034 200.214 117.701C200.574 117.354 200.754 116.921 200.754 116.401C200.754 115.881 200.574 115.454 200.214 115.121C199.867 114.774 199.414 114.601 198.854 114.601C198.28 114.601 197.834 114.734 197.514 115.001C197.38 115.108 197.26 115.241 197.154 115.401H193.954L194.754 107.001H203.254V109.901H197.454L197.254 112.101H197.354C197.46 112.034 197.607 111.968 197.794 111.901C198.194 111.768 198.647 111.701 199.154 111.701C200.554 111.701 201.7 112.148 202.594 113.041C203.5 113.921 203.954 115.041 203.954 116.401C203.954 117.814 203.487 118.968 202.554 119.861C201.62 120.754 200.387 121.201 198.854 121.201C196.867 121.201 195.414 120.488 194.494 119.061C194.107 118.434 193.86 117.714 193.754 116.901ZM215.67 119.281C214.564 120.561 213.157 121.201 211.45 121.201C209.744 121.201 208.33 120.561 207.21 119.281C206.104 117.988 205.55 116.228 205.55 114.001C205.55 111.774 206.104 110.021 207.21 108.741C208.33 107.448 209.744 106.801 211.45 106.801C213.157 106.801 214.564 107.448 215.67 108.741C216.79 110.021 217.35 111.774 217.35 114.001C217.35 116.228 216.79 117.988 215.67 119.281ZM211.45 118.101C212.197 118.101 212.83 117.748 213.35 117.041C213.884 116.334 214.15 115.321 214.15 114.001C214.15 112.681 213.884 111.668 213.35 110.961C212.83 110.254 212.197 109.901 211.45 109.901C210.69 109.901 210.05 110.254 209.53 110.961C209.01 111.668 208.75 112.681 208.75 114.001C208.75 115.321 209.01 116.334 209.53 117.041C210.05 117.748 210.69 118.101 211.45 118.101ZM229.264 119.281C228.157 120.561 226.751 121.201 225.044 121.201C223.337 121.201 221.924 120.561 220.804 119.281C219.697 117.988 219.144 116.228 219.144 114.001C219.144 111.774 219.697 110.021 220.804 108.741C221.924 107.448 223.337 106.801 225.044 106.801C226.751 106.801 228.157 107.448 229.264 108.741C230.384 110.021 230.944 111.774 230.944 114.001C230.944 116.228 230.384 117.988 229.264 119.281ZM225.044 118.101C225.791 118.101 226.424 117.748 226.944 117.041C227.477 116.334 227.744 115.321 227.744 114.001C227.744 112.681 227.477 111.668 226.944 110.961C226.424 110.254 225.791 109.901 225.044 109.901C224.284 109.901 223.644 110.254 223.124 110.961C222.604 111.668 222.344 112.681 222.344 114.001C222.344 115.321 222.604 116.334 223.124 117.041C223.644 117.748 224.284 118.101 225.044 118.101Z" fill="white"/>
<path d="M105.472 288.217V279.129L106.064 279.577L103.856 280.745L103.392 279.241L106.384 277.641H107.216V288.217H105.472ZM103.696 289.001V287.337H109.04V289.001H103.696ZM113.472 288.217V279.129L114.064 279.577L111.856 280.745L111.392 279.241L114.384 277.641H115.216V288.217H113.472ZM111.696 289.001V287.337H117.04V289.001H111.696ZM127.508 289.161C126.9 289.161 126.335 289.081 125.812 288.921C125.3 288.761 124.831 288.521 124.404 288.201C123.988 287.87 123.615 287.465 123.284 286.985L124.468 285.625C124.991 286.372 125.492 286.889 125.972 287.177C126.452 287.465 127.023 287.609 127.684 287.609C128.09 287.609 128.458 287.545 128.788 287.417C129.119 287.289 129.38 287.113 129.572 286.889C129.764 286.665 129.86 286.409 129.86 286.121C129.86 285.929 129.828 285.748 129.764 285.577C129.7 285.406 129.599 285.252 129.46 285.113C129.332 284.974 129.162 284.846 128.948 284.729C128.746 284.612 128.506 284.51 128.228 284.425C127.951 284.329 127.631 284.249 127.268 284.185C126.692 284.068 126.191 283.913 125.764 283.721C125.338 283.529 124.98 283.289 124.692 283.001C124.404 282.713 124.191 282.388 124.052 282.025C123.914 281.652 123.844 281.236 123.844 280.777C123.844 280.329 123.94 279.913 124.132 279.529C124.335 279.145 124.607 278.814 124.948 278.537C125.3 278.249 125.711 278.03 126.18 277.881C126.65 277.721 127.156 277.641 127.7 277.641C128.276 277.641 128.804 277.716 129.284 277.865C129.764 278.014 130.191 278.238 130.564 278.537C130.938 278.825 131.247 279.182 131.492 279.609L130.276 280.809C130.063 280.457 129.823 280.164 129.556 279.929C129.29 279.684 128.996 279.502 128.676 279.385C128.356 279.257 128.015 279.193 127.652 279.193C127.236 279.193 126.874 279.257 126.564 279.385C126.255 279.513 126.01 279.694 125.828 279.929C125.658 280.153 125.572 280.42 125.572 280.729C125.572 280.953 125.615 281.161 125.7 281.353C125.786 281.534 125.914 281.7 126.084 281.849C126.266 281.988 126.506 282.116 126.804 282.233C127.103 282.34 127.46 282.436 127.876 282.521C128.463 282.649 128.986 282.814 129.444 283.017C129.903 283.209 130.292 283.438 130.612 283.705C130.932 283.972 131.172 284.27 131.332 284.601C131.503 284.932 131.588 285.289 131.588 285.673C131.588 286.388 131.423 287.006 131.092 287.529C130.762 288.052 130.292 288.457 129.684 288.745C129.076 289.022 128.351 289.161 127.508 289.161ZM137.541 289.161C136.677 289.161 135.909 288.98 135.237 288.617C134.575 288.244 134.053 287.737 133.669 287.097C133.295 286.457 133.109 285.721 133.109 284.889C133.109 284.228 133.215 283.625 133.429 283.081C133.642 282.537 133.935 282.068 134.309 281.673C134.693 281.268 135.146 280.958 135.669 280.745C136.202 280.521 136.778 280.409 137.397 280.409C137.941 280.409 138.447 280.516 138.917 280.729C139.386 280.932 139.791 281.214 140.133 281.577C140.485 281.94 140.751 282.372 140.933 282.873C141.125 283.364 141.215 283.902 141.205 284.489L141.189 285.193H134.325L133.957 283.881H139.765L139.525 284.153V283.769C139.493 283.417 139.375 283.102 139.173 282.825C138.97 282.548 138.714 282.329 138.405 282.169C138.095 282.009 137.759 281.929 137.397 281.929C136.821 281.929 136.335 282.041 135.941 282.265C135.546 282.478 135.247 282.798 135.045 283.225C134.842 283.641 134.741 284.158 134.741 284.777C134.741 285.364 134.863 285.876 135.109 286.313C135.354 286.74 135.701 287.07 136.149 287.305C136.597 287.54 137.114 287.657 137.701 287.657C138.117 287.657 138.501 287.588 138.853 287.449C139.215 287.31 139.605 287.06 140.021 286.697L140.853 287.865C140.597 288.121 140.282 288.345 139.909 288.537C139.546 288.729 139.157 288.884 138.741 289.001C138.335 289.108 137.935 289.161 137.541 289.161ZM142.996 292.521V280.601H144.66V282.521L144.404 282.377C144.468 282.057 144.649 281.753 144.948 281.465C145.246 281.166 145.609 280.926 146.036 280.745C146.473 280.553 146.921 280.457 147.38 280.457C148.137 280.457 148.809 280.644 149.396 281.017C149.982 281.39 150.446 281.902 150.788 282.553C151.129 283.204 151.3 283.95 151.3 284.793C151.3 285.625 151.129 286.372 150.788 287.033C150.457 287.684 149.998 288.201 149.412 288.585C148.825 288.958 148.164 289.145 147.428 289.145C146.937 289.145 146.462 289.049 146.004 288.857C145.545 288.654 145.156 288.398 144.836 288.089C144.516 287.78 144.318 287.46 144.244 287.129L144.66 286.905V292.521H142.996ZM147.156 287.625C147.646 287.625 148.084 287.502 148.468 287.257C148.852 287.012 149.156 286.676 149.38 286.249C149.604 285.822 149.716 285.337 149.716 284.793C149.716 284.249 149.604 283.769 149.38 283.353C149.166 282.926 148.868 282.59 148.484 282.345C148.1 282.1 147.657 281.977 147.156 281.977C146.654 281.977 146.212 282.1 145.828 282.345C145.444 282.58 145.14 282.91 144.916 283.337C144.692 283.764 144.58 284.249 144.58 284.793C144.58 285.337 144.692 285.822 144.916 286.249C145.14 286.676 145.444 287.012 145.828 287.257C146.212 287.502 146.654 287.625 147.156 287.625ZM157.91 289.001L157.382 287.689L160.806 283.833C160.987 283.641 161.174 283.422 161.366 283.177C161.569 282.921 161.761 282.66 161.942 282.393C162.123 282.126 162.267 281.865 162.374 281.609C162.491 281.342 162.55 281.092 162.55 280.857C162.55 280.516 162.481 280.228 162.342 279.993C162.214 279.748 162.022 279.561 161.766 279.433C161.521 279.305 161.222 279.241 160.87 279.241C160.561 279.241 160.257 279.332 159.958 279.513C159.659 279.694 159.387 279.95 159.142 280.281C158.897 280.612 158.705 280.996 158.566 281.433L157.238 280.601C157.419 279.982 157.691 279.454 158.054 279.017C158.427 278.569 158.87 278.228 159.382 277.993C159.905 277.758 160.47 277.641 161.078 277.641C161.707 277.641 162.267 277.774 162.758 278.041C163.249 278.297 163.633 278.66 163.91 279.129C164.187 279.588 164.326 280.121 164.326 280.729C164.326 280.974 164.299 281.225 164.246 281.481C164.193 281.737 164.107 282.004 163.99 282.281C163.873 282.548 163.723 282.83 163.542 283.129C163.361 283.417 163.142 283.721 162.886 284.041C162.641 284.361 162.358 284.697 162.038 285.049L159.494 287.817L159.174 287.337H164.678V289.001H157.91ZM170.036 289.161C169.182 289.161 168.446 288.926 167.828 288.457C167.22 287.988 166.75 287.326 166.42 286.473C166.089 285.609 165.924 284.585 165.924 283.401C165.924 282.217 166.089 281.198 166.42 280.345C166.75 279.481 167.22 278.814 167.828 278.345C168.446 277.876 169.182 277.641 170.036 277.641C170.889 277.641 171.625 277.876 172.244 278.345C172.862 278.814 173.337 279.481 173.668 280.345C173.998 281.198 174.164 282.217 174.164 283.401C174.164 284.585 173.998 285.609 173.668 286.473C173.337 287.326 172.862 287.988 172.244 288.457C171.625 288.926 170.889 289.161 170.036 289.161ZM170.036 287.593C170.814 287.593 171.417 287.23 171.844 286.505C172.27 285.769 172.484 284.734 172.484 283.401C172.484 282.068 172.27 281.038 171.844 280.313C171.417 279.577 170.814 279.209 170.036 279.209C169.257 279.209 168.654 279.577 168.228 280.313C167.801 281.038 167.588 282.068 167.588 283.401C167.588 284.734 167.801 285.769 168.228 286.505C168.654 287.23 169.257 287.593 170.036 287.593ZM176.394 289.001L175.866 287.689L179.29 283.833C179.472 283.641 179.658 283.422 179.85 283.177C180.053 282.921 180.245 282.66 180.426 282.393C180.608 282.126 180.752 281.865 180.858 281.609C180.976 281.342 181.034 281.092 181.034 280.857C181.034 280.516 180.965 280.228 180.826 279.993C180.698 279.748 180.506 279.561 180.25 279.433C180.005 279.305 179.706 279.241 179.354 279.241C179.045 279.241 178.741 279.332 178.442 279.513C178.144 279.694 177.872 279.95 177.626 280.281C177.381 280.612 177.189 280.996 177.05 281.433L175.722 280.601C175.904 279.982 176.176 279.454 176.538 279.017C176.912 278.569 177.354 278.228 177.866 277.993C178.389 277.758 178.954 277.641 179.562 277.641C180.192 277.641 180.752 277.774 181.242 278.041C181.733 278.297 182.117 278.66 182.394 279.129C182.672 279.588 182.81 280.121 182.81 280.729C182.81 280.974 182.784 281.225 182.73 281.481C182.677 281.737 182.592 282.004 182.474 282.281C182.357 282.548 182.208 282.83 182.026 283.129C181.845 283.417 181.626 283.721 181.37 284.041C181.125 284.361 180.842 284.697 180.522 285.049L177.978 287.817L177.658 287.337H183.162V289.001H176.394ZM187.688 289.161C186.899 289.161 186.211 288.98 185.624 288.617C185.048 288.254 184.504 287.646 183.992 286.793L185.336 285.945C185.603 286.34 185.864 286.665 186.12 286.921C186.387 287.166 186.659 287.348 186.936 287.465C187.213 287.582 187.507 287.641 187.816 287.641C188.189 287.641 188.536 287.55 188.856 287.369C189.176 287.177 189.432 286.916 189.624 286.585C189.816 286.254 189.912 285.881 189.912 285.465C189.912 285.049 189.837 284.697 189.688 284.409C189.539 284.11 189.32 283.886 189.032 283.737C188.744 283.577 188.403 283.497 188.008 283.497C187.827 283.497 187.635 283.518 187.432 283.561C187.24 283.593 187.032 283.646 186.808 283.721C186.584 283.785 186.339 283.87 186.072 283.977L185.592 282.713L189.048 278.905L189.384 279.401H184.616V277.801H191.032L191.352 278.441L187.688 282.505L187.288 282.089C187.373 282.046 187.512 282.009 187.704 281.977C187.907 281.934 188.072 281.913 188.2 281.913C188.669 281.913 189.107 282.004 189.512 282.185C189.928 282.356 190.285 282.601 190.584 282.921C190.893 283.23 191.133 283.598 191.304 284.025C191.485 284.441 191.576 284.889 191.576 285.369C191.576 286.094 191.4 286.745 191.048 287.321C190.707 287.886 190.243 288.334 189.656 288.665C189.069 288.996 188.413 289.161 187.688 289.161ZM197.025 289.001L201.361 277.801H203.121L207.425 289.001H205.585L203.025 282.249C202.993 282.174 202.929 281.993 202.833 281.705C202.748 281.417 202.646 281.097 202.529 280.745C202.412 280.393 202.305 280.073 202.209 279.785C202.113 279.486 202.049 279.294 202.017 279.209L202.385 279.193C202.321 279.374 202.241 279.604 202.145 279.881C202.06 280.158 201.964 280.452 201.857 280.761C201.761 281.07 201.665 281.364 201.569 281.641C201.473 281.908 201.393 282.132 201.329 282.313L198.785 289.001H197.025ZM198.945 286.217L199.585 284.553H204.673L205.409 286.217H198.945ZM209.942 289.001V278.457H211.59V289.001H209.942ZM208.198 282.201V280.601H213.542V282.201H208.198ZM223.223 289.161C222.37 289.161 221.634 288.926 221.015 288.457C220.407 287.988 219.938 287.326 219.607 286.473C219.276 285.609 219.111 284.585 219.111 283.401C219.111 282.217 219.276 281.198 219.607 280.345C219.938 279.481 220.407 278.814 221.015 278.345C221.634 277.876 222.37 277.641 223.223 277.641C224.076 277.641 224.812 277.876 225.431 278.345C226.05 278.814 226.524 279.481 226.855 280.345C227.186 281.198 227.351 282.217 227.351 283.401C227.351 284.585 227.186 285.609 226.855 286.473C226.524 287.326 226.05 287.988 225.431 288.457C224.812 288.926 224.076 289.161 223.223 289.161ZM223.223 287.593C224.002 287.593 224.604 287.23 225.031 286.505C225.458 285.769 225.671 284.734 225.671 283.401C225.671 282.068 225.458 281.038 225.031 280.313C224.604 279.577 224.002 279.209 223.223 279.209C222.444 279.209 221.842 279.577 221.415 280.313C220.988 281.038 220.775 282.068 220.775 283.401C220.775 284.734 220.988 285.769 221.415 286.505C221.842 287.23 222.444 287.593 223.223 287.593ZM232.11 289.161C231.32 289.161 230.632 288.98 230.046 288.617C229.47 288.254 228.926 287.646 228.414 286.793L229.758 285.945C230.024 286.34 230.286 286.665 230.542 286.921C230.808 287.166 231.08 287.348 231.358 287.465C231.635 287.582 231.928 287.641 232.238 287.641C232.611 287.641 232.958 287.55 233.278 287.369C233.598 287.177 233.854 286.916 234.046 286.585C234.238 286.254 234.334 285.881 234.334 285.465C234.334 285.049 234.259 284.697 234.11 284.409C233.96 284.11 233.742 283.886 233.454 283.737C233.166 283.577 232.824 283.497 232.43 283.497C232.248 283.497 232.056 283.518 231.854 283.561C231.662 283.593 231.454 283.646 231.23 283.721C231.006 283.785 230.76 283.87 230.494 283.977L230.014 282.713L233.47 278.905L233.806 279.401H229.038V277.801H235.454L235.774 278.441L232.11 282.505L231.71 282.089C231.795 282.046 231.934 282.009 232.126 281.977C232.328 281.934 232.494 281.913 232.622 281.913C233.091 281.913 233.528 282.004 233.934 282.185C234.35 282.356 234.707 282.601 235.006 282.921C235.315 283.23 235.555 283.598 235.726 284.025C235.907 284.441 235.998 284.889 235.998 285.369C235.998 286.094 235.822 286.745 235.47 287.321C235.128 287.886 234.664 288.334 234.078 288.665C233.491 288.996 232.835 289.161 232.11 289.161ZM238.387 289.161C238.035 289.161 237.763 289.06 237.571 288.857C237.379 288.644 237.283 288.345 237.283 287.961C237.283 287.609 237.384 287.321 237.587 287.097C237.789 286.873 238.056 286.761 238.387 286.761C238.739 286.761 239.011 286.868 239.203 287.081C239.395 287.284 239.491 287.577 239.491 287.961C239.491 288.313 239.389 288.601 239.187 288.825C238.984 289.049 238.717 289.161 238.387 289.161ZM238.387 282.841C238.035 282.841 237.763 282.74 237.571 282.537C237.379 282.324 237.283 282.025 237.283 281.641C237.283 281.289 237.384 281.001 237.587 280.777C237.789 280.553 238.056 280.441 238.387 280.441C238.739 280.441 239.011 280.548 239.203 280.761C239.395 280.964 239.491 281.257 239.491 281.641C239.491 281.993 239.389 282.281 239.187 282.505C238.984 282.729 238.717 282.841 238.387 282.841ZM244.315 289.113C243.579 289.113 242.912 288.948 242.315 288.617C241.718 288.276 241.222 287.79 240.827 287.161L241.787 286.089C242.288 286.644 242.726 287.022 243.099 287.225C243.472 287.428 243.878 287.529 244.315 287.529C244.752 287.529 245.147 287.433 245.499 287.241C245.851 287.049 246.128 286.788 246.331 286.457C246.544 286.126 246.651 285.758 246.651 285.353C246.651 284.926 246.55 284.548 246.347 284.217C246.155 283.876 245.894 283.609 245.563 283.417C245.232 283.214 244.859 283.113 244.443 283.113C244.24 283.113 244.048 283.129 243.867 283.161C243.686 283.182 243.467 283.241 243.211 283.337C242.955 283.433 242.619 283.582 242.203 283.785L241.291 282.553L241.947 277.801H247.995V279.401H243.035L243.371 279.097L242.843 282.649L242.443 282.185C242.55 282.078 242.731 281.977 242.987 281.881C243.243 281.774 243.526 281.689 243.835 281.625C244.155 281.55 244.459 281.513 244.747 281.513C245.43 281.513 246.038 281.673 246.571 281.993C247.115 282.302 247.542 282.734 247.851 283.289C248.171 283.844 248.331 284.478 248.331 285.193C248.331 285.929 248.155 286.596 247.803 287.193C247.451 287.78 246.971 288.249 246.363 288.601C245.755 288.942 245.072 289.113 244.315 289.113ZM251.089 289.001L255.729 278.889L255.921 279.401H250.257V277.801H257.185L257.409 278.905L252.945 289.001H251.089ZM264.021 289.001V277.801H268.581C269.189 277.801 269.738 277.956 270.229 278.265C270.73 278.564 271.13 278.974 271.429 279.497C271.728 280.02 271.877 280.601 271.877 281.241C271.877 281.881 271.728 282.462 271.429 282.985C271.13 283.508 270.73 283.929 270.229 284.249C269.738 284.558 269.189 284.713 268.581 284.713H265.749V289.001H264.021ZM265.749 283.049H268.549C268.837 283.049 269.098 282.969 269.333 282.809C269.568 282.638 269.754 282.42 269.893 282.153C270.042 281.876 270.117 281.572 270.117 281.241C270.117 280.91 270.042 280.612 269.893 280.345C269.754 280.078 269.568 279.865 269.333 279.705C269.098 279.545 268.837 279.465 268.549 279.465H265.749V283.049ZM274.162 289.001V277.801H275.858L279.938 284.441L279.122 284.425L283.25 277.801H284.85V289.001H283.122V284.409C283.122 283.449 283.143 282.585 283.186 281.817C283.239 281.049 283.324 280.286 283.442 279.529L283.666 280.121L280.002 285.785H278.946L275.394 280.185L275.57 279.529C275.687 280.244 275.767 280.98 275.81 281.737C275.863 282.484 275.89 283.374 275.89 284.409V289.001H274.162Z" fill="white"/>
<rect x="20.5" y="314.501" width="349" height="105" rx="7.5" stroke="#B1B1B1" stroke-opacity="0.2"/>
<path d="M33.372 340.001V330.201H37.362C37.894 330.201 38.3747 330.336 38.804 330.607C39.2427 330.868 39.5927 331.228 39.854 331.685C40.1153 332.142 40.246 332.651 40.246 333.211C40.246 333.771 40.1153 334.28 39.854 334.737C39.5927 335.194 39.2427 335.563 38.804 335.843C38.3747 336.114 37.894 336.249 37.362 336.249H34.884V340.001H33.372ZM34.884 334.793H37.334C37.586 334.793 37.8147 334.723 38.02 334.583C38.2253 334.434 38.3887 334.242 38.51 334.009C38.6407 333.766 38.706 333.5 38.706 333.211C38.706 332.922 38.6407 332.66 38.51 332.427C38.3887 332.194 38.2253 332.007 38.02 331.867C37.8147 331.727 37.586 331.657 37.334 331.657H34.884V334.793ZM44.5723 340.141C43.9657 340.141 43.4103 339.973 42.9063 339.637C42.4117 339.301 42.015 338.844 41.7163 338.265C41.4177 337.686 41.2683 337.033 41.2683 336.305C41.2683 335.568 41.4177 334.914 41.7163 334.345C42.0243 333.766 42.435 333.314 42.9483 332.987C43.471 332.66 44.0543 332.497 44.6983 332.497C45.081 332.497 45.431 332.553 45.7483 332.665C46.0657 332.777 46.341 332.936 46.5743 333.141C46.817 333.337 47.013 333.566 47.1623 333.827C47.321 334.088 47.419 334.368 47.4563 334.667L47.1343 334.555V332.651H48.5903V340.001H47.1343V338.251L47.4703 338.153C47.4143 338.405 47.2977 338.652 47.1203 338.895C46.9523 339.128 46.733 339.338 46.4623 339.525C46.201 339.712 45.907 339.861 45.5803 339.973C45.263 340.085 44.927 340.141 44.5723 340.141ZM44.9503 338.811C45.389 338.811 45.7763 338.704 46.1123 338.489C46.4483 338.274 46.7097 337.98 46.8963 337.607C47.0923 337.224 47.1903 336.79 47.1903 336.305C47.1903 335.829 47.0923 335.404 46.8963 335.031C46.7097 334.658 46.4483 334.364 46.1123 334.149C45.7763 333.934 45.389 333.827 44.9503 333.827C44.521 333.827 44.1383 333.934 43.8023 334.149C43.4757 334.364 43.2143 334.658 43.0183 335.031C42.8317 335.404 42.7383 335.829 42.7383 336.305C42.7383 336.79 42.8317 337.224 43.0183 337.607C43.2143 337.98 43.4757 338.274 43.8023 338.489C44.1383 338.704 44.521 338.811 44.9503 338.811ZM50.8417 340.001V332.651H52.2837V340.001H50.8417ZM51.5417 331.027C51.2337 331.027 50.9957 330.948 50.8277 330.789C50.6597 330.63 50.5757 330.406 50.5757 330.117C50.5757 329.846 50.6597 329.627 50.8277 329.459C51.005 329.291 51.243 329.207 51.5417 329.207C51.8497 329.207 52.0877 329.286 52.2557 329.445C52.4237 329.604 52.5077 329.828 52.5077 330.117C52.5077 330.388 52.419 330.607 52.2417 330.775C52.0737 330.943 51.8404 331.027 51.5417 331.027ZM57.5662 340.141C56.8942 340.141 56.2922 339.978 55.7602 339.651C55.2375 339.315 54.8222 338.862 54.5142 338.293C54.2062 337.714 54.0522 337.056 54.0522 336.319C54.0522 335.582 54.2015 334.928 54.5002 334.359C54.8082 333.78 55.2235 333.328 55.7462 333.001C56.2689 332.665 56.8615 332.497 57.5242 332.497C57.8882 332.497 58.2382 332.558 58.5742 332.679C58.9195 332.791 59.2275 332.95 59.4982 333.155C59.7689 333.351 59.9789 333.57 60.1282 333.813C60.2869 334.046 60.3662 334.284 60.3662 334.527L59.9462 334.555V329.641H61.3882V340.001H59.9462V338.251H60.2262C60.2262 338.475 60.1515 338.699 60.0022 338.923C59.8529 339.138 59.6522 339.338 59.4002 339.525C59.1575 339.712 58.8729 339.861 58.5462 339.973C58.2289 340.085 57.9022 340.141 57.5662 340.141ZM57.7622 338.895C58.2009 338.895 58.5882 338.783 58.9242 338.559C59.2602 338.335 59.5215 338.032 59.7082 337.649C59.9042 337.257 60.0022 336.814 60.0022 336.319C60.0022 335.824 59.9042 335.386 59.7082 335.003C59.5215 334.611 59.2602 334.303 58.9242 334.079C58.5882 333.855 58.2009 333.743 57.7622 333.743C57.3235 333.743 56.9362 333.855 56.6002 334.079C56.2642 334.303 55.9982 334.611 55.8022 335.003C55.6155 335.386 55.5222 335.824 55.5222 336.319C55.5222 336.814 55.6155 337.257 55.8022 337.649C55.9982 338.032 56.2642 338.335 56.6002 338.559C56.9362 338.783 57.3235 338.895 57.7622 338.895ZM67.6611 340.001V330.201H69.1731V340.001H67.6611ZM68.3331 335.829V334.373H73.3871V335.829H68.3331ZM68.3331 331.657V330.201H74.0171V331.657H68.3331ZM75.5959 340.001V332.651H77.0519V334.961L76.9119 334.401C77.0146 334.046 77.1872 333.724 77.4299 333.435C77.6819 333.146 77.9666 332.917 78.2839 332.749C78.6106 332.581 78.9466 332.497 79.2919 332.497C79.4506 332.497 79.5999 332.511 79.7399 332.539C79.8892 332.567 80.0059 332.6 80.0899 332.637L79.7119 334.205C79.5999 334.158 79.4739 334.121 79.3339 334.093C79.2032 334.056 79.0726 334.037 78.9419 334.037C78.6899 334.037 78.4472 334.088 78.2139 334.191C77.9899 334.284 77.7892 334.42 77.6119 334.597C77.4439 334.765 77.3086 334.966 77.2059 335.199C77.1032 335.423 77.0519 335.67 77.0519 335.941V340.001H75.5959ZM84.2319 340.141C83.5133 340.141 82.8693 339.978 82.2999 339.651C81.7399 339.315 81.2966 338.862 80.9699 338.293C80.6433 337.714 80.4799 337.056 80.4799 336.319C80.4799 335.582 80.6433 334.928 80.9699 334.359C81.2966 333.78 81.7399 333.328 82.2999 333.001C82.8693 332.665 83.5133 332.497 84.2319 332.497C84.9413 332.497 85.5759 332.665 86.1359 333.001C86.7053 333.328 87.1533 333.78 87.4799 334.359C87.8066 334.928 87.9699 335.582 87.9699 336.319C87.9699 337.056 87.8066 337.714 87.4799 338.293C87.1533 338.862 86.7053 339.315 86.1359 339.651C85.5759 339.978 84.9413 340.141 84.2319 340.141ZM84.2319 338.825C84.6706 338.825 85.0626 338.718 85.4079 338.503C85.7533 338.279 86.0239 337.98 86.2199 337.607C86.4159 337.224 86.5093 336.795 86.4999 336.319C86.5093 335.834 86.4159 335.404 86.2199 335.031C86.0239 334.648 85.7533 334.35 85.4079 334.135C85.0626 333.92 84.6706 333.813 84.2319 333.813C83.7933 333.813 83.3966 333.925 83.0419 334.149C82.6966 334.364 82.4259 334.662 82.2299 335.045C82.0339 335.418 81.9406 335.843 81.9499 336.319C81.9406 336.795 82.0339 337.224 82.2299 337.607C82.4259 337.98 82.6966 338.279 83.0419 338.503C83.3966 338.718 83.7933 338.825 84.2319 338.825ZM89.5132 340.001V332.651H90.9692V334.219L90.7032 334.387C90.7779 334.144 90.8945 333.911 91.0532 333.687C91.2212 333.463 91.4219 333.267 91.6552 333.099C91.8979 332.922 92.1545 332.782 92.4252 332.679C92.7052 332.576 92.9899 332.525 93.2792 332.525C93.6992 332.525 94.0679 332.595 94.3852 332.735C94.7025 332.875 94.9639 333.085 95.1692 333.365C95.3745 333.645 95.5239 333.995 95.6172 334.415L95.3932 334.359L95.4912 334.121C95.5939 333.906 95.7339 333.706 95.9112 333.519C96.0979 333.323 96.3079 333.15 96.5412 333.001C96.7745 332.852 97.0219 332.735 97.2832 332.651C97.5445 332.567 97.8012 332.525 98.0532 332.525C98.6039 332.525 99.0565 332.637 99.4112 332.861C99.7752 333.085 100.046 333.426 100.223 333.883C100.41 334.34 100.503 334.91 100.503 335.591V340.001H99.0472V335.675C99.0472 335.255 98.9912 334.914 98.8792 334.653C98.7765 334.382 98.6179 334.182 98.4032 334.051C98.1885 333.92 97.9132 333.855 97.5772 333.855C97.3159 333.855 97.0685 333.902 96.8352 333.995C96.6112 334.079 96.4152 334.2 96.2472 334.359C96.0792 334.518 95.9485 334.704 95.8552 334.919C95.7619 335.124 95.7152 335.353 95.7152 335.605V340.001H94.2592V335.647C94.2592 335.264 94.2032 334.942 94.0912 334.681C93.9792 334.41 93.8159 334.205 93.6012 334.065C93.3865 333.925 93.1252 333.855 92.8172 333.855C92.5559 333.855 92.3132 333.902 92.0892 333.995C91.8652 334.079 91.6692 334.2 91.5012 334.359C91.3332 334.508 91.2025 334.69 91.1092 334.905C91.0159 335.11 90.9692 335.334 90.9692 335.577V340.001H89.5132Z" fill="#E4E4E7"/>
<path d="M197.256 340L193.336 330.2H195.058L197.396 336.15C197.508 336.439 197.606 336.701 197.69 336.934C197.783 337.167 197.863 337.382 197.928 337.578C197.993 337.765 198.054 337.942 198.11 338.11C198.166 338.278 198.222 338.446 198.278 338.614L197.914 338.628C197.979 338.404 198.049 338.171 198.124 337.928C198.199 337.685 198.283 337.419 198.376 337.13C198.479 336.841 198.6 336.514 198.74 336.15L200.91 330.2H202.674L198.726 340H197.256ZM204.254 340V332.65H205.696V340H204.254ZM204.954 331.026C204.646 331.026 204.408 330.947 204.24 330.788C204.072 330.629 203.988 330.405 203.988 330.116C203.988 329.845 204.072 329.626 204.24 329.458C204.417 329.29 204.655 329.206 204.954 329.206C205.262 329.206 205.5 329.285 205.668 329.444C205.836 329.603 205.92 329.827 205.92 330.116C205.92 330.387 205.831 330.606 205.654 330.774C205.486 330.942 205.252 331.026 204.954 331.026ZM211.202 343.22C210.68 343.22 210.157 343.136 209.634 342.968C209.121 342.809 208.706 342.599 208.388 342.338L208.92 341.218C209.107 341.358 209.326 341.479 209.578 341.582C209.83 341.694 210.096 341.778 210.376 341.834C210.656 341.899 210.932 341.932 211.202 341.932C211.716 341.932 212.145 341.848 212.49 341.68C212.836 341.512 213.097 341.265 213.274 340.938C213.452 340.611 213.54 340.205 213.54 339.72V338.306L213.694 338.404C213.648 338.693 213.494 338.973 213.232 339.244C212.98 339.505 212.663 339.72 212.28 339.888C211.898 340.056 211.506 340.14 211.104 340.14C210.404 340.14 209.779 339.977 209.228 339.65C208.687 339.314 208.258 338.861 207.94 338.292C207.623 337.713 207.464 337.055 207.464 336.318C207.464 335.581 207.618 334.927 207.926 334.358C208.244 333.779 208.673 333.327 209.214 333C209.765 332.664 210.381 332.496 211.062 332.496C211.342 332.496 211.613 332.533 211.874 332.608C212.136 332.673 212.378 332.771 212.602 332.902C212.826 333.023 213.027 333.159 213.204 333.308C213.382 333.457 213.526 333.616 213.638 333.784C213.75 333.952 213.82 334.111 213.848 334.26L213.54 334.372V332.65H214.982V339.552C214.982 340.14 214.894 340.658 214.716 341.106C214.548 341.563 214.301 341.946 213.974 342.254C213.648 342.571 213.251 342.809 212.784 342.968C212.318 343.136 211.79 343.22 211.202 343.22ZM211.258 338.81C211.716 338.81 212.122 338.703 212.476 338.488C212.831 338.273 213.106 337.979 213.302 337.606C213.498 337.233 213.596 336.803 213.596 336.318C213.596 335.833 213.494 335.403 213.288 335.03C213.092 334.647 212.817 334.349 212.462 334.134C212.117 333.919 211.716 333.812 211.258 333.812C210.81 333.812 210.409 333.924 210.054 334.148C209.709 334.363 209.434 334.661 209.228 335.044C209.032 335.417 208.934 335.842 208.934 336.318C208.934 336.794 209.032 337.223 209.228 337.606C209.434 337.979 209.709 338.273 210.054 338.488C210.409 338.703 210.81 338.81 211.258 338.81ZM217.004 340V332.65H218.446V334.162L218.194 334.33C218.287 334.003 218.469 333.705 218.74 333.434C219.011 333.154 219.333 332.93 219.706 332.762C220.079 332.585 220.462 332.496 220.854 332.496C221.414 332.496 221.881 332.608 222.254 332.832C222.627 333.047 222.907 333.378 223.094 333.826C223.281 334.274 223.374 334.839 223.374 335.52V340H221.932V335.618C221.932 335.198 221.876 334.853 221.764 334.582C221.652 334.302 221.479 334.101 221.246 333.98C221.013 333.849 220.723 333.793 220.378 333.812C220.098 333.812 219.841 333.859 219.608 333.952C219.375 334.036 219.169 334.157 218.992 334.316C218.824 334.475 218.689 334.661 218.586 334.876C218.493 335.081 218.446 335.305 218.446 335.548V340H217.732C217.611 340 217.489 340 217.368 340C217.247 340 217.125 340 217.004 340ZM228.76 340.14C228.004 340.14 227.332 339.981 226.744 339.664C226.166 339.337 225.708 338.894 225.372 338.334C225.046 337.774 224.882 337.13 224.882 336.402C224.882 335.823 224.976 335.296 225.162 334.82C225.349 334.344 225.606 333.933 225.932 333.588C226.268 333.233 226.665 332.963 227.122 332.776C227.589 332.58 228.093 332.482 228.634 332.482C229.11 332.482 229.554 332.575 229.964 332.762C230.375 332.939 230.73 333.187 231.028 333.504C231.336 333.821 231.57 334.199 231.728 334.638C231.896 335.067 231.976 335.539 231.966 336.052L231.952 336.668H225.946L225.624 335.52H230.706L230.496 335.758V335.422C230.468 335.114 230.366 334.839 230.188 334.596C230.011 334.353 229.787 334.162 229.516 334.022C229.246 333.882 228.952 333.812 228.634 333.812C228.13 333.812 227.706 333.91 227.36 334.106C227.015 334.293 226.754 334.573 226.576 334.946C226.399 335.31 226.31 335.763 226.31 336.304C226.31 336.817 226.418 337.265 226.632 337.648C226.847 338.021 227.15 338.311 227.542 338.516C227.934 338.721 228.387 338.824 228.9 338.824C229.264 338.824 229.6 338.763 229.908 338.642C230.226 338.521 230.566 338.301 230.93 337.984L231.658 339.006C231.434 339.23 231.159 339.426 230.832 339.594C230.515 339.762 230.174 339.897 229.81 340C229.456 340.093 229.106 340.14 228.76 340.14ZM235.983 340.14C235.367 340.14 234.812 340.033 234.317 339.818C233.823 339.603 233.412 339.286 233.085 338.866L234.065 338.026C234.345 338.353 234.649 338.591 234.975 338.74C235.311 338.88 235.689 338.95 236.109 338.95C236.277 338.95 236.431 338.931 236.571 338.894C236.721 338.847 236.847 338.782 236.949 338.698C237.061 338.614 237.145 338.516 237.201 338.404C237.257 338.283 237.285 338.152 237.285 338.012C237.285 337.769 237.197 337.573 237.019 337.424C236.926 337.359 236.777 337.289 236.571 337.214C236.375 337.13 236.119 337.046 235.801 336.962C235.26 336.822 234.817 336.663 234.471 336.486C234.126 336.309 233.86 336.108 233.673 335.884C233.533 335.707 233.431 335.515 233.365 335.31C233.3 335.095 233.267 334.862 233.267 334.61C233.267 334.302 233.333 334.022 233.463 333.77C233.603 333.509 233.79 333.285 234.023 333.098C234.266 332.902 234.546 332.753 234.863 332.65C235.19 332.547 235.535 332.496 235.899 332.496C236.245 332.496 236.585 332.543 236.921 332.636C237.267 332.729 237.584 332.865 237.873 333.042C238.163 333.219 238.405 333.429 238.601 333.672L237.775 334.582C237.598 334.405 237.402 334.251 237.187 334.12C236.982 333.98 236.772 333.873 236.557 333.798C236.343 333.723 236.147 333.686 235.969 333.686C235.773 333.686 235.596 333.705 235.437 333.742C235.279 333.779 235.143 333.835 235.031 333.91C234.929 333.985 234.849 334.078 234.793 334.19C234.737 334.302 234.709 334.428 234.709 334.568C234.719 334.689 234.747 334.806 234.793 334.918C234.849 335.021 234.924 335.109 235.017 335.184C235.12 335.259 235.274 335.338 235.479 335.422C235.685 335.506 235.946 335.585 236.263 335.66C236.73 335.781 237.113 335.917 237.411 336.066C237.719 336.206 237.962 336.369 238.139 336.556C238.326 336.733 238.457 336.939 238.531 337.172C238.606 337.405 238.643 337.667 238.643 337.956C238.643 338.376 238.522 338.754 238.279 339.09C238.046 339.417 237.729 339.673 237.327 339.86C236.926 340.047 236.478 340.14 235.983 340.14ZM240.233 340V329.64H241.675V334.162L241.423 334.33C241.516 334.003 241.698 333.705 241.969 333.434C242.239 333.154 242.561 332.93 242.935 332.762C243.308 332.585 243.691 332.496 244.083 332.496C244.643 332.496 245.109 332.608 245.483 332.832C245.856 333.047 246.136 333.378 246.323 333.826C246.509 334.274 246.603 334.839 246.603 335.52V340H245.161V335.618C245.161 335.198 245.105 334.853 244.993 334.582C244.881 334.302 244.708 334.101 244.475 333.98C244.241 333.849 243.952 333.793 243.607 333.812C243.327 333.812 243.07 333.859 242.837 333.952C242.603 334.036 242.398 334.157 242.221 334.316C242.053 334.475 241.917 334.661 241.815 334.876C241.721 335.081 241.675 335.305 241.675 335.548V340H240.961C240.839 340 240.718 340 240.597 340C240.475 340 240.354 340 240.233 340ZM249.147 340.154C248.839 340.154 248.601 340.065 248.433 339.888C248.265 339.701 248.181 339.44 248.181 339.104C248.181 338.796 248.269 338.544 248.447 338.348C248.624 338.152 248.857 338.054 249.147 338.054C249.455 338.054 249.693 338.147 249.861 338.334C250.029 338.511 250.113 338.768 250.113 339.104C250.113 339.412 250.024 339.664 249.847 339.86C249.669 340.056 249.436 340.154 249.147 340.154ZM258.916 340L254.996 330.2H256.718L259.056 336.15C259.168 336.439 259.266 336.701 259.35 336.934C259.443 337.167 259.523 337.382 259.588 337.578C259.653 337.765 259.714 337.942 259.77 338.11C259.826 338.278 259.882 338.446 259.938 338.614L259.574 338.628C259.639 338.404 259.709 338.171 259.784 337.928C259.859 337.685 259.943 337.419 260.036 337.13C260.139 336.841 260.26 336.514 260.4 336.15L262.57 330.2H264.334L260.386 340H258.916Z" fill="white"/>
<path d="M179.742 336.711V335.283H183.774V336.711H179.742Z" fill="#B1B1B1"/>
<path d="M33.372 370.001V360.201H37.46C38.0853 360.201 38.6127 360.294 39.042 360.481C39.4713 360.668 39.7933 360.948 40.008 361.321C40.232 361.685 40.344 362.133 40.344 362.665C40.344 363.197 40.1947 363.65 39.896 364.023C39.6067 364.396 39.2007 364.653 38.678 364.793V364.513C39.1167 364.606 39.4993 364.774 39.826 365.017C40.1527 365.25 40.4047 365.544 40.582 365.899C40.7687 366.254 40.862 366.66 40.862 367.117C40.862 367.584 40.7873 367.999 40.638 368.363C40.498 368.718 40.2833 369.016 39.994 369.259C39.714 369.502 39.3733 369.688 38.972 369.819C38.5707 369.94 38.1133 370.001 37.6 370.001H33.372ZM34.884 368.545H37.516C37.8987 368.545 38.2207 368.489 38.482 368.377C38.7527 368.265 38.958 368.102 39.098 367.887C39.2473 367.663 39.322 367.397 39.322 367.089C39.322 366.8 39.2427 366.552 39.084 366.347C38.9347 366.142 38.72 365.988 38.44 365.885C38.16 365.773 37.8287 365.717 37.446 365.717H34.884V368.545ZM34.884 364.261H37.376C37.656 364.261 37.9033 364.205 38.118 364.093C38.342 363.981 38.5147 363.827 38.636 363.631C38.7667 363.435 38.832 363.211 38.832 362.959C38.832 362.539 38.692 362.217 38.412 361.993C38.132 361.769 37.7307 361.657 37.208 361.657H34.884V364.261ZM45.3516 370.141C44.745 370.141 44.1896 369.973 43.6856 369.637C43.191 369.301 42.7943 368.844 42.4956 368.265C42.197 367.686 42.0476 367.033 42.0476 366.305C42.0476 365.568 42.197 364.914 42.4956 364.345C42.8036 363.766 43.2143 363.314 43.7276 362.987C44.2503 362.66 44.8336 362.497 45.4776 362.497C45.8603 362.497 46.2103 362.553 46.5276 362.665C46.845 362.777 47.1203 362.936 47.3536 363.141C47.5963 363.337 47.7923 363.566 47.9416 363.827C48.1003 364.088 48.1983 364.368 48.2356 364.667L47.9136 364.555V362.651H49.3696V370.001H47.9136V368.251L48.2496 368.153C48.1936 368.405 48.077 368.652 47.8996 368.895C47.7316 369.128 47.5123 369.338 47.2416 369.525C46.9803 369.712 46.6863 369.861 46.3596 369.973C46.0423 370.085 45.7063 370.141 45.3516 370.141ZM45.7296 368.811C46.1683 368.811 46.5556 368.704 46.8916 368.489C47.2276 368.274 47.489 367.98 47.6756 367.607C47.8716 367.224 47.9696 366.79 47.9696 366.305C47.9696 365.829 47.8716 365.404 47.6756 365.031C47.489 364.658 47.2276 364.364 46.8916 364.149C46.5556 363.934 46.1683 363.827 45.7296 363.827C45.3003 363.827 44.9176 363.934 44.5816 364.149C44.255 364.364 43.9936 364.658 43.7976 365.031C43.611 365.404 43.5176 365.829 43.5176 366.305C43.5176 366.79 43.611 367.224 43.7976 367.607C43.9936 367.98 44.255 368.274 44.5816 368.489C44.9176 368.704 45.3003 368.811 45.7296 368.811ZM51.383 370.001V362.651H52.825V364.163L52.573 364.331C52.6663 364.004 52.8483 363.706 53.119 363.435C53.3897 363.155 53.7117 362.931 54.085 362.763C54.4583 362.586 54.841 362.497 55.233 362.497C55.793 362.497 56.2597 362.609 56.633 362.833C57.0063 363.048 57.2863 363.379 57.473 363.827C57.6597 364.275 57.753 364.84 57.753 365.521V370.001H56.311V365.619C56.311 365.199 56.255 364.854 56.143 364.583C56.031 364.303 55.8583 364.102 55.625 363.981C55.3917 363.85 55.1023 363.794 54.757 363.813C54.477 363.813 54.2203 363.86 53.987 363.953C53.7537 364.037 53.5483 364.158 53.371 364.317C53.203 364.476 53.0677 364.662 52.965 364.877C52.8717 365.082 52.825 365.306 52.825 365.549V370.001H52.111C51.9897 370.001 51.8683 370.001 51.747 370.001C51.6257 370.001 51.5043 370.001 51.383 370.001ZM61.0252 367.705L60.9552 366.137L64.4692 362.651H66.4152L61.0252 367.705ZM59.7092 370.001V359.641H61.1512V370.001H59.7092ZM64.6652 370.001L61.8932 366.767L62.9152 365.829L66.5132 370.001H64.6652ZM71.954 370.001V360.201H73.312L79.304 368.223L79.08 368.349C79.0427 368.116 79.01 367.864 78.982 367.593C78.954 367.313 78.926 367.019 78.898 366.711C78.8794 366.394 78.8607 366.062 78.842 365.717C78.8327 365.362 78.8234 364.994 78.814 364.611C78.8047 364.228 78.8 363.832 78.8 363.421V360.201H80.312V370.001H78.926L73.032 362.273L73.186 362.077C73.2327 362.646 73.27 363.132 73.298 363.533C73.3354 363.925 73.3634 364.261 73.382 364.541C73.41 364.812 73.4287 365.036 73.438 365.213C73.4474 365.381 73.452 365.521 73.452 365.633C73.4614 365.745 73.466 365.843 73.466 365.927V370.001H71.954ZM85.5196 370.141C84.9129 370.141 84.3576 369.973 83.8536 369.637C83.3589 369.301 82.9623 368.844 82.6636 368.265C82.3649 367.686 82.2156 367.033 82.2156 366.305C82.2156 365.568 82.3649 364.914 82.6636 364.345C82.9716 363.766 83.3823 363.314 83.8956 362.987C84.4183 362.66 85.0016 362.497 85.6456 362.497C86.0283 362.497 86.3783 362.553 86.6956 362.665C87.0129 362.777 87.2883 362.936 87.5216 363.141C87.7643 363.337 87.9603 363.566 88.1096 363.827C88.2683 364.088 88.3663 364.368 88.4036 364.667L88.0816 364.555V362.651H89.5376V370.001H88.0816V368.251L88.4176 368.153C88.3616 368.405 88.2449 368.652 88.0676 368.895C87.8996 369.128 87.6803 369.338 87.4096 369.525C87.1483 369.712 86.8543 369.861 86.5276 369.973C86.2103 370.085 85.8743 370.141 85.5196 370.141ZM85.8976 368.811C86.3363 368.811 86.7236 368.704 87.0596 368.489C87.3956 368.274 87.6569 367.98 87.8436 367.607C88.0396 367.224 88.1376 366.79 88.1376 366.305C88.1376 365.829 88.0396 365.404 87.8436 365.031C87.6569 364.658 87.3956 364.364 87.0596 364.149C86.7236 363.934 86.3363 363.827 85.8976 363.827C85.4683 363.827 85.0856 363.934 84.7496 364.149C84.4229 364.364 84.1616 364.658 83.9656 365.031C83.7789 365.404 83.6856 365.829 83.6856 366.305C83.6856 366.79 83.7789 367.224 83.9656 367.607C84.1616 367.98 84.4229 368.274 84.7496 368.489C85.0856 368.704 85.4683 368.811 85.8976 368.811ZM91.523 370.001V362.651H92.979V364.219L92.713 364.387C92.7876 364.144 92.9043 363.911 93.063 363.687C93.231 363.463 93.4316 363.267 93.665 363.099C93.9076 362.922 94.1643 362.782 94.435 362.679C94.715 362.576 94.9996 362.525 95.289 362.525C95.709 362.525 96.0776 362.595 96.395 362.735C96.7123 362.875 96.9736 363.085 97.179 363.365C97.3843 363.645 97.5336 363.995 97.627 364.415L97.403 364.359L97.501 364.121C97.6036 363.906 97.7436 363.706 97.921 363.519C98.1076 363.323 98.3176 363.15 98.551 363.001C98.7843 362.852 99.0316 362.735 99.293 362.651C99.5543 362.567 99.811 362.525 100.063 362.525C100.614 362.525 101.066 362.637 101.421 362.861C101.785 363.085 102.056 363.426 102.233 363.883C102.42 364.34 102.513 364.91 102.513 365.591V370.001H101.057V365.675C101.057 365.255 101.001 364.914 100.889 364.653C100.786 364.382 100.628 364.182 100.413 364.051C100.198 363.92 99.923 363.855 99.587 363.855C99.3256 363.855 99.0783 363.902 98.845 363.995C98.621 364.079 98.425 364.2 98.257 364.359C98.089 364.518 97.9583 364.704 97.865 364.919C97.7716 365.124 97.725 365.353 97.725 365.605V370.001H96.269V365.647C96.269 365.264 96.213 364.942 96.101 364.681C95.989 364.41 95.8256 364.205 95.611 364.065C95.3963 363.925 95.135 363.855 94.827 363.855C94.5656 363.855 94.323 363.902 94.099 363.995C93.875 364.079 93.679 364.2 93.511 364.359C93.343 364.508 93.2123 364.69 93.119 364.905C93.0256 365.11 92.979 365.334 92.979 365.577V370.001H91.523ZM107.874 370.141C107.118 370.141 106.446 369.982 105.858 369.665C105.279 369.338 104.822 368.895 104.486 368.335C104.159 367.775 103.996 367.131 103.996 366.403C103.996 365.824 104.089 365.297 104.276 364.821C104.462 364.345 104.719 363.934 105.046 363.589C105.382 363.234 105.778 362.964 106.236 362.777C106.702 362.581 107.206 362.483 107.748 362.483C108.224 362.483 108.667 362.576 109.078 362.763C109.488 362.94 109.843 363.188 110.142 363.505C110.45 363.822 110.683 364.2 110.842 364.639C111.01 365.068 111.089 365.54 111.08 366.053L111.066 366.669H105.06L104.738 365.521H109.82L109.61 365.759V365.423C109.582 365.115 109.479 364.84 109.302 364.597C109.124 364.354 108.9 364.163 108.63 364.023C108.359 363.883 108.065 363.813 107.748 363.813C107.244 363.813 106.819 363.911 106.474 364.107C106.128 364.294 105.867 364.574 105.69 364.947C105.512 365.311 105.424 365.764 105.424 366.305C105.424 366.818 105.531 367.266 105.746 367.649C105.96 368.022 106.264 368.312 106.656 368.517C107.048 368.722 107.5 368.825 108.014 368.825C108.378 368.825 108.714 368.764 109.022 368.643C109.339 368.522 109.68 368.302 110.044 367.985L110.772 369.007C110.548 369.231 110.272 369.427 109.946 369.595C109.628 369.763 109.288 369.898 108.924 370.001C108.569 370.094 108.219 370.141 107.874 370.141Z" fill="#E4E4E7"/>
<path d="M200.77 370V360.2H202.282V370H200.77ZM194.372 370V360.2H195.884V370H194.372ZM195.03 365.842V364.386H201.442V365.842H195.03ZM205.022 370V360.2H208.858C209.558 360.2 210.188 360.317 210.748 360.55C211.318 360.783 211.803 361.119 212.204 361.558C212.606 361.997 212.914 362.515 213.128 363.112C213.343 363.709 213.45 364.372 213.45 365.1C213.45 365.828 213.343 366.495 213.128 367.102C212.914 367.699 212.606 368.217 212.204 368.656C211.812 369.085 211.332 369.417 210.762 369.65C210.193 369.883 209.558 370 208.858 370H205.022ZM206.534 368.698L206.492 368.544H208.788C209.283 368.544 209.722 368.465 210.104 368.306C210.496 368.147 210.823 367.923 211.084 367.634C211.355 367.335 211.56 366.971 211.7 366.542C211.84 366.113 211.91 365.632 211.91 365.1C211.91 364.568 211.84 364.092 211.7 363.672C211.56 363.243 211.355 362.879 211.084 362.58C210.814 362.281 210.487 362.053 210.104 361.894C209.722 361.735 209.283 361.656 208.788 361.656H206.45L206.534 361.53V368.698ZM215.495 370V360.2H217.007V370H215.495ZM216.167 365.828V364.372H221.221V365.828H216.167ZM216.167 361.656V360.2H221.851V361.656H216.167ZM227.77 370.14C227.089 370.14 226.463 370.019 225.894 369.776C225.325 369.533 224.83 369.188 224.41 368.74C223.99 368.283 223.663 367.746 223.43 367.13C223.206 366.514 223.094 365.837 223.094 365.1C223.094 364.4 223.215 363.751 223.458 363.154C223.71 362.547 224.055 362.015 224.494 361.558C224.933 361.101 225.441 360.746 226.02 360.494C226.599 360.242 227.224 360.116 227.896 360.116C228.372 360.116 228.834 360.191 229.282 360.34C229.739 360.48 230.15 360.681 230.514 360.942C230.887 361.194 231.191 361.483 231.424 361.81L230.416 362.86C230.145 362.589 229.87 362.365 229.59 362.188C229.319 362.001 229.039 361.861 228.75 361.768C228.47 361.675 228.185 361.628 227.896 361.628C227.439 361.628 227.009 361.717 226.608 361.894C226.216 362.062 225.871 362.3 225.572 362.608C225.283 362.916 225.054 363.285 224.886 363.714C224.718 364.134 224.634 364.596 224.634 365.1C224.634 365.632 224.713 366.117 224.872 366.556C225.04 366.985 225.273 367.354 225.572 367.662C225.871 367.97 226.225 368.208 226.636 368.376C227.056 368.535 227.518 368.614 228.022 368.614C228.33 368.614 228.633 368.572 228.932 368.488C229.231 368.404 229.511 368.283 229.772 368.124C230.033 367.965 230.271 367.779 230.486 367.564L231.242 368.796C231.027 369.048 230.733 369.277 230.36 369.482C229.996 369.687 229.585 369.851 229.128 369.972C228.68 370.084 228.227 370.14 227.77 370.14ZM236.59 366.71V365.282H240.622V366.71H236.59ZM252.617 370L249.579 365.604L245.687 360.2H247.605L250.573 364.54L254.535 370H252.617ZM245.617 370L249.355 364.666L250.293 365.772L247.395 370H245.617ZM250.797 365.45L249.873 364.386L252.617 360.2H254.395L250.797 365.45ZM262.201 370L259.163 365.604L255.271 360.2H257.189L260.157 364.54L264.119 370H262.201ZM255.201 370L258.939 364.666L259.877 365.772L256.979 370H255.201ZM260.381 365.45L259.457 364.386L262.201 360.2H263.979L260.381 365.45ZM271.785 370L268.747 365.604L264.855 360.2H266.773L269.741 364.54L273.703 370H271.785ZM264.785 370L268.523 364.666L269.461 365.772L266.563 370H264.785ZM269.965 365.45L269.041 364.386L271.785 360.2H273.563L269.965 365.45ZM281.369 370L278.331 365.604L274.439 360.2H276.357L279.325 364.54L283.287 370H281.369ZM274.369 370L278.107 364.666L279.045 365.772L276.147 370H274.369ZM279.549 365.45L278.625 364.386L281.369 360.2H283.147L279.549 365.45ZM289.109 370L293.169 361.152L293.337 361.6H288.381V360.2H294.443L294.639 361.166L290.733 370H289.109ZM298.817 370C298.332 370 297.879 369.916 297.459 369.748C297.049 369.571 296.689 369.328 296.381 369.02C296.083 368.712 295.845 368.348 295.667 367.928C295.499 367.508 295.415 367.046 295.415 366.542C295.415 366.29 295.448 366.01 295.513 365.702C295.588 365.385 295.695 365.039 295.835 364.666C295.985 364.293 296.162 363.901 296.367 363.49C296.573 363.07 296.811 362.636 297.081 362.188L298.355 360.032H299.825L299.881 360.172L298.341 362.762C298.061 363.238 297.809 363.691 297.585 364.12C297.371 364.549 297.189 364.955 297.039 365.338C296.89 365.711 296.778 366.052 296.703 366.36L296.367 364.918C296.545 364.629 296.736 364.377 296.941 364.162C297.147 363.938 297.366 363.751 297.599 363.602C297.842 363.453 298.094 363.341 298.355 363.266C298.617 363.191 298.887 363.154 299.167 363.154C299.709 363.154 300.203 363.303 300.651 363.602C301.109 363.891 301.473 364.279 301.743 364.764C302.023 365.249 302.163 365.781 302.163 366.36C302.163 367.06 302.019 367.685 301.729 368.236C301.449 368.777 301.057 369.207 300.553 369.524C300.049 369.841 299.471 370 298.817 370ZM298.817 368.6C299.181 368.6 299.503 368.516 299.783 368.348C300.073 368.171 300.297 367.928 300.455 367.62C300.623 367.303 300.707 366.943 300.707 366.542C300.707 366.197 300.623 365.875 300.455 365.576C300.287 365.268 300.063 365.021 299.783 364.834C299.503 364.647 299.191 364.554 298.845 364.554C298.463 364.554 298.122 364.643 297.823 364.82C297.525 364.997 297.291 365.235 297.123 365.534C296.955 365.833 296.871 366.164 296.871 366.528C296.871 366.92 296.955 367.275 297.123 367.592C297.291 367.9 297.52 368.147 297.809 368.334C298.099 368.511 298.435 368.6 298.817 368.6ZM305.84 370L305.784 369.86L308.696 363.672L308.738 364.834C308.57 365.114 308.384 365.361 308.178 365.576C307.982 365.791 307.763 365.977 307.52 366.136C307.287 366.285 307.044 366.402 306.792 366.486C306.54 366.561 306.284 366.598 306.022 366.598C305.49 366.598 305 366.458 304.552 366.178C304.104 365.898 303.745 365.525 303.474 365.058C303.204 364.591 303.068 364.083 303.068 363.532C303.068 362.869 303.218 362.277 303.516 361.754C303.815 361.222 304.221 360.802 304.734 360.494C305.257 360.186 305.84 360.032 306.484 360.032C306.951 360.032 307.39 360.116 307.8 360.284C308.211 360.452 308.57 360.69 308.878 360.998C309.186 361.297 309.429 361.647 309.606 362.048C309.784 362.44 309.872 362.86 309.872 363.308C309.872 363.541 309.849 363.793 309.802 364.064C309.756 364.325 309.676 364.624 309.564 364.96C309.462 365.287 309.322 365.665 309.144 366.094C308.967 366.514 308.748 367.004 308.486 367.564L307.324 370H305.84ZM306.344 365.198C306.708 365.198 307.035 365.119 307.324 364.96C307.614 364.792 307.838 364.573 307.996 364.302C308.164 364.022 308.248 363.709 308.248 363.364C308.248 363 308.169 362.673 308.01 362.384C307.852 362.085 307.628 361.852 307.338 361.684C307.058 361.516 306.736 361.432 306.372 361.432C306.036 361.432 305.738 361.516 305.476 361.684C305.215 361.843 305.005 362.067 304.846 362.356C304.697 362.636 304.622 362.967 304.622 363.35C304.622 363.677 304.697 363.98 304.846 364.26C305.005 364.54 305.215 364.769 305.476 364.946C305.738 365.114 306.027 365.198 306.344 365.198ZM313.957 370.098C313.313 370.098 312.73 369.953 312.207 369.664C311.685 369.365 311.251 368.941 310.905 368.39L311.745 367.452C312.184 367.937 312.567 368.269 312.893 368.446C313.22 368.623 313.575 368.712 313.957 368.712C314.34 368.712 314.685 368.628 314.993 368.46C315.301 368.292 315.544 368.063 315.721 367.774C315.908 367.485 316.001 367.163 316.001 366.808C316.001 366.435 315.913 366.103 315.735 365.814C315.567 365.515 315.339 365.282 315.049 365.114C314.76 364.937 314.433 364.848 314.069 364.848C313.892 364.848 313.724 364.862 313.565 364.89C313.407 364.909 313.215 364.96 312.991 365.044C312.767 365.128 312.473 365.259 312.109 365.436L311.311 364.358L311.885 360.2H317.177V361.6H312.837L313.131 361.334L312.669 364.442L312.319 364.036C312.413 363.943 312.571 363.854 312.795 363.77C313.019 363.677 313.267 363.602 313.537 363.546C313.817 363.481 314.083 363.448 314.335 363.448C314.933 363.448 315.465 363.588 315.931 363.868C316.407 364.139 316.781 364.517 317.051 365.002C317.331 365.487 317.471 366.043 317.471 366.668C317.471 367.312 317.317 367.895 317.009 368.418C316.701 368.931 316.281 369.342 315.749 369.65C315.217 369.949 314.62 370.098 313.957 370.098Z" fill="white"/>
<path d="M179.742 366.711V365.283H183.774V366.711H179.742Z" fill="#B1B1B1"/>
<path d="M35.234 400.001V391.657H32.49V390.201H39.574V391.657H36.746V400.001H35.234ZM40.2404 400.001V392.651H41.6964V394.961L41.5564 394.401C41.6591 394.046 41.8318 393.724 42.0744 393.435C42.3264 393.146 42.6111 392.917 42.9284 392.749C43.2551 392.581 43.5911 392.497 43.9364 392.497C44.0951 392.497 44.2444 392.511 44.3844 392.539C44.5338 392.567 44.6504 392.6 44.7344 392.637L44.3564 394.205C44.2444 394.158 44.1184 394.121 43.9784 394.093C43.8478 394.056 43.7171 394.037 43.5864 394.037C43.3344 394.037 43.0918 394.088 42.8584 394.191C42.6344 394.284 42.4338 394.42 42.2564 394.597C42.0884 394.765 41.9531 394.966 41.8504 395.199C41.7478 395.423 41.6964 395.67 41.6964 395.941V400.001H40.2404ZM48.4005 400.141C47.7938 400.141 47.2385 399.973 46.7345 399.637C46.2398 399.301 45.8431 398.844 45.5445 398.265C45.2458 397.686 45.0965 397.033 45.0965 396.305C45.0965 395.568 45.2458 394.914 45.5445 394.345C45.8525 393.766 46.2631 393.314 46.7765 392.987C47.2991 392.66 47.8825 392.497 48.5265 392.497C48.9091 392.497 49.2591 392.553 49.5765 392.665C49.8938 392.777 50.1691 392.936 50.4025 393.141C50.6451 393.337 50.8411 393.566 50.9905 393.827C51.1491 394.088 51.2471 394.368 51.2845 394.667L50.9625 394.555V392.651H52.4185V400.001H50.9625V398.251L51.2985 398.153C51.2425 398.405 51.1258 398.652 50.9485 398.895C50.7805 399.128 50.5611 399.338 50.2905 399.525C50.0291 399.712 49.7351 399.861 49.4085 399.973C49.0911 400.085 48.7551 400.141 48.4005 400.141ZM48.7785 398.811C49.2171 398.811 49.6045 398.704 49.9405 398.489C50.2765 398.274 50.5378 397.98 50.7245 397.607C50.9205 397.224 51.0185 396.79 51.0185 396.305C51.0185 395.829 50.9205 395.404 50.7245 395.031C50.5378 394.658 50.2765 394.364 49.9405 394.149C49.6045 393.934 49.2171 393.827 48.7785 393.827C48.3491 393.827 47.9665 393.934 47.6305 394.149C47.3038 394.364 47.0425 394.658 46.8465 395.031C46.6598 395.404 46.5665 395.829 46.5665 396.305C46.5665 396.79 46.6598 397.224 46.8465 397.607C47.0425 397.98 47.3038 398.274 47.6305 398.489C47.9665 398.704 48.3491 398.811 48.7785 398.811ZM54.4318 400.001V392.651H55.8738V394.163L55.6218 394.331C55.7152 394.004 55.8972 393.706 56.1678 393.435C56.4385 393.155 56.7605 392.931 57.1338 392.763C57.5072 392.586 57.8898 392.497 58.2818 392.497C58.8418 392.497 59.3085 392.609 59.6818 392.833C60.0552 393.048 60.3352 393.379 60.5218 393.827C60.7085 394.275 60.8018 394.84 60.8018 395.521V400.001H59.3598V395.619C59.3598 395.199 59.3038 394.854 59.1918 394.583C59.0798 394.303 58.9072 394.102 58.6738 393.981C58.4405 393.85 58.1512 393.794 57.8058 393.813C57.5258 393.813 57.2692 393.86 57.0358 393.953C56.8025 394.037 56.5972 394.158 56.4198 394.317C56.2518 394.476 56.1165 394.662 56.0138 394.877C55.9205 395.082 55.8738 395.306 55.8738 395.549V400.001H55.1598C55.0385 400.001 54.9172 400.001 54.7958 400.001C54.6745 400.001 54.5532 400.001 54.4318 400.001ZM65.208 400.141C64.592 400.141 64.0367 400.034 63.542 399.819C63.0473 399.604 62.6367 399.287 62.31 398.867L63.29 398.027C63.57 398.354 63.8733 398.592 64.2 398.741C64.536 398.881 64.914 398.951 65.334 398.951C65.502 398.951 65.656 398.932 65.796 398.895C65.9453 398.848 66.0713 398.783 66.174 398.699C66.286 398.615 66.37 398.517 66.426 398.405C66.482 398.284 66.51 398.153 66.51 398.013C66.51 397.77 66.4213 397.574 66.244 397.425C66.1507 397.36 66.0013 397.29 65.796 397.215C65.6 397.131 65.3433 397.047 65.026 396.963C64.4847 396.823 64.0413 396.664 63.696 396.487C63.3507 396.31 63.0847 396.109 62.898 395.885C62.758 395.708 62.6553 395.516 62.59 395.311C62.5247 395.096 62.492 394.863 62.492 394.611C62.492 394.303 62.5573 394.023 62.688 393.771C62.828 393.51 63.0147 393.286 63.248 393.099C63.4907 392.903 63.7707 392.754 64.088 392.651C64.4147 392.548 64.76 392.497 65.124 392.497C65.4693 392.497 65.81 392.544 66.146 392.637C66.4913 392.73 66.8087 392.866 67.098 393.043C67.3873 393.22 67.63 393.43 67.826 393.673L67 394.583C66.8227 394.406 66.6267 394.252 66.412 394.121C66.2067 393.981 65.9967 393.874 65.782 393.799C65.5673 393.724 65.3713 393.687 65.194 393.687C64.998 393.687 64.8207 393.706 64.662 393.743C64.5033 393.78 64.368 393.836 64.256 393.911C64.1533 393.986 64.074 394.079 64.018 394.191C63.962 394.303 63.934 394.429 63.934 394.569C63.9433 394.69 63.9713 394.807 64.018 394.919C64.074 395.022 64.1487 395.11 64.242 395.185C64.3447 395.26 64.4987 395.339 64.704 395.423C64.9093 395.507 65.1707 395.586 65.488 395.661C65.9547 395.782 66.3373 395.918 66.636 396.067C66.944 396.207 67.1867 396.37 67.364 396.557C67.5507 396.734 67.6813 396.94 67.756 397.173C67.8307 397.406 67.868 397.668 67.868 397.957C67.868 398.377 67.7467 398.755 67.504 399.091C67.2707 399.418 66.9533 399.674 66.552 399.861C66.1507 400.048 65.7027 400.141 65.208 400.141ZM72.2852 400.141C71.6786 400.141 71.1232 399.973 70.6192 399.637C70.1246 399.301 69.7279 398.844 69.4292 398.265C69.1306 397.686 68.9812 397.033 68.9812 396.305C68.9812 395.568 69.1306 394.914 69.4292 394.345C69.7372 393.766 70.1479 393.314 70.6612 392.987C71.1839 392.66 71.7672 392.497 72.4112 392.497C72.7939 392.497 73.1439 392.553 73.4612 392.665C73.7786 392.777 74.0539 392.936 74.2872 393.141C74.5299 393.337 74.7259 393.566 74.8752 393.827C75.0339 394.088 75.1319 394.368 75.1692 394.667L74.8472 394.555V392.651H76.3032V400.001H74.8472V398.251L75.1832 398.153C75.1272 398.405 75.0106 398.652 74.8332 398.895C74.6652 399.128 74.4459 399.338 74.1752 399.525C73.9139 399.712 73.6199 399.861 73.2932 399.973C72.9759 400.085 72.6399 400.141 72.2852 400.141ZM72.6632 398.811C73.1019 398.811 73.4892 398.704 73.8252 398.489C74.1612 398.274 74.4226 397.98 74.6092 397.607C74.8052 397.224 74.9032 396.79 74.9032 396.305C74.9032 395.829 74.8052 395.404 74.6092 395.031C74.4226 394.658 74.1612 394.364 73.8252 394.149C73.4892 393.934 73.1019 393.827 72.6632 393.827C72.2339 393.827 71.8512 393.934 71.5152 394.149C71.1886 394.364 70.9272 394.658 70.7312 395.031C70.5446 395.404 70.4512 395.829 70.4512 396.305C70.4512 396.79 70.5446 397.224 70.7312 397.607C70.9272 397.98 71.1886 398.274 71.5152 398.489C71.8512 398.704 72.2339 398.811 72.6632 398.811ZM81.4386 400.141C80.7573 400.141 80.1459 399.973 79.6046 399.637C79.0726 399.301 78.6479 398.844 78.3306 398.265C78.0226 397.686 77.8686 397.038 77.8686 396.319C77.8686 395.6 78.0226 394.952 78.3306 394.373C78.6479 393.794 79.0726 393.337 79.6046 393.001C80.1459 392.665 80.7573 392.497 81.4386 392.497C82.0919 392.497 82.6846 392.632 83.2166 392.903C83.7579 393.164 84.1686 393.524 84.4486 393.981L83.6506 394.961C83.5013 394.746 83.3099 394.55 83.0766 394.373C82.8433 394.196 82.5959 394.056 82.3346 393.953C82.0733 393.85 81.8213 393.799 81.5786 393.799C81.1306 393.799 80.7293 393.911 80.3746 394.135C80.0293 394.35 79.7539 394.648 79.5486 395.031C79.3433 395.414 79.2406 395.843 79.2406 396.319C79.2406 396.795 79.3479 397.224 79.5626 397.607C79.7773 397.98 80.0619 398.279 80.4166 398.503C80.7713 398.727 81.1633 398.839 81.5926 398.839C81.8446 398.839 82.0873 398.797 82.3206 398.713C82.5633 398.629 82.7966 398.503 83.0206 398.335C83.2446 398.167 83.4546 397.962 83.6506 397.719L84.4486 398.699C84.1499 399.119 83.7206 399.464 83.1606 399.735C82.6099 400.006 82.0359 400.141 81.4386 400.141ZM86.7188 400.001V390.775H88.1608V400.001H86.7188ZM85.1928 394.051V392.651H89.8688V394.051H85.1928ZM91.4198 400.001V392.651H92.8618V400.001H91.4198ZM92.1198 391.027C91.8118 391.027 91.5738 390.948 91.4058 390.789C91.2378 390.63 91.1538 390.406 91.1538 390.117C91.1538 389.846 91.2378 389.627 91.4058 389.459C91.5832 389.291 91.8212 389.207 92.1198 389.207C92.4278 389.207 92.6658 389.286 92.8338 389.445C93.0018 389.604 93.0858 389.828 93.0858 390.117C93.0858 390.388 92.9972 390.607 92.8198 390.775C92.6518 390.943 92.4185 391.027 92.1198 391.027ZM98.3823 400.141C97.6636 400.141 97.0196 399.978 96.4503 399.651C95.8903 399.315 95.447 398.862 95.1203 398.293C94.7936 397.714 94.6303 397.056 94.6303 396.319C94.6303 395.582 94.7936 394.928 95.1203 394.359C95.447 393.78 95.8903 393.328 96.4503 393.001C97.0196 392.665 97.6636 392.497 98.3823 392.497C99.0916 392.497 99.7263 392.665 100.286 393.001C100.856 393.328 101.304 393.78 101.63 394.359C101.957 394.928 102.12 395.582 102.12 396.319C102.12 397.056 101.957 397.714 101.63 398.293C101.304 398.862 100.856 399.315 100.286 399.651C99.7263 399.978 99.0916 400.141 98.3823 400.141ZM98.3823 398.825C98.821 398.825 99.213 398.718 99.5583 398.503C99.9036 398.279 100.174 397.98 100.37 397.607C100.566 397.224 100.66 396.795 100.65 396.319C100.66 395.834 100.566 395.404 100.37 395.031C100.174 394.648 99.9036 394.35 99.5583 394.135C99.213 393.92 98.821 393.813 98.3823 393.813C97.9436 393.813 97.547 393.925 97.1923 394.149C96.847 394.364 96.5763 394.662 96.3803 395.045C96.1843 395.418 96.091 395.843 96.1003 396.319C96.091 396.795 96.1843 397.224 96.3803 397.607C96.5763 397.98 96.847 398.279 97.1923 398.503C97.547 398.718 97.9436 398.825 98.3823 398.825ZM103.692 400.001V392.651H105.134V394.163L104.882 394.331C104.975 394.004 105.157 393.706 105.428 393.435C105.698 393.155 106.02 392.931 106.394 392.763C106.767 392.586 107.15 392.497 107.542 392.497C108.102 392.497 108.568 392.609 108.942 392.833C109.315 393.048 109.595 393.379 109.782 393.827C109.968 394.275 110.062 394.84 110.062 395.521V400.001H108.62V395.619C108.62 395.199 108.564 394.854 108.452 394.583C108.34 394.303 108.167 394.102 107.934 393.981C107.7 393.85 107.411 393.794 107.066 393.813C106.786 393.813 106.529 393.86 106.296 393.953C106.062 394.037 105.857 394.158 105.68 394.317C105.512 394.476 105.376 394.662 105.274 394.877C105.18 395.082 105.134 395.306 105.134 395.549V400.001H104.42C104.298 400.001 104.177 400.001 104.056 400.001C103.934 400.001 103.813 400.001 103.692 400.001ZM116.306 400.001V390.201H117.664L123.656 398.223L123.432 398.349C123.394 398.116 123.362 397.864 123.334 397.593C123.306 397.313 123.278 397.019 123.25 396.711C123.231 396.394 123.212 396.062 123.194 395.717C123.184 395.362 123.175 394.994 123.166 394.611C123.156 394.228 123.152 393.832 123.152 393.421V390.201H124.664V400.001H123.278L117.384 392.273L117.538 392.077C117.584 392.646 117.622 393.132 117.65 393.533C117.687 393.925 117.715 394.261 117.734 394.541C117.762 394.812 117.78 395.036 117.79 395.213C117.799 395.381 117.804 395.521 117.804 395.633C117.813 395.745 117.818 395.843 117.818 395.927V400.001H116.306ZM129.619 400.141C129.096 400.141 128.639 400.02 128.247 399.777C127.864 399.534 127.566 399.194 127.351 398.755C127.146 398.316 127.043 397.794 127.043 397.187V392.651H128.485V396.795C128.485 397.224 128.55 397.598 128.681 397.915C128.821 398.223 129.017 398.461 129.269 398.629C129.53 398.797 129.843 398.881 130.207 398.881C130.478 398.881 130.725 398.839 130.949 398.755C131.173 398.662 131.364 398.536 131.523 398.377C131.691 398.218 131.822 398.027 131.915 397.803C132.008 397.579 132.055 397.336 132.055 397.075V392.651H133.497V400.001H132.055V398.461L132.307 398.293C132.195 398.638 132.004 398.951 131.733 399.231C131.472 399.511 131.159 399.735 130.795 399.903C130.431 400.062 130.039 400.141 129.619 400.141ZM135.492 400.001V392.651H136.948V394.219L136.682 394.387C136.756 394.144 136.873 393.911 137.032 393.687C137.2 393.463 137.4 393.267 137.634 393.099C137.876 392.922 138.133 392.782 138.404 392.679C138.684 392.576 138.968 392.525 139.258 392.525C139.678 392.525 140.046 392.595 140.364 392.735C140.681 392.875 140.942 393.085 141.148 393.365C141.353 393.645 141.502 393.995 141.596 394.415L141.372 394.359L141.47 394.121C141.572 393.906 141.712 393.706 141.89 393.519C142.076 393.323 142.286 393.15 142.52 393.001C142.753 392.852 143 392.735 143.262 392.651C143.523 392.567 143.78 392.525 144.032 392.525C144.582 392.525 145.035 392.637 145.39 392.861C145.754 393.085 146.024 393.426 146.202 393.883C146.388 394.34 146.482 394.91 146.482 395.591V400.001H145.026V395.675C145.026 395.255 144.97 394.914 144.858 394.653C144.755 394.382 144.596 394.182 144.382 394.051C144.167 393.92 143.892 393.855 143.556 393.855C143.294 393.855 143.047 393.902 142.814 393.995C142.59 394.079 142.394 394.2 142.226 394.359C142.058 394.518 141.927 394.704 141.834 394.919C141.74 395.124 141.694 395.353 141.694 395.605V400.001H140.238V395.647C140.238 395.264 140.182 394.942 140.07 394.681C139.958 394.41 139.794 394.205 139.58 394.065C139.365 393.925 139.104 393.855 138.796 393.855C138.534 393.855 138.292 393.902 138.068 393.995C137.844 394.079 137.648 394.2 137.48 394.359C137.312 394.508 137.181 394.69 137.088 394.905C136.994 395.11 136.948 395.334 136.948 395.577V400.001H135.492ZM152.276 400.141C151.959 400.141 151.642 400.09 151.324 399.987C151.016 399.884 150.732 399.749 150.47 399.581C150.218 399.404 150.004 399.212 149.826 399.007C149.658 398.792 149.546 398.578 149.49 398.363L149.854 398.167V399.959H148.412V389.641H149.854V394.331L149.63 394.205C149.677 393.99 149.78 393.785 149.938 393.589C150.097 393.384 150.298 393.202 150.54 393.043C150.792 392.875 151.063 392.744 151.352 392.651C151.642 392.548 151.936 392.497 152.234 392.497C152.897 392.497 153.485 392.66 153.998 392.987C154.512 393.314 154.918 393.766 155.216 394.345C155.515 394.914 155.664 395.568 155.664 396.305C155.664 397.042 155.515 397.7 155.216 398.279C154.927 398.858 154.526 399.315 154.012 399.651C153.499 399.978 152.92 400.141 152.276 400.141ZM152.038 398.825C152.468 398.825 152.85 398.718 153.186 398.503C153.522 398.279 153.788 397.98 153.984 397.607C154.18 397.224 154.278 396.79 154.278 396.305C154.278 395.829 154.18 395.404 153.984 395.031C153.798 394.648 153.536 394.35 153.2 394.135C152.864 393.92 152.477 393.813 152.038 393.813C151.6 393.813 151.212 393.92 150.876 394.135C150.54 394.35 150.274 394.648 150.078 395.031C149.882 395.404 149.784 395.829 149.784 396.305C149.784 396.79 149.882 397.224 150.078 397.607C150.274 397.98 150.54 398.279 150.876 398.503C151.212 398.718 151.6 398.825 152.038 398.825ZM160.661 400.141C159.905 400.141 159.233 399.982 158.645 399.665C158.066 399.338 157.609 398.895 157.273 398.335C156.946 397.775 156.783 397.131 156.783 396.403C156.783 395.824 156.876 395.297 157.063 394.821C157.249 394.345 157.506 393.934 157.833 393.589C158.169 393.234 158.565 392.964 159.023 392.777C159.489 392.581 159.993 392.483 160.535 392.483C161.011 392.483 161.454 392.576 161.865 392.763C162.275 392.94 162.63 393.188 162.929 393.505C163.237 393.822 163.47 394.2 163.629 394.639C163.797 395.068 163.876 395.54 163.867 396.053L163.853 396.669H157.847L157.525 395.521H162.607L162.397 395.759V395.423C162.369 395.115 162.266 394.84 162.089 394.597C161.911 394.354 161.687 394.163 161.417 394.023C161.146 393.883 160.852 393.813 160.535 393.813C160.031 393.813 159.606 393.911 159.261 394.107C158.915 394.294 158.654 394.574 158.477 394.947C158.299 395.311 158.211 395.764 158.211 396.305C158.211 396.818 158.318 397.266 158.533 397.649C158.747 398.022 159.051 398.312 159.443 398.517C159.835 398.722 160.287 398.825 160.801 398.825C161.165 398.825 161.501 398.764 161.809 398.643C162.126 398.522 162.467 398.302 162.831 397.985L163.559 399.007C163.335 399.231 163.059 399.427 162.733 399.595C162.415 399.763 162.075 399.898 161.711 400.001C161.356 400.094 161.006 400.141 160.661 400.141ZM165.434 400.001V392.651H166.89V394.961L166.75 394.401C166.852 394.046 167.025 393.724 167.268 393.435C167.52 393.146 167.804 392.917 168.122 392.749C168.448 392.581 168.784 392.497 169.13 392.497C169.288 392.497 169.438 392.511 169.578 392.539C169.727 392.567 169.844 392.6 169.928 392.637L169.55 394.205C169.438 394.158 169.312 394.121 169.172 394.093C169.041 394.056 168.91 394.037 168.78 394.037C168.528 394.037 168.285 394.088 168.052 394.191C167.828 394.284 167.627 394.42 167.45 394.597C167.282 394.765 167.146 394.966 167.044 395.199C166.941 395.423 166.89 395.67 166.89 395.941V400.001H165.434Z" fill="#E4E4E7"/>
<path d="M197.242 400.141C196.495 400.141 195.851 399.936 195.31 399.525C194.778 399.114 194.367 398.536 194.078 397.789C193.789 397.033 193.644 396.137 193.644 395.101C193.644 394.065 193.789 393.174 194.078 392.427C194.367 391.671 194.778 391.088 195.31 390.677C195.851 390.266 196.495 390.061 197.242 390.061C197.989 390.061 198.633 390.266 199.174 390.677C199.715 391.088 200.131 391.671 200.42 392.427C200.709 393.174 200.854 394.065 200.854 395.101C200.854 396.137 200.709 397.033 200.42 397.789C200.131 398.536 199.715 399.114 199.174 399.525C198.633 399.936 197.989 400.141 197.242 400.141ZM197.242 398.769C197.923 398.769 198.451 398.452 198.824 397.817C199.197 397.173 199.384 396.268 199.384 395.101C199.384 393.934 199.197 393.034 198.824 392.399C198.451 391.755 197.923 391.433 197.242 391.433C196.561 391.433 196.033 391.755 195.66 392.399C195.287 393.034 195.1 393.934 195.1 395.101C195.1 396.268 195.287 397.173 195.66 397.817C196.033 398.452 196.561 398.769 197.242 398.769ZM205.018 400.141C204.327 400.141 203.725 399.982 203.212 399.665C202.708 399.348 202.232 398.816 201.784 398.069L202.96 397.327C203.193 397.672 203.422 397.957 203.646 398.181C203.879 398.396 204.117 398.554 204.36 398.657C204.603 398.76 204.859 398.811 205.13 398.811C205.457 398.811 205.76 398.732 206.04 398.573C206.32 398.405 206.544 398.176 206.712 397.887C206.88 397.598 206.964 397.271 206.964 396.907C206.964 396.543 206.899 396.235 206.768 395.983C206.637 395.722 206.446 395.526 206.194 395.395C205.942 395.255 205.643 395.185 205.298 395.185C205.139 395.185 204.971 395.204 204.794 395.241C204.626 395.269 204.444 395.316 204.248 395.381C204.052 395.437 203.837 395.512 203.604 395.605L203.184 394.499L206.208 391.167L206.502 391.601H202.33V390.201H207.944L208.224 390.761L205.018 394.317L204.668 393.953C204.743 393.916 204.864 393.883 205.032 393.855C205.209 393.818 205.354 393.799 205.466 393.799C205.877 393.799 206.259 393.878 206.614 394.037C206.978 394.186 207.291 394.401 207.552 394.681C207.823 394.952 208.033 395.274 208.182 395.647C208.341 396.011 208.42 396.403 208.42 396.823C208.42 397.458 208.266 398.027 207.958 398.531C207.659 399.026 207.253 399.418 206.74 399.707C206.227 399.996 205.653 400.141 205.018 400.141ZM209.264 400.001L213.058 390.201H214.598L218.364 400.001H216.754L214.514 394.093C214.486 394.028 214.43 393.869 214.346 393.617C214.271 393.365 214.183 393.085 214.08 392.777C213.977 392.469 213.884 392.189 213.8 391.937C213.716 391.676 213.66 391.508 213.632 391.433L213.954 391.419C213.898 391.578 213.828 391.778 213.744 392.021C213.669 392.264 213.585 392.52 213.492 392.791C213.408 393.062 213.324 393.318 213.24 393.561C213.156 393.794 213.086 393.99 213.03 394.149L210.804 400.001H209.264ZM210.944 397.565L211.504 396.109H215.956L216.6 397.565H210.944ZM219.067 400.001L222.861 390.201H224.401L228.167 400.001H226.557L224.317 394.093C224.289 394.028 224.233 393.869 224.149 393.617C224.074 393.365 223.985 393.085 223.883 392.777C223.78 392.469 223.687 392.189 223.603 391.937C223.519 391.676 223.463 391.508 223.435 391.433L223.757 391.419C223.701 391.578 223.631 391.778 223.547 392.021C223.472 392.264 223.388 392.52 223.295 392.791C223.211 393.062 223.127 393.318 223.043 393.561C222.959 393.794 222.889 393.99 222.833 394.149L220.607 400.001H219.067ZM220.747 397.565L221.307 396.109H225.759L226.403 397.565H220.747ZM233.594 400.141C232.913 400.141 232.287 400.02 231.718 399.777C231.149 399.534 230.654 399.189 230.234 398.741C229.814 398.284 229.487 397.747 229.254 397.131C229.03 396.515 228.918 395.838 228.918 395.101C228.918 394.401 229.039 393.752 229.282 393.155C229.534 392.548 229.879 392.016 230.318 391.559C230.757 391.102 231.265 390.747 231.844 390.495C232.423 390.243 233.048 390.117 233.72 390.117C234.196 390.117 234.658 390.192 235.106 390.341C235.563 390.481 235.974 390.682 236.338 390.943C236.711 391.195 237.015 391.484 237.248 391.811L236.24 392.861C235.969 392.59 235.694 392.366 235.414 392.189C235.143 392.002 234.863 391.862 234.574 391.769C234.294 391.676 234.009 391.629 233.72 391.629C233.263 391.629 232.833 391.718 232.432 391.895C232.04 392.063 231.695 392.301 231.396 392.609C231.107 392.917 230.878 393.286 230.71 393.715C230.542 394.135 230.458 394.597 230.458 395.101C230.458 395.633 230.537 396.118 230.696 396.557C230.864 396.986 231.097 397.355 231.396 397.663C231.695 397.971 232.049 398.209 232.46 398.377C232.88 398.536 233.342 398.615 233.846 398.615C234.154 398.615 234.457 398.573 234.756 398.489C235.055 398.405 235.335 398.284 235.596 398.125C235.857 397.966 236.095 397.78 236.31 397.565L237.066 398.797C236.851 399.049 236.557 399.278 236.184 399.483C235.82 399.688 235.409 399.852 234.952 399.973C234.504 400.085 234.051 400.141 233.594 400.141ZM238.098 400.001L241.892 390.201H243.432L247.198 400.001H245.588L243.348 394.093C243.32 394.028 243.264 393.869 243.18 393.617C243.105 393.365 243.017 393.085 242.914 392.777C242.811 392.469 242.718 392.189 242.634 391.937C242.55 391.676 242.494 391.508 242.466 391.433L242.788 391.419C242.732 391.578 242.662 391.778 242.578 392.021C242.503 392.264 242.419 392.52 242.326 392.791C242.242 393.062 242.158 393.318 242.074 393.561C241.99 393.794 241.92 393.99 241.864 394.149L239.638 400.001H238.098ZM239.778 397.565L240.338 396.109H244.79L245.434 397.565H239.778ZM255.321 400.001V390.201H256.833V400.001H255.321ZM248.923 400.001V390.201H250.435V400.001H248.923ZM249.581 395.843V394.387H255.993V395.843H249.581ZM259.573 400.001V390.201H261.085V400.001H259.573ZM260.245 395.829V394.373H265.299V395.829H260.245ZM260.245 391.657V390.201H265.929V391.657H260.245ZM267.925 400.001L267.463 398.853L270.459 395.479C270.618 395.311 270.781 395.12 270.949 394.905C271.126 394.681 271.294 394.452 271.453 394.219C271.612 393.986 271.738 393.757 271.831 393.533C271.934 393.3 271.985 393.08 271.985 392.875C271.985 392.576 271.924 392.324 271.803 392.119C271.691 391.904 271.523 391.741 271.299 391.629C271.084 391.517 270.823 391.461 270.515 391.461C270.244 391.461 269.978 391.54 269.717 391.699C269.456 391.858 269.218 392.082 269.003 392.371C268.788 392.66 268.62 392.996 268.499 393.379L267.337 392.651C267.496 392.11 267.734 391.648 268.051 391.265C268.378 390.873 268.765 390.574 269.213 390.369C269.67 390.164 270.165 390.061 270.697 390.061C271.248 390.061 271.738 390.178 272.167 390.411C272.596 390.635 272.932 390.952 273.175 391.363C273.418 391.764 273.539 392.231 273.539 392.763C273.539 392.978 273.516 393.197 273.469 393.421C273.422 393.645 273.348 393.878 273.245 394.121C273.142 394.354 273.012 394.602 272.853 394.863C272.694 395.115 272.503 395.381 272.279 395.661C272.064 395.941 271.817 396.235 271.537 396.543L269.311 398.965L269.031 398.545H273.847V400.001H267.925ZM275.595 400.001L275.133 398.853L278.129 395.479C278.288 395.311 278.451 395.12 278.619 394.905C278.796 394.681 278.964 394.452 279.123 394.219C279.282 393.986 279.408 393.757 279.501 393.533C279.604 393.3 279.655 393.08 279.655 392.875C279.655 392.576 279.594 392.324 279.473 392.119C279.361 391.904 279.193 391.741 278.969 391.629C278.754 391.517 278.493 391.461 278.185 391.461C277.914 391.461 277.648 391.54 277.387 391.699C277.126 391.858 276.888 392.082 276.673 392.371C276.458 392.66 276.29 392.996 276.169 393.379L275.007 392.651C275.166 392.11 275.404 391.648 275.721 391.265C276.048 390.873 276.435 390.574 276.883 390.369C277.34 390.164 277.835 390.061 278.367 390.061C278.918 390.061 279.408 390.178 279.837 390.411C280.266 390.635 280.602 390.952 280.845 391.363C281.088 391.764 281.209 392.231 281.209 392.763C281.209 392.978 281.186 393.197 281.139 393.421C281.092 393.645 281.018 393.878 280.915 394.121C280.812 394.354 280.682 394.602 280.523 394.863C280.364 395.115 280.173 395.381 279.949 395.661C279.734 395.941 279.487 396.235 279.207 396.543L276.981 398.965L276.701 398.545H281.517V400.001H275.595ZM285.477 400.141C284.786 400.141 284.184 399.982 283.671 399.665C283.167 399.348 282.691 398.816 282.243 398.069L283.419 397.327C283.652 397.672 283.881 397.957 284.105 398.181C284.338 398.396 284.576 398.554 284.819 398.657C285.062 398.76 285.318 398.811 285.589 398.811C285.916 398.811 286.219 398.732 286.499 398.573C286.779 398.405 287.003 398.176 287.171 397.887C287.339 397.598 287.423 397.271 287.423 396.907C287.423 396.543 287.358 396.235 287.227 395.983C287.096 395.722 286.905 395.526 286.653 395.395C286.401 395.255 286.102 395.185 285.757 395.185C285.598 395.185 285.43 395.204 285.253 395.241C285.085 395.269 284.903 395.316 284.707 395.381C284.511 395.437 284.296 395.512 284.063 395.605L283.643 394.499L286.667 391.167L286.961 391.601H282.789V390.201H288.403L288.683 390.761L285.477 394.317L285.127 393.953C285.202 393.916 285.323 393.883 285.491 393.855C285.668 393.818 285.813 393.799 285.925 393.799C286.336 393.799 286.718 393.878 287.073 394.037C287.437 394.186 287.75 394.401 288.011 394.681C288.282 394.952 288.492 395.274 288.641 395.647C288.8 396.011 288.879 396.403 288.879 396.823C288.879 397.458 288.725 398.027 288.417 398.531C288.118 399.026 287.712 399.418 287.199 399.707C286.686 399.996 286.112 400.141 285.477 400.141ZM293.615 400.141C292.868 400.141 292.224 399.936 291.683 399.525C291.151 399.114 290.74 398.536 290.451 397.789C290.162 397.033 290.017 396.137 290.017 395.101C290.017 394.065 290.162 393.174 290.451 392.427C290.74 391.671 291.151 391.088 291.683 390.677C292.224 390.266 292.868 390.061 293.615 390.061C294.362 390.061 295.006 390.266 295.547 390.677C296.088 391.088 296.504 391.671 296.793 392.427C297.082 393.174 297.227 394.065 297.227 395.101C297.227 396.137 297.082 397.033 296.793 397.789C296.504 398.536 296.088 399.114 295.547 399.525C295.006 399.936 294.362 400.141 293.615 400.141ZM293.615 398.769C294.296 398.769 294.824 398.452 295.197 397.817C295.57 397.173 295.757 396.268 295.757 395.101C295.757 393.934 295.57 393.034 295.197 392.399C294.824 391.755 294.296 391.433 293.615 391.433C292.934 391.433 292.406 391.755 292.033 392.399C291.66 393.034 291.473 393.934 291.473 395.101C291.473 396.268 291.66 397.173 292.033 397.817C292.406 398.452 292.934 398.769 293.615 398.769ZM299.249 400.001V390.201H300.733L304.303 396.011L303.589 395.997L307.201 390.201H308.601V400.001H307.089V395.983C307.089 395.143 307.108 394.387 307.145 393.715C307.192 393.043 307.266 392.376 307.369 391.713L307.565 392.231L304.359 397.187H303.435L300.327 392.287L300.481 391.713C300.584 392.338 300.654 392.982 300.691 393.645C300.738 394.298 300.761 395.078 300.761 395.983V400.001H299.249ZM313.015 399.315V391.363L313.533 391.755L311.601 392.777L311.195 391.461L313.813 390.061H314.541V399.315H313.015ZM311.461 400.001V398.545H316.137V400.001H311.461ZM317.817 400.001V398.895L323.403 391.419L323.613 391.657H318.181V390.201H325.279V391.293L319.721 398.783L319.497 398.545H325.433V400.001H317.817ZM329.719 400.141C329.028 400.141 328.426 399.982 327.913 399.665C327.409 399.348 326.933 398.816 326.485 398.069L327.661 397.327C327.894 397.672 328.123 397.957 328.347 398.181C328.58 398.396 328.818 398.554 329.061 398.657C329.304 398.76 329.56 398.811 329.831 398.811C330.158 398.811 330.461 398.732 330.741 398.573C331.021 398.405 331.245 398.176 331.413 397.887C331.581 397.598 331.665 397.271 331.665 396.907C331.665 396.543 331.6 396.235 331.469 395.983C331.338 395.722 331.147 395.526 330.895 395.395C330.643 395.255 330.344 395.185 329.999 395.185C329.84 395.185 329.672 395.204 329.495 395.241C329.327 395.269 329.145 395.316 328.949 395.381C328.753 395.437 328.538 395.512 328.305 395.605L327.885 394.499L330.909 391.167L331.203 391.601H327.031V390.201H332.645L332.925 390.761L329.719 394.317L329.369 393.953C329.444 393.916 329.565 393.883 329.733 393.855C329.91 393.818 330.055 393.799 330.167 393.799C330.578 393.799 330.96 393.878 331.315 394.037C331.679 394.186 331.992 394.401 332.253 394.681C332.524 394.952 332.734 395.274 332.883 395.647C333.042 396.011 333.121 396.403 333.121 396.823C333.121 397.458 332.967 398.027 332.659 398.531C332.36 399.026 331.954 399.418 331.441 399.707C330.928 399.996 330.354 400.141 329.719 400.141Z" fill="white"/>
<path d="M179.742 396.711V395.283H183.774V396.711H179.742Z" fill="#B1B1B1"/>
<path fill-rule="evenodd" clip-rule="evenodd" d="M196.999 143.917C167.13 143.917 142.916 168.13 142.916 198C142.916 227.869 167.13 252.083 196.999 252.083C226.869 252.083 251.083 227.869 251.083 198C251.083 168.13 226.869 143.917 196.999 143.917ZM187.431 223.146L226.774 175.373L221.081 170.684L186.902 212.187L172.417 197.702L167.202 202.916L187.431 223.146Z" fill="#00A676"/>
</g>
<path d="M8 0.500977H382C386.142 0.500977 389.5 3.85884 389.5 8.00098V432.001C389.5 436.143 386.142 439.501 382 439.501H8C3.85786 439.501 0.5 436.143 0.5 432.001V8.00098C0.5 3.85884 3.85786 0.500977 8 0.500977Z" stroke="url(#paint2_linear_1323_6010)" stroke-opacity="0.2"/>
<defs>
<linearGradient id="paint0_linear_1323_6010" x1="-231" y1="-227.951" x2="534.935" y2="252.896" gradientUnits="userSpaceOnUse">
<stop stop-color="white"/>
<stop offset="1" stop-color="white" stop-opacity="0"/>
</linearGradient>
<linearGradient id="paint1_linear_1323_6010" x1="-231" y1="-28.493" x2="-190.281" y2="176.011" gradientUnits="userSpaceOnUse">
<stop stop-color="white"/>
<stop offset="1" stop-color="white" stop-opacity="0"/>
</linearGradient>
<linearGradient id="paint2_linear_1323_6010" x1="-254" y1="-392.288" x2="822.308" y2="370.673" gradientUnits="userSpaceOnUse">
<stop stop-color="white"/>
<stop offset="1" stop-color="white" stop-opacity="0"/>
</linearGradient>
<clipPath id="clip0_1323_6010">
<path d="M0 8.00097C0 3.58269 3.58172 0.000976562 8 0.000976562H382C386.418 0.000976562 390 3.5827 390 8.00098V432.001C390 436.419 386.418 440.001 382 440.001H8C3.58172 440.001 0 436.419 0 432.001V8.00097Z" fill="white"/>
</clipPath>
<clipPath id="clip1_1323_6010">
<rect width="16" height="16" fill="white" transform="translate(354 19.501)"/>
</clipPath>
</defs>
</svg>
