<svg width="25" height="24" viewBox="0 0 25 24" fill="none" xmlns="http://www.w3.org/2000/svg">
<path d="M5.41602 2.25C3.89723 2.25 2.66602 3.48122 2.66602 5C2.66602 6.5188 3.89723 7.75 5.41602 7.75C6.93482 7.75 8.16602 6.5188 8.16602 5C8.16602 4.59836 8.07992 4.21683 7.92517 3.87286L5.14886 6.7359L3.36936 4.72089L4.11891 4.05895L5.18317 5.26405L7.34237 3.03741C6.84622 2.55038 6.16617 2.25 5.41602 2.25Z" fill="white"/>
<path d="M5.41602 16.25C3.89723 16.25 2.66602 17.4812 2.66602 19C2.66602 20.5188 3.89723 21.75 5.41602 21.75C6.93482 21.75 8.16602 20.5188 8.16602 19C8.16602 18.5983 8.07992 18.2169 7.92517 17.8729L5.14886 20.7359L3.36936 18.7209L4.11891 18.059L5.18317 19.264L7.34237 17.0374C6.84622 16.5503 6.16617 16.25 5.41602 16.25Z" fill="white"/>
<path d="M5.41602 9.25C3.89723 9.25 2.66602 10.4812 2.66602 12C2.66602 13.5188 3.89723 14.75 5.41602 14.75C6.93482 14.75 8.16602 13.5188 8.16602 12C8.16602 11.5983 8.07992 11.2169 7.92517 10.8729L5.14886 13.7359L3.36936 11.7209L4.11891 11.059L5.18317 12.264L7.34237 10.0374C6.84622 9.55035 6.16617 9.25 5.41602 9.25Z" fill="white"/>
<path fill-rule="evenodd" clip-rule="evenodd" d="M10.666 18.25H22.666V19.75H10.666V18.25Z" fill="white"/>
<path fill-rule="evenodd" clip-rule="evenodd" d="M10.666 11.25H22.666V12.75H10.666V11.25Z" fill="white"/>
<path fill-rule="evenodd" clip-rule="evenodd" d="M10.666 4.25H22.666V5.75H10.666V4.25Z" fill="white"/>
</svg>
