<svg width="48" height="48" viewBox="0 0 48 48" fill="none" xmlns="http://www.w3.org/2000/svg">
<rect width="48" height="48" rx="4" fill="white" fill-opacity="0.1"/>
<path d="M25.9712 23.1578C25.3294 23.054 24.6708 23 24 23C17.4061 23 12 28.2142 12 34.7188V35.4542L12.7071 35.6262C16.8234 36.6281 20.942 37.0819 25.0604 36.9879C23.4722 35.2898 22.5 33.0085 22.5 30.5C22.5 27.5422 23.8517 24.9001 25.9712 23.1578Z" fill="white"/>
<path fill-rule="evenodd" clip-rule="evenodd" d="M39.5 30.5C39.5 34.6421 36.1421 38 32 38C27.8579 38 24.5 34.6421 24.5 30.5C24.5 26.3579 27.8579 23 32 23C36.1421 23 39.5 26.3579 39.5 30.5ZM34.1213 26.9645L35.5355 28.3787L33.4142 30.5L35.5355 32.6213L34.1213 34.0355L32 31.9142L29.8787 34.0355L28.4645 32.6213L30.5858 30.5L28.4645 28.3787L29.8787 26.9645L32 29.0858L34.1213 26.9645Z" fill="white"/>
<path fill-rule="evenodd" clip-rule="evenodd" d="M18.5 15.5C18.5 12.4624 20.9624 10 24 10C27.0376 10 29.5 12.4624 29.5 15.5C29.5 18.5376 27.0376 21 24 21C20.9624 21 18.5 18.5376 18.5 15.5Z" fill="white"/>
</svg>
