<svg width="48" height="48" viewBox="0 0 48 48" fill="none" xmlns="http://www.w3.org/2000/svg">
<rect width="48" height="48" rx="4" fill="white" fill-opacity="0.1"/>
<path d="M22.6669 10.666H19.0953C17.2251 10.666 15.5469 11.7078 14.7149 13.3842L14.0962 14.634C14.8393 14.3887 15.6197 14.2233 16.4446 14.2233H22.6669V10.666Z" fill="white"/>
<path d="M33.2855 13.3825C32.4535 11.7078 30.7753 10.666 28.9051 10.666H25.3335V14.2216H31.5557C32.3806 14.2216 33.1611 14.3869 33.9059 14.6322L33.2873 13.3825H33.2855Z" fill="white"/>
<path d="M31.5557 16.8887H25.3334V21.7776C25.3334 22.5136 24.7361 23.1109 24.0001 23.1109C23.2641 23.1109 22.6668 22.5136 22.6668 21.7776V16.8887H16.4446C13.7477 16.8887 11.5557 19.0807 11.5557 21.7776V31.5553C11.5557 34.2522 13.7477 36.4442 16.4446 36.4442H26.2383C25.9628 35.9056 25.7779 35.3118 25.7779 34.6665V29.7776C25.7779 27.5713 27.5717 25.7776 29.7779 25.7776C31.9841 25.7776 33.7779 27.5713 33.7779 29.7776V34.6665C33.7779 35.1571 33.657 35.6104 33.4899 36.0407C35.225 35.2887 36.4446 33.5625 36.4446 31.5553V21.7776C36.4446 19.0807 34.2526 16.8887 31.5557 16.8887Z" fill="white"/>
<path d="M29.7777 39.9987C30.514 39.9987 31.111 39.4017 31.111 38.6654C31.111 37.929 30.514 37.332 29.7777 37.332C29.0413 37.332 28.4443 37.929 28.4443 38.6654C28.4443 39.4017 29.0413 39.9987 29.7777 39.9987Z" fill="white"/>
<path d="M29.7777 35.9989C29.0417 35.9989 28.4443 35.4016 28.4443 34.6656V29.7767C28.4443 29.0407 29.0417 28.4434 29.7777 28.4434C30.5137 28.4434 31.111 29.0407 31.111 29.7767V34.6656C31.111 35.4016 30.5137 35.9989 29.7777 35.9989Z" fill="white"/>
</svg>
