<svg width="46" height="33" viewBox="0 0 46 33" fill="none" xmlns="http://www.w3.org/2000/svg">
<path d="M43 4V22.063H46V4H43Z" fill="white"/>
<path d="M39.9996 3.99988H37.9087L28.2971 1.00052C26.3049 0.378838 24.1327 0.837018 22.5613 2.21038L14.5967 9.35358C13.6972 10.1604 13.575 11.5255 14.3168 12.4792C15.0013 13.3591 16.2181 13.6218 17.2046 13.1026L24.9997 8.99998C26.4997 12.4999 29.9608 14.0047 33.8785 13.5183L34.4996 13.4411L39.9996 19.02V3.99988Z" fill="white"/>
<path d="M39.2231 22.5052C39.246 23.2549 38.9704 24.0132 38.392 24.5854C37.3313 25.6347 35.6349 25.6703 34.5312 24.6664L30.5 21L32.8271 23.4383C33.822 24.4806 33.8178 26.1221 32.8176 27.1594C31.8235 28.1904 30.1955 28.2607 29.1161 27.3192L25.434 24.1072L27.0453 26.0297C27.9725 27.1361 27.8784 28.7731 26.8304 29.7659C25.7968 30.7452 24.1842 30.7658 23.1259 29.8133L20 27L20.8306 28.2917C21.5725 29.4454 21.2848 30.9777 20.1749 31.7837C19.1957 32.4947 17.8545 32.432 16.9461 31.6325L6 22V4H16.0732L12.594 7.1204C10.5216 8.979 10.24 12.124 11.9491 14.3212C13.526 16.3485 16.3293 16.9536 18.6021 15.7575L23.9479 12.9439C26.2895 15.6716 29.8053 16.8025 33.3786 16.577L39.2231 22.5052Z" fill="white"/>
<path d="M0 4H3V22H0V4Z" fill="white"/>
</svg>
