<svg width="40" height="41" viewBox="0 0 40 41" fill="none" xmlns="http://www.w3.org/2000/svg">
<path d="M36.25 9H3.75C2.36929 9 1.25 10.1193 1.25 11.5V34C1.25 35.3807 2.36929 36.5 3.75 36.5H36.25C37.6307 36.5 38.75 35.3807 38.75 34V11.5C38.75 10.1193 37.6307 9 36.25 9Z" fill="white" stroke="white" stroke-linecap="round" stroke-linejoin="round"/>
<path d="M20 29C23.4518 29 26.25 26.2018 26.25 22.75C26.25 19.2982 23.4518 16.5 20 16.5C16.5482 16.5 13.75 19.2982 13.75 22.75C13.75 26.2018 16.5482 29 20 29Z" fill="#121317" stroke="white" stroke-linecap="round" stroke-linejoin="round"/>
<path d="M6.25 1.5H33.75" stroke="white" stroke-linecap="round" stroke-linejoin="round"/>
</svg>
