<svg width="48" height="49" viewBox="0 0 48 49" fill="none" xmlns="http://www.w3.org/2000/svg">
<rect y="0.5" width="48" height="48" rx="4" fill="white" fill-opacity="0.1"/>
<path d="M37.332 36.5013C37.332 37.2373 36.7347 37.8346 35.9987 37.8346H26.6654C25.9294 37.8346 25.332 37.2373 25.332 36.5013C25.332 35.7653 25.9294 35.168 26.6654 35.168H35.9987C36.7347 35.168 37.332 35.7653 37.332 36.5013Z" fill="white"/>
<path d="M37.332 12.5013C37.332 13.2373 36.7347 13.8346 35.9987 13.8346H26.6654C25.9294 13.8346 25.332 13.2373 25.332 12.5013C25.332 11.7653 25.9294 11.168 26.6654 11.168H35.9987C36.7347 11.168 37.332 11.7653 37.332 12.5013Z" fill="white"/>
<path d="M36.0523 19.5577C36.5732 20.0786 36.5732 20.9231 36.0523 21.4439C35.5314 21.9648 34.687 21.9648 34.1661 21.4439L32.8861 20.1639V32.0555C32.8861 32.7915 32.2888 33.3888 31.5528 33.3888C30.8168 33.3888 30.2194 32.7915 30.2194 32.0555V20.1639L28.9394 21.4439C28.4186 21.9648 27.5741 21.9648 27.0532 21.4439C26.7937 21.1844 26.6621 20.8431 26.6621 20.5017C26.6621 20.1604 26.7919 19.8191 27.0532 19.5595L30.6088 16.0039C31.1297 15.4831 31.9741 15.4831 32.495 16.0039L36.0506 19.5595L36.0523 19.5577Z" fill="white"/>
<path d="M23.1102 14.2791V34.7235C23.1102 36.4391 21.7147 37.8346 19.9991 37.8346H14.6658C12.9502 37.8346 11.5547 36.4391 11.5547 34.7235V32.5013H14.2214C14.9574 32.5013 15.5547 31.904 15.5547 31.168C15.5547 30.432 14.9574 29.8346 14.2214 29.8346H11.5547V28.0569H15.9991C16.7351 28.0569 17.3325 27.4595 17.3325 26.7235C17.3325 25.9875 16.7351 25.3902 15.9991 25.3902H11.5547V23.6124H14.2214C14.9574 23.6124 15.5547 23.0151 15.5547 22.2791C15.5547 21.5431 14.9574 20.9457 14.2214 20.9457H11.5547V19.168H15.9991C16.7351 19.168 17.3325 18.5706 17.3325 17.8346C17.3325 17.0986 16.7351 16.5013 15.9991 16.5013H11.5547V14.2791C11.5547 12.5635 12.9502 11.168 14.6658 11.168H19.9991C21.7147 11.168 23.1102 12.5635 23.1102 14.2791Z" fill="white"/>
</svg>
