<svg width="40" height="41" viewBox="0 0 40 41" fill="none" xmlns="http://www.w3.org/2000/svg">
<path d="M20.0002 16.3618H31.6669C32.8936 16.3618 33.8891 15.3662 33.8891 14.1396V13.2196C33.8891 12.4151 33.4536 11.6729 32.7536 11.2796L21.0869 4.74622C20.4113 4.36845 19.5891 4.36845 18.9158 4.74622L7.24688 11.2818C6.54466 11.6751 6.11133 12.4173 6.11133 13.2218V14.1418C6.11133 15.3684 7.10688 16.364 8.33355 16.364L20.0002 16.3618Z" fill="white"/>
<path d="M6.11133 34.1387H33.8891" stroke="white" stroke-linecap="round" stroke-linejoin="round"/>
<path d="M20.0002 16.3618H31.6669C32.8936 16.3618 33.8891 15.3662 33.8891 14.1396V13.2196C33.8891 12.4151 33.4536 11.6729 32.7536 11.2796L21.0869 4.74622C20.4113 4.36845 19.5891 4.36845 18.9158 4.74622L7.24688 11.2818C6.54466 11.6751 6.11133 12.4173 6.11133 13.2218V14.1418C6.11133 15.3684 7.10688 16.364 8.33355 16.364L20.0002 16.3618Z" stroke="white" stroke-linecap="round" stroke-linejoin="round"/>
<path d="M16.1113 34.1402V21.918" stroke="white" stroke-linecap="round" stroke-linejoin="round"/>
<path d="M8.33398 34.1402V21.918" stroke="white" stroke-linecap="round" stroke-linejoin="round"/>
<path d="M23.8887 34.1402V21.918" stroke="white" stroke-linecap="round" stroke-linejoin="round"/>
<path d="M31.667 34.1402V21.918" stroke="white" stroke-linecap="round" stroke-linejoin="round"/>
<path d="M20.0002 13.0284C21.2275 13.0284 22.2224 12.0335 22.2224 10.8062C22.2224 9.57892 21.2275 8.58398 20.0002 8.58398C18.7729 8.58398 17.778 9.57892 17.778 10.8062C17.778 12.0335 18.7729 13.0284 20.0002 13.0284Z" fill="#121317"/>
</svg>
