<svg width="48" height="48" viewBox="0 0 48 48" fill="none" xmlns="http://www.w3.org/2000/svg">
<path fill-rule="evenodd" clip-rule="evenodd" d="M29.6713 31.7937L26.1313 28.2537L28.2527 26.1323L31.7927 29.6723L29.6713 31.7937Z" fill="white"/>
<path fill-rule="evenodd" clip-rule="evenodd" d="M30.0247 34.9759C28.6578 33.609 28.6578 31.393 30.0247 30.0261C31.3915 28.6593 33.6076 28.6593 34.9744 30.0261L42.9746 38.0263C44.3415 39.3932 44.3415 41.6092 42.9746 42.9761C41.6078 44.3429 39.3917 44.3429 38.0249 42.9761L30.0247 34.9759Z" fill="white"/>
<path d="M6.5 18.001C6.5 11.6497 11.6487 6.50098 18 6.50098C21.1123 6.50098 23.9332 7.73534 26.005 9.74446L27.0818 10.7887L29.1703 8.63506L28.0935 7.59081C25.4846 5.0608 21.9229 3.50098 18 3.50098C9.99187 3.50098 3.5 9.99285 3.5 18.001C3.5 21.0191 4.42212 23.8219 6 26.143C6.25377 26.5162 6.52451 26.8771 6.81109 27.2243C9.47061 30.4469 13.4954 32.501 18 32.501C18.444 32.501 18.8833 32.4811 19.3171 32.442C21.9043 32.2091 24.2951 31.2968 26.3102 29.8849C30.0529 27.2629 32.5 22.9177 32.5 18.001C32.5 16.6646 32.3192 15.3704 31.9807 14.1416L40.1213 6.00096L38 3.87964L21.5 20.3797L16 14.8797L7.71944 23.1602C6.93926 21.6086 6.5 19.8561 6.5 18.001Z" fill="white"/>
</svg>
