<svg width="610" height="414" viewBox="0 0 610 414" fill="none" xmlns="http://www.w3.org/2000/svg">
<g filter="url(#filter0_ddd_3550_114071)">
<path d="M7 13C7 8.58172 10.5817 5 15 5H259C263.418 5 267 8.58172 267 13V121C267 125.418 263.418 129 259 129H15C10.5817 129 7 125.418 7 121V13Z" fill="url(#paint0_linear_3550_114071)" fill-opacity="0.1" shape-rendering="crispEdges"/>
<path d="M15 5.5H259C263.142 5.5 266.5 8.85786 266.5 13V121C266.5 125.142 263.142 128.5 259 128.5H15C10.8579 128.5 7.5 125.142 7.5 121V13C7.5 8.85786 10.8579 5.5 15 5.5Z" stroke="url(#paint1_linear_3550_114071)" stroke-opacity="0.1" shape-rendering="crispEdges"/>
<path d="M61.9591 45.16C61.1485 45.16 60.4071 45.0213 59.7351 44.744C59.0631 44.4667 58.4818 44.072 57.9911 43.56C57.5005 43.0373 57.1165 42.424 56.8391 41.72C56.5725 41.0053 56.4391 40.2267 56.4391 39.384C56.4391 38.5733 56.5831 37.8213 56.8711 37.128C57.1591 36.4347 57.5591 35.8267 58.0711 35.304C58.5831 34.7813 59.1805 34.376 59.8631 34.088C60.5458 33.8 61.2871 33.656 62.0871 33.656C62.6311 33.656 63.1591 33.736 63.6711 33.896C64.1831 34.056 64.6525 34.28 65.0791 34.568C65.5058 34.8453 65.8631 35.1707 66.1511 35.544L64.8231 37C64.5458 36.712 64.2578 36.472 63.9591 36.28C63.6711 36.0773 63.3671 35.928 63.0471 35.832C62.7378 35.7253 62.4178 35.672 62.0871 35.672C61.5965 35.672 61.1325 35.7627 60.6951 35.944C60.2685 36.1253 59.8951 36.3813 59.5751 36.712C59.2658 37.0427 59.0205 37.4373 58.8391 37.896C58.6578 38.344 58.5671 38.8453 58.5671 39.4C58.5671 39.9653 58.6525 40.4773 58.8231 40.936C59.0045 41.3947 59.2551 41.7893 59.5751 42.12C59.9058 42.4507 60.2951 42.7067 60.7431 42.888C61.2018 43.0587 61.7031 43.144 62.2471 43.144C62.5991 43.144 62.9405 43.096 63.2711 43C63.6018 42.904 63.9058 42.7707 64.1831 42.6C64.4711 42.4187 64.7325 42.2107 64.9671 41.976L65.9911 43.624C65.7351 43.912 65.3938 44.1733 64.9671 44.408C64.5405 44.6427 64.0605 44.8293 63.5271 44.968C63.0045 45.096 62.4818 45.16 61.9591 45.16ZM71.6486 45.16C70.806 45.16 70.054 44.9733 69.3926 44.6C68.7313 44.216 68.2086 43.6933 67.8246 43.032C67.4406 42.3707 67.2486 41.6187 67.2486 40.776C67.2486 39.9333 67.4406 39.1813 67.8246 38.52C68.2086 37.8587 68.7313 37.3413 69.3926 36.968C70.054 36.584 70.806 36.392 71.6486 36.392C72.4806 36.392 73.2273 36.584 73.8886 36.968C74.55 37.3413 75.0673 37.8587 75.4406 38.52C75.8246 39.1813 76.0166 39.9333 76.0166 40.776C76.0166 41.6187 75.8246 42.3707 75.4406 43.032C75.0673 43.6933 74.55 44.216 73.8886 44.6C73.2273 44.9733 72.4806 45.16 71.6486 45.16ZM71.6486 43.416C72.1073 43.416 72.5126 43.2987 72.8646 43.064C73.2273 42.8293 73.51 42.5147 73.7126 42.12C73.926 41.7253 74.0273 41.2773 74.0166 40.776C74.0273 40.264 73.926 39.8107 73.7126 39.416C73.51 39.0213 73.2273 38.712 72.8646 38.488C72.5126 38.2533 72.1073 38.136 71.6486 38.136C71.19 38.136 70.774 38.2533 70.4006 38.488C70.038 38.712 69.7553 39.0267 69.5526 39.432C69.35 39.8267 69.2486 40.2747 69.2486 40.776C69.2486 41.2773 69.35 41.7253 69.5526 42.12C69.7553 42.5147 70.038 42.8293 70.4006 43.064C70.774 43.2987 71.19 43.416 71.6486 43.416ZM77.793 45V33.16H79.777V45H77.793ZM82.1055 45V33.16H84.0895V45H82.1055ZM90.1978 45.16C89.3124 45.16 88.5284 44.9733 87.8458 44.6C87.1738 44.2267 86.6458 43.72 86.2618 43.08C85.8884 42.4293 85.7018 41.688 85.7018 40.856C85.7018 40.1947 85.8084 39.592 86.0218 39.048C86.2351 38.504 86.5284 38.0347 86.9018 37.64C87.2858 37.2347 87.7391 36.9253 88.2618 36.712C88.7951 36.488 89.3764 36.376 90.0058 36.376C90.5604 36.376 91.0778 36.4827 91.5578 36.696C92.0378 36.9093 92.4538 37.2027 92.8058 37.576C93.1578 37.9387 93.4244 38.376 93.6058 38.888C93.7978 39.3893 93.8884 39.9387 93.8778 40.536L93.8618 41.224H87.0298L86.6618 39.88H92.2138L91.9578 40.152V39.8C91.9258 39.4693 91.8191 39.1813 91.6378 38.936C91.4564 38.68 91.2218 38.4827 90.9338 38.344C90.6564 38.1947 90.3471 38.12 90.0058 38.12C89.4831 38.12 89.0404 38.2213 88.6778 38.424C88.3258 38.6267 88.0591 38.92 87.8778 39.304C87.6964 39.6773 87.6058 40.1467 87.6058 40.712C87.6058 41.256 87.7178 41.7307 87.9418 42.136C88.1764 42.5413 88.5018 42.856 88.9178 43.08C89.3444 43.2933 89.8404 43.4 90.4058 43.4C90.8004 43.4 91.1631 43.336 91.4938 43.208C91.8244 43.08 92.1818 42.8507 92.5658 42.52L93.5417 43.88C93.2538 44.1467 92.9231 44.376 92.5498 44.568C92.1871 44.7493 91.8031 44.8933 91.3978 45C90.9924 45.1067 90.5924 45.16 90.1978 45.16ZM99.2368 45.16C98.4474 45.16 97.7381 44.968 97.1088 44.584C96.4794 44.2 95.9834 43.6773 95.6208 43.016C95.2581 42.3547 95.0768 41.608 95.0768 40.776C95.0768 39.944 95.2581 39.1973 95.6208 38.536C95.9834 37.8747 96.4794 37.352 97.1088 36.968C97.7381 36.584 98.4474 36.392 99.2368 36.392C99.9941 36.392 100.682 36.536 101.301 36.824C101.919 37.112 102.399 37.512 102.741 38.024L101.653 39.336C101.493 39.112 101.29 38.9093 101.045 38.728C100.799 38.5467 100.538 38.4027 100.261 38.296C99.9834 38.1893 99.7061 38.136 99.4288 38.136C98.9594 38.136 98.5381 38.2533 98.1648 38.488C97.8021 38.712 97.5141 39.0267 97.3008 39.432C97.0874 39.8267 96.9808 40.2747 96.9808 40.776C96.9808 41.2773 97.0874 41.7253 97.3008 42.12C97.5248 42.5147 97.8234 42.8293 98.1968 43.064C98.5701 43.2987 98.9861 43.416 99.4448 43.416C99.7221 43.416 99.9888 43.3733 100.245 43.288C100.511 43.192 100.762 43.0587 100.997 42.888C101.231 42.7173 101.45 42.504 101.653 42.248L102.741 43.576C102.378 44.0453 101.877 44.4293 101.237 44.728C100.607 45.016 99.9408 45.16 99.2368 45.16ZM105.158 45V34.424H107.126V45H105.158ZM103.494 38.392V36.568H108.966V38.392H103.494ZM110.689 45V36.568H112.657V45H110.689ZM111.649 34.776C111.254 34.776 110.945 34.68 110.721 34.488C110.507 34.2853 110.401 34.0027 110.401 33.64C110.401 33.2987 110.513 33.0213 110.737 32.808C110.961 32.5947 111.265 32.488 111.649 32.488C112.054 32.488 112.363 32.5893 112.577 32.792C112.801 32.984 112.913 33.2667 112.913 33.64C112.913 33.9707 112.801 34.2427 112.577 34.456C112.353 34.6693 112.043 34.776 111.649 34.776ZM119.008 45.16C118.165 45.16 117.413 44.9733 116.752 44.6C116.091 44.216 115.568 43.6933 115.184 43.032C114.8 42.3707 114.608 41.6187 114.608 40.776C114.608 39.9333 114.8 39.1813 115.184 38.52C115.568 37.8587 116.091 37.3413 116.752 36.968C117.413 36.584 118.165 36.392 119.008 36.392C119.84 36.392 120.587 36.584 121.248 36.968C121.909 37.3413 122.427 37.8587 122.8 38.52C123.184 39.1813 123.376 39.9333 123.376 40.776C123.376 41.6187 123.184 42.3707 122.8 43.032C122.427 43.6933 121.909 44.216 121.248 44.6C120.587 44.9733 119.84 45.16 119.008 45.16ZM119.008 43.416C119.467 43.416 119.872 43.2987 120.224 43.064C120.587 42.8293 120.869 42.5147 121.072 42.12C121.285 41.7253 121.387 41.2773 121.376 40.776C121.387 40.264 121.285 39.8107 121.072 39.416C120.869 39.0213 120.587 38.712 120.224 38.488C119.872 38.2533 119.467 38.136 119.008 38.136C118.549 38.136 118.133 38.2533 117.76 38.488C117.397 38.712 117.115 39.0267 116.912 39.432C116.709 39.8267 116.608 40.2747 116.608 40.776C116.608 41.2773 116.709 41.7253 116.912 42.12C117.115 42.5147 117.397 42.8293 117.76 43.064C118.133 43.2987 118.549 43.416 119.008 43.416ZM125.136 45V36.568H127.056L127.088 38.296L126.72 38.488C126.827 38.104 127.035 37.7573 127.344 37.448C127.654 37.128 128.022 36.872 128.448 36.68C128.875 36.488 129.312 36.392 129.76 36.392C130.4 36.392 130.934 36.52 131.36 36.776C131.798 37.032 132.123 37.416 132.336 37.928C132.56 38.44 132.672 39.08 132.672 39.848V45H130.704V39.992C130.704 39.5653 130.646 39.2133 130.528 38.936C130.411 38.648 130.23 38.44 129.984 38.312C129.739 38.1733 129.44 38.1093 129.088 38.12C128.8 38.12 128.534 38.168 128.288 38.264C128.054 38.3493 127.846 38.4773 127.664 38.648C127.494 38.808 127.355 38.9947 127.248 39.208C127.152 39.4213 127.104 39.656 127.104 39.912V45H126.128C125.936 45 125.755 45 125.584 45C125.424 45 125.275 45 125.136 45ZM139.606 45V43.16H141.446V35.64H139.606V33.8H145.366V35.64H143.526V43.16H145.366V45H139.606ZM147.668 45V36.568H149.588L149.62 38.296L149.252 38.488C149.358 38.104 149.566 37.7573 149.876 37.448C150.185 37.128 150.553 36.872 150.98 36.68C151.406 36.488 151.844 36.392 152.292 36.392C152.932 36.392 153.465 36.52 153.892 36.776C154.329 37.032 154.654 37.416 154.868 37.928C155.092 38.44 155.204 39.08 155.204 39.848V45H153.236V39.992C153.236 39.5653 153.177 39.2133 153.06 38.936C152.942 38.648 152.761 38.44 152.516 38.312C152.27 38.1733 151.972 38.1093 151.62 38.12C151.332 38.12 151.065 38.168 150.82 38.264C150.585 38.3493 150.377 38.4773 150.196 38.648C150.025 38.808 149.886 38.9947 149.78 39.208C149.684 39.4213 149.636 39.656 149.636 39.912V45H148.66C148.468 45 148.286 45 148.116 45C147.956 45 147.806 45 147.668 45ZM161.034 45.16C160.244 45.16 159.535 44.968 158.906 44.584C158.276 44.2 157.78 43.6773 157.418 43.016C157.055 42.3547 156.874 41.608 156.874 40.776C156.874 39.944 157.055 39.1973 157.418 38.536C157.78 37.8747 158.276 37.352 158.906 36.968C159.535 36.584 160.244 36.392 161.034 36.392C161.791 36.392 162.479 36.536 163.098 36.824C163.716 37.112 164.196 37.512 164.538 38.024L163.45 39.336C163.29 39.112 163.087 38.9093 162.842 38.728C162.596 38.5467 162.335 38.4027 162.058 38.296C161.78 38.1893 161.503 38.136 161.226 38.136C160.756 38.136 160.335 38.2533 159.962 38.488C159.599 38.712 159.311 39.0267 159.098 39.432C158.884 39.8267 158.778 40.2747 158.778 40.776C158.778 41.2773 158.884 41.7253 159.098 42.12C159.322 42.5147 159.62 42.8293 159.994 43.064C160.367 43.2987 160.783 43.416 161.242 43.416C161.519 43.416 161.786 43.3733 162.042 43.288C162.308 43.192 162.559 43.0587 162.794 42.888C163.028 42.7173 163.247 42.504 163.45 42.248L164.538 43.576C164.175 44.0453 163.674 44.4293 163.034 44.728C162.404 45.016 161.738 45.16 161.034 45.16ZM166.043 45V36.568H167.979L168.011 39.256L167.739 38.648C167.856 38.2213 168.059 37.8373 168.347 37.496C168.635 37.1547 168.965 36.888 169.339 36.696C169.723 36.4933 170.123 36.392 170.539 36.392C170.72 36.392 170.891 36.408 171.051 36.44C171.221 36.472 171.36 36.5093 171.467 36.552L170.939 38.712C170.821 38.648 170.677 38.5947 170.507 38.552C170.336 38.5093 170.165 38.488 169.995 38.488C169.728 38.488 169.472 38.5413 169.227 38.648C168.992 38.744 168.784 38.8827 168.603 39.064C168.421 39.2453 168.277 39.4587 168.171 39.704C168.075 39.9387 168.027 40.2053 168.027 40.504V45H166.043ZM176.37 45.16C175.484 45.16 174.7 44.9733 174.018 44.6C173.346 44.2267 172.818 43.72 172.434 43.08C172.06 42.4293 171.874 41.688 171.874 40.856C171.874 40.1947 171.98 39.592 172.194 39.048C172.407 38.504 172.7 38.0347 173.074 37.64C173.458 37.2347 173.911 36.9253 174.434 36.712C174.967 36.488 175.548 36.376 176.178 36.376C176.732 36.376 177.25 36.4827 177.73 36.696C178.21 36.9093 178.626 37.2027 178.978 37.576C179.33 37.9387 179.596 38.376 179.778 38.888C179.97 39.3893 180.06 39.9387 180.05 40.536L180.034 41.224H173.202L172.834 39.88H178.386L178.13 40.152V39.8C178.098 39.4693 177.991 39.1813 177.81 38.936C177.628 38.68 177.394 38.4827 177.106 38.344C176.828 38.1947 176.519 38.12 176.178 38.12C175.655 38.12 175.212 38.2213 174.85 38.424C174.498 38.6267 174.231 38.92 174.05 39.304C173.868 39.6773 173.778 40.1467 173.778 40.712C173.778 41.256 173.89 41.7307 174.114 42.136C174.348 42.5413 174.674 42.856 175.09 43.08C175.516 43.2933 176.012 43.4 176.578 43.4C176.972 43.4 177.335 43.336 177.666 43.208C177.996 43.08 178.354 42.8507 178.738 42.52L179.714 43.88C179.426 44.1467 179.095 44.376 178.722 44.568C178.359 44.7493 177.975 44.8933 177.57 45C177.164 45.1067 176.764 45.16 176.37 45.16ZM184.977 45.16C184.283 45.16 183.654 44.968 183.089 44.584C182.523 44.2 182.07 43.6773 181.729 43.016C181.387 42.3547 181.217 41.6027 181.217 40.76C181.217 39.9173 181.387 39.1653 181.729 38.504C182.07 37.8427 182.534 37.3253 183.121 36.952C183.707 36.5787 184.369 36.392 185.105 36.392C185.531 36.392 185.921 36.456 186.273 36.584C186.625 36.7013 186.934 36.872 187.201 37.096C187.467 37.32 187.686 37.576 187.857 37.864C188.038 38.152 188.161 38.4613 188.225 38.792L187.793 38.68V36.568H189.777V45H187.777V42.984L188.241 42.904C188.166 43.192 188.027 43.4747 187.825 43.752C187.633 44.0187 187.387 44.2587 187.089 44.472C186.801 44.6747 186.475 44.84 186.113 44.968C185.761 45.096 185.382 45.16 184.977 45.16ZM185.521 43.416C185.979 43.416 186.385 43.304 186.737 43.08C187.089 42.856 187.361 42.5467 187.553 42.152C187.755 41.7467 187.857 41.2827 187.857 40.76C187.857 40.248 187.755 39.7947 187.553 39.4C187.361 39.0053 187.089 38.696 186.737 38.472C186.385 38.248 185.979 38.136 185.521 38.136C185.062 38.136 184.657 38.248 184.305 38.472C183.963 38.696 183.697 39.0053 183.505 39.4C183.313 39.7947 183.217 40.248 183.217 40.76C183.217 41.2827 183.313 41.7467 183.505 42.152C183.697 42.5467 183.963 42.856 184.305 43.08C184.657 43.304 185.062 43.416 185.521 43.416ZM194.874 45.16C194.128 45.16 193.456 45.0373 192.858 44.792C192.272 44.536 191.792 44.1733 191.418 43.704L192.698 42.6C193.018 42.9627 193.376 43.224 193.77 43.384C194.165 43.544 194.581 43.624 195.018 43.624C195.2 43.624 195.36 43.6027 195.498 43.56C195.648 43.5173 195.776 43.4533 195.882 43.368C195.989 43.2827 196.069 43.1867 196.122 43.08C196.186 42.9627 196.218 42.8347 196.218 42.696C196.218 42.44 196.122 42.2373 195.93 42.088C195.824 42.0133 195.653 41.9333 195.418 41.848C195.194 41.7627 194.901 41.6773 194.538 41.592C193.962 41.4427 193.482 41.272 193.098 41.08C192.714 40.8773 192.416 40.6533 192.202 40.408C192.021 40.2053 191.882 39.976 191.786 39.72C191.701 39.464 191.658 39.1867 191.658 38.888C191.658 38.5147 191.738 38.1787 191.898 37.88C192.069 37.5707 192.298 37.304 192.586 37.08C192.874 36.856 193.21 36.6853 193.594 36.568C193.978 36.4507 194.378 36.392 194.794 36.392C195.221 36.392 195.632 36.4453 196.026 36.552C196.432 36.6587 196.805 36.8133 197.146 37.016C197.498 37.208 197.797 37.4427 198.042 37.72L196.954 38.92C196.752 38.728 196.528 38.5573 196.282 38.408C196.048 38.2587 195.808 38.1413 195.562 38.056C195.317 37.96 195.088 37.912 194.874 37.912C194.672 37.912 194.49 37.9333 194.33 37.976C194.17 38.008 194.037 38.0613 193.93 38.136C193.824 38.2107 193.738 38.3067 193.674 38.424C193.621 38.5307 193.594 38.6587 193.594 38.808C193.605 38.936 193.637 39.0587 193.69 39.176C193.754 39.2827 193.84 39.3733 193.946 39.448C194.064 39.5227 194.24 39.608 194.474 39.704C194.709 39.8 195.013 39.8907 195.386 39.976C195.909 40.1147 196.346 40.2693 196.698 40.44C197.05 40.6107 197.328 40.808 197.53 41.032C197.733 41.224 197.877 41.448 197.962 41.704C198.048 41.96 198.09 42.2427 198.09 42.552C198.09 43.0533 197.946 43.5013 197.658 43.896C197.381 44.2907 196.997 44.6 196.506 44.824C196.026 45.048 195.482 45.16 194.874 45.16ZM203.776 45.16C202.891 45.16 202.107 44.9733 201.424 44.6C200.752 44.2267 200.224 43.72 199.84 43.08C199.467 42.4293 199.28 41.688 199.28 40.856C199.28 40.1947 199.387 39.592 199.6 39.048C199.813 38.504 200.107 38.0347 200.48 37.64C200.864 37.2347 201.317 36.9253 201.84 36.712C202.373 36.488 202.955 36.376 203.584 36.376C204.139 36.376 204.656 36.4827 205.136 36.696C205.616 36.9093 206.032 37.2027 206.384 37.576C206.736 37.9387 207.003 38.376 207.184 38.888C207.376 39.3893 207.467 39.9387 207.456 40.536L207.44 41.224H200.608L200.24 39.88H205.792L205.536 40.152V39.8C205.504 39.4693 205.397 39.1813 205.216 38.936C205.035 38.68 204.8 38.4827 204.512 38.344C204.235 38.1947 203.925 38.12 203.584 38.12C203.061 38.12 202.619 38.2213 202.256 38.424C201.904 38.6267 201.637 38.92 201.456 39.304C201.275 39.6773 201.184 40.1467 201.184 40.712C201.184 41.256 201.296 41.7307 201.52 42.136C201.755 42.5413 202.08 42.856 202.496 43.08C202.923 43.2933 203.419 43.4 203.984 43.4C204.379 43.4 204.741 43.336 205.072 43.208C205.403 43.08 205.76 42.8507 206.144 42.52L207.12 43.88C206.832 44.1467 206.501 44.376 206.128 44.568C205.765 44.7493 205.381 44.8933 204.976 45C204.571 45.1067 204.171 45.16 203.776 45.16ZM212.591 45.16C211.844 45.16 211.172 44.9733 210.575 44.6C209.988 44.216 209.519 43.6987 209.167 43.048C208.826 42.3867 208.655 41.6293 208.655 40.776C208.655 39.9333 208.826 39.1813 209.167 38.52C209.508 37.8587 209.972 37.3413 210.559 36.968C211.156 36.584 211.828 36.392 212.575 36.392C212.98 36.392 213.37 36.456 213.743 36.584C214.127 36.712 214.468 36.888 214.767 37.112C215.066 37.3253 215.3 37.5653 215.471 37.832C215.652 38.0987 215.754 38.376 215.775 38.664L215.247 38.728V33.16H217.215V45H215.311L215.263 43.016L215.647 43.048C215.636 43.3147 215.54 43.5707 215.359 43.816C215.188 44.0613 214.964 44.2853 214.687 44.488C214.41 44.6907 214.084 44.856 213.711 44.984C213.348 45.1013 212.975 45.16 212.591 45.16ZM212.975 43.496C213.434 43.496 213.839 43.3787 214.191 43.144C214.543 42.9093 214.815 42.5893 215.007 42.184C215.21 41.7787 215.311 41.3093 215.311 40.776C215.311 40.2533 215.21 39.7893 215.007 39.384C214.815 38.968 214.543 38.648 214.191 38.424C213.839 38.1893 213.434 38.072 212.975 38.072C212.516 38.072 212.111 38.1893 211.759 38.424C211.407 38.648 211.13 38.968 210.927 39.384C210.735 39.7893 210.639 40.2533 210.639 40.776C210.639 41.3093 210.735 41.7787 210.927 42.184C211.13 42.5893 211.407 42.9093 211.759 43.144C212.111 43.3787 212.516 43.496 212.975 43.496Z" fill="#F08B32"/>
<path d="M74.5144 88.712L72.8184 86.728V85.224H76.4664C77.3837 85.224 78.1197 84.9147 78.6744 84.296C79.2504 83.656 79.5384 82.856 79.5384 81.896C79.5384 81.2133 79.3784 80.616 79.0584 80.104C78.7384 79.5707 78.2904 79.1653 77.7144 78.888C77.1384 78.5893 76.477 78.44 75.7304 78.44H71.0904V74.664H86.1624V78.184H79.6984L76.7224 75.944C77.661 76.008 78.5464 76.2 79.3784 76.52C80.2317 76.8187 80.9784 77.224 81.6184 77.736C82.2584 78.2267 82.7597 78.824 83.1224 79.528C83.5064 80.232 83.6984 81.0107 83.6984 81.864C83.6984 82.8027 83.5064 83.688 83.1224 84.52C82.7597 85.3307 82.2477 86.056 81.5864 86.696C80.925 87.336 80.1464 87.8373 79.2504 88.2C78.3757 88.5413 77.437 88.712 76.4344 88.712H74.5144ZM79.9864 97.064L72.8824 86.76L77.1384 85.96L84.9144 97.096L79.9864 97.064ZM76.3064 83.24V80.552H86.2584V83.24H76.3064ZM107.841 97V78.92L109.377 79.08L101.761 88.392L101.409 87.816H115.649V91.432H99.1694L97.4414 88.104L108.577 74.536H111.841V97H107.841ZM125.434 97.224C123.877 97.224 122.469 96.8933 121.21 96.232C119.951 95.5493 118.906 94.568 118.074 93.288L120.378 90.792C121.317 91.8373 122.159 92.5627 122.906 92.968C123.653 93.352 124.474 93.544 125.37 93.544C126.181 93.544 126.906 93.3733 127.546 93.032C128.186 92.6693 128.698 92.1893 129.082 91.592C129.466 90.9733 129.658 90.3013 129.658 89.576C129.658 88.7867 129.477 88.0933 129.114 87.496C128.751 86.8773 128.261 86.3867 127.642 86.024C127.023 85.6613 126.319 85.48 125.53 85.48C125.103 85.48 124.698 85.512 124.314 85.576C123.93 85.64 123.482 85.768 122.97 85.96C122.479 86.152 121.85 86.4507 121.082 86.856L119.098 84.168L120.41 74.536H132.794V78.216H122.746L123.674 77.192L122.618 84.296L121.434 83.464C121.711 83.208 122.117 82.9627 122.65 82.728C123.205 82.4933 123.802 82.3013 124.442 82.152C125.082 82.0027 125.711 81.928 126.33 81.928C127.717 81.928 128.954 82.248 130.042 82.888C131.13 83.528 131.994 84.4133 132.634 85.544C133.274 86.6533 133.594 87.9333 133.594 89.384C133.594 90.856 133.231 92.1893 132.506 93.384C131.802 94.5573 130.831 95.496 129.594 96.2C128.357 96.8827 126.97 97.224 125.434 97.224ZM138.206 102.952L136.894 101.384C137.683 100.957 138.313 100.456 138.782 99.88C139.273 99.3253 139.518 98.8453 139.518 98.44C139.518 98.2267 139.465 98.0133 139.358 97.8C139.273 97.608 139.049 97.3413 138.686 97C138.238 96.5947 137.939 96.2427 137.79 95.944C137.641 95.6453 137.566 95.3147 137.566 94.952C137.566 94.3973 137.769 93.9493 138.174 93.608C138.579 93.2667 139.102 93.096 139.742 93.096C140.318 93.096 140.83 93.256 141.278 93.576C141.747 93.896 142.11 94.344 142.366 94.92C142.622 95.4747 142.75 96.1253 142.75 96.872C142.75 97.5333 142.633 98.1733 142.398 98.792C142.185 99.432 141.865 100.019 141.438 100.552C141.033 101.085 140.553 101.555 139.998 101.96C139.465 102.387 138.867 102.717 138.206 102.952ZM154.283 97.32C152.47 97.32 150.912 96.8613 149.611 95.944C148.331 95.0053 147.339 93.6827 146.635 91.976C145.952 90.248 145.611 88.1893 145.611 85.8C145.611 83.4107 145.952 81.3627 146.635 79.656C147.339 77.928 148.331 76.6053 149.611 75.688C150.912 74.7493 152.47 74.28 154.283 74.28C156.096 74.28 157.654 74.7493 158.955 75.688C160.256 76.6053 161.248 77.928 161.931 79.656C162.635 81.3627 162.987 83.4107 162.987 85.8C162.987 88.1893 162.635 90.248 161.931 91.976C161.248 93.6827 160.256 95.0053 158.955 95.944C157.654 96.8613 156.096 97.32 154.283 97.32ZM154.283 93.672C155.776 93.672 156.928 92.9893 157.739 91.624C158.571 90.2373 158.987 88.296 158.987 85.8C158.987 83.2827 158.571 81.3307 157.739 79.944C156.928 78.5573 155.776 77.864 154.283 77.864C152.79 77.864 151.627 78.5573 150.795 79.944C149.984 81.3307 149.579 83.2827 149.579 85.8C149.579 88.296 149.984 90.2373 150.795 91.624C151.627 92.9893 152.79 93.672 154.283 93.672ZM174.471 97.32C172.657 97.32 171.1 96.8613 169.799 95.944C168.519 95.0053 167.527 93.6827 166.823 91.976C166.14 90.248 165.799 88.1893 165.799 85.8C165.799 83.4107 166.14 81.3627 166.823 79.656C167.527 77.928 168.519 76.6053 169.799 75.688C171.1 74.7493 172.657 74.28 174.471 74.28C176.284 74.28 177.841 74.7493 179.143 75.688C180.444 76.6053 181.436 77.928 182.119 79.656C182.823 81.3627 183.175 83.4107 183.175 85.8C183.175 88.1893 182.823 90.248 182.119 91.976C181.436 93.6827 180.444 95.0053 179.143 95.944C177.841 96.8613 176.284 97.32 174.471 97.32ZM174.471 93.672C175.964 93.672 177.116 92.9893 177.927 91.624C178.759 90.2373 179.175 88.296 179.175 85.8C179.175 83.2827 178.759 81.3307 177.927 79.944C177.116 78.5573 175.964 77.864 174.471 77.864C172.977 77.864 171.815 78.5573 170.983 79.944C170.172 81.3307 169.767 83.2827 169.767 85.8C169.767 88.296 170.172 90.2373 170.983 91.624C171.815 92.9893 172.977 93.672 174.471 93.672ZM194.658 97.32C192.845 97.32 191.287 96.8613 189.986 95.944C188.706 95.0053 187.714 93.6827 187.01 91.976C186.327 90.248 185.986 88.1893 185.986 85.8C185.986 83.4107 186.327 81.3627 187.01 79.656C187.714 77.928 188.706 76.6053 189.986 75.688C191.287 74.7493 192.845 74.28 194.658 74.28C196.471 74.28 198.029 74.7493 199.33 75.688C200.631 76.6053 201.623 77.928 202.306 79.656C203.01 81.3627 203.362 83.4107 203.362 85.8C203.362 88.1893 203.01 90.248 202.306 91.976C201.623 93.6827 200.631 95.0053 199.33 95.944C198.029 96.8613 196.471 97.32 194.658 97.32ZM194.658 93.672C196.151 93.672 197.303 92.9893 198.114 91.624C198.946 90.2373 199.362 88.296 199.362 85.8C199.362 83.2827 198.946 81.3307 198.114 79.944C197.303 78.5573 196.151 77.864 194.658 77.864C193.165 77.864 192.002 78.5573 191.17 79.944C190.359 81.3307 189.954 83.2827 189.954 85.8C189.954 88.296 190.359 90.2373 191.17 91.624C192.002 92.9893 193.165 93.672 194.658 93.672Z" fill="white"/>
</g>
<g filter="url(#filter1_ddd_3550_114071)">
<path d="M203 157C203 152.582 206.582 149 211 149H595C599.418 149 603 152.582 603 157V397C603 401.418 599.418 405 595 405H211C206.582 405 203 401.418 203 397V157Z" fill="url(#paint2_linear_3550_114071)" fill-opacity="0.1" shape-rendering="crispEdges"/>
<path d="M211 149.5H595C599.142 149.5 602.5 152.858 602.5 157V397C602.5 401.142 599.142 404.5 595 404.5H211C206.858 404.5 203.5 401.142 203.5 397V157C203.5 152.858 206.858 149.5 211 149.5Z" stroke="url(#paint3_linear_3550_114071)" stroke-opacity="0.1" shape-rendering="crispEdges"/>
<path d="M227.8 187.7H229.9C229.9 188.38 230.213 188.967 230.84 189.46C231.48 189.953 232.3 190.2 233.3 190.2C234.393 190.2 235.2 190.013 235.72 189.64C236.24 189.253 236.5 188.74 236.5 188.1C236.5 187.073 235.7 186.407 234.1 186.1L231.4 185.6C230.307 185.4 229.48 184.98 228.92 184.34C228.373 183.7 228.1 182.887 228.1 181.9C228.1 180.727 228.553 179.753 229.46 178.98C230.367 178.193 231.58 177.8 233.1 177.8C234.78 177.8 236.08 178.227 237 179.08C237.933 179.92 238.4 180.993 238.4 182.3H236.3C236.3 181.62 236.007 181.033 235.42 180.54C234.833 180.047 234.06 179.8 233.1 179.8C232.193 179.8 231.48 180.007 230.96 180.42C230.453 180.82 230.2 181.313 230.2 181.9C230.2 182.887 230.9 183.52 232.3 183.8L234.5 184.2C235.913 184.453 236.947 184.893 237.6 185.52C238.267 186.133 238.6 186.993 238.6 188.1C238.6 189.3 238.14 190.287 237.22 191.06C236.3 191.82 234.993 192.2 233.3 192.2C231.607 192.2 230.267 191.773 229.28 190.92C228.293 190.067 227.8 188.993 227.8 187.7ZM247.3 192L247.1 190.9H247C246.8 191.153 246.56 191.373 246.28 191.56C245.64 191.987 244.88 192.2 244 192.2C242.907 192.2 242.033 191.913 241.38 191.34C240.727 190.767 240.4 190.02 240.4 189.1C240.4 188.073 240.74 187.267 241.42 186.68C242.113 186.093 243.14 185.8 244.5 185.8H247V185.6C247 184.947 246.813 184.433 246.44 184.06C246.067 183.687 245.553 183.5 244.9 183.5C244.26 183.5 243.767 183.647 243.42 183.94C243.073 184.22 242.867 184.54 242.8 184.9H240.8C240.853 184.02 241.247 183.287 241.98 182.7C242.713 182.1 243.687 181.8 244.9 181.8C246.193 181.8 247.2 182.14 247.92 182.82C248.64 183.5 249 184.427 249 185.6V192H247.3ZM247 187.8V187.4H244.6C243.867 187.4 243.313 187.547 242.94 187.84C242.58 188.133 242.4 188.52 242.4 189C242.4 189.467 242.553 189.833 242.86 190.1C243.167 190.367 243.613 190.5 244.2 190.5C245.107 190.5 245.8 190.267 246.28 189.8C246.76 189.32 247 188.653 247 187.8ZM251.603 192V178H253.603V192H251.603ZM257.808 186.2H263.708C263.601 185.387 263.288 184.733 262.768 184.24C262.248 183.747 261.594 183.5 260.808 183.5C259.981 183.5 259.314 183.747 258.808 184.24C258.301 184.72 257.968 185.373 257.808 186.2ZM263.208 189.1H265.308C265.014 189.9 264.481 190.62 263.708 191.26C262.948 191.887 261.981 192.2 260.808 192.2C259.354 192.2 258.154 191.72 257.208 190.76C256.274 189.8 255.808 188.547 255.808 187C255.808 185.453 256.274 184.2 257.208 183.24C258.154 182.28 259.354 181.8 260.808 181.8C262.168 181.8 263.308 182.267 264.228 183.2C265.148 184.133 265.608 185.3 265.608 186.7C265.608 186.82 265.588 187.06 265.548 187.42L265.508 187.7H257.808C257.914 188.553 258.241 189.233 258.788 189.74C259.334 190.247 260.008 190.5 260.808 190.5C261.368 190.5 261.861 190.367 262.288 190.1C262.728 189.82 263.034 189.487 263.208 189.1ZM267.014 189H269.014C269.014 189.36 269.214 189.7 269.614 190.02C270.014 190.34 270.581 190.5 271.314 190.5C272.007 190.5 272.527 190.373 272.874 190.12C273.234 189.853 273.414 189.547 273.414 189.2C273.414 188.84 273.301 188.56 273.074 188.36C272.847 188.147 272.461 187.993 271.914 187.9L270.114 187.6C268.181 187.28 267.214 186.313 267.214 184.7C267.214 183.86 267.554 183.167 268.234 182.62C268.927 182.073 269.921 181.8 271.214 181.8C271.894 181.8 272.507 181.907 273.054 182.12C273.614 182.333 274.047 182.607 274.354 182.94C274.674 183.273 274.914 183.613 275.074 183.96C275.234 184.293 275.314 184.607 275.314 184.9H273.314C273.314 184.553 273.134 184.233 272.774 183.94C272.414 183.647 271.894 183.5 271.214 183.5C270.547 183.5 270.047 183.62 269.714 183.86C269.381 184.087 269.214 184.367 269.214 184.7C269.214 185.3 269.714 185.7 270.714 185.9L272.514 186.2C274.447 186.52 275.414 187.52 275.414 189.2C275.414 190.053 275.061 190.767 274.354 191.34C273.661 191.913 272.647 192.2 271.314 192.2C270.567 192.2 269.894 192.087 269.294 191.86C268.707 191.633 268.254 191.347 267.934 191C267.627 190.653 267.394 190.313 267.234 189.98C267.087 189.633 267.014 189.307 267.014 189ZM284.428 185H288.528C289.101 185 289.595 184.767 290.008 184.3C290.421 183.833 290.628 183.233 290.628 182.5C290.628 181.767 290.421 181.167 290.008 180.7C289.595 180.233 289.101 180 288.528 180H284.428V185ZM282.328 192V178H288.628C289.801 178 290.775 178.42 291.548 179.26C292.335 180.087 292.728 181.167 292.728 182.5C292.728 183.833 292.335 184.92 291.548 185.76C290.775 186.587 289.801 187 288.628 187H284.428V192H282.328ZM295.62 186.2H301.52C301.414 185.387 301.1 184.733 300.58 184.24C300.06 183.747 299.407 183.5 298.62 183.5C297.794 183.5 297.127 183.747 296.62 184.24C296.114 184.72 295.78 185.373 295.62 186.2ZM301.02 189.1H303.12C302.827 189.9 302.294 190.62 301.52 191.26C300.76 191.887 299.794 192.2 298.62 192.2C297.167 192.2 295.967 191.72 295.02 190.76C294.087 189.8 293.62 188.547 293.62 187C293.62 185.453 294.087 184.2 295.02 183.24C295.967 182.28 297.167 181.8 298.62 181.8C299.98 181.8 301.12 182.267 302.04 183.2C302.96 184.133 303.42 185.3 303.42 186.7C303.42 186.82 303.4 187.06 303.36 187.42L303.32 187.7H295.62C295.727 188.553 296.054 189.233 296.6 189.74C297.147 190.247 297.82 190.5 298.62 190.5C299.18 190.5 299.674 190.367 300.1 190.1C300.54 189.82 300.847 189.487 301.02 189.1ZM305.527 192V182H307.227L307.427 182.9H307.527C307.54 182.887 307.58 182.84 307.647 182.76C307.727 182.68 307.773 182.627 307.787 182.6C307.813 182.573 307.867 182.527 307.947 182.46C308.027 182.38 308.093 182.327 308.147 182.3C308.2 182.273 308.273 182.24 308.367 182.2C308.46 182.147 308.553 182.113 308.647 182.1C308.753 182.073 308.873 182.053 309.007 182.04C309.14 182.013 309.28 182 309.427 182H311.227V183.8H309.627C308.227 183.8 307.527 184.493 307.527 185.88V192H305.527ZM312.034 189H314.034C314.034 189.36 314.234 189.7 314.634 190.02C315.034 190.34 315.6 190.5 316.334 190.5C317.027 190.5 317.547 190.373 317.894 190.12C318.254 189.853 318.434 189.547 318.434 189.2C318.434 188.84 318.32 188.56 318.094 188.36C317.867 188.147 317.48 187.993 316.934 187.9L315.134 187.6C313.2 187.28 312.234 186.313 312.234 184.7C312.234 183.86 312.574 183.167 313.254 182.62C313.947 182.073 314.94 181.8 316.234 181.8C316.914 181.8 317.527 181.907 318.074 182.12C318.634 182.333 319.067 182.607 319.374 182.94C319.694 183.273 319.934 183.613 320.094 183.96C320.254 184.293 320.334 184.607 320.334 184.9H318.334C318.334 184.553 318.154 184.233 317.794 183.94C317.434 183.647 316.914 183.5 316.234 183.5C315.567 183.5 315.067 183.62 314.734 183.86C314.4 184.087 314.234 184.367 314.234 184.7C314.234 185.3 314.734 185.7 315.734 185.9L317.534 186.2C319.467 186.52 320.434 187.52 320.434 189.2C320.434 190.053 320.08 190.767 319.374 191.34C318.68 191.913 317.667 192.2 316.334 192.2C315.587 192.2 314.914 192.087 314.314 191.86C313.727 191.633 313.274 191.347 312.954 191C312.647 190.653 312.414 190.313 312.254 189.98C312.107 189.633 312.034 189.307 312.034 189ZM324.781 189.48C325.354 190.093 326.074 190.4 326.941 190.4C327.807 190.4 328.521 190.093 329.081 189.48C329.654 188.853 329.941 188.027 329.941 187C329.941 185.973 329.654 185.153 329.081 184.54C328.521 183.913 327.807 183.6 326.941 183.6C326.074 183.6 325.354 183.913 324.781 184.54C324.221 185.153 323.941 185.973 323.941 187C323.941 188.027 324.221 188.853 324.781 189.48ZM330.521 190.76C329.587 191.72 328.394 192.2 326.941 192.2C325.487 192.2 324.287 191.72 323.341 190.76C322.407 189.8 321.941 188.547 321.941 187C321.941 185.453 322.407 184.2 323.341 183.24C324.287 182.28 325.487 181.8 326.941 181.8C328.394 181.8 329.587 182.28 330.521 183.24C331.467 184.2 331.941 185.453 331.941 187C331.941 188.547 331.467 189.8 330.521 190.76ZM334.042 192V182H335.842L336.042 183H336.142C336.369 182.773 336.616 182.573 336.882 182.4C337.522 182 338.242 181.8 339.042 181.8C340.256 181.8 341.222 182.18 341.942 182.94C342.676 183.687 343.042 184.707 343.042 186V192H341.042V186C341.042 185.347 340.809 184.787 340.342 184.32C339.889 183.84 339.322 183.6 338.642 183.6C337.909 183.6 337.289 183.84 336.782 184.32C336.289 184.787 336.042 185.347 336.042 186V192H334.042Z" fill="#F08B32"/>
<path d="M227.5 233L232.86 219H234.64L239.96 233H238.26L234.84 223.92C234.747 223.667 234.64 223.373 234.52 223.04C234.413 222.693 234.293 222.34 234.16 221.98C234.04 221.607 233.92 221.247 233.8 220.9C233.693 220.553 233.593 220.247 233.5 219.98H233.9C233.793 220.313 233.68 220.653 233.56 221C233.453 221.333 233.34 221.673 233.22 222.02C233.1 222.353 232.98 222.687 232.86 223.02C232.74 223.353 232.62 223.687 232.5 224.02L229.1 233H227.5ZM229.78 229.14L230.36 227.62H236.98L237.62 229.14H229.78ZM245.337 233.2C244.444 233.2 243.644 233.033 242.937 232.7C242.23 232.367 241.67 231.927 241.257 231.38L242.317 230.46C242.704 230.927 243.157 231.28 243.677 231.52C244.21 231.76 244.804 231.88 245.457 231.88C245.79 231.88 246.09 231.847 246.357 231.78C246.624 231.7 246.857 231.587 247.057 231.44C247.257 231.293 247.41 231.12 247.517 230.92C247.624 230.72 247.677 230.5 247.677 230.26C247.677 229.82 247.484 229.453 247.097 229.16C246.924 229.04 246.677 228.92 246.357 228.8C246.037 228.667 245.65 228.54 245.197 228.42C244.45 228.207 243.83 227.993 243.337 227.78C242.844 227.553 242.457 227.293 242.177 227C241.977 226.76 241.824 226.5 241.717 226.22C241.624 225.94 241.577 225.633 241.577 225.3C241.577 224.873 241.664 224.48 241.837 224.12C242.024 223.76 242.277 223.447 242.597 223.18C242.93 222.9 243.317 222.693 243.757 222.56C244.21 222.413 244.697 222.34 245.217 222.34C245.71 222.34 246.197 222.407 246.677 222.54C247.157 222.673 247.604 222.867 248.017 223.12C248.43 223.373 248.784 223.673 249.077 224.02L248.157 225.02C247.904 224.753 247.624 224.513 247.317 224.3C247.01 224.087 246.684 223.92 246.337 223.8C246.004 223.68 245.657 223.62 245.297 223.62C244.977 223.62 244.677 223.66 244.397 223.74C244.13 223.82 243.897 223.933 243.697 224.08C243.51 224.213 243.364 224.38 243.257 224.58C243.164 224.78 243.117 225 243.117 225.24C243.117 225.44 243.157 225.62 243.237 225.78C243.317 225.94 243.43 226.08 243.577 226.2C243.764 226.347 244.024 226.487 244.357 226.62C244.704 226.74 245.13 226.867 245.637 227C246.224 227.16 246.717 227.327 247.117 227.5C247.53 227.66 247.87 227.853 248.137 228.08C248.497 228.347 248.75 228.653 248.897 229C249.057 229.347 249.137 229.74 249.137 230.18C249.137 230.767 248.97 231.287 248.637 231.74C248.317 232.193 247.87 232.553 247.297 232.82C246.724 233.073 246.07 233.2 245.337 233.2ZM251.487 233V218.2H252.987V224.84L252.687 225.14C252.834 224.593 253.107 224.113 253.507 223.7C253.907 223.273 254.374 222.94 254.907 222.7C255.454 222.46 256.007 222.34 256.567 222.34C257.367 222.34 258.034 222.493 258.567 222.8C259.101 223.107 259.494 223.58 259.747 224.22C260.014 224.86 260.147 225.673 260.147 226.66V233H258.627V226.74C258.627 226.047 258.534 225.48 258.347 225.04C258.174 224.587 257.901 224.253 257.527 224.04C257.154 223.827 256.687 223.727 256.127 223.74C255.687 223.74 255.274 223.82 254.887 223.98C254.501 224.127 254.167 224.333 253.887 224.6C253.607 224.867 253.387 225.173 253.227 225.52C253.067 225.867 252.987 226.24 252.987 226.64V233H252.247C252.154 233 252.047 233 251.927 233C251.807 233 251.661 233 251.487 233ZM263.051 233V218.2H264.551V233H263.051ZM271.908 233.2C270.868 233.2 269.941 232.973 269.128 232.52C268.328 232.067 267.701 231.433 267.248 230.62C266.794 229.807 266.568 228.873 266.568 227.82C266.568 227.007 266.694 226.273 266.948 225.62C267.201 224.953 267.554 224.373 268.008 223.88C268.474 223.387 269.028 223.007 269.668 222.74C270.308 222.46 271.001 222.32 271.748 222.32C272.454 222.32 273.094 222.447 273.668 222.7C274.254 222.953 274.754 223.307 275.168 223.76C275.594 224.2 275.914 224.727 276.128 225.34C276.341 225.953 276.434 226.627 276.408 227.36L276.388 228.06H267.688L267.468 226.8H275.248L274.888 227.14V226.66C274.861 226.18 274.721 225.72 274.468 225.28C274.214 224.827 273.854 224.46 273.388 224.18C272.934 223.9 272.388 223.76 271.748 223.76C271.001 223.76 270.354 223.913 269.808 224.22C269.261 224.513 268.841 224.953 268.548 225.54C268.254 226.127 268.108 226.853 268.108 227.72C268.108 228.547 268.268 229.267 268.588 229.88C268.908 230.48 269.361 230.947 269.948 231.28C270.548 231.613 271.268 231.78 272.108 231.78C272.601 231.78 273.088 231.7 273.568 231.54C274.061 231.367 274.601 231.033 275.188 230.54L275.968 231.62C275.661 231.927 275.294 232.2 274.868 232.44C274.441 232.667 273.974 232.853 273.468 233C272.961 233.133 272.441 233.2 271.908 233.2ZM280.103 237.6L282.123 232.68L282.263 234.1L277.023 222.56H278.723L282.303 230.56C282.409 230.773 282.516 231.027 282.623 231.32C282.729 231.6 282.829 231.88 282.923 232.16L282.363 232.1C282.456 231.873 282.543 231.64 282.623 231.4C282.716 231.16 282.803 230.927 282.883 230.7L286.023 222.56H287.743L283.523 233L281.723 237.6H280.103Z" fill="white"/>
<path d="M542.715 233L542.235 231.84L546.955 226.54C547.182 226.287 547.415 226 547.655 225.68C547.909 225.36 548.142 225.027 548.355 224.68C548.582 224.32 548.762 223.967 548.895 223.62C549.029 223.273 549.095 222.933 549.095 222.6C549.095 222.107 548.989 221.693 548.775 221.36C548.562 221.013 548.255 220.747 547.855 220.56C547.469 220.373 547.015 220.28 546.495 220.28C546.042 220.28 545.595 220.387 545.155 220.6C544.715 220.813 544.315 221.14 543.955 221.58C543.595 222.02 543.315 222.58 543.115 223.26L541.875 222.52C542.115 221.707 542.469 221.027 542.935 220.48C543.402 219.92 543.955 219.5 544.595 219.22C545.235 218.94 545.922 218.8 546.655 218.8C547.429 218.8 548.122 218.96 548.735 219.28C549.349 219.587 549.835 220.027 550.195 220.6C550.555 221.16 550.735 221.807 550.735 222.54C550.735 222.86 550.695 223.18 550.615 223.5C550.549 223.82 550.442 224.14 550.295 224.46C550.149 224.78 549.969 225.107 549.755 225.44C549.555 225.773 549.315 226.113 549.035 226.46C548.769 226.807 548.469 227.167 548.135 227.54L544.115 232.02L543.875 231.5H551.175V233H542.715ZM553.953 233L559.833 219.92L560.093 220.46H552.593V219H561.033L561.293 220.22L555.653 233H553.953ZM565.005 233L574.305 219H575.885L566.545 233H565.005ZM566.045 226.42C565.445 226.42 564.912 226.26 564.445 225.94C563.992 225.607 563.632 225.16 563.365 224.6C563.112 224.027 562.985 223.373 562.985 222.64C562.985 221.907 563.112 221.253 563.365 220.68C563.632 220.093 563.998 219.64 564.465 219.32C564.932 218.987 565.465 218.82 566.065 218.82C566.665 218.82 567.192 218.987 567.645 219.32C568.112 219.64 568.472 220.093 568.725 220.68C568.992 221.253 569.125 221.907 569.125 222.64C569.125 223.347 568.992 223.987 568.725 224.56C568.458 225.133 568.092 225.587 567.625 225.92C567.158 226.253 566.632 226.42 566.045 226.42ZM566.065 225.22C566.425 225.22 566.732 225.12 566.985 224.92C567.252 224.707 567.452 224.407 567.585 224.02C567.732 223.633 567.805 223.167 567.805 222.62C567.805 222.087 567.732 221.627 567.585 221.24C567.452 220.853 567.252 220.553 566.985 220.34C566.718 220.127 566.405 220.02 566.045 220.02C565.685 220.02 565.372 220.133 565.105 220.36C564.838 220.573 564.632 220.873 564.485 221.26C564.352 221.647 564.285 222.107 564.285 222.64C564.285 223.173 564.352 223.633 564.485 224.02C564.632 224.407 564.838 224.707 565.105 224.92C565.372 225.12 565.692 225.22 566.065 225.22ZM574.905 233.18C574.305 233.18 573.772 233.02 573.305 232.7C572.852 232.367 572.492 231.92 572.225 231.36C571.958 230.787 571.825 230.133 571.825 229.4C571.825 228.667 571.952 228.013 572.205 227.44C572.472 226.853 572.838 226.4 573.305 226.08C573.772 225.747 574.305 225.58 574.905 225.58C575.505 225.58 576.032 225.747 576.485 226.08C576.952 226.4 577.312 226.853 577.565 227.44C577.832 228.013 577.965 228.667 577.965 229.4C577.965 230.107 577.832 230.747 577.565 231.32C577.298 231.893 576.932 232.347 576.465 232.68C576.012 233.013 575.492 233.18 574.905 233.18ZM574.905 231.98C575.265 231.98 575.578 231.88 575.845 231.68C576.112 231.467 576.312 231.167 576.445 230.78C576.592 230.393 576.665 229.927 576.665 229.38C576.665 228.847 576.592 228.387 576.445 228C576.312 227.613 576.112 227.313 575.845 227.1C575.578 226.887 575.265 226.78 574.905 226.78C574.532 226.78 574.212 226.887 573.945 227.1C573.692 227.313 573.492 227.62 573.345 228.02C573.212 228.407 573.145 228.867 573.145 229.4C573.145 229.933 573.212 230.393 573.345 230.78C573.492 231.167 573.692 231.467 573.945 231.68C574.212 231.88 574.532 231.98 574.905 231.98Z" fill="white"/>
<path d="M232.92 269L227.5 255H229.26L232.74 264.12C232.9 264.533 233.04 264.9 233.16 265.22C233.28 265.54 233.387 265.847 233.48 266.14C233.587 266.42 233.687 266.7 233.78 266.98C233.873 267.26 233.973 267.567 234.08 267.9L233.56 267.92C233.693 267.467 233.82 267.047 233.94 266.66C234.073 266.273 234.207 265.88 234.34 265.48C234.487 265.067 234.667 264.587 234.88 264.04L238.34 255H240.1L234.52 269H232.92ZM242.454 269V258.56H243.954V269H242.454ZM243.194 256.3C242.82 256.3 242.534 256.207 242.334 256.02C242.147 255.82 242.054 255.553 242.054 255.22C242.054 254.887 242.154 254.62 242.354 254.42C242.554 254.22 242.834 254.12 243.194 254.12C243.554 254.12 243.834 254.22 244.034 254.42C244.234 254.607 244.334 254.873 244.334 255.22C244.334 255.54 244.234 255.8 244.034 256C243.834 256.2 243.554 256.3 243.194 256.3ZM248.57 265.64L248.51 263.9L253.97 258.56H255.99L248.57 265.64ZM247.23 269V254.2H248.73V269H247.23ZM254.39 269L249.99 263.9L251.05 262.86L256.35 269H254.39ZM257.991 269V258.56H259.491L259.531 261.34L259.371 260.96C259.518 260.493 259.751 260.06 260.071 259.66C260.405 259.26 260.798 258.94 261.251 258.7C261.705 258.46 262.205 258.34 262.751 258.34C262.978 258.34 263.191 258.36 263.391 258.4C263.591 258.427 263.758 258.467 263.891 258.52L263.471 260.2C263.298 260.12 263.118 260.067 262.931 260.04C262.758 260 262.591 259.98 262.431 259.98C261.978 259.98 261.571 260.06 261.211 260.22C260.851 260.38 260.545 260.607 260.291 260.9C260.038 261.18 259.845 261.507 259.711 261.88C259.578 262.253 259.511 262.653 259.511 263.08V269H257.991ZM269.083 269.2C268.176 269.2 267.356 268.967 266.623 268.5C265.89 268.02 265.31 267.373 264.883 266.56C264.456 265.733 264.243 264.8 264.243 263.76C264.243 262.707 264.463 261.773 264.903 260.96C265.343 260.147 265.93 259.507 266.663 259.04C267.41 258.573 268.243 258.34 269.163 258.34C269.71 258.34 270.216 258.42 270.683 258.58C271.15 258.74 271.563 258.967 271.923 259.26C272.296 259.54 272.603 259.873 272.843 260.26C273.096 260.633 273.27 261.04 273.363 261.48L272.923 261.26L272.983 258.56H274.483V269H272.963V266.44L273.363 266.18C273.27 266.58 273.09 266.967 272.823 267.34C272.556 267.7 272.23 268.02 271.843 268.3C271.47 268.58 271.043 268.8 270.563 268.96C270.096 269.12 269.603 269.2 269.083 269.2ZM269.423 267.76C270.116 267.76 270.736 267.593 271.283 267.26C271.83 266.913 272.256 266.44 272.563 265.84C272.883 265.227 273.043 264.533 273.043 263.76C273.043 262.987 272.883 262.3 272.563 261.7C272.256 261.1 271.83 260.627 271.283 260.28C270.736 259.933 270.116 259.76 269.423 259.76C268.716 259.76 268.09 259.933 267.543 260.28C267.01 260.627 266.583 261.1 266.263 261.7C265.956 262.3 265.803 262.987 265.803 263.76C265.803 264.52 265.956 265.207 266.263 265.82C266.57 266.42 266.996 266.893 267.543 267.24C268.09 267.587 268.716 267.76 269.423 267.76ZM277.385 269V258.56H278.885L278.925 260.94L278.625 261.04C278.732 260.64 278.905 260.28 279.145 259.96C279.399 259.627 279.699 259.34 280.045 259.1C280.392 258.86 280.772 258.68 281.185 258.56C281.599 258.427 282.032 258.36 282.485 258.36C283.032 258.36 283.519 258.453 283.945 258.64C284.385 258.813 284.752 259.12 285.045 259.56C285.352 259.987 285.585 260.553 285.745 261.26L285.385 261.08L285.525 260.74C285.659 260.433 285.852 260.14 286.105 259.86C286.372 259.567 286.672 259.307 287.005 259.08C287.352 258.853 287.725 258.68 288.125 258.56C288.539 258.427 288.959 258.36 289.385 258.36C290.119 258.36 290.739 258.52 291.245 258.84C291.752 259.147 292.132 259.62 292.385 260.26C292.652 260.9 292.785 261.713 292.785 262.7V269H291.245V262.78C291.245 262.087 291.159 261.52 290.985 261.08C290.812 260.64 290.552 260.313 290.205 260.1C289.872 259.873 289.445 259.76 288.925 259.76C288.472 259.76 288.052 259.84 287.665 260C287.292 260.147 286.965 260.36 286.685 260.64C286.419 260.907 286.205 261.213 286.045 261.56C285.899 261.907 285.825 262.28 285.825 262.68V269H284.305V262.76C284.305 262.093 284.212 261.54 284.025 261.1C283.852 260.66 283.592 260.327 283.245 260.1C282.899 259.873 282.472 259.76 281.965 259.76C281.525 259.76 281.119 259.84 280.745 260C280.372 260.147 280.045 260.353 279.765 260.62C279.499 260.887 279.285 261.193 279.125 261.54C278.979 261.887 278.905 262.26 278.905 262.66V269H277.385Z" fill="white"/>
<path d="M542.071 269L541.591 267.84L546.311 262.54C546.538 262.287 546.771 262 547.011 261.68C547.264 261.36 547.498 261.027 547.711 260.68C547.938 260.32 548.118 259.967 548.251 259.62C548.384 259.273 548.451 258.933 548.451 258.6C548.451 258.107 548.344 257.693 548.131 257.36C547.918 257.013 547.611 256.747 547.211 256.56C546.824 256.373 546.371 256.28 545.851 256.28C545.398 256.28 544.951 256.387 544.511 256.6C544.071 256.813 543.671 257.14 543.311 257.58C542.951 258.02 542.671 258.58 542.471 259.26L541.231 258.52C541.471 257.707 541.824 257.027 542.291 256.48C542.758 255.92 543.311 255.5 543.951 255.22C544.591 254.94 545.278 254.8 546.011 254.8C546.784 254.8 547.478 254.96 548.091 255.28C548.704 255.587 549.191 256.027 549.551 256.6C549.911 257.16 550.091 257.807 550.091 258.54C550.091 258.86 550.051 259.18 549.971 259.5C549.904 259.82 549.798 260.14 549.651 260.46C549.504 260.78 549.324 261.107 549.111 261.44C548.911 261.773 548.671 262.113 548.391 262.46C548.124 262.807 547.824 263.167 547.491 263.54L543.471 268.02L543.231 267.5H550.531V269H542.071ZM553.028 269L552.548 267.84L557.268 262.54C557.495 262.287 557.728 262 557.968 261.68C558.221 261.36 558.455 261.027 558.668 260.68C558.895 260.32 559.075 259.967 559.208 259.62C559.341 259.273 559.408 258.933 559.408 258.6C559.408 258.107 559.301 257.693 559.088 257.36C558.875 257.013 558.568 256.747 558.168 256.56C557.781 256.373 557.328 256.28 556.808 256.28C556.355 256.28 555.908 256.387 555.468 256.6C555.028 256.813 554.628 257.14 554.268 257.58C553.908 258.02 553.628 258.58 553.428 259.26L552.188 258.52C552.428 257.707 552.781 257.027 553.248 256.48C553.715 255.92 554.268 255.5 554.908 255.22C555.548 254.94 556.235 254.8 556.968 254.8C557.741 254.8 558.435 254.96 559.048 255.28C559.661 255.587 560.148 256.027 560.508 256.6C560.868 257.16 561.048 257.807 561.048 258.54C561.048 258.86 561.008 259.18 560.928 259.5C560.861 259.82 560.755 260.14 560.608 260.46C560.461 260.78 560.281 261.107 560.068 261.44C559.868 261.773 559.628 262.113 559.348 262.46C559.081 262.807 558.781 263.167 558.448 263.54L554.428 268.02L554.188 267.5H561.488V269H553.028ZM565.005 269L574.305 255H575.885L566.545 269H565.005ZM566.045 262.42C565.445 262.42 564.912 262.26 564.445 261.94C563.992 261.607 563.632 261.16 563.365 260.6C563.112 260.027 562.985 259.373 562.985 258.64C562.985 257.907 563.112 257.253 563.365 256.68C563.632 256.093 563.998 255.64 564.465 255.32C564.932 254.987 565.465 254.82 566.065 254.82C566.665 254.82 567.192 254.987 567.645 255.32C568.112 255.64 568.472 256.093 568.725 256.68C568.992 257.253 569.125 257.907 569.125 258.64C569.125 259.347 568.992 259.987 568.725 260.56C568.458 261.133 568.092 261.587 567.625 261.92C567.158 262.253 566.632 262.42 566.045 262.42ZM566.065 261.22C566.425 261.22 566.732 261.12 566.985 260.92C567.252 260.707 567.452 260.407 567.585 260.02C567.732 259.633 567.805 259.167 567.805 258.62C567.805 258.087 567.732 257.627 567.585 257.24C567.452 256.853 567.252 256.553 566.985 256.34C566.718 256.127 566.405 256.02 566.045 256.02C565.685 256.02 565.372 256.133 565.105 256.36C564.838 256.573 564.632 256.873 564.485 257.26C564.352 257.647 564.285 258.107 564.285 258.64C564.285 259.173 564.352 259.633 564.485 260.02C564.632 260.407 564.838 260.707 565.105 260.92C565.372 261.12 565.692 261.22 566.065 261.22ZM574.905 269.18C574.305 269.18 573.772 269.02 573.305 268.7C572.852 268.367 572.492 267.92 572.225 267.36C571.958 266.787 571.825 266.133 571.825 265.4C571.825 264.667 571.952 264.013 572.205 263.44C572.472 262.853 572.838 262.4 573.305 262.08C573.772 261.747 574.305 261.58 574.905 261.58C575.505 261.58 576.032 261.747 576.485 262.08C576.952 262.4 577.312 262.853 577.565 263.44C577.832 264.013 577.965 264.667 577.965 265.4C577.965 266.107 577.832 266.747 577.565 267.32C577.298 267.893 576.932 268.347 576.465 268.68C576.012 269.013 575.492 269.18 574.905 269.18ZM574.905 267.98C575.265 267.98 575.578 267.88 575.845 267.68C576.112 267.467 576.312 267.167 576.445 266.78C576.592 266.393 576.665 265.927 576.665 265.38C576.665 264.847 576.592 264.387 576.445 264C576.312 263.613 576.112 263.313 575.845 263.1C575.578 262.887 575.265 262.78 574.905 262.78C574.532 262.78 574.212 262.887 573.945 263.1C573.692 263.313 573.492 263.62 573.345 264.02C573.212 264.407 573.145 264.867 573.145 265.4C573.145 265.933 573.212 266.393 573.345 266.78C573.492 267.167 573.692 267.467 573.945 267.68C574.212 267.88 574.532 267.98 574.905 267.98Z" fill="white"/>
<path d="M229.06 305V291H230.58L235.96 299.74L235.24 299.72L240.68 291H242.1V305H240.54V298.6C240.54 297.4 240.56 296.32 240.6 295.36C240.64 294.4 240.713 293.447 240.82 292.5L241.1 293.06L236.08 300.94H235L230.12 293.16L230.34 292.5C230.447 293.393 230.52 294.313 230.56 295.26C230.6 296.193 230.62 297.307 230.62 298.6V305H229.06ZM250.228 305.2C249.188 305.2 248.261 304.973 247.448 304.52C246.648 304.067 246.021 303.433 245.568 302.62C245.115 301.807 244.888 300.873 244.888 299.82C244.888 299.007 245.015 298.273 245.268 297.62C245.521 296.953 245.875 296.373 246.328 295.88C246.795 295.387 247.348 295.007 247.988 294.74C248.628 294.46 249.321 294.32 250.068 294.32C250.775 294.32 251.415 294.447 251.988 294.7C252.575 294.953 253.075 295.307 253.488 295.76C253.915 296.2 254.235 296.727 254.448 297.34C254.661 297.953 254.755 298.627 254.728 299.36L254.708 300.06H246.008L245.788 298.8H253.568L253.208 299.14V298.66C253.181 298.18 253.041 297.72 252.788 297.28C252.535 296.827 252.175 296.46 251.708 296.18C251.255 295.9 250.708 295.76 250.068 295.76C249.321 295.76 248.675 295.913 248.128 296.22C247.581 296.513 247.161 296.953 246.868 297.54C246.575 298.127 246.428 298.853 246.428 299.72C246.428 300.547 246.588 301.267 246.908 301.88C247.228 302.48 247.681 302.947 248.268 303.28C248.868 303.613 249.588 303.78 250.428 303.78C250.921 303.78 251.408 303.7 251.888 303.54C252.381 303.367 252.921 303.033 253.508 302.54L254.288 303.62C253.981 303.927 253.615 304.2 253.188 304.44C252.761 304.667 252.295 304.853 251.788 305C251.281 305.133 250.761 305.2 250.228 305.2ZM261.458 305.2C260.418 305.2 259.492 304.973 258.678 304.52C257.878 304.067 257.252 303.433 256.798 302.62C256.345 301.807 256.118 300.873 256.118 299.82C256.118 299.007 256.245 298.273 256.498 297.62C256.752 296.953 257.105 296.373 257.558 295.88C258.025 295.387 258.578 295.007 259.218 294.74C259.858 294.46 260.552 294.32 261.298 294.32C262.005 294.32 262.645 294.447 263.218 294.7C263.805 294.953 264.305 295.307 264.718 295.76C265.145 296.2 265.465 296.727 265.678 297.34C265.892 297.953 265.985 298.627 265.958 299.36L265.938 300.06H257.238L257.018 298.8H264.798L264.438 299.14V298.66C264.412 298.18 264.272 297.72 264.018 297.28C263.765 296.827 263.405 296.46 262.938 296.18C262.485 295.9 261.938 295.76 261.298 295.76C260.552 295.76 259.905 295.913 259.358 296.22C258.812 296.513 258.392 296.953 258.098 297.54C257.805 298.127 257.658 298.853 257.658 299.72C257.658 300.547 257.818 301.267 258.138 301.88C258.458 302.48 258.912 302.947 259.498 303.28C260.098 303.613 260.818 303.78 261.658 303.78C262.152 303.78 262.638 303.7 263.118 303.54C263.612 303.367 264.152 303.033 264.738 302.54L265.518 303.62C265.212 303.927 264.845 304.2 264.418 304.44C263.992 304.667 263.525 304.853 263.018 305C262.512 305.133 261.992 305.2 261.458 305.2ZM268.089 305V294.56H269.589L269.629 297.34L269.469 296.96C269.616 296.493 269.849 296.06 270.169 295.66C270.502 295.26 270.896 294.94 271.349 294.7C271.802 294.46 272.302 294.34 272.849 294.34C273.076 294.34 273.289 294.36 273.489 294.4C273.689 294.427 273.856 294.467 273.989 294.52L273.569 296.2C273.396 296.12 273.216 296.067 273.029 296.04C272.856 296 272.689 295.98 272.529 295.98C272.076 295.98 271.669 296.06 271.309 296.22C270.949 296.38 270.642 296.607 270.389 296.9C270.136 297.18 269.942 297.507 269.809 297.88C269.676 298.253 269.609 298.653 269.609 299.08V305H268.089ZM279.181 305.2C278.274 305.2 277.454 304.967 276.721 304.5C275.987 304.02 275.407 303.373 274.981 302.56C274.554 301.733 274.341 300.8 274.341 299.76C274.341 298.707 274.561 297.773 275.001 296.96C275.441 296.147 276.027 295.507 276.761 295.04C277.507 294.573 278.341 294.34 279.261 294.34C279.807 294.34 280.314 294.42 280.781 294.58C281.247 294.74 281.661 294.967 282.021 295.26C282.394 295.54 282.701 295.873 282.941 296.26C283.194 296.633 283.367 297.04 283.461 297.48L283.021 297.26L283.081 294.56H284.581V305H283.061V302.44L283.461 302.18C283.367 302.58 283.187 302.967 282.921 303.34C282.654 303.7 282.327 304.02 281.941 304.3C281.567 304.58 281.141 304.8 280.661 304.96C280.194 305.12 279.701 305.2 279.181 305.2ZM279.521 303.76C280.214 303.76 280.834 303.593 281.381 303.26C281.927 302.913 282.354 302.44 282.661 301.84C282.981 301.227 283.141 300.533 283.141 299.76C283.141 298.987 282.981 298.3 282.661 297.7C282.354 297.1 281.927 296.627 281.381 296.28C280.834 295.933 280.214 295.76 279.521 295.76C278.814 295.76 278.187 295.933 277.641 296.28C277.107 296.627 276.681 297.1 276.361 297.7C276.054 298.3 275.901 298.987 275.901 299.76C275.901 300.52 276.054 301.207 276.361 301.82C276.667 302.42 277.094 302.893 277.641 303.24C278.187 303.587 278.814 303.76 279.521 303.76Z" fill="white"/>
<path d="M546.109 304.32V292.24L546.689 292.68L544.089 294.24L543.629 292.84L547.089 290.8H547.689V304.32H546.109ZM544.049 305V303.48H549.789V305H544.049ZM556.209 305L556.129 304.8L560.209 296.32L560.349 297.28C560.082 297.747 559.796 298.16 559.489 298.52C559.182 298.867 558.849 299.16 558.489 299.4C558.142 299.64 557.776 299.827 557.389 299.96C557.002 300.08 556.602 300.14 556.189 300.14C555.389 300.14 554.656 299.933 553.989 299.52C553.336 299.107 552.809 298.56 552.409 297.88C552.022 297.2 551.829 296.447 551.829 295.62C551.829 294.7 552.042 293.873 552.469 293.14C552.896 292.407 553.476 291.833 554.209 291.42C554.942 290.993 555.756 290.78 556.649 290.78C557.316 290.78 557.929 290.9 558.489 291.14C559.062 291.38 559.562 291.713 559.989 292.14C560.429 292.567 560.769 293.067 561.009 293.64C561.249 294.2 561.369 294.807 561.369 295.46C561.369 295.847 561.316 296.273 561.209 296.74C561.116 297.193 560.976 297.68 560.789 298.2C560.602 298.707 560.389 299.24 560.149 299.8C559.909 300.36 559.649 300.933 559.369 301.52L557.709 305H556.209ZM556.529 298.66C557.129 298.66 557.669 298.52 558.149 298.24C558.629 297.947 559.009 297.56 559.289 297.08C559.569 296.6 559.709 296.067 559.709 295.48C559.709 294.88 559.569 294.333 559.289 293.84C559.022 293.347 558.649 292.96 558.169 292.68C557.689 292.4 557.149 292.26 556.549 292.26C555.962 292.26 555.436 292.4 554.969 292.68C554.502 292.96 554.129 293.34 553.849 293.82C553.582 294.3 553.449 294.847 553.449 295.46C553.449 296.047 553.582 296.58 553.849 297.06C554.129 297.54 554.502 297.927 554.969 298.22C555.436 298.513 555.956 298.66 556.529 298.66ZM565.005 305L574.305 291H575.885L566.545 305H565.005ZM566.045 298.42C565.445 298.42 564.912 298.26 564.445 297.94C563.992 297.607 563.632 297.16 563.365 296.6C563.112 296.027 562.985 295.373 562.985 294.64C562.985 293.907 563.112 293.253 563.365 292.68C563.632 292.093 563.998 291.64 564.465 291.32C564.932 290.987 565.465 290.82 566.065 290.82C566.665 290.82 567.192 290.987 567.645 291.32C568.112 291.64 568.472 292.093 568.725 292.68C568.992 293.253 569.125 293.907 569.125 294.64C569.125 295.347 568.992 295.987 568.725 296.56C568.458 297.133 568.092 297.587 567.625 297.92C567.158 298.253 566.632 298.42 566.045 298.42ZM566.065 297.22C566.425 297.22 566.732 297.12 566.985 296.92C567.252 296.707 567.452 296.407 567.585 296.02C567.732 295.633 567.805 295.167 567.805 294.62C567.805 294.087 567.732 293.627 567.585 293.24C567.452 292.853 567.252 292.553 566.985 292.34C566.718 292.127 566.405 292.02 566.045 292.02C565.685 292.02 565.372 292.133 565.105 292.36C564.838 292.573 564.632 292.873 564.485 293.26C564.352 293.647 564.285 294.107 564.285 294.64C564.285 295.173 564.352 295.633 564.485 296.02C564.632 296.407 564.838 296.707 565.105 296.92C565.372 297.12 565.692 297.22 566.065 297.22ZM574.905 305.18C574.305 305.18 573.772 305.02 573.305 304.7C572.852 304.367 572.492 303.92 572.225 303.36C571.958 302.787 571.825 302.133 571.825 301.4C571.825 300.667 571.952 300.013 572.205 299.44C572.472 298.853 572.838 298.4 573.305 298.08C573.772 297.747 574.305 297.58 574.905 297.58C575.505 297.58 576.032 297.747 576.485 298.08C576.952 298.4 577.312 298.853 577.565 299.44C577.832 300.013 577.965 300.667 577.965 301.4C577.965 302.107 577.832 302.747 577.565 303.32C577.298 303.893 576.932 304.347 576.465 304.68C576.012 305.013 575.492 305.18 574.905 305.18ZM574.905 303.98C575.265 303.98 575.578 303.88 575.845 303.68C576.112 303.467 576.312 303.167 576.445 302.78C576.592 302.393 576.665 301.927 576.665 301.38C576.665 300.847 576.592 300.387 576.445 300C576.312 299.613 576.112 299.313 575.845 299.1C575.578 298.887 575.265 298.78 574.905 298.78C574.532 298.78 574.212 298.887 573.945 299.1C573.692 299.313 573.492 299.62 573.345 300.02C573.212 300.407 573.145 300.867 573.145 301.4C573.145 301.933 573.212 302.393 573.345 302.78C573.492 303.167 573.692 303.467 573.945 303.68C574.212 303.88 574.532 303.98 574.905 303.98Z" fill="white"/>
<path d="M229.06 341V327H230.48L239.64 339.12L239.36 339.48C239.32 339.267 239.287 338.947 239.26 338.52C239.247 338.093 239.227 337.613 239.2 337.08C239.187 336.533 239.173 335.967 239.16 335.38C239.147 334.793 239.133 334.22 239.12 333.66C239.12 333.1 239.12 332.593 239.12 332.14V327H240.68V341H239.22L230.1 329.04L230.34 328.62C230.38 329.153 230.413 329.68 230.44 330.2C230.48 330.72 230.507 331.22 230.52 331.7C230.547 332.18 230.567 332.62 230.58 333.02C230.593 333.42 230.6 333.76 230.6 334.04C230.613 334.32 230.62 334.52 230.62 334.64V341H229.06ZM244.602 341V330.56H246.102V341H244.602ZM245.342 328.3C244.969 328.3 244.682 328.207 244.482 328.02C244.296 327.82 244.202 327.553 244.202 327.22C244.202 326.887 244.302 326.62 244.502 326.42C244.702 326.22 244.982 326.12 245.342 326.12C245.702 326.12 245.982 326.22 246.182 326.42C246.382 326.607 246.482 326.873 246.482 327.22C246.482 327.54 246.382 327.8 246.182 328C245.982 328.2 245.702 328.3 245.342 328.3ZM250.818 341V327.82H252.318V341H250.818ZM248.458 332V330.56H254.958V332H248.458ZM257.2 341V330.56H258.7V341H257.2ZM257.94 328.3C257.567 328.3 257.28 328.207 257.08 328.02C256.893 327.82 256.8 327.553 256.8 327.22C256.8 326.887 256.9 326.62 257.1 326.42C257.3 326.22 257.58 326.12 257.94 326.12C258.3 326.12 258.58 326.22 258.78 326.42C258.98 326.607 259.08 326.873 259.08 327.22C259.08 327.54 258.98 327.8 258.78 328C258.58 328.2 258.3 328.3 257.94 328.3ZM261.976 341V330.56H263.456L263.516 332.74L263.276 332.84C263.409 332.387 263.669 331.973 264.056 331.6C264.442 331.227 264.902 330.927 265.436 330.7C265.982 330.46 266.542 330.34 267.116 330.34C267.889 330.34 268.536 330.493 269.056 330.8C269.576 331.107 269.969 331.58 270.236 332.22C270.502 332.86 270.636 333.673 270.636 334.66V341H269.116V334.74C269.116 334.047 269.022 333.48 268.836 333.04C268.662 332.587 268.389 332.253 268.016 332.04C267.642 331.827 267.182 331.727 266.636 331.74C266.182 331.74 265.762 331.82 265.376 331.98C264.989 332.127 264.656 332.333 264.376 332.6C264.096 332.867 263.876 333.173 263.716 333.52C263.556 333.867 263.476 334.24 263.476 334.64V341H262.736C262.642 341 262.536 341 262.416 341C262.296 341 262.149 341 261.976 341Z" fill="white"/>
<path d="M546.519 340.32V328.24L547.099 328.68L544.499 330.24L544.039 328.84L547.499 326.8H548.099V340.32H546.519ZM544.459 341V339.48H550.199V341H544.459ZM556.659 341.2C555.672 341.2 554.799 340.98 554.039 340.54C553.292 340.087 552.592 339.32 551.939 338.24L553.219 337.44C553.579 338.013 553.946 338.473 554.319 338.82C554.706 339.153 555.099 339.393 555.499 339.54C555.899 339.687 556.326 339.76 556.779 339.76C557.339 339.76 557.852 339.627 558.319 339.36C558.786 339.08 559.159 338.707 559.439 338.24C559.719 337.76 559.859 337.227 559.859 336.64C559.859 336.04 559.732 335.513 559.479 335.06C559.226 334.607 558.872 334.253 558.419 334C557.979 333.747 557.466 333.62 556.879 333.62C556.666 333.62 556.432 333.647 556.179 333.7C555.939 333.74 555.672 333.827 555.379 333.96C555.099 334.08 554.792 334.26 554.459 334.5L553.999 333.26L558.939 327.88L559.279 328.46H552.919V327H560.479L560.879 327.8L556.079 332.92L555.679 332.52C555.852 332.413 556.059 332.327 556.299 332.26C556.539 332.18 556.779 332.14 557.019 332.14C557.632 332.14 558.206 332.253 558.739 332.48C559.272 332.707 559.732 333.027 560.119 333.44C560.519 333.84 560.832 334.307 561.059 334.84C561.286 335.373 561.399 335.953 561.399 336.58C561.399 337.447 561.192 338.233 560.779 338.94C560.366 339.633 559.799 340.187 559.079 340.6C558.359 341 557.552 341.2 556.659 341.2ZM565.005 341L574.305 327H575.885L566.545 341H565.005ZM566.045 334.42C565.445 334.42 564.912 334.26 564.445 333.94C563.992 333.607 563.632 333.16 563.365 332.6C563.112 332.027 562.985 331.373 562.985 330.64C562.985 329.907 563.112 329.253 563.365 328.68C563.632 328.093 563.998 327.64 564.465 327.32C564.932 326.987 565.465 326.82 566.065 326.82C566.665 326.82 567.192 326.987 567.645 327.32C568.112 327.64 568.472 328.093 568.725 328.68C568.992 329.253 569.125 329.907 569.125 330.64C569.125 331.347 568.992 331.987 568.725 332.56C568.458 333.133 568.092 333.587 567.625 333.92C567.158 334.253 566.632 334.42 566.045 334.42ZM566.065 333.22C566.425 333.22 566.732 333.12 566.985 332.92C567.252 332.707 567.452 332.407 567.585 332.02C567.732 331.633 567.805 331.167 567.805 330.62C567.805 330.087 567.732 329.627 567.585 329.24C567.452 328.853 567.252 328.553 566.985 328.34C566.718 328.127 566.405 328.02 566.045 328.02C565.685 328.02 565.372 328.133 565.105 328.36C564.838 328.573 564.632 328.873 564.485 329.26C564.352 329.647 564.285 330.107 564.285 330.64C564.285 331.173 564.352 331.633 564.485 332.02C564.632 332.407 564.838 332.707 565.105 332.92C565.372 333.12 565.692 333.22 566.065 333.22ZM574.905 341.18C574.305 341.18 573.772 341.02 573.305 340.7C572.852 340.367 572.492 339.92 572.225 339.36C571.958 338.787 571.825 338.133 571.825 337.4C571.825 336.667 571.952 336.013 572.205 335.44C572.472 334.853 572.838 334.4 573.305 334.08C573.772 333.747 574.305 333.58 574.905 333.58C575.505 333.58 576.032 333.747 576.485 334.08C576.952 334.4 577.312 334.853 577.565 335.44C577.832 336.013 577.965 336.667 577.965 337.4C577.965 338.107 577.832 338.747 577.565 339.32C577.298 339.893 576.932 340.347 576.465 340.68C576.012 341.013 575.492 341.18 574.905 341.18ZM574.905 339.98C575.265 339.98 575.578 339.88 575.845 339.68C576.112 339.467 576.312 339.167 576.445 338.78C576.592 338.393 576.665 337.927 576.665 337.38C576.665 336.847 576.592 336.387 576.445 336C576.312 335.613 576.112 335.313 575.845 335.1C575.578 334.887 575.265 334.78 574.905 334.78C574.532 334.78 574.212 334.887 573.945 335.1C573.692 335.313 573.492 335.62 573.345 336.02C573.212 336.407 573.145 336.867 573.145 337.4C573.145 337.933 573.212 338.393 573.345 338.78C573.492 339.167 573.692 339.467 573.945 339.68C574.212 339.88 574.532 339.98 574.905 339.98Z" fill="white"/>
<path d="M229.06 377V363H234.6C235.333 363 235.993 363.18 236.58 363.54C237.167 363.9 237.633 364.4 237.98 365.04C238.327 365.667 238.5 366.373 238.5 367.16C238.5 367.987 238.327 368.727 237.98 369.38C237.633 370.02 237.167 370.533 236.58 370.92C235.993 371.293 235.333 371.48 234.6 371.48H230.62V377H229.06ZM230.62 369.96H234.68C235.093 369.96 235.46 369.84 235.78 369.6C236.113 369.347 236.38 369.013 236.58 368.6C236.78 368.173 236.88 367.687 236.88 367.14C236.88 366.647 236.78 366.207 236.58 365.82C236.38 365.42 236.113 365.107 235.78 364.88C235.46 364.64 235.093 364.52 234.68 364.52H230.62V369.96ZM245.326 377.2C244.286 377.2 243.359 376.967 242.546 376.5C241.746 376.033 241.113 375.387 240.646 374.56C240.193 373.733 239.966 372.793 239.966 371.74C239.966 370.7 240.193 369.773 240.646 368.96C241.113 368.147 241.746 367.507 242.546 367.04C243.359 366.573 244.286 366.34 245.326 366.34C246.353 366.34 247.266 366.573 248.066 367.04C248.879 367.507 249.513 368.147 249.966 368.96C250.433 369.773 250.666 370.7 250.666 371.74C250.666 372.793 250.433 373.733 249.966 374.56C249.513 375.387 248.879 376.033 248.066 376.5C247.266 376.967 246.353 377.2 245.326 377.2ZM245.326 375.78C246.059 375.78 246.713 375.607 247.286 375.26C247.859 374.9 248.306 374.42 248.626 373.82C248.946 373.207 249.106 372.513 249.106 371.74C249.106 370.967 248.946 370.28 248.626 369.68C248.306 369.08 247.859 368.613 247.286 368.28C246.713 367.933 246.059 367.76 245.326 367.76C244.593 367.76 243.933 367.933 243.346 368.28C242.773 368.613 242.319 369.087 241.986 369.7C241.666 370.3 241.513 370.98 241.526 371.74C241.513 372.513 241.666 373.207 241.986 373.82C242.319 374.42 242.773 374.9 243.346 375.26C243.933 375.607 244.593 375.78 245.326 375.78ZM257.475 377.2C256.435 377.2 255.508 376.967 254.695 376.5C253.895 376.033 253.261 375.387 252.795 374.56C252.341 373.733 252.115 372.793 252.115 371.74C252.115 370.7 252.341 369.773 252.795 368.96C253.261 368.147 253.895 367.507 254.695 367.04C255.508 366.573 256.435 366.34 257.475 366.34C258.501 366.34 259.415 366.573 260.215 367.04C261.028 367.507 261.661 368.147 262.115 368.96C262.581 369.773 262.815 370.7 262.815 371.74C262.815 372.793 262.581 373.733 262.115 374.56C261.661 375.387 261.028 376.033 260.215 376.5C259.415 376.967 258.501 377.2 257.475 377.2ZM257.475 375.78C258.208 375.78 258.861 375.607 259.435 375.26C260.008 374.9 260.455 374.42 260.775 373.82C261.095 373.207 261.255 372.513 261.255 371.74C261.255 370.967 261.095 370.28 260.775 369.68C260.455 369.08 260.008 368.613 259.435 368.28C258.861 367.933 258.208 367.76 257.475 367.76C256.741 367.76 256.081 367.933 255.495 368.28C254.921 368.613 254.468 369.087 254.135 369.7C253.815 370.3 253.661 370.98 253.675 371.74C253.661 372.513 253.815 373.207 254.135 373.82C254.468 374.42 254.921 374.9 255.495 375.26C256.081 375.607 256.741 375.78 257.475 375.78ZM263.543 380.92L262.943 379.72C263.49 379.72 263.93 379.627 264.263 379.44C264.61 379.267 264.856 378.993 265.003 378.62C265.163 378.26 265.243 377.813 265.243 377.28V366.56H266.763V377.72C266.763 378.36 266.63 378.92 266.363 379.4C266.096 379.88 265.723 380.253 265.243 380.52C264.763 380.787 264.196 380.92 263.543 380.92ZM266.023 364.3C265.663 364.3 265.383 364.207 265.183 364.02C264.983 363.82 264.883 363.553 264.883 363.22C264.883 362.887 264.983 362.62 265.183 362.42C265.383 362.22 265.663 362.12 266.023 362.12C266.383 362.12 266.663 362.22 266.863 362.42C267.063 362.607 267.163 362.873 267.163 363.22C267.163 363.54 267.063 363.8 266.863 364C266.663 364.2 266.383 364.3 266.023 364.3ZM273.81 377.2C272.903 377.2 272.083 376.967 271.35 376.5C270.616 376.02 270.036 375.373 269.61 374.56C269.183 373.733 268.97 372.8 268.97 371.76C268.97 370.707 269.19 369.773 269.63 368.96C270.07 368.147 270.656 367.507 271.39 367.04C272.136 366.573 272.97 366.34 273.89 366.34C274.436 366.34 274.943 366.42 275.41 366.58C275.876 366.74 276.29 366.967 276.65 367.26C277.023 367.54 277.33 367.873 277.57 368.26C277.823 368.633 277.996 369.04 278.09 369.48L277.65 369.26L277.71 366.56H279.21V377H277.69V374.44L278.09 374.18C277.996 374.58 277.816 374.967 277.55 375.34C277.283 375.7 276.956 376.02 276.57 376.3C276.196 376.58 275.77 376.8 275.29 376.96C274.823 377.12 274.33 377.2 273.81 377.2ZM274.15 375.76C274.843 375.76 275.463 375.593 276.01 375.26C276.556 374.913 276.983 374.44 277.29 373.84C277.61 373.227 277.77 372.533 277.77 371.76C277.77 370.987 277.61 370.3 277.29 369.7C276.983 369.1 276.556 368.627 276.01 368.28C275.463 367.933 274.843 367.76 274.15 367.76C273.443 367.76 272.816 367.933 272.27 368.28C271.736 368.627 271.31 369.1 270.99 369.7C270.683 370.3 270.53 370.987 270.53 371.76C270.53 372.52 270.683 373.207 270.99 373.82C271.296 374.42 271.723 374.893 272.27 375.24C272.816 375.587 273.443 375.76 274.15 375.76Z" fill="white"/>
<path d="M544.859 376.32V364.24L545.439 364.68L542.839 366.24L542.379 364.84L545.839 362.8H546.439V376.32H544.859ZM542.799 377V375.48H548.539V377H542.799ZM555.999 377.2C554.906 377.2 553.972 376.913 553.199 376.34C552.439 375.767 551.852 374.947 551.439 373.88C551.039 372.8 550.839 371.507 550.839 370C550.839 368.493 551.039 367.207 551.439 366.14C551.852 365.06 552.439 364.233 553.199 363.66C553.972 363.087 554.906 362.8 555.999 362.8C557.079 362.8 558.006 363.087 558.779 363.66C559.552 364.233 560.139 365.06 560.539 366.14C560.952 367.207 561.159 368.493 561.159 370C561.159 371.507 560.952 372.8 560.539 373.88C560.139 374.947 559.552 375.767 558.779 376.34C558.006 376.913 557.079 377.2 555.999 377.2ZM555.999 375.74C557.146 375.74 558.026 375.24 558.639 374.24C559.266 373.24 559.579 371.827 559.579 370C559.579 368.173 559.266 366.76 558.639 365.76C558.026 364.76 557.146 364.26 555.999 364.26C554.839 364.26 553.946 364.76 553.319 365.76C552.706 366.76 552.399 368.173 552.399 370C552.399 371.827 552.706 373.24 553.319 374.24C553.946 375.24 554.839 375.74 555.999 375.74ZM565.005 377L574.305 363H575.885L566.545 377H565.005ZM566.045 370.42C565.445 370.42 564.912 370.26 564.445 369.94C563.992 369.607 563.632 369.16 563.365 368.6C563.112 368.027 562.985 367.373 562.985 366.64C562.985 365.907 563.112 365.253 563.365 364.68C563.632 364.093 563.998 363.64 564.465 363.32C564.932 362.987 565.465 362.82 566.065 362.82C566.665 362.82 567.192 362.987 567.645 363.32C568.112 363.64 568.472 364.093 568.725 364.68C568.992 365.253 569.125 365.907 569.125 366.64C569.125 367.347 568.992 367.987 568.725 368.56C568.458 369.133 568.092 369.587 567.625 369.92C567.158 370.253 566.632 370.42 566.045 370.42ZM566.065 369.22C566.425 369.22 566.732 369.12 566.985 368.92C567.252 368.707 567.452 368.407 567.585 368.02C567.732 367.633 567.805 367.167 567.805 366.62C567.805 366.087 567.732 365.627 567.585 365.24C567.452 364.853 567.252 364.553 566.985 364.34C566.718 364.127 566.405 364.02 566.045 364.02C565.685 364.02 565.372 364.133 565.105 364.36C564.838 364.573 564.632 364.873 564.485 365.26C564.352 365.647 564.285 366.107 564.285 366.64C564.285 367.173 564.352 367.633 564.485 368.02C564.632 368.407 564.838 368.707 565.105 368.92C565.372 369.12 565.692 369.22 566.065 369.22ZM574.905 377.18C574.305 377.18 573.772 377.02 573.305 376.7C572.852 376.367 572.492 375.92 572.225 375.36C571.958 374.787 571.825 374.133 571.825 373.4C571.825 372.667 571.952 372.013 572.205 371.44C572.472 370.853 572.838 370.4 573.305 370.08C573.772 369.747 574.305 369.58 574.905 369.58C575.505 369.58 576.032 369.747 576.485 370.08C576.952 370.4 577.312 370.853 577.565 371.44C577.832 372.013 577.965 372.667 577.965 373.4C577.965 374.107 577.832 374.747 577.565 375.32C577.298 375.893 576.932 376.347 576.465 376.68C576.012 377.013 575.492 377.18 574.905 377.18ZM574.905 375.98C575.265 375.98 575.578 375.88 575.845 375.68C576.112 375.467 576.312 375.167 576.445 374.78C576.592 374.393 576.665 373.927 576.665 373.38C576.665 372.847 576.592 372.387 576.445 372C576.312 371.613 576.112 371.313 575.845 371.1C575.578 370.887 575.265 370.78 574.905 370.78C574.532 370.78 574.212 370.887 573.945 371.1C573.692 371.313 573.492 371.62 573.345 372.02C573.212 372.407 573.145 372.867 573.145 373.4C573.145 373.933 573.212 374.393 573.345 374.78C573.492 375.167 573.692 375.467 573.945 375.68C574.212 375.88 574.532 375.98 574.905 375.98Z" fill="white"/>
</g>
<defs>
<filter id="filter0_ddd_3550_114071" x="0" y="0" width="274" height="138" filterUnits="userSpaceOnUse" color-interpolation-filters="sRGB">
<feFlood flood-opacity="0" result="BackgroundImageFix"/>
<feColorMatrix in="SourceAlpha" type="matrix" values="0 0 0 0 0 0 0 0 0 0 0 0 0 0 0 0 0 0 127 0" result="hardAlpha"/>
<feMorphology radius="1" operator="dilate" in="SourceAlpha" result="effect1_dropShadow_3550_114071"/>
<feOffset/>
<feComposite in2="hardAlpha" operator="out"/>
<feColorMatrix type="matrix" values="0 0 0 0 0.0627451 0 0 0 0 0.0980392 0 0 0 0 0.156863 0 0 0 0.05 0"/>
<feBlend mode="normal" in2="BackgroundImageFix" result="effect1_dropShadow_3550_114071"/>
<feColorMatrix in="SourceAlpha" type="matrix" values="0 0 0 0 0 0 0 0 0 0 0 0 0 0 0 0 0 0 127 0" result="hardAlpha"/>
<feOffset dy="2"/>
<feGaussianBlur stdDeviation="3.5"/>
<feComposite in2="hardAlpha" operator="out"/>
<feColorMatrix type="matrix" values="0 0 0 0 0.0627451 0 0 0 0 0.0980392 0 0 0 0 0.156863 0 0 0 0.05 0"/>
<feBlend mode="normal" in2="effect1_dropShadow_3550_114071" result="effect2_dropShadow_3550_114071"/>
<feColorMatrix in="SourceAlpha" type="matrix" values="0 0 0 0 0 0 0 0 0 0 0 0 0 0 0 0 0 0 127 0" result="hardAlpha"/>
<feMorphology radius="2" operator="erode" in="SourceAlpha" result="effect3_dropShadow_3550_114071"/>
<feOffset dy="2"/>
<feGaussianBlur stdDeviation="2.5"/>
<feComposite in2="hardAlpha" operator="out"/>
<feColorMatrix type="matrix" values="0 0 0 0 0.0627451 0 0 0 0 0.0980392 0 0 0 0 0.156863 0 0 0 0.06 0"/>
<feBlend mode="normal" in2="effect2_dropShadow_3550_114071" result="effect3_dropShadow_3550_114071"/>
<feBlend mode="normal" in="SourceGraphic" in2="effect3_dropShadow_3550_114071" result="shape"/>
</filter>
<filter id="filter1_ddd_3550_114071" x="196" y="144" width="414" height="270" filterUnits="userSpaceOnUse" color-interpolation-filters="sRGB">
<feFlood flood-opacity="0" result="BackgroundImageFix"/>
<feColorMatrix in="SourceAlpha" type="matrix" values="0 0 0 0 0 0 0 0 0 0 0 0 0 0 0 0 0 0 127 0" result="hardAlpha"/>
<feMorphology radius="1" operator="dilate" in="SourceAlpha" result="effect1_dropShadow_3550_114071"/>
<feOffset/>
<feComposite in2="hardAlpha" operator="out"/>
<feColorMatrix type="matrix" values="0 0 0 0 0.0627451 0 0 0 0 0.0980392 0 0 0 0 0.156863 0 0 0 0.05 0"/>
<feBlend mode="normal" in2="BackgroundImageFix" result="effect1_dropShadow_3550_114071"/>
<feColorMatrix in="SourceAlpha" type="matrix" values="0 0 0 0 0 0 0 0 0 0 0 0 0 0 0 0 0 0 127 0" result="hardAlpha"/>
<feOffset dy="2"/>
<feGaussianBlur stdDeviation="3.5"/>
<feComposite in2="hardAlpha" operator="out"/>
<feColorMatrix type="matrix" values="0 0 0 0 0.0627451 0 0 0 0 0.0980392 0 0 0 0 0.156863 0 0 0 0.05 0"/>
<feBlend mode="normal" in2="effect1_dropShadow_3550_114071" result="effect2_dropShadow_3550_114071"/>
<feColorMatrix in="SourceAlpha" type="matrix" values="0 0 0 0 0 0 0 0 0 0 0 0 0 0 0 0 0 0 127 0" result="hardAlpha"/>
<feMorphology radius="2" operator="erode" in="SourceAlpha" result="effect3_dropShadow_3550_114071"/>
<feOffset dy="2"/>
<feGaussianBlur stdDeviation="2.5"/>
<feComposite in2="hardAlpha" operator="out"/>
<feColorMatrix type="matrix" values="0 0 0 0 0.0627451 0 0 0 0 0.0980392 0 0 0 0 0.156863 0 0 0 0.06 0"/>
<feBlend mode="normal" in2="effect2_dropShadow_3550_114071" result="effect3_dropShadow_3550_114071"/>
<feBlend mode="normal" in="SourceGraphic" in2="effect3_dropShadow_3550_114071" result="shape"/>
</filter>
<linearGradient id="paint0_linear_3550_114071" x1="-57.0972" y1="-43.1807" x2="231.897" y2="191.572" gradientUnits="userSpaceOnUse">
<stop stop-color="white"/>
<stop offset="1" stop-color="white" stop-opacity="0"/>
</linearGradient>
<linearGradient id="paint1_linear_3550_114071" x1="-281.889" y1="-132.446" x2="212.071" y2="204.336" gradientUnits="userSpaceOnUse">
<stop stop-color="white"/>
<stop offset="1" stop-color="white" stop-opacity="0"/>
</linearGradient>
<linearGradient id="paint2_linear_3550_114071" x1="104.389" y1="49.5301" x2="644.47" y2="376.456" gradientUnits="userSpaceOnUse">
<stop stop-color="white"/>
<stop offset="1" stop-color="white" stop-opacity="0"/>
</linearGradient>
<linearGradient id="paint3_linear_3550_114071" x1="-241.444" y1="-134.759" x2="643.352" y2="314.782" gradientUnits="userSpaceOnUse">
<stop stop-color="white"/>
<stop offset="1" stop-color="white" stop-opacity="0"/>
</linearGradient>
</defs>
</svg>
