<svg width="48" height="48" viewBox="0 0 48 48" fill="none" xmlns="http://www.w3.org/2000/svg">
<path fill-rule="evenodd" clip-rule="evenodd" d="M10.5 26L8.5 9H41.2602L38.3755 21.3634C37.7418 24.0789 35.3209 26 32.5324 26H10.5ZM25.5 15H22.5V20H25.5V15ZM18.5 15V20H15.5V15H18.5ZM32.5 15H29.5V20H32.5V15Z" fill="white"/>
<path d="M11 46C13.7614 46 16 43.7614 16 41C16 38.2386 13.7614 36 11 36C8.23858 36 6 38.2386 6 41C6 43.7614 8.23858 46 11 46Z" fill="white"/>
<path d="M37 46C39.7614 46 42 43.7614 42 41C42 38.2386 39.7614 36 37 36C34.2386 36 32 38.2386 32 41C32 43.7614 34.2386 46 37 46Z" fill="white"/>
<path fill-rule="evenodd" clip-rule="evenodd" d="M2 2H5.33845C7.32441 2 9.00963 3.45708 9.2965 5.42221L12.2955 25.9667L9.07567 28.7426C8.37357 29.3479 8.80163 30.5 9.72863 30.5H42V33.5H9.72863C6.02065 33.5 4.30839 28.8916 7.1168 26.4704L9.08907 24.7701L6.32796 5.85555C6.25624 5.36427 5.83494 5 5.33845 5H2V2Z" fill="white"/>
<path d="M24.5859 7.00024L30.0002 1.58594L35.4145 7.00024H24.5859Z" fill="white"/>
<path d="M12.082 7C12.5581 4.16229 15.0261 2 17.999 2C20.972 2 23.44 4.16229 23.9161 7H12.082Z" fill="white"/>
</svg>
