<svg width="40" height="41" viewBox="0 0 40 41" fill="none" xmlns="http://www.w3.org/2000/svg">
<path d="M3.88892 8.58333C3.88892 6.74238 5.38129 5.25 7.22225 5.25C9.0632 5.25 10.5556 6.74238 10.5556 8.58333V15.25H4.36512C4.10212 15.25 3.88892 15.0368 3.88892 14.7738V8.58333Z" fill="white"/>
<path d="M17.2551 28.584H36.1109V33.0284C36.1109 34.2558 35.116 35.2507 33.8887 35.2507H17.2551V28.584Z" fill="white"/>
<path d="M32.7778 35.25C34.6178 35.25 36.1111 33.7567 36.1111 31.9167V29.6944C36.1111 29.0811 35.6134 28.5833 35 28.5833H18.3334C17.72 28.5833 17.2222 29.0811 17.2222 29.6944V31.9167C17.2222 33.7567 15.7289 35.25 13.8889 35.25C12.0489 35.25 10.5556 33.7567 10.5556 31.9167V8.58333C10.5556 6.74333 9.06225 5.25 7.22225 5.25C5.38225 5.25 3.88892 6.74333 3.88892 8.58333V13.0278C3.88892 14.2544 4.88447 15.25 6.11114 15.25H10.5556" stroke="white" stroke-linecap="round" stroke-linejoin="round"/>
<path d="M32.7778 35.25H13.8889" stroke="white" stroke-linecap="round" stroke-linejoin="round"/>
<path d="M7.22229 5.25H28.3334C30.1734 5.25 31.6667 6.74333 31.6667 8.58333V23.0278" stroke="white" stroke-linecap="round" stroke-linejoin="round"/>
<path d="M16.6667 13.0278H25.5556" stroke="white" stroke-linecap="round" stroke-linejoin="round"/>
<path d="M16.6663 19.6953H25.5551" stroke="white" stroke-linecap="round" stroke-linejoin="round"/>
</svg>
