<svg width="702" height="254" viewBox="0 0 702 254" fill="none" xmlns="http://www.w3.org/2000/svg">
<g filter="url(#filter0_ddd_3550_108185)">
<rect x="7" y="5" width="334" height="110" rx="8" fill="url(#paint0_linear_3550_108185)" fill-opacity="0.1" shape-rendering="crispEdges"/>
<rect x="7.5" y="5.5" width="333" height="109" rx="7.5" stroke="url(#paint1_linear_3550_108185)" stroke-opacity="0.1" shape-rendering="crispEdges"/>
<ellipse cx="63" cy="60" rx="24" ry="24" transform="rotate(-180 63 60)" fill="#4AA44D"/>
<g clip-path="url(#clip0_3550_108185)">
<path d="M63 48C56.4 48 51 53.4 51 60C51 66.6 56.4 72 63 72C69.6 72 75 66.6 75 60C75 53.4 69.6 48 63 48ZM53 60C53 54.8 57 50.6 62 50.1L62 70C57 69.4 53 65.2 53 60Z" fill="white"/>
</g>
<path d="M101.272 52.16C100.483 52.16 99.752 52.0213 99.08 51.744C98.4187 51.456 97.8373 51.056 97.336 50.544C96.8453 50.032 96.4613 49.4293 96.184 48.736C95.9173 48.032 95.784 47.264 95.784 46.432C95.784 45.6 95.9173 44.8373 96.184 44.144C96.4613 43.44 96.8453 42.832 97.336 42.32C97.8373 41.7973 98.4187 41.3973 99.08 41.12C99.752 40.832 100.483 40.688 101.272 40.688C102.072 40.688 102.803 40.832 103.464 41.12C104.136 41.3973 104.717 41.7973 105.208 42.32C105.709 42.832 106.093 43.44 106.36 44.144C106.637 44.8373 106.776 45.6 106.776 46.432C106.776 47.2533 106.637 48.016 106.36 48.72C106.093 49.4133 105.709 50.0213 105.208 50.544C104.717 51.056 104.136 51.456 103.464 51.744C102.803 52.0213 102.072 52.16 101.272 52.16ZM101.272 50.928C101.88 50.928 102.44 50.8213 102.952 50.608C103.475 50.384 103.923 50.0693 104.296 49.664C104.669 49.2587 104.957 48.784 105.16 48.24C105.373 47.6853 105.48 47.0827 105.48 46.432C105.48 45.7707 105.373 45.168 105.16 44.624C104.957 44.0693 104.669 43.5893 104.296 43.184C103.923 42.7787 103.475 42.464 102.952 42.24C102.44 42.016 101.88 41.904 101.272 41.904C100.664 41.904 100.099 42.016 99.576 42.24C99.064 42.464 98.6213 42.7787 98.248 43.184C97.8747 43.5893 97.5867 44.0693 97.384 44.624C97.1813 45.168 97.08 45.7707 97.08 46.432C97.08 47.0827 97.1813 47.6853 97.384 48.24C97.5867 48.784 97.8747 49.2587 98.248 49.664C98.6213 50.0693 99.064 50.384 99.576 50.608C100.099 50.8213 100.664 50.928 101.272 50.928ZM112.41 52V40.8H116.843C117.429 40.8 117.957 40.944 118.427 41.232C118.896 41.52 119.269 41.92 119.547 42.432C119.824 42.9333 119.963 43.4987 119.963 44.128C119.963 44.7893 119.824 45.3813 119.547 45.904C119.269 46.416 118.896 46.8267 118.427 47.136C117.957 47.4347 117.429 47.584 116.843 47.584H113.658V52H112.41ZM113.658 46.368H116.906C117.237 46.368 117.531 46.272 117.786 46.08C118.053 45.8773 118.267 45.6107 118.427 45.28C118.587 44.9387 118.667 44.5493 118.667 44.112C118.667 43.7173 118.587 43.3653 118.427 43.056C118.267 42.736 118.053 42.4853 117.786 42.304C117.531 42.112 117.237 42.016 116.906 42.016H113.658V46.368ZM125.564 52V40.8H132.348V42.016H126.812V50.784H132.316V52H125.564ZM126.14 46.848V45.632H131.452V46.848H126.14ZM138.342 52V40.8H139.478L146.806 50.496L146.582 50.784C146.55 50.6133 146.523 50.3573 146.502 50.016C146.491 49.6747 146.475 49.2907 146.454 48.864C146.443 48.4267 146.432 47.9733 146.422 47.504C146.411 47.0347 146.4 46.576 146.39 46.128C146.39 45.68 146.39 45.2747 146.39 44.912V40.8H147.638V52H146.47L139.174 42.432L139.366 42.096C139.398 42.5227 139.424 42.944 139.446 43.36C139.478 43.776 139.499 44.176 139.51 44.56C139.531 44.944 139.547 45.296 139.558 45.616C139.568 45.936 139.574 46.208 139.574 46.432C139.584 46.656 139.59 46.816 139.59 46.912V52H138.342ZM153.607 52V50.816H155.415V41.984H153.607V40.8H158.471V41.984H156.663V50.816H158.471V52H153.607ZM164.445 52V40.8H165.581L172.909 50.496L172.685 50.784C172.653 50.6133 172.626 50.3573 172.605 50.016C172.594 49.6747 172.578 49.2907 172.557 48.864C172.546 48.4267 172.536 47.9733 172.525 47.504C172.514 47.0347 172.504 46.576 172.493 46.128C172.493 45.68 172.493 45.2747 172.493 44.912V40.8H173.741V52H172.573L165.277 42.432L165.469 42.096C165.501 42.5227 165.528 42.944 165.549 43.36C165.581 43.776 165.602 44.176 165.613 44.56C165.634 44.944 165.65 45.296 165.661 45.616C165.672 45.936 165.677 46.208 165.677 46.432C165.688 46.656 165.693 46.816 165.693 46.912V52H164.445ZM185.199 52.16C184.377 52.16 183.615 52.016 182.911 51.728C182.207 51.44 181.588 51.04 181.055 50.528C180.521 50.016 180.105 49.4133 179.807 48.72C179.519 48.016 179.375 47.2533 179.375 46.432C179.375 45.6107 179.519 44.8533 179.807 44.16C180.105 43.456 180.511 42.848 181.023 42.336C181.545 41.824 182.153 41.4293 182.847 41.152C183.551 40.864 184.303 40.72 185.103 40.72C185.668 40.72 186.223 40.8 186.767 40.96C187.321 41.12 187.823 41.344 188.271 41.632C188.719 41.92 189.081 42.2453 189.359 42.608L188.527 43.456C188.228 43.1467 187.892 42.88 187.519 42.656C187.145 42.432 186.751 42.256 186.335 42.128C185.929 42 185.524 41.936 185.119 41.936C184.489 41.936 183.903 42.048 183.359 42.272C182.825 42.496 182.356 42.8107 181.951 43.216C181.545 43.6107 181.231 44.0853 181.007 44.64C180.783 45.184 180.671 45.7813 180.671 46.432C180.671 47.0613 180.783 47.6533 181.007 48.208C181.241 48.752 181.567 49.232 181.983 49.648C182.409 50.0533 182.9 50.368 183.455 50.592C184.009 50.816 184.607 50.928 185.247 50.928C185.748 50.928 186.217 50.8533 186.655 50.704C187.103 50.5547 187.492 50.3467 187.823 50.08C188.153 49.8027 188.409 49.4827 188.591 49.12C188.772 48.7573 188.863 48.368 188.863 47.952V47.392L189.119 47.712H185.183V46.48H190.111C190.121 46.5653 190.132 46.6667 190.143 46.784C190.153 46.8907 190.159 47.0027 190.159 47.12C190.169 47.2267 190.175 47.328 190.175 47.424C190.175 48.1173 190.047 48.7573 189.791 49.344C189.535 49.92 189.177 50.4213 188.719 50.848C188.271 51.264 187.748 51.5893 187.151 51.824C186.553 52.048 185.903 52.16 185.199 52.16ZM203.342 52V40.8H207.886C208.536 40.8 209.096 40.9173 209.566 41.152C210.046 41.376 210.414 41.7013 210.67 42.128C210.926 42.544 211.054 43.04 211.054 43.616C211.054 44.2347 210.878 44.768 210.526 45.216C210.174 45.6533 209.694 45.9573 209.086 46.128L209.054 45.824C209.576 45.92 210.03 46.1067 210.414 46.384C210.798 46.6507 211.096 46.9813 211.31 47.376C211.534 47.7707 211.646 48.2133 211.646 48.704C211.646 49.2053 211.56 49.6587 211.39 50.064C211.219 50.4693 210.974 50.816 210.654 51.104C210.344 51.392 209.966 51.616 209.518 51.776C209.08 51.9253 208.59 52 208.046 52H203.342ZM204.59 50.784H207.95C208.43 50.784 208.846 50.704 209.198 50.544C209.56 50.3733 209.838 50.1333 210.03 49.824C210.232 49.5147 210.334 49.1573 210.334 48.752C210.334 48.368 210.227 48.032 210.014 47.744C209.811 47.456 209.523 47.232 209.15 47.072C208.787 46.912 208.36 46.832 207.87 46.832H204.59V50.784ZM204.59 45.616H207.79C208.174 45.616 208.515 45.5413 208.814 45.392C209.112 45.232 209.347 45.0187 209.518 44.752C209.688 44.4747 209.774 44.1653 209.774 43.824C209.774 43.28 209.587 42.8427 209.214 42.512C208.851 42.1813 208.339 42.016 207.678 42.016H204.59V45.616ZM216.028 52L220.316 40.8H221.74L225.996 52H224.636L221.9 44.736C221.825 44.5333 221.74 44.2987 221.644 44.032C221.559 43.7547 221.463 43.472 221.356 43.184C221.26 42.8853 221.164 42.5973 221.068 42.32C220.983 42.0427 220.903 41.7973 220.828 41.584H221.148C221.063 41.8507 220.972 42.1227 220.876 42.4C220.791 42.6667 220.7 42.9387 220.604 43.216C220.508 43.4827 220.412 43.7493 220.316 44.016C220.22 44.2827 220.124 44.5493 220.028 44.816L217.308 52H216.028ZM217.852 48.912L218.316 47.696H223.612L224.124 48.912H217.852ZM231.242 52V40.8H232.49V50.784H237.866V52H231.242ZM242.256 52L246.544 40.8H247.968L252.224 52H250.864L248.128 44.736C248.054 44.5333 247.968 44.2987 247.872 44.032C247.787 43.7547 247.691 43.472 247.584 43.184C247.488 42.8853 247.392 42.5973 247.296 42.32C247.211 42.0427 247.131 41.7973 247.056 41.584H247.376C247.291 41.8507 247.2 42.1227 247.104 42.4C247.019 42.6667 246.928 42.9387 246.832 43.216C246.736 43.4827 246.64 43.7493 246.544 44.016C246.448 44.2827 246.352 44.5493 246.256 44.816L243.536 52H242.256ZM244.08 48.912L244.544 47.696H249.84L250.352 48.912H244.08ZM257.47 52V40.8H258.606L265.934 50.496L265.71 50.784C265.678 50.6133 265.651 50.3573 265.63 50.016C265.619 49.6747 265.603 49.2907 265.582 48.864C265.571 48.4267 265.561 47.9733 265.55 47.504C265.539 47.0347 265.529 46.576 265.518 46.128C265.518 45.68 265.518 45.2747 265.518 44.912V40.8H266.766V52H265.598L258.302 42.432L258.494 42.096C258.526 42.5227 258.553 42.944 258.574 43.36C258.606 43.776 258.627 44.176 258.638 44.56C258.659 44.944 258.675 45.296 258.686 45.616C258.697 45.936 258.702 46.208 258.702 46.432C258.713 46.656 258.718 46.816 258.718 46.912V52H257.47ZM277.904 52.16C277.104 52.16 276.368 52.0213 275.696 51.744C275.024 51.456 274.442 51.056 273.952 50.544C273.461 50.0213 273.077 49.408 272.8 48.704C272.533 48 272.4 47.232 272.4 46.4C272.4 45.5787 272.533 44.8267 272.8 44.144C273.077 43.4507 273.466 42.848 273.968 42.336C274.469 41.8133 275.05 41.4133 275.712 41.136C276.373 40.8587 277.098 40.72 277.888 40.72C278.41 40.72 278.928 40.8053 279.44 40.976C279.952 41.136 280.421 41.36 280.848 41.648C281.285 41.936 281.642 42.2667 281.92 42.64L281.056 43.536C280.789 43.216 280.48 42.9387 280.128 42.704C279.786 42.4693 279.424 42.288 279.04 42.16C278.656 42.032 278.272 41.968 277.888 41.968C277.29 41.968 276.73 42.08 276.208 42.304C275.696 42.5173 275.253 42.8213 274.88 43.216C274.506 43.6107 274.213 44.08 274 44.624C273.797 45.168 273.696 45.76 273.696 46.4C273.696 47.0613 273.797 47.6693 274 48.224C274.213 48.7787 274.512 49.2587 274.896 49.664C275.29 50.0587 275.749 50.368 276.272 50.592C276.805 50.8053 277.397 50.912 278.048 50.912C278.432 50.912 278.816 50.8587 279.2 50.752C279.584 50.6347 279.936 50.4747 280.256 50.272C280.576 50.0693 280.848 49.84 281.072 49.584L281.712 50.624C281.466 50.9227 281.136 51.1893 280.72 51.424C280.314 51.648 279.866 51.8293 279.376 51.968C278.885 52.096 278.394 52.16 277.904 52.16ZM287.276 52V40.8H294.06V42.016H288.524V50.784H294.028V52H287.276ZM287.852 46.848V45.632H293.164V46.848H287.852Z" fill="white"/>
<path d="M97.72 75.92L96.68 74.816V74.096H98.6C99.0373 74.096 99.3893 73.952 99.656 73.664C99.9227 73.3653 100.056 72.9867 100.056 72.528C100.056 72.208 99.9813 71.9307 99.832 71.696C99.6933 71.4613 99.4907 71.28 99.224 71.152C98.9573 71.0133 98.648 70.944 98.296 70.944H95.784V68.864H103.8V70.688H100.392L99 69.504C99.4587 69.568 99.896 69.68 100.312 69.84C100.728 69.9893 101.096 70.192 101.416 70.448C101.736 70.6933 101.987 70.9867 102.168 71.328C102.349 71.6693 102.44 72.0587 102.44 72.496C102.44 72.976 102.344 73.424 102.152 73.84C101.96 74.2453 101.693 74.608 101.352 74.928C101.021 75.2373 100.627 75.4827 100.168 75.664C99.72 75.8347 99.2347 75.92 98.712 75.92H97.72ZM100.232 80.064L96.712 74.832L99.176 74.432L103.016 80.08L100.232 80.064ZM98.232 73.152V71.904H103.832V73.152H98.232ZM115.459 80V70.944L116.579 71.008L112.643 75.824L112.371 75.424H119.635V77.456H111.203L110.211 75.568L115.859 68.736H117.779V80H115.459ZM125.77 80.16C124.81 80.16 123.988 79.9307 123.306 79.472C122.634 79.0133 122.116 78.3573 121.754 77.504C121.402 76.64 121.226 75.6053 121.226 74.4C121.226 73.1947 121.402 72.1653 121.754 71.312C122.116 70.448 122.634 69.7867 123.306 69.328C123.988 68.8693 124.81 68.64 125.77 68.64C126.73 68.64 127.551 68.8693 128.234 69.328C128.916 69.7867 129.434 70.448 129.786 71.312C130.148 72.1653 130.33 73.1947 130.33 74.4C130.33 75.6053 130.148 76.64 129.786 77.504C129.434 78.3573 128.916 79.0133 128.234 79.472C127.551 79.9307 126.73 80.16 125.77 80.16ZM125.77 78.096C126.484 78.096 127.039 77.776 127.434 77.136C127.828 76.496 128.026 75.584 128.026 74.4C128.026 73.1947 127.828 72.2667 127.434 71.616C127.039 70.9653 126.484 70.64 125.77 70.64C125.044 70.64 124.484 70.9653 124.09 71.616C123.706 72.2667 123.514 73.1947 123.514 74.4C123.514 75.584 123.706 76.496 124.09 77.136C124.484 77.776 125.044 78.096 125.77 78.096ZM132.703 83.088L131.999 82.24C132.415 82.0373 132.746 81.792 132.991 81.504C133.247 81.216 133.375 80.9653 133.375 80.752C133.375 80.656 133.348 80.5547 133.295 80.448C133.242 80.3413 133.124 80.208 132.943 80.048C132.708 79.8667 132.548 79.696 132.463 79.536C132.388 79.3653 132.351 79.184 132.351 78.992C132.351 78.6827 132.463 78.4373 132.687 78.256C132.911 78.0747 133.199 77.984 133.551 77.984C133.839 77.984 134.1 78.0693 134.335 78.24C134.58 78.4 134.772 78.6293 134.911 78.928C135.05 79.216 135.119 79.552 135.119 79.936C135.119 80.2773 135.06 80.608 134.943 80.928C134.826 81.2587 134.655 81.5627 134.431 81.84C134.218 82.128 133.962 82.3787 133.663 82.592C133.375 82.8053 133.055 82.9707 132.703 83.088ZM141.363 80.16C140.403 80.16 139.582 79.9307 138.899 79.472C138.227 79.0133 137.71 78.3573 137.347 77.504C136.995 76.64 136.819 75.6053 136.819 74.4C136.819 73.1947 136.995 72.1653 137.347 71.312C137.71 70.448 138.227 69.7867 138.899 69.328C139.582 68.8693 140.403 68.64 141.363 68.64C142.323 68.64 143.144 68.8693 143.827 69.328C144.51 69.7867 145.027 70.448 145.379 71.312C145.742 72.1653 145.923 73.1947 145.923 74.4C145.923 75.6053 145.742 76.64 145.379 77.504C145.027 78.3573 144.51 79.0133 143.827 79.472C143.144 79.9307 142.323 80.16 141.363 80.16ZM141.363 78.096C142.078 78.096 142.632 77.776 143.027 77.136C143.422 76.496 143.619 75.584 143.619 74.4C143.619 73.1947 143.422 72.2667 143.027 71.616C142.632 70.9653 142.078 70.64 141.363 70.64C140.638 70.64 140.078 70.9653 139.683 71.616C139.299 72.2667 139.107 73.1947 139.107 74.4C139.107 75.584 139.299 76.496 139.683 77.136C140.078 77.776 140.638 78.096 141.363 78.096ZM148.04 80L147.512 78.688L150.824 75.024C151.005 74.832 151.197 74.608 151.4 74.352C151.613 74.096 151.816 73.8347 152.008 73.568C152.211 73.2907 152.371 73.024 152.488 72.768C152.605 72.5013 152.664 72.2613 152.664 72.048C152.664 71.8027 152.611 71.5893 152.504 71.408C152.397 71.216 152.243 71.0667 152.04 70.96C151.837 70.8533 151.587 70.8 151.288 70.8C151.011 70.8 150.749 70.8747 150.504 71.024C150.259 71.1627 150.029 71.3707 149.816 71.648C149.603 71.9253 149.416 72.2613 149.256 72.656L147.464 71.648C147.677 71.0293 147.981 70.4907 148.376 70.032C148.771 69.5733 149.24 69.216 149.784 68.96C150.328 68.704 150.909 68.576 151.528 68.576C152.179 68.5867 152.765 68.7253 153.288 68.992C153.811 69.2587 154.221 69.632 154.52 70.112C154.819 70.592 154.968 71.1467 154.968 71.776C154.968 72.0107 154.941 72.2507 154.888 72.496C154.845 72.7413 154.765 72.9973 154.648 73.264C154.541 73.5307 154.397 73.8133 154.216 74.112C154.045 74.4 153.832 74.7093 153.576 75.04C153.331 75.36 153.048 75.696 152.728 76.048L150.184 78.816L149.864 77.84H155.432V80H148.04ZM157.382 83.088L156.678 82.24C157.094 82.0373 157.424 81.792 157.67 81.504C157.926 81.216 158.054 80.9653 158.054 80.752C158.054 80.656 158.027 80.5547 157.974 80.448C157.92 80.3413 157.803 80.208 157.622 80.048C157.387 79.8667 157.227 79.696 157.142 79.536C157.067 79.3653 157.03 79.184 157.03 78.992C157.03 78.6827 157.142 78.4373 157.366 78.256C157.59 78.0747 157.878 77.984 158.23 77.984C158.518 77.984 158.779 78.0693 159.014 78.24C159.259 78.4 159.451 78.6293 159.59 78.928C159.728 79.216 159.798 79.552 159.798 79.936C159.798 80.2773 159.739 80.608 159.622 80.928C159.504 81.2587 159.334 81.5627 159.11 81.84C158.896 82.128 158.64 82.3787 158.342 82.592C158.054 82.8053 157.734 82.9707 157.382 83.088ZM164.234 79.216V70.128L164.826 71.2L162.49 72.336L162.026 70.208L165.146 68.64H166.602V79.216H164.234ZM162.266 80V77.84H168.618V80H162.266ZM175.033 80.16C174.073 80.16 173.252 79.9307 172.569 79.472C171.897 79.0133 171.38 78.3573 171.017 77.504C170.665 76.64 170.489 75.6053 170.489 74.4C170.489 73.1947 170.665 72.1653 171.017 71.312C171.38 70.448 171.897 69.7867 172.569 69.328C173.252 68.8693 174.073 68.64 175.033 68.64C175.993 68.64 176.815 68.8693 177.497 69.328C178.18 69.7867 178.697 70.448 179.049 71.312C179.412 72.1653 179.593 73.1947 179.593 74.4C179.593 75.6053 179.412 76.64 179.049 77.504C178.697 78.3573 178.18 79.0133 177.497 79.472C176.815 79.9307 175.993 80.16 175.033 80.16ZM175.033 78.096C175.748 78.096 176.303 77.776 176.697 77.136C177.092 76.496 177.289 75.584 177.289 74.4C177.289 73.1947 177.092 72.2667 176.697 71.616C176.303 70.9653 175.748 70.64 175.033 70.64C174.308 70.64 173.748 70.9653 173.353 71.616C172.969 72.2667 172.777 73.1947 172.777 74.4C172.777 75.584 172.969 76.496 173.353 77.136C173.748 77.776 174.308 78.096 175.033 78.096ZM181.711 80L181.183 78.688L184.495 75.024C184.676 74.832 184.868 74.608 185.071 74.352C185.284 74.096 185.487 73.8347 185.679 73.568C185.881 73.2907 186.041 73.024 186.159 72.768C186.276 72.5013 186.335 72.2613 186.335 72.048C186.335 71.8027 186.281 71.5893 186.175 71.408C186.068 71.216 185.913 71.0667 185.711 70.96C185.508 70.8533 185.257 70.8 184.959 70.8C184.681 70.8 184.42 70.8747 184.175 71.024C183.929 71.1627 183.7 71.3707 183.487 71.648C183.273 71.9253 183.087 72.2613 182.927 72.656L181.135 71.648C181.348 71.0293 181.652 70.4907 182.047 70.032C182.441 69.5733 182.911 69.216 183.455 68.96C183.999 68.704 184.58 68.576 185.199 68.576C185.849 68.5867 186.436 68.7253 186.959 68.992C187.481 69.2587 187.892 69.632 188.191 70.112C188.489 70.592 188.639 71.1467 188.639 71.776C188.639 72.0107 188.612 72.2507 188.559 72.496C188.516 72.7413 188.436 72.9973 188.319 73.264C188.212 73.5307 188.068 73.8133 187.887 74.112C187.716 74.4 187.503 74.7093 187.247 75.04C187.001 75.36 186.719 75.696 186.399 76.048L183.855 78.816L183.535 77.84H189.103V80H181.711Z" fill="white"/>
</g>
<g filter="url(#filter1_ddd_3550_108185)">
<rect x="7" y="135" width="334" height="110" rx="8" fill="url(#paint2_linear_3550_108185)" fill-opacity="0.1" shape-rendering="crispEdges"/>
<rect x="7.5" y="135.5" width="333" height="109" rx="7.5" stroke="url(#paint3_linear_3550_108185)" stroke-opacity="0.1" shape-rendering="crispEdges"/>
<circle cx="63" cy="190" r="24" fill="#836DDD"/>
<path d="M63 181.562V198.438" stroke="white" stroke-width="2" stroke-linecap="round" stroke-linejoin="round"/>
<path d="M57.375 192.812L63 198.438L68.625 192.812" stroke="white" stroke-width="2" stroke-linecap="round" stroke-linejoin="round"/>
<path d="M98.68 182V172.016H95.48V170.8H103.256V172.016H99.928V182H98.68ZM112.706 182.16C111.917 182.16 111.186 182.021 110.514 181.744C109.853 181.456 109.272 181.056 108.77 180.544C108.28 180.032 107.896 179.429 107.618 178.736C107.352 178.032 107.218 177.264 107.218 176.432C107.218 175.6 107.352 174.837 107.618 174.144C107.896 173.44 108.28 172.832 108.77 172.32C109.272 171.797 109.853 171.397 110.514 171.12C111.186 170.832 111.917 170.688 112.706 170.688C113.506 170.688 114.237 170.832 114.898 171.12C115.57 171.397 116.152 171.797 116.642 172.32C117.144 172.832 117.528 173.44 117.794 174.144C118.072 174.837 118.21 175.6 118.21 176.432C118.21 177.253 118.072 178.016 117.794 178.72C117.528 179.413 117.144 180.021 116.642 180.544C116.152 181.056 115.57 181.456 114.898 181.744C114.237 182.021 113.506 182.16 112.706 182.16ZM112.706 180.928C113.314 180.928 113.874 180.821 114.386 180.608C114.909 180.384 115.357 180.069 115.73 179.664C116.104 179.259 116.392 178.784 116.594 178.24C116.808 177.685 116.914 177.083 116.914 176.432C116.914 175.771 116.808 175.168 116.594 174.624C116.392 174.069 116.104 173.589 115.73 173.184C115.357 172.779 114.909 172.464 114.386 172.24C113.874 172.016 113.314 171.904 112.706 171.904C112.098 171.904 111.533 172.016 111.01 172.24C110.498 172.464 110.056 172.779 109.682 173.184C109.309 173.589 109.021 174.069 108.818 174.624C108.616 175.168 108.514 175.771 108.514 176.432C108.514 177.083 108.616 177.685 108.818 178.24C109.021 178.784 109.309 179.259 109.682 179.664C110.056 180.069 110.498 180.384 111.01 180.608C111.533 180.821 112.098 180.928 112.706 180.928ZM125.392 182V172.016H122.192V170.8H129.969V172.016H126.641V182H125.392ZM133.234 182L137.522 170.8H138.946L143.202 182H141.842L139.106 174.736C139.032 174.533 138.946 174.299 138.85 174.032C138.765 173.755 138.669 173.472 138.562 173.184C138.466 172.885 138.37 172.597 138.274 172.32C138.189 172.043 138.109 171.797 138.034 171.584H138.354C138.269 171.851 138.178 172.123 138.082 172.4C137.997 172.667 137.906 172.939 137.81 173.216C137.714 173.483 137.618 173.749 137.522 174.016C137.426 174.283 137.33 174.549 137.234 174.816L134.514 182H133.234ZM135.058 178.912L135.522 177.696H140.818L141.33 178.912H135.058ZM148.448 182V170.8H149.696V180.784H155.072V182H148.448ZM167.867 182V180.816H169.675V171.984H167.867V170.8H172.731V171.984H170.923V180.816H172.731V182H167.867ZM178.704 182V170.8H179.84L187.168 180.496L186.944 180.784C186.912 180.613 186.886 180.357 186.864 180.016C186.854 179.675 186.838 179.291 186.816 178.864C186.806 178.427 186.795 177.973 186.784 177.504C186.774 177.035 186.763 176.576 186.752 176.128C186.752 175.68 186.752 175.275 186.752 174.912V170.8H188V182H186.832L179.536 172.432L179.728 172.096C179.76 172.523 179.787 172.944 179.808 173.36C179.84 173.776 179.862 174.176 179.872 174.56C179.894 174.944 179.91 175.296 179.92 175.616C179.931 175.936 179.936 176.208 179.936 176.432C179.947 176.656 179.952 176.816 179.952 176.912V182H178.704ZM194.498 182V170.8H195.746V182H194.498ZM195.122 177.008V175.776H200.786V177.008H195.122ZM195.122 172.016V170.8H201.538V172.016H195.122ZM207.182 182V170.8H208.43V180.784H213.806V182H207.182ZM223.756 182.16C222.967 182.16 222.236 182.021 221.564 181.744C220.903 181.456 220.322 181.056 219.82 180.544C219.33 180.032 218.946 179.429 218.668 178.736C218.402 178.032 218.268 177.264 218.268 176.432C218.268 175.6 218.402 174.837 218.668 174.144C218.946 173.44 219.33 172.832 219.82 172.32C220.322 171.797 220.903 171.397 221.564 171.12C222.236 170.832 222.967 170.688 223.756 170.688C224.556 170.688 225.287 170.832 225.948 171.12C226.62 171.397 227.202 171.797 227.692 172.32C228.194 172.832 228.578 173.44 228.844 174.144C229.122 174.837 229.26 175.6 229.26 176.432C229.26 177.253 229.122 178.016 228.844 178.72C228.578 179.413 228.194 180.021 227.692 180.544C227.202 181.056 226.62 181.456 225.948 181.744C225.287 182.021 224.556 182.16 223.756 182.16ZM223.756 180.928C224.364 180.928 224.924 180.821 225.436 180.608C225.959 180.384 226.407 180.069 226.78 179.664C227.154 179.259 227.442 178.784 227.644 178.24C227.858 177.685 227.964 177.083 227.964 176.432C227.964 175.771 227.858 175.168 227.644 174.624C227.442 174.069 227.154 173.589 226.78 173.184C226.407 172.779 225.959 172.464 225.436 172.24C224.924 172.016 224.364 171.904 223.756 171.904C223.148 171.904 222.583 172.016 222.06 172.24C221.548 172.464 221.106 172.779 220.732 173.184C220.359 173.589 220.071 174.069 219.868 174.624C219.666 175.168 219.564 175.771 219.564 176.432C219.564 177.083 219.666 177.685 219.868 178.24C220.071 178.784 220.359 179.259 220.732 179.664C221.106 180.069 221.548 180.384 222.06 180.608C222.583 180.821 223.148 180.928 223.756 180.928ZM236.945 182L233.569 170.8H234.913L237.073 178.192C237.158 178.448 237.227 178.693 237.281 178.928C237.345 179.152 237.398 179.371 237.441 179.584C237.483 179.787 237.526 179.995 237.569 180.208C237.611 180.411 237.654 180.624 237.697 180.848L237.425 180.832C237.563 180.341 237.675 179.952 237.761 179.664C237.857 179.376 237.947 179.12 238.033 178.896C238.118 178.672 238.214 178.416 238.321 178.128L240.209 173.376H241.377L243.281 178.176C243.409 178.475 243.521 178.757 243.617 179.024C243.713 179.291 243.803 179.563 243.889 179.84C243.985 180.117 244.075 180.427 244.161 180.768L243.905 180.816C243.958 180.549 244.001 180.331 244.033 180.16C244.065 179.989 244.097 179.84 244.129 179.712C244.161 179.573 244.193 179.44 244.225 179.312C244.257 179.173 244.299 179.013 244.353 178.832C244.406 178.64 244.475 178.4 244.561 178.112L246.721 170.8H248.065L244.657 182H243.617L240.593 174.8L240.881 174.848L237.969 182H236.945Z" fill="white"/>
<path d="M97.72 205.92L96.68 204.816V204.096H98.6C99.0373 204.096 99.3893 203.952 99.656 203.664C99.9227 203.365 100.056 202.987 100.056 202.528C100.056 202.208 99.9813 201.931 99.832 201.696C99.6933 201.461 99.4907 201.28 99.224 201.152C98.9573 201.013 98.648 200.944 98.296 200.944H95.784V198.864H103.8V200.688H100.392L99 199.504C99.4587 199.568 99.896 199.68 100.312 199.84C100.728 199.989 101.096 200.192 101.416 200.448C101.736 200.693 101.987 200.987 102.168 201.328C102.349 201.669 102.44 202.059 102.44 202.496C102.44 202.976 102.344 203.424 102.152 203.84C101.96 204.245 101.693 204.608 101.352 204.928C101.021 205.237 100.627 205.483 100.168 205.664C99.72 205.835 99.2347 205.92 98.712 205.92H97.72ZM100.232 210.064L96.712 204.832L99.176 204.432L103.016 210.08L100.232 210.064ZM98.232 203.152V201.904H103.832V203.152H98.232ZM110.979 210L110.451 208.688L113.763 205.024C113.944 204.832 114.136 204.608 114.339 204.352C114.552 204.096 114.755 203.835 114.947 203.568C115.149 203.291 115.309 203.024 115.427 202.768C115.544 202.501 115.603 202.261 115.603 202.048C115.603 201.803 115.549 201.589 115.443 201.408C115.336 201.216 115.181 201.067 114.979 200.96C114.776 200.853 114.525 200.8 114.227 200.8C113.949 200.8 113.688 200.875 113.443 201.024C113.197 201.163 112.968 201.371 112.755 201.648C112.541 201.925 112.355 202.261 112.195 202.656L110.403 201.648C110.616 201.029 110.92 200.491 111.315 200.032C111.709 199.573 112.179 199.216 112.723 198.96C113.267 198.704 113.848 198.576 114.467 198.576C115.117 198.587 115.704 198.725 116.227 198.992C116.749 199.259 117.16 199.632 117.459 200.112C117.757 200.592 117.907 201.147 117.907 201.776C117.907 202.011 117.88 202.251 117.827 202.496C117.784 202.741 117.704 202.997 117.587 203.264C117.48 203.531 117.336 203.813 117.155 204.112C116.984 204.4 116.771 204.709 116.515 205.04C116.269 205.36 115.987 205.696 115.667 206.048L113.123 208.816L112.803 207.84H118.371V210H110.979ZM120.064 210L119.536 208.688L122.848 205.024C123.03 204.832 123.222 204.608 123.424 204.352C123.638 204.096 123.84 203.835 124.032 203.568C124.235 203.291 124.395 203.024 124.512 202.768C124.63 202.501 124.688 202.261 124.688 202.048C124.688 201.803 124.635 201.589 124.528 201.408C124.422 201.216 124.267 201.067 124.064 200.96C123.862 200.853 123.611 200.8 123.312 200.8C123.035 200.8 122.774 200.875 122.528 201.024C122.283 201.163 122.054 201.371 121.84 201.648C121.627 201.925 121.44 202.261 121.28 202.656L119.488 201.648C119.702 201.029 120.006 200.491 120.4 200.032C120.795 199.573 121.264 199.216 121.808 198.96C122.352 198.704 122.934 198.576 123.552 198.576C124.203 198.587 124.79 198.725 125.312 198.992C125.835 199.259 126.246 199.632 126.544 200.112C126.843 200.592 126.992 201.147 126.992 201.776C126.992 202.011 126.966 202.251 126.912 202.496C126.87 202.741 126.79 202.997 126.672 203.264C126.566 203.531 126.422 203.813 126.24 204.112C126.07 204.4 125.856 204.709 125.6 205.04C125.355 205.36 125.072 205.696 124.752 206.048L122.208 208.816L121.888 207.84H127.456V210H120.064ZM129.406 213.088L128.702 212.24C129.118 212.037 129.449 211.792 129.694 211.504C129.95 211.216 130.078 210.965 130.078 210.752C130.078 210.656 130.051 210.555 129.998 210.448C129.945 210.341 129.827 210.208 129.646 210.048C129.411 209.867 129.251 209.696 129.166 209.536C129.091 209.365 129.054 209.184 129.054 208.992C129.054 208.683 129.166 208.437 129.39 208.256C129.614 208.075 129.902 207.984 130.254 207.984C130.542 207.984 130.803 208.069 131.038 208.24C131.283 208.4 131.475 208.629 131.614 208.928C131.753 209.216 131.822 209.552 131.822 209.936C131.822 210.277 131.763 210.608 131.646 210.928C131.529 211.259 131.358 211.563 131.134 211.84C130.921 212.128 130.665 212.379 130.366 212.592C130.078 212.805 129.758 212.971 129.406 213.088ZM138.066 210.16C137.106 210.16 136.285 209.931 135.602 209.472C134.93 209.013 134.413 208.357 134.05 207.504C133.698 206.64 133.522 205.605 133.522 204.4C133.522 203.195 133.698 202.165 134.05 201.312C134.413 200.448 134.93 199.787 135.602 199.328C136.285 198.869 137.106 198.64 138.066 198.64C139.026 198.64 139.847 198.869 140.53 199.328C141.213 199.787 141.73 200.448 142.082 201.312C142.445 202.165 142.626 203.195 142.626 204.4C142.626 205.605 142.445 206.64 142.082 207.504C141.73 208.357 141.213 209.013 140.53 209.472C139.847 209.931 139.026 210.16 138.066 210.16ZM138.066 208.096C138.781 208.096 139.335 207.776 139.73 207.136C140.125 206.496 140.322 205.584 140.322 204.4C140.322 203.195 140.125 202.267 139.73 201.616C139.335 200.965 138.781 200.64 138.066 200.64C137.341 200.64 136.781 200.965 136.386 201.616C136.002 202.267 135.81 203.195 135.81 204.4C135.81 205.584 136.002 206.496 136.386 207.136C136.781 207.776 137.341 208.096 138.066 208.096ZM148.839 210.16C147.879 210.16 147.058 209.931 146.375 209.472C145.703 209.013 145.186 208.357 144.823 207.504C144.471 206.64 144.295 205.605 144.295 204.4C144.295 203.195 144.471 202.165 144.823 201.312C145.186 200.448 145.703 199.787 146.375 199.328C147.058 198.869 147.879 198.64 148.839 198.64C149.799 198.64 150.62 198.869 151.303 199.328C151.986 199.787 152.503 200.448 152.855 201.312C153.218 202.165 153.399 203.195 153.399 204.4C153.399 205.605 153.218 206.64 152.855 207.504C152.503 208.357 151.986 209.013 151.303 209.472C150.62 209.931 149.799 210.16 148.839 210.16ZM148.839 208.096C149.554 208.096 150.108 207.776 150.503 207.136C150.898 206.496 151.095 205.584 151.095 204.4C151.095 203.195 150.898 202.267 150.503 201.616C150.108 200.965 149.554 200.64 148.839 200.64C148.114 200.64 147.554 200.965 147.159 201.616C146.775 202.267 146.583 203.195 146.583 204.4C146.583 205.584 146.775 206.496 147.159 207.136C147.554 207.776 148.114 208.096 148.839 208.096ZM159.612 210.16C158.652 210.16 157.831 209.931 157.148 209.472C156.476 209.013 155.959 208.357 155.596 207.504C155.244 206.64 155.068 205.605 155.068 204.4C155.068 203.195 155.244 202.165 155.596 201.312C155.959 200.448 156.476 199.787 157.148 199.328C157.831 198.869 158.652 198.64 159.612 198.64C160.572 198.64 161.394 198.869 162.076 199.328C162.759 199.787 163.276 200.448 163.628 201.312C163.991 202.165 164.172 203.195 164.172 204.4C164.172 205.605 163.991 206.64 163.628 207.504C163.276 208.357 162.759 209.013 162.076 209.472C161.394 209.931 160.572 210.16 159.612 210.16ZM159.612 208.096C160.327 208.096 160.882 207.776 161.276 207.136C161.671 206.496 161.868 205.584 161.868 204.4C161.868 203.195 161.671 202.267 161.276 201.616C160.882 200.965 160.327 200.64 159.612 200.64C158.887 200.64 158.327 200.965 157.932 201.616C157.548 202.267 157.356 203.195 157.356 204.4C157.356 205.584 157.548 206.496 157.932 207.136C158.327 207.776 158.887 208.096 159.612 208.096Z" fill="white"/>
</g>
<g filter="url(#filter2_ddd_3550_108185)">
<rect x="361" y="5" width="334" height="110" rx="8" fill="url(#paint4_linear_3550_108185)" fill-opacity="0.1" shape-rendering="crispEdges"/>
<rect x="361.5" y="5.5" width="333" height="109" rx="7.5" stroke="url(#paint5_linear_3550_108185)" stroke-opacity="0.1" shape-rendering="crispEdges"/>
<circle cx="417" cy="60" r="24" transform="rotate(-180 417 60)" fill="#7BC8FF"/>
<rect width="18" height="18" transform="matrix(-1 0 0 -1 426 69)" fill="#7BC8FF"/>
<path d="M417 68.4375V51.5625" stroke="white" stroke-width="2" stroke-linecap="round" stroke-linejoin="round"/>
<path d="M422.625 57.1875L417 51.5625L411.375 57.1875" stroke="white" stroke-width="2" stroke-linecap="round" stroke-linejoin="round"/>
<path d="M452.68 52V42.016H449.48V40.8H457.256V42.016H453.928V52H452.68ZM466.706 52.16C465.917 52.16 465.186 52.0213 464.514 51.744C463.853 51.456 463.272 51.056 462.77 50.544C462.28 50.032 461.896 49.4293 461.618 48.736C461.352 48.032 461.218 47.264 461.218 46.432C461.218 45.6 461.352 44.8373 461.618 44.144C461.896 43.44 462.28 42.832 462.77 42.32C463.272 41.7973 463.853 41.3973 464.514 41.12C465.186 40.832 465.917 40.688 466.706 40.688C467.506 40.688 468.237 40.832 468.898 41.12C469.57 41.3973 470.152 41.7973 470.642 42.32C471.144 42.832 471.528 43.44 471.794 44.144C472.072 44.8373 472.21 45.6 472.21 46.432C472.21 47.2533 472.072 48.016 471.794 48.72C471.528 49.4133 471.144 50.0213 470.642 50.544C470.152 51.056 469.57 51.456 468.898 51.744C468.237 52.0213 467.506 52.16 466.706 52.16ZM466.706 50.928C467.314 50.928 467.874 50.8213 468.386 50.608C468.909 50.384 469.357 50.0693 469.73 49.664C470.104 49.2587 470.392 48.784 470.594 48.24C470.808 47.6853 470.914 47.0827 470.914 46.432C470.914 45.7707 470.808 45.168 470.594 44.624C470.392 44.0693 470.104 43.5893 469.73 43.184C469.357 42.7787 468.909 42.464 468.386 42.24C467.874 42.016 467.314 41.904 466.706 41.904C466.098 41.904 465.533 42.016 465.01 42.24C464.498 42.464 464.056 42.7787 463.682 43.184C463.309 43.5893 463.021 44.0693 462.818 44.624C462.616 45.168 462.514 45.7707 462.514 46.432C462.514 47.0827 462.616 47.6853 462.818 48.24C463.021 48.784 463.309 49.2587 463.682 49.664C464.056 50.0693 464.498 50.384 465.01 50.608C465.533 50.8213 466.098 50.928 466.706 50.928ZM479.392 52V42.016H476.192V40.8H483.969V42.016H480.641V52H479.392ZM487.234 52L491.522 40.8H492.946L497.202 52H495.842L493.106 44.736C493.032 44.5333 492.946 44.2987 492.85 44.032C492.765 43.7547 492.669 43.472 492.562 43.184C492.466 42.8853 492.37 42.5973 492.274 42.32C492.189 42.0427 492.109 41.7973 492.034 41.584H492.354C492.269 41.8507 492.178 42.1227 492.082 42.4C491.997 42.6667 491.906 42.9387 491.81 43.216C491.714 43.4827 491.618 43.7493 491.522 44.016C491.426 44.2827 491.33 44.5493 491.234 44.816L488.514 52H487.234ZM489.058 48.912L489.522 47.696H494.818L495.33 48.912H489.058ZM502.448 52V40.8H503.696V50.784H509.072V52H502.448ZM527.019 52.16C526.23 52.16 525.499 52.0213 524.827 51.744C524.166 51.456 523.584 51.056 523.083 50.544C522.592 50.032 522.208 49.4293 521.931 48.736C521.664 48.032 521.531 47.264 521.531 46.432C521.531 45.6 521.664 44.8373 521.931 44.144C522.208 43.44 522.592 42.832 523.083 42.32C523.584 41.7973 524.166 41.3973 524.827 41.12C525.499 40.832 526.23 40.688 527.019 40.688C527.819 40.688 528.55 40.832 529.211 41.12C529.883 41.3973 530.464 41.7973 530.955 42.32C531.456 42.832 531.84 43.44 532.107 44.144C532.384 44.8373 532.523 45.6 532.523 46.432C532.523 47.2533 532.384 48.016 532.107 48.72C531.84 49.4133 531.456 50.0213 530.955 50.544C530.464 51.056 529.883 51.456 529.211 51.744C528.55 52.0213 527.819 52.16 527.019 52.16ZM527.019 50.928C527.627 50.928 528.187 50.8213 528.699 50.608C529.222 50.384 529.67 50.0693 530.043 49.664C530.416 49.2587 530.704 48.784 530.907 48.24C531.12 47.6853 531.227 47.0827 531.227 46.432C531.227 45.7707 531.12 45.168 530.907 44.624C530.704 44.0693 530.416 43.5893 530.043 43.184C529.67 42.7787 529.222 42.464 528.699 42.24C528.187 42.016 527.627 41.904 527.019 41.904C526.411 41.904 525.846 42.016 525.323 42.24C524.811 42.464 524.368 42.7787 523.995 43.184C523.622 43.5893 523.334 44.0693 523.131 44.624C522.928 45.168 522.827 45.7707 522.827 46.432C522.827 47.0827 522.928 47.6853 523.131 48.24C523.334 48.784 523.622 49.2587 523.995 49.664C524.368 50.0693 524.811 50.384 525.323 50.608C525.846 50.8213 526.411 50.928 527.019 50.928ZM542.461 52.112C541.619 52.112 540.867 51.9253 540.205 51.552C539.544 51.168 539.021 50.6453 538.637 49.984C538.264 49.312 538.077 48.5547 538.077 47.712V40.8H539.325V47.568C539.325 48.1973 539.464 48.7627 539.741 49.264C540.019 49.7653 540.392 50.16 540.861 50.448C541.341 50.736 541.875 50.88 542.461 50.88C543.08 50.88 543.629 50.736 544.109 50.448C544.6 50.16 544.984 49.7653 545.261 49.264C545.539 48.7627 545.677 48.1973 545.677 47.568V40.8H546.877V47.712C546.877 48.5547 546.685 49.312 546.301 49.984C545.928 50.6453 545.405 51.168 544.733 51.552C544.072 51.9253 543.315 52.112 542.461 52.112ZM555.342 52V42.016H552.142V40.8H559.918V42.016H556.59V52H555.342ZM565.229 52V40.8H566.477V52H565.229ZM565.853 47.008V45.776H571.517V47.008H565.853ZM565.853 42.016V40.8H572.269V42.016H565.853ZM577.914 52V40.8H579.162V50.784H584.538V52H577.914ZM594.488 52.16C593.698 52.16 592.968 52.0213 592.296 51.744C591.634 51.456 591.053 51.056 590.552 50.544C590.061 50.032 589.677 49.4293 589.4 48.736C589.133 48.032 589 47.264 589 46.432C589 45.6 589.133 44.8373 589.4 44.144C589.677 43.44 590.061 42.832 590.552 42.32C591.053 41.7973 591.634 41.3973 592.296 41.12C592.968 40.832 593.698 40.688 594.488 40.688C595.288 40.688 596.018 40.832 596.68 41.12C597.352 41.3973 597.933 41.7973 598.424 42.32C598.925 42.832 599.309 43.44 599.576 44.144C599.853 44.8373 599.992 45.6 599.992 46.432C599.992 47.2533 599.853 48.016 599.576 48.72C599.309 49.4133 598.925 50.0213 598.424 50.544C597.933 51.056 597.352 51.456 596.68 51.744C596.018 52.0213 595.288 52.16 594.488 52.16ZM594.488 50.928C595.096 50.928 595.656 50.8213 596.168 50.608C596.69 50.384 597.138 50.0693 597.512 49.664C597.885 49.2587 598.173 48.784 598.376 48.24C598.589 47.6853 598.696 47.0827 598.696 46.432C598.696 45.7707 598.589 45.168 598.376 44.624C598.173 44.0693 597.885 43.5893 597.512 43.184C597.138 42.7787 596.69 42.464 596.168 42.24C595.656 42.016 595.096 41.904 594.488 41.904C593.88 41.904 593.314 42.016 592.792 42.24C592.28 42.464 591.837 42.7787 591.464 43.184C591.09 43.5893 590.802 44.0693 590.6 44.624C590.397 45.168 590.296 45.7707 590.296 46.432C590.296 47.0827 590.397 47.6853 590.6 48.24C590.802 48.784 591.09 49.2587 591.464 49.664C591.837 50.0693 592.28 50.384 592.792 50.608C593.314 50.8213 593.88 50.928 594.488 50.928ZM607.676 52L604.3 40.8H605.644L607.804 48.192C607.889 48.448 607.959 48.6933 608.012 48.928C608.076 49.152 608.129 49.3707 608.172 49.584C608.215 49.7867 608.257 49.9947 608.3 50.208C608.343 50.4107 608.385 50.624 608.428 50.848L608.156 50.832C608.295 50.3413 608.407 49.952 608.492 49.664C608.588 49.376 608.679 49.12 608.764 48.896C608.849 48.672 608.945 48.416 609.052 48.128L610.94 43.376H612.108L614.012 48.176C614.14 48.4747 614.252 48.7573 614.348 49.024C614.444 49.2907 614.535 49.5627 614.62 49.84C614.716 50.1173 614.807 50.4267 614.892 50.768L614.636 50.816C614.689 50.5493 614.732 50.3307 614.764 50.16C614.796 49.9893 614.828 49.84 614.86 49.712C614.892 49.5733 614.924 49.44 614.956 49.312C614.988 49.1733 615.031 49.0133 615.084 48.832C615.137 48.64 615.207 48.4 615.292 48.112L617.452 40.8H618.796L615.388 52H614.348L611.324 44.8L611.612 44.848L608.7 52H607.676Z" fill="white"/>
<path d="M451.72 75.92L450.68 74.816V74.096H452.6C453.037 74.096 453.389 73.952 453.656 73.664C453.923 73.3653 454.056 72.9867 454.056 72.528C454.056 72.208 453.981 71.9307 453.832 71.696C453.693 71.4613 453.491 71.28 453.224 71.152C452.957 71.0133 452.648 70.944 452.296 70.944H449.784V68.864H457.8V70.688H454.392L453 69.504C453.459 69.568 453.896 69.68 454.312 69.84C454.728 69.9893 455.096 70.192 455.416 70.448C455.736 70.6933 455.987 70.9867 456.168 71.328C456.349 71.6693 456.44 72.0587 456.44 72.496C456.44 72.976 456.344 73.424 456.152 73.84C455.96 74.2453 455.693 74.608 455.352 74.928C455.021 75.2373 454.627 75.4827 454.168 75.664C453.72 75.8347 453.235 75.92 452.712 75.92H451.72ZM454.232 80.064L450.712 74.832L453.176 74.432L457.016 80.08L454.232 80.064ZM452.232 73.152V71.904H457.832V73.152H452.232ZM467.267 79.216V70.128L467.859 71.2L465.523 72.336L465.059 70.208L468.179 68.64H469.635V79.216H467.267ZM465.299 80V77.84H471.651V80H465.299ZM477.587 80.048C476.84 80.048 476.163 79.904 475.555 79.616C474.947 79.3173 474.461 78.9173 474.099 78.416C473.736 77.9147 473.555 77.36 473.555 76.752C473.555 76.3573 473.603 76 473.699 75.68C473.805 75.36 473.96 75.072 474.163 74.816C474.376 74.56 474.632 74.336 474.931 74.144C475.229 73.952 475.576 73.7867 475.971 73.648L475.811 74.208C475.512 74.0907 475.245 73.952 475.011 73.792C474.776 73.6213 474.573 73.4293 474.403 73.216C474.243 73.0027 474.115 72.7733 474.019 72.528C473.933 72.272 473.891 72.0053 473.891 71.728C473.891 71.152 474.056 70.6347 474.387 70.176C474.717 69.7173 475.16 69.3547 475.715 69.088C476.269 68.8107 476.893 68.672 477.587 68.672C478.269 68.672 478.888 68.8107 479.443 69.088C479.997 69.3547 480.44 69.7173 480.771 70.176C481.101 70.6347 481.267 71.152 481.267 71.728C481.267 72.0053 481.224 72.272 481.139 72.528C481.053 72.7733 480.931 72.9973 480.771 73.2C480.611 73.4027 480.408 73.5893 480.163 73.76C479.928 73.9307 479.651 74.08 479.331 74.208L479.235 73.712C479.587 73.8187 479.907 73.968 480.195 74.16C480.493 74.3413 480.744 74.5653 480.947 74.832C481.16 75.088 481.325 75.376 481.443 75.696C481.56 76.016 481.619 76.368 481.619 76.752C481.619 77.3707 481.437 77.9307 481.075 78.432C480.712 78.9333 480.227 79.328 479.619 79.616C479.011 79.904 478.333 80.048 477.587 80.048ZM477.587 78.08C477.907 78.08 478.2 78.016 478.467 77.888C478.733 77.76 478.941 77.5893 479.091 77.376C479.24 77.152 479.315 76.896 479.315 76.608C479.315 76.3093 479.24 76.048 479.091 75.824C478.941 75.5893 478.733 75.4027 478.467 75.264C478.211 75.1253 477.917 75.056 477.587 75.056C477.256 75.056 476.957 75.1253 476.691 75.264C476.435 75.4027 476.232 75.5893 476.083 75.824C475.933 76.048 475.859 76.3093 475.859 76.608C475.859 76.8853 475.933 77.136 476.083 77.36C476.232 77.5733 476.435 77.7493 476.691 77.888C476.957 78.016 477.256 78.08 477.587 78.08ZM477.587 73.104C477.875 73.104 478.131 73.0507 478.355 72.944C478.579 72.8267 478.755 72.6773 478.883 72.496C479.021 72.304 479.091 72.08 479.091 71.824C479.091 71.5787 479.021 71.36 478.883 71.168C478.755 70.9653 478.579 70.8053 478.355 70.688C478.131 70.5707 477.875 70.512 477.587 70.512C477.299 70.512 477.037 70.5707 476.803 70.688C476.579 70.8053 476.397 70.9653 476.259 71.168C476.131 71.36 476.067 71.5787 476.067 71.824C476.067 72.08 476.131 72.304 476.259 72.496C476.397 72.6773 476.579 72.8267 476.803 72.944C477.037 73.0507 477.299 73.104 477.587 73.104ZM484.015 83.088L483.311 82.24C483.727 82.0373 484.058 81.792 484.303 81.504C484.559 81.216 484.687 80.9653 484.687 80.752C484.687 80.656 484.661 80.5547 484.607 80.448C484.554 80.3413 484.437 80.208 484.255 80.048C484.021 79.8667 483.861 79.696 483.775 79.536C483.701 79.3653 483.663 79.184 483.663 78.992C483.663 78.6827 483.775 78.4373 483.999 78.256C484.223 78.0747 484.511 77.984 484.863 77.984C485.151 77.984 485.413 78.0693 485.647 78.24C485.893 78.4 486.085 78.6293 486.223 78.928C486.362 79.216 486.431 79.552 486.431 79.936C486.431 80.2773 486.373 80.608 486.255 80.928C486.138 81.2587 485.967 81.5627 485.743 81.84C485.53 82.128 485.274 82.3787 484.975 82.592C484.687 82.8053 484.367 82.9707 484.015 83.088ZM488.579 80L488.051 78.688L491.363 75.024C491.545 74.832 491.737 74.608 491.939 74.352C492.153 74.096 492.355 73.8347 492.547 73.568C492.75 73.2907 492.91 73.024 493.027 72.768C493.145 72.5013 493.203 72.2613 493.203 72.048C493.203 71.8027 493.15 71.5893 493.043 71.408C492.937 71.216 492.782 71.0667 492.579 70.96C492.377 70.8533 492.126 70.8 491.827 70.8C491.55 70.8 491.289 70.8747 491.043 71.024C490.798 71.1627 490.569 71.3707 490.355 71.648C490.142 71.9253 489.955 72.2613 489.795 72.656L488.003 71.648C488.217 71.0293 488.521 70.4907 488.915 70.032C489.31 69.5733 489.779 69.216 490.323 68.96C490.867 68.704 491.449 68.576 492.067 68.576C492.718 68.5867 493.305 68.7253 493.827 68.992C494.35 69.2587 494.761 69.632 495.059 70.112C495.358 70.592 495.507 71.1467 495.507 71.776C495.507 72.0107 495.481 72.2507 495.427 72.496C495.385 72.7413 495.305 72.9973 495.187 73.264C495.081 73.5307 494.937 73.8133 494.755 74.112C494.585 74.4 494.371 74.7093 494.115 75.04C493.87 75.36 493.587 75.696 493.267 76.048L490.723 78.816L490.403 77.84H495.971V80H488.579ZM501.761 80.16C500.801 80.16 499.98 79.9307 499.297 79.472C498.625 79.0133 498.108 78.3573 497.745 77.504C497.393 76.64 497.217 75.6053 497.217 74.4C497.217 73.1947 497.393 72.1653 497.745 71.312C498.108 70.448 498.625 69.7867 499.297 69.328C499.98 68.8693 500.801 68.64 501.761 68.64C502.721 68.64 503.542 68.8693 504.225 69.328C504.908 69.7867 505.425 70.448 505.777 71.312C506.14 72.1653 506.321 73.1947 506.321 74.4C506.321 75.6053 506.14 76.64 505.777 77.504C505.425 78.3573 504.908 79.0133 504.225 79.472C503.542 79.9307 502.721 80.16 501.761 80.16ZM501.761 78.096C502.476 78.096 503.03 77.776 503.425 77.136C503.82 76.496 504.017 75.584 504.017 74.4C504.017 73.1947 503.82 72.2667 503.425 71.616C503.03 70.9653 502.476 70.64 501.761 70.64C501.036 70.64 500.476 70.9653 500.081 71.616C499.697 72.2667 499.505 73.1947 499.505 74.4C499.505 75.584 499.697 76.496 500.081 77.136C500.476 77.776 501.036 78.096 501.761 78.096ZM512.918 80V70.944L514.038 71.008L510.102 75.824L509.83 75.424H517.094V77.456H508.662L507.67 75.568L513.318 68.736H515.238V80H512.918Z" fill="white"/>
</g>
<g filter="url(#filter3_ddd_3550_108185)">
<rect x="361" y="135" width="334" height="110" rx="8" fill="url(#paint6_linear_3550_108185)" fill-opacity="0.1" shape-rendering="crispEdges"/>
<rect x="361.5" y="135.5" width="333" height="109" rx="7.5" stroke="url(#paint7_linear_3550_108185)" stroke-opacity="0.1" shape-rendering="crispEdges"/>
<ellipse cx="417" cy="190" rx="24" ry="24" transform="rotate(-180 417 190)" fill="#FA8080"/>
<g clip-path="url(#clip1_3550_108185)">
<path d="M428.333 178.668C425.267 175.601 421.267 174.001 417 174.001C412.733 174.001 408.733 175.601 405.667 178.668C399.4 184.935 399.4 195.068 405.667 201.335C408.733 204.401 412.733 206.001 417 206.001C421.267 206.001 425.267 204.401 428.333 201.335C434.6 195.068 434.6 184.935 428.333 178.668ZM407.533 180.535C410.067 178.001 413.4 176.668 417 176.668C420.067 176.668 423 177.735 425.4 179.735L406.733 198.401C402.333 193.201 402.733 185.468 407.533 180.535Z" fill="white"/>
</g>
<path d="M455.288 182.16C454.488 182.16 453.752 182.021 453.08 181.744C452.408 181.456 451.827 181.056 451.336 180.544C450.845 180.021 450.461 179.408 450.184 178.704C449.917 178 449.784 177.232 449.784 176.4C449.784 175.579 449.917 174.827 450.184 174.144C450.461 173.451 450.851 172.848 451.352 172.336C451.853 171.813 452.435 171.413 453.096 171.136C453.757 170.859 454.483 170.72 455.272 170.72C455.795 170.72 456.312 170.805 456.824 170.976C457.336 171.136 457.805 171.36 458.232 171.648C458.669 171.936 459.027 172.267 459.304 172.64L458.44 173.536C458.173 173.216 457.864 172.939 457.512 172.704C457.171 172.469 456.808 172.288 456.424 172.16C456.04 172.032 455.656 171.968 455.272 171.968C454.675 171.968 454.115 172.08 453.592 172.304C453.08 172.517 452.637 172.821 452.264 173.216C451.891 173.611 451.597 174.08 451.384 174.624C451.181 175.168 451.08 175.76 451.08 176.4C451.08 177.061 451.181 177.669 451.384 178.224C451.597 178.779 451.896 179.259 452.28 179.664C452.675 180.059 453.133 180.368 453.656 180.592C454.189 180.805 454.781 180.912 455.432 180.912C455.816 180.912 456.2 180.859 456.584 180.752C456.968 180.635 457.32 180.475 457.64 180.272C457.96 180.069 458.232 179.84 458.456 179.584L459.096 180.624C458.851 180.923 458.52 181.189 458.104 181.424C457.699 181.648 457.251 181.829 456.76 181.968C456.269 182.096 455.779 182.16 455.288 182.16ZM464.66 182V170.8H465.908V180.784H471.285V182H464.66ZM481.234 182.16C480.445 182.16 479.714 182.021 479.043 181.744C478.381 181.456 477.8 181.056 477.298 180.544C476.808 180.032 476.424 179.429 476.146 178.736C475.88 178.032 475.746 177.264 475.746 176.432C475.746 175.6 475.88 174.837 476.146 174.144C476.424 173.44 476.808 172.832 477.298 172.32C477.8 171.797 478.381 171.397 479.043 171.12C479.714 170.832 480.445 170.688 481.234 170.688C482.034 170.688 482.765 170.832 483.427 171.12C484.098 171.397 484.68 171.797 485.17 172.32C485.672 172.832 486.056 173.44 486.323 174.144C486.6 174.837 486.739 175.6 486.739 176.432C486.739 177.253 486.6 178.016 486.323 178.72C486.056 179.413 485.672 180.021 485.17 180.544C484.68 181.056 484.098 181.456 483.427 181.744C482.765 182.021 482.034 182.16 481.234 182.16ZM481.234 180.928C481.843 180.928 482.402 180.821 482.914 180.608C483.437 180.384 483.885 180.069 484.259 179.664C484.632 179.259 484.92 178.784 485.123 178.24C485.336 177.685 485.443 177.083 485.443 176.432C485.443 175.771 485.336 175.168 485.123 174.624C484.92 174.069 484.632 173.589 484.259 173.184C483.885 172.779 483.437 172.464 482.914 172.24C482.402 172.016 481.843 171.904 481.234 171.904C480.626 171.904 480.061 172.016 479.538 172.24C479.026 172.464 478.584 172.779 478.21 173.184C477.837 173.589 477.549 174.069 477.346 174.624C477.144 175.168 477.042 175.771 477.042 176.432C477.042 177.083 477.144 177.685 477.346 178.24C477.549 178.784 477.837 179.259 478.21 179.664C478.584 180.069 479.026 180.384 479.538 180.608C480.061 180.821 480.626 180.928 481.234 180.928ZM495.637 182.16C495.072 182.16 494.538 182.08 494.037 181.92C493.536 181.76 493.077 181.52 492.661 181.2C492.245 180.88 491.877 180.485 491.557 180.016L492.421 179.056C492.922 179.771 493.434 180.272 493.957 180.56C494.49 180.848 495.088 180.992 495.749 180.992C496.229 180.992 496.666 180.912 497.061 180.752C497.456 180.592 497.765 180.368 497.989 180.08C498.213 179.792 498.325 179.461 498.325 179.088C498.325 178.843 498.282 178.624 498.197 178.432C498.122 178.24 498.005 178.069 497.845 177.92C497.685 177.771 497.488 177.637 497.253 177.52C497.018 177.403 496.746 177.296 496.437 177.2C496.138 177.104 495.802 177.008 495.429 176.912C494.885 176.784 494.405 176.635 493.989 176.464C493.584 176.283 493.237 176.064 492.949 175.808C492.672 175.552 492.458 175.259 492.309 174.928C492.17 174.587 492.101 174.187 492.101 173.728C492.101 173.291 492.192 172.885 492.373 172.512C492.565 172.139 492.826 171.819 493.157 171.552C493.488 171.275 493.877 171.061 494.325 170.912C494.773 170.763 495.253 170.688 495.765 170.688C496.341 170.688 496.853 170.768 497.301 170.928C497.76 171.077 498.165 171.301 498.517 171.6C498.869 171.899 499.173 172.256 499.429 172.672L498.549 173.536C498.325 173.184 498.069 172.88 497.781 172.624C497.504 172.368 497.194 172.176 496.853 172.048C496.522 171.909 496.154 171.84 495.749 171.84C495.28 171.84 494.864 171.92 494.501 172.08C494.149 172.24 493.872 172.464 493.669 172.752C493.466 173.029 493.365 173.349 493.365 173.712C493.365 173.979 493.413 174.219 493.509 174.432C493.605 174.635 493.754 174.816 493.957 174.976C494.17 175.125 494.442 175.264 494.773 175.392C495.114 175.509 495.52 175.621 495.989 175.728C496.544 175.856 497.04 176.011 497.477 176.192C497.925 176.373 498.304 176.592 498.613 176.848C498.933 177.093 499.173 177.381 499.333 177.712C499.504 178.043 499.589 178.421 499.589 178.848C499.589 179.509 499.424 180.091 499.093 180.592C498.762 181.083 498.298 181.467 497.701 181.744C497.114 182.021 496.426 182.16 495.637 182.16ZM504.779 182V180.816H506.587V171.984H504.779V170.8H509.643V171.984H507.835V180.816H509.643V182H504.779ZM515.617 182V170.8H516.753L524.081 180.496L523.857 180.784C523.825 180.613 523.798 180.357 523.777 180.016C523.766 179.675 523.75 179.291 523.729 178.864C523.718 178.427 523.707 177.973 523.697 177.504C523.686 177.035 523.675 176.576 523.665 176.128C523.665 175.68 523.665 175.275 523.665 174.912V170.8H524.913V182H523.745L516.449 172.432L516.641 172.096C516.673 172.523 516.699 172.944 516.721 173.36C516.753 173.776 516.774 174.176 516.785 174.56C516.806 174.944 516.822 175.296 516.833 175.616C516.843 175.936 516.849 176.208 516.849 176.432C516.859 176.656 516.865 176.816 516.865 176.912V182H515.617ZM536.37 182.16C535.549 182.16 534.786 182.016 534.082 181.728C533.378 181.44 532.76 181.04 532.226 180.528C531.693 180.016 531.277 179.413 530.978 178.72C530.69 178.016 530.546 177.253 530.546 176.432C530.546 175.611 530.69 174.853 530.978 174.16C531.277 173.456 531.682 172.848 532.194 172.336C532.717 171.824 533.325 171.429 534.018 171.152C534.722 170.864 535.474 170.72 536.274 170.72C536.84 170.72 537.394 170.8 537.938 170.96C538.493 171.12 538.994 171.344 539.442 171.632C539.89 171.92 540.253 172.245 540.53 172.608L539.698 173.456C539.4 173.147 539.064 172.88 538.69 172.656C538.317 172.432 537.922 172.256 537.506 172.128C537.101 172 536.696 171.936 536.29 171.936C535.661 171.936 535.074 172.048 534.53 172.272C533.997 172.496 533.528 172.811 533.122 173.216C532.717 173.611 532.402 174.085 532.178 174.64C531.954 175.184 531.842 175.781 531.842 176.432C531.842 177.061 531.954 177.653 532.178 178.208C532.413 178.752 532.738 179.232 533.154 179.648C533.581 180.053 534.072 180.368 534.626 180.592C535.181 180.816 535.778 180.928 536.418 180.928C536.92 180.928 537.389 180.853 537.826 180.704C538.274 180.555 538.664 180.347 538.994 180.08C539.325 179.803 539.581 179.483 539.762 179.12C539.944 178.757 540.034 178.368 540.034 177.952V177.392L540.29 177.712H536.354V176.48H541.282C541.293 176.565 541.304 176.667 541.314 176.784C541.325 176.891 541.33 177.003 541.33 177.12C541.341 177.227 541.346 177.328 541.346 177.424C541.346 178.117 541.218 178.757 540.962 179.344C540.706 179.92 540.349 180.421 539.89 180.848C539.442 181.264 538.92 181.589 538.322 181.824C537.725 182.048 537.074 182.16 536.37 182.16ZM554.514 182V170.8H559.058C559.708 170.8 560.268 170.917 560.738 171.152C561.218 171.376 561.586 171.701 561.842 172.128C562.098 172.544 562.226 173.04 562.226 173.616C562.226 174.235 562.05 174.768 561.698 175.216C561.346 175.653 560.866 175.957 560.258 176.128L560.226 175.824C560.748 175.92 561.202 176.107 561.586 176.384C561.97 176.651 562.268 176.981 562.482 177.376C562.706 177.771 562.818 178.213 562.818 178.704C562.818 179.205 562.732 179.659 562.562 180.064C562.391 180.469 562.146 180.816 561.826 181.104C561.516 181.392 561.138 181.616 560.69 181.776C560.252 181.925 559.762 182 559.218 182H554.514ZM555.762 180.784H559.122C559.602 180.784 560.018 180.704 560.37 180.544C560.732 180.373 561.01 180.133 561.202 179.824C561.404 179.515 561.506 179.157 561.506 178.752C561.506 178.368 561.399 178.032 561.186 177.744C560.983 177.456 560.695 177.232 560.322 177.072C559.959 176.912 559.532 176.832 559.042 176.832H555.762V180.784ZM555.762 175.616H558.962C559.346 175.616 559.687 175.541 559.986 175.392C560.284 175.232 560.519 175.019 560.69 174.752C560.86 174.475 560.946 174.165 560.946 173.824C560.946 173.28 560.759 172.843 560.386 172.512C560.023 172.181 559.511 172.016 558.85 172.016H555.762V175.616ZM567.2 182L571.488 170.8H572.912L577.168 182H575.808L573.072 174.736C572.997 174.533 572.912 174.299 572.816 174.032C572.731 173.755 572.635 173.472 572.528 173.184C572.432 172.885 572.336 172.597 572.24 172.32C572.155 172.043 572.075 171.797 572 171.584H572.32C572.235 171.851 572.144 172.123 572.048 172.4C571.963 172.667 571.872 172.939 571.776 173.216C571.68 173.483 571.584 173.749 571.488 174.016C571.392 174.283 571.296 174.549 571.2 174.816L568.48 182H567.2ZM569.024 178.912L569.488 177.696H574.784L575.296 178.912H569.024ZM582.414 182V170.8H583.662V180.784H589.038V182H582.414ZM593.428 182L597.716 170.8H599.14L603.396 182H602.036L599.3 174.736C599.225 174.533 599.14 174.299 599.044 174.032C598.959 173.755 598.863 173.472 598.756 173.184C598.66 172.885 598.564 172.597 598.468 172.32C598.383 172.043 598.303 171.797 598.228 171.584H598.548C598.463 171.851 598.372 172.123 598.276 172.4C598.191 172.667 598.1 172.939 598.004 173.216C597.908 173.483 597.812 173.749 597.716 174.016C597.62 174.283 597.524 174.549 597.428 174.816L594.708 182H593.428ZM595.252 178.912L595.716 177.696H601.012L601.524 178.912H595.252ZM608.642 182V170.8H609.778L617.106 180.496L616.882 180.784C616.85 180.613 616.823 180.357 616.802 180.016C616.791 179.675 616.775 179.291 616.754 178.864C616.743 178.427 616.732 177.973 616.722 177.504C616.711 177.035 616.7 176.576 616.69 176.128C616.69 175.68 616.69 175.275 616.69 174.912V170.8H617.938V182H616.77L609.474 172.432L609.666 172.096C609.698 172.523 609.724 172.944 609.746 173.36C609.778 173.776 609.799 174.176 609.81 174.56C609.831 174.944 609.847 175.296 609.858 175.616C609.868 175.936 609.874 176.208 609.874 176.432C609.884 176.656 609.89 176.816 609.89 176.912V182H608.642ZM629.076 182.16C628.276 182.16 627.54 182.021 626.868 181.744C626.196 181.456 625.614 181.056 625.124 180.544C624.633 180.021 624.249 179.408 623.972 178.704C623.705 178 623.572 177.232 623.572 176.4C623.572 175.579 623.705 174.827 623.972 174.144C624.249 173.451 624.638 172.848 625.14 172.336C625.641 171.813 626.222 171.413 626.884 171.136C627.545 170.859 628.27 170.72 629.06 170.72C629.582 170.72 630.1 170.805 630.612 170.976C631.124 171.136 631.593 171.36 632.02 171.648C632.457 171.936 632.814 172.267 633.092 172.64L632.228 173.536C631.961 173.216 631.652 172.939 631.3 172.704C630.958 172.469 630.596 172.288 630.212 172.16C629.828 172.032 629.444 171.968 629.06 171.968C628.462 171.968 627.902 172.08 627.38 172.304C626.868 172.517 626.425 172.821 626.052 173.216C625.678 173.611 625.385 174.08 625.172 174.624C624.969 175.168 624.868 175.76 624.868 176.4C624.868 177.061 624.969 177.669 625.172 178.224C625.385 178.779 625.684 179.259 626.068 179.664C626.462 180.059 626.921 180.368 627.444 180.592C627.977 180.805 628.569 180.912 629.22 180.912C629.604 180.912 629.988 180.859 630.372 180.752C630.756 180.635 631.108 180.475 631.428 180.272C631.748 180.069 632.02 179.84 632.244 179.584L632.884 180.624C632.638 180.923 632.308 181.189 631.892 181.424C631.486 181.648 631.038 181.829 630.548 181.968C630.057 182.096 629.566 182.16 629.076 182.16ZM638.448 182V170.8H645.232V172.016H639.696V180.784H645.2V182H638.448ZM639.024 176.848V175.632H644.336V176.848H639.024Z" fill="white"/>
<path d="M451.72 205.92L450.68 204.816V204.096H452.6C453.037 204.096 453.389 203.952 453.656 203.664C453.923 203.365 454.056 202.987 454.056 202.528C454.056 202.208 453.981 201.931 453.832 201.696C453.693 201.461 453.491 201.28 453.224 201.152C452.957 201.013 452.648 200.944 452.296 200.944H449.784V198.864H457.8V200.688H454.392L453 199.504C453.459 199.568 453.896 199.68 454.312 199.84C454.728 199.989 455.096 200.192 455.416 200.448C455.736 200.693 455.987 200.987 456.168 201.328C456.349 201.669 456.44 202.059 456.44 202.496C456.44 202.976 456.344 203.424 456.152 203.84C455.96 204.245 455.693 204.608 455.352 204.928C455.021 205.237 454.627 205.483 454.168 205.664C453.72 205.835 453.235 205.92 452.712 205.92H451.72ZM454.232 210.064L450.712 204.832L453.176 204.432L457.016 210.08L454.232 210.064ZM452.232 203.152V201.904H457.832V203.152H452.232ZM467.267 209.216V200.128L467.859 201.2L465.523 202.336L465.059 200.208L468.179 198.64H469.635V209.216H467.267ZM465.299 210V207.84H471.651V210H465.299ZM473.971 210L473.443 208.688L476.755 205.024C476.936 204.832 477.128 204.608 477.331 204.352C477.544 204.096 477.747 203.835 477.939 203.568C478.141 203.291 478.301 203.024 478.419 202.768C478.536 202.501 478.595 202.261 478.595 202.048C478.595 201.803 478.541 201.589 478.435 201.408C478.328 201.216 478.173 201.067 477.971 200.96C477.768 200.853 477.517 200.8 477.219 200.8C476.941 200.8 476.68 200.875 476.435 201.024C476.189 201.163 475.96 201.371 475.747 201.648C475.533 201.925 475.347 202.261 475.187 202.656L473.395 201.648C473.608 201.029 473.912 200.491 474.307 200.032C474.701 199.573 475.171 199.216 475.715 198.96C476.259 198.704 476.84 198.576 477.459 198.576C478.109 198.587 478.696 198.725 479.219 198.992C479.741 199.259 480.152 199.632 480.451 200.112C480.749 200.592 480.899 201.147 480.899 201.776C480.899 202.011 480.872 202.251 480.819 202.496C480.776 202.741 480.696 202.997 480.579 203.264C480.472 203.531 480.328 203.813 480.147 204.112C479.976 204.4 479.763 204.709 479.507 205.04C479.261 205.36 478.979 205.696 478.659 206.048L476.115 208.816L475.795 207.84H481.363V210H473.971ZM483.312 213.088L482.608 212.24C483.024 212.037 483.355 211.792 483.6 211.504C483.856 211.216 483.984 210.965 483.984 210.752C483.984 210.656 483.958 210.555 483.904 210.448C483.851 210.341 483.734 210.208 483.552 210.048C483.318 209.867 483.158 209.696 483.072 209.536C482.998 209.365 482.96 209.184 482.96 208.992C482.96 208.683 483.072 208.437 483.296 208.256C483.52 208.075 483.808 207.984 484.16 207.984C484.448 207.984 484.71 208.069 484.944 208.24C485.19 208.4 485.382 208.629 485.52 208.928C485.659 209.216 485.728 209.552 485.728 209.936C485.728 210.277 485.67 210.608 485.552 210.928C485.435 211.259 485.264 211.563 485.04 211.84C484.827 212.128 484.571 212.379 484.272 212.592C483.984 212.805 483.664 212.971 483.312 213.088ZM491.492 210.048C490.746 210.048 490.068 209.904 489.46 209.616C488.852 209.317 488.367 208.917 488.004 208.416C487.642 207.915 487.46 207.36 487.46 206.752C487.46 206.357 487.508 206 487.604 205.68C487.711 205.36 487.866 205.072 488.068 204.816C488.282 204.56 488.538 204.336 488.836 204.144C489.135 203.952 489.482 203.787 489.876 203.648L489.716 204.208C489.418 204.091 489.151 203.952 488.916 203.792C488.682 203.621 488.479 203.429 488.308 203.216C488.148 203.003 488.02 202.773 487.924 202.528C487.839 202.272 487.796 202.005 487.796 201.728C487.796 201.152 487.962 200.635 488.292 200.176C488.623 199.717 489.066 199.355 489.62 199.088C490.175 198.811 490.799 198.672 491.492 198.672C492.175 198.672 492.794 198.811 493.348 199.088C493.903 199.355 494.346 199.717 494.676 200.176C495.007 200.635 495.172 201.152 495.172 201.728C495.172 202.005 495.13 202.272 495.044 202.528C494.959 202.773 494.836 202.997 494.676 203.2C494.516 203.403 494.314 203.589 494.068 203.76C493.834 203.931 493.556 204.08 493.236 204.208L493.14 203.712C493.492 203.819 493.812 203.968 494.1 204.16C494.399 204.341 494.65 204.565 494.852 204.832C495.066 205.088 495.231 205.376 495.348 205.696C495.466 206.016 495.524 206.368 495.524 206.752C495.524 207.371 495.343 207.931 494.98 208.432C494.618 208.933 494.132 209.328 493.524 209.616C492.916 209.904 492.239 210.048 491.492 210.048ZM491.492 208.08C491.812 208.08 492.106 208.016 492.372 207.888C492.639 207.76 492.847 207.589 492.996 207.376C493.146 207.152 493.22 206.896 493.22 206.608C493.22 206.309 493.146 206.048 492.996 205.824C492.847 205.589 492.639 205.403 492.372 205.264C492.116 205.125 491.823 205.056 491.492 205.056C491.162 205.056 490.863 205.125 490.596 205.264C490.34 205.403 490.138 205.589 489.988 205.824C489.839 206.048 489.764 206.309 489.764 206.608C489.764 206.885 489.839 207.136 489.988 207.36C490.138 207.573 490.34 207.749 490.596 207.888C490.863 208.016 491.162 208.08 491.492 208.08ZM491.492 203.104C491.78 203.104 492.036 203.051 492.26 202.944C492.484 202.827 492.66 202.677 492.788 202.496C492.927 202.304 492.996 202.08 492.996 201.824C492.996 201.579 492.927 201.36 492.788 201.168C492.66 200.965 492.484 200.805 492.26 200.688C492.036 200.571 491.78 200.512 491.492 200.512C491.204 200.512 490.943 200.571 490.708 200.688C490.484 200.805 490.303 200.965 490.164 201.168C490.036 201.36 489.972 201.579 489.972 201.824C489.972 202.08 490.036 202.304 490.164 202.496C490.303 202.677 490.484 202.827 490.708 202.944C490.943 203.051 491.204 203.104 491.492 203.104ZM501.281 210.048C500.534 210.048 499.857 209.904 499.249 209.616C498.641 209.317 498.156 208.917 497.793 208.416C497.43 207.915 497.249 207.36 497.249 206.752C497.249 206.357 497.297 206 497.393 205.68C497.5 205.36 497.654 205.072 497.857 204.816C498.07 204.56 498.326 204.336 498.625 204.144C498.924 203.952 499.27 203.787 499.665 203.648L499.505 204.208C499.206 204.091 498.94 203.952 498.705 203.792C498.47 203.621 498.268 203.429 498.097 203.216C497.937 203.003 497.809 202.773 497.713 202.528C497.628 202.272 497.585 202.005 497.585 201.728C497.585 201.152 497.75 200.635 498.081 200.176C498.412 199.717 498.854 199.355 499.409 199.088C499.964 198.811 500.588 198.672 501.281 198.672C501.964 198.672 502.582 198.811 503.137 199.088C503.692 199.355 504.134 199.717 504.465 200.176C504.796 200.635 504.961 201.152 504.961 201.728C504.961 202.005 504.918 202.272 504.833 202.528C504.748 202.773 504.625 202.997 504.465 203.2C504.305 203.403 504.102 203.589 503.857 203.76C503.622 203.931 503.345 204.08 503.025 204.208L502.929 203.712C503.281 203.819 503.601 203.968 503.889 204.16C504.188 204.341 504.438 204.565 504.641 204.832C504.854 205.088 505.02 205.376 505.137 205.696C505.254 206.016 505.313 206.368 505.313 206.752C505.313 207.371 505.132 207.931 504.769 208.432C504.406 208.933 503.921 209.328 503.313 209.616C502.705 209.904 502.028 210.048 501.281 210.048ZM501.281 208.08C501.601 208.08 501.894 208.016 502.161 207.888C502.428 207.76 502.636 207.589 502.785 207.376C502.934 207.152 503.009 206.896 503.009 206.608C503.009 206.309 502.934 206.048 502.785 205.824C502.636 205.589 502.428 205.403 502.161 205.264C501.905 205.125 501.612 205.056 501.281 205.056C500.95 205.056 500.652 205.125 500.385 205.264C500.129 205.403 499.926 205.589 499.777 205.824C499.628 206.048 499.553 206.309 499.553 206.608C499.553 206.885 499.628 207.136 499.777 207.36C499.926 207.573 500.129 207.749 500.385 207.888C500.652 208.016 500.95 208.08 501.281 208.08ZM501.281 203.104C501.569 203.104 501.825 203.051 502.049 202.944C502.273 202.827 502.449 202.677 502.577 202.496C502.716 202.304 502.785 202.08 502.785 201.824C502.785 201.579 502.716 201.36 502.577 201.168C502.449 200.965 502.273 200.805 502.049 200.688C501.825 200.571 501.569 200.512 501.281 200.512C500.993 200.512 500.732 200.571 500.497 200.688C500.273 200.805 500.092 200.965 499.953 201.168C499.825 201.36 499.761 201.579 499.761 201.824C499.761 202.08 499.825 202.304 499.953 202.496C500.092 202.677 500.273 202.827 500.497 202.944C500.732 203.051 500.993 203.104 501.281 203.104ZM510.734 210.16C509.87 210.16 509.112 209.973 508.462 209.6C507.822 209.227 507.23 208.587 506.686 207.68L508.446 206.56C508.691 206.933 508.936 207.237 509.182 207.472C509.438 207.707 509.704 207.877 509.982 207.984C510.259 208.091 510.547 208.144 510.846 208.144C511.166 208.144 511.464 208.069 511.742 207.92C512.019 207.771 512.238 207.563 512.398 207.296C512.568 207.019 512.654 206.704 512.654 206.352C512.654 205.989 512.584 205.685 512.446 205.44C512.307 205.195 512.104 205.008 511.838 204.88C511.571 204.752 511.256 204.688 510.894 204.688C510.734 204.688 510.558 204.704 510.366 204.736C510.174 204.768 509.976 204.821 509.774 204.896C509.571 204.96 509.352 205.04 509.118 205.136L508.558 203.664L511.518 200.432L512.126 200.864L507.422 200.8V198.736H514.158L514.59 199.616L510.894 203.616L510.334 202.96C510.419 202.917 510.558 202.88 510.75 202.848C510.952 202.805 511.139 202.784 511.31 202.784C511.8 202.784 512.259 202.875 512.686 203.056C513.112 203.237 513.491 203.488 513.822 203.808C514.152 204.128 514.408 204.501 514.59 204.928C514.782 205.355 514.878 205.813 514.878 206.304C514.878 207.04 514.691 207.701 514.318 208.288C513.955 208.864 513.459 209.323 512.83 209.664C512.211 209.995 511.512 210.16 510.734 210.16ZM517.778 210.176C517.362 210.176 517.042 210.059 516.818 209.824C516.594 209.589 516.482 209.253 516.482 208.816C516.482 208.421 516.6 208.101 516.834 207.856C517.08 207.6 517.394 207.472 517.778 207.472C518.184 207.472 518.498 207.589 518.722 207.824C518.946 208.059 519.058 208.389 519.058 208.816C519.058 209.221 518.941 209.552 518.706 209.808C518.472 210.053 518.162 210.176 517.778 210.176ZM524.707 210C524.142 210 523.609 209.899 523.107 209.696C522.617 209.493 522.185 209.211 521.811 208.848C521.449 208.485 521.161 208.059 520.947 207.568C520.745 207.077 520.643 206.549 520.643 205.984C520.643 205.632 520.686 205.275 520.771 204.912C520.857 204.539 520.974 204.155 521.123 203.76C521.283 203.365 521.475 202.955 521.699 202.528C521.923 202.101 522.174 201.659 522.451 201.2L523.987 198.624H526.227L526.291 198.784L524.259 202.064C523.971 202.533 523.715 202.981 523.491 203.408C523.278 203.835 523.086 204.245 522.915 204.64C522.755 205.035 522.606 205.435 522.467 205.84L522.003 204.56C522.142 204.197 522.329 203.872 522.563 203.584C522.798 203.285 523.065 203.035 523.363 202.832C523.662 202.619 523.977 202.459 524.307 202.352C524.638 202.235 524.963 202.176 525.283 202.176C525.913 202.176 526.489 202.347 527.011 202.688C527.545 203.019 527.966 203.461 528.275 204.016C528.595 204.571 528.755 205.179 528.755 205.84C528.755 206.64 528.579 207.355 528.227 207.984C527.886 208.603 527.406 209.093 526.787 209.456C526.179 209.819 525.486 210 524.707 210ZM524.739 207.968C525.102 207.968 525.422 207.888 525.699 207.728C525.987 207.557 526.211 207.323 526.371 207.024C526.531 206.725 526.611 206.384 526.611 206C526.611 205.669 526.526 205.36 526.355 205.072C526.195 204.773 525.971 204.533 525.683 204.352C525.406 204.171 525.097 204.08 524.755 204.08C524.382 204.08 524.046 204.171 523.747 204.352C523.459 204.523 523.23 204.752 523.059 205.04C522.899 205.317 522.819 205.632 522.819 205.984C522.819 206.368 522.899 206.709 523.059 207.008C523.23 207.296 523.459 207.531 523.747 207.712C524.035 207.883 524.366 207.968 524.739 207.968ZM534.28 210.048C533.533 210.048 532.856 209.904 532.248 209.616C531.64 209.317 531.154 208.917 530.792 208.416C530.429 207.915 530.248 207.36 530.248 206.752C530.248 206.357 530.296 206 530.392 205.68C530.498 205.36 530.653 205.072 530.856 204.816C531.069 204.56 531.325 204.336 531.624 204.144C531.922 203.952 532.269 203.787 532.664 203.648L532.504 204.208C532.205 204.091 531.938 203.952 531.704 203.792C531.469 203.621 531.266 203.429 531.096 203.216C530.936 203.003 530.808 202.773 530.712 202.528C530.626 202.272 530.584 202.005 530.584 201.728C530.584 201.152 530.749 200.635 531.08 200.176C531.41 199.717 531.853 199.355 532.408 199.088C532.962 198.811 533.586 198.672 534.28 198.672C534.962 198.672 535.581 198.811 536.136 199.088C536.69 199.355 537.133 199.717 537.464 200.176C537.794 200.635 537.96 201.152 537.96 201.728C537.96 202.005 537.917 202.272 537.832 202.528C537.746 202.773 537.624 202.997 537.464 203.2C537.304 203.403 537.101 203.589 536.856 203.76C536.621 203.931 536.344 204.08 536.024 204.208L535.928 203.712C536.28 203.819 536.6 203.968 536.888 204.16C537.186 204.341 537.437 204.565 537.64 204.832C537.853 205.088 538.018 205.376 538.136 205.696C538.253 206.016 538.312 206.368 538.312 206.752C538.312 207.371 538.13 207.931 537.768 208.432C537.405 208.933 536.92 209.328 536.312 209.616C535.704 209.904 535.026 210.048 534.28 210.048ZM534.28 208.08C534.6 208.08 534.893 208.016 535.16 207.888C535.426 207.76 535.634 207.589 535.784 207.376C535.933 207.152 536.008 206.896 536.008 206.608C536.008 206.309 535.933 206.048 535.784 205.824C535.634 205.589 535.426 205.403 535.16 205.264C534.904 205.125 534.61 205.056 534.28 205.056C533.949 205.056 533.65 205.125 533.384 205.264C533.128 205.403 532.925 205.589 532.776 205.824C532.626 206.048 532.552 206.309 532.552 206.608C532.552 206.885 532.626 207.136 532.776 207.36C532.925 207.573 533.128 207.749 533.384 207.888C533.65 208.016 533.949 208.08 534.28 208.08ZM534.28 203.104C534.568 203.104 534.824 203.051 535.048 202.944C535.272 202.827 535.448 202.677 535.576 202.496C535.714 202.304 535.784 202.08 535.784 201.824C535.784 201.579 535.714 201.36 535.576 201.168C535.448 200.965 535.272 200.805 535.048 200.688C534.824 200.571 534.568 200.512 534.28 200.512C533.992 200.512 533.73 200.571 533.496 200.688C533.272 200.805 533.09 200.965 532.952 201.168C532.824 201.36 532.76 201.579 532.76 201.824C532.76 202.08 532.824 202.304 532.952 202.496C533.09 202.677 533.272 202.827 533.496 202.944C533.73 203.051 533.992 203.104 534.28 203.104Z" fill="white"/>
</g>
<defs>
<filter id="filter0_ddd_3550_108185" x="0" y="0" width="348" height="124" filterUnits="userSpaceOnUse" color-interpolation-filters="sRGB">
<feFlood flood-opacity="0" result="BackgroundImageFix"/>
<feColorMatrix in="SourceAlpha" type="matrix" values="0 0 0 0 0 0 0 0 0 0 0 0 0 0 0 0 0 0 127 0" result="hardAlpha"/>
<feMorphology radius="1" operator="dilate" in="SourceAlpha" result="effect1_dropShadow_3550_108185"/>
<feOffset/>
<feComposite in2="hardAlpha" operator="out"/>
<feColorMatrix type="matrix" values="0 0 0 0 0.0627451 0 0 0 0 0.0980392 0 0 0 0 0.156863 0 0 0 0.05 0"/>
<feBlend mode="normal" in2="BackgroundImageFix" result="effect1_dropShadow_3550_108185"/>
<feColorMatrix in="SourceAlpha" type="matrix" values="0 0 0 0 0 0 0 0 0 0 0 0 0 0 0 0 0 0 127 0" result="hardAlpha"/>
<feOffset dy="2"/>
<feGaussianBlur stdDeviation="3.5"/>
<feComposite in2="hardAlpha" operator="out"/>
<feColorMatrix type="matrix" values="0 0 0 0 0.0627451 0 0 0 0 0.0980392 0 0 0 0 0.156863 0 0 0 0.05 0"/>
<feBlend mode="normal" in2="effect1_dropShadow_3550_108185" result="effect2_dropShadow_3550_108185"/>
<feColorMatrix in="SourceAlpha" type="matrix" values="0 0 0 0 0 0 0 0 0 0 0 0 0 0 0 0 0 0 127 0" result="hardAlpha"/>
<feMorphology radius="2" operator="erode" in="SourceAlpha" result="effect3_dropShadow_3550_108185"/>
<feOffset dy="2"/>
<feGaussianBlur stdDeviation="2.5"/>
<feComposite in2="hardAlpha" operator="out"/>
<feColorMatrix type="matrix" values="0 0 0 0 0.0627451 0 0 0 0 0.0980392 0 0 0 0 0.156863 0 0 0 0.06 0"/>
<feBlend mode="normal" in2="effect2_dropShadow_3550_108185" result="effect3_dropShadow_3550_108185"/>
<feBlend mode="normal" in="SourceGraphic" in2="effect3_dropShadow_3550_108185" result="shape"/>
</filter>
<filter id="filter1_ddd_3550_108185" x="0" y="130" width="348" height="124" filterUnits="userSpaceOnUse" color-interpolation-filters="sRGB">
<feFlood flood-opacity="0" result="BackgroundImageFix"/>
<feColorMatrix in="SourceAlpha" type="matrix" values="0 0 0 0 0 0 0 0 0 0 0 0 0 0 0 0 0 0 127 0" result="hardAlpha"/>
<feMorphology radius="1" operator="dilate" in="SourceAlpha" result="effect1_dropShadow_3550_108185"/>
<feOffset/>
<feComposite in2="hardAlpha" operator="out"/>
<feColorMatrix type="matrix" values="0 0 0 0 0.0627451 0 0 0 0 0.0980392 0 0 0 0 0.156863 0 0 0 0.05 0"/>
<feBlend mode="normal" in2="BackgroundImageFix" result="effect1_dropShadow_3550_108185"/>
<feColorMatrix in="SourceAlpha" type="matrix" values="0 0 0 0 0 0 0 0 0 0 0 0 0 0 0 0 0 0 127 0" result="hardAlpha"/>
<feOffset dy="2"/>
<feGaussianBlur stdDeviation="3.5"/>
<feComposite in2="hardAlpha" operator="out"/>
<feColorMatrix type="matrix" values="0 0 0 0 0.0627451 0 0 0 0 0.0980392 0 0 0 0 0.156863 0 0 0 0.05 0"/>
<feBlend mode="normal" in2="effect1_dropShadow_3550_108185" result="effect2_dropShadow_3550_108185"/>
<feColorMatrix in="SourceAlpha" type="matrix" values="0 0 0 0 0 0 0 0 0 0 0 0 0 0 0 0 0 0 127 0" result="hardAlpha"/>
<feMorphology radius="2" operator="erode" in="SourceAlpha" result="effect3_dropShadow_3550_108185"/>
<feOffset dy="2"/>
<feGaussianBlur stdDeviation="2.5"/>
<feComposite in2="hardAlpha" operator="out"/>
<feColorMatrix type="matrix" values="0 0 0 0 0.0627451 0 0 0 0 0.0980392 0 0 0 0 0.156863 0 0 0 0.06 0"/>
<feBlend mode="normal" in2="effect2_dropShadow_3550_108185" result="effect3_dropShadow_3550_108185"/>
<feBlend mode="normal" in="SourceGraphic" in2="effect3_dropShadow_3550_108185" result="shape"/>
</filter>
<filter id="filter2_ddd_3550_108185" x="354" y="0" width="348" height="124" filterUnits="userSpaceOnUse" color-interpolation-filters="sRGB">
<feFlood flood-opacity="0" result="BackgroundImageFix"/>
<feColorMatrix in="SourceAlpha" type="matrix" values="0 0 0 0 0 0 0 0 0 0 0 0 0 0 0 0 0 0 127 0" result="hardAlpha"/>
<feMorphology radius="1" operator="dilate" in="SourceAlpha" result="effect1_dropShadow_3550_108185"/>
<feOffset/>
<feComposite in2="hardAlpha" operator="out"/>
<feColorMatrix type="matrix" values="0 0 0 0 0.0627451 0 0 0 0 0.0980392 0 0 0 0 0.156863 0 0 0 0.05 0"/>
<feBlend mode="normal" in2="BackgroundImageFix" result="effect1_dropShadow_3550_108185"/>
<feColorMatrix in="SourceAlpha" type="matrix" values="0 0 0 0 0 0 0 0 0 0 0 0 0 0 0 0 0 0 127 0" result="hardAlpha"/>
<feOffset dy="2"/>
<feGaussianBlur stdDeviation="3.5"/>
<feComposite in2="hardAlpha" operator="out"/>
<feColorMatrix type="matrix" values="0 0 0 0 0.0627451 0 0 0 0 0.0980392 0 0 0 0 0.156863 0 0 0 0.05 0"/>
<feBlend mode="normal" in2="effect1_dropShadow_3550_108185" result="effect2_dropShadow_3550_108185"/>
<feColorMatrix in="SourceAlpha" type="matrix" values="0 0 0 0 0 0 0 0 0 0 0 0 0 0 0 0 0 0 127 0" result="hardAlpha"/>
<feMorphology radius="2" operator="erode" in="SourceAlpha" result="effect3_dropShadow_3550_108185"/>
<feOffset dy="2"/>
<feGaussianBlur stdDeviation="2.5"/>
<feComposite in2="hardAlpha" operator="out"/>
<feColorMatrix type="matrix" values="0 0 0 0 0.0627451 0 0 0 0 0.0980392 0 0 0 0 0.156863 0 0 0 0.06 0"/>
<feBlend mode="normal" in2="effect2_dropShadow_3550_108185" result="effect3_dropShadow_3550_108185"/>
<feBlend mode="normal" in="SourceGraphic" in2="effect3_dropShadow_3550_108185" result="shape"/>
</filter>
<filter id="filter3_ddd_3550_108185" x="354" y="130" width="348" height="124" filterUnits="userSpaceOnUse" color-interpolation-filters="sRGB">
<feFlood flood-opacity="0" result="BackgroundImageFix"/>
<feColorMatrix in="SourceAlpha" type="matrix" values="0 0 0 0 0 0 0 0 0 0 0 0 0 0 0 0 0 0 127 0" result="hardAlpha"/>
<feMorphology radius="1" operator="dilate" in="SourceAlpha" result="effect1_dropShadow_3550_108185"/>
<feOffset/>
<feComposite in2="hardAlpha" operator="out"/>
<feColorMatrix type="matrix" values="0 0 0 0 0.0627451 0 0 0 0 0.0980392 0 0 0 0 0.156863 0 0 0 0.05 0"/>
<feBlend mode="normal" in2="BackgroundImageFix" result="effect1_dropShadow_3550_108185"/>
<feColorMatrix in="SourceAlpha" type="matrix" values="0 0 0 0 0 0 0 0 0 0 0 0 0 0 0 0 0 0 127 0" result="hardAlpha"/>
<feOffset dy="2"/>
<feGaussianBlur stdDeviation="3.5"/>
<feComposite in2="hardAlpha" operator="out"/>
<feColorMatrix type="matrix" values="0 0 0 0 0.0627451 0 0 0 0 0.0980392 0 0 0 0 0.156863 0 0 0 0.05 0"/>
<feBlend mode="normal" in2="effect1_dropShadow_3550_108185" result="effect2_dropShadow_3550_108185"/>
<feColorMatrix in="SourceAlpha" type="matrix" values="0 0 0 0 0 0 0 0 0 0 0 0 0 0 0 0 0 0 127 0" result="hardAlpha"/>
<feMorphology radius="2" operator="erode" in="SourceAlpha" result="effect3_dropShadow_3550_108185"/>
<feOffset dy="2"/>
<feGaussianBlur stdDeviation="2.5"/>
<feComposite in2="hardAlpha" operator="out"/>
<feColorMatrix type="matrix" values="0 0 0 0 0.0627451 0 0 0 0 0.0980392 0 0 0 0 0.156863 0 0 0 0.06 0"/>
<feBlend mode="normal" in2="effect2_dropShadow_3550_108185" result="effect3_dropShadow_3550_108185"/>
<feBlend mode="normal" in="SourceGraphic" in2="effect3_dropShadow_3550_108185" result="shape"/>
</filter>
<linearGradient id="paint0_linear_3550_108185" x1="-75.3403" y1="-37.741" x2="183.169" y2="266.347" gradientUnits="userSpaceOnUse">
<stop stop-color="white"/>
<stop offset="1" stop-color="white" stop-opacity="0"/>
</linearGradient>
<linearGradient id="paint1_linear_3550_108185" x1="-364.111" y1="-116.928" x2="106.577" y2="347.794" gradientUnits="userSpaceOnUse">
<stop stop-color="white"/>
<stop offset="1" stop-color="white" stop-opacity="0"/>
</linearGradient>
<linearGradient id="paint2_linear_3550_108185" x1="-75.3403" y1="92.259" x2="183.169" y2="396.347" gradientUnits="userSpaceOnUse">
<stop stop-color="white"/>
<stop offset="1" stop-color="white" stop-opacity="0"/>
</linearGradient>
<linearGradient id="paint3_linear_3550_108185" x1="-364.111" y1="13.0723" x2="106.577" y2="477.794" gradientUnits="userSpaceOnUse">
<stop stop-color="white"/>
<stop offset="1" stop-color="white" stop-opacity="0"/>
</linearGradient>
<linearGradient id="paint4_linear_3550_108185" x1="278.66" y1="-37.741" x2="537.169" y2="266.347" gradientUnits="userSpaceOnUse">
<stop stop-color="white"/>
<stop offset="1" stop-color="white" stop-opacity="0"/>
</linearGradient>
<linearGradient id="paint5_linear_3550_108185" x1="-10.1111" y1="-116.928" x2="460.577" y2="347.794" gradientUnits="userSpaceOnUse">
<stop stop-color="white"/>
<stop offset="1" stop-color="white" stop-opacity="0"/>
</linearGradient>
<linearGradient id="paint6_linear_3550_108185" x1="278.66" y1="92.259" x2="537.169" y2="396.347" gradientUnits="userSpaceOnUse">
<stop stop-color="white"/>
<stop offset="1" stop-color="white" stop-opacity="0"/>
</linearGradient>
<linearGradient id="paint7_linear_3550_108185" x1="-10.1111" y1="13.0723" x2="460.577" y2="477.794" gradientUnits="userSpaceOnUse">
<stop stop-color="white"/>
<stop offset="1" stop-color="white" stop-opacity="0"/>
</linearGradient>
<clipPath id="clip0_3550_108185">
<rect width="24" height="24" fill="white" transform="translate(51 48)"/>
</clipPath>
<clipPath id="clip1_3550_108185">
<rect width="32" height="32" fill="white" transform="translate(401 174.001)"/>
</clipPath>
</defs>
</svg>
