<svg width="48" height="48" viewBox="0 0 48 48" fill="none" xmlns="http://www.w3.org/2000/svg">
<rect width="48" height="48" rx="4" fill="white" fill-opacity="0.1"/>
<g clip-path="url(#clip0_3550_110729)">
<path d="M24.8893 32.0007C24.8893 27.0994 28.8768 23.1118 33.7781 23.1118C35.4048 23.1118 36.9106 23.5829 38.2226 24.3492V16.8843C38.2226 15.9349 37.7977 15.0514 37.0581 14.4576C36.3186 13.8638 35.3639 13.6398 34.4359 13.8478L29.1044 15.0318C29.0208 15.0496 28.9373 15.0443 28.8573 15.0158L20.0537 11.8141C19.4955 11.6114 18.8928 11.5723 18.315 11.7021L12.2137 13.0567C10.779 13.3749 9.77637 14.6247 9.77637 16.0932V31.1172C9.77637 32.0665 10.2013 32.9501 10.9408 33.5438C11.6804 34.1376 12.635 34.3616 13.563 34.1536L18.8946 32.9696C18.9781 32.9518 19.0635 32.9572 19.1417 32.9856L25.5168 35.3038C25.1293 34.3012 24.8893 33.2007 24.8893 31.9989V32.0007Z" fill="white"/>
<path d="M33.7779 25.7793C30.3468 25.7793 27.5557 28.5704 27.5557 32.0015C27.5557 36.7215 32.9086 39.7117 33.1361 39.838C33.3352 39.9482 33.5574 40.0015 33.7779 40.0015C33.9983 40.0015 34.2206 39.9464 34.4197 39.838C34.6472 39.7135 40.0001 36.7215 40.0001 32.0015C40.0001 28.5704 37.209 25.7793 33.7779 25.7793ZM33.7779 33.3349C33.0419 33.3349 32.4446 32.7375 32.4446 32.0015C32.4446 31.2655 33.0419 30.6682 33.7779 30.6682C34.5139 30.6682 35.1112 31.2655 35.1112 32.0015C35.1112 32.7375 34.5139 33.3349 33.7779 33.3349Z" fill="white"/>
</g>
<defs>
<clipPath id="clip0_3550_110729">
<rect width="32" height="32" fill="white" transform="translate(8 8)"/>
</clipPath>
</defs>
</svg>
