<svg width="596" height="394" viewBox="0 0 596 394" fill="none" xmlns="http://www.w3.org/2000/svg">
<mask id="path-1-inside-1_3550_106558" fill="white">
<path d="M0 8.5C0 4.08172 3.58172 0.5 8 0.5H588C592.418 0.5 596 4.08172 596 8.5V385.5C596 389.918 592.418 393.5 588 393.5H8.00002C3.58174 393.5 0 389.918 0 385.5V8.5Z"/>
</mask>
<path d="M0 8.5C0 4.08172 3.58172 0.5 8 0.5H588C592.418 0.5 596 4.08172 596 8.5V385.5C596 389.918 592.418 393.5 588 393.5H8.00002C3.58174 393.5 0 389.918 0 385.5V8.5Z" fill="url(#paint0_linear_3550_106558)" fill-opacity="0.1"/>
<path d="M8 0.5V1.5H588V0.5V-0.5H8V0.5ZM596 8.5H595V385.5H596H597V8.5H596ZM588 393.5V392.5H8.00002V393.5V394.5H588V393.5ZM0 385.5H1V8.5H0H-1V385.5H0ZM8.00002 393.5V392.5C4.13402 392.5 1 389.366 1 385.5H0H-1C-1 390.471 3.02946 394.5 8.00002 394.5V393.5ZM596 385.5H595C595 389.366 591.866 392.5 588 392.5V393.5V394.5C592.971 394.5 597 390.471 597 385.5H596ZM588 0.5V1.5C591.866 1.5 595 4.63401 595 8.5H596H597C597 3.52943 592.971 -0.5 588 -0.5V0.5ZM8 0.5V-0.5C3.02944 -0.5 -1 3.52944 -1 8.5H0H1C1 4.63401 4.13401 1.5 8 1.5V0.5Z" fill="url(#paint1_linear_3550_106558)" fill-opacity="0.2" mask="url(#path-1-inside-1_3550_106558)"/>
<path d="M33.5 51.5V37.5H35.6V51.5H33.5ZM38.3977 51.5V41.5H40.1977L40.3977 42.5H40.4977C40.7243 42.2733 40.971 42.0733 41.2377 41.9C41.8777 41.5 42.5977 41.3 43.3977 41.3C44.611 41.3 45.5777 41.68 46.2977 42.44C47.031 43.1867 47.3977 44.2067 47.3977 45.5V51.5H45.3977V45.5C45.3977 44.8467 45.1643 44.2867 44.6977 43.82C44.2443 43.34 43.6777 43.1 42.9977 43.1C42.2643 43.1 41.6443 43.34 41.1377 43.82C40.6443 44.2867 40.3977 44.8467 40.3977 45.5V51.5H38.3977ZM51.8109 51.5L48.3109 41.5H50.4109L53.1109 49.3H53.5109L56.2109 41.5H58.3109L54.8109 51.5H51.8109ZM61.0109 45.7H66.9109C66.8043 44.8867 66.4909 44.2333 65.9709 43.74C65.4509 43.2467 64.7976 43 64.0109 43C63.1843 43 62.5176 43.2467 62.0109 43.74C61.5043 44.22 61.1709 44.8733 61.0109 45.7ZM66.4109 48.6H68.5109C68.2176 49.4 67.6843 50.12 66.9109 50.76C66.1509 51.3867 65.1843 51.7 64.0109 51.7C62.5576 51.7 61.3576 51.22 60.4109 50.26C59.4776 49.3 59.0109 48.0467 59.0109 46.5C59.0109 44.9533 59.4776 43.7 60.4109 42.74C61.3576 41.78 62.5576 41.3 64.0109 41.3C65.3709 41.3 66.5109 41.7667 67.4309 42.7C68.3509 43.6333 68.8109 44.8 68.8109 46.2C68.8109 46.32 68.7909 46.56 68.7509 46.92L68.7109 47.2H61.0109C61.1176 48.0533 61.4443 48.7333 61.9909 49.24C62.5376 49.7467 63.2109 50 64.0109 50C64.5709 50 65.0643 49.8667 65.4909 49.6C65.9309 49.32 66.2376 48.9867 66.4109 48.6ZM70.9172 51.5V41.5H72.7172L72.9172 42.5H73.0172C73.2439 42.2733 73.4905 42.0733 73.7572 41.9C74.3972 41.5 75.1172 41.3 75.9172 41.3C77.1305 41.3 78.0972 41.68 78.8172 42.44C79.5505 43.1867 79.9172 44.2067 79.9172 45.5V51.5H77.9172V45.5C77.9172 44.8467 77.6839 44.2867 77.2172 43.82C76.7639 43.34 76.1972 43.1 75.5172 43.1C74.7839 43.1 74.1639 43.34 73.6572 43.82C73.1639 44.2867 72.9172 44.8467 72.9172 45.5V51.5H70.9172ZM82.8305 49.4V43.4H81.2305V41.5H82.8305V38.7H84.8305V41.5H87.1305V43.4H84.8305V49.1C84.8305 49.5 85.0305 49.7 85.4305 49.7H87.1305V51.5H85.0305C84.3238 51.5 83.7771 51.3133 83.3905 50.94C83.0171 50.5667 82.8305 50.0533 82.8305 49.4ZM91.2845 48.98C91.8579 49.5933 92.5779 49.9 93.4445 49.9C94.3112 49.9 95.0245 49.5933 95.5845 48.98C96.1579 48.3533 96.4445 47.5267 96.4445 46.5C96.4445 45.4733 96.1579 44.6533 95.5845 44.04C95.0245 43.4133 94.3112 43.1 93.4445 43.1C92.5779 43.1 91.8579 43.4133 91.2845 44.04C90.7245 44.6533 90.4445 45.4733 90.4445 46.5C90.4445 47.5267 90.7245 48.3533 91.2845 48.98ZM97.0245 50.26C96.0912 51.22 94.8979 51.7 93.4445 51.7C91.9912 51.7 90.7912 51.22 89.8445 50.26C88.9112 49.3 88.4445 48.0467 88.4445 46.5C88.4445 44.9533 88.9112 43.7 89.8445 42.74C90.7912 41.78 91.9912 41.3 93.4445 41.3C94.8979 41.3 96.0912 41.78 97.0245 42.74C97.9712 43.7 98.4445 44.9533 98.4445 46.5C98.4445 48.0467 97.9712 49.3 97.0245 50.26ZM100.546 51.5V41.5H102.246L102.446 42.4H102.546C102.559 42.3867 102.599 42.34 102.666 42.26C102.746 42.18 102.793 42.1267 102.806 42.1C102.833 42.0733 102.886 42.0267 102.966 41.96C103.046 41.88 103.113 41.8267 103.166 41.8C103.219 41.7733 103.293 41.74 103.386 41.7C103.479 41.6467 103.573 41.6133 103.666 41.6C103.773 41.5733 103.893 41.5533 104.026 41.54C104.159 41.5133 104.299 41.5 104.446 41.5H106.246V43.3H104.646C103.246 43.3 102.546 43.9933 102.546 45.38V51.5H100.546ZM107.653 55.5V53.7H109.653C109.826 53.7 109.973 53.6333 110.093 53.5C110.213 53.38 110.293 53.2467 110.333 53.1L110.653 52.2L106.553 41.5H108.653L111.553 49.1H111.953L114.553 41.5H116.653L112.253 53.8C112.04 54.3867 111.746 54.8133 111.373 55.08C111.013 55.36 110.473 55.5 109.753 55.5H107.653ZM120.848 51.5L125.948 37.5H129.148L134.248 51.5H131.948L130.748 48.2H124.348L123.148 51.5H120.848ZM125.048 46.3H130.048L127.748 39.9H127.348L125.048 46.3ZM137.826 48.28C138.359 48.8267 139.033 49.1 139.846 49.1C140.659 49.1 141.326 48.8267 141.846 48.28C142.379 47.72 142.646 46.9933 142.646 46.1C142.646 45.2067 142.379 44.4867 141.846 43.94C141.326 43.38 140.659 43.1 139.846 43.1C139.033 43.1 138.359 43.38 137.826 43.94C137.306 44.4867 137.046 45.2067 137.046 46.1C137.046 46.9933 137.306 47.72 137.826 48.28ZM135.346 52.1H137.346C137.399 52.5933 137.653 53.0133 138.106 53.36C138.573 53.72 139.186 53.9 139.946 53.9C140.746 53.9 141.393 53.6533 141.886 53.16C142.393 52.68 142.646 52.06 142.646 51.3V49.7H142.546C142.319 49.9267 142.119 50.1067 141.946 50.24C141.773 50.3733 141.459 50.52 141.006 50.68C140.553 50.8267 140.033 50.9 139.446 50.9C138.179 50.9 137.126 50.46 136.286 49.58C135.459 48.6867 135.046 47.5267 135.046 46.1C135.046 44.6733 135.459 43.52 136.286 42.64C137.126 41.7467 138.179 41.3 139.446 41.3C140.779 41.3 141.813 41.7333 142.546 42.6H142.646L142.846 41.5H144.646V51.3C144.646 52.6333 144.233 53.7 143.406 54.5C142.579 55.3 141.426 55.7 139.946 55.7C139.173 55.7 138.479 55.58 137.866 55.34C137.253 55.1 136.773 54.7867 136.426 54.4C136.093 54.0267 135.833 53.64 135.646 53.24C135.473 52.8533 135.373 52.4733 135.346 52.1ZM148.745 45.7H154.645C154.539 44.8867 154.225 44.2333 153.705 43.74C153.185 43.2467 152.532 43 151.745 43C150.919 43 150.252 43.2467 149.745 43.74C149.239 44.22 148.905 44.8733 148.745 45.7ZM154.145 48.6H156.245C155.952 49.4 155.419 50.12 154.645 50.76C153.885 51.3867 152.919 51.7 151.745 51.7C150.292 51.7 149.092 51.22 148.145 50.26C147.212 49.3 146.745 48.0467 146.745 46.5C146.745 44.9533 147.212 43.7 148.145 42.74C149.092 41.78 150.292 41.3 151.745 41.3C153.105 41.3 154.245 41.7667 155.165 42.7C156.085 43.6333 156.545 44.8 156.545 46.2C156.545 46.32 156.525 46.56 156.485 46.92L156.445 47.2H148.745C148.852 48.0533 149.179 48.7333 149.725 49.24C150.272 49.7467 150.945 50 151.745 50C152.305 50 152.799 49.8667 153.225 49.6C153.665 49.32 153.972 48.9867 154.145 48.6ZM158.652 51.5V41.5H160.652V51.5H158.652ZM158.552 39.6V37.5H160.752V39.6H158.552ZM163.261 51.5V41.5H165.061L165.261 42.5H165.361C165.588 42.2733 165.834 42.0733 166.101 41.9C166.741 41.5 167.461 41.3 168.261 41.3C169.474 41.3 170.441 41.68 171.161 42.44C171.894 43.1867 172.261 44.2067 172.261 45.5V51.5H170.261V45.5C170.261 44.8467 170.028 44.2867 169.561 43.82C169.108 43.34 168.541 43.1 167.861 43.1C167.128 43.1 166.508 43.34 166.001 43.82C165.508 44.2867 165.261 44.8467 165.261 45.5V51.5H163.261ZM177.045 48.28C177.578 48.8267 178.252 49.1 179.065 49.1C179.878 49.1 180.545 48.8267 181.065 48.28C181.598 47.72 181.865 46.9933 181.865 46.1C181.865 45.2067 181.598 44.4867 181.065 43.94C180.545 43.38 179.878 43.1 179.065 43.1C178.252 43.1 177.578 43.38 177.045 43.94C176.525 44.4867 176.265 45.2067 176.265 46.1C176.265 46.9933 176.525 47.72 177.045 48.28ZM174.565 52.1H176.565C176.618 52.5933 176.872 53.0133 177.325 53.36C177.792 53.72 178.405 53.9 179.165 53.9C179.965 53.9 180.612 53.6533 181.105 53.16C181.612 52.68 181.865 52.06 181.865 51.3V49.7H181.765C181.538 49.9267 181.338 50.1067 181.165 50.24C180.992 50.3733 180.678 50.52 180.225 50.68C179.772 50.8267 179.252 50.9 178.665 50.9C177.398 50.9 176.345 50.46 175.505 49.58C174.678 48.6867 174.265 47.5267 174.265 46.1C174.265 44.6733 174.678 43.52 175.505 42.64C176.345 41.7467 177.398 41.3 178.665 41.3C179.998 41.3 181.032 41.7333 181.765 42.6H181.865L182.065 41.5H183.865V51.3C183.865 52.6333 183.452 53.7 182.625 54.5C181.798 55.3 180.645 55.7 179.165 55.7C178.392 55.7 177.698 55.58 177.085 55.34C176.472 55.1 175.992 54.7867 175.645 54.4C175.312 54.0267 175.052 53.64 174.865 53.24C174.692 52.8533 174.592 52.4733 174.565 52.1Z" fill="#F08B32"/>
<path d="M408 184C408 245.58 358.751 295.5 298 295.5C237.249 295.5 188 245.58 188 184C188 122.42 237.249 72.5 298 72.5C358.751 72.5 408 122.42 408 184ZM243 184C243 214.79 267.624 239.75 298 239.75C328.376 239.75 353 214.79 353 184C353 153.21 328.376 128.25 298 128.25C267.624 128.25 243 153.21 243 184Z" fill="#F4F4F4"/>
<path d="M379.926 258.405C363.866 276.573 342.372 288.902 318.737 293.501L308.368 238.75C320.186 236.451 330.933 230.287 338.963 221.202L379.926 258.405Z" fill="#E76E50"/>
<path d="M320.224 293.201C300.117 297.405 279.251 295.822 259.986 288.63C240.721 281.439 223.826 268.926 211.212 252.508L254.606 218.254C260.913 226.463 269.361 232.72 278.993 236.315C288.626 239.911 299.059 240.702 309.112 238.6L320.224 293.201Z" fill="#264753"/>
<path d="M212.434 254.069C202.783 241.96 195.741 227.937 191.76 212.902C187.779 197.868 186.948 182.155 189.32 166.776C191.693 151.396 197.216 136.69 205.534 123.605C213.852 110.52 224.782 99.3452 237.618 90.8004L267.809 137.4C261.391 141.673 255.926 147.26 251.767 153.803C247.608 160.345 244.846 167.698 243.66 175.388C242.474 183.078 242.89 190.934 244.88 198.451C246.87 205.968 250.391 212.98 255.217 219.034L212.434 254.069Z" fill="#FF8989"/>
<path d="M225.548 100.102C244.498 83.2881 268.566 73.5744 293.732 72.5839C318.898 71.5935 343.637 79.3864 363.816 94.6608L330.908 139.33C320.819 131.693 308.449 127.797 295.866 128.292C283.283 128.787 271.249 133.644 261.774 142.051L225.548 100.102Z" fill="#299D90"/>
<path d="M405.47 207.776C401.422 226.575 392.644 243.992 379.988 258.334L338.994 221.167C345.322 213.996 349.711 205.287 351.735 195.888L405.47 207.776Z" fill="#E9C469"/>
<path d="M352.434 87.1091C372.805 98.8677 388.937 116.916 398.478 138.62C408.018 160.325 410.469 184.552 405.472 207.768L351.736 195.884C354.234 184.276 353.009 172.163 348.239 161.31C343.468 150.458 335.402 141.434 325.217 135.555L352.434 87.1091Z" fill="#F4A462"/>
<circle cx="120" cy="322.5" r="6" fill="#264753"/>
<path d="M136.068 327.31C135.34 326.423 134.976 325.187 134.976 323.6C134.976 322.013 135.34 320.777 136.068 319.89C136.796 319.003 137.692 318.56 138.756 318.56C139.82 318.56 140.716 319.003 141.444 319.89C142.172 320.777 142.536 322.013 142.536 323.6C142.536 325.187 142.172 326.423 141.444 327.31C140.716 328.197 139.82 328.64 138.756 328.64C137.692 328.64 136.796 328.197 136.068 327.31ZM140.646 320.66C140.133 319.96 139.503 319.61 138.756 319.61C138.009 319.61 137.379 319.96 136.866 320.66C136.353 321.36 136.096 322.34 136.096 323.6C136.096 324.86 136.353 325.84 136.866 326.54C137.379 327.24 138.009 327.59 138.756 327.59C139.503 327.59 140.133 327.24 140.646 326.54C141.159 325.84 141.416 324.86 141.416 323.6C141.416 322.34 141.159 321.36 140.646 320.66ZM143.942 325V324.02H148.422V325H143.942ZM149.544 325.91H150.664C150.664 326.386 150.85 326.787 151.224 327.114C151.606 327.431 152.12 327.59 152.764 327.59C153.38 327.59 153.884 327.422 154.276 327.086C154.668 326.75 154.864 326.335 154.864 325.84C154.864 325.299 154.672 324.86 154.29 324.524C153.907 324.188 153.398 324.02 152.764 324.02H152.134V322.97H152.764C153.38 322.97 153.86 322.807 154.206 322.48C154.551 322.153 154.724 321.743 154.724 321.248C154.724 320.8 154.542 320.417 154.178 320.1C153.814 319.773 153.342 319.61 152.764 319.61C152.213 319.61 151.746 319.773 151.364 320.1C150.99 320.417 150.804 320.791 150.804 321.22H149.684C149.684 320.501 149.973 319.881 150.552 319.358C151.13 318.826 151.868 318.56 152.764 318.56C153.669 318.56 154.406 318.821 154.976 319.344C155.554 319.857 155.844 320.501 155.844 321.276C155.844 321.957 155.587 322.527 155.074 322.984C154.84 323.189 154.584 323.348 154.304 323.46V323.53C154.63 323.651 154.91 323.819 155.144 324.034C155.704 324.519 155.984 325.121 155.984 325.84C155.984 326.615 155.68 327.277 155.074 327.828C154.467 328.369 153.697 328.64 152.764 328.64C151.802 328.64 151.023 328.374 150.426 327.842C149.838 327.31 149.544 326.666 149.544 325.91ZM158.613 327.31C157.885 326.423 157.521 325.187 157.521 323.6C157.521 322.013 157.885 320.777 158.613 319.89C159.341 319.003 160.237 318.56 161.301 318.56C162.365 318.56 163.261 319.003 163.989 319.89C164.717 320.777 165.081 322.013 165.081 323.6C165.081 325.187 164.717 326.423 163.989 327.31C163.261 328.197 162.365 328.64 161.301 328.64C160.237 328.64 159.341 328.197 158.613 327.31ZM163.191 320.66C162.678 319.96 162.048 319.61 161.301 319.61C160.554 319.61 159.924 319.96 159.411 320.66C158.898 321.36 158.641 322.34 158.641 323.6C158.641 324.86 158.898 325.84 159.411 326.54C159.924 327.24 160.554 327.59 161.301 327.59C162.048 327.59 162.678 327.24 163.191 326.54C163.704 325.84 163.961 324.86 163.961 323.6C163.961 322.34 163.704 321.36 163.191 320.66ZM175.313 328.5L175.173 327.52H175.103C174.515 328.267 173.768 328.64 172.863 328.64C171.939 328.64 171.169 328.304 170.553 327.632C169.946 326.951 169.643 326.073 169.643 325C169.643 323.927 169.946 323.054 170.553 322.382C171.169 321.701 171.939 321.36 172.863 321.36C173.768 321.36 174.515 321.733 175.103 322.48H175.173V318.7H176.223V328.5H175.313ZM171.351 326.918C171.79 327.413 172.317 327.66 172.933 327.66C173.549 327.66 174.076 327.413 174.515 326.918C174.954 326.423 175.173 325.784 175.173 325C175.173 324.216 174.954 323.577 174.515 323.082C174.076 322.587 173.549 322.34 172.933 322.34C172.317 322.34 171.79 322.587 171.351 323.082C170.912 323.577 170.693 324.216 170.693 325C170.693 325.784 170.912 326.423 171.351 326.918ZM182.802 328.5L182.662 327.66H182.592C182.462 327.847 182.294 328.01 182.088 328.15C181.659 328.477 181.104 328.64 180.422 328.64C179.694 328.64 179.102 328.439 178.644 328.038C178.196 327.637 177.972 327.114 177.972 326.47C177.972 325.77 178.201 325.224 178.658 324.832C179.125 324.431 179.83 324.23 180.772 324.23H182.662V324.02C182.662 323.488 182.513 323.077 182.214 322.788C181.925 322.489 181.514 322.34 180.982 322.34C180.478 322.34 180.068 322.457 179.75 322.69C179.442 322.914 179.27 323.194 179.232 323.53H178.182C178.22 322.933 178.486 322.424 178.98 322.004C179.484 321.575 180.152 321.36 180.982 321.36C181.832 321.36 182.499 321.593 182.984 322.06C183.47 322.527 183.712 323.18 183.712 324.02V328.5H182.802ZM182.662 325.49V325.21H180.772C180.175 325.21 179.732 325.327 179.442 325.56C179.162 325.793 179.022 326.097 179.022 326.47C179.022 326.834 179.144 327.123 179.386 327.338C179.629 327.553 179.974 327.66 180.422 327.66C181.122 327.66 181.668 327.469 182.06 327.086C182.462 326.694 182.662 326.162 182.662 325.49ZM185.333 331.3V330.32H186.663C186.896 330.32 187.06 330.18 187.153 329.9L187.433 329.06L184.563 321.5H185.683L187.853 327.31H188.133L190.093 321.5H191.213L188.063 330.32C187.942 330.665 187.783 330.913 187.587 331.062C187.391 331.221 187.106 331.3 186.733 331.3H185.333ZM191.774 326.47H192.824C192.824 326.797 192.978 327.077 193.286 327.31C193.604 327.543 194.033 327.66 194.574 327.66C195.106 327.66 195.517 327.562 195.806 327.366C196.105 327.161 196.254 326.909 196.254 326.61C196.254 326.059 195.858 325.709 195.064 325.56L193.874 325.35C192.568 325.135 191.914 324.482 191.914 323.39C191.914 322.802 192.138 322.317 192.586 321.934C193.034 321.551 193.674 321.36 194.504 321.36C195.316 321.36 195.974 321.575 196.478 322.004C196.982 322.433 197.234 322.942 197.234 323.53H196.184C196.184 323.203 196.03 322.923 195.722 322.69C195.424 322.457 195.018 322.34 194.504 322.34C194 322.34 193.618 322.443 193.356 322.648C193.095 322.844 192.964 323.091 192.964 323.39C192.964 323.903 193.338 324.23 194.084 324.37L195.274 324.58C195.974 324.711 196.488 324.944 196.814 325.28C197.141 325.607 197.304 326.05 197.304 326.61C197.304 327.198 197.066 327.683 196.59 328.066C196.124 328.449 195.452 328.64 194.574 328.64C193.734 328.64 193.058 328.425 192.544 327.996C192.031 327.567 191.774 327.058 191.774 326.47Z" fill="white"/>
<circle cx="260" cy="322.5" r="6" fill="#FF8989"/>
<path d="M272.987 325.91H274.107C274.107 326.386 274.294 326.787 274.667 327.114C275.05 327.431 275.563 327.59 276.207 327.59C276.823 327.59 277.327 327.422 277.719 327.086C278.111 326.75 278.307 326.335 278.307 325.84C278.307 325.299 278.116 324.86 277.733 324.524C277.35 324.188 276.842 324.02 276.207 324.02H275.577V322.97H276.207C276.823 322.97 277.304 322.807 277.649 322.48C277.994 322.153 278.167 321.743 278.167 321.248C278.167 320.8 277.985 320.417 277.621 320.1C277.257 319.773 276.786 319.61 276.207 319.61C275.656 319.61 275.19 319.773 274.807 320.1C274.434 320.417 274.247 320.791 274.247 321.22H273.127C273.127 320.501 273.416 319.881 273.995 319.358C274.574 318.826 275.311 318.56 276.207 318.56C277.112 318.56 277.85 318.821 278.419 319.344C278.998 319.857 279.287 320.501 279.287 321.276C279.287 321.957 279.03 322.527 278.517 322.984C278.284 323.189 278.027 323.348 277.747 323.46V323.53C278.074 323.651 278.354 323.819 278.587 324.034C279.147 324.519 279.427 325.121 279.427 325.84C279.427 326.615 279.124 327.277 278.517 327.828C277.91 328.369 277.14 328.64 276.207 328.64C275.246 328.64 274.466 328.374 273.869 327.842C273.281 327.31 272.987 326.666 272.987 325.91ZM282.644 328.5V320.8H280.544V319.82H282.224C282.504 319.82 282.644 319.68 282.644 319.4V318.7H283.764V328.5H282.644ZM285.514 325V324.02H289.994V325H285.514ZM291.746 323.46L294.826 318.7H296.086L293.776 322.34H293.846L294.112 322.27C294.299 322.223 294.513 322.2 294.756 322.2C295.643 322.2 296.389 322.499 296.996 323.096C297.603 323.693 297.906 324.445 297.906 325.35C297.906 326.265 297.579 327.044 296.926 327.688C296.282 328.323 295.489 328.64 294.546 328.64C293.603 328.64 292.805 328.323 292.152 327.688C291.508 327.044 291.186 326.265 291.186 325.35C291.186 324.669 291.373 324.039 291.746 323.46ZM292.95 326.946C293.379 327.375 293.911 327.59 294.546 327.59C295.181 327.59 295.713 327.375 296.142 326.946C296.571 326.507 296.786 325.975 296.786 325.35C296.786 324.725 296.571 324.197 296.142 323.768C295.713 323.329 295.181 323.11 294.546 323.11C293.911 323.11 293.379 323.329 292.95 323.768C292.521 324.197 292.306 324.725 292.306 325.35C292.306 325.975 292.521 326.507 292.95 326.946ZM300.322 327.31C299.594 326.423 299.23 325.187 299.23 323.6C299.23 322.013 299.594 320.777 300.322 319.89C301.05 319.003 301.946 318.56 303.01 318.56C304.074 318.56 304.97 319.003 305.698 319.89C306.426 320.777 306.79 322.013 306.79 323.6C306.79 325.187 306.426 326.423 305.698 327.31C304.97 328.197 304.074 328.64 303.01 328.64C301.946 328.64 301.05 328.197 300.322 327.31ZM304.9 320.66C304.387 319.96 303.757 319.61 303.01 319.61C302.263 319.61 301.633 319.96 301.12 320.66C300.607 321.36 300.35 322.34 300.35 323.6C300.35 324.86 300.607 325.84 301.12 326.54C301.633 327.24 302.263 327.59 303.01 327.59C303.757 327.59 304.387 327.24 304.9 326.54C305.413 325.84 305.67 324.86 305.67 323.6C305.67 322.34 305.413 321.36 304.9 320.66ZM317.022 328.5L316.882 327.52H316.812C316.224 328.267 315.477 328.64 314.572 328.64C313.648 328.64 312.878 328.304 312.262 327.632C311.655 326.951 311.352 326.073 311.352 325C311.352 323.927 311.655 323.054 312.262 322.382C312.878 321.701 313.648 321.36 314.572 321.36C315.477 321.36 316.224 321.733 316.812 322.48H316.882V318.7H317.932V328.5H317.022ZM313.06 326.918C313.499 327.413 314.026 327.66 314.642 327.66C315.258 327.66 315.785 327.413 316.224 326.918C316.663 326.423 316.882 325.784 316.882 325C316.882 324.216 316.663 323.577 316.224 323.082C315.785 322.587 315.258 322.34 314.642 322.34C314.026 322.34 313.499 322.587 313.06 323.082C312.621 323.577 312.402 324.216 312.402 325C312.402 325.784 312.621 326.423 313.06 326.918ZM324.511 328.5L324.371 327.66H324.301C324.171 327.847 324.003 328.01 323.797 328.15C323.368 328.477 322.813 328.64 322.131 328.64C321.403 328.64 320.811 328.439 320.353 328.038C319.905 327.637 319.681 327.114 319.681 326.47C319.681 325.77 319.91 325.224 320.367 324.832C320.834 324.431 321.539 324.23 322.481 324.23H324.371V324.02C324.371 323.488 324.222 323.077 323.923 322.788C323.634 322.489 323.223 322.34 322.691 322.34C322.187 322.34 321.777 322.457 321.459 322.69C321.151 322.914 320.979 323.194 320.941 323.53H319.891C319.929 322.933 320.195 322.424 320.689 322.004C321.193 321.575 321.861 321.36 322.691 321.36C323.541 321.36 324.208 321.593 324.693 322.06C325.179 322.527 325.421 323.18 325.421 324.02V328.5H324.511ZM324.371 325.49V325.21H322.481C321.884 325.21 321.441 325.327 321.151 325.56C320.871 325.793 320.731 326.097 320.731 326.47C320.731 326.834 320.853 327.123 321.095 327.338C321.338 327.553 321.683 327.66 322.131 327.66C322.831 327.66 323.377 327.469 323.769 327.086C324.171 326.694 324.371 326.162 324.371 325.49ZM327.042 331.3V330.32H328.372C328.605 330.32 328.769 330.18 328.862 329.9L329.142 329.06L326.272 321.5H327.392L329.562 327.31H329.842L331.802 321.5H332.922L329.772 330.32C329.651 330.665 329.492 330.913 329.296 331.062C329.1 331.221 328.815 331.3 328.442 331.3H327.042ZM333.483 326.47H334.533C334.533 326.797 334.687 327.077 334.995 327.31C335.313 327.543 335.742 327.66 336.283 327.66C336.815 327.66 337.226 327.562 337.515 327.366C337.814 327.161 337.963 326.909 337.963 326.61C337.963 326.059 337.567 325.709 336.773 325.56L335.583 325.35C334.277 325.135 333.623 324.482 333.623 323.39C333.623 322.802 333.847 322.317 334.295 321.934C334.743 321.551 335.383 321.36 336.213 321.36C337.025 321.36 337.683 321.575 338.187 322.004C338.691 322.433 338.943 322.942 338.943 323.53H337.893C337.893 323.203 337.739 322.923 337.431 322.69C337.133 322.457 336.727 322.34 336.213 322.34C335.709 322.34 335.327 322.443 335.065 322.648C334.804 322.844 334.673 323.091 334.673 323.39C334.673 323.903 335.047 324.23 335.793 324.37L336.983 324.58C337.683 324.711 338.197 324.944 338.523 325.28C338.85 325.607 339.013 326.05 339.013 326.61C339.013 327.198 338.775 327.683 338.299 328.066C337.833 328.449 337.161 328.64 336.283 328.64C335.443 328.64 334.767 328.425 334.253 327.996C333.74 327.567 333.483 327.058 333.483 326.47Z" fill="white"/>
<circle cx="400" cy="322.5" r="6" fill="#299D90"/>
<path d="M411.724 323.46L414.804 318.7H416.064L413.754 322.34H413.824L414.09 322.27C414.276 322.223 414.491 322.2 414.734 322.2C415.62 322.2 416.367 322.499 416.974 323.096C417.58 323.693 417.884 324.445 417.884 325.35C417.884 326.265 417.557 327.044 416.904 327.688C416.26 328.323 415.466 328.64 414.524 328.64C413.581 328.64 412.783 328.323 412.13 327.688C411.486 327.044 411.164 326.265 411.164 325.35C411.164 324.669 411.35 324.039 411.724 323.46ZM412.928 326.946C413.357 327.375 413.889 327.59 414.524 327.59C415.158 327.59 415.69 327.375 416.12 326.946C416.549 326.507 416.764 325.975 416.764 325.35C416.764 324.725 416.549 324.197 416.12 323.768C415.69 323.329 415.158 323.11 414.524 323.11C413.889 323.11 413.357 323.329 412.928 323.768C412.498 324.197 412.284 324.725 412.284 325.35C412.284 325.975 412.498 326.507 412.928 326.946ZM420.614 328.5V320.8H418.514V319.82H420.194C420.474 319.82 420.614 319.68 420.614 319.4V318.7H421.734V328.5H420.614ZM423.484 325V324.02H427.964V325H423.484ZM430.622 328.5V320.8H428.522V319.82H430.202C430.482 319.82 430.622 319.68 430.622 319.4V318.7H431.742V328.5H430.622ZM433.631 328.5V327.59L437.621 323.32C437.92 322.993 438.135 322.704 438.265 322.452C438.396 322.191 438.461 321.873 438.461 321.5C438.461 320.94 438.284 320.487 437.929 320.142C437.584 319.787 437.131 319.61 436.571 319.61C436.039 319.61 435.591 319.806 435.227 320.198C434.863 320.59 434.681 321.094 434.681 321.71H433.561C433.561 320.795 433.841 320.044 434.401 319.456C434.971 318.859 435.694 318.56 436.571 318.56C437.449 318.56 438.167 318.835 438.727 319.386C439.297 319.927 439.581 320.632 439.581 321.5C439.581 322.041 439.483 322.503 439.287 322.886C439.091 323.259 438.793 323.661 438.391 324.09L435.241 327.38V327.45H439.791V328.5H433.631ZM442.216 327.31C441.488 326.423 441.124 325.187 441.124 323.6C441.124 322.013 441.488 320.777 442.216 319.89C442.944 319.003 443.84 318.56 444.904 318.56C445.968 318.56 446.864 319.003 447.592 319.89C448.32 320.777 448.684 322.013 448.684 323.6C448.684 325.187 448.32 326.423 447.592 327.31C446.864 328.197 445.968 328.64 444.904 328.64C443.84 328.64 442.944 328.197 442.216 327.31ZM446.794 320.66C446.28 319.96 445.65 319.61 444.904 319.61C444.157 319.61 443.527 319.96 443.014 320.66C442.5 321.36 442.244 322.34 442.244 323.6C442.244 324.86 442.5 325.84 443.014 326.54C443.527 327.24 444.157 327.59 444.904 327.59C445.65 327.59 446.28 327.24 446.794 326.54C447.307 325.84 447.564 324.86 447.564 323.6C447.564 322.34 447.307 321.36 446.794 320.66ZM458.916 328.5L458.776 327.52H458.706C458.118 328.267 457.371 328.64 456.466 328.64C455.542 328.64 454.772 328.304 454.156 327.632C453.549 326.951 453.246 326.073 453.246 325C453.246 323.927 453.549 323.054 454.156 322.382C454.772 321.701 455.542 321.36 456.466 321.36C457.371 321.36 458.118 321.733 458.706 322.48H458.776V318.7H459.826V328.5H458.916ZM454.954 326.918C455.392 327.413 455.92 327.66 456.536 327.66C457.152 327.66 457.679 327.413 458.118 326.918C458.556 326.423 458.776 325.784 458.776 325C458.776 324.216 458.556 323.577 458.118 323.082C457.679 322.587 457.152 322.34 456.536 322.34C455.92 322.34 455.392 322.587 454.954 323.082C454.515 323.577 454.296 324.216 454.296 325C454.296 325.784 454.515 326.423 454.954 326.918ZM466.405 328.5L466.265 327.66H466.195C466.064 327.847 465.896 328.01 465.691 328.15C465.262 328.477 464.706 328.64 464.025 328.64C463.297 328.64 462.704 328.439 462.247 328.038C461.799 327.637 461.575 327.114 461.575 326.47C461.575 325.77 461.804 325.224 462.261 324.832C462.728 324.431 463.432 324.23 464.375 324.23H466.265V324.02C466.265 323.488 466.116 323.077 465.817 322.788C465.528 322.489 465.117 322.34 464.585 322.34C464.081 322.34 463.67 322.457 463.353 322.69C463.045 322.914 462.872 323.194 462.835 323.53H461.785C461.822 322.933 462.088 322.424 462.583 322.004C463.087 321.575 463.754 321.36 464.585 321.36C465.434 321.36 466.102 321.593 466.587 322.06C467.072 322.527 467.315 323.18 467.315 324.02V328.5H466.405ZM466.265 325.49V325.21H464.375C463.778 325.21 463.334 325.327 463.045 325.56C462.765 325.793 462.625 326.097 462.625 326.47C462.625 326.834 462.746 327.123 462.989 327.338C463.232 327.553 463.577 327.66 464.025 327.66C464.725 327.66 465.271 327.469 465.663 327.086C466.064 326.694 466.265 326.162 466.265 325.49ZM468.935 331.3V330.32H470.265C470.499 330.32 470.662 330.18 470.755 329.9L471.035 329.06L468.165 321.5H469.285L471.455 327.31H471.735L473.695 321.5H474.815L471.665 330.32C471.544 330.665 471.385 330.913 471.189 331.062C470.993 331.221 470.709 331.3 470.335 331.3H468.935ZM475.377 326.47H476.427C476.427 326.797 476.581 327.077 476.889 327.31C477.206 327.543 477.636 327.66 478.177 327.66C478.709 327.66 479.12 327.562 479.409 327.366C479.708 327.161 479.857 326.909 479.857 326.61C479.857 326.059 479.46 325.709 478.667 325.56L477.477 325.35C476.17 325.135 475.517 324.482 475.517 323.39C475.517 322.802 475.741 322.317 476.189 321.934C476.637 321.551 477.276 321.36 478.107 321.36C478.919 321.36 479.577 321.575 480.081 322.004C480.585 322.433 480.837 322.942 480.837 323.53H479.787C479.787 323.203 479.633 322.923 479.325 322.69C479.026 322.457 478.62 322.34 478.107 322.34C477.603 322.34 477.22 322.443 476.959 322.648C476.698 322.844 476.567 323.091 476.567 323.39C476.567 323.903 476.94 324.23 477.687 324.37L478.877 324.58C479.577 324.711 480.09 324.944 480.417 325.28C480.744 325.607 480.907 326.05 480.907 326.61C480.907 327.198 480.669 327.683 480.193 328.066C479.726 328.449 479.054 328.64 478.177 328.64C477.337 328.64 476.66 328.425 476.147 327.996C475.634 327.567 475.377 327.058 475.377 326.47Z" fill="white"/>
<circle cx="113.5" cy="353.5" r="6" fill="#F4A462"/>
<path d="M126.327 358.5V350.8H124.227V349.82H125.907C126.187 349.82 126.327 349.68 126.327 349.4V348.7H127.447V358.5H126.327ZM129.336 358.5V357.59L133.326 353.32C133.625 352.993 133.84 352.704 133.97 352.452C134.101 352.191 134.166 351.873 134.166 351.5C134.166 350.94 133.989 350.487 133.634 350.142C133.289 349.787 132.836 349.61 132.276 349.61C131.744 349.61 131.296 349.806 130.932 350.198C130.568 350.59 130.386 351.094 130.386 351.71H129.266C129.266 350.795 129.546 350.044 130.106 349.456C130.676 348.859 131.399 348.56 132.276 348.56C133.154 348.56 133.872 348.835 134.432 349.386C135.002 349.927 135.286 350.632 135.286 351.5C135.286 352.041 135.188 352.503 134.992 352.886C134.796 353.259 134.498 353.661 134.096 354.09L130.946 357.38V357.45H135.496V358.5H129.336ZM138.509 358.5V350.8H136.409V349.82H138.089C138.369 349.82 138.509 349.68 138.509 349.4V348.7H139.629V358.5H138.509ZM144.605 355V354.02H149.085V355H144.605ZM155.393 358.5V350.8H153.293V349.82H154.973C155.253 349.82 155.393 349.68 155.393 349.4V348.7H156.513V358.5H155.393ZM159.873 353.46V353.39C159.621 353.25 159.397 353.082 159.201 352.886C158.762 352.447 158.543 351.915 158.543 351.29C158.543 350.515 158.827 349.867 159.397 349.344C159.966 348.821 160.685 348.56 161.553 348.56C162.421 348.56 163.139 348.821 163.709 349.344C164.278 349.867 164.563 350.515 164.563 351.29C164.563 351.906 164.339 352.438 163.891 352.886C163.704 353.073 163.485 353.241 163.233 353.39V353.46C163.494 353.581 163.751 353.759 164.003 353.992C164.516 354.505 164.773 355.121 164.773 355.84C164.773 356.596 164.469 357.254 163.863 357.814C163.265 358.365 162.495 358.64 161.553 358.64C160.601 358.64 159.826 358.365 159.229 357.814C158.631 357.263 158.333 356.605 158.333 355.84C158.333 355.103 158.589 354.487 159.103 353.992C159.336 353.759 159.593 353.581 159.873 353.46ZM160.167 350.1C159.831 350.417 159.663 350.814 159.663 351.29C159.663 351.766 159.831 352.167 160.167 352.494C160.512 352.811 160.974 352.97 161.553 352.97C162.131 352.97 162.589 352.811 162.925 352.494C163.27 352.167 163.443 351.766 163.443 351.29C163.443 350.814 163.27 350.417 162.925 350.1C162.589 349.773 162.131 349.61 161.553 349.61C160.974 349.61 160.512 349.773 160.167 350.1ZM160.055 354.468C159.653 354.813 159.453 355.247 159.453 355.77C159.453 356.293 159.653 356.727 160.055 357.072C160.456 357.417 160.955 357.59 161.553 357.59C162.15 357.59 162.649 357.417 163.051 357.072C163.452 356.727 163.653 356.293 163.653 355.77C163.653 355.247 163.452 354.813 163.051 354.468C162.649 354.123 162.15 353.95 161.553 353.95C160.955 353.95 160.456 354.123 160.055 354.468ZM167.329 357.31C166.601 356.423 166.237 355.187 166.237 353.6C166.237 352.013 166.601 350.777 167.329 349.89C168.057 349.003 168.953 348.56 170.017 348.56C171.081 348.56 171.977 349.003 172.705 349.89C173.433 350.777 173.797 352.013 173.797 353.6C173.797 355.187 173.433 356.423 172.705 357.31C171.977 358.197 171.081 358.64 170.017 358.64C168.953 358.64 168.057 358.197 167.329 357.31ZM171.907 350.66C171.393 349.96 170.763 349.61 170.017 349.61C169.27 349.61 168.64 349.96 168.127 350.66C167.613 351.36 167.357 352.34 167.357 353.6C167.357 354.86 167.613 355.84 168.127 356.54C168.64 357.24 169.27 357.59 170.017 357.59C170.763 357.59 171.393 357.24 171.907 356.54C172.42 355.84 172.677 354.86 172.677 353.6C172.677 352.34 172.42 351.36 171.907 350.66ZM178.919 358.5V348.7H182.209C183.571 348.7 184.691 349.162 185.569 350.086C186.455 351.001 186.899 352.172 186.899 353.6C186.899 355.028 186.455 356.204 185.569 357.128C184.691 358.043 183.571 358.5 182.209 358.5H178.919ZM180.039 357.45H182.209C183.235 357.45 184.085 357.095 184.757 356.386C185.438 355.667 185.779 354.739 185.779 353.6C185.779 352.461 185.438 351.537 184.757 350.828C184.085 350.109 183.235 349.75 182.209 349.75H180.039V357.45ZM193.132 358.5L192.992 357.66H192.922C192.791 357.847 192.623 358.01 192.418 358.15C191.988 358.477 191.433 358.64 190.752 358.64C190.024 358.64 189.431 358.439 188.974 358.038C188.526 357.637 188.302 357.114 188.302 356.47C188.302 355.77 188.53 355.224 188.988 354.832C189.454 354.431 190.159 354.23 191.102 354.23H192.992V354.02C192.992 353.488 192.842 353.077 192.544 352.788C192.254 352.489 191.844 352.34 191.312 352.34C190.808 352.34 190.397 352.457 190.08 352.69C189.772 352.914 189.599 353.194 189.562 353.53H188.512C188.549 352.933 188.815 352.424 189.31 352.004C189.814 351.575 190.481 351.36 191.312 351.36C192.161 351.36 192.828 351.593 193.314 352.06C193.799 352.527 194.042 353.18 194.042 354.02V358.5H193.132ZM192.992 355.49V355.21H191.102C190.504 355.21 190.061 355.327 189.772 355.56C189.492 355.793 189.352 356.097 189.352 356.47C189.352 356.834 189.473 357.123 189.716 357.338C189.958 357.553 190.304 357.66 190.752 357.66C191.452 357.66 191.998 357.469 192.39 357.086C192.791 356.694 192.992 356.162 192.992 355.49ZM195.662 361.3V360.32H196.992C197.225 360.32 197.389 360.18 197.482 359.9L197.762 359.06L194.892 351.5H196.012L198.182 357.31H198.462L200.422 351.5H201.542L198.392 360.32C198.271 360.665 198.112 360.913 197.916 361.062C197.72 361.221 197.435 361.3 197.062 361.3H195.662ZM202.104 356.47H203.154C203.154 356.797 203.308 357.077 203.616 357.31C203.933 357.543 204.362 357.66 204.904 357.66C205.436 357.66 205.846 357.562 206.136 357.366C206.434 357.161 206.584 356.909 206.584 356.61C206.584 356.059 206.187 355.709 205.394 355.56L204.204 355.35C202.897 355.135 202.244 354.482 202.244 353.39C202.244 352.802 202.468 352.317 202.916 351.934C203.364 351.551 204.003 351.36 204.834 351.36C205.646 351.36 206.304 351.575 206.808 352.004C207.312 352.433 207.564 352.942 207.564 353.53H206.514C206.514 353.203 206.36 352.923 206.052 352.69C205.753 352.457 205.347 352.34 204.834 352.34C204.33 352.34 203.947 352.443 203.686 352.648C203.424 352.844 203.294 353.091 203.294 353.39C203.294 353.903 203.667 354.23 204.414 354.37L205.604 354.58C206.304 354.711 206.817 354.944 207.144 355.28C207.47 355.607 207.634 356.05 207.634 356.61C207.634 357.198 207.396 357.683 206.92 358.066C206.453 358.449 205.781 358.64 204.904 358.64C204.064 358.64 203.387 358.425 202.874 357.996C202.36 357.567 202.104 357.058 202.104 356.47Z" fill="white"/>
<circle cx="252" cy="353.5" r="6" fill="#E9C469"/>
<path d="M264.652 358.5V350.8H262.552V349.82H264.232C264.512 349.82 264.652 349.68 264.652 349.4V348.7H265.772V358.5H264.652ZM269.132 353.46V353.39C268.88 353.25 268.656 353.082 268.46 352.886C268.021 352.447 267.802 351.915 267.802 351.29C267.802 350.515 268.086 349.867 268.656 349.344C269.225 348.821 269.944 348.56 270.812 348.56C271.68 348.56 272.398 348.821 272.968 349.344C273.537 349.867 273.822 350.515 273.822 351.29C273.822 351.906 273.598 352.438 273.15 352.886C272.963 353.073 272.744 353.241 272.492 353.39V353.46C272.753 353.581 273.01 353.759 273.262 353.992C273.775 354.505 274.032 355.121 274.032 355.84C274.032 356.596 273.728 357.254 273.122 357.814C272.524 358.365 271.754 358.64 270.812 358.64C269.86 358.64 269.085 358.365 268.488 357.814C267.89 357.263 267.592 356.605 267.592 355.84C267.592 355.103 267.848 354.487 268.362 353.992C268.595 353.759 268.852 353.581 269.132 353.46ZM269.426 350.1C269.09 350.417 268.922 350.814 268.922 351.29C268.922 351.766 269.09 352.167 269.426 352.494C269.771 352.811 270.233 352.97 270.812 352.97C271.39 352.97 271.848 352.811 272.184 352.494C272.529 352.167 272.702 351.766 272.702 351.29C272.702 350.814 272.529 350.417 272.184 350.1C271.848 349.773 271.39 349.61 270.812 349.61C270.233 349.61 269.771 349.773 269.426 350.1ZM269.314 354.468C268.912 354.813 268.712 355.247 268.712 355.77C268.712 356.293 268.912 356.727 269.314 357.072C269.715 357.417 270.214 357.59 270.812 357.59C271.409 357.59 271.908 357.417 272.31 357.072C272.711 356.727 272.912 356.293 272.912 355.77C272.912 355.247 272.711 354.813 272.31 354.468C271.908 354.123 271.409 353.95 270.812 353.95C270.214 353.95 269.715 354.123 269.314 354.468ZM277.176 358.5V350.8H275.076V349.82H276.756C277.036 349.82 277.176 349.68 277.176 349.4V348.7H278.296V358.5H277.176ZM283.272 355V354.02H287.752V355H283.272ZM292.1 355.91H293.22C293.22 356.386 293.407 356.787 293.78 357.114C294.163 357.431 294.676 357.59 295.32 357.59C295.936 357.59 296.44 357.422 296.832 357.086C297.224 356.75 297.42 356.335 297.42 355.84C297.42 355.299 297.229 354.86 296.846 354.524C296.464 354.188 295.955 354.02 295.32 354.02H294.69V352.97H295.32C295.936 352.97 296.417 352.807 296.762 352.48C297.108 352.153 297.28 351.743 297.28 351.248C297.28 350.8 297.098 350.417 296.734 350.1C296.37 349.773 295.899 349.61 295.32 349.61C294.77 349.61 294.303 349.773 293.92 350.1C293.547 350.417 293.36 350.791 293.36 351.22H292.24C292.24 350.501 292.53 349.881 293.108 349.358C293.687 348.826 294.424 348.56 295.32 348.56C296.226 348.56 296.963 348.821 297.532 349.344C298.111 349.857 298.4 350.501 298.4 351.276C298.4 351.957 298.144 352.527 297.63 352.984C297.397 353.189 297.14 353.348 296.86 353.46V353.53C297.187 353.651 297.467 353.819 297.7 354.034C298.26 354.519 298.54 355.121 298.54 355.84C298.54 356.615 298.237 357.277 297.63 357.828C297.024 358.369 296.254 358.64 295.32 358.64C294.359 358.64 293.58 358.374 292.982 357.842C292.394 357.31 292.1 356.666 292.1 355.91ZM300.428 353.46L303.508 348.7H304.768L302.458 352.34H302.528L302.794 352.27C302.98 352.223 303.195 352.2 303.438 352.2C304.324 352.2 305.071 352.499 305.678 353.096C306.284 353.693 306.588 354.445 306.588 355.35C306.588 356.265 306.261 357.044 305.608 357.688C304.964 358.323 304.17 358.64 303.228 358.64C302.285 358.64 301.487 358.323 300.834 357.688C300.19 357.044 299.868 356.265 299.868 355.35C299.868 354.669 300.054 354.039 300.428 353.46ZM301.632 356.946C302.061 357.375 302.593 357.59 303.228 357.59C303.862 357.59 304.394 357.375 304.824 356.946C305.253 356.507 305.468 355.975 305.468 355.35C305.468 354.725 305.253 354.197 304.824 353.768C304.394 353.329 303.862 353.11 303.228 353.11C302.593 353.11 302.061 353.329 301.632 353.768C301.202 354.197 300.988 354.725 300.988 355.35C300.988 355.975 301.202 356.507 301.632 356.946ZM309.004 357.31C308.276 356.423 307.912 355.187 307.912 353.6C307.912 352.013 308.276 350.777 309.004 349.89C309.732 349.003 310.628 348.56 311.692 348.56C312.756 348.56 313.652 349.003 314.38 349.89C315.108 350.777 315.472 352.013 315.472 353.6C315.472 355.187 315.108 356.423 314.38 357.31C313.652 358.197 312.756 358.64 311.692 358.64C310.628 358.64 309.732 358.197 309.004 357.31ZM313.582 350.66C313.068 349.96 312.438 349.61 311.692 349.61C310.945 349.61 310.315 349.96 309.802 350.66C309.288 351.36 309.032 352.34 309.032 353.6C309.032 354.86 309.288 355.84 309.802 356.54C310.315 357.24 310.945 357.59 311.692 357.59C312.438 357.59 313.068 357.24 313.582 356.54C314.095 355.84 314.352 354.86 314.352 353.6C314.352 352.34 314.095 351.36 313.582 350.66ZM320.594 358.5V348.7H323.884C325.246 348.7 326.366 349.162 327.244 350.086C328.13 351.001 328.574 352.172 328.574 353.6C328.574 355.028 328.13 356.204 327.244 357.128C326.366 358.043 325.246 358.5 323.884 358.5H320.594ZM321.714 357.45H323.884C324.91 357.45 325.76 357.095 326.432 356.386C327.113 355.667 327.454 354.739 327.454 353.6C327.454 352.461 327.113 351.537 326.432 350.828C325.76 350.109 324.91 349.75 323.884 349.75H321.714V357.45ZM334.806 358.5L334.666 357.66H334.596C334.466 357.847 334.298 358.01 334.092 358.15C333.663 358.477 333.108 358.64 332.426 358.64C331.698 358.64 331.106 358.439 330.648 358.038C330.2 357.637 329.976 357.114 329.976 356.47C329.976 355.77 330.205 355.224 330.662 354.832C331.129 354.431 331.834 354.23 332.776 354.23H334.666V354.02C334.666 353.488 334.517 353.077 334.218 352.788C333.929 352.489 333.518 352.34 332.986 352.34C332.482 352.34 332.072 352.457 331.754 352.69C331.446 352.914 331.274 353.194 331.236 353.53H330.186C330.224 352.933 330.49 352.424 330.984 352.004C331.488 351.575 332.156 351.36 332.986 351.36C333.836 351.36 334.503 351.593 334.988 352.06C335.474 352.527 335.716 353.18 335.716 354.02V358.5H334.806ZM334.666 355.49V355.21H332.776C332.179 355.21 331.736 355.327 331.446 355.56C331.166 355.793 331.026 356.097 331.026 356.47C331.026 356.834 331.148 357.123 331.39 357.338C331.633 357.553 331.978 357.66 332.426 357.66C333.126 357.66 333.672 357.469 334.064 357.086C334.466 356.694 334.666 356.162 334.666 355.49ZM337.337 361.3V360.32H338.667C338.9 360.32 339.063 360.18 339.157 359.9L339.437 359.06L336.567 351.5H337.687L339.857 357.31H340.137L342.097 351.5H343.217L340.067 360.32C339.945 360.665 339.787 360.913 339.591 361.062C339.395 361.221 339.11 361.3 338.737 361.3H337.337ZM343.778 356.47H344.828C344.828 356.797 344.982 357.077 345.29 357.31C345.608 357.543 346.037 357.66 346.578 357.66C347.11 357.66 347.521 357.562 347.81 357.366C348.109 357.161 348.258 356.909 348.258 356.61C348.258 356.059 347.862 355.709 347.068 355.56L345.878 355.35C344.572 355.135 343.918 354.482 343.918 353.39C343.918 352.802 344.142 352.317 344.59 351.934C345.038 351.551 345.678 351.36 346.508 351.36C347.32 351.36 347.978 351.575 348.482 352.004C348.986 352.433 349.238 352.942 349.238 353.53H348.188C348.188 353.203 348.034 352.923 347.726 352.69C347.428 352.457 347.022 352.34 346.508 352.34C346.004 352.34 345.622 352.443 345.36 352.648C345.099 352.844 344.968 353.091 344.968 353.39C344.968 353.903 345.342 354.23 346.088 354.37L347.278 354.58C347.978 354.711 348.492 354.944 348.818 355.28C349.145 355.607 349.308 356.05 349.308 356.61C349.308 357.198 349.07 357.683 348.594 358.066C348.128 358.449 347.456 358.64 346.578 358.64C345.738 358.64 345.062 358.425 344.548 357.996C344.035 357.567 343.778 357.058 343.778 356.47Z" fill="white"/>
<circle cx="400" cy="353.5" r="6" fill="#E76E50"/>
<path d="M412.292 359.5L416.002 349.7H417.682L421.392 359.5H420.202L419.292 356.98H414.392L413.482 359.5H412.292ZM414.812 355.93H418.872L416.982 350.89H416.702L414.812 355.93ZM422.447 359.5V349.7H423.497V353.48H423.567C424.155 352.733 424.902 352.36 425.807 352.36C426.731 352.36 427.497 352.701 428.103 353.382C428.719 354.054 429.027 354.927 429.027 356C429.027 357.073 428.719 357.951 428.103 358.632C427.497 359.304 426.731 359.64 425.807 359.64C424.902 359.64 424.155 359.267 423.567 358.52H423.497L423.357 359.5H422.447ZM424.155 357.918C424.594 358.413 425.121 358.66 425.737 358.66C426.353 358.66 426.881 358.413 427.319 357.918C427.758 357.423 427.977 356.784 427.977 356C427.977 355.216 427.758 354.577 427.319 354.082C426.881 353.587 426.353 353.34 425.737 353.34C425.121 353.34 424.594 353.587 424.155 354.082C423.717 354.577 423.497 355.216 423.497 356C423.497 356.784 423.717 357.423 424.155 357.918ZM435.901 358.632C435.266 359.304 434.468 359.64 433.507 359.64C432.546 359.64 431.743 359.304 431.099 358.632C430.464 357.951 430.147 357.073 430.147 356C430.147 354.927 430.464 354.054 431.099 353.382C431.743 352.701 432.546 352.36 433.507 352.36C434.468 352.36 435.266 352.701 435.901 353.382C436.545 354.054 436.867 354.927 436.867 356C436.867 357.073 436.545 357.951 435.901 358.632ZM431.855 357.918C432.303 358.413 432.854 358.66 433.507 358.66C434.16 358.66 434.706 358.413 435.145 357.918C435.593 357.423 435.817 356.784 435.817 356C435.817 355.216 435.593 354.577 435.145 354.082C434.706 353.587 434.16 353.34 433.507 353.34C432.854 353.34 432.303 353.587 431.855 354.082C431.416 354.577 431.197 355.216 431.197 356C431.197 356.784 431.416 357.423 431.855 357.918ZM439.944 359.5L437.424 352.5H438.544L440.644 358.38H440.924L443.024 352.5H444.144L441.624 359.5H439.944ZM449.957 357.54H451.077C450.835 358.212 450.452 358.73 449.929 359.094C449.416 359.458 448.795 359.64 448.067 359.64C447.106 359.64 446.303 359.304 445.659 358.632C445.025 357.951 444.707 357.073 444.707 356C444.707 354.927 445.025 354.054 445.659 353.382C446.303 352.701 447.106 352.36 448.067 352.36C448.991 352.36 449.757 352.677 450.363 353.312C450.979 353.947 451.287 354.749 451.287 355.72C451.287 355.869 451.273 356.07 451.245 356.322L451.217 356.49H445.757C445.832 357.143 446.084 357.671 446.513 358.072C446.952 358.464 447.47 358.66 448.067 358.66C448.487 358.66 448.861 358.562 449.187 358.366C449.523 358.17 449.78 357.895 449.957 357.54ZM445.757 355.51H450.237C450.2 354.875 449.976 354.357 449.565 353.956C449.164 353.545 448.665 353.34 448.067 353.34C447.442 353.34 446.919 353.541 446.499 353.942C446.079 354.343 445.832 354.866 445.757 355.51ZM455.561 356.91H456.681C456.681 357.386 456.868 357.787 457.241 358.114C457.624 358.431 458.137 358.59 458.781 358.59C459.397 358.59 459.901 358.422 460.293 358.086C460.685 357.75 460.881 357.335 460.881 356.84C460.881 356.299 460.69 355.86 460.307 355.524C459.925 355.188 459.416 355.02 458.781 355.02H458.151V353.97H458.781C459.397 353.97 459.878 353.807 460.223 353.48C460.569 353.153 460.741 352.743 460.741 352.248C460.741 351.8 460.559 351.417 460.195 351.1C459.831 350.773 459.36 350.61 458.781 350.61C458.231 350.61 457.764 350.773 457.381 351.1C457.008 351.417 456.821 351.791 456.821 352.22H455.701C455.701 351.501 455.991 350.881 456.569 350.358C457.148 349.826 457.885 349.56 458.781 349.56C459.687 349.56 460.424 349.821 460.993 350.344C461.572 350.857 461.861 351.501 461.861 352.276C461.861 352.957 461.605 353.527 461.091 353.984C460.858 354.189 460.601 354.348 460.321 354.46V354.53C460.648 354.651 460.928 354.819 461.161 355.034C461.721 355.519 462.001 356.121 462.001 356.84C462.001 357.615 461.698 358.277 461.091 358.828C460.485 359.369 459.715 359.64 458.781 359.64C457.82 359.64 457.041 359.374 456.443 358.842C455.855 358.31 455.561 357.666 455.561 356.91ZM463.889 354.46L466.969 349.7H468.229L465.919 353.34H465.989L466.255 353.27C466.441 353.223 466.656 353.2 466.899 353.2C467.785 353.2 468.532 353.499 469.139 354.096C469.745 354.693 470.049 355.445 470.049 356.35C470.049 357.265 469.722 358.044 469.069 358.688C468.425 359.323 467.631 359.64 466.689 359.64C465.746 359.64 464.948 359.323 464.295 358.688C463.651 358.044 463.329 357.265 463.329 356.35C463.329 355.669 463.515 355.039 463.889 354.46ZM465.093 357.946C465.522 358.375 466.054 358.59 466.689 358.59C467.323 358.59 467.855 358.375 468.285 357.946C468.714 357.507 468.929 356.975 468.929 356.35C468.929 355.725 468.714 355.197 468.285 354.768C467.855 354.329 467.323 354.11 466.689 354.11C466.054 354.11 465.522 354.329 465.093 354.768C464.663 355.197 464.449 355.725 464.449 356.35C464.449 356.975 464.663 357.507 465.093 357.946ZM472.465 358.31C471.737 357.423 471.373 356.187 471.373 354.6C471.373 353.013 471.737 351.777 472.465 350.89C473.193 350.003 474.089 349.56 475.153 349.56C476.217 349.56 477.113 350.003 477.841 350.89C478.569 351.777 478.933 353.013 478.933 354.6C478.933 356.187 478.569 357.423 477.841 358.31C477.113 359.197 476.217 359.64 475.153 359.64C474.089 359.64 473.193 359.197 472.465 358.31ZM477.043 351.66C476.529 350.96 475.899 350.61 475.153 350.61C474.406 350.61 473.776 350.96 473.263 351.66C472.749 352.36 472.493 353.34 472.493 354.6C472.493 355.86 472.749 356.84 473.263 357.54C473.776 358.24 474.406 358.59 475.153 358.59C475.899 358.59 476.529 358.24 477.043 357.54C477.556 356.84 477.813 355.86 477.813 354.6C477.813 353.34 477.556 352.36 477.043 351.66Z" fill="white"/>
<defs>
<linearGradient id="paint0_linear_3550_106558" x1="-272.76" y1="-299.019" x2="874.221" y2="353.92" gradientUnits="userSpaceOnUse">
<stop stop-color="white"/>
<stop offset="1" stop-color="white" stop-opacity="0"/>
</linearGradient>
<linearGradient id="paint1_linear_3550_106558" x1="-191.339" y1="-214.124" x2="918.794" y2="427.98" gradientUnits="userSpaceOnUse">
<stop stop-color="white"/>
<stop offset="1" stop-color="white" stop-opacity="0"/>
</linearGradient>
</defs>
</svg>
