<svg width="424" height="282" viewBox="0 0 424 282" fill="none" xmlns="http://www.w3.org/2000/svg">
<g filter="url(#filter0_ddd_3550_103486)">
<path d="M8 13C8 8.58172 11.5817 5 16 5H408C412.418 5 416 8.58172 416 13V265C416 269.418 412.418 273 408 273H16C11.5817 273 8 269.418 8 265V13Z" fill="url(#paint0_linear_3550_103486)" fill-opacity="0.1" shape-rendering="crispEdges"/>
<path d="M16 5.5H408C412.142 5.5 415.5 8.85786 415.5 13V265C415.5 269.142 412.142 272.5 408 272.5H16C11.8579 272.5 8.5 269.142 8.5 265V13C8.5 8.85786 11.8579 5.5 16 5.5Z" stroke="url(#paint1_linear_3550_103486)" stroke-opacity="0.1" shape-rendering="crispEdges"/>
<g filter="url(#filter1_ddd_3550_103486)">
<path d="M8 11C8 7.68629 10.6863 5 14 5H410C413.314 5 416 7.68629 416 11V93H8V11Z" fill="url(#paint2_linear_3550_103486)" fill-opacity="0.1" shape-rendering="crispEdges"/>
<path d="M14 5.5H410C413.038 5.5 415.5 7.96244 415.5 11V92.5H8.5V11C8.5 7.96243 10.9624 5.5 14 5.5Z" stroke="url(#paint3_linear_3550_103486)" stroke-opacity="0.1" shape-rendering="crispEdges"/>
<path d="M25.05 34V24.2H31.49V25.6H26.52V28.4H31.21V29.8H26.52V32.6H31.49V34H25.05ZM32.8178 30.99H34.2878C34.2878 31.466 34.5071 31.8767 34.9458 32.222C35.3938 32.5673 35.9678 32.74 36.6678 32.74C37.4331 32.74 37.9978 32.6093 38.3618 32.348C38.7258 32.0773 38.9078 31.718 38.9078 31.27C38.9078 30.5513 38.3478 30.0847 37.2278 29.87L35.3378 29.52C34.5725 29.38 33.9938 29.086 33.6018 28.638C33.2191 28.19 33.0278 27.6207 33.0278 26.93C33.0278 26.1087 33.3451 25.4273 33.9798 24.886C34.6145 24.3353 35.4638 24.06 36.5278 24.06C37.7038 24.06 38.6138 24.3587 39.2578 24.956C39.9111 25.544 40.2378 26.2953 40.2378 27.21H38.7678C38.7678 26.734 38.5625 26.3233 38.1518 25.978C37.7411 25.6327 37.1998 25.46 36.5278 25.46C35.8931 25.46 35.3938 25.6047 35.0298 25.894C34.6751 26.174 34.4978 26.5193 34.4978 26.93C34.4978 27.6207 34.9878 28.064 35.9678 28.26L37.5078 28.54C38.4971 28.7173 39.2205 29.0253 39.6778 29.464C40.1445 29.8933 40.3778 30.4953 40.3778 31.27C40.3778 32.11 40.0558 32.8007 39.4118 33.342C38.7678 33.874 37.8531 34.14 36.6678 34.14C35.4825 34.14 34.5445 33.8413 33.8538 33.244C33.1631 32.6467 32.8178 31.8953 32.8178 30.99ZM44.0944 34V25.6H41.0144V24.2H48.6444V25.6H45.5644V34H44.0944ZM48.9238 36.8L52.7738 23.78H54.1738L50.3238 36.8H48.9238ZM54.8738 34V32.74L58.9058 28.68C59.1765 28.4093 59.3632 28.1713 59.4658 27.966C59.5778 27.7513 59.6338 27.476 59.6338 27.14C59.6338 26.608 59.4892 26.1973 59.1998 25.908C58.9198 25.6093 58.5278 25.46 58.0238 25.46C57.5292 25.46 57.1138 25.6373 56.7778 25.992C56.4418 26.3467 56.2738 26.7993 56.2738 27.35H54.8038C54.8038 26.37 55.1025 25.5767 55.6998 24.97C56.2972 24.3633 57.0718 24.06 58.0238 24.06C58.9758 24.06 59.7365 24.3447 60.3058 24.914C60.8845 25.474 61.1738 26.216 61.1738 27.14C61.1738 27.672 61.0525 28.134 60.8098 28.526C60.5765 28.918 60.2312 29.3427 59.7738 29.8L57.0438 32.53V32.6H61.3138V34H54.8738ZM61.6573 31.9V30.71L65.3673 24.2H67.6773V30.57H68.8673V31.9H67.6773V34H66.2073V31.9H61.6573ZM63.4073 30.57H66.2073V26.02H65.9273L63.4073 30.5V30.57ZM69.7745 30.64V29.38H74.3945V30.64H69.7745ZM75.7234 34V32.74L79.7554 28.68C80.0261 28.4093 80.2128 28.1713 80.3154 27.966C80.4274 27.7513 80.4834 27.476 80.4834 27.14C80.4834 26.608 80.3388 26.1973 80.0494 25.908C79.7694 25.6093 79.3774 25.46 78.8734 25.46C78.3788 25.46 77.9634 25.6373 77.6274 25.992C77.2914 26.3467 77.1234 26.7993 77.1234 27.35H75.6534C75.6534 26.37 75.9521 25.5767 76.5494 24.97C77.1468 24.3633 77.9214 24.06 78.8734 24.06C79.8254 24.06 80.5861 24.3447 81.1554 24.914C81.7341 25.474 82.0234 26.216 82.0234 27.14C82.0234 27.672 81.9021 28.134 81.6594 28.526C81.4261 28.918 81.0808 29.3427 80.6234 29.8L77.8934 32.53V32.6H82.1634V34H75.7234ZM83.3507 31.34H84.8207C84.9047 31.732 85.1054 32.0633 85.4227 32.334C85.7494 32.6047 86.1787 32.74 86.7107 32.74C87.308 32.74 87.784 32.5627 88.1387 32.208C88.4934 31.8533 88.6707 31.3773 88.6707 30.78C88.6707 30.22 88.4887 29.7673 88.1247 29.422C87.77 29.0673 87.2987 28.89 86.7107 28.89C86.0107 28.89 85.474 29.1233 85.1007 29.59H83.5607L84.1207 24.2H89.5807V25.6H85.3807L85.1007 27.98H85.1707C85.6747 27.6533 86.258 27.49 86.9207 27.49C87.8447 27.49 88.61 27.8027 89.2167 28.428C89.8327 29.044 90.1407 29.828 90.1407 30.78C90.1407 31.76 89.8187 32.5673 89.1747 33.202C88.54 33.8273 87.7187 34.14 86.7107 34.14C86.16 34.14 85.6654 34.0513 85.2267 33.874C84.7974 33.6967 84.4567 33.4633 84.2047 33.174C83.9527 32.8847 83.7567 32.586 83.6167 32.278C83.486 31.97 83.3974 31.6573 83.3507 31.34ZM90.7734 36.8L94.6234 23.78H96.0234L92.1734 36.8H90.7734ZM102.379 31.802C102.855 31.1673 103.093 30.2667 103.093 29.1C103.093 27.9333 102.855 27.0373 102.379 26.412C101.903 25.7773 101.325 25.46 100.643 25.46C99.9621 25.46 99.3834 25.7773 98.9074 26.412C98.4314 27.0373 98.1934 27.9333 98.1934 29.1C98.1934 30.2667 98.4314 31.1673 98.9074 31.802C99.3834 32.4273 99.9621 32.74 100.643 32.74C101.325 32.74 101.903 32.4273 102.379 31.802ZM97.8574 25.418C98.6134 24.5127 99.5421 24.06 100.643 24.06C101.745 24.06 102.673 24.5127 103.429 25.418C104.185 26.3233 104.563 27.5507 104.563 29.1C104.563 30.6493 104.185 31.8767 103.429 32.782C102.673 33.6873 101.745 34.14 100.643 34.14C99.5421 34.14 98.6134 33.6873 97.8574 32.782C97.1014 31.8767 96.7234 30.6493 96.7234 29.1C96.7234 27.5507 97.1014 26.3233 97.8574 25.418ZM111.622 31.802C112.098 31.1673 112.336 30.2667 112.336 29.1C112.336 27.9333 112.098 27.0373 111.622 26.412C111.146 25.7773 110.567 25.46 109.886 25.46C109.204 25.46 108.626 25.7773 108.15 26.412C107.674 27.0373 107.436 27.9333 107.436 29.1C107.436 30.2667 107.674 31.1673 108.15 31.802C108.626 32.4273 109.204 32.74 109.886 32.74C110.567 32.74 111.146 32.4273 111.622 31.802ZM107.1 25.418C107.856 24.5127 108.784 24.06 109.886 24.06C110.987 24.06 111.916 24.5127 112.672 25.418C113.428 26.3233 113.806 27.5507 113.806 29.1C113.806 30.6493 113.428 31.8767 112.672 32.782C111.916 33.6873 110.987 34.14 109.886 34.14C108.784 34.14 107.856 33.6873 107.1 32.782C106.344 31.8767 105.966 30.6493 105.966 29.1C105.966 27.5507 106.344 26.3233 107.1 25.418ZM116.888 34V26.65H114.858V25.25H116.468C116.748 25.25 116.888 25.11 116.888 24.83V24.2H118.358V34H116.888Z" fill="#3B82F6"/>
<path d="M24.63 51.41H25.75C25.8527 51.9327 26.0907 52.3433 26.464 52.642C26.8467 52.9407 27.3087 53.09 27.85 53.09C28.4847 53.09 29.0167 52.8753 29.446 52.446C29.8753 52.0073 30.09 51.4613 30.09 50.808C30.09 50.136 29.8893 49.59 29.488 49.17C29.0867 48.75 28.564 48.54 27.92 48.54C27.0987 48.54 26.4687 48.82 26.03 49.38H24.84L25.4 44.2H30.65V45.25H26.338L26.03 48.12H26.1C26.576 47.7 27.2293 47.49 28.06 47.49C28.9187 47.49 29.656 47.812 30.272 48.456C30.8973 49.0907 31.21 49.8747 31.21 50.808C31.21 51.7787 30.8927 52.5767 30.258 53.202C29.6327 53.8273 28.83 54.14 27.85 54.14C27.01 54.14 26.2913 53.8973 25.694 53.412C25.0967 52.9267 24.742 52.2593 24.63 51.41ZM36.2626 54V44.2H37.3826V54H36.2626ZM39.9759 52.81V47.98H38.8559V47H39.9759V45.04H41.0259V47H42.6359V47.98H41.0259V52.6C41.0259 52.88 41.1659 53.02 41.4459 53.02H42.6359V54H41.2359C40.8439 54 40.5359 53.8927 40.3119 53.678C40.0879 53.4633 39.9759 53.174 39.9759 52.81ZM48.8002 52.04H49.9202C49.6776 52.712 49.2949 53.23 48.7722 53.594C48.2589 53.958 47.6382 54.14 46.9102 54.14C45.9489 54.14 45.1462 53.804 44.5022 53.132C43.8676 52.4507 43.5502 51.5733 43.5502 50.5C43.5502 49.4267 43.8676 48.554 44.5022 47.882C45.1462 47.2007 45.9489 46.86 46.9102 46.86C47.8342 46.86 48.5996 47.1773 49.2062 47.812C49.8222 48.4467 50.1302 49.2493 50.1302 50.22C50.1302 50.3693 50.1162 50.57 50.0882 50.822L50.0602 50.99H44.6002C44.6749 51.6433 44.9269 52.1707 45.3562 52.572C45.7949 52.964 46.3129 53.16 46.9102 53.16C47.3302 53.16 47.7036 53.062 48.0302 52.866C48.3662 52.67 48.6229 52.3947 48.8002 52.04ZM44.6002 50.01H49.0802C49.0429 49.3753 48.8189 48.8573 48.4082 48.456C48.0069 48.0453 47.5076 47.84 46.9102 47.84C46.2849 47.84 45.7622 48.0407 45.3422 48.442C44.9222 48.8433 44.6749 49.366 44.6002 50.01ZM51.6675 54V47H52.5775L52.7175 47.77H52.7875C52.9275 47.602 53.0908 47.4527 53.2775 47.322C53.7162 47.014 54.1595 46.86 54.6075 46.86C55.2142 46.86 55.7368 47.0607 56.1755 47.462C56.3622 47.63 56.5162 47.826 56.6375 48.05H56.7075C56.8662 47.8167 57.0575 47.6207 57.2815 47.462C57.7948 47.0607 58.3735 46.86 59.0175 46.86C59.7455 46.86 60.3475 47.1167 60.8235 47.63C61.2995 48.134 61.5375 48.7873 61.5375 49.59V54H60.4875V49.59C60.4875 49.058 60.3428 48.6333 60.0535 48.316C59.7642 47.9987 59.3722 47.84 58.8775 47.84C58.4108 47.84 58.0002 48.0127 57.6455 48.358C57.3002 48.694 57.1275 49.1047 57.1275 49.59V54H56.0775V49.59C56.0775 49.058 55.9328 48.6333 55.6435 48.316C55.3542 47.9987 54.9622 47.84 54.4675 47.84C54.0008 47.84 53.5902 48.0127 53.2355 48.358C52.8902 48.694 52.7175 49.1047 52.7175 49.59V54H51.6675Z" fill="white"/>
<path d="M25.04 74V64.9H28.095C29.3603 64.9 30.4003 65.329 31.215 66.187C32.0383 67.0363 32.45 68.124 32.45 69.45C32.45 70.776 32.0383 71.868 31.215 72.726C30.4003 73.5753 29.3603 74 28.095 74H25.04ZM26.08 73.025H28.095C29.0483 73.025 29.837 72.6957 30.461 72.037C31.0937 71.3697 31.41 70.5073 31.41 69.45C31.41 68.3927 31.0937 67.5347 30.461 66.876C29.837 66.2087 29.0483 65.875 28.095 65.875H26.08V73.025ZM38.2375 74L38.1075 73.22H38.0425C37.9212 73.3933 37.7652 73.545 37.5745 73.675C37.1759 73.9783 36.6602 74.13 36.0275 74.13C35.3515 74.13 34.8012 73.9437 34.3765 73.571C33.9605 73.1983 33.7525 72.713 33.7525 72.115C33.7525 71.465 33.9649 70.958 34.3895 70.594C34.8229 70.2213 35.4772 70.035 36.3525 70.035H38.1075V69.84C38.1075 69.346 37.9689 68.9647 37.6915 68.696C37.4229 68.4187 37.0415 68.28 36.5475 68.28C36.0795 68.28 35.6982 68.3883 35.4035 68.605C35.1175 68.813 34.9572 69.073 34.9225 69.385H33.9475C33.9822 68.8303 34.2292 68.358 34.6885 67.968C35.1565 67.5693 35.7762 67.37 36.5475 67.37C37.3362 67.37 37.9559 67.5867 38.4065 68.02C38.8572 68.4533 39.0825 69.06 39.0825 69.84V74H38.2375ZM38.1075 71.205V70.945H36.3525C35.7979 70.945 35.3862 71.0533 35.1175 71.27C34.8575 71.4867 34.7275 71.7683 34.7275 72.115C34.7275 72.453 34.8402 72.7217 35.0655 72.921C35.2909 73.1203 35.6115 73.22 36.0275 73.22C36.6775 73.22 37.1845 73.0423 37.5485 72.687C37.9212 72.323 38.1075 71.829 38.1075 71.205ZM41.1072 72.895V68.41H40.0672V67.5H41.1072V65.68H42.0822V67.5H43.5772V68.41H42.0822V72.7C42.0822 72.96 42.2122 73.09 42.4722 73.09H43.5772V74H42.2772C41.9132 74 41.6272 73.9003 41.4192 73.701C41.2112 73.5017 41.1072 73.233 41.1072 72.895ZM49.3013 72.18H50.3413C50.1159 72.804 49.7606 73.285 49.2753 73.623C48.7986 73.961 48.2223 74.13 47.5463 74.13C46.6536 74.13 45.9083 73.818 45.3103 73.194C44.7209 72.5613 44.4263 71.7467 44.4263 70.75C44.4263 69.7533 44.7209 68.943 45.3103 68.319C45.9083 67.6863 46.6536 67.37 47.5463 67.37C48.4043 67.37 49.1149 67.6647 49.6783 68.254C50.2503 68.8433 50.5363 69.5887 50.5363 70.49C50.5363 70.6287 50.5233 70.815 50.4973 71.049L50.4712 71.205H45.4013C45.4706 71.8117 45.7046 72.3013 46.1033 72.674C46.5106 73.038 46.9916 73.22 47.5463 73.22C47.9363 73.22 48.2829 73.129 48.5863 72.947C48.8983 72.765 49.1366 72.5093 49.3013 72.18ZM45.4013 70.295H49.5613C49.5266 69.7057 49.3186 69.2247 48.9373 68.852C48.5646 68.4707 48.1009 68.28 47.5463 68.28C46.9656 68.28 46.4803 68.4663 46.0903 68.839C45.7003 69.2117 45.4706 69.697 45.4013 70.295ZM51.8337 74V72.83H53.0037V74H51.8337ZM51.8337 68.67V67.5H53.0037V68.67H51.8337Z" fill="#A1A1AA"/>
<path d="M57.862 72.81C57.134 71.9233 56.77 70.6867 56.77 69.1C56.77 67.5133 57.134 66.2767 57.862 65.39C58.59 64.5033 59.486 64.06 60.55 64.06C61.614 64.06 62.51 64.5033 63.238 65.39C63.966 66.2767 64.33 67.5133 64.33 69.1C64.33 70.6867 63.966 71.9233 63.238 72.81C62.51 73.6967 61.614 74.14 60.55 74.14C59.486 74.14 58.59 73.6967 57.862 72.81ZM62.44 66.16C61.9267 65.46 61.2967 65.11 60.55 65.11C59.8033 65.11 59.1733 65.46 58.66 66.16C58.1467 66.86 57.89 67.84 57.89 69.1C57.89 70.36 58.1467 71.34 58.66 72.04C59.1733 72.74 59.8033 73.09 60.55 73.09C61.2967 73.09 61.9267 72.74 62.44 72.04C62.9533 71.34 63.21 70.36 63.21 69.1C63.21 67.84 62.9533 66.86 62.44 66.16ZM66.5016 74L69.9456 65.25H65.0316V64.2H71.1916V65.11L67.6916 74H66.5016ZM71.8195 70.5V69.52H76.2995V70.5H71.8195ZM78.7936 72.81C78.0656 71.9233 77.7016 70.6867 77.7016 69.1C77.7016 67.5133 78.0656 66.2767 78.7936 65.39C79.5216 64.5033 80.4176 64.06 81.4816 64.06C82.5456 64.06 83.4416 64.5033 84.1696 65.39C84.8976 66.2767 85.2616 67.5133 85.2616 69.1C85.2616 70.6867 84.8976 71.9233 84.1696 72.81C83.4416 73.6967 82.5456 74.14 81.4816 74.14C80.4176 74.14 79.5216 73.6967 78.7936 72.81ZM83.3716 66.16C82.8583 65.46 82.2283 65.11 81.4816 65.11C80.735 65.11 80.105 65.46 79.5916 66.16C79.0783 66.86 78.8216 67.84 78.8216 69.1C78.8216 70.36 79.0783 71.34 79.5916 72.04C80.105 72.74 80.735 73.09 81.4816 73.09C82.2283 73.09 82.8583 72.74 83.3716 72.04C83.885 71.34 84.1416 70.36 84.1416 69.1C84.1416 67.84 83.885 66.86 83.3716 66.16ZM88.2771 68.96V68.89C88.0251 68.75 87.8011 68.582 87.6051 68.386C87.1664 67.9473 86.9471 67.4153 86.9471 66.79C86.9471 66.0153 87.2318 65.3667 87.8011 64.844C88.3704 64.3213 89.0891 64.06 89.9571 64.06C90.8251 64.06 91.5438 64.3213 92.1131 64.844C92.6824 65.3667 92.9671 66.0153 92.9671 66.79C92.9671 67.406 92.7431 67.938 92.2951 68.386C92.1084 68.5727 91.8891 68.7407 91.6371 68.89V68.96C91.8984 69.0813 92.1551 69.2587 92.4071 69.492C92.9204 70.0053 93.1771 70.6213 93.1771 71.34C93.1771 72.096 92.8738 72.754 92.2671 73.314C91.6698 73.8647 90.8998 74.14 89.9571 74.14C89.0051 74.14 88.2304 73.8647 87.6331 73.314C87.0358 72.7633 86.7371 72.1053 86.7371 71.34C86.7371 70.6027 86.9938 69.9867 87.5071 69.492C87.7404 69.2587 87.9971 69.0813 88.2771 68.96ZM88.5711 65.6C88.2351 65.9173 88.0671 66.314 88.0671 66.79C88.0671 67.266 88.2351 67.6673 88.5711 67.994C88.9164 68.3113 89.3784 68.47 89.9571 68.47C90.5358 68.47 90.9931 68.3113 91.3291 67.994C91.6744 67.6673 91.8471 67.266 91.8471 66.79C91.8471 66.314 91.6744 65.9173 91.3291 65.6C90.9931 65.2733 90.5358 65.11 89.9571 65.11C89.3784 65.11 88.9164 65.2733 88.5711 65.6ZM88.4591 69.968C88.0578 70.3133 87.8571 70.7473 87.8571 71.27C87.8571 71.7927 88.0578 72.2267 88.4591 72.572C88.8604 72.9173 89.3598 73.09 89.9571 73.09C90.5544 73.09 91.0538 72.9173 91.4551 72.572C91.8564 72.2267 92.0571 71.7927 92.0571 71.27C92.0571 70.7473 91.8564 70.3133 91.4551 69.968C91.0538 69.6227 90.5544 69.45 89.9571 69.45C89.3598 69.45 88.8604 69.6227 88.4591 69.968ZM94.5011 70.5V69.52H98.9811V70.5H94.5011ZM100.383 74V73.09L104.373 68.82C104.672 68.4933 104.887 68.204 105.017 67.952C105.148 67.6907 105.213 67.3733 105.213 67C105.213 66.44 105.036 65.9873 104.681 65.642C104.336 65.2873 103.883 65.11 103.323 65.11C102.791 65.11 102.343 65.306 101.979 65.698C101.615 66.09 101.433 66.594 101.433 67.21H100.313C100.313 66.2953 100.593 65.544 101.153 64.956C101.723 64.3587 102.446 64.06 103.323 64.06C104.201 64.06 104.919 64.3353 105.479 64.886C106.049 65.4273 106.333 66.132 106.333 67C106.333 67.5413 106.235 68.0033 106.039 68.386C105.843 68.7593 105.545 69.1607 105.143 69.59L101.993 72.88V72.95H106.543V74H100.383ZM108.967 72.81C108.239 71.9233 107.875 70.6867 107.875 69.1C107.875 67.5133 108.239 66.2767 108.967 65.39C109.695 64.5033 110.591 64.06 111.655 64.06C112.719 64.06 113.615 64.5033 114.343 65.39C115.071 66.2767 115.435 67.5133 115.435 69.1C115.435 70.6867 115.071 71.9233 114.343 72.81C113.615 73.6967 112.719 74.14 111.655 74.14C110.591 74.14 109.695 73.6967 108.967 72.81ZM113.545 66.16C113.032 65.46 112.402 65.11 111.655 65.11C110.909 65.11 110.279 65.46 109.765 66.16C109.252 66.86 108.995 67.84 108.995 69.1C108.995 70.36 109.252 71.34 109.765 72.04C110.279 72.74 110.909 73.09 111.655 73.09C112.402 73.09 113.032 72.74 113.545 72.04C114.059 71.34 114.315 70.36 114.315 69.1C114.315 67.84 114.059 66.86 113.545 66.16ZM116.981 74V73.09L120.971 68.82C121.27 68.4933 121.484 68.204 121.615 67.952C121.746 67.6907 121.811 67.3733 121.811 67C121.811 66.44 121.634 65.9873 121.279 65.642C120.934 65.2873 120.481 65.11 119.921 65.11C119.389 65.11 118.941 65.306 118.577 65.698C118.213 66.09 118.031 66.594 118.031 67.21H116.911C116.911 66.2953 117.191 65.544 117.751 64.956C118.32 64.3587 119.044 64.06 119.921 64.06C120.798 64.06 121.517 64.3353 122.077 64.886C122.646 65.4273 122.931 66.132 122.931 67C122.931 67.5413 122.833 68.0033 122.637 68.386C122.441 68.7593 122.142 69.1607 121.741 69.59L118.591 72.88V72.95H123.141V74H116.981ZM123.559 71.76V70.92L127.409 64.2H129.229V70.78H130.489V71.76H129.229V74H128.109V71.76H123.559ZM124.959 70.78H128.109V65.67H127.829L124.959 70.71V70.78Z" fill="white"/>
<path d="M336.07 30.43V29.1H339.22C339.985 29.1 340.475 28.7267 340.69 27.98H336.07V26.65H340.69C340.475 25.9033 339.985 25.53 339.22 25.53H336.07V24.2H343.07V25.53H341.74C341.796 25.6047 341.847 25.6933 341.894 25.796C341.968 25.936 342.062 26.2207 342.174 26.65H343.07V27.98H342.174C342.024 28.7547 341.702 29.3567 341.208 29.786C340.713 30.2153 340.097 30.43 339.36 30.43H338.94L342.44 34H340.55L337.05 30.43H336.07ZM345.874 34V26.65H343.844V25.25H345.454C345.734 25.25 345.874 25.11 345.874 24.83V24.2H347.344V34H345.874ZM349.019 35.19L349.299 32.39H350.909L350.139 35.19H349.019ZM352.314 31.34H353.784C353.868 31.732 354.068 32.0633 354.386 32.334C354.712 32.6047 355.142 32.74 355.674 32.74C356.271 32.74 356.747 32.5627 357.102 32.208C357.456 31.8533 357.634 31.3773 357.634 30.78C357.634 30.22 357.452 29.7673 357.088 29.422C356.733 29.0673 356.262 28.89 355.674 28.89C354.974 28.89 354.437 29.1233 354.064 29.59H352.524L353.084 24.2H358.544V25.6H354.344L354.064 27.98H354.134C354.638 27.6533 355.221 27.49 355.884 27.49C356.808 27.49 357.573 27.8027 358.18 28.428C358.796 29.044 359.104 29.828 359.104 30.78C359.104 31.76 358.782 32.5673 358.138 33.202C357.503 33.8273 356.682 34.14 355.674 34.14C355.123 34.14 354.628 34.0513 354.19 33.874C353.76 33.6967 353.42 33.4633 353.168 33.174C352.916 32.8847 352.72 32.586 352.58 32.278C352.449 31.97 352.36 31.6573 352.314 31.34ZM366.092 31.802C366.568 31.1673 366.806 30.2667 366.806 29.1C366.806 27.9333 366.568 27.0373 366.092 26.412C365.616 25.7773 365.038 25.46 364.356 25.46C363.675 25.46 363.096 25.7773 362.62 26.412C362.144 27.0373 361.906 27.9333 361.906 29.1C361.906 30.2667 362.144 31.1673 362.62 31.802C363.096 32.4273 363.675 32.74 364.356 32.74C365.038 32.74 365.616 32.4273 366.092 31.802ZM361.57 25.418C362.326 24.5127 363.255 24.06 364.356 24.06C365.458 24.06 366.386 24.5127 367.142 25.418C367.898 26.3233 368.276 27.5507 368.276 29.1C368.276 30.6493 367.898 31.8767 367.142 32.782C366.386 33.6873 365.458 34.14 364.356 34.14C363.255 34.14 362.326 33.6873 361.57 32.782C360.814 31.8767 360.436 30.6493 360.436 29.1C360.436 27.5507 360.814 26.3233 361.57 25.418ZM375.335 31.802C375.811 31.1673 376.049 30.2667 376.049 29.1C376.049 27.9333 375.811 27.0373 375.335 26.412C374.859 25.7773 374.28 25.46 373.599 25.46C372.917 25.46 372.339 25.7773 371.863 26.412C371.387 27.0373 371.149 27.9333 371.149 29.1C371.149 30.2667 371.387 31.1673 371.863 31.802C372.339 32.4273 372.917 32.74 373.599 32.74C374.28 32.74 374.859 32.4273 375.335 31.802ZM370.813 25.418C371.569 24.5127 372.497 24.06 373.599 24.06C374.7 24.06 375.629 24.5127 376.385 25.418C377.141 26.3233 377.519 27.5507 377.519 29.1C377.519 30.6493 377.141 31.8767 376.385 32.782C375.629 33.6873 374.7 34.14 373.599 34.14C372.497 34.14 371.569 33.6873 370.813 32.782C370.057 31.8767 369.679 30.6493 369.679 29.1C369.679 27.5507 370.057 26.3233 370.813 25.418ZM379.061 34V32.39H380.671V34H379.061ZM387.872 31.802C388.348 31.1673 388.586 30.2667 388.586 29.1C388.586 27.9333 388.348 27.0373 387.872 26.412C387.396 25.7773 386.817 25.46 386.136 25.46C385.454 25.46 384.876 25.7773 384.4 26.412C383.924 27.0373 383.686 27.9333 383.686 29.1C383.686 30.2667 383.924 31.1673 384.4 31.802C384.876 32.4273 385.454 32.74 386.136 32.74C386.817 32.74 387.396 32.4273 387.872 31.802ZM383.35 25.418C384.106 24.5127 385.034 24.06 386.136 24.06C387.237 24.06 388.166 24.5127 388.922 25.418C389.678 26.3233 390.056 27.5507 390.056 29.1C390.056 30.6493 389.678 31.8767 388.922 32.782C388.166 33.6873 387.237 34.14 386.136 34.14C385.034 34.14 384.106 33.6873 383.35 32.782C382.594 31.8767 382.216 30.6493 382.216 29.1C382.216 27.5507 382.594 26.3233 383.35 25.418ZM397.114 31.802C397.59 31.1673 397.828 30.2667 397.828 29.1C397.828 27.9333 397.59 27.0373 397.114 26.412C396.638 25.7773 396.059 25.46 395.378 25.46C394.696 25.46 394.118 25.7773 393.642 26.412C393.166 27.0373 392.928 27.9333 392.928 29.1C392.928 30.2667 393.166 31.1673 393.642 31.802C394.118 32.4273 394.696 32.74 395.378 32.74C396.059 32.74 396.638 32.4273 397.114 31.802ZM392.592 25.418C393.348 24.5127 394.276 24.06 395.378 24.06C396.479 24.06 397.408 24.5127 398.164 25.418C398.92 26.3233 399.298 27.5507 399.298 29.1C399.298 30.6493 398.92 31.8767 398.164 32.782C397.408 33.6873 396.479 34.14 395.378 34.14C394.276 34.14 393.348 33.6873 392.592 32.782C391.836 31.8767 391.458 30.6493 391.458 29.1C391.458 27.5507 391.836 26.3233 392.592 25.418Z" fill="white"/>
<path d="M281.788 65.692C282.548 64.884 283.492 64.48 284.62 64.48C285.748 64.48 286.688 64.884 287.44 65.692C288.2 66.492 288.58 67.528 288.58 68.8C288.58 70.072 288.2 71.112 287.44 71.92C286.688 72.72 285.748 73.12 284.62 73.12C283.492 73.12 282.548 72.72 281.788 71.92C281.036 71.112 280.66 70.072 280.66 68.8C280.66 67.528 281.036 66.492 281.788 65.692ZM282.304 71.404C282.928 72.068 283.7 72.4 284.62 72.4C285.54 72.4 286.308 72.068 286.924 71.404C287.548 70.732 287.86 69.864 287.86 68.8C287.86 67.736 287.548 66.872 286.924 66.208C286.308 65.536 285.54 65.2 284.62 65.2C283.7 65.2 282.928 65.536 282.304 66.208C281.688 66.872 281.38 67.736 281.38 68.8C281.38 69.864 281.688 70.732 282.304 71.404ZM291.49 71.752C291.874 72.184 292.362 72.4 292.954 72.4C293.546 72.4 294.034 72.184 294.418 71.752C294.802 71.32 294.994 70.736 294.994 70C294.994 69.264 294.802 68.68 294.418 68.248C294.034 67.816 293.546 67.6 292.954 67.6C292.362 67.6 291.874 67.816 291.49 68.248C291.106 68.68 290.914 69.264 290.914 70C290.914 70.736 291.106 71.32 291.49 71.752ZM290.194 75.4V67H290.794L290.914 67.96H290.974C291.134 67.704 291.39 67.46 291.742 67.228C292.094 66.996 292.518 66.88 293.014 66.88C293.782 66.88 294.422 67.168 294.934 67.744C295.454 68.312 295.714 69.064 295.714 70C295.714 70.936 295.454 71.692 294.934 72.268C294.422 72.836 293.782 73.12 293.014 73.12C292.518 73.12 292.094 73.004 291.742 72.772C291.39 72.54 291.134 72.296 290.974 72.04H290.914V75.4H290.194ZM297.514 69.64H301.654C301.622 69.04 301.414 68.552 301.03 68.176C300.654 67.792 300.182 67.6 299.614 67.6C299.038 67.6 298.558 67.784 298.174 68.152C297.798 68.512 297.578 69.008 297.514 69.64ZM301.414 71.32H302.194C302.018 71.816 301.718 72.24 301.294 72.592C300.878 72.944 300.318 73.12 299.614 73.12C298.782 73.12 298.102 72.836 297.574 72.268C297.054 71.7 296.794 70.944 296.794 70C296.794 69.056 297.054 68.3 297.574 67.732C298.102 67.164 298.782 66.88 299.614 66.88C300.406 66.88 301.062 67.16 301.582 67.72C302.11 68.272 302.374 68.992 302.374 69.88C302.374 70 302.366 70.116 302.35 70.228C302.342 70.26 302.338 70.304 302.338 70.36H297.514C297.578 70.976 297.806 71.472 298.198 71.848C298.59 72.216 299.062 72.4 299.614 72.4C300.054 72.4 300.426 72.292 300.73 72.076C301.034 71.86 301.262 71.608 301.414 71.32ZM303.87 73V67H304.47L304.59 67.78H304.65C304.77 67.604 304.914 67.456 305.082 67.336C305.482 67.032 305.958 66.88 306.51 66.88C307.206 66.88 307.778 67.116 308.226 67.588C308.682 68.052 308.91 68.656 308.91 69.4V73H308.19V69.4C308.19 68.856 308.026 68.42 307.698 68.092C307.378 67.764 306.962 67.6 306.45 67.6C305.906 67.6 305.458 67.772 305.106 68.116C304.762 68.46 304.59 68.888 304.59 69.4V73H303.87ZM314.354 65.692C315.114 64.884 316.058 64.48 317.186 64.48C318.314 64.48 319.254 64.884 320.006 65.692C320.766 66.492 321.146 67.528 321.146 68.8C321.146 70.072 320.766 71.112 320.006 71.92C319.254 72.72 318.314 73.12 317.186 73.12C316.058 73.12 315.114 72.72 314.354 71.92C313.602 71.112 313.226 70.072 313.226 68.8C313.226 67.528 313.602 66.492 314.354 65.692ZM314.87 71.404C315.494 72.068 316.266 72.4 317.186 72.4C318.106 72.4 318.874 72.068 319.49 71.404C320.114 70.732 320.426 69.864 320.426 68.8C320.426 67.736 320.114 66.872 319.49 66.208C318.874 65.536 318.106 65.2 317.186 65.2C316.266 65.2 315.494 65.536 314.87 66.208C314.254 66.872 313.946 67.736 313.946 68.8C313.946 69.864 314.254 70.732 314.87 71.404ZM323.637 71.752C324.021 72.184 324.509 72.4 325.101 72.4C325.693 72.4 326.181 72.184 326.565 71.752C326.949 71.32 327.141 70.736 327.141 70C327.141 69.264 326.949 68.68 326.565 68.248C326.181 67.816 325.693 67.6 325.101 67.6C324.509 67.6 324.021 67.816 323.637 68.248C323.253 68.68 323.061 69.264 323.061 70C323.061 70.736 323.253 71.32 323.637 71.752ZM327.261 73L327.141 72.04H327.081C326.561 72.76 325.881 73.12 325.041 73.12C324.273 73.12 323.629 72.836 323.109 72.268C322.597 71.692 322.341 70.936 322.341 70C322.341 69.064 322.597 68.312 323.109 67.744C323.629 67.168 324.273 66.88 325.041 66.88C325.881 66.88 326.561 67.24 327.081 67.96H327.141V64.6H327.861V73H327.261ZM330.139 69.64H334.279C334.247 69.04 334.039 68.552 333.655 68.176C333.279 67.792 332.807 67.6 332.239 67.6C331.663 67.6 331.183 67.784 330.799 68.152C330.423 68.512 330.203 69.008 330.139 69.64ZM334.039 71.32H334.819C334.643 71.816 334.343 72.24 333.919 72.592C333.503 72.944 332.943 73.12 332.239 73.12C331.407 73.12 330.727 72.836 330.199 72.268C329.679 71.7 329.419 70.944 329.419 70C329.419 69.056 329.679 68.3 330.199 67.732C330.727 67.164 331.407 66.88 332.239 66.88C333.031 66.88 333.687 67.16 334.207 67.72C334.735 68.272 334.999 68.992 334.999 69.88C334.999 70 334.991 70.116 334.975 70.228C334.967 70.26 334.963 70.304 334.963 70.36H330.139C330.203 70.976 330.431 71.472 330.823 71.848C331.215 72.216 331.687 72.4 332.239 72.4C332.679 72.4 333.051 72.292 333.355 72.076C333.659 71.86 333.887 71.608 334.039 71.32ZM336.495 73V67H337.095L337.155 67.6H337.215C337.487 67.2 337.887 67 338.415 67H339.495V67.72H338.475C338.083 67.72 337.775 67.836 337.551 68.068C337.327 68.292 337.215 68.616 337.215 69.04V73H336.495Z" fill="#71717A"/>
<rect x="351" y="69" width="6" height="1" rx="0.5" fill="#3B82F6"/>
<circle cx="348" cy="69" r="4" fill="#3B82F6"/>
<circle cx="360" cy="69" r="4" fill="#E4E4E7"/>
<circle cx="373" cy="69" r="4" fill="#E4E4E7"/>
<rect x="364" y="69" width="6" height="1" rx="0.5" fill="#E4E4E7"/>
</g>
<path d="M25.05 122V112.2H31.49V113.6H26.52V116.4H31.21V117.8H26.52V120.6H31.49V122H25.05ZM32.8178 118.99H34.2878C34.2878 119.466 34.5071 119.877 34.9458 120.222C35.3938 120.567 35.9678 120.74 36.6678 120.74C37.4331 120.74 37.9978 120.609 38.3618 120.348C38.7258 120.077 38.9078 119.718 38.9078 119.27C38.9078 118.551 38.3478 118.085 37.2278 117.87L35.3378 117.52C34.5725 117.38 33.9938 117.086 33.6018 116.638C33.2191 116.19 33.0278 115.621 33.0278 114.93C33.0278 114.109 33.3451 113.427 33.9798 112.886C34.6145 112.335 35.4638 112.06 36.5278 112.06C37.7038 112.06 38.6138 112.359 39.2578 112.956C39.9111 113.544 40.2378 114.295 40.2378 115.21H38.7678C38.7678 114.734 38.5625 114.323 38.1518 113.978C37.7411 113.633 37.1998 113.46 36.5278 113.46C35.8931 113.46 35.3938 113.605 35.0298 113.894C34.6751 114.174 34.4978 114.519 34.4978 114.93C34.4978 115.621 34.9878 116.064 35.9678 116.26L37.5078 116.54C38.4971 116.717 39.2205 117.025 39.6778 117.464C40.1445 117.893 40.3778 118.495 40.3778 119.27C40.3778 120.11 40.0558 120.801 39.4118 121.342C38.7678 121.874 37.8531 122.14 36.6678 122.14C35.4825 122.14 34.5445 121.841 33.8538 121.244C33.1631 120.647 32.8178 119.895 32.8178 118.99ZM44.0944 122V113.6H41.0144V112.2H48.6444V113.6H45.5644V122H44.0944ZM48.9238 124.8L52.7738 111.78H54.1738L50.3238 124.8H48.9238ZM54.8738 122V120.74L58.9058 116.68C59.1765 116.409 59.3632 116.171 59.4658 115.966C59.5778 115.751 59.6338 115.476 59.6338 115.14C59.6338 114.608 59.4892 114.197 59.1998 113.908C58.9198 113.609 58.5278 113.46 58.0238 113.46C57.5292 113.46 57.1138 113.637 56.7778 113.992C56.4418 114.347 56.2738 114.799 56.2738 115.35H54.8038C54.8038 114.37 55.1025 113.577 55.6998 112.97C56.2972 112.363 57.0718 112.06 58.0238 112.06C58.9758 112.06 59.7365 112.345 60.3058 112.914C60.8845 113.474 61.1738 114.216 61.1738 115.14C61.1738 115.672 61.0525 116.134 60.8098 116.526C60.5765 116.918 60.2312 117.343 59.7738 117.8L57.0438 120.53V120.6H61.3138V122H54.8738ZM61.6573 119.9V118.71L65.3673 112.2H67.6773V118.57H68.8673V119.9H67.6773V122H66.2073V119.9H61.6573ZM63.4073 118.57H66.2073V114.02H65.9273L63.4073 118.5V118.57ZM69.7745 118.64V117.38H74.3945V118.64H69.7745ZM75.7234 122V120.74L79.7554 116.68C80.0261 116.409 80.2128 116.171 80.3154 115.966C80.4274 115.751 80.4834 115.476 80.4834 115.14C80.4834 114.608 80.3388 114.197 80.0494 113.908C79.7694 113.609 79.3774 113.46 78.8734 113.46C78.3788 113.46 77.9634 113.637 77.6274 113.992C77.2914 114.347 77.1234 114.799 77.1234 115.35H75.6534C75.6534 114.37 75.9521 113.577 76.5494 112.97C77.1468 112.363 77.9214 112.06 78.8734 112.06C79.8254 112.06 80.5861 112.345 81.1554 112.914C81.7341 113.474 82.0234 114.216 82.0234 115.14C82.0234 115.672 81.9021 116.134 81.6594 116.526C81.4261 116.918 81.0808 117.343 80.6234 117.8L77.8934 120.53V120.6H82.1634V122H75.7234ZM83.3507 119.34H84.8207C84.9047 119.732 85.1054 120.063 85.4227 120.334C85.7494 120.605 86.1787 120.74 86.7107 120.74C87.308 120.74 87.784 120.563 88.1387 120.208C88.4934 119.853 88.6707 119.377 88.6707 118.78C88.6707 118.22 88.4887 117.767 88.1247 117.422C87.77 117.067 87.2987 116.89 86.7107 116.89C86.0107 116.89 85.474 117.123 85.1007 117.59H83.5607L84.1207 112.2H89.5807V113.6H85.3807L85.1007 115.98H85.1707C85.6747 115.653 86.258 115.49 86.9207 115.49C87.8447 115.49 88.61 115.803 89.2167 116.428C89.8327 117.044 90.1407 117.828 90.1407 118.78C90.1407 119.76 89.8187 120.567 89.1747 121.202C88.54 121.827 87.7187 122.14 86.7107 122.14C86.16 122.14 85.6654 122.051 85.2267 121.874C84.7974 121.697 84.4567 121.463 84.2047 121.174C83.9527 120.885 83.7567 120.586 83.6167 120.278C83.486 119.97 83.3974 119.657 83.3507 119.34ZM90.7734 124.8L94.6234 111.78H96.0234L92.1734 124.8H90.7734ZM102.379 119.802C102.855 119.167 103.093 118.267 103.093 117.1C103.093 115.933 102.855 115.037 102.379 114.412C101.903 113.777 101.325 113.46 100.643 113.46C99.9621 113.46 99.3834 113.777 98.9074 114.412C98.4314 115.037 98.1934 115.933 98.1934 117.1C98.1934 118.267 98.4314 119.167 98.9074 119.802C99.3834 120.427 99.9621 120.74 100.643 120.74C101.325 120.74 101.903 120.427 102.379 119.802ZM97.8574 113.418C98.6134 112.513 99.5421 112.06 100.643 112.06C101.745 112.06 102.673 112.513 103.429 113.418C104.185 114.323 104.563 115.551 104.563 117.1C104.563 118.649 104.185 119.877 103.429 120.782C102.673 121.687 101.745 122.14 100.643 122.14C99.5421 122.14 98.6134 121.687 97.8574 120.782C97.1014 119.877 96.7234 118.649 96.7234 117.1C96.7234 115.551 97.1014 114.323 97.8574 113.418ZM111.622 119.802C112.098 119.167 112.336 118.267 112.336 117.1C112.336 115.933 112.098 115.037 111.622 114.412C111.146 113.777 110.567 113.46 109.886 113.46C109.204 113.46 108.626 113.777 108.15 114.412C107.674 115.037 107.436 115.933 107.436 117.1C107.436 118.267 107.674 119.167 108.15 119.802C108.626 120.427 109.204 120.74 109.886 120.74C110.567 120.74 111.146 120.427 111.622 119.802ZM107.1 113.418C107.856 112.513 108.784 112.06 109.886 112.06C110.987 112.06 111.916 112.513 112.672 113.418C113.428 114.323 113.806 115.551 113.806 117.1C113.806 118.649 113.428 119.877 112.672 120.782C111.916 121.687 110.987 122.14 109.886 122.14C108.784 122.14 107.856 121.687 107.1 120.782C106.344 119.877 105.966 118.649 105.966 117.1C105.966 115.551 106.344 114.323 107.1 113.418ZM116.888 122V114.65H114.858V113.25H116.468C116.748 113.25 116.888 113.11 116.888 112.83V112.2H118.358V122H116.888Z" fill="#3B82F6"/>
<path d="M24.63 139.41H25.75C25.8527 139.933 26.0907 140.343 26.464 140.642C26.8467 140.941 27.3087 141.09 27.85 141.09C28.4847 141.09 29.0167 140.875 29.446 140.446C29.8753 140.007 30.09 139.461 30.09 138.808C30.09 138.136 29.8893 137.59 29.488 137.17C29.0867 136.75 28.564 136.54 27.92 136.54C27.0987 136.54 26.4687 136.82 26.03 137.38H24.84L25.4 132.2H30.65V133.25H26.338L26.03 136.12H26.1C26.576 135.7 27.2293 135.49 28.06 135.49C28.9187 135.49 29.656 135.812 30.272 136.456C30.8973 137.091 31.21 137.875 31.21 138.808C31.21 139.779 30.8927 140.577 30.258 141.202C29.6327 141.827 28.83 142.14 27.85 142.14C27.01 142.14 26.2913 141.897 25.694 141.412C25.0967 140.927 24.742 140.259 24.63 139.41ZM36.2626 142V132.2H37.3826V142H36.2626ZM39.9759 140.81V135.98H38.8559V135H39.9759V133.04H41.0259V135H42.6359V135.98H41.0259V140.6C41.0259 140.88 41.1659 141.02 41.4459 141.02H42.6359V142H41.2359C40.8439 142 40.5359 141.893 40.3119 141.678C40.0879 141.463 39.9759 141.174 39.9759 140.81ZM48.8002 140.04H49.9202C49.6776 140.712 49.2949 141.23 48.7722 141.594C48.2589 141.958 47.6382 142.14 46.9102 142.14C45.9489 142.14 45.1462 141.804 44.5022 141.132C43.8676 140.451 43.5502 139.573 43.5502 138.5C43.5502 137.427 43.8676 136.554 44.5022 135.882C45.1462 135.201 45.9489 134.86 46.9102 134.86C47.8342 134.86 48.5996 135.177 49.2062 135.812C49.8222 136.447 50.1302 137.249 50.1302 138.22C50.1302 138.369 50.1162 138.57 50.0882 138.822L50.0602 138.99H44.6002C44.6749 139.643 44.9269 140.171 45.3562 140.572C45.7949 140.964 46.3129 141.16 46.9102 141.16C47.3302 141.16 47.7036 141.062 48.0302 140.866C48.3662 140.67 48.6229 140.395 48.8002 140.04ZM44.6002 138.01H49.0802C49.0429 137.375 48.8189 136.857 48.4082 136.456C48.0069 136.045 47.5076 135.84 46.9102 135.84C46.2849 135.84 45.7622 136.041 45.3422 136.442C44.9222 136.843 44.6749 137.366 44.6002 138.01ZM51.6675 142V135H52.5775L52.7175 135.77H52.7875C52.9275 135.602 53.0908 135.453 53.2775 135.322C53.7162 135.014 54.1595 134.86 54.6075 134.86C55.2142 134.86 55.7368 135.061 56.1755 135.462C56.3622 135.63 56.5162 135.826 56.6375 136.05H56.7075C56.8662 135.817 57.0575 135.621 57.2815 135.462C57.7948 135.061 58.3735 134.86 59.0175 134.86C59.7455 134.86 60.3475 135.117 60.8235 135.63C61.2995 136.134 61.5375 136.787 61.5375 137.59V142H60.4875V137.59C60.4875 137.058 60.3428 136.633 60.0535 136.316C59.7642 135.999 59.3722 135.84 58.8775 135.84C58.4108 135.84 58.0002 136.013 57.6455 136.358C57.3002 136.694 57.1275 137.105 57.1275 137.59V142H56.0775V137.59C56.0775 137.058 55.9328 136.633 55.6435 136.316C55.3542 135.999 54.9622 135.84 54.4675 135.84C54.0008 135.84 53.5902 136.013 53.2355 136.358C52.8902 136.694 52.7175 137.105 52.7175 137.59V142H51.6675Z" fill="white"/>
<path d="M25.04 162V152.9H28.095C29.3603 152.9 30.4003 153.329 31.215 154.187C32.0383 155.036 32.45 156.124 32.45 157.45C32.45 158.776 32.0383 159.868 31.215 160.726C30.4003 161.575 29.3603 162 28.095 162H25.04ZM26.08 161.025H28.095C29.0483 161.025 29.837 160.696 30.461 160.037C31.0937 159.37 31.41 158.507 31.41 157.45C31.41 156.393 31.0937 155.535 30.461 154.876C29.837 154.209 29.0483 153.875 28.095 153.875H26.08V161.025ZM38.2375 162L38.1075 161.22H38.0425C37.9212 161.393 37.7652 161.545 37.5745 161.675C37.1759 161.978 36.6602 162.13 36.0275 162.13C35.3515 162.13 34.8012 161.944 34.3765 161.571C33.9605 161.198 33.7525 160.713 33.7525 160.115C33.7525 159.465 33.9649 158.958 34.3895 158.594C34.8229 158.221 35.4772 158.035 36.3525 158.035H38.1075V157.84C38.1075 157.346 37.9689 156.965 37.6915 156.696C37.4229 156.419 37.0415 156.28 36.5475 156.28C36.0795 156.28 35.6982 156.388 35.4035 156.605C35.1175 156.813 34.9572 157.073 34.9225 157.385H33.9475C33.9822 156.83 34.2292 156.358 34.6885 155.968C35.1565 155.569 35.7762 155.37 36.5475 155.37C37.3362 155.37 37.9559 155.587 38.4065 156.02C38.8572 156.453 39.0825 157.06 39.0825 157.84V162H38.2375ZM38.1075 159.205V158.945H36.3525C35.7979 158.945 35.3862 159.053 35.1175 159.27C34.8575 159.487 34.7275 159.768 34.7275 160.115C34.7275 160.453 34.8402 160.722 35.0655 160.921C35.2909 161.12 35.6115 161.22 36.0275 161.22C36.6775 161.22 37.1845 161.042 37.5485 160.687C37.9212 160.323 38.1075 159.829 38.1075 159.205ZM41.1072 160.895V156.41H40.0672V155.5H41.1072V153.68H42.0822V155.5H43.5772V156.41H42.0822V160.7C42.0822 160.96 42.2122 161.09 42.4722 161.09H43.5772V162H42.2772C41.9132 162 41.6272 161.9 41.4192 161.701C41.2112 161.502 41.1072 161.233 41.1072 160.895ZM49.3013 160.18H50.3413C50.1159 160.804 49.7606 161.285 49.2753 161.623C48.7986 161.961 48.2223 162.13 47.5463 162.13C46.6536 162.13 45.9083 161.818 45.3103 161.194C44.7209 160.561 44.4263 159.747 44.4263 158.75C44.4263 157.753 44.7209 156.943 45.3103 156.319C45.9083 155.686 46.6536 155.37 47.5463 155.37C48.4043 155.37 49.1149 155.665 49.6783 156.254C50.2503 156.843 50.5363 157.589 50.5363 158.49C50.5363 158.629 50.5233 158.815 50.4973 159.049L50.4712 159.205H45.4013C45.4706 159.812 45.7046 160.301 46.1033 160.674C46.5106 161.038 46.9916 161.22 47.5463 161.22C47.9363 161.22 48.2829 161.129 48.5863 160.947C48.8983 160.765 49.1366 160.509 49.3013 160.18ZM45.4013 158.295H49.5613C49.5266 157.706 49.3186 157.225 48.9373 156.852C48.5646 156.471 48.1009 156.28 47.5463 156.28C46.9656 156.28 46.4803 156.466 46.0903 156.839C45.7003 157.212 45.4706 157.697 45.4013 158.295ZM51.8337 162V160.83H53.0037V162H51.8337ZM51.8337 156.67V155.5H53.0037V156.67H51.8337Z" fill="#A1A1AA"/>
<path d="M57.862 160.81C57.134 159.923 56.77 158.687 56.77 157.1C56.77 155.513 57.134 154.277 57.862 153.39C58.59 152.503 59.486 152.06 60.55 152.06C61.614 152.06 62.51 152.503 63.238 153.39C63.966 154.277 64.33 155.513 64.33 157.1C64.33 158.687 63.966 159.923 63.238 160.81C62.51 161.697 61.614 162.14 60.55 162.14C59.486 162.14 58.59 161.697 57.862 160.81ZM62.44 154.16C61.9267 153.46 61.2967 153.11 60.55 153.11C59.8033 153.11 59.1733 153.46 58.66 154.16C58.1467 154.86 57.89 155.84 57.89 157.1C57.89 158.36 58.1467 159.34 58.66 160.04C59.1733 160.74 59.8033 161.09 60.55 161.09C61.2967 161.09 61.9267 160.74 62.44 160.04C62.9533 159.34 63.21 158.36 63.21 157.1C63.21 155.84 62.9533 154.86 62.44 154.16ZM66.5016 162L69.9456 153.25H65.0316V152.2H71.1916V153.11L67.6916 162H66.5016ZM71.8195 158.5V157.52H76.2995V158.5H71.8195ZM78.7936 160.81C78.0656 159.923 77.7016 158.687 77.7016 157.1C77.7016 155.513 78.0656 154.277 78.7936 153.39C79.5216 152.503 80.4176 152.06 81.4816 152.06C82.5456 152.06 83.4416 152.503 84.1696 153.39C84.8976 154.277 85.2616 155.513 85.2616 157.1C85.2616 158.687 84.8976 159.923 84.1696 160.81C83.4416 161.697 82.5456 162.14 81.4816 162.14C80.4176 162.14 79.5216 161.697 78.7936 160.81ZM83.3716 154.16C82.8583 153.46 82.2283 153.11 81.4816 153.11C80.735 153.11 80.105 153.46 79.5916 154.16C79.0783 154.86 78.8216 155.84 78.8216 157.1C78.8216 158.36 79.0783 159.34 79.5916 160.04C80.105 160.74 80.735 161.09 81.4816 161.09C82.2283 161.09 82.8583 160.74 83.3716 160.04C83.885 159.34 84.1416 158.36 84.1416 157.1C84.1416 155.84 83.885 154.86 83.3716 154.16ZM88.2771 156.96V156.89C88.0251 156.75 87.8011 156.582 87.6051 156.386C87.1664 155.947 86.9471 155.415 86.9471 154.79C86.9471 154.015 87.2318 153.367 87.8011 152.844C88.3704 152.321 89.0891 152.06 89.9571 152.06C90.8251 152.06 91.5438 152.321 92.1131 152.844C92.6824 153.367 92.9671 154.015 92.9671 154.79C92.9671 155.406 92.7431 155.938 92.2951 156.386C92.1084 156.573 91.8891 156.741 91.6371 156.89V156.96C91.8984 157.081 92.1551 157.259 92.4071 157.492C92.9204 158.005 93.1771 158.621 93.1771 159.34C93.1771 160.096 92.8738 160.754 92.2671 161.314C91.6698 161.865 90.8998 162.14 89.9571 162.14C89.0051 162.14 88.2304 161.865 87.6331 161.314C87.0358 160.763 86.7371 160.105 86.7371 159.34C86.7371 158.603 86.9938 157.987 87.5071 157.492C87.7404 157.259 87.9971 157.081 88.2771 156.96ZM88.5711 153.6C88.2351 153.917 88.0671 154.314 88.0671 154.79C88.0671 155.266 88.2351 155.667 88.5711 155.994C88.9164 156.311 89.3784 156.47 89.9571 156.47C90.5358 156.47 90.9931 156.311 91.3291 155.994C91.6744 155.667 91.8471 155.266 91.8471 154.79C91.8471 154.314 91.6744 153.917 91.3291 153.6C90.9931 153.273 90.5358 153.11 89.9571 153.11C89.3784 153.11 88.9164 153.273 88.5711 153.6ZM88.4591 157.968C88.0578 158.313 87.8571 158.747 87.8571 159.27C87.8571 159.793 88.0578 160.227 88.4591 160.572C88.8604 160.917 89.3598 161.09 89.9571 161.09C90.5544 161.09 91.0538 160.917 91.4551 160.572C91.8564 160.227 92.0571 159.793 92.0571 159.27C92.0571 158.747 91.8564 158.313 91.4551 157.968C91.0538 157.623 90.5544 157.45 89.9571 157.45C89.3598 157.45 88.8604 157.623 88.4591 157.968ZM94.5011 158.5V157.52H98.9811V158.5H94.5011ZM100.383 162V161.09L104.373 156.82C104.672 156.493 104.887 156.204 105.017 155.952C105.148 155.691 105.213 155.373 105.213 155C105.213 154.44 105.036 153.987 104.681 153.642C104.336 153.287 103.883 153.11 103.323 153.11C102.791 153.11 102.343 153.306 101.979 153.698C101.615 154.09 101.433 154.594 101.433 155.21H100.313C100.313 154.295 100.593 153.544 101.153 152.956C101.723 152.359 102.446 152.06 103.323 152.06C104.201 152.06 104.919 152.335 105.479 152.886C106.049 153.427 106.333 154.132 106.333 155C106.333 155.541 106.235 156.003 106.039 156.386C105.843 156.759 105.545 157.161 105.143 157.59L101.993 160.88V160.95H106.543V162H100.383ZM108.967 160.81C108.239 159.923 107.875 158.687 107.875 157.1C107.875 155.513 108.239 154.277 108.967 153.39C109.695 152.503 110.591 152.06 111.655 152.06C112.719 152.06 113.615 152.503 114.343 153.39C115.071 154.277 115.435 155.513 115.435 157.1C115.435 158.687 115.071 159.923 114.343 160.81C113.615 161.697 112.719 162.14 111.655 162.14C110.591 162.14 109.695 161.697 108.967 160.81ZM113.545 154.16C113.032 153.46 112.402 153.11 111.655 153.11C110.909 153.11 110.279 153.46 109.765 154.16C109.252 154.86 108.995 155.84 108.995 157.1C108.995 158.36 109.252 159.34 109.765 160.04C110.279 160.74 110.909 161.09 111.655 161.09C112.402 161.09 113.032 160.74 113.545 160.04C114.059 159.34 114.315 158.36 114.315 157.1C114.315 155.84 114.059 154.86 113.545 154.16ZM116.981 162V161.09L120.971 156.82C121.27 156.493 121.484 156.204 121.615 155.952C121.746 155.691 121.811 155.373 121.811 155C121.811 154.44 121.634 153.987 121.279 153.642C120.934 153.287 120.481 153.11 119.921 153.11C119.389 153.11 118.941 153.306 118.577 153.698C118.213 154.09 118.031 154.594 118.031 155.21H116.911C116.911 154.295 117.191 153.544 117.751 152.956C118.32 152.359 119.044 152.06 119.921 152.06C120.798 152.06 121.517 152.335 122.077 152.886C122.646 153.427 122.931 154.132 122.931 155C122.931 155.541 122.833 156.003 122.637 156.386C122.441 156.759 122.142 157.161 121.741 157.59L118.591 160.88V160.95H123.141V162H116.981ZM123.559 159.76V158.92L127.409 152.2H129.229V158.78H130.489V159.76H129.229V162H128.109V159.76H123.559ZM124.959 158.78H128.109V153.67H127.829L124.959 158.71V158.78Z" fill="white"/>
<path d="M336.07 118.43V117.1H339.22C339.985 117.1 340.475 116.727 340.69 115.98H336.07V114.65H340.69C340.475 113.903 339.985 113.53 339.22 113.53H336.07V112.2H343.07V113.53H341.74C341.796 113.605 341.847 113.693 341.894 113.796C341.968 113.936 342.062 114.221 342.174 114.65H343.07V115.98H342.174C342.024 116.755 341.702 117.357 341.208 117.786C340.713 118.215 340.097 118.43 339.36 118.43H338.94L342.44 122H340.55L337.05 118.43H336.07ZM345.874 122V114.65H343.844V113.25H345.454C345.734 113.25 345.874 113.11 345.874 112.83V112.2H347.344V122H345.874ZM349.019 123.19L349.299 120.39H350.909L350.139 123.19H349.019ZM352.314 119.34H353.784C353.868 119.732 354.068 120.063 354.386 120.334C354.712 120.605 355.142 120.74 355.674 120.74C356.271 120.74 356.747 120.563 357.102 120.208C357.456 119.853 357.634 119.377 357.634 118.78C357.634 118.22 357.452 117.767 357.088 117.422C356.733 117.067 356.262 116.89 355.674 116.89C354.974 116.89 354.437 117.123 354.064 117.59H352.524L353.084 112.2H358.544V113.6H354.344L354.064 115.98H354.134C354.638 115.653 355.221 115.49 355.884 115.49C356.808 115.49 357.573 115.803 358.18 116.428C358.796 117.044 359.104 117.828 359.104 118.78C359.104 119.76 358.782 120.567 358.138 121.202C357.503 121.827 356.682 122.14 355.674 122.14C355.123 122.14 354.628 122.051 354.19 121.874C353.76 121.697 353.42 121.463 353.168 121.174C352.916 120.885 352.72 120.586 352.58 120.278C352.449 119.97 352.36 119.657 352.314 119.34ZM366.092 119.802C366.568 119.167 366.806 118.267 366.806 117.1C366.806 115.933 366.568 115.037 366.092 114.412C365.616 113.777 365.038 113.46 364.356 113.46C363.675 113.46 363.096 113.777 362.62 114.412C362.144 115.037 361.906 115.933 361.906 117.1C361.906 118.267 362.144 119.167 362.62 119.802C363.096 120.427 363.675 120.74 364.356 120.74C365.038 120.74 365.616 120.427 366.092 119.802ZM361.57 113.418C362.326 112.513 363.255 112.06 364.356 112.06C365.458 112.06 366.386 112.513 367.142 113.418C367.898 114.323 368.276 115.551 368.276 117.1C368.276 118.649 367.898 119.877 367.142 120.782C366.386 121.687 365.458 122.14 364.356 122.14C363.255 122.14 362.326 121.687 361.57 120.782C360.814 119.877 360.436 118.649 360.436 117.1C360.436 115.551 360.814 114.323 361.57 113.418ZM375.335 119.802C375.811 119.167 376.049 118.267 376.049 117.1C376.049 115.933 375.811 115.037 375.335 114.412C374.859 113.777 374.28 113.46 373.599 113.46C372.917 113.46 372.339 113.777 371.863 114.412C371.387 115.037 371.149 115.933 371.149 117.1C371.149 118.267 371.387 119.167 371.863 119.802C372.339 120.427 372.917 120.74 373.599 120.74C374.28 120.74 374.859 120.427 375.335 119.802ZM370.813 113.418C371.569 112.513 372.497 112.06 373.599 112.06C374.7 112.06 375.629 112.513 376.385 113.418C377.141 114.323 377.519 115.551 377.519 117.1C377.519 118.649 377.141 119.877 376.385 120.782C375.629 121.687 374.7 122.14 373.599 122.14C372.497 122.14 371.569 121.687 370.813 120.782C370.057 119.877 369.679 118.649 369.679 117.1C369.679 115.551 370.057 114.323 370.813 113.418ZM379.061 122V120.39H380.671V122H379.061ZM387.872 119.802C388.348 119.167 388.586 118.267 388.586 117.1C388.586 115.933 388.348 115.037 387.872 114.412C387.396 113.777 386.817 113.46 386.136 113.46C385.454 113.46 384.876 113.777 384.4 114.412C383.924 115.037 383.686 115.933 383.686 117.1C383.686 118.267 383.924 119.167 384.4 119.802C384.876 120.427 385.454 120.74 386.136 120.74C386.817 120.74 387.396 120.427 387.872 119.802ZM383.35 113.418C384.106 112.513 385.034 112.06 386.136 112.06C387.237 112.06 388.166 112.513 388.922 113.418C389.678 114.323 390.056 115.551 390.056 117.1C390.056 118.649 389.678 119.877 388.922 120.782C388.166 121.687 387.237 122.14 386.136 122.14C385.034 122.14 384.106 121.687 383.35 120.782C382.594 119.877 382.216 118.649 382.216 117.1C382.216 115.551 382.594 114.323 383.35 113.418ZM397.114 119.802C397.59 119.167 397.828 118.267 397.828 117.1C397.828 115.933 397.59 115.037 397.114 114.412C396.638 113.777 396.059 113.46 395.378 113.46C394.696 113.46 394.118 113.777 393.642 114.412C393.166 115.037 392.928 115.933 392.928 117.1C392.928 118.267 393.166 119.167 393.642 119.802C394.118 120.427 394.696 120.74 395.378 120.74C396.059 120.74 396.638 120.427 397.114 119.802ZM392.592 113.418C393.348 112.513 394.276 112.06 395.378 112.06C396.479 112.06 397.408 112.513 398.164 113.418C398.92 114.323 399.298 115.551 399.298 117.1C399.298 118.649 398.92 119.877 398.164 120.782C397.408 121.687 396.479 122.14 395.378 122.14C394.276 122.14 393.348 121.687 392.592 120.782C391.836 119.877 391.458 118.649 391.458 117.1C391.458 115.551 391.836 114.323 392.592 113.418Z" fill="white"/>
<path d="M260.04 162V152.9H261.08V162H260.04ZM263.033 162V155.5H263.878L264.008 156.215H264.073C264.212 156.042 264.372 155.903 264.554 155.799C265.005 155.513 265.494 155.37 266.023 155.37C266.777 155.37 267.397 155.626 267.882 156.137C268.376 156.64 268.623 157.294 268.623 158.1V162H267.648V158.1C267.648 157.58 267.479 157.147 267.141 156.8C266.803 156.453 266.387 156.28 265.893 156.28C265.373 156.28 264.927 156.462 264.554 156.826C264.19 157.181 264.008 157.606 264.008 158.1V162H263.033ZM271.753 162L269.413 155.5H270.453L272.403 160.96H272.663L274.613 155.5H275.653L273.313 162H271.753ZM281.519 161.194C280.93 161.818 280.189 162.13 279.296 162.13C278.404 162.13 277.658 161.818 277.06 161.194C276.471 160.561 276.176 159.747 276.176 158.75C276.176 157.753 276.471 156.943 277.06 156.319C277.658 155.686 278.404 155.37 279.296 155.37C280.189 155.37 280.93 155.686 281.519 156.319C282.117 156.943 282.416 157.753 282.416 158.75C282.416 159.747 282.117 160.561 281.519 161.194ZM277.762 160.531C278.178 160.99 278.69 161.22 279.296 161.22C279.903 161.22 280.41 160.99 280.817 160.531C281.233 160.072 281.441 159.478 281.441 158.75C281.441 158.022 281.233 157.428 280.817 156.969C280.41 156.51 279.903 156.28 279.296 156.28C278.69 156.28 278.178 156.51 277.762 156.969C277.355 157.428 277.151 158.022 277.151 158.75C277.151 159.478 277.355 160.072 277.762 160.531ZM283.906 162V155.5H284.881V162H283.906ZM283.841 154.135V153.03H284.946V154.135H283.841ZM291.376 159.855H292.351C292.186 160.574 291.848 161.133 291.337 161.532C290.834 161.931 290.219 162.13 289.491 162.13C288.598 162.13 287.853 161.818 287.255 161.194C286.665 160.561 286.371 159.747 286.371 158.75C286.371 157.753 286.665 156.943 287.255 156.319C287.853 155.686 288.598 155.37 289.491 155.37C290.21 155.37 290.825 155.569 291.337 155.968C291.848 156.358 292.186 156.895 292.351 157.58H291.376C291.246 157.164 291.016 156.843 290.687 156.618C290.357 156.393 289.959 156.28 289.491 156.28C288.884 156.28 288.373 156.51 287.957 156.969C287.549 157.428 287.346 158.022 287.346 158.75C287.346 159.478 287.549 160.072 287.957 160.531C288.373 160.99 288.884 161.22 289.491 161.22C290.487 161.22 291.116 160.765 291.376 159.855ZM298.139 160.18H299.179C298.954 160.804 298.598 161.285 298.113 161.623C297.636 161.961 297.06 162.13 296.384 162.13C295.491 162.13 294.746 161.818 294.148 161.194C293.559 160.561 293.264 159.747 293.264 158.75C293.264 157.753 293.559 156.943 294.148 156.319C294.746 155.686 295.491 155.37 296.384 155.37C297.242 155.37 297.953 155.665 298.516 156.254C299.088 156.843 299.374 157.589 299.374 158.49C299.374 158.629 299.361 158.815 299.335 159.049L299.309 159.205H294.239C294.308 159.812 294.542 160.301 294.941 160.674C295.348 161.038 295.829 161.22 296.384 161.22C296.774 161.22 297.121 161.129 297.424 160.947C297.736 160.765 297.974 160.509 298.139 160.18ZM294.239 158.295H298.399C298.364 157.706 298.156 157.225 297.775 156.852C297.402 156.471 296.939 156.28 296.384 156.28C295.803 156.28 295.318 156.466 294.928 156.839C294.538 157.212 294.308 157.697 294.239 158.295ZM310.818 159.01H311.923C311.663 159.972 311.169 160.735 310.441 161.298C309.721 161.853 308.872 162.13 307.893 162.13C306.671 162.13 305.639 161.692 304.799 160.817C303.958 159.942 303.538 158.819 303.538 157.45C303.538 156.081 303.958 154.958 304.799 154.083C305.639 153.208 306.671 152.77 307.893 152.77C308.863 152.77 309.713 153.047 310.441 153.602C311.169 154.148 311.663 154.889 311.923 155.825H310.818C310.592 155.175 310.22 154.668 309.7 154.304C309.18 153.931 308.577 153.745 307.893 153.745C306.965 153.745 306.181 154.092 305.54 154.785C304.898 155.47 304.578 156.358 304.578 157.45C304.578 158.542 304.898 159.435 305.54 160.128C306.181 160.813 306.965 161.155 307.893 161.155C308.577 161.155 309.18 160.969 309.7 160.596C310.22 160.215 310.592 159.686 310.818 159.01ZM313.294 162V155.5H314.139L314.269 156.15H314.334C314.49 155.925 314.65 155.76 314.815 155.656C314.988 155.552 315.239 155.5 315.569 155.5H316.674V156.41H315.699C315.239 156.41 314.884 156.536 314.633 156.787C314.39 157.03 314.269 157.381 314.269 157.84V162H313.294ZM321.943 160.18H322.983C322.758 160.804 322.402 161.285 321.917 161.623C321.44 161.961 320.864 162.13 320.188 162.13C319.295 162.13 318.55 161.818 317.952 161.194C317.363 160.561 317.068 159.747 317.068 158.75C317.068 157.753 317.363 156.943 317.952 156.319C318.55 155.686 319.295 155.37 320.188 155.37C321.046 155.37 321.757 155.665 322.32 156.254C322.892 156.843 323.178 157.589 323.178 158.49C323.178 158.629 323.165 158.815 323.139 159.049L323.113 159.205H318.043C318.112 159.812 318.346 160.301 318.745 160.674C319.152 161.038 319.633 161.22 320.188 161.22C320.578 161.22 320.925 161.129 321.228 160.947C321.54 160.765 321.778 160.509 321.943 160.18ZM318.043 158.295H322.203C322.168 157.706 321.96 157.225 321.579 156.852C321.206 156.471 320.743 156.28 320.188 156.28C319.607 156.28 319.122 156.466 318.732 156.839C318.342 157.212 318.112 157.697 318.043 158.295ZM328.83 162L328.7 161.22H328.635C328.514 161.393 328.358 161.545 328.167 161.675C327.769 161.978 327.253 162.13 326.62 162.13C325.944 162.13 325.394 161.944 324.969 161.571C324.553 161.198 324.345 160.713 324.345 160.115C324.345 159.465 324.558 158.958 324.982 158.594C325.416 158.221 326.07 158.035 326.945 158.035H328.7V157.84C328.7 157.346 328.562 156.965 328.284 156.696C328.016 156.419 327.634 156.28 327.14 156.28C326.672 156.28 326.291 156.388 325.996 156.605C325.71 156.813 325.55 157.073 325.515 157.385H324.54C324.575 156.83 324.822 156.358 325.281 155.968C325.749 155.569 326.369 155.37 327.14 155.37C327.929 155.37 328.549 155.587 328.999 156.02C329.45 156.453 329.675 157.06 329.675 157.84V162H328.83ZM328.7 159.205V158.945H326.945C326.391 158.945 325.979 159.053 325.71 159.27C325.45 159.487 325.32 159.768 325.32 160.115C325.32 160.453 325.433 160.722 325.658 160.921C325.884 161.12 326.204 161.22 326.62 161.22C327.27 161.22 327.777 161.042 328.141 160.687C328.514 160.323 328.7 159.829 328.7 159.205ZM331.7 160.895V156.41H330.66V155.5H331.7V153.68H332.675V155.5H334.17V156.41H332.675V160.7C332.675 160.96 332.805 161.09 333.065 161.09H334.17V162H332.87C332.506 162 332.22 161.9 332.012 161.701C331.804 161.502 331.7 161.233 331.7 160.895ZM339.894 160.18H340.934C340.709 160.804 340.353 161.285 339.868 161.623C339.391 161.961 338.815 162.13 338.139 162.13C337.246 162.13 336.501 161.818 335.903 161.194C335.314 160.561 335.019 159.747 335.019 158.75C335.019 157.753 335.314 156.943 335.903 156.319C336.501 155.686 337.246 155.37 338.139 155.37C338.997 155.37 339.708 155.665 340.271 156.254C340.843 156.843 341.129 157.589 341.129 158.49C341.129 158.629 341.116 158.815 341.09 159.049L341.064 159.205H335.994C336.063 159.812 336.297 160.301 336.696 160.674C337.103 161.038 337.584 161.22 338.139 161.22C338.529 161.22 338.876 161.129 339.179 160.947C339.491 160.765 339.729 160.509 339.894 160.18ZM335.994 158.295H340.154C340.119 157.706 339.911 157.225 339.53 156.852C339.157 156.471 338.694 156.28 338.139 156.28C337.558 156.28 337.073 156.466 336.683 156.839C336.293 157.212 336.063 157.697 335.994 158.295ZM347.431 162L347.301 161.09H347.236C346.69 161.783 345.997 162.13 345.156 162.13C344.298 162.13 343.583 161.818 343.011 161.194C342.448 160.561 342.166 159.747 342.166 158.75C342.166 157.753 342.448 156.943 343.011 156.319C343.583 155.686 344.298 155.37 345.156 155.37C345.997 155.37 346.69 155.717 347.236 156.41H347.301V152.9H348.276V162H347.431ZM343.752 160.531C344.16 160.99 344.649 161.22 345.221 161.22C345.793 161.22 346.283 160.99 346.69 160.531C347.098 160.072 347.301 159.478 347.301 158.75C347.301 158.022 347.098 157.428 346.69 156.969C346.283 156.51 345.793 156.28 345.221 156.28C344.649 156.28 344.16 156.51 343.752 156.969C343.345 157.428 343.141 158.022 343.141 158.75C343.141 159.478 343.345 160.072 343.752 160.531Z" fill="#4AA44D"/>
<rect x="361" y="157" width="6" height="1" rx="0.5" fill="#3B82F6"/>
<circle cx="358" cy="157" r="4" fill="#3B82F6"/>
<circle cx="370" cy="157" r="4" fill="#3B82F6"/>
<circle cx="383" cy="157" r="4" fill="#3B82F6"/>
<circle cx="396" cy="157" r="4" fill="#E4E4E7"/>
<rect x="374" y="157" width="6" height="1" rx="0.5" fill="#3B82F6"/>
<rect x="387" y="157" width="6" height="1" rx="0.5" fill="#E4E4E7"/>
<path d="M8 181L416 181" stroke="#B1B1B1" stroke-opacity="0.1" stroke-linecap="round"/>
<path d="M25.05 210V200.2H31.49V201.6H26.52V204.4H31.21V205.8H26.52V208.6H31.49V210H25.05ZM32.8178 206.99H34.2878C34.2878 207.466 34.5071 207.877 34.9458 208.222C35.3938 208.567 35.9678 208.74 36.6678 208.74C37.4331 208.74 37.9978 208.609 38.3618 208.348C38.7258 208.077 38.9078 207.718 38.9078 207.27C38.9078 206.551 38.3478 206.085 37.2278 205.87L35.3378 205.52C34.5725 205.38 33.9938 205.086 33.6018 204.638C33.2191 204.19 33.0278 203.621 33.0278 202.93C33.0278 202.109 33.3451 201.427 33.9798 200.886C34.6145 200.335 35.4638 200.06 36.5278 200.06C37.7038 200.06 38.6138 200.359 39.2578 200.956C39.9111 201.544 40.2378 202.295 40.2378 203.21H38.7678C38.7678 202.734 38.5625 202.323 38.1518 201.978C37.7411 201.633 37.1998 201.46 36.5278 201.46C35.8931 201.46 35.3938 201.605 35.0298 201.894C34.6751 202.174 34.4978 202.519 34.4978 202.93C34.4978 203.621 34.9878 204.064 35.9678 204.26L37.5078 204.54C38.4971 204.717 39.2205 205.025 39.6778 205.464C40.1445 205.893 40.3778 206.495 40.3778 207.27C40.3778 208.11 40.0558 208.801 39.4118 209.342C38.7678 209.874 37.8531 210.14 36.6678 210.14C35.4825 210.14 34.5445 209.841 33.8538 209.244C33.1631 208.647 32.8178 207.895 32.8178 206.99ZM44.0944 210V201.6H41.0144V200.2H48.6444V201.6H45.5644V210H44.0944ZM48.9238 212.8L52.7738 199.78H54.1738L50.3238 212.8H48.9238ZM54.8738 210V208.74L58.9058 204.68C59.1765 204.409 59.3632 204.171 59.4658 203.966C59.5778 203.751 59.6338 203.476 59.6338 203.14C59.6338 202.608 59.4892 202.197 59.1998 201.908C58.9198 201.609 58.5278 201.46 58.0238 201.46C57.5292 201.46 57.1138 201.637 56.7778 201.992C56.4418 202.347 56.2738 202.799 56.2738 203.35H54.8038C54.8038 202.37 55.1025 201.577 55.6998 200.97C56.2972 200.363 57.0718 200.06 58.0238 200.06C58.9758 200.06 59.7365 200.345 60.3058 200.914C60.8845 201.474 61.1738 202.216 61.1738 203.14C61.1738 203.672 61.0525 204.134 60.8098 204.526C60.5765 204.918 60.2312 205.343 59.7738 205.8L57.0438 208.53V208.6H61.3138V210H54.8738ZM61.6573 207.9V206.71L65.3673 200.2H67.6773V206.57H68.8673V207.9H67.6773V210H66.2073V207.9H61.6573ZM63.4073 206.57H66.2073V202.02H65.9273L63.4073 206.5V206.57ZM69.7745 206.64V205.38H74.3945V206.64H69.7745ZM75.7234 210V208.74L79.7554 204.68C80.0261 204.409 80.2128 204.171 80.3154 203.966C80.4274 203.751 80.4834 203.476 80.4834 203.14C80.4834 202.608 80.3388 202.197 80.0494 201.908C79.7694 201.609 79.3774 201.46 78.8734 201.46C78.3788 201.46 77.9634 201.637 77.6274 201.992C77.2914 202.347 77.1234 202.799 77.1234 203.35H75.6534C75.6534 202.37 75.9521 201.577 76.5494 200.97C77.1468 200.363 77.9214 200.06 78.8734 200.06C79.8254 200.06 80.5861 200.345 81.1554 200.914C81.7341 201.474 82.0234 202.216 82.0234 203.14C82.0234 203.672 81.9021 204.134 81.6594 204.526C81.4261 204.918 81.0808 205.343 80.6234 205.8L77.8934 208.53V208.6H82.1634V210H75.7234ZM83.3507 207.34H84.8207C84.9047 207.732 85.1054 208.063 85.4227 208.334C85.7494 208.605 86.1787 208.74 86.7107 208.74C87.308 208.74 87.784 208.563 88.1387 208.208C88.4934 207.853 88.6707 207.377 88.6707 206.78C88.6707 206.22 88.4887 205.767 88.1247 205.422C87.77 205.067 87.2987 204.89 86.7107 204.89C86.0107 204.89 85.474 205.123 85.1007 205.59H83.5607L84.1207 200.2H89.5807V201.6H85.3807L85.1007 203.98H85.1707C85.6747 203.653 86.258 203.49 86.9207 203.49C87.8447 203.49 88.61 203.803 89.2167 204.428C89.8327 205.044 90.1407 205.828 90.1407 206.78C90.1407 207.76 89.8187 208.567 89.1747 209.202C88.54 209.827 87.7187 210.14 86.7107 210.14C86.16 210.14 85.6654 210.051 85.2267 209.874C84.7974 209.697 84.4567 209.463 84.2047 209.174C83.9527 208.885 83.7567 208.586 83.6167 208.278C83.486 207.97 83.3974 207.657 83.3507 207.34ZM90.7734 212.8L94.6234 199.78H96.0234L92.1734 212.8H90.7734ZM102.379 207.802C102.855 207.167 103.093 206.267 103.093 205.1C103.093 203.933 102.855 203.037 102.379 202.412C101.903 201.777 101.325 201.46 100.643 201.46C99.9621 201.46 99.3834 201.777 98.9074 202.412C98.4314 203.037 98.1934 203.933 98.1934 205.1C98.1934 206.267 98.4314 207.167 98.9074 207.802C99.3834 208.427 99.9621 208.74 100.643 208.74C101.325 208.74 101.903 208.427 102.379 207.802ZM97.8574 201.418C98.6134 200.513 99.5421 200.06 100.643 200.06C101.745 200.06 102.673 200.513 103.429 201.418C104.185 202.323 104.563 203.551 104.563 205.1C104.563 206.649 104.185 207.877 103.429 208.782C102.673 209.687 101.745 210.14 100.643 210.14C99.5421 210.14 98.6134 209.687 97.8574 208.782C97.1014 207.877 96.7234 206.649 96.7234 205.1C96.7234 203.551 97.1014 202.323 97.8574 201.418ZM111.622 207.802C112.098 207.167 112.336 206.267 112.336 205.1C112.336 203.933 112.098 203.037 111.622 202.412C111.146 201.777 110.567 201.46 109.886 201.46C109.204 201.46 108.626 201.777 108.15 202.412C107.674 203.037 107.436 203.933 107.436 205.1C107.436 206.267 107.674 207.167 108.15 207.802C108.626 208.427 109.204 208.74 109.886 208.74C110.567 208.74 111.146 208.427 111.622 207.802ZM107.1 201.418C107.856 200.513 108.784 200.06 109.886 200.06C110.987 200.06 111.916 200.513 112.672 201.418C113.428 202.323 113.806 203.551 113.806 205.1C113.806 206.649 113.428 207.877 112.672 208.782C111.916 209.687 110.987 210.14 109.886 210.14C108.784 210.14 107.856 209.687 107.1 208.782C106.344 207.877 105.966 206.649 105.966 205.1C105.966 203.551 106.344 202.323 107.1 201.418ZM116.888 210V202.65H114.858V201.25H116.468C116.748 201.25 116.888 201.11 116.888 200.83V200.2H118.358V210H116.888Z" fill="#3B82F6"/>
<path d="M24.63 227.41H25.75C25.8527 227.933 26.0907 228.343 26.464 228.642C26.8467 228.941 27.3087 229.09 27.85 229.09C28.4847 229.09 29.0167 228.875 29.446 228.446C29.8753 228.007 30.09 227.461 30.09 226.808C30.09 226.136 29.8893 225.59 29.488 225.17C29.0867 224.75 28.564 224.54 27.92 224.54C27.0987 224.54 26.4687 224.82 26.03 225.38H24.84L25.4 220.2H30.65V221.25H26.338L26.03 224.12H26.1C26.576 223.7 27.2293 223.49 28.06 223.49C28.9187 223.49 29.656 223.812 30.272 224.456C30.8973 225.091 31.21 225.875 31.21 226.808C31.21 227.779 30.8927 228.577 30.258 229.202C29.6327 229.827 28.83 230.14 27.85 230.14C27.01 230.14 26.2913 229.897 25.694 229.412C25.0967 228.927 24.742 228.259 24.63 227.41ZM36.2626 230V220.2H37.3826V230H36.2626ZM39.9759 228.81V223.98H38.8559V223H39.9759V221.04H41.0259V223H42.6359V223.98H41.0259V228.6C41.0259 228.88 41.1659 229.02 41.4459 229.02H42.6359V230H41.2359C40.8439 230 40.5359 229.893 40.3119 229.678C40.0879 229.463 39.9759 229.174 39.9759 228.81ZM48.8002 228.04H49.9202C49.6776 228.712 49.2949 229.23 48.7722 229.594C48.2589 229.958 47.6382 230.14 46.9102 230.14C45.9489 230.14 45.1462 229.804 44.5022 229.132C43.8676 228.451 43.5502 227.573 43.5502 226.5C43.5502 225.427 43.8676 224.554 44.5022 223.882C45.1462 223.201 45.9489 222.86 46.9102 222.86C47.8342 222.86 48.5996 223.177 49.2062 223.812C49.8222 224.447 50.1302 225.249 50.1302 226.22C50.1302 226.369 50.1162 226.57 50.0882 226.822L50.0602 226.99H44.6002C44.6749 227.643 44.9269 228.171 45.3562 228.572C45.7949 228.964 46.3129 229.16 46.9102 229.16C47.3302 229.16 47.7036 229.062 48.0302 228.866C48.3662 228.67 48.6229 228.395 48.8002 228.04ZM44.6002 226.01H49.0802C49.0429 225.375 48.8189 224.857 48.4082 224.456C48.0069 224.045 47.5076 223.84 46.9102 223.84C46.2849 223.84 45.7622 224.041 45.3422 224.442C44.9222 224.843 44.6749 225.366 44.6002 226.01ZM51.6675 230V223H52.5775L52.7175 223.77H52.7875C52.9275 223.602 53.0908 223.453 53.2775 223.322C53.7162 223.014 54.1595 222.86 54.6075 222.86C55.2142 222.86 55.7368 223.061 56.1755 223.462C56.3622 223.63 56.5162 223.826 56.6375 224.05H56.7075C56.8662 223.817 57.0575 223.621 57.2815 223.462C57.7948 223.061 58.3735 222.86 59.0175 222.86C59.7455 222.86 60.3475 223.117 60.8235 223.63C61.2995 224.134 61.5375 224.787 61.5375 225.59V230H60.4875V225.59C60.4875 225.058 60.3428 224.633 60.0535 224.316C59.7642 223.999 59.3722 223.84 58.8775 223.84C58.4108 223.84 58.0002 224.013 57.6455 224.358C57.3002 224.694 57.1275 225.105 57.1275 225.59V230H56.0775V225.59C56.0775 225.058 55.9328 224.633 55.6435 224.316C55.3542 223.999 54.9622 223.84 54.4675 223.84C54.0008 223.84 53.5902 224.013 53.2355 224.358C52.8902 224.694 52.7175 225.105 52.7175 225.59V230H51.6675Z" fill="white"/>
<path d="M25.04 250V240.9H28.095C29.3603 240.9 30.4003 241.329 31.215 242.187C32.0383 243.036 32.45 244.124 32.45 245.45C32.45 246.776 32.0383 247.868 31.215 248.726C30.4003 249.575 29.3603 250 28.095 250H25.04ZM26.08 249.025H28.095C29.0483 249.025 29.837 248.696 30.461 248.037C31.0937 247.37 31.41 246.507 31.41 245.45C31.41 244.393 31.0937 243.535 30.461 242.876C29.837 242.209 29.0483 241.875 28.095 241.875H26.08V249.025ZM38.2375 250L38.1075 249.22H38.0425C37.9212 249.393 37.7652 249.545 37.5745 249.675C37.1759 249.978 36.6602 250.13 36.0275 250.13C35.3515 250.13 34.8012 249.944 34.3765 249.571C33.9605 249.198 33.7525 248.713 33.7525 248.115C33.7525 247.465 33.9649 246.958 34.3895 246.594C34.8229 246.221 35.4772 246.035 36.3525 246.035H38.1075V245.84C38.1075 245.346 37.9689 244.965 37.6915 244.696C37.4229 244.419 37.0415 244.28 36.5475 244.28C36.0795 244.28 35.6982 244.388 35.4035 244.605C35.1175 244.813 34.9572 245.073 34.9225 245.385H33.9475C33.9822 244.83 34.2292 244.358 34.6885 243.968C35.1565 243.569 35.7762 243.37 36.5475 243.37C37.3362 243.37 37.9559 243.587 38.4065 244.02C38.8572 244.453 39.0825 245.06 39.0825 245.84V250H38.2375ZM38.1075 247.205V246.945H36.3525C35.7979 246.945 35.3862 247.053 35.1175 247.27C34.8575 247.487 34.7275 247.768 34.7275 248.115C34.7275 248.453 34.8402 248.722 35.0655 248.921C35.2909 249.12 35.6115 249.22 36.0275 249.22C36.6775 249.22 37.1845 249.042 37.5485 248.687C37.9212 248.323 38.1075 247.829 38.1075 247.205ZM41.1072 248.895V244.41H40.0672V243.5H41.1072V241.68H42.0822V243.5H43.5772V244.41H42.0822V248.7C42.0822 248.96 42.2122 249.09 42.4722 249.09H43.5772V250H42.2772C41.9132 250 41.6272 249.9 41.4192 249.701C41.2112 249.502 41.1072 249.233 41.1072 248.895ZM49.3013 248.18H50.3413C50.1159 248.804 49.7606 249.285 49.2753 249.623C48.7986 249.961 48.2223 250.13 47.5463 250.13C46.6536 250.13 45.9083 249.818 45.3103 249.194C44.7209 248.561 44.4263 247.747 44.4263 246.75C44.4263 245.753 44.7209 244.943 45.3103 244.319C45.9083 243.686 46.6536 243.37 47.5463 243.37C48.4043 243.37 49.1149 243.665 49.6783 244.254C50.2503 244.843 50.5363 245.589 50.5363 246.49C50.5363 246.629 50.5233 246.815 50.4973 247.049L50.4712 247.205H45.4013C45.4706 247.812 45.7046 248.301 46.1033 248.674C46.5106 249.038 46.9916 249.22 47.5463 249.22C47.9363 249.22 48.2829 249.129 48.5863 248.947C48.8983 248.765 49.1366 248.509 49.3013 248.18ZM45.4013 246.295H49.5613C49.5266 245.706 49.3186 245.225 48.9373 244.852C48.5646 244.471 48.1009 244.28 47.5463 244.28C46.9656 244.28 46.4803 244.466 46.0903 244.839C45.7003 245.212 45.4706 245.697 45.4013 246.295ZM51.8337 250V248.83H53.0037V250H51.8337ZM51.8337 244.67V243.5H53.0037V244.67H51.8337Z" fill="#A1A1AA"/>
<path d="M57.862 248.81C57.134 247.923 56.77 246.687 56.77 245.1C56.77 243.513 57.134 242.277 57.862 241.39C58.59 240.503 59.486 240.06 60.55 240.06C61.614 240.06 62.51 240.503 63.238 241.39C63.966 242.277 64.33 243.513 64.33 245.1C64.33 246.687 63.966 247.923 63.238 248.81C62.51 249.697 61.614 250.14 60.55 250.14C59.486 250.14 58.59 249.697 57.862 248.81ZM62.44 242.16C61.9267 241.46 61.2967 241.11 60.55 241.11C59.8033 241.11 59.1733 241.46 58.66 242.16C58.1467 242.86 57.89 243.84 57.89 245.1C57.89 246.36 58.1467 247.34 58.66 248.04C59.1733 248.74 59.8033 249.09 60.55 249.09C61.2967 249.09 61.9267 248.74 62.44 248.04C62.9533 247.34 63.21 246.36 63.21 245.1C63.21 243.84 62.9533 242.86 62.44 242.16ZM66.5016 250L69.9456 241.25H65.0316V240.2H71.1916V241.11L67.6916 250H66.5016ZM71.8195 246.5V245.52H76.2995V246.5H71.8195ZM78.7936 248.81C78.0656 247.923 77.7016 246.687 77.7016 245.1C77.7016 243.513 78.0656 242.277 78.7936 241.39C79.5216 240.503 80.4176 240.06 81.4816 240.06C82.5456 240.06 83.4416 240.503 84.1696 241.39C84.8976 242.277 85.2616 243.513 85.2616 245.1C85.2616 246.687 84.8976 247.923 84.1696 248.81C83.4416 249.697 82.5456 250.14 81.4816 250.14C80.4176 250.14 79.5216 249.697 78.7936 248.81ZM83.3716 242.16C82.8583 241.46 82.2283 241.11 81.4816 241.11C80.735 241.11 80.105 241.46 79.5916 242.16C79.0783 242.86 78.8216 243.84 78.8216 245.1C78.8216 246.36 79.0783 247.34 79.5916 248.04C80.105 248.74 80.735 249.09 81.4816 249.09C82.2283 249.09 82.8583 248.74 83.3716 248.04C83.885 247.34 84.1416 246.36 84.1416 245.1C84.1416 243.84 83.885 242.86 83.3716 242.16ZM88.2771 244.96V244.89C88.0251 244.75 87.8011 244.582 87.6051 244.386C87.1664 243.947 86.9471 243.415 86.9471 242.79C86.9471 242.015 87.2318 241.367 87.8011 240.844C88.3704 240.321 89.0891 240.06 89.9571 240.06C90.8251 240.06 91.5438 240.321 92.1131 240.844C92.6824 241.367 92.9671 242.015 92.9671 242.79C92.9671 243.406 92.7431 243.938 92.2951 244.386C92.1084 244.573 91.8891 244.741 91.6371 244.89V244.96C91.8984 245.081 92.1551 245.259 92.4071 245.492C92.9204 246.005 93.1771 246.621 93.1771 247.34C93.1771 248.096 92.8738 248.754 92.2671 249.314C91.6698 249.865 90.8998 250.14 89.9571 250.14C89.0051 250.14 88.2304 249.865 87.6331 249.314C87.0358 248.763 86.7371 248.105 86.7371 247.34C86.7371 246.603 86.9938 245.987 87.5071 245.492C87.7404 245.259 87.9971 245.081 88.2771 244.96ZM88.5711 241.6C88.2351 241.917 88.0671 242.314 88.0671 242.79C88.0671 243.266 88.2351 243.667 88.5711 243.994C88.9164 244.311 89.3784 244.47 89.9571 244.47C90.5358 244.47 90.9931 244.311 91.3291 243.994C91.6744 243.667 91.8471 243.266 91.8471 242.79C91.8471 242.314 91.6744 241.917 91.3291 241.6C90.9931 241.273 90.5358 241.11 89.9571 241.11C89.3784 241.11 88.9164 241.273 88.5711 241.6ZM88.4591 245.968C88.0578 246.313 87.8571 246.747 87.8571 247.27C87.8571 247.793 88.0578 248.227 88.4591 248.572C88.8604 248.917 89.3598 249.09 89.9571 249.09C90.5544 249.09 91.0538 248.917 91.4551 248.572C91.8564 248.227 92.0571 247.793 92.0571 247.27C92.0571 246.747 91.8564 246.313 91.4551 245.968C91.0538 245.623 90.5544 245.45 89.9571 245.45C89.3598 245.45 88.8604 245.623 88.4591 245.968ZM94.5011 246.5V245.52H98.9811V246.5H94.5011ZM100.383 250V249.09L104.373 244.82C104.672 244.493 104.887 244.204 105.017 243.952C105.148 243.691 105.213 243.373 105.213 243C105.213 242.44 105.036 241.987 104.681 241.642C104.336 241.287 103.883 241.11 103.323 241.11C102.791 241.11 102.343 241.306 101.979 241.698C101.615 242.09 101.433 242.594 101.433 243.21H100.313C100.313 242.295 100.593 241.544 101.153 240.956C101.723 240.359 102.446 240.06 103.323 240.06C104.201 240.06 104.919 240.335 105.479 240.886C106.049 241.427 106.333 242.132 106.333 243C106.333 243.541 106.235 244.003 106.039 244.386C105.843 244.759 105.545 245.161 105.143 245.59L101.993 248.88V248.95H106.543V250H100.383ZM108.967 248.81C108.239 247.923 107.875 246.687 107.875 245.1C107.875 243.513 108.239 242.277 108.967 241.39C109.695 240.503 110.591 240.06 111.655 240.06C112.719 240.06 113.615 240.503 114.343 241.39C115.071 242.277 115.435 243.513 115.435 245.1C115.435 246.687 115.071 247.923 114.343 248.81C113.615 249.697 112.719 250.14 111.655 250.14C110.591 250.14 109.695 249.697 108.967 248.81ZM113.545 242.16C113.032 241.46 112.402 241.11 111.655 241.11C110.909 241.11 110.279 241.46 109.765 242.16C109.252 242.86 108.995 243.84 108.995 245.1C108.995 246.36 109.252 247.34 109.765 248.04C110.279 248.74 110.909 249.09 111.655 249.09C112.402 249.09 113.032 248.74 113.545 248.04C114.059 247.34 114.315 246.36 114.315 245.1C114.315 243.84 114.059 242.86 113.545 242.16ZM116.981 250V249.09L120.971 244.82C121.27 244.493 121.484 244.204 121.615 243.952C121.746 243.691 121.811 243.373 121.811 243C121.811 242.44 121.634 241.987 121.279 241.642C120.934 241.287 120.481 241.11 119.921 241.11C119.389 241.11 118.941 241.306 118.577 241.698C118.213 242.09 118.031 242.594 118.031 243.21H116.911C116.911 242.295 117.191 241.544 117.751 240.956C118.32 240.359 119.044 240.06 119.921 240.06C120.798 240.06 121.517 240.335 122.077 240.886C122.646 241.427 122.931 242.132 122.931 243C122.931 243.541 122.833 244.003 122.637 244.386C122.441 244.759 122.142 245.161 121.741 245.59L118.591 248.88V248.95H123.141V250H116.981ZM123.559 247.76V246.92L127.409 240.2H129.229V246.78H130.489V247.76H129.229V250H128.109V247.76H123.559ZM124.959 246.78H128.109V241.67H127.829L124.959 246.71V246.78Z" fill="white"/>
<path d="M336.07 206.43V205.1H339.22C339.985 205.1 340.475 204.727 340.69 203.98H336.07V202.65H340.69C340.475 201.903 339.985 201.53 339.22 201.53H336.07V200.2H343.07V201.53H341.74C341.796 201.605 341.847 201.693 341.894 201.796C341.968 201.936 342.062 202.221 342.174 202.65H343.07V203.98H342.174C342.024 204.755 341.702 205.357 341.208 205.786C340.713 206.215 340.097 206.43 339.36 206.43H338.94L342.44 210H340.55L337.05 206.43H336.07ZM345.874 210V202.65H343.844V201.25H345.454C345.734 201.25 345.874 201.11 345.874 200.83V200.2H347.344V210H345.874ZM349.019 211.19L349.299 208.39H350.909L350.139 211.19H349.019ZM352.314 207.34H353.784C353.868 207.732 354.068 208.063 354.386 208.334C354.712 208.605 355.142 208.74 355.674 208.74C356.271 208.74 356.747 208.563 357.102 208.208C357.456 207.853 357.634 207.377 357.634 206.78C357.634 206.22 357.452 205.767 357.088 205.422C356.733 205.067 356.262 204.89 355.674 204.89C354.974 204.89 354.437 205.123 354.064 205.59H352.524L353.084 200.2H358.544V201.6H354.344L354.064 203.98H354.134C354.638 203.653 355.221 203.49 355.884 203.49C356.808 203.49 357.573 203.803 358.18 204.428C358.796 205.044 359.104 205.828 359.104 206.78C359.104 207.76 358.782 208.567 358.138 209.202C357.503 209.827 356.682 210.14 355.674 210.14C355.123 210.14 354.628 210.051 354.19 209.874C353.76 209.697 353.42 209.463 353.168 209.174C352.916 208.885 352.72 208.586 352.58 208.278C352.449 207.97 352.36 207.657 352.314 207.34ZM366.092 207.802C366.568 207.167 366.806 206.267 366.806 205.1C366.806 203.933 366.568 203.037 366.092 202.412C365.616 201.777 365.038 201.46 364.356 201.46C363.675 201.46 363.096 201.777 362.62 202.412C362.144 203.037 361.906 203.933 361.906 205.1C361.906 206.267 362.144 207.167 362.62 207.802C363.096 208.427 363.675 208.74 364.356 208.74C365.038 208.74 365.616 208.427 366.092 207.802ZM361.57 201.418C362.326 200.513 363.255 200.06 364.356 200.06C365.458 200.06 366.386 200.513 367.142 201.418C367.898 202.323 368.276 203.551 368.276 205.1C368.276 206.649 367.898 207.877 367.142 208.782C366.386 209.687 365.458 210.14 364.356 210.14C363.255 210.14 362.326 209.687 361.57 208.782C360.814 207.877 360.436 206.649 360.436 205.1C360.436 203.551 360.814 202.323 361.57 201.418ZM375.335 207.802C375.811 207.167 376.049 206.267 376.049 205.1C376.049 203.933 375.811 203.037 375.335 202.412C374.859 201.777 374.28 201.46 373.599 201.46C372.917 201.46 372.339 201.777 371.863 202.412C371.387 203.037 371.149 203.933 371.149 205.1C371.149 206.267 371.387 207.167 371.863 207.802C372.339 208.427 372.917 208.74 373.599 208.74C374.28 208.74 374.859 208.427 375.335 207.802ZM370.813 201.418C371.569 200.513 372.497 200.06 373.599 200.06C374.7 200.06 375.629 200.513 376.385 201.418C377.141 202.323 377.519 203.551 377.519 205.1C377.519 206.649 377.141 207.877 376.385 208.782C375.629 209.687 374.7 210.14 373.599 210.14C372.497 210.14 371.569 209.687 370.813 208.782C370.057 207.877 369.679 206.649 369.679 205.1C369.679 203.551 370.057 202.323 370.813 201.418ZM379.061 210V208.39H380.671V210H379.061ZM387.872 207.802C388.348 207.167 388.586 206.267 388.586 205.1C388.586 203.933 388.348 203.037 387.872 202.412C387.396 201.777 386.817 201.46 386.136 201.46C385.454 201.46 384.876 201.777 384.4 202.412C383.924 203.037 383.686 203.933 383.686 205.1C383.686 206.267 383.924 207.167 384.4 207.802C384.876 208.427 385.454 208.74 386.136 208.74C386.817 208.74 387.396 208.427 387.872 207.802ZM383.35 201.418C384.106 200.513 385.034 200.06 386.136 200.06C387.237 200.06 388.166 200.513 388.922 201.418C389.678 202.323 390.056 203.551 390.056 205.1C390.056 206.649 389.678 207.877 388.922 208.782C388.166 209.687 387.237 210.14 386.136 210.14C385.034 210.14 384.106 209.687 383.35 208.782C382.594 207.877 382.216 206.649 382.216 205.1C382.216 203.551 382.594 202.323 383.35 201.418ZM397.114 207.802C397.59 207.167 397.828 206.267 397.828 205.1C397.828 203.933 397.59 203.037 397.114 202.412C396.638 201.777 396.059 201.46 395.378 201.46C394.696 201.46 394.118 201.777 393.642 202.412C393.166 203.037 392.928 203.933 392.928 205.1C392.928 206.267 393.166 207.167 393.642 207.802C394.118 208.427 394.696 208.74 395.378 208.74C396.059 208.74 396.638 208.427 397.114 207.802ZM392.592 201.418C393.348 200.513 394.276 200.06 395.378 200.06C396.479 200.06 397.408 200.513 398.164 201.418C398.92 202.323 399.298 203.551 399.298 205.1C399.298 206.649 398.92 207.877 398.164 208.782C397.408 209.687 396.479 210.14 395.378 210.14C394.276 210.14 393.348 209.687 392.592 208.782C391.836 207.877 391.458 206.649 391.458 205.1C391.458 203.551 391.836 202.323 392.592 201.418Z" fill="white"/>
<path d="M285.099 248.817C284.258 249.692 283.227 250.13 282.005 250.13C280.783 250.13 279.752 249.692 278.911 248.817C278.07 247.942 277.65 246.819 277.65 245.45C277.65 244.081 278.07 242.958 278.911 242.083C279.752 241.208 280.783 240.77 282.005 240.77C283.227 240.77 284.258 241.208 285.099 242.083C285.94 242.958 286.36 244.081 286.36 245.45C286.36 246.819 285.94 247.942 285.099 248.817ZM279.652 248.128C280.293 248.813 281.078 249.155 282.005 249.155C282.932 249.155 283.717 248.813 284.358 248.128C284.999 247.435 285.32 246.542 285.32 245.45C285.32 244.358 284.999 243.47 284.358 242.785C283.717 242.092 282.932 241.745 282.005 241.745C281.078 241.745 280.293 242.092 279.652 242.785C279.011 243.47 278.69 244.358 278.69 245.45C278.69 246.542 279.011 247.435 279.652 248.128ZM292.789 250L292.659 249.09H292.594C292.048 249.783 291.355 250.13 290.514 250.13C289.656 250.13 288.941 249.818 288.369 249.194C287.806 248.561 287.524 247.747 287.524 246.75C287.524 245.753 287.806 244.943 288.369 244.319C288.941 243.686 289.656 243.37 290.514 243.37C291.355 243.37 292.048 243.717 292.594 244.41H292.659V240.9H293.634V250H292.789ZM289.11 248.531C289.517 248.99 290.007 249.22 290.579 249.22C291.151 249.22 291.641 248.99 292.048 248.531C292.455 248.072 292.659 247.478 292.659 246.75C292.659 246.022 292.455 245.428 292.048 244.969C291.641 244.51 291.151 244.28 290.579 244.28C290.007 244.28 289.517 244.51 289.11 244.969C288.703 245.428 288.499 246.022 288.499 246.75C288.499 247.478 288.703 248.072 289.11 248.531ZM300.003 248.18H301.043C300.818 248.804 300.463 249.285 299.977 249.623C299.501 249.961 298.924 250.13 298.248 250.13C297.356 250.13 296.61 249.818 296.012 249.194C295.423 248.561 295.128 247.747 295.128 246.75C295.128 245.753 295.423 244.943 296.012 244.319C296.61 243.686 297.356 243.37 298.248 243.37C299.106 243.37 299.817 243.665 300.38 244.254C300.952 244.843 301.238 245.589 301.238 246.49C301.238 246.629 301.225 246.815 301.199 247.049L301.173 247.205H296.103C296.173 247.812 296.407 248.301 296.805 248.674C297.213 249.038 297.694 249.22 298.248 249.22C298.638 249.22 298.985 249.129 299.288 248.947C299.6 248.765 299.839 248.509 300.003 248.18ZM296.103 246.295H300.263C300.229 245.706 300.021 245.225 299.639 244.852C299.267 244.471 298.803 244.28 298.248 244.28C297.668 244.28 297.182 244.466 296.792 244.839C296.402 245.212 296.173 245.697 296.103 246.295ZM302.666 250V243.5H303.511L303.641 244.15H303.706C303.862 243.925 304.022 243.76 304.187 243.656C304.36 243.552 304.612 243.5 304.941 243.5H306.046V244.41H305.071C304.612 244.41 304.256 244.536 304.005 244.787C303.762 245.03 303.641 245.381 303.641 245.84V250H302.666ZM316.706 247.01H317.811C317.551 247.972 317.057 248.735 316.329 249.298C315.61 249.853 314.761 250.13 313.781 250.13C312.559 250.13 311.528 249.692 310.687 248.817C309.847 247.942 309.426 246.819 309.426 245.45C309.426 244.081 309.847 242.958 310.687 242.083C311.528 241.208 312.559 240.77 313.781 240.77C314.752 240.77 315.601 241.047 316.329 241.602C317.057 242.148 317.551 242.889 317.811 243.825H316.706C316.481 243.175 316.108 242.668 315.588 242.304C315.068 241.931 314.466 241.745 313.781 241.745C312.854 241.745 312.07 242.092 311.428 242.785C310.787 243.47 310.466 244.358 310.466 245.45C310.466 246.542 310.787 247.435 311.428 248.128C312.07 248.813 312.854 249.155 313.781 249.155C314.466 249.155 315.068 248.969 315.588 248.596C316.108 248.215 316.481 247.686 316.706 247.01ZM323.407 250L323.277 249.22H323.212C323.091 249.393 322.935 249.545 322.744 249.675C322.346 249.978 321.83 250.13 321.197 250.13C320.521 250.13 319.971 249.944 319.546 249.571C319.13 249.198 318.922 248.713 318.922 248.115C318.922 247.465 319.135 246.958 319.559 246.594C319.993 246.221 320.647 246.035 321.522 246.035H323.277V245.84C323.277 245.346 323.139 244.965 322.861 244.696C322.593 244.419 322.211 244.28 321.717 244.28C321.249 244.28 320.868 244.388 320.573 244.605C320.287 244.813 320.127 245.073 320.092 245.385H319.117C319.152 244.83 319.399 244.358 319.858 243.968C320.326 243.569 320.946 243.37 321.717 243.37C322.506 243.37 323.126 243.587 323.576 244.02C324.027 244.453 324.252 245.06 324.252 245.84V250H323.407ZM323.277 247.205V246.945H321.522C320.968 246.945 320.556 247.053 320.287 247.27C320.027 247.487 319.897 247.768 319.897 248.115C319.897 248.453 320.01 248.722 320.235 248.921C320.461 249.12 320.781 249.22 321.197 249.22C321.847 249.22 322.354 249.042 322.718 248.687C323.091 248.323 323.277 247.829 323.277 247.205ZM326.076 250V243.5H326.921L327.051 244.215H327.116C327.255 244.042 327.415 243.903 327.597 243.799C328.048 243.513 328.537 243.37 329.066 243.37C329.82 243.37 330.44 243.626 330.925 244.137C331.419 244.64 331.666 245.294 331.666 246.1V250H330.691V246.1C330.691 245.58 330.522 245.147 330.184 244.8C329.846 244.453 329.43 244.28 328.936 244.28C328.416 244.28 327.97 244.462 327.597 244.826C327.233 245.181 327.051 245.606 327.051 246.1V250H326.076ZM338.105 247.855H339.08C338.915 248.574 338.577 249.133 338.066 249.532C337.563 249.931 336.948 250.13 336.22 250.13C335.327 250.13 334.582 249.818 333.984 249.194C333.395 248.561 333.1 247.747 333.1 246.75C333.1 245.753 333.395 244.943 333.984 244.319C334.582 243.686 335.327 243.37 336.22 243.37C336.939 243.37 337.555 243.569 338.066 243.968C338.577 244.358 338.915 244.895 339.08 245.58H338.105C337.975 245.164 337.745 244.843 337.416 244.618C337.087 244.393 336.688 244.28 336.22 244.28C335.613 244.28 335.102 244.51 334.686 244.969C334.279 245.428 334.075 246.022 334.075 246.75C334.075 247.478 334.279 248.072 334.686 248.531C335.102 248.99 335.613 249.22 336.22 249.22C337.217 249.22 337.845 248.765 338.105 247.855ZM344.869 248.18H345.909C345.683 248.804 345.328 249.285 344.843 249.623C344.366 249.961 343.79 250.13 343.114 250.13C342.221 250.13 341.476 249.818 340.878 249.194C340.288 248.561 339.994 247.747 339.994 246.75C339.994 245.753 340.288 244.943 340.878 244.319C341.476 243.686 342.221 243.37 343.114 243.37C343.972 243.37 344.682 243.665 345.246 244.254C345.818 244.843 346.104 245.589 346.104 246.49C346.104 246.629 346.091 246.815 346.065 247.049L346.039 247.205H340.969C341.038 247.812 341.272 248.301 341.671 248.674C342.078 249.038 342.559 249.22 343.114 249.22C343.504 249.22 343.85 249.129 344.154 248.947C344.466 248.765 344.704 248.509 344.869 248.18ZM340.969 246.295H345.129C345.094 245.706 344.886 245.225 344.505 244.852C344.132 244.471 343.668 244.28 343.114 244.28C342.533 244.28 342.048 244.466 341.658 244.839C341.268 245.212 341.038 245.697 340.969 246.295ZM347.596 250V240.9H348.571V250H347.596Z" fill="#EF4444"/>
<rect x="361" y="245" width="6" height="1" rx="0.5" fill="#EF4444"/>
<circle cx="358" cy="245" r="4" fill="#EF4444"/>
<circle cx="370" cy="245" r="4" fill="#E4E4E7"/>
<circle cx="383" cy="245" r="4" fill="#E4E4E7"/>
<circle cx="396" cy="245" r="4" fill="#E4E4E7"/>
<rect x="374" y="245" width="6" height="1" rx="0.5" fill="#E4E4E7"/>
<rect x="387" y="245" width="6" height="1" rx="0.5" fill="#E4E4E7"/>
</g>
<defs>
<filter id="filter0_ddd_3550_103486" x="0.5" y="0" width="423" height="282" filterUnits="userSpaceOnUse" color-interpolation-filters="sRGB">
<feFlood flood-opacity="0" result="BackgroundImageFix"/>
<feColorMatrix in="SourceAlpha" type="matrix" values="0 0 0 0 0 0 0 0 0 0 0 0 0 0 0 0 0 0 127 0" result="hardAlpha"/>
<feMorphology radius="1" operator="dilate" in="SourceAlpha" result="effect1_dropShadow_3550_103486"/>
<feOffset/>
<feComposite in2="hardAlpha" operator="out"/>
<feColorMatrix type="matrix" values="0 0 0 0 0.0627451 0 0 0 0 0.0980392 0 0 0 0 0.156863 0 0 0 0.05 0"/>
<feBlend mode="normal" in2="BackgroundImageFix" result="effect1_dropShadow_3550_103486"/>
<feColorMatrix in="SourceAlpha" type="matrix" values="0 0 0 0 0 0 0 0 0 0 0 0 0 0 0 0 0 0 127 0" result="hardAlpha"/>
<feOffset dy="2"/>
<feGaussianBlur stdDeviation="3.5"/>
<feComposite in2="hardAlpha" operator="out"/>
<feColorMatrix type="matrix" values="0 0 0 0 0.0627451 0 0 0 0 0.0980392 0 0 0 0 0.156863 0 0 0 0.05 0"/>
<feBlend mode="normal" in2="effect1_dropShadow_3550_103486" result="effect2_dropShadow_3550_103486"/>
<feColorMatrix in="SourceAlpha" type="matrix" values="0 0 0 0 0 0 0 0 0 0 0 0 0 0 0 0 0 0 127 0" result="hardAlpha"/>
<feMorphology radius="2" operator="erode" in="SourceAlpha" result="effect3_dropShadow_3550_103486"/>
<feOffset dy="2"/>
<feGaussianBlur stdDeviation="2.5"/>
<feComposite in2="hardAlpha" operator="out"/>
<feColorMatrix type="matrix" values="0 0 0 0 0.0627451 0 0 0 0 0.0980392 0 0 0 0 0.156863 0 0 0 0.06 0"/>
<feBlend mode="normal" in2="effect2_dropShadow_3550_103486" result="effect3_dropShadow_3550_103486"/>
<feBlend mode="normal" in="SourceGraphic" in2="effect3_dropShadow_3550_103486" result="shape"/>
</filter>
<filter id="filter1_ddd_3550_103486" x="1" y="0" width="422" height="102" filterUnits="userSpaceOnUse" color-interpolation-filters="sRGB">
<feFlood flood-opacity="0" result="BackgroundImageFix"/>
<feColorMatrix in="SourceAlpha" type="matrix" values="0 0 0 0 0 0 0 0 0 0 0 0 0 0 0 0 0 0 127 0" result="hardAlpha"/>
<feMorphology radius="1" operator="dilate" in="SourceAlpha" result="effect1_dropShadow_3550_103486"/>
<feOffset/>
<feComposite in2="hardAlpha" operator="out"/>
<feColorMatrix type="matrix" values="0 0 0 0 0.0627451 0 0 0 0 0.0980392 0 0 0 0 0.156863 0 0 0 0.05 0"/>
<feBlend mode="normal" in2="BackgroundImageFix" result="effect1_dropShadow_3550_103486"/>
<feColorMatrix in="SourceAlpha" type="matrix" values="0 0 0 0 0 0 0 0 0 0 0 0 0 0 0 0 0 0 127 0" result="hardAlpha"/>
<feOffset dy="2"/>
<feGaussianBlur stdDeviation="3.5"/>
<feComposite in2="hardAlpha" operator="out"/>
<feColorMatrix type="matrix" values="0 0 0 0 0.0627451 0 0 0 0 0.0980392 0 0 0 0 0.156863 0 0 0 0.05 0"/>
<feBlend mode="normal" in2="effect1_dropShadow_3550_103486" result="effect2_dropShadow_3550_103486"/>
<feColorMatrix in="SourceAlpha" type="matrix" values="0 0 0 0 0 0 0 0 0 0 0 0 0 0 0 0 0 0 127 0" result="hardAlpha"/>
<feMorphology radius="2" operator="erode" in="SourceAlpha" result="effect3_dropShadow_3550_103486"/>
<feOffset dy="2"/>
<feGaussianBlur stdDeviation="2.5"/>
<feComposite in2="hardAlpha" operator="out"/>
<feColorMatrix type="matrix" values="0 0 0 0 0.0627451 0 0 0 0 0.0980392 0 0 0 0 0.156863 0 0 0 0.06 0"/>
<feBlend mode="normal" in2="effect2_dropShadow_3550_103486" result="effect3_dropShadow_3550_103486"/>
<feBlend mode="normal" in="SourceGraphic" in2="effect3_dropShadow_3550_103486" result="shape"/>
</filter>
<linearGradient id="paint0_linear_3550_103486" x1="-92.5833" y1="-99.1326" x2="465.89" y2="230.248" gradientUnits="userSpaceOnUse">
<stop stop-color="white"/>
<stop offset="1" stop-color="white" stop-opacity="0"/>
</linearGradient>
<linearGradient id="paint1_linear_3550_103486" x1="-445.333" y1="-292.06" x2="466.643" y2="159.395" gradientUnits="userSpaceOnUse">
<stop stop-color="white"/>
<stop offset="1" stop-color="white" stop-opacity="0"/>
</linearGradient>
<linearGradient id="paint2_linear_3550_103486" x1="-92.5833" y1="-29.1928" x2="85.5279" y2="290.725" gradientUnits="userSpaceOnUse">
<stop stop-color="white"/>
<stop offset="1" stop-color="white" stop-opacity="0"/>
</linearGradient>
<linearGradient id="paint3_linear_3550_103486" x1="-445.333" y1="-92.5422" x2="-98.3981" y2="430.494" gradientUnits="userSpaceOnUse">
<stop stop-color="white"/>
<stop offset="1" stop-color="white" stop-opacity="0"/>
</linearGradient>
</defs>
</svg>
