<svg width="408" height="252" viewBox="0 0 408 252" fill="none" xmlns="http://www.w3.org/2000/svg">
<path d="M0 8C0 3.58172 3.58172 0 8 0H400C404.418 0 408 3.58172 408 8V244C408 248.418 404.418 252 400 252H8C3.58172 252 0 248.418 0 244V8Z" fill="url(#paint0_linear_3550_103443)" fill-opacity="0.1"/>
<path d="M8 0.5H400C404.142 0.5 407.5 3.85787 407.5 8V244C407.5 248.142 404.142 251.5 400 251.5H8C3.85786 251.5 0.5 248.142 0.5 244V8L0.509766 7.61426C0.710536 3.65139 3.98724 0.5 8 0.5Z" stroke="url(#paint1_linear_3550_103443)" stroke-opacity="0.2"/>
<path d="M33.7913 209.98C33.1673 209.22 32.8553 208.16 32.8553 206.8C32.8553 205.44 33.1673 204.38 33.7913 203.62C34.4153 202.86 35.1833 202.48 36.0953 202.48C37.0073 202.48 37.7753 202.86 38.3993 203.62C39.0233 204.38 39.3353 205.44 39.3353 206.8C39.3353 208.16 39.0233 209.22 38.3993 209.98C37.7753 210.74 37.0073 211.12 36.0953 211.12C35.1833 211.12 34.4153 210.74 33.7913 209.98ZM37.7153 204.28C37.2753 203.68 36.7353 203.38 36.0953 203.38C35.4553 203.38 34.9153 203.68 34.4753 204.28C34.0353 204.88 33.8153 205.72 33.8153 206.8C33.8153 207.88 34.0353 208.72 34.4753 209.32C34.9153 209.92 35.4553 210.22 36.0953 210.22C36.7353 210.22 37.2753 209.92 37.7153 209.32C38.1553 208.72 38.3753 207.88 38.3753 206.8C38.3753 205.72 38.1553 204.88 37.7153 204.28Z" fill="white"/>
<path d="M56 207H391" stroke="#E5E5E5" stroke-opacity="0.2"/>
<path d="M23.4334 182V181.22L26.8534 177.56C27.1094 177.28 27.2934 177.032 27.4054 176.816C27.5174 176.592 27.5734 176.32 27.5734 176C27.5734 175.52 27.4214 175.132 27.1174 174.836C26.8214 174.532 26.4334 174.38 25.9534 174.38C25.4974 174.38 25.1134 174.548 24.8014 174.884C24.4894 175.22 24.3334 175.652 24.3334 176.18H23.3734C23.3734 175.396 23.6134 174.752 24.0934 174.248C24.5814 173.736 25.2014 173.48 25.9534 173.48C26.7054 173.48 27.3214 173.716 27.8014 174.188C28.2894 174.652 28.5334 175.256 28.5334 176C28.5334 176.464 28.4494 176.86 28.2814 177.188C28.1134 177.508 27.8574 177.852 27.5134 178.22L24.8134 181.04V181.1H28.7134V182H23.4334ZM30.1553 182V173.6H31.8953L34.4753 180.92H34.7153L37.2953 173.6H39.0353V182H38.0753V174.86H37.8353L35.3153 182H33.8753L31.3553 174.86H31.1153V182H30.1553Z" fill="white"/>
<path d="M56 178H391" stroke="#E5E5E5" stroke-opacity="0.2" stroke-dasharray="4 4"/>
<path d="M22.9548 151.08V150.36L26.2548 144.6H27.8148V150.24H28.8948V151.08H27.8148V153H26.8548V151.08H22.9548ZM24.1548 150.24H26.8548V145.86H26.6148L24.1548 150.18V150.24ZM30.1553 153V144.6H31.8953L34.4753 151.92H34.7153L37.2953 144.6H39.0353V153H38.0753V145.86H37.8353L35.3153 153H33.8753L31.3553 145.86H31.1153V153H30.1553Z" fill="white"/>
<path d="M56 149H391" stroke="#E5E5E5" stroke-opacity="0.2" stroke-dasharray="4 4"/>
<path d="M23.4405 119.68L26.0805 115.6H27.1605L25.1805 118.72H25.2405L25.4685 118.66C25.6285 118.62 25.8125 118.6 26.0205 118.6C26.7805 118.6 27.4205 118.856 27.9405 119.368C28.4605 119.88 28.7205 120.524 28.7205 121.3C28.7205 122.084 28.4405 122.752 27.8805 123.304C27.3285 123.848 26.6485 124.12 25.8405 124.12C25.0325 124.12 24.3485 123.848 23.7885 123.304C23.2365 122.752 22.9605 122.084 22.9605 121.3C22.9605 120.716 23.1205 120.176 23.4405 119.68ZM24.4725 122.668C24.8405 123.036 25.2965 123.22 25.8405 123.22C26.3845 123.22 26.8405 123.036 27.2085 122.668C27.5765 122.292 27.7605 121.836 27.7605 121.3C27.7605 120.764 27.5765 120.312 27.2085 119.944C26.8405 119.568 26.3845 119.38 25.8405 119.38C25.2965 119.38 24.8405 119.568 24.4725 119.944C24.1045 120.312 23.9205 120.764 23.9205 121.3C23.9205 121.836 24.1045 122.292 24.4725 122.668ZM30.1553 124V115.6H31.8953L34.4753 122.92H34.7153L37.2953 115.6H39.0353V124H38.0753V116.86H37.8353L35.3153 124H33.8753L31.3553 116.86H31.1153V124H30.1553Z" fill="white"/>
<path d="M56 120H391" stroke="#E5E5E5" stroke-opacity="0.2" stroke-dasharray="4 4"/>
<path d="M24.4005 90.68V90.62C24.1845 90.5 23.9925 90.356 23.8245 90.188C23.4485 89.812 23.2605 89.356 23.2605 88.82C23.2605 88.156 23.5045 87.6 23.9925 87.152C24.4805 86.704 25.0965 86.48 25.8405 86.48C26.5845 86.48 27.2005 86.704 27.6885 87.152C28.1765 87.6 28.4205 88.156 28.4205 88.82C28.4205 89.348 28.2285 89.804 27.8445 90.188C27.6845 90.348 27.4965 90.492 27.2805 90.62V90.68C27.5045 90.784 27.7245 90.936 27.9405 91.136C28.3805 91.576 28.6005 92.104 28.6005 92.72C28.6005 93.368 28.3405 93.932 27.8205 94.412C27.3085 94.884 26.6485 95.12 25.8405 95.12C25.0245 95.12 24.3605 94.884 23.8485 94.412C23.3365 93.94 23.0805 93.376 23.0805 92.72C23.0805 92.088 23.3005 91.56 23.7405 91.136C23.9405 90.936 24.1605 90.784 24.4005 90.68ZM24.6525 87.8C24.3645 88.072 24.2205 88.412 24.2205 88.82C24.2205 89.228 24.3645 89.572 24.6525 89.852C24.9485 90.124 25.3445 90.26 25.8405 90.26C26.3365 90.26 26.7285 90.124 27.0165 89.852C27.3125 89.572 27.4605 89.228 27.4605 88.82C27.4605 88.412 27.3125 88.072 27.0165 87.8C26.7285 87.52 26.3365 87.38 25.8405 87.38C25.3445 87.38 24.9485 87.52 24.6525 87.8ZM24.5565 91.544C24.2125 91.84 24.0405 92.212 24.0405 92.66C24.0405 93.108 24.2125 93.48 24.5565 93.776C24.9005 94.072 25.3285 94.22 25.8405 94.22C26.3525 94.22 26.7805 94.072 27.1245 93.776C27.4685 93.48 27.6405 93.108 27.6405 92.66C27.6405 92.212 27.4685 91.84 27.1245 91.544C26.7805 91.248 26.3525 91.1 25.8405 91.1C25.3285 91.1 24.9005 91.248 24.5565 91.544ZM30.1553 95V86.6H31.8953L34.4753 93.92H34.7153L37.2953 86.6H39.0353V95H38.0753V87.86H37.8353L35.3153 95H33.8753L31.3553 87.86H31.1153V95H30.1553Z" fill="white"/>
<path d="M56 91H391" stroke="#E5E5E5" stroke-opacity="0.2" stroke-dasharray="4 4"/>
<path d="M19.4711 67V60.4H17.6711V59.56H19.1111C19.3511 59.56 19.4711 59.44 19.4711 59.2V58.6H20.4311V67H19.4711ZM22.9866 65.98C22.3626 65.22 22.0506 64.16 22.0506 62.8C22.0506 61.44 22.3626 60.38 22.9866 59.62C23.6106 58.86 24.3786 58.48 25.2906 58.48C26.2026 58.48 26.9706 58.86 27.5946 59.62C28.2186 60.38 28.5306 61.44 28.5306 62.8C28.5306 64.16 28.2186 65.22 27.5946 65.98C26.9706 66.74 26.2026 67.12 25.2906 67.12C24.3786 67.12 23.6106 66.74 22.9866 65.98ZM26.9106 60.28C26.4706 59.68 25.9306 59.38 25.2906 59.38C24.6506 59.38 24.1106 59.68 23.6706 60.28C23.2306 60.88 23.0106 61.72 23.0106 62.8C23.0106 63.88 23.2306 64.72 23.6706 65.32C24.1106 65.92 24.6506 66.22 25.2906 66.22C25.9306 66.22 26.4706 65.92 26.9106 65.32C27.3506 64.72 27.5706 63.88 27.5706 62.8C27.5706 61.72 27.3506 60.88 26.9106 60.28ZM30.1553 67V58.6H31.8953L34.4753 65.92H34.7153L37.2953 58.6H39.0353V67H38.0753V59.86H37.8353L35.3153 67H33.8753L31.3553 59.86H31.1153V67H30.1553Z" fill="white"/>
<path d="M56 63H391" stroke="#E5E5E5" stroke-opacity="0.2" stroke-dasharray="4 4"/>
<circle cx="253" cy="30" r="4" fill="#FF0000"/>
<path d="M265.63 32.13H266.75C266.75 32.6807 266.979 33.1473 267.436 33.53C267.903 33.9033 268.537 34.09 269.34 34.09C270.161 34.09 270.773 33.9313 271.174 33.614C271.585 33.2873 271.79 32.8627 271.79 32.34C271.79 31.4813 271.23 30.9447 270.11 30.73L268.22 30.38C266.633 30.0813 265.84 29.2413 265.84 27.86C265.84 27.0387 266.143 26.3667 266.75 25.844C267.357 25.3213 268.173 25.06 269.2 25.06C270.292 25.06 271.169 25.3493 271.832 25.928C272.504 26.4973 272.84 27.2113 272.84 28.07H271.72C271.72 27.5193 271.491 27.0573 271.034 26.684C270.586 26.3013 269.975 26.11 269.2 26.11C268.491 26.11 267.94 26.2733 267.548 26.6C267.156 26.9267 266.96 27.3467 266.96 27.86C266.96 28.6813 267.497 29.1947 268.57 29.4L270.11 29.68C271.081 29.8573 271.79 30.1607 272.238 30.59C272.686 31.0193 272.91 31.6027 272.91 32.34C272.91 33.1707 272.597 33.8473 271.972 34.37C271.347 34.8833 270.469 35.14 269.34 35.14C268.22 35.14 267.319 34.8507 266.638 34.272C265.966 33.684 265.63 32.97 265.63 32.13ZM279.143 35L279.003 34.16H278.933C278.803 34.3467 278.635 34.51 278.429 34.65C278 34.9767 277.445 35.14 276.763 35.14C276.035 35.14 275.443 34.9393 274.985 34.538C274.537 34.1367 274.313 33.614 274.313 32.97C274.313 32.27 274.542 31.724 274.999 31.332C275.466 30.9307 276.171 30.73 277.113 30.73H279.003V30.52C279.003 29.988 278.854 29.5773 278.555 29.288C278.266 28.9893 277.855 28.84 277.323 28.84C276.819 28.84 276.409 28.9567 276.091 29.19C275.783 29.414 275.611 29.694 275.573 30.03H274.523C274.561 29.4327 274.827 28.924 275.321 28.504C275.825 28.0747 276.493 27.86 277.323 27.86C278.173 27.86 278.84 28.0933 279.325 28.56C279.811 29.0267 280.053 29.68 280.053 30.52V35H279.143ZM279.003 31.99V31.71H277.113C276.516 31.71 276.073 31.8267 275.783 32.06C275.503 32.2933 275.363 32.5967 275.363 32.97C275.363 33.334 275.485 33.6233 275.727 33.838C275.97 34.0527 276.315 34.16 276.763 34.16C277.463 34.16 278.009 33.9687 278.401 33.586C278.803 33.194 279.003 32.662 279.003 31.99ZM282.087 35V25.2H283.137V35H282.087ZM289.992 33.04H291.112C290.869 33.712 290.486 34.23 289.964 34.594C289.45 34.958 288.83 35.14 288.102 35.14C287.14 35.14 286.338 34.804 285.694 34.132C285.059 33.4507 284.742 32.5733 284.742 31.5C284.742 30.4267 285.059 29.554 285.694 28.882C286.338 28.2007 287.14 27.86 288.102 27.86C289.026 27.86 289.791 28.1773 290.398 28.812C291.014 29.4467 291.322 30.2493 291.322 31.22C291.322 31.3693 291.308 31.57 291.28 31.822L291.252 31.99H285.792C285.866 32.6433 286.118 33.1707 286.548 33.572C286.986 33.964 287.504 34.16 288.102 34.16C288.522 34.16 288.895 34.062 289.222 33.866C289.558 33.67 289.814 33.3947 289.992 33.04ZM285.792 31.01H290.272C290.234 30.3753 290.01 29.8573 289.6 29.456C289.198 29.0453 288.699 28.84 288.102 28.84C287.476 28.84 286.954 29.0407 286.534 29.442C286.114 29.8433 285.866 30.366 285.792 31.01ZM292.299 32.97H293.349C293.349 33.2967 293.503 33.5767 293.811 33.81C294.128 34.0433 294.558 34.16 295.099 34.16C295.631 34.16 296.042 34.062 296.331 33.866C296.63 33.6607 296.779 33.4087 296.779 33.11C296.779 32.5593 296.382 32.2093 295.589 32.06L294.399 31.85C293.092 31.6353 292.439 30.982 292.439 29.89C292.439 29.302 292.663 28.8167 293.111 28.434C293.559 28.0513 294.198 27.86 295.029 27.86C295.841 27.86 296.499 28.0747 297.003 28.504C297.507 28.9333 297.759 29.442 297.759 30.03H296.709C296.709 29.7033 296.555 29.4233 296.247 29.19C295.948 28.9567 295.542 28.84 295.029 28.84C294.525 28.84 294.142 28.9427 293.881 29.148C293.62 29.344 293.489 29.5913 293.489 29.89C293.489 30.4033 293.862 30.73 294.609 30.87L295.799 31.08C296.499 31.2107 297.012 31.444 297.339 31.78C297.666 32.1067 297.829 32.55 297.829 33.11C297.829 33.698 297.591 34.1833 297.115 34.566C296.648 34.9487 295.976 35.14 295.099 35.14C294.259 35.14 293.582 34.9253 293.069 34.496C292.556 34.0667 292.299 33.558 292.299 32.97Z" fill="white"/>
<circle cx="316" cy="30" r="4" fill="#16BA84"/>
<path d="M336.54 31.78H337.73C337.45 32.816 336.918 33.6373 336.134 34.244C335.359 34.8413 334.445 35.14 333.39 35.14C332.074 35.14 330.963 34.6687 330.058 33.726C329.153 32.7833 328.7 31.5747 328.7 30.1C328.7 28.6253 329.153 27.4167 330.058 26.474C330.963 25.5313 332.074 25.06 333.39 25.06C334.435 25.06 335.35 25.3587 336.134 25.956C336.918 26.544 337.45 27.342 337.73 28.35H336.54C336.297 27.65 335.896 27.104 335.336 26.712C334.776 26.3107 334.127 26.11 333.39 26.11C332.391 26.11 331.547 26.4833 330.856 27.23C330.165 27.9673 329.82 28.924 329.82 30.1C329.82 31.276 330.165 32.2373 330.856 32.984C331.547 33.7213 332.391 34.09 333.39 34.09C334.127 34.09 334.776 33.8893 335.336 33.488C335.896 33.0773 336.297 32.508 336.54 31.78ZM344.541 34.132C343.906 34.804 343.108 35.14 342.147 35.14C341.185 35.14 340.383 34.804 339.739 34.132C339.104 33.4507 338.787 32.5733 338.787 31.5C338.787 30.4267 339.104 29.554 339.739 28.882C340.383 28.2007 341.185 27.86 342.147 27.86C343.108 27.86 343.906 28.2007 344.541 28.882C345.185 29.554 345.507 30.4267 345.507 31.5C345.507 32.5733 345.185 33.4507 344.541 34.132ZM340.495 33.418C340.943 33.9127 341.493 34.16 342.147 34.16C342.8 34.16 343.346 33.9127 343.785 33.418C344.233 32.9233 344.457 32.284 344.457 31.5C344.457 30.716 344.233 30.0767 343.785 29.582C343.346 29.0873 342.8 28.84 342.147 28.84C341.493 28.84 340.943 29.0873 340.495 29.582C340.056 30.0767 339.837 30.716 339.837 31.5C339.837 32.284 340.056 32.9233 340.495 33.418ZM347.111 35V25.2H348.161V35H347.111ZM350.255 35V25.2H351.305V35H350.255ZM358.16 33.04H359.28C359.037 33.712 358.654 34.23 358.132 34.594C357.618 34.958 356.998 35.14 356.27 35.14C355.308 35.14 354.506 34.804 353.862 34.132C353.227 33.4507 352.91 32.5733 352.91 31.5C352.91 30.4267 353.227 29.554 353.862 28.882C354.506 28.2007 355.308 27.86 356.27 27.86C357.194 27.86 357.959 28.1773 358.566 28.812C359.182 29.4467 359.49 30.2493 359.49 31.22C359.49 31.3693 359.476 31.57 359.448 31.822L359.42 31.99H353.96C354.034 32.6433 354.286 33.1707 354.716 33.572C355.154 33.964 355.672 34.16 356.27 34.16C356.69 34.16 357.063 34.062 357.39 33.866C357.726 33.67 357.982 33.3947 358.16 33.04ZM353.96 31.01H358.44C358.402 30.3753 358.178 29.8573 357.768 29.456C357.366 29.0453 356.867 28.84 356.27 28.84C355.644 28.84 355.122 29.0407 354.702 29.442C354.282 29.8433 354.034 30.366 353.96 31.01ZM365.997 32.69H367.047C366.87 33.4647 366.506 34.0667 365.955 34.496C365.414 34.9253 364.751 35.14 363.967 35.14C363.006 35.14 362.203 34.804 361.559 34.132C360.924 33.4507 360.607 32.5733 360.607 31.5C360.607 30.4267 360.924 29.554 361.559 28.882C362.203 28.2007 363.006 27.86 363.967 27.86C364.742 27.86 365.404 28.0747 365.955 28.504C366.506 28.924 366.87 29.5027 367.047 30.24H365.997C365.857 29.792 365.61 29.4467 365.255 29.204C364.9 28.9613 364.471 28.84 363.967 28.84C363.314 28.84 362.763 29.0873 362.315 29.582C361.876 30.0767 361.657 30.716 361.657 31.5C361.657 32.284 361.876 32.9233 362.315 33.418C362.763 33.9127 363.314 34.16 363.967 34.16C365.04 34.16 365.717 33.67 365.997 32.69ZM368.941 33.81V28.98H367.821V28H368.941V26.04H369.991V28H371.601V28.98H369.991V33.6C369.991 33.88 370.131 34.02 370.411 34.02H371.601V35H370.201C369.809 35 369.501 34.8927 369.277 34.678C369.053 34.4633 368.941 34.174 368.941 33.81ZM373.279 35V28H374.329V35H373.279ZM373.209 26.53V25.34H374.399V26.53H373.209ZM381.687 34.132C381.052 34.804 380.254 35.14 379.293 35.14C378.332 35.14 377.529 34.804 376.885 34.132C376.25 33.4507 375.933 32.5733 375.933 31.5C375.933 30.4267 376.25 29.554 376.885 28.882C377.529 28.2007 378.332 27.86 379.293 27.86C380.254 27.86 381.052 28.2007 381.687 28.882C382.331 29.554 382.653 30.4267 382.653 31.5C382.653 32.5733 382.331 33.4507 381.687 34.132ZM377.641 33.418C378.089 33.9127 378.64 34.16 379.293 34.16C379.946 34.16 380.492 33.9127 380.931 33.418C381.379 32.9233 381.603 32.284 381.603 31.5C381.603 30.716 381.379 30.0767 380.931 29.582C380.492 29.0873 379.946 28.84 379.293 28.84C378.64 28.84 378.089 29.0873 377.641 29.582C377.202 30.0767 376.983 30.716 376.983 31.5C376.983 32.284 377.202 32.9233 377.641 33.418ZM384.187 35V28H385.097L385.237 28.77H385.307C385.456 28.5833 385.629 28.434 385.825 28.322C386.31 28.014 386.838 27.86 387.407 27.86C388.219 27.86 388.886 28.1353 389.409 28.686C389.941 29.2273 390.207 29.932 390.207 30.8V35H389.157V30.8C389.157 30.24 388.975 29.7733 388.611 29.4C388.247 29.0267 387.799 28.84 387.267 28.84C386.707 28.84 386.226 29.036 385.825 29.428C385.433 29.8107 385.237 30.268 385.237 30.8V35H384.187Z" fill="white"/>
<path d="M50.919 230V221.6H52.539L56.319 228.86H56.559V221.6H57.519V230H55.899L52.119 222.74H51.879V230H50.919ZM63.8905 229.256C63.3465 229.832 62.6625 230.12 61.8385 230.12C61.0145 230.12 60.3265 229.832 59.7745 229.256C59.2305 228.672 58.9585 227.92 58.9585 227C58.9585 226.08 59.2305 225.332 59.7745 224.756C60.3265 224.172 61.0145 223.88 61.8385 223.88C62.6625 223.88 63.3465 224.172 63.8905 224.756C64.4425 225.332 64.7185 226.08 64.7185 227C64.7185 227.92 64.4425 228.672 63.8905 229.256ZM60.4225 228.644C60.8065 229.068 61.2785 229.28 61.8385 229.28C62.3985 229.28 62.8665 229.068 63.2425 228.644C63.6265 228.22 63.8185 227.672 63.8185 227C63.8185 226.328 63.6265 225.78 63.2425 225.356C62.8665 224.932 62.3985 224.72 61.8385 224.72C61.2785 224.72 60.8065 224.932 60.4225 225.356C60.0465 225.78 59.8585 226.328 59.8585 227C59.8585 227.672 60.0465 228.22 60.4225 228.644ZM67.3562 230L65.1962 224H66.1562L67.9562 229.04H68.1962L69.9962 224H70.9562L68.7962 230H67.3562ZM74.1385 230V229.22L77.5585 225.56C77.8145 225.28 77.9985 225.032 78.1105 224.816C78.2225 224.592 78.2785 224.32 78.2785 224C78.2785 223.52 78.1265 223.132 77.8225 222.836C77.5265 222.532 77.1385 222.38 76.6585 222.38C76.2025 222.38 75.8185 222.548 75.5065 222.884C75.1945 223.22 75.0385 223.652 75.0385 224.18H74.0785C74.0785 223.396 74.3185 222.752 74.7985 222.248C75.2865 221.736 75.9065 221.48 76.6585 221.48C77.4105 221.48 78.0265 221.716 78.5065 222.188C78.9945 222.652 79.2385 223.256 79.2385 224C79.2385 224.464 79.1545 224.86 78.9865 225.188C78.8185 225.508 78.5625 225.852 78.2185 226.22L75.5185 229.04V229.1H79.4185V230H74.1385ZM79.7771 228.08V227.36L83.0771 221.6H84.6371V227.24H85.7171V228.08H84.6371V230H83.6771V228.08H79.7771ZM80.9771 227.24H83.6771V222.86H83.4371L80.9771 227.18V227.24Z" fill="white"/>
<path d="M111.73 230V221.6H114.55C115.718 221.6 116.678 221.996 117.43 222.788C118.19 223.572 118.57 224.576 118.57 225.8C118.57 227.024 118.19 228.032 117.43 228.824C116.678 229.608 115.718 230 114.55 230H111.73ZM112.69 229.1H114.55C115.43 229.1 116.158 228.796 116.734 228.188C117.318 227.572 117.61 226.776 117.61 225.8C117.61 224.824 117.318 224.032 116.734 223.424C116.158 222.808 115.43 222.5 114.55 222.5H112.69V229.1ZM124.152 228.32H125.112C124.904 228.896 124.576 229.34 124.128 229.652C123.688 229.964 123.156 230.12 122.532 230.12C121.708 230.12 121.02 229.832 120.468 229.256C119.924 228.672 119.652 227.92 119.652 227C119.652 226.08 119.924 225.332 120.468 224.756C121.02 224.172 121.708 223.88 122.532 223.88C123.324 223.88 123.98 224.152 124.5 224.696C125.028 225.24 125.292 225.928 125.292 226.76C125.292 226.888 125.28 227.06 125.256 227.276L125.232 227.42H120.552C120.616 227.98 120.832 228.432 121.2 228.776C121.576 229.112 122.02 229.28 122.532 229.28C122.892 229.28 123.212 229.196 123.492 229.028C123.78 228.86 124 228.624 124.152 228.32ZM120.552 226.58H124.392C124.36 226.036 124.168 225.592 123.816 225.248C123.472 224.896 123.044 224.72 122.532 224.72C121.996 224.72 121.548 224.892 121.188 225.236C120.828 225.58 120.616 226.028 120.552 226.58ZM130.87 228.02H131.77C131.618 228.684 131.306 229.2 130.834 229.568C130.37 229.936 129.802 230.12 129.13 230.12C128.306 230.12 127.618 229.832 127.066 229.256C126.522 228.672 126.25 227.92 126.25 227C126.25 226.08 126.522 225.332 127.066 224.756C127.618 224.172 128.306 223.88 129.13 223.88C129.794 223.88 130.362 224.064 130.834 224.432C131.306 224.792 131.618 225.288 131.77 225.92H130.87C130.75 225.536 130.538 225.24 130.234 225.032C129.93 224.824 129.562 224.72 129.13 224.72C128.57 224.72 128.098 224.932 127.714 225.356C127.338 225.78 127.15 226.328 127.15 227C127.15 227.672 127.338 228.22 127.714 228.644C128.098 229.068 128.57 229.28 129.13 229.28C130.05 229.28 130.63 228.86 130.87 228.02ZM135.558 230V229.22L138.978 225.56C139.234 225.28 139.418 225.032 139.53 224.816C139.642 224.592 139.698 224.32 139.698 224C139.698 223.52 139.546 223.132 139.242 222.836C138.946 222.532 138.558 222.38 138.078 222.38C137.622 222.38 137.238 222.548 136.926 222.884C136.614 223.22 136.458 223.652 136.458 224.18H135.498C135.498 223.396 135.738 222.752 136.218 222.248C136.706 221.736 137.326 221.48 138.078 221.48C138.83 221.48 139.446 221.716 139.926 222.188C140.414 222.652 140.658 223.256 140.658 224C140.658 224.464 140.574 224.86 140.406 225.188C140.238 225.508 139.982 225.852 139.638 226.22L136.938 229.04V229.1H140.838V230H135.558ZM141.197 228.08V227.36L144.497 221.6H146.057V227.24H147.137V228.08H146.057V230H145.097V228.08H141.197ZM142.397 227.24H145.097V222.86H144.857L142.397 227.18V227.24Z" fill="white"/>
<path d="M172.968 230V229.1H175.008C175.192 229.1 175.336 229.048 175.44 228.944C175.552 228.832 175.608 228.684 175.608 228.5V221.6H176.568V228.62C176.568 229.052 176.444 229.392 176.196 229.64C175.956 229.88 175.6 230 175.128 230H172.968ZM182.205 230L182.085 229.28H182.025C181.913 229.44 181.769 229.58 181.593 229.7C181.225 229.98 180.749 230.12 180.165 230.12C179.541 230.12 179.033 229.948 178.641 229.604C178.257 229.26 178.065 228.812 178.065 228.26C178.065 227.66 178.261 227.192 178.653 226.856C179.053 226.512 179.657 226.34 180.465 226.34H182.085V226.16C182.085 225.704 181.957 225.352 181.701 225.104C181.453 224.848 181.101 224.72 180.645 224.72C180.213 224.72 179.861 224.82 179.589 225.02C179.325 225.212 179.177 225.452 179.145 225.74H178.245C178.277 225.228 178.505 224.792 178.929 224.432C179.361 224.064 179.933 223.88 180.645 223.88C181.373 223.88 181.945 224.08 182.361 224.48C182.777 224.88 182.985 225.44 182.985 226.16V230H182.205ZM182.085 227.42V227.18H180.465C179.953 227.18 179.573 227.28 179.325 227.48C179.085 227.68 178.965 227.94 178.965 228.26C178.965 228.572 179.069 228.82 179.277 229.004C179.485 229.188 179.781 229.28 180.165 229.28C180.765 229.28 181.233 229.116 181.569 228.788C181.913 228.452 182.085 227.996 182.085 227.42ZM184.668 230V224H185.448L185.568 224.66H185.628C185.756 224.5 185.904 224.372 186.072 224.276C186.488 224.012 186.94 223.88 187.428 223.88C188.124 223.88 188.696 224.116 189.144 224.588C189.6 225.052 189.828 225.656 189.828 226.4V230H188.928V226.4C188.928 225.92 188.772 225.52 188.46 225.2C188.148 224.88 187.764 224.72 187.308 224.72C186.828 224.72 186.416 224.888 186.072 225.224C185.736 225.552 185.568 225.944 185.568 226.4V230H184.668ZM194.098 230V229.22L197.518 225.56C197.774 225.28 197.958 225.032 198.07 224.816C198.182 224.592 198.238 224.32 198.238 224C198.238 223.52 198.086 223.132 197.782 222.836C197.486 222.532 197.098 222.38 196.618 222.38C196.162 222.38 195.778 222.548 195.466 222.884C195.154 223.22 194.998 223.652 194.998 224.18H194.038C194.038 223.396 194.278 222.752 194.758 222.248C195.246 221.736 195.866 221.48 196.618 221.48C197.37 221.48 197.986 221.716 198.466 222.188C198.954 222.652 199.198 223.256 199.198 224C199.198 224.464 199.114 224.86 198.946 225.188C198.778 225.508 198.522 225.852 198.178 226.22L195.478 229.04V229.1H199.378V230H194.098ZM200.399 227.78H201.359C201.447 228.228 201.651 228.58 201.971 228.836C202.299 229.092 202.695 229.22 203.159 229.22C203.703 229.22 204.159 229.036 204.527 228.668C204.895 228.292 205.079 227.824 205.079 227.264C205.079 226.688 204.907 226.22 204.563 225.86C204.219 225.5 203.771 225.32 203.219 225.32C202.515 225.32 201.975 225.56 201.599 226.04H200.579L201.059 221.6H205.559V222.5H201.863L201.599 224.96H201.659C202.067 224.6 202.627 224.42 203.339 224.42C204.075 224.42 204.707 224.696 205.235 225.248C205.771 225.792 206.039 226.464 206.039 227.264C206.039 228.096 205.767 228.78 205.223 229.316C204.687 229.852 203.999 230.12 203.159 230.12C202.439 230.12 201.823 229.912 201.311 229.496C200.799 229.08 200.495 228.508 200.399 227.78Z" fill="white"/>
<path d="M233.403 230V221.6H238.683V222.5H234.363V225.32H238.443V226.22H234.363V230H233.403ZM243.728 228.32H244.688C244.48 228.896 244.152 229.34 243.704 229.652C243.264 229.964 242.732 230.12 242.108 230.12C241.284 230.12 240.596 229.832 240.044 229.256C239.5 228.672 239.228 227.92 239.228 227C239.228 226.08 239.5 225.332 240.044 224.756C240.596 224.172 241.284 223.88 242.108 223.88C242.9 223.88 243.556 224.152 244.076 224.696C244.604 225.24 244.868 225.928 244.868 226.76C244.868 226.888 244.856 227.06 244.832 227.276L244.808 227.42H240.128C240.192 227.98 240.408 228.432 240.776 228.776C241.152 229.112 241.596 229.28 242.108 229.28C242.468 229.28 242.788 229.196 243.068 229.028C243.356 228.86 243.576 228.624 243.728 228.32ZM240.128 226.58H243.968C243.936 226.036 243.744 225.592 243.392 225.248C243.048 224.896 242.62 224.72 242.108 224.72C241.572 224.72 241.124 224.892 240.764 225.236C240.404 225.58 240.192 226.028 240.128 226.58ZM246.246 230V221.6H247.146V224.84H247.206C247.71 224.2 248.35 223.88 249.126 223.88C249.918 223.88 250.574 224.172 251.094 224.756C251.622 225.332 251.886 226.08 251.886 227C251.886 227.92 251.622 228.672 251.094 229.256C250.574 229.832 249.918 230.12 249.126 230.12C248.35 230.12 247.71 229.8 247.206 229.16H247.146L247.026 230H246.246ZM247.71 228.644C248.086 229.068 248.538 229.28 249.066 229.28C249.594 229.28 250.046 229.068 250.422 228.644C250.798 228.22 250.986 227.672 250.986 227C250.986 226.328 250.798 225.78 250.422 225.356C250.046 224.932 249.594 224.72 249.066 224.72C248.538 224.72 248.086 224.932 247.71 225.356C247.334 225.78 247.146 226.328 247.146 227C247.146 227.672 247.334 228.22 247.71 228.644ZM255.791 230V229.22L259.211 225.56C259.467 225.28 259.651 225.032 259.763 224.816C259.875 224.592 259.931 224.32 259.931 224C259.931 223.52 259.779 223.132 259.475 222.836C259.179 222.532 258.791 222.38 258.311 222.38C257.855 222.38 257.471 222.548 257.159 222.884C256.847 223.22 256.691 223.652 256.691 224.18H255.731C255.731 223.396 255.971 222.752 256.451 222.248C256.939 221.736 257.559 221.48 258.311 221.48C259.063 221.48 259.679 221.716 260.159 222.188C260.647 222.652 260.891 223.256 260.891 224C260.891 224.464 260.807 224.86 260.639 225.188C260.471 225.508 260.215 225.852 259.871 226.22L257.171 229.04V229.1H261.071V230H255.791ZM262.093 227.78H263.053C263.141 228.228 263.345 228.58 263.665 228.836C263.993 229.092 264.389 229.22 264.853 229.22C265.397 229.22 265.853 229.036 266.221 228.668C266.589 228.292 266.773 227.824 266.773 227.264C266.773 226.688 266.601 226.22 266.257 225.86C265.913 225.5 265.465 225.32 264.913 225.32C264.209 225.32 263.669 225.56 263.293 226.04H262.273L262.753 221.6H267.253V222.5H263.557L263.293 224.96H263.353C263.761 224.6 264.321 224.42 265.033 224.42C265.769 224.42 266.401 224.696 266.929 225.248C267.465 225.792 267.733 226.464 267.733 227.264C267.733 228.096 267.461 228.78 266.917 229.316C266.381 229.852 265.693 230.12 264.853 230.12C264.133 230.12 263.517 229.912 263.005 229.496C262.493 229.08 262.189 228.508 262.093 227.78Z" fill="white"/>
<path d="M293.567 230V221.6H295.307L297.887 228.92H298.127L300.707 221.6H302.447V230H301.487V222.86H301.247L298.727 230H297.287L294.767 222.86H294.527V230H293.567ZM308.152 230L308.032 229.28H307.972C307.86 229.44 307.716 229.58 307.54 229.7C307.172 229.98 306.696 230.12 306.112 230.12C305.488 230.12 304.98 229.948 304.588 229.604C304.204 229.26 304.012 228.812 304.012 228.26C304.012 227.66 304.208 227.192 304.6 226.856C305 226.512 305.604 226.34 306.412 226.34H308.032V226.16C308.032 225.704 307.904 225.352 307.648 225.104C307.4 224.848 307.048 224.72 306.592 224.72C306.16 224.72 305.808 224.82 305.536 225.02C305.272 225.212 305.124 225.452 305.092 225.74H304.192C304.224 225.228 304.452 224.792 304.876 224.432C305.308 224.064 305.88 223.88 306.592 223.88C307.32 223.88 307.892 224.08 308.308 224.48C308.724 224.88 308.932 225.44 308.932 226.16V230H308.152ZM308.032 227.42V227.18H306.412C305.9 227.18 305.52 227.28 305.272 227.48C305.032 227.68 304.912 227.94 304.912 228.26C304.912 228.572 305.016 228.82 305.224 229.004C305.432 229.188 305.728 229.28 306.112 229.28C306.712 229.28 307.18 229.116 307.516 228.788C307.86 228.452 308.032 227.996 308.032 227.42ZM310.615 230V224H311.395L311.515 224.6H311.575C311.719 224.392 311.867 224.24 312.019 224.144C312.179 224.048 312.411 224 312.715 224H313.735V224.84H312.835C312.411 224.84 312.083 224.956 311.851 225.188C311.627 225.412 311.515 225.736 311.515 226.16V230H310.615ZM316.916 230V229.22L320.336 225.56C320.592 225.28 320.776 225.032 320.888 224.816C321 224.592 321.056 224.32 321.056 224C321.056 223.52 320.904 223.132 320.6 222.836C320.304 222.532 319.916 222.38 319.436 222.38C318.98 222.38 318.596 222.548 318.284 222.884C317.972 223.22 317.816 223.652 317.816 224.18H316.856C316.856 223.396 317.096 222.752 317.576 222.248C318.064 221.736 318.684 221.48 319.436 221.48C320.188 221.48 320.804 221.716 321.284 222.188C321.772 222.652 322.016 223.256 322.016 224C322.016 224.464 321.932 224.86 321.764 225.188C321.596 225.508 321.34 225.852 320.996 226.22L318.296 229.04V229.1H322.196V230H316.916ZM323.218 227.78H324.178C324.266 228.228 324.47 228.58 324.79 228.836C325.118 229.092 325.514 229.22 325.978 229.22C326.522 229.22 326.978 229.036 327.346 228.668C327.714 228.292 327.898 227.824 327.898 227.264C327.898 226.688 327.726 226.22 327.382 225.86C327.038 225.5 326.59 225.32 326.038 225.32C325.334 225.32 324.794 225.56 324.418 226.04H323.398L323.878 221.6H328.378V222.5H324.682L324.418 224.96H324.478C324.886 224.6 325.446 224.42 326.158 224.42C326.894 224.42 327.526 224.696 328.054 225.248C328.59 225.792 328.858 226.464 328.858 227.264C328.858 228.096 328.586 228.78 328.042 229.316C327.506 229.852 326.818 230.12 325.978 230.12C325.258 230.12 324.642 229.912 324.13 229.496C323.618 229.08 323.314 228.508 323.218 227.78Z" fill="white"/>
<path d="M354.451 230L357.631 221.6H359.071L362.251 230H361.231L360.451 227.84H356.251L355.471 230H354.451ZM356.611 226.94H360.091L358.471 222.62H358.231L356.611 226.94ZM363.096 232.4V224H363.876L363.996 224.84H364.056C364.56 224.2 365.2 223.88 365.976 223.88C366.768 223.88 367.424 224.172 367.944 224.756C368.472 225.332 368.736 226.08 368.736 227C368.736 227.92 368.472 228.672 367.944 229.256C367.424 229.832 366.768 230.12 365.976 230.12C365.2 230.12 364.56 229.8 364.056 229.16H363.996V232.4H363.096ZM364.56 228.644C364.936 229.068 365.388 229.28 365.916 229.28C366.444 229.28 366.896 229.068 367.272 228.644C367.648 228.22 367.836 227.672 367.836 227C367.836 226.328 367.648 225.78 367.272 225.356C366.896 224.932 366.444 224.72 365.916 224.72C365.388 224.72 364.936 224.932 364.56 225.356C364.184 225.78 363.996 226.328 363.996 227C363.996 227.672 364.184 228.22 364.56 228.644ZM370.057 230V224H370.837L370.957 224.6H371.017C371.161 224.392 371.309 224.24 371.461 224.144C371.621 224.048 371.853 224 372.157 224H373.177V224.84H372.277C371.853 224.84 371.525 224.956 371.293 225.188C371.069 225.412 370.957 225.736 370.957 226.16V230H370.057ZM376.357 230V229.22L379.777 225.56C380.033 225.28 380.217 225.032 380.329 224.816C380.441 224.592 380.497 224.32 380.497 224C380.497 223.52 380.345 223.132 380.041 222.836C379.745 222.532 379.357 222.38 378.877 222.38C378.421 222.38 378.037 222.548 377.725 222.884C377.413 223.22 377.257 223.652 377.257 224.18H376.297C376.297 223.396 376.537 222.752 377.017 222.248C377.505 221.736 378.125 221.48 378.877 221.48C379.629 221.48 380.245 221.716 380.725 222.188C381.213 222.652 381.457 223.256 381.457 224C381.457 224.464 381.373 224.86 381.205 225.188C381.037 225.508 380.781 225.852 380.437 226.22L377.737 229.04V229.1H381.637V230H376.357ZM382.659 227.78H383.619C383.707 228.228 383.911 228.58 384.231 228.836C384.559 229.092 384.955 229.22 385.419 229.22C385.963 229.22 386.419 229.036 386.787 228.668C387.155 228.292 387.339 227.824 387.339 227.264C387.339 226.688 387.167 226.22 386.823 225.86C386.479 225.5 386.031 225.32 385.479 225.32C384.775 225.32 384.235 225.56 383.859 226.04H382.839L383.319 221.6H387.819V222.5H384.123L383.859 224.96H383.919C384.327 224.6 384.887 224.42 385.599 224.42C386.335 224.42 386.967 224.696 387.495 225.248C388.031 225.792 388.299 226.464 388.299 227.264C388.299 228.096 388.027 228.78 387.483 229.316C386.947 229.852 386.259 230.12 385.419 230.12C384.699 230.12 384.083 229.912 383.571 229.496C383.059 229.08 382.755 228.508 382.659 227.78Z" fill="white"/>
<path d="M63.5742 201.837L91.7906 160.69L120.335 178.83L148.88 122.211L176.768 187.733L205.312 185.383L233.857 99.1914L262.073 160.69L290.29 118.979L318.506 191.589L347.05 116.004L375.267 141.665" stroke="#16BA84" stroke-width="2" stroke-linejoin="round"/>
<path d="M375.268 201.838L347.051 143.854L318.507 156.194L289.962 107.42L262.074 170.298L233.529 125.343L204.985 119.76L176.769 167.653L148.552 92.7285L120.336 191.59L91.7914 116.005L63.575 141.666" stroke="#FF0000" stroke-width="2" stroke-linejoin="round"/>
<path d="M16.56 32.48H18.64C18.64 32.9813 18.864 33.4027 19.312 33.744C19.7707 34.0747 20.3733 34.24 21.12 34.24C21.8773 34.24 22.4373 34.112 22.8 33.856C23.1733 33.5893 23.36 33.2373 23.36 32.8C23.36 32.0533 22.7467 31.5733 21.52 31.36L19.6 31.04C17.7333 30.7307 16.8 29.7173 16.8 28C16.8 27.04 17.1733 26.24 17.92 25.6C18.6667 24.96 19.68 24.64 20.96 24.64C22.3467 24.64 23.4133 24.9813 24.16 25.664C24.9067 26.3467 25.28 27.232 25.28 28.32H23.2C23.2 27.8187 23.0027 27.4027 22.608 27.072C22.2133 26.7307 21.664 26.56 20.96 26.56C20.2667 26.56 19.744 26.6933 19.392 26.96C19.0507 27.216 18.88 27.5627 18.88 28C18.88 28.3413 18.992 28.6187 19.216 28.832C19.44 29.0347 19.8347 29.184 20.4 29.28L22.16 29.6C23.3013 29.8027 24.1333 30.16 24.656 30.672C25.1787 31.1733 25.44 31.8827 25.44 32.8C25.44 33.8027 25.0667 34.6133 24.32 35.232C23.5733 35.8507 22.5067 36.16 21.12 36.16C19.712 36.16 18.5973 35.8187 17.776 35.136C16.9653 34.4427 16.56 33.5573 16.56 32.48ZM32.4763 36L32.3163 35.2H32.2362C32.0976 35.3707 31.9109 35.5307 31.6762 35.68C31.1642 36 30.5776 36.16 29.9162 36.16C29.0202 36.16 28.3002 35.92 27.7562 35.44C27.2229 34.96 26.9562 34.3733 26.9562 33.68C26.9562 32.848 27.2442 32.1867 27.8202 31.696C28.3962 31.2053 29.2282 30.96 30.3162 30.96H32.1562V30.8C32.1562 30.3413 32.0229 29.9733 31.7562 29.696C31.5003 29.4187 31.1536 29.28 30.7162 29.28C30.3003 29.28 29.9643 29.3867 29.7083 29.6C29.4629 29.8133 29.3189 30.0533 29.2762 30.32H27.2762C27.3722 29.584 27.7136 28.96 28.3002 28.448C28.8869 27.936 29.6922 27.68 30.7162 27.68C31.7403 27.68 32.5669 27.9787 33.1962 28.576C33.8362 29.1733 34.1562 29.9147 34.1562 30.8V36H32.4763ZM32.1562 32.72V32.48H30.4763C29.4629 32.48 28.9562 32.8267 28.9562 33.52C28.9562 33.84 29.0682 34.096 29.2922 34.288C29.5163 34.4693 29.8309 34.56 30.2362 34.56C30.8443 34.56 31.3136 34.4 31.6442 34.08C31.9856 33.7493 32.1562 33.296 32.1562 32.72ZM36.3931 36V24.8H38.3931V36H36.3931ZM42.3075 31.2H46.4675C46.3715 30.656 46.1475 30.2133 45.7955 29.872C45.4542 29.5307 45.0115 29.36 44.4675 29.36C43.8915 29.36 43.4168 29.5307 43.0435 29.872C42.6808 30.2027 42.4355 30.6453 42.3075 31.2ZM46.1475 33.6H48.2275C48.1742 33.8027 48.0675 34.032 47.9075 34.288C47.7582 34.5333 47.5395 34.8107 47.2515 35.12C46.9742 35.4187 46.5902 35.6693 46.0995 35.872C45.6088 36.064 45.0648 36.16 44.4675 36.16C43.2622 36.16 42.2648 35.7653 41.4755 34.976C40.6968 34.176 40.3075 33.1573 40.3075 31.92C40.3075 30.6827 40.6968 29.6693 41.4755 28.88C42.2648 28.08 43.2622 27.68 44.4675 27.68C45.5875 27.68 46.5315 28.0747 47.2995 28.864C48.0782 29.6427 48.4675 30.608 48.4675 31.76C48.4675 31.856 48.4515 32.048 48.4195 32.336L48.3875 32.56H42.3075C42.3928 33.136 42.6328 33.6 43.0275 33.952C43.4222 34.304 43.9022 34.48 44.4675 34.48C44.8942 34.48 45.2568 34.3893 45.5555 34.208C45.8542 34.016 46.0515 33.8133 46.1475 33.6ZM49.745 33.52H51.665C51.665 33.7653 51.8037 34 52.081 34.224C52.369 34.448 52.7637 34.56 53.265 34.56C54.2783 34.56 54.785 34.2667 54.785 33.68C54.785 33.424 54.705 33.2267 54.545 33.088C54.385 32.9387 54.0917 32.832 53.665 32.768L52.385 32.56C50.625 32.272 49.745 31.4987 49.745 30.24C49.745 29.5253 50.049 28.9227 50.657 28.432C51.265 27.9307 52.1077 27.68 53.185 27.68C54.2623 27.68 55.105 27.9733 55.713 28.56C56.321 29.1467 56.625 29.7333 56.625 30.32H54.705C54.705 30.0533 54.5663 29.8133 54.289 29.6C54.0117 29.3867 53.6437 29.28 53.185 29.28C52.7263 29.28 52.369 29.376 52.113 29.568C51.8677 29.7493 51.745 29.9733 51.745 30.24C51.745 30.6347 52.1183 30.8853 52.865 30.992L54.225 31.2C55.9317 31.456 56.785 32.2827 56.785 33.68C56.785 34.3947 56.481 34.9867 55.873 35.456C55.2757 35.9253 54.4063 36.16 53.265 36.16C52.689 36.16 52.177 36.0853 51.729 35.936C51.2917 35.7867 50.9503 35.6107 50.705 35.408C50.4703 35.1947 50.273 34.9547 50.113 34.688C49.9637 34.4213 49.8623 34.1973 49.809 34.016C49.7663 33.824 49.745 33.6587 49.745 33.52ZM63.9787 36L61.1787 27.84H63.2587L65.1787 33.52H65.4987L67.4187 27.84H69.4987L66.6987 36H63.9787ZM69.8144 36V33.76H72.0544V36H69.8144ZM86.3706 32H88.5306C88.4666 32.2987 88.3706 32.608 88.2426 32.928C88.1253 33.248 87.928 33.6107 87.6506 34.016C87.384 34.4107 87.0746 34.7627 86.7226 35.072C86.3706 35.3813 85.912 35.6427 85.3466 35.856C84.7813 36.0587 84.1626 36.16 83.4906 36.16C81.9546 36.16 80.664 35.616 79.6186 34.528C78.5733 33.44 78.0506 32.064 78.0506 30.4C78.0506 28.736 78.5733 27.36 79.6186 26.272C80.664 25.184 81.9546 24.64 83.4906 24.64C84.12 24.64 84.7013 24.736 85.2346 24.928C85.7786 25.1093 86.232 25.344 86.5946 25.632C86.9573 25.92 87.2773 26.256 87.5546 26.64C87.832 27.0133 88.0453 27.3707 88.1946 27.712C88.344 28.0533 88.456 28.3893 88.5306 28.72H86.3706C86.1573 28.1653 85.8106 27.68 85.3306 27.264C84.8613 26.848 84.248 26.64 83.4906 26.64C82.5093 26.64 81.704 26.9867 81.0746 27.68C80.4453 28.3627 80.1306 29.2693 80.1306 30.4C80.1306 31.5307 80.4453 32.4427 81.0746 33.136C81.704 33.8187 82.5093 34.16 83.4906 34.16C84.2586 34.16 84.8773 33.9467 85.3466 33.52C85.8266 33.0933 86.168 32.5867 86.3706 32ZM92.5202 33.648C92.9362 34.096 93.4482 34.32 94.0562 34.32C94.6642 34.32 95.1762 34.096 95.5922 33.648C96.0082 33.2 96.2162 32.624 96.2162 31.92C96.2162 31.216 96.0082 30.64 95.5922 30.192C95.1762 29.744 94.6642 29.52 94.0562 29.52C93.4482 29.52 92.9362 29.744 92.5202 30.192C92.1042 30.64 91.8962 31.216 91.8962 31.92C91.8962 32.624 92.1042 33.2 92.5202 33.648ZM91.0642 28.88C91.8536 28.08 92.8509 27.68 94.0562 27.68C95.2616 27.68 96.2536 28.08 97.0322 28.88C97.8216 29.6693 98.2162 30.6827 98.2162 31.92C98.2162 33.1573 97.8216 34.176 97.0322 34.976C96.2536 35.7653 95.2616 36.16 94.0562 36.16C92.8509 36.16 91.8536 35.7653 91.0642 34.976C90.2856 34.176 89.8962 33.1573 89.8962 31.92C89.8962 30.6827 90.2856 29.6693 91.0642 28.88ZM100.13 36V24.8H102.13V36H100.13ZM104.524 36V24.8H106.524V36H104.524ZM110.439 31.2H114.599C114.503 30.656 114.279 30.2133 113.927 29.872C113.585 29.5307 113.143 29.36 112.599 29.36C112.023 29.36 111.548 29.5307 111.175 29.872C110.812 30.2027 110.567 30.6453 110.439 31.2ZM114.279 33.6H116.359C116.305 33.8027 116.199 34.032 116.039 34.288C115.889 34.5333 115.671 34.8107 115.383 35.12C115.105 35.4187 114.721 35.6693 114.231 35.872C113.74 36.064 113.196 36.16 112.599 36.16C111.393 36.16 110.396 35.7653 109.607 34.976C108.828 34.176 108.439 33.1573 108.439 31.92C108.439 30.6827 108.828 29.6693 109.607 28.88C110.396 28.08 111.393 27.68 112.599 27.68C113.719 27.68 114.663 28.0747 115.431 28.864C116.209 29.6427 116.599 30.608 116.599 31.76C116.599 31.856 116.583 32.048 116.551 32.336L116.519 32.56H110.439C110.524 33.136 110.764 33.6 111.159 33.952C111.553 34.304 112.033 34.48 112.599 34.48C113.025 34.48 113.388 34.3893 113.687 34.208C113.985 34.016 114.183 33.8133 114.279 33.6ZM124.036 32.96H126.036C125.962 33.3227 125.839 33.6747 125.668 34.016C125.508 34.3573 125.284 34.6987 124.996 35.04C124.708 35.3707 124.319 35.6427 123.828 35.856C123.348 36.0587 122.804 36.16 122.196 36.16C120.991 36.16 119.994 35.7653 119.204 34.976C118.426 34.176 118.036 33.1573 118.036 31.92C118.036 30.6827 118.426 29.6693 119.204 28.88C119.994 28.08 120.991 27.68 122.196 27.68C122.804 27.68 123.348 27.7867 123.828 28C124.319 28.2027 124.708 28.4693 124.996 28.8C125.284 29.1307 125.508 29.4613 125.668 29.792C125.839 30.1227 125.962 30.4587 126.036 30.8H124.036C123.716 29.9467 123.103 29.52 122.196 29.52C121.588 29.52 121.076 29.744 120.66 30.192C120.244 30.64 120.036 31.216 120.036 31.92C120.036 32.624 120.244 33.2 120.66 33.648C121.076 34.096 121.588 34.32 122.196 34.32C123.135 34.32 123.748 33.8667 124.036 32.96ZM128.439 34.08V29.76H127.159V27.84H128.439V25.52H130.439V27.84H132.279V29.76H130.439V33.68C130.439 34.0533 130.626 34.24 130.999 34.24H132.279V36H130.519C129.847 36 129.33 35.8347 128.967 35.504C128.615 35.1627 128.439 34.688 128.439 34.08ZM134.194 36V27.84H136.194V36H134.194ZM134.114 26.56V24.64H136.274V26.56H134.114ZM140.656 33.648C141.072 34.096 141.584 34.32 142.192 34.32C142.8 34.32 143.312 34.096 143.728 33.648C144.144 33.2 144.352 32.624 144.352 31.92C144.352 31.216 144.144 30.64 143.728 30.192C143.312 29.744 142.8 29.52 142.192 29.52C141.584 29.52 141.072 29.744 140.656 30.192C140.24 30.64 140.032 31.216 140.032 31.92C140.032 32.624 140.24 33.2 140.656 33.648ZM139.2 28.88C139.989 28.08 140.987 27.68 142.192 27.68C143.397 27.68 144.389 28.08 145.168 28.88C145.957 29.6693 146.352 30.6827 146.352 31.92C146.352 33.1573 145.957 34.176 145.168 34.976C144.389 35.7653 143.397 36.16 142.192 36.16C140.987 36.16 139.989 35.7653 139.2 34.976C138.421 34.176 138.032 33.1573 138.032 31.92C138.032 30.6827 138.421 29.6693 139.2 28.88ZM148.186 36V27.84H150.026L150.186 28.64H150.266C150.394 28.48 150.575 28.32 150.81 28.16C151.3 27.84 151.866 27.68 152.506 27.68C153.434 27.68 154.196 28 154.794 28.64C155.402 29.2693 155.706 30.096 155.706 31.12V36H153.706V31.28C153.706 30.7573 153.54 30.336 153.21 30.016C152.89 29.6853 152.468 29.52 151.946 29.52C151.423 29.52 150.996 29.6853 150.666 30.016C150.346 30.336 150.186 30.7573 150.186 31.28V36H148.186Z" fill="white"/>
<defs>
<linearGradient id="paint0_linear_3550_103443" x1="-241.662" y1="-130.554" x2="240.883" y2="422.796" gradientUnits="userSpaceOnUse">
<stop stop-color="white"/>
<stop offset="1" stop-color="white" stop-opacity="0"/>
</linearGradient>
<linearGradient id="paint1_linear_3550_103443" x1="-265.723" y1="-224.675" x2="366.344" y2="593.746" gradientUnits="userSpaceOnUse">
<stop stop-color="white"/>
<stop offset="1" stop-color="white" stop-opacity="0"/>
</linearGradient>
</defs>
</svg>
