<svg width="48" height="48" viewBox="0 0 48 48" fill="none" xmlns="http://www.w3.org/2000/svg">
<path fill-rule="evenodd" clip-rule="evenodd" d="M38.4591 11.4183C34.9447 8.35103 30.4462 6.38287 25.4995 6.0498V12.4995H22.4995V6.0498C17.5528 6.38288 13.0542 8.35109 9.53981 11.4185L14.1 15.9787L11.9787 18.1L7.41851 13.5398C4.3511 17.0542 2.38291 21.5527 2.04991 26.4995H8.49951V29.4995H2.04991C2.36751 34.2171 4.17241 38.5272 6.99951 41.9647H40.9995C43.8267 38.5272 45.6316 34.2171 45.9492 29.4995H39.4995V26.4995H45.9492C45.6161 21.5527 43.6479 17.0541 40.5805 13.5396L28.8025 25.3176C29.2464 26.111 29.4995 27.0257 29.4995 27.9995C29.4995 31.0371 27.0371 33.4995 23.9995 33.4995C20.9619 33.4995 18.4995 31.0371 18.4995 27.9995C18.4995 24.9619 20.9619 22.4995 23.9995 22.4995C24.9732 22.4995 25.8877 22.7525 26.6811 23.1964L38.4591 11.4183Z" fill="white"/>
</svg>
