<svg width="596" height="280" viewBox="0 0 596 280" fill="none" xmlns="http://www.w3.org/2000/svg">
<mask id="path-1-inside-1_3550_109467" fill="white">
<path d="M0 8C0 3.58172 3.58172 0 8 0H588C592.418 0 596 3.58172 596 8V272C596 276.418 592.418 280 588 280H8.00002C3.58174 280 0 276.418 0 272V8Z"/>
</mask>
<path d="M0 8C0 3.58172 3.58172 0 8 0H588C592.418 0 596 3.58172 596 8V272C596 276.418 592.418 280 588 280H8.00002C3.58174 280 0 276.418 0 272V8Z" fill="url(#paint0_linear_3550_109467)" fill-opacity="0.1"/>
<path d="M8 0V1H588V0V-1H8V0ZM596 8H595V272H596H597V8H596ZM588 280V279H8.00002V280V281H588V280ZM0 272H1V8H0H-1V272H0ZM8.00002 280V279C4.13402 279 1 275.866 1 272H0H-1C-1 276.971 3.02946 281 8.00002 281V280ZM596 272H595C595 275.866 591.866 279 588 279V280V281C592.971 281 597 276.971 597 272H596ZM588 0V1C591.866 1 595 4.13401 595 8H596H597C597 3.02943 592.971 -1 588 -1V0ZM8 0V-1C3.02944 -1 -1 3.02944 -1 8H0H1C1 4.13401 4.13401 1 8 1V0Z" fill="url(#paint1_linear_3550_109467)" fill-opacity="0.2" mask="url(#path-1-inside-1_3550_109467)"/>
<path d="M21.88 40V26H27.96C28.8 26 29.5667 26.2 30.26 26.6C30.9533 26.9867 31.5 27.52 31.9 28.2C32.3133 28.8667 32.52 29.62 32.52 30.46C32.52 31.26 32.3133 32 31.9 32.68C31.5 33.3467 30.9533 33.88 30.26 34.28C29.58 34.6667 28.8133 34.86 27.96 34.86H24.42V40H21.88ZM30 40L26.44 33.68L29.12 33.18L33.08 40.02L30 40ZM24.42 32.6H27.98C28.3667 32.6 28.7 32.5133 28.98 32.34C29.2733 32.1533 29.5 31.9 29.66 31.58C29.82 31.26 29.9 30.9067 29.9 30.52C29.9 30.08 29.8 29.7 29.6 29.38C29.4 29.06 29.12 28.8067 28.76 28.62C28.4 28.4333 27.9867 28.34 27.52 28.34H24.42V32.6ZM39.9347 40.2C38.828 40.2 37.848 39.9667 36.9947 39.5C36.1547 39.0333 35.4947 38.4 35.0147 37.6C34.548 36.7867 34.3147 35.86 34.3147 34.82C34.3147 33.9933 34.448 33.24 34.7147 32.56C34.9814 31.88 35.348 31.2933 35.8147 30.8C36.2947 30.2933 36.8614 29.9067 37.5147 29.64C38.1814 29.36 38.908 29.22 39.6947 29.22C40.388 29.22 41.0347 29.3533 41.6347 29.62C42.2347 29.8867 42.7547 30.2533 43.1947 30.72C43.6347 31.1733 43.968 31.72 44.1947 32.36C44.4347 32.9867 44.548 33.6733 44.5347 34.42L44.5147 35.28H35.9747L35.5147 33.6H42.4547L42.1347 33.94V33.5C42.0947 33.0867 41.9614 32.7267 41.7347 32.42C41.508 32.1 41.2147 31.8533 40.8547 31.68C40.508 31.4933 40.1214 31.4 39.6947 31.4C39.0414 31.4 38.488 31.5267 38.0347 31.78C37.5947 32.0333 37.2614 32.4 37.0347 32.88C36.808 33.3467 36.6947 33.9333 36.6947 34.64C36.6947 35.32 36.8347 35.9133 37.1147 36.42C37.408 36.9267 37.8147 37.32 38.3347 37.6C38.868 37.8667 39.488 38 40.1947 38C40.688 38 41.1414 37.92 41.5547 37.76C41.968 37.6 42.4147 37.3133 42.8947 36.9L44.1147 38.6C43.7547 38.9333 43.3414 39.22 42.8747 39.46C42.4214 39.6867 41.9414 39.8667 41.4347 40C40.928 40.1333 40.428 40.2 39.9347 40.2ZM51.2334 40.2C50.2468 40.2 49.3601 39.96 48.5734 39.48C47.7868 39 47.1668 38.3467 46.7134 37.52C46.2601 36.6933 46.0334 35.76 46.0334 34.72C46.0334 33.68 46.2601 32.7467 46.7134 31.92C47.1668 31.0933 47.7868 30.44 48.5734 29.96C49.3601 29.48 50.2468 29.24 51.2334 29.24C52.1801 29.24 53.0401 29.42 53.8134 29.78C54.5868 30.14 55.1868 30.64 55.6134 31.28L54.2534 32.92C54.0534 32.64 53.8001 32.3867 53.4934 32.16C53.1868 31.9333 52.8601 31.7533 52.5134 31.62C52.1668 31.4867 51.8201 31.42 51.4734 31.42C50.8868 31.42 50.3601 31.5667 49.8934 31.86C49.4401 32.14 49.0801 32.5333 48.8134 33.04C48.5468 33.5333 48.4134 34.0933 48.4134 34.72C48.4134 35.3467 48.5468 35.9067 48.8134 36.4C49.0934 36.8933 49.4668 37.2867 49.9334 37.58C50.4001 37.8733 50.9201 38.02 51.4934 38.02C51.8401 38.02 52.1734 37.9667 52.4934 37.86C52.8268 37.74 53.1401 37.5733 53.4334 37.36C53.7268 37.1467 54.0001 36.88 54.2534 36.56L55.6134 38.22C55.1601 38.8067 54.5334 39.2867 53.7334 39.66C52.9468 40.02 52.1134 40.2 51.2334 40.2ZM62.4347 40.2C61.328 40.2 60.348 39.9667 59.4947 39.5C58.6547 39.0333 57.9947 38.4 57.5147 37.6C57.048 36.7867 56.8147 35.86 56.8147 34.82C56.8147 33.9933 56.948 33.24 57.2147 32.56C57.4814 31.88 57.848 31.2933 58.3147 30.8C58.7947 30.2933 59.3614 29.9067 60.0147 29.64C60.6814 29.36 61.408 29.22 62.1947 29.22C62.888 29.22 63.5347 29.3533 64.1347 29.62C64.7347 29.8867 65.2547 30.2533 65.6947 30.72C66.1347 31.1733 66.468 31.72 66.6947 32.36C66.9347 32.9867 67.048 33.6733 67.0347 34.42L67.0147 35.28H58.4747L58.0147 33.6H64.9547L64.6347 33.94V33.5C64.5947 33.0867 64.4614 32.7267 64.2347 32.42C64.008 32.1 63.7147 31.8533 63.3547 31.68C63.008 31.4933 62.6214 31.4 62.1947 31.4C61.5414 31.4 60.988 31.5267 60.5347 31.78C60.0947 32.0333 59.7614 32.4 59.5347 32.88C59.308 33.3467 59.1947 33.9333 59.1947 34.64C59.1947 35.32 59.3347 35.9133 59.6147 36.42C59.908 36.9267 60.3147 37.32 60.8347 37.6C61.368 37.8667 61.988 38 62.6947 38C63.188 38 63.6414 37.92 64.0547 37.76C64.468 37.6 64.9147 37.3133 65.3947 36.9L66.6147 38.6C66.2547 38.9333 65.8414 39.22 65.3747 39.46C64.9214 39.6867 64.4414 39.8667 63.9347 40C63.428 40.1333 62.928 40.2 62.4347 40.2ZM69.4934 40V29.46H71.9534V40H69.4934ZM70.6934 27.22C70.2001 27.22 69.8134 27.1 69.5334 26.86C69.2668 26.6067 69.1334 26.2533 69.1334 25.8C69.1334 25.3733 69.2734 25.0267 69.5534 24.76C69.8334 24.4933 70.2134 24.36 70.6934 24.36C71.2001 24.36 71.5868 24.4867 71.8534 24.74C72.1334 24.98 72.2734 25.3333 72.2734 25.8C72.2734 26.2133 72.1334 26.5533 71.8534 26.82C71.5734 27.0867 71.1868 27.22 70.6934 27.22ZM78.4528 40L74.0128 29.46H76.6928L79.6928 37.34L79.1728 37.48L82.3328 29.46H84.9528L80.2928 40H78.4528ZM90.4395 40.2C89.5729 40.2 88.7862 39.96 88.0795 39.48C87.3729 39 86.8062 38.3467 86.3795 37.52C85.9529 36.6933 85.7395 35.7533 85.7395 34.7C85.7395 33.6467 85.9529 32.7067 86.3795 31.88C86.8062 31.0533 87.3862 30.4067 88.1195 29.94C88.8529 29.4733 89.6795 29.24 90.5995 29.24C91.1329 29.24 91.6195 29.32 92.0595 29.48C92.4995 29.6267 92.8862 29.84 93.2195 30.12C93.5529 30.4 93.8262 30.72 94.0395 31.08C94.2662 31.44 94.4195 31.8267 94.4995 32.24L93.9595 32.1V29.46H96.4395V40H93.9395V37.48L94.5195 37.38C94.4262 37.74 94.2529 38.0933 93.9995 38.44C93.7595 38.7733 93.4529 39.0733 93.0795 39.34C92.7195 39.5933 92.3129 39.8 91.8595 39.96C91.4195 40.12 90.9462 40.2 90.4395 40.2ZM91.1195 38.02C91.6929 38.02 92.1995 37.88 92.6395 37.6C93.0795 37.32 93.4195 36.9333 93.6595 36.44C93.9129 35.9333 94.0395 35.3533 94.0395 34.7C94.0395 34.06 93.9129 33.4933 93.6595 33C93.4195 32.5067 93.0795 32.12 92.6395 31.84C92.1995 31.56 91.6929 31.42 91.1195 31.42C90.5462 31.42 90.0395 31.56 89.5995 31.84C89.1729 32.12 88.8395 32.5067 88.5995 33C88.3595 33.4933 88.2395 34.06 88.2395 34.7C88.2395 35.3533 88.3595 35.9333 88.5995 36.44C88.8395 36.9333 89.1729 37.32 89.5995 37.6C90.0395 37.88 90.5462 38.02 91.1195 38.02ZM105.112 40.2C104.645 40.2 104.185 40.1333 103.732 40C103.292 39.8533 102.892 39.66 102.532 39.42C102.172 39.18 101.872 38.9133 101.632 38.62C101.392 38.3133 101.232 38.0067 101.152 37.7L101.732 37.44L101.672 39.96H99.2916V25.2H101.752V31.9L101.312 31.7C101.378 31.38 101.525 31.08 101.752 30.8C101.992 30.5067 102.285 30.2467 102.632 30.02C102.978 29.78 103.358 29.5933 103.772 29.46C104.185 29.3133 104.605 29.24 105.032 29.24C105.978 29.24 106.812 29.4733 107.532 29.94C108.265 30.4067 108.838 31.0533 109.252 31.88C109.678 32.7067 109.892 33.6467 109.892 34.7C109.892 35.7667 109.685 36.7133 109.272 37.54C108.858 38.3667 108.285 39.02 107.552 39.5C106.832 39.9667 106.018 40.2 105.112 40.2ZM104.592 38.04C105.152 38.04 105.652 37.9 106.092 37.62C106.532 37.3267 106.878 36.9333 107.132 36.44C107.385 35.9333 107.512 35.3533 107.512 34.7C107.512 34.06 107.385 33.4933 107.132 33C106.892 32.5067 106.552 32.12 106.112 31.84C105.672 31.56 105.165 31.42 104.592 31.42C104.018 31.42 103.512 31.56 103.072 31.84C102.632 32.12 102.285 32.5067 102.032 33C101.778 33.4933 101.652 34.06 101.652 34.7C101.652 35.3533 101.778 35.9333 102.032 36.44C102.285 36.9333 102.632 37.3267 103.072 37.62C103.512 37.9 104.018 38.04 104.592 38.04ZM112.105 40V25.2H114.585V40H112.105ZM122.22 40.2C121.113 40.2 120.133 39.9667 119.28 39.5C118.44 39.0333 117.78 38.4 117.3 37.6C116.833 36.7867 116.6 35.86 116.6 34.82C116.6 33.9933 116.733 33.24 117 32.56C117.267 31.88 117.633 31.2933 118.1 30.8C118.58 30.2933 119.147 29.9067 119.8 29.64C120.467 29.36 121.193 29.22 121.98 29.22C122.673 29.22 123.32 29.3533 123.92 29.62C124.52 29.8867 125.04 30.2533 125.48 30.72C125.92 31.1733 126.253 31.72 126.48 32.36C126.72 32.9867 126.833 33.6733 126.82 34.42L126.8 35.28H118.26L117.8 33.6H124.74L124.42 33.94V33.5C124.38 33.0867 124.247 32.7267 124.02 32.42C123.793 32.1 123.5 31.8533 123.14 31.68C122.793 31.4933 122.407 31.4 121.98 31.4C121.327 31.4 120.773 31.5267 120.32 31.78C119.88 32.0333 119.547 32.4 119.32 32.88C119.093 33.3467 118.98 33.9333 118.98 34.64C118.98 35.32 119.12 35.9133 119.4 36.42C119.693 36.9267 120.1 37.32 120.62 37.6C121.153 37.8667 121.773 38 122.48 38C122.973 38 123.427 37.92 123.84 37.76C124.253 37.6 124.7 37.3133 125.18 36.9L126.4 38.6C126.04 38.9333 125.627 39.22 125.16 39.46C124.707 39.6867 124.227 39.8667 123.72 40C123.213 40.1333 122.713 40.2 122.22 40.2ZM132.519 40.2C131.585 40.2 130.745 40.0467 129.999 39.74C129.265 39.42 128.665 38.9667 128.199 38.38L129.799 37C130.199 37.4533 130.645 37.78 131.139 37.98C131.632 38.18 132.152 38.28 132.699 38.28C132.925 38.28 133.125 38.2533 133.299 38.2C133.485 38.1467 133.645 38.0667 133.779 37.96C133.912 37.8533 134.012 37.7333 134.079 37.6C134.159 37.4533 134.199 37.2933 134.199 37.12C134.199 36.8 134.079 36.5467 133.839 36.36C133.705 36.2667 133.492 36.1667 133.199 36.06C132.919 35.9533 132.552 35.8467 132.099 35.74C131.379 35.5533 130.779 35.34 130.299 35.1C129.819 34.8467 129.445 34.5667 129.179 34.26C128.952 34.0067 128.779 33.72 128.659 33.4C128.552 33.08 128.499 32.7333 128.499 32.36C128.499 31.8933 128.599 31.4733 128.799 31.1C129.012 30.7133 129.299 30.38 129.659 30.1C130.019 29.82 130.439 29.6067 130.919 29.46C131.399 29.3133 131.899 29.24 132.419 29.24C132.952 29.24 133.465 29.3067 133.959 29.44C134.465 29.5733 134.932 29.7667 135.359 30.02C135.799 30.26 136.172 30.5533 136.479 30.9L135.119 32.4C134.865 32.16 134.585 31.9467 134.279 31.76C133.985 31.5733 133.685 31.4267 133.379 31.32C133.072 31.2 132.785 31.14 132.519 31.14C132.265 31.14 132.039 31.1667 131.839 31.22C131.639 31.26 131.472 31.3267 131.339 31.42C131.205 31.5133 131.099 31.6333 131.019 31.78C130.952 31.9133 130.919 32.0733 130.919 32.26C130.932 32.42 130.972 32.5733 131.039 32.72C131.119 32.8533 131.225 32.9667 131.359 33.06C131.505 33.1533 131.725 33.26 132.019 33.38C132.312 33.5 132.692 33.6133 133.159 33.72C133.812 33.8933 134.359 34.0867 134.799 34.3C135.239 34.5133 135.585 34.76 135.839 35.04C136.092 35.28 136.272 35.56 136.379 35.88C136.485 36.2 136.539 36.5533 136.539 36.94C136.539 37.5667 136.359 38.1267 135.999 38.62C135.652 39.1133 135.172 39.5 134.559 39.78C133.959 40.06 133.279 40.2 132.519 40.2Z" fill="white"/>
<mask id="path-4-inside-2_3550_109467" fill="white">
<path d="M20 72C20 67.5817 23.5817 64 28 64H568C572.418 64 576 67.5817 576 72V144C576 148.418 572.418 152 568 152H28C23.5817 152 20 148.418 20 144V72Z"/>
</mask>
<path d="M20 72C20 67.5817 23.5817 64 28 64H568C572.418 64 576 67.5817 576 72V144C576 148.418 572.418 152 568 152H28C23.5817 152 20 148.418 20 144V72Z" fill="url(#paint2_linear_3550_109467)" fill-opacity="0.1"/>
<path d="M28 64V65H568V64V63H28V64ZM576 72H575V144H576H577V72H576ZM568 152V151H28V152V153H568V152ZM20 144H21V72H20H19V144H20ZM28 152V151C24.134 151 21 147.866 21 144H20H19C19 148.971 23.0294 153 28 153V152ZM576 144H575C575 147.866 571.866 151 568 151V152V153C572.971 153 577 148.971 577 144H576ZM568 64V65C571.866 65 575 68.134 575 72H576H577C577 67.0294 572.971 63 568 63V64ZM28 64V63C23.0294 63 19 67.0294 19 72H20H21C21 68.134 24.134 65 28 65V64Z" fill="url(#paint3_linear_3550_109467)" fill-opacity="0.2" mask="url(#path-4-inside-2_3550_109467)"/>
<path d="M42.256 92.16C41.4667 92.16 40.736 92.016 40.064 91.728C39.4027 91.44 38.8213 91.04 38.32 90.528C37.8293 90.0053 37.4453 89.3973 37.168 88.704C36.9013 88 36.768 87.232 36.768 86.4C36.768 85.568 36.9013 84.8053 37.168 84.112C37.4453 83.408 37.8293 82.8 38.32 82.288C38.8213 81.7653 39.4027 81.36 40.064 81.072C40.736 80.784 41.4667 80.64 42.256 80.64C43.0453 80.64 43.7707 80.784 44.432 81.072C45.104 81.36 45.6853 81.7653 46.176 82.288C46.6773 82.8107 47.0613 83.424 47.328 84.128C47.6053 84.8213 47.744 85.5787 47.744 86.4C47.744 87.2213 47.6053 87.984 47.328 88.688C47.0613 89.3813 46.6773 89.9893 46.176 90.512C45.6853 91.0347 45.104 91.44 44.432 91.728C43.7707 92.016 43.0453 92.16 42.256 92.16ZM42.256 90.48C42.8 90.48 43.296 90.3787 43.744 90.176C44.2027 89.9733 44.5973 89.6907 44.928 89.328C45.2587 88.9547 45.5147 88.5227 45.696 88.032C45.888 87.5307 45.984 86.9867 45.984 86.4C45.984 85.8133 45.888 85.2747 45.696 84.784C45.5147 84.2827 45.2587 83.8507 44.928 83.488C44.5973 83.1147 44.2027 82.8267 43.744 82.624C43.296 82.4213 42.8 82.32 42.256 82.32C41.712 82.32 41.2107 82.4213 40.752 82.624C40.304 82.8267 39.9093 83.1093 39.568 83.472C39.2373 83.8347 38.9813 84.2667 38.8 84.768C38.6187 85.2587 38.528 85.8027 38.528 86.4C38.528 86.9867 38.6187 87.5307 38.8 88.032C38.9813 88.5333 39.2373 88.9653 39.568 89.328C39.9093 89.6907 40.304 89.9733 40.752 90.176C41.2107 90.3787 41.712 90.48 42.256 90.48ZM52.4196 92L48.8676 83.6H50.6436L53.2036 89.888L52.8996 90.032L55.6356 83.6H57.3316L53.6036 92H52.4196ZM62.5251 92.16C61.6611 92.16 60.8931 91.9787 60.2211 91.616C59.5598 91.2427 59.0371 90.736 58.6531 90.096C58.2798 89.456 58.0931 88.72 58.0931 87.888C58.0931 87.2267 58.1998 86.624 58.4131 86.08C58.6265 85.536 58.9198 85.0667 59.2931 84.672C59.6771 84.2667 60.1305 83.9573 60.6531 83.744C61.1865 83.52 61.7625 83.408 62.3811 83.408C62.9251 83.408 63.4318 83.5147 63.9011 83.728C64.3705 83.9307 64.7758 84.2133 65.1171 84.576C65.4691 84.9387 65.7358 85.3707 65.9171 85.872C66.1091 86.3627 66.1998 86.9013 66.1891 87.488L66.1731 88.192H59.3091L58.9411 86.88H64.7491L64.5091 87.152V86.768C64.4771 86.416 64.3598 86.1013 64.1571 85.824C63.9545 85.5467 63.6985 85.328 63.3891 85.168C63.0798 85.008 62.7438 84.928 62.3811 84.928C61.8051 84.928 61.3198 85.04 60.9251 85.264C60.5305 85.4773 60.2318 85.7973 60.0291 86.224C59.8265 86.64 59.7251 87.1573 59.7251 87.776C59.7251 88.3627 59.8478 88.8747 60.0931 89.312C60.3385 89.7387 60.6851 90.0693 61.1331 90.304C61.5811 90.5387 62.0985 90.656 62.6851 90.656C63.1011 90.656 63.4851 90.5867 63.8371 90.448C64.1998 90.3093 64.5891 90.0587 65.0051 89.696L65.8371 90.864C65.5811 91.12 65.2665 91.344 64.8931 91.536C64.5305 91.728 64.1411 91.8827 63.7251 92C63.3198 92.1067 62.9198 92.16 62.5251 92.16ZM67.9801 92V83.6H69.6441V86.24L69.4841 85.6C69.6015 85.1947 69.7988 84.8267 70.0761 84.496C70.3641 84.1653 70.6895 83.904 71.0521 83.712C71.4255 83.52 71.8095 83.424 72.2041 83.424C72.3855 83.424 72.5561 83.44 72.7161 83.472C72.8868 83.504 73.0201 83.5413 73.1161 83.584L72.6841 85.376C72.5561 85.3227 72.4121 85.28 72.2521 85.248C72.1028 85.2053 71.9535 85.184 71.8041 85.184C71.5161 85.184 71.2388 85.2427 70.9721 85.36C70.7161 85.4667 70.4868 85.6213 70.2841 85.824C70.0921 86.016 69.9375 86.2453 69.8201 86.512C69.7028 86.768 69.6441 87.0507 69.6441 87.36V92H67.9801ZM77.5779 92.16C76.8099 92.16 76.1219 91.9733 75.5139 91.6C74.9165 91.216 74.4419 90.6987 74.0899 90.048C73.7379 89.3867 73.5619 88.6347 73.5619 87.792C73.5619 86.9493 73.7325 86.2027 74.0739 85.552C74.4259 84.8907 74.9005 84.3733 75.4979 84C76.0952 83.616 76.7725 83.424 77.5299 83.424C77.9459 83.424 78.3459 83.4933 78.7299 83.632C79.1245 83.76 79.4765 83.9413 79.7859 84.176C80.0952 84.4 80.3352 84.6507 80.5059 84.928C80.6872 85.1947 80.7779 85.4667 80.7779 85.744L80.2979 85.776V80.16H81.9459V92H80.2979V90H80.6179C80.6179 90.256 80.5325 90.512 80.3619 90.768C80.1912 91.0133 79.9619 91.2427 79.6739 91.456C79.3965 91.6693 79.0712 91.84 78.6979 91.968C78.3352 92.096 77.9619 92.16 77.5779 92.16ZM77.8019 90.736C78.3032 90.736 78.7459 90.608 79.1299 90.352C79.5139 90.096 79.8125 89.7493 80.0259 89.312C80.2499 88.864 80.3619 88.3573 80.3619 87.792C80.3619 87.2267 80.2499 86.7253 80.0259 86.288C79.8125 85.84 79.5139 85.488 79.1299 85.232C78.7459 84.976 78.3032 84.848 77.8019 84.848C77.3005 84.848 76.8579 84.976 76.4739 85.232C76.0899 85.488 75.7859 85.84 75.5619 86.288C75.3485 86.7253 75.2419 87.2267 75.2419 87.792C75.2419 88.3573 75.3485 88.864 75.5619 89.312C75.7859 89.7493 76.0899 90.096 76.4739 90.352C76.8579 90.608 77.3005 90.736 77.8019 90.736ZM87.4085 92.16C86.8112 92.16 86.2885 92.0213 85.8405 91.744C85.4032 91.4667 85.0618 91.0773 84.8165 90.576C84.5818 90.0747 84.4645 89.4773 84.4645 88.784V83.6H86.1125V88.336C86.1125 88.8267 86.1872 89.2533 86.3365 89.616C86.4965 89.968 86.7205 90.24 87.0085 90.432C87.3072 90.624 87.6645 90.72 88.0805 90.72C88.3898 90.72 88.6725 90.672 88.9285 90.576C89.1845 90.4693 89.4032 90.3253 89.5845 90.144C89.7765 89.9627 89.9258 89.744 90.0325 89.488C90.1392 89.232 90.1925 88.9547 90.1925 88.656V83.6H91.8405V92H90.1925V90.24L90.4805 90.048C90.3525 90.4427 90.1338 90.8 89.8245 91.12C89.5258 91.44 89.1685 91.696 88.7525 91.888C88.3365 92.0693 87.8885 92.16 87.4085 92.16ZM98.072 92.16C97.208 92.16 96.44 91.9787 95.768 91.616C95.1067 91.2427 94.584 90.736 94.2 90.096C93.8267 89.456 93.64 88.72 93.64 87.888C93.64 87.2267 93.7467 86.624 93.96 86.08C94.1733 85.536 94.4667 85.0667 94.84 84.672C95.224 84.2667 95.6773 83.9573 96.2 83.744C96.7333 83.52 97.3093 83.408 97.928 83.408C98.472 83.408 98.9787 83.5147 99.448 83.728C99.9173 83.9307 100.323 84.2133 100.664 84.576C101.016 84.9387 101.283 85.3707 101.464 85.872C101.656 86.3627 101.747 86.9013 101.736 87.488L101.72 88.192H94.856L94.488 86.88H100.296L100.056 87.152V86.768C100.024 86.416 99.9067 86.1013 99.704 85.824C99.5013 85.5467 99.2453 85.328 98.936 85.168C98.6267 85.008 98.2907 84.928 97.928 84.928C97.352 84.928 96.8667 85.04 96.472 85.264C96.0773 85.4773 95.7787 85.7973 95.576 86.224C95.3733 86.64 95.272 87.1573 95.272 87.776C95.272 88.3627 95.3947 88.8747 95.64 89.312C95.8853 89.7387 96.232 90.0693 96.68 90.304C97.128 90.5387 97.6453 90.656 98.232 90.656C98.648 90.656 99.032 90.5867 99.384 90.448C99.7467 90.3093 100.136 90.0587 100.552 89.696L101.384 90.864C101.128 91.12 100.813 91.344 100.44 91.536C100.077 91.728 99.688 91.8827 99.272 92C98.8667 92.1067 98.4667 92.16 98.072 92.16ZM108.427 92V80.8H113.195C113.835 80.8 114.422 80.96 114.955 81.28C115.499 81.5893 115.931 82.016 116.251 82.56C116.571 83.0933 116.731 83.696 116.731 84.368C116.731 84.976 116.571 85.5413 116.251 86.064C115.931 86.5867 115.505 87.008 114.971 87.328C114.438 87.6373 113.846 87.792 113.195 87.792H110.155V92H108.427ZM115.083 92L112.235 86.944L114.011 86.544L117.179 92.016L115.083 92ZM110.155 86.128H113.355C113.665 86.128 113.942 86.0533 114.187 85.904C114.433 85.744 114.625 85.5307 114.763 85.264C114.902 84.9867 114.971 84.6827 114.971 84.352C114.971 83.9787 114.881 83.6533 114.699 83.376C114.529 83.088 114.283 82.864 113.963 82.704C113.654 82.544 113.302 82.464 112.907 82.464H110.155V86.128ZM122.744 92.16C121.88 92.16 121.112 91.9787 120.44 91.616C119.779 91.2427 119.256 90.736 118.872 90.096C118.499 89.456 118.312 88.72 118.312 87.888C118.312 87.2267 118.419 86.624 118.632 86.08C118.845 85.536 119.139 85.0667 119.512 84.672C119.896 84.2667 120.349 83.9573 120.872 83.744C121.405 83.52 121.981 83.408 122.6 83.408C123.144 83.408 123.651 83.5147 124.12 83.728C124.589 83.9307 124.995 84.2133 125.336 84.576C125.688 84.9387 125.955 85.3707 126.136 85.872C126.328 86.3627 126.419 86.9013 126.408 87.488L126.392 88.192H119.528L119.16 86.88H124.968L124.728 87.152V86.768C124.696 86.416 124.579 86.1013 124.376 85.824C124.173 85.5467 123.917 85.328 123.608 85.168C123.299 85.008 122.963 84.928 122.6 84.928C122.024 84.928 121.539 85.04 121.144 85.264C120.749 85.4773 120.451 85.7973 120.248 86.224C120.045 86.64 119.944 87.1573 119.944 87.776C119.944 88.3627 120.067 88.8747 120.312 89.312C120.557 89.7387 120.904 90.0693 121.352 90.304C121.8 90.5387 122.317 90.656 122.904 90.656C123.32 90.656 123.704 90.5867 124.056 90.448C124.419 90.3093 124.808 90.0587 125.224 89.696L126.056 90.864C125.8 91.12 125.485 91.344 125.112 91.536C124.749 91.728 124.36 91.8827 123.944 92C123.539 92.1067 123.139 92.16 122.744 92.16ZM131.767 92.16C130.988 92.16 130.29 91.968 129.671 91.584C129.063 91.2 128.578 90.6773 128.215 90.016C127.863 89.3547 127.687 88.6133 127.687 87.792C127.687 86.9707 127.863 86.2293 128.215 85.568C128.578 84.9067 129.063 84.384 129.671 84C130.29 83.616 130.988 83.424 131.767 83.424C132.514 83.424 133.191 83.5787 133.799 83.888C134.418 84.1867 134.887 84.5973 135.207 85.12L134.295 86.24C134.124 85.9947 133.906 85.7707 133.639 85.568C133.372 85.3653 133.09 85.2053 132.791 85.088C132.492 84.9707 132.204 84.912 131.927 84.912C131.415 84.912 130.956 85.04 130.551 85.296C130.156 85.5413 129.842 85.8827 129.607 86.32C129.372 86.7573 129.255 87.248 129.255 87.792C129.255 88.336 129.378 88.8267 129.623 89.264C129.868 89.6907 130.194 90.032 130.599 90.288C131.004 90.544 131.452 90.672 131.943 90.672C132.231 90.672 132.508 90.624 132.775 90.528C133.052 90.432 133.319 90.288 133.575 90.096C133.831 89.904 134.071 89.6693 134.295 89.392L135.207 90.512C134.866 90.992 134.375 91.3867 133.735 91.696C133.106 92.0053 132.45 92.16 131.767 92.16ZM140.681 92.16C139.817 92.16 139.049 91.9787 138.377 91.616C137.716 91.2427 137.193 90.736 136.809 90.096C136.436 89.456 136.249 88.72 136.249 87.888C136.249 87.2267 136.356 86.624 136.569 86.08C136.783 85.536 137.076 85.0667 137.449 84.672C137.833 84.2667 138.287 83.9573 138.809 83.744C139.343 83.52 139.919 83.408 140.537 83.408C141.081 83.408 141.588 83.5147 142.057 83.728C142.527 83.9307 142.932 84.2133 143.273 84.576C143.625 84.9387 143.892 85.3707 144.073 85.872C144.265 86.3627 144.356 86.9013 144.345 87.488L144.329 88.192H137.465L137.097 86.88H142.905L142.665 87.152V86.768C142.633 86.416 142.516 86.1013 142.313 85.824C142.111 85.5467 141.855 85.328 141.545 85.168C141.236 85.008 140.9 84.928 140.537 84.928C139.961 84.928 139.476 85.04 139.081 85.264C138.687 85.4773 138.388 85.7973 138.185 86.224C137.983 86.64 137.881 87.1573 137.881 87.776C137.881 88.3627 138.004 88.8747 138.249 89.312C138.495 89.7387 138.841 90.0693 139.289 90.304C139.737 90.5387 140.255 90.656 140.841 90.656C141.257 90.656 141.641 90.5867 141.993 90.448C142.356 90.3093 142.745 90.0587 143.161 89.696L143.993 90.864C143.737 91.12 143.423 91.344 143.049 91.536C142.687 91.728 142.297 91.8827 141.881 92C141.476 92.1067 141.076 92.16 140.681 92.16ZM146.408 92V83.6H148.056V92H146.408ZM147.208 81.744C146.856 81.744 146.584 81.6533 146.392 81.472C146.2 81.2907 146.104 81.0347 146.104 80.704C146.104 80.3947 146.2 80.144 146.392 79.952C146.595 79.76 146.867 79.664 147.208 79.664C147.56 79.664 147.832 79.7547 148.024 79.936C148.216 80.1173 148.312 80.3733 148.312 80.704C148.312 81.0133 148.211 81.264 148.008 81.456C147.816 81.648 147.55 81.744 147.208 81.744ZM153.342 92L149.79 83.6H151.566L154.126 89.888L153.822 90.032L156.558 83.6H158.253L154.526 92H153.342ZM162.759 92.16C162.066 92.16 161.431 91.968 160.855 91.584C160.29 91.2 159.836 90.6773 159.495 90.016C159.154 89.3547 158.983 88.608 158.983 87.776C158.983 86.9333 159.154 86.1867 159.495 85.536C159.847 84.8747 160.316 84.3573 160.903 83.984C161.5 83.6107 162.167 83.424 162.903 83.424C163.34 83.424 163.74 83.488 164.103 83.616C164.466 83.744 164.78 83.9253 165.047 84.16C165.324 84.384 165.548 84.6453 165.719 84.944C165.9 85.2427 166.012 85.5627 166.055 85.904L165.687 85.776V83.6H167.351V92H165.687V90L166.071 89.888C166.007 90.176 165.874 90.4587 165.671 90.736C165.479 91.0027 165.228 91.2427 164.919 91.456C164.62 91.6693 164.284 91.84 163.911 91.968C163.548 92.096 163.164 92.16 162.759 92.16ZM163.191 90.64C163.692 90.64 164.135 90.5173 164.519 90.272C164.903 90.0267 165.202 89.6907 165.415 89.264C165.639 88.8267 165.751 88.3307 165.751 87.776C165.751 87.232 165.639 86.7467 165.415 86.32C165.202 85.8933 164.903 85.5573 164.519 85.312C164.135 85.0667 163.692 84.944 163.191 84.944C162.7 84.944 162.263 85.0667 161.879 85.312C161.506 85.5573 161.207 85.8933 160.983 86.32C160.77 86.7467 160.663 87.232 160.663 87.776C160.663 88.3307 160.77 88.8267 160.983 89.264C161.207 89.6907 161.506 90.0267 161.879 90.272C162.263 90.5173 162.7 90.64 163.191 90.64ZM174.068 92.16C173.705 92.16 173.343 92.1013 172.98 91.984C172.628 91.8667 172.303 91.712 172.004 91.52C171.716 91.3173 171.471 91.0987 171.268 90.864C171.076 90.6187 170.948 90.3733 170.884 90.128L171.3 89.904V91.952H169.652V80.16H171.3V85.52L171.044 85.376C171.097 85.1307 171.215 84.896 171.396 84.672C171.577 84.4373 171.807 84.2293 172.084 84.048C172.372 83.856 172.681 83.7067 173.012 83.6C173.343 83.4827 173.679 83.424 174.02 83.424C174.777 83.424 175.449 83.6107 176.036 83.984C176.623 84.3573 177.087 84.8747 177.428 85.536C177.769 86.1867 177.94 86.9333 177.94 87.776C177.94 88.6187 177.769 89.3707 177.428 90.032C177.097 90.6933 176.639 91.216 176.052 91.6C175.465 91.9733 174.804 92.16 174.068 92.16ZM173.796 90.656C174.287 90.656 174.724 90.5333 175.108 90.288C175.492 90.032 175.796 89.6907 176.02 89.264C176.244 88.8267 176.356 88.3307 176.356 87.776C176.356 87.232 176.244 86.7467 176.02 86.32C175.807 85.8827 175.508 85.5413 175.124 85.296C174.74 85.0507 174.297 84.928 173.796 84.928C173.295 84.928 172.852 85.0507 172.468 85.296C172.084 85.5413 171.78 85.8827 171.556 86.32C171.332 86.7467 171.22 87.232 171.22 87.776C171.22 88.3307 171.332 88.8267 171.556 89.264C171.78 89.6907 172.084 90.032 172.468 90.288C172.852 90.5333 173.295 90.656 173.796 90.656ZM179.762 92V80.16H181.41V92H179.762ZM187.51 92.16C186.646 92.16 185.878 91.9787 185.206 91.616C184.544 91.2427 184.022 90.736 183.638 90.096C183.264 89.456 183.078 88.72 183.078 87.888C183.078 87.2267 183.184 86.624 183.398 86.08C183.611 85.536 183.904 85.0667 184.278 84.672C184.662 84.2667 185.115 83.9573 185.638 83.744C186.171 83.52 186.747 83.408 187.366 83.408C187.91 83.408 188.416 83.5147 188.886 83.728C189.355 83.9307 189.76 84.2133 190.102 84.576C190.454 84.9387 190.72 85.3707 190.902 85.872C191.094 86.3627 191.184 86.9013 191.174 87.488L191.158 88.192H184.294L183.926 86.88H189.734L189.494 87.152V86.768C189.462 86.416 189.344 86.1013 189.142 85.824C188.939 85.5467 188.683 85.328 188.374 85.168C188.064 85.008 187.728 84.928 187.366 84.928C186.79 84.928 186.304 85.04 185.91 85.264C185.515 85.4773 185.216 85.7973 185.014 86.224C184.811 86.64 184.71 87.1573 184.71 87.776C184.71 88.3627 184.832 88.8747 185.078 89.312C185.323 89.7387 185.67 90.0693 186.118 90.304C186.566 90.5387 187.083 90.656 187.67 90.656C188.086 90.656 188.47 90.5867 188.822 90.448C189.184 90.3093 189.574 90.0587 189.99 89.696L190.822 90.864C190.566 91.12 190.251 91.344 189.878 91.536C189.515 91.728 189.126 91.8827 188.71 92C188.304 92.1067 187.904 92.16 187.51 92.16ZM195.765 92.16C195.061 92.16 194.426 92.0373 193.861 91.792C193.295 91.5467 192.826 91.184 192.453 90.704L193.573 89.744C193.893 90.1173 194.239 90.3893 194.613 90.56C194.997 90.72 195.429 90.8 195.909 90.8C196.101 90.8 196.277 90.7787 196.437 90.736C196.607 90.6827 196.751 90.608 196.869 90.512C196.997 90.416 197.093 90.304 197.157 90.176C197.221 90.0373 197.253 89.888 197.253 89.728C197.253 89.4507 197.151 89.2267 196.949 89.056C196.842 88.9813 196.671 88.9013 196.437 88.816C196.213 88.72 195.919 88.624 195.557 88.528C194.938 88.368 194.431 88.1867 194.037 87.984C193.642 87.7813 193.338 87.552 193.125 87.296C192.965 87.0933 192.847 86.8747 192.773 86.64C192.698 86.3947 192.661 86.128 192.661 85.84C192.661 85.488 192.735 85.168 192.885 84.88C193.045 84.5813 193.258 84.3253 193.525 84.112C193.802 83.888 194.122 83.7173 194.485 83.6C194.858 83.4827 195.253 83.424 195.669 83.424C196.063 83.424 196.453 83.4773 196.837 83.584C197.231 83.6907 197.594 83.8453 197.925 84.048C198.255 84.2507 198.533 84.4907 198.757 84.768L197.813 85.808C197.61 85.6053 197.386 85.4293 197.141 85.28C196.906 85.12 196.666 84.9973 196.421 84.912C196.175 84.8267 195.951 84.784 195.749 84.784C195.525 84.784 195.322 84.8053 195.141 84.848C194.959 84.8907 194.805 84.9547 194.677 85.04C194.559 85.1253 194.469 85.232 194.405 85.36C194.341 85.488 194.309 85.632 194.309 85.792C194.319 85.9307 194.351 86.064 194.405 86.192C194.469 86.3093 194.554 86.4107 194.661 86.496C194.778 86.5813 194.954 86.672 195.189 86.768C195.423 86.864 195.722 86.9547 196.085 87.04C196.618 87.1787 197.055 87.3333 197.397 87.504C197.749 87.664 198.026 87.8507 198.229 88.064C198.442 88.2667 198.591 88.5013 198.677 88.768C198.762 89.0347 198.805 89.3333 198.805 89.664C198.805 90.144 198.666 90.576 198.389 90.96C198.122 91.3333 197.759 91.6267 197.301 91.84C196.842 92.0533 196.33 92.16 195.765 92.16Z" fill="white"/>
<path d="M38.184 133V116.2H45.624C46.664 116.2 47.608 116.44 48.456 116.92C49.304 117.384 49.968 118.016 50.448 118.816C50.944 119.616 51.192 120.528 51.192 121.552C51.192 122.56 50.944 123.48 50.448 124.312C49.968 125.128 49.304 125.776 48.456 126.256C47.608 126.736 46.664 126.976 45.624 126.976H41.664V133H38.184ZM47.712 133L43.44 125.416L47.136 124.816L51.888 133.024L47.712 133ZM41.664 124.048H45.456C45.888 124.048 46.264 123.952 46.584 123.76C46.92 123.552 47.176 123.272 47.352 122.92C47.528 122.552 47.616 122.144 47.616 121.696C47.616 121.216 47.512 120.8 47.304 120.448C47.096 120.096 46.792 119.824 46.392 119.632C45.992 119.424 45.528 119.32 45 119.32H41.664V124.048ZM58.7807 133.24C57.5967 133.24 56.5407 133.048 55.6127 132.664C54.7007 132.264 53.9647 131.72 53.4047 131.032L55.5167 129.208C56.0127 129.736 56.5647 130.12 57.1727 130.36C57.7807 130.584 58.3887 130.696 58.9967 130.696C59.2367 130.696 59.4527 130.672 59.6447 130.624C59.8527 130.56 60.0287 130.48 60.1727 130.384C60.3167 130.272 60.4207 130.144 60.4847 130C60.5647 129.84 60.6047 129.672 60.6047 129.496C60.6047 129.144 60.4607 128.864 60.1727 128.656C60.0127 128.576 59.7647 128.48 59.4287 128.368C59.0927 128.24 58.6607 128.104 58.1327 127.96C57.3167 127.752 56.6207 127.512 56.0447 127.24C55.4847 126.952 55.0367 126.632 54.7007 126.28C54.4127 125.944 54.1887 125.584 54.0287 125.2C53.8847 124.8 53.8127 124.36 53.8127 123.88C53.8127 123.304 53.9407 122.784 54.1967 122.32C54.4527 121.84 54.8047 121.432 55.2527 121.096C55.7167 120.76 56.2447 120.504 56.8367 120.328C57.4287 120.136 58.0527 120.04 58.7087 120.04C59.3647 120.04 60.0047 120.12 60.6287 120.28C61.2527 120.44 61.8287 120.672 62.3567 120.976C62.9007 121.264 63.3727 121.608 63.7727 122.008L61.9487 124.024C61.6607 123.752 61.3327 123.504 60.9647 123.28C60.6127 123.056 60.2447 122.88 59.8607 122.752C59.4767 122.624 59.1327 122.56 58.8287 122.56C58.5567 122.56 58.3087 122.584 58.0847 122.632C57.8767 122.68 57.7007 122.752 57.5567 122.848C57.4127 122.944 57.3007 123.072 57.2207 123.232C57.1567 123.376 57.1247 123.536 57.1247 123.712C57.1247 123.888 57.1647 124.056 57.2447 124.216C57.3407 124.376 57.4687 124.512 57.6287 124.624C57.8047 124.72 58.0607 124.832 58.3967 124.96C58.7487 125.088 59.2207 125.232 59.8127 125.392C60.5807 125.6 61.2287 125.832 61.7567 126.088C62.3007 126.344 62.7327 126.64 63.0527 126.976C63.3247 127.264 63.5247 127.592 63.6527 127.96C63.7807 128.328 63.8447 128.736 63.8447 129.184C63.8447 129.968 63.6207 130.672 63.1727 131.296C62.7407 131.904 62.1407 132.384 61.3727 132.736C60.6047 133.072 59.7407 133.24 58.7807 133.24ZM67.5463 133.264C66.9223 133.264 66.4423 133.088 66.1063 132.736C65.7703 132.384 65.6023 131.88 65.6023 131.224C65.6023 130.632 65.7783 130.152 66.1303 129.784C66.4983 129.4 66.9703 129.208 67.5463 129.208C68.1543 129.208 68.6263 129.384 68.9623 129.736C69.2983 130.088 69.4663 130.584 69.4663 131.224C69.4663 131.832 69.2903 132.328 68.9383 132.712C68.5863 133.08 68.1223 133.264 67.5463 133.264ZM86.2594 133V119.416L87.9394 119.512L82.0354 126.736L81.6274 126.136H92.5234V129.184H79.8754L78.3874 126.352L86.8594 116.104H89.7394V133H86.2594ZM96.3979 133.264C95.7739 133.264 95.2939 133.088 94.9579 132.736C94.6219 132.384 94.4539 131.88 94.4539 131.224C94.4539 130.632 94.6299 130.152 94.9819 129.784C95.3499 129.4 95.8219 129.208 96.3979 129.208C97.0059 129.208 97.4779 129.384 97.8139 129.736C98.1499 130.088 98.3179 130.584 98.3179 131.224C98.3179 131.832 98.1419 132.328 97.7899 132.712C97.4379 133.08 96.9739 133.264 96.3979 133.264ZM105.952 133.24C104.656 133.24 103.52 132.96 102.544 132.4C101.584 131.84 100.696 130.88 99.8796 129.52L102.52 127.84C102.888 128.4 103.256 128.856 103.624 129.208C104.008 129.56 104.408 129.816 104.824 129.976C105.24 130.136 105.672 130.216 106.12 130.216C106.6 130.216 107.048 130.104 107.464 129.88C107.88 129.656 108.208 129.344 108.448 128.944C108.704 128.528 108.832 128.056 108.832 127.528C108.832 126.984 108.728 126.528 108.52 126.16C108.312 125.792 108.008 125.512 107.608 125.32C107.208 125.128 106.736 125.032 106.192 125.032C105.952 125.032 105.688 125.056 105.4 125.104C105.112 125.152 104.816 125.232 104.512 125.344C104.208 125.44 103.88 125.56 103.528 125.704L102.688 123.496L107.128 118.648L108.04 119.296L100.984 119.2V116.104H111.088L111.736 117.424L106.192 123.424L105.352 122.44C105.48 122.376 105.688 122.32 105.976 122.272C106.28 122.208 106.56 122.176 106.816 122.176C107.552 122.176 108.24 122.312 108.88 122.584C109.52 122.856 110.088 123.232 110.584 123.712C111.08 124.192 111.464 124.752 111.736 125.392C112.024 126.032 112.168 126.72 112.168 127.456C112.168 128.56 111.888 129.552 111.328 130.432C110.784 131.296 110.04 131.984 109.096 132.496C108.168 132.992 107.12 133.24 105.952 133.24ZM122.606 133V116.2H126.206V129.76H133.814V133H122.606ZM140.964 133.24C139.908 133.24 138.956 132.952 138.108 132.376C137.26 131.8 136.588 131.016 136.092 130.024C135.596 129.032 135.348 127.896 135.348 126.616C135.348 125.336 135.596 124.208 136.092 123.232C136.604 122.24 137.292 121.464 138.156 120.904C139.02 120.328 140.004 120.04 141.108 120.04C141.732 120.04 142.3 120.136 142.812 120.328C143.34 120.504 143.796 120.752 144.18 121.072C144.58 121.392 144.916 121.76 145.188 122.176C145.46 122.592 145.652 123.04 145.764 123.52L145.044 123.4V120.304H148.428V133H144.996V129.952L145.764 129.88C145.636 130.328 145.428 130.752 145.14 131.152C144.852 131.552 144.492 131.912 144.06 132.232C143.644 132.536 143.172 132.784 142.644 132.976C142.116 133.152 141.556 133.24 140.964 133.24ZM141.9 130.288C142.54 130.288 143.1 130.136 143.58 129.832C144.06 129.528 144.428 129.104 144.684 128.56C144.956 128 145.092 127.352 145.092 126.616C145.092 125.896 144.956 125.264 144.684 124.72C144.428 124.176 144.06 123.752 143.58 123.448C143.1 123.128 142.54 122.968 141.9 122.968C141.276 122.968 140.724 123.128 140.244 123.448C139.78 123.752 139.412 124.176 139.14 124.72C138.868 125.264 138.732 125.896 138.732 126.616C138.732 127.352 138.868 128 139.14 128.56C139.412 129.104 139.78 129.528 140.244 129.832C140.724 130.136 141.276 130.288 141.9 130.288ZM155.085 129.184L154.077 126.376L160.077 120.304H164.565L155.085 129.184ZM151.845 133V115.24H155.253V133H151.845ZM160.437 133L155.877 127.264L158.277 125.344L164.541 133H160.437ZM166.306 133V115.24H169.666V122.896L168.994 123.184C169.17 122.608 169.482 122.088 169.93 121.624C170.394 121.144 170.946 120.76 171.586 120.472C172.226 120.184 172.898 120.04 173.602 120.04C174.562 120.04 175.362 120.232 176.002 120.616C176.658 121 177.146 121.584 177.466 122.368C177.802 123.136 177.97 124.088 177.97 125.224V133H174.562V125.488C174.562 124.912 174.482 124.432 174.322 124.048C174.162 123.664 173.914 123.384 173.578 123.208C173.258 123.016 172.858 122.936 172.378 122.968C171.994 122.968 171.634 123.032 171.298 123.16C170.978 123.272 170.698 123.44 170.458 123.664C170.234 123.888 170.05 124.144 169.906 124.432C169.778 124.72 169.714 125.032 169.714 125.368V133H168.034C167.666 133 167.338 133 167.05 133C166.762 133 166.514 133 166.306 133ZM185.507 133.24C184.323 133.24 183.267 133.048 182.339 132.664C181.427 132.264 180.691 131.72 180.131 131.032L182.243 129.208C182.739 129.736 183.291 130.12 183.899 130.36C184.507 130.584 185.115 130.696 185.723 130.696C185.963 130.696 186.179 130.672 186.371 130.624C186.579 130.56 186.755 130.48 186.899 130.384C187.043 130.272 187.147 130.144 187.211 130C187.291 129.84 187.331 129.672 187.331 129.496C187.331 129.144 187.187 128.864 186.899 128.656C186.739 128.576 186.491 128.48 186.155 128.368C185.819 128.24 185.387 128.104 184.859 127.96C184.043 127.752 183.347 127.512 182.771 127.24C182.211 126.952 181.763 126.632 181.427 126.28C181.139 125.944 180.915 125.584 180.755 125.2C180.611 124.8 180.539 124.36 180.539 123.88C180.539 123.304 180.667 122.784 180.923 122.32C181.179 121.84 181.531 121.432 181.979 121.096C182.443 120.76 182.971 120.504 183.563 120.328C184.155 120.136 184.779 120.04 185.435 120.04C186.091 120.04 186.731 120.12 187.355 120.28C187.979 120.44 188.555 120.672 189.083 120.976C189.627 121.264 190.099 121.608 190.499 122.008L188.675 124.024C188.387 123.752 188.059 123.504 187.691 123.28C187.339 123.056 186.971 122.88 186.587 122.752C186.203 122.624 185.859 122.56 185.555 122.56C185.283 122.56 185.035 122.584 184.811 122.632C184.603 122.68 184.427 122.752 184.283 122.848C184.139 122.944 184.027 123.072 183.947 123.232C183.883 123.376 183.851 123.536 183.851 123.712C183.851 123.888 183.891 124.056 183.971 124.216C184.067 124.376 184.195 124.512 184.355 124.624C184.531 124.72 184.787 124.832 185.123 124.96C185.475 125.088 185.947 125.232 186.539 125.392C187.307 125.6 187.955 125.832 188.483 126.088C189.027 126.344 189.459 126.64 189.779 126.976C190.051 127.264 190.251 127.592 190.379 127.96C190.507 128.328 190.571 128.736 190.571 129.184C190.571 129.968 190.347 130.672 189.899 131.296C189.467 131.904 188.867 132.384 188.099 132.736C187.331 133.072 186.467 133.24 185.507 133.24Z" fill="white"/>
<rect x="463" y="92" width="97" height="32" rx="16" fill="#F08B32"/>
<path d="M480.273 112V102.9H481.677V112H480.273ZM480.897 108.126V106.774H485.59V108.126H480.897ZM480.897 104.252V102.9H486.175V104.252H480.897ZM491.007 112.13C490.34 112.13 489.742 111.978 489.213 111.675C488.693 111.363 488.281 110.943 487.978 110.414C487.675 109.877 487.523 109.266 487.523 108.581C487.523 107.896 487.675 107.29 487.978 106.761C488.281 106.224 488.693 105.803 489.213 105.5C489.742 105.188 490.34 105.032 491.007 105.032C491.666 105.032 492.255 105.188 492.775 105.5C493.304 105.803 493.72 106.224 494.023 106.761C494.326 107.29 494.478 107.896 494.478 108.581C494.478 109.266 494.326 109.877 494.023 110.414C493.72 110.943 493.304 111.363 492.775 111.675C492.255 111.978 491.666 112.13 491.007 112.13ZM491.007 110.908C491.414 110.908 491.778 110.808 492.099 110.609C492.42 110.401 492.671 110.124 492.853 109.777C493.035 109.422 493.122 109.023 493.113 108.581C493.122 108.13 493.035 107.732 492.853 107.385C492.671 107.03 492.42 106.752 492.099 106.553C491.778 106.354 491.414 106.254 491.007 106.254C490.6 106.254 490.231 106.358 489.902 106.566C489.581 106.765 489.33 107.043 489.148 107.398C488.966 107.745 488.879 108.139 488.888 108.581C488.879 109.023 488.966 109.422 489.148 109.777C489.33 110.124 489.581 110.401 489.902 110.609C490.231 110.808 490.6 110.908 491.007 110.908ZM496.337 112V102.38H497.676V112H496.337ZM499.974 112V102.38H501.313V112H499.974ZM506.525 112.13C505.858 112.13 505.26 111.978 504.731 111.675C504.211 111.363 503.8 110.943 503.496 110.414C503.193 109.877 503.041 109.266 503.041 108.581C503.041 107.896 503.193 107.29 503.496 106.761C503.8 106.224 504.211 105.803 504.731 105.5C505.26 105.188 505.858 105.032 506.525 105.032C507.184 105.032 507.773 105.188 508.293 105.5C508.822 105.803 509.238 106.224 509.541 106.761C509.845 107.29 509.996 107.896 509.996 108.581C509.996 109.266 509.845 109.877 509.541 110.414C509.238 110.943 508.822 111.363 508.293 111.675C507.773 111.978 507.184 112.13 506.525 112.13ZM506.525 110.908C506.933 110.908 507.297 110.808 507.617 110.609C507.938 110.401 508.189 110.124 508.371 109.777C508.553 109.422 508.64 109.023 508.631 108.581C508.64 108.13 508.553 107.732 508.371 107.385C508.189 107.03 507.938 106.752 507.617 106.553C507.297 106.354 506.933 106.254 506.525 106.254C506.118 106.254 505.75 106.358 505.42 106.566C505.1 106.765 504.848 107.043 504.666 107.398C504.484 107.745 504.398 108.139 504.406 108.581C504.398 109.023 504.484 109.422 504.666 109.777C504.848 110.124 505.1 110.401 505.42 110.609C505.75 110.808 506.118 110.908 506.525 110.908ZM513.253 112L510.926 105.175L512.278 105.162L513.942 110.271L513.643 110.245L515.45 106.254H516.256L518.076 110.258L517.725 110.284L519.402 105.175H520.754L518.453 112H517.53L515.632 107.658L515.931 107.697L514.163 112H513.253ZM530.239 112.078C529.537 112.078 528.908 111.926 528.354 111.623C527.799 111.311 527.361 110.886 527.041 110.349C526.729 109.803 526.573 109.188 526.573 108.503V102.887H527.977V108.386C527.977 108.828 528.081 109.227 528.289 109.582C528.497 109.929 528.77 110.206 529.108 110.414C529.454 110.622 529.831 110.726 530.239 110.726C530.672 110.726 531.062 110.622 531.409 110.414C531.764 110.206 532.046 109.929 532.254 109.582C532.462 109.227 532.566 108.828 532.566 108.386V102.887H533.905V108.503C533.905 109.188 533.744 109.803 533.424 110.349C533.112 110.886 532.678 111.311 532.124 111.623C531.569 111.926 530.941 112.078 530.239 112.078ZM536.362 114.86V105.175H537.714V106.735L537.506 106.618C537.558 106.358 537.705 106.111 537.948 105.877C538.19 105.634 538.485 105.439 538.832 105.292C539.187 105.136 539.551 105.058 539.924 105.058C540.539 105.058 541.085 105.21 541.562 105.513C542.038 105.816 542.415 106.232 542.693 106.761C542.97 107.29 543.109 107.896 543.109 108.581C543.109 109.257 542.97 109.864 542.693 110.401C542.424 110.93 542.051 111.35 541.575 111.662C541.098 111.965 540.561 112.117 539.963 112.117C539.564 112.117 539.178 112.039 538.806 111.883C538.433 111.718 538.117 111.51 537.857 111.259C537.597 111.008 537.436 110.748 537.376 110.479L537.714 110.297V114.86H536.362ZM539.742 110.882C540.14 110.882 540.496 110.782 540.808 110.583C541.12 110.384 541.367 110.111 541.549 109.764C541.731 109.417 541.822 109.023 541.822 108.581C541.822 108.139 541.731 107.749 541.549 107.411C541.375 107.064 541.133 106.791 540.821 106.592C540.509 106.393 540.149 106.293 539.742 106.293C539.334 106.293 538.975 106.393 538.663 106.592C538.351 106.783 538.104 107.051 537.922 107.398C537.74 107.745 537.649 108.139 537.649 108.581C537.649 109.023 537.74 109.417 537.922 109.764C538.104 110.111 538.351 110.384 538.663 110.583C538.975 110.782 539.334 110.882 539.742 110.882Z" fill="white"/>
<mask id="path-10-inside-3_3550_109467" fill="white">
<path d="M20 180C20 175.582 23.5817 172 28 172H568C572.418 172 576 175.582 576 180V252C576 256.418 572.418 260 568 260H28C23.5817 260 20 256.418 20 252V180Z"/>
</mask>
<path d="M20 180C20 175.582 23.5817 172 28 172H568C572.418 172 576 175.582 576 180V252C576 256.418 572.418 260 568 260H28C23.5817 260 20 256.418 20 252V180Z" fill="url(#paint4_linear_3550_109467)" fill-opacity="0.1"/>
<path d="M28 172V173H568V172V171H28V172ZM576 180H575V252H576H577V180H576ZM568 260V259H28V260V261H568V260ZM20 252H21V180H20H19V252H20ZM28 260V259C24.134 259 21 255.866 21 252H20H19C19 256.971 23.0294 261 28 261V260ZM576 252H575C575 255.866 571.866 259 568 259V260V261C572.971 261 577 256.971 577 252H576ZM568 172V173C571.866 173 575 176.134 575 180H576H577C577 175.029 572.971 171 568 171V172ZM28 172V171C23.0294 171 19 175.029 19 180H20H21C21 176.134 24.134 173 28 173V172Z" fill="url(#paint5_linear_3550_109467)" fill-opacity="0.2" mask="url(#path-10-inside-3_3550_109467)"/>
<path d="M42.256 200.16C41.4667 200.16 40.736 200.016 40.064 199.728C39.4027 199.44 38.8213 199.04 38.32 198.528C37.8293 198.005 37.4453 197.397 37.168 196.704C36.9013 196 36.768 195.232 36.768 194.4C36.768 193.568 36.9013 192.805 37.168 192.112C37.4453 191.408 37.8293 190.8 38.32 190.288C38.8213 189.765 39.4027 189.36 40.064 189.072C40.736 188.784 41.4667 188.64 42.256 188.64C43.0453 188.64 43.7707 188.784 44.432 189.072C45.104 189.36 45.6853 189.765 46.176 190.288C46.6773 190.811 47.0613 191.424 47.328 192.128C47.6053 192.821 47.744 193.579 47.744 194.4C47.744 195.221 47.6053 195.984 47.328 196.688C47.0613 197.381 46.6773 197.989 46.176 198.512C45.6853 199.035 45.104 199.44 44.432 199.728C43.7707 200.016 43.0453 200.16 42.256 200.16ZM42.256 198.48C42.8 198.48 43.296 198.379 43.744 198.176C44.2027 197.973 44.5973 197.691 44.928 197.328C45.2587 196.955 45.5147 196.523 45.696 196.032C45.888 195.531 45.984 194.987 45.984 194.4C45.984 193.813 45.888 193.275 45.696 192.784C45.5147 192.283 45.2587 191.851 44.928 191.488C44.5973 191.115 44.2027 190.827 43.744 190.624C43.296 190.421 42.8 190.32 42.256 190.32C41.712 190.32 41.2107 190.421 40.752 190.624C40.304 190.827 39.9093 191.109 39.568 191.472C39.2373 191.835 38.9813 192.267 38.8 192.768C38.6187 193.259 38.528 193.803 38.528 194.4C38.528 194.987 38.6187 195.531 38.8 196.032C38.9813 196.533 39.2373 196.965 39.568 197.328C39.9093 197.691 40.304 197.973 40.752 198.176C41.2107 198.379 41.712 198.48 42.256 198.48ZM52.4196 200L48.8676 191.6H50.6436L53.2036 197.888L52.8996 198.032L55.6356 191.6H57.3316L53.6036 200H52.4196ZM62.5251 200.16C61.6611 200.16 60.8931 199.979 60.2211 199.616C59.5598 199.243 59.0371 198.736 58.6531 198.096C58.2798 197.456 58.0931 196.72 58.0931 195.888C58.0931 195.227 58.1998 194.624 58.4131 194.08C58.6265 193.536 58.9198 193.067 59.2931 192.672C59.6771 192.267 60.1305 191.957 60.6531 191.744C61.1865 191.52 61.7625 191.408 62.3811 191.408C62.9251 191.408 63.4318 191.515 63.9011 191.728C64.3705 191.931 64.7758 192.213 65.1171 192.576C65.4691 192.939 65.7358 193.371 65.9171 193.872C66.1091 194.363 66.1998 194.901 66.1891 195.488L66.1731 196.192H59.3091L58.9411 194.88H64.7491L64.5091 195.152V194.768C64.4771 194.416 64.3598 194.101 64.1571 193.824C63.9545 193.547 63.6985 193.328 63.3891 193.168C63.0798 193.008 62.7438 192.928 62.3811 192.928C61.8051 192.928 61.3198 193.04 60.9251 193.264C60.5305 193.477 60.2318 193.797 60.0291 194.224C59.8265 194.64 59.7251 195.157 59.7251 195.776C59.7251 196.363 59.8478 196.875 60.0931 197.312C60.3385 197.739 60.6851 198.069 61.1331 198.304C61.5811 198.539 62.0985 198.656 62.6851 198.656C63.1011 198.656 63.4851 198.587 63.8371 198.448C64.1998 198.309 64.5891 198.059 65.0051 197.696L65.8371 198.864C65.5811 199.12 65.2665 199.344 64.8931 199.536C64.5305 199.728 64.1411 199.883 63.7251 200C63.3198 200.107 62.9198 200.16 62.5251 200.16ZM67.9801 200V191.6H69.6441V194.24L69.4841 193.6C69.6015 193.195 69.7988 192.827 70.0761 192.496C70.3641 192.165 70.6895 191.904 71.0521 191.712C71.4255 191.52 71.8095 191.424 72.2041 191.424C72.3855 191.424 72.5561 191.44 72.7161 191.472C72.8868 191.504 73.0201 191.541 73.1161 191.584L72.6841 193.376C72.5561 193.323 72.4121 193.28 72.2521 193.248C72.1028 193.205 71.9535 193.184 71.8041 193.184C71.5161 193.184 71.2388 193.243 70.9721 193.36C70.7161 193.467 70.4868 193.621 70.2841 193.824C70.0921 194.016 69.9375 194.245 69.8201 194.512C69.7028 194.768 69.6441 195.051 69.6441 195.36V200H67.9801ZM77.3059 200.16C76.6125 200.16 75.9779 199.968 75.4019 199.584C74.8365 199.2 74.3832 198.677 74.0419 198.016C73.7005 197.355 73.5299 196.608 73.5299 195.776C73.5299 194.933 73.7005 194.187 74.0419 193.536C74.3939 192.875 74.8632 192.357 75.4499 191.984C76.0472 191.611 76.7139 191.424 77.4499 191.424C77.8872 191.424 78.2872 191.488 78.6499 191.616C79.0125 191.744 79.3272 191.925 79.5939 192.16C79.8712 192.384 80.0952 192.645 80.2659 192.944C80.4472 193.243 80.5592 193.563 80.6019 193.904L80.2339 193.776V191.6H81.8979V200H80.2339V198L80.6179 197.888C80.5539 198.176 80.4205 198.459 80.2179 198.736C80.0259 199.003 79.7752 199.243 79.4659 199.456C79.1672 199.669 78.8312 199.84 78.4579 199.968C78.0952 200.096 77.7112 200.16 77.3059 200.16ZM77.7379 198.64C78.2392 198.64 78.6819 198.517 79.0659 198.272C79.4499 198.027 79.7485 197.691 79.9619 197.264C80.1859 196.827 80.2979 196.331 80.2979 195.776C80.2979 195.232 80.1859 194.747 79.9619 194.32C79.7485 193.893 79.4499 193.557 79.0659 193.312C78.6819 193.067 78.2392 192.944 77.7379 192.944C77.2472 192.944 76.8099 193.067 76.4259 193.312C76.0525 193.557 75.7539 193.893 75.5299 194.32C75.3165 194.747 75.2099 195.232 75.2099 195.776C75.2099 196.331 75.3165 196.827 75.5299 197.264C75.7539 197.691 76.0525 198.027 76.4259 198.272C76.8099 198.517 77.2472 198.64 77.7379 198.64ZM84.2309 200V188.16H85.8789V200H84.2309ZM88.2465 200V188.16H89.8945V200H88.2465ZM97.1305 200V188.8H101.899C102.539 188.8 103.125 188.96 103.659 189.28C104.203 189.589 104.635 190.016 104.955 190.56C105.275 191.093 105.435 191.696 105.435 192.368C105.435 192.976 105.275 193.541 104.955 194.064C104.635 194.587 104.208 195.008 103.675 195.328C103.141 195.637 102.549 195.792 101.899 195.792H98.8585V200H97.1305ZM103.786 200L100.939 194.944L102.715 194.544L105.883 200.016L103.786 200ZM98.8585 194.128H102.059C102.368 194.128 102.645 194.053 102.891 193.904C103.136 193.744 103.328 193.531 103.467 193.264C103.605 192.987 103.675 192.683 103.675 192.352C103.675 191.979 103.584 191.653 103.403 191.376C103.232 191.088 102.987 190.864 102.667 190.704C102.357 190.544 102.005 190.464 101.611 190.464H98.8585V194.128ZM111.447 200.16C110.583 200.16 109.815 199.979 109.143 199.616C108.482 199.243 107.959 198.736 107.575 198.096C107.202 197.456 107.015 196.72 107.015 195.888C107.015 195.227 107.122 194.624 107.335 194.08C107.548 193.536 107.842 193.067 108.215 192.672C108.599 192.267 109.052 191.957 109.575 191.744C110.108 191.52 110.684 191.408 111.303 191.408C111.847 191.408 112.354 191.515 112.823 191.728C113.292 191.931 113.698 192.213 114.039 192.576C114.391 192.939 114.658 193.371 114.839 193.872C115.031 194.363 115.122 194.901 115.111 195.488L115.095 196.192H108.231L107.863 194.88H113.671L113.431 195.152V194.768C113.399 194.416 113.282 194.101 113.079 193.824C112.876 193.547 112.62 193.328 112.311 193.168C112.002 193.008 111.666 192.928 111.303 192.928C110.727 192.928 110.242 193.04 109.847 193.264C109.452 193.477 109.154 193.797 108.951 194.224C108.748 194.64 108.647 195.157 108.647 195.776C108.647 196.363 108.77 196.875 109.015 197.312C109.26 197.739 109.607 198.069 110.055 198.304C110.503 198.539 111.02 198.656 111.607 198.656C112.023 198.656 112.407 198.587 112.759 198.448C113.122 198.309 113.511 198.059 113.927 197.696L114.759 198.864C114.503 199.12 114.188 199.344 113.815 199.536C113.452 199.728 113.063 199.883 112.647 200C112.242 200.107 111.842 200.16 111.447 200.16ZM120.47 200.16C119.691 200.16 118.993 199.968 118.374 199.584C117.766 199.2 117.281 198.677 116.918 198.016C116.566 197.355 116.39 196.613 116.39 195.792C116.39 194.971 116.566 194.229 116.918 193.568C117.281 192.907 117.766 192.384 118.374 192C118.993 191.616 119.691 191.424 120.47 191.424C121.217 191.424 121.894 191.579 122.502 191.888C123.121 192.187 123.59 192.597 123.91 193.12L122.998 194.24C122.827 193.995 122.609 193.771 122.342 193.568C122.075 193.365 121.793 193.205 121.494 193.088C121.195 192.971 120.907 192.912 120.63 192.912C120.118 192.912 119.659 193.04 119.254 193.296C118.859 193.541 118.545 193.883 118.31 194.32C118.075 194.757 117.958 195.248 117.958 195.792C117.958 196.336 118.081 196.827 118.326 197.264C118.571 197.691 118.897 198.032 119.302 198.288C119.707 198.544 120.155 198.672 120.646 198.672C120.934 198.672 121.211 198.624 121.478 198.528C121.755 198.432 122.022 198.288 122.278 198.096C122.534 197.904 122.774 197.669 122.998 197.392L123.91 198.512C123.569 198.992 123.078 199.387 122.438 199.696C121.809 200.005 121.153 200.16 120.47 200.16ZM129.385 200.16C128.521 200.16 127.753 199.979 127.081 199.616C126.419 199.243 125.897 198.736 125.513 198.096C125.139 197.456 124.953 196.72 124.953 195.888C124.953 195.227 125.059 194.624 125.273 194.08C125.486 193.536 125.779 193.067 126.153 192.672C126.537 192.267 126.99 191.957 127.513 191.744C128.046 191.52 128.622 191.408 129.241 191.408C129.785 191.408 130.291 191.515 130.761 191.728C131.23 191.931 131.635 192.213 131.977 192.576C132.329 192.939 132.595 193.371 132.777 193.872C132.969 194.363 133.059 194.901 133.049 195.488L133.033 196.192H126.169L125.801 194.88H131.609L131.369 195.152V194.768C131.337 194.416 131.219 194.101 131.017 193.824C130.814 193.547 130.558 193.328 130.249 193.168C129.939 193.008 129.603 192.928 129.241 192.928C128.665 192.928 128.179 193.04 127.785 193.264C127.39 193.477 127.091 193.797 126.889 194.224C126.686 194.64 126.585 195.157 126.585 195.776C126.585 196.363 126.707 196.875 126.953 197.312C127.198 197.739 127.545 198.069 127.993 198.304C128.441 198.539 128.958 198.656 129.545 198.656C129.961 198.656 130.345 198.587 130.697 198.448C131.059 198.309 131.449 198.059 131.865 197.696L132.697 198.864C132.441 199.12 132.126 199.344 131.753 199.536C131.39 199.728 131.001 199.883 130.585 200C130.179 200.107 129.779 200.16 129.385 200.16ZM135.112 200V191.6H136.76V200H135.112ZM135.912 189.744C135.56 189.744 135.288 189.653 135.096 189.472C134.904 189.291 134.808 189.035 134.808 188.704C134.808 188.395 134.904 188.144 135.096 187.952C135.298 187.76 135.57 187.664 135.912 187.664C136.264 187.664 136.536 187.755 136.728 187.936C136.92 188.117 137.016 188.373 137.016 188.704C137.016 189.013 136.914 189.264 136.712 189.456C136.52 189.648 136.253 189.744 135.912 189.744ZM142.045 200L138.493 191.6H140.269L142.829 197.888L142.525 198.032L145.261 191.6H146.957L143.229 200H142.045ZM151.462 200.16C150.769 200.16 150.134 199.968 149.558 199.584C148.993 199.2 148.539 198.677 148.198 198.016C147.857 197.355 147.686 196.608 147.686 195.776C147.686 194.933 147.857 194.187 148.198 193.536C148.55 192.875 149.019 192.357 149.606 191.984C150.203 191.611 150.87 191.424 151.606 191.424C152.043 191.424 152.443 191.488 152.806 191.616C153.169 191.744 153.483 191.925 153.75 192.16C154.027 192.384 154.251 192.645 154.422 192.944C154.603 193.243 154.715 193.563 154.758 193.904L154.39 193.776V191.6H156.054V200H154.39V198L154.774 197.888C154.71 198.176 154.577 198.459 154.374 198.736C154.182 199.003 153.931 199.243 153.622 199.456C153.323 199.669 152.987 199.84 152.614 199.968C152.251 200.096 151.867 200.16 151.462 200.16ZM151.894 198.64C152.395 198.64 152.838 198.517 153.222 198.272C153.606 198.027 153.905 197.691 154.118 197.264C154.342 196.827 154.454 196.331 154.454 195.776C154.454 195.232 154.342 194.747 154.118 194.32C153.905 193.893 153.606 193.557 153.222 193.312C152.838 193.067 152.395 192.944 151.894 192.944C151.403 192.944 150.966 193.067 150.582 193.312C150.209 193.557 149.91 193.893 149.686 194.32C149.473 194.747 149.366 195.232 149.366 195.776C149.366 196.331 149.473 196.827 149.686 197.264C149.91 197.691 150.209 198.027 150.582 198.272C150.966 198.517 151.403 198.64 151.894 198.64ZM162.771 200.16C162.408 200.16 162.046 200.101 161.683 199.984C161.331 199.867 161.006 199.712 160.707 199.52C160.419 199.317 160.174 199.099 159.971 198.864C159.779 198.619 159.651 198.373 159.587 198.128L160.003 197.904V199.952H158.355V188.16H160.003V193.52L159.747 193.376C159.8 193.131 159.918 192.896 160.099 192.672C160.28 192.437 160.51 192.229 160.787 192.048C161.075 191.856 161.384 191.707 161.715 191.6C162.046 191.483 162.382 191.424 162.723 191.424C163.48 191.424 164.152 191.611 164.739 191.984C165.326 192.357 165.79 192.875 166.131 193.536C166.472 194.187 166.643 194.933 166.643 195.776C166.643 196.619 166.472 197.371 166.131 198.032C165.8 198.693 165.342 199.216 164.755 199.6C164.168 199.973 163.507 200.16 162.771 200.16ZM162.499 198.656C162.99 198.656 163.427 198.533 163.811 198.288C164.195 198.032 164.499 197.691 164.723 197.264C164.947 196.827 165.059 196.331 165.059 195.776C165.059 195.232 164.947 194.747 164.723 194.32C164.51 193.883 164.211 193.541 163.827 193.296C163.443 193.051 163 192.928 162.499 192.928C161.998 192.928 161.555 193.051 161.171 193.296C160.787 193.541 160.483 193.883 160.259 194.32C160.035 194.747 159.923 195.232 159.923 195.776C159.923 196.331 160.035 196.827 160.259 197.264C160.483 197.691 160.787 198.032 161.171 198.288C161.555 198.533 161.998 198.656 162.499 198.656ZM168.465 200V188.16H170.113V200H168.465ZM176.213 200.16C175.349 200.16 174.581 199.979 173.909 199.616C173.247 199.243 172.725 198.736 172.341 198.096C171.967 197.456 171.781 196.72 171.781 195.888C171.781 195.227 171.887 194.624 172.101 194.08C172.314 193.536 172.607 193.067 172.981 192.672C173.365 192.267 173.818 191.957 174.341 191.744C174.874 191.52 175.45 191.408 176.069 191.408C176.613 191.408 177.119 191.515 177.589 191.728C178.058 191.931 178.463 192.213 178.805 192.576C179.157 192.939 179.423 193.371 179.605 193.872C179.797 194.363 179.887 194.901 179.877 195.488L179.861 196.192H172.997L172.629 194.88H178.437L178.197 195.152V194.768C178.165 194.416 178.047 194.101 177.845 193.824C177.642 193.547 177.386 193.328 177.077 193.168C176.767 193.008 176.431 192.928 176.069 192.928C175.493 192.928 175.007 193.04 174.613 193.264C174.218 193.477 173.919 193.797 173.717 194.224C173.514 194.64 173.413 195.157 173.413 195.776C173.413 196.363 173.535 196.875 173.781 197.312C174.026 197.739 174.373 198.069 174.821 198.304C175.269 198.539 175.786 198.656 176.373 198.656C176.789 198.656 177.173 198.587 177.525 198.448C177.887 198.309 178.277 198.059 178.693 197.696L179.525 198.864C179.269 199.12 178.954 199.344 178.581 199.536C178.218 199.728 177.829 199.883 177.413 200C177.007 200.107 176.607 200.16 176.213 200.16ZM184.468 200.16C183.764 200.16 183.129 200.037 182.564 199.792C181.998 199.547 181.529 199.184 181.156 198.704L182.276 197.744C182.596 198.117 182.942 198.389 183.316 198.56C183.7 198.72 184.132 198.8 184.612 198.8C184.804 198.8 184.98 198.779 185.14 198.736C185.31 198.683 185.454 198.608 185.572 198.512C185.7 198.416 185.796 198.304 185.86 198.176C185.924 198.037 185.956 197.888 185.956 197.728C185.956 197.451 185.854 197.227 185.652 197.056C185.545 196.981 185.374 196.901 185.14 196.816C184.916 196.72 184.622 196.624 184.26 196.528C183.641 196.368 183.134 196.187 182.74 195.984C182.345 195.781 182.041 195.552 181.828 195.296C181.668 195.093 181.55 194.875 181.476 194.64C181.401 194.395 181.364 194.128 181.364 193.84C181.364 193.488 181.438 193.168 181.588 192.88C181.748 192.581 181.961 192.325 182.228 192.112C182.505 191.888 182.825 191.717 183.188 191.6C183.561 191.483 183.956 191.424 184.372 191.424C184.766 191.424 185.156 191.477 185.54 191.584C185.934 191.691 186.297 191.845 186.628 192.048C186.958 192.251 187.236 192.491 187.46 192.768L186.516 193.808C186.313 193.605 186.089 193.429 185.844 193.28C185.609 193.12 185.369 192.997 185.124 192.912C184.878 192.827 184.654 192.784 184.452 192.784C184.228 192.784 184.025 192.805 183.844 192.848C183.662 192.891 183.508 192.955 183.38 193.04C183.262 193.125 183.172 193.232 183.108 193.36C183.044 193.488 183.012 193.632 183.012 193.792C183.022 193.931 183.054 194.064 183.108 194.192C183.172 194.309 183.257 194.411 183.364 194.496C183.481 194.581 183.657 194.672 183.892 194.768C184.126 194.864 184.425 194.955 184.788 195.04C185.321 195.179 185.758 195.333 186.1 195.504C186.452 195.664 186.729 195.851 186.932 196.064C187.145 196.267 187.294 196.501 187.38 196.768C187.465 197.035 187.508 197.333 187.508 197.664C187.508 198.144 187.369 198.576 187.092 198.96C186.825 199.333 186.462 199.627 186.004 199.84C185.545 200.053 185.033 200.16 184.468 200.16Z" fill="white"/>
<path d="M38.184 241V224.2H45.624C46.664 224.2 47.608 224.44 48.456 224.92C49.304 225.384 49.968 226.016 50.448 226.816C50.944 227.616 51.192 228.528 51.192 229.552C51.192 230.56 50.944 231.48 50.448 232.312C49.968 233.128 49.304 233.776 48.456 234.256C47.608 234.736 46.664 234.976 45.624 234.976H41.664V241H38.184ZM47.712 241L43.44 233.416L47.136 232.816L51.888 241.024L47.712 241ZM41.664 232.048H45.456C45.888 232.048 46.264 231.952 46.584 231.76C46.92 231.552 47.176 231.272 47.352 230.92C47.528 230.552 47.616 230.144 47.616 229.696C47.616 229.216 47.512 228.8 47.304 228.448C47.096 228.096 46.792 227.824 46.392 227.632C45.992 227.424 45.528 227.32 45 227.32H41.664V232.048ZM58.7807 241.24C57.5967 241.24 56.5407 241.048 55.6127 240.664C54.7007 240.264 53.9647 239.72 53.4047 239.032L55.5167 237.208C56.0127 237.736 56.5647 238.12 57.1727 238.36C57.7807 238.584 58.3887 238.696 58.9967 238.696C59.2367 238.696 59.4527 238.672 59.6447 238.624C59.8527 238.56 60.0287 238.48 60.1727 238.384C60.3167 238.272 60.4207 238.144 60.4847 238C60.5647 237.84 60.6047 237.672 60.6047 237.496C60.6047 237.144 60.4607 236.864 60.1727 236.656C60.0127 236.576 59.7647 236.48 59.4287 236.368C59.0927 236.24 58.6607 236.104 58.1327 235.96C57.3167 235.752 56.6207 235.512 56.0447 235.24C55.4847 234.952 55.0367 234.632 54.7007 234.28C54.4127 233.944 54.1887 233.584 54.0287 233.2C53.8847 232.8 53.8127 232.36 53.8127 231.88C53.8127 231.304 53.9407 230.784 54.1967 230.32C54.4527 229.84 54.8047 229.432 55.2527 229.096C55.7167 228.76 56.2447 228.504 56.8367 228.328C57.4287 228.136 58.0527 228.04 58.7087 228.04C59.3647 228.04 60.0047 228.12 60.6287 228.28C61.2527 228.44 61.8287 228.672 62.3567 228.976C62.9007 229.264 63.3727 229.608 63.7727 230.008L61.9487 232.024C61.6607 231.752 61.3327 231.504 60.9647 231.28C60.6127 231.056 60.2447 230.88 59.8607 230.752C59.4767 230.624 59.1327 230.56 58.8287 230.56C58.5567 230.56 58.3087 230.584 58.0847 230.632C57.8767 230.68 57.7007 230.752 57.5567 230.848C57.4127 230.944 57.3007 231.072 57.2207 231.232C57.1567 231.376 57.1247 231.536 57.1247 231.712C57.1247 231.888 57.1647 232.056 57.2447 232.216C57.3407 232.376 57.4687 232.512 57.6287 232.624C57.8047 232.72 58.0607 232.832 58.3967 232.96C58.7487 233.088 59.2207 233.232 59.8127 233.392C60.5807 233.6 61.2287 233.832 61.7567 234.088C62.3007 234.344 62.7327 234.64 63.0527 234.976C63.3247 235.264 63.5247 235.592 63.6527 235.96C63.7807 236.328 63.8447 236.736 63.8447 237.184C63.8447 237.968 63.6207 238.672 63.1727 239.296C62.7407 239.904 62.1407 240.384 61.3727 240.736C60.6047 241.072 59.7407 241.24 58.7807 241.24ZM67.5463 241.264C66.9223 241.264 66.4423 241.088 66.1063 240.736C65.7703 240.384 65.6023 239.88 65.6023 239.224C65.6023 238.632 65.7783 238.152 66.1303 237.784C66.4983 237.4 66.9703 237.208 67.5463 237.208C68.1543 237.208 68.6263 237.384 68.9623 237.736C69.2983 238.088 69.4663 238.584 69.4663 239.224C69.4663 239.832 69.2903 240.328 68.9383 240.712C68.5863 241.08 68.1223 241.264 67.5463 241.264ZM84.4594 241.24C83.1634 241.24 82.0274 240.96 81.0514 240.4C80.0914 239.84 79.2034 238.88 78.3874 237.52L81.0274 235.84C81.3954 236.4 81.7634 236.856 82.1314 237.208C82.5154 237.56 82.9154 237.816 83.3314 237.976C83.7474 238.136 84.1794 238.216 84.6274 238.216C85.1074 238.216 85.5554 238.104 85.9714 237.88C86.3874 237.656 86.7154 237.344 86.9554 236.944C87.2114 236.528 87.3394 236.056 87.3394 235.528C87.3394 234.984 87.2354 234.528 87.0274 234.16C86.8194 233.792 86.5154 233.512 86.1154 233.32C85.7154 233.128 85.2434 233.032 84.6994 233.032C84.4594 233.032 84.1954 233.056 83.9074 233.104C83.6194 233.152 83.3234 233.232 83.0194 233.344C82.7154 233.44 82.3874 233.56 82.0354 233.704L81.1954 231.496L85.6354 226.648L86.5474 227.296L79.4914 227.2V224.104H89.5954L90.2434 225.424L84.6994 231.424L83.8594 230.44C83.9874 230.376 84.1954 230.32 84.4834 230.272C84.7874 230.208 85.0674 230.176 85.3234 230.176C86.0594 230.176 86.7474 230.312 87.3874 230.584C88.0274 230.856 88.5954 231.232 89.0914 231.712C89.5874 232.192 89.9714 232.752 90.2434 233.392C90.5314 234.032 90.6754 234.72 90.6754 235.456C90.6754 236.56 90.3954 237.552 89.8354 238.432C89.2914 239.296 88.5474 239.984 87.6034 240.496C86.6754 240.992 85.6274 241.24 84.4594 241.24ZM94.5463 241.264C93.9223 241.264 93.4423 241.088 93.1063 240.736C92.7703 240.384 92.6023 239.88 92.6023 239.224C92.6023 238.632 92.7783 238.152 93.1303 237.784C93.4983 237.4 93.9703 237.208 94.5463 237.208C95.1543 237.208 95.6263 237.384 95.9623 237.736C96.2983 238.088 96.4663 238.584 96.4663 239.224C96.4663 239.832 96.2903 240.328 95.9383 240.712C95.5863 241.08 95.1223 241.264 94.5463 241.264ZM104.076 241.168C102.86 241.168 101.756 240.92 100.764 240.424C99.788 239.912 98.972 239.176 98.316 238.216L100.26 236.056C100.948 236.824 101.572 237.352 102.132 237.64C102.692 237.912 103.308 238.048 103.98 238.048C104.54 238.048 105.044 237.928 105.492 237.688C105.94 237.448 106.292 237.12 106.548 236.704C106.804 236.288 106.932 235.824 106.932 235.312C106.932 234.784 106.804 234.312 106.548 233.896C106.292 233.48 105.948 233.152 105.516 232.912C105.1 232.656 104.62 232.528 104.076 232.528C103.724 232.528 103.396 232.56 103.092 232.624C102.788 232.672 102.452 232.776 102.084 232.936C101.716 233.08 101.268 233.296 100.74 233.584L99.108 231.424L100.14 224.104H109.596V227.2H101.964L102.852 226.144L102.06 231.472L100.908 230.92C101.148 230.696 101.476 230.488 101.892 230.296C102.324 230.104 102.788 229.944 103.284 229.816C103.796 229.688 104.292 229.624 104.772 229.624C105.828 229.624 106.764 229.864 107.58 230.344C108.412 230.824 109.068 231.496 109.548 232.36C110.044 233.208 110.292 234.184 110.292 235.288C110.292 236.392 110.02 237.392 109.476 238.288C108.932 239.168 108.188 239.872 107.244 240.4C106.3 240.912 105.244 241.168 104.076 241.168ZM121.129 241V224.2H124.729V237.76H132.337V241H121.129ZM139.487 241.24C138.431 241.24 137.479 240.952 136.631 240.376C135.783 239.8 135.111 239.016 134.615 238.024C134.119 237.032 133.871 235.896 133.871 234.616C133.871 233.336 134.119 232.208 134.615 231.232C135.127 230.24 135.815 229.464 136.679 228.904C137.543 228.328 138.527 228.04 139.631 228.04C140.255 228.04 140.823 228.136 141.335 228.328C141.863 228.504 142.319 228.752 142.703 229.072C143.103 229.392 143.439 229.76 143.711 230.176C143.983 230.592 144.175 231.04 144.287 231.52L143.567 231.4V228.304H146.951V241H143.519V237.952L144.287 237.88C144.159 238.328 143.951 238.752 143.663 239.152C143.375 239.552 143.015 239.912 142.583 240.232C142.167 240.536 141.695 240.784 141.167 240.976C140.639 241.152 140.079 241.24 139.487 241.24ZM140.423 238.288C141.063 238.288 141.623 238.136 142.103 237.832C142.583 237.528 142.951 237.104 143.207 236.56C143.479 236 143.615 235.352 143.615 234.616C143.615 233.896 143.479 233.264 143.207 232.72C142.951 232.176 142.583 231.752 142.103 231.448C141.623 231.128 141.063 230.968 140.423 230.968C139.799 230.968 139.247 231.128 138.767 231.448C138.303 231.752 137.935 232.176 137.663 232.72C137.391 233.264 137.255 233.896 137.255 234.616C137.255 235.352 137.391 236 137.663 236.56C137.935 237.104 138.303 237.528 138.767 237.832C139.247 238.136 139.799 238.288 140.423 238.288ZM153.608 237.184L152.6 234.376L158.6 228.304H163.088L153.608 237.184ZM150.368 241V223.24H153.776V241H150.368ZM158.96 241L154.4 235.264L156.8 233.344L163.064 241H158.96ZM164.829 241V223.24H168.189V230.896L167.517 231.184C167.693 230.608 168.005 230.088 168.453 229.624C168.917 229.144 169.469 228.76 170.109 228.472C170.749 228.184 171.421 228.04 172.125 228.04C173.085 228.04 173.885 228.232 174.525 228.616C175.181 229 175.669 229.584 175.989 230.368C176.325 231.136 176.493 232.088 176.493 233.224V241H173.085V233.488C173.085 232.912 173.005 232.432 172.845 232.048C172.685 231.664 172.437 231.384 172.101 231.208C171.781 231.016 171.381 230.936 170.901 230.968C170.517 230.968 170.157 231.032 169.821 231.16C169.501 231.272 169.221 231.44 168.981 231.664C168.757 231.888 168.573 232.144 168.429 232.432C168.301 232.72 168.237 233.032 168.237 233.368V241H166.557C166.189 241 165.861 241 165.573 241C165.285 241 165.037 241 164.829 241ZM184.031 241.24C182.847 241.24 181.791 241.048 180.863 240.664C179.951 240.264 179.215 239.72 178.655 239.032L180.767 237.208C181.263 237.736 181.815 238.12 182.423 238.36C183.031 238.584 183.639 238.696 184.247 238.696C184.487 238.696 184.703 238.672 184.895 238.624C185.103 238.56 185.279 238.48 185.423 238.384C185.567 238.272 185.671 238.144 185.735 238C185.815 237.84 185.855 237.672 185.855 237.496C185.855 237.144 185.711 236.864 185.423 236.656C185.263 236.576 185.015 236.48 184.679 236.368C184.343 236.24 183.911 236.104 183.383 235.96C182.567 235.752 181.871 235.512 181.295 235.24C180.735 234.952 180.287 234.632 179.951 234.28C179.663 233.944 179.439 233.584 179.279 233.2C179.135 232.8 179.063 232.36 179.063 231.88C179.063 231.304 179.191 230.784 179.447 230.32C179.703 229.84 180.055 229.432 180.503 229.096C180.967 228.76 181.495 228.504 182.087 228.328C182.679 228.136 183.303 228.04 183.959 228.04C184.615 228.04 185.255 228.12 185.879 228.28C186.503 228.44 187.079 228.672 187.607 228.976C188.151 229.264 188.623 229.608 189.023 230.008L187.199 232.024C186.911 231.752 186.583 231.504 186.215 231.28C185.863 231.056 185.495 230.88 185.111 230.752C184.727 230.624 184.383 230.56 184.079 230.56C183.807 230.56 183.559 230.584 183.335 230.632C183.127 230.68 182.951 230.752 182.807 230.848C182.663 230.944 182.551 231.072 182.471 231.232C182.407 231.376 182.375 231.536 182.375 231.712C182.375 231.888 182.415 232.056 182.495 232.216C182.591 232.376 182.719 232.512 182.879 232.624C183.055 232.72 183.311 232.832 183.647 232.96C183.999 233.088 184.471 233.232 185.063 233.392C185.831 233.6 186.479 233.832 187.007 234.088C187.551 234.344 187.983 234.64 188.303 234.976C188.575 235.264 188.775 235.592 188.903 235.96C189.031 236.328 189.095 236.736 189.095 237.184C189.095 237.968 188.871 238.672 188.423 239.296C187.991 239.904 187.391 240.384 186.623 240.736C185.855 241.072 184.991 241.24 184.031 241.24Z" fill="white"/>
<defs>
<linearGradient id="paint0_linear_3550_109467" x1="-269.503" y1="-287.368" x2="690.308" y2="-6.32762" gradientUnits="userSpaceOnUse">
<stop stop-color="white"/>
<stop offset="1" stop-color="white" stop-opacity="0"/>
</linearGradient>
<linearGradient id="paint1_linear_3550_109467" x1="-108.29" y1="-144.912" x2="1174.32" y2="202.511" gradientUnits="userSpaceOnUse">
<stop stop-color="#E5E5E5"/>
<stop offset="1" stop-color="white" stop-opacity="0"/>
</linearGradient>
<linearGradient id="paint2_linear_3550_109467" x1="-231.415" y1="-26.3158" x2="322.398" y2="455.023" gradientUnits="userSpaceOnUse">
<stop stop-color="white"/>
<stop offset="1" stop-color="white" stop-opacity="0"/>
</linearGradient>
<linearGradient id="paint3_linear_3550_109467" x1="-81.0219" y1="18.4561" x2="699.029" y2="645.636" gradientUnits="userSpaceOnUse">
<stop stop-color="#E5E5E5"/>
<stop offset="1" stop-color="white" stop-opacity="0"/>
</linearGradient>
<linearGradient id="paint4_linear_3550_109467" x1="-231.415" y1="81.6842" x2="322.398" y2="563.023" gradientUnits="userSpaceOnUse">
<stop stop-color="white"/>
<stop offset="1" stop-color="white" stop-opacity="0"/>
</linearGradient>
<linearGradient id="paint5_linear_3550_109467" x1="-81.0219" y1="126.456" x2="699.029" y2="753.636" gradientUnits="userSpaceOnUse">
<stop stop-color="#E5E5E5"/>
<stop offset="1" stop-color="white" stop-opacity="0"/>
</linearGradient>
</defs>
</svg>
