<svg width="24" height="24" viewBox="0 0 24 24" fill="none" xmlns="http://www.w3.org/2000/svg">
<path d="M8.04335 8.98664C8.69535 8.3373 9.75135 8.33864 10.3993 8.98664L14.7767 13.3653L21.3327 6.8093V6.33464C21.3327 4.31197 19.6887 2.66797 17.666 2.66797H6.33268C4.31002 2.66797 2.66602 4.31197 2.66602 6.33464V14.3653L8.04335 8.98664Z" fill="white"/>
<path d="M15.9553 15.0131C15.3047 15.6624 14.2487 15.6611 13.5993 15.0131L9.22202 10.6344L2.66602 17.1917V17.6664C2.66602 19.6891 4.31002 21.3331 6.33268 21.3331H17.666C19.6887 21.3331 21.3327 19.6891 21.3327 17.6664V9.63574L15.9553 15.0131Z" fill="white"/>
</svg>
