<svg width="48" height="48" viewBox="0 0 48 48" fill="none" xmlns="http://www.w3.org/2000/svg">
<path d="M39.333 5.33398H37.9997C35.4223 5.33398 33.333 7.42332 33.333 10.0007V38.0007C33.333 40.578 35.4223 42.6673 37.9997 42.6673H39.333C41.9103 42.6673 43.9997 40.578 43.9997 38.0007V10.0007C43.9997 7.42332 41.9103 5.33398 39.333 5.33398Z" fill="white"/>
<path d="M24.666 18.668H23.3327C20.7554 18.668 18.666 20.7573 18.666 23.3346V38.0013C18.666 40.5786 20.7554 42.668 23.3327 42.668H24.666C27.2433 42.668 29.3327 40.5786 29.3327 38.0013V23.3346C29.3327 20.7573 27.2433 18.668 24.666 18.668Z" fill="white"/>
<path d="M10 29.334H8.66667C6.08934 29.334 4 31.4233 4 34.0007V38.0007C4 40.578 6.08934 42.6673 8.66667 42.6673H10C12.5773 42.6673 14.6667 40.578 14.6667 38.0007V34.0007C14.6667 31.4233 12.5773 29.334 10 29.334Z" fill="white"/>
<path d="M23.3327 5.33594C22.8207 5.33594 22.3087 5.53061 21.9194 5.92261L9.3327 18.5093V16.6719C9.3327 15.5679 8.4367 14.6719 7.3327 14.6719C6.2287 14.6719 5.3327 15.5679 5.3327 16.6719V23.3359C5.3327 24.4399 6.2287 25.3359 7.3327 25.3359L13.9994 25.3359C15.1034 25.3359 15.9994 24.4399 15.9994 23.3359C15.9994 22.2319 15.1034 21.3359 13.9994 21.3359H12.162L24.746 8.74927C25.5274 7.96794 25.5274 6.70127 24.746 5.91994C24.3567 5.53061 23.8447 5.33327 23.3327 5.33327V5.33594Z" fill="white"/>
</svg>
