<svg width="409" height="252" viewBox="0 0 409 252" fill="none" xmlns="http://www.w3.org/2000/svg">
<path d="M0.5 8C0.5 3.58172 4.08172 0 8.5 0H400.5C404.918 0 408.5 3.58172 408.5 8V244C408.5 248.418 404.918 252 400.5 252H8.5C4.08172 252 0.5 248.418 0.5 244V8Z" fill="url(#paint0_linear_3550_102094)" fill-opacity="0.1"/>
<path d="M8.5 0.5H400.5C404.642 0.5 408 3.85787 408 8V244C408 248.142 404.642 251.5 400.5 251.5H8.5C4.35786 251.5 1 248.142 1 244V8L1.00977 7.61426C1.21054 3.65139 4.48724 0.5 8.5 0.5Z" stroke="url(#paint1_linear_3550_102094)" stroke-opacity="0.2"/>
<path d="M34.2913 209.98C33.6673 209.22 33.3553 208.16 33.3553 206.8C33.3553 205.44 33.6673 204.38 34.2913 203.62C34.9153 202.86 35.6833 202.48 36.5953 202.48C37.5073 202.48 38.2753 202.86 38.8993 203.62C39.5233 204.38 39.8353 205.44 39.8353 206.8C39.8353 208.16 39.5233 209.22 38.8993 209.98C38.2753 210.74 37.5073 211.12 36.5953 211.12C35.6833 211.12 34.9153 210.74 34.2913 209.98ZM38.2153 204.28C37.7753 203.68 37.2353 203.38 36.5953 203.38C35.9553 203.38 35.4153 203.68 34.9753 204.28C34.5353 204.88 34.3153 205.72 34.3153 206.8C34.3153 207.88 34.5353 208.72 34.9753 209.32C35.4153 209.92 35.9553 210.22 36.5953 210.22C37.2353 210.22 37.7753 209.92 38.2153 209.32C38.6553 208.72 38.8753 207.88 38.8753 206.8C38.8753 205.72 38.6553 204.88 38.2153 204.28Z" fill="white"/>
<path d="M56.5 207H391.5" stroke="#E5E5E5" stroke-opacity="0.2"/>
<path d="M23.9334 182V181.22L27.3534 177.56C27.6094 177.28 27.7934 177.032 27.9054 176.816C28.0174 176.592 28.0734 176.32 28.0734 176C28.0734 175.52 27.9214 175.132 27.6174 174.836C27.3214 174.532 26.9334 174.38 26.4534 174.38C25.9974 174.38 25.6134 174.548 25.3014 174.884C24.9894 175.22 24.8334 175.652 24.8334 176.18H23.8734C23.8734 175.396 24.1134 174.752 24.5934 174.248C25.0814 173.736 25.7014 173.48 26.4534 173.48C27.2054 173.48 27.8214 173.716 28.3014 174.188C28.7894 174.652 29.0334 175.256 29.0334 176C29.0334 176.464 28.9494 176.86 28.7814 177.188C28.6134 177.508 28.3574 177.852 28.0134 178.22L25.3134 181.04V181.1H29.2134V182H23.9334ZM30.6553 182V173.6H32.3953L34.9753 180.92H35.2153L37.7953 173.6H39.5353V182H38.5753V174.86H38.3353L35.8153 182H34.3753L31.8553 174.86H31.6153V182H30.6553Z" fill="white"/>
<path d="M56.5 178H391.5" stroke="#E5E5E5" stroke-opacity="0.2" stroke-dasharray="4 4"/>
<path d="M23.4548 151.08V150.36L26.7548 144.6H28.3148V150.24H29.3948V151.08H28.3148V153H27.3548V151.08H23.4548ZM24.6548 150.24H27.3548V145.86H27.1148L24.6548 150.18V150.24ZM30.6553 153V144.6H32.3953L34.9753 151.92H35.2153L37.7953 144.6H39.5353V153H38.5753V145.86H38.3353L35.8153 153H34.3753L31.8553 145.86H31.6153V153H30.6553Z" fill="white"/>
<path d="M56.5 149H391.5" stroke="#E5E5E5" stroke-opacity="0.2" stroke-dasharray="4 4"/>
<path d="M23.9405 119.68L26.5805 115.6H27.6605L25.6805 118.72H25.7405L25.9685 118.66C26.1285 118.62 26.3125 118.6 26.5205 118.6C27.2805 118.6 27.9205 118.856 28.4405 119.368C28.9605 119.88 29.2205 120.524 29.2205 121.3C29.2205 122.084 28.9405 122.752 28.3805 123.304C27.8285 123.848 27.1485 124.12 26.3405 124.12C25.5325 124.12 24.8485 123.848 24.2885 123.304C23.7365 122.752 23.4605 122.084 23.4605 121.3C23.4605 120.716 23.6205 120.176 23.9405 119.68ZM24.9725 122.668C25.3405 123.036 25.7965 123.22 26.3405 123.22C26.8845 123.22 27.3405 123.036 27.7085 122.668C28.0765 122.292 28.2605 121.836 28.2605 121.3C28.2605 120.764 28.0765 120.312 27.7085 119.944C27.3405 119.568 26.8845 119.38 26.3405 119.38C25.7965 119.38 25.3405 119.568 24.9725 119.944C24.6045 120.312 24.4205 120.764 24.4205 121.3C24.4205 121.836 24.6045 122.292 24.9725 122.668ZM30.6553 124V115.6H32.3953L34.9753 122.92H35.2153L37.7953 115.6H39.5353V124H38.5753V116.86H38.3353L35.8153 124H34.3753L31.8553 116.86H31.6153V124H30.6553Z" fill="white"/>
<path d="M56.5 120H391.5" stroke="#E5E5E5" stroke-opacity="0.2" stroke-dasharray="4 4"/>
<path d="M24.9005 90.68V90.62C24.6845 90.5 24.4925 90.356 24.3245 90.188C23.9485 89.812 23.7605 89.356 23.7605 88.82C23.7605 88.156 24.0045 87.6 24.4925 87.152C24.9805 86.704 25.5965 86.48 26.3405 86.48C27.0845 86.48 27.7005 86.704 28.1885 87.152C28.6765 87.6 28.9205 88.156 28.9205 88.82C28.9205 89.348 28.7285 89.804 28.3445 90.188C28.1845 90.348 27.9965 90.492 27.7805 90.62V90.68C28.0045 90.784 28.2245 90.936 28.4405 91.136C28.8805 91.576 29.1005 92.104 29.1005 92.72C29.1005 93.368 28.8405 93.932 28.3205 94.412C27.8085 94.884 27.1485 95.12 26.3405 95.12C25.5245 95.12 24.8605 94.884 24.3485 94.412C23.8365 93.94 23.5805 93.376 23.5805 92.72C23.5805 92.088 23.8005 91.56 24.2405 91.136C24.4405 90.936 24.6605 90.784 24.9005 90.68ZM25.1525 87.8C24.8645 88.072 24.7205 88.412 24.7205 88.82C24.7205 89.228 24.8645 89.572 25.1525 89.852C25.4485 90.124 25.8445 90.26 26.3405 90.26C26.8365 90.26 27.2285 90.124 27.5165 89.852C27.8125 89.572 27.9605 89.228 27.9605 88.82C27.9605 88.412 27.8125 88.072 27.5165 87.8C27.2285 87.52 26.8365 87.38 26.3405 87.38C25.8445 87.38 25.4485 87.52 25.1525 87.8ZM25.0565 91.544C24.7125 91.84 24.5405 92.212 24.5405 92.66C24.5405 93.108 24.7125 93.48 25.0565 93.776C25.4005 94.072 25.8285 94.22 26.3405 94.22C26.8525 94.22 27.2805 94.072 27.6245 93.776C27.9685 93.48 28.1405 93.108 28.1405 92.66C28.1405 92.212 27.9685 91.84 27.6245 91.544C27.2805 91.248 26.8525 91.1 26.3405 91.1C25.8285 91.1 25.4005 91.248 25.0565 91.544ZM30.6553 95V86.6H32.3953L34.9753 93.92H35.2153L37.7953 86.6H39.5353V95H38.5753V87.86H38.3353L35.8153 95H34.3753L31.8553 87.86H31.6153V95H30.6553Z" fill="white"/>
<path d="M56.5 91H391.5" stroke="#E5E5E5" stroke-opacity="0.2" stroke-dasharray="4 4"/>
<path d="M19.9711 67V60.4H18.1711V59.56H19.6111C19.8511 59.56 19.9711 59.44 19.9711 59.2V58.6H20.9311V67H19.9711ZM23.4866 65.98C22.8626 65.22 22.5506 64.16 22.5506 62.8C22.5506 61.44 22.8626 60.38 23.4866 59.62C24.1106 58.86 24.8786 58.48 25.7906 58.48C26.7026 58.48 27.4706 58.86 28.0946 59.62C28.7186 60.38 29.0306 61.44 29.0306 62.8C29.0306 64.16 28.7186 65.22 28.0946 65.98C27.4706 66.74 26.7026 67.12 25.7906 67.12C24.8786 67.12 24.1106 66.74 23.4866 65.98ZM27.4106 60.28C26.9706 59.68 26.4306 59.38 25.7906 59.38C25.1506 59.38 24.6106 59.68 24.1706 60.28C23.7306 60.88 23.5106 61.72 23.5106 62.8C23.5106 63.88 23.7306 64.72 24.1706 65.32C24.6106 65.92 25.1506 66.22 25.7906 66.22C26.4306 66.22 26.9706 65.92 27.4106 65.32C27.8506 64.72 28.0706 63.88 28.0706 62.8C28.0706 61.72 27.8506 60.88 27.4106 60.28ZM30.6553 67V58.6H32.3953L34.9753 65.92H35.2153L37.7953 58.6H39.5353V67H38.5753V59.86H38.3353L35.8153 67H34.3753L31.8553 59.86H31.6153V67H30.6553Z" fill="white"/>
<path d="M56.5 63H391.5" stroke="#E5E5E5" stroke-opacity="0.2" stroke-dasharray="4 4"/>
<circle cx="253.5" cy="30" r="4" fill="#FF0000"/>
<path d="M266.13 32.13H267.25C267.25 32.6807 267.479 33.1473 267.936 33.53C268.403 33.9033 269.037 34.09 269.84 34.09C270.661 34.09 271.273 33.9313 271.674 33.614C272.085 33.2873 272.29 32.8627 272.29 32.34C272.29 31.4813 271.73 30.9447 270.61 30.73L268.72 30.38C267.133 30.0813 266.34 29.2413 266.34 27.86C266.34 27.0387 266.643 26.3667 267.25 25.844C267.857 25.3213 268.673 25.06 269.7 25.06C270.792 25.06 271.669 25.3493 272.332 25.928C273.004 26.4973 273.34 27.2113 273.34 28.07H272.22C272.22 27.5193 271.991 27.0573 271.534 26.684C271.086 26.3013 270.475 26.11 269.7 26.11C268.991 26.11 268.44 26.2733 268.048 26.6C267.656 26.9267 267.46 27.3467 267.46 27.86C267.46 28.6813 267.997 29.1947 269.07 29.4L270.61 29.68C271.581 29.8573 272.29 30.1607 272.738 30.59C273.186 31.0193 273.41 31.6027 273.41 32.34C273.41 33.1707 273.097 33.8473 272.472 34.37C271.847 34.8833 270.969 35.14 269.84 35.14C268.72 35.14 267.819 34.8507 267.138 34.272C266.466 33.684 266.13 32.97 266.13 32.13ZM279.643 35L279.503 34.16H279.433C279.303 34.3467 279.135 34.51 278.929 34.65C278.5 34.9767 277.945 35.14 277.263 35.14C276.535 35.14 275.943 34.9393 275.485 34.538C275.037 34.1367 274.813 33.614 274.813 32.97C274.813 32.27 275.042 31.724 275.499 31.332C275.966 30.9307 276.671 30.73 277.613 30.73H279.503V30.52C279.503 29.988 279.354 29.5773 279.055 29.288C278.766 28.9893 278.355 28.84 277.823 28.84C277.319 28.84 276.909 28.9567 276.591 29.19C276.283 29.414 276.111 29.694 276.073 30.03H275.023C275.061 29.4327 275.327 28.924 275.821 28.504C276.325 28.0747 276.993 27.86 277.823 27.86C278.673 27.86 279.34 28.0933 279.825 28.56C280.311 29.0267 280.553 29.68 280.553 30.52V35H279.643ZM279.503 31.99V31.71H277.613C277.016 31.71 276.573 31.8267 276.283 32.06C276.003 32.2933 275.863 32.5967 275.863 32.97C275.863 33.334 275.985 33.6233 276.227 33.838C276.47 34.0527 276.815 34.16 277.263 34.16C277.963 34.16 278.509 33.9687 278.901 33.586C279.303 33.194 279.503 32.662 279.503 31.99ZM282.587 35V25.2H283.637V35H282.587ZM290.492 33.04H291.612C291.369 33.712 290.986 34.23 290.464 34.594C289.95 34.958 289.33 35.14 288.602 35.14C287.64 35.14 286.838 34.804 286.194 34.132C285.559 33.4507 285.242 32.5733 285.242 31.5C285.242 30.4267 285.559 29.554 286.194 28.882C286.838 28.2007 287.64 27.86 288.602 27.86C289.526 27.86 290.291 28.1773 290.898 28.812C291.514 29.4467 291.822 30.2493 291.822 31.22C291.822 31.3693 291.808 31.57 291.78 31.822L291.752 31.99H286.292C286.366 32.6433 286.618 33.1707 287.048 33.572C287.486 33.964 288.004 34.16 288.602 34.16C289.022 34.16 289.395 34.062 289.722 33.866C290.058 33.67 290.314 33.3947 290.492 33.04ZM286.292 31.01H290.772C290.734 30.3753 290.51 29.8573 290.1 29.456C289.698 29.0453 289.199 28.84 288.602 28.84C287.976 28.84 287.454 29.0407 287.034 29.442C286.614 29.8433 286.366 30.366 286.292 31.01ZM292.799 32.97H293.849C293.849 33.2967 294.003 33.5767 294.311 33.81C294.628 34.0433 295.058 34.16 295.599 34.16C296.131 34.16 296.542 34.062 296.831 33.866C297.13 33.6607 297.279 33.4087 297.279 33.11C297.279 32.5593 296.882 32.2093 296.089 32.06L294.899 31.85C293.592 31.6353 292.939 30.982 292.939 29.89C292.939 29.302 293.163 28.8167 293.611 28.434C294.059 28.0513 294.698 27.86 295.529 27.86C296.341 27.86 296.999 28.0747 297.503 28.504C298.007 28.9333 298.259 29.442 298.259 30.03H297.209C297.209 29.7033 297.055 29.4233 296.747 29.19C296.448 28.9567 296.042 28.84 295.529 28.84C295.025 28.84 294.642 28.9427 294.381 29.148C294.12 29.344 293.989 29.5913 293.989 29.89C293.989 30.4033 294.362 30.73 295.109 30.87L296.299 31.08C296.999 31.2107 297.512 31.444 297.839 31.78C298.166 32.1067 298.329 32.55 298.329 33.11C298.329 33.698 298.091 34.1833 297.615 34.566C297.148 34.9487 296.476 35.14 295.599 35.14C294.759 35.14 294.082 34.9253 293.569 34.496C293.056 34.0667 292.799 33.558 292.799 32.97Z" fill="white"/>
<circle cx="316.5" cy="30" r="4" fill="#16BA84"/>
<path d="M337.04 31.78H338.23C337.95 32.816 337.418 33.6373 336.634 34.244C335.859 34.8413 334.945 35.14 333.89 35.14C332.574 35.14 331.463 34.6687 330.558 33.726C329.653 32.7833 329.2 31.5747 329.2 30.1C329.2 28.6253 329.653 27.4167 330.558 26.474C331.463 25.5313 332.574 25.06 333.89 25.06C334.935 25.06 335.85 25.3587 336.634 25.956C337.418 26.544 337.95 27.342 338.23 28.35H337.04C336.797 27.65 336.396 27.104 335.836 26.712C335.276 26.3107 334.627 26.11 333.89 26.11C332.891 26.11 332.047 26.4833 331.356 27.23C330.665 27.9673 330.32 28.924 330.32 30.1C330.32 31.276 330.665 32.2373 331.356 32.984C332.047 33.7213 332.891 34.09 333.89 34.09C334.627 34.09 335.276 33.8893 335.836 33.488C336.396 33.0773 336.797 32.508 337.04 31.78ZM345.041 34.132C344.406 34.804 343.608 35.14 342.647 35.14C341.685 35.14 340.883 34.804 340.239 34.132C339.604 33.4507 339.287 32.5733 339.287 31.5C339.287 30.4267 339.604 29.554 340.239 28.882C340.883 28.2007 341.685 27.86 342.647 27.86C343.608 27.86 344.406 28.2007 345.041 28.882C345.685 29.554 346.007 30.4267 346.007 31.5C346.007 32.5733 345.685 33.4507 345.041 34.132ZM340.995 33.418C341.443 33.9127 341.993 34.16 342.647 34.16C343.3 34.16 343.846 33.9127 344.285 33.418C344.733 32.9233 344.957 32.284 344.957 31.5C344.957 30.716 344.733 30.0767 344.285 29.582C343.846 29.0873 343.3 28.84 342.647 28.84C341.993 28.84 341.443 29.0873 340.995 29.582C340.556 30.0767 340.337 30.716 340.337 31.5C340.337 32.284 340.556 32.9233 340.995 33.418ZM347.611 35V25.2H348.661V35H347.611ZM350.755 35V25.2H351.805V35H350.755ZM358.66 33.04H359.78C359.537 33.712 359.154 34.23 358.632 34.594C358.118 34.958 357.498 35.14 356.77 35.14C355.808 35.14 355.006 34.804 354.362 34.132C353.727 33.4507 353.41 32.5733 353.41 31.5C353.41 30.4267 353.727 29.554 354.362 28.882C355.006 28.2007 355.808 27.86 356.77 27.86C357.694 27.86 358.459 28.1773 359.066 28.812C359.682 29.4467 359.99 30.2493 359.99 31.22C359.99 31.3693 359.976 31.57 359.948 31.822L359.92 31.99H354.46C354.534 32.6433 354.786 33.1707 355.216 33.572C355.654 33.964 356.172 34.16 356.77 34.16C357.19 34.16 357.563 34.062 357.89 33.866C358.226 33.67 358.482 33.3947 358.66 33.04ZM354.46 31.01H358.94C358.902 30.3753 358.678 29.8573 358.268 29.456C357.866 29.0453 357.367 28.84 356.77 28.84C356.144 28.84 355.622 29.0407 355.202 29.442C354.782 29.8433 354.534 30.366 354.46 31.01ZM366.497 32.69H367.547C367.37 33.4647 367.006 34.0667 366.455 34.496C365.914 34.9253 365.251 35.14 364.467 35.14C363.506 35.14 362.703 34.804 362.059 34.132C361.424 33.4507 361.107 32.5733 361.107 31.5C361.107 30.4267 361.424 29.554 362.059 28.882C362.703 28.2007 363.506 27.86 364.467 27.86C365.242 27.86 365.904 28.0747 366.455 28.504C367.006 28.924 367.37 29.5027 367.547 30.24H366.497C366.357 29.792 366.11 29.4467 365.755 29.204C365.4 28.9613 364.971 28.84 364.467 28.84C363.814 28.84 363.263 29.0873 362.815 29.582C362.376 30.0767 362.157 30.716 362.157 31.5C362.157 32.284 362.376 32.9233 362.815 33.418C363.263 33.9127 363.814 34.16 364.467 34.16C365.54 34.16 366.217 33.67 366.497 32.69ZM369.441 33.81V28.98H368.321V28H369.441V26.04H370.491V28H372.101V28.98H370.491V33.6C370.491 33.88 370.631 34.02 370.911 34.02H372.101V35H370.701C370.309 35 370.001 34.8927 369.777 34.678C369.553 34.4633 369.441 34.174 369.441 33.81ZM373.779 35V28H374.829V35H373.779ZM373.709 26.53V25.34H374.899V26.53H373.709ZM382.187 34.132C381.552 34.804 380.754 35.14 379.793 35.14C378.832 35.14 378.029 34.804 377.385 34.132C376.75 33.4507 376.433 32.5733 376.433 31.5C376.433 30.4267 376.75 29.554 377.385 28.882C378.029 28.2007 378.832 27.86 379.793 27.86C380.754 27.86 381.552 28.2007 382.187 28.882C382.831 29.554 383.153 30.4267 383.153 31.5C383.153 32.5733 382.831 33.4507 382.187 34.132ZM378.141 33.418C378.589 33.9127 379.14 34.16 379.793 34.16C380.446 34.16 380.992 33.9127 381.431 33.418C381.879 32.9233 382.103 32.284 382.103 31.5C382.103 30.716 381.879 30.0767 381.431 29.582C380.992 29.0873 380.446 28.84 379.793 28.84C379.14 28.84 378.589 29.0873 378.141 29.582C377.702 30.0767 377.483 30.716 377.483 31.5C377.483 32.284 377.702 32.9233 378.141 33.418ZM384.687 35V28H385.597L385.737 28.77H385.807C385.956 28.5833 386.129 28.434 386.325 28.322C386.81 28.014 387.338 27.86 387.907 27.86C388.719 27.86 389.386 28.1353 389.909 28.686C390.441 29.2273 390.707 29.932 390.707 30.8V35H389.657V30.8C389.657 30.24 389.475 29.7733 389.111 29.4C388.747 29.0267 388.299 28.84 387.767 28.84C387.207 28.84 386.726 29.036 386.325 29.428C385.933 29.8107 385.737 30.268 385.737 30.8V35H384.687Z" fill="white"/>
<path d="M51.419 230V221.6H53.039L56.819 228.86H57.059V221.6H58.019V230H56.399L52.619 222.74H52.379V230H51.419ZM64.3905 229.256C63.8465 229.832 63.1625 230.12 62.3385 230.12C61.5145 230.12 60.8265 229.832 60.2745 229.256C59.7305 228.672 59.4585 227.92 59.4585 227C59.4585 226.08 59.7305 225.332 60.2745 224.756C60.8265 224.172 61.5145 223.88 62.3385 223.88C63.1625 223.88 63.8465 224.172 64.3905 224.756C64.9425 225.332 65.2185 226.08 65.2185 227C65.2185 227.92 64.9425 228.672 64.3905 229.256ZM60.9225 228.644C61.3065 229.068 61.7785 229.28 62.3385 229.28C62.8985 229.28 63.3665 229.068 63.7425 228.644C64.1265 228.22 64.3185 227.672 64.3185 227C64.3185 226.328 64.1265 225.78 63.7425 225.356C63.3665 224.932 62.8985 224.72 62.3385 224.72C61.7785 224.72 61.3065 224.932 60.9225 225.356C60.5465 225.78 60.3585 226.328 60.3585 227C60.3585 227.672 60.5465 228.22 60.9225 228.644ZM67.8562 230L65.6962 224H66.6562L68.4562 229.04H68.6962L70.4962 224H71.4562L69.2962 230H67.8562ZM74.6385 230V229.22L78.0585 225.56C78.3145 225.28 78.4985 225.032 78.6105 224.816C78.7225 224.592 78.7785 224.32 78.7785 224C78.7785 223.52 78.6265 223.132 78.3225 222.836C78.0265 222.532 77.6385 222.38 77.1585 222.38C76.7025 222.38 76.3185 222.548 76.0065 222.884C75.6945 223.22 75.5385 223.652 75.5385 224.18H74.5785C74.5785 223.396 74.8185 222.752 75.2985 222.248C75.7865 221.736 76.4065 221.48 77.1585 221.48C77.9105 221.48 78.5265 221.716 79.0065 222.188C79.4945 222.652 79.7385 223.256 79.7385 224C79.7385 224.464 79.6545 224.86 79.4865 225.188C79.3185 225.508 79.0625 225.852 78.7185 226.22L76.0185 229.04V229.1H79.9185V230H74.6385ZM80.2771 228.08V227.36L83.5771 221.6H85.1371V227.24H86.2171V228.08H85.1371V230H84.1771V228.08H80.2771ZM81.4771 227.24H84.1771V222.86H83.9371L81.4771 227.18V227.24Z" fill="white"/>
<path d="M112.23 230V221.6H115.05C116.218 221.6 117.178 221.996 117.93 222.788C118.69 223.572 119.07 224.576 119.07 225.8C119.07 227.024 118.69 228.032 117.93 228.824C117.178 229.608 116.218 230 115.05 230H112.23ZM113.19 229.1H115.05C115.93 229.1 116.658 228.796 117.234 228.188C117.818 227.572 118.11 226.776 118.11 225.8C118.11 224.824 117.818 224.032 117.234 223.424C116.658 222.808 115.93 222.5 115.05 222.5H113.19V229.1ZM124.652 228.32H125.612C125.404 228.896 125.076 229.34 124.628 229.652C124.188 229.964 123.656 230.12 123.032 230.12C122.208 230.12 121.52 229.832 120.968 229.256C120.424 228.672 120.152 227.92 120.152 227C120.152 226.08 120.424 225.332 120.968 224.756C121.52 224.172 122.208 223.88 123.032 223.88C123.824 223.88 124.48 224.152 125 224.696C125.528 225.24 125.792 225.928 125.792 226.76C125.792 226.888 125.78 227.06 125.756 227.276L125.732 227.42H121.052C121.116 227.98 121.332 228.432 121.7 228.776C122.076 229.112 122.52 229.28 123.032 229.28C123.392 229.28 123.712 229.196 123.992 229.028C124.28 228.86 124.5 228.624 124.652 228.32ZM121.052 226.58H124.892C124.86 226.036 124.668 225.592 124.316 225.248C123.972 224.896 123.544 224.72 123.032 224.72C122.496 224.72 122.048 224.892 121.688 225.236C121.328 225.58 121.116 226.028 121.052 226.58ZM131.37 228.02H132.27C132.118 228.684 131.806 229.2 131.334 229.568C130.87 229.936 130.302 230.12 129.63 230.12C128.806 230.12 128.118 229.832 127.566 229.256C127.022 228.672 126.75 227.92 126.75 227C126.75 226.08 127.022 225.332 127.566 224.756C128.118 224.172 128.806 223.88 129.63 223.88C130.294 223.88 130.862 224.064 131.334 224.432C131.806 224.792 132.118 225.288 132.27 225.92H131.37C131.25 225.536 131.038 225.24 130.734 225.032C130.43 224.824 130.062 224.72 129.63 224.72C129.07 224.72 128.598 224.932 128.214 225.356C127.838 225.78 127.65 226.328 127.65 227C127.65 227.672 127.838 228.22 128.214 228.644C128.598 229.068 129.07 229.28 129.63 229.28C130.55 229.28 131.13 228.86 131.37 228.02ZM136.058 230V229.22L139.478 225.56C139.734 225.28 139.918 225.032 140.03 224.816C140.142 224.592 140.198 224.32 140.198 224C140.198 223.52 140.046 223.132 139.742 222.836C139.446 222.532 139.058 222.38 138.578 222.38C138.122 222.38 137.738 222.548 137.426 222.884C137.114 223.22 136.958 223.652 136.958 224.18H135.998C135.998 223.396 136.238 222.752 136.718 222.248C137.206 221.736 137.826 221.48 138.578 221.48C139.33 221.48 139.946 221.716 140.426 222.188C140.914 222.652 141.158 223.256 141.158 224C141.158 224.464 141.074 224.86 140.906 225.188C140.738 225.508 140.482 225.852 140.138 226.22L137.438 229.04V229.1H141.338V230H136.058ZM141.697 228.08V227.36L144.997 221.6H146.557V227.24H147.637V228.08H146.557V230H145.597V228.08H141.697ZM142.897 227.24H145.597V222.86H145.357L142.897 227.18V227.24Z" fill="white"/>
<path d="M173.468 230V229.1H175.508C175.692 229.1 175.836 229.048 175.94 228.944C176.052 228.832 176.108 228.684 176.108 228.5V221.6H177.068V228.62C177.068 229.052 176.944 229.392 176.696 229.64C176.456 229.88 176.1 230 175.628 230H173.468ZM182.705 230L182.585 229.28H182.525C182.413 229.44 182.269 229.58 182.093 229.7C181.725 229.98 181.249 230.12 180.665 230.12C180.041 230.12 179.533 229.948 179.141 229.604C178.757 229.26 178.565 228.812 178.565 228.26C178.565 227.66 178.761 227.192 179.153 226.856C179.553 226.512 180.157 226.34 180.965 226.34H182.585V226.16C182.585 225.704 182.457 225.352 182.201 225.104C181.953 224.848 181.601 224.72 181.145 224.72C180.713 224.72 180.361 224.82 180.089 225.02C179.825 225.212 179.677 225.452 179.645 225.74H178.745C178.777 225.228 179.005 224.792 179.429 224.432C179.861 224.064 180.433 223.88 181.145 223.88C181.873 223.88 182.445 224.08 182.861 224.48C183.277 224.88 183.485 225.44 183.485 226.16V230H182.705ZM182.585 227.42V227.18H180.965C180.453 227.18 180.073 227.28 179.825 227.48C179.585 227.68 179.465 227.94 179.465 228.26C179.465 228.572 179.569 228.82 179.777 229.004C179.985 229.188 180.281 229.28 180.665 229.28C181.265 229.28 181.733 229.116 182.069 228.788C182.413 228.452 182.585 227.996 182.585 227.42ZM185.168 230V224H185.948L186.068 224.66H186.128C186.256 224.5 186.404 224.372 186.572 224.276C186.988 224.012 187.44 223.88 187.928 223.88C188.624 223.88 189.196 224.116 189.644 224.588C190.1 225.052 190.328 225.656 190.328 226.4V230H189.428V226.4C189.428 225.92 189.272 225.52 188.96 225.2C188.648 224.88 188.264 224.72 187.808 224.72C187.328 224.72 186.916 224.888 186.572 225.224C186.236 225.552 186.068 225.944 186.068 226.4V230H185.168ZM194.598 230V229.22L198.018 225.56C198.274 225.28 198.458 225.032 198.57 224.816C198.682 224.592 198.738 224.32 198.738 224C198.738 223.52 198.586 223.132 198.282 222.836C197.986 222.532 197.598 222.38 197.118 222.38C196.662 222.38 196.278 222.548 195.966 222.884C195.654 223.22 195.498 223.652 195.498 224.18H194.538C194.538 223.396 194.778 222.752 195.258 222.248C195.746 221.736 196.366 221.48 197.118 221.48C197.87 221.48 198.486 221.716 198.966 222.188C199.454 222.652 199.698 223.256 199.698 224C199.698 224.464 199.614 224.86 199.446 225.188C199.278 225.508 199.022 225.852 198.678 226.22L195.978 229.04V229.1H199.878V230H194.598ZM200.899 227.78H201.859C201.947 228.228 202.151 228.58 202.471 228.836C202.799 229.092 203.195 229.22 203.659 229.22C204.203 229.22 204.659 229.036 205.027 228.668C205.395 228.292 205.579 227.824 205.579 227.264C205.579 226.688 205.407 226.22 205.063 225.86C204.719 225.5 204.271 225.32 203.719 225.32C203.015 225.32 202.475 225.56 202.099 226.04H201.079L201.559 221.6H206.059V222.5H202.363L202.099 224.96H202.159C202.567 224.6 203.127 224.42 203.839 224.42C204.575 224.42 205.207 224.696 205.735 225.248C206.271 225.792 206.539 226.464 206.539 227.264C206.539 228.096 206.267 228.78 205.723 229.316C205.187 229.852 204.499 230.12 203.659 230.12C202.939 230.12 202.323 229.912 201.811 229.496C201.299 229.08 200.995 228.508 200.899 227.78Z" fill="white"/>
<path d="M233.903 230V221.6H239.183V222.5H234.863V225.32H238.943V226.22H234.863V230H233.903ZM244.228 228.32H245.188C244.98 228.896 244.652 229.34 244.204 229.652C243.764 229.964 243.232 230.12 242.608 230.12C241.784 230.12 241.096 229.832 240.544 229.256C240 228.672 239.728 227.92 239.728 227C239.728 226.08 240 225.332 240.544 224.756C241.096 224.172 241.784 223.88 242.608 223.88C243.4 223.88 244.056 224.152 244.576 224.696C245.104 225.24 245.368 225.928 245.368 226.76C245.368 226.888 245.356 227.06 245.332 227.276L245.308 227.42H240.628C240.692 227.98 240.908 228.432 241.276 228.776C241.652 229.112 242.096 229.28 242.608 229.28C242.968 229.28 243.288 229.196 243.568 229.028C243.856 228.86 244.076 228.624 244.228 228.32ZM240.628 226.58H244.468C244.436 226.036 244.244 225.592 243.892 225.248C243.548 224.896 243.12 224.72 242.608 224.72C242.072 224.72 241.624 224.892 241.264 225.236C240.904 225.58 240.692 226.028 240.628 226.58ZM246.746 230V221.6H247.646V224.84H247.706C248.21 224.2 248.85 223.88 249.626 223.88C250.418 223.88 251.074 224.172 251.594 224.756C252.122 225.332 252.386 226.08 252.386 227C252.386 227.92 252.122 228.672 251.594 229.256C251.074 229.832 250.418 230.12 249.626 230.12C248.85 230.12 248.21 229.8 247.706 229.16H247.646L247.526 230H246.746ZM248.21 228.644C248.586 229.068 249.038 229.28 249.566 229.28C250.094 229.28 250.546 229.068 250.922 228.644C251.298 228.22 251.486 227.672 251.486 227C251.486 226.328 251.298 225.78 250.922 225.356C250.546 224.932 250.094 224.72 249.566 224.72C249.038 224.72 248.586 224.932 248.21 225.356C247.834 225.78 247.646 226.328 247.646 227C247.646 227.672 247.834 228.22 248.21 228.644ZM256.291 230V229.22L259.711 225.56C259.967 225.28 260.151 225.032 260.263 224.816C260.375 224.592 260.431 224.32 260.431 224C260.431 223.52 260.279 223.132 259.975 222.836C259.679 222.532 259.291 222.38 258.811 222.38C258.355 222.38 257.971 222.548 257.659 222.884C257.347 223.22 257.191 223.652 257.191 224.18H256.231C256.231 223.396 256.471 222.752 256.951 222.248C257.439 221.736 258.059 221.48 258.811 221.48C259.563 221.48 260.179 221.716 260.659 222.188C261.147 222.652 261.391 223.256 261.391 224C261.391 224.464 261.307 224.86 261.139 225.188C260.971 225.508 260.715 225.852 260.371 226.22L257.671 229.04V229.1H261.571V230H256.291ZM262.593 227.78H263.553C263.641 228.228 263.845 228.58 264.165 228.836C264.493 229.092 264.889 229.22 265.353 229.22C265.897 229.22 266.353 229.036 266.721 228.668C267.089 228.292 267.273 227.824 267.273 227.264C267.273 226.688 267.101 226.22 266.757 225.86C266.413 225.5 265.965 225.32 265.413 225.32C264.709 225.32 264.169 225.56 263.793 226.04H262.773L263.253 221.6H267.753V222.5H264.057L263.793 224.96H263.853C264.261 224.6 264.821 224.42 265.533 224.42C266.269 224.42 266.901 224.696 267.429 225.248C267.965 225.792 268.233 226.464 268.233 227.264C268.233 228.096 267.961 228.78 267.417 229.316C266.881 229.852 266.193 230.12 265.353 230.12C264.633 230.12 264.017 229.912 263.505 229.496C262.993 229.08 262.689 228.508 262.593 227.78Z" fill="white"/>
<path d="M294.067 230V221.6H295.807L298.387 228.92H298.627L301.207 221.6H302.947V230H301.987V222.86H301.747L299.227 230H297.787L295.267 222.86H295.027V230H294.067ZM308.652 230L308.532 229.28H308.472C308.36 229.44 308.216 229.58 308.04 229.7C307.672 229.98 307.196 230.12 306.612 230.12C305.988 230.12 305.48 229.948 305.088 229.604C304.704 229.26 304.512 228.812 304.512 228.26C304.512 227.66 304.708 227.192 305.1 226.856C305.5 226.512 306.104 226.34 306.912 226.34H308.532V226.16C308.532 225.704 308.404 225.352 308.148 225.104C307.9 224.848 307.548 224.72 307.092 224.72C306.66 224.72 306.308 224.82 306.036 225.02C305.772 225.212 305.624 225.452 305.592 225.74H304.692C304.724 225.228 304.952 224.792 305.376 224.432C305.808 224.064 306.38 223.88 307.092 223.88C307.82 223.88 308.392 224.08 308.808 224.48C309.224 224.88 309.432 225.44 309.432 226.16V230H308.652ZM308.532 227.42V227.18H306.912C306.4 227.18 306.02 227.28 305.772 227.48C305.532 227.68 305.412 227.94 305.412 228.26C305.412 228.572 305.516 228.82 305.724 229.004C305.932 229.188 306.228 229.28 306.612 229.28C307.212 229.28 307.68 229.116 308.016 228.788C308.36 228.452 308.532 227.996 308.532 227.42ZM311.115 230V224H311.895L312.015 224.6H312.075C312.219 224.392 312.367 224.24 312.519 224.144C312.679 224.048 312.911 224 313.215 224H314.235V224.84H313.335C312.911 224.84 312.583 224.956 312.351 225.188C312.127 225.412 312.015 225.736 312.015 226.16V230H311.115ZM317.416 230V229.22L320.836 225.56C321.092 225.28 321.276 225.032 321.388 224.816C321.5 224.592 321.556 224.32 321.556 224C321.556 223.52 321.404 223.132 321.1 222.836C320.804 222.532 320.416 222.38 319.936 222.38C319.48 222.38 319.096 222.548 318.784 222.884C318.472 223.22 318.316 223.652 318.316 224.18H317.356C317.356 223.396 317.596 222.752 318.076 222.248C318.564 221.736 319.184 221.48 319.936 221.48C320.688 221.48 321.304 221.716 321.784 222.188C322.272 222.652 322.516 223.256 322.516 224C322.516 224.464 322.432 224.86 322.264 225.188C322.096 225.508 321.84 225.852 321.496 226.22L318.796 229.04V229.1H322.696V230H317.416ZM323.718 227.78H324.678C324.766 228.228 324.97 228.58 325.29 228.836C325.618 229.092 326.014 229.22 326.478 229.22C327.022 229.22 327.478 229.036 327.846 228.668C328.214 228.292 328.398 227.824 328.398 227.264C328.398 226.688 328.226 226.22 327.882 225.86C327.538 225.5 327.09 225.32 326.538 225.32C325.834 225.32 325.294 225.56 324.918 226.04H323.898L324.378 221.6H328.878V222.5H325.182L324.918 224.96H324.978C325.386 224.6 325.946 224.42 326.658 224.42C327.394 224.42 328.026 224.696 328.554 225.248C329.09 225.792 329.358 226.464 329.358 227.264C329.358 228.096 329.086 228.78 328.542 229.316C328.006 229.852 327.318 230.12 326.478 230.12C325.758 230.12 325.142 229.912 324.63 229.496C324.118 229.08 323.814 228.508 323.718 227.78Z" fill="white"/>
<path d="M354.951 230L358.131 221.6H359.571L362.751 230H361.731L360.951 227.84H356.751L355.971 230H354.951ZM357.111 226.94H360.591L358.971 222.62H358.731L357.111 226.94ZM363.596 232.4V224H364.376L364.496 224.84H364.556C365.06 224.2 365.7 223.88 366.476 223.88C367.268 223.88 367.924 224.172 368.444 224.756C368.972 225.332 369.236 226.08 369.236 227C369.236 227.92 368.972 228.672 368.444 229.256C367.924 229.832 367.268 230.12 366.476 230.12C365.7 230.12 365.06 229.8 364.556 229.16H364.496V232.4H363.596ZM365.06 228.644C365.436 229.068 365.888 229.28 366.416 229.28C366.944 229.28 367.396 229.068 367.772 228.644C368.148 228.22 368.336 227.672 368.336 227C368.336 226.328 368.148 225.78 367.772 225.356C367.396 224.932 366.944 224.72 366.416 224.72C365.888 224.72 365.436 224.932 365.06 225.356C364.684 225.78 364.496 226.328 364.496 227C364.496 227.672 364.684 228.22 365.06 228.644ZM370.557 230V224H371.337L371.457 224.6H371.517C371.661 224.392 371.809 224.24 371.961 224.144C372.121 224.048 372.353 224 372.657 224H373.677V224.84H372.777C372.353 224.84 372.025 224.956 371.793 225.188C371.569 225.412 371.457 225.736 371.457 226.16V230H370.557ZM376.857 230V229.22L380.277 225.56C380.533 225.28 380.717 225.032 380.829 224.816C380.941 224.592 380.997 224.32 380.997 224C380.997 223.52 380.845 223.132 380.541 222.836C380.245 222.532 379.857 222.38 379.377 222.38C378.921 222.38 378.537 222.548 378.225 222.884C377.913 223.22 377.757 223.652 377.757 224.18H376.797C376.797 223.396 377.037 222.752 377.517 222.248C378.005 221.736 378.625 221.48 379.377 221.48C380.129 221.48 380.745 221.716 381.225 222.188C381.713 222.652 381.957 223.256 381.957 224C381.957 224.464 381.873 224.86 381.705 225.188C381.537 225.508 381.281 225.852 380.937 226.22L378.237 229.04V229.1H382.137V230H376.857ZM383.159 227.78H384.119C384.207 228.228 384.411 228.58 384.731 228.836C385.059 229.092 385.455 229.22 385.919 229.22C386.463 229.22 386.919 229.036 387.287 228.668C387.655 228.292 387.839 227.824 387.839 227.264C387.839 226.688 387.667 226.22 387.323 225.86C386.979 225.5 386.531 225.32 385.979 225.32C385.275 225.32 384.735 225.56 384.359 226.04H383.339L383.819 221.6H388.319V222.5H384.623L384.359 224.96H384.419C384.827 224.6 385.387 224.42 386.099 224.42C386.835 224.42 387.467 224.696 387.995 225.248C388.531 225.792 388.799 226.464 388.799 227.264C388.799 228.096 388.527 228.78 387.983 229.316C387.447 229.852 386.759 230.12 385.919 230.12C385.199 230.12 384.583 229.912 384.071 229.496C383.559 229.08 383.255 228.508 383.159 227.78Z" fill="white"/>
<path d="M64.0742 201.837L92.2906 160.69L120.835 178.83L149.38 122.211L177.268 187.733L205.812 185.383L234.357 99.1914L262.573 160.69L290.79 118.979L319.006 191.589L347.55 116.004L375.767 141.665" stroke="#16BA84" stroke-width="2" stroke-linejoin="round"/>
<path d="M375.768 201.838L347.551 143.854L319.007 156.194L290.462 107.42L262.574 170.298L234.029 125.343L205.485 119.76L177.269 167.653L149.052 92.7285L120.836 191.59L92.2914 116.005L64.075 141.666" stroke="#FF0000" stroke-width="2" stroke-linejoin="round"/>
<path d="M17.06 32.48H19.14C19.14 32.9813 19.364 33.4027 19.812 33.744C20.2707 34.0747 20.8733 34.24 21.62 34.24C22.3773 34.24 22.9373 34.112 23.3 33.856C23.6733 33.5893 23.86 33.2373 23.86 32.8C23.86 32.0533 23.2467 31.5733 22.02 31.36L20.1 31.04C18.2333 30.7307 17.3 29.7173 17.3 28C17.3 27.04 17.6733 26.24 18.42 25.6C19.1667 24.96 20.18 24.64 21.46 24.64C22.8467 24.64 23.9133 24.9813 24.66 25.664C25.4067 26.3467 25.78 27.232 25.78 28.32H23.7C23.7 27.8187 23.5027 27.4027 23.108 27.072C22.7133 26.7307 22.164 26.56 21.46 26.56C20.7667 26.56 20.244 26.6933 19.892 26.96C19.5507 27.216 19.38 27.5627 19.38 28C19.38 28.3413 19.492 28.6187 19.716 28.832C19.94 29.0347 20.3347 29.184 20.9 29.28L22.66 29.6C23.8013 29.8027 24.6333 30.16 25.156 30.672C25.6787 31.1733 25.94 31.8827 25.94 32.8C25.94 33.8027 25.5667 34.6133 24.82 35.232C24.0733 35.8507 23.0067 36.16 21.62 36.16C20.212 36.16 19.0973 35.8187 18.276 35.136C17.4653 34.4427 17.06 33.5573 17.06 32.48ZM32.9763 36L32.8163 35.2H32.7362C32.5976 35.3707 32.4109 35.5307 32.1762 35.68C31.6642 36 31.0776 36.16 30.4162 36.16C29.5202 36.16 28.8002 35.92 28.2562 35.44C27.7229 34.96 27.4562 34.3733 27.4562 33.68C27.4562 32.848 27.7442 32.1867 28.3202 31.696C28.8962 31.2053 29.7282 30.96 30.8162 30.96H32.6562V30.8C32.6562 30.3413 32.5229 29.9733 32.2562 29.696C32.0003 29.4187 31.6536 29.28 31.2162 29.28C30.8003 29.28 30.4643 29.3867 30.2083 29.6C29.9629 29.8133 29.8189 30.0533 29.7762 30.32H27.7762C27.8722 29.584 28.2136 28.96 28.8002 28.448C29.3869 27.936 30.1922 27.68 31.2162 27.68C32.2403 27.68 33.0669 27.9787 33.6962 28.576C34.3362 29.1733 34.6562 29.9147 34.6562 30.8V36H32.9763ZM32.6562 32.72V32.48H30.9763C29.9629 32.48 29.4562 32.8267 29.4562 33.52C29.4562 33.84 29.5682 34.096 29.7922 34.288C30.0163 34.4693 30.3309 34.56 30.7362 34.56C31.3443 34.56 31.8136 34.4 32.1442 34.08C32.4856 33.7493 32.6562 33.296 32.6562 32.72ZM36.8931 36V24.8H38.8931V36H36.8931ZM42.8075 31.2H46.9675C46.8715 30.656 46.6475 30.2133 46.2955 29.872C45.9542 29.5307 45.5115 29.36 44.9675 29.36C44.3915 29.36 43.9168 29.5307 43.5435 29.872C43.1808 30.2027 42.9355 30.6453 42.8075 31.2ZM46.6475 33.6H48.7275C48.6742 33.8027 48.5675 34.032 48.4075 34.288C48.2582 34.5333 48.0395 34.8107 47.7515 35.12C47.4742 35.4187 47.0902 35.6693 46.5995 35.872C46.1088 36.064 45.5648 36.16 44.9675 36.16C43.7622 36.16 42.7648 35.7653 41.9755 34.976C41.1968 34.176 40.8075 33.1573 40.8075 31.92C40.8075 30.6827 41.1968 29.6693 41.9755 28.88C42.7648 28.08 43.7622 27.68 44.9675 27.68C46.0875 27.68 47.0315 28.0747 47.7995 28.864C48.5782 29.6427 48.9675 30.608 48.9675 31.76C48.9675 31.856 48.9515 32.048 48.9195 32.336L48.8875 32.56H42.8075C42.8928 33.136 43.1328 33.6 43.5275 33.952C43.9222 34.304 44.4022 34.48 44.9675 34.48C45.3942 34.48 45.7568 34.3893 46.0555 34.208C46.3542 34.016 46.5515 33.8133 46.6475 33.6ZM50.245 33.52H52.165C52.165 33.7653 52.3037 34 52.581 34.224C52.869 34.448 53.2637 34.56 53.765 34.56C54.7783 34.56 55.285 34.2667 55.285 33.68C55.285 33.424 55.205 33.2267 55.045 33.088C54.885 32.9387 54.5917 32.832 54.165 32.768L52.885 32.56C51.125 32.272 50.245 31.4987 50.245 30.24C50.245 29.5253 50.549 28.9227 51.157 28.432C51.765 27.9307 52.6077 27.68 53.685 27.68C54.7623 27.68 55.605 27.9733 56.213 28.56C56.821 29.1467 57.125 29.7333 57.125 30.32H55.205C55.205 30.0533 55.0663 29.8133 54.789 29.6C54.5117 29.3867 54.1437 29.28 53.685 29.28C53.2263 29.28 52.869 29.376 52.613 29.568C52.3677 29.7493 52.245 29.9733 52.245 30.24C52.245 30.6347 52.6183 30.8853 53.365 30.992L54.725 31.2C56.4317 31.456 57.285 32.2827 57.285 33.68C57.285 34.3947 56.981 34.9867 56.373 35.456C55.7757 35.9253 54.9063 36.16 53.765 36.16C53.189 36.16 52.677 36.0853 52.229 35.936C51.7917 35.7867 51.4503 35.6107 51.205 35.408C50.9703 35.1947 50.773 34.9547 50.613 34.688C50.4637 34.4213 50.3623 34.1973 50.309 34.016C50.2663 33.824 50.245 33.6587 50.245 33.52ZM64.4787 36L61.6787 27.84H63.7587L65.6787 33.52H65.9987L67.9187 27.84H69.9987L67.1987 36H64.4787ZM70.3144 36V33.76H72.5544V36H70.3144ZM86.8706 32H89.0306C88.9666 32.2987 88.8706 32.608 88.7426 32.928C88.6253 33.248 88.428 33.6107 88.1506 34.016C87.884 34.4107 87.5746 34.7627 87.2226 35.072C86.8706 35.3813 86.412 35.6427 85.8466 35.856C85.2813 36.0587 84.6626 36.16 83.9906 36.16C82.4546 36.16 81.164 35.616 80.1186 34.528C79.0733 33.44 78.5506 32.064 78.5506 30.4C78.5506 28.736 79.0733 27.36 80.1186 26.272C81.164 25.184 82.4546 24.64 83.9906 24.64C84.62 24.64 85.2013 24.736 85.7346 24.928C86.2786 25.1093 86.732 25.344 87.0946 25.632C87.4573 25.92 87.7773 26.256 88.0546 26.64C88.332 27.0133 88.5453 27.3707 88.6946 27.712C88.844 28.0533 88.956 28.3893 89.0306 28.72H86.8706C86.6573 28.1653 86.3106 27.68 85.8306 27.264C85.3613 26.848 84.748 26.64 83.9906 26.64C83.0093 26.64 82.204 26.9867 81.5746 27.68C80.9453 28.3627 80.6306 29.2693 80.6306 30.4C80.6306 31.5307 80.9453 32.4427 81.5746 33.136C82.204 33.8187 83.0093 34.16 83.9906 34.16C84.7586 34.16 85.3773 33.9467 85.8466 33.52C86.3266 33.0933 86.668 32.5867 86.8706 32ZM93.0202 33.648C93.4362 34.096 93.9482 34.32 94.5562 34.32C95.1642 34.32 95.6762 34.096 96.0922 33.648C96.5082 33.2 96.7162 32.624 96.7162 31.92C96.7162 31.216 96.5082 30.64 96.0922 30.192C95.6762 29.744 95.1642 29.52 94.5562 29.52C93.9482 29.52 93.4362 29.744 93.0202 30.192C92.6042 30.64 92.3962 31.216 92.3962 31.92C92.3962 32.624 92.6042 33.2 93.0202 33.648ZM91.5642 28.88C92.3536 28.08 93.3509 27.68 94.5562 27.68C95.7616 27.68 96.7536 28.08 97.5322 28.88C98.3216 29.6693 98.7162 30.6827 98.7162 31.92C98.7162 33.1573 98.3216 34.176 97.5322 34.976C96.7536 35.7653 95.7616 36.16 94.5562 36.16C93.3509 36.16 92.3536 35.7653 91.5642 34.976C90.7856 34.176 90.3962 33.1573 90.3962 31.92C90.3962 30.6827 90.7856 29.6693 91.5642 28.88ZM100.63 36V24.8H102.63V36H100.63ZM105.024 36V24.8H107.024V36H105.024ZM110.939 31.2H115.099C115.003 30.656 114.779 30.2133 114.427 29.872C114.085 29.5307 113.643 29.36 113.099 29.36C112.523 29.36 112.048 29.5307 111.675 29.872C111.312 30.2027 111.067 30.6453 110.939 31.2ZM114.779 33.6H116.859C116.805 33.8027 116.699 34.032 116.539 34.288C116.389 34.5333 116.171 34.8107 115.883 35.12C115.605 35.4187 115.221 35.6693 114.731 35.872C114.24 36.064 113.696 36.16 113.099 36.16C111.893 36.16 110.896 35.7653 110.107 34.976C109.328 34.176 108.939 33.1573 108.939 31.92C108.939 30.6827 109.328 29.6693 110.107 28.88C110.896 28.08 111.893 27.68 113.099 27.68C114.219 27.68 115.163 28.0747 115.931 28.864C116.709 29.6427 117.099 30.608 117.099 31.76C117.099 31.856 117.083 32.048 117.051 32.336L117.019 32.56H110.939C111.024 33.136 111.264 33.6 111.659 33.952C112.053 34.304 112.533 34.48 113.099 34.48C113.525 34.48 113.888 34.3893 114.187 34.208C114.485 34.016 114.683 33.8133 114.779 33.6ZM124.536 32.96H126.536C126.462 33.3227 126.339 33.6747 126.168 34.016C126.008 34.3573 125.784 34.6987 125.496 35.04C125.208 35.3707 124.819 35.6427 124.328 35.856C123.848 36.0587 123.304 36.16 122.696 36.16C121.491 36.16 120.494 35.7653 119.704 34.976C118.926 34.176 118.536 33.1573 118.536 31.92C118.536 30.6827 118.926 29.6693 119.704 28.88C120.494 28.08 121.491 27.68 122.696 27.68C123.304 27.68 123.848 27.7867 124.328 28C124.819 28.2027 125.208 28.4693 125.496 28.8C125.784 29.1307 126.008 29.4613 126.168 29.792C126.339 30.1227 126.462 30.4587 126.536 30.8H124.536C124.216 29.9467 123.603 29.52 122.696 29.52C122.088 29.52 121.576 29.744 121.16 30.192C120.744 30.64 120.536 31.216 120.536 31.92C120.536 32.624 120.744 33.2 121.16 33.648C121.576 34.096 122.088 34.32 122.696 34.32C123.635 34.32 124.248 33.8667 124.536 32.96ZM128.939 34.08V29.76H127.659V27.84H128.939V25.52H130.939V27.84H132.779V29.76H130.939V33.68C130.939 34.0533 131.126 34.24 131.499 34.24H132.779V36H131.019C130.347 36 129.83 35.8347 129.467 35.504C129.115 35.1627 128.939 34.688 128.939 34.08ZM134.694 36V27.84H136.694V36H134.694ZM134.614 26.56V24.64H136.774V26.56H134.614ZM141.156 33.648C141.572 34.096 142.084 34.32 142.692 34.32C143.3 34.32 143.812 34.096 144.228 33.648C144.644 33.2 144.852 32.624 144.852 31.92C144.852 31.216 144.644 30.64 144.228 30.192C143.812 29.744 143.3 29.52 142.692 29.52C142.084 29.52 141.572 29.744 141.156 30.192C140.74 30.64 140.532 31.216 140.532 31.92C140.532 32.624 140.74 33.2 141.156 33.648ZM139.7 28.88C140.489 28.08 141.487 27.68 142.692 27.68C143.897 27.68 144.889 28.08 145.668 28.88C146.457 29.6693 146.852 30.6827 146.852 31.92C146.852 33.1573 146.457 34.176 145.668 34.976C144.889 35.7653 143.897 36.16 142.692 36.16C141.487 36.16 140.489 35.7653 139.7 34.976C138.921 34.176 138.532 33.1573 138.532 31.92C138.532 30.6827 138.921 29.6693 139.7 28.88ZM148.686 36V27.84H150.526L150.686 28.64H150.766C150.894 28.48 151.075 28.32 151.31 28.16C151.8 27.84 152.366 27.68 153.006 27.68C153.934 27.68 154.696 28 155.294 28.64C155.902 29.2693 156.206 30.096 156.206 31.12V36H154.206V31.28C154.206 30.7573 154.04 30.336 153.71 30.016C153.39 29.6853 152.968 29.52 152.446 29.52C151.923 29.52 151.496 29.6853 151.166 30.016C150.846 30.336 150.686 30.7573 150.686 31.28V36H148.686Z" fill="white"/>
<defs>
<linearGradient id="paint0_linear_3550_102094" x1="-241.162" y1="-130.554" x2="241.383" y2="422.796" gradientUnits="userSpaceOnUse">
<stop stop-color="white"/>
<stop offset="1" stop-color="white" stop-opacity="0"/>
</linearGradient>
<linearGradient id="paint1_linear_3550_102094" x1="-265.223" y1="-224.675" x2="366.844" y2="593.746" gradientUnits="userSpaceOnUse">
<stop stop-color="white"/>
<stop offset="1" stop-color="white" stop-opacity="0"/>
</linearGradient>
</defs>
</svg>
