<svg width="48" height="48" viewBox="0 0 48 48" fill="none" xmlns="http://www.w3.org/2000/svg">
<path d="M37.2679 17.0732H21.2339C18.2863 17.0732 15.8892 19.4703 15.8892 22.4179V43.7967H42.6126V22.4179C42.6126 19.4703 40.2155 17.0732 37.2679 17.0732ZM26.5785 35.7797C26.5785 37.2548 25.384 38.452 23.9062 38.452C22.4284 38.452 21.2339 37.2548 21.2339 35.7797V34.4435C21.2339 32.9684 22.4284 31.7711 23.9062 31.7711C25.384 31.7711 26.5785 32.9684 26.5785 34.4435V35.7797ZM26.5785 26.4265C26.5785 27.9016 25.384 29.0988 23.9062 29.0988C22.4284 29.0988 21.2339 27.9016 21.2339 26.4265V25.0903C21.2339 23.6151 22.4284 22.4179 23.9062 22.4179C25.384 22.4179 26.5785 23.6151 26.5785 25.0903V26.4265ZM37.2679 35.7797C37.2679 37.2548 36.0734 38.452 34.5956 38.452C33.1178 38.452 31.9232 37.2548 31.9232 35.7797V34.4435C31.9232 32.9684 33.1178 31.7711 34.5956 31.7711C36.0734 31.7711 37.2679 32.9684 37.2679 34.4435V35.7797ZM37.2679 26.4265C37.2679 27.9016 36.0734 29.0988 34.5956 29.0988C33.1178 29.0988 31.9232 27.9016 31.9232 26.4265V25.0903C31.9232 23.6151 33.1178 22.4179 34.5956 22.4179C36.0734 22.4179 37.2679 23.6151 37.2679 25.0903V26.4265Z" fill="white"/>
<path d="M7.87207 43.7969V11.0714C7.87207 9.87949 8.66308 8.82926 9.80952 8.50056L23.1712 4.68178C24.8789 4.19274 26.5785 5.47547 26.5785 7.25258V11.7261" stroke="white" stroke-width="2" stroke-linecap="round" stroke-linejoin="round"/>
<path d="M5.19995 43.7969H42.6128" stroke="white" stroke-width="2" stroke-linecap="round" stroke-linejoin="round"/>
</svg>
