<svg width="409" height="245" viewBox="0 0 409 245" fill="none" xmlns="http://www.w3.org/2000/svg">
<path d="M0.5 7.99999C0.5 3.58172 4.08172 0 8.5 0H400.5C404.918 0 408.5 3.58172 408.5 8V237C408.5 241.418 404.918 245 400.5 245H8.5C4.08172 245 0.5 241.418 0.5 237V7.99999Z" fill="url(#paint0_linear_3550_102054)" fill-opacity="0.1"/>
<path d="M8.5 0.5H400.5C404.642 0.5 408 3.85786 408 8V237C408 241.142 404.642 244.5 400.5 244.5H8.5C4.35786 244.5 1 241.142 1 237V8C1 3.85786 4.35786 0.5 8.5 0.5Z" stroke="url(#paint1_linear_3550_102054)" stroke-opacity="0.2"/>
<path d="M45.0883 199.98C44.4643 199.22 44.1523 198.16 44.1523 196.8C44.1523 195.44 44.4643 194.38 45.0883 193.62C45.7123 192.86 46.4803 192.48 47.3923 192.48C48.3043 192.48 49.0723 192.86 49.6963 193.62C50.3203 194.38 50.6323 195.44 50.6323 196.8C50.6323 198.16 50.3203 199.22 49.6963 199.98C49.0723 200.74 48.3043 201.12 47.3923 201.12C46.4803 201.12 45.7123 200.74 45.0883 199.98ZM49.0123 194.28C48.5723 193.68 48.0323 193.38 47.3923 193.38C46.7523 193.38 46.2123 193.68 45.7723 194.28C45.3323 194.88 45.1123 195.72 45.1123 196.8C45.1123 197.88 45.3323 198.72 45.7723 199.32C46.2123 199.92 46.7523 200.22 47.3923 200.22C48.0323 200.22 48.5723 199.92 49.0123 199.32C49.4523 198.72 49.6723 197.88 49.6723 196.8C49.6723 195.72 49.4523 194.88 49.0123 194.28Z" fill="white"/>
<path d="M54.4766 196.307H395.08" stroke="#E5E5E5" stroke-opacity="0.2"/>
<path d="M23.0234 173V172.22L26.4434 168.56C26.6994 168.28 26.8834 168.032 26.9954 167.816C27.1074 167.592 27.1634 167.32 27.1634 167C27.1634 166.52 27.0114 166.132 26.7074 165.836C26.4114 165.532 26.0234 165.38 25.5434 165.38C25.0874 165.38 24.7034 165.548 24.3914 165.884C24.0794 166.22 23.9234 166.652 23.9234 167.18H22.9634C22.9634 166.396 23.2034 165.752 23.6834 165.248C24.1714 164.736 24.7914 164.48 25.5434 164.48C26.2954 164.48 26.9114 164.716 27.3914 165.188C27.8794 165.652 28.1234 166.256 28.1234 167C28.1234 167.464 28.0394 167.86 27.8714 168.188C27.7034 168.508 27.4474 168.852 27.1034 169.22L24.4034 172.04V172.1H28.3034V173H23.0234ZM30.3813 171.98C29.7573 171.22 29.4453 170.16 29.4453 168.8C29.4453 167.44 29.7573 166.38 30.3813 165.62C31.0053 164.86 31.7733 164.48 32.6853 164.48C33.5973 164.48 34.3653 164.86 34.9893 165.62C35.6133 166.38 35.9253 167.44 35.9253 168.8C35.9253 170.16 35.6133 171.22 34.9893 171.98C34.3653 172.74 33.5973 173.12 32.6853 173.12C31.7733 173.12 31.0053 172.74 30.3813 171.98ZM34.3053 166.28C33.8653 165.68 33.3253 165.38 32.6853 165.38C32.0453 165.38 31.5053 165.68 31.0653 166.28C30.6253 166.88 30.4053 167.72 30.4053 168.8C30.4053 169.88 30.6253 170.72 31.0653 171.32C31.5053 171.92 32.0453 172.22 32.6853 172.22C33.3253 172.22 33.8653 171.92 34.3053 171.32C34.7453 170.72 34.9653 169.88 34.9653 168.8C34.9653 167.72 34.7453 166.88 34.3053 166.28ZM38.186 171.98C37.562 171.22 37.25 170.16 37.25 168.8C37.25 167.44 37.562 166.38 38.186 165.62C38.81 164.86 39.578 164.48 40.49 164.48C41.402 164.48 42.17 164.86 42.794 165.62C43.418 166.38 43.73 167.44 43.73 168.8C43.73 170.16 43.418 171.22 42.794 171.98C42.17 172.74 41.402 173.12 40.49 173.12C39.578 173.12 38.81 172.74 38.186 171.98ZM42.11 166.28C41.67 165.68 41.13 165.38 40.49 165.38C39.85 165.38 39.31 165.68 38.87 166.28C38.43 166.88 38.21 167.72 38.21 168.8C38.21 169.88 38.43 170.72 38.87 171.32C39.31 171.92 39.85 172.22 40.49 172.22C41.13 172.22 41.67 171.92 42.11 171.32C42.55 170.72 42.77 169.88 42.77 168.8C42.77 167.72 42.55 166.88 42.11 166.28ZM45.3547 173V164.6H46.3147V168.56L49.8547 164.6H51.0547L47.3347 168.74L51.2947 173H50.0947L46.3147 168.92V173H45.3547Z" fill="white"/>
<path d="M54.4766 168.92H395.499" stroke="#E5E5E5" stroke-opacity="0.2" stroke-dasharray="4 4"/>
<path d="M22.5448 144.08V143.36L25.8448 137.6H27.4048V143.24H28.4848V144.08H27.4048V146H26.4448V144.08H22.5448ZM23.7448 143.24H26.4448V138.86H26.2048L23.7448 143.18V143.24ZM30.3813 144.98C29.7573 144.22 29.4453 143.16 29.4453 141.8C29.4453 140.44 29.7573 139.38 30.3813 138.62C31.0053 137.86 31.7733 137.48 32.6853 137.48C33.5973 137.48 34.3653 137.86 34.9893 138.62C35.6133 139.38 35.9253 140.44 35.9253 141.8C35.9253 143.16 35.6133 144.22 34.9893 144.98C34.3653 145.74 33.5973 146.12 32.6853 146.12C31.7733 146.12 31.0053 145.74 30.3813 144.98ZM34.3053 139.28C33.8653 138.68 33.3253 138.38 32.6853 138.38C32.0453 138.38 31.5053 138.68 31.0653 139.28C30.6253 139.88 30.4053 140.72 30.4053 141.8C30.4053 142.88 30.6253 143.72 31.0653 144.32C31.5053 144.92 32.0453 145.22 32.6853 145.22C33.3253 145.22 33.8653 144.92 34.3053 144.32C34.7453 143.72 34.9653 142.88 34.9653 141.8C34.9653 140.72 34.7453 139.88 34.3053 139.28ZM38.186 144.98C37.562 144.22 37.25 143.16 37.25 141.8C37.25 140.44 37.562 139.38 38.186 138.62C38.81 137.86 39.578 137.48 40.49 137.48C41.402 137.48 42.17 137.86 42.794 138.62C43.418 139.38 43.73 140.44 43.73 141.8C43.73 143.16 43.418 144.22 42.794 144.98C42.17 145.74 41.402 146.12 40.49 146.12C39.578 146.12 38.81 145.74 38.186 144.98ZM42.11 139.28C41.67 138.68 41.13 138.38 40.49 138.38C39.85 138.38 39.31 138.68 38.87 139.28C38.43 139.88 38.21 140.72 38.21 141.8C38.21 142.88 38.43 143.72 38.87 144.32C39.31 144.92 39.85 145.22 40.49 145.22C41.13 145.22 41.67 144.92 42.11 144.32C42.55 143.72 42.77 142.88 42.77 141.8C42.77 140.72 42.55 139.88 42.11 139.28ZM45.3547 146V137.6H46.3147V141.56L49.8547 137.6H51.0547L47.3347 141.74L51.2947 146H50.0947L46.3147 141.92V146H45.3547Z" fill="white"/>
<path d="M54.4766 141.533H395.499" stroke="#E5E5E5" stroke-opacity="0.2" stroke-dasharray="4 4"/>
<path d="M23.0304 114.68L25.6704 110.6H26.7504L24.7704 113.72H24.8304L25.0584 113.66C25.2184 113.62 25.4024 113.6 25.6104 113.6C26.3704 113.6 27.0104 113.856 27.5304 114.368C28.0504 114.88 28.3104 115.524 28.3104 116.3C28.3104 117.084 28.0304 117.752 27.4704 118.304C26.9184 118.848 26.2384 119.12 25.4304 119.12C24.6224 119.12 23.9384 118.848 23.3784 118.304C22.8264 117.752 22.5504 117.084 22.5504 116.3C22.5504 115.716 22.7104 115.176 23.0304 114.68ZM24.0624 117.668C24.4304 118.036 24.8864 118.22 25.4304 118.22C25.9744 118.22 26.4304 118.036 26.7984 117.668C27.1664 117.292 27.3504 116.836 27.3504 116.3C27.3504 115.764 27.1664 115.312 26.7984 114.944C26.4304 114.568 25.9744 114.38 25.4304 114.38C24.8864 114.38 24.4304 114.568 24.0624 114.944C23.6944 115.312 23.5104 115.764 23.5104 116.3C23.5104 116.836 23.6944 117.292 24.0624 117.668ZM30.3813 117.98C29.7573 117.22 29.4453 116.16 29.4453 114.8C29.4453 113.44 29.7573 112.38 30.3813 111.62C31.0053 110.86 31.7733 110.48 32.6853 110.48C33.5973 110.48 34.3653 110.86 34.9893 111.62C35.6133 112.38 35.9253 113.44 35.9253 114.8C35.9253 116.16 35.6133 117.22 34.9893 117.98C34.3653 118.74 33.5973 119.12 32.6853 119.12C31.7733 119.12 31.0053 118.74 30.3813 117.98ZM34.3053 112.28C33.8653 111.68 33.3253 111.38 32.6853 111.38C32.0453 111.38 31.5053 111.68 31.0653 112.28C30.6253 112.88 30.4053 113.72 30.4053 114.8C30.4053 115.88 30.6253 116.72 31.0653 117.32C31.5053 117.92 32.0453 118.22 32.6853 118.22C33.3253 118.22 33.8653 117.92 34.3053 117.32C34.7453 116.72 34.9653 115.88 34.9653 114.8C34.9653 113.72 34.7453 112.88 34.3053 112.28ZM38.186 117.98C37.562 117.22 37.25 116.16 37.25 114.8C37.25 113.44 37.562 112.38 38.186 111.62C38.81 110.86 39.578 110.48 40.49 110.48C41.402 110.48 42.17 110.86 42.794 111.62C43.418 112.38 43.73 113.44 43.73 114.8C43.73 116.16 43.418 117.22 42.794 117.98C42.17 118.74 41.402 119.12 40.49 119.12C39.578 119.12 38.81 118.74 38.186 117.98ZM42.11 112.28C41.67 111.68 41.13 111.38 40.49 111.38C39.85 111.38 39.31 111.68 38.87 112.28C38.43 112.88 38.21 113.72 38.21 114.8C38.21 115.88 38.43 116.72 38.87 117.32C39.31 117.92 39.85 118.22 40.49 118.22C41.13 118.22 41.67 117.92 42.11 117.32C42.55 116.72 42.77 115.88 42.77 114.8C42.77 113.72 42.55 112.88 42.11 112.28ZM45.3547 119V110.6H46.3147V114.56L49.8547 110.6H51.0547L47.3347 114.74L51.2947 119H50.0947L46.3147 114.92V119H45.3547Z" fill="white"/>
<path d="M54.4766 114.146H395.499" stroke="#E5E5E5" stroke-opacity="0.2" stroke-dasharray="4 4"/>
<path d="M23.9904 86.68V86.62C23.7744 86.5 23.5824 86.356 23.4144 86.188C23.0384 85.812 22.8504 85.356 22.8504 84.82C22.8504 84.156 23.0944 83.6 23.5824 83.152C24.0704 82.704 24.6864 82.48 25.4304 82.48C26.1744 82.48 26.7904 82.704 27.2784 83.152C27.7664 83.6 28.0104 84.156 28.0104 84.82C28.0104 85.348 27.8184 85.804 27.4344 86.188C27.2744 86.348 27.0864 86.492 26.8704 86.62V86.68C27.0944 86.784 27.3144 86.936 27.5304 87.136C27.9704 87.576 28.1904 88.104 28.1904 88.72C28.1904 89.368 27.9304 89.932 27.4104 90.412C26.8984 90.884 26.2384 91.12 25.4304 91.12C24.6144 91.12 23.9504 90.884 23.4384 90.412C22.9264 89.94 22.6704 89.376 22.6704 88.72C22.6704 88.088 22.8904 87.56 23.3304 87.136C23.5304 86.936 23.7504 86.784 23.9904 86.68ZM24.2424 83.8C23.9544 84.072 23.8104 84.412 23.8104 84.82C23.8104 85.228 23.9544 85.572 24.2424 85.852C24.5384 86.124 24.9344 86.26 25.4304 86.26C25.9264 86.26 26.3184 86.124 26.6064 85.852C26.9024 85.572 27.0504 85.228 27.0504 84.82C27.0504 84.412 26.9024 84.072 26.6064 83.8C26.3184 83.52 25.9264 83.38 25.4304 83.38C24.9344 83.38 24.5384 83.52 24.2424 83.8ZM24.1464 87.544C23.8024 87.84 23.6304 88.212 23.6304 88.66C23.6304 89.108 23.8024 89.48 24.1464 89.776C24.4904 90.072 24.9184 90.22 25.4304 90.22C25.9424 90.22 26.3704 90.072 26.7144 89.776C27.0584 89.48 27.2304 89.108 27.2304 88.66C27.2304 88.212 27.0584 87.84 26.7144 87.544C26.3704 87.248 25.9424 87.1 25.4304 87.1C24.9184 87.1 24.4904 87.248 24.1464 87.544ZM30.3813 89.98C29.7573 89.22 29.4453 88.16 29.4453 86.8C29.4453 85.44 29.7573 84.38 30.3813 83.62C31.0053 82.86 31.7733 82.48 32.6853 82.48C33.5973 82.48 34.3653 82.86 34.9893 83.62C35.6133 84.38 35.9253 85.44 35.9253 86.8C35.9253 88.16 35.6133 89.22 34.9893 89.98C34.3653 90.74 33.5973 91.12 32.6853 91.12C31.7733 91.12 31.0053 90.74 30.3813 89.98ZM34.3053 84.28C33.8653 83.68 33.3253 83.38 32.6853 83.38C32.0453 83.38 31.5053 83.68 31.0653 84.28C30.6253 84.88 30.4053 85.72 30.4053 86.8C30.4053 87.88 30.6253 88.72 31.0653 89.32C31.5053 89.92 32.0453 90.22 32.6853 90.22C33.3253 90.22 33.8653 89.92 34.3053 89.32C34.7453 88.72 34.9653 87.88 34.9653 86.8C34.9653 85.72 34.7453 84.88 34.3053 84.28ZM38.186 89.98C37.562 89.22 37.25 88.16 37.25 86.8C37.25 85.44 37.562 84.38 38.186 83.62C38.81 82.86 39.578 82.48 40.49 82.48C41.402 82.48 42.17 82.86 42.794 83.62C43.418 84.38 43.73 85.44 43.73 86.8C43.73 88.16 43.418 89.22 42.794 89.98C42.17 90.74 41.402 91.12 40.49 91.12C39.578 91.12 38.81 90.74 38.186 89.98ZM42.11 84.28C41.67 83.68 41.13 83.38 40.49 83.38C39.85 83.38 39.31 83.68 38.87 84.28C38.43 84.88 38.21 85.72 38.21 86.8C38.21 87.88 38.43 88.72 38.87 89.32C39.31 89.92 39.85 90.22 40.49 90.22C41.13 90.22 41.67 89.92 42.11 89.32C42.55 88.72 42.77 87.88 42.77 86.8C42.77 85.72 42.55 84.88 42.11 84.28ZM45.3547 91V82.6H46.3147V86.56L49.8547 82.6H51.0547L47.3347 86.74L51.2947 91H50.0947L46.3147 86.92V91H45.3547Z" fill="white"/>
<path d="M54.4766 86.7598H395.499" stroke="#E5E5E5" stroke-opacity="0.2" stroke-dasharray="4 4"/>
<path d="M15.7445 63V56.4H13.9445V55.56H15.3845C15.6245 55.56 15.7445 55.44 15.7445 55.2V54.6H16.7045V63H15.7445ZM18.2041 63.96L18.4441 61.92H19.5241L18.9841 63.96H18.2041ZM21.7796 61.98C21.1556 61.22 20.8436 60.16 20.8436 58.8C20.8436 57.44 21.1556 56.38 21.7796 55.62C22.4036 54.86 23.1716 54.48 24.0836 54.48C24.9956 54.48 25.7636 54.86 26.3876 55.62C27.0116 56.38 27.3236 57.44 27.3236 58.8C27.3236 60.16 27.0116 61.22 26.3876 61.98C25.7636 62.74 24.9956 63.12 24.0836 63.12C23.1716 63.12 22.4036 62.74 21.7796 61.98ZM25.7036 56.28C25.2636 55.68 24.7236 55.38 24.0836 55.38C23.4436 55.38 22.9036 55.68 22.4636 56.28C22.0236 56.88 21.8036 57.72 21.8036 58.8C21.8036 59.88 22.0236 60.72 22.4636 61.32C22.9036 61.92 23.4436 62.22 24.0836 62.22C24.7236 62.22 25.2636 61.92 25.7036 61.32C26.1436 60.72 26.3636 59.88 26.3636 58.8C26.3636 57.72 26.1436 56.88 25.7036 56.28ZM29.5843 61.98C28.9603 61.22 28.6483 60.16 28.6483 58.8C28.6483 57.44 28.9603 56.38 29.5843 55.62C30.2083 54.86 30.9763 54.48 31.8883 54.48C32.8003 54.48 33.5683 54.86 34.1923 55.62C34.8163 56.38 35.1283 57.44 35.1283 58.8C35.1283 60.16 34.8163 61.22 34.1923 61.98C33.5683 62.74 32.8003 63.12 31.8883 63.12C30.9763 63.12 30.2083 62.74 29.5843 61.98ZM33.5083 56.28C33.0683 55.68 32.5283 55.38 31.8883 55.38C31.2483 55.38 30.7083 55.68 30.2683 56.28C29.8283 56.88 29.6083 57.72 29.6083 58.8C29.6083 59.88 29.8283 60.72 30.2683 61.32C30.7083 61.92 31.2483 62.22 31.8883 62.22C32.5283 62.22 33.0683 61.92 33.5083 61.32C33.9483 60.72 34.1683 59.88 34.1683 58.8C34.1683 57.72 33.9483 56.88 33.5083 56.28ZM37.389 61.98C36.765 61.22 36.453 60.16 36.453 58.8C36.453 57.44 36.765 56.38 37.389 55.62C38.013 54.86 38.781 54.48 39.693 54.48C40.605 54.48 41.373 54.86 41.997 55.62C42.621 56.38 42.933 57.44 42.933 58.8C42.933 60.16 42.621 61.22 41.997 61.98C41.373 62.74 40.605 63.12 39.693 63.12C38.781 63.12 38.013 62.74 37.389 61.98ZM41.313 56.28C40.873 55.68 40.333 55.38 39.693 55.38C39.053 55.38 38.513 55.68 38.073 56.28C37.633 56.88 37.413 57.72 37.413 58.8C37.413 59.88 37.633 60.72 38.073 61.32C38.513 61.92 39.053 62.22 39.693 62.22C40.333 62.22 40.873 61.92 41.313 61.32C41.753 60.72 41.973 59.88 41.973 58.8C41.973 57.72 41.753 56.88 41.313 56.28ZM44.5577 63V54.6H45.5177V58.56L49.0577 54.6H50.2577L46.5377 58.74L50.4977 63H49.2977L45.5177 58.92V63H44.5577Z" fill="white"/>
<path d="M54.4766 59.377H395.499" stroke="#E5E5E5" stroke-opacity="0.2" stroke-dasharray="4 4"/>
<path d="M59.208 221V212.6H60.828L64.608 219.86H64.848V212.6H65.808V221H64.188L60.408 213.74H60.168V221H59.208ZM72.1796 220.256C71.6356 220.832 70.9516 221.12 70.1276 221.12C69.3036 221.12 68.6156 220.832 68.0636 220.256C67.5196 219.672 67.2476 218.92 67.2476 218C67.2476 217.08 67.5196 216.332 68.0636 215.756C68.6156 215.172 69.3036 214.88 70.1276 214.88C70.9516 214.88 71.6356 215.172 72.1796 215.756C72.7316 216.332 73.0076 217.08 73.0076 218C73.0076 218.92 72.7316 219.672 72.1796 220.256ZM68.7116 219.644C69.0956 220.068 69.5676 220.28 70.1276 220.28C70.6876 220.28 71.1556 220.068 71.5316 219.644C71.9156 219.22 72.1076 218.672 72.1076 218C72.1076 217.328 71.9156 216.78 71.5316 216.356C71.1556 215.932 70.6876 215.72 70.1276 215.72C69.5676 215.72 69.0956 215.932 68.7116 216.356C68.3356 216.78 68.1476 217.328 68.1476 218C68.1476 218.672 68.3356 219.22 68.7116 219.644ZM75.6452 221L73.4852 215H74.4452L76.2452 220.04H76.4852L78.2852 215H79.2452L77.0852 221H75.6452ZM79.9052 218V217.16H83.7452V218H79.9052ZM84.9471 221V220.22L88.3671 216.56C88.6231 216.28 88.8071 216.032 88.9191 215.816C89.0311 215.592 89.0871 215.32 89.0871 215C89.0871 214.52 88.9351 214.132 88.6311 213.836C88.3351 213.532 87.9471 213.38 87.4671 213.38C87.0111 213.38 86.6271 213.548 86.3151 213.884C86.0031 214.22 85.8471 214.652 85.8471 215.18H84.8871C84.8871 214.396 85.1271 213.752 85.6071 213.248C86.0951 212.736 86.7151 212.48 87.4671 212.48C88.2191 212.48 88.8351 212.716 89.3151 213.188C89.8031 213.652 90.0471 214.256 90.0471 215C90.0471 215.464 89.9631 215.86 89.7951 216.188C89.6271 216.508 89.3711 216.852 89.0271 217.22L86.3271 220.04V220.1H90.2271V221H84.9471ZM90.5857 219.08V218.36L93.8857 212.6H95.4457V218.24H96.5257V219.08H95.4457V221H94.4857V219.08H90.5857ZM91.7857 218.24H94.4857V213.86H94.2457L91.7857 218.18V218.24Z" fill="white"/>
<path d="M118.085 221V212.6H120.905C122.073 212.6 123.033 212.996 123.785 213.788C124.545 214.572 124.925 215.576 124.925 216.8C124.925 218.024 124.545 219.032 123.785 219.824C123.033 220.608 122.073 221 120.905 221H118.085ZM119.045 220.1H120.905C121.785 220.1 122.513 219.796 123.089 219.188C123.673 218.572 123.965 217.776 123.965 216.8C123.965 215.824 123.673 215.032 123.089 214.424C122.513 213.808 121.785 213.5 120.905 213.5H119.045V220.1ZM130.507 219.32H131.467C131.259 219.896 130.931 220.34 130.483 220.652C130.043 220.964 129.511 221.12 128.887 221.12C128.063 221.12 127.375 220.832 126.823 220.256C126.279 219.672 126.007 218.92 126.007 218C126.007 217.08 126.279 216.332 126.823 215.756C127.375 215.172 128.063 214.88 128.887 214.88C129.679 214.88 130.335 215.152 130.855 215.696C131.383 216.24 131.647 216.928 131.647 217.76C131.647 217.888 131.635 218.06 131.611 218.276L131.587 218.42H126.907C126.971 218.98 127.187 219.432 127.555 219.776C127.931 220.112 128.375 220.28 128.887 220.28C129.247 220.28 129.567 220.196 129.847 220.028C130.135 219.86 130.355 219.624 130.507 219.32ZM126.907 217.58H130.747C130.715 217.036 130.523 216.592 130.171 216.248C129.827 215.896 129.399 215.72 128.887 215.72C128.351 215.72 127.903 215.892 127.543 216.236C127.183 216.58 126.971 217.028 126.907 217.58ZM137.225 219.02H138.125C137.973 219.684 137.661 220.2 137.189 220.568C136.725 220.936 136.157 221.12 135.485 221.12C134.661 221.12 133.973 220.832 133.421 220.256C132.877 219.672 132.605 218.92 132.605 218C132.605 217.08 132.877 216.332 133.421 215.756C133.973 215.172 134.661 214.88 135.485 214.88C136.149 214.88 136.717 215.064 137.189 215.432C137.661 215.792 137.973 216.288 138.125 216.92H137.225C137.105 216.536 136.893 216.24 136.589 216.032C136.285 215.824 135.917 215.72 135.485 215.72C134.925 215.72 134.453 215.932 134.069 216.356C133.693 216.78 133.505 217.328 133.505 218C133.505 218.672 133.693 219.22 134.069 219.644C134.453 220.068 134.925 220.28 135.485 220.28C136.405 220.28 136.985 219.86 137.225 219.02ZM139.028 218V217.16H142.868V218H139.028ZM144.07 221V220.22L147.49 216.56C147.746 216.28 147.93 216.032 148.042 215.816C148.154 215.592 148.21 215.32 148.21 215C148.21 214.52 148.058 214.132 147.754 213.836C147.458 213.532 147.07 213.38 146.59 213.38C146.134 213.38 145.75 213.548 145.438 213.884C145.126 214.22 144.97 214.652 144.97 215.18H144.01C144.01 214.396 144.25 213.752 144.73 213.248C145.218 212.736 145.838 212.48 146.59 212.48C147.342 212.48 147.958 212.716 148.438 213.188C148.926 213.652 149.17 214.256 149.17 215C149.17 215.464 149.086 215.86 148.918 216.188C148.75 216.508 148.494 216.852 148.15 217.22L145.45 220.04V220.1H149.35V221H144.07ZM149.709 219.08V218.36L153.009 212.6H154.569V218.24H155.649V219.08H154.569V221H153.609V219.08H149.709ZM150.909 218.24H153.609V213.86H153.369L150.909 218.18V218.24Z" fill="white"/>
<path d="M177.681 221V220.1H179.721C179.905 220.1 180.049 220.048 180.153 219.944C180.265 219.832 180.321 219.684 180.321 219.5V212.6H181.281V219.62C181.281 220.052 181.157 220.392 180.909 220.64C180.669 220.88 180.313 221 179.841 221H177.681ZM186.918 221L186.798 220.28H186.738C186.626 220.44 186.482 220.58 186.306 220.7C185.938 220.98 185.462 221.12 184.878 221.12C184.254 221.12 183.746 220.948 183.354 220.604C182.97 220.26 182.778 219.812 182.778 219.26C182.778 218.66 182.974 218.192 183.366 217.856C183.766 217.512 184.37 217.34 185.178 217.34H186.798V217.16C186.798 216.704 186.67 216.352 186.414 216.104C186.166 215.848 185.814 215.72 185.358 215.72C184.926 215.72 184.574 215.82 184.302 216.02C184.038 216.212 183.89 216.452 183.858 216.74H182.958C182.99 216.228 183.218 215.792 183.642 215.432C184.074 215.064 184.646 214.88 185.358 214.88C186.086 214.88 186.658 215.08 187.074 215.48C187.49 215.88 187.698 216.44 187.698 217.16V221H186.918ZM186.798 218.42V218.18H185.178C184.666 218.18 184.286 218.28 184.038 218.48C183.798 218.68 183.678 218.94 183.678 219.26C183.678 219.572 183.782 219.82 183.99 220.004C184.198 220.188 184.494 220.28 184.878 220.28C185.478 220.28 185.946 220.116 186.282 219.788C186.626 219.452 186.798 218.996 186.798 218.42ZM189.381 221V215H190.161L190.281 215.66H190.341C190.469 215.5 190.617 215.372 190.785 215.276C191.201 215.012 191.653 214.88 192.141 214.88C192.837 214.88 193.409 215.116 193.857 215.588C194.313 216.052 194.541 216.656 194.541 217.4V221H193.641V217.4C193.641 216.92 193.485 216.52 193.173 216.2C192.861 215.88 192.477 215.72 192.021 215.72C191.541 215.72 191.129 215.888 190.785 216.224C190.449 216.552 190.281 216.944 190.281 217.4V221H189.381ZM195.925 218V217.16H199.765V218H195.925ZM200.967 221V220.22L204.387 216.56C204.643 216.28 204.827 216.032 204.939 215.816C205.051 215.592 205.107 215.32 205.107 215C205.107 214.52 204.955 214.132 204.651 213.836C204.355 213.532 203.967 213.38 203.487 213.38C203.031 213.38 202.647 213.548 202.335 213.884C202.023 214.22 201.867 214.652 201.867 215.18H200.907C200.907 214.396 201.147 213.752 201.627 213.248C202.115 212.736 202.735 212.48 203.487 212.48C204.239 212.48 204.855 212.716 205.335 213.188C205.823 213.652 206.067 214.256 206.067 215C206.067 215.464 205.983 215.86 205.815 216.188C205.647 216.508 205.391 216.852 205.047 217.22L202.347 220.04V220.1H206.247V221H200.967ZM207.269 218.78H208.229C208.317 219.228 208.521 219.58 208.841 219.836C209.169 220.092 209.565 220.22 210.029 220.22C210.573 220.22 211.029 220.036 211.397 219.668C211.765 219.292 211.949 218.824 211.949 218.264C211.949 217.688 211.777 217.22 211.433 216.86C211.089 216.5 210.641 216.32 210.089 216.32C209.385 216.32 208.845 216.56 208.469 217.04H207.449L207.929 212.6H212.429V213.5H208.733L208.469 215.96H208.529C208.937 215.6 209.497 215.42 210.209 215.42C210.945 215.42 211.577 215.696 212.105 216.248C212.641 216.792 212.909 217.464 212.909 218.264C212.909 219.096 212.637 219.78 212.093 220.316C211.557 220.852 210.869 221.12 210.029 221.12C209.309 221.12 208.693 220.912 208.181 220.496C207.669 220.08 207.365 219.508 207.269 218.78Z" fill="white"/>
<path d="M236.472 221V212.6H241.752V213.5H237.432V216.32H241.512V217.22H237.432V221H236.472ZM246.796 219.32H247.756C247.548 219.896 247.22 220.34 246.772 220.652C246.332 220.964 245.8 221.12 245.176 221.12C244.352 221.12 243.664 220.832 243.112 220.256C242.568 219.672 242.296 218.92 242.296 218C242.296 217.08 242.568 216.332 243.112 215.756C243.664 215.172 244.352 214.88 245.176 214.88C245.968 214.88 246.624 215.152 247.144 215.696C247.672 216.24 247.936 216.928 247.936 217.76C247.936 217.888 247.924 218.06 247.9 218.276L247.876 218.42H243.196C243.26 218.98 243.476 219.432 243.844 219.776C244.22 220.112 244.664 220.28 245.176 220.28C245.536 220.28 245.856 220.196 246.136 220.028C246.424 219.86 246.644 219.624 246.796 219.32ZM243.196 217.58H247.036C247.004 217.036 246.812 216.592 246.46 216.248C246.116 215.896 245.688 215.72 245.176 215.72C244.64 215.72 244.192 215.892 243.832 216.236C243.472 216.58 243.26 217.028 243.196 217.58ZM249.314 221V212.6H250.214V215.84H250.274C250.778 215.2 251.418 214.88 252.194 214.88C252.986 214.88 253.642 215.172 254.162 215.756C254.69 216.332 254.954 217.08 254.954 218C254.954 218.92 254.69 219.672 254.162 220.256C253.642 220.832 252.986 221.12 252.194 221.12C251.418 221.12 250.778 220.8 250.274 220.16H250.214L250.094 221H249.314ZM250.778 219.644C251.154 220.068 251.606 220.28 252.134 220.28C252.662 220.28 253.114 220.068 253.49 219.644C253.866 219.22 254.054 218.672 254.054 218C254.054 217.328 253.866 216.78 253.49 216.356C253.114 215.932 252.662 215.72 252.134 215.72C251.606 215.72 251.154 215.932 250.778 216.356C250.402 216.78 250.214 217.328 250.214 218C250.214 218.672 250.402 219.22 250.778 219.644ZM255.974 218V217.16H259.814V218H255.974ZM261.015 221V220.22L264.435 216.56C264.691 216.28 264.875 216.032 264.987 215.816C265.099 215.592 265.155 215.32 265.155 215C265.155 214.52 265.003 214.132 264.699 213.836C264.403 213.532 264.015 213.38 263.535 213.38C263.079 213.38 262.695 213.548 262.383 213.884C262.071 214.22 261.915 214.652 261.915 215.18H260.955C260.955 214.396 261.195 213.752 261.675 213.248C262.163 212.736 262.783 212.48 263.535 212.48C264.287 212.48 264.903 212.716 265.383 213.188C265.871 213.652 266.115 214.256 266.115 215C266.115 215.464 266.031 215.86 265.863 216.188C265.695 216.508 265.439 216.852 265.095 217.22L262.395 220.04V220.1H266.295V221H261.015ZM267.317 218.78H268.277C268.365 219.228 268.569 219.58 268.889 219.836C269.217 220.092 269.613 220.22 270.077 220.22C270.621 220.22 271.077 220.036 271.445 219.668C271.813 219.292 271.997 218.824 271.997 218.264C271.997 217.688 271.825 217.22 271.481 216.86C271.137 216.5 270.689 216.32 270.137 216.32C269.433 216.32 268.893 216.56 268.517 217.04H267.497L267.977 212.6H272.477V213.5H268.781L268.517 215.96H268.577C268.985 215.6 269.545 215.42 270.257 215.42C270.993 215.42 271.625 215.696 272.153 216.248C272.689 216.792 272.957 217.464 272.957 218.264C272.957 219.096 272.685 219.78 272.141 220.316C271.605 220.852 270.917 221.12 270.077 221.12C269.357 221.12 268.741 220.912 268.229 220.496C267.717 220.08 267.413 219.508 267.317 218.78Z" fill="white"/>
<path d="M294.927 221V212.6H296.667L299.247 219.92H299.487L302.067 212.6H303.807V221H302.847V213.86H302.607L300.087 221H298.647L296.127 213.86H295.887V221H294.927ZM309.511 221L309.391 220.28H309.331C309.219 220.44 309.075 220.58 308.899 220.7C308.531 220.98 308.055 221.12 307.471 221.12C306.847 221.12 306.339 220.948 305.947 220.604C305.563 220.26 305.371 219.812 305.371 219.26C305.371 218.66 305.567 218.192 305.959 217.856C306.359 217.512 306.963 217.34 307.771 217.34H309.391V217.16C309.391 216.704 309.263 216.352 309.007 216.104C308.759 215.848 308.407 215.72 307.951 215.72C307.519 215.72 307.167 215.82 306.895 216.02C306.631 216.212 306.483 216.452 306.451 216.74H305.551C305.583 216.228 305.811 215.792 306.235 215.432C306.667 215.064 307.239 214.88 307.951 214.88C308.679 214.88 309.251 215.08 309.667 215.48C310.083 215.88 310.291 216.44 310.291 217.16V221H309.511ZM309.391 218.42V218.18H307.771C307.259 218.18 306.879 218.28 306.631 218.48C306.391 218.68 306.271 218.94 306.271 219.26C306.271 219.572 306.375 219.82 306.583 220.004C306.791 220.188 307.087 220.28 307.471 220.28C308.071 220.28 308.539 220.116 308.875 219.788C309.219 219.452 309.391 218.996 309.391 218.42ZM311.975 221V215H312.755L312.875 215.6H312.935C313.079 215.392 313.227 215.24 313.379 215.144C313.539 215.048 313.771 215 314.075 215H315.095V215.84H314.195C313.771 215.84 313.443 215.956 313.211 216.188C312.987 216.412 312.875 216.736 312.875 217.16V221H311.975ZM315.519 218V217.16H319.359V218H315.519ZM320.56 221V220.22L323.98 216.56C324.236 216.28 324.42 216.032 324.532 215.816C324.644 215.592 324.7 215.32 324.7 215C324.7 214.52 324.548 214.132 324.244 213.836C323.948 213.532 323.56 213.38 323.08 213.38C322.624 213.38 322.24 213.548 321.928 213.884C321.616 214.22 321.46 214.652 321.46 215.18H320.5C320.5 214.396 320.74 213.752 321.22 213.248C321.708 212.736 322.328 212.48 323.08 212.48C323.832 212.48 324.448 212.716 324.928 213.188C325.416 213.652 325.66 214.256 325.66 215C325.66 215.464 325.576 215.86 325.408 216.188C325.24 216.508 324.984 216.852 324.64 217.22L321.94 220.04V220.1H325.84V221H320.56ZM326.862 218.78H327.822C327.91 219.228 328.114 219.58 328.434 219.836C328.762 220.092 329.158 220.22 329.622 220.22C330.166 220.22 330.622 220.036 330.99 219.668C331.358 219.292 331.542 218.824 331.542 218.264C331.542 217.688 331.37 217.22 331.026 216.86C330.682 216.5 330.234 216.32 329.682 216.32C328.978 216.32 328.438 216.56 328.062 217.04H327.042L327.522 212.6H332.022V213.5H328.326L328.062 215.96H328.122C328.53 215.6 329.09 215.42 329.802 215.42C330.538 215.42 331.17 215.696 331.698 216.248C332.234 216.792 332.502 217.464 332.502 218.264C332.502 219.096 332.23 219.78 331.686 220.316C331.15 220.852 330.462 221.12 329.622 221.12C328.902 221.12 328.286 220.912 327.774 220.496C327.262 220.08 326.958 219.508 326.862 218.78Z" fill="white"/>
<path d="M354.168 221L357.348 212.6H358.788L361.968 221H360.948L360.168 218.84H355.968L355.188 221H354.168ZM356.328 217.94H359.808L358.188 213.62H357.948L356.328 217.94ZM362.813 223.4V215H363.593L363.713 215.84H363.773C364.277 215.2 364.917 214.88 365.693 214.88C366.485 214.88 367.141 215.172 367.661 215.756C368.189 216.332 368.453 217.08 368.453 218C368.453 218.92 368.189 219.672 367.661 220.256C367.141 220.832 366.485 221.12 365.693 221.12C364.917 221.12 364.277 220.8 363.773 220.16H363.713V223.4H362.813ZM364.277 219.644C364.653 220.068 365.105 220.28 365.633 220.28C366.161 220.28 366.613 220.068 366.989 219.644C367.365 219.22 367.553 218.672 367.553 218C367.553 217.328 367.365 216.78 366.989 216.356C366.613 215.932 366.161 215.72 365.633 215.72C365.105 215.72 364.653 215.932 364.277 216.356C363.901 216.78 363.713 217.328 363.713 218C363.713 218.672 363.901 219.22 364.277 219.644ZM369.774 221V215H370.554L370.674 215.6H370.734C370.878 215.392 371.026 215.24 371.178 215.144C371.338 215.048 371.57 215 371.874 215H372.894V215.84H371.994C371.57 215.84 371.242 215.956 371.01 216.188C370.786 216.412 370.674 216.736 370.674 217.16V221H369.774ZM373.317 218V217.16H377.157V218H373.317ZM378.359 221V220.22L381.779 216.56C382.035 216.28 382.219 216.032 382.331 215.816C382.443 215.592 382.499 215.32 382.499 215C382.499 214.52 382.347 214.132 382.043 213.836C381.747 213.532 381.359 213.38 380.879 213.38C380.423 213.38 380.039 213.548 379.727 213.884C379.415 214.22 379.259 214.652 379.259 215.18H378.299C378.299 214.396 378.539 213.752 379.019 213.248C379.507 212.736 380.127 212.48 380.879 212.48C381.631 212.48 382.247 212.716 382.727 213.188C383.215 213.652 383.459 214.256 383.459 215C383.459 215.464 383.375 215.86 383.207 216.188C383.039 216.508 382.783 216.852 382.439 217.22L379.739 220.04V220.1H383.639V221H378.359ZM384.661 218.78H385.621C385.709 219.228 385.913 219.58 386.233 219.836C386.561 220.092 386.957 220.22 387.421 220.22C387.965 220.22 388.421 220.036 388.789 219.668C389.157 219.292 389.341 218.824 389.341 218.264C389.341 217.688 389.169 217.22 388.825 216.86C388.481 216.5 388.033 216.32 387.481 216.32C386.777 216.32 386.237 216.56 385.861 217.04H384.841L385.321 212.6H389.821V213.5H386.125L385.861 215.96H385.921C386.329 215.6 386.889 215.42 387.601 215.42C388.337 215.42 388.969 215.696 389.497 216.248C390.033 216.792 390.301 217.464 390.301 218.264C390.301 219.096 390.029 219.78 389.485 220.316C388.949 220.852 388.261 221.12 387.421 221.12C386.701 221.12 386.085 220.912 385.573 220.496C385.061 220.08 384.757 219.508 384.661 218.78Z" fill="white"/>
<circle cx="236.141" cy="30" r="4" fill="#60A5FA"/>
<path d="M256.681 31.78H257.871C257.591 32.816 257.059 33.6373 256.275 34.244C255.5 34.8413 254.585 35.14 253.531 35.14C252.215 35.14 251.104 34.6687 250.199 33.726C249.293 32.7833 248.841 31.5747 248.841 30.1C248.841 28.6253 249.293 27.4167 250.199 26.474C251.104 25.5313 252.215 25.06 253.531 25.06C254.576 25.06 255.491 25.3587 256.275 25.956C257.059 26.544 257.591 27.342 257.871 28.35H256.681C256.438 27.65 256.037 27.104 255.477 26.712C254.917 26.3107 254.268 26.11 253.531 26.11C252.532 26.11 251.687 26.4833 250.997 27.23C250.306 27.9673 249.961 28.924 249.961 30.1C249.961 31.276 250.306 32.2373 250.997 32.984C251.687 33.7213 252.532 34.09 253.531 34.09C254.268 34.09 254.917 33.8893 255.477 33.488C256.037 33.0773 256.438 32.508 256.681 31.78ZM263.897 35L263.757 34.16H263.687C263.557 34.3467 263.389 34.51 263.183 34.65C262.754 34.9767 262.199 35.14 261.517 35.14C260.789 35.14 260.197 34.9393 259.739 34.538C259.291 34.1367 259.067 33.614 259.067 32.97C259.067 32.27 259.296 31.724 259.753 31.332C260.22 30.9307 260.925 30.73 261.867 30.73H263.757V30.52C263.757 29.988 263.608 29.5773 263.309 29.288C263.02 28.9893 262.609 28.84 262.077 28.84C261.573 28.84 261.163 28.9567 260.845 29.19C260.537 29.414 260.365 29.694 260.327 30.03H259.277C259.315 29.4327 259.581 28.924 260.075 28.504C260.579 28.0747 261.247 27.86 262.077 27.86C262.927 27.86 263.594 28.0933 264.079 28.56C264.565 29.0267 264.807 29.68 264.807 30.52V35H263.897ZM263.757 31.99V31.71H261.867C261.27 31.71 260.827 31.8267 260.537 32.06C260.257 32.2933 260.117 32.5967 260.117 32.97C260.117 33.334 260.239 33.6233 260.481 33.838C260.724 34.0527 261.069 34.16 261.517 34.16C262.217 34.16 262.763 33.9687 263.155 33.586C263.557 33.194 263.757 32.662 263.757 31.99ZM266.211 32.97H267.261C267.261 33.2967 267.415 33.5767 267.723 33.81C268.04 34.0433 268.47 34.16 269.011 34.16C269.543 34.16 269.954 34.062 270.243 33.866C270.542 33.6607 270.691 33.4087 270.691 33.11C270.691 32.5593 270.294 32.2093 269.501 32.06L268.311 31.85C267.004 31.6353 266.351 30.982 266.351 29.89C266.351 29.302 266.575 28.8167 267.023 28.434C267.471 28.0513 268.11 27.86 268.941 27.86C269.753 27.86 270.411 28.0747 270.915 28.504C271.419 28.9333 271.671 29.442 271.671 30.03H270.621C270.621 29.7033 270.467 29.4233 270.159 29.19C269.86 28.9567 269.454 28.84 268.941 28.84C268.437 28.84 268.054 28.9427 267.793 29.148C267.532 29.344 267.401 29.5913 267.401 29.89C267.401 30.4033 267.774 30.73 268.521 30.87L269.711 31.08C270.411 31.2107 270.924 31.444 271.251 31.78C271.578 32.1067 271.741 32.55 271.741 33.11C271.741 33.698 271.503 34.1833 271.027 34.566C270.56 34.9487 269.888 35.14 269.011 35.14C268.171 35.14 267.494 34.9253 266.981 34.496C266.468 34.0667 266.211 33.558 266.211 32.97ZM273.28 35V25.2H274.33V28.77H274.4C274.55 28.5833 274.722 28.434 274.918 28.322C275.404 28.014 275.931 27.86 276.5 27.86C277.312 27.86 277.98 28.1353 278.502 28.686C279.034 29.2273 279.3 29.932 279.3 30.8V35H278.25V30.8C278.25 30.24 278.068 29.7733 277.704 29.4C277.34 29.0267 276.892 28.84 276.36 28.84C275.8 28.84 275.32 29.036 274.918 29.428C274.526 29.8107 274.33 30.268 274.33 30.8V35H273.28ZM281.333 35V25.2H282.383V28.98H282.453C283.041 28.2333 283.788 27.86 284.693 27.86C285.617 27.86 286.383 28.2007 286.989 28.882C287.605 29.554 287.913 30.4267 287.913 31.5C287.913 32.5733 287.605 33.4507 286.989 34.132C286.383 34.804 285.617 35.14 284.693 35.14C283.788 35.14 283.041 34.7667 282.453 34.02H282.383L282.243 35H281.333ZM283.041 33.418C283.48 33.9127 284.007 34.16 284.623 34.16C285.239 34.16 285.767 33.9127 286.205 33.418C286.644 32.9233 286.863 32.284 286.863 31.5C286.863 30.716 286.644 30.0767 286.205 29.582C285.767 29.0873 285.239 28.84 284.623 28.84C284.007 28.84 283.48 29.0873 283.041 29.582C282.603 30.0767 282.383 30.716 282.383 31.5C282.383 32.284 282.603 32.9233 283.041 33.418ZM289.453 32.2V28H290.503V32.2C290.503 32.76 290.685 33.2267 291.049 33.6C291.413 33.9733 291.861 34.16 292.393 34.16C292.953 34.16 293.429 33.9687 293.821 33.586C294.222 33.194 294.423 32.732 294.423 32.2V28H295.473V35H294.563L294.423 34.23H294.353C294.185 34.426 294.007 34.58 293.821 34.692C293.354 34.9907 292.831 35.14 292.253 35.14C291.441 35.14 290.769 34.8693 290.237 34.328C289.714 33.7773 289.453 33.068 289.453 32.2ZM297.437 35V28H298.347L298.487 28.7H298.557C298.725 28.4573 298.898 28.28 299.075 28.168C299.262 28.056 299.532 28 299.887 28H301.077V28.98H300.027C299.532 28.98 299.15 29.1153 298.879 29.386C298.618 29.6473 298.487 30.0253 298.487 30.52V35H297.437ZM302.195 35V28H303.105L303.245 28.77H303.315C303.464 28.5833 303.637 28.434 303.833 28.322C304.318 28.014 304.846 27.86 305.415 27.86C306.227 27.86 306.894 28.1353 307.417 28.686C307.949 29.2273 308.215 29.932 308.215 30.8V35H307.165V30.8C307.165 30.24 306.983 29.7733 306.619 29.4C306.255 29.0267 305.807 28.84 305.275 28.84C304.715 28.84 304.234 29.036 303.833 29.428C303.441 29.8107 303.245 30.268 303.245 30.8V35H302.195Z" fill="white"/>
<circle cx="327.141" cy="30" r="4" fill="#F29D45"/>
<path d="M340.261 35V25.2H344.531C345.305 25.2 345.963 25.4893 346.505 26.068C347.055 26.6373 347.331 27.3513 347.331 28.21C347.331 29.0687 347.055 29.7873 346.505 30.366C345.963 30.9353 345.305 31.22 344.531 31.22H343.621L347.541 35H346.141L342.221 31.22H341.381V35H340.261ZM341.381 30.17H344.531C344.997 30.17 345.394 29.988 345.721 29.624C346.047 29.26 346.211 28.7887 346.211 28.21C346.211 27.6313 346.047 27.16 345.721 26.796C345.394 26.432 344.997 26.25 344.531 26.25H341.381V30.17ZM348.802 32.2V28H349.852V32.2C349.852 32.76 350.034 33.2267 350.398 33.6C350.762 33.9733 351.21 34.16 351.742 34.16C352.302 34.16 352.778 33.9687 353.17 33.586C353.572 33.194 353.772 32.732 353.772 32.2V28H354.822V35H353.912L353.772 34.23H353.702C353.534 34.426 353.357 34.58 353.17 34.692C352.704 34.9907 352.181 35.14 351.602 35.14C350.79 35.14 350.118 34.8693 349.586 34.328C349.064 33.7773 348.802 33.068 348.802 32.2ZM356.787 35V28H357.697L357.837 28.77H357.907C358.056 28.5833 358.229 28.434 358.425 28.322C358.91 28.014 359.437 27.86 360.007 27.86C360.819 27.86 361.486 28.1353 362.009 28.686C362.541 29.2273 362.807 29.932 362.807 30.8V35H361.757V30.8C361.757 30.24 361.575 29.7733 361.211 29.4C360.847 29.0267 360.399 28.84 359.867 28.84C359.307 28.84 358.826 29.036 358.425 29.428C358.033 29.8107 357.837 30.268 357.837 30.8V35H356.787ZM365.891 35L364.001 28H365.121L366.661 33.88H366.941L368.481 28H370.161L371.701 33.88H371.981L373.521 28H374.641L372.751 35H370.931L369.461 29.33H369.181L367.711 35H365.891ZM380.245 35L380.105 34.16H380.035C379.904 34.3467 379.736 34.51 379.531 34.65C379.102 34.9767 378.546 35.14 377.865 35.14C377.137 35.14 376.544 34.9393 376.087 34.538C375.639 34.1367 375.415 33.614 375.415 32.97C375.415 32.27 375.644 31.724 376.101 31.332C376.568 30.9307 377.272 30.73 378.215 30.73H380.105V30.52C380.105 29.988 379.956 29.5773 379.657 29.288C379.368 28.9893 378.957 28.84 378.425 28.84C377.921 28.84 377.51 28.9567 377.193 29.19C376.885 29.414 376.712 29.694 376.675 30.03H375.625C375.662 29.4327 375.928 28.924 376.423 28.504C376.927 28.0747 377.594 27.86 378.425 27.86C379.274 27.86 379.942 28.0933 380.427 28.56C380.912 29.0267 381.155 29.68 381.155 30.52V35H380.245ZM380.105 31.99V31.71H378.215C377.618 31.71 377.174 31.8267 376.885 32.06C376.605 32.2933 376.465 32.5967 376.465 32.97C376.465 33.334 376.586 33.6233 376.829 33.838C377.072 34.0527 377.417 34.16 377.865 34.16C378.565 34.16 379.111 33.9687 379.503 33.586C379.904 33.194 380.105 32.662 380.105 31.99ZM382.775 37.8V36.82H384.105C384.339 36.82 384.502 36.68 384.595 36.4L384.875 35.56L382.005 28H383.125L385.295 33.81H385.575L387.535 28H388.655L385.505 36.82C385.384 37.1653 385.225 37.4127 385.029 37.562C384.833 37.7207 384.549 37.8 384.175 37.8H382.775Z" fill="white"/>
<path d="M61.0488 165.437C71.6299 161.175 78.527 159.705 90.3485 159.192C101.898 158.692 108.133 163.544 119.648 162.67C131.767 161.751 136.824 155.006 148.948 154.134C160.486 153.304 166.807 159.309 178.248 157.849C191.244 156.19 194.39 144.317 207.547 144.491C221.122 144.67 223.278 159.881 236.847 159.509C252.187 159.088 253.694 138.543 266.147 138.484C278.599 138.425 282.157 152.788 295.446 152.409C314.759 151.859 310.462 117.758 324.746 120.402C339.029 123.047 335.825 189.161 354.046 185.636C372.266 182.111 376.799 120.402 383.345 75.6992" stroke="#F29D45" stroke-width="2" stroke-linejoin="round"/>
<path d="M61.0488 162.461C69.1062 155.731 78.8575 148.724 90.3485 149.464C101.839 150.203 107.242 158.107 119.648 160.471C132.055 162.834 136.633 161.856 148.948 162.834C161.263 163.811 166.528 162.524 178.248 165.506C189.967 168.488 194.408 187.528 207.547 181.41C220.686 175.292 226.226 138.297 236.847 132.682C247.468 127.067 257.219 131.683 266.147 134.565C275.074 137.446 284.093 146.618 295.446 144.584C306.8 142.549 312.477 115.872 324.746 121.556C337.015 127.241 340.357 168.488 354.046 168.488C367.734 168.488 378.813 111.932 383.345 89.3945" stroke="#60A5FA" stroke-width="2" stroke-linejoin="round"/>
<path d="M31.7197 32H33.8797C33.8157 32.2987 33.7197 32.608 33.5917 32.928C33.4744 33.248 33.277 33.6107 32.9997 34.016C32.733 34.4107 32.4237 34.7627 32.0717 35.072C31.7197 35.3813 31.261 35.6427 30.6957 35.856C30.1304 36.0587 29.5117 36.16 28.8397 36.16C27.3037 36.16 26.013 35.616 24.9677 34.528C23.9224 33.44 23.3997 32.064 23.3997 30.4C23.3997 28.736 23.9224 27.36 24.9677 26.272C26.013 25.184 27.3037 24.64 28.8397 24.64C29.469 24.64 30.0504 24.736 30.5837 24.928C31.1277 25.1093 31.581 25.344 31.9437 25.632C32.3064 25.92 32.6264 26.256 32.9037 26.64C33.181 27.0133 33.3944 27.3707 33.5437 27.712C33.693 28.0533 33.805 28.3893 33.8797 28.72H31.7197C31.5064 28.1653 31.1597 27.68 30.6797 27.264C30.2104 26.848 29.597 26.64 28.8397 26.64C27.8584 26.64 27.053 26.9867 26.4237 27.68C25.7944 28.3627 25.4797 29.2693 25.4797 30.4C25.4797 31.5307 25.7944 32.4427 26.4237 33.136C27.053 33.8187 27.8584 34.16 28.8397 34.16C29.6077 34.16 30.2264 33.9467 30.6957 33.52C31.1757 33.0933 31.517 32.5867 31.7197 32ZM40.7653 36L40.6053 35.2H40.5253C40.3866 35.3707 40.2 35.5307 39.9653 35.68C39.4533 36 38.8666 36.16 38.2053 36.16C37.3093 36.16 36.5893 35.92 36.0453 35.44C35.512 34.96 35.2453 34.3733 35.2453 33.68C35.2453 32.848 35.5333 32.1867 36.1093 31.696C36.6853 31.2053 37.5173 30.96 38.6053 30.96H40.4453V30.8C40.4453 30.3413 40.312 29.9733 40.0453 29.696C39.7893 29.4187 39.4426 29.28 39.0053 29.28C38.5893 29.28 38.2533 29.3867 37.9973 29.6C37.752 29.8133 37.608 30.0533 37.5653 30.32H35.5653C35.6613 29.584 36.0026 28.96 36.5893 28.448C37.176 27.936 37.9813 27.68 39.0053 27.68C40.0293 27.68 40.856 27.9787 41.4853 28.576C42.1253 29.1733 42.4453 29.9147 42.4453 30.8V36H40.7653ZM40.4453 32.72V32.48H38.7653C37.752 32.48 37.2453 32.8267 37.2453 33.52C37.2453 33.84 37.3573 34.096 37.5813 34.288C37.8053 34.4693 38.12 34.56 38.5253 34.56C39.1333 34.56 39.6026 34.4 39.9333 34.08C40.2746 33.7493 40.4453 33.296 40.4453 32.72ZM44.0422 33.52H45.9622C45.9622 33.7653 46.1009 34 46.3782 34.224C46.6662 34.448 47.0609 34.56 47.5622 34.56C48.5755 34.56 49.0822 34.2667 49.0822 33.68C49.0822 33.424 49.0022 33.2267 48.8422 33.088C48.6822 32.9387 48.3889 32.832 47.9622 32.768L46.6822 32.56C44.9222 32.272 44.0422 31.4987 44.0422 30.24C44.0422 29.5253 44.3462 28.9227 44.9542 28.432C45.5622 27.9307 46.4049 27.68 47.4822 27.68C48.5595 27.68 49.4022 27.9733 50.0102 28.56C50.6182 29.1467 50.9222 29.7333 50.9222 30.32H49.0022C49.0022 30.0533 48.8635 29.8133 48.5862 29.6C48.3089 29.3867 47.9409 29.28 47.4822 29.28C47.0235 29.28 46.6662 29.376 46.4102 29.568C46.1649 29.7493 46.0422 29.9733 46.0422 30.24C46.0422 30.6347 46.4155 30.8853 47.1622 30.992L48.5222 31.2C50.2289 31.456 51.0822 32.2827 51.0822 33.68C51.0822 34.3947 50.7782 34.9867 50.1702 35.456C49.5729 35.9253 48.7035 36.16 47.5622 36.16C46.9862 36.16 46.4742 36.0853 46.0262 35.936C45.5889 35.7867 45.2475 35.6107 45.0022 35.408C44.7675 35.1947 44.5702 34.9547 44.4102 34.688C44.2609 34.4213 44.1595 34.1973 44.1062 34.016C44.0635 33.824 44.0422 33.6587 44.0422 33.52ZM52.9203 36V24.8H54.9203V28.64H55.0003C55.1283 28.48 55.3096 28.32 55.5443 28.16C56.035 27.84 56.6003 27.68 57.2403 27.68C58.1683 27.68 58.931 28 59.5283 28.64C60.1363 29.2693 60.4403 30.096 60.4403 31.12V36H58.4403V31.28C58.4403 30.7573 58.275 30.336 57.9443 30.016C57.6243 29.6853 57.203 29.52 56.6803 29.52C56.1576 29.52 55.731 29.6853 55.4003 30.016C55.0803 30.336 54.9203 30.7573 54.9203 31.28V36H52.9203ZM65.2501 33.696C65.6341 34.112 66.1354 34.32 66.7541 34.32C67.3727 34.32 67.8741 34.112 68.2581 33.696C68.6421 33.2693 68.8341 32.6773 68.8341 31.92C68.8341 31.1627 68.6421 30.576 68.2581 30.16C67.8741 29.7333 67.3727 29.52 66.7541 29.52C66.1354 29.52 65.6341 29.7333 65.2501 30.16C64.8661 30.576 64.6741 31.1627 64.6741 31.92C64.6741 32.6773 64.8661 33.2693 65.2501 33.696ZM62.6741 36V24.8H64.6741V28.72H64.7541C64.9034 28.528 65.0901 28.3573 65.3141 28.208C65.8367 27.856 66.4234 27.68 67.0741 27.68C68.1407 27.68 69.0314 28.0747 69.7461 28.864C70.4714 29.6427 70.8341 30.6613 70.8341 31.92C70.8341 33.1787 70.4714 34.2027 69.7461 34.992C69.0314 35.7707 68.1407 36.16 67.0741 36.16C66.3701 36.16 65.7621 35.9893 65.2501 35.648C65.0261 35.4987 64.8341 35.3227 64.6741 35.12H64.5941L64.4341 36H62.6741ZM72.6759 32.72V27.84H74.6759V32.56C74.6759 33.0827 74.8359 33.5093 75.1559 33.84C75.4866 34.16 75.9133 34.32 76.4359 34.32C76.9586 34.32 77.3799 34.16 77.6999 33.84C78.0306 33.5093 78.1959 33.0827 78.1959 32.56V27.84H80.1959V36H78.3559L78.1959 35.2H78.1159C77.9879 35.36 77.8066 35.52 77.5719 35.68C77.0813 36 76.5159 36.16 75.8759 36.16C74.9479 36.16 74.1799 35.8453 73.5719 35.216C72.9746 34.576 72.6759 33.744 72.6759 32.72ZM82.4297 36V27.84H84.1097L84.2697 28.56H84.3497C84.4457 28.432 84.563 28.3147 84.7017 28.208C85.0324 27.9627 85.395 27.84 85.7897 27.84H87.3897V29.76H85.9497C84.9364 29.76 84.4297 30.2667 84.4297 31.28V36H82.4297ZM88.7459 36V27.84H90.5859L90.7459 28.64H90.8259C90.9539 28.48 91.1353 28.32 91.3699 28.16C91.8606 27.84 92.4259 27.68 93.0659 27.68C93.9939 27.68 94.7566 28 95.3539 28.64C95.9619 29.2693 96.2659 30.096 96.2659 31.12V36H94.2659V31.28C94.2659 30.7573 94.1006 30.336 93.7699 30.016C93.4499 29.6853 93.0286 29.52 92.5059 29.52C91.9833 29.52 91.5566 29.6853 91.2259 30.016C90.9059 30.336 90.7459 30.7573 90.7459 31.28V36H88.7459ZM107.702 36L107.542 35.2H107.462C107.323 35.3707 107.136 35.5307 106.902 35.68C106.39 36 105.803 36.16 105.142 36.16C104.246 36.16 103.526 35.92 102.982 35.44C102.448 34.96 102.182 34.3733 102.182 33.68C102.182 32.848 102.47 32.1867 103.046 31.696C103.622 31.2053 104.454 30.96 105.542 30.96H107.382V30.8C107.382 30.3413 107.248 29.9733 106.982 29.696C106.726 29.4187 106.379 29.28 105.942 29.28C105.526 29.28 105.19 29.3867 104.934 29.6C104.688 29.8133 104.544 30.0533 104.502 30.32H102.502C102.598 29.584 102.939 28.96 103.526 28.448C104.112 27.936 104.918 27.68 105.942 27.68C106.966 27.68 107.792 27.9787 108.422 28.576C109.062 29.1733 109.382 29.9147 109.382 30.8V36H107.702ZM107.382 32.72V32.48H105.702C104.688 32.48 104.182 32.8267 104.182 33.52C104.182 33.84 104.294 34.096 104.518 34.288C104.742 34.4693 105.056 34.56 105.462 34.56C106.07 34.56 106.539 34.4 106.87 34.08C107.211 33.7493 107.382 33.296 107.382 32.72ZM111.538 36V27.84H113.378L113.538 28.64H113.618C113.746 28.48 113.928 28.32 114.162 28.16C114.653 27.84 115.218 27.68 115.858 27.68C116.786 27.68 117.549 28 118.146 28.64C118.754 29.2693 119.058 30.096 119.058 31.12V36H117.058V31.28C117.058 30.7573 116.893 30.336 116.562 30.016C116.242 29.6853 115.821 29.52 115.298 29.52C114.776 29.52 114.349 29.6853 114.018 30.016C113.698 30.336 113.538 30.7573 113.538 31.28V36H111.538ZM123.39 33.696C123.774 34.112 124.275 34.32 124.894 34.32C125.513 34.32 126.014 34.112 126.398 33.696C126.782 33.2693 126.974 32.6773 126.974 31.92C126.974 31.1627 126.782 30.576 126.398 30.16C126.014 29.7333 125.513 29.52 124.894 29.52C124.275 29.52 123.774 29.7333 123.39 30.16C123.006 30.576 122.814 31.1627 122.814 31.92C122.814 32.6773 123.006 33.2693 123.39 33.696ZM127.214 36L127.054 35.12H126.974C126.814 35.3227 126.622 35.4987 126.398 35.648C125.886 35.9893 125.278 36.16 124.574 36.16C123.507 36.16 122.611 35.7707 121.886 34.992C121.171 34.2027 120.814 33.1787 120.814 31.92C120.814 30.6613 121.171 29.6427 121.886 28.864C122.611 28.0747 123.507 27.68 124.574 27.68C125.214 27.68 125.801 27.856 126.334 28.208C126.558 28.3573 126.745 28.528 126.894 28.72H126.974V24.8H128.974V36H127.214ZM135.616 36V24.8H140.736C141.739 24.8 142.576 25.152 143.248 25.856C143.92 26.5493 144.256 27.4507 144.256 28.56C144.256 29.6053 143.936 30.4587 143.296 31.12C142.667 31.7707 141.893 32.1173 140.976 32.16L144.576 36H141.936L138.336 32.16H137.696V36H135.616ZM137.696 30.24H140.656C141.061 30.24 141.413 30.08 141.712 29.76C142.021 29.4293 142.176 29.0293 142.176 28.56C142.176 28.048 142.027 27.6267 141.728 27.296C141.429 26.9653 141.072 26.8 140.656 26.8H137.696V30.24ZM145.944 32.72V27.84H147.944V32.56C147.944 33.0827 148.104 33.5093 148.424 33.84C148.755 34.16 149.181 34.32 149.704 34.32C150.227 34.32 150.648 34.16 150.968 33.84C151.299 33.5093 151.464 33.0827 151.464 32.56V27.84H153.464V36H151.624L151.464 35.2H151.384C151.256 35.36 151.075 35.52 150.84 35.68C150.349 36 149.784 36.16 149.144 36.16C148.216 36.16 147.448 35.8453 146.84 35.216C146.243 34.576 145.944 33.744 145.944 32.72ZM155.698 36V27.84H157.538L157.698 28.64H157.778C157.906 28.48 158.087 28.32 158.322 28.16C158.812 27.84 159.378 27.68 160.018 27.68C160.946 27.68 161.708 28 162.306 28.64C162.914 29.2693 163.218 30.096 163.218 31.12V36H161.218V31.28C161.218 30.7573 161.052 30.336 160.722 30.016C160.402 29.6853 159.98 29.52 159.458 29.52C158.935 29.52 158.508 29.6853 158.178 30.016C157.858 30.336 157.698 30.7573 157.698 31.28V36H155.698ZM166.493 36L164.413 27.84H166.493L167.853 33.2H168.173L169.533 27.84H171.773L173.133 33.2H173.453L174.813 27.84H176.893L174.813 36H172.173L170.813 30.72H170.493L169.133 36H166.493ZM183.138 36L182.978 35.2H182.898C182.759 35.3707 182.572 35.5307 182.338 35.68C181.826 36 181.239 36.16 180.578 36.16C179.682 36.16 178.962 35.92 178.418 35.44C177.884 34.96 177.618 34.3733 177.618 33.68C177.618 32.848 177.906 32.1867 178.482 31.696C179.058 31.2053 179.89 30.96 180.978 30.96H182.818V30.8C182.818 30.3413 182.684 29.9733 182.418 29.696C182.162 29.4187 181.815 29.28 181.378 29.28C180.962 29.28 180.626 29.3867 180.37 29.6C180.124 29.8133 179.98 30.0533 179.938 30.32H177.938C178.034 29.584 178.375 28.96 178.962 28.448C179.548 27.936 180.354 27.68 181.378 27.68C182.402 27.68 183.228 27.9787 183.858 28.576C184.498 29.1733 184.818 29.9147 184.818 30.8V36H183.138ZM182.818 32.72V32.48H181.138C180.124 32.48 179.618 32.8267 179.618 33.52C179.618 33.84 179.73 34.096 179.954 34.288C180.178 34.4693 180.492 34.56 180.898 34.56C181.506 34.56 181.975 34.4 182.306 34.08C182.647 33.7493 182.818 33.296 182.818 32.72ZM186.582 39.2V37.36H188.182C188.502 37.36 188.705 37.2267 188.79 36.96L188.934 36.56L185.622 27.84H187.702L189.782 33.36H190.102L192.022 27.84H194.102L190.662 37.6C190.46 38.1867 190.188 38.5973 189.846 38.832C189.516 39.0773 188.988 39.2 188.262 39.2H186.582Z" fill="white"/>
<defs>
<linearGradient id="paint0_linear_3550_102054" x1="-241.162" y1="-126.928" x2="226.002" y2="424.091" gradientUnits="userSpaceOnUse">
<stop stop-color="white"/>
<stop offset="1" stop-color="white" stop-opacity="0"/>
</linearGradient>
<linearGradient id="paint1_linear_3550_102054" x1="-265.223" y1="-218.434" x2="344.701" y2="593.88" gradientUnits="userSpaceOnUse">
<stop stop-color="white"/>
<stop offset="1" stop-color="white" stop-opacity="0"/>
</linearGradient>
</defs>
</svg>
