<svg width="48" height="48" viewBox="0 0 48 48" fill="none" xmlns="http://www.w3.org/2000/svg">
<path fill-rule="evenodd" clip-rule="evenodd" d="M9.05327 13.3148C6.8181 16.3503 5.5 20.0893 5.5 24.1375C5.5 34.2688 13.7729 42.4996 24 42.4996C25.9373 42.4996 27.8023 42.2045 29.5533 41.6583L30.9853 41.2117L31.8786 44.0756L30.4467 44.5222C28.4096 45.1576 26.2435 45.4996 24 45.4996C12.1357 45.4996 2.5 35.9452 2.5 24.1375C2.5 19.9614 3.70737 16.0629 5.793 12.7711L6.63953 11.5333C6.71116 11.436 9.18809 13.1325 9.05327 13.3148Z" fill="white"/>
<path d="M18.4512 6.34668L17.0201 6.79615L16.1211 3.934L17.5522 3.48453C19.5901 2.84448 21.7571 2.5 24.0017 2.5C35.8758 2.5 45.5017 12.1259 45.5017 24C45.5017 28.5529 43.9961 32.7305 41.509 36.4824L41.4773 36.5267L39.0404 34.777C41.3721 31.5298 42.5017 28.0034 42.5017 24C42.5017 11.6685 30.0391 2.70712 18.4512 6.34668Z" fill="white"/>
<path d="M45.1034 37.3564L36.5989 41.5614L35.9883 32.0938L45.1034 37.3564Z" fill="white"/>
<path d="M2.89844 10.6445L11.403 6.43945L12.0136 15.9071L2.89844 10.6445Z" fill="white"/>
<path d="M20.84 26.688L19.856 25.368V24.192H22.448C23.152 24.192 23.728 23.936 24.176 23.424C24.64 22.912 24.872 22.28 24.872 21.528C24.872 20.968 24.736 20.48 24.464 20.064C24.208 19.632 23.84 19.296 23.36 19.056C22.896 18.816 22.368 18.696 21.776 18.696H18.632V16.2H29.144V18.696H24.584L22.208 17.16C22.928 17.16 23.608 17.272 24.248 17.496C24.888 17.72 25.448 18.032 25.928 18.432C26.424 18.816 26.808 19.28 27.08 19.824C27.368 20.352 27.512 20.928 27.512 21.552C27.512 22.24 27.368 22.896 27.08 23.52C26.808 24.128 26.432 24.672 25.952 25.152C25.472 25.632 24.904 26.008 24.248 26.28C23.608 26.552 22.928 26.688 22.208 26.688H20.84ZM25.328 33L19.928 25.416L22.592 24.816L28.472 33.024L25.328 33ZM22.808 22.608V20.448H29.24V22.608H22.808Z" fill="white"/>
</svg>
