<svg width="40" height="40" viewBox="0 0 40 40" fill="none" xmlns="http://www.w3.org/2000/svg">
<rect y="0.000854492" width="40" height="40" rx="4" fill="white" fill-opacity="0.1"/>
<path d="M30.0001 19.0009C29.7349 19.0009 29.4805 19.1062 29.293 19.2937C29.1054 19.4813 29.0001 19.7356 29.0001 20.0009V24.0009C29.0001 24.2661 28.8947 24.5204 28.7072 24.708C28.5197 24.8955 28.2653 25.0009 28.0001 25.0009H15.5001V22.0009C15.5001 21.9086 15.4746 21.8182 15.4264 21.7396C15.3782 21.6609 15.3092 21.5971 15.2271 21.5553C15.1449 21.5134 15.0527 21.4951 14.9608 21.5023C14.8688 21.5096 14.7807 21.5421 14.7061 21.5964L9.2061 25.5964C9.14226 25.6427 9.09031 25.7036 9.05449 25.7739C9.01867 25.8442 9 25.922 9 26.0009C9 26.0798 9.01867 26.1575 9.05449 26.2278C9.09031 26.2981 9.14226 26.359 9.2061 26.4054L14.7061 30.4054C14.7807 30.4596 14.8688 30.4921 14.9608 30.4994C15.0527 30.5066 15.1449 30.4883 15.2271 30.4464C15.3092 30.4046 15.3782 30.3408 15.4264 30.2622C15.4746 30.1835 15.5001 30.0931 15.5001 30.0009V27.0009H28.0001C28.7955 27.0001 29.5581 26.6837 30.1205 26.1213C30.683 25.5589 30.9993 24.7963 31.0001 24.0009V20.0009C31.0001 19.7356 30.8947 19.4813 30.7072 19.2937C30.5197 19.1062 30.2653 19.0009 30.0001 19.0009Z" fill="white"/>
<path d="M30.794 13.5963L25.294 9.5963C25.2194 9.54207 25.1313 9.50953 25.0393 9.50228C24.9474 9.49503 24.8552 9.51335 24.773 9.55522C24.6909 9.59708 24.6219 9.66086 24.5737 9.7395C24.5255 9.81814 24.5 9.90857 24.5 10.0008V13.0008H12C11.2046 13.0016 10.442 13.3179 9.87956 13.8804C9.31712 14.4428 9.00079 15.2054 9 16.0008V20.0008C9 20.266 9.10536 20.5204 9.29289 20.7079C9.48043 20.8954 9.73478 21.0008 10 21.0008C10.2652 21.0008 10.5196 20.8954 10.7071 20.7079C10.8946 20.5204 11 20.266 11 20.0008V16.0008C11 15.7356 11.1054 15.4812 11.2929 15.2937C11.4804 15.1062 11.7348 15.0008 12 15.0008H24.5V18.0008C24.5 18.093 24.5255 18.1835 24.5737 18.2621C24.6219 18.3407 24.6909 18.4045 24.773 18.4464C24.8552 18.4883 24.9474 18.5066 25.0393 18.4993C25.1313 18.4921 25.2194 18.4595 25.294 18.4053L30.794 14.4053C30.8578 14.3589 30.9098 14.2981 30.9456 14.2278C30.9814 14.1575 31.0001 14.0797 31.0001 14.0008C31.0001 13.9219 30.9814 13.8441 30.9456 13.7738C30.9098 13.7035 30.8578 13.6427 30.794 13.5963Z" fill="white"/>
</svg>
