<svg width="40" height="41" viewBox="0 0 40 41" fill="none" xmlns="http://www.w3.org/2000/svg">
<rect y="0.436523" width="40" height="40" rx="4" fill="white" fill-opacity="0.1"/>
<path fill-rule="evenodd" clip-rule="evenodd" d="M28.8141 18.6051L31.1828 22.795C31.3386 23.0706 31.2129 23.418 30.915 23.535L29.0434 24.2701L28.5501 27.3789C28.3939 28.3629 27.5538 29.1025 26.5415 29.1472L24.5397 29.2359V31.6865H14.9708V28.547L13.2333 27.6158C10.6681 26.241 8.99878 23.6702 8.81066 20.8048L8.77233 20.221C8.38002 14.2453 13.2064 9.18652 19.2999 9.18652C24.339 9.18652 28.5003 13.055 28.7799 17.9992L28.8141 18.6051ZM21.9883 22.1167C22.1568 21.7152 22.25 21.2743 22.25 20.8115C22.25 18.9475 20.739 17.4365 18.875 17.4365C17.011 17.4365 15.5 18.9475 15.5 20.8115C15.5 22.6755 17.011 24.1865 18.875 24.1865C19.7337 24.1865 20.5176 23.8658 21.1133 23.3376L25.3671 26.7406L26.3042 25.5694L21.9883 22.1167Z" fill="white"/>
</svg>
