<svg width="48" height="48" viewBox="0 0 48 48" fill="none" xmlns="http://www.w3.org/2000/svg">
<path fill-rule="evenodd" clip-rule="evenodd" d="M1 8H47V40H1V8ZM4 11V37H44V11H4Z" fill="white"/>
<path fill-rule="evenodd" clip-rule="evenodd" d="M10 14C10 15.6569 8.65685 17 7 17V31C8.65685 31 10 32.3431 10 34H38C38 32.3431 39.3431 31 41 31V17C39.3431 17 38 15.6569 38 14H10ZM29 24C29 26.7614 26.7614 29 24 29C21.2386 29 19 26.7614 19 24C19 21.2386 21.2386 19 24 19C26.7614 19 29 21.2386 29 24ZM32.5 22.5H37.5V25.5H32.5V22.5ZM10.5 22.5V25.5H15.5V22.5H10.5Z" fill="white"/>
</svg>
