<svg width="254" height="70" viewBox="0 0 254 70" fill="none" xmlns="http://www.w3.org/2000/svg">
<g filter="url(#filter0_ddd_3550_125516)">
<rect x="7" y="5" width="240" height="56" rx="4" fill="white" fill-opacity="0.08" shape-rendering="crispEdges"/>
<rect x="7.5" y="5.5" width="239" height="55" rx="3.5" stroke="url(#paint0_linear_3550_125516)" stroke-opacity="0.1" shape-rendering="crispEdges"/>
<path d="M134.849 37.4363V46.3772H131.844V23.543H140.244C142.74 23.543 144.689 24.1793 146.104 25.4584C147.518 26.7312 148.222 28.4198 148.222 30.5243C148.222 32.7422 147.531 34.4498 146.148 35.6407C144.764 36.8378 142.784 37.4363 140.206 37.4363H134.837H134.849ZM134.849 34.9727H140.25C141.86 34.9727 143.086 34.5947 143.941 33.8322C144.796 33.0761 145.223 31.9736 145.223 30.5432C145.223 29.1129 144.796 28.0922 143.941 27.2793C143.086 26.4602 141.91 26.0381 140.42 26.0066H134.849V34.979V34.9727Z" fill="white"/>
<path d="M159.792 32.0111C159.352 31.9354 158.88 31.904 158.365 31.904C156.466 31.904 155.177 32.7168 154.497 34.3361V46.377H151.605V29.4088H154.422L154.466 31.3683C155.416 29.8561 156.761 29.0938 158.502 29.0938C159.069 29.0938 159.496 29.1693 159.785 29.3143V32.0111H159.792Z" fill="white"/>
<path d="M162.469 24.9046C162.469 24.432 162.613 24.035 162.896 23.7137C163.179 23.3923 163.607 23.2285 164.173 23.2285C164.738 23.2285 165.166 23.3923 165.456 23.7137C165.744 24.035 165.895 24.432 165.895 24.9046C165.895 25.3771 165.751 25.7678 165.456 26.0828C165.166 26.3978 164.738 26.5554 164.173 26.5554C163.607 26.5554 163.186 26.3978 162.896 26.0828C162.608 25.7678 162.469 25.3771 162.469 24.9046ZM165.593 46.3716H162.702V29.4034H165.593V46.3716Z" fill="white"/>
<path d="M172.951 29.4093L173.027 31.2869C174.266 29.8251 175.945 29.0942 178.051 29.0942C180.421 29.0942 182.031 30.0016 182.886 31.8226C183.451 31.0097 184.181 30.3481 185.087 29.844C185.985 29.3463 187.054 29.0879 188.287 29.0879C192.002 29.0879 193.889 31.0601 193.952 34.9981V46.3649H191.06V35.1682C191.06 33.9522 190.783 33.0512 190.23 32.4463C189.676 31.8477 188.746 31.5452 187.444 31.5452C186.369 31.5452 185.477 31.8667 184.766 32.5093C184.055 33.152 183.647 34.0152 183.527 35.1052V46.3649H180.616V35.2439C180.616 32.7739 179.409 31.5452 177.001 31.5452C175.102 31.5452 173.801 32.3518 173.102 33.9774V46.3649H170.211V29.3967H172.951V29.4093Z" fill="white"/>
<path d="M205.344 46.6861C203.049 46.6861 201.182 45.93 199.742 44.4179C198.302 42.9057 197.586 40.8893 197.586 38.3564V37.8209C197.586 36.1386 197.906 34.6389 198.548 33.3158C199.189 31.9926 200.088 30.9592 201.238 30.2094C202.389 29.4659 203.64 29.0879 204.986 29.0879C207.186 29.0879 208.896 29.8124 210.117 31.268C211.336 32.7234 211.946 34.8028 211.946 37.5121V38.7219H200.477C200.522 40.3916 201.006 41.7463 201.943 42.7733C202.874 43.8003 204.062 44.317 205.502 44.317C206.527 44.317 207.387 44.1091 208.098 43.6932C208.809 43.2773 209.432 42.7229 209.959 42.0298L211.726 43.4097C210.305 45.5961 208.18 46.6861 205.344 46.6861ZM204.986 31.4759C203.816 31.4759 202.836 31.9043 202.043 32.755C201.251 33.6056 200.761 34.8028 200.572 36.3401H209.054V36.1197C208.972 34.6452 208.575 33.5048 207.866 32.692C207.155 31.8791 206.193 31.4759 204.986 31.4759Z" fill="white"/>
<path d="M47.5556 17.2419C47.958 17.6263 48.6811 18.6281 49.6808 18.206C50.7245 17.746 55.9745 17.2419 57.6972 17.0088C59.42 16.8135 60.9038 17.0466 60.9038 17.0466C60.9038 17.0466 56.3329 23.0702 55.6098 24.0721C54.8491 25.036 50.9571 30.4423 50.1963 31.5575C49.4356 32.7168 47.6311 35.7224 46.7886 37.1905C45.9838 38.6585 47.3481 38.5766 47.3481 38.5766C47.3481 38.5766 50.473 38.6523 51.1583 38.6523C51.7996 38.6144 51.9191 38.1923 52.0008 37.9592C52.1203 37.726 52.3592 37.1085 52.9251 36.1445C53.4846 35.1805 54.8113 33.0193 56.2951 30.6627C57.779 28.3063 59.464 26.0316 60.7843 24.2548C62.1047 22.4779 63.6702 20.4365 64.0287 19.9702C64.3871 19.5102 65.8709 17.5759 66.1916 17.1537C66.5122 16.6938 66.6316 16.7316 67.1913 16.6938C67.7508 16.6559 71.4793 16.9269 73.0072 17.0403C74.5727 17.1537 76.8173 17.2356 78.2195 17.349C79.6215 17.4625 79.2191 16.7316 79.2191 16.7316C79.2191 16.7316 79.3009 15.8431 78.8985 14.8791C78.4583 13.8773 78.0936 14.0285 78.0936 14.0285C76.0879 13.4488 68.5934 13.0645 66.4682 13.0645H65.8081C62.985 13.1023 56.0248 13.4992 54.4843 13.6441C52.7993 13.7954 47.4676 14.7216 46.5056 14.9547C45.5437 15.1878 46.1032 15.7675 46.1032 15.7675C46.1032 15.7675 47.1029 16.8072 47.5493 17.2356L47.5556 17.2419Z" fill="white"/>
<path d="M121.043 29.1697C121.043 29.1697 120.602 28.9365 118.798 28.5522C116.956 28.13 116.553 29.0941 116.553 29.0941C116.553 29.0941 114.026 31.3687 112.467 32.799C110.901 34.1851 109.097 35.3445 107.858 35.9998C106.657 36.6929 105.412 37.1213 104.934 36.8125C104.45 36.5417 104.934 35.8108 105.293 35.1933C105.651 34.538 107.575 32.4145 108.059 31.8349C108.543 31.2552 110.788 28.9429 111.75 28.0165C112.674 27.0525 111.027 26.7439 110.266 26.5485C109.505 26.391 109.021 26.2775 108.26 26.2775C107.5 26.2775 107.217 26.8194 107.217 26.8194C107.217 26.8194 105.896 28.1678 105.494 28.6341C105.135 29.1381 101.482 33.0321 100.319 34.1914C99.1561 35.3887 97.5528 36.548 97.0687 36.6992C96.5845 36.8567 95.6226 37.0835 94.8241 36.1195C94.0193 35.1933 94.7047 34.538 95.7483 33.1077C96.8297 31.7215 99.6402 28.59 100.998 27.0903C102.4 25.5844 107.575 21.4952 108.575 20.7643C109.574 20.0334 108.977 19.8003 108.977 19.8003C108.977 19.8003 108.053 19.2206 107.531 19.0253C107.009 18.7921 106.167 18.6409 105.324 18.6409C104.482 18.6409 104.123 19.145 104.123 19.145C104.123 19.145 101.237 21.4574 100.678 21.9615C100.118 22.4214 93.8621 28.3694 92.7367 29.5225C91.5735 30.6819 88.3291 33.4983 87.2038 34.4245C86.0783 35.313 85.0408 35.773 84.4372 35.3508C83.8336 34.9664 84.0348 34.3112 84.4372 33.7314C84.7957 33.1518 87.2855 30.1841 88.1657 29.176C89.0459 28.1741 91.7747 25.4332 92.7367 24.4692C93.6609 23.5052 97.4271 20.3422 98.5085 19.4537C99.634 18.5653 98.2256 18.0234 98.2256 18.0234C98.2256 18.0234 97.4208 17.5635 96.1004 17.2925C94.7801 17.0216 94.4971 17.3681 93.774 17.8344C93.0133 18.2944 88.04 23.3162 87.5181 23.8517C86.9962 24.3558 80.9855 30.2219 80.0612 31.1481C79.0992 32.0365 76.0121 34.6955 75.4085 35.0862C74.8489 35.5083 73.0822 36.7054 72.6044 35.9745C72.0825 35.2437 73.1639 34.5884 73.1639 34.5884C73.1639 34.5884 75.8487 32.0807 76.7729 31.041C77.7349 30.0013 77.1753 28.4577 77.0118 28.067C76.8106 27.6449 76.0875 26.4855 74.7672 25.4459C73.4468 24.4062 72.0825 24.3243 71.1582 24.3684C70.1962 24.444 68.7942 25.2947 67.8699 25.7168C66.9456 26.1768 64.2609 28.1489 64.2609 28.1489C64.2609 28.1489 62.0981 30.0013 60.8531 31.2741C59.6522 32.5091 58.6462 33.5865 60.0106 36.1007C61.375 38.6461 63.8585 39.2259 64.8645 39.3455C65.8264 39.459 67.1091 38.4571 67.5492 38.1105C67.9893 37.7262 68.0711 37.8774 68.4735 38.4949C68.8319 39.1124 69.9573 39.5345 71.0011 39.7299C72.0007 39.8874 72.4471 39.6543 74.2516 39.1502C76.0184 38.6461 79.3444 36.6803 79.9858 36.2581C80.627 35.7982 80.6648 36.4912 81.2306 37.4553C81.7903 38.4193 83.1169 38.7659 84.2801 38.8855C85.481 38.9612 86.0468 38.6902 86.8076 38.3437C87.5684 37.9972 89.6119 37.0331 90.2154 36.6047C90.819 36.2203 90.9384 36.1825 91.1774 36.8C91.4163 37.3797 91.4603 37.8774 93.3026 39.1124C95.1071 40.3474 98.1564 39.6543 98.8354 39.4211C99.5585 39.188 100.879 38.5328 101.2 38.3374C101.52 38.1421 101.803 38.684 102.52 39.377C103.199 40.0323 104.607 39.9945 105.488 39.4527C106.368 38.873 105.928 39.5282 105.928 39.5282C105.928 39.5282 104.526 41.3114 104.123 41.8407C103.4 42.7921 102.363 44.298 101.275 45.8165C100.741 46.5663 99.0304 49.6349 98.5902 50.372C98.1878 51.1408 98.3513 51.103 99.0744 51.4494C99.7534 51.8339 101.602 51.9535 102.042 51.9535C102.444 51.9535 102.602 51.4935 102.602 51.4935C102.602 51.4935 104.878 48.2298 105.607 47.0955C106.676 45.4384 108.726 43.2205 108.726 43.2205C109.128 42.6661 110.392 41.2673 110.775 40.801C111.417 40.0701 115.063 36.3274 116.271 35.2059C117.471 34.0465 120.602 31.2679 121.52 30.4172C122.445 29.5667 121.036 29.1822 121.036 29.1822L121.043 29.1697ZM69.6052 33.2211C68.5238 33.952 65.6756 35.8863 64.9525 36.0754C64.2734 36.2708 63.8271 36.4975 63.387 35.9242C62.9468 35.3445 64.2295 34.2292 64.2295 34.2292C64.2295 34.2292 66.5936 32.1437 67.5178 31.4128C68.4798 30.6819 71.045 28.7097 71.6047 28.4388C72.1642 28.1678 72.5666 27.8969 73.0885 28.3631C73.6104 28.8672 73.1702 29.3272 73.0068 29.5603C72.8873 29.7934 70.6426 32.4902 69.599 33.2274L69.6052 33.2211Z" fill="white"/>
<path d="M122.443 46.6867C122.085 46.5355 117.835 45.0674 116.552 44.7586C115.269 44.4121 109.856 43.3284 109.133 43.2527C108.636 43.2023 104.524 42.5912 103.443 42.5155C102.581 42.4525 101.393 42.3706 99.2303 42.2131C97.0674 42.0618 91.9746 41.8287 88.3279 41.7909C84.6371 41.7532 74.8602 42.2949 71.2513 42.4841C67.6045 42.6794 58.9845 43.9522 56.2179 44.3365C53.4515 44.7586 44.5925 46.5355 42.7503 47.1152C40.9458 47.6571 43.071 48.5076 44.3913 49.1188C45.7117 49.7363 47.0761 49.3897 47.0761 49.3897C47.0761 49.3897 49.7608 48.9235 51.1252 48.6588C52.4895 48.3879 62.4676 46.9198 64.9575 46.5355C67.4411 46.1133 76.8659 45.2627 79.4312 45.0674C81.9964 44.9098 89.1704 44.9098 91.2201 44.8721C93.2635 44.8343 100.161 45.2186 100.519 45.2564C104.38 45.6975 106.775 46.1826 106.775 46.1826C106.775 46.1826 110.302 46.8001 111.824 47.1088C113.39 47.3798 119.124 48.8478 120.362 49.3456C121.607 49.8497 122.167 49.8497 122.487 49.7301C122.808 49.5725 123.569 47.9154 123.569 47.9154C123.688 47.1025 122.764 46.8757 122.443 46.6804V46.6867Z" fill="white"/>
</g>
<defs>
<filter id="filter0_ddd_3550_125516" x="0" y="0" width="254" height="70" filterUnits="userSpaceOnUse" color-interpolation-filters="sRGB">
<feFlood flood-opacity="0" result="BackgroundImageFix"/>
<feColorMatrix in="SourceAlpha" type="matrix" values="0 0 0 0 0 0 0 0 0 0 0 0 0 0 0 0 0 0 127 0" result="hardAlpha"/>
<feMorphology radius="1" operator="dilate" in="SourceAlpha" result="effect1_dropShadow_3550_125516"/>
<feOffset/>
<feComposite in2="hardAlpha" operator="out"/>
<feColorMatrix type="matrix" values="0 0 0 0 0.0627451 0 0 0 0 0.0980392 0 0 0 0 0.156863 0 0 0 0.05 0"/>
<feBlend mode="normal" in2="BackgroundImageFix" result="effect1_dropShadow_3550_125516"/>
<feColorMatrix in="SourceAlpha" type="matrix" values="0 0 0 0 0 0 0 0 0 0 0 0 0 0 0 0 0 0 127 0" result="hardAlpha"/>
<feOffset dy="2"/>
<feGaussianBlur stdDeviation="3.5"/>
<feComposite in2="hardAlpha" operator="out"/>
<feColorMatrix type="matrix" values="0 0 0 0 0.0627451 0 0 0 0 0.0980392 0 0 0 0 0.156863 0 0 0 0.05 0"/>
<feBlend mode="normal" in2="effect1_dropShadow_3550_125516" result="effect2_dropShadow_3550_125516"/>
<feColorMatrix in="SourceAlpha" type="matrix" values="0 0 0 0 0 0 0 0 0 0 0 0 0 0 0 0 0 0 127 0" result="hardAlpha"/>
<feMorphology radius="2" operator="erode" in="SourceAlpha" result="effect3_dropShadow_3550_125516"/>
<feOffset dy="2"/>
<feGaussianBlur stdDeviation="2.5"/>
<feComposite in2="hardAlpha" operator="out"/>
<feColorMatrix type="matrix" values="0 0 0 0 0.0627451 0 0 0 0 0.0980392 0 0 0 0 0.156863 0 0 0 0.06 0"/>
<feBlend mode="normal" in2="effect2_dropShadow_3550_125516" result="effect3_dropShadow_3550_125516"/>
<feBlend mode="normal" in="SourceGraphic" in2="effect3_dropShadow_3550_125516" result="shape"/>
</filter>
<linearGradient id="paint0_linear_3550_125516" x1="-259.667" y1="-57.0723" x2="-32.6414" y2="259.304" gradientUnits="userSpaceOnUse">
<stop stop-color="white"/>
<stop offset="1" stop-color="white" stop-opacity="0"/>
</linearGradient>
</defs>
</svg>
