<svg width="48" height="48" viewBox="0 0 48 48" fill="none" xmlns="http://www.w3.org/2000/svg">
<rect width="48" height="48" rx="4" fill="white" fill-opacity="0.1"/>
<g clip-path="url(#clip0_1997_30171)">
<path d="M15.5557 17.7778C17.7648 17.7778 19.5557 15.987 19.5557 13.7778C19.5557 11.5687 17.7648 9.77783 15.5557 9.77783C13.3465 9.77783 11.5557 11.5687 11.5557 13.7778C11.5557 15.987 13.3465 17.7778 15.5557 17.7778Z" fill="white"/>
<path d="M32.4443 17.7778C34.6535 17.7778 36.4443 15.987 36.4443 13.7778C36.4443 11.5687 34.6535 9.77783 32.4443 9.77783C30.2352 9.77783 28.4443 11.5687 28.4443 13.7778C28.4443 15.987 30.2352 17.7778 32.4443 17.7778Z" fill="white"/>
<path d="M20.6542 23.3048C21.1378 22.7502 21.0827 21.9075 20.5298 21.4222C19.1538 20.2168 17.3867 19.5537 15.5556 19.5537C11.3902 19.5555 8 22.9457 8 27.111C8 27.847 8.59733 28.4444 9.33333 28.4444C10.0693 28.4444 10.6667 27.847 10.6667 27.111C10.6667 24.4142 12.8604 22.2222 15.5556 22.2222C16.7413 22.2222 17.8827 22.6506 18.7733 23.431C19.3298 23.9164 20.1707 23.8595 20.656 23.3066L20.6542 23.3048Z" fill="white"/>
<path d="M32.4444 19.5557C30.6151 19.5557 28.8498 20.2188 27.472 21.4206C26.9173 21.9059 26.8604 22.7486 27.3458 23.3032C27.8293 23.8561 28.6738 23.9148 29.2284 23.4294C30.1191 22.6508 31.2622 22.2223 32.4462 22.2223C35.1413 22.2223 37.3351 24.4143 37.3351 27.1112C37.3351 27.8472 37.9324 28.4446 38.6684 28.4446C39.4044 28.4446 40.0018 27.8472 40.0018 27.1112C40.0018 22.9459 36.6116 19.5557 32.4462 19.5557H32.4444Z" fill="white"/>
<path d="M26.6293 25.2142C26.0551 24.3093 25.0738 23.7671 24 23.7671C22.9262 23.7671 21.9449 24.3093 21.3707 25.2142L16.1564 33.4471C15.5502 34.4053 15.5129 35.6178 16.0587 36.6115C16.6044 37.6053 17.6498 38.2222 18.784 38.2222H29.2124C30.3467 38.2222 31.392 37.6053 31.9378 36.6115C32.4836 35.6178 32.448 34.4053 31.84 33.4471L26.6258 25.2142H26.6293ZM24 36.4444C23.264 36.4444 22.6667 35.8471 22.6667 35.1111C22.6667 34.3751 23.264 33.7778 24 33.7778C24.736 33.7778 25.3333 34.3751 25.3333 35.1111C25.3333 35.8471 24.736 36.4444 24 36.4444ZM25.3333 31.1111C25.3333 31.8471 24.736 32.4444 24 32.4444C23.264 32.4444 22.6667 31.8471 22.6667 31.1111V28C22.6667 27.264 23.264 26.6666 24 26.6666C24.736 26.6666 25.3333 27.264 25.3333 28V31.1111Z" fill="white"/>
</g>
<defs>
<clipPath id="clip0_1997_30171">
<rect width="32" height="32" fill="white" transform="translate(8 8)"/>
</clipPath>
</defs>
</svg>
