<svg width="24" height="24" viewBox="0 0 24 24" fill="none" xmlns="http://www.w3.org/2000/svg">
<path d="M6 17C7.3807 17 8.5 15.8807 8.5 14.5C8.5 13.1193 7.3807 12 6 12C4.61929 12 3.5 13.1193 3.5 14.5C3.5 15.8807 4.61929 17 6 17Z" fill="white"/>
<path d="M18 17C19.3807 17 20.5 15.8807 20.5 14.5C20.5 13.1193 19.3807 12 18 12C16.6193 12 15.5 13.1193 15.5 14.5C15.5 15.8807 16.6193 17 18 17Z" fill="white"/>
<path fill-rule="evenodd" clip-rule="evenodd" d="M12 1.5C9.53075 1.5 7.5 3.43265 7.5 5.8512C7.5 8.25055 9.3766 10.2023 11.7318 11.8162L12 12L12.2682 11.8162C14.6234 10.2023 16.5 8.25055 16.5 5.8512C16.5 3.43265 14.4692 1.5 12 1.5ZM12 4.5C11.3096 4.5 10.75 5.05965 10.75 5.75C10.75 6.44035 11.3096 7 12 7C12.6904 7 13.25 6.44035 13.25 5.75C13.25 5.05965 12.6904 4.5 12 4.5Z" fill="white"/>
<path fill-rule="evenodd" clip-rule="evenodd" d="M1.0685 22.1672C1.4653 19.8021 3.5214 18 5.99937 18C8.47737 18 10.5335 19.8021 10.9303 22.1672L11.0086 22.6338L9.40667 22.9947C7.16327 23.5002 4.8355 23.5002 2.59209 22.9947L0.990234 22.6338L1.0685 22.1672Z" fill="white"/>
<path fill-rule="evenodd" clip-rule="evenodd" d="M13.006 22.1672C13.4028 19.8021 15.4589 18 17.9369 18C20.4149 18 22.471 19.8021 22.8678 22.1672L22.946 22.6338L21.3442 22.9947C19.1008 23.5002 16.773 23.5002 14.5296 22.9947L12.9277 22.6338L13.006 22.1672Z" fill="white"/>
</svg>
