<svg width="48" height="48" viewBox="0 0 48 48" fill="none" xmlns="http://www.w3.org/2000/svg">
<rect width="48" height="48" rx="4" fill="white" fill-opacity="0.1"/>
<path fill-rule="evenodd" clip-rule="evenodd" d="M25 23V34H23V23H25Z" fill="white"/>
<path fill-rule="evenodd" clip-rule="evenodd" d="M20.13 28.8494L19.1398 28.9893C16.5772 29.3512 14.4491 29.9834 12.9927 30.7509C11.4589 31.5592 11 32.3268 11 32.8294C11 33.1483 11.1717 33.5766 11.7579 34.0884C12.3419 34.5982 13.2448 35.1029 14.4469 35.5468C16.8433 36.4318 20.2207 36.9991 24 36.9991C27.7793 36.9991 31.1566 36.4318 33.5531 35.5468C34.7552 35.1029 35.6581 34.5982 36.2421 34.0884C36.8283 33.5766 37 33.1483 37 32.8294C37 32.3268 36.5411 31.5592 35.0073 30.7509C33.5509 29.9834 31.4228 29.3512 28.8602 28.9893L27.87 28.8494L28.1497 26.8691L29.1398 27.0089C31.8399 27.3903 34.2118 28.0709 35.9398 28.9815C37.5903 29.8514 39 31.1273 39 32.8294C39 33.938 38.3882 34.8697 37.5575 35.595C36.7246 36.3221 35.5773 36.9314 34.2459 37.423C31.5753 38.4091 27.9527 38.9991 24 38.9991C20.0473 38.9991 16.4247 38.4091 13.7541 37.423C12.4227 36.9314 11.2754 36.3221 10.4425 35.595C9.61183 34.8697 9 33.938 9 32.8294C9 31.1273 10.4097 29.8514 12.0602 28.9815C13.7882 28.0709 16.1601 27.3903 18.8602 27.0089L19.8503 26.8691L20.13 28.8494Z" fill="white"/>
<path fill-rule="evenodd" clip-rule="evenodd" d="M24 9C19.5817 9 16 12.5817 16 17C16 21.4183 19.5817 25 24 25C28.4183 25 32 21.4183 32 17C32 12.5817 28.4183 9 24 9ZM22 17C22 15.8954 22.8954 15 24 15H25V13H24C21.7909 13 20 14.7909 20 17V18H22V17Z" fill="white"/>
</svg>
