<svg width="48" height="48" viewBox="0 0 48 48" fill="none" xmlns="http://www.w3.org/2000/svg">
<path d="M23.9993 2.66699C12.2367 2.66699 2.66602 12.2377 2.66602 24.0003C2.66602 29.163 4.51135 33.9017 7.57535 37.5977L25.1727 20.0003H18.002C16.898 20.0003 16.002 19.1043 16.002 18.0003C16.002 16.8963 16.898 16.0003 18.002 16.0003H30.002C31.106 16.0003 32.002 16.8963 32.002 18.0003V30.0003C32.002 31.1043 31.106 32.0003 30.002 32.0003C28.898 32.0003 28.002 31.1043 28.002 30.0003V22.8297L10.402 40.4243C14.0953 43.4883 18.8367 45.3337 23.9993 45.3337C35.762 45.3337 45.3327 35.763 45.3327 24.0003C45.3327 12.2377 35.762 2.66699 23.9993 2.66699Z" fill="white"/>
</svg>
