<svg width="48" height="48" viewBox="0 0 48 48" fill="none" xmlns="http://www.w3.org/2000/svg">
<path fill-rule="evenodd" clip-rule="evenodd" d="M28.0521 2.04614L29.4749 2.52114C36.8564 4.98541 42.3194 11.6659 42.7768 19.7575L42.8226 20.5662L47.1773 28.2691C47.9332 29.6062 47.3082 31.2677 45.908 31.8177L43.1299 32.9088L42.3215 38.0027C41.9088 40.6035 39.6986 42.5276 37.0714 42.6456C37.0702 42.6456 37.069 42.6457 37.0677 42.6457L34.9999 42.7457V47H31.9999V39.8873L36.929 39.6489L36.9351 39.6487C38.1759 39.5937 39.1747 38.6916 39.3586 37.5325L40.436 30.7438L44.2772 29.2351L39.8668 21.4338L39.7816 19.9268C39.3969 13.1222 34.7992 7.4614 28.5249 5.36675L27.1021 4.89176L28.0521 2.04614ZM5.34112 28.9985L5.99039 30.3507C7.30348 33.0854 9.47768 35.3959 12.268 36.8937L16.4999 39.0881V47H13.4999V40.9119L10.8685 39.5473L10.8595 39.5425C7.50143 37.7428 4.87462 34.9578 3.28599 31.6493L2.63672 30.2971L5.34112 28.9985Z" fill="white"/>
<path d="M5.5 27C7.98528 27 10 24.9853 10 22.5C10 20.0147 7.98528 18 5.5 18C3.01472 18 1 20.0147 1 22.5C1 24.9853 3.01472 27 5.5 27Z" fill="white"/>
<path d="M20.5 10C22.9853 10 25 7.98528 25 5.5C25 3.01472 22.9853 1 20.5 1C18.0147 1 16 3.01472 16 5.5C16 7.98528 18.0147 10 20.5 10Z" fill="white"/>
<path d="M5 6.5H13V14.5H5V6.5Z" fill="white"/>
<path fill-rule="evenodd" clip-rule="evenodd" d="M32.3382 21.7569L35 22.8215V25.1785L32.3382 26.2431C32.141 26.9761 31.8534 27.6698 31.4826 28.3117L32.6108 30.9444L30.9444 32.6108L28.3117 31.4826C27.669 31.8534 26.9761 32.1418 26.2431 32.3382L25.1785 35H22.8215L21.7569 32.3382C21.0239 32.141 20.3302 31.8534 19.6883 31.4826L17.0556 32.6108L15.3892 30.9444L16.5174 28.3117C16.1466 27.669 15.8582 26.9761 15.6618 26.2431L13 25.1785V22.8215L15.6618 21.7569C15.859 21.0239 16.1466 20.3302 16.5174 19.6883L15.3892 17.0556L17.0556 15.3892L19.6883 16.5174C20.331 16.1466 21.0239 15.8582 21.7569 15.6618L22.8215 13H25.1785L26.2431 15.6618C26.9761 15.859 27.6698 16.1466 28.3117 16.5174L30.9444 15.3892L32.6108 17.0556L31.4826 19.6883C31.8534 20.331 32.1418 21.0239 32.3382 21.7569ZM20.7 24C20.7 22.1775 22.1775 20.7 24 20.7C25.8225 20.7 27.3 22.1775 27.3 24C27.3 25.8225 25.8225 27.3 24 27.3C22.1775 27.3 20.7 25.8225 20.7 24Z" fill="white"/>
</svg>
