<svg width="41" height="40" viewBox="0 0 41 40" fill="none" xmlns="http://www.w3.org/2000/svg">
<rect x="0.333496" y="0.000976562" width="40" height="40" rx="4" fill="white" fill-opacity="0.1"/>
<g clip-path="url(#clip0_2081_38217)">
<path fill-rule="evenodd" clip-rule="evenodd" d="M16.1441 9.62965C16.7068 9.06705 17.4698 8.75098 18.2654 8.75098H27.0835C28.7403 8.75098 30.0835 10.0941 30.0835 11.751V21.184C28.7811 19.7653 26.9111 18.876 24.8335 18.876C20.8985 18.876 17.7085 22.066 17.7085 26.001C17.7085 28.0786 18.5978 29.9486 20.0165 31.251H13.5835C11.9266 31.251 10.5835 29.9078 10.5835 28.251V16.4329C10.5835 15.6373 10.8996 14.8742 11.4622 14.3116L16.1441 9.62965ZM18.0835 10.251V16.251H12.0835L18.0835 10.251Z" fill="white"/>
<path fill-rule="evenodd" clip-rule="evenodd" d="M24.8335 31.626C27.9401 31.626 30.4585 29.1076 30.4585 26.001C30.4585 22.8944 27.9401 20.376 24.8335 20.376C21.7269 20.376 19.2085 22.8944 19.2085 26.001C19.2085 29.1076 21.7269 31.626 24.8335 31.626ZM25.5835 23.001H24.0835V26.4024L27.2915 28.5411L28.1236 27.293L25.5835 25.5996V23.001Z" fill="white"/>
</g>
<defs>
<clipPath id="clip0_2081_38217">
<rect width="24" height="24" fill="white" transform="translate(8.3335 8.00098)"/>
</clipPath>
</defs>
</svg>
