<svg width="25" height="24" viewBox="0 0 25 24" fill="none" xmlns="http://www.w3.org/2000/svg">
<path d="M8.33398 4V2C8.33398 1.44772 8.7817 1 9.33398 1H15.334C15.8863 1 16.334 1.44772 16.334 2V4H8.33398Z" fill="white"/>
<path fill-rule="evenodd" clip-rule="evenodd" d="M6.33398 4C6.33398 5.10457 7.22941 6 8.33398 6H16.334C17.4386 6 18.334 5.10457 18.334 4V2C19.9909 2 21.334 3.34315 21.334 5V20C21.334 21.6569 19.9909 23 18.334 23H6.33398C4.67712 23 3.33398 21.6569 3.33398 20V5C3.33398 3.34315 4.67713 2 6.33398 2V4ZM17.2482 10.5L15.834 9.08579L11.334 13.5858L8.83396 11.0858L7.41975 12.5L11.334 16.4142L17.2482 10.5Z" fill="white"/>
</svg>
