<svg width="46" height="46" viewBox="0 0 46 46" fill="none" xmlns="http://www.w3.org/2000/svg">
<path fill-rule="evenodd" clip-rule="evenodd" d="M34.584 45.3302L37.0802 43.6661L31.7481 35.668L29.252 37.3321L34.584 45.3302Z" fill="white"/>
<path fill-rule="evenodd" clip-rule="evenodd" d="M17 5.75C17 2.849 14.651 0.5 11.75 0.5C8.849 0.5 6.5 2.849 6.5 5.75C6.5 8.651 8.849 11 11.75 11C14.651 11 17 8.651 17 5.75Z" fill="white"/>
<path d="M10.9053 12.5185L9.49949 23.9807L11.7495 26L13.9995 23.9807L12.5915 12.5H28.7397C29.7117 12.5 30.4995 13.2879 30.4995 14.2598C30.4995 15.0035 30.0319 15.6669 29.3316 15.9172L19.9995 19.25L16.8286 45.5H6.65541L4.95428 30.0319L0.333984 28.0406L1.99973 17.6264C2.29974 15.7437 3.58262 14.1719 5.34152 13.5197C7.30763 12.7912 9.53655 12.5754 10.9053 12.5185Z" fill="white"/>
<path d="M20.7852 38L21.5313 32H45.1716L43.6716 38H20.7852Z" fill="white"/>
<path d="M36.5 3.5C39.8137 3.5 42.5 6.18629 42.5 9.5V29H21.904L22.756 21.4514L30.3412 18.7424C32.2355 18.0658 33.5 16.2713 33.5 14.2598C33.5 11.631 31.3689 9.5 28.7402 9.5H20V3.5H36.5Z" fill="white"/>
</svg>
