<svg width="40" height="41" viewBox="0 0 40 41" fill="none" xmlns="http://www.w3.org/2000/svg">
<rect y="0.436523" width="40" height="40" rx="4" fill="white" fill-opacity="0.1"/>
<path d="M24.8016 13.2334H15.2016C13.2133 13.2334 11.6016 14.8452 11.6016 16.8334V24.0334C11.6016 26.0216 13.2133 27.6334 15.2016 27.6334H24.8016C26.7898 27.6334 28.4016 26.0216 28.4016 24.0334V16.8334C28.4016 14.8452 26.7898 13.2334 24.8016 13.2334Z" stroke="white" stroke-width="2" stroke-linecap="round" stroke-linejoin="round"/>
<path d="M28.4016 16.8334C28.4016 14.8451 26.7898 13.2334 24.8016 13.2334H15.2016C13.2133 13.2334 11.6016 14.8451 11.6016 16.8334H28.4016Z" fill="white"/>
<path d="M15.2031 13.235V10.835" stroke="white" stroke-width="2" stroke-linecap="round" stroke-linejoin="round"/>
<path d="M24.8047 13.235V10.835" stroke="white" stroke-width="2" stroke-linecap="round" stroke-linejoin="round"/>
<path d="M15.5 21.0303C16.3284 21.0303 17 20.3587 17 19.5303C17 18.7018 16.3284 18.0303 15.5 18.0303C14.6716 18.0303 14 18.7018 14 19.5303C14 20.3587 14.6716 21.0303 15.5 21.0303Z" fill="white"/>
<path d="M24.5 21.0303C25.3284 21.0303 26 20.3587 26 19.5303C26 18.7018 25.3284 18.0303 24.5 18.0303C23.6716 18.0303 23 18.7018 23 19.5303C23 20.3587 23.6716 21.0303 24.5 21.0303Z" fill="white"/>
<path d="M20 21.0303C20.8284 21.0303 21.5 20.3587 21.5 19.5303C21.5 18.7018 20.8284 18.0303 20 18.0303C19.1716 18.0303 18.5 18.7018 18.5 19.5303C18.5 20.3587 19.1716 21.0303 20 21.0303Z" fill="white"/>
<path d="M15.5 25.2334C16.3284 25.2334 17 24.5618 17 23.7334C17 22.905 16.3284 22.2334 15.5 22.2334C14.6716 22.2334 14 22.905 14 23.7334C14 24.5618 14.6716 25.2334 15.5 25.2334Z" fill="white"/>
<path d="M20 25.2334C20.8284 25.2334 21.5 24.5618 21.5 23.7334C21.5 22.905 20.8284 22.2334 20 22.2334C19.1716 22.2334 18.5 22.905 18.5 23.7334C18.5 24.5618 19.1716 25.2334 20 25.2334Z" fill="white"/>
</svg>
