<svg width="40" height="41" viewBox="0 0 40 41" fill="none" xmlns="http://www.w3.org/2000/svg">
<path d="M6.39849 8.02309C6.7774 7.53592 7.36001 7.25098 7.97719 7.25098H31.999C32.6285 7.25098 33.2213 7.54736 33.599 8.05098L35.999 11.251L36.499 17.251H2.99902L3.49902 11.751L6.39849 8.02309Z" fill="white"/>
<path d="M3.33496 16.915H36.6683" stroke="white" stroke-linecap="round"/>
<path d="M20.0016 33.5817H9.68417C6.1776 33.5817 3.33496 30.5969 3.33496 26.915V13.5817C3.33496 9.89981 6.1776 6.91504 9.68417 6.91504H30.3191C33.8257 6.91504 36.6683 9.89981 36.6683 13.5817V23.5817" stroke="white" stroke-linecap="round"/>
<path d="M24.165 31.9167H36.665M24.165 31.9167L28.3317 27.75M24.165 31.9167L28.3317 36.0833" stroke="white" stroke-linecap="round" stroke-linejoin="round"/>
</svg>
