<svg width="24" height="24" viewBox="0 0 24 24" fill="none" xmlns="http://www.w3.org/2000/svg">
<path d="M12.0004 10.7996C13.9886 10.7996 15.6004 9.18783 15.6004 7.19961C15.6004 5.21138 13.9886 3.59961 12.0004 3.59961C10.0122 3.59961 8.40039 5.21138 8.40039 7.19961C8.40039 9.18783 10.0122 10.7996 12.0004 10.7996Z" stroke="white" stroke-width="2" stroke-linecap="round" stroke-linejoin="round"/>
<path d="M13.8272 14.6154C13.238 14.4846 12.6308 14.3994 12.0008 14.3994C8.94558 14.3994 6.27078 16.0314 4.80078 18.471" stroke="white" stroke-width="2" stroke-linecap="round" stroke-linejoin="round"/>
<path d="M18.0008 19.1998C18.6635 19.1998 19.2008 18.6625 19.2008 17.9998C19.2008 17.3371 18.6635 16.7998 18.0008 16.7998C17.338 16.7998 16.8008 17.3371 16.8008 17.9998C16.8008 18.6625 17.338 19.1998 18.0008 19.1998Z" fill="white" stroke="white" stroke-width="2" stroke-linecap="round" stroke-linejoin="round"/>
</svg>
