<svg width="48" height="48" viewBox="0 0 48 48" fill="none" xmlns="http://www.w3.org/2000/svg">
<path d="M14 15C16.7614 15 19 12.7614 19 10C19 7.23858 16.7614 5 14 5C11.2386 5 9 7.23858 9 10C9 12.7614 11.2386 15 14 15Z" fill="white"/>
<path d="M34 31C36.7614 31 39 28.7614 39 26C39 23.2386 36.7614 21 34 21C31.2386 21 29 23.2386 29 26C29 28.7614 31.2386 31 34 31Z" fill="white"/>
<path fill-rule="evenodd" clip-rule="evenodd" d="M35.6215 12.5002L31.1215 8.00023L35.6215 3.50023L33.5002 1.37891L26.8789 8.00023L33.5002 14.6215L35.6215 12.5002Z" fill="white"/>
<path fill-rule="evenodd" clip-rule="evenodd" d="M14.5002 46.6215L21.1215 40.0002L14.5002 33.3789L12.3789 35.5002L16.8789 40.0002L12.3789 44.5002L14.5002 46.6215Z" fill="white"/>
<path fill-rule="evenodd" clip-rule="evenodd" d="M44 15V12C44 8.96243 41.5376 6.5 38.5 6.5H29V9.5H38.5C39.8807 9.5 41 10.6193 41 12V15H44Z" fill="white"/>
<path fill-rule="evenodd" clip-rule="evenodd" d="M4 33V36C4 39.0376 6.46243 41.5 9.5 41.5H19V38.5H9.5C8.11929 38.5 7 37.3807 7 36V33H4Z" fill="white"/>
<path fill-rule="evenodd" clip-rule="evenodd" d="M24.1389 41.3345C24.9325 36.6043 29.0447 33 34.0007 33C38.9567 33 43.0689 36.6043 43.8625 41.3345L44.019 42.2676L40.8153 42.9895C36.3285 44.0005 31.6729 44.0005 27.1861 42.9895L23.9824 42.2676L24.1389 41.3345Z" fill="white"/>
<path fill-rule="evenodd" clip-rule="evenodd" d="M4.15653 25.3345C4.95012 20.6043 9.06232 17 14.0183 17C18.9743 17 23.0865 20.6043 23.8801 25.3345L24.0366 26.2676L20.8329 26.9895C16.3461 28.0005 11.6905 28.0005 7.20371 26.9895L4 26.2676L4.15653 25.3345Z" fill="white"/>
</svg>
