<svg width="48" height="48" viewBox="0 0 48 48" fill="none" xmlns="http://www.w3.org/2000/svg">
<path d="M21.6 7.19922H14.4C13.0745 7.19922 12 8.27374 12 9.59922V19.1992C12 20.5247 13.0745 21.5992 14.4 21.5992H21.6C22.9255 21.5992 24 20.5247 24 19.1992V9.59922C24 8.27374 22.9255 7.19922 21.6 7.19922Z" fill="white" stroke="white" stroke-width="2" stroke-linecap="round" stroke-linejoin="round"/>
<path d="M38.3996 14.3984H35.9996C34.6741 14.3984 33.5996 15.473 33.5996 16.7984V35.9984C33.5996 37.3239 34.6741 38.3984 35.9996 38.3984H38.3996C39.7251 38.3984 40.7996 37.3239 40.7996 35.9984V16.7984C40.7996 15.473 39.7251 14.3984 38.3996 14.3984Z" fill="white" stroke="white" stroke-width="2" stroke-linecap="round" stroke-linejoin="round"/>
<path d="M21.6002 31.1992H9.6002C8.27471 31.1992 7.2002 32.2737 7.2002 33.5992V38.3992C7.2002 39.7247 8.27471 40.7992 9.6002 40.7992H21.6002C22.9257 40.7992 24.0002 39.7247 24.0002 38.3992V33.5992C24.0002 32.2737 22.9257 31.1992 21.6002 31.1992Z" fill="white" stroke="white" stroke-width="2" stroke-linecap="round" stroke-linejoin="round"/>
</svg>
