<svg width="24" height="24" viewBox="0 0 24 24" fill="none" xmlns="http://www.w3.org/2000/svg">
<path d="M23.5319 10.65C21.9292 8.57475 17.5972 3.75 11.9999 3.75C6.33144 3.75 2.03769 8.5785 0.455937 10.65C0.158874 11.0366 -0.00148272 11.5109 1.03324e-05 11.9984C0.00150338 12.486 0.164762 12.9592 0.464187 13.344C2.06844 15.4222 6.40194 20.25 11.9999 20.25C17.5979 20.25 21.9292 15.4253 23.5304 13.3538C23.8314 12.9675 23.9949 12.4918 23.9952 12.0021C23.9955 11.5124 23.8325 11.0366 23.5319 10.65ZM11.9999 16.5C11.1099 16.5 10.2399 16.2361 9.49987 15.7416C8.75985 15.2471 8.18307 14.5443 7.84248 13.7221C7.50188 12.8998 7.41277 11.995 7.5864 11.1221C7.76004 10.2492 8.18862 9.44736 8.81796 8.81802C9.44729 8.18868 10.2491 7.7601 11.122 7.58647C11.9949 7.41283 12.8997 7.50195 13.722 7.84254C14.5443 8.18314 15.2471 8.75991 15.7416 9.49993C16.236 10.24 16.4999 11.11 16.4999 12C16.4999 13.1935 16.0258 14.3381 15.1819 15.182C14.338 16.0259 13.1934 16.5 11.9999 16.5Z" fill="white"/>
</svg>
