<svg width="43" height="43" viewBox="0 0 43 43" fill="none" xmlns="http://www.w3.org/2000/svg">
<path d="M40 11H0V0H40V11Z" fill="white"/>
<path fill-rule="evenodd" clip-rule="evenodd" d="M30.5 22C25.8056 22 22 25.8056 22 30.5C22 35.1944 25.8056 39 30.5 39C32.3054 39 33.9794 38.4371 35.356 37.4773L40 42.1213L42.1213 40L37.4773 35.356C38.4371 33.9794 39 32.3054 39 30.5C39 25.8056 35.1944 22 30.5 22ZM25 30.5C25 27.4624 27.4624 25 30.5 25C33.5376 25 36 27.4624 36 30.5C36 33.5376 33.5376 36 30.5 36C27.4624 36 25 33.5376 25 30.5Z" fill="white"/>
<path fill-rule="evenodd" clip-rule="evenodd" d="M38 21.7819C35.9864 20.0481 33.3656 19 30.5 19C24.1487 19 19 24.1487 19 30.5C19 33.3656 20.0481 35.9864 21.7819 38H8C4.68629 38 2 35.3137 2 32V14H38V21.7819ZM17 21C15.8954 21 15 19.966 15 18.8614C15 17.7568 15.8954 17 17 17H23C24.1046 17 25 17.8954 25 19C25 20.1046 24.1046 21 23 21H17Z" fill="white"/>
</svg>
