<svg width="48" height="48" viewBox="0 0 48 48" fill="none" xmlns="http://www.w3.org/2000/svg">
<path d="M27.051 35.001H18V32.001H0C0 32.001 0 39.001 8 39.001H28.214C27.5728 37.7548 27.1779 36.3967 27.051 35.001Z" fill="white"/>
<path d="M42 23.765C42.7001 24.0383 43.3703 24.3827 44 24.793V9.00098C44 7.94011 43.5786 6.92269 42.8284 6.17255C42.0783 5.4224 41.0609 5.00098 40 5.00098H8C6.93913 5.00098 5.92172 5.4224 5.17157 6.17255C4.42143 6.92269 4 7.94011 4 9.00098V30.001H6V9.00098H42V23.765Z" fill="white"/>
<path d="M38 25.001C36.22 25.001 34.4799 25.5288 32.9999 26.5177C31.5198 27.5067 30.3663 28.9123 29.6851 30.5568C29.0039 32.2014 28.8257 34.011 29.1729 35.7568C29.5202 37.5026 30.3774 39.1063 31.636 40.3649C32.8947 41.6236 34.4984 42.4808 36.2442 42.828C37.99 43.1753 39.7996 42.9971 41.4442 42.3159C43.0887 41.6347 44.4943 40.4812 45.4832 39.0011C46.4722 37.5211 47 35.781 47 34.001C46.9974 31.6148 46.0483 29.3272 44.361 27.6399C42.6738 25.9527 40.3861 25.0036 38 25.001ZM43.707 31.708L36.707 38.708C36.5195 38.8954 36.2652 39.0008 36 39.0008C35.7348 39.0008 35.4805 38.8954 35.293 38.708L32.293 35.708C32.1108 35.5194 32.0101 35.2668 32.0123 35.0046C32.0146 34.7424 32.1198 34.4916 32.3052 34.3062C32.4906 34.1207 32.7414 34.0156 33.0036 34.0133C33.2658 34.011 33.5184 34.1118 33.707 34.294L36 36.587L42.293 30.294C42.4816 30.1118 42.7342 30.011 42.9964 30.0133C43.2586 30.0156 43.5094 30.1207 43.6948 30.3062C43.8802 30.4916 43.9854 30.7424 43.9877 31.0046C43.99 31.2668 43.8892 31.5194 43.707 31.708Z" fill="white"/>
</svg>
