<svg width="226" height="110" viewBox="0 0 226 110" fill="none" xmlns="http://www.w3.org/2000/svg">
<g filter="url(#filter0_ddd_3550_126045)">
<rect x="7" y="5" width="212" height="96" rx="8" fill="url(#paint0_linear_3550_126045)" fill-opacity="0.1" shape-rendering="crispEdges"/>
<rect x="7.5" y="5.5" width="211" height="95" rx="7.5" stroke="url(#paint1_linear_3550_126045)" stroke-opacity="0.1" shape-rendering="crispEdges"/>
<path d="M91.7986 56.1339H91.748L88.5676 43.293H84.7354L81.4888 55.9783H81.4363L78.4991 43.3007H74.4141L79.3414 61.924H83.4867L86.5874 49.2485H86.6399L89.795 61.924H93.8625L98.8597 43.3007H94.8449L91.7986 56.1339ZM111.346 49.6006C110.954 49.1013 110.438 48.7141 109.848 48.4781C109.07 48.1845 108.242 48.0477 107.411 48.0752C106.666 48.0867 105.934 48.2698 105.271 48.6103C104.515 48.9893 103.888 49.5836 103.47 50.3186H103.392V43.3007H99.6962V61.924H103.392V54.8557C103.392 53.4821 103.618 52.495 104.069 51.8944C104.52 51.2939 105.25 50.9943 106.259 50.9956C107.144 50.9956 107.763 51.2699 108.109 51.8186C108.456 52.3672 108.631 53.1961 108.631 54.309V61.924H112.327V53.6299C112.332 52.8636 112.258 52.0987 112.105 51.3477C111.985 50.7164 111.726 50.1195 111.346 49.6006ZM126.597 58.9219V51.9178C126.597 51.0993 126.415 50.4424 126.05 49.947C125.685 49.448 125.201 49.0471 124.644 48.7796C124.042 48.4943 123.4 48.3059 122.739 48.2211C122.057 48.1264 121.369 48.0783 120.679 48.0771C119.93 48.0764 119.183 48.1501 118.448 48.297C117.746 48.4304 117.071 48.6818 116.452 49.0402C115.866 49.3821 115.367 49.8548 114.994 50.4217C114.586 51.0722 114.361 51.8199 114.34 52.5871H118.036C118.106 51.8575 118.351 51.3342 118.767 51.0306C119.184 50.7271 119.767 50.5559 120.499 50.5559C120.808 50.5544 121.116 50.576 121.423 50.6201C121.69 50.6556 121.947 50.7442 122.179 50.8808C122.399 51.0135 122.579 51.2031 122.7 51.4295C122.844 51.7253 122.911 52.0525 122.895 52.3809C122.914 52.5431 122.893 52.7075 122.834 52.8596C122.775 53.0119 122.68 53.1475 122.557 53.2544C122.262 53.4779 121.922 53.6328 121.561 53.7077C121.089 53.8224 120.61 53.9011 120.127 53.9432C119.586 53.9964 119.039 54.0658 118.485 54.1513C117.927 54.2392 117.375 54.3575 116.83 54.5054C116.308 54.6401 115.814 54.8646 115.369 55.1689C114.933 55.4775 114.575 55.884 114.324 56.3557C114.036 56.943 113.897 57.5929 113.922 58.2468C113.906 58.8653 114.026 59.4797 114.274 60.0466C114.494 60.5353 114.828 60.9648 115.246 61.2995C115.679 61.6377 116.175 61.8857 116.705 62.0292C117.291 62.1904 117.897 62.2697 118.505 62.2645C119.335 62.2646 120.16 62.1421 120.954 61.9008C121.747 61.6596 122.466 61.2188 123.041 60.6205C123.057 60.844 123.088 61.0662 123.132 61.2859C123.175 61.5021 123.232 61.7152 123.302 61.924H127.056C126.848 61.537 126.724 61.111 126.69 60.673C126.622 60.0919 126.591 59.5071 126.597 58.9219ZM122.901 56.704C122.897 56.9833 122.875 57.2621 122.837 57.5387C122.788 57.9021 122.668 58.2525 122.485 58.5698C122.269 58.9326 121.964 59.2335 121.598 59.4433C121.199 59.6872 120.635 59.8091 119.903 59.8091C119.615 59.8095 119.327 59.7828 119.043 59.7294C118.785 59.6854 118.537 59.5922 118.314 59.4551C118.104 59.3245 117.933 59.1405 117.818 58.9219C117.689 58.6631 117.626 58.3764 117.635 58.0873C117.625 57.7894 117.687 57.4934 117.818 57.2254C117.935 57.0051 118.1 56.8137 118.3 56.6651C118.514 56.5099 118.752 56.391 119.005 56.3129C119.273 56.2261 119.548 56.1565 119.826 56.1048C120.121 56.0542 120.409 56.0075 120.711 55.9744C121.012 55.9413 121.294 55.8946 121.559 55.844C121.815 55.7953 122.068 55.7304 122.315 55.6495C122.53 55.583 122.729 55.4722 122.899 55.3246L122.901 56.704ZM133.512 44.3942H129.816V48.4391H127.564V50.9178H129.805V58.8734C129.78 59.4402 129.897 60.0044 130.143 60.5155C130.354 60.9205 130.675 61.2577 131.069 61.4882C131.49 61.7244 131.952 61.8788 132.431 61.9435C132.97 62.0232 133.514 62.0623 134.059 62.0602C134.426 62.0602 134.798 62.0602 135.181 62.035C135.531 62.0217 135.879 61.9866 136.224 61.9299V59.0543C136.043 59.0926 135.86 59.1192 135.675 59.1341C135.481 59.1516 135.286 59.1613 135.076 59.1613C134.452 59.1613 134.033 59.0543 133.823 58.8461C133.613 58.6379 133.512 58.2215 133.512 57.5951V50.9178H136.224V48.4391H133.506L133.512 44.3942ZM148.815 56.0133C148.572 55.5903 148.24 55.2252 147.843 54.9432C147.425 54.6473 146.966 54.4141 146.481 54.2506C145.969 54.0793 145.442 53.9315 144.903 53.8089C144.365 53.6863 143.87 53.5735 143.367 53.4704C142.912 53.3788 142.463 53.2613 142.022 53.1183C141.676 53.012 141.353 52.8388 141.073 52.6085C140.955 52.5107 140.86 52.3871 140.797 52.2472C140.733 52.1072 140.703 51.9547 140.707 51.8012C140.694 51.5635 140.765 51.3288 140.91 51.1396C141.047 50.9717 141.221 50.8386 141.419 50.7504C141.631 50.6615 141.854 50.6045 142.083 50.5811C142.309 50.561 142.536 50.5526 142.764 50.5559C143.36 50.5408 143.951 50.6702 144.487 50.9334C144.971 51.1844 145.242 51.6668 145.292 52.3809H148.813C148.775 51.6466 148.555 50.9331 148.173 50.3049C147.831 49.7704 147.372 49.3206 146.831 48.9897C146.265 48.6482 145.642 48.4098 144.993 48.2854C144.294 48.1448 143.583 48.0751 142.871 48.0771C142.153 48.0764 141.437 48.1415 140.731 48.2717C140.071 48.3893 139.436 48.619 138.854 48.9508C138.301 49.2673 137.839 49.7201 137.511 50.2661C137.149 50.9192 136.973 51.6597 137.004 52.4062C136.987 52.9302 137.114 53.4488 137.37 53.9062C137.613 54.3146 137.945 54.6624 138.342 54.9237C138.764 55.2032 139.222 55.4226 139.704 55.5756C140.215 55.7409 140.743 55.8849 141.279 56.0055C142.329 56.2089 143.362 56.4885 144.37 56.8422C145.11 57.1184 145.479 57.5355 145.479 58.0931C145.491 58.385 145.408 58.6729 145.244 58.9142C145.09 59.1289 144.891 59.307 144.66 59.4356C144.417 59.5695 144.154 59.6659 143.882 59.7217C143.613 59.7821 143.337 59.8133 143.061 59.815C142.706 59.8157 142.352 59.7719 142.007 59.6846C141.685 59.6046 141.38 59.4676 141.106 59.28C140.844 59.0951 140.625 58.8546 140.466 58.5757C140.295 58.2595 140.21 57.904 140.219 57.5445H136.687C136.69 58.3374 136.902 59.1156 137.299 59.8014C137.66 60.3877 138.15 60.8831 138.733 61.2489C139.347 61.6249 140.023 61.8885 140.729 62.0272C141.482 62.1852 142.25 62.2641 143.02 62.2626C143.778 62.2633 144.534 62.189 145.277 62.0408C145.976 61.9064 146.644 61.6424 147.245 61.2626C147.866 60.8778 148.372 60.3338 148.711 59.6871C149.05 59.0404 149.21 58.3147 149.173 57.5854C149.19 57.0399 149.065 56.4993 148.809 56.0171L148.815 56.0133ZM156.166 43.2969L149.128 61.9201H153.246L154.707 57.7741H161.667L163.074 61.9201H167.326L160.36 43.3007L156.166 43.2969ZM155.777 54.7214L158.203 47.8885H158.254L160.602 54.7214H155.777ZM180.112 50.2661C179.603 49.6001 178.953 49.0564 178.207 48.6746C177.359 48.2551 176.419 48.0494 175.472 48.0752C174.68 48.0651 173.896 48.2341 173.177 48.5694C172.463 48.9226 171.867 49.4781 171.465 50.1668H171.413V48.4391H167.892V66.6461H171.588V60.2566H171.638C172.073 60.9022 172.672 61.4195 173.374 61.7548C174.095 62.0978 174.883 62.2721 175.68 62.2645C176.579 62.2817 177.469 62.0814 178.273 61.6809C178.997 61.3103 179.63 60.7841 180.126 60.14C180.631 59.4773 181.007 58.7255 181.234 57.9239C181.478 57.0764 181.6 56.1987 181.598 55.3168C181.602 54.387 181.479 53.4609 181.234 52.5637C181.009 51.7333 180.629 50.9534 180.112 50.2661ZM177.74 56.8129C177.649 57.2962 177.467 57.7582 177.206 58.1748C176.764 58.7955 176.112 59.2343 175.371 59.4097C174.63 59.5851 173.85 59.485 173.177 59.1282C172.771 58.8952 172.427 58.5682 172.174 58.1748C171.911 57.7577 171.726 57.2962 171.627 56.8129C171.513 56.2908 171.456 55.7578 171.458 55.2233C171.456 54.6801 171.508 54.1379 171.611 53.6046C171.705 53.1148 171.887 52.6461 172.148 52.2213C172.398 51.8242 172.737 51.4912 173.139 51.2485C173.601 50.9781 174.128 50.8431 174.664 50.8595C175.19 50.8453 175.709 50.9801 176.161 51.2485C176.568 51.4969 176.911 51.8357 177.165 52.2388C177.433 52.6667 177.623 53.1391 177.725 53.6338C177.84 54.1573 177.897 54.6916 177.894 55.2273C177.898 55.7593 177.849 56.2904 177.748 56.8129H177.74ZM195.989 52.5735C195.767 51.7393 195.386 50.9559 194.866 50.2661C194.359 49.6002 193.709 49.0565 192.965 48.6746C192.114 48.2555 191.175 48.0498 190.227 48.0752C189.435 48.0658 188.652 48.2347 187.933 48.5694C187.219 48.9231 186.623 49.4784 186.22 50.1668H186.17V48.4391H182.641V66.6461H186.336V60.2566H186.389C186.823 60.9017 187.421 61.4188 188.123 61.7548C188.843 62.0978 189.632 62.2721 190.43 62.2645C191.329 62.2817 192.219 62.0814 193.024 61.6809C193.748 61.3103 194.38 60.784 194.874 60.14C195.38 59.4773 195.756 58.7255 195.983 57.9239C196.228 57.0766 196.351 56.1988 196.348 55.3168C196.356 54.3907 196.238 53.4679 195.996 52.5735H195.989ZM192.487 56.8129C192.397 57.2965 192.215 57.7586 191.953 58.1748C191.68 58.5932 191.307 58.9368 190.867 59.1746C190.428 59.4124 189.935 59.537 189.436 59.537C188.937 59.537 188.445 59.4124 188.006 59.1746C187.567 58.9368 187.194 58.5932 186.921 58.1748C186.659 57.7573 186.473 57.296 186.374 56.8129C186.261 56.2907 186.205 55.7578 186.205 55.2233C186.203 54.68 186.255 54.1379 186.361 53.6046C186.461 53.1133 186.651 52.6444 186.921 52.2213C187.171 51.8251 187.51 51.4922 187.91 51.2485C188.372 50.9781 188.901 50.8431 189.435 50.8595C189.961 50.845 190.481 50.98 190.933 51.2485C191.34 51.4968 191.685 51.8357 191.939 52.2388C192.207 52.6667 192.397 53.1391 192.499 53.6338C192.614 54.1573 192.67 54.6916 192.668 55.2273C192.665 55.76 192.61 56.2911 192.503 56.8129H192.487Z" fill="white"/>
<path d="M67.6068 52.0985C67.4262 47.1548 65.3433 42.472 61.7929 39.0279C58.2425 35.5837 53.4991 33.6446 48.5532 33.6152H48.4598C45.1291 33.6128 41.8553 34.4777 38.9602 36.1248C36.0652 37.772 33.6488 40.1446 31.9488 43.0093C30.2488 45.874 29.3237 49.1321 29.2647 52.4628C29.2057 55.7936 30.0147 59.0823 31.6122 62.0055L29.9159 72.1576C29.9132 72.1784 29.9149 72.1995 29.9209 72.2197C29.927 72.2398 29.9373 72.2584 29.9511 72.2743C29.9649 72.2901 29.9819 72.3028 30.001 72.3115C30.0201 72.3203 30.0408 72.3248 30.0618 72.325H30.091L40.1303 70.0914C42.7243 71.337 45.5649 71.9833 48.4423 71.9825C48.6252 71.9825 48.808 71.9825 48.9908 71.9825C51.522 71.9103 54.0137 71.3373 56.3222 70.2968C58.6308 69.2563 60.7104 67.7688 62.4412 65.9202C64.1719 64.0715 65.5195 61.8984 66.4061 59.526C67.2926 57.1537 67.7007 54.6293 67.6068 52.0985ZM48.8955 68.6457C48.7438 68.6457 48.5921 68.6457 48.4423 68.6457C45.8993 68.649 43.3927 68.0403 41.1341 66.8714L40.6205 66.6029L33.8122 68.2119L35.0689 61.3225L34.7771 60.8283C33.3835 58.4519 32.6328 55.7533 32.5991 52.9984C32.5654 50.2435 33.2497 47.5273 34.5847 45.1174C35.9197 42.7075 37.8593 40.687 40.2124 39.2548C42.5656 37.8227 45.2512 37.0283 48.0047 36.95C48.1577 36.95 48.3113 36.95 48.4656 36.95C52.6229 36.9623 56.6089 38.6076 59.5648 41.5313C62.5208 44.4551 64.2101 48.4233 64.2688 52.5808C64.3274 56.7385 62.7508 60.7527 59.8786 63.7588C57.0062 66.7648 53.0682 68.522 48.913 68.6517L48.8955 68.6457Z" fill="white"/>
<path d="M41.7751 43.5371C41.5381 43.5417 41.3044 43.5939 41.0879 43.6904C40.8714 43.787 40.6764 43.9261 40.5146 44.0994C40.0575 44.5683 38.7794 45.6967 38.7055 48.0665C38.6316 50.4361 40.287 52.7807 40.5185 53.1094C40.75 53.4382 43.6833 58.5572 48.5153 60.633C51.3554 61.8569 52.6003 62.067 53.4075 62.067C53.7403 62.067 53.9912 62.032 54.2537 62.0164C55.1388 61.9619 57.1366 60.9386 57.5723 59.8257C58.0081 58.7128 58.0372 57.74 57.9224 57.5454C57.8077 57.3508 57.4926 57.2107 57.018 56.9617C56.5433 56.7127 54.2149 55.4675 53.7772 55.2924C53.6149 55.2168 53.4402 55.1714 53.2616 55.1582C53.1454 55.1643 53.0324 55.1986 52.9324 55.2583C52.8324 55.3179 52.7484 55.4012 52.6878 55.5005C52.2989 55.985 51.406 57.0376 51.1063 57.3412C51.0409 57.4165 50.9603 57.4773 50.8698 57.5196C50.7794 57.5618 50.681 57.5845 50.5811 57.5863C50.3972 57.5782 50.2172 57.5297 50.054 57.4443C48.6436 56.8452 47.3576 55.9872 46.2627 54.915C45.2397 53.9065 44.3717 52.7519 43.6872 51.4888C43.4227 50.9985 43.6872 50.7456 43.9285 50.516C44.1697 50.2863 44.4284 49.9693 44.6773 49.6948C44.8817 49.4605 45.052 49.1986 45.1832 48.9167C45.251 48.7858 45.2854 48.6401 45.2829 48.4928C45.2806 48.3453 45.2416 48.2009 45.1695 48.0723C45.0548 47.8271 44.1969 45.4165 43.7943 44.4496C43.4675 43.6227 43.0784 43.5955 42.738 43.5702C42.4579 43.5507 42.1369 43.541 41.816 43.5312H41.7751" fill="white"/>
</g>
<defs>
<filter id="filter0_ddd_3550_126045" x="0" y="0" width="226" height="110" filterUnits="userSpaceOnUse" color-interpolation-filters="sRGB">
<feFlood flood-opacity="0" result="BackgroundImageFix"/>
<feColorMatrix in="SourceAlpha" type="matrix" values="0 0 0 0 0 0 0 0 0 0 0 0 0 0 0 0 0 0 127 0" result="hardAlpha"/>
<feMorphology radius="1" operator="dilate" in="SourceAlpha" result="effect1_dropShadow_3550_126045"/>
<feOffset/>
<feComposite in2="hardAlpha" operator="out"/>
<feColorMatrix type="matrix" values="0 0 0 0 0.0627451 0 0 0 0 0.0980392 0 0 0 0 0.156863 0 0 0 0.05 0"/>
<feBlend mode="normal" in2="BackgroundImageFix" result="effect1_dropShadow_3550_126045"/>
<feColorMatrix in="SourceAlpha" type="matrix" values="0 0 0 0 0 0 0 0 0 0 0 0 0 0 0 0 0 0 127 0" result="hardAlpha"/>
<feOffset dy="2"/>
<feGaussianBlur stdDeviation="3.5"/>
<feComposite in2="hardAlpha" operator="out"/>
<feColorMatrix type="matrix" values="0 0 0 0 0.0627451 0 0 0 0 0.0980392 0 0 0 0 0.156863 0 0 0 0.05 0"/>
<feBlend mode="normal" in2="effect1_dropShadow_3550_126045" result="effect2_dropShadow_3550_126045"/>
<feColorMatrix in="SourceAlpha" type="matrix" values="0 0 0 0 0 0 0 0 0 0 0 0 0 0 0 0 0 0 127 0" result="hardAlpha"/>
<feMorphology radius="2" operator="erode" in="SourceAlpha" result="effect3_dropShadow_3550_126045"/>
<feOffset dy="2"/>
<feGaussianBlur stdDeviation="2.5"/>
<feComposite in2="hardAlpha" operator="out"/>
<feColorMatrix type="matrix" values="0 0 0 0 0.0627451 0 0 0 0 0.0980392 0 0 0 0 0.156863 0 0 0 0.06 0"/>
<feBlend mode="normal" in2="effect2_dropShadow_3550_126045" result="effect3_dropShadow_3550_126045"/>
<feBlend mode="normal" in="SourceGraphic" in2="effect3_dropShadow_3550_126045" result="shape"/>
</filter>
<linearGradient id="paint0_linear_3550_126045" x1="-45.2639" y1="-32.3012" x2="180.57" y2="160.906" gradientUnits="userSpaceOnUse">
<stop stop-color="white"/>
<stop offset="1" stop-color="white" stop-opacity="0"/>
</linearGradient>
<linearGradient id="paint1_linear_3550_126045" x1="-228.556" y1="-101.41" x2="160.717" y2="178.118" gradientUnits="userSpaceOnUse">
<stop stop-color="white"/>
<stop offset="1" stop-color="white" stop-opacity="0"/>
</linearGradient>
</defs>
</svg>
