<svg width="41" height="40" viewBox="0 0 41 40" fill="none" xmlns="http://www.w3.org/2000/svg">
<rect x="0.666992" y="0.000854492" width="40" height="40" rx="4" fill="white" fill-opacity="0.1"/>
<path fill-rule="evenodd" clip-rule="evenodd" d="M28.0718 12.5526C26.1075 10.5854 23.4945 9.50235 20.7113 9.50085C14.9753 9.50085 10.3065 14.1689 10.305 19.9064C10.3043 21.7409 10.7835 23.5311 11.694 25.1084L10.2173 30.5009L15.7335 29.0541C17.253 29.8836 18.9645 30.3201 20.706 30.3209H20.7105C26.4458 30.3209 31.1145 25.6529 31.116 19.9154C31.1168 17.1344 30.036 14.5206 28.071 12.5541L28.0718 12.5526ZM20.7113 28.5629H20.7075C19.1558 28.5629 17.6333 28.1451 16.305 27.3576L15.9893 27.1701L12.7155 28.0289L13.5893 24.8369L13.3838 24.5099C12.5183 23.1329 12.0608 21.5414 12.0615 19.9071C12.0638 15.1386 15.9435 11.2589 20.7143 11.2589C23.0243 11.2596 25.1955 12.1604 26.829 13.7954C28.4618 15.4296 29.361 17.6031 29.3595 19.9139C29.3573 24.6831 25.4783 28.5629 20.7113 28.5629ZM25.455 22.0859C25.1948 21.9554 23.9168 21.3269 23.6783 21.2399C23.4398 21.1529 23.2665 21.1094 23.0933 21.3704C22.92 21.6306 22.422 22.2164 22.2698 22.3896C22.1183 22.5636 21.966 22.5846 21.7065 22.4541C21.4463 22.3236 20.6085 22.0491 19.6155 21.1641C18.843 20.4749 18.321 19.6236 18.1688 19.3626C18.0173 19.1024 18.153 18.9614 18.2828 18.8324C18.3998 18.7154 18.543 18.5286 18.6728 18.3771C18.8033 18.2256 18.846 18.1169 18.933 17.9436C19.02 17.7696 18.9765 17.6181 18.9113 17.4884C18.846 17.3579 18.3263 16.0784 18.1095 15.5579C17.8988 15.0509 17.6843 15.1199 17.5245 15.1116C17.373 15.1041 17.1998 15.1026 17.0258 15.1026C16.8518 15.1026 16.5705 15.1671 16.332 15.4281C16.0935 15.6884 15.4223 16.3176 15.4223 17.5971C15.4223 18.8766 16.3538 20.1134 16.4843 20.2874C16.6148 20.4614 18.318 23.0871 20.9258 24.2136C21.546 24.4814 22.0305 24.6419 22.4085 24.7611C23.031 24.9591 23.598 24.9314 24.0458 24.8646C24.5453 24.7896 25.584 24.2354 25.8008 23.6279C26.0175 23.0204 26.0175 22.4999 25.9523 22.3911C25.887 22.2824 25.7138 22.2171 25.4535 22.0874L25.455 22.0859Z" fill="white"/>
</svg>
