<svg width="48" height="48" viewBox="0 0 48 48" fill="none" xmlns="http://www.w3.org/2000/svg">
<path d="M22.9872 5.02005C22.9819 4.78894 22.8968 4.56679 22.7462 4.3914C22.5956 4.21601 22.3889 4.09821 22.1612 4.05805L10.3442 1.97405C10.1158 1.93283 9.88011 1.97287 9.67809 2.08721C9.47608 2.20155 9.32045 2.38298 9.2382 2.60005C7.00048 8.49743 5.24506 14.5667 3.9892 20.748C3.5499 22.9092 3.87919 25.1559 4.9202 27.1C6.06683 29.1626 7.98179 30.6887 10.2482 31.346L8.6742 40.266C8.58202 40.7884 8.28613 41.2527 7.85161 41.5569C7.4171 41.8611 6.87955 41.9802 6.3572 41.888L3.4002 41.366C3.14231 41.3274 2.87952 41.391 2.66785 41.5433C2.45618 41.6956 2.31239 41.9246 2.26713 42.1814C2.22187 42.4383 2.27873 42.7026 2.42557 42.9181C2.57241 43.1336 2.79763 43.2832 3.0532 43.335L8.9662 44.378L14.8662 45.419C14.9239 45.4298 14.9825 45.4351 15.0412 45.435C15.2915 45.4352 15.5327 45.3414 15.7172 45.1724C15.9017 45.0033 16.0161 44.7712 16.0379 44.5219C16.0596 44.2725 15.9871 44.0241 15.8346 43.8257C15.6821 43.6273 15.4607 43.4932 15.2142 43.45L12.2642 42.93C12.0055 42.8845 11.7583 42.7885 11.5367 42.6474C11.3151 42.5063 11.1234 42.3229 10.9727 42.1078C10.822 41.8926 10.7152 41.6498 10.6583 41.3934C10.6014 41.1369 10.5956 40.8717 10.6412 40.613L12.2162 31.688C12.4102 31.701 12.6042 31.714 12.7982 31.714C14.8323 31.7126 16.8052 31.0185 18.3922 29.746C20.1758 28.2715 21.3549 26.1926 21.7052 23.905C22.6444 17.6553 23.0732 11.3394 22.9872 5.02005ZM19.6732 23.927C19.5163 24.8332 19.181 25.6992 18.6867 26.4747C18.1925 27.2503 17.5492 27.92 16.7942 28.445C16.6868 28.5232 16.5649 28.5792 16.4356 28.6098C16.3062 28.6403 16.1721 28.6448 16.0411 28.6229C15.91 28.6011 15.7847 28.5533 15.6723 28.4824C15.5599 28.4116 15.4627 28.319 15.3865 28.2102C15.3103 28.1013 15.2566 27.9784 15.2284 27.8486C15.2002 27.7187 15.1982 27.5845 15.2225 27.4539C15.2468 27.3233 15.2968 27.1988 15.3697 27.0877C15.4427 26.9767 15.537 26.8812 15.6472 26.807C16.1858 26.4314 16.6446 25.9527 16.997 25.3987C17.3494 24.8446 17.5884 24.2261 17.7002 23.579C17.8692 22.619 18.0172 21.639 18.1452 20.657C18.1809 20.3952 18.3189 20.1581 18.5289 19.9976C18.739 19.8372 19.004 19.7664 19.266 19.8008C19.5281 19.8351 19.7659 19.9718 19.9274 20.181C20.089 20.3902 20.1612 20.6548 20.1282 20.917C19.9932 21.978 19.8392 22.99 19.6732 23.927ZM20.4622 17.974L7.1812 15.632C8.5172 10.463 10.1592 5.85405 10.8132 4.08705L21.0002 5.88305C21.0082 7.76705 20.9742 12.658 20.4622 17.974Z" fill="white"/>
<path d="M44.5999 41.366L41.6499 41.886C41.1275 41.9782 40.59 41.859 40.1554 41.5549C39.7209 41.2507 39.425 40.7864 39.3329 40.264L37.7598 31.341C40.0229 30.6809 41.9342 29.1548 43.0789 27.094C44.1158 25.1615 44.4461 22.9279 44.0129 20.778C43.7379 19.271 43.4019 17.747 43.0359 16.255C41.8728 11.6255 40.4458 7.06642 38.7619 2.60001C38.6787 2.38387 38.5227 2.20355 38.3208 2.09017C38.1189 1.97679 37.8837 1.93748 37.6558 1.97901L25.8388 4.05801C25.6112 4.09817 25.4045 4.21597 25.2539 4.39136C25.1033 4.56675 25.0181 4.7889 25.0128 5.02001C24.9263 11.3444 25.3554 17.6653 26.2958 23.92C26.6481 26.2075 27.8311 28.285 29.6188 29.755C31.2039 31.0208 33.1714 31.7114 35.1999 31.714C35.3999 31.714 35.5998 31.701 35.7938 31.688L37.3669 40.611C37.459 41.1334 37.3399 41.6709 37.0357 42.1054C36.7315 42.5399 36.2672 42.8358 35.7449 42.928L32.7839 43.45C32.5373 43.4932 32.316 43.6272 32.1635 43.8257C32.011 44.0241 31.9385 44.2725 31.9602 44.5218C31.9819 44.7712 32.0963 45.0033 32.2809 45.1723C32.4654 45.3414 32.7066 45.4351 32.9569 45.435C33.0156 45.4351 33.0741 45.4297 33.1319 45.419L44.9499 43.335C45.0819 43.3152 45.2086 43.2692 45.3225 43.1997C45.4364 43.1301 45.5353 43.0385 45.6133 42.9302C45.6913 42.8218 45.7467 42.699 45.7765 42.5688C45.8062 42.4387 45.8096 42.304 45.7864 42.1725C45.7633 42.0411 45.714 41.9156 45.6416 41.8034C45.5692 41.6913 45.475 41.5948 45.3647 41.5197C45.2544 41.4445 45.1302 41.3922 44.9993 41.3658C44.8685 41.3394 44.7337 41.3395 44.6029 41.366H44.5999ZM41.5149 18.511C41.7479 19.562 41.9499 20.566 42.1149 21.496C42.2773 22.401 42.2586 23.3293 42.0598 24.227C41.861 25.1248 41.4861 25.9742 40.9569 26.726C40.8815 26.8336 40.7858 26.9254 40.675 26.996C40.5642 27.0666 40.4407 27.1147 40.3113 27.1375C40.1819 27.1604 40.0494 27.1575 39.9211 27.1291C39.7929 27.1007 39.6715 27.0473 39.5639 26.972C39.3465 26.8199 39.1985 26.5877 39.1524 26.3265C39.1295 26.1971 39.1324 26.0645 39.1608 25.9363C39.1892 25.808 39.2425 25.6866 39.3179 25.579C39.696 25.0421 39.9639 24.4356 40.1062 23.7945C40.2485 23.1534 40.2623 22.4905 40.1469 21.844C39.9839 20.927 39.7889 19.957 39.5639 18.944C39.5354 18.8158 39.5325 18.6832 39.5553 18.5538C39.5781 18.4245 39.6262 18.3009 39.6968 18.1901C39.7673 18.0793 39.859 17.9835 39.9666 17.9082C40.0742 17.8329 40.1956 17.7794 40.3239 17.751C40.4521 17.7226 40.5847 17.7197 40.714 17.7425C40.8434 17.7653 40.967 17.8134 41.0778 17.8839C41.1885 17.9545 41.2843 18.0462 41.3597 18.1538C41.435 18.2614 41.4884 18.3828 41.5169 18.511H41.5149ZM27.5378 17.974C27.0258 12.66 26.9918 7.76701 26.9998 5.88301L37.1838 4.08301C37.8378 5.85001 39.4839 10.459 40.8159 15.628L27.5378 17.974Z" fill="white"/>
</svg>
