<svg width="48" height="48" viewBox="0 0 48 48" fill="none" xmlns="http://www.w3.org/2000/svg">
<rect width="48" height="48" rx="4" fill="white" fill-opacity="0.1"/>
<path fill-rule="evenodd" clip-rule="evenodd" d="M21.4951 9.33203C20.7879 9.33203 20.1096 9.61298 19.6095 10.1131L12.781 16.9415C12.281 17.4416 12 18.1195 12 18.8268V34.6654C12 36.8745 13.7909 38.6654 16 38.6654H24.8835C23.3113 37.1496 22.3333 35.0217 22.3333 32.6654C22.3333 28.063 26.0643 24.332 30.6667 24.332C32.6954 24.332 34.5548 25.057 36 26.262V13.3314C36 11.1221 34.209 9.33203 32 9.33203H21.4951ZM21.3333 18.6654V11.332L14 18.6654H21.3333Z" fill="white"/>
<path fill-rule="evenodd" clip-rule="evenodd" d="M30.6673 38.9987C34.1651 38.9987 37.0007 36.1632 37.0007 32.6654C37.0007 29.1676 34.1651 26.332 30.6673 26.332C27.1695 26.332 24.334 29.1676 24.334 32.6654C24.334 36.1632 27.1695 38.9987 30.6673 38.9987ZM31.6673 29.332H29.6673V33.18L33.2331 35.727L34.3957 34.0996L31.6673 32.1508V29.332Z" fill="white"/>
</svg>
