<svg width="48" height="48" viewBox="0 0 48 48" fill="none" xmlns="http://www.w3.org/2000/svg">
<rect width="48" height="48" rx="4" fill="white" fill-opacity="0.1"/>
<path fill-rule="evenodd" clip-rule="evenodd" d="M37.2188 28.6668L25.9999 39.8858L24.1143 38.0002L35.3332 26.7812L37.2188 28.6668Z" fill="white"/>
<path fill-rule="evenodd" clip-rule="evenodd" d="M25.9999 26.7812L37.2188 38.0002L35.3332 39.8858L24.1143 28.6668L25.9999 26.7812Z" fill="white"/>
<path fill-rule="evenodd" clip-rule="evenodd" d="M19.9428 10.5056C20.693 9.75541 21.7104 9.33398 22.7712 9.33398H32C34.2092 9.33398 36 11.1249 36 13.334V24.1997C35.784 24.144 35.5601 24.1151 35.3332 24.1151C34.626 24.1151 33.9477 24.396 33.4476 24.8961L30.6665 27.6772L27.8855 24.8961C27.3853 24.396 26.7071 24.1151 25.9999 24.1151C25.2927 24.1151 24.6144 24.396 24.1143 24.8961L22.2287 26.7817C21.7285 27.2819 21.4476 27.9601 21.4476 28.6673C21.4476 29.3745 21.7285 30.0528 22.2287 30.5529L25.0097 33.334L22.2287 36.1151C21.7285 36.6152 21.4476 37.2935 21.4476 38.0007C21.4476 38.2275 21.4765 38.4513 21.5323 38.6673H16C13.7909 38.6673 12 36.8765 12 34.6673V20.1052C12 19.0444 12.4214 18.0269 13.1716 17.2768L19.9428 10.5056ZM14.6667 20.0007H22.6667V12.0007L14.6667 20.0007Z" fill="white"/>
</svg>
