<svg width="48" height="48" viewBox="0 0 48 48" fill="none" xmlns="http://www.w3.org/2000/svg">
<rect width="48" height="48" rx="4" fill="white" fill-opacity="0.1"/>
<g clip-path="url(#clip0_2207_12653)">
<path d="M15.5879 32.412L19.7569 28.243C18.6709 27.157 17.9999 25.657 17.9999 24C17.9999 20.686 20.6859 18 23.9999 18C25.6569 18 27.1569 18.672 28.2429 19.757L32.4119 15.588C30.2349 14.099 27.4609 13 23.9999 13C13.4439 13 9.24485 23.195 9.07085 23.628L8.92285 24L9.07085 24.372C9.18785 24.663 11.1269 29.36 15.5879 32.412Z" fill="white"/>
<path d="M34.7338 17.5098L29.7908 22.4528C29.9228 22.9478 29.9998 23.4648 29.9998 24.0018C29.9998 27.3158 27.3138 30.0018 23.9998 30.0018C23.4638 30.0018 22.9458 29.9248 22.4508 29.7928L18.3398 33.9038C19.9788 34.5778 21.8558 35.0028 23.9988 35.0028C34.5548 35.0028 38.7538 24.8078 38.9278 24.3748L39.0758 24.0028L38.9278 23.6308C38.8338 23.3958 37.5568 20.3008 34.7328 17.5108L34.7338 17.5098Z" fill="white"/>
<path d="M38.0002 8.58577L8.58594 38L10.0002 39.4142L39.4144 9.99999L38.0002 8.58577Z" fill="white"/>
</g>
<defs>
<clipPath id="clip0_2207_12653">
<rect width="32" height="32" fill="white" transform="translate(8 8)"/>
</clipPath>
</defs>
</svg>
