<svg width="48" height="48" viewBox="0 0 48 48" fill="none" xmlns="http://www.w3.org/2000/svg">
<rect width="48" height="48" rx="4" fill="white" fill-opacity="0.1"/>
<path d="M21.3327 11.9993C20.9645 11.9993 20.666 11.7008 20.666 11.3327V9.33268C20.666 8.96452 20.9645 8.66602 21.3327 8.66602C21.7008 8.66602 21.9993 8.96452 21.9993 9.33268V11.3327C21.9993 11.7008 21.7008 11.9993 21.3327 11.9993Z" fill="white"/>
<path d="M25.1042 13.5622C24.9336 13.5622 24.763 13.4971 24.6328 13.3669C24.3724 13.1064 24.3724 12.6846 24.6328 12.4241L26.0472 11.0098C26.3076 10.7493 26.7295 10.7493 26.9899 11.0098C27.2503 11.2702 27.2503 11.6921 26.9899 11.9525L25.5755 13.3669C25.4453 13.4971 25.2747 13.5622 25.1042 13.5622Z" fill="white"/>
<path d="M28.6667 17.3333H26.6667C26.2985 17.3333 26 17.0348 26 16.6667C26 16.2985 26.2985 16 26.6667 16H28.6667C29.0348 16 29.3333 16.2985 29.3333 16.6667C29.3333 17.0348 29.0348 17.3333 28.6667 17.3333Z" fill="white"/>
<path d="M17.5615 13.5622C17.3909 13.5622 17.2204 13.4971 17.0902 13.3669L15.6758 11.9525C15.4154 11.6921 15.4154 11.2702 15.6758 11.0098C15.9362 10.7493 16.3581 10.7493 16.6185 11.0098L18.0329 12.4241C18.2933 12.6846 18.2933 13.1064 18.0329 13.3669C17.9027 13.4971 17.7321 13.5622 17.5615 13.5622Z" fill="white"/>
<path d="M15.9997 17.3333H13.9997C13.6315 17.3333 13.333 17.0348 13.333 16.6667C13.333 16.2985 13.6315 16 13.9997 16H15.9997C16.3678 16 16.6663 16.2985 16.6663 16.6667C16.6663 17.0348 16.3678 17.3333 15.9997 17.3333Z" fill="white"/>
<path d="M30.742 24.1478L23.333 22.666V16.666C23.333 15.5614 22.4376 14.666 21.333 14.666C20.2284 14.666 19.333 15.5614 19.333 16.666V27.9993C19.333 28.3675 19.0345 28.666 18.6663 28.666C18.2982 28.666 17.9997 28.3675 17.9997 27.9993V25.3327H16.6663C15.93 25.3327 15.333 25.9296 15.333 26.666V31.9993C15.333 34.3327 18.6663 36.041 18.6663 38.666H30.6663L32.8386 27.2616C33.1124 25.8243 32.1768 24.4348 30.742 24.1478Z" fill="white"/>
</svg>
