<svg preserveAspectRatio="none" overflow="visible" style="display: block;" width="20" height="20" viewBox="0 -0.156 39.031 39.031" fill="none" xmlns="http://www.w3.org/2000/svg">
<g id="Group">
<path id="Vector" d="M19.509 29.2318C19.741 29.437 20.0027 29.6108 20.2885 29.7463C21.1894 30.1738 22.2344 30.1755 23.1365 29.7508L36.1757 23.6148V30.3935L19.509 38.7268L2.84236 30.3935V23.615L15.8815 29.751C16.7837 30.1755 17.8287 30.174 18.7295 29.7465C19.0154 29.611 19.2772 29.437 19.509 29.2318Z" fill="#F08B32"/>
<path id="Vector_2" fill-rule="evenodd" clip-rule="evenodd" d="M19.509 0L35.8985 8.19472L39.018 18.5932L21.7172 26.7349L19.509 17.9019L17.3009 26.7349L0 18.5932L3.11957 8.19472L19.509 0ZM19.5105 16.6652L32.4572 10.2009L19.509 3.72679L6.54021 10.2112L19.5105 16.6652Z" fill="#F08B32"/>
</g>
</svg>
