<svg preserveAspectRatio="none" overflow="visible" style="display: block;" width="15" height="18.3333" viewBox="0 0 15 18.3333" fill="none" xmlns="http://www.w3.org/2000/svg">
<g id="Group">
<path id="Vector" fill-rule="evenodd" clip-rule="evenodd" d="M12.5 18.3333C13.8794 18.3333 15 17.2204 15 15.8384V2.49497C15 1.11294 13.8794 0 12.5 0H2.5C1.12017 0 0 1.11505 0 2.49663V15.834C0 17.2148 1.11945 18.3333 2.5 18.3333H12.5ZM7.96721 2.91667L4.58333 6.30054L2.03279 3.75L2.91667 2.86612L4.58333 4.53279L7.08333 2.03278L7.96721 2.91667ZM7.96721 7.91667L7.08333 7.03279L4.58333 9.53279L2.91667 7.86613L2.03279 8.75L4.58333 11.3005L7.96721 7.91667ZM2.5 13.75H6.66667V15H2.5V13.75ZM9.58333 13.75V15H12.5V13.75H9.58333ZM9.58333 9.16667H12.5V10.4167H9.58333V9.16667ZM9.58333 4.16667V5.41667H12.5V4.16667H9.58333Z" fill="#F08B32"/>
</g>
</svg>
