<svg preserveAspectRatio="none" overflow="visible" style="display: block;" width="20" height="20" viewBox="0 0 20 20" fill="none" xmlns="http://www.w3.org/2000/svg">
<g id="Icon">
<path id="Vector" d="M18.1129 15.0038L11.4462 3.3371C11.3009 3.0806 11.0901 2.86726 10.8353 2.71883C10.5806 2.57039 10.2911 2.49219 9.99625 2.49219C9.70142 2.49219 9.41188 2.57039 9.15714 2.71883C8.90241 2.86726 8.69161 3.0806 8.54625 3.3371L1.87958 15.0038C1.73265 15.2582 1.6556 15.547 1.65625 15.8409C1.6569 16.1347 1.73523 16.4231 1.88329 16.677C2.03134 16.9308 2.24387 17.1409 2.49933 17.2861C2.75478 17.4313 3.04409 17.5064 3.33791 17.5038H16.6712C16.9637 17.5035 17.2509 17.4262 17.504 17.2798C17.7571 17.1334 17.9673 16.923 18.1133 16.6697C18.2594 16.4164 18.3363 16.1291 18.3362 15.8367C18.3361 15.5443 18.2591 15.257 18.1129 15.0038Z" stroke="#FF0000" stroke-width="1.66667" stroke-linecap="round" stroke-linejoin="round"/>
<path id="Vector_2" d="M10 7.5V10.8333" stroke="#FF0000" stroke-width="1.66667" stroke-linecap="round" stroke-linejoin="round"/>
<path id="Vector_3" d="M10 14.1641H10.0083" stroke="#FF0000" stroke-width="1.66667" stroke-linecap="round" stroke-linejoin="round"/>
</g>
</svg>
